%TF.GenerationSoftware,KiCad,Pcbnew,8.0.4*%
%TF.CreationDate,2024-07-29T15:22:08-07:00*%
%TF.ProjectId,3board_b,33626f61-7264-45f6-922e-6b696361645f,rev?*%
%TF.SameCoordinates,Original*%
%TF.FileFunction,Copper,L2,Bot*%
%TF.FilePolarity,Positive*%
%FSLAX46Y46*%
G04 Gerber Fmt 4.6, Leading zero omitted, Abs format (unit mm)*
G04 Created by KiCad (PCBNEW 8.0.4) date 2024-07-29 15:22:08*
%MOMM*%
%LPD*%
G01*
G04 APERTURE LIST*
G04 Aperture macros list*
%AMRoundRect*
0 Rectangle with rounded corners*
0 $1 Rounding radius*
0 $2 $3 $4 $5 $6 $7 $8 $9 X,Y pos of 4 corners*
0 Add a 4 corners polygon primitive as box body*
4,1,4,$2,$3,$4,$5,$6,$7,$8,$9,$2,$3,0*
0 Add four circle primitives for the rounded corners*
1,1,$1+$1,$2,$3*
1,1,$1+$1,$4,$5*
1,1,$1+$1,$6,$7*
1,1,$1+$1,$8,$9*
0 Add four rect primitives between the rounded corners*
20,1,$1+$1,$2,$3,$4,$5,0*
20,1,$1+$1,$4,$5,$6,$7,0*
20,1,$1+$1,$6,$7,$8,$9,0*
20,1,$1+$1,$8,$9,$2,$3,0*%
G04 Aperture macros list end*
%TA.AperFunction,SMDPad,CuDef*%
%ADD10RoundRect,0.250000X-1.025000X-1.000000X1.025000X-1.000000X1.025000X1.000000X-1.025000X1.000000X0*%
%TD*%
%TA.AperFunction,ComponentPad*%
%ADD11C,2.500000*%
%TD*%
%TA.AperFunction,ViaPad*%
%ADD12C,0.800000*%
%TD*%
%TA.AperFunction,Conductor*%
%ADD13C,0.150000*%
%TD*%
%TA.AperFunction,Conductor*%
%ADD14C,0.800000*%
%TD*%
G04 APERTURE END LIST*
D10*
%TO.P,SW4_LP,1,1*%
%TO.N,/Buttons/B3*%
X110083943Y-66460000D03*
%TO.P,SW4_LP,2,2*%
%TO.N,GND*%
X123010943Y-63920000D03*
%TD*%
D11*
%TO.P,SW15_TOUCHPAD,1,1*%
%TO.N,/Buttons/A2*%
X181925000Y-26540000D03*
%TO.P,SW15_TOUCHPAD,2,2*%
%TO.N,GND*%
X188275000Y-24000000D03*
%TD*%
%TO.P,SW10_SHARE,1,1*%
%TO.N,/Buttons/S1*%
X150925000Y-26540000D03*
%TO.P,SW10_SHARE,2,2*%
%TO.N,GND*%
X157275000Y-24000000D03*
%TD*%
D10*
%TO.P,SW9_HK,1,1*%
%TO.N,/Buttons/R2*%
X164083943Y-81460000D03*
%TO.P,SW9_HK,2,2*%
%TO.N,GND*%
X177010943Y-78920000D03*
%TD*%
%TO.P,SW3_MK,1,1*%
%TO.N,/Buttons/B2*%
X135083943Y-81460000D03*
%TO.P,SW3_MK,2,2*%
%TO.N,GND*%
X148010943Y-78920000D03*
%TD*%
%TO.P,SW2_LK,1,1*%
%TO.N,/Buttons/B1*%
X110083943Y-95460000D03*
%TO.P,SW2_LK,2,2*%
%TO.N,GND*%
X123010943Y-92920000D03*
%TD*%
%TO.P,SW5_MP,1,1*%
%TO.N,/Buttons/B4*%
X135083943Y-52460000D03*
%TO.P,SW5_MP,2,2*%
%TO.N,GND*%
X148010943Y-49920000D03*
%TD*%
D11*
%TO.P,SW14_PS,1,1*%
%TO.N,/Buttons/A1*%
X166425000Y-26540000D03*
%TO.P,SW14_PS,2,2*%
%TO.N,GND*%
X172775000Y-24000000D03*
%TD*%
D10*
%TO.P,SW6_DI,1,1*%
%TO.N,/Buttons/L1*%
X110264257Y-37460561D03*
%TO.P,SW6_DI,2,2*%
%TO.N,GND*%
X123191257Y-34920561D03*
%TD*%
%TO.P,SW7_HP,1,1*%
%TO.N,/Buttons/R1*%
X164083943Y-52460000D03*
%TO.P,SW7_HP,2,2*%
%TO.N,GND*%
X177010943Y-49920000D03*
%TD*%
D11*
%TO.P,SW11_START,1,1*%
%TO.N,/Buttons/S2*%
X135425000Y-26540000D03*
%TO.P,SW11_START,2,2*%
%TO.N,GND*%
X141775000Y-24000000D03*
%TD*%
D12*
%TO.N,GND*%
X104235000Y-88500000D03*
%TO.N,/Buttons/L1*%
X108235000Y-36000000D03*
%TO.N,/Buttons/R1*%
X162235000Y-54500000D03*
%TO.N,/Buttons/B4*%
X132235000Y-52500000D03*
%TO.N,/Buttons/B3*%
X109235000Y-69000000D03*
%TO.N,/Buttons/R2*%
X162235000Y-83500000D03*
%TO.N,/Buttons/B2*%
X133235000Y-83500000D03*
%TO.N,/Buttons/B1*%
X109235000Y-98000000D03*
%TD*%
D13*
%TO.N,/Buttons/R1*%
X162235000Y-54308943D02*
X164083943Y-52460000D01*
X162235000Y-54500000D02*
X162235000Y-54308943D01*
D14*
%TO.N,GND*%
X123010943Y-63920000D02*
X133010943Y-63920000D01*
X177010943Y-78920000D02*
X174905943Y-76815000D01*
X177010943Y-49920000D02*
X177010943Y-48775943D01*
X124735000Y-73000000D02*
X109235000Y-88500000D01*
X174905943Y-76815000D02*
X150115943Y-76815000D01*
X125235000Y-61695943D02*
X125235000Y-36964304D01*
X123010943Y-63920000D02*
X125235000Y-61695943D01*
X175235000Y-47000000D02*
X150930943Y-47000000D01*
X148010943Y-49920000D02*
X150235000Y-52144057D01*
X148010943Y-77775943D02*
X145735000Y-75500000D01*
X124735000Y-65644057D02*
X124735000Y-73000000D01*
X177010943Y-48775943D02*
X175235000Y-47000000D01*
X188275000Y-24000000D02*
X141775000Y-24000000D01*
X123010943Y-63920000D02*
X124735000Y-65644057D01*
X150115943Y-76815000D02*
X148010943Y-78920000D01*
X143315000Y-63920000D02*
X133010943Y-63920000D01*
X120235000Y-88500000D02*
X104235000Y-88500000D01*
X123010943Y-92920000D02*
X123010943Y-91275943D01*
X122235000Y-75500000D02*
X109235000Y-88500000D01*
X134111818Y-24000000D02*
X123191257Y-34920561D01*
X123010943Y-91275943D02*
X120235000Y-88500000D01*
X150235000Y-52144057D02*
X150235000Y-57000000D01*
X150930943Y-47000000D02*
X148010943Y-49920000D01*
X148010943Y-78920000D02*
X148010943Y-77775943D01*
X125235000Y-36964304D02*
X123191257Y-34920561D01*
X109235000Y-88500000D02*
X104235000Y-88500000D01*
X145735000Y-75500000D02*
X122235000Y-75500000D01*
X141775000Y-24000000D02*
X134111818Y-24000000D01*
X150235000Y-57000000D02*
X143315000Y-63920000D01*
D13*
%TO.N,/Buttons/L1*%
X109695561Y-37460561D02*
X108235000Y-36000000D01*
X110264257Y-37460561D02*
X109695561Y-37460561D01*
%TO.N,/Buttons/R1*%
X164083943Y-52460000D02*
X164083943Y-51848943D01*
%TO.N,/Buttons/B4*%
X135083943Y-52460000D02*
X132275000Y-52460000D01*
%TO.N,/Buttons/B3*%
X110083943Y-68151057D02*
X109235000Y-69000000D01*
X110083943Y-66460000D02*
X110083943Y-68151057D01*
%TO.N,/Buttons/R2*%
X162235000Y-83308943D02*
X164083943Y-81460000D01*
X162235000Y-83500000D02*
X162235000Y-83308943D01*
%TO.N,/Buttons/B2*%
X133235000Y-83308943D02*
X135083943Y-81460000D01*
X133235000Y-83500000D02*
X133235000Y-83308943D01*
%TO.N,/Buttons/B1*%
X109235000Y-98000000D02*
X109235000Y-96308943D01*
X109235000Y-96308943D02*
X110083943Y-95460000D01*
%TD*%
M02*
