%TF.GenerationSoftware,KiCad,Pcbnew,8.0.4*%
%TF.CreationDate,2024-07-29T15:22:08-07:00*%
%TF.ProjectId,3board_b,33626f61-7264-45f6-922e-6b696361645f,rev?*%
%TF.SameCoordinates,Original*%
%TF.FileFunction,Soldermask,Top*%
%TF.FilePolarity,Negative*%
%FSLAX46Y46*%
G04 Gerber Fmt 4.6, Leading zero omitted, Abs format (unit mm)*
G04 Created by KiCad (PCBNEW 8.0.4) date 2024-07-29 15:22:08*
%MOMM*%
%LPD*%
G01*
G04 APERTURE LIST*
G04 Aperture macros list*
%AMFreePoly0*
4,1,19,0.000000,0.744911,0.071157,0.744911,0.207708,0.704816,0.327430,0.627875,0.420627,0.520320,0.479746,0.390866,0.500000,0.250000,0.500000,-0.250000,0.479746,-0.390866,0.420627,-0.520320,0.327430,-0.627875,0.207708,-0.704816,0.071157,-0.744911,0.000000,-0.744911,0.000000,-0.750000,-0.500000,-0.750000,-0.500000,0.750000,0.000000,0.750000,0.000000,0.744911,0.000000,0.744911,
$1*%
G04 Aperture macros list end*
%ADD10C,1.750000*%
%ADD11C,3.050000*%
%ADD12C,4.000000*%
%ADD13C,2.500000*%
%ADD14FreePoly0,0.000000*%
%ADD15C,3.200000*%
G04 APERTURE END LIST*
D10*
%TO.C,SW4_LP*%
X112088943Y-69000000D03*
D11*
X113358943Y-66460000D03*
D12*
X117168943Y-69000000D03*
D11*
X119708943Y-63920000D03*
D10*
X122248943Y-69000000D03*
%TD*%
%TO.C,SW15_TOUCHPAD*%
X180655000Y-29080000D03*
D12*
X185735000Y-29080000D03*
D10*
X190815000Y-29080000D03*
D13*
X181925000Y-26540000D03*
X188275000Y-24000000D03*
%TD*%
D14*
%TO.C,JP15*%
X102947500Y-88500000D03*
%TD*%
%TO.C,JP18*%
X102947500Y-107500000D03*
%TD*%
D10*
%TO.C,SW10_SHARE*%
X149655000Y-29080000D03*
D12*
X154735000Y-29080000D03*
D10*
X159815000Y-29080000D03*
D13*
X150925000Y-26540000D03*
X157275000Y-24000000D03*
%TD*%
D15*
%TO.C,H12*%
X108735000Y-54500000D03*
%TD*%
D14*
%TO.C,JP20*%
X102947500Y-101500000D03*
%TD*%
%TO.C,JP19*%
X102947500Y-104500000D03*
%TD*%
%TO.C,JP21*%
X102947500Y-66500000D03*
%TD*%
D10*
%TO.C,SW9_HK*%
X166088943Y-84000000D03*
D11*
X167358943Y-81460000D03*
D12*
X171168943Y-84000000D03*
D11*
X173708943Y-78920000D03*
D10*
X176248943Y-84000000D03*
%TD*%
D14*
%TO.C,JP26*%
X102947500Y-98500000D03*
%TD*%
%TO.C,JP17*%
X102947500Y-92500000D03*
%TD*%
D10*
%TO.C,SW3_MK*%
X137088943Y-84000000D03*
D11*
X138358943Y-81460000D03*
D12*
X142168943Y-84000000D03*
D11*
X144708943Y-78920000D03*
D10*
X147248943Y-84000000D03*
%TD*%
D14*
%TO.C,JP22*%
X102947500Y-69500000D03*
%TD*%
%TO.C,JP24*%
X102947500Y-85500000D03*
%TD*%
D10*
%TO.C,SW2_LK*%
X112088943Y-98000000D03*
D11*
X113358943Y-95460000D03*
D12*
X117168943Y-98000000D03*
D11*
X119708943Y-92920000D03*
D10*
X122248943Y-98000000D03*
%TD*%
D15*
%TO.C,H11*%
X189235000Y-92500000D03*
%TD*%
%TO.C,H8*%
X133735000Y-69500000D03*
%TD*%
D10*
%TO.C,SW5_MP*%
X137088943Y-55000000D03*
D11*
X138358943Y-52460000D03*
D12*
X142168943Y-55000000D03*
D11*
X144708943Y-49920000D03*
D10*
X147248943Y-55000000D03*
%TD*%
%TO.C,SW14_PS*%
X165155000Y-29080000D03*
D12*
X170235000Y-29080000D03*
D10*
X175315000Y-29080000D03*
D13*
X166425000Y-26540000D03*
X172775000Y-24000000D03*
%TD*%
D10*
%TO.C,SW6_DI*%
X112269257Y-40000561D03*
D11*
X113539257Y-37460561D03*
D12*
X117349257Y-40000561D03*
D11*
X119889257Y-34920561D03*
D10*
X122429257Y-40000561D03*
%TD*%
D14*
%TO.C,JP27*%
X102947500Y-95500000D03*
%TD*%
D15*
%TO.C,H10*%
X190235000Y-43000000D03*
%TD*%
D10*
%TO.C,SW7_HP*%
X166088943Y-55000000D03*
D11*
X167358943Y-52460000D03*
D12*
X171168943Y-55000000D03*
D11*
X173708943Y-49920000D03*
D10*
X176248943Y-55000000D03*
%TD*%
D14*
%TO.C,JP25*%
X102947500Y-63500000D03*
%TD*%
D15*
%TO.C,H9*%
X107235000Y-24500000D03*
%TD*%
D14*
%TO.C,JP23*%
X102947500Y-82500000D03*
%TD*%
D10*
%TO.C,SW11_START*%
X134155000Y-29080000D03*
D12*
X139235000Y-29080000D03*
D10*
X144315000Y-29080000D03*
D13*
X135425000Y-26540000D03*
X141775000Y-24000000D03*
%TD*%
M02*
