%TF.GenerationSoftware,KiCad,Pcbnew,8.0.4*%
%TF.CreationDate,2024-07-29T15:22:11-07:00*%
%TF.ProjectId,3board_b,33626f61-7264-45f6-922e-6b696361645f,rev?*%
%TF.SameCoordinates,Original*%
%TF.FileFunction,Drillmap*%
%TF.FilePolarity,Positive*%
%FSLAX45Y45*%
G04 Gerber Fmt 4.5, Leading zero omitted, Abs format (unit mm)*
G04 Created by KiCad (PCBNEW 8.0.4) date 2024-07-29 15:22:11*
%MOMM*%
%LPD*%
G01*
G04 APERTURE LIST*
%ADD10C,0.100000*%
%ADD11C,0.200000*%
%ADD12C,0.175000*%
%ADD13C,0.305000*%
%ADD14C,0.320000*%
%ADD15C,0.400000*%
G04 APERTURE END LIST*
D10*
X19476500Y-2000000D02*
X19476500Y-10950000D01*
X10223500Y-10950000D02*
X10223500Y-2000000D01*
X19476500Y-10950000D02*
X10223500Y-10950000D01*
X10223500Y-2000000D02*
X19476500Y-2000000D01*
D11*
D12*
X11121394Y-6812500D02*
X11296394Y-6987500D01*
X11296394Y-6812500D02*
X11121394Y-6987500D01*
X11121394Y-9712500D02*
X11296394Y-9887500D01*
X11296394Y-9712500D02*
X11121394Y-9887500D01*
X11139426Y-3912556D02*
X11314426Y-4087556D01*
X11314426Y-3912556D02*
X11139426Y-4087556D01*
X12137394Y-6812500D02*
X12312394Y-6987500D01*
X12312394Y-6812500D02*
X12137394Y-6987500D01*
X12137394Y-9712500D02*
X12312394Y-9887500D01*
X12312394Y-9712500D02*
X12137394Y-9887500D01*
X12155426Y-3912556D02*
X12330426Y-4087556D01*
X12330426Y-3912556D02*
X12155426Y-4087556D01*
X13328000Y-2820500D02*
X13503000Y-2995500D01*
X13503000Y-2820500D02*
X13328000Y-2995500D01*
X13621394Y-5412500D02*
X13796394Y-5587500D01*
X13796394Y-5412500D02*
X13621394Y-5587500D01*
X13621394Y-8312500D02*
X13796394Y-8487500D01*
X13796394Y-8312500D02*
X13621394Y-8487500D01*
X14344000Y-2820500D02*
X14519000Y-2995500D01*
X14519000Y-2820500D02*
X14344000Y-2995500D01*
X14637394Y-5412500D02*
X14812394Y-5587500D01*
X14812394Y-5412500D02*
X14637394Y-5587500D01*
X14637394Y-8312500D02*
X14812394Y-8487500D01*
X14812394Y-8312500D02*
X14637394Y-8487500D01*
X14878000Y-2820500D02*
X15053000Y-2995500D01*
X15053000Y-2820500D02*
X14878000Y-2995500D01*
X15894000Y-2820500D02*
X16069000Y-2995500D01*
X16069000Y-2820500D02*
X15894000Y-2995500D01*
X16428000Y-2820500D02*
X16603000Y-2995500D01*
X16603000Y-2820500D02*
X16428000Y-2995500D01*
X16521394Y-5412500D02*
X16696394Y-5587500D01*
X16696394Y-5412500D02*
X16521394Y-5587500D01*
X16521394Y-8312500D02*
X16696394Y-8487500D01*
X16696394Y-8312500D02*
X16521394Y-8487500D01*
X17444000Y-2820500D02*
X17619000Y-2995500D01*
X17619000Y-2820500D02*
X17444000Y-2995500D01*
X17537394Y-5412500D02*
X17712394Y-5587500D01*
X17712394Y-5412500D02*
X17537394Y-5587500D01*
X17537394Y-8312500D02*
X17712394Y-8487500D01*
X17712394Y-8312500D02*
X17537394Y-8487500D01*
X17978000Y-2820500D02*
X18153000Y-2995500D01*
X18153000Y-2820500D02*
X17978000Y-2995500D01*
X18994000Y-2820500D02*
X19169000Y-2995500D01*
X19169000Y-2820500D02*
X18994000Y-2995500D01*
D13*
X11488394Y-6646000D02*
G75*
G02*
X11183394Y-6646000I-152500J0D01*
G01*
X11183394Y-6646000D02*
G75*
G02*
X11488394Y-6646000I152500J0D01*
G01*
X11488394Y-9546000D02*
G75*
G02*
X11183394Y-9546000I-152500J0D01*
G01*
X11183394Y-9546000D02*
G75*
G02*
X11488394Y-9546000I152500J0D01*
G01*
X11506426Y-3746056D02*
G75*
G02*
X11201426Y-3746056I-152500J0D01*
G01*
X11201426Y-3746056D02*
G75*
G02*
X11506426Y-3746056I152500J0D01*
G01*
X12123394Y-6392000D02*
G75*
G02*
X11818394Y-6392000I-152500J0D01*
G01*
X11818394Y-6392000D02*
G75*
G02*
X12123394Y-6392000I152500J0D01*
G01*
X12123394Y-9292000D02*
G75*
G02*
X11818394Y-9292000I-152500J0D01*
G01*
X11818394Y-9292000D02*
G75*
G02*
X12123394Y-9292000I152500J0D01*
G01*
X12141426Y-3492056D02*
G75*
G02*
X11836426Y-3492056I-152500J0D01*
G01*
X11836426Y-3492056D02*
G75*
G02*
X12141426Y-3492056I152500J0D01*
G01*
X13988394Y-5246000D02*
G75*
G02*
X13683394Y-5246000I-152500J0D01*
G01*
X13683394Y-5246000D02*
G75*
G02*
X13988394Y-5246000I152500J0D01*
G01*
X13988394Y-8146000D02*
G75*
G02*
X13683394Y-8146000I-152500J0D01*
G01*
X13683394Y-8146000D02*
G75*
G02*
X13988394Y-8146000I152500J0D01*
G01*
X14623394Y-4992000D02*
G75*
G02*
X14318394Y-4992000I-152500J0D01*
G01*
X14318394Y-4992000D02*
G75*
G02*
X14623394Y-4992000I152500J0D01*
G01*
X14623394Y-7892000D02*
G75*
G02*
X14318394Y-7892000I-152500J0D01*
G01*
X14318394Y-7892000D02*
G75*
G02*
X14623394Y-7892000I152500J0D01*
G01*
X16888394Y-5246000D02*
G75*
G02*
X16583394Y-5246000I-152500J0D01*
G01*
X16583394Y-5246000D02*
G75*
G02*
X16888394Y-5246000I152500J0D01*
G01*
X16888394Y-8146000D02*
G75*
G02*
X16583394Y-8146000I-152500J0D01*
G01*
X16583394Y-8146000D02*
G75*
G02*
X16888394Y-8146000I152500J0D01*
G01*
X17523394Y-4992000D02*
G75*
G02*
X17218394Y-4992000I-152500J0D01*
G01*
X17218394Y-4992000D02*
G75*
G02*
X17523394Y-4992000I152500J0D01*
G01*
X17523394Y-7892000D02*
G75*
G02*
X17218394Y-7892000I-152500J0D01*
G01*
X17218394Y-7892000D02*
G75*
G02*
X17523394Y-7892000I152500J0D01*
G01*
D14*
X10723500Y-2290000D02*
X10723500Y-2610000D01*
X10563500Y-2450000D02*
X10883500Y-2450000D01*
X10873500Y-5290000D02*
X10873500Y-5610000D01*
X10713500Y-5450000D02*
X11033500Y-5450000D01*
X13373500Y-6790000D02*
X13373500Y-7110000D01*
X13213500Y-6950000D02*
X13533500Y-6950000D01*
X18923500Y-9090000D02*
X18923500Y-9410000D01*
X18763500Y-9250000D02*
X19083500Y-9250000D01*
X19023500Y-4140000D02*
X19023500Y-4460000D01*
X18863500Y-4300000D02*
X19183500Y-4300000D01*
D15*
X11858317Y-7041423D02*
X11858317Y-6758577D01*
X11575472Y-6758577D01*
X11575472Y-7041423D01*
X11858317Y-7041423D01*
X11858317Y-9941423D02*
X11858317Y-9658577D01*
X11575472Y-9658577D01*
X11575472Y-9941423D01*
X11858317Y-9941423D01*
X11876348Y-4141479D02*
X11876348Y-3858633D01*
X11593503Y-3858633D01*
X11593503Y-4141479D01*
X11876348Y-4141479D01*
X14064923Y-3049423D02*
X14064923Y-2766577D01*
X13782077Y-2766577D01*
X13782077Y-3049423D01*
X14064923Y-3049423D01*
X14358317Y-5641423D02*
X14358317Y-5358577D01*
X14075472Y-5358577D01*
X14075472Y-5641423D01*
X14358317Y-5641423D01*
X14358317Y-8541423D02*
X14358317Y-8258577D01*
X14075472Y-8258577D01*
X14075472Y-8541423D01*
X14358317Y-8541423D01*
X15614923Y-3049423D02*
X15614923Y-2766577D01*
X15332077Y-2766577D01*
X15332077Y-3049423D01*
X15614923Y-3049423D01*
X17164923Y-3049423D02*
X17164923Y-2766577D01*
X16882077Y-2766577D01*
X16882077Y-3049423D01*
X17164923Y-3049423D01*
X17258317Y-5641423D02*
X17258317Y-5358577D01*
X16975472Y-5358577D01*
X16975472Y-5641423D01*
X17258317Y-5641423D01*
X17258317Y-8541423D02*
X17258317Y-8258577D01*
X16975472Y-8258577D01*
X16975472Y-8541423D01*
X17258317Y-8541423D01*
X18714923Y-3049423D02*
X18714923Y-2766577D01*
X18432077Y-2766577D01*
X18432077Y-3049423D01*
X18714923Y-3049423D01*
D11*
X10479277Y-11266484D02*
X10479277Y-11066484D01*
X10479277Y-11066484D02*
X10526896Y-11066484D01*
X10526896Y-11066484D02*
X10555467Y-11076008D01*
X10555467Y-11076008D02*
X10574515Y-11095055D01*
X10574515Y-11095055D02*
X10584039Y-11114103D01*
X10584039Y-11114103D02*
X10593563Y-11152198D01*
X10593563Y-11152198D02*
X10593563Y-11180770D01*
X10593563Y-11180770D02*
X10584039Y-11218865D01*
X10584039Y-11218865D02*
X10574515Y-11237912D01*
X10574515Y-11237912D02*
X10555467Y-11256960D01*
X10555467Y-11256960D02*
X10526896Y-11266484D01*
X10526896Y-11266484D02*
X10479277Y-11266484D01*
X10679277Y-11266484D02*
X10679277Y-11133150D01*
X10679277Y-11171246D02*
X10688801Y-11152198D01*
X10688801Y-11152198D02*
X10698324Y-11142674D01*
X10698324Y-11142674D02*
X10717372Y-11133150D01*
X10717372Y-11133150D02*
X10736420Y-11133150D01*
X10803086Y-11266484D02*
X10803086Y-11133150D01*
X10803086Y-11066484D02*
X10793563Y-11076008D01*
X10793563Y-11076008D02*
X10803086Y-11085531D01*
X10803086Y-11085531D02*
X10812610Y-11076008D01*
X10812610Y-11076008D02*
X10803086Y-11066484D01*
X10803086Y-11066484D02*
X10803086Y-11085531D01*
X10926896Y-11266484D02*
X10907848Y-11256960D01*
X10907848Y-11256960D02*
X10898324Y-11237912D01*
X10898324Y-11237912D02*
X10898324Y-11066484D01*
X11031658Y-11266484D02*
X11012610Y-11256960D01*
X11012610Y-11256960D02*
X11003086Y-11237912D01*
X11003086Y-11237912D02*
X11003086Y-11066484D01*
X11260229Y-11266484D02*
X11260229Y-11066484D01*
X11260229Y-11066484D02*
X11326896Y-11209341D01*
X11326896Y-11209341D02*
X11393562Y-11066484D01*
X11393562Y-11066484D02*
X11393562Y-11266484D01*
X11574515Y-11266484D02*
X11574515Y-11161722D01*
X11574515Y-11161722D02*
X11564991Y-11142674D01*
X11564991Y-11142674D02*
X11545943Y-11133150D01*
X11545943Y-11133150D02*
X11507848Y-11133150D01*
X11507848Y-11133150D02*
X11488801Y-11142674D01*
X11574515Y-11256960D02*
X11555467Y-11266484D01*
X11555467Y-11266484D02*
X11507848Y-11266484D01*
X11507848Y-11266484D02*
X11488801Y-11256960D01*
X11488801Y-11256960D02*
X11479277Y-11237912D01*
X11479277Y-11237912D02*
X11479277Y-11218865D01*
X11479277Y-11218865D02*
X11488801Y-11199817D01*
X11488801Y-11199817D02*
X11507848Y-11190293D01*
X11507848Y-11190293D02*
X11555467Y-11190293D01*
X11555467Y-11190293D02*
X11574515Y-11180770D01*
X11669753Y-11133150D02*
X11669753Y-11333150D01*
X11669753Y-11142674D02*
X11688801Y-11133150D01*
X11688801Y-11133150D02*
X11726896Y-11133150D01*
X11726896Y-11133150D02*
X11745943Y-11142674D01*
X11745943Y-11142674D02*
X11755467Y-11152198D01*
X11755467Y-11152198D02*
X11764991Y-11171246D01*
X11764991Y-11171246D02*
X11764991Y-11228388D01*
X11764991Y-11228388D02*
X11755467Y-11247436D01*
X11755467Y-11247436D02*
X11745943Y-11256960D01*
X11745943Y-11256960D02*
X11726896Y-11266484D01*
X11726896Y-11266484D02*
X11688801Y-11266484D01*
X11688801Y-11266484D02*
X11669753Y-11256960D01*
X11850705Y-11247436D02*
X11860229Y-11256960D01*
X11860229Y-11256960D02*
X11850705Y-11266484D01*
X11850705Y-11266484D02*
X11841182Y-11256960D01*
X11841182Y-11256960D02*
X11850705Y-11247436D01*
X11850705Y-11247436D02*
X11850705Y-11266484D01*
X11850705Y-11142674D02*
X11860229Y-11152198D01*
X11860229Y-11152198D02*
X11850705Y-11161722D01*
X11850705Y-11161722D02*
X11841182Y-11152198D01*
X11841182Y-11152198D02*
X11850705Y-11142674D01*
X11850705Y-11142674D02*
X11850705Y-11161722D01*
D12*
X10043500Y-11507500D02*
X10218500Y-11682500D01*
X10218500Y-11507500D02*
X10043500Y-11682500D01*
D11*
X10584039Y-11686484D02*
X10469753Y-11686484D01*
X10526896Y-11686484D02*
X10526896Y-11486484D01*
X10526896Y-11486484D02*
X10507848Y-11515055D01*
X10507848Y-11515055D02*
X10488801Y-11534103D01*
X10488801Y-11534103D02*
X10469753Y-11543627D01*
X10669753Y-11667436D02*
X10679277Y-11676960D01*
X10679277Y-11676960D02*
X10669753Y-11686484D01*
X10669753Y-11686484D02*
X10660229Y-11676960D01*
X10660229Y-11676960D02*
X10669753Y-11667436D01*
X10669753Y-11667436D02*
X10669753Y-11686484D01*
X10745944Y-11486484D02*
X10879277Y-11486484D01*
X10879277Y-11486484D02*
X10793563Y-11686484D01*
X11050705Y-11486484D02*
X10955467Y-11486484D01*
X10955467Y-11486484D02*
X10945944Y-11581722D01*
X10945944Y-11581722D02*
X10955467Y-11572198D01*
X10955467Y-11572198D02*
X10974515Y-11562674D01*
X10974515Y-11562674D02*
X11022134Y-11562674D01*
X11022134Y-11562674D02*
X11041182Y-11572198D01*
X11041182Y-11572198D02*
X11050705Y-11581722D01*
X11050705Y-11581722D02*
X11060229Y-11600769D01*
X11060229Y-11600769D02*
X11060229Y-11648388D01*
X11060229Y-11648388D02*
X11050705Y-11667436D01*
X11050705Y-11667436D02*
X11041182Y-11676960D01*
X11041182Y-11676960D02*
X11022134Y-11686484D01*
X11022134Y-11686484D02*
X10974515Y-11686484D01*
X10974515Y-11686484D02*
X10955467Y-11676960D01*
X10955467Y-11676960D02*
X10945944Y-11667436D01*
X11184039Y-11486484D02*
X11203086Y-11486484D01*
X11203086Y-11486484D02*
X11222134Y-11496008D01*
X11222134Y-11496008D02*
X11231658Y-11505531D01*
X11231658Y-11505531D02*
X11241182Y-11524579D01*
X11241182Y-11524579D02*
X11250705Y-11562674D01*
X11250705Y-11562674D02*
X11250705Y-11610293D01*
X11250705Y-11610293D02*
X11241182Y-11648388D01*
X11241182Y-11648388D02*
X11231658Y-11667436D01*
X11231658Y-11667436D02*
X11222134Y-11676960D01*
X11222134Y-11676960D02*
X11203086Y-11686484D01*
X11203086Y-11686484D02*
X11184039Y-11686484D01*
X11184039Y-11686484D02*
X11164991Y-11676960D01*
X11164991Y-11676960D02*
X11155467Y-11667436D01*
X11155467Y-11667436D02*
X11145944Y-11648388D01*
X11145944Y-11648388D02*
X11136420Y-11610293D01*
X11136420Y-11610293D02*
X11136420Y-11562674D01*
X11136420Y-11562674D02*
X11145944Y-11524579D01*
X11145944Y-11524579D02*
X11155467Y-11505531D01*
X11155467Y-11505531D02*
X11164991Y-11496008D01*
X11164991Y-11496008D02*
X11184039Y-11486484D01*
X11336420Y-11686484D02*
X11336420Y-11553150D01*
X11336420Y-11572198D02*
X11345943Y-11562674D01*
X11345943Y-11562674D02*
X11364991Y-11553150D01*
X11364991Y-11553150D02*
X11393563Y-11553150D01*
X11393563Y-11553150D02*
X11412610Y-11562674D01*
X11412610Y-11562674D02*
X11422134Y-11581722D01*
X11422134Y-11581722D02*
X11422134Y-11686484D01*
X11422134Y-11581722D02*
X11431658Y-11562674D01*
X11431658Y-11562674D02*
X11450705Y-11553150D01*
X11450705Y-11553150D02*
X11479277Y-11553150D01*
X11479277Y-11553150D02*
X11498324Y-11562674D01*
X11498324Y-11562674D02*
X11507848Y-11581722D01*
X11507848Y-11581722D02*
X11507848Y-11686484D01*
X11603086Y-11686484D02*
X11603086Y-11553150D01*
X11603086Y-11572198D02*
X11612610Y-11562674D01*
X11612610Y-11562674D02*
X11631658Y-11553150D01*
X11631658Y-11553150D02*
X11660229Y-11553150D01*
X11660229Y-11553150D02*
X11679277Y-11562674D01*
X11679277Y-11562674D02*
X11688801Y-11581722D01*
X11688801Y-11581722D02*
X11688801Y-11686484D01*
X11688801Y-11581722D02*
X11698324Y-11562674D01*
X11698324Y-11562674D02*
X11717372Y-11553150D01*
X11717372Y-11553150D02*
X11745943Y-11553150D01*
X11745943Y-11553150D02*
X11764991Y-11562674D01*
X11764991Y-11562674D02*
X11774515Y-11581722D01*
X11774515Y-11581722D02*
X11774515Y-11686484D01*
X12164991Y-11476960D02*
X11993563Y-11734103D01*
X12422134Y-11486484D02*
X12441182Y-11486484D01*
X12441182Y-11486484D02*
X12460229Y-11496008D01*
X12460229Y-11496008D02*
X12469753Y-11505531D01*
X12469753Y-11505531D02*
X12479277Y-11524579D01*
X12479277Y-11524579D02*
X12488801Y-11562674D01*
X12488801Y-11562674D02*
X12488801Y-11610293D01*
X12488801Y-11610293D02*
X12479277Y-11648388D01*
X12479277Y-11648388D02*
X12469753Y-11667436D01*
X12469753Y-11667436D02*
X12460229Y-11676960D01*
X12460229Y-11676960D02*
X12441182Y-11686484D01*
X12441182Y-11686484D02*
X12422134Y-11686484D01*
X12422134Y-11686484D02*
X12403086Y-11676960D01*
X12403086Y-11676960D02*
X12393563Y-11667436D01*
X12393563Y-11667436D02*
X12384039Y-11648388D01*
X12384039Y-11648388D02*
X12374515Y-11610293D01*
X12374515Y-11610293D02*
X12374515Y-11562674D01*
X12374515Y-11562674D02*
X12384039Y-11524579D01*
X12384039Y-11524579D02*
X12393563Y-11505531D01*
X12393563Y-11505531D02*
X12403086Y-11496008D01*
X12403086Y-11496008D02*
X12422134Y-11486484D01*
X12574515Y-11667436D02*
X12584039Y-11676960D01*
X12584039Y-11676960D02*
X12574515Y-11686484D01*
X12574515Y-11686484D02*
X12564991Y-11676960D01*
X12564991Y-11676960D02*
X12574515Y-11667436D01*
X12574515Y-11667436D02*
X12574515Y-11686484D01*
X12707848Y-11486484D02*
X12726896Y-11486484D01*
X12726896Y-11486484D02*
X12745944Y-11496008D01*
X12745944Y-11496008D02*
X12755467Y-11505531D01*
X12755467Y-11505531D02*
X12764991Y-11524579D01*
X12764991Y-11524579D02*
X12774515Y-11562674D01*
X12774515Y-11562674D02*
X12774515Y-11610293D01*
X12774515Y-11610293D02*
X12764991Y-11648388D01*
X12764991Y-11648388D02*
X12755467Y-11667436D01*
X12755467Y-11667436D02*
X12745944Y-11676960D01*
X12745944Y-11676960D02*
X12726896Y-11686484D01*
X12726896Y-11686484D02*
X12707848Y-11686484D01*
X12707848Y-11686484D02*
X12688801Y-11676960D01*
X12688801Y-11676960D02*
X12679277Y-11667436D01*
X12679277Y-11667436D02*
X12669753Y-11648388D01*
X12669753Y-11648388D02*
X12660229Y-11610293D01*
X12660229Y-11610293D02*
X12660229Y-11562674D01*
X12660229Y-11562674D02*
X12669753Y-11524579D01*
X12669753Y-11524579D02*
X12679277Y-11505531D01*
X12679277Y-11505531D02*
X12688801Y-11496008D01*
X12688801Y-11496008D02*
X12707848Y-11486484D01*
X12945944Y-11486484D02*
X12907848Y-11486484D01*
X12907848Y-11486484D02*
X12888801Y-11496008D01*
X12888801Y-11496008D02*
X12879277Y-11505531D01*
X12879277Y-11505531D02*
X12860229Y-11534103D01*
X12860229Y-11534103D02*
X12850706Y-11572198D01*
X12850706Y-11572198D02*
X12850706Y-11648388D01*
X12850706Y-11648388D02*
X12860229Y-11667436D01*
X12860229Y-11667436D02*
X12869753Y-11676960D01*
X12869753Y-11676960D02*
X12888801Y-11686484D01*
X12888801Y-11686484D02*
X12926896Y-11686484D01*
X12926896Y-11686484D02*
X12945944Y-11676960D01*
X12945944Y-11676960D02*
X12955467Y-11667436D01*
X12955467Y-11667436D02*
X12964991Y-11648388D01*
X12964991Y-11648388D02*
X12964991Y-11600769D01*
X12964991Y-11600769D02*
X12955467Y-11581722D01*
X12955467Y-11581722D02*
X12945944Y-11572198D01*
X12945944Y-11572198D02*
X12926896Y-11562674D01*
X12926896Y-11562674D02*
X12888801Y-11562674D01*
X12888801Y-11562674D02*
X12869753Y-11572198D01*
X12869753Y-11572198D02*
X12860229Y-11581722D01*
X12860229Y-11581722D02*
X12850706Y-11600769D01*
X13079277Y-11572198D02*
X13060229Y-11562674D01*
X13060229Y-11562674D02*
X13050706Y-11553150D01*
X13050706Y-11553150D02*
X13041182Y-11534103D01*
X13041182Y-11534103D02*
X13041182Y-11524579D01*
X13041182Y-11524579D02*
X13050706Y-11505531D01*
X13050706Y-11505531D02*
X13060229Y-11496008D01*
X13060229Y-11496008D02*
X13079277Y-11486484D01*
X13079277Y-11486484D02*
X13117372Y-11486484D01*
X13117372Y-11486484D02*
X13136420Y-11496008D01*
X13136420Y-11496008D02*
X13145944Y-11505531D01*
X13145944Y-11505531D02*
X13155467Y-11524579D01*
X13155467Y-11524579D02*
X13155467Y-11534103D01*
X13155467Y-11534103D02*
X13145944Y-11553150D01*
X13145944Y-11553150D02*
X13136420Y-11562674D01*
X13136420Y-11562674D02*
X13117372Y-11572198D01*
X13117372Y-11572198D02*
X13079277Y-11572198D01*
X13079277Y-11572198D02*
X13060229Y-11581722D01*
X13060229Y-11581722D02*
X13050706Y-11591246D01*
X13050706Y-11591246D02*
X13041182Y-11610293D01*
X13041182Y-11610293D02*
X13041182Y-11648388D01*
X13041182Y-11648388D02*
X13050706Y-11667436D01*
X13050706Y-11667436D02*
X13060229Y-11676960D01*
X13060229Y-11676960D02*
X13079277Y-11686484D01*
X13079277Y-11686484D02*
X13117372Y-11686484D01*
X13117372Y-11686484D02*
X13136420Y-11676960D01*
X13136420Y-11676960D02*
X13145944Y-11667436D01*
X13145944Y-11667436D02*
X13155467Y-11648388D01*
X13155467Y-11648388D02*
X13155467Y-11610293D01*
X13155467Y-11610293D02*
X13145944Y-11591246D01*
X13145944Y-11591246D02*
X13136420Y-11581722D01*
X13136420Y-11581722D02*
X13117372Y-11572198D01*
X13250706Y-11686484D02*
X13288801Y-11686484D01*
X13288801Y-11686484D02*
X13307848Y-11676960D01*
X13307848Y-11676960D02*
X13317372Y-11667436D01*
X13317372Y-11667436D02*
X13336420Y-11638865D01*
X13336420Y-11638865D02*
X13345944Y-11600769D01*
X13345944Y-11600769D02*
X13345944Y-11524579D01*
X13345944Y-11524579D02*
X13336420Y-11505531D01*
X13336420Y-11505531D02*
X13326896Y-11496008D01*
X13326896Y-11496008D02*
X13307848Y-11486484D01*
X13307848Y-11486484D02*
X13269753Y-11486484D01*
X13269753Y-11486484D02*
X13250706Y-11496008D01*
X13250706Y-11496008D02*
X13241182Y-11505531D01*
X13241182Y-11505531D02*
X13231658Y-11524579D01*
X13231658Y-11524579D02*
X13231658Y-11572198D01*
X13231658Y-11572198D02*
X13241182Y-11591246D01*
X13241182Y-11591246D02*
X13250706Y-11600769D01*
X13250706Y-11600769D02*
X13269753Y-11610293D01*
X13269753Y-11610293D02*
X13307848Y-11610293D01*
X13307848Y-11610293D02*
X13326896Y-11600769D01*
X13326896Y-11600769D02*
X13336420Y-11591246D01*
X13336420Y-11591246D02*
X13345944Y-11572198D01*
X13422134Y-11486484D02*
X13422134Y-11524579D01*
X13498325Y-11486484D02*
X13498325Y-11524579D01*
X13793563Y-11762674D02*
X13784039Y-11753150D01*
X13784039Y-11753150D02*
X13764991Y-11724579D01*
X13764991Y-11724579D02*
X13755468Y-11705531D01*
X13755468Y-11705531D02*
X13745944Y-11676960D01*
X13745944Y-11676960D02*
X13736420Y-11629341D01*
X13736420Y-11629341D02*
X13736420Y-11591246D01*
X13736420Y-11591246D02*
X13745944Y-11543627D01*
X13745944Y-11543627D02*
X13755468Y-11515055D01*
X13755468Y-11515055D02*
X13764991Y-11496008D01*
X13764991Y-11496008D02*
X13784039Y-11467436D01*
X13784039Y-11467436D02*
X13793563Y-11457912D01*
X13860229Y-11505531D02*
X13869753Y-11496008D01*
X13869753Y-11496008D02*
X13888801Y-11486484D01*
X13888801Y-11486484D02*
X13936420Y-11486484D01*
X13936420Y-11486484D02*
X13955468Y-11496008D01*
X13955468Y-11496008D02*
X13964991Y-11505531D01*
X13964991Y-11505531D02*
X13974515Y-11524579D01*
X13974515Y-11524579D02*
X13974515Y-11543627D01*
X13974515Y-11543627D02*
X13964991Y-11572198D01*
X13964991Y-11572198D02*
X13850706Y-11686484D01*
X13850706Y-11686484D02*
X13974515Y-11686484D01*
X14050706Y-11505531D02*
X14060229Y-11496008D01*
X14060229Y-11496008D02*
X14079277Y-11486484D01*
X14079277Y-11486484D02*
X14126896Y-11486484D01*
X14126896Y-11486484D02*
X14145944Y-11496008D01*
X14145944Y-11496008D02*
X14155468Y-11505531D01*
X14155468Y-11505531D02*
X14164991Y-11524579D01*
X14164991Y-11524579D02*
X14164991Y-11543627D01*
X14164991Y-11543627D02*
X14155468Y-11572198D01*
X14155468Y-11572198D02*
X14041182Y-11686484D01*
X14041182Y-11686484D02*
X14164991Y-11686484D01*
X14403087Y-11686484D02*
X14403087Y-11486484D01*
X14488801Y-11686484D02*
X14488801Y-11581722D01*
X14488801Y-11581722D02*
X14479277Y-11562674D01*
X14479277Y-11562674D02*
X14460230Y-11553150D01*
X14460230Y-11553150D02*
X14431658Y-11553150D01*
X14431658Y-11553150D02*
X14412610Y-11562674D01*
X14412610Y-11562674D02*
X14403087Y-11572198D01*
X14612610Y-11686484D02*
X14593563Y-11676960D01*
X14593563Y-11676960D02*
X14584039Y-11667436D01*
X14584039Y-11667436D02*
X14574515Y-11648388D01*
X14574515Y-11648388D02*
X14574515Y-11591246D01*
X14574515Y-11591246D02*
X14584039Y-11572198D01*
X14584039Y-11572198D02*
X14593563Y-11562674D01*
X14593563Y-11562674D02*
X14612610Y-11553150D01*
X14612610Y-11553150D02*
X14641182Y-11553150D01*
X14641182Y-11553150D02*
X14660230Y-11562674D01*
X14660230Y-11562674D02*
X14669753Y-11572198D01*
X14669753Y-11572198D02*
X14679277Y-11591246D01*
X14679277Y-11591246D02*
X14679277Y-11648388D01*
X14679277Y-11648388D02*
X14669753Y-11667436D01*
X14669753Y-11667436D02*
X14660230Y-11676960D01*
X14660230Y-11676960D02*
X14641182Y-11686484D01*
X14641182Y-11686484D02*
X14612610Y-11686484D01*
X14793563Y-11686484D02*
X14774515Y-11676960D01*
X14774515Y-11676960D02*
X14764991Y-11657912D01*
X14764991Y-11657912D02*
X14764991Y-11486484D01*
X14945944Y-11676960D02*
X14926896Y-11686484D01*
X14926896Y-11686484D02*
X14888801Y-11686484D01*
X14888801Y-11686484D02*
X14869753Y-11676960D01*
X14869753Y-11676960D02*
X14860230Y-11657912D01*
X14860230Y-11657912D02*
X14860230Y-11581722D01*
X14860230Y-11581722D02*
X14869753Y-11562674D01*
X14869753Y-11562674D02*
X14888801Y-11553150D01*
X14888801Y-11553150D02*
X14926896Y-11553150D01*
X14926896Y-11553150D02*
X14945944Y-11562674D01*
X14945944Y-11562674D02*
X14955468Y-11581722D01*
X14955468Y-11581722D02*
X14955468Y-11600769D01*
X14955468Y-11600769D02*
X14860230Y-11619817D01*
X15031658Y-11676960D02*
X15050706Y-11686484D01*
X15050706Y-11686484D02*
X15088801Y-11686484D01*
X15088801Y-11686484D02*
X15107849Y-11676960D01*
X15107849Y-11676960D02*
X15117372Y-11657912D01*
X15117372Y-11657912D02*
X15117372Y-11648388D01*
X15117372Y-11648388D02*
X15107849Y-11629341D01*
X15107849Y-11629341D02*
X15088801Y-11619817D01*
X15088801Y-11619817D02*
X15060230Y-11619817D01*
X15060230Y-11619817D02*
X15041182Y-11610293D01*
X15041182Y-11610293D02*
X15031658Y-11591246D01*
X15031658Y-11591246D02*
X15031658Y-11581722D01*
X15031658Y-11581722D02*
X15041182Y-11562674D01*
X15041182Y-11562674D02*
X15060230Y-11553150D01*
X15060230Y-11553150D02*
X15088801Y-11553150D01*
X15088801Y-11553150D02*
X15107849Y-11562674D01*
X15184039Y-11762674D02*
X15193563Y-11753150D01*
X15193563Y-11753150D02*
X15212611Y-11724579D01*
X15212611Y-11724579D02*
X15222134Y-11705531D01*
X15222134Y-11705531D02*
X15231658Y-11676960D01*
X15231658Y-11676960D02*
X15241182Y-11629341D01*
X15241182Y-11629341D02*
X15241182Y-11591246D01*
X15241182Y-11591246D02*
X15231658Y-11543627D01*
X15231658Y-11543627D02*
X15222134Y-11515055D01*
X15222134Y-11515055D02*
X15212611Y-11496008D01*
X15212611Y-11496008D02*
X15193563Y-11467436D01*
X15193563Y-11467436D02*
X15184039Y-11457912D01*
X15545944Y-11762674D02*
X15536420Y-11753150D01*
X15536420Y-11753150D02*
X15517372Y-11724579D01*
X15517372Y-11724579D02*
X15507849Y-11705531D01*
X15507849Y-11705531D02*
X15498325Y-11676960D01*
X15498325Y-11676960D02*
X15488801Y-11629341D01*
X15488801Y-11629341D02*
X15488801Y-11591246D01*
X15488801Y-11591246D02*
X15498325Y-11543627D01*
X15498325Y-11543627D02*
X15507849Y-11515055D01*
X15507849Y-11515055D02*
X15517372Y-11496008D01*
X15517372Y-11496008D02*
X15536420Y-11467436D01*
X15536420Y-11467436D02*
X15545944Y-11457912D01*
X15622134Y-11553150D02*
X15622134Y-11686484D01*
X15622134Y-11572198D02*
X15631658Y-11562674D01*
X15631658Y-11562674D02*
X15650706Y-11553150D01*
X15650706Y-11553150D02*
X15679277Y-11553150D01*
X15679277Y-11553150D02*
X15698325Y-11562674D01*
X15698325Y-11562674D02*
X15707849Y-11581722D01*
X15707849Y-11581722D02*
X15707849Y-11686484D01*
X15831658Y-11686484D02*
X15812611Y-11676960D01*
X15812611Y-11676960D02*
X15803087Y-11667436D01*
X15803087Y-11667436D02*
X15793563Y-11648388D01*
X15793563Y-11648388D02*
X15793563Y-11591246D01*
X15793563Y-11591246D02*
X15803087Y-11572198D01*
X15803087Y-11572198D02*
X15812611Y-11562674D01*
X15812611Y-11562674D02*
X15831658Y-11553150D01*
X15831658Y-11553150D02*
X15860230Y-11553150D01*
X15860230Y-11553150D02*
X15879277Y-11562674D01*
X15879277Y-11562674D02*
X15888801Y-11572198D01*
X15888801Y-11572198D02*
X15898325Y-11591246D01*
X15898325Y-11591246D02*
X15898325Y-11648388D01*
X15898325Y-11648388D02*
X15888801Y-11667436D01*
X15888801Y-11667436D02*
X15879277Y-11676960D01*
X15879277Y-11676960D02*
X15860230Y-11686484D01*
X15860230Y-11686484D02*
X15831658Y-11686484D01*
X15955468Y-11553150D02*
X16031658Y-11553150D01*
X15984039Y-11486484D02*
X15984039Y-11657912D01*
X15984039Y-11657912D02*
X15993563Y-11676960D01*
X15993563Y-11676960D02*
X16012611Y-11686484D01*
X16012611Y-11686484D02*
X16031658Y-11686484D01*
X16250706Y-11553150D02*
X16250706Y-11753150D01*
X16250706Y-11562674D02*
X16269753Y-11553150D01*
X16269753Y-11553150D02*
X16307849Y-11553150D01*
X16307849Y-11553150D02*
X16326896Y-11562674D01*
X16326896Y-11562674D02*
X16336420Y-11572198D01*
X16336420Y-11572198D02*
X16345944Y-11591246D01*
X16345944Y-11591246D02*
X16345944Y-11648388D01*
X16345944Y-11648388D02*
X16336420Y-11667436D01*
X16336420Y-11667436D02*
X16326896Y-11676960D01*
X16326896Y-11676960D02*
X16307849Y-11686484D01*
X16307849Y-11686484D02*
X16269753Y-11686484D01*
X16269753Y-11686484D02*
X16250706Y-11676960D01*
X16460230Y-11686484D02*
X16441182Y-11676960D01*
X16441182Y-11676960D02*
X16431658Y-11657912D01*
X16431658Y-11657912D02*
X16431658Y-11486484D01*
X16622134Y-11686484D02*
X16622134Y-11581722D01*
X16622134Y-11581722D02*
X16612611Y-11562674D01*
X16612611Y-11562674D02*
X16593563Y-11553150D01*
X16593563Y-11553150D02*
X16555468Y-11553150D01*
X16555468Y-11553150D02*
X16536420Y-11562674D01*
X16622134Y-11676960D02*
X16603087Y-11686484D01*
X16603087Y-11686484D02*
X16555468Y-11686484D01*
X16555468Y-11686484D02*
X16536420Y-11676960D01*
X16536420Y-11676960D02*
X16526896Y-11657912D01*
X16526896Y-11657912D02*
X16526896Y-11638865D01*
X16526896Y-11638865D02*
X16536420Y-11619817D01*
X16536420Y-11619817D02*
X16555468Y-11610293D01*
X16555468Y-11610293D02*
X16603087Y-11610293D01*
X16603087Y-11610293D02*
X16622134Y-11600769D01*
X16688801Y-11553150D02*
X16764992Y-11553150D01*
X16717373Y-11486484D02*
X16717373Y-11657912D01*
X16717373Y-11657912D02*
X16726896Y-11676960D01*
X16726896Y-11676960D02*
X16745944Y-11686484D01*
X16745944Y-11686484D02*
X16764992Y-11686484D01*
X16907849Y-11676960D02*
X16888801Y-11686484D01*
X16888801Y-11686484D02*
X16850706Y-11686484D01*
X16850706Y-11686484D02*
X16831658Y-11676960D01*
X16831658Y-11676960D02*
X16822135Y-11657912D01*
X16822135Y-11657912D02*
X16822135Y-11581722D01*
X16822135Y-11581722D02*
X16831658Y-11562674D01*
X16831658Y-11562674D02*
X16850706Y-11553150D01*
X16850706Y-11553150D02*
X16888801Y-11553150D01*
X16888801Y-11553150D02*
X16907849Y-11562674D01*
X16907849Y-11562674D02*
X16917373Y-11581722D01*
X16917373Y-11581722D02*
X16917373Y-11600769D01*
X16917373Y-11600769D02*
X16822135Y-11619817D01*
X17088801Y-11686484D02*
X17088801Y-11486484D01*
X17088801Y-11676960D02*
X17069754Y-11686484D01*
X17069754Y-11686484D02*
X17031658Y-11686484D01*
X17031658Y-11686484D02*
X17012611Y-11676960D01*
X17012611Y-11676960D02*
X17003087Y-11667436D01*
X17003087Y-11667436D02*
X16993563Y-11648388D01*
X16993563Y-11648388D02*
X16993563Y-11591246D01*
X16993563Y-11591246D02*
X17003087Y-11572198D01*
X17003087Y-11572198D02*
X17012611Y-11562674D01*
X17012611Y-11562674D02*
X17031658Y-11553150D01*
X17031658Y-11553150D02*
X17069754Y-11553150D01*
X17069754Y-11553150D02*
X17088801Y-11562674D01*
X17164992Y-11762674D02*
X17174516Y-11753150D01*
X17174516Y-11753150D02*
X17193563Y-11724579D01*
X17193563Y-11724579D02*
X17203087Y-11705531D01*
X17203087Y-11705531D02*
X17212611Y-11676960D01*
X17212611Y-11676960D02*
X17222135Y-11629341D01*
X17222135Y-11629341D02*
X17222135Y-11591246D01*
X17222135Y-11591246D02*
X17212611Y-11543627D01*
X17212611Y-11543627D02*
X17203087Y-11515055D01*
X17203087Y-11515055D02*
X17193563Y-11496008D01*
X17193563Y-11496008D02*
X17174516Y-11467436D01*
X17174516Y-11467436D02*
X17164992Y-11457912D01*
X10218500Y-11890000D02*
G75*
G02*
X10018500Y-11890000I-100000J0D01*
G01*
X10018500Y-11890000D02*
G75*
G02*
X10218500Y-11890000I100000J0D01*
G01*
X10460229Y-11781484D02*
X10584039Y-11781484D01*
X10584039Y-11781484D02*
X10517372Y-11857674D01*
X10517372Y-11857674D02*
X10545944Y-11857674D01*
X10545944Y-11857674D02*
X10564991Y-11867198D01*
X10564991Y-11867198D02*
X10574515Y-11876722D01*
X10574515Y-11876722D02*
X10584039Y-11895769D01*
X10584039Y-11895769D02*
X10584039Y-11943388D01*
X10584039Y-11943388D02*
X10574515Y-11962436D01*
X10574515Y-11962436D02*
X10564991Y-11971960D01*
X10564991Y-11971960D02*
X10545944Y-11981484D01*
X10545944Y-11981484D02*
X10488801Y-11981484D01*
X10488801Y-11981484D02*
X10469753Y-11971960D01*
X10469753Y-11971960D02*
X10460229Y-11962436D01*
X10669753Y-11962436D02*
X10679277Y-11971960D01*
X10679277Y-11971960D02*
X10669753Y-11981484D01*
X10669753Y-11981484D02*
X10660229Y-11971960D01*
X10660229Y-11971960D02*
X10669753Y-11962436D01*
X10669753Y-11962436D02*
X10669753Y-11981484D01*
X10803086Y-11781484D02*
X10822134Y-11781484D01*
X10822134Y-11781484D02*
X10841182Y-11791008D01*
X10841182Y-11791008D02*
X10850705Y-11800531D01*
X10850705Y-11800531D02*
X10860229Y-11819579D01*
X10860229Y-11819579D02*
X10869753Y-11857674D01*
X10869753Y-11857674D02*
X10869753Y-11905293D01*
X10869753Y-11905293D02*
X10860229Y-11943388D01*
X10860229Y-11943388D02*
X10850705Y-11962436D01*
X10850705Y-11962436D02*
X10841182Y-11971960D01*
X10841182Y-11971960D02*
X10822134Y-11981484D01*
X10822134Y-11981484D02*
X10803086Y-11981484D01*
X10803086Y-11981484D02*
X10784039Y-11971960D01*
X10784039Y-11971960D02*
X10774515Y-11962436D01*
X10774515Y-11962436D02*
X10764991Y-11943388D01*
X10764991Y-11943388D02*
X10755467Y-11905293D01*
X10755467Y-11905293D02*
X10755467Y-11857674D01*
X10755467Y-11857674D02*
X10764991Y-11819579D01*
X10764991Y-11819579D02*
X10774515Y-11800531D01*
X10774515Y-11800531D02*
X10784039Y-11791008D01*
X10784039Y-11791008D02*
X10803086Y-11781484D01*
X11050705Y-11781484D02*
X10955467Y-11781484D01*
X10955467Y-11781484D02*
X10945944Y-11876722D01*
X10945944Y-11876722D02*
X10955467Y-11867198D01*
X10955467Y-11867198D02*
X10974515Y-11857674D01*
X10974515Y-11857674D02*
X11022134Y-11857674D01*
X11022134Y-11857674D02*
X11041182Y-11867198D01*
X11041182Y-11867198D02*
X11050705Y-11876722D01*
X11050705Y-11876722D02*
X11060229Y-11895769D01*
X11060229Y-11895769D02*
X11060229Y-11943388D01*
X11060229Y-11943388D02*
X11050705Y-11962436D01*
X11050705Y-11962436D02*
X11041182Y-11971960D01*
X11041182Y-11971960D02*
X11022134Y-11981484D01*
X11022134Y-11981484D02*
X10974515Y-11981484D01*
X10974515Y-11981484D02*
X10955467Y-11971960D01*
X10955467Y-11971960D02*
X10945944Y-11962436D01*
X11184039Y-11781484D02*
X11203086Y-11781484D01*
X11203086Y-11781484D02*
X11222134Y-11791008D01*
X11222134Y-11791008D02*
X11231658Y-11800531D01*
X11231658Y-11800531D02*
X11241182Y-11819579D01*
X11241182Y-11819579D02*
X11250705Y-11857674D01*
X11250705Y-11857674D02*
X11250705Y-11905293D01*
X11250705Y-11905293D02*
X11241182Y-11943388D01*
X11241182Y-11943388D02*
X11231658Y-11962436D01*
X11231658Y-11962436D02*
X11222134Y-11971960D01*
X11222134Y-11971960D02*
X11203086Y-11981484D01*
X11203086Y-11981484D02*
X11184039Y-11981484D01*
X11184039Y-11981484D02*
X11164991Y-11971960D01*
X11164991Y-11971960D02*
X11155467Y-11962436D01*
X11155467Y-11962436D02*
X11145944Y-11943388D01*
X11145944Y-11943388D02*
X11136420Y-11905293D01*
X11136420Y-11905293D02*
X11136420Y-11857674D01*
X11136420Y-11857674D02*
X11145944Y-11819579D01*
X11145944Y-11819579D02*
X11155467Y-11800531D01*
X11155467Y-11800531D02*
X11164991Y-11791008D01*
X11164991Y-11791008D02*
X11184039Y-11781484D01*
X11336420Y-11981484D02*
X11336420Y-11848150D01*
X11336420Y-11867198D02*
X11345943Y-11857674D01*
X11345943Y-11857674D02*
X11364991Y-11848150D01*
X11364991Y-11848150D02*
X11393563Y-11848150D01*
X11393563Y-11848150D02*
X11412610Y-11857674D01*
X11412610Y-11857674D02*
X11422134Y-11876722D01*
X11422134Y-11876722D02*
X11422134Y-11981484D01*
X11422134Y-11876722D02*
X11431658Y-11857674D01*
X11431658Y-11857674D02*
X11450705Y-11848150D01*
X11450705Y-11848150D02*
X11479277Y-11848150D01*
X11479277Y-11848150D02*
X11498324Y-11857674D01*
X11498324Y-11857674D02*
X11507848Y-11876722D01*
X11507848Y-11876722D02*
X11507848Y-11981484D01*
X11603086Y-11981484D02*
X11603086Y-11848150D01*
X11603086Y-11867198D02*
X11612610Y-11857674D01*
X11612610Y-11857674D02*
X11631658Y-11848150D01*
X11631658Y-11848150D02*
X11660229Y-11848150D01*
X11660229Y-11848150D02*
X11679277Y-11857674D01*
X11679277Y-11857674D02*
X11688801Y-11876722D01*
X11688801Y-11876722D02*
X11688801Y-11981484D01*
X11688801Y-11876722D02*
X11698324Y-11857674D01*
X11698324Y-11857674D02*
X11717372Y-11848150D01*
X11717372Y-11848150D02*
X11745943Y-11848150D01*
X11745943Y-11848150D02*
X11764991Y-11857674D01*
X11764991Y-11857674D02*
X11774515Y-11876722D01*
X11774515Y-11876722D02*
X11774515Y-11981484D01*
X12164991Y-11771960D02*
X11993563Y-12029103D01*
X12422134Y-11781484D02*
X12441182Y-11781484D01*
X12441182Y-11781484D02*
X12460229Y-11791008D01*
X12460229Y-11791008D02*
X12469753Y-11800531D01*
X12469753Y-11800531D02*
X12479277Y-11819579D01*
X12479277Y-11819579D02*
X12488801Y-11857674D01*
X12488801Y-11857674D02*
X12488801Y-11905293D01*
X12488801Y-11905293D02*
X12479277Y-11943388D01*
X12479277Y-11943388D02*
X12469753Y-11962436D01*
X12469753Y-11962436D02*
X12460229Y-11971960D01*
X12460229Y-11971960D02*
X12441182Y-11981484D01*
X12441182Y-11981484D02*
X12422134Y-11981484D01*
X12422134Y-11981484D02*
X12403086Y-11971960D01*
X12403086Y-11971960D02*
X12393563Y-11962436D01*
X12393563Y-11962436D02*
X12384039Y-11943388D01*
X12384039Y-11943388D02*
X12374515Y-11905293D01*
X12374515Y-11905293D02*
X12374515Y-11857674D01*
X12374515Y-11857674D02*
X12384039Y-11819579D01*
X12384039Y-11819579D02*
X12393563Y-11800531D01*
X12393563Y-11800531D02*
X12403086Y-11791008D01*
X12403086Y-11791008D02*
X12422134Y-11781484D01*
X12574515Y-11962436D02*
X12584039Y-11971960D01*
X12584039Y-11971960D02*
X12574515Y-11981484D01*
X12574515Y-11981484D02*
X12564991Y-11971960D01*
X12564991Y-11971960D02*
X12574515Y-11962436D01*
X12574515Y-11962436D02*
X12574515Y-11981484D01*
X12774515Y-11981484D02*
X12660229Y-11981484D01*
X12717372Y-11981484D02*
X12717372Y-11781484D01*
X12717372Y-11781484D02*
X12698325Y-11810055D01*
X12698325Y-11810055D02*
X12679277Y-11829103D01*
X12679277Y-11829103D02*
X12660229Y-11838627D01*
X12850706Y-11800531D02*
X12860229Y-11791008D01*
X12860229Y-11791008D02*
X12879277Y-11781484D01*
X12879277Y-11781484D02*
X12926896Y-11781484D01*
X12926896Y-11781484D02*
X12945944Y-11791008D01*
X12945944Y-11791008D02*
X12955467Y-11800531D01*
X12955467Y-11800531D02*
X12964991Y-11819579D01*
X12964991Y-11819579D02*
X12964991Y-11838627D01*
X12964991Y-11838627D02*
X12955467Y-11867198D01*
X12955467Y-11867198D02*
X12841182Y-11981484D01*
X12841182Y-11981484D02*
X12964991Y-11981484D01*
X13088801Y-11781484D02*
X13107848Y-11781484D01*
X13107848Y-11781484D02*
X13126896Y-11791008D01*
X13126896Y-11791008D02*
X13136420Y-11800531D01*
X13136420Y-11800531D02*
X13145944Y-11819579D01*
X13145944Y-11819579D02*
X13155467Y-11857674D01*
X13155467Y-11857674D02*
X13155467Y-11905293D01*
X13155467Y-11905293D02*
X13145944Y-11943388D01*
X13145944Y-11943388D02*
X13136420Y-11962436D01*
X13136420Y-11962436D02*
X13126896Y-11971960D01*
X13126896Y-11971960D02*
X13107848Y-11981484D01*
X13107848Y-11981484D02*
X13088801Y-11981484D01*
X13088801Y-11981484D02*
X13069753Y-11971960D01*
X13069753Y-11971960D02*
X13060229Y-11962436D01*
X13060229Y-11962436D02*
X13050706Y-11943388D01*
X13050706Y-11943388D02*
X13041182Y-11905293D01*
X13041182Y-11905293D02*
X13041182Y-11857674D01*
X13041182Y-11857674D02*
X13050706Y-11819579D01*
X13050706Y-11819579D02*
X13060229Y-11800531D01*
X13060229Y-11800531D02*
X13069753Y-11791008D01*
X13069753Y-11791008D02*
X13088801Y-11781484D01*
X13345944Y-11981484D02*
X13231658Y-11981484D01*
X13288801Y-11981484D02*
X13288801Y-11781484D01*
X13288801Y-11781484D02*
X13269753Y-11810055D01*
X13269753Y-11810055D02*
X13250706Y-11829103D01*
X13250706Y-11829103D02*
X13231658Y-11838627D01*
X13422134Y-11781484D02*
X13422134Y-11819579D01*
X13498325Y-11781484D02*
X13498325Y-11819579D01*
X13793563Y-12057674D02*
X13784039Y-12048150D01*
X13784039Y-12048150D02*
X13764991Y-12019579D01*
X13764991Y-12019579D02*
X13755468Y-12000531D01*
X13755468Y-12000531D02*
X13745944Y-11971960D01*
X13745944Y-11971960D02*
X13736420Y-11924341D01*
X13736420Y-11924341D02*
X13736420Y-11886246D01*
X13736420Y-11886246D02*
X13745944Y-11838627D01*
X13745944Y-11838627D02*
X13755468Y-11810055D01*
X13755468Y-11810055D02*
X13764991Y-11791008D01*
X13764991Y-11791008D02*
X13784039Y-11762436D01*
X13784039Y-11762436D02*
X13793563Y-11752912D01*
X13974515Y-11981484D02*
X13860229Y-11981484D01*
X13917372Y-11981484D02*
X13917372Y-11781484D01*
X13917372Y-11781484D02*
X13898325Y-11810055D01*
X13898325Y-11810055D02*
X13879277Y-11829103D01*
X13879277Y-11829103D02*
X13860229Y-11838627D01*
X14145944Y-11848150D02*
X14145944Y-11981484D01*
X14098325Y-11771960D02*
X14050706Y-11914817D01*
X14050706Y-11914817D02*
X14174515Y-11914817D01*
X14403087Y-11981484D02*
X14403087Y-11781484D01*
X14488801Y-11981484D02*
X14488801Y-11876722D01*
X14488801Y-11876722D02*
X14479277Y-11857674D01*
X14479277Y-11857674D02*
X14460230Y-11848150D01*
X14460230Y-11848150D02*
X14431658Y-11848150D01*
X14431658Y-11848150D02*
X14412610Y-11857674D01*
X14412610Y-11857674D02*
X14403087Y-11867198D01*
X14612610Y-11981484D02*
X14593563Y-11971960D01*
X14593563Y-11971960D02*
X14584039Y-11962436D01*
X14584039Y-11962436D02*
X14574515Y-11943388D01*
X14574515Y-11943388D02*
X14574515Y-11886246D01*
X14574515Y-11886246D02*
X14584039Y-11867198D01*
X14584039Y-11867198D02*
X14593563Y-11857674D01*
X14593563Y-11857674D02*
X14612610Y-11848150D01*
X14612610Y-11848150D02*
X14641182Y-11848150D01*
X14641182Y-11848150D02*
X14660230Y-11857674D01*
X14660230Y-11857674D02*
X14669753Y-11867198D01*
X14669753Y-11867198D02*
X14679277Y-11886246D01*
X14679277Y-11886246D02*
X14679277Y-11943388D01*
X14679277Y-11943388D02*
X14669753Y-11962436D01*
X14669753Y-11962436D02*
X14660230Y-11971960D01*
X14660230Y-11971960D02*
X14641182Y-11981484D01*
X14641182Y-11981484D02*
X14612610Y-11981484D01*
X14793563Y-11981484D02*
X14774515Y-11971960D01*
X14774515Y-11971960D02*
X14764991Y-11952912D01*
X14764991Y-11952912D02*
X14764991Y-11781484D01*
X14945944Y-11971960D02*
X14926896Y-11981484D01*
X14926896Y-11981484D02*
X14888801Y-11981484D01*
X14888801Y-11981484D02*
X14869753Y-11971960D01*
X14869753Y-11971960D02*
X14860230Y-11952912D01*
X14860230Y-11952912D02*
X14860230Y-11876722D01*
X14860230Y-11876722D02*
X14869753Y-11857674D01*
X14869753Y-11857674D02*
X14888801Y-11848150D01*
X14888801Y-11848150D02*
X14926896Y-11848150D01*
X14926896Y-11848150D02*
X14945944Y-11857674D01*
X14945944Y-11857674D02*
X14955468Y-11876722D01*
X14955468Y-11876722D02*
X14955468Y-11895769D01*
X14955468Y-11895769D02*
X14860230Y-11914817D01*
X15031658Y-11971960D02*
X15050706Y-11981484D01*
X15050706Y-11981484D02*
X15088801Y-11981484D01*
X15088801Y-11981484D02*
X15107849Y-11971960D01*
X15107849Y-11971960D02*
X15117372Y-11952912D01*
X15117372Y-11952912D02*
X15117372Y-11943388D01*
X15117372Y-11943388D02*
X15107849Y-11924341D01*
X15107849Y-11924341D02*
X15088801Y-11914817D01*
X15088801Y-11914817D02*
X15060230Y-11914817D01*
X15060230Y-11914817D02*
X15041182Y-11905293D01*
X15041182Y-11905293D02*
X15031658Y-11886246D01*
X15031658Y-11886246D02*
X15031658Y-11876722D01*
X15031658Y-11876722D02*
X15041182Y-11857674D01*
X15041182Y-11857674D02*
X15060230Y-11848150D01*
X15060230Y-11848150D02*
X15088801Y-11848150D01*
X15088801Y-11848150D02*
X15107849Y-11857674D01*
X15184039Y-12057674D02*
X15193563Y-12048150D01*
X15193563Y-12048150D02*
X15212611Y-12019579D01*
X15212611Y-12019579D02*
X15222134Y-12000531D01*
X15222134Y-12000531D02*
X15231658Y-11971960D01*
X15231658Y-11971960D02*
X15241182Y-11924341D01*
X15241182Y-11924341D02*
X15241182Y-11886246D01*
X15241182Y-11886246D02*
X15231658Y-11838627D01*
X15231658Y-11838627D02*
X15222134Y-11810055D01*
X15222134Y-11810055D02*
X15212611Y-11791008D01*
X15212611Y-11791008D02*
X15193563Y-11762436D01*
X15193563Y-11762436D02*
X15184039Y-11752912D01*
X15545944Y-12057674D02*
X15536420Y-12048150D01*
X15536420Y-12048150D02*
X15517372Y-12019579D01*
X15517372Y-12019579D02*
X15507849Y-12000531D01*
X15507849Y-12000531D02*
X15498325Y-11971960D01*
X15498325Y-11971960D02*
X15488801Y-11924341D01*
X15488801Y-11924341D02*
X15488801Y-11886246D01*
X15488801Y-11886246D02*
X15498325Y-11838627D01*
X15498325Y-11838627D02*
X15507849Y-11810055D01*
X15507849Y-11810055D02*
X15517372Y-11791008D01*
X15517372Y-11791008D02*
X15536420Y-11762436D01*
X15536420Y-11762436D02*
X15545944Y-11752912D01*
X15622134Y-11848150D02*
X15622134Y-11981484D01*
X15622134Y-11867198D02*
X15631658Y-11857674D01*
X15631658Y-11857674D02*
X15650706Y-11848150D01*
X15650706Y-11848150D02*
X15679277Y-11848150D01*
X15679277Y-11848150D02*
X15698325Y-11857674D01*
X15698325Y-11857674D02*
X15707849Y-11876722D01*
X15707849Y-11876722D02*
X15707849Y-11981484D01*
X15831658Y-11981484D02*
X15812611Y-11971960D01*
X15812611Y-11971960D02*
X15803087Y-11962436D01*
X15803087Y-11962436D02*
X15793563Y-11943388D01*
X15793563Y-11943388D02*
X15793563Y-11886246D01*
X15793563Y-11886246D02*
X15803087Y-11867198D01*
X15803087Y-11867198D02*
X15812611Y-11857674D01*
X15812611Y-11857674D02*
X15831658Y-11848150D01*
X15831658Y-11848150D02*
X15860230Y-11848150D01*
X15860230Y-11848150D02*
X15879277Y-11857674D01*
X15879277Y-11857674D02*
X15888801Y-11867198D01*
X15888801Y-11867198D02*
X15898325Y-11886246D01*
X15898325Y-11886246D02*
X15898325Y-11943388D01*
X15898325Y-11943388D02*
X15888801Y-11962436D01*
X15888801Y-11962436D02*
X15879277Y-11971960D01*
X15879277Y-11971960D02*
X15860230Y-11981484D01*
X15860230Y-11981484D02*
X15831658Y-11981484D01*
X15955468Y-11848150D02*
X16031658Y-11848150D01*
X15984039Y-11781484D02*
X15984039Y-11952912D01*
X15984039Y-11952912D02*
X15993563Y-11971960D01*
X15993563Y-11971960D02*
X16012611Y-11981484D01*
X16012611Y-11981484D02*
X16031658Y-11981484D01*
X16250706Y-11848150D02*
X16250706Y-12048150D01*
X16250706Y-11857674D02*
X16269753Y-11848150D01*
X16269753Y-11848150D02*
X16307849Y-11848150D01*
X16307849Y-11848150D02*
X16326896Y-11857674D01*
X16326896Y-11857674D02*
X16336420Y-11867198D01*
X16336420Y-11867198D02*
X16345944Y-11886246D01*
X16345944Y-11886246D02*
X16345944Y-11943388D01*
X16345944Y-11943388D02*
X16336420Y-11962436D01*
X16336420Y-11962436D02*
X16326896Y-11971960D01*
X16326896Y-11971960D02*
X16307849Y-11981484D01*
X16307849Y-11981484D02*
X16269753Y-11981484D01*
X16269753Y-11981484D02*
X16250706Y-11971960D01*
X16460230Y-11981484D02*
X16441182Y-11971960D01*
X16441182Y-11971960D02*
X16431658Y-11952912D01*
X16431658Y-11952912D02*
X16431658Y-11781484D01*
X16622134Y-11981484D02*
X16622134Y-11876722D01*
X16622134Y-11876722D02*
X16612611Y-11857674D01*
X16612611Y-11857674D02*
X16593563Y-11848150D01*
X16593563Y-11848150D02*
X16555468Y-11848150D01*
X16555468Y-11848150D02*
X16536420Y-11857674D01*
X16622134Y-11971960D02*
X16603087Y-11981484D01*
X16603087Y-11981484D02*
X16555468Y-11981484D01*
X16555468Y-11981484D02*
X16536420Y-11971960D01*
X16536420Y-11971960D02*
X16526896Y-11952912D01*
X16526896Y-11952912D02*
X16526896Y-11933865D01*
X16526896Y-11933865D02*
X16536420Y-11914817D01*
X16536420Y-11914817D02*
X16555468Y-11905293D01*
X16555468Y-11905293D02*
X16603087Y-11905293D01*
X16603087Y-11905293D02*
X16622134Y-11895769D01*
X16688801Y-11848150D02*
X16764992Y-11848150D01*
X16717373Y-11781484D02*
X16717373Y-11952912D01*
X16717373Y-11952912D02*
X16726896Y-11971960D01*
X16726896Y-11971960D02*
X16745944Y-11981484D01*
X16745944Y-11981484D02*
X16764992Y-11981484D01*
X16907849Y-11971960D02*
X16888801Y-11981484D01*
X16888801Y-11981484D02*
X16850706Y-11981484D01*
X16850706Y-11981484D02*
X16831658Y-11971960D01*
X16831658Y-11971960D02*
X16822135Y-11952912D01*
X16822135Y-11952912D02*
X16822135Y-11876722D01*
X16822135Y-11876722D02*
X16831658Y-11857674D01*
X16831658Y-11857674D02*
X16850706Y-11848150D01*
X16850706Y-11848150D02*
X16888801Y-11848150D01*
X16888801Y-11848150D02*
X16907849Y-11857674D01*
X16907849Y-11857674D02*
X16917373Y-11876722D01*
X16917373Y-11876722D02*
X16917373Y-11895769D01*
X16917373Y-11895769D02*
X16822135Y-11914817D01*
X17088801Y-11981484D02*
X17088801Y-11781484D01*
X17088801Y-11971960D02*
X17069754Y-11981484D01*
X17069754Y-11981484D02*
X17031658Y-11981484D01*
X17031658Y-11981484D02*
X17012611Y-11971960D01*
X17012611Y-11971960D02*
X17003087Y-11962436D01*
X17003087Y-11962436D02*
X16993563Y-11943388D01*
X16993563Y-11943388D02*
X16993563Y-11886246D01*
X16993563Y-11886246D02*
X17003087Y-11867198D01*
X17003087Y-11867198D02*
X17012611Y-11857674D01*
X17012611Y-11857674D02*
X17031658Y-11848150D01*
X17031658Y-11848150D02*
X17069754Y-11848150D01*
X17069754Y-11848150D02*
X17088801Y-11857674D01*
X17164992Y-12057674D02*
X17174516Y-12048150D01*
X17174516Y-12048150D02*
X17193563Y-12019579D01*
X17193563Y-12019579D02*
X17203087Y-12000531D01*
X17203087Y-12000531D02*
X17212611Y-11971960D01*
X17212611Y-11971960D02*
X17222135Y-11924341D01*
X17222135Y-11924341D02*
X17222135Y-11886246D01*
X17222135Y-11886246D02*
X17212611Y-11838627D01*
X17212611Y-11838627D02*
X17203087Y-11810055D01*
X17203087Y-11810055D02*
X17193563Y-11791008D01*
X17193563Y-11791008D02*
X17174516Y-11762436D01*
X17174516Y-11762436D02*
X17164992Y-11752912D01*
X10118500Y-12110000D02*
X10118500Y-12310000D01*
X10018500Y-12210000D02*
X10218500Y-12210000D01*
X10460229Y-12101484D02*
X10584039Y-12101484D01*
X10584039Y-12101484D02*
X10517372Y-12177674D01*
X10517372Y-12177674D02*
X10545944Y-12177674D01*
X10545944Y-12177674D02*
X10564991Y-12187198D01*
X10564991Y-12187198D02*
X10574515Y-12196722D01*
X10574515Y-12196722D02*
X10584039Y-12215769D01*
X10584039Y-12215769D02*
X10584039Y-12263388D01*
X10584039Y-12263388D02*
X10574515Y-12282436D01*
X10574515Y-12282436D02*
X10564991Y-12291960D01*
X10564991Y-12291960D02*
X10545944Y-12301484D01*
X10545944Y-12301484D02*
X10488801Y-12301484D01*
X10488801Y-12301484D02*
X10469753Y-12291960D01*
X10469753Y-12291960D02*
X10460229Y-12282436D01*
X10669753Y-12282436D02*
X10679277Y-12291960D01*
X10679277Y-12291960D02*
X10669753Y-12301484D01*
X10669753Y-12301484D02*
X10660229Y-12291960D01*
X10660229Y-12291960D02*
X10669753Y-12282436D01*
X10669753Y-12282436D02*
X10669753Y-12301484D01*
X10755467Y-12120531D02*
X10764991Y-12111008D01*
X10764991Y-12111008D02*
X10784039Y-12101484D01*
X10784039Y-12101484D02*
X10831658Y-12101484D01*
X10831658Y-12101484D02*
X10850705Y-12111008D01*
X10850705Y-12111008D02*
X10860229Y-12120531D01*
X10860229Y-12120531D02*
X10869753Y-12139579D01*
X10869753Y-12139579D02*
X10869753Y-12158627D01*
X10869753Y-12158627D02*
X10860229Y-12187198D01*
X10860229Y-12187198D02*
X10745944Y-12301484D01*
X10745944Y-12301484D02*
X10869753Y-12301484D01*
X10993563Y-12101484D02*
X11012610Y-12101484D01*
X11012610Y-12101484D02*
X11031658Y-12111008D01*
X11031658Y-12111008D02*
X11041182Y-12120531D01*
X11041182Y-12120531D02*
X11050705Y-12139579D01*
X11050705Y-12139579D02*
X11060229Y-12177674D01*
X11060229Y-12177674D02*
X11060229Y-12225293D01*
X11060229Y-12225293D02*
X11050705Y-12263388D01*
X11050705Y-12263388D02*
X11041182Y-12282436D01*
X11041182Y-12282436D02*
X11031658Y-12291960D01*
X11031658Y-12291960D02*
X11012610Y-12301484D01*
X11012610Y-12301484D02*
X10993563Y-12301484D01*
X10993563Y-12301484D02*
X10974515Y-12291960D01*
X10974515Y-12291960D02*
X10964991Y-12282436D01*
X10964991Y-12282436D02*
X10955467Y-12263388D01*
X10955467Y-12263388D02*
X10945944Y-12225293D01*
X10945944Y-12225293D02*
X10945944Y-12177674D01*
X10945944Y-12177674D02*
X10955467Y-12139579D01*
X10955467Y-12139579D02*
X10964991Y-12120531D01*
X10964991Y-12120531D02*
X10974515Y-12111008D01*
X10974515Y-12111008D02*
X10993563Y-12101484D01*
X11184039Y-12101484D02*
X11203086Y-12101484D01*
X11203086Y-12101484D02*
X11222134Y-12111008D01*
X11222134Y-12111008D02*
X11231658Y-12120531D01*
X11231658Y-12120531D02*
X11241182Y-12139579D01*
X11241182Y-12139579D02*
X11250705Y-12177674D01*
X11250705Y-12177674D02*
X11250705Y-12225293D01*
X11250705Y-12225293D02*
X11241182Y-12263388D01*
X11241182Y-12263388D02*
X11231658Y-12282436D01*
X11231658Y-12282436D02*
X11222134Y-12291960D01*
X11222134Y-12291960D02*
X11203086Y-12301484D01*
X11203086Y-12301484D02*
X11184039Y-12301484D01*
X11184039Y-12301484D02*
X11164991Y-12291960D01*
X11164991Y-12291960D02*
X11155467Y-12282436D01*
X11155467Y-12282436D02*
X11145944Y-12263388D01*
X11145944Y-12263388D02*
X11136420Y-12225293D01*
X11136420Y-12225293D02*
X11136420Y-12177674D01*
X11136420Y-12177674D02*
X11145944Y-12139579D01*
X11145944Y-12139579D02*
X11155467Y-12120531D01*
X11155467Y-12120531D02*
X11164991Y-12111008D01*
X11164991Y-12111008D02*
X11184039Y-12101484D01*
X11336420Y-12301484D02*
X11336420Y-12168150D01*
X11336420Y-12187198D02*
X11345943Y-12177674D01*
X11345943Y-12177674D02*
X11364991Y-12168150D01*
X11364991Y-12168150D02*
X11393563Y-12168150D01*
X11393563Y-12168150D02*
X11412610Y-12177674D01*
X11412610Y-12177674D02*
X11422134Y-12196722D01*
X11422134Y-12196722D02*
X11422134Y-12301484D01*
X11422134Y-12196722D02*
X11431658Y-12177674D01*
X11431658Y-12177674D02*
X11450705Y-12168150D01*
X11450705Y-12168150D02*
X11479277Y-12168150D01*
X11479277Y-12168150D02*
X11498324Y-12177674D01*
X11498324Y-12177674D02*
X11507848Y-12196722D01*
X11507848Y-12196722D02*
X11507848Y-12301484D01*
X11603086Y-12301484D02*
X11603086Y-12168150D01*
X11603086Y-12187198D02*
X11612610Y-12177674D01*
X11612610Y-12177674D02*
X11631658Y-12168150D01*
X11631658Y-12168150D02*
X11660229Y-12168150D01*
X11660229Y-12168150D02*
X11679277Y-12177674D01*
X11679277Y-12177674D02*
X11688801Y-12196722D01*
X11688801Y-12196722D02*
X11688801Y-12301484D01*
X11688801Y-12196722D02*
X11698324Y-12177674D01*
X11698324Y-12177674D02*
X11717372Y-12168150D01*
X11717372Y-12168150D02*
X11745943Y-12168150D01*
X11745943Y-12168150D02*
X11764991Y-12177674D01*
X11764991Y-12177674D02*
X11774515Y-12196722D01*
X11774515Y-12196722D02*
X11774515Y-12301484D01*
X12164991Y-12091960D02*
X11993563Y-12349103D01*
X12422134Y-12101484D02*
X12441182Y-12101484D01*
X12441182Y-12101484D02*
X12460229Y-12111008D01*
X12460229Y-12111008D02*
X12469753Y-12120531D01*
X12469753Y-12120531D02*
X12479277Y-12139579D01*
X12479277Y-12139579D02*
X12488801Y-12177674D01*
X12488801Y-12177674D02*
X12488801Y-12225293D01*
X12488801Y-12225293D02*
X12479277Y-12263388D01*
X12479277Y-12263388D02*
X12469753Y-12282436D01*
X12469753Y-12282436D02*
X12460229Y-12291960D01*
X12460229Y-12291960D02*
X12441182Y-12301484D01*
X12441182Y-12301484D02*
X12422134Y-12301484D01*
X12422134Y-12301484D02*
X12403086Y-12291960D01*
X12403086Y-12291960D02*
X12393563Y-12282436D01*
X12393563Y-12282436D02*
X12384039Y-12263388D01*
X12384039Y-12263388D02*
X12374515Y-12225293D01*
X12374515Y-12225293D02*
X12374515Y-12177674D01*
X12374515Y-12177674D02*
X12384039Y-12139579D01*
X12384039Y-12139579D02*
X12393563Y-12120531D01*
X12393563Y-12120531D02*
X12403086Y-12111008D01*
X12403086Y-12111008D02*
X12422134Y-12101484D01*
X12574515Y-12282436D02*
X12584039Y-12291960D01*
X12584039Y-12291960D02*
X12574515Y-12301484D01*
X12574515Y-12301484D02*
X12564991Y-12291960D01*
X12564991Y-12291960D02*
X12574515Y-12282436D01*
X12574515Y-12282436D02*
X12574515Y-12301484D01*
X12774515Y-12301484D02*
X12660229Y-12301484D01*
X12717372Y-12301484D02*
X12717372Y-12101484D01*
X12717372Y-12101484D02*
X12698325Y-12130055D01*
X12698325Y-12130055D02*
X12679277Y-12149103D01*
X12679277Y-12149103D02*
X12660229Y-12158627D01*
X12850706Y-12120531D02*
X12860229Y-12111008D01*
X12860229Y-12111008D02*
X12879277Y-12101484D01*
X12879277Y-12101484D02*
X12926896Y-12101484D01*
X12926896Y-12101484D02*
X12945944Y-12111008D01*
X12945944Y-12111008D02*
X12955467Y-12120531D01*
X12955467Y-12120531D02*
X12964991Y-12139579D01*
X12964991Y-12139579D02*
X12964991Y-12158627D01*
X12964991Y-12158627D02*
X12955467Y-12187198D01*
X12955467Y-12187198D02*
X12841182Y-12301484D01*
X12841182Y-12301484D02*
X12964991Y-12301484D01*
X13136420Y-12101484D02*
X13098325Y-12101484D01*
X13098325Y-12101484D02*
X13079277Y-12111008D01*
X13079277Y-12111008D02*
X13069753Y-12120531D01*
X13069753Y-12120531D02*
X13050706Y-12149103D01*
X13050706Y-12149103D02*
X13041182Y-12187198D01*
X13041182Y-12187198D02*
X13041182Y-12263388D01*
X13041182Y-12263388D02*
X13050706Y-12282436D01*
X13050706Y-12282436D02*
X13060229Y-12291960D01*
X13060229Y-12291960D02*
X13079277Y-12301484D01*
X13079277Y-12301484D02*
X13117372Y-12301484D01*
X13117372Y-12301484D02*
X13136420Y-12291960D01*
X13136420Y-12291960D02*
X13145944Y-12282436D01*
X13145944Y-12282436D02*
X13155467Y-12263388D01*
X13155467Y-12263388D02*
X13155467Y-12215769D01*
X13155467Y-12215769D02*
X13145944Y-12196722D01*
X13145944Y-12196722D02*
X13136420Y-12187198D01*
X13136420Y-12187198D02*
X13117372Y-12177674D01*
X13117372Y-12177674D02*
X13079277Y-12177674D01*
X13079277Y-12177674D02*
X13060229Y-12187198D01*
X13060229Y-12187198D02*
X13050706Y-12196722D01*
X13050706Y-12196722D02*
X13041182Y-12215769D01*
X13279277Y-12101484D02*
X13298325Y-12101484D01*
X13298325Y-12101484D02*
X13317372Y-12111008D01*
X13317372Y-12111008D02*
X13326896Y-12120531D01*
X13326896Y-12120531D02*
X13336420Y-12139579D01*
X13336420Y-12139579D02*
X13345944Y-12177674D01*
X13345944Y-12177674D02*
X13345944Y-12225293D01*
X13345944Y-12225293D02*
X13336420Y-12263388D01*
X13336420Y-12263388D02*
X13326896Y-12282436D01*
X13326896Y-12282436D02*
X13317372Y-12291960D01*
X13317372Y-12291960D02*
X13298325Y-12301484D01*
X13298325Y-12301484D02*
X13279277Y-12301484D01*
X13279277Y-12301484D02*
X13260229Y-12291960D01*
X13260229Y-12291960D02*
X13250706Y-12282436D01*
X13250706Y-12282436D02*
X13241182Y-12263388D01*
X13241182Y-12263388D02*
X13231658Y-12225293D01*
X13231658Y-12225293D02*
X13231658Y-12177674D01*
X13231658Y-12177674D02*
X13241182Y-12139579D01*
X13241182Y-12139579D02*
X13250706Y-12120531D01*
X13250706Y-12120531D02*
X13260229Y-12111008D01*
X13260229Y-12111008D02*
X13279277Y-12101484D01*
X13422134Y-12101484D02*
X13422134Y-12139579D01*
X13498325Y-12101484D02*
X13498325Y-12139579D01*
X13793563Y-12377674D02*
X13784039Y-12368150D01*
X13784039Y-12368150D02*
X13764991Y-12339579D01*
X13764991Y-12339579D02*
X13755468Y-12320531D01*
X13755468Y-12320531D02*
X13745944Y-12291960D01*
X13745944Y-12291960D02*
X13736420Y-12244341D01*
X13736420Y-12244341D02*
X13736420Y-12206246D01*
X13736420Y-12206246D02*
X13745944Y-12158627D01*
X13745944Y-12158627D02*
X13755468Y-12130055D01*
X13755468Y-12130055D02*
X13764991Y-12111008D01*
X13764991Y-12111008D02*
X13784039Y-12082436D01*
X13784039Y-12082436D02*
X13793563Y-12072912D01*
X13964991Y-12101484D02*
X13869753Y-12101484D01*
X13869753Y-12101484D02*
X13860229Y-12196722D01*
X13860229Y-12196722D02*
X13869753Y-12187198D01*
X13869753Y-12187198D02*
X13888801Y-12177674D01*
X13888801Y-12177674D02*
X13936420Y-12177674D01*
X13936420Y-12177674D02*
X13955468Y-12187198D01*
X13955468Y-12187198D02*
X13964991Y-12196722D01*
X13964991Y-12196722D02*
X13974515Y-12215769D01*
X13974515Y-12215769D02*
X13974515Y-12263388D01*
X13974515Y-12263388D02*
X13964991Y-12282436D01*
X13964991Y-12282436D02*
X13955468Y-12291960D01*
X13955468Y-12291960D02*
X13936420Y-12301484D01*
X13936420Y-12301484D02*
X13888801Y-12301484D01*
X13888801Y-12301484D02*
X13869753Y-12291960D01*
X13869753Y-12291960D02*
X13860229Y-12282436D01*
X14212610Y-12301484D02*
X14212610Y-12101484D01*
X14298325Y-12301484D02*
X14298325Y-12196722D01*
X14298325Y-12196722D02*
X14288801Y-12177674D01*
X14288801Y-12177674D02*
X14269753Y-12168150D01*
X14269753Y-12168150D02*
X14241182Y-12168150D01*
X14241182Y-12168150D02*
X14222134Y-12177674D01*
X14222134Y-12177674D02*
X14212610Y-12187198D01*
X14422134Y-12301484D02*
X14403087Y-12291960D01*
X14403087Y-12291960D02*
X14393563Y-12282436D01*
X14393563Y-12282436D02*
X14384039Y-12263388D01*
X14384039Y-12263388D02*
X14384039Y-12206246D01*
X14384039Y-12206246D02*
X14393563Y-12187198D01*
X14393563Y-12187198D02*
X14403087Y-12177674D01*
X14403087Y-12177674D02*
X14422134Y-12168150D01*
X14422134Y-12168150D02*
X14450706Y-12168150D01*
X14450706Y-12168150D02*
X14469753Y-12177674D01*
X14469753Y-12177674D02*
X14479277Y-12187198D01*
X14479277Y-12187198D02*
X14488801Y-12206246D01*
X14488801Y-12206246D02*
X14488801Y-12263388D01*
X14488801Y-12263388D02*
X14479277Y-12282436D01*
X14479277Y-12282436D02*
X14469753Y-12291960D01*
X14469753Y-12291960D02*
X14450706Y-12301484D01*
X14450706Y-12301484D02*
X14422134Y-12301484D01*
X14603087Y-12301484D02*
X14584039Y-12291960D01*
X14584039Y-12291960D02*
X14574515Y-12272912D01*
X14574515Y-12272912D02*
X14574515Y-12101484D01*
X14755468Y-12291960D02*
X14736420Y-12301484D01*
X14736420Y-12301484D02*
X14698325Y-12301484D01*
X14698325Y-12301484D02*
X14679277Y-12291960D01*
X14679277Y-12291960D02*
X14669753Y-12272912D01*
X14669753Y-12272912D02*
X14669753Y-12196722D01*
X14669753Y-12196722D02*
X14679277Y-12177674D01*
X14679277Y-12177674D02*
X14698325Y-12168150D01*
X14698325Y-12168150D02*
X14736420Y-12168150D01*
X14736420Y-12168150D02*
X14755468Y-12177674D01*
X14755468Y-12177674D02*
X14764991Y-12196722D01*
X14764991Y-12196722D02*
X14764991Y-12215769D01*
X14764991Y-12215769D02*
X14669753Y-12234817D01*
X14841182Y-12291960D02*
X14860230Y-12301484D01*
X14860230Y-12301484D02*
X14898325Y-12301484D01*
X14898325Y-12301484D02*
X14917372Y-12291960D01*
X14917372Y-12291960D02*
X14926896Y-12272912D01*
X14926896Y-12272912D02*
X14926896Y-12263388D01*
X14926896Y-12263388D02*
X14917372Y-12244341D01*
X14917372Y-12244341D02*
X14898325Y-12234817D01*
X14898325Y-12234817D02*
X14869753Y-12234817D01*
X14869753Y-12234817D02*
X14850706Y-12225293D01*
X14850706Y-12225293D02*
X14841182Y-12206246D01*
X14841182Y-12206246D02*
X14841182Y-12196722D01*
X14841182Y-12196722D02*
X14850706Y-12177674D01*
X14850706Y-12177674D02*
X14869753Y-12168150D01*
X14869753Y-12168150D02*
X14898325Y-12168150D01*
X14898325Y-12168150D02*
X14917372Y-12177674D01*
X14993563Y-12377674D02*
X15003087Y-12368150D01*
X15003087Y-12368150D02*
X15022134Y-12339579D01*
X15022134Y-12339579D02*
X15031658Y-12320531D01*
X15031658Y-12320531D02*
X15041182Y-12291960D01*
X15041182Y-12291960D02*
X15050706Y-12244341D01*
X15050706Y-12244341D02*
X15050706Y-12206246D01*
X15050706Y-12206246D02*
X15041182Y-12158627D01*
X15041182Y-12158627D02*
X15031658Y-12130055D01*
X15031658Y-12130055D02*
X15022134Y-12111008D01*
X15022134Y-12111008D02*
X15003087Y-12082436D01*
X15003087Y-12082436D02*
X14993563Y-12072912D01*
X15355468Y-12377674D02*
X15345944Y-12368150D01*
X15345944Y-12368150D02*
X15326896Y-12339579D01*
X15326896Y-12339579D02*
X15317372Y-12320531D01*
X15317372Y-12320531D02*
X15307849Y-12291960D01*
X15307849Y-12291960D02*
X15298325Y-12244341D01*
X15298325Y-12244341D02*
X15298325Y-12206246D01*
X15298325Y-12206246D02*
X15307849Y-12158627D01*
X15307849Y-12158627D02*
X15317372Y-12130055D01*
X15317372Y-12130055D02*
X15326896Y-12111008D01*
X15326896Y-12111008D02*
X15345944Y-12082436D01*
X15345944Y-12082436D02*
X15355468Y-12072912D01*
X15431658Y-12168150D02*
X15431658Y-12301484D01*
X15431658Y-12187198D02*
X15441182Y-12177674D01*
X15441182Y-12177674D02*
X15460230Y-12168150D01*
X15460230Y-12168150D02*
X15488801Y-12168150D01*
X15488801Y-12168150D02*
X15507849Y-12177674D01*
X15507849Y-12177674D02*
X15517372Y-12196722D01*
X15517372Y-12196722D02*
X15517372Y-12301484D01*
X15641182Y-12301484D02*
X15622134Y-12291960D01*
X15622134Y-12291960D02*
X15612611Y-12282436D01*
X15612611Y-12282436D02*
X15603087Y-12263388D01*
X15603087Y-12263388D02*
X15603087Y-12206246D01*
X15603087Y-12206246D02*
X15612611Y-12187198D01*
X15612611Y-12187198D02*
X15622134Y-12177674D01*
X15622134Y-12177674D02*
X15641182Y-12168150D01*
X15641182Y-12168150D02*
X15669753Y-12168150D01*
X15669753Y-12168150D02*
X15688801Y-12177674D01*
X15688801Y-12177674D02*
X15698325Y-12187198D01*
X15698325Y-12187198D02*
X15707849Y-12206246D01*
X15707849Y-12206246D02*
X15707849Y-12263388D01*
X15707849Y-12263388D02*
X15698325Y-12282436D01*
X15698325Y-12282436D02*
X15688801Y-12291960D01*
X15688801Y-12291960D02*
X15669753Y-12301484D01*
X15669753Y-12301484D02*
X15641182Y-12301484D01*
X15764992Y-12168150D02*
X15841182Y-12168150D01*
X15793563Y-12101484D02*
X15793563Y-12272912D01*
X15793563Y-12272912D02*
X15803087Y-12291960D01*
X15803087Y-12291960D02*
X15822134Y-12301484D01*
X15822134Y-12301484D02*
X15841182Y-12301484D01*
X16060230Y-12168150D02*
X16060230Y-12368150D01*
X16060230Y-12177674D02*
X16079277Y-12168150D01*
X16079277Y-12168150D02*
X16117373Y-12168150D01*
X16117373Y-12168150D02*
X16136420Y-12177674D01*
X16136420Y-12177674D02*
X16145944Y-12187198D01*
X16145944Y-12187198D02*
X16155468Y-12206246D01*
X16155468Y-12206246D02*
X16155468Y-12263388D01*
X16155468Y-12263388D02*
X16145944Y-12282436D01*
X16145944Y-12282436D02*
X16136420Y-12291960D01*
X16136420Y-12291960D02*
X16117373Y-12301484D01*
X16117373Y-12301484D02*
X16079277Y-12301484D01*
X16079277Y-12301484D02*
X16060230Y-12291960D01*
X16269753Y-12301484D02*
X16250706Y-12291960D01*
X16250706Y-12291960D02*
X16241182Y-12272912D01*
X16241182Y-12272912D02*
X16241182Y-12101484D01*
X16431658Y-12301484D02*
X16431658Y-12196722D01*
X16431658Y-12196722D02*
X16422134Y-12177674D01*
X16422134Y-12177674D02*
X16403087Y-12168150D01*
X16403087Y-12168150D02*
X16364992Y-12168150D01*
X16364992Y-12168150D02*
X16345944Y-12177674D01*
X16431658Y-12291960D02*
X16412611Y-12301484D01*
X16412611Y-12301484D02*
X16364992Y-12301484D01*
X16364992Y-12301484D02*
X16345944Y-12291960D01*
X16345944Y-12291960D02*
X16336420Y-12272912D01*
X16336420Y-12272912D02*
X16336420Y-12253865D01*
X16336420Y-12253865D02*
X16345944Y-12234817D01*
X16345944Y-12234817D02*
X16364992Y-12225293D01*
X16364992Y-12225293D02*
X16412611Y-12225293D01*
X16412611Y-12225293D02*
X16431658Y-12215769D01*
X16498325Y-12168150D02*
X16574515Y-12168150D01*
X16526896Y-12101484D02*
X16526896Y-12272912D01*
X16526896Y-12272912D02*
X16536420Y-12291960D01*
X16536420Y-12291960D02*
X16555468Y-12301484D01*
X16555468Y-12301484D02*
X16574515Y-12301484D01*
X16717373Y-12291960D02*
X16698325Y-12301484D01*
X16698325Y-12301484D02*
X16660230Y-12301484D01*
X16660230Y-12301484D02*
X16641182Y-12291960D01*
X16641182Y-12291960D02*
X16631658Y-12272912D01*
X16631658Y-12272912D02*
X16631658Y-12196722D01*
X16631658Y-12196722D02*
X16641182Y-12177674D01*
X16641182Y-12177674D02*
X16660230Y-12168150D01*
X16660230Y-12168150D02*
X16698325Y-12168150D01*
X16698325Y-12168150D02*
X16717373Y-12177674D01*
X16717373Y-12177674D02*
X16726896Y-12196722D01*
X16726896Y-12196722D02*
X16726896Y-12215769D01*
X16726896Y-12215769D02*
X16631658Y-12234817D01*
X16898325Y-12301484D02*
X16898325Y-12101484D01*
X16898325Y-12291960D02*
X16879277Y-12301484D01*
X16879277Y-12301484D02*
X16841182Y-12301484D01*
X16841182Y-12301484D02*
X16822135Y-12291960D01*
X16822135Y-12291960D02*
X16812611Y-12282436D01*
X16812611Y-12282436D02*
X16803087Y-12263388D01*
X16803087Y-12263388D02*
X16803087Y-12206246D01*
X16803087Y-12206246D02*
X16812611Y-12187198D01*
X16812611Y-12187198D02*
X16822135Y-12177674D01*
X16822135Y-12177674D02*
X16841182Y-12168150D01*
X16841182Y-12168150D02*
X16879277Y-12168150D01*
X16879277Y-12168150D02*
X16898325Y-12177674D01*
X16974516Y-12377674D02*
X16984039Y-12368150D01*
X16984039Y-12368150D02*
X17003087Y-12339579D01*
X17003087Y-12339579D02*
X17012611Y-12320531D01*
X17012611Y-12320531D02*
X17022135Y-12291960D01*
X17022135Y-12291960D02*
X17031658Y-12244341D01*
X17031658Y-12244341D02*
X17031658Y-12206246D01*
X17031658Y-12206246D02*
X17022135Y-12158627D01*
X17022135Y-12158627D02*
X17012611Y-12130055D01*
X17012611Y-12130055D02*
X17003087Y-12111008D01*
X17003087Y-12111008D02*
X16984039Y-12082436D01*
X16984039Y-12082436D02*
X16974516Y-12072912D01*
X10189211Y-12600711D02*
X10189211Y-12459289D01*
X10047789Y-12459289D01*
X10047789Y-12600711D01*
X10189211Y-12600711D01*
X10564991Y-12488150D02*
X10564991Y-12621484D01*
X10517372Y-12411960D02*
X10469753Y-12554817D01*
X10469753Y-12554817D02*
X10593563Y-12554817D01*
X10669753Y-12602436D02*
X10679277Y-12611960D01*
X10679277Y-12611960D02*
X10669753Y-12621484D01*
X10669753Y-12621484D02*
X10660229Y-12611960D01*
X10660229Y-12611960D02*
X10669753Y-12602436D01*
X10669753Y-12602436D02*
X10669753Y-12621484D01*
X10803086Y-12421484D02*
X10822134Y-12421484D01*
X10822134Y-12421484D02*
X10841182Y-12431008D01*
X10841182Y-12431008D02*
X10850705Y-12440531D01*
X10850705Y-12440531D02*
X10860229Y-12459579D01*
X10860229Y-12459579D02*
X10869753Y-12497674D01*
X10869753Y-12497674D02*
X10869753Y-12545293D01*
X10869753Y-12545293D02*
X10860229Y-12583388D01*
X10860229Y-12583388D02*
X10850705Y-12602436D01*
X10850705Y-12602436D02*
X10841182Y-12611960D01*
X10841182Y-12611960D02*
X10822134Y-12621484D01*
X10822134Y-12621484D02*
X10803086Y-12621484D01*
X10803086Y-12621484D02*
X10784039Y-12611960D01*
X10784039Y-12611960D02*
X10774515Y-12602436D01*
X10774515Y-12602436D02*
X10764991Y-12583388D01*
X10764991Y-12583388D02*
X10755467Y-12545293D01*
X10755467Y-12545293D02*
X10755467Y-12497674D01*
X10755467Y-12497674D02*
X10764991Y-12459579D01*
X10764991Y-12459579D02*
X10774515Y-12440531D01*
X10774515Y-12440531D02*
X10784039Y-12431008D01*
X10784039Y-12431008D02*
X10803086Y-12421484D01*
X10993563Y-12421484D02*
X11012610Y-12421484D01*
X11012610Y-12421484D02*
X11031658Y-12431008D01*
X11031658Y-12431008D02*
X11041182Y-12440531D01*
X11041182Y-12440531D02*
X11050705Y-12459579D01*
X11050705Y-12459579D02*
X11060229Y-12497674D01*
X11060229Y-12497674D02*
X11060229Y-12545293D01*
X11060229Y-12545293D02*
X11050705Y-12583388D01*
X11050705Y-12583388D02*
X11041182Y-12602436D01*
X11041182Y-12602436D02*
X11031658Y-12611960D01*
X11031658Y-12611960D02*
X11012610Y-12621484D01*
X11012610Y-12621484D02*
X10993563Y-12621484D01*
X10993563Y-12621484D02*
X10974515Y-12611960D01*
X10974515Y-12611960D02*
X10964991Y-12602436D01*
X10964991Y-12602436D02*
X10955467Y-12583388D01*
X10955467Y-12583388D02*
X10945944Y-12545293D01*
X10945944Y-12545293D02*
X10945944Y-12497674D01*
X10945944Y-12497674D02*
X10955467Y-12459579D01*
X10955467Y-12459579D02*
X10964991Y-12440531D01*
X10964991Y-12440531D02*
X10974515Y-12431008D01*
X10974515Y-12431008D02*
X10993563Y-12421484D01*
X11184039Y-12421484D02*
X11203086Y-12421484D01*
X11203086Y-12421484D02*
X11222134Y-12431008D01*
X11222134Y-12431008D02*
X11231658Y-12440531D01*
X11231658Y-12440531D02*
X11241182Y-12459579D01*
X11241182Y-12459579D02*
X11250705Y-12497674D01*
X11250705Y-12497674D02*
X11250705Y-12545293D01*
X11250705Y-12545293D02*
X11241182Y-12583388D01*
X11241182Y-12583388D02*
X11231658Y-12602436D01*
X11231658Y-12602436D02*
X11222134Y-12611960D01*
X11222134Y-12611960D02*
X11203086Y-12621484D01*
X11203086Y-12621484D02*
X11184039Y-12621484D01*
X11184039Y-12621484D02*
X11164991Y-12611960D01*
X11164991Y-12611960D02*
X11155467Y-12602436D01*
X11155467Y-12602436D02*
X11145944Y-12583388D01*
X11145944Y-12583388D02*
X11136420Y-12545293D01*
X11136420Y-12545293D02*
X11136420Y-12497674D01*
X11136420Y-12497674D02*
X11145944Y-12459579D01*
X11145944Y-12459579D02*
X11155467Y-12440531D01*
X11155467Y-12440531D02*
X11164991Y-12431008D01*
X11164991Y-12431008D02*
X11184039Y-12421484D01*
X11336420Y-12621484D02*
X11336420Y-12488150D01*
X11336420Y-12507198D02*
X11345943Y-12497674D01*
X11345943Y-12497674D02*
X11364991Y-12488150D01*
X11364991Y-12488150D02*
X11393563Y-12488150D01*
X11393563Y-12488150D02*
X11412610Y-12497674D01*
X11412610Y-12497674D02*
X11422134Y-12516722D01*
X11422134Y-12516722D02*
X11422134Y-12621484D01*
X11422134Y-12516722D02*
X11431658Y-12497674D01*
X11431658Y-12497674D02*
X11450705Y-12488150D01*
X11450705Y-12488150D02*
X11479277Y-12488150D01*
X11479277Y-12488150D02*
X11498324Y-12497674D01*
X11498324Y-12497674D02*
X11507848Y-12516722D01*
X11507848Y-12516722D02*
X11507848Y-12621484D01*
X11603086Y-12621484D02*
X11603086Y-12488150D01*
X11603086Y-12507198D02*
X11612610Y-12497674D01*
X11612610Y-12497674D02*
X11631658Y-12488150D01*
X11631658Y-12488150D02*
X11660229Y-12488150D01*
X11660229Y-12488150D02*
X11679277Y-12497674D01*
X11679277Y-12497674D02*
X11688801Y-12516722D01*
X11688801Y-12516722D02*
X11688801Y-12621484D01*
X11688801Y-12516722D02*
X11698324Y-12497674D01*
X11698324Y-12497674D02*
X11717372Y-12488150D01*
X11717372Y-12488150D02*
X11745943Y-12488150D01*
X11745943Y-12488150D02*
X11764991Y-12497674D01*
X11764991Y-12497674D02*
X11774515Y-12516722D01*
X11774515Y-12516722D02*
X11774515Y-12621484D01*
X12164991Y-12411960D02*
X11993563Y-12669103D01*
X12422134Y-12421484D02*
X12441182Y-12421484D01*
X12441182Y-12421484D02*
X12460229Y-12431008D01*
X12460229Y-12431008D02*
X12469753Y-12440531D01*
X12469753Y-12440531D02*
X12479277Y-12459579D01*
X12479277Y-12459579D02*
X12488801Y-12497674D01*
X12488801Y-12497674D02*
X12488801Y-12545293D01*
X12488801Y-12545293D02*
X12479277Y-12583388D01*
X12479277Y-12583388D02*
X12469753Y-12602436D01*
X12469753Y-12602436D02*
X12460229Y-12611960D01*
X12460229Y-12611960D02*
X12441182Y-12621484D01*
X12441182Y-12621484D02*
X12422134Y-12621484D01*
X12422134Y-12621484D02*
X12403086Y-12611960D01*
X12403086Y-12611960D02*
X12393563Y-12602436D01*
X12393563Y-12602436D02*
X12384039Y-12583388D01*
X12384039Y-12583388D02*
X12374515Y-12545293D01*
X12374515Y-12545293D02*
X12374515Y-12497674D01*
X12374515Y-12497674D02*
X12384039Y-12459579D01*
X12384039Y-12459579D02*
X12393563Y-12440531D01*
X12393563Y-12440531D02*
X12403086Y-12431008D01*
X12403086Y-12431008D02*
X12422134Y-12421484D01*
X12574515Y-12602436D02*
X12584039Y-12611960D01*
X12584039Y-12611960D02*
X12574515Y-12621484D01*
X12574515Y-12621484D02*
X12564991Y-12611960D01*
X12564991Y-12611960D02*
X12574515Y-12602436D01*
X12574515Y-12602436D02*
X12574515Y-12621484D01*
X12774515Y-12621484D02*
X12660229Y-12621484D01*
X12717372Y-12621484D02*
X12717372Y-12421484D01*
X12717372Y-12421484D02*
X12698325Y-12450055D01*
X12698325Y-12450055D02*
X12679277Y-12469103D01*
X12679277Y-12469103D02*
X12660229Y-12478627D01*
X12955467Y-12421484D02*
X12860229Y-12421484D01*
X12860229Y-12421484D02*
X12850706Y-12516722D01*
X12850706Y-12516722D02*
X12860229Y-12507198D01*
X12860229Y-12507198D02*
X12879277Y-12497674D01*
X12879277Y-12497674D02*
X12926896Y-12497674D01*
X12926896Y-12497674D02*
X12945944Y-12507198D01*
X12945944Y-12507198D02*
X12955467Y-12516722D01*
X12955467Y-12516722D02*
X12964991Y-12535769D01*
X12964991Y-12535769D02*
X12964991Y-12583388D01*
X12964991Y-12583388D02*
X12955467Y-12602436D01*
X12955467Y-12602436D02*
X12945944Y-12611960D01*
X12945944Y-12611960D02*
X12926896Y-12621484D01*
X12926896Y-12621484D02*
X12879277Y-12621484D01*
X12879277Y-12621484D02*
X12860229Y-12611960D01*
X12860229Y-12611960D02*
X12850706Y-12602436D01*
X13031658Y-12421484D02*
X13164991Y-12421484D01*
X13164991Y-12421484D02*
X13079277Y-12621484D01*
X13336420Y-12421484D02*
X13241182Y-12421484D01*
X13241182Y-12421484D02*
X13231658Y-12516722D01*
X13231658Y-12516722D02*
X13241182Y-12507198D01*
X13241182Y-12507198D02*
X13260229Y-12497674D01*
X13260229Y-12497674D02*
X13307848Y-12497674D01*
X13307848Y-12497674D02*
X13326896Y-12507198D01*
X13326896Y-12507198D02*
X13336420Y-12516722D01*
X13336420Y-12516722D02*
X13345944Y-12535769D01*
X13345944Y-12535769D02*
X13345944Y-12583388D01*
X13345944Y-12583388D02*
X13336420Y-12602436D01*
X13336420Y-12602436D02*
X13326896Y-12611960D01*
X13326896Y-12611960D02*
X13307848Y-12621484D01*
X13307848Y-12621484D02*
X13260229Y-12621484D01*
X13260229Y-12621484D02*
X13241182Y-12611960D01*
X13241182Y-12611960D02*
X13231658Y-12602436D01*
X13422134Y-12421484D02*
X13422134Y-12459579D01*
X13498325Y-12421484D02*
X13498325Y-12459579D01*
X13793563Y-12697674D02*
X13784039Y-12688150D01*
X13784039Y-12688150D02*
X13764991Y-12659579D01*
X13764991Y-12659579D02*
X13755468Y-12640531D01*
X13755468Y-12640531D02*
X13745944Y-12611960D01*
X13745944Y-12611960D02*
X13736420Y-12564341D01*
X13736420Y-12564341D02*
X13736420Y-12526246D01*
X13736420Y-12526246D02*
X13745944Y-12478627D01*
X13745944Y-12478627D02*
X13755468Y-12450055D01*
X13755468Y-12450055D02*
X13764991Y-12431008D01*
X13764991Y-12431008D02*
X13784039Y-12402436D01*
X13784039Y-12402436D02*
X13793563Y-12392912D01*
X13974515Y-12621484D02*
X13860229Y-12621484D01*
X13917372Y-12621484D02*
X13917372Y-12421484D01*
X13917372Y-12421484D02*
X13898325Y-12450055D01*
X13898325Y-12450055D02*
X13879277Y-12469103D01*
X13879277Y-12469103D02*
X13860229Y-12478627D01*
X14164991Y-12621484D02*
X14050706Y-12621484D01*
X14107848Y-12621484D02*
X14107848Y-12421484D01*
X14107848Y-12421484D02*
X14088801Y-12450055D01*
X14088801Y-12450055D02*
X14069753Y-12469103D01*
X14069753Y-12469103D02*
X14050706Y-12478627D01*
X14403087Y-12621484D02*
X14403087Y-12421484D01*
X14488801Y-12621484D02*
X14488801Y-12516722D01*
X14488801Y-12516722D02*
X14479277Y-12497674D01*
X14479277Y-12497674D02*
X14460230Y-12488150D01*
X14460230Y-12488150D02*
X14431658Y-12488150D01*
X14431658Y-12488150D02*
X14412610Y-12497674D01*
X14412610Y-12497674D02*
X14403087Y-12507198D01*
X14612610Y-12621484D02*
X14593563Y-12611960D01*
X14593563Y-12611960D02*
X14584039Y-12602436D01*
X14584039Y-12602436D02*
X14574515Y-12583388D01*
X14574515Y-12583388D02*
X14574515Y-12526246D01*
X14574515Y-12526246D02*
X14584039Y-12507198D01*
X14584039Y-12507198D02*
X14593563Y-12497674D01*
X14593563Y-12497674D02*
X14612610Y-12488150D01*
X14612610Y-12488150D02*
X14641182Y-12488150D01*
X14641182Y-12488150D02*
X14660230Y-12497674D01*
X14660230Y-12497674D02*
X14669753Y-12507198D01*
X14669753Y-12507198D02*
X14679277Y-12526246D01*
X14679277Y-12526246D02*
X14679277Y-12583388D01*
X14679277Y-12583388D02*
X14669753Y-12602436D01*
X14669753Y-12602436D02*
X14660230Y-12611960D01*
X14660230Y-12611960D02*
X14641182Y-12621484D01*
X14641182Y-12621484D02*
X14612610Y-12621484D01*
X14793563Y-12621484D02*
X14774515Y-12611960D01*
X14774515Y-12611960D02*
X14764991Y-12592912D01*
X14764991Y-12592912D02*
X14764991Y-12421484D01*
X14945944Y-12611960D02*
X14926896Y-12621484D01*
X14926896Y-12621484D02*
X14888801Y-12621484D01*
X14888801Y-12621484D02*
X14869753Y-12611960D01*
X14869753Y-12611960D02*
X14860230Y-12592912D01*
X14860230Y-12592912D02*
X14860230Y-12516722D01*
X14860230Y-12516722D02*
X14869753Y-12497674D01*
X14869753Y-12497674D02*
X14888801Y-12488150D01*
X14888801Y-12488150D02*
X14926896Y-12488150D01*
X14926896Y-12488150D02*
X14945944Y-12497674D01*
X14945944Y-12497674D02*
X14955468Y-12516722D01*
X14955468Y-12516722D02*
X14955468Y-12535769D01*
X14955468Y-12535769D02*
X14860230Y-12554817D01*
X15031658Y-12611960D02*
X15050706Y-12621484D01*
X15050706Y-12621484D02*
X15088801Y-12621484D01*
X15088801Y-12621484D02*
X15107849Y-12611960D01*
X15107849Y-12611960D02*
X15117372Y-12592912D01*
X15117372Y-12592912D02*
X15117372Y-12583388D01*
X15117372Y-12583388D02*
X15107849Y-12564341D01*
X15107849Y-12564341D02*
X15088801Y-12554817D01*
X15088801Y-12554817D02*
X15060230Y-12554817D01*
X15060230Y-12554817D02*
X15041182Y-12545293D01*
X15041182Y-12545293D02*
X15031658Y-12526246D01*
X15031658Y-12526246D02*
X15031658Y-12516722D01*
X15031658Y-12516722D02*
X15041182Y-12497674D01*
X15041182Y-12497674D02*
X15060230Y-12488150D01*
X15060230Y-12488150D02*
X15088801Y-12488150D01*
X15088801Y-12488150D02*
X15107849Y-12497674D01*
X15184039Y-12697674D02*
X15193563Y-12688150D01*
X15193563Y-12688150D02*
X15212611Y-12659579D01*
X15212611Y-12659579D02*
X15222134Y-12640531D01*
X15222134Y-12640531D02*
X15231658Y-12611960D01*
X15231658Y-12611960D02*
X15241182Y-12564341D01*
X15241182Y-12564341D02*
X15241182Y-12526246D01*
X15241182Y-12526246D02*
X15231658Y-12478627D01*
X15231658Y-12478627D02*
X15222134Y-12450055D01*
X15222134Y-12450055D02*
X15212611Y-12431008D01*
X15212611Y-12431008D02*
X15193563Y-12402436D01*
X15193563Y-12402436D02*
X15184039Y-12392912D01*
X15545944Y-12697674D02*
X15536420Y-12688150D01*
X15536420Y-12688150D02*
X15517372Y-12659579D01*
X15517372Y-12659579D02*
X15507849Y-12640531D01*
X15507849Y-12640531D02*
X15498325Y-12611960D01*
X15498325Y-12611960D02*
X15488801Y-12564341D01*
X15488801Y-12564341D02*
X15488801Y-12526246D01*
X15488801Y-12526246D02*
X15498325Y-12478627D01*
X15498325Y-12478627D02*
X15507849Y-12450055D01*
X15507849Y-12450055D02*
X15517372Y-12431008D01*
X15517372Y-12431008D02*
X15536420Y-12402436D01*
X15536420Y-12402436D02*
X15545944Y-12392912D01*
X15622134Y-12488150D02*
X15622134Y-12621484D01*
X15622134Y-12507198D02*
X15631658Y-12497674D01*
X15631658Y-12497674D02*
X15650706Y-12488150D01*
X15650706Y-12488150D02*
X15679277Y-12488150D01*
X15679277Y-12488150D02*
X15698325Y-12497674D01*
X15698325Y-12497674D02*
X15707849Y-12516722D01*
X15707849Y-12516722D02*
X15707849Y-12621484D01*
X15831658Y-12621484D02*
X15812611Y-12611960D01*
X15812611Y-12611960D02*
X15803087Y-12602436D01*
X15803087Y-12602436D02*
X15793563Y-12583388D01*
X15793563Y-12583388D02*
X15793563Y-12526246D01*
X15793563Y-12526246D02*
X15803087Y-12507198D01*
X15803087Y-12507198D02*
X15812611Y-12497674D01*
X15812611Y-12497674D02*
X15831658Y-12488150D01*
X15831658Y-12488150D02*
X15860230Y-12488150D01*
X15860230Y-12488150D02*
X15879277Y-12497674D01*
X15879277Y-12497674D02*
X15888801Y-12507198D01*
X15888801Y-12507198D02*
X15898325Y-12526246D01*
X15898325Y-12526246D02*
X15898325Y-12583388D01*
X15898325Y-12583388D02*
X15888801Y-12602436D01*
X15888801Y-12602436D02*
X15879277Y-12611960D01*
X15879277Y-12611960D02*
X15860230Y-12621484D01*
X15860230Y-12621484D02*
X15831658Y-12621484D01*
X15955468Y-12488150D02*
X16031658Y-12488150D01*
X15984039Y-12421484D02*
X15984039Y-12592912D01*
X15984039Y-12592912D02*
X15993563Y-12611960D01*
X15993563Y-12611960D02*
X16012611Y-12621484D01*
X16012611Y-12621484D02*
X16031658Y-12621484D01*
X16250706Y-12488150D02*
X16250706Y-12688150D01*
X16250706Y-12497674D02*
X16269753Y-12488150D01*
X16269753Y-12488150D02*
X16307849Y-12488150D01*
X16307849Y-12488150D02*
X16326896Y-12497674D01*
X16326896Y-12497674D02*
X16336420Y-12507198D01*
X16336420Y-12507198D02*
X16345944Y-12526246D01*
X16345944Y-12526246D02*
X16345944Y-12583388D01*
X16345944Y-12583388D02*
X16336420Y-12602436D01*
X16336420Y-12602436D02*
X16326896Y-12611960D01*
X16326896Y-12611960D02*
X16307849Y-12621484D01*
X16307849Y-12621484D02*
X16269753Y-12621484D01*
X16269753Y-12621484D02*
X16250706Y-12611960D01*
X16460230Y-12621484D02*
X16441182Y-12611960D01*
X16441182Y-12611960D02*
X16431658Y-12592912D01*
X16431658Y-12592912D02*
X16431658Y-12421484D01*
X16622134Y-12621484D02*
X16622134Y-12516722D01*
X16622134Y-12516722D02*
X16612611Y-12497674D01*
X16612611Y-12497674D02*
X16593563Y-12488150D01*
X16593563Y-12488150D02*
X16555468Y-12488150D01*
X16555468Y-12488150D02*
X16536420Y-12497674D01*
X16622134Y-12611960D02*
X16603087Y-12621484D01*
X16603087Y-12621484D02*
X16555468Y-12621484D01*
X16555468Y-12621484D02*
X16536420Y-12611960D01*
X16536420Y-12611960D02*
X16526896Y-12592912D01*
X16526896Y-12592912D02*
X16526896Y-12573865D01*
X16526896Y-12573865D02*
X16536420Y-12554817D01*
X16536420Y-12554817D02*
X16555468Y-12545293D01*
X16555468Y-12545293D02*
X16603087Y-12545293D01*
X16603087Y-12545293D02*
X16622134Y-12535769D01*
X16688801Y-12488150D02*
X16764992Y-12488150D01*
X16717373Y-12421484D02*
X16717373Y-12592912D01*
X16717373Y-12592912D02*
X16726896Y-12611960D01*
X16726896Y-12611960D02*
X16745944Y-12621484D01*
X16745944Y-12621484D02*
X16764992Y-12621484D01*
X16907849Y-12611960D02*
X16888801Y-12621484D01*
X16888801Y-12621484D02*
X16850706Y-12621484D01*
X16850706Y-12621484D02*
X16831658Y-12611960D01*
X16831658Y-12611960D02*
X16822135Y-12592912D01*
X16822135Y-12592912D02*
X16822135Y-12516722D01*
X16822135Y-12516722D02*
X16831658Y-12497674D01*
X16831658Y-12497674D02*
X16850706Y-12488150D01*
X16850706Y-12488150D02*
X16888801Y-12488150D01*
X16888801Y-12488150D02*
X16907849Y-12497674D01*
X16907849Y-12497674D02*
X16917373Y-12516722D01*
X16917373Y-12516722D02*
X16917373Y-12535769D01*
X16917373Y-12535769D02*
X16822135Y-12554817D01*
X17088801Y-12621484D02*
X17088801Y-12421484D01*
X17088801Y-12611960D02*
X17069754Y-12621484D01*
X17069754Y-12621484D02*
X17031658Y-12621484D01*
X17031658Y-12621484D02*
X17012611Y-12611960D01*
X17012611Y-12611960D02*
X17003087Y-12602436D01*
X17003087Y-12602436D02*
X16993563Y-12583388D01*
X16993563Y-12583388D02*
X16993563Y-12526246D01*
X16993563Y-12526246D02*
X17003087Y-12507198D01*
X17003087Y-12507198D02*
X17012611Y-12497674D01*
X17012611Y-12497674D02*
X17031658Y-12488150D01*
X17031658Y-12488150D02*
X17069754Y-12488150D01*
X17069754Y-12488150D02*
X17088801Y-12497674D01*
X17164992Y-12697674D02*
X17174516Y-12688150D01*
X17174516Y-12688150D02*
X17193563Y-12659579D01*
X17193563Y-12659579D02*
X17203087Y-12640531D01*
X17203087Y-12640531D02*
X17212611Y-12611960D01*
X17212611Y-12611960D02*
X17222135Y-12564341D01*
X17222135Y-12564341D02*
X17222135Y-12526246D01*
X17222135Y-12526246D02*
X17212611Y-12478627D01*
X17212611Y-12478627D02*
X17203087Y-12450055D01*
X17203087Y-12450055D02*
X17193563Y-12431008D01*
X17193563Y-12431008D02*
X17174516Y-12402436D01*
X17174516Y-12402436D02*
X17164992Y-12392912D01*
M02*
