%TF.GenerationSoftware,KiCad,Pcbnew,8.0.4*%
%TF.CreationDate,2024-07-29T15:22:11-07:00*%
%TF.ProjectId,3board_b,33626f61-7264-45f6-922e-6b696361645f,rev?*%
%TF.SameCoordinates,Original*%
%TF.FileFunction,Drillmap*%
%TF.FilePolarity,Positive*%
%FSLAX45Y45*%
G04 Gerber Fmt 4.5, Leading zero omitted, Abs format (unit mm)*
G04 Created by KiCad (PCBNEW 8.0.4) date 2024-07-29 15:22:11*
%MOMM*%
%LPD*%
G01*
G04 APERTURE LIST*
%ADD10C,0.100000*%
%ADD11C,0.200000*%
%ADD12C,0.150000*%
G04 APERTURE END LIST*
D10*
X19476500Y-2000000D02*
X19476500Y-10950000D01*
X10223500Y-10950000D02*
X10223500Y-2000000D01*
X19476500Y-10950000D02*
X10223500Y-10950000D01*
X10223500Y-2000000D02*
X19476500Y-2000000D01*
D11*
D10*
X10403500Y-8830000D02*
X10443500Y-8870000D01*
X10443500Y-8830000D02*
X10403500Y-8870000D01*
X10803500Y-3580000D02*
X10843500Y-3620000D01*
X10843500Y-3580000D02*
X10803500Y-3620000D01*
X10903500Y-6880000D02*
X10943500Y-6920000D01*
X10943500Y-6880000D02*
X10903500Y-6920000D01*
X10903500Y-9780000D02*
X10943500Y-9820000D01*
X10943500Y-9780000D02*
X10903500Y-9820000D01*
X13203500Y-5230000D02*
X13243500Y-5270000D01*
X13243500Y-5230000D02*
X13203500Y-5270000D01*
X13303500Y-8330000D02*
X13343500Y-8370000D01*
X13343500Y-8330000D02*
X13303500Y-8370000D01*
X16203500Y-5430000D02*
X16243500Y-5470000D01*
X16243500Y-5430000D02*
X16203500Y-5470000D01*
X16203500Y-8330000D02*
X16243500Y-8370000D01*
X16243500Y-8330000D02*
X16203500Y-8370000D01*
D12*
X13617500Y-2654000D02*
G75*
G02*
X13467500Y-2654000I-75000J0D01*
G01*
X13467500Y-2654000D02*
G75*
G02*
X13617500Y-2654000I75000J0D01*
G01*
X14252500Y-2400000D02*
G75*
G02*
X14102500Y-2400000I-75000J0D01*
G01*
X14102500Y-2400000D02*
G75*
G02*
X14252500Y-2400000I75000J0D01*
G01*
X15167500Y-2654000D02*
G75*
G02*
X15017500Y-2654000I-75000J0D01*
G01*
X15017500Y-2654000D02*
G75*
G02*
X15167500Y-2654000I75000J0D01*
G01*
X15802500Y-2400000D02*
G75*
G02*
X15652500Y-2400000I-75000J0D01*
G01*
X15652500Y-2400000D02*
G75*
G02*
X15802500Y-2400000I75000J0D01*
G01*
X16717500Y-2654000D02*
G75*
G02*
X16567500Y-2654000I-75000J0D01*
G01*
X16567500Y-2654000D02*
G75*
G02*
X16717500Y-2654000I75000J0D01*
G01*
X17352500Y-2400000D02*
G75*
G02*
X17202500Y-2400000I-75000J0D01*
G01*
X17202500Y-2400000D02*
G75*
G02*
X17352500Y-2400000I75000J0D01*
G01*
X18267500Y-2654000D02*
G75*
G02*
X18117500Y-2654000I-75000J0D01*
G01*
X18117500Y-2654000D02*
G75*
G02*
X18267500Y-2654000I75000J0D01*
G01*
X18902500Y-2400000D02*
G75*
G02*
X18752500Y-2400000I-75000J0D01*
G01*
X18752500Y-2400000D02*
G75*
G02*
X18902500Y-2400000I75000J0D01*
G01*
D11*
X10479277Y-11266484D02*
X10479277Y-11066484D01*
X10479277Y-11066484D02*
X10526896Y-11066484D01*
X10526896Y-11066484D02*
X10555467Y-11076008D01*
X10555467Y-11076008D02*
X10574515Y-11095055D01*
X10574515Y-11095055D02*
X10584039Y-11114103D01*
X10584039Y-11114103D02*
X10593563Y-11152198D01*
X10593563Y-11152198D02*
X10593563Y-11180770D01*
X10593563Y-11180770D02*
X10584039Y-11218865D01*
X10584039Y-11218865D02*
X10574515Y-11237912D01*
X10574515Y-11237912D02*
X10555467Y-11256960D01*
X10555467Y-11256960D02*
X10526896Y-11266484D01*
X10526896Y-11266484D02*
X10479277Y-11266484D01*
X10679277Y-11266484D02*
X10679277Y-11133150D01*
X10679277Y-11171246D02*
X10688801Y-11152198D01*
X10688801Y-11152198D02*
X10698324Y-11142674D01*
X10698324Y-11142674D02*
X10717372Y-11133150D01*
X10717372Y-11133150D02*
X10736420Y-11133150D01*
X10803086Y-11266484D02*
X10803086Y-11133150D01*
X10803086Y-11066484D02*
X10793563Y-11076008D01*
X10793563Y-11076008D02*
X10803086Y-11085531D01*
X10803086Y-11085531D02*
X10812610Y-11076008D01*
X10812610Y-11076008D02*
X10803086Y-11066484D01*
X10803086Y-11066484D02*
X10803086Y-11085531D01*
X10926896Y-11266484D02*
X10907848Y-11256960D01*
X10907848Y-11256960D02*
X10898324Y-11237912D01*
X10898324Y-11237912D02*
X10898324Y-11066484D01*
X11031658Y-11266484D02*
X11012610Y-11256960D01*
X11012610Y-11256960D02*
X11003086Y-11237912D01*
X11003086Y-11237912D02*
X11003086Y-11066484D01*
X11260229Y-11266484D02*
X11260229Y-11066484D01*
X11260229Y-11066484D02*
X11326896Y-11209341D01*
X11326896Y-11209341D02*
X11393562Y-11066484D01*
X11393562Y-11066484D02*
X11393562Y-11266484D01*
X11574515Y-11266484D02*
X11574515Y-11161722D01*
X11574515Y-11161722D02*
X11564991Y-11142674D01*
X11564991Y-11142674D02*
X11545943Y-11133150D01*
X11545943Y-11133150D02*
X11507848Y-11133150D01*
X11507848Y-11133150D02*
X11488801Y-11142674D01*
X11574515Y-11256960D02*
X11555467Y-11266484D01*
X11555467Y-11266484D02*
X11507848Y-11266484D01*
X11507848Y-11266484D02*
X11488801Y-11256960D01*
X11488801Y-11256960D02*
X11479277Y-11237912D01*
X11479277Y-11237912D02*
X11479277Y-11218865D01*
X11479277Y-11218865D02*
X11488801Y-11199817D01*
X11488801Y-11199817D02*
X11507848Y-11190293D01*
X11507848Y-11190293D02*
X11555467Y-11190293D01*
X11555467Y-11190293D02*
X11574515Y-11180770D01*
X11669753Y-11133150D02*
X11669753Y-11333150D01*
X11669753Y-11142674D02*
X11688801Y-11133150D01*
X11688801Y-11133150D02*
X11726896Y-11133150D01*
X11726896Y-11133150D02*
X11745943Y-11142674D01*
X11745943Y-11142674D02*
X11755467Y-11152198D01*
X11755467Y-11152198D02*
X11764991Y-11171246D01*
X11764991Y-11171246D02*
X11764991Y-11228388D01*
X11764991Y-11228388D02*
X11755467Y-11247436D01*
X11755467Y-11247436D02*
X11745943Y-11256960D01*
X11745943Y-11256960D02*
X11726896Y-11266484D01*
X11726896Y-11266484D02*
X11688801Y-11266484D01*
X11688801Y-11266484D02*
X11669753Y-11256960D01*
X11850705Y-11247436D02*
X11860229Y-11256960D01*
X11860229Y-11256960D02*
X11850705Y-11266484D01*
X11850705Y-11266484D02*
X11841182Y-11256960D01*
X11841182Y-11256960D02*
X11850705Y-11247436D01*
X11850705Y-11247436D02*
X11850705Y-11266484D01*
X11850705Y-11142674D02*
X11860229Y-11152198D01*
X11860229Y-11152198D02*
X11850705Y-11161722D01*
X11850705Y-11161722D02*
X11841182Y-11152198D01*
X11841182Y-11152198D02*
X11850705Y-11142674D01*
X11850705Y-11142674D02*
X11850705Y-11161722D01*
D10*
X10178500Y-11575000D02*
X10218500Y-11615000D01*
X10218500Y-11575000D02*
X10178500Y-11615000D01*
D11*
X10517372Y-11486484D02*
X10536420Y-11486484D01*
X10536420Y-11486484D02*
X10555467Y-11496008D01*
X10555467Y-11496008D02*
X10564991Y-11505531D01*
X10564991Y-11505531D02*
X10574515Y-11524579D01*
X10574515Y-11524579D02*
X10584039Y-11562674D01*
X10584039Y-11562674D02*
X10584039Y-11610293D01*
X10584039Y-11610293D02*
X10574515Y-11648388D01*
X10574515Y-11648388D02*
X10564991Y-11667436D01*
X10564991Y-11667436D02*
X10555467Y-11676960D01*
X10555467Y-11676960D02*
X10536420Y-11686484D01*
X10536420Y-11686484D02*
X10517372Y-11686484D01*
X10517372Y-11686484D02*
X10498324Y-11676960D01*
X10498324Y-11676960D02*
X10488801Y-11667436D01*
X10488801Y-11667436D02*
X10479277Y-11648388D01*
X10479277Y-11648388D02*
X10469753Y-11610293D01*
X10469753Y-11610293D02*
X10469753Y-11562674D01*
X10469753Y-11562674D02*
X10479277Y-11524579D01*
X10479277Y-11524579D02*
X10488801Y-11505531D01*
X10488801Y-11505531D02*
X10498324Y-11496008D01*
X10498324Y-11496008D02*
X10517372Y-11486484D01*
X10669753Y-11667436D02*
X10679277Y-11676960D01*
X10679277Y-11676960D02*
X10669753Y-11686484D01*
X10669753Y-11686484D02*
X10660229Y-11676960D01*
X10660229Y-11676960D02*
X10669753Y-11667436D01*
X10669753Y-11667436D02*
X10669753Y-11686484D01*
X10850705Y-11553150D02*
X10850705Y-11686484D01*
X10803086Y-11476960D02*
X10755467Y-11619817D01*
X10755467Y-11619817D02*
X10879277Y-11619817D01*
X10993563Y-11486484D02*
X11012610Y-11486484D01*
X11012610Y-11486484D02*
X11031658Y-11496008D01*
X11031658Y-11496008D02*
X11041182Y-11505531D01*
X11041182Y-11505531D02*
X11050705Y-11524579D01*
X11050705Y-11524579D02*
X11060229Y-11562674D01*
X11060229Y-11562674D02*
X11060229Y-11610293D01*
X11060229Y-11610293D02*
X11050705Y-11648388D01*
X11050705Y-11648388D02*
X11041182Y-11667436D01*
X11041182Y-11667436D02*
X11031658Y-11676960D01*
X11031658Y-11676960D02*
X11012610Y-11686484D01*
X11012610Y-11686484D02*
X10993563Y-11686484D01*
X10993563Y-11686484D02*
X10974515Y-11676960D01*
X10974515Y-11676960D02*
X10964991Y-11667436D01*
X10964991Y-11667436D02*
X10955467Y-11648388D01*
X10955467Y-11648388D02*
X10945944Y-11610293D01*
X10945944Y-11610293D02*
X10945944Y-11562674D01*
X10945944Y-11562674D02*
X10955467Y-11524579D01*
X10955467Y-11524579D02*
X10964991Y-11505531D01*
X10964991Y-11505531D02*
X10974515Y-11496008D01*
X10974515Y-11496008D02*
X10993563Y-11486484D01*
X11184039Y-11486484D02*
X11203086Y-11486484D01*
X11203086Y-11486484D02*
X11222134Y-11496008D01*
X11222134Y-11496008D02*
X11231658Y-11505531D01*
X11231658Y-11505531D02*
X11241182Y-11524579D01*
X11241182Y-11524579D02*
X11250705Y-11562674D01*
X11250705Y-11562674D02*
X11250705Y-11610293D01*
X11250705Y-11610293D02*
X11241182Y-11648388D01*
X11241182Y-11648388D02*
X11231658Y-11667436D01*
X11231658Y-11667436D02*
X11222134Y-11676960D01*
X11222134Y-11676960D02*
X11203086Y-11686484D01*
X11203086Y-11686484D02*
X11184039Y-11686484D01*
X11184039Y-11686484D02*
X11164991Y-11676960D01*
X11164991Y-11676960D02*
X11155467Y-11667436D01*
X11155467Y-11667436D02*
X11145944Y-11648388D01*
X11145944Y-11648388D02*
X11136420Y-11610293D01*
X11136420Y-11610293D02*
X11136420Y-11562674D01*
X11136420Y-11562674D02*
X11145944Y-11524579D01*
X11145944Y-11524579D02*
X11155467Y-11505531D01*
X11155467Y-11505531D02*
X11164991Y-11496008D01*
X11164991Y-11496008D02*
X11184039Y-11486484D01*
X11336420Y-11686484D02*
X11336420Y-11553150D01*
X11336420Y-11572198D02*
X11345943Y-11562674D01*
X11345943Y-11562674D02*
X11364991Y-11553150D01*
X11364991Y-11553150D02*
X11393563Y-11553150D01*
X11393563Y-11553150D02*
X11412610Y-11562674D01*
X11412610Y-11562674D02*
X11422134Y-11581722D01*
X11422134Y-11581722D02*
X11422134Y-11686484D01*
X11422134Y-11581722D02*
X11431658Y-11562674D01*
X11431658Y-11562674D02*
X11450705Y-11553150D01*
X11450705Y-11553150D02*
X11479277Y-11553150D01*
X11479277Y-11553150D02*
X11498324Y-11562674D01*
X11498324Y-11562674D02*
X11507848Y-11581722D01*
X11507848Y-11581722D02*
X11507848Y-11686484D01*
X11603086Y-11686484D02*
X11603086Y-11553150D01*
X11603086Y-11572198D02*
X11612610Y-11562674D01*
X11612610Y-11562674D02*
X11631658Y-11553150D01*
X11631658Y-11553150D02*
X11660229Y-11553150D01*
X11660229Y-11553150D02*
X11679277Y-11562674D01*
X11679277Y-11562674D02*
X11688801Y-11581722D01*
X11688801Y-11581722D02*
X11688801Y-11686484D01*
X11688801Y-11581722D02*
X11698324Y-11562674D01*
X11698324Y-11562674D02*
X11717372Y-11553150D01*
X11717372Y-11553150D02*
X11745943Y-11553150D01*
X11745943Y-11553150D02*
X11764991Y-11562674D01*
X11764991Y-11562674D02*
X11774515Y-11581722D01*
X11774515Y-11581722D02*
X11774515Y-11686484D01*
X12164991Y-11476960D02*
X11993563Y-11734103D01*
X12422134Y-11486484D02*
X12441182Y-11486484D01*
X12441182Y-11486484D02*
X12460229Y-11496008D01*
X12460229Y-11496008D02*
X12469753Y-11505531D01*
X12469753Y-11505531D02*
X12479277Y-11524579D01*
X12479277Y-11524579D02*
X12488801Y-11562674D01*
X12488801Y-11562674D02*
X12488801Y-11610293D01*
X12488801Y-11610293D02*
X12479277Y-11648388D01*
X12479277Y-11648388D02*
X12469753Y-11667436D01*
X12469753Y-11667436D02*
X12460229Y-11676960D01*
X12460229Y-11676960D02*
X12441182Y-11686484D01*
X12441182Y-11686484D02*
X12422134Y-11686484D01*
X12422134Y-11686484D02*
X12403086Y-11676960D01*
X12403086Y-11676960D02*
X12393563Y-11667436D01*
X12393563Y-11667436D02*
X12384039Y-11648388D01*
X12384039Y-11648388D02*
X12374515Y-11610293D01*
X12374515Y-11610293D02*
X12374515Y-11562674D01*
X12374515Y-11562674D02*
X12384039Y-11524579D01*
X12384039Y-11524579D02*
X12393563Y-11505531D01*
X12393563Y-11505531D02*
X12403086Y-11496008D01*
X12403086Y-11496008D02*
X12422134Y-11486484D01*
X12574515Y-11667436D02*
X12584039Y-11676960D01*
X12584039Y-11676960D02*
X12574515Y-11686484D01*
X12574515Y-11686484D02*
X12564991Y-11676960D01*
X12564991Y-11676960D02*
X12574515Y-11667436D01*
X12574515Y-11667436D02*
X12574515Y-11686484D01*
X12707848Y-11486484D02*
X12726896Y-11486484D01*
X12726896Y-11486484D02*
X12745944Y-11496008D01*
X12745944Y-11496008D02*
X12755467Y-11505531D01*
X12755467Y-11505531D02*
X12764991Y-11524579D01*
X12764991Y-11524579D02*
X12774515Y-11562674D01*
X12774515Y-11562674D02*
X12774515Y-11610293D01*
X12774515Y-11610293D02*
X12764991Y-11648388D01*
X12764991Y-11648388D02*
X12755467Y-11667436D01*
X12755467Y-11667436D02*
X12745944Y-11676960D01*
X12745944Y-11676960D02*
X12726896Y-11686484D01*
X12726896Y-11686484D02*
X12707848Y-11686484D01*
X12707848Y-11686484D02*
X12688801Y-11676960D01*
X12688801Y-11676960D02*
X12679277Y-11667436D01*
X12679277Y-11667436D02*
X12669753Y-11648388D01*
X12669753Y-11648388D02*
X12660229Y-11610293D01*
X12660229Y-11610293D02*
X12660229Y-11562674D01*
X12660229Y-11562674D02*
X12669753Y-11524579D01*
X12669753Y-11524579D02*
X12679277Y-11505531D01*
X12679277Y-11505531D02*
X12688801Y-11496008D01*
X12688801Y-11496008D02*
X12707848Y-11486484D01*
X12964991Y-11686484D02*
X12850706Y-11686484D01*
X12907848Y-11686484D02*
X12907848Y-11486484D01*
X12907848Y-11486484D02*
X12888801Y-11515055D01*
X12888801Y-11515055D02*
X12869753Y-11534103D01*
X12869753Y-11534103D02*
X12850706Y-11543627D01*
X13145944Y-11486484D02*
X13050706Y-11486484D01*
X13050706Y-11486484D02*
X13041182Y-11581722D01*
X13041182Y-11581722D02*
X13050706Y-11572198D01*
X13050706Y-11572198D02*
X13069753Y-11562674D01*
X13069753Y-11562674D02*
X13117372Y-11562674D01*
X13117372Y-11562674D02*
X13136420Y-11572198D01*
X13136420Y-11572198D02*
X13145944Y-11581722D01*
X13145944Y-11581722D02*
X13155467Y-11600769D01*
X13155467Y-11600769D02*
X13155467Y-11648388D01*
X13155467Y-11648388D02*
X13145944Y-11667436D01*
X13145944Y-11667436D02*
X13136420Y-11676960D01*
X13136420Y-11676960D02*
X13117372Y-11686484D01*
X13117372Y-11686484D02*
X13069753Y-11686484D01*
X13069753Y-11686484D02*
X13050706Y-11676960D01*
X13050706Y-11676960D02*
X13041182Y-11667436D01*
X13222134Y-11486484D02*
X13355467Y-11486484D01*
X13355467Y-11486484D02*
X13269753Y-11686484D01*
X13422134Y-11486484D02*
X13422134Y-11524579D01*
X13498325Y-11486484D02*
X13498325Y-11524579D01*
X13793563Y-11762674D02*
X13784039Y-11753150D01*
X13784039Y-11753150D02*
X13764991Y-11724579D01*
X13764991Y-11724579D02*
X13755468Y-11705531D01*
X13755468Y-11705531D02*
X13745944Y-11676960D01*
X13745944Y-11676960D02*
X13736420Y-11629341D01*
X13736420Y-11629341D02*
X13736420Y-11591246D01*
X13736420Y-11591246D02*
X13745944Y-11543627D01*
X13745944Y-11543627D02*
X13755468Y-11515055D01*
X13755468Y-11515055D02*
X13764991Y-11496008D01*
X13764991Y-11496008D02*
X13784039Y-11467436D01*
X13784039Y-11467436D02*
X13793563Y-11457912D01*
X13898325Y-11572198D02*
X13879277Y-11562674D01*
X13879277Y-11562674D02*
X13869753Y-11553150D01*
X13869753Y-11553150D02*
X13860229Y-11534103D01*
X13860229Y-11534103D02*
X13860229Y-11524579D01*
X13860229Y-11524579D02*
X13869753Y-11505531D01*
X13869753Y-11505531D02*
X13879277Y-11496008D01*
X13879277Y-11496008D02*
X13898325Y-11486484D01*
X13898325Y-11486484D02*
X13936420Y-11486484D01*
X13936420Y-11486484D02*
X13955468Y-11496008D01*
X13955468Y-11496008D02*
X13964991Y-11505531D01*
X13964991Y-11505531D02*
X13974515Y-11524579D01*
X13974515Y-11524579D02*
X13974515Y-11534103D01*
X13974515Y-11534103D02*
X13964991Y-11553150D01*
X13964991Y-11553150D02*
X13955468Y-11562674D01*
X13955468Y-11562674D02*
X13936420Y-11572198D01*
X13936420Y-11572198D02*
X13898325Y-11572198D01*
X13898325Y-11572198D02*
X13879277Y-11581722D01*
X13879277Y-11581722D02*
X13869753Y-11591246D01*
X13869753Y-11591246D02*
X13860229Y-11610293D01*
X13860229Y-11610293D02*
X13860229Y-11648388D01*
X13860229Y-11648388D02*
X13869753Y-11667436D01*
X13869753Y-11667436D02*
X13879277Y-11676960D01*
X13879277Y-11676960D02*
X13898325Y-11686484D01*
X13898325Y-11686484D02*
X13936420Y-11686484D01*
X13936420Y-11686484D02*
X13955468Y-11676960D01*
X13955468Y-11676960D02*
X13964991Y-11667436D01*
X13964991Y-11667436D02*
X13974515Y-11648388D01*
X13974515Y-11648388D02*
X13974515Y-11610293D01*
X13974515Y-11610293D02*
X13964991Y-11591246D01*
X13964991Y-11591246D02*
X13955468Y-11581722D01*
X13955468Y-11581722D02*
X13936420Y-11572198D01*
X14212610Y-11686484D02*
X14212610Y-11486484D01*
X14298325Y-11686484D02*
X14298325Y-11581722D01*
X14298325Y-11581722D02*
X14288801Y-11562674D01*
X14288801Y-11562674D02*
X14269753Y-11553150D01*
X14269753Y-11553150D02*
X14241182Y-11553150D01*
X14241182Y-11553150D02*
X14222134Y-11562674D01*
X14222134Y-11562674D02*
X14212610Y-11572198D01*
X14422134Y-11686484D02*
X14403087Y-11676960D01*
X14403087Y-11676960D02*
X14393563Y-11667436D01*
X14393563Y-11667436D02*
X14384039Y-11648388D01*
X14384039Y-11648388D02*
X14384039Y-11591246D01*
X14384039Y-11591246D02*
X14393563Y-11572198D01*
X14393563Y-11572198D02*
X14403087Y-11562674D01*
X14403087Y-11562674D02*
X14422134Y-11553150D01*
X14422134Y-11553150D02*
X14450706Y-11553150D01*
X14450706Y-11553150D02*
X14469753Y-11562674D01*
X14469753Y-11562674D02*
X14479277Y-11572198D01*
X14479277Y-11572198D02*
X14488801Y-11591246D01*
X14488801Y-11591246D02*
X14488801Y-11648388D01*
X14488801Y-11648388D02*
X14479277Y-11667436D01*
X14479277Y-11667436D02*
X14469753Y-11676960D01*
X14469753Y-11676960D02*
X14450706Y-11686484D01*
X14450706Y-11686484D02*
X14422134Y-11686484D01*
X14603087Y-11686484D02*
X14584039Y-11676960D01*
X14584039Y-11676960D02*
X14574515Y-11657912D01*
X14574515Y-11657912D02*
X14574515Y-11486484D01*
X14755468Y-11676960D02*
X14736420Y-11686484D01*
X14736420Y-11686484D02*
X14698325Y-11686484D01*
X14698325Y-11686484D02*
X14679277Y-11676960D01*
X14679277Y-11676960D02*
X14669753Y-11657912D01*
X14669753Y-11657912D02*
X14669753Y-11581722D01*
X14669753Y-11581722D02*
X14679277Y-11562674D01*
X14679277Y-11562674D02*
X14698325Y-11553150D01*
X14698325Y-11553150D02*
X14736420Y-11553150D01*
X14736420Y-11553150D02*
X14755468Y-11562674D01*
X14755468Y-11562674D02*
X14764991Y-11581722D01*
X14764991Y-11581722D02*
X14764991Y-11600769D01*
X14764991Y-11600769D02*
X14669753Y-11619817D01*
X14841182Y-11676960D02*
X14860230Y-11686484D01*
X14860230Y-11686484D02*
X14898325Y-11686484D01*
X14898325Y-11686484D02*
X14917372Y-11676960D01*
X14917372Y-11676960D02*
X14926896Y-11657912D01*
X14926896Y-11657912D02*
X14926896Y-11648388D01*
X14926896Y-11648388D02*
X14917372Y-11629341D01*
X14917372Y-11629341D02*
X14898325Y-11619817D01*
X14898325Y-11619817D02*
X14869753Y-11619817D01*
X14869753Y-11619817D02*
X14850706Y-11610293D01*
X14850706Y-11610293D02*
X14841182Y-11591246D01*
X14841182Y-11591246D02*
X14841182Y-11581722D01*
X14841182Y-11581722D02*
X14850706Y-11562674D01*
X14850706Y-11562674D02*
X14869753Y-11553150D01*
X14869753Y-11553150D02*
X14898325Y-11553150D01*
X14898325Y-11553150D02*
X14917372Y-11562674D01*
X14993563Y-11762674D02*
X15003087Y-11753150D01*
X15003087Y-11753150D02*
X15022134Y-11724579D01*
X15022134Y-11724579D02*
X15031658Y-11705531D01*
X15031658Y-11705531D02*
X15041182Y-11676960D01*
X15041182Y-11676960D02*
X15050706Y-11629341D01*
X15050706Y-11629341D02*
X15050706Y-11591246D01*
X15050706Y-11591246D02*
X15041182Y-11543627D01*
X15041182Y-11543627D02*
X15031658Y-11515055D01*
X15031658Y-11515055D02*
X15022134Y-11496008D01*
X15022134Y-11496008D02*
X15003087Y-11467436D01*
X15003087Y-11467436D02*
X14993563Y-11457912D01*
D12*
X10218500Y-11859000D02*
G75*
G02*
X10068500Y-11859000I-75000J0D01*
G01*
X10068500Y-11859000D02*
G75*
G02*
X10218500Y-11859000I75000J0D01*
G01*
D11*
X10584039Y-11950484D02*
X10469753Y-11950484D01*
X10526896Y-11950484D02*
X10526896Y-11750484D01*
X10526896Y-11750484D02*
X10507848Y-11779055D01*
X10507848Y-11779055D02*
X10488801Y-11798103D01*
X10488801Y-11798103D02*
X10469753Y-11807627D01*
X10669753Y-11931436D02*
X10679277Y-11940960D01*
X10679277Y-11940960D02*
X10669753Y-11950484D01*
X10669753Y-11950484D02*
X10660229Y-11940960D01*
X10660229Y-11940960D02*
X10669753Y-11931436D01*
X10669753Y-11931436D02*
X10669753Y-11950484D01*
X10860229Y-11750484D02*
X10764991Y-11750484D01*
X10764991Y-11750484D02*
X10755467Y-11845722D01*
X10755467Y-11845722D02*
X10764991Y-11836198D01*
X10764991Y-11836198D02*
X10784039Y-11826674D01*
X10784039Y-11826674D02*
X10831658Y-11826674D01*
X10831658Y-11826674D02*
X10850705Y-11836198D01*
X10850705Y-11836198D02*
X10860229Y-11845722D01*
X10860229Y-11845722D02*
X10869753Y-11864769D01*
X10869753Y-11864769D02*
X10869753Y-11912388D01*
X10869753Y-11912388D02*
X10860229Y-11931436D01*
X10860229Y-11931436D02*
X10850705Y-11940960D01*
X10850705Y-11940960D02*
X10831658Y-11950484D01*
X10831658Y-11950484D02*
X10784039Y-11950484D01*
X10784039Y-11950484D02*
X10764991Y-11940960D01*
X10764991Y-11940960D02*
X10755467Y-11931436D01*
X10993563Y-11750484D02*
X11012610Y-11750484D01*
X11012610Y-11750484D02*
X11031658Y-11760008D01*
X11031658Y-11760008D02*
X11041182Y-11769531D01*
X11041182Y-11769531D02*
X11050705Y-11788579D01*
X11050705Y-11788579D02*
X11060229Y-11826674D01*
X11060229Y-11826674D02*
X11060229Y-11874293D01*
X11060229Y-11874293D02*
X11050705Y-11912388D01*
X11050705Y-11912388D02*
X11041182Y-11931436D01*
X11041182Y-11931436D02*
X11031658Y-11940960D01*
X11031658Y-11940960D02*
X11012610Y-11950484D01*
X11012610Y-11950484D02*
X10993563Y-11950484D01*
X10993563Y-11950484D02*
X10974515Y-11940960D01*
X10974515Y-11940960D02*
X10964991Y-11931436D01*
X10964991Y-11931436D02*
X10955467Y-11912388D01*
X10955467Y-11912388D02*
X10945944Y-11874293D01*
X10945944Y-11874293D02*
X10945944Y-11826674D01*
X10945944Y-11826674D02*
X10955467Y-11788579D01*
X10955467Y-11788579D02*
X10964991Y-11769531D01*
X10964991Y-11769531D02*
X10974515Y-11760008D01*
X10974515Y-11760008D02*
X10993563Y-11750484D01*
X11184039Y-11750484D02*
X11203086Y-11750484D01*
X11203086Y-11750484D02*
X11222134Y-11760008D01*
X11222134Y-11760008D02*
X11231658Y-11769531D01*
X11231658Y-11769531D02*
X11241182Y-11788579D01*
X11241182Y-11788579D02*
X11250705Y-11826674D01*
X11250705Y-11826674D02*
X11250705Y-11874293D01*
X11250705Y-11874293D02*
X11241182Y-11912388D01*
X11241182Y-11912388D02*
X11231658Y-11931436D01*
X11231658Y-11931436D02*
X11222134Y-11940960D01*
X11222134Y-11940960D02*
X11203086Y-11950484D01*
X11203086Y-11950484D02*
X11184039Y-11950484D01*
X11184039Y-11950484D02*
X11164991Y-11940960D01*
X11164991Y-11940960D02*
X11155467Y-11931436D01*
X11155467Y-11931436D02*
X11145944Y-11912388D01*
X11145944Y-11912388D02*
X11136420Y-11874293D01*
X11136420Y-11874293D02*
X11136420Y-11826674D01*
X11136420Y-11826674D02*
X11145944Y-11788579D01*
X11145944Y-11788579D02*
X11155467Y-11769531D01*
X11155467Y-11769531D02*
X11164991Y-11760008D01*
X11164991Y-11760008D02*
X11184039Y-11750484D01*
X11336420Y-11950484D02*
X11336420Y-11817150D01*
X11336420Y-11836198D02*
X11345943Y-11826674D01*
X11345943Y-11826674D02*
X11364991Y-11817150D01*
X11364991Y-11817150D02*
X11393563Y-11817150D01*
X11393563Y-11817150D02*
X11412610Y-11826674D01*
X11412610Y-11826674D02*
X11422134Y-11845722D01*
X11422134Y-11845722D02*
X11422134Y-11950484D01*
X11422134Y-11845722D02*
X11431658Y-11826674D01*
X11431658Y-11826674D02*
X11450705Y-11817150D01*
X11450705Y-11817150D02*
X11479277Y-11817150D01*
X11479277Y-11817150D02*
X11498324Y-11826674D01*
X11498324Y-11826674D02*
X11507848Y-11845722D01*
X11507848Y-11845722D02*
X11507848Y-11950484D01*
X11603086Y-11950484D02*
X11603086Y-11817150D01*
X11603086Y-11836198D02*
X11612610Y-11826674D01*
X11612610Y-11826674D02*
X11631658Y-11817150D01*
X11631658Y-11817150D02*
X11660229Y-11817150D01*
X11660229Y-11817150D02*
X11679277Y-11826674D01*
X11679277Y-11826674D02*
X11688801Y-11845722D01*
X11688801Y-11845722D02*
X11688801Y-11950484D01*
X11688801Y-11845722D02*
X11698324Y-11826674D01*
X11698324Y-11826674D02*
X11717372Y-11817150D01*
X11717372Y-11817150D02*
X11745943Y-11817150D01*
X11745943Y-11817150D02*
X11764991Y-11826674D01*
X11764991Y-11826674D02*
X11774515Y-11845722D01*
X11774515Y-11845722D02*
X11774515Y-11950484D01*
X12164991Y-11740960D02*
X11993563Y-11998103D01*
X12422134Y-11750484D02*
X12441182Y-11750484D01*
X12441182Y-11750484D02*
X12460229Y-11760008D01*
X12460229Y-11760008D02*
X12469753Y-11769531D01*
X12469753Y-11769531D02*
X12479277Y-11788579D01*
X12479277Y-11788579D02*
X12488801Y-11826674D01*
X12488801Y-11826674D02*
X12488801Y-11874293D01*
X12488801Y-11874293D02*
X12479277Y-11912388D01*
X12479277Y-11912388D02*
X12469753Y-11931436D01*
X12469753Y-11931436D02*
X12460229Y-11940960D01*
X12460229Y-11940960D02*
X12441182Y-11950484D01*
X12441182Y-11950484D02*
X12422134Y-11950484D01*
X12422134Y-11950484D02*
X12403086Y-11940960D01*
X12403086Y-11940960D02*
X12393563Y-11931436D01*
X12393563Y-11931436D02*
X12384039Y-11912388D01*
X12384039Y-11912388D02*
X12374515Y-11874293D01*
X12374515Y-11874293D02*
X12374515Y-11826674D01*
X12374515Y-11826674D02*
X12384039Y-11788579D01*
X12384039Y-11788579D02*
X12393563Y-11769531D01*
X12393563Y-11769531D02*
X12403086Y-11760008D01*
X12403086Y-11760008D02*
X12422134Y-11750484D01*
X12574515Y-11931436D02*
X12584039Y-11940960D01*
X12584039Y-11940960D02*
X12574515Y-11950484D01*
X12574515Y-11950484D02*
X12564991Y-11940960D01*
X12564991Y-11940960D02*
X12574515Y-11931436D01*
X12574515Y-11931436D02*
X12574515Y-11950484D01*
X12707848Y-11750484D02*
X12726896Y-11750484D01*
X12726896Y-11750484D02*
X12745944Y-11760008D01*
X12745944Y-11760008D02*
X12755467Y-11769531D01*
X12755467Y-11769531D02*
X12764991Y-11788579D01*
X12764991Y-11788579D02*
X12774515Y-11826674D01*
X12774515Y-11826674D02*
X12774515Y-11874293D01*
X12774515Y-11874293D02*
X12764991Y-11912388D01*
X12764991Y-11912388D02*
X12755467Y-11931436D01*
X12755467Y-11931436D02*
X12745944Y-11940960D01*
X12745944Y-11940960D02*
X12726896Y-11950484D01*
X12726896Y-11950484D02*
X12707848Y-11950484D01*
X12707848Y-11950484D02*
X12688801Y-11940960D01*
X12688801Y-11940960D02*
X12679277Y-11931436D01*
X12679277Y-11931436D02*
X12669753Y-11912388D01*
X12669753Y-11912388D02*
X12660229Y-11874293D01*
X12660229Y-11874293D02*
X12660229Y-11826674D01*
X12660229Y-11826674D02*
X12669753Y-11788579D01*
X12669753Y-11788579D02*
X12679277Y-11769531D01*
X12679277Y-11769531D02*
X12688801Y-11760008D01*
X12688801Y-11760008D02*
X12707848Y-11750484D01*
X12955467Y-11750484D02*
X12860229Y-11750484D01*
X12860229Y-11750484D02*
X12850706Y-11845722D01*
X12850706Y-11845722D02*
X12860229Y-11836198D01*
X12860229Y-11836198D02*
X12879277Y-11826674D01*
X12879277Y-11826674D02*
X12926896Y-11826674D01*
X12926896Y-11826674D02*
X12945944Y-11836198D01*
X12945944Y-11836198D02*
X12955467Y-11845722D01*
X12955467Y-11845722D02*
X12964991Y-11864769D01*
X12964991Y-11864769D02*
X12964991Y-11912388D01*
X12964991Y-11912388D02*
X12955467Y-11931436D01*
X12955467Y-11931436D02*
X12945944Y-11940960D01*
X12945944Y-11940960D02*
X12926896Y-11950484D01*
X12926896Y-11950484D02*
X12879277Y-11950484D01*
X12879277Y-11950484D02*
X12860229Y-11940960D01*
X12860229Y-11940960D02*
X12850706Y-11931436D01*
X13060229Y-11950484D02*
X13098325Y-11950484D01*
X13098325Y-11950484D02*
X13117372Y-11940960D01*
X13117372Y-11940960D02*
X13126896Y-11931436D01*
X13126896Y-11931436D02*
X13145944Y-11902865D01*
X13145944Y-11902865D02*
X13155467Y-11864769D01*
X13155467Y-11864769D02*
X13155467Y-11788579D01*
X13155467Y-11788579D02*
X13145944Y-11769531D01*
X13145944Y-11769531D02*
X13136420Y-11760008D01*
X13136420Y-11760008D02*
X13117372Y-11750484D01*
X13117372Y-11750484D02*
X13079277Y-11750484D01*
X13079277Y-11750484D02*
X13060229Y-11760008D01*
X13060229Y-11760008D02*
X13050706Y-11769531D01*
X13050706Y-11769531D02*
X13041182Y-11788579D01*
X13041182Y-11788579D02*
X13041182Y-11836198D01*
X13041182Y-11836198D02*
X13050706Y-11855246D01*
X13050706Y-11855246D02*
X13060229Y-11864769D01*
X13060229Y-11864769D02*
X13079277Y-11874293D01*
X13079277Y-11874293D02*
X13117372Y-11874293D01*
X13117372Y-11874293D02*
X13136420Y-11864769D01*
X13136420Y-11864769D02*
X13145944Y-11855246D01*
X13145944Y-11855246D02*
X13155467Y-11836198D01*
X13345944Y-11950484D02*
X13231658Y-11950484D01*
X13288801Y-11950484D02*
X13288801Y-11750484D01*
X13288801Y-11750484D02*
X13269753Y-11779055D01*
X13269753Y-11779055D02*
X13250706Y-11798103D01*
X13250706Y-11798103D02*
X13231658Y-11807627D01*
X13422134Y-11750484D02*
X13422134Y-11788579D01*
X13498325Y-11750484D02*
X13498325Y-11788579D01*
X13793563Y-12026674D02*
X13784039Y-12017150D01*
X13784039Y-12017150D02*
X13764991Y-11988579D01*
X13764991Y-11988579D02*
X13755468Y-11969531D01*
X13755468Y-11969531D02*
X13745944Y-11940960D01*
X13745944Y-11940960D02*
X13736420Y-11893341D01*
X13736420Y-11893341D02*
X13736420Y-11855246D01*
X13736420Y-11855246D02*
X13745944Y-11807627D01*
X13745944Y-11807627D02*
X13755468Y-11779055D01*
X13755468Y-11779055D02*
X13764991Y-11760008D01*
X13764991Y-11760008D02*
X13784039Y-11731436D01*
X13784039Y-11731436D02*
X13793563Y-11721912D01*
X13898325Y-11836198D02*
X13879277Y-11826674D01*
X13879277Y-11826674D02*
X13869753Y-11817150D01*
X13869753Y-11817150D02*
X13860229Y-11798103D01*
X13860229Y-11798103D02*
X13860229Y-11788579D01*
X13860229Y-11788579D02*
X13869753Y-11769531D01*
X13869753Y-11769531D02*
X13879277Y-11760008D01*
X13879277Y-11760008D02*
X13898325Y-11750484D01*
X13898325Y-11750484D02*
X13936420Y-11750484D01*
X13936420Y-11750484D02*
X13955468Y-11760008D01*
X13955468Y-11760008D02*
X13964991Y-11769531D01*
X13964991Y-11769531D02*
X13974515Y-11788579D01*
X13974515Y-11788579D02*
X13974515Y-11798103D01*
X13974515Y-11798103D02*
X13964991Y-11817150D01*
X13964991Y-11817150D02*
X13955468Y-11826674D01*
X13955468Y-11826674D02*
X13936420Y-11836198D01*
X13936420Y-11836198D02*
X13898325Y-11836198D01*
X13898325Y-11836198D02*
X13879277Y-11845722D01*
X13879277Y-11845722D02*
X13869753Y-11855246D01*
X13869753Y-11855246D02*
X13860229Y-11874293D01*
X13860229Y-11874293D02*
X13860229Y-11912388D01*
X13860229Y-11912388D02*
X13869753Y-11931436D01*
X13869753Y-11931436D02*
X13879277Y-11940960D01*
X13879277Y-11940960D02*
X13898325Y-11950484D01*
X13898325Y-11950484D02*
X13936420Y-11950484D01*
X13936420Y-11950484D02*
X13955468Y-11940960D01*
X13955468Y-11940960D02*
X13964991Y-11931436D01*
X13964991Y-11931436D02*
X13974515Y-11912388D01*
X13974515Y-11912388D02*
X13974515Y-11874293D01*
X13974515Y-11874293D02*
X13964991Y-11855246D01*
X13964991Y-11855246D02*
X13955468Y-11845722D01*
X13955468Y-11845722D02*
X13936420Y-11836198D01*
X14212610Y-11950484D02*
X14212610Y-11750484D01*
X14298325Y-11950484D02*
X14298325Y-11845722D01*
X14298325Y-11845722D02*
X14288801Y-11826674D01*
X14288801Y-11826674D02*
X14269753Y-11817150D01*
X14269753Y-11817150D02*
X14241182Y-11817150D01*
X14241182Y-11817150D02*
X14222134Y-11826674D01*
X14222134Y-11826674D02*
X14212610Y-11836198D01*
X14422134Y-11950484D02*
X14403087Y-11940960D01*
X14403087Y-11940960D02*
X14393563Y-11931436D01*
X14393563Y-11931436D02*
X14384039Y-11912388D01*
X14384039Y-11912388D02*
X14384039Y-11855246D01*
X14384039Y-11855246D02*
X14393563Y-11836198D01*
X14393563Y-11836198D02*
X14403087Y-11826674D01*
X14403087Y-11826674D02*
X14422134Y-11817150D01*
X14422134Y-11817150D02*
X14450706Y-11817150D01*
X14450706Y-11817150D02*
X14469753Y-11826674D01*
X14469753Y-11826674D02*
X14479277Y-11836198D01*
X14479277Y-11836198D02*
X14488801Y-11855246D01*
X14488801Y-11855246D02*
X14488801Y-11912388D01*
X14488801Y-11912388D02*
X14479277Y-11931436D01*
X14479277Y-11931436D02*
X14469753Y-11940960D01*
X14469753Y-11940960D02*
X14450706Y-11950484D01*
X14450706Y-11950484D02*
X14422134Y-11950484D01*
X14603087Y-11950484D02*
X14584039Y-11940960D01*
X14584039Y-11940960D02*
X14574515Y-11921912D01*
X14574515Y-11921912D02*
X14574515Y-11750484D01*
X14755468Y-11940960D02*
X14736420Y-11950484D01*
X14736420Y-11950484D02*
X14698325Y-11950484D01*
X14698325Y-11950484D02*
X14679277Y-11940960D01*
X14679277Y-11940960D02*
X14669753Y-11921912D01*
X14669753Y-11921912D02*
X14669753Y-11845722D01*
X14669753Y-11845722D02*
X14679277Y-11826674D01*
X14679277Y-11826674D02*
X14698325Y-11817150D01*
X14698325Y-11817150D02*
X14736420Y-11817150D01*
X14736420Y-11817150D02*
X14755468Y-11826674D01*
X14755468Y-11826674D02*
X14764991Y-11845722D01*
X14764991Y-11845722D02*
X14764991Y-11864769D01*
X14764991Y-11864769D02*
X14669753Y-11883817D01*
X14841182Y-11940960D02*
X14860230Y-11950484D01*
X14860230Y-11950484D02*
X14898325Y-11950484D01*
X14898325Y-11950484D02*
X14917372Y-11940960D01*
X14917372Y-11940960D02*
X14926896Y-11921912D01*
X14926896Y-11921912D02*
X14926896Y-11912388D01*
X14926896Y-11912388D02*
X14917372Y-11893341D01*
X14917372Y-11893341D02*
X14898325Y-11883817D01*
X14898325Y-11883817D02*
X14869753Y-11883817D01*
X14869753Y-11883817D02*
X14850706Y-11874293D01*
X14850706Y-11874293D02*
X14841182Y-11855246D01*
X14841182Y-11855246D02*
X14841182Y-11845722D01*
X14841182Y-11845722D02*
X14850706Y-11826674D01*
X14850706Y-11826674D02*
X14869753Y-11817150D01*
X14869753Y-11817150D02*
X14898325Y-11817150D01*
X14898325Y-11817150D02*
X14917372Y-11826674D01*
X14993563Y-12026674D02*
X15003087Y-12017150D01*
X15003087Y-12017150D02*
X15022134Y-11988579D01*
X15022134Y-11988579D02*
X15031658Y-11969531D01*
X15031658Y-11969531D02*
X15041182Y-11940960D01*
X15041182Y-11940960D02*
X15050706Y-11893341D01*
X15050706Y-11893341D02*
X15050706Y-11855246D01*
X15050706Y-11855246D02*
X15041182Y-11807627D01*
X15041182Y-11807627D02*
X15031658Y-11779055D01*
X15031658Y-11779055D02*
X15022134Y-11760008D01*
X15022134Y-11760008D02*
X15003087Y-11731436D01*
X15003087Y-11731436D02*
X14993563Y-11721912D01*
M02*
