%TF.GenerationSoftware,KiCad,Pcbnew,8.0.4*%
%TF.CreationDate,2024-07-29T15:22:08-07:00*%
%TF.ProjectId,3board_b,33626f61-7264-45f6-922e-6b696361645f,rev?*%
%TF.SameCoordinates,Original*%
%TF.FileFunction,Copper,L1,Top*%
%TF.FilePolarity,Positive*%
%FSLAX46Y46*%
G04 Gerber Fmt 4.6, Leading zero omitted, Abs format (unit mm)*
G04 Created by KiCad (PCBNEW 8.0.4) date 2024-07-29 15:22:08*
%MOMM*%
%LPD*%
G01*
G04 APERTURE LIST*
G04 Aperture macros list*
%AMFreePoly0*
4,1,19,0.000000,0.744911,0.071157,0.744911,0.207708,0.704816,0.327430,0.627875,0.420627,0.520320,0.479746,0.390866,0.500000,0.250000,0.500000,-0.250000,0.479746,-0.390866,0.420627,-0.520320,0.327430,-0.627875,0.207708,-0.704816,0.071157,-0.744911,0.000000,-0.744911,0.000000,-0.750000,-0.500000,-0.750000,-0.500000,0.750000,0.000000,0.750000,0.000000,0.744911,0.000000,0.744911,
$1*%
G04 Aperture macros list end*
%TA.AperFunction,ComponentPad*%
%ADD10C,2.500000*%
%TD*%
%TA.AperFunction,SMDPad,CuDef*%
%ADD11FreePoly0,0.000000*%
%TD*%
%TA.AperFunction,ViaPad*%
%ADD12C,0.800000*%
%TD*%
%TA.AperFunction,Conductor*%
%ADD13C,0.800000*%
%TD*%
%TA.AperFunction,Conductor*%
%ADD14C,0.150000*%
%TD*%
G04 APERTURE END LIST*
D10*
%TO.P,SW15_TOUCHPAD,1,1*%
%TO.N,/Buttons/A2*%
X181925000Y-26540000D03*
%TO.P,SW15_TOUCHPAD,2,2*%
%TO.N,GND*%
X188275000Y-24000000D03*
%TD*%
D11*
%TO.P,JP15,2,B*%
%TO.N,GND*%
X102947500Y-88500000D03*
%TD*%
%TO.P,JP18,2,B*%
%TO.N,/Buttons/R2*%
X102947500Y-107500000D03*
%TD*%
D10*
%TO.P,SW10_SHARE,1,1*%
%TO.N,/Buttons/S1*%
X150925000Y-26540000D03*
%TO.P,SW10_SHARE,2,2*%
%TO.N,GND*%
X157275000Y-24000000D03*
%TD*%
D11*
%TO.P,JP20,2,B*%
%TO.N,/Buttons/B1*%
X102947500Y-101500000D03*
%TD*%
%TO.P,JP19,2,B*%
%TO.N,/Buttons/B2*%
X102947500Y-104500000D03*
%TD*%
%TO.P,JP21,2,B*%
%TO.N,/Buttons/S2*%
X102947500Y-66500000D03*
%TD*%
%TO.P,JP26,2,B*%
%TO.N,/Buttons/R1*%
X102947500Y-98500000D03*
%TD*%
%TO.P,JP17,2,B*%
%TO.N,/Buttons/B3*%
X102947500Y-92500000D03*
%TD*%
%TO.P,JP22,2,B*%
%TO.N,/Buttons/S1*%
X102947500Y-69500000D03*
%TD*%
%TO.P,JP24,2,B*%
%TO.N,/Buttons/A2*%
X102947500Y-85500000D03*
%TD*%
D10*
%TO.P,SW14_PS,1,1*%
%TO.N,/Buttons/A1*%
X166425000Y-26540000D03*
%TO.P,SW14_PS,2,2*%
%TO.N,GND*%
X172775000Y-24000000D03*
%TD*%
D11*
%TO.P,JP27,2,B*%
%TO.N,/Buttons/B4*%
X102947500Y-95500000D03*
%TD*%
%TO.P,JP25,2,B*%
%TO.N,/Buttons/L1*%
X102947500Y-63500000D03*
%TD*%
%TO.P,JP23,2,B*%
%TO.N,/Buttons/A1*%
X102947500Y-82500000D03*
%TD*%
D10*
%TO.P,SW11_START,1,1*%
%TO.N,/Buttons/S2*%
X135425000Y-26540000D03*
%TO.P,SW11_START,2,2*%
%TO.N,GND*%
X141775000Y-24000000D03*
%TD*%
D12*
%TO.N,GND*%
X104235000Y-88500000D03*
%TO.N,/Buttons/L1*%
X108235000Y-36000000D03*
%TO.N,/Buttons/R1*%
X162235000Y-54500000D03*
%TO.N,/Buttons/B4*%
X132235000Y-52500000D03*
%TO.N,/Buttons/B3*%
X109235000Y-69000000D03*
%TO.N,/Buttons/R2*%
X162235000Y-83500000D03*
%TO.N,/Buttons/B2*%
X133235000Y-83500000D03*
%TO.N,/Buttons/B1*%
X109235000Y-98000000D03*
%TD*%
D13*
%TO.N,GND*%
X104235000Y-88500000D02*
X102947500Y-88500000D01*
D14*
%TO.N,/Buttons/S2*%
X134195000Y-26540000D02*
X135425000Y-26540000D01*
X105235000Y-66500000D02*
X131735000Y-40000000D01*
X102810000Y-66500000D02*
X105235000Y-66500000D01*
X131735000Y-29000000D02*
X134195000Y-26540000D01*
X131735000Y-40000000D02*
X131735000Y-29000000D01*
%TO.N,/Buttons/S1*%
X148453061Y-26540000D02*
X105493061Y-69500000D01*
X105493061Y-69500000D02*
X102810000Y-69500000D01*
X150925000Y-26540000D02*
X148453061Y-26540000D01*
%TO.N,/Buttons/A1*%
X166425000Y-26540000D02*
X165195000Y-26540000D01*
X158735000Y-33500000D02*
X165695000Y-26540000D01*
X102810000Y-82500000D02*
X107735000Y-77575000D01*
X165695000Y-26540000D02*
X166425000Y-26540000D01*
X107735000Y-77575000D02*
X107735000Y-68505026D01*
X107735000Y-68505026D02*
X142740026Y-33500000D01*
X142740026Y-33500000D02*
X158735000Y-33500000D01*
%TO.N,/Buttons/A2*%
X108235000Y-80075000D02*
X102810000Y-85500000D01*
X132735000Y-44000000D02*
X108235000Y-68500000D01*
X181925000Y-26540000D02*
X180695000Y-26540000D01*
X180695000Y-26540000D02*
X163235000Y-44000000D01*
X108235000Y-68500000D02*
X108235000Y-80075000D01*
X163235000Y-44000000D02*
X132735000Y-44000000D01*
%TO.N,/Buttons/L1*%
X102810000Y-63500000D02*
X104235000Y-62075000D01*
X104235000Y-40000000D02*
X108235000Y-36000000D01*
X104235000Y-62075000D02*
X104235000Y-40000000D01*
%TO.N,/Buttons/R1*%
X121810000Y-79500000D02*
X136235000Y-79500000D01*
X161235000Y-54500000D02*
X162235000Y-54500000D01*
X136235000Y-79500000D02*
X161235000Y-54500000D01*
X102810000Y-98500000D02*
X121810000Y-79500000D01*
%TO.N,/Buttons/B4*%
X102810000Y-94925000D02*
X132235000Y-65500000D01*
X102810000Y-95500000D02*
X102810000Y-94925000D01*
X132235000Y-65500000D02*
X132235000Y-52500000D01*
%TO.N,/Buttons/B3*%
X102810000Y-92500000D02*
X109235000Y-86075000D01*
X109235000Y-86075000D02*
X109235000Y-69000000D01*
%TO.N,/Buttons/R2*%
X138235000Y-107500000D02*
X162235000Y-83500000D01*
X102810000Y-107500000D02*
X138235000Y-107500000D01*
%TO.N,/Buttons/B2*%
X119235000Y-104500000D02*
X133235000Y-90500000D01*
X102810000Y-104500000D02*
X119235000Y-104500000D01*
X133235000Y-90500000D02*
X133235000Y-83500000D01*
%TO.N,/Buttons/B1*%
X105735000Y-101500000D02*
X102810000Y-101500000D01*
X109235000Y-98000000D02*
X105735000Y-101500000D01*
%TD*%
M02*
