%TF.GenerationSoftware,KiCad,Pcbnew,8.0.4*%
%TF.CreationDate,2024-07-29T15:22:08-07:00*%
%TF.ProjectId,3board_b,33626f61-7264-45f6-922e-6b696361645f,rev?*%
%TF.SameCoordinates,Original*%
%TF.FileFunction,Legend,Top*%
%TF.FilePolarity,Positive*%
%FSLAX46Y46*%
G04 Gerber Fmt 4.6, Leading zero omitted, Abs format (unit mm)*
G04 Created by KiCad (PCBNEW 8.0.4) date 2024-07-29 15:22:08*
%MOMM*%
%LPD*%
G01*
G04 APERTURE LIST*
G04 Aperture macros list*
%AMFreePoly0*
4,1,19,0.000000,0.744911,0.071157,0.744911,0.207708,0.704816,0.327430,0.627875,0.420627,0.520320,0.479746,0.390866,0.500000,0.250000,0.500000,-0.250000,0.479746,-0.390866,0.420627,-0.520320,0.327430,-0.627875,0.207708,-0.704816,0.071157,-0.744911,0.000000,-0.744911,0.000000,-0.750000,-0.500000,-0.750000,-0.500000,0.750000,0.000000,0.750000,0.000000,0.744911,0.000000,0.744911,
$1*%
G04 Aperture macros list end*
%ADD10C,0.150000*%
%ADD11C,0.120000*%
%ADD12C,1.750000*%
%ADD13C,3.050000*%
%ADD14C,4.000000*%
%ADD15C,2.500000*%
%ADD16FreePoly0,0.000000*%
%ADD17C,3.200000*%
G04 APERTURE END LIST*
D10*
X114549895Y-61407200D02*
X114692752Y-61454819D01*
X114692752Y-61454819D02*
X114930847Y-61454819D01*
X114930847Y-61454819D02*
X115026085Y-61407200D01*
X115026085Y-61407200D02*
X115073704Y-61359580D01*
X115073704Y-61359580D02*
X115121323Y-61264342D01*
X115121323Y-61264342D02*
X115121323Y-61169104D01*
X115121323Y-61169104D02*
X115073704Y-61073866D01*
X115073704Y-61073866D02*
X115026085Y-61026247D01*
X115026085Y-61026247D02*
X114930847Y-60978628D01*
X114930847Y-60978628D02*
X114740371Y-60931009D01*
X114740371Y-60931009D02*
X114645133Y-60883390D01*
X114645133Y-60883390D02*
X114597514Y-60835771D01*
X114597514Y-60835771D02*
X114549895Y-60740533D01*
X114549895Y-60740533D02*
X114549895Y-60645295D01*
X114549895Y-60645295D02*
X114597514Y-60550057D01*
X114597514Y-60550057D02*
X114645133Y-60502438D01*
X114645133Y-60502438D02*
X114740371Y-60454819D01*
X114740371Y-60454819D02*
X114978466Y-60454819D01*
X114978466Y-60454819D02*
X115121323Y-60502438D01*
X115454657Y-60454819D02*
X115692752Y-61454819D01*
X115692752Y-61454819D02*
X115883228Y-60740533D01*
X115883228Y-60740533D02*
X116073704Y-61454819D01*
X116073704Y-61454819D02*
X116311800Y-60454819D01*
X117121323Y-60788152D02*
X117121323Y-61454819D01*
X116883228Y-60407200D02*
X116645133Y-61121485D01*
X116645133Y-61121485D02*
X117264180Y-61121485D01*
X117407038Y-61550057D02*
X118168942Y-61550057D01*
X118883228Y-61454819D02*
X118407038Y-61454819D01*
X118407038Y-61454819D02*
X118407038Y-60454819D01*
X119216562Y-61454819D02*
X119216562Y-60454819D01*
X119216562Y-60454819D02*
X119597514Y-60454819D01*
X119597514Y-60454819D02*
X119692752Y-60502438D01*
X119692752Y-60502438D02*
X119740371Y-60550057D01*
X119740371Y-60550057D02*
X119787990Y-60645295D01*
X119787990Y-60645295D02*
X119787990Y-60788152D01*
X119787990Y-60788152D02*
X119740371Y-60883390D01*
X119740371Y-60883390D02*
X119692752Y-60931009D01*
X119692752Y-60931009D02*
X119597514Y-60978628D01*
X119597514Y-60978628D02*
X119216562Y-60978628D01*
X179663571Y-21487200D02*
X179806428Y-21534819D01*
X179806428Y-21534819D02*
X180044523Y-21534819D01*
X180044523Y-21534819D02*
X180139761Y-21487200D01*
X180139761Y-21487200D02*
X180187380Y-21439580D01*
X180187380Y-21439580D02*
X180234999Y-21344342D01*
X180234999Y-21344342D02*
X180234999Y-21249104D01*
X180234999Y-21249104D02*
X180187380Y-21153866D01*
X180187380Y-21153866D02*
X180139761Y-21106247D01*
X180139761Y-21106247D02*
X180044523Y-21058628D01*
X180044523Y-21058628D02*
X179854047Y-21011009D01*
X179854047Y-21011009D02*
X179758809Y-20963390D01*
X179758809Y-20963390D02*
X179711190Y-20915771D01*
X179711190Y-20915771D02*
X179663571Y-20820533D01*
X179663571Y-20820533D02*
X179663571Y-20725295D01*
X179663571Y-20725295D02*
X179711190Y-20630057D01*
X179711190Y-20630057D02*
X179758809Y-20582438D01*
X179758809Y-20582438D02*
X179854047Y-20534819D01*
X179854047Y-20534819D02*
X180092142Y-20534819D01*
X180092142Y-20534819D02*
X180234999Y-20582438D01*
X180568333Y-20534819D02*
X180806428Y-21534819D01*
X180806428Y-21534819D02*
X180996904Y-20820533D01*
X180996904Y-20820533D02*
X181187380Y-21534819D01*
X181187380Y-21534819D02*
X181425476Y-20534819D01*
X182330237Y-21534819D02*
X181758809Y-21534819D01*
X182044523Y-21534819D02*
X182044523Y-20534819D01*
X182044523Y-20534819D02*
X181949285Y-20677676D01*
X181949285Y-20677676D02*
X181854047Y-20772914D01*
X181854047Y-20772914D02*
X181758809Y-20820533D01*
X183234999Y-20534819D02*
X182758809Y-20534819D01*
X182758809Y-20534819D02*
X182711190Y-21011009D01*
X182711190Y-21011009D02*
X182758809Y-20963390D01*
X182758809Y-20963390D02*
X182854047Y-20915771D01*
X182854047Y-20915771D02*
X183092142Y-20915771D01*
X183092142Y-20915771D02*
X183187380Y-20963390D01*
X183187380Y-20963390D02*
X183234999Y-21011009D01*
X183234999Y-21011009D02*
X183282618Y-21106247D01*
X183282618Y-21106247D02*
X183282618Y-21344342D01*
X183282618Y-21344342D02*
X183234999Y-21439580D01*
X183234999Y-21439580D02*
X183187380Y-21487200D01*
X183187380Y-21487200D02*
X183092142Y-21534819D01*
X183092142Y-21534819D02*
X182854047Y-21534819D01*
X182854047Y-21534819D02*
X182758809Y-21487200D01*
X182758809Y-21487200D02*
X182711190Y-21439580D01*
X183473095Y-21630057D02*
X184234999Y-21630057D01*
X184330238Y-20534819D02*
X184901666Y-20534819D01*
X184615952Y-21534819D02*
X184615952Y-20534819D01*
X185425476Y-20534819D02*
X185615952Y-20534819D01*
X185615952Y-20534819D02*
X185711190Y-20582438D01*
X185711190Y-20582438D02*
X185806428Y-20677676D01*
X185806428Y-20677676D02*
X185854047Y-20868152D01*
X185854047Y-20868152D02*
X185854047Y-21201485D01*
X185854047Y-21201485D02*
X185806428Y-21391961D01*
X185806428Y-21391961D02*
X185711190Y-21487200D01*
X185711190Y-21487200D02*
X185615952Y-21534819D01*
X185615952Y-21534819D02*
X185425476Y-21534819D01*
X185425476Y-21534819D02*
X185330238Y-21487200D01*
X185330238Y-21487200D02*
X185235000Y-21391961D01*
X185235000Y-21391961D02*
X185187381Y-21201485D01*
X185187381Y-21201485D02*
X185187381Y-20868152D01*
X185187381Y-20868152D02*
X185235000Y-20677676D01*
X185235000Y-20677676D02*
X185330238Y-20582438D01*
X185330238Y-20582438D02*
X185425476Y-20534819D01*
X186282619Y-20534819D02*
X186282619Y-21344342D01*
X186282619Y-21344342D02*
X186330238Y-21439580D01*
X186330238Y-21439580D02*
X186377857Y-21487200D01*
X186377857Y-21487200D02*
X186473095Y-21534819D01*
X186473095Y-21534819D02*
X186663571Y-21534819D01*
X186663571Y-21534819D02*
X186758809Y-21487200D01*
X186758809Y-21487200D02*
X186806428Y-21439580D01*
X186806428Y-21439580D02*
X186854047Y-21344342D01*
X186854047Y-21344342D02*
X186854047Y-20534819D01*
X187901666Y-21439580D02*
X187854047Y-21487200D01*
X187854047Y-21487200D02*
X187711190Y-21534819D01*
X187711190Y-21534819D02*
X187615952Y-21534819D01*
X187615952Y-21534819D02*
X187473095Y-21487200D01*
X187473095Y-21487200D02*
X187377857Y-21391961D01*
X187377857Y-21391961D02*
X187330238Y-21296723D01*
X187330238Y-21296723D02*
X187282619Y-21106247D01*
X187282619Y-21106247D02*
X187282619Y-20963390D01*
X187282619Y-20963390D02*
X187330238Y-20772914D01*
X187330238Y-20772914D02*
X187377857Y-20677676D01*
X187377857Y-20677676D02*
X187473095Y-20582438D01*
X187473095Y-20582438D02*
X187615952Y-20534819D01*
X187615952Y-20534819D02*
X187711190Y-20534819D01*
X187711190Y-20534819D02*
X187854047Y-20582438D01*
X187854047Y-20582438D02*
X187901666Y-20630057D01*
X188330238Y-21534819D02*
X188330238Y-20534819D01*
X188330238Y-21011009D02*
X188901666Y-21011009D01*
X188901666Y-21534819D02*
X188901666Y-20534819D01*
X189377857Y-21534819D02*
X189377857Y-20534819D01*
X189377857Y-20534819D02*
X189758809Y-20534819D01*
X189758809Y-20534819D02*
X189854047Y-20582438D01*
X189854047Y-20582438D02*
X189901666Y-20630057D01*
X189901666Y-20630057D02*
X189949285Y-20725295D01*
X189949285Y-20725295D02*
X189949285Y-20868152D01*
X189949285Y-20868152D02*
X189901666Y-20963390D01*
X189901666Y-20963390D02*
X189854047Y-21011009D01*
X189854047Y-21011009D02*
X189758809Y-21058628D01*
X189758809Y-21058628D02*
X189377857Y-21058628D01*
X190330238Y-21249104D02*
X190806428Y-21249104D01*
X190235000Y-21534819D02*
X190568333Y-20534819D01*
X190568333Y-20534819D02*
X190901666Y-21534819D01*
X191235000Y-21534819D02*
X191235000Y-20534819D01*
X191235000Y-20534819D02*
X191473095Y-20534819D01*
X191473095Y-20534819D02*
X191615952Y-20582438D01*
X191615952Y-20582438D02*
X191711190Y-20677676D01*
X191711190Y-20677676D02*
X191758809Y-20772914D01*
X191758809Y-20772914D02*
X191806428Y-20963390D01*
X191806428Y-20963390D02*
X191806428Y-21106247D01*
X191806428Y-21106247D02*
X191758809Y-21296723D01*
X191758809Y-21296723D02*
X191711190Y-21391961D01*
X191711190Y-21391961D02*
X191615952Y-21487200D01*
X191615952Y-21487200D02*
X191473095Y-21534819D01*
X191473095Y-21534819D02*
X191235000Y-21534819D01*
X150163571Y-21487200D02*
X150306428Y-21534819D01*
X150306428Y-21534819D02*
X150544523Y-21534819D01*
X150544523Y-21534819D02*
X150639761Y-21487200D01*
X150639761Y-21487200D02*
X150687380Y-21439580D01*
X150687380Y-21439580D02*
X150734999Y-21344342D01*
X150734999Y-21344342D02*
X150734999Y-21249104D01*
X150734999Y-21249104D02*
X150687380Y-21153866D01*
X150687380Y-21153866D02*
X150639761Y-21106247D01*
X150639761Y-21106247D02*
X150544523Y-21058628D01*
X150544523Y-21058628D02*
X150354047Y-21011009D01*
X150354047Y-21011009D02*
X150258809Y-20963390D01*
X150258809Y-20963390D02*
X150211190Y-20915771D01*
X150211190Y-20915771D02*
X150163571Y-20820533D01*
X150163571Y-20820533D02*
X150163571Y-20725295D01*
X150163571Y-20725295D02*
X150211190Y-20630057D01*
X150211190Y-20630057D02*
X150258809Y-20582438D01*
X150258809Y-20582438D02*
X150354047Y-20534819D01*
X150354047Y-20534819D02*
X150592142Y-20534819D01*
X150592142Y-20534819D02*
X150734999Y-20582438D01*
X151068333Y-20534819D02*
X151306428Y-21534819D01*
X151306428Y-21534819D02*
X151496904Y-20820533D01*
X151496904Y-20820533D02*
X151687380Y-21534819D01*
X151687380Y-21534819D02*
X151925476Y-20534819D01*
X152830237Y-21534819D02*
X152258809Y-21534819D01*
X152544523Y-21534819D02*
X152544523Y-20534819D01*
X152544523Y-20534819D02*
X152449285Y-20677676D01*
X152449285Y-20677676D02*
X152354047Y-20772914D01*
X152354047Y-20772914D02*
X152258809Y-20820533D01*
X153449285Y-20534819D02*
X153544523Y-20534819D01*
X153544523Y-20534819D02*
X153639761Y-20582438D01*
X153639761Y-20582438D02*
X153687380Y-20630057D01*
X153687380Y-20630057D02*
X153734999Y-20725295D01*
X153734999Y-20725295D02*
X153782618Y-20915771D01*
X153782618Y-20915771D02*
X153782618Y-21153866D01*
X153782618Y-21153866D02*
X153734999Y-21344342D01*
X153734999Y-21344342D02*
X153687380Y-21439580D01*
X153687380Y-21439580D02*
X153639761Y-21487200D01*
X153639761Y-21487200D02*
X153544523Y-21534819D01*
X153544523Y-21534819D02*
X153449285Y-21534819D01*
X153449285Y-21534819D02*
X153354047Y-21487200D01*
X153354047Y-21487200D02*
X153306428Y-21439580D01*
X153306428Y-21439580D02*
X153258809Y-21344342D01*
X153258809Y-21344342D02*
X153211190Y-21153866D01*
X153211190Y-21153866D02*
X153211190Y-20915771D01*
X153211190Y-20915771D02*
X153258809Y-20725295D01*
X153258809Y-20725295D02*
X153306428Y-20630057D01*
X153306428Y-20630057D02*
X153354047Y-20582438D01*
X153354047Y-20582438D02*
X153449285Y-20534819D01*
X153973095Y-21630057D02*
X154734999Y-21630057D01*
X154925476Y-21487200D02*
X155068333Y-21534819D01*
X155068333Y-21534819D02*
X155306428Y-21534819D01*
X155306428Y-21534819D02*
X155401666Y-21487200D01*
X155401666Y-21487200D02*
X155449285Y-21439580D01*
X155449285Y-21439580D02*
X155496904Y-21344342D01*
X155496904Y-21344342D02*
X155496904Y-21249104D01*
X155496904Y-21249104D02*
X155449285Y-21153866D01*
X155449285Y-21153866D02*
X155401666Y-21106247D01*
X155401666Y-21106247D02*
X155306428Y-21058628D01*
X155306428Y-21058628D02*
X155115952Y-21011009D01*
X155115952Y-21011009D02*
X155020714Y-20963390D01*
X155020714Y-20963390D02*
X154973095Y-20915771D01*
X154973095Y-20915771D02*
X154925476Y-20820533D01*
X154925476Y-20820533D02*
X154925476Y-20725295D01*
X154925476Y-20725295D02*
X154973095Y-20630057D01*
X154973095Y-20630057D02*
X155020714Y-20582438D01*
X155020714Y-20582438D02*
X155115952Y-20534819D01*
X155115952Y-20534819D02*
X155354047Y-20534819D01*
X155354047Y-20534819D02*
X155496904Y-20582438D01*
X155925476Y-21534819D02*
X155925476Y-20534819D01*
X155925476Y-21011009D02*
X156496904Y-21011009D01*
X156496904Y-21534819D02*
X156496904Y-20534819D01*
X156925476Y-21249104D02*
X157401666Y-21249104D01*
X156830238Y-21534819D02*
X157163571Y-20534819D01*
X157163571Y-20534819D02*
X157496904Y-21534819D01*
X158401666Y-21534819D02*
X158068333Y-21058628D01*
X157830238Y-21534819D02*
X157830238Y-20534819D01*
X157830238Y-20534819D02*
X158211190Y-20534819D01*
X158211190Y-20534819D02*
X158306428Y-20582438D01*
X158306428Y-20582438D02*
X158354047Y-20630057D01*
X158354047Y-20630057D02*
X158401666Y-20725295D01*
X158401666Y-20725295D02*
X158401666Y-20868152D01*
X158401666Y-20868152D02*
X158354047Y-20963390D01*
X158354047Y-20963390D02*
X158306428Y-21011009D01*
X158306428Y-21011009D02*
X158211190Y-21058628D01*
X158211190Y-21058628D02*
X157830238Y-21058628D01*
X158830238Y-21011009D02*
X159163571Y-21011009D01*
X159306428Y-21534819D02*
X158830238Y-21534819D01*
X158830238Y-21534819D02*
X158830238Y-20534819D01*
X158830238Y-20534819D02*
X159306428Y-20534819D01*
X112496905Y-54954819D02*
X112496905Y-53954819D01*
X112496905Y-54431009D02*
X113068333Y-54431009D01*
X113068333Y-54954819D02*
X113068333Y-53954819D01*
X114068333Y-54954819D02*
X113496905Y-54954819D01*
X113782619Y-54954819D02*
X113782619Y-53954819D01*
X113782619Y-53954819D02*
X113687381Y-54097676D01*
X113687381Y-54097676D02*
X113592143Y-54192914D01*
X113592143Y-54192914D02*
X113496905Y-54240533D01*
X114449286Y-54050057D02*
X114496905Y-54002438D01*
X114496905Y-54002438D02*
X114592143Y-53954819D01*
X114592143Y-53954819D02*
X114830238Y-53954819D01*
X114830238Y-53954819D02*
X114925476Y-54002438D01*
X114925476Y-54002438D02*
X114973095Y-54050057D01*
X114973095Y-54050057D02*
X115020714Y-54145295D01*
X115020714Y-54145295D02*
X115020714Y-54240533D01*
X115020714Y-54240533D02*
X114973095Y-54383390D01*
X114973095Y-54383390D02*
X114401667Y-54954819D01*
X114401667Y-54954819D02*
X115020714Y-54954819D01*
X168430848Y-76407200D02*
X168573705Y-76454819D01*
X168573705Y-76454819D02*
X168811800Y-76454819D01*
X168811800Y-76454819D02*
X168907038Y-76407200D01*
X168907038Y-76407200D02*
X168954657Y-76359580D01*
X168954657Y-76359580D02*
X169002276Y-76264342D01*
X169002276Y-76264342D02*
X169002276Y-76169104D01*
X169002276Y-76169104D02*
X168954657Y-76073866D01*
X168954657Y-76073866D02*
X168907038Y-76026247D01*
X168907038Y-76026247D02*
X168811800Y-75978628D01*
X168811800Y-75978628D02*
X168621324Y-75931009D01*
X168621324Y-75931009D02*
X168526086Y-75883390D01*
X168526086Y-75883390D02*
X168478467Y-75835771D01*
X168478467Y-75835771D02*
X168430848Y-75740533D01*
X168430848Y-75740533D02*
X168430848Y-75645295D01*
X168430848Y-75645295D02*
X168478467Y-75550057D01*
X168478467Y-75550057D02*
X168526086Y-75502438D01*
X168526086Y-75502438D02*
X168621324Y-75454819D01*
X168621324Y-75454819D02*
X168859419Y-75454819D01*
X168859419Y-75454819D02*
X169002276Y-75502438D01*
X169335610Y-75454819D02*
X169573705Y-76454819D01*
X169573705Y-76454819D02*
X169764181Y-75740533D01*
X169764181Y-75740533D02*
X169954657Y-76454819D01*
X169954657Y-76454819D02*
X170192753Y-75454819D01*
X170621324Y-76454819D02*
X170811800Y-76454819D01*
X170811800Y-76454819D02*
X170907038Y-76407200D01*
X170907038Y-76407200D02*
X170954657Y-76359580D01*
X170954657Y-76359580D02*
X171049895Y-76216723D01*
X171049895Y-76216723D02*
X171097514Y-76026247D01*
X171097514Y-76026247D02*
X171097514Y-75645295D01*
X171097514Y-75645295D02*
X171049895Y-75550057D01*
X171049895Y-75550057D02*
X171002276Y-75502438D01*
X171002276Y-75502438D02*
X170907038Y-75454819D01*
X170907038Y-75454819D02*
X170716562Y-75454819D01*
X170716562Y-75454819D02*
X170621324Y-75502438D01*
X170621324Y-75502438D02*
X170573705Y-75550057D01*
X170573705Y-75550057D02*
X170526086Y-75645295D01*
X170526086Y-75645295D02*
X170526086Y-75883390D01*
X170526086Y-75883390D02*
X170573705Y-75978628D01*
X170573705Y-75978628D02*
X170621324Y-76026247D01*
X170621324Y-76026247D02*
X170716562Y-76073866D01*
X170716562Y-76073866D02*
X170907038Y-76073866D01*
X170907038Y-76073866D02*
X171002276Y-76026247D01*
X171002276Y-76026247D02*
X171049895Y-75978628D01*
X171049895Y-75978628D02*
X171097514Y-75883390D01*
X171287991Y-76550057D02*
X172049895Y-76550057D01*
X172287991Y-76454819D02*
X172287991Y-75454819D01*
X172287991Y-75931009D02*
X172859419Y-75931009D01*
X172859419Y-76454819D02*
X172859419Y-75454819D01*
X173335610Y-76454819D02*
X173335610Y-75454819D01*
X173907038Y-76454819D02*
X173478467Y-75883390D01*
X173907038Y-75454819D02*
X173335610Y-76026247D01*
X139383229Y-76407200D02*
X139526086Y-76454819D01*
X139526086Y-76454819D02*
X139764181Y-76454819D01*
X139764181Y-76454819D02*
X139859419Y-76407200D01*
X139859419Y-76407200D02*
X139907038Y-76359580D01*
X139907038Y-76359580D02*
X139954657Y-76264342D01*
X139954657Y-76264342D02*
X139954657Y-76169104D01*
X139954657Y-76169104D02*
X139907038Y-76073866D01*
X139907038Y-76073866D02*
X139859419Y-76026247D01*
X139859419Y-76026247D02*
X139764181Y-75978628D01*
X139764181Y-75978628D02*
X139573705Y-75931009D01*
X139573705Y-75931009D02*
X139478467Y-75883390D01*
X139478467Y-75883390D02*
X139430848Y-75835771D01*
X139430848Y-75835771D02*
X139383229Y-75740533D01*
X139383229Y-75740533D02*
X139383229Y-75645295D01*
X139383229Y-75645295D02*
X139430848Y-75550057D01*
X139430848Y-75550057D02*
X139478467Y-75502438D01*
X139478467Y-75502438D02*
X139573705Y-75454819D01*
X139573705Y-75454819D02*
X139811800Y-75454819D01*
X139811800Y-75454819D02*
X139954657Y-75502438D01*
X140287991Y-75454819D02*
X140526086Y-76454819D01*
X140526086Y-76454819D02*
X140716562Y-75740533D01*
X140716562Y-75740533D02*
X140907038Y-76454819D01*
X140907038Y-76454819D02*
X141145134Y-75454819D01*
X141430848Y-75454819D02*
X142049895Y-75454819D01*
X142049895Y-75454819D02*
X141716562Y-75835771D01*
X141716562Y-75835771D02*
X141859419Y-75835771D01*
X141859419Y-75835771D02*
X141954657Y-75883390D01*
X141954657Y-75883390D02*
X142002276Y-75931009D01*
X142002276Y-75931009D02*
X142049895Y-76026247D01*
X142049895Y-76026247D02*
X142049895Y-76264342D01*
X142049895Y-76264342D02*
X142002276Y-76359580D01*
X142002276Y-76359580D02*
X141954657Y-76407200D01*
X141954657Y-76407200D02*
X141859419Y-76454819D01*
X141859419Y-76454819D02*
X141573705Y-76454819D01*
X141573705Y-76454819D02*
X141478467Y-76407200D01*
X141478467Y-76407200D02*
X141430848Y-76359580D01*
X142240372Y-76550057D02*
X143002276Y-76550057D01*
X143240372Y-76454819D02*
X143240372Y-75454819D01*
X143240372Y-75454819D02*
X143573705Y-76169104D01*
X143573705Y-76169104D02*
X143907038Y-75454819D01*
X143907038Y-75454819D02*
X143907038Y-76454819D01*
X144383229Y-76454819D02*
X144383229Y-75454819D01*
X144954657Y-76454819D02*
X144526086Y-75883390D01*
X144954657Y-75454819D02*
X144383229Y-76026247D01*
X114549895Y-90407200D02*
X114692752Y-90454819D01*
X114692752Y-90454819D02*
X114930847Y-90454819D01*
X114930847Y-90454819D02*
X115026085Y-90407200D01*
X115026085Y-90407200D02*
X115073704Y-90359580D01*
X115073704Y-90359580D02*
X115121323Y-90264342D01*
X115121323Y-90264342D02*
X115121323Y-90169104D01*
X115121323Y-90169104D02*
X115073704Y-90073866D01*
X115073704Y-90073866D02*
X115026085Y-90026247D01*
X115026085Y-90026247D02*
X114930847Y-89978628D01*
X114930847Y-89978628D02*
X114740371Y-89931009D01*
X114740371Y-89931009D02*
X114645133Y-89883390D01*
X114645133Y-89883390D02*
X114597514Y-89835771D01*
X114597514Y-89835771D02*
X114549895Y-89740533D01*
X114549895Y-89740533D02*
X114549895Y-89645295D01*
X114549895Y-89645295D02*
X114597514Y-89550057D01*
X114597514Y-89550057D02*
X114645133Y-89502438D01*
X114645133Y-89502438D02*
X114740371Y-89454819D01*
X114740371Y-89454819D02*
X114978466Y-89454819D01*
X114978466Y-89454819D02*
X115121323Y-89502438D01*
X115454657Y-89454819D02*
X115692752Y-90454819D01*
X115692752Y-90454819D02*
X115883228Y-89740533D01*
X115883228Y-89740533D02*
X116073704Y-90454819D01*
X116073704Y-90454819D02*
X116311800Y-89454819D01*
X116645133Y-89550057D02*
X116692752Y-89502438D01*
X116692752Y-89502438D02*
X116787990Y-89454819D01*
X116787990Y-89454819D02*
X117026085Y-89454819D01*
X117026085Y-89454819D02*
X117121323Y-89502438D01*
X117121323Y-89502438D02*
X117168942Y-89550057D01*
X117168942Y-89550057D02*
X117216561Y-89645295D01*
X117216561Y-89645295D02*
X117216561Y-89740533D01*
X117216561Y-89740533D02*
X117168942Y-89883390D01*
X117168942Y-89883390D02*
X116597514Y-90454819D01*
X116597514Y-90454819D02*
X117216561Y-90454819D01*
X117407038Y-90550057D02*
X118168942Y-90550057D01*
X118883228Y-90454819D02*
X118407038Y-90454819D01*
X118407038Y-90454819D02*
X118407038Y-89454819D01*
X119216562Y-90454819D02*
X119216562Y-89454819D01*
X119787990Y-90454819D02*
X119359419Y-89883390D01*
X119787990Y-89454819D02*
X119216562Y-90026247D01*
X187996905Y-88754819D02*
X187996905Y-87754819D01*
X187996905Y-88231009D02*
X188568333Y-88231009D01*
X188568333Y-88754819D02*
X188568333Y-87754819D01*
X189568333Y-88754819D02*
X188996905Y-88754819D01*
X189282619Y-88754819D02*
X189282619Y-87754819D01*
X189282619Y-87754819D02*
X189187381Y-87897676D01*
X189187381Y-87897676D02*
X189092143Y-87992914D01*
X189092143Y-87992914D02*
X188996905Y-88040533D01*
X190520714Y-88754819D02*
X189949286Y-88754819D01*
X190235000Y-88754819D02*
X190235000Y-87754819D01*
X190235000Y-87754819D02*
X190139762Y-87897676D01*
X190139762Y-87897676D02*
X190044524Y-87992914D01*
X190044524Y-87992914D02*
X189949286Y-88040533D01*
X137973095Y-69954819D02*
X137973095Y-68954819D01*
X137973095Y-69431009D02*
X138544523Y-69431009D01*
X138544523Y-69954819D02*
X138544523Y-68954819D01*
X139163571Y-69383390D02*
X139068333Y-69335771D01*
X139068333Y-69335771D02*
X139020714Y-69288152D01*
X139020714Y-69288152D02*
X138973095Y-69192914D01*
X138973095Y-69192914D02*
X138973095Y-69145295D01*
X138973095Y-69145295D02*
X139020714Y-69050057D01*
X139020714Y-69050057D02*
X139068333Y-69002438D01*
X139068333Y-69002438D02*
X139163571Y-68954819D01*
X139163571Y-68954819D02*
X139354047Y-68954819D01*
X139354047Y-68954819D02*
X139449285Y-69002438D01*
X139449285Y-69002438D02*
X139496904Y-69050057D01*
X139496904Y-69050057D02*
X139544523Y-69145295D01*
X139544523Y-69145295D02*
X139544523Y-69192914D01*
X139544523Y-69192914D02*
X139496904Y-69288152D01*
X139496904Y-69288152D02*
X139449285Y-69335771D01*
X139449285Y-69335771D02*
X139354047Y-69383390D01*
X139354047Y-69383390D02*
X139163571Y-69383390D01*
X139163571Y-69383390D02*
X139068333Y-69431009D01*
X139068333Y-69431009D02*
X139020714Y-69478628D01*
X139020714Y-69478628D02*
X138973095Y-69573866D01*
X138973095Y-69573866D02*
X138973095Y-69764342D01*
X138973095Y-69764342D02*
X139020714Y-69859580D01*
X139020714Y-69859580D02*
X139068333Y-69907200D01*
X139068333Y-69907200D02*
X139163571Y-69954819D01*
X139163571Y-69954819D02*
X139354047Y-69954819D01*
X139354047Y-69954819D02*
X139449285Y-69907200D01*
X139449285Y-69907200D02*
X139496904Y-69859580D01*
X139496904Y-69859580D02*
X139544523Y-69764342D01*
X139544523Y-69764342D02*
X139544523Y-69573866D01*
X139544523Y-69573866D02*
X139496904Y-69478628D01*
X139496904Y-69478628D02*
X139449285Y-69431009D01*
X139449285Y-69431009D02*
X139354047Y-69383390D01*
X139383229Y-47407200D02*
X139526086Y-47454819D01*
X139526086Y-47454819D02*
X139764181Y-47454819D01*
X139764181Y-47454819D02*
X139859419Y-47407200D01*
X139859419Y-47407200D02*
X139907038Y-47359580D01*
X139907038Y-47359580D02*
X139954657Y-47264342D01*
X139954657Y-47264342D02*
X139954657Y-47169104D01*
X139954657Y-47169104D02*
X139907038Y-47073866D01*
X139907038Y-47073866D02*
X139859419Y-47026247D01*
X139859419Y-47026247D02*
X139764181Y-46978628D01*
X139764181Y-46978628D02*
X139573705Y-46931009D01*
X139573705Y-46931009D02*
X139478467Y-46883390D01*
X139478467Y-46883390D02*
X139430848Y-46835771D01*
X139430848Y-46835771D02*
X139383229Y-46740533D01*
X139383229Y-46740533D02*
X139383229Y-46645295D01*
X139383229Y-46645295D02*
X139430848Y-46550057D01*
X139430848Y-46550057D02*
X139478467Y-46502438D01*
X139478467Y-46502438D02*
X139573705Y-46454819D01*
X139573705Y-46454819D02*
X139811800Y-46454819D01*
X139811800Y-46454819D02*
X139954657Y-46502438D01*
X140287991Y-46454819D02*
X140526086Y-47454819D01*
X140526086Y-47454819D02*
X140716562Y-46740533D01*
X140716562Y-46740533D02*
X140907038Y-47454819D01*
X140907038Y-47454819D02*
X141145134Y-46454819D01*
X142002276Y-46454819D02*
X141526086Y-46454819D01*
X141526086Y-46454819D02*
X141478467Y-46931009D01*
X141478467Y-46931009D02*
X141526086Y-46883390D01*
X141526086Y-46883390D02*
X141621324Y-46835771D01*
X141621324Y-46835771D02*
X141859419Y-46835771D01*
X141859419Y-46835771D02*
X141954657Y-46883390D01*
X141954657Y-46883390D02*
X142002276Y-46931009D01*
X142002276Y-46931009D02*
X142049895Y-47026247D01*
X142049895Y-47026247D02*
X142049895Y-47264342D01*
X142049895Y-47264342D02*
X142002276Y-47359580D01*
X142002276Y-47359580D02*
X141954657Y-47407200D01*
X141954657Y-47407200D02*
X141859419Y-47454819D01*
X141859419Y-47454819D02*
X141621324Y-47454819D01*
X141621324Y-47454819D02*
X141526086Y-47407200D01*
X141526086Y-47407200D02*
X141478467Y-47359580D01*
X142240372Y-47550057D02*
X143002276Y-47550057D01*
X143240372Y-47454819D02*
X143240372Y-46454819D01*
X143240372Y-46454819D02*
X143573705Y-47169104D01*
X143573705Y-47169104D02*
X143907038Y-46454819D01*
X143907038Y-46454819D02*
X143907038Y-47454819D01*
X144383229Y-47454819D02*
X144383229Y-46454819D01*
X144383229Y-46454819D02*
X144764181Y-46454819D01*
X144764181Y-46454819D02*
X144859419Y-46502438D01*
X144859419Y-46502438D02*
X144907038Y-46550057D01*
X144907038Y-46550057D02*
X144954657Y-46645295D01*
X144954657Y-46645295D02*
X144954657Y-46788152D01*
X144954657Y-46788152D02*
X144907038Y-46883390D01*
X144907038Y-46883390D02*
X144859419Y-46931009D01*
X144859419Y-46931009D02*
X144764181Y-46978628D01*
X144764181Y-46978628D02*
X144383229Y-46978628D01*
X167068333Y-21487200D02*
X167211190Y-21534819D01*
X167211190Y-21534819D02*
X167449285Y-21534819D01*
X167449285Y-21534819D02*
X167544523Y-21487200D01*
X167544523Y-21487200D02*
X167592142Y-21439580D01*
X167592142Y-21439580D02*
X167639761Y-21344342D01*
X167639761Y-21344342D02*
X167639761Y-21249104D01*
X167639761Y-21249104D02*
X167592142Y-21153866D01*
X167592142Y-21153866D02*
X167544523Y-21106247D01*
X167544523Y-21106247D02*
X167449285Y-21058628D01*
X167449285Y-21058628D02*
X167258809Y-21011009D01*
X167258809Y-21011009D02*
X167163571Y-20963390D01*
X167163571Y-20963390D02*
X167115952Y-20915771D01*
X167115952Y-20915771D02*
X167068333Y-20820533D01*
X167068333Y-20820533D02*
X167068333Y-20725295D01*
X167068333Y-20725295D02*
X167115952Y-20630057D01*
X167115952Y-20630057D02*
X167163571Y-20582438D01*
X167163571Y-20582438D02*
X167258809Y-20534819D01*
X167258809Y-20534819D02*
X167496904Y-20534819D01*
X167496904Y-20534819D02*
X167639761Y-20582438D01*
X167973095Y-20534819D02*
X168211190Y-21534819D01*
X168211190Y-21534819D02*
X168401666Y-20820533D01*
X168401666Y-20820533D02*
X168592142Y-21534819D01*
X168592142Y-21534819D02*
X168830238Y-20534819D01*
X169734999Y-21534819D02*
X169163571Y-21534819D01*
X169449285Y-21534819D02*
X169449285Y-20534819D01*
X169449285Y-20534819D02*
X169354047Y-20677676D01*
X169354047Y-20677676D02*
X169258809Y-20772914D01*
X169258809Y-20772914D02*
X169163571Y-20820533D01*
X170592142Y-20868152D02*
X170592142Y-21534819D01*
X170354047Y-20487200D02*
X170115952Y-21201485D01*
X170115952Y-21201485D02*
X170734999Y-21201485D01*
X170877857Y-21630057D02*
X171639761Y-21630057D01*
X171877857Y-21534819D02*
X171877857Y-20534819D01*
X171877857Y-20534819D02*
X172258809Y-20534819D01*
X172258809Y-20534819D02*
X172354047Y-20582438D01*
X172354047Y-20582438D02*
X172401666Y-20630057D01*
X172401666Y-20630057D02*
X172449285Y-20725295D01*
X172449285Y-20725295D02*
X172449285Y-20868152D01*
X172449285Y-20868152D02*
X172401666Y-20963390D01*
X172401666Y-20963390D02*
X172354047Y-21011009D01*
X172354047Y-21011009D02*
X172258809Y-21058628D01*
X172258809Y-21058628D02*
X171877857Y-21058628D01*
X172830238Y-21487200D02*
X172973095Y-21534819D01*
X172973095Y-21534819D02*
X173211190Y-21534819D01*
X173211190Y-21534819D02*
X173306428Y-21487200D01*
X173306428Y-21487200D02*
X173354047Y-21439580D01*
X173354047Y-21439580D02*
X173401666Y-21344342D01*
X173401666Y-21344342D02*
X173401666Y-21249104D01*
X173401666Y-21249104D02*
X173354047Y-21153866D01*
X173354047Y-21153866D02*
X173306428Y-21106247D01*
X173306428Y-21106247D02*
X173211190Y-21058628D01*
X173211190Y-21058628D02*
X173020714Y-21011009D01*
X173020714Y-21011009D02*
X172925476Y-20963390D01*
X172925476Y-20963390D02*
X172877857Y-20915771D01*
X172877857Y-20915771D02*
X172830238Y-20820533D01*
X172830238Y-20820533D02*
X172830238Y-20725295D01*
X172830238Y-20725295D02*
X172877857Y-20630057D01*
X172877857Y-20630057D02*
X172925476Y-20582438D01*
X172925476Y-20582438D02*
X173020714Y-20534819D01*
X173020714Y-20534819D02*
X173258809Y-20534819D01*
X173258809Y-20534819D02*
X173401666Y-20582438D01*
X114896876Y-32407761D02*
X115039733Y-32455380D01*
X115039733Y-32455380D02*
X115277828Y-32455380D01*
X115277828Y-32455380D02*
X115373066Y-32407761D01*
X115373066Y-32407761D02*
X115420685Y-32360141D01*
X115420685Y-32360141D02*
X115468304Y-32264903D01*
X115468304Y-32264903D02*
X115468304Y-32169665D01*
X115468304Y-32169665D02*
X115420685Y-32074427D01*
X115420685Y-32074427D02*
X115373066Y-32026808D01*
X115373066Y-32026808D02*
X115277828Y-31979189D01*
X115277828Y-31979189D02*
X115087352Y-31931570D01*
X115087352Y-31931570D02*
X114992114Y-31883951D01*
X114992114Y-31883951D02*
X114944495Y-31836332D01*
X114944495Y-31836332D02*
X114896876Y-31741094D01*
X114896876Y-31741094D02*
X114896876Y-31645856D01*
X114896876Y-31645856D02*
X114944495Y-31550618D01*
X114944495Y-31550618D02*
X114992114Y-31502999D01*
X114992114Y-31502999D02*
X115087352Y-31455380D01*
X115087352Y-31455380D02*
X115325447Y-31455380D01*
X115325447Y-31455380D02*
X115468304Y-31502999D01*
X115801638Y-31455380D02*
X116039733Y-32455380D01*
X116039733Y-32455380D02*
X116230209Y-31741094D01*
X116230209Y-31741094D02*
X116420685Y-32455380D01*
X116420685Y-32455380D02*
X116658781Y-31455380D01*
X117468304Y-31455380D02*
X117277828Y-31455380D01*
X117277828Y-31455380D02*
X117182590Y-31502999D01*
X117182590Y-31502999D02*
X117134971Y-31550618D01*
X117134971Y-31550618D02*
X117039733Y-31693475D01*
X117039733Y-31693475D02*
X116992114Y-31883951D01*
X116992114Y-31883951D02*
X116992114Y-32264903D01*
X116992114Y-32264903D02*
X117039733Y-32360141D01*
X117039733Y-32360141D02*
X117087352Y-32407761D01*
X117087352Y-32407761D02*
X117182590Y-32455380D01*
X117182590Y-32455380D02*
X117373066Y-32455380D01*
X117373066Y-32455380D02*
X117468304Y-32407761D01*
X117468304Y-32407761D02*
X117515923Y-32360141D01*
X117515923Y-32360141D02*
X117563542Y-32264903D01*
X117563542Y-32264903D02*
X117563542Y-32026808D01*
X117563542Y-32026808D02*
X117515923Y-31931570D01*
X117515923Y-31931570D02*
X117468304Y-31883951D01*
X117468304Y-31883951D02*
X117373066Y-31836332D01*
X117373066Y-31836332D02*
X117182590Y-31836332D01*
X117182590Y-31836332D02*
X117087352Y-31883951D01*
X117087352Y-31883951D02*
X117039733Y-31931570D01*
X117039733Y-31931570D02*
X116992114Y-32026808D01*
X117754019Y-32550618D02*
X118515923Y-32550618D01*
X118754019Y-32455380D02*
X118754019Y-31455380D01*
X118754019Y-31455380D02*
X118992114Y-31455380D01*
X118992114Y-31455380D02*
X119134971Y-31502999D01*
X119134971Y-31502999D02*
X119230209Y-31598237D01*
X119230209Y-31598237D02*
X119277828Y-31693475D01*
X119277828Y-31693475D02*
X119325447Y-31883951D01*
X119325447Y-31883951D02*
X119325447Y-32026808D01*
X119325447Y-32026808D02*
X119277828Y-32217284D01*
X119277828Y-32217284D02*
X119230209Y-32312522D01*
X119230209Y-32312522D02*
X119134971Y-32407761D01*
X119134971Y-32407761D02*
X118992114Y-32455380D01*
X118992114Y-32455380D02*
X118754019Y-32455380D01*
X119754019Y-32455380D02*
X119754019Y-31455380D01*
X188996905Y-47954819D02*
X188996905Y-46954819D01*
X188996905Y-47431009D02*
X189568333Y-47431009D01*
X189568333Y-47954819D02*
X189568333Y-46954819D01*
X190568333Y-47954819D02*
X189996905Y-47954819D01*
X190282619Y-47954819D02*
X190282619Y-46954819D01*
X190282619Y-46954819D02*
X190187381Y-47097676D01*
X190187381Y-47097676D02*
X190092143Y-47192914D01*
X190092143Y-47192914D02*
X189996905Y-47240533D01*
X191187381Y-46954819D02*
X191282619Y-46954819D01*
X191282619Y-46954819D02*
X191377857Y-47002438D01*
X191377857Y-47002438D02*
X191425476Y-47050057D01*
X191425476Y-47050057D02*
X191473095Y-47145295D01*
X191473095Y-47145295D02*
X191520714Y-47335771D01*
X191520714Y-47335771D02*
X191520714Y-47573866D01*
X191520714Y-47573866D02*
X191473095Y-47764342D01*
X191473095Y-47764342D02*
X191425476Y-47859580D01*
X191425476Y-47859580D02*
X191377857Y-47907200D01*
X191377857Y-47907200D02*
X191282619Y-47954819D01*
X191282619Y-47954819D02*
X191187381Y-47954819D01*
X191187381Y-47954819D02*
X191092143Y-47907200D01*
X191092143Y-47907200D02*
X191044524Y-47859580D01*
X191044524Y-47859580D02*
X190996905Y-47764342D01*
X190996905Y-47764342D02*
X190949286Y-47573866D01*
X190949286Y-47573866D02*
X190949286Y-47335771D01*
X190949286Y-47335771D02*
X190996905Y-47145295D01*
X190996905Y-47145295D02*
X191044524Y-47050057D01*
X191044524Y-47050057D02*
X191092143Y-47002438D01*
X191092143Y-47002438D02*
X191187381Y-46954819D01*
X168430848Y-47407200D02*
X168573705Y-47454819D01*
X168573705Y-47454819D02*
X168811800Y-47454819D01*
X168811800Y-47454819D02*
X168907038Y-47407200D01*
X168907038Y-47407200D02*
X168954657Y-47359580D01*
X168954657Y-47359580D02*
X169002276Y-47264342D01*
X169002276Y-47264342D02*
X169002276Y-47169104D01*
X169002276Y-47169104D02*
X168954657Y-47073866D01*
X168954657Y-47073866D02*
X168907038Y-47026247D01*
X168907038Y-47026247D02*
X168811800Y-46978628D01*
X168811800Y-46978628D02*
X168621324Y-46931009D01*
X168621324Y-46931009D02*
X168526086Y-46883390D01*
X168526086Y-46883390D02*
X168478467Y-46835771D01*
X168478467Y-46835771D02*
X168430848Y-46740533D01*
X168430848Y-46740533D02*
X168430848Y-46645295D01*
X168430848Y-46645295D02*
X168478467Y-46550057D01*
X168478467Y-46550057D02*
X168526086Y-46502438D01*
X168526086Y-46502438D02*
X168621324Y-46454819D01*
X168621324Y-46454819D02*
X168859419Y-46454819D01*
X168859419Y-46454819D02*
X169002276Y-46502438D01*
X169335610Y-46454819D02*
X169573705Y-47454819D01*
X169573705Y-47454819D02*
X169764181Y-46740533D01*
X169764181Y-46740533D02*
X169954657Y-47454819D01*
X169954657Y-47454819D02*
X170192753Y-46454819D01*
X170478467Y-46454819D02*
X171145133Y-46454819D01*
X171145133Y-46454819D02*
X170716562Y-47454819D01*
X171287991Y-47550057D02*
X172049895Y-47550057D01*
X172287991Y-47454819D02*
X172287991Y-46454819D01*
X172287991Y-46931009D02*
X172859419Y-46931009D01*
X172859419Y-47454819D02*
X172859419Y-46454819D01*
X173335610Y-47454819D02*
X173335610Y-46454819D01*
X173335610Y-46454819D02*
X173716562Y-46454819D01*
X173716562Y-46454819D02*
X173811800Y-46502438D01*
X173811800Y-46502438D02*
X173859419Y-46550057D01*
X173859419Y-46550057D02*
X173907038Y-46645295D01*
X173907038Y-46645295D02*
X173907038Y-46788152D01*
X173907038Y-46788152D02*
X173859419Y-46883390D01*
X173859419Y-46883390D02*
X173811800Y-46931009D01*
X173811800Y-46931009D02*
X173716562Y-46978628D01*
X173716562Y-46978628D02*
X173335610Y-46978628D01*
X106473095Y-29454819D02*
X106473095Y-28454819D01*
X106473095Y-28931009D02*
X107044523Y-28931009D01*
X107044523Y-29454819D02*
X107044523Y-28454819D01*
X107568333Y-29454819D02*
X107758809Y-29454819D01*
X107758809Y-29454819D02*
X107854047Y-29407200D01*
X107854047Y-29407200D02*
X107901666Y-29359580D01*
X107901666Y-29359580D02*
X107996904Y-29216723D01*
X107996904Y-29216723D02*
X108044523Y-29026247D01*
X108044523Y-29026247D02*
X108044523Y-28645295D01*
X108044523Y-28645295D02*
X107996904Y-28550057D01*
X107996904Y-28550057D02*
X107949285Y-28502438D01*
X107949285Y-28502438D02*
X107854047Y-28454819D01*
X107854047Y-28454819D02*
X107663571Y-28454819D01*
X107663571Y-28454819D02*
X107568333Y-28502438D01*
X107568333Y-28502438D02*
X107520714Y-28550057D01*
X107520714Y-28550057D02*
X107473095Y-28645295D01*
X107473095Y-28645295D02*
X107473095Y-28883390D01*
X107473095Y-28883390D02*
X107520714Y-28978628D01*
X107520714Y-28978628D02*
X107568333Y-29026247D01*
X107568333Y-29026247D02*
X107663571Y-29073866D01*
X107663571Y-29073866D02*
X107854047Y-29073866D01*
X107854047Y-29073866D02*
X107949285Y-29026247D01*
X107949285Y-29026247D02*
X107996904Y-28978628D01*
X107996904Y-28978628D02*
X108044523Y-28883390D01*
X134877857Y-21487200D02*
X135020714Y-21534819D01*
X135020714Y-21534819D02*
X135258809Y-21534819D01*
X135258809Y-21534819D02*
X135354047Y-21487200D01*
X135354047Y-21487200D02*
X135401666Y-21439580D01*
X135401666Y-21439580D02*
X135449285Y-21344342D01*
X135449285Y-21344342D02*
X135449285Y-21249104D01*
X135449285Y-21249104D02*
X135401666Y-21153866D01*
X135401666Y-21153866D02*
X135354047Y-21106247D01*
X135354047Y-21106247D02*
X135258809Y-21058628D01*
X135258809Y-21058628D02*
X135068333Y-21011009D01*
X135068333Y-21011009D02*
X134973095Y-20963390D01*
X134973095Y-20963390D02*
X134925476Y-20915771D01*
X134925476Y-20915771D02*
X134877857Y-20820533D01*
X134877857Y-20820533D02*
X134877857Y-20725295D01*
X134877857Y-20725295D02*
X134925476Y-20630057D01*
X134925476Y-20630057D02*
X134973095Y-20582438D01*
X134973095Y-20582438D02*
X135068333Y-20534819D01*
X135068333Y-20534819D02*
X135306428Y-20534819D01*
X135306428Y-20534819D02*
X135449285Y-20582438D01*
X135782619Y-20534819D02*
X136020714Y-21534819D01*
X136020714Y-21534819D02*
X136211190Y-20820533D01*
X136211190Y-20820533D02*
X136401666Y-21534819D01*
X136401666Y-21534819D02*
X136639762Y-20534819D01*
X137544523Y-21534819D02*
X136973095Y-21534819D01*
X137258809Y-21534819D02*
X137258809Y-20534819D01*
X137258809Y-20534819D02*
X137163571Y-20677676D01*
X137163571Y-20677676D02*
X137068333Y-20772914D01*
X137068333Y-20772914D02*
X136973095Y-20820533D01*
X138496904Y-21534819D02*
X137925476Y-21534819D01*
X138211190Y-21534819D02*
X138211190Y-20534819D01*
X138211190Y-20534819D02*
X138115952Y-20677676D01*
X138115952Y-20677676D02*
X138020714Y-20772914D01*
X138020714Y-20772914D02*
X137925476Y-20820533D01*
X138687381Y-21630057D02*
X139449285Y-21630057D01*
X139639762Y-21487200D02*
X139782619Y-21534819D01*
X139782619Y-21534819D02*
X140020714Y-21534819D01*
X140020714Y-21534819D02*
X140115952Y-21487200D01*
X140115952Y-21487200D02*
X140163571Y-21439580D01*
X140163571Y-21439580D02*
X140211190Y-21344342D01*
X140211190Y-21344342D02*
X140211190Y-21249104D01*
X140211190Y-21249104D02*
X140163571Y-21153866D01*
X140163571Y-21153866D02*
X140115952Y-21106247D01*
X140115952Y-21106247D02*
X140020714Y-21058628D01*
X140020714Y-21058628D02*
X139830238Y-21011009D01*
X139830238Y-21011009D02*
X139735000Y-20963390D01*
X139735000Y-20963390D02*
X139687381Y-20915771D01*
X139687381Y-20915771D02*
X139639762Y-20820533D01*
X139639762Y-20820533D02*
X139639762Y-20725295D01*
X139639762Y-20725295D02*
X139687381Y-20630057D01*
X139687381Y-20630057D02*
X139735000Y-20582438D01*
X139735000Y-20582438D02*
X139830238Y-20534819D01*
X139830238Y-20534819D02*
X140068333Y-20534819D01*
X140068333Y-20534819D02*
X140211190Y-20582438D01*
X140496905Y-20534819D02*
X141068333Y-20534819D01*
X140782619Y-21534819D02*
X140782619Y-20534819D01*
X141354048Y-21249104D02*
X141830238Y-21249104D01*
X141258810Y-21534819D02*
X141592143Y-20534819D01*
X141592143Y-20534819D02*
X141925476Y-21534819D01*
X142830238Y-21534819D02*
X142496905Y-21058628D01*
X142258810Y-21534819D02*
X142258810Y-20534819D01*
X142258810Y-20534819D02*
X142639762Y-20534819D01*
X142639762Y-20534819D02*
X142735000Y-20582438D01*
X142735000Y-20582438D02*
X142782619Y-20630057D01*
X142782619Y-20630057D02*
X142830238Y-20725295D01*
X142830238Y-20725295D02*
X142830238Y-20868152D01*
X142830238Y-20868152D02*
X142782619Y-20963390D01*
X142782619Y-20963390D02*
X142735000Y-21011009D01*
X142735000Y-21011009D02*
X142639762Y-21058628D01*
X142639762Y-21058628D02*
X142258810Y-21058628D01*
X143115953Y-20534819D02*
X143687381Y-20534819D01*
X143401667Y-21534819D02*
X143401667Y-20534819D01*
D11*
%TO.C,SW4_LP*%
X110068943Y-61900000D02*
X110068943Y-76100000D01*
X110068943Y-76100000D02*
X124268943Y-76100000D01*
X124268943Y-61900000D02*
X110068943Y-61900000D01*
X124268943Y-76100000D02*
X124268943Y-61900000D01*
%TO.C,SW15_TOUCHPAD*%
X178635000Y-21980000D02*
X178635000Y-36180000D01*
X178635000Y-36180000D02*
X192835000Y-36180000D01*
X192835000Y-21980000D02*
X178635000Y-21980000D01*
X192835000Y-36180000D02*
X192835000Y-21980000D01*
%TO.C,JP15*%
X102397500Y-87500000D02*
X102997500Y-87500000D01*
X102397500Y-89500000D02*
X102397500Y-87500000D01*
X102997500Y-89500000D02*
X102397500Y-89500000D01*
X103697500Y-88200000D02*
X103697500Y-88800000D01*
X102997500Y-87500000D02*
G75*
G02*
X103697500Y-88200000I0J-700000D01*
G01*
X103697500Y-88800000D02*
G75*
G02*
X102997500Y-89500000I-700000J0D01*
G01*
%TO.C,JP18*%
X102397500Y-106500000D02*
X102997500Y-106500000D01*
X102397500Y-108500000D02*
X102397500Y-106500000D01*
X102997500Y-108500000D02*
X102397500Y-108500000D01*
X103697500Y-107200000D02*
X103697500Y-107800000D01*
X102997500Y-106500000D02*
G75*
G02*
X103697500Y-107200000I0J-700000D01*
G01*
X103697500Y-107800000D02*
G75*
G02*
X102997500Y-108500000I-700000J0D01*
G01*
%TO.C,SW10_SHARE*%
X147635000Y-21980000D02*
X147635000Y-36180000D01*
X147635000Y-36180000D02*
X161835000Y-36180000D01*
X161835000Y-21980000D02*
X147635000Y-21980000D01*
X161835000Y-36180000D02*
X161835000Y-21980000D01*
%TO.C,JP20*%
X102397500Y-100500000D02*
X102997500Y-100500000D01*
X102397500Y-102500000D02*
X102397500Y-100500000D01*
X102997500Y-102500000D02*
X102397500Y-102500000D01*
X103697500Y-101200000D02*
X103697500Y-101800000D01*
X102997500Y-100500000D02*
G75*
G02*
X103697500Y-101200000I0J-700000D01*
G01*
X103697500Y-101800000D02*
G75*
G02*
X102997500Y-102500000I-700000J0D01*
G01*
%TO.C,JP19*%
X102397500Y-103500000D02*
X102997500Y-103500000D01*
X102397500Y-105500000D02*
X102397500Y-103500000D01*
X102997500Y-105500000D02*
X102397500Y-105500000D01*
X103697500Y-104200000D02*
X103697500Y-104800000D01*
X102997500Y-103500000D02*
G75*
G02*
X103697500Y-104200000I0J-700000D01*
G01*
X103697500Y-104800000D02*
G75*
G02*
X102997500Y-105500000I-700000J0D01*
G01*
%TO.C,JP21*%
X102397500Y-65500000D02*
X102997500Y-65500000D01*
X102397500Y-67500000D02*
X102397500Y-65500000D01*
X102997500Y-67500000D02*
X102397500Y-67500000D01*
X103697500Y-66200000D02*
X103697500Y-66800000D01*
X102997500Y-65500000D02*
G75*
G02*
X103697500Y-66200000I0J-700000D01*
G01*
X103697500Y-66800000D02*
G75*
G02*
X102997500Y-67500000I-700000J0D01*
G01*
%TO.C,SW9_HK*%
X164068943Y-76900000D02*
X164068943Y-91100000D01*
X164068943Y-91100000D02*
X178268943Y-91100000D01*
X178268943Y-76900000D02*
X164068943Y-76900000D01*
X178268943Y-91100000D02*
X178268943Y-76900000D01*
%TO.C,JP26*%
X102397500Y-97500000D02*
X102997500Y-97500000D01*
X102397500Y-99500000D02*
X102397500Y-97500000D01*
X102997500Y-99500000D02*
X102397500Y-99500000D01*
X103697500Y-98200000D02*
X103697500Y-98800000D01*
X102997500Y-97500000D02*
G75*
G02*
X103697500Y-98200000I0J-700000D01*
G01*
X103697500Y-98800000D02*
G75*
G02*
X102997500Y-99500000I-700000J0D01*
G01*
%TO.C,JP17*%
X102397500Y-91500000D02*
X102997500Y-91500000D01*
X102397500Y-93500000D02*
X102397500Y-91500000D01*
X102997500Y-93500000D02*
X102397500Y-93500000D01*
X103697500Y-92200000D02*
X103697500Y-92800000D01*
X102997500Y-91500000D02*
G75*
G02*
X103697500Y-92200000I0J-700000D01*
G01*
X103697500Y-92800000D02*
G75*
G02*
X102997500Y-93500000I-700000J0D01*
G01*
%TO.C,SW3_MK*%
X135068943Y-76900000D02*
X135068943Y-91100000D01*
X135068943Y-91100000D02*
X149268943Y-91100000D01*
X149268943Y-76900000D02*
X135068943Y-76900000D01*
X149268943Y-91100000D02*
X149268943Y-76900000D01*
%TO.C,JP22*%
X102397500Y-68500000D02*
X102997500Y-68500000D01*
X102397500Y-70500000D02*
X102397500Y-68500000D01*
X102997500Y-70500000D02*
X102397500Y-70500000D01*
X103697500Y-69200000D02*
X103697500Y-69800000D01*
X102997500Y-68500000D02*
G75*
G02*
X103697500Y-69200000I0J-700000D01*
G01*
X103697500Y-69800000D02*
G75*
G02*
X102997500Y-70500000I-700000J0D01*
G01*
%TO.C,JP24*%
X102397500Y-84500000D02*
X102997500Y-84500000D01*
X102397500Y-86500000D02*
X102397500Y-84500000D01*
X102997500Y-86500000D02*
X102397500Y-86500000D01*
X103697500Y-85200000D02*
X103697500Y-85800000D01*
X102997500Y-84500000D02*
G75*
G02*
X103697500Y-85200000I0J-700000D01*
G01*
X103697500Y-85800000D02*
G75*
G02*
X102997500Y-86500000I-700000J0D01*
G01*
%TO.C,SW2_LK*%
X110068943Y-90900000D02*
X110068943Y-105100000D01*
X110068943Y-105100000D02*
X124268943Y-105100000D01*
X124268943Y-90900000D02*
X110068943Y-90900000D01*
X124268943Y-105100000D02*
X124268943Y-90900000D01*
%TO.C,SW5_MP*%
X135068943Y-47900000D02*
X135068943Y-62100000D01*
X135068943Y-62100000D02*
X149268943Y-62100000D01*
X149268943Y-47900000D02*
X135068943Y-47900000D01*
X149268943Y-62100000D02*
X149268943Y-47900000D01*
%TO.C,SW14_PS*%
X163135000Y-21980000D02*
X163135000Y-36180000D01*
X163135000Y-36180000D02*
X177335000Y-36180000D01*
X177335000Y-21980000D02*
X163135000Y-21980000D01*
X177335000Y-36180000D02*
X177335000Y-21980000D01*
%TO.C,SW6_DI*%
X110249257Y-32900561D02*
X110249257Y-47100561D01*
X110249257Y-47100561D02*
X124449257Y-47100561D01*
X124449257Y-32900561D02*
X110249257Y-32900561D01*
X124449257Y-47100561D02*
X124449257Y-32900561D01*
%TO.C,JP27*%
X102397500Y-94500000D02*
X102997500Y-94500000D01*
X102397500Y-96500000D02*
X102397500Y-94500000D01*
X102997500Y-96500000D02*
X102397500Y-96500000D01*
X103697500Y-95200000D02*
X103697500Y-95800000D01*
X102997500Y-94500000D02*
G75*
G02*
X103697500Y-95200000I0J-700000D01*
G01*
X103697500Y-95800000D02*
G75*
G02*
X102997500Y-96500000I-700000J0D01*
G01*
%TO.C,SW7_HP*%
X164068943Y-47900000D02*
X164068943Y-62100000D01*
X164068943Y-62100000D02*
X178268943Y-62100000D01*
X178268943Y-47900000D02*
X164068943Y-47900000D01*
X178268943Y-62100000D02*
X178268943Y-47900000D01*
%TO.C,JP25*%
X102397500Y-62500000D02*
X102997500Y-62500000D01*
X102397500Y-64500000D02*
X102397500Y-62500000D01*
X102997500Y-64500000D02*
X102397500Y-64500000D01*
X103697500Y-63200000D02*
X103697500Y-63800000D01*
X102997500Y-62500000D02*
G75*
G02*
X103697500Y-63200000I0J-700000D01*
G01*
X103697500Y-63800000D02*
G75*
G02*
X102997500Y-64500000I-700000J0D01*
G01*
%TO.C,JP23*%
X102397500Y-81500000D02*
X102997500Y-81500000D01*
X102397500Y-83500000D02*
X102397500Y-81500000D01*
X102997500Y-83500000D02*
X102397500Y-83500000D01*
X103697500Y-82200000D02*
X103697500Y-82800000D01*
X102997500Y-81500000D02*
G75*
G02*
X103697500Y-82200000I0J-700000D01*
G01*
X103697500Y-82800000D02*
G75*
G02*
X102997500Y-83500000I-700000J0D01*
G01*
%TO.C,SW11_START*%
X132135000Y-21980000D02*
X132135000Y-36180000D01*
X132135000Y-36180000D02*
X146335000Y-36180000D01*
X146335000Y-21980000D02*
X132135000Y-21980000D01*
X146335000Y-36180000D02*
X146335000Y-21980000D01*
%TD*%
%LPC*%
D12*
%TO.C,SW4_LP*%
X112088943Y-69000000D03*
D13*
X113358943Y-66460000D03*
D14*
X117168943Y-69000000D03*
D13*
X119708943Y-63920000D03*
D12*
X122248943Y-69000000D03*
%TD*%
%TO.C,SW15_TOUCHPAD*%
X180655000Y-29080000D03*
D14*
X185735000Y-29080000D03*
D12*
X190815000Y-29080000D03*
D15*
X181925000Y-26540000D03*
X188275000Y-24000000D03*
%TD*%
D16*
%TO.C,JP15*%
X102947500Y-88500000D03*
%TD*%
%TO.C,JP18*%
X102947500Y-107500000D03*
%TD*%
D12*
%TO.C,SW10_SHARE*%
X149655000Y-29080000D03*
D14*
X154735000Y-29080000D03*
D12*
X159815000Y-29080000D03*
D15*
X150925000Y-26540000D03*
X157275000Y-24000000D03*
%TD*%
D17*
%TO.C,H12*%
X108735000Y-54500000D03*
%TD*%
D16*
%TO.C,JP20*%
X102947500Y-101500000D03*
%TD*%
%TO.C,JP19*%
X102947500Y-104500000D03*
%TD*%
%TO.C,JP21*%
X102947500Y-66500000D03*
%TD*%
D12*
%TO.C,SW9_HK*%
X166088943Y-84000000D03*
D13*
X167358943Y-81460000D03*
D14*
X171168943Y-84000000D03*
D13*
X173708943Y-78920000D03*
D12*
X176248943Y-84000000D03*
%TD*%
D16*
%TO.C,JP26*%
X102947500Y-98500000D03*
%TD*%
%TO.C,JP17*%
X102947500Y-92500000D03*
%TD*%
D12*
%TO.C,SW3_MK*%
X137088943Y-84000000D03*
D13*
X138358943Y-81460000D03*
D14*
X142168943Y-84000000D03*
D13*
X144708943Y-78920000D03*
D12*
X147248943Y-84000000D03*
%TD*%
D16*
%TO.C,JP22*%
X102947500Y-69500000D03*
%TD*%
%TO.C,JP24*%
X102947500Y-85500000D03*
%TD*%
D12*
%TO.C,SW2_LK*%
X112088943Y-98000000D03*
D13*
X113358943Y-95460000D03*
D14*
X117168943Y-98000000D03*
D13*
X119708943Y-92920000D03*
D12*
X122248943Y-98000000D03*
%TD*%
D17*
%TO.C,H11*%
X189235000Y-92500000D03*
%TD*%
%TO.C,H8*%
X133735000Y-69500000D03*
%TD*%
D12*
%TO.C,SW5_MP*%
X137088943Y-55000000D03*
D13*
X138358943Y-52460000D03*
D14*
X142168943Y-55000000D03*
D13*
X144708943Y-49920000D03*
D12*
X147248943Y-55000000D03*
%TD*%
%TO.C,SW14_PS*%
X165155000Y-29080000D03*
D14*
X170235000Y-29080000D03*
D12*
X175315000Y-29080000D03*
D15*
X166425000Y-26540000D03*
X172775000Y-24000000D03*
%TD*%
D12*
%TO.C,SW6_DI*%
X112269257Y-40000561D03*
D13*
X113539257Y-37460561D03*
D14*
X117349257Y-40000561D03*
D13*
X119889257Y-34920561D03*
D12*
X122429257Y-40000561D03*
%TD*%
D16*
%TO.C,JP27*%
X102947500Y-95500000D03*
%TD*%
D17*
%TO.C,H10*%
X190235000Y-43000000D03*
%TD*%
D12*
%TO.C,SW7_HP*%
X166088943Y-55000000D03*
D13*
X167358943Y-52460000D03*
D14*
X171168943Y-55000000D03*
D13*
X173708943Y-49920000D03*
D12*
X176248943Y-55000000D03*
%TD*%
D16*
%TO.C,JP25*%
X102947500Y-63500000D03*
%TD*%
D17*
%TO.C,H9*%
X107235000Y-24500000D03*
%TD*%
D16*
%TO.C,JP23*%
X102947500Y-82500000D03*
%TD*%
D12*
%TO.C,SW11_START*%
X134155000Y-29080000D03*
D14*
X139235000Y-29080000D03*
D12*
X144315000Y-29080000D03*
D15*
X135425000Y-26540000D03*
X141775000Y-24000000D03*
%TD*%
%LPD*%
M02*
