M48
; DRILL file {KiCad 8.0.4} date 2024-07-29T15:22:10-0700
; FORMAT={-:-/ absolute / inch / decimal}
; #@! TF.CreationDate,2024-07-29T15:22:10-07:00
; #@! TF.GenerationSoftware,Kicad,Pcbnew,8.0.4
; #@! TF.FileFunction,NonPlated,1,2,NPTH
FMAT,2
INCH
; #@! TA.AperFunction,NonPlated,NPTH,ComponentDrill
T1C0.0689
; #@! TA.AperFunction,NonPlated,NPTH,ComponentDrill
T2C0.1201
; #@! TA.AperFunction,NonPlated,NPTH,ComponentDrill
T3C0.1260
; #@! TA.AperFunction,NonPlated,NPTH,ComponentDrill
T4C0.1575
%
G90
G05
T1
X4.413Y-2.7165
X4.413Y-3.8583
X4.42Y-1.5748
X4.813Y-2.7165
X4.813Y-3.8583
X4.82Y-1.5748
X5.2817Y-1.1449
X5.3972Y-2.1654
X5.3972Y-3.3071
X5.6817Y-1.1449
X5.7972Y-2.1654
X5.7972Y-3.3071
X5.8919Y-1.1449
X6.2919Y-1.1449
X6.5022Y-1.1449
X6.5389Y-2.1654
X6.5389Y-3.3071
X6.9022Y-1.1449
X6.9389Y-2.1654
X6.9389Y-3.3071
X7.1124Y-1.1449
X7.5124Y-1.1449
T2
X4.463Y-2.6165
X4.463Y-3.7583
X4.47Y-1.4748
X4.713Y-2.5165
X4.713Y-3.6583
X4.72Y-1.3748
X5.4472Y-2.0654
X5.4472Y-3.2071
X5.6972Y-1.9654
X5.6972Y-3.1071
X6.5889Y-2.0654
X6.5889Y-3.2071
X6.8389Y-1.9654
X6.8389Y-3.1071
T3
X4.2219Y-0.9646
X4.2809Y-2.1457
X5.2652Y-2.7362
X7.4502Y-3.6417
X7.4896Y-1.6929
T4
X4.613Y-2.7165
X4.613Y-3.8583
X4.62Y-1.5748
X5.4817Y-1.1449
X5.5972Y-2.1654
X5.5972Y-3.3071
X6.0919Y-1.1449
X6.7022Y-1.1449
X6.7389Y-2.1654
X6.7389Y-3.3071
X7.3124Y-1.1449
M30
