<?xml version="1.0" encoding="UTF-8" standalone="no"?>
<!-- Created with Inkscape (http://www.inkscape.org/) -->

<svg
   width="210mm"
   height="297mm"
   viewBox="0 0 210 297"
   version="1.1"
   id="svg5"
   inkscape:version="1.1.1 (3bf5ae0d25, 2021-09-20)"
   sodipodi:docname="zangief_toon.svg"
   xmlns:inkscape="http://www.inkscape.org/namespaces/inkscape"
   xmlns:sodipodi="http://sodipodi.sourceforge.net/DTD/sodipodi-0.dtd"
   xmlns="http://www.w3.org/2000/svg"
   xmlns:svg="http://www.w3.org/2000/svg">
  <sodipodi:namedview
     id="namedview7"
     pagecolor="#ffffff"
     bordercolor="#666666"
     borderopacity="1.0"
     inkscape:pageshadow="2"
     inkscape:pageopacity="0.0"
     inkscape:pagecheckerboard="0"
     inkscape:document-units="mm"
     showgrid="false"
     inkscape:zoom="0.54929737"
     inkscape:cx="367.74252"
     inkscape:cy="324.96059"
     inkscape:window-width="1858"
     inkscape:window-height="1057"
     inkscape:window-x="54"
     inkscape:window-y="-8"
     inkscape:window-maximized="1"
     inkscape:current-layer="layer1" />
  <defs
     id="defs2" />
  <g
     inkscape:label="Layer 1"
     inkscape:groupmode="layer"
     id="layer1">
    <path
       style="fill:#000000;stroke-width:0.264583"
       d="m 174.05193,173.7262 c 0.76273,-0.20982 1.77476,-0.61629 2.24896,-0.90327 0.4742,-0.28698 1.11608,-0.63405 1.42639,-0.77128 1.07191,-0.47401 2.48665,-2.96263 2.54719,-4.48065 0.0743,-1.86289 -1.42972,-2.59121 -6.13127,-2.96909 -1.52442,-0.12253 -2.83778,-0.35495 -2.93996,-0.52028 -0.10158,-0.16435 -0.20522,-1.1126 -0.23032,-2.10721 -0.0388,-1.53602 0.0255,-1.82689 0.42642,-1.93114 0.40354,-0.10493 0.40823,-0.1272 0.0323,-0.15343 -0.72112,-0.0503 -0.84705,-1.75672 -0.73446,-9.95257 0.058,-4.22011 0.0876,-9.54815 0.0658,-11.84011 -0.0355,-3.73129 0.007,-4.16729 0.40212,-4.16817 1.40701,-0.003 2.95527,-1.91828 2.95527,-3.65555 0,-1.07329 -1.0261,-2.46306 -2.07831,-2.81489 -0.69846,-0.23356 -0.81126,-0.35727 -0.52916,-0.58038 0.19718,-0.15596 0.70843,-0.36742 1.13612,-0.46993 0.42769,-0.1025 1.10091,-0.41657 1.49605,-0.69794 0.39515,-0.28136 0.85051,-0.51157 1.01192,-0.51157 0.16141,0 0.50022,-0.11116 0.7529,-0.24703 0.25269,-0.13586 1.45014,-0.72319 2.661,-1.30519 l 2.20158,-1.05817 1.22366,0.77603 c 0.67302,0.42681 1.43849,0.77602 1.70104,0.77602 0.26255,0 0.47736,0.11907 0.47736,0.26459 0,0.14552 0.26789,0.26517 0.59532,0.2659 0.32742,7.9e-4 0.9388,0.27617 1.35863,0.61211 0.65791,0.52646 0.72185,0.68828 0.46302,1.17192 -0.41684,0.77886 -0.37234,2.1713 0.0982,3.07354 0.21738,0.41682 0.39524,0.77401 0.39524,0.79375 -1e-5,0.0197 -0.69952,0.0248 -1.55447,0.0113 -1.14725,-0.0181 -1.76764,-0.1764 -2.36822,-0.60405 -0.90105,-0.64161 -3.57251,-1.01805 -5.13906,-0.72416 -1.32301,0.2482 -2.62797,1.63396 -3.17607,3.37273 -0.80136,2.54219 -0.848,3.70374 -0.23039,5.7371 0.30908,1.01758 0.56196,2.21086 0.56196,2.65174 0,0.44087 0.13829,1.13677 0.30731,1.54642 0.16902,0.40966 0.2857,0.84129 0.25928,0.95919 -0.067,0.29894 1.62812,3.09292 1.87648,3.09292 0.11152,0 0.20277,0.16015 0.20277,0.35587 0,0.19573 0.23812,0.57137 0.52916,0.83476 0.29105,0.26339 0.53034,0.60926 0.53176,0.76861 0.0105,1.17463 2.84958,5.18451 3.67078,5.18451 0.16246,0 0.29538,0.10336 0.29538,0.22969 0,0.5732 8.89055,4.52044 11.00263,4.88496 0.42423,0.0732 1.18805,0.28532 1.69737,0.47134 1.03532,0.37813 6.41815,0.48315 8.73125,0.17035 5.03342,-0.68065 8.07802,-1.80177 9.30939,-3.42801 0.36361,-0.48021 1.30502,-2.18449 2.09201,-3.78727 1.37408,-2.79846 1.69735,-3.54214 2.29856,-5.28793 0.15035,-0.43656 0.36353,-1.03188 0.47374,-1.32292 0.11022,-0.29104 0.21836,-0.5887 0.24031,-0.66146 0.022,-0.0728 0.18307,-0.60854 0.35802,-1.19062 0.48654,-1.61878 0.67285,-5.62043 0.34325,-7.37264 -0.39952,-2.12393 -1.23535,-3.70025 -2.8783,-5.42832 -0.76398,-0.80357 -1.38906,-1.51285 -1.38906,-1.57619 0,-0.0633 1.2859,-1.37876 2.85756,-2.92317 1.57166,-1.54441 3.44284,-3.64145 4.15817,-4.6601 0.71534,-1.01864 1.3642,-1.91161 1.44192,-1.98437 0.5238,-0.49039 3.34819,-6.23511 3.61499,-7.35276 0.0941,-0.39437 0.25662,-0.8361 0.36107,-0.98162 0.57355,-0.79905 0.79545,-3.23362 0.79545,-8.72715 v -5.97929 l -0.82834,-1.7749 c -1.47264,-3.15543 -2.26098,-4.13847 -5.62703,-7.01672 -0.7128,-0.6095 -1.42717,-1.2317 -1.5875,-1.38267 -0.16032,-0.15097 -0.74371,-0.55117 -1.29641,-0.88934 -0.95992,-0.58733 -0.98624,-0.64019 -0.58787,-1.18072 2.18163,-2.96016 5.42924,-8.91624 5.42924,-9.95717 0,-0.24331 0.0816,-0.52398 0.18133,-0.62371 0.34821,-0.34821 0.8968,-2.17182 1.27635,-4.24277 0.93533,-5.10351 -0.32138,-13.73573 -2.83548,-19.4766 -1.04526,-2.38682 -1.6353,-3.4438 -2.23904,-4.01099 -0.33907,-0.31854 -0.6165,-0.71338 -0.6165,-0.87742 0,-0.48681 -3.19724,-3.5894 -4.68447,-4.54578 -1.46517,-0.9422 -5.59519,-2.97107 -7.35407,-3.61268 -0.58208,-0.21233 -2.24896,-0.82318 -3.70416,-1.35744 -3.02402,-1.11023 -6.25083,-2.0039 -6.56003,-1.8168 -0.11552,0.0699 -0.36602,-0.002 -0.55668,-0.16061 -0.86127,-0.71479 -7.56767,-0.47492 -7.56767,0.27067 0,0.25329 -1.94709,-0.75999 -2.58624,-1.34589 -0.25106,-0.23014 -0.93272,-0.77077 -1.5148,-1.2014 -0.58208,-0.43063 -1.29646,-1.03115 -1.5875,-1.3345 -0.57917,-0.60366 -4.05532,-2.34333 -5.30289,-2.65388 -0.43039,-0.10713 -1.17035,-0.41171 -1.64435,-0.67685 -0.47401,-0.26513 -0.91823,-0.48832 -0.98716,-0.49599 -0.0689,-0.008 -1.46705,-0.65023 -3.10693,-1.42793 -5.81583,-2.75813 -7.85223,-3.25869 -15.68159,-3.8546 -2.18281,-0.16614 -4.98078,-0.48483 -6.21771,-0.7082 -3.27144,-0.59078 -8.83031,-0.52686 -11.50937,0.13234 -1.16417,0.28645 -2.53339,0.66985 -3.04271,0.852 -0.50932,0.18215 -1.07757,0.36996 -1.26277,0.41736 -0.47766,0.12224 -0.71224,0.87483 -0.37714,1.20994 0.2002,0.20019 0.58747,0.16039 1.32998,-0.13671 0.57615,-0.23053 1.50666,-0.47826 2.0678,-0.55052 0.56114,-0.0723 1.64234,-0.25323 2.40267,-0.40214 1.90514,-0.37314 6.84477,-0.39256 9.83229,-0.0387 1.36589,0.1618 2.56509,0.34464 2.66487,0.40631 0.0998,0.0617 0.70864,0.13172 1.35301,0.15567 0.64437,0.0239 1.88596,0.14098 2.75908,0.26006 0.87313,0.11909 2.83766,0.36336 4.36563,0.54282 3.62782,0.4261 3.50964,0.40937 3.96875,0.56168 0.21828,0.0724 0.87312,0.28445 1.45521,0.47118 1.20293,0.38589 4.46114,1.80042 6.83216,2.96614 0.26519,0.13038 1.51535,0.60149 2.77813,1.04692 3.67423,1.29603 5.34177,2.1696 8.11679,4.2521 0.7276,0.54603 1.46933,0.99329 1.64829,0.99391 0.17896,5.3e-4 0.81436,0.1968 1.41201,0.43593 l 1.08664,0.43478 -0.75056,0.61404 c -0.56547,0.46262 -0.64022,0.61637 -0.30314,0.62354 0.24607,0.005 0.51438,-0.0989 0.59625,-0.23132 0.22483,-0.36379 3.60695,-0.86691 4.65265,-0.69213 0.50505,0.0844 1.55115,0.26674 2.32467,0.40516 0.77352,0.13842 1.4879,0.23537 1.5875,0.21544 0.0996,-0.0199 0.3597,0.027 0.57798,0.10429 0.21828,0.0773 1.40891,0.41228 2.64583,0.74446 2.28291,0.61307 5.03728,1.60134 7.67292,2.75305 3.3707,1.47291 4.02693,1.76494 5.15938,2.29596 0.65484,0.30707 1.19062,0.65036 1.19062,0.76289 0,0.11252 0.23813,0.26686 0.52917,0.34297 0.55203,0.14435 0.74364,0.71708 0.2399,0.71708 -0.45661,0 -4.51146,2.09573 -5.49837,2.84181 l -0.89284,0.67496 -1.35612,-0.5993 c -4.58375,-2.02566 -7.59597,-2.53481 -10.04979,-1.69871 -1.70316,0.58032 -1.89677,1.67451 -0.36022,2.03567 1.79212,0.42122 6.19286,2.14888 6.9556,2.73065 1.43362,1.09347 1.41664,1.54956 -0.11251,3.02347 -1.67829,1.61766 -2.19085,2.60548 -2.35353,4.53579 -0.17418,2.06696 0.3056,2.25813 1.9238,0.76653 1.28539,-1.18483 4.07854,-3.07327 4.95887,-3.35268 0.42357,-0.13443 0.82537,0.11686 1.79473,1.12244 1.14493,1.18771 2.3387,3.21096 5.39024,9.13555 1.33189,2.58589 1.84164,3.25834 2.26949,2.99391 0.2542,-0.1571 0.29177,-0.79461 0.15429,-2.61774 -0.25904,-3.43503 -1.01362,-6.52807 -2.36135,-9.67919 l -1.17037,-2.73641 0.93711,-1.34723 c 1.12623,-1.61913 3.39678,-3.86077 3.91057,-3.86077 0.20317,0 0.56594,0.38696 0.80615,0.8599 0.2402,0.47294 0.56697,1.02255 0.72616,1.22136 0.31266,0.39049 0.84071,1.73073 1.2649,3.21041 0.14601,0.50932 0.43461,1.29735 0.64133,1.75117 0.20673,0.45382 0.44901,1.28725 0.53841,1.85208 0.0894,0.56483 0.2211,1.12235 0.29266,1.23895 0.0716,0.1166 0.33954,1.529 0.59549,3.13869 0.56912,3.57923 0.53083,7.634 -0.0958,10.14307 -0.2544,1.01864 -0.48867,1.99746 -0.52059,2.17515 -0.0319,0.17769 -0.14087,0.40589 -0.24209,0.50712 -0.10123,0.10123 -0.18405,0.37908 -0.18405,0.61746 0,0.42205 -3.06317,6.623 -3.40194,6.88673 -0.0935,0.0728 -0.58312,0.7276 -1.08812,1.4552 -0.505,0.72761 -1.13007,1.55373 -1.38906,1.83583 -0.97766,1.06493 -0.67591,1.55602 2.28598,3.72042 2.51615,1.83867 5.47842,4.78935 6.29487,6.27024 1.25902,2.28363 2.12656,5.82549 2.09336,8.54643 -0.0342,2.80551 -0.91113,7.76422 -1.61749,9.14673 -0.11676,0.22851 -0.59944,1.3596 -1.07262,2.51354 -0.47319,1.15393 -1.02132,2.28603 -1.21808,2.51577 -0.19675,0.22974 -0.35773,0.50718 -0.35773,0.61654 0,0.25464 -3.16351,4.88054 -3.46513,5.06696 -0.12482,0.0771 -0.73568,-0.13931 -1.35747,-0.481 -0.62179,-0.34169 -1.78537,-0.89621 -2.58574,-1.23226 -0.80036,-0.33606 -2.45602,-1.07929 -3.67925,-1.65163 -1.22322,-0.57234 -2.77103,-1.16832 -3.43958,-1.32441 -0.66855,-0.15608 -1.41019,-0.38124 -1.64809,-0.50034 -0.23791,-0.11909 -1.369,-0.34519 -2.51354,-0.50244 -1.14455,-0.15725 -2.37865,-0.33834 -2.74245,-0.40241 -3.25969,-0.57416 -4.73995,-0.76247 -7.09552,-0.90262 l -2.72988,-0.16243 1.10933,-1.54723 c 1.88624,-2.63081 3.04703,-5.10737 4.66938,-9.96215 0.21883,-0.65484 0.44085,-1.48828 0.49338,-1.85208 0.0525,-0.3638 0.21972,-1.3163 0.37154,-2.11667 1.06046,-5.59081 1.18983,-16.0068 0.26947,-21.69583 -0.12948,-0.80036 -0.30323,-1.93146 -0.38612,-2.51354 -0.33665,-2.36422 -0.47877,-3.06697 -1.36442,-6.74687 -0.8372,-3.47861 -1.49321,-5.46255 -1.92471,-5.82084 -0.0876,-0.0728 -0.44093,-0.69249 -0.78511,-1.37719 -0.63839,-1.26999 -3.00354,-3.91447 -3.50099,-3.91447 -0.15119,0 -0.0198,0.35825 0.292,0.79611 1.57322,2.20938 3.77518,7.62843 4.3532,10.71326 0.0545,0.29104 0.29664,1.42214 0.53801,2.51354 0.24137,1.09141 0.49085,2.46063 0.5544,3.04271 0.0635,0.58208 0.16768,1.29646 0.23141,1.5875 0.91711,4.18828 1.22159,15.34816 0.54862,20.10833 -0.0617,0.43657 -0.19547,1.56766 -0.29722,2.51354 -0.10176,0.94589 -0.29908,2.01745 -0.43849,2.38125 -0.13942,0.36381 -0.53174,1.55443 -0.87183,2.64584 -1.59507,5.11892 -3.28481,8.16479 -6.08476,10.96816 -2.17362,2.17628 -3.16226,3.05475 -3.43785,3.05475 -0.10891,0 -0.77853,0.35719 -1.48803,0.79375 -0.70951,0.43657 -1.47164,0.79375 -1.69363,0.79375 -0.22198,0 -0.77304,0.2679 -1.22456,0.59532 -0.58392,0.42343 -0.85456,0.49982 -0.93738,0.26458 -0.064,-0.1819 -0.34463,-0.33073 -0.62354,-0.33073 -0.36045,0 -0.50712,0.18569 -0.50712,0.64204 0,0.49863 -0.31026,0.81707 -1.38906,1.42563 -0.76399,0.43098 -1.68672,0.87248 -2.05052,0.98112 -0.3638,0.10865 -0.72108,0.27078 -0.79395,0.36031 -0.184,0.22606 -1.84904,1.08882 -2.10131,1.08882 -0.11361,0 -1.02669,0.37862 -2.02908,0.84138 -1.0024,0.46275 -1.9416,0.86502 -2.08712,0.89391 -0.14552,0.0289 -1.09802,0.31269 -2.11667,0.63065 -2.81556,0.87885 -6.96016,1.57213 -9.56652,1.60023 -1.28685,0.0139 -7.16176,-0.0478 -13.05535,-0.13706 -5.8936,-0.0892 -12.42275,-0.1874 -14.50922,-0.21811 -3.1113,-0.0458 -3.83488,-0.12958 -4.0231,-0.46592 -0.14666,-0.26207 -0.54415,-0.39033 -1.1012,-0.35534 -0.47943,0.0301 -3.25294,0.1319 -6.16335,0.2262 -6.91978,0.22419 -10.44789,0.39373 -11.164,0.53646 -0.31936,0.0637 -2.16483,0.18651 -4.10104,0.27301 -6.038476,0.26978 -10.359896,0.5731 -13.839126,0.97135 -1.30969,0.14992 -2.61938,0.26405 -2.91042,0.25363 -0.47378,-0.017 -3.16619,0.25685 -6.48229,0.65922 -0.65484,0.0795 -1.66687,0.25194 -2.24896,0.38331 -1.84061,0.4154 -13.48337,0.0346 -16.27187,-0.5322 -0.65485,-0.1331 -2.26219,-0.38022 -3.57188,-0.54914 -6.30435,-0.81313 -12.552,-2.98095 -15.55289,-5.39659 -3.4371,-2.76677 -5.86684,-5.83807 -7.98531,-10.0938 -1.04299,-2.09524 -1.12489,-2.48578 -0.52132,-2.48578 0.29604,0 0.39053,-0.20789 0.33073,-0.7276 -0.0647,-0.56263 -0.24181,-0.74592 -0.78097,-0.80839 -0.5457,-0.0632 -0.7889,-0.32202 -1.11892,-1.19063 -0.67746,-1.78304 -1.60102,-6.80431 -1.90739,-10.37025 -0.31894,-3.71213 -0.3556,-4.62101 -0.46954,-11.64167 -0.11364,-7.00195 0.19327,-12.70511 0.84366,-15.67735 0.26777,-1.22367 0.63813,-3.105 0.71603,-3.63723 0.0213,-0.14552 0.10393,-0.44318 0.18362,-0.66146 1.02008,-2.79403 2.27141,-7.29567 2.08094,-7.48614 -0.51998,-0.51999 -1.30542,0.13233 -1.9506,1.62 -0.6174,1.42361 -1.73701,5.06219 -1.92716,6.26302 -0.0461,0.29104 -0.2178,1.12448 -0.38158,1.85208 -0.89193,3.9625 -1.37661,11.39016 -1.2258,18.78542 0.22255,10.91338 0.69747,15.51244 2.11619,20.4929 0.22606,0.7936 0.38343,1.47049 0.34971,1.50421 -0.0337,0.0337 -0.65441,0.127 -1.37931,0.20729 -3.01127,0.33354 -4.08377,0.49548 -6.42199,0.9697 -4.69195,0.95158 -9.43978,2.91929 -12.27207,5.08608 l -0.9718704,0.74351 -0.73172,-0.61122 c -3.0402,-2.53957 -4.48789,-5.3507 -5.79672,-11.25612 -1.24013,-5.59543 -0.7223,-11.44731 1.42274,-16.07802 0.40445,-0.87312 0.90518,-1.97445 1.11273,-2.4474 0.20754,-0.47294 0.46735,-0.85989 0.57735,-0.85989 0.11,0 0.19999,-0.10399 0.19999,-0.23108 0,-0.33652 2.36652,-4.28421 3.03367,-5.06059 0.8993604,-1.04662 1.8910604,-2.71253 2.0882804,-3.50801 0.17597,-0.70979 -0.39861,-2.31249 -0.82926,-2.31309 -0.54805,-8e-4 -2.1540004,-3.81446 -2.2282104,-5.2914 -0.011,-0.21828 -0.10232,-0.51594 -0.203,-0.66146 -0.10068,-0.14552 -0.16429,-1.93145 -0.14136,-3.96875 0.0406,-3.60514 0.3332,-6.04143 0.98517,-8.20208 0.37774,-1.25186 1.8732204,-4.1499 2.7556904,-5.34016 0.34344,-0.46323 0.62444,-0.90839 0.62444,-0.98923 0,-0.32979 2.44516,-3.32927 4.14096,-5.07973 1.62952,-1.68203 5.05208,-4.33359 5.59369,-4.33359 0.11662,0 0.98294,-0.50601 1.92515,-1.12448 5.89261,-3.8679 9.01392,-5.22709 9.9209,-4.32012 0.22963,0.22964 0.50584,0.41752 0.61378,0.41752 0.10795,0 0.69886,-0.5877 1.31314,-1.306 1.54818,-1.81036 3.41645,-3.56858 5.0987,-4.79836 0.78314,-0.5725 1.56769,-1.15963 1.74345,-1.30473 0.17576,-0.14511 0.38181,-0.26383 0.45788,-0.26383 0.0761,0 0.76571,-0.40097 1.53252,-0.89105 2.68306,-1.71477 7.88667,-3.95958 9.98186,-4.30612 0.21206,-0.0351 0.62878,-0.18299 0.92604,-0.3287 0.29727,-0.14571 1.01673,-0.31671 1.59882,-0.38001 0.58208,-0.0633 2.12989,-0.32889 3.43958,-0.59021 2.4869,-0.4962 8.97068,-0.63586 11.1125,-0.23936 0.58208,0.10776 1.9513,0.24416 3.04271,0.30311 l 1.98437,0.10719 -0.8865,-0.55388 c -2.65248,-1.65726 -10.7348,-2.29201 -15.51766,-1.21869 -1.01865,0.22859 -2.15967,0.41769 -2.53559,0.42021 -0.37593,0.003 -0.76242,0.0835 -0.85886,0.17994 -0.0964,0.0964 -0.55445,0.21685 -1.0178,0.26758 -1.3137,0.14381 -4.40263,1.12417 -6.29948,1.99931 -0.94804,0.43739 -2.31901,1.06902 -3.04662,1.40362 -0.7276,0.3346 -1.73963,0.88609 -2.24896,1.22553 -0.50932,0.33944 -1.23615,0.77684 -1.61519,0.97201 -2.00305,1.03142 -6.22581,4.66482 -7.93776,6.82992 -0.32756,0.41426 -0.85225,0.57312 -2.29148,0.69378 -1.02666,0.0861 -2.40653,0.40244 -3.06639,0.70303 -0.65985,0.3006 -1.28399,0.54654 -1.38698,0.54654 -0.10298,0 -1.47693,0.83344 -3.05321,1.85209 -1.57629,1.01864 -2.92468,1.85208 -2.99642,1.85208 -0.37802,0 -5.18391,3.49154 -6.3732,4.63021 -1.27848,1.22406 -4.88145,5.73655 -4.88145,6.1137 0,0.091 -0.39523,0.71714 -0.87828,1.39147 -1.0964204,1.53058 -2.4144704,4.61795 -3.0084504,7.04691 -0.33731,1.37936 -0.45272,3.00013 -0.45217,6.35 5.3e-4,3.86897 0.0844,4.79389 0.59895,6.61458 0.61605,2.17979 1.41435,3.77897 2.41676,4.84133 0.6604504,0.69995 0.7146604,0.57278 -1.6313,3.82733 -1.82876,2.53705 -4.78731,7.94171 -5.68282,10.38134 -0.51056,1.39092 -1.14685,4.75742 -1.27338,6.73722 -0.0555,0.86834 -0.16205,1.67774 -0.23678997,1.79868 -0.0747,0.12093 -0.0923,0.63108 -0.0391,1.13366 0.0532,0.50257 0.16835997,1.62815 0.25586997,2.50128 0.16341,1.63033 1.25234,6.5227 1.76671,7.9375 0.9533,2.62211 2.07941,4.3932 3.98991,6.27511 1.30194,1.28246 4.2035104,3.38218 4.6737704,3.38218 0.14525,0 0.44185,0.25378 0.6591,0.56395 0.24267,0.34646 0.55577,0.50225 0.81189,0.40397 0.32729,-0.12559 1.2136,0.10362 1.93583,0.50062 0.0385,0.0212 -0.24001,0.59316 -0.61891,1.27109 -1.05806,1.89308 -1.48091,4.31848 -1.48279,8.50516 -0.003,6.07022 1.05263,12.21231 2.31535,13.47503 0.20779,0.20779 0.3778,0.56863 0.3778,0.80188 0,0.23324 0.17859,0.4926 0.39687,0.57637 0.21828,0.0838 0.39688,0.24357 0.39688,0.35513 0,0.35965 1.95318,2.33649 3.01495,3.05147 2.20919,1.48765 5.94988,2.34931 9.55276,2.20048 1.91967,-0.0793 2.12409,-0.13946 2.19643,-0.64631 0.0721,-0.50493 0.29424,-0.57225 2.30165,-0.69749 1.5219,-0.0949 2.60127,-0.32228 3.42618,-0.72161 1.37314,-0.66473 3.48886,-2.93462 3.72117,-3.99233 0.13079,-0.59546 0.33102,-0.73407 1.2358,-0.85542 1.87677,-0.25173 3.12098,-2.18289 3.12458,-4.8497 7.9e-4,-0.66444 0.16287,-1.22603 0.41364,-1.43415 0.66034,-0.54803 1.17534,-2.06521 1.17534,-3.46255 0,-1.96 -1.19655,-5.97297 -2.06812,-6.93604 -0.42968,-0.4748 -0.41439,-0.47762 0.48144,-0.0887 2.35726,1.02337 2.91043,1.23592 4.88663,1.87759 1.16013,0.37669 2.26146,0.68489 2.44739,0.68489 0.46395,0 0.43679,0.0969 -0.34909,1.24502 -0.62457,0.91251 -0.67167,1.1587 -0.51711,2.70331 0.26507,2.64904 1.14585,3.72721 3.4961,4.27961 0.70403,0.16547 1.45865,0.4067 1.67693,0.53606 0.21828,0.12936 0.57547,0.30257 0.79375,0.3849 0.98645,0.37208 1.19766,0.63572 1.38285,1.72616 0.10867,0.63991 0.3361,1.52067 0.50539,1.95723 0.62844,1.62056 1.07282,2.65682 1.30483,3.04271 0.13125,0.21828 0.40687,0.75406 0.61251,1.19063 0.6269,1.33089 3.31526,4.36562 3.86734,4.36562 0.14552,0 0.26458,0.12054 0.26458,0.26787 0,0.14733 0.65485,0.68677 1.45521,1.19876 1.62355,1.03857 1.5152,0.67827 1.52306,5.0646 0.003,1.88804 -0.0909,2.52547 -0.42274,2.85729 -0.33249,0.33249 -0.3617,0.5318 -0.13187,0.89982 0.20202,0.32347 0.21439,0.71616 0.0392,1.24376 -0.21798,0.65645 -0.5449,0.86932 -2.19993,1.43248 -1.50561,0.51232 -2.05236,0.84043 -2.42494,1.45521 -0.52456,0.86557 -0.63662,2.52741 -0.22258,3.30104 0.32041,0.59869 1.97401,1.6481 2.74445,1.7417 0.3114,0.0378 0.86384,0.1317 1.22764,0.20861 3.177,0.67163 4.8566,0.85302 10.71563,1.15719 5.77418,0.29978 11.71459,0.2304 13.51371,-0.15782 2.13375,-0.46043 3.85345,-1.14196 4.08899,-1.62051 0.8626,-1.7525 0.91468,-2.07411 0.91637,-5.65916 0.001,-2.05345 -0.10029,-4.06035 -0.22501,-4.45977 l -0.22678,-0.72623 2.34344,0.13142 c 4.571806,0.25637 41.329156,0.0833 42.761736,-0.20139 0.18015,-0.0358 0.27962,0.11352 0.22106,0.3318 -0.0586,0.21828 -0.16008,1.46843 -0.22561,2.77812 -0.12221,2.44263 0.19411,4.91457 0.78955,6.17009 0.40394,0.85173 1.74089,1.53539 3.42363,1.75068 0.67939,0.0869 1.6714,0.34028 2.20446,0.56301 2.53875,1.06076 7.0635,1.94241 10.83016,2.11026 2.07611,0.0925 4.35815,0.21485 5.07118,0.27185 4.24621,0.33941 9.57438,0.31907 10.8853,-0.0415 z m -9.98573,-1.54602 c -1.38245,-0.0765 -3.82323,-0.2058 -5.42396,-0.28746 -3.0668,-0.15644 -3.44078,-0.19772 -5.55625,-0.61334 -1.75247,-0.34429 -1.94831,-0.39748 -5.02709,-1.3652 -1.4552,-0.4574 -3.04597,-0.87221 -3.53503,-0.92181 -0.48907,-0.0496 -1.02485,-0.23511 -1.19063,-0.41227 -0.29312,-0.31323 0.89048,-0.27757 4.99025,0.15037 0.58208,0.0608 3.02286,0.29684 5.42396,0.52463 2.40109,0.22778 4.96597,0.53191 5.69972,0.67583 0.73375,0.14392 3.2936,0.32558 5.68854,0.40369 2.39495,0.0781 5.12835,0.2241 6.07424,0.32442 0.94588,0.10032 2.60155,0.0914 3.67927,-0.0199 1.07772,-0.11128 2.00559,-0.15621 2.06195,-0.0999 0.22928,0.22928 -2.21984,1.28006 -3.72899,1.5999 -1.55479,0.32951 -3.76025,0.33939 -9.15598,0.041 z m -85.063536,-1.32774 c -7.42438,-0.39919 -11.00976,-0.81673 -13.09688,-1.5252 l -0.92604,-0.31435 0.79375,-0.16559 c 0.83256,-0.17369 16.76727,-0.0444 17.06312,0.13843 0.0939,0.058 2.36531,0.13091 5.04756,0.16194 2.68225,0.031 5.17447,0.13298 5.53828,0.22655 l 0.66146,0.17014 -0.66551,0.43881 c -1.50419,0.99179 -6.51616,1.29402 -14.41574,0.86927 z m 10.79943,-9.24232 c -0.70094,-0.0675 -1.57209,-0.19528 -1.93589,-0.28402 -1.28039,-0.31231 -3.62337,-0.4543 -8.77117,-0.53153 -2.85961,-0.0429 -5.31666,-0.15055 -5.46011,-0.23921 -0.14345,-0.0887 -0.33618,-0.56288 -0.42828,-1.05384 -0.19128,-1.01963 -1.01326,-1.89323 -1.5776,-1.67667 -0.48875,0.18754 -1.1743,-0.56934 -1.47947,-1.63341 -0.29416,-1.02567 -0.13912,-1.03376 1.63723,-0.0855 1.84607,0.98548 4.89749,2.03304 7.34815,2.52264 2.33663,0.46682 10.53194,1.15831 14.37092,1.21257 l 1.27404,0.018 -0.13114,1.52136 c -0.0721,0.83674 -0.13944,1.53634 -0.14957,1.55466 -0.0101,0.0183 -0.78438,-0.24472 -1.72054,-0.58453 -0.93617,-0.33981 -2.27563,-0.67304 -2.97657,-0.74052 z m 52.699076,-1.42024 c -0.0269,-0.37758 0.1108,-0.6025 0.37643,-0.61497 0.44691,-0.021 0.7306,-0.0723 2.80005,-0.5061 0.72761,-0.15253 1.56105,-0.32675 1.85209,-0.38716 0.29104,-0.0604 1.42213,-0.3641 2.51354,-0.67487 1.09141,-0.31077 2.37243,-0.62959 2.84672,-0.70849 0.4743,-0.0789 0.9278,-0.24934 1.00781,-0.37879 0.08,-0.12944 0.47577,-0.23535 0.87949,-0.23535 0.40372,0 0.81648,-0.0824 0.91724,-0.1832 0.10077,-0.10077 0.44803,-0.21957 0.7717,-0.264 1.48934,-0.20446 5.29153,-1.99442 6.42638,-3.02535 0.30042,-0.27291 0.63287,-0.4962 0.73878,-0.4962 0.46807,0 4.13896,-3.62581 4.13896,-4.08814 0,-0.17464 0.26789,-0.5694 0.59532,-0.87724 l 0.59531,-0.55971 -0.0923,1.31686 c -0.0757,1.07997 -0.17091,1.29244 -0.52917,1.18109 -1.05992,-0.32943 -1.62557,0.93214 -1.63192,3.63968 l -0.004,1.90101 -0.5507,-0.8599 c -1.02717,-1.60391 -1.71475,-1.00372 -2.08083,1.81639 -0.1395,1.07466 -0.25731,2.04305 -0.26181,2.15198 -0.005,0.10892 -0.9309,0.18605 -2.05869,0.17138 -2.69306,-0.035 -5.53461,0.1925 -6.65225,0.53267 -0.49366,0.15025 -0.98716,0.21781 -1.09667,0.15013 -0.1095,-0.0677 -0.83669,-0.001 -1.61597,0.14802 -0.77929,0.14908 -2.01219,0.32895 -2.7398,0.3997 -0.7276,0.0707 -1.70889,0.1914 -2.18064,0.26811 -0.47174,0.0767 -0.89993,0.10449 -0.95152,0.0617 -0.0516,-0.0428 -0.28547,0.0813 -0.51975,0.27578 -0.23427,0.19443 -0.53923,0.2835 -0.67769,0.19793 -0.13845,-0.0856 -0.53062,-0.0412 -0.87148,0.0986 -1.0349,0.42443 -1.89604,0.2244 -1.94415,-0.45159 z m 51.71284,-3.2438 c -1.51989,-0.4436 -3.00156,-0.91426 -3.29261,-1.04591 -0.29104,-0.13166 -1.00541,-0.39114 -1.5875,-0.57663 -0.58208,-0.18549 -1.17739,-0.4189 -1.32291,-0.5187 -0.14552,-0.0998 -1.09802,-0.62828 -2.11667,-1.17441 -2.06083,-1.10489 -3.23217,-1.99428 -4.12447,-3.13167 -0.58139,-0.74106 -0.58245,-0.75345 -0.0398,-0.46302 0.91501,0.4897 0.92987,0.34643 0.0583,-0.56148 -1.2092,-1.25958 -1.36134,-1.86767 -1.29065,-5.15849 0.0654,-3.04632 0.34099,-4.6396 1.4632,-8.46091 0.94483,-3.21727 1.97025,-4.08813 4.65393,-3.95246 1.59076,0.0804 4.19583,1.16932 5.2812,2.20751 0.56898,0.54425 0.7401,1.00122 0.86134,2.30015 0.34775,3.72596 0.34386,6.13199 -0.0118,7.30362 -0.19978,0.65808 -0.36451,1.52394 -0.36609,1.92412 -0.002,0.59185 0.11527,0.7276 0.63029,0.7276 0.35604,0 0.71423,-0.20265 0.8184,-0.46302 0.39956,-0.99865 0.9297,-3.3068 0.9297,-4.0478 0,-0.71887 0.36647,-1.07717 0.57326,-0.56047 0.20512,0.51254 3.28229,2.20703 4.65923,2.56568 1.91419,0.49859 2.56841,0.47119 1.38209,-0.0579 -1.75572,-0.783 -2.51873,-1.24688 -4.13708,-2.51515 -1.98494,-1.55556 -2.34994,-2.09142 -2.57805,-3.7849 -0.44173,-3.27931 -0.46337,-3.33947 -1.6255,-4.51828 -1.06799,-1.08333 -3.58116,-2.49318 -4.44428,-2.49318 -0.57323,0 -1.23801,-1.18346 -1.23801,-2.20396 0,-1.30193 0.81307,-2.19763 2.1778,-2.39912 2.71298,-0.40055 10.65198,-0.39654 12.90345,0.007 1.23693,0.22144 2.36207,0.51281 2.50031,0.64751 0.13825,0.1347 0.45054,0.24491 0.69398,0.24491 0.45344,0 1.7398,0.51732 4.70729,1.89307 1.23314,0.57169 2.08915,0.78259 3.198,0.78789 l 1.51413,0.007 1.10024,2.20929 c 2.44493,4.90946 2.45803,8.33239 0.0577,15.07855 -1.09427,3.07546 -3.49627,7.6409 -4.4847,8.52395 -1.17124,1.04639 -3.46529,1.7598 -7.038,2.1887 -1.45521,0.17469 -2.82443,0.34774 -3.04271,0.38455 -1.42594,0.24047 -4.95917,-0.1943 -7.42301,-0.91341 z m 10.19886,-10.31239 c 0.0912,-0.14756 0.43054,-0.26829 0.7541,-0.26829 0.32356,0 1.35563,-0.50601 2.29349,-1.12448 1.62467,-1.07138 1.73457,-1.21193 2.32746,-2.97656 1.06894,-3.18157 0.47583,-6.04128 -1.72489,-8.31662 -1.48753,-1.53796 -2.14374,-1.68232 -1.06176,-0.23357 1.34244,1.79749 1.8585,3.42299 1.80916,5.69845 -0.0739,3.40768 -2.56882,5.70267 -6.19342,5.6971 -0.90279,-0.001 -2.19529,-0.19643 -2.87222,-0.43342 -0.67693,-0.23699 -1.42107,-0.35788 -1.65365,-0.26863 -0.73138,0.28065 -0.48625,1.07629 0.43704,1.41854 0.47294,0.17531 1.08754,0.44094 1.36578,0.59028 0.70389,0.3778 4.31246,0.55125 4.51891,0.2172 z m -180.732396,2.50357 c -4.28809,-1.21285 -7.25354,-4.43728 -8.3892,-9.12186 -0.67198,-2.77191 -1.20112,-13.6922 -0.7221,-14.90261 0.12526,-0.31653 0.36902,-1.12952 0.54167,-1.80664 0.22978,-0.90113 0.4662,-1.26626 0.88203,-1.36222 0.31246,-0.0721 1.62896,-0.44923 2.92556,-0.83807 1.2966,-0.38883 3.55878,-0.86474 5.02708,-1.05758 1.4683,-0.19283 3.91979,-0.54734 5.44776,-0.78778 1.52797,-0.24044 3.39787,-0.53152 4.15535,-0.64684 l 1.37722,-0.20967 0.40872,1.02148 c 0.24021,0.60036 0.40871,1.83179 0.40871,2.98703 0,1.96318 -10e-4,1.96646 -0.99219,2.70663 -0.5457,0.40759 -1.03187,0.83036 -1.08038,0.9395 -0.0485,0.10914 -0.24081,0.19844 -0.42734,0.19844 -0.18653,0 -0.64187,0.23813 -1.01187,0.52917 -0.37,0.29104 -1.04472,0.52916 -1.49939,0.52916 -1.13003,0 -2.50504,0.61287 -3.01796,1.34515 -0.55868,0.79763 -0.44553,0.85841 0.70397,0.37812 1.84161,-0.76947 4.61922,-0.24827 5.775,1.08364 0.69792,0.80428 0.85498,2.53945 0.37828,4.17923 -0.31972,1.09979 -0.73763,1.75526 -1.73256,2.71742 -0.72117,0.69742 -1.70214,1.40974 -2.17995,1.58294 -1.41753,0.51385 -3.34342,0.42083 -4.6878,-0.22642 -1.34343,-0.64679 -1.51565,-0.79338 -2.26978,-1.93195 -0.79825,-1.20518 -0.74159,-4.82973 0.1025,-6.55756 0.34013,-0.69623 0.75464,-1.41432 0.92113,-1.59573 1.19374,-1.30075 1.31492,-1.504 0.89665,-1.504 -0.22777,0 -0.99036,0.45831 -1.69465,1.01847 -1.82946,1.45507 -2.59238,3.45649 -2.40566,6.31091 0.15459,2.36312 0.59165,3.36874 1.98952,4.57762 3.61449,3.1258 8.36796,2.3794 11.36418,-1.78445 0.46155,-0.64141 0.88452,-1.63553 0.98719,-2.32023 0.0988,-0.65889 0.28033,-1.13576 0.40338,-1.05971 0.53097,0.32816 1.06523,-0.2147 1.06523,-1.08238 0,-1.09952 0.32055,-1.1401 1.03874,-0.13149 0.49699,0.69795 0.71245,1.39124 1.57085,5.05459 0.45787,1.95398 0.16149,5.63614 -0.58203,7.23108 -1.42382,3.05429 -3.39366,4.22894 -7.04134,4.19885 -1.90718,-0.0157 -5.02935,0.36676 -3.66694,0.44924 0.24607,0.0149 0.52595,0.15416 0.62194,0.30949 0.23865,0.38613 -3.8177,0.0807 -5.59152,-0.42097 z m 153.861366,-5.28208 c -0.75131,-1.52613 -0.84303,-1.9589 -0.82712,-3.9026 0.0143,-1.75165 0.15399,-2.49293 0.70268,-3.72982 0.89275,-2.01248 1.89359,-3.2679 3.10857,-3.8993 1.18129,-0.61389 1.26731,-0.62158 1.26731,-0.11326 0,0.21828 -0.1044,0.39687 -0.232,0.39687 -0.41359,0 -1.37434,2.62296 -1.87253,5.11216 -0.72186,3.60688 -1.12206,6.7439 -0.93537,7.33211 0.37793,1.19077 -0.42836,0.39471 -1.21154,-1.19616 z M 41.159014,143.65342 c 0.77623,-2.48721 0.20201,-8.31082 -1.06624,-10.81359 -0.8139,-1.60614 -2.33405,-3.14318 -3.10867,-3.14318 -0.32649,0 -1.22744,-0.47625 -2.00212,-1.05833 -1.07073,-0.80453 -1.27524,-1.05833 -0.85278,-1.05833 0.30566,0 0.55574,0.10777 0.55574,0.23949 0,0.13218 0.70756,0.17533 1.57903,0.0963 1.93328,-0.1753 2.51276,0.1461 3.79709,2.10599 0.96823,1.47753 2.56138,4.58884 2.56138,5.00219 0,0.13526 0.19474,0.68859 0.43276,1.22962 1.01635,2.3102 0.62856,6.17741 -0.73446,7.32431 -0.99455,0.83687 -1.40772,0.86372 -1.16173,0.0755 z m 20.11656,-5.17119 c -0.95823,-0.17517 -1.07084,-0.28074 -1.19062,-1.11609 -0.0728,-0.50743 -0.27425,-1.16074 -0.44774,-1.45178 l -0.31545,-0.52916 -0.40374,0.52916 c -0.22206,0.29104 -0.40753,0.79003 -0.41216,1.10887 -0.0168,1.15827 -0.52723,0.86027 -0.93621,-0.54659 -0.41514,-1.428 -0.47296,-5.45707 -0.0783,-5.45707 0.10248,0 0.75773,0.11893 1.45611,0.26429 1.31735,0.27418 1.4849,0.2924 7.65536,0.83269 3.26759,0.28611 4.17123,0.27094 7.15756,-0.12018 1.8798,-0.2462 4.00029,-0.44763 4.71219,-0.44763 h 1.29437 l -0.785,0.59531 c -1.44925,1.09906 -2.22822,1.87884 -2.22822,2.23053 0,0.19203 -0.10555,0.34916 -0.23456,0.34916 -0.36297,0 -0.51634,1.63147 -0.23045,2.45155 0.14084,0.40404 0.51145,0.88093 0.82356,1.05976 0.5178,0.29668 0.45166,0.33855 -0.75543,0.47823 -1.73844,0.20116 -13.72114,0.0176 -15.08125,-0.23105 z m 17.94024,-0.72586 c -1.46598,-0.65901 -1.90129,-1.44711 -1.30335,-2.35968 0.61606,-0.94023 2.36827,-2.04346 3.37077,-2.12232 0.46225,-0.0364 1.15025,0.0955 1.5289,0.29312 0.37864,0.19758 0.83727,0.35997 1.01917,0.36087 0.1819,7.9e-4 0.33073,0.13343 0.33073,0.29452 0,0.16109 0.17859,0.22436 0.39688,0.14059 0.61066,-0.23433 1.20508,0.0993 1.48399,0.83286 0.20675,0.54378 0.12043,0.85606 -0.47348,1.71307 -0.39947,0.57644 -0.96885,1.1526 -1.26528,1.28036 -0.85663,0.3692 -3.87479,0.11213 -5.08833,-0.43339 z m 7.97551,-0.25451 c 0.52156,-1.89043 0.48027,-2.50414 -0.23123,-3.43697 -0.38958,-0.51076 -0.9139,-0.92865 -1.16515,-0.92865 -0.25126,0 -0.74186,-0.19964 -1.09023,-0.44365 -0.34836,-0.244 -1.05946,-0.59596 -1.58022,-0.78213 l -0.94683,-0.33849 0.97657,-0.0116 c 0.53711,-0.006 1.03416,-0.1048 1.10456,-0.21869 0.0704,-0.1139 0.6103,-0.18013 1.19981,-0.14717 0.58951,0.0329 1.13807,-0.0473 1.21903,-0.17824 0.081,-0.13098 0.30529,-0.17748 0.49854,-0.10332 0.19325,0.0742 1.82655,0.005 3.62955,-0.15437 1.803,-0.15906 4.17115,-0.3422 5.26256,-0.40697 3.75437,-0.22281 7.278326,-0.45469 8.466666,-0.55711 5.87674,-0.50649 13.75833,-0.73179 13.75833,-0.39328 0,0.1625 -0.10462,0.29545 -0.23248,0.29545 -0.23149,0 -0.88373,1.36103 -1.01436,2.11667 -0.14441,0.83535 0.26131,1.88419 1.02382,2.64669 0.43609,0.43609 0.93256,0.80971 1.10327,0.83026 0.17071,0.0206 -2.66619,0.18144 -6.30421,0.35754 -6.04826,0.29275 -7.89785,0.4437 -14.684366,1.1984 -1.23693,0.13755 -3.20829,0.32409 -4.38079,0.41454 -1.17251,0.0904 -2.89373,0.30075 -3.82495,0.46736 -2.50776,0.44867 -2.96388,0.41165 -2.78789,-0.22625 z m -32.08045,-0.23944 c -1.21644,-0.63292 -1.89106,-1.56868 -2.06951,-2.87066 -0.15401,-1.12358 -0.0996,-1.29677 0.63915,-2.03554 0.44412,-0.44412 1.05477,-0.80748 1.357,-0.80748 0.49831,0 0.55303,0.16643 0.5872,1.78594 0.0482,2.28675 0.14489,3.43954 0.32848,3.91796 0.18246,0.47549 0.0556,0.47696 -0.84232,0.01 z m 120.058076,-1.83027 c 0.79644,-3.83644 2.75608,-5.76231 5.3281,-5.23628 l 0.88127,0.18024 -1.31387,0.56755 c -0.72264,0.31215 -1.69833,0.96604 -2.16822,1.45308 -0.9749,1.01048 -2.45295,3.74912 -2.45295,4.545 0,0.38608 -0.08,0.45368 -0.28921,0.24445 -0.20923,-0.20923 -0.20512,-0.69432 0.0149,-1.75404 z m -130.588306,0.94523 c -0.15944,-0.86712 -1.02897,-3.11758 -1.66121,-4.29948 -2.2827,-4.26715 -2.9989,-5.016 -5.65481,-5.91251 -0.81382,-0.27471 -0.49799,-0.64263 0.66146,-0.77055 1.24321,-0.13716 2.57679,0.46259 4.06311,1.82731 1.19865,1.10059 1.78997,2.09762 2.56598,4.32659 0.8657,2.48654 1.0502,3.55025 0.83585,4.81895 -0.21597,1.27833 -0.57631,1.28264 -0.81038,0.01 z m 80.944576,-1.83003 c 0.78401,-0.78401 0.97014,-1.16725 0.97014,-1.99752 0,-0.56505 -0.17766,-1.37092 -0.39479,-1.79081 -0.37432,-0.72386 -0.36403,-0.77365 0.19844,-0.96029 1.35066,-0.44817 11.83802,-0.0498 11.83802,0.44967 0,0.3713 0.69141,0.28725 1.03414,-0.12572 0.22674,-0.27321 1.01716,-0.36345 3.07511,-0.35106 2.90765,0.0175 3.03202,0.08 2.40566,1.20954 -0.47487,0.85634 -0.24333,1.77137 0.68252,2.69722 l 0.78078,0.78077 -3.12921,0.009 c -3.97042,0.0117 -7.2205,0.18551 -11.72817,0.62719 -1.96453,0.1925 -4.27633,0.36617 -5.13733,0.38595 l -1.56545,0.036 z m -5.37986,-0.64138 c -1.3878,-0.82606 -1.57847,-1.16692 -1.2505,-2.23555 0.43944,-1.43183 1.05345,-1.82222 2.8822,-1.8325 1.54094,-0.009 1.6268,0.0275 2.48958,1.04936 1.04102,1.23293 0.99793,1.76886 -0.22868,2.84427 -1.03384,0.9064 -2.54881,0.97428 -3.8926,0.17442 z m 32.08864,-0.0783 c -0.0892,-0.0892 -0.0214,-0.16225 0.15071,-0.16225 0.17213,0 0.50517,-0.40305 0.74008,-0.89567 0.39357,-0.82533 0.39324,-0.96361 -0.004,-1.76045 -0.23727,-0.47562 -0.4314,-0.87623 -0.43141,-0.89026 -1e-5,-0.014 0.98226,-0.0267 2.18281,-0.0282 3.73862,-0.005 7.65146,-0.3805 9.85575,-0.94684 1.16416,-0.2991 2.44554,-0.6085 2.8475,-0.68755 0.40197,-0.0791 0.79595,-0.24907 0.87552,-0.37781 0.0796,-0.12874 0.38167,-0.23408 0.67135,-0.23408 0.48915,0 0.51369,0.11789 0.34428,1.65365 -0.10033,0.9095 -0.27952,1.91531 -0.3982,2.23512 -0.21384,0.57622 -1.21573,1.38302 -1.87926,1.51333 -1.28227,0.25183 -3.15864,0.41814 -6.00084,0.53188 -1.80128,0.0721 -3.34504,0.20105 -3.43059,0.2866 -0.19861,0.19861 -5.30696,-0.021 -5.52342,-0.2375 z m -5.81155,-1.09603 c -1.15186,-0.75473 -0.53425,-2.30481 0.975,-2.4471 0.3638,-0.0343 1.4189,0.082 2.34465,0.25847 1.2375,0.23587 1.78732,0.47972 2.07639,0.9209 0.34885,0.53242 0.34762,0.64565 -0.0109,1.00418 -0.93631,0.93632 -4.12051,1.09215 -5.38512,0.26355 z m 24.32947,-2.04278 c 0.006,-1.05502 -0.0754,-2.18612 -0.18042,-2.51354 -0.26699,-0.83232 0.37623,-0.78179 1.43975,0.11311 0.8003,0.6734 0.83333,0.77475 0.66829,2.05052 -0.11997,0.92737 -0.35342,1.48336 -0.75546,1.79924 -1.02082,0.80203 -1.18341,0.601 -1.17216,-1.44933 z m 41.73303,-2.9549 c -0.65485,-0.20321 -1.905,-0.70313 -2.77813,-1.11093 -0.87312,-0.4078 -1.74557,-0.76686 -1.93878,-0.7979 -0.1932,-0.031 -0.76483,-0.25268 -1.27029,-0.49253 -0.50545,-0.23986 -1.35941,-0.50368 -1.89768,-0.58628 -0.53826,-0.0826 -1.10175,-0.24593 -1.25219,-0.36296 -0.27934,-0.21732 -3.90364,-0.58367 -5.81189,-0.58747 -1.66526,-0.003 -9.17524,0.3881 -9.87266,0.51457 -1.09455,0.19848 -0.50776,-0.46384 0.88695,-1.00111 2.76318,-1.06443 3.8981,-1.18091 8.98571,-0.92225 7.00233,0.35601 9.39522,0.89376 13.36146,3.0027 1.0914,0.58033 2.394,1.26578 2.89466,1.52322 0.85964,0.44205 0.88259,0.48834 0.41245,0.83211 -0.27381,0.20021 -0.50485,0.36274 -0.51341,0.36116 -0.009,-0.002 -0.55136,-0.16913 -1.2062,-0.37233 z M 37.349374,123.78137 c 0.0102,-0.45737 0.10267,-1.04448 0.20543,-1.30468 0.16664,-0.42195 0.2701,-0.38619 0.95695,0.33073 0.59313,0.61909 0.66868,0.80382 0.32877,0.80382 -0.24688,0 -0.51254,0.28368 -0.60293,0.64384 -0.23267,0.92704 -0.91145,0.56503 -0.88822,-0.47371 z m -21.75054,-4.42283 c 0.28334,-0.25518 4.32362,-2.01221 5.66775,-2.46478 0.69631,-0.23445 1.53967,-0.42627 1.87413,-0.42627 0.33446,0 0.69727,-0.0892 0.80623,-0.19812 0.10896,-0.10896 0.57529,-0.21914 1.03628,-0.24484 0.461,-0.0257 2.20739,-0.11768 3.88088,-0.20439 1.67349,-0.0867 3.36313,-0.21029 3.75475,-0.2746 0.58783,-0.0965 0.81232,0.0453 1.28695,0.8133 0.3162,0.51163 0.50182,1.00332 0.41249,1.09265 -0.0893,0.0893 -1.20424,0.18987 -2.47758,0.22342 -2.51515,0.0663 -4.60215,0.25561 -7.07765,0.64214 -0.87312,0.13633 -2.21757,0.30779 -2.98765,0.38102 -0.77008,0.0732 -1.49448,0.19144 -1.60977,0.2627 -0.11529,0.0712 -0.60049,0.19841 -1.07824,0.28257 -0.47774,0.0842 -1.21186,0.33053 -1.63138,0.54747 -0.41951,0.21694 -0.76275,0.32593 -0.76275,0.2422 0,-0.0837 -0.20836,-0.0351 -0.46302,0.10798 -0.35066,0.19708 -0.50389,0.15211 -0.63142,-0.18529 -0.0926,-0.24502 -0.0926,-0.51375 0,-0.59716 z M 211.75909,55.90267 c -1.06447,-1.46754 -2.98469,-3.19976 -3.54703,-3.19976 -0.27842,0 -0.57254,0.17283 -0.65361,0.38407 -0.0811,0.21125 -0.58334,0.52451 -1.11617,0.69615 -0.53284,0.17164 -1.75726,0.89178 -2.72095,1.6003 -0.96368,0.70852 -1.82915,1.28823 -1.92327,1.28823 -0.21895,0 0.052,-1.25847 0.45487,-2.113 0.49278,-1.04514 2.16009,-2.91409 2.59968,-2.91409 0.11296,0 0.33357,-0.23951 0.49023,-0.53224 0.21728,-0.40599 0.17927,-0.75472 -0.16021,-1.47014 -0.75407,-1.58908 -1.66915,-2.12936 -6.70428,-3.95834 -1.64277,-0.59672 -1.67577,-0.62626 -0.92604,-0.82888 2.40737,-0.65061 6.57766,0.302 9.70186,2.21617 1.23947,0.75941 1.41824,0.75516 2.13461,-0.0508 0.6183,-0.69562 5.55228,-3.57785 6.12479,-3.57785 0.1862,0 0.91088,0.61186 1.61039,1.3597 1.19856,1.28135 1.24346,1.38045 0.77938,1.71979 -0.27084,0.19805 -0.61852,0.36405 -0.77261,0.3689 -0.56045,0.0176 -2.74929,2.39935 -3.91921,4.26459 -0.50889,0.81133 -0.38015,1.47685 0.74628,3.85793 0.39257,0.82981 0.82438,1.86981 0.95958,2.31111 0.69306,2.26214 1.00241,3.69833 1.15044,5.34106 l 0.16322,1.81129 -1.89115,-3.81169 c -1.04013,-2.09644 -2.20149,-4.23957 -2.5808,-4.7625 z m -107.75331,69.95067 c 0,-0.056 -0.81258,-0.58455 -1.80574,-1.17457 -2.18096,-1.29569 -5.586966,-4.70905 -6.807516,-6.82222 -0.59096,-1.02315 -1.17632,-1.1219 -1.17632,-0.19844 0,0.3638 0.11906,0.66146 0.26458,0.66146 0.14552,0 0.26458,0.38113 0.26458,0.84694 0,0.69313 0.30377,1.14042 1.67268,2.463 2.25961,2.18313 3.958706,3.28604 5.934086,3.85192 0.90951,0.26054 1.65365,0.4279 1.65365,0.37191 z M 93.509504,114.31916 c 1.01394,-0.83578 2.65543,-2.93633 3.33511,-4.26782 0.20428,-0.40018 0.56797,-0.7276 0.8082,-0.7276 0.28466,0 0.77593,-0.71419 1.41051,-2.05052 0.53554,-1.12779 0.973716,-2.19935 0.973706,-2.38125 0,-0.1819 0.11906,-0.33073 0.26458,-0.33073 0.14552,0 0.26459,-0.1629 0.26459,-0.36201 0,-0.71408 2.00696,-3.99402 3.14702,-5.14312 1.511,-1.52298 1.3294,-1.82929 2.63649,4.44679 0.82598,3.96601 2.19629,6.53658 3.36214,6.30705 0.41718,-0.0821 2.49601,-3.14857 2.49601,-3.68182 0,-0.12762 0.35719,-0.89226 0.79375,-1.69918 0.43657,-0.80693 0.79375,-1.62068 0.79375,-1.80835 0,-0.18767 0.24004,-0.83804 0.53342,-1.44527 0.7236,-1.49766 1.84783,-4.64857 1.84783,-5.17892 0,-0.23705 0.10616,-0.43101 0.2359,-0.43101 0.12975,0 0.31805,-0.32728 0.41845,-0.72731 0.21129,-0.84187 2.52842,-3.24144 3.13007,-3.24144 0.23695,0 0.47968,0.33151 0.58121,0.79375 0.0959,0.43657 0.28394,0.79375 0.41789,0.79375 0.13396,0 0.24356,0.12738 0.24356,0.28306 0,0.15568 0.36348,0.81135 0.80772,1.45704 0.70303,1.02181 0.87621,1.13734 1.33603,0.89124 0.29057,-0.1555 0.63609,-0.54328 0.76781,-0.86172 1.1998,-2.90048 3.95844,-10.36271 4.51774,-12.22066 0.20175,-0.6702 2.62997,-6.00684 3.48278,-7.65431 0.23725,-0.45833 1.52334,-4.08717 1.52334,-4.29828 0,-0.55548 -6.55956,1.71112 -7.40833,2.55989 -0.0728,0.0728 -0.60854,0.36456 -1.19063,0.64845 -0.58208,0.28389 -1.57032,0.84943 -2.19607,1.25677 -0.62576,0.40733 -1.24478,0.74061 -1.3756,0.74061 -0.53117,0 -2.38145,-3.12489 -2.38145,-4.02197 0,-0.20356 -0.10151,-0.48322 -0.22558,-0.62147 -0.12406,-0.13824 -0.37766,-0.8169 -0.56355,-1.50812 -0.18589,-0.69123 -0.44156,-1.25677 -0.56817,-1.25677 -0.40778,0 -0.24666,-0.71098 0.4286,-1.89123 0.36233,-0.63331 0.79737,-1.5682 0.96676,-2.07752 0.51378,-1.54494 3.11279,-4.72737 4.40751,-5.39689 0.69739,-0.36064 0.83183,-0.36306 1.11646,-0.0201 0.17798,0.21445 0.4331,0.3899 0.56695,0.3899 0.23005,0 0.54435,0.22267 1.40533,0.99559 0.20471,0.18378 1.34222,0.74932 2.52781,1.25678 3.25486,1.39313 4.36125,1.18373 4.11777,-0.77935 -0.118,-0.95136 0.24133,-2.5793 1.07531,-4.87172 0.39254,-1.07898 0.46927,-1.14134 1.24665,-1.01329 6.00708,0.98956 5.44252,0.96053 7.01055,0.36048 1.56358,-0.59834 3.4751,-2.20619 3.4751,-2.92302 0,-0.68147 -2.67083,-4.2836 -5.09323,-6.86922 -1.20184,-1.28281 -1.23191,-1.83603 -0.20983,-3.86075 0.81655,-1.61757 1.50779,-3.90603 1.25592,-4.15791 -0.40174,-0.40173 -1.23835,0.2615 -1.39707,1.10754 -0.19058,1.01589 -0.59596,1.24212 -0.56592,0.31582 0.0417,-1.28439 -0.35494,-4.66138 -0.6477,-5.51518 -0.42736,-1.24634 -0.94415,-2.00896 -2.40326,-3.5464 -0.69073,-0.72783 -1.33129,-1.55518 -1.42347,-1.83857 -0.2011,-0.61828 -3.17182,-4.55606 -3.65185,-4.84063 -0.18589,-0.1102 -0.40141,-0.68951 -0.47892,-1.28735 -0.0775,-0.59784 -0.34525,-1.55034 -0.59498,-2.11667 -0.24973,-0.56632 -0.58601,-1.32733 -0.74729,-1.69114 -0.37724,-0.85097 -4.95664,-5.41212 -5.94901,-5.92529 -0.41653,-0.2154 -1.59696,-1.44087 -2.62318,-2.7232804 -1.02622,-1.2824 -2.29731,-2.72205 -2.82464,-3.19922 -1.32911,-1.20269 -3.49665,-2.43971 -4.27492,-2.43971 -0.3574,0 -0.64982,-0.10718 -0.64982,-0.23819 0,-0.27021 -1.38935,-0.61179 -5.02708,-1.23597 -2.78816,-0.4784 -6.18039,-0.53676 -7.96414,-0.13701 -0.64153,0.14377 -2.118366,0.27091 -3.281866,0.28254 -3.97721,0.0398 -4.8258,0.24377 -5.92365,1.42409 -0.54492,0.58586 -0.61217,0.85835 -0.48236,1.95444 0.083,0.70052 0.18931,1.43582 0.23633,1.63401 0.0612,0.25817 -0.47717,0.45801 -1.89889,0.70479 -3.50395,0.6082 -7.07911,2.8851704 -8.89559,5.6654704 -0.75546,1.1563 -0.9262,1.48823 -1.76933,3.43958 -0.59603,1.3795 -1.50592,4.25776 -1.50592,4.76373 0,0.24365 -0.29906,0.57926 -0.66459,0.74581 -0.80555,0.36703 -2.17771,2.45727 -2.40362,3.66148 -0.11482,0.61208 -0.4328,1.04148 -1.05682,1.42715 -1.15388,0.71313 -1.95228,1.84937 -2.09772,2.98536 -0.18899,1.47614 -0.60137,2.28518 -1.89366,3.71517 -1.36005,1.50498 -2.32046,3.38495 -2.24955,4.40343 0.0344,0.49363 -0.24515,0.90757 -1.07196,1.5875 -1.73182,1.42414 -5.48147,5.3066 -6.1855,6.40459 -0.88393,1.37855 -0.84671,2.51275 0.0948,2.8882 1.94762,0.77665 5.80658,1.58624 8.6651,1.81789 6.45323,0.52295 6.70887,0.58277 5.77873,1.35219 -0.75492,0.62448 -1.67273,2.93358 -1.66922,4.19959 0.006,2.09015 1.07653,2.81003 3.53263,2.37504 0.74453,-0.13186 1.82995,-0.29473 2.41203,-0.36195 3.06377,-0.35377 5.07019,-0.75294 6.93074,-1.37887 2.51808,-0.84714 4.67588,-1.43087 5.87211,-1.58853 0.49313,-0.065 0.98565,-0.17321 1.0945,-0.24048 0.55259,-0.34151 0.76086,0.71058 0.62828,3.17378 -0.15256,2.83429 0.24917,5.07082 1.30131,7.24481 0.52168,1.07792 1.35703,1.72655 1.84911,1.4358 0.11746,-0.0694 0.49283,-0.15684 0.83416,-0.19431 0.56422,-0.0619 5.488926,-3.19583 7.418956,-4.72114 0.97412,-0.76985 3.7998,-2.02437 4.99745,-2.21872 0.98766,-0.16028 1.03001,-0.0842 1.3517,2.42769 0.0932,0.7276 0.26784,1.56104 0.38813,1.85208 0.67242,1.62689 1.75737,3.79487 2.20705,4.41018 l 0.51596,0.70602 -0.93045,0.81695 c -0.51175,0.44932 -1.11442,1.20318 -1.33926,1.67524 -0.22483,0.47205 -0.62501,1.10089 -0.88927,1.39741 -0.7706,0.86465 -1.67111,2.1961 -1.67111,2.47082 0,0.13928 -0.0893,0.29293 -0.19843,0.34144 -0.10914,0.0485 -0.72206,0.77686 -1.36204,1.61855 -0.63999,0.8417 -1.29483,1.4879 -1.45521,1.436 -0.32653,-0.10568 -1.68489,-2.70148 -3.05419,-5.83651 -0.9936,-2.27486 -1.68522,-2.94066 -2.77151,-2.66801 -0.960206,0.24099 -2.856936,2.48916 -3.868196,4.58493 -2.58286,5.35277 -3.09123,6.21608 -4.47178,7.59388 -0.79127,0.78968 -1.51873,1.34499 -1.61658,1.23403 -0.4067,-0.46119 -1.52835,-2.97258 -2.09899,-4.69968 -1.12264,-3.39779 -2.85295,-6.26278 -4.31067,-7.13746 -0.60178,-0.3611 -0.89411,-0.38725 -1.62648,-0.14555 -0.49107,0.16207 -1.1168,0.49782 -1.39052,0.74613 -0.83123,0.75404 -2.20234,2.62161 -2.20476,3.00308 -0.002,0.3373 -1.65059,3.68835 -3.32357,6.75632 -0.6165,1.13058 -0.82722,1.32766 -1.20395,1.12604 -0.62667,-0.33538 -2.08412,-2.93089 -2.81327,-5.01001 -0.33172,-0.94589 -0.77977,-2.09498 -0.99565,-2.55353 -0.21589,-0.45856 -0.39253,-0.90634 -0.39253,-0.99507 0,-0.0887 -0.22646,-0.66606 -0.50324,-1.28293 -0.27678,-0.61688 -0.80056,-1.79438 -1.16395,-2.61666 -0.38626,-0.87403 -0.87708,-1.56373 -1.1816,-1.66038 -0.76851,-0.24391 -1.86644,0.26631 -2.96533,1.37803 -1.11473,1.12775 -1.59857,1.98343 -2.26604,4.0075 -1.10809,3.36024 -2.2328,3.98569 -3.95911,2.20168 -0.52805,-0.5457 -1.23517,-1.5875 -1.57136,-2.3151 -2.24709,-4.86323 -2.83982,-5.95518 -4.78457,-8.81434 -0.72395,-1.06434 -1.5134,-2.3145 -1.75434,-2.77812 -0.24093,-0.46363 -0.8566,-1.31921 -1.36814,-1.90129 -0.78375,-0.89184 -1.00621,-1.01239 -1.41401,-0.76627 -0.39266,0.23697 -0.5199,0.78597 -0.67453,2.91041 -0.10482,1.4401 -0.20873,2.85648 -0.23091,3.14752 -0.0462,0.6066 0.0768,1.11041 0.67865,2.77813 0.65975,1.82831 1.44643,4.88478 2.00892,7.80521 0.28028,1.45521 0.55548,2.88396 0.61155,3.175 0.0561,0.29104 0.24377,1.3626 0.4171,2.38125 0.17333,1.01864 0.38411,2.03067 0.4684,2.24896 0.0843,0.21828 0.18102,0.51593 0.21496,0.66145 0.644,2.76152 1.29406,4.12556 2.6108,5.47829 1.26331,1.29786 2.57947,1.90877 3.65071,1.69453 0.99802,-0.19961 1.79896,-0.86249 1.79896,-1.48889 0,-0.24847 0.35718,-1.31796 0.79375,-2.37664 0.43656,-1.05867 0.79375,-2.11563 0.79375,-2.34879 0,-0.81916 1.1923,0.83341 2.36274,3.27484 0.62788,1.30968 1.2294,2.56127 1.33672,2.78131 0.10732,0.22003 0.40116,1.10877 0.65297,1.97497 0.55511,1.90952 2.40201,4.84172 3.64846,5.79243 1.29715,0.98939 2.39107,0.91731 4.17347,-0.27499 0.79842,-0.53409 1.49137,-1.06987 1.53987,-1.19063 0.0485,-0.12075 0.20928,-0.21955 0.35727,-0.21955 0.14798,0 0.78928,-0.51287 1.42509,-1.1397 1.40931,-1.3894 3.34875,-2.40862 4.18426,-2.19892 0.33212,0.0834 1.12973,0.61696 1.77244,1.18577 1.32273,1.17062 2.49705,3.35327 4.21891,7.84139 0.9477,2.47025 2.03069,4.61093 3.42086,6.76178 0.58819,0.91005 1.07019,1.72547 1.07111,1.81205 0.002,0.21717 1.55654,1.08346 1.94386,1.08346 0.17333,0 0.76577,-0.37144 1.31652,-0.82541 z M 115.11828,38.3288 c -1.62839,-0.60354 -2.97064,-1.34855 -3.76773,-2.09127 -0.75468,-0.70319 -0.79813,-0.7112 -1.61278,-0.2971 -0.46046,0.23406 -1.06193,0.66116 -1.33661,0.9491 -0.40238,0.42181 -0.70541,0.4906 -1.55964,0.354 -0.58314,-0.0933 -1.39375,-0.40702 -1.80137,-0.69727 -0.96487,-0.68705 -2.26425,-0.54722 -3.47148,0.37358 -0.50607,0.386 -1.07299,0.70182 -1.25982,0.70182 -0.18684,0 -0.954816,-0.35194 -1.706616,-0.78208 -1.75155,-1.00213 -2.81632,-0.87935 -4.95733,0.57165 -0.77215,0.5233 -1.13327,0.45583 -2.66459,-0.49785 -1.16049,-0.72273 -2.28342,-0.77541 -4.00736,-0.18801 -0.68865,0.23465 -1.321,0.35773 -1.40521,0.27352 -0.0842,-0.0842 0.33896,-0.93791 0.94038,-1.89712 0.60142,-0.9592 1.09349,-1.80237 1.09349,-1.87371 0,-0.0713 0.32743,-0.41143 0.72761,-0.75577 0.47604,-0.40961 0.83018,-0.541 1.0243,-0.38003 0.38013,0.31522 3.02499,1.10527 3.18028,0.94999 0.0646,-0.0646 -0.31219,-0.37101 -0.83735,-0.68086 -0.86666,-0.51135 -0.91657,-0.60163 -0.54046,-0.97774 0.22791,-0.22791 0.41437,-0.57332 0.41437,-0.76758 0,-0.21204 0.19357,-0.30259 0.48432,-0.22656 0.26638,0.0697 0.96493,-0.12385 1.55234,-0.43003 0.94961,-0.49496 1.19774,-0.52199 2.23793,-0.24378 1.16482,0.31154 3.13375,0.1432 3.13375,-0.26793 0,-0.11683 0.48606,-0.4316 1.080146,-0.69949 0.86835,-0.39158 1.17892,-0.42539 1.5839,-0.17248 0.27707,0.17304 0.64483,0.31461 0.81725,0.31461 0.17242,0 0.50201,0.1706 0.73242,0.37913 0.86831,0.7858 3.20039,0.52958 3.50529,-0.38512 0.0547,-0.16411 0.31319,-0.0784 0.61921,0.2053 0.64237,0.59554 2.57088,1.38819 3.37744,1.38819 0.32586,0 0.74118,-0.23813 0.92294,-0.52917 0.48385,-0.77478 0.68705,-0.67234 1.60935,0.81133 0.95189,1.53127 0.9906,1.75131 0.41919,2.38271 -0.60869,0.6726 -0.0283,0.85846 0.75547,0.24194 0.36748,-0.28906 0.79819,-0.52556 0.95714,-0.52556 0.69739,0 0.18207,-1.12373 -1.05337,-2.29703 -0.7383,-0.70117 -1.45268,-1.31454 -1.5875,-1.36304 -0.25962,-0.0934 -0.34769,-0.83785 -0.0991,-0.83785 0.48153,0 2.27042,1.29622 2.556,1.85208 0.18691,0.3638 0.42048,0.72255 0.51903,0.79721 0.2732,0.20697 2.85948,5.37808 2.86208,5.72255 0.001,0.16612 -0.26561,0.37031 -0.59303,0.45375 -0.4246,0.1082 -1.91823,1.2553 -1.91823,1.47318 0,0.007 -0.41672,-0.14244 -0.92604,-0.33121 z m -10.31875,-4.05965 c 0.3638,-0.0622 0.84005,-0.1744 1.05833,-0.24942 0.21828,-0.075 0.42733,-0.12735 0.46456,-0.11628 0.1134,0.0337 3.08023,-1.53137 3.50419,-1.84855 0.59232,-0.44312 -2.35476,-0.12237 -4.61842,0.50265 -0.54041,0.14922 -2.23428,0.21258 -3.77514,0.14121 -2.197266,-0.10177 -3.137236,-0.27354 -4.395836,-0.80327 -1.48535,-0.62518 -1.62456,-0.64151 -1.92822,-0.22624 -0.58767,0.80369 -0.252,1.13706 2.14992,2.13512 1.03274,0.42914 5.968686,0.73337 7.540616,0.46478 z m 24.11635,0.55643 c -0.64193,-0.21794 -1.61796,-0.36966 -2.16896,-0.33715 -1.04159,0.0615 -1.83906,-0.37226 -1.83906,-1.00021 0,-0.20047 -0.11906,-0.36448 -0.26458,-0.36448 -0.14552,0 -0.26459,-0.1636 -0.26459,-0.36355 0,-0.7662 -1.45581,-2.91517 -2.93688,-4.33522 -1.51086,-1.44863 -2.27367,-1.95405 -4.26177,-2.82376 -0.53952,-0.23602 -1.05865,-0.55486 -1.15363,-0.70853 -0.33413,-0.54065 -2.40159,-1.22832 -4.10893,-1.36671 -1.29221,-0.10474 -2.03249,-0.33424 -2.94526,-0.91311 -1.72341,-1.09295 -4.44448,-1.57725 -6.47211,-1.15191 -1.30773,0.27432 -1.68379,0.26048 -2.520726,-0.0928 -2.23567,-0.94372 -5.31829,-0.0965 -7.87985,2.16555 -0.81838,0.72271 -1.60423,1.14063 -2.51354,1.3367 -0.72761,0.15689 -2.22151,0.70131 -3.31979,1.20982 -1.59599,0.73895 -2.25995,1.23886 -3.30729,2.49012 -1.24738,1.49025 -3.16814,2.91618 -3.49196,2.59236 -0.0832,-0.0832 -0.18179,-1.18706 -0.21917,-2.45311 -0.0579,-1.96211 -0.21164,-3.42422 -0.5324,-5.06417 -0.0377,-0.19261 0.0274,-0.66886 0.14467,-1.05833 0.11724,-0.38947 0.36756,-1.24391 0.55627,-1.89876 0.18871,-0.65484 0.42126,-1.30968 0.51678,-1.45521 0.0955,-0.14552 0.45274,-0.97895 0.79383,-1.85208 0.79798,-2.04265 1.41079,-2.9254 3.03823,-4.3766 0.7276,-0.64881 1.36029,-1.26201 1.40597,-1.36267 0.17911,-0.39469 2.87151,-1.48545 5.38627,-2.1821004 1.08724,-0.3012 1.69017,-0.34362 2.18889,-0.15401 0.76796,0.29198 12.439946,0.30963 14.613216,0.0221 1.2604,-0.16675 1.39153,-0.13251 1.64797,0.43033 0.26414,0.5797104 0.41987,0.6122204 2.99627,0.6254104 1.49471,0.008 3.55109,0.16639 4.56974,0.35274 2.37968,0.43534 5.11665,1.72778 5.8949,2.78366 0.33177,0.45014 0.7862,0.81843 1.00984,0.81843 0.46706,0 1.64228,0.85496 3.16512,2.30259 2.20219,2.09343 3.59358,4.55654 3.70424,6.55748 0.0654,1.18224 0.48264,2.69854 0.94745,3.44306 0.0908,0.14552 0.25392,0.6813 0.36239,1.19062 0.10847,0.50933 0.36059,1.1609 0.56028,1.44794 0.19969,0.28704 0.36307,0.77808 0.36307,1.09121 0,0.31313 0.16893,1.04812 0.3754,1.63332 0.21615,0.61264 0.31515,1.51321 0.23337,2.12294 l -0.14204,1.05894 -1.48225,0.0177 c -0.81523,0.01 -2.00745,-0.16061 -2.64938,-0.37855 z m -8.33077,-11.24275 c 0.66834,-0.2505 1.06072,-1.23529 0.65418,-1.64183 -0.15486,-0.15486 -0.95872,-0.33771 -1.78637,-0.40635 l -1.50481,-0.12479 0.17755,0.88774 c 0.0977,0.48825 0.28602,0.9962 0.41859,1.12878 0.33452,0.33451 1.35671,0.41287 2.04086,0.15645 z M 87.279514,22.47108 c 1.00896,-1.07689 0.18777,-2.45983 -1.63642,-2.75586 -1.28374,-0.20832 -1.84258,0.27326 -1.65542,1.42655 0.17945,1.10582 0.72864,1.65785 1.8253,1.83476 0.68136,0.10991 0.98949,0.004 1.46654,-0.50545 z m 1.19534,51.13391 c 0.0993,-0.80037 0.18153,-2.29654 0.1828,-3.32485 0.003,-2.70802 0.89029,-6.98888 1.65203,-7.97339 0.317,-0.40971 -0.0114,-1.46193 -0.41541,-1.33093 -0.47707,0.1547 -1.44572,2.16107 -1.91191,3.96014 -0.63647,2.45625 -0.71133,6.87812 -0.14675,8.66903 l 0.45875,1.45521 z M 46.230744,35.75647 c 1.11968,-0.61062 3.4869,-1.65761 8.95942,-3.96262 0.91049,-0.3835 5.24771,-1.74973 7.50023,-2.36259 2.19598,-0.59747 0.92153,-0.52011 -2.34277,0.14221 -4.12779,0.83752 -8.91602,2.43203 -12.16893,4.05234 -3.11277,1.5505 -3.70417,1.92155 -3.70417,2.32408 0,0.59282 0.39405,0.54942 1.75622,-0.19342 z M 172.53286,34.81056 c -1.20153,-0.40523 -4.55785,-1.39389 -5.29166,-1.55875 -0.21828,-0.049 -1.40891,-0.38193 -2.64584,-0.73976 -1.23692,-0.35782 -2.60614,-0.71767 -3.04271,-0.79967 -0.43656,-0.082 -1.62718,-0.33074 -2.64583,-0.55277 -3.4924,-0.76122 -8.67693,-1.47545 -10.71008,-1.47545 -3.15077,0 -5.84397,0.65229 -5.43374,1.31606 0.0512,0.0829 1.32329,0.0607 2.82681,-0.0492 2.54393,-0.18604 3.50055,-0.15778 6.96701,0.2058 1.23597,0.12963 6.49242,0.99964 7.67292,1.26997 0.29104,0.0666 1.83885,0.37891 3.43958,0.69393 1.60073,0.31502 3.32714,0.67555 3.83646,0.80119 3.46733,0.85526 4.2154,1.02176 5.15937,1.14831 l 1.05834,0.14188 z"
       id="path39" />
  </g>
</svg>
