G04 #@! TF.GenerationSoftware,KiCad,Pcbnew,8.0.4*
G04 #@! TF.CreationDate,2024-07-30T01:48:29-07:00*
G04 #@! TF.ProjectId,leverless_controller_3board,6c657665-726c-4657-9373-5f636f6e7472,rev?*
G04 #@! TF.SameCoordinates,Original*
G04 #@! TF.FileFunction,Copper,L1,Top*
G04 #@! TF.FilePolarity,Positive*
%FSLAX46Y46*%
G04 Gerber Fmt 4.6, Leading zero omitted, Abs format (unit mm)*
G04 Created by KiCad (PCBNEW 8.0.4) date 2024-07-30 01:48:29*
%MOMM*%
%LPD*%
G01*
G04 APERTURE LIST*
G04 Aperture macros list*
%AMRoundRect*
0 Rectangle with rounded corners*
0 $1 Rounding radius*
0 $2 $3 $4 $5 $6 $7 $8 $9 X,Y pos of 4 corners*
0 Add a 4 corners polygon primitive as box body*
4,1,4,$2,$3,$4,$5,$6,$7,$8,$9,$2,$3,0*
0 Add four circle primitives for the rounded corners*
1,1,$1+$1,$2,$3*
1,1,$1+$1,$4,$5*
1,1,$1+$1,$6,$7*
1,1,$1+$1,$8,$9*
0 Add four rect primitives between the rounded corners*
20,1,$1+$1,$2,$3,$4,$5,0*
20,1,$1+$1,$4,$5,$6,$7,0*
20,1,$1+$1,$6,$7,$8,$9,0*
20,1,$1+$1,$8,$9,$2,$3,0*%
%AMFreePoly0*
4,1,19,0.500000,-0.750000,0.000000,-0.750000,0.000000,-0.744911,-0.071157,-0.744911,-0.207708,-0.704816,-0.327430,-0.627875,-0.420627,-0.520320,-0.479746,-0.390866,-0.500000,-0.250000,-0.500000,0.250000,-0.479746,0.390866,-0.420627,0.520320,-0.327430,0.627875,-0.207708,0.704816,-0.071157,0.744911,0.000000,0.744911,0.000000,0.750000,0.500000,0.750000,0.500000,-0.750000,0.500000,-0.750000,
$1*%
%AMFreePoly1*
4,1,19,0.000000,0.744911,0.071157,0.744911,0.207708,0.704816,0.327430,0.627875,0.420627,0.520320,0.479746,0.390866,0.500000,0.250000,0.500000,-0.250000,0.479746,-0.390866,0.420627,-0.520320,0.327430,-0.627875,0.207708,-0.704816,0.071157,-0.744911,0.000000,-0.744911,0.000000,-0.750000,-0.500000,-0.750000,-0.500000,0.750000,0.000000,0.750000,0.000000,0.744911,0.000000,0.744911,
$1*%
G04 Aperture macros list end*
G04 #@! TA.AperFunction,ComponentPad*
%ADD10C,0.600000*%
G04 #@! TD*
G04 #@! TA.AperFunction,SMDPad,CuDef*
%ADD11FreePoly0,0.000000*%
G04 #@! TD*
G04 #@! TA.AperFunction,SMDPad,CuDef*
%ADD12FreePoly1,0.000000*%
G04 #@! TD*
G04 #@! TA.AperFunction,SMDPad,CuDef*
%ADD13R,1.200000X1.400000*%
G04 #@! TD*
G04 #@! TA.AperFunction,SMDPad,CuDef*
%ADD14RoundRect,0.243750X0.456250X-0.243750X0.456250X0.243750X-0.456250X0.243750X-0.456250X-0.243750X0*%
G04 #@! TD*
G04 #@! TA.AperFunction,SMDPad,CuDef*
%ADD15RoundRect,0.140000X0.140000X0.170000X-0.140000X0.170000X-0.140000X-0.170000X0.140000X-0.170000X0*%
G04 #@! TD*
G04 #@! TA.AperFunction,ComponentPad*
%ADD16C,2.500000*%
G04 #@! TD*
G04 #@! TA.AperFunction,SMDPad,CuDef*
%ADD17RoundRect,0.140000X-0.140000X-0.170000X0.140000X-0.170000X0.140000X0.170000X-0.140000X0.170000X0*%
G04 #@! TD*
G04 #@! TA.AperFunction,SMDPad,CuDef*
%ADD18R,1.000000X0.750000*%
G04 #@! TD*
G04 #@! TA.AperFunction,SMDPad,CuDef*
%ADD19C,1.000000*%
G04 #@! TD*
G04 #@! TA.AperFunction,SMDPad,CuDef*
%ADD20RoundRect,0.135000X0.135000X0.185000X-0.135000X0.185000X-0.135000X-0.185000X0.135000X-0.185000X0*%
G04 #@! TD*
G04 #@! TA.AperFunction,SMDPad,CuDef*
%ADD21RoundRect,0.135000X-0.135000X-0.185000X0.135000X-0.185000X0.135000X0.185000X-0.135000X0.185000X0*%
G04 #@! TD*
G04 #@! TA.AperFunction,SMDPad,CuDef*
%ADD22RoundRect,0.135000X-0.185000X0.135000X-0.185000X-0.135000X0.185000X-0.135000X0.185000X0.135000X0*%
G04 #@! TD*
G04 #@! TA.AperFunction,SMDPad,CuDef*
%ADD23RoundRect,0.500000X0.500000X1.400000X-0.500000X1.400000X-0.500000X-1.400000X0.500000X-1.400000X0*%
G04 #@! TD*
G04 #@! TA.AperFunction,SMDPad,CuDef*
%ADD24RoundRect,0.375000X0.625000X0.375000X-0.625000X0.375000X-0.625000X-0.375000X0.625000X-0.375000X0*%
G04 #@! TD*
G04 #@! TA.AperFunction,ComponentPad*
%ADD25C,1.400000*%
G04 #@! TD*
G04 #@! TA.AperFunction,SMDPad,CuDef*
%ADD26RoundRect,0.140000X0.170000X-0.140000X0.170000X0.140000X-0.170000X0.140000X-0.170000X-0.140000X0*%
G04 #@! TD*
G04 #@! TA.AperFunction,ComponentPad*
%ADD27R,1.000000X1.000000*%
G04 #@! TD*
G04 #@! TA.AperFunction,SMDPad,CuDef*
%ADD28RoundRect,0.140000X-0.170000X0.140000X-0.170000X-0.140000X0.170000X-0.140000X0.170000X0.140000X0*%
G04 #@! TD*
G04 #@! TA.AperFunction,SMDPad,CuDef*
%ADD29RoundRect,0.200000X-0.200000X-0.275000X0.200000X-0.275000X0.200000X0.275000X-0.200000X0.275000X0*%
G04 #@! TD*
G04 #@! TA.AperFunction,SMDPad,CuDef*
%ADD30RoundRect,0.160000X-0.160000X0.197500X-0.160000X-0.197500X0.160000X-0.197500X0.160000X0.197500X0*%
G04 #@! TD*
G04 #@! TA.AperFunction,SMDPad,CuDef*
%ADD31RoundRect,0.050000X0.050000X-0.387500X0.050000X0.387500X-0.050000X0.387500X-0.050000X-0.387500X0*%
G04 #@! TD*
G04 #@! TA.AperFunction,SMDPad,CuDef*
%ADD32RoundRect,0.050000X0.387500X-0.050000X0.387500X0.050000X-0.387500X0.050000X-0.387500X-0.050000X0*%
G04 #@! TD*
G04 #@! TA.AperFunction,HeatsinkPad*
%ADD33R,3.200000X3.200000*%
G04 #@! TD*
G04 #@! TA.AperFunction,SMDPad,CuDef*
%ADD34RoundRect,0.150000X0.150000X0.420000X-0.150000X0.420000X-0.150000X-0.420000X0.150000X-0.420000X0*%
G04 #@! TD*
G04 #@! TA.AperFunction,SMDPad,CuDef*
%ADD35RoundRect,0.075000X0.075000X0.495000X-0.075000X0.495000X-0.075000X-0.495000X0.075000X-0.495000X0*%
G04 #@! TD*
G04 #@! TA.AperFunction,ComponentPad*
%ADD36O,1.000000X2.000000*%
G04 #@! TD*
G04 #@! TA.AperFunction,ComponentPad*
%ADD37O,1.000000X1.700000*%
G04 #@! TD*
G04 #@! TA.AperFunction,SMDPad,CuDef*
%ADD38RoundRect,0.150000X0.650000X0.150000X-0.650000X0.150000X-0.650000X-0.150000X0.650000X-0.150000X0*%
G04 #@! TD*
G04 #@! TA.AperFunction,ViaPad*
%ADD39C,0.800000*%
G04 #@! TD*
G04 #@! TA.AperFunction,Conductor*
%ADD40C,0.200000*%
G04 #@! TD*
G04 #@! TA.AperFunction,Conductor*
%ADD41C,0.150000*%
G04 #@! TD*
G04 #@! TA.AperFunction,Conductor*
%ADD42C,0.250000*%
G04 #@! TD*
G04 #@! TA.AperFunction,Conductor*
%ADD43C,0.800000*%
G04 #@! TD*
G04 #@! TA.AperFunction,Conductor*
%ADD44C,0.300000*%
G04 #@! TD*
G04 APERTURE END LIST*
D10*
G04 #@! TO.P,,57,GND*
G04 #@! TO.N,GND*
X83700000Y-36840000D03*
G04 #@! TD*
D11*
G04 #@! TO.P,JP1,1,A*
G04 #@! TO.N,GND*
X138430000Y-94500000D03*
D12*
G04 #@! TO.P,JP1,2,B*
X139730000Y-94500000D03*
G04 #@! TD*
D13*
G04 #@! TO.P,Y1,1,1*
G04 #@! TO.N,/Main/XIN*
X96996000Y-37630000D03*
G04 #@! TO.P,Y1,2,2*
G04 #@! TO.N,GND*
X96996000Y-35430000D03*
G04 #@! TO.P,Y1,3,3*
G04 #@! TO.N,Net-(C4-Pad2)*
X95296000Y-35430000D03*
G04 #@! TO.P,Y1,4,4*
G04 #@! TO.N,GND*
X95296000Y-37630000D03*
G04 #@! TD*
D14*
G04 #@! TO.P,D4,1,K*
G04 #@! TO.N,Net-(D1-K)*
X110190000Y-34350000D03*
G04 #@! TO.P,D4,2,A*
G04 #@! TO.N,/Main/P4*
X110190000Y-32475000D03*
G04 #@! TD*
D15*
G04 #@! TO.P,C9,1*
G04 #@! TO.N,+1V1*
X77480000Y-38500000D03*
G04 #@! TO.P,C9,2*
G04 #@! TO.N,GND*
X76520000Y-38500000D03*
G04 #@! TD*
D10*
G04 #@! TO.P,,57,GND*
G04 #@! TO.N,GND*
X85732000Y-36840000D03*
G04 #@! TD*
D15*
G04 #@! TO.P,C7,1*
G04 #@! TO.N,+3.3V*
X79360000Y-31930000D03*
G04 #@! TO.P,C7,2*
G04 #@! TO.N,GND*
X78400000Y-31930000D03*
G04 #@! TD*
D14*
G04 #@! TO.P,D2,1,K*
G04 #@! TO.N,Net-(D1-K)*
X105010000Y-34350000D03*
G04 #@! TO.P,D2,2,A*
G04 #@! TO.N,/Main/P2*
X105010000Y-32475000D03*
G04 #@! TD*
D16*
G04 #@! TO.P,SW11_START1,1,1*
G04 #@! TO.N,/Buttons/S2*
X193190000Y-32540000D03*
G04 #@! TO.P,SW11_START1,2,2*
G04 #@! TO.N,GND*
X199540000Y-30000000D03*
G04 #@! TD*
D17*
G04 #@! TO.P,C8,1*
G04 #@! TO.N,+1V1*
X90840000Y-35430000D03*
G04 #@! TO.P,C8,2*
G04 #@! TO.N,GND*
X91800000Y-35430000D03*
G04 #@! TD*
D18*
G04 #@! TO.P,SW1,1,1*
G04 #@! TO.N,GND*
X51905000Y-40055000D03*
X57905000Y-40055000D03*
G04 #@! TO.P,SW1,2,2*
G04 #@! TO.N,Net-(R5-Pad1)*
X51905000Y-43805000D03*
X57905000Y-43805000D03*
G04 #@! TD*
D11*
G04 #@! TO.P,JP18,1,A*
G04 #@! TO.N,Net-(JP11-B)*
X159275000Y-113500000D03*
D12*
G04 #@! TO.P,JP18,2,B*
G04 #@! TO.N,/Buttons/R2*
X160575000Y-113500000D03*
G04 #@! TD*
D11*
G04 #@! TO.P,JP9,1,A*
G04 #@! TO.N,/Main/L3*
X138430000Y-52500000D03*
D12*
G04 #@! TO.P,JP9,2,B*
G04 #@! TO.N,/Buttons/L3*
X139730000Y-52500000D03*
G04 #@! TD*
D10*
G04 #@! TO.P,,57,GND*
G04 #@! TO.N,GND*
X85732000Y-35824000D03*
G04 #@! TD*
D19*
G04 #@! TO.P,TP4,1,1*
G04 #@! TO.N,Net-(U1-GPIO27_ADC1)*
X84100000Y-26700000D03*
G04 #@! TD*
D10*
G04 #@! TO.P,,57,GND*
G04 #@! TO.N,GND*
X85732000Y-37856000D03*
G04 #@! TD*
D20*
G04 #@! TO.P,R4,1*
G04 #@! TO.N,Net-(C4-Pad2)*
X92590000Y-37856000D03*
G04 #@! TO.P,R4,2*
G04 #@! TO.N,/Main/XOUT*
X91570000Y-37856000D03*
G04 #@! TD*
D14*
G04 #@! TO.P,D1,1,K*
G04 #@! TO.N,Net-(D1-K)*
X102420000Y-34350000D03*
G04 #@! TO.P,D1,2,A*
G04 #@! TO.N,/Main/P1*
X102420000Y-32475000D03*
G04 #@! TD*
D11*
G04 #@! TO.P,JP24,1,A*
G04 #@! TO.N,Net-(JP24-A)*
X159275000Y-91500000D03*
D12*
G04 #@! TO.P,JP24,2,B*
G04 #@! TO.N,/Buttons/A2*
X160575000Y-91500000D03*
G04 #@! TD*
D17*
G04 #@! TO.P,C15,1*
G04 #@! TO.N,+3.3V*
X86520000Y-30000000D03*
G04 #@! TO.P,C15,2*
G04 #@! TO.N,GND*
X87480000Y-30000000D03*
G04 #@! TD*
D11*
G04 #@! TO.P,JP5,1,A*
G04 #@! TO.N,/Main/A2*
X138430000Y-91500000D03*
D12*
G04 #@! TO.P,JP5,2,B*
G04 #@! TO.N,Net-(JP24-A)*
X139730000Y-91500000D03*
G04 #@! TD*
D21*
G04 #@! TO.P,R5,1*
G04 #@! TO.N,Net-(R5-Pad1)*
X63251000Y-42936000D03*
G04 #@! TO.P,R5,2*
G04 #@! TO.N,/Main/QSPI_SS*
X64271000Y-42936000D03*
G04 #@! TD*
D11*
G04 #@! TO.P,JP7,1,A*
G04 #@! TO.N,/Main/R1*
X138430000Y-104500000D03*
D12*
G04 #@! TO.P,JP7,2,B*
G04 #@! TO.N,Net-(JP26-A)*
X139730000Y-104500000D03*
G04 #@! TD*
D22*
G04 #@! TO.P,R2,1*
G04 #@! TO.N,Net-(J1-CC2)*
X73822000Y-31668000D03*
G04 #@! TO.P,R2,2*
G04 #@! TO.N,GND*
X73822000Y-32688000D03*
G04 #@! TD*
D23*
G04 #@! TO.P,U2,*
G04 #@! TO.N,*
X62672000Y-35678000D03*
D24*
G04 #@! TO.P,U2,1,GND*
G04 #@! TO.N,GND*
X68972000Y-37978000D03*
G04 #@! TO.P,U2,2,VO*
G04 #@! TO.N,+3.3V*
X68972000Y-35678000D03*
G04 #@! TO.P,U2,3,VI*
G04 #@! TO.N,VBUS*
X68972000Y-33378000D03*
G04 #@! TD*
D25*
G04 #@! TO.P,J2,1,Pin_1*
G04 #@! TO.N,/Main/SWCLK*
X98380000Y-31430000D03*
G04 #@! TO.P,J2,2,Pin_2*
G04 #@! TO.N,GND*
X96380000Y-31430000D03*
G04 #@! TO.P,J2,3,Pin_3*
G04 #@! TO.N,/Main/SWDIO*
X94380000Y-31430000D03*
G04 #@! TD*
D11*
G04 #@! TO.P,JP4,1,A*
G04 #@! TO.N,/Main/A1*
X138430000Y-88500000D03*
D12*
G04 #@! TO.P,JP4,2,B*
G04 #@! TO.N,Net-(JP23-A)*
X139730000Y-88500000D03*
G04 #@! TD*
D26*
G04 #@! TO.P,C11,1*
G04 #@! TO.N,+3.3V*
X81700000Y-31380000D03*
G04 #@! TO.P,C11,2*
G04 #@! TO.N,GND*
X81700000Y-30420000D03*
G04 #@! TD*
D15*
G04 #@! TO.P,C10,1*
G04 #@! TO.N,+3.3V*
X77730000Y-37500000D03*
G04 #@! TO.P,C10,2*
G04 #@! TO.N,GND*
X76770000Y-37500000D03*
G04 #@! TD*
G04 #@! TO.P,C6,1*
G04 #@! TO.N,+1V1*
X79360000Y-32930000D03*
G04 #@! TO.P,C6,2*
G04 #@! TO.N,GND*
X78400000Y-32930000D03*
G04 #@! TD*
D27*
G04 #@! TO.P,TP1,1,1*
G04 #@! TO.N,+3.3V*
X66000000Y-30750000D03*
G04 #@! TD*
D19*
G04 #@! TO.P,TP3,1,1*
G04 #@! TO.N,Net-(U1-GPIO25)*
X86400000Y-26700000D03*
G04 #@! TD*
D27*
G04 #@! TO.P,TP2,1,1*
G04 #@! TO.N,+1V1*
X73900000Y-38500000D03*
G04 #@! TD*
D28*
G04 #@! TO.P,C12,1*
G04 #@! TO.N,+3.3V*
X81630000Y-43200000D03*
G04 #@! TO.P,C12,2*
G04 #@! TO.N,GND*
X81630000Y-44160000D03*
G04 #@! TD*
G04 #@! TO.P,C3,1*
G04 #@! TO.N,GND*
X98852000Y-36728000D03*
G04 #@! TO.P,C3,2*
G04 #@! TO.N,/Main/XIN*
X98852000Y-37688000D03*
G04 #@! TD*
D11*
G04 #@! TO.P,JP22,1,A*
G04 #@! TO.N,Net-(JP22-A)*
X159275000Y-75500000D03*
D12*
G04 #@! TO.P,JP22,2,B*
G04 #@! TO.N,/Buttons/S1*
X160575000Y-75500000D03*
G04 #@! TD*
D11*
G04 #@! TO.P,JP11,1,A*
G04 #@! TO.N,/Main/R2*
X138430000Y-113500000D03*
D12*
G04 #@! TO.P,JP11,2,B*
G04 #@! TO.N,Net-(JP11-B)*
X139730000Y-113500000D03*
G04 #@! TD*
D10*
G04 #@! TO.P,,57,GND*
G04 #@! TO.N,GND*
X84716000Y-37856000D03*
G04 #@! TD*
D11*
G04 #@! TO.P,JP8,1,A*
G04 #@! TO.N,/Main/B4*
X138430000Y-101500000D03*
D12*
G04 #@! TO.P,JP8,2,B*
G04 #@! TO.N,Net-(JP27-A)*
X139730000Y-101500000D03*
G04 #@! TD*
D29*
G04 #@! TO.P,R7,1*
G04 #@! TO.N,/Main/D-*
X77425000Y-34250000D03*
G04 #@! TO.P,R7,2*
G04 #@! TO.N,Net-(U1-USB_DM)*
X79075000Y-34250000D03*
G04 #@! TD*
D10*
G04 #@! TO.P,,57,GND*
G04 #@! TO.N,GND*
X84716000Y-35824000D03*
G04 #@! TD*
D11*
G04 #@! TO.P,JP27,1,A*
G04 #@! TO.N,Net-(JP27-A)*
X159275000Y-101500000D03*
D12*
G04 #@! TO.P,JP27,2,B*
G04 #@! TO.N,/Buttons/B4*
X160575000Y-101500000D03*
G04 #@! TD*
D30*
G04 #@! TO.P,R6,1*
G04 #@! TO.N,+3.3V*
X67571000Y-43735500D03*
G04 #@! TO.P,R6,2*
G04 #@! TO.N,/Main/QSPI_SS*
X67571000Y-44930500D03*
G04 #@! TD*
D11*
G04 #@! TO.P,JP12,1,A*
G04 #@! TO.N,/Main/B2*
X138430000Y-110500000D03*
D12*
G04 #@! TO.P,JP12,2,B*
G04 #@! TO.N,Net-(JP12-B)*
X139730000Y-110500000D03*
G04 #@! TD*
D10*
G04 #@! TO.P,,57,GND*
G04 #@! TO.N,GND*
X84716000Y-36840000D03*
G04 #@! TD*
D11*
G04 #@! TO.P,JP20,1,A*
G04 #@! TO.N,Net-(JP13-B)*
X159275000Y-107500000D03*
D12*
G04 #@! TO.P,JP20,2,B*
G04 #@! TO.N,/Buttons/B1*
X160575000Y-107500000D03*
G04 #@! TD*
D11*
G04 #@! TO.P,JP21,1,A*
G04 #@! TO.N,Net-(JP2-B)*
X159275000Y-72500000D03*
D12*
G04 #@! TO.P,JP21,2,B*
G04 #@! TO.N,/Buttons/S2*
X160575000Y-72500000D03*
G04 #@! TD*
D11*
G04 #@! TO.P,JP23,1,A*
G04 #@! TO.N,Net-(JP23-A)*
X159275000Y-88500000D03*
D12*
G04 #@! TO.P,JP23,2,B*
G04 #@! TO.N,/Buttons/A1*
X160575000Y-88500000D03*
G04 #@! TD*
D17*
G04 #@! TO.P,C5,1*
G04 #@! TO.N,+3.3V*
X71536000Y-47254000D03*
G04 #@! TO.P,C5,2*
G04 #@! TO.N,GND*
X72496000Y-47254000D03*
G04 #@! TD*
D11*
G04 #@! TO.P,JP25,1,A*
G04 #@! TO.N,Net-(JP25-A)*
X159275000Y-69500000D03*
D12*
G04 #@! TO.P,JP25,2,B*
G04 #@! TO.N,/Buttons/L1*
X160575000Y-69500000D03*
G04 #@! TD*
D14*
G04 #@! TO.P,D3,1,K*
G04 #@! TO.N,Net-(D1-K)*
X107600000Y-34350000D03*
G04 #@! TO.P,D3,2,A*
G04 #@! TO.N,/Main/P3*
X107600000Y-32475000D03*
G04 #@! TD*
D11*
G04 #@! TO.P,JP13,1,A*
G04 #@! TO.N,/Main/B1*
X138430000Y-107500000D03*
D12*
G04 #@! TO.P,JP13,2,B*
G04 #@! TO.N,Net-(JP13-B)*
X139730000Y-107500000D03*
G04 #@! TD*
D17*
G04 #@! TO.P,C13,1*
G04 #@! TO.N,+3.3V*
X85900000Y-42930000D03*
G04 #@! TO.P,C13,2*
G04 #@! TO.N,GND*
X86860000Y-42930000D03*
G04 #@! TD*
D31*
G04 #@! TO.P,U1,1,IOVDD*
G04 #@! TO.N,+3.3V*
X82078000Y-40315500D03*
G04 #@! TO.P,U1,2,GPIO0*
G04 #@! TO.N,unconnected-(U1-GPIO0-Pad2)*
X82478000Y-40315500D03*
G04 #@! TO.P,U1,3,GPIO1*
G04 #@! TO.N,L2*
X82878000Y-40315500D03*
G04 #@! TO.P,U1,4,GPIO2*
G04 #@! TO.N,/Main/SPACE*
X83278000Y-40315500D03*
G04 #@! TO.P,U1,5,GPIO3*
G04 #@! TO.N,LEFT*
X83678000Y-40315500D03*
G04 #@! TO.P,U1,6,GPIO4*
G04 #@! TO.N,DOWN*
X84078000Y-40315500D03*
G04 #@! TO.P,U1,7,GPIO5*
G04 #@! TO.N,RIGHT*
X84478000Y-40315500D03*
G04 #@! TO.P,U1,8,GPIO6*
G04 #@! TO.N,W*
X84878000Y-40315500D03*
G04 #@! TO.P,U1,9,GPIO7*
G04 #@! TO.N,/Main/R2*
X85278000Y-40315500D03*
G04 #@! TO.P,U1,10,IOVDD*
G04 #@! TO.N,+3.3V*
X85678000Y-40315500D03*
G04 #@! TO.P,U1,11,GPIO8*
G04 #@! TO.N,/Main/B2*
X86078000Y-40315500D03*
G04 #@! TO.P,U1,12,GPIO9*
G04 #@! TO.N,/Main/B1*
X86478000Y-40315500D03*
G04 #@! TO.P,U1,13,GPIO10*
G04 #@! TO.N,/Main/R1*
X86878000Y-40315500D03*
G04 #@! TO.P,U1,14,GPIO11*
G04 #@! TO.N,/Main/B4*
X87278000Y-40315500D03*
D32*
G04 #@! TO.P,U1,15,GPIO12*
G04 #@! TO.N,/Main/B3*
X88115500Y-39478000D03*
G04 #@! TO.P,U1,16,GPIO13*
G04 #@! TO.N,/Main/A2*
X88115500Y-39078000D03*
G04 #@! TO.P,U1,17,GPIO14*
G04 #@! TO.N,/Main/A1*
X88115500Y-38678000D03*
G04 #@! TO.P,U1,18,GPIO15*
G04 #@! TO.N,unconnected-(U1-GPIO15-Pad18)*
X88115500Y-38278000D03*
G04 #@! TO.P,U1,19,TESTEN*
G04 #@! TO.N,GND*
X88115500Y-37878000D03*
G04 #@! TO.P,U1,20,XIN*
G04 #@! TO.N,/Main/XIN*
X88115500Y-37478000D03*
G04 #@! TO.P,U1,21,XOUT*
G04 #@! TO.N,/Main/XOUT*
X88115500Y-37078000D03*
G04 #@! TO.P,U1,22,IOVDD*
G04 #@! TO.N,+3.3V*
X88115500Y-36678000D03*
G04 #@! TO.P,U1,23,DVDD*
G04 #@! TO.N,+1V1*
X88115500Y-36278000D03*
G04 #@! TO.P,U1,24,SWCLK*
G04 #@! TO.N,/Main/SWCLK*
X88115500Y-35878000D03*
G04 #@! TO.P,U1,25,SWD*
G04 #@! TO.N,/Main/SWDIO*
X88115500Y-35478000D03*
G04 #@! TO.P,U1,26,RUN*
G04 #@! TO.N,+3.3V*
X88115500Y-35078000D03*
G04 #@! TO.P,U1,27,GPIO16*
G04 #@! TO.N,/Main/P1*
X88115500Y-34678000D03*
G04 #@! TO.P,U1,28,GPIO17*
G04 #@! TO.N,/Main/P2*
X88115500Y-34278000D03*
D31*
G04 #@! TO.P,U1,29,GPIO18*
G04 #@! TO.N,/Main/P3*
X87278000Y-33440500D03*
G04 #@! TO.P,U1,30,GPIO19*
G04 #@! TO.N,/Main/P4*
X86878000Y-33440500D03*
G04 #@! TO.P,U1,31,GPIO20*
G04 #@! TO.N,/Main/S1*
X86478000Y-33440500D03*
G04 #@! TO.P,U1,32,GPIO21*
G04 #@! TO.N,/Main/S2*
X86078000Y-33440500D03*
G04 #@! TO.P,U1,33,IOVDD*
G04 #@! TO.N,+3.3V*
X85678000Y-33440500D03*
G04 #@! TO.P,U1,34,GPIO22*
G04 #@! TO.N,/Main/L1*
X85278000Y-33440500D03*
G04 #@! TO.P,U1,35,GPIO23*
G04 #@! TO.N,/Main/L3*
X84878000Y-33440500D03*
G04 #@! TO.P,U1,36,GPIO24*
G04 #@! TO.N,unconnected-(U1-GPIO24-Pad36)*
X84478000Y-33440500D03*
G04 #@! TO.P,U1,37,GPIO25*
G04 #@! TO.N,Net-(U1-GPIO25)*
X84078000Y-33440500D03*
G04 #@! TO.P,U1,38,GPIO26_ADC0*
G04 #@! TO.N,unconnected-(U1-GPIO26_ADC0-Pad38)*
X83678000Y-33440500D03*
G04 #@! TO.P,U1,39,GPIO27_ADC1*
G04 #@! TO.N,Net-(U1-GPIO27_ADC1)*
X83278000Y-33440500D03*
G04 #@! TO.P,U1,40,GPIO28_ADC2*
G04 #@! TO.N,unconnected-(U1-GPIO28_ADC2-Pad40)*
X82878000Y-33440500D03*
G04 #@! TO.P,U1,41,GPIO29_ADC3*
G04 #@! TO.N,unconnected-(U1-GPIO29_ADC3-Pad41)*
X82478000Y-33440500D03*
G04 #@! TO.P,U1,42,IOVDD*
G04 #@! TO.N,+3.3V*
X82078000Y-33440500D03*
D32*
G04 #@! TO.P,U1,43,ADC_AVDD*
X81240500Y-34278000D03*
G04 #@! TO.P,U1,44,VREG_IN*
X81240500Y-34678000D03*
G04 #@! TO.P,U1,45,VREG_VOUT*
G04 #@! TO.N,+1V1*
X81240500Y-35078000D03*
G04 #@! TO.P,U1,46,USB_DM*
G04 #@! TO.N,Net-(U1-USB_DM)*
X81240500Y-35478000D03*
G04 #@! TO.P,U1,47,USB_DP*
G04 #@! TO.N,Net-(U1-USB_DP)*
X81240500Y-35878000D03*
G04 #@! TO.P,U1,48,USB_VDD*
G04 #@! TO.N,+3.3V*
X81240500Y-36278000D03*
G04 #@! TO.P,U1,49,IOVDD*
X81240500Y-36678000D03*
G04 #@! TO.P,U1,50,DVDD*
G04 #@! TO.N,+1V1*
X81240500Y-37078000D03*
G04 #@! TO.P,U1,51,QSPI_SD3*
G04 #@! TO.N,/Main/QSPI_SD3*
X81240500Y-37478000D03*
G04 #@! TO.P,U1,52,QSPI_SCLK*
G04 #@! TO.N,/Main/QSPI_SCLK*
X81240500Y-37878000D03*
G04 #@! TO.P,U1,53,QSPI_SD0*
G04 #@! TO.N,/Main/QSPI_SD0*
X81240500Y-38278000D03*
G04 #@! TO.P,U1,54,QSPI_SD2*
G04 #@! TO.N,/Main/QSPI_SD2*
X81240500Y-38678000D03*
G04 #@! TO.P,U1,55,QSPI_SD1*
G04 #@! TO.N,/Main/QSPI_SD1*
X81240500Y-39078000D03*
G04 #@! TO.P,U1,56,QSPI_SS*
G04 #@! TO.N,/Main/QSPI_SS*
X81240500Y-39478000D03*
D33*
G04 #@! TO.P,U1,57,GND*
G04 #@! TO.N,GND*
X84678000Y-36878000D03*
G04 #@! TD*
D11*
G04 #@! TO.P,JP6,1,A*
G04 #@! TO.N,/Main/L1*
X138430000Y-69500000D03*
D12*
G04 #@! TO.P,JP6,2,B*
G04 #@! TO.N,Net-(JP25-A)*
X139730000Y-69500000D03*
G04 #@! TD*
D34*
G04 #@! TO.P,J1,A1,GND*
G04 #@! TO.N,GND*
X79580000Y-26865000D03*
G04 #@! TO.P,J1,A4,VBUS*
G04 #@! TO.N,VBUS*
X78780000Y-26865000D03*
D35*
G04 #@! TO.P,J1,A5,CC1*
G04 #@! TO.N,Net-(J1-CC1)*
X77630000Y-26865000D03*
G04 #@! TO.P,J1,A6,D+*
G04 #@! TO.N,/Main/D+*
X76630000Y-26865000D03*
G04 #@! TO.P,J1,A7,D-*
G04 #@! TO.N,/Main/D-*
X76130000Y-26865000D03*
G04 #@! TO.P,J1,A8,SBU1*
G04 #@! TO.N,unconnected-(J1-SBU1-PadA8)*
X75130000Y-26865000D03*
D34*
G04 #@! TO.P,J1,A9,VBUS*
G04 #@! TO.N,VBUS*
X73980000Y-26865000D03*
G04 #@! TO.P,J1,A12,GND*
G04 #@! TO.N,GND*
X73180000Y-26865000D03*
G04 #@! TO.P,J1,B1,GND*
X73180000Y-26865000D03*
G04 #@! TO.P,J1,B4,VBUS*
G04 #@! TO.N,VBUS*
X73980000Y-26865000D03*
D35*
G04 #@! TO.P,J1,B5,CC2*
G04 #@! TO.N,Net-(J1-CC2)*
X74630000Y-26865000D03*
G04 #@! TO.P,J1,B6,D+*
G04 #@! TO.N,/Main/D+*
X75630000Y-26865000D03*
G04 #@! TO.P,J1,B7,D-*
G04 #@! TO.N,/Main/D-*
X77130000Y-26865000D03*
G04 #@! TO.P,J1,B8,SBU2*
G04 #@! TO.N,unconnected-(J1-SBU2-PadB8)*
X78130000Y-26865000D03*
D34*
G04 #@! TO.P,J1,B9,VBUS*
G04 #@! TO.N,VBUS*
X78780000Y-26865000D03*
G04 #@! TO.P,J1,B12,GND*
G04 #@! TO.N,GND*
X79580000Y-26865000D03*
D36*
G04 #@! TO.P,J1,S1,SHIELD*
G04 #@! TO.N,Net-(J1-SHIELD)*
X80700000Y-26295000D03*
D37*
X80700000Y-22100000D03*
D36*
X72060000Y-26295000D03*
D37*
X72060000Y-22100000D03*
G04 #@! TD*
D17*
G04 #@! TO.P,C14,1*
G04 #@! TO.N,+3.3V*
X90840000Y-36840000D03*
G04 #@! TO.P,C14,2*
G04 #@! TO.N,GND*
X91800000Y-36840000D03*
G04 #@! TD*
D11*
G04 #@! TO.P,JP26,1,A*
G04 #@! TO.N,Net-(JP26-A)*
X159275000Y-104500000D03*
D12*
G04 #@! TO.P,JP26,2,B*
G04 #@! TO.N,/Buttons/R1*
X160575000Y-104500000D03*
G04 #@! TD*
D21*
G04 #@! TO.P,R3,1*
G04 #@! TO.N,Net-(J1-CC1)*
X78620000Y-29680000D03*
G04 #@! TO.P,R3,2*
G04 #@! TO.N,GND*
X79640000Y-29680000D03*
G04 #@! TD*
D29*
G04 #@! TO.P,R8,1*
G04 #@! TO.N,/Main/D+*
X76250000Y-35800000D03*
G04 #@! TO.P,R8,2*
G04 #@! TO.N,Net-(U1-USB_DP)*
X77900000Y-35800000D03*
G04 #@! TD*
D11*
G04 #@! TO.P,JP2,1,A*
G04 #@! TO.N,/Main/S2*
X138430000Y-72500000D03*
D12*
G04 #@! TO.P,JP2,2,B*
G04 #@! TO.N,Net-(JP2-B)*
X139730000Y-72500000D03*
G04 #@! TD*
D38*
G04 #@! TO.P,U3,1,~{CS}*
G04 #@! TO.N,/Main/QSPI_SS*
X78410000Y-45349000D03*
G04 #@! TO.P,U3,2,DO(IO1)*
G04 #@! TO.N,/Main/QSPI_SD1*
X78410000Y-44079000D03*
G04 #@! TO.P,U3,3,IO2*
G04 #@! TO.N,/Main/QSPI_SD2*
X78410000Y-42809000D03*
G04 #@! TO.P,U3,4,GND*
G04 #@! TO.N,GND*
X78410000Y-41539000D03*
G04 #@! TO.P,U3,5,DI(IO0)*
G04 #@! TO.N,/Main/QSPI_SD0*
X71210000Y-41539000D03*
G04 #@! TO.P,U3,6,CLK*
G04 #@! TO.N,/Main/QSPI_SCLK*
X71210000Y-42809000D03*
G04 #@! TO.P,U3,7,IO3*
G04 #@! TO.N,/Main/QSPI_SD3*
X71210000Y-44079000D03*
G04 #@! TO.P,U3,8,VCC*
G04 #@! TO.N,+3.3V*
X71210000Y-45349000D03*
G04 #@! TD*
D11*
G04 #@! TO.P,JP19,1,A*
G04 #@! TO.N,Net-(JP12-B)*
X159275000Y-110500000D03*
D12*
G04 #@! TO.P,JP19,2,B*
G04 #@! TO.N,/Buttons/B2*
X160575000Y-110500000D03*
G04 #@! TD*
D16*
G04 #@! TO.P,SW10_SHARE1,1,1*
G04 #@! TO.N,/Buttons/S1*
X208690000Y-32540000D03*
G04 #@! TO.P,SW10_SHARE1,2,2*
G04 #@! TO.N,GND*
X215040000Y-30000000D03*
G04 #@! TD*
D20*
G04 #@! TO.P,R9,1*
G04 #@! TO.N,Net-(D1-K)*
X102510000Y-38000000D03*
G04 #@! TO.P,R9,2*
G04 #@! TO.N,GND*
X101490000Y-38000000D03*
G04 #@! TD*
D10*
G04 #@! TO.P,,57,GND*
G04 #@! TO.N,GND*
X83700000Y-37856000D03*
G04 #@! TD*
D17*
G04 #@! TO.P,C1,1*
G04 #@! TO.N,VBUS*
X68520000Y-31000000D03*
G04 #@! TO.P,C1,2*
G04 #@! TO.N,GND*
X69480000Y-31000000D03*
G04 #@! TD*
D11*
G04 #@! TO.P,JP14,1,A*
G04 #@! TO.N,/Main/SPACE*
X138430000Y-116500000D03*
D12*
G04 #@! TO.P,JP14,2,B*
G04 #@! TO.N,/Buttons/SPACE*
X139730000Y-116500000D03*
G04 #@! TD*
D11*
G04 #@! TO.P,JP17,1,A*
G04 #@! TO.N,Net-(JP10-B)*
X159275000Y-98500000D03*
D12*
G04 #@! TO.P,JP17,2,B*
G04 #@! TO.N,/Buttons/B3*
X160575000Y-98500000D03*
G04 #@! TD*
D10*
G04 #@! TO.P,,57,GND*
G04 #@! TO.N,GND*
X83700000Y-35824000D03*
G04 #@! TD*
D11*
G04 #@! TO.P,JP10,1,A*
G04 #@! TO.N,/Main/B3*
X138430000Y-98500000D03*
D12*
G04 #@! TO.P,JP10,2,B*
G04 #@! TO.N,Net-(JP10-B)*
X139730000Y-98500000D03*
G04 #@! TD*
D11*
G04 #@! TO.P,JP3,1,A*
G04 #@! TO.N,/Main/S1*
X138430000Y-75500000D03*
D12*
G04 #@! TO.P,JP3,2,B*
G04 #@! TO.N,Net-(JP22-A)*
X139730000Y-75500000D03*
G04 #@! TD*
D11*
G04 #@! TO.P,JP15,1,A*
G04 #@! TO.N,GND*
X159275000Y-94500000D03*
D12*
G04 #@! TO.P,JP15,2,B*
X160575000Y-94500000D03*
G04 #@! TD*
D26*
G04 #@! TO.P,C2,1*
G04 #@! TO.N,+3.3V*
X72000000Y-35980000D03*
G04 #@! TO.P,C2,2*
G04 #@! TO.N,GND*
X72000000Y-35020000D03*
G04 #@! TD*
D15*
G04 #@! TO.P,C4,1*
G04 #@! TO.N,GND*
X96360000Y-33680000D03*
G04 #@! TO.P,C4,2*
G04 #@! TO.N,Net-(C4-Pad2)*
X95400000Y-33680000D03*
G04 #@! TD*
D16*
G04 #@! TO.P,SW15_TOUCHPAD1,1,1*
G04 #@! TO.N,/Buttons/A2*
X239690000Y-32540000D03*
G04 #@! TO.P,SW15_TOUCHPAD1,2,2*
G04 #@! TO.N,GND*
X246040000Y-30000000D03*
G04 #@! TD*
D21*
G04 #@! TO.P,R1,1*
G04 #@! TO.N,Net-(J1-SHIELD)*
X70490000Y-29347000D03*
G04 #@! TO.P,R1,2*
G04 #@! TO.N,GND*
X71510000Y-29347000D03*
G04 #@! TD*
D16*
G04 #@! TO.P,SW14_PS1,1,1*
G04 #@! TO.N,/Buttons/A1*
X224190000Y-32540000D03*
G04 #@! TO.P,SW14_PS1,2,2*
G04 #@! TO.N,GND*
X230540000Y-30000000D03*
G04 #@! TD*
D39*
G04 #@! TO.N,GND*
X89380000Y-43430000D03*
X88500000Y-29000000D03*
X76778500Y-41602500D03*
X71880000Y-33930000D03*
X81668000Y-45222000D03*
X136500000Y-93000000D03*
X70873000Y-31252000D03*
X89669000Y-38364000D03*
X148000000Y-94500000D03*
X91880000Y-34430000D03*
X162000000Y-94500000D03*
X54880000Y-39930000D03*
X78880000Y-30930000D03*
X68968000Y-39761000D03*
X98813000Y-35189000D03*
G04 #@! TO.N,+3.3V*
X66500000Y-37500000D03*
X81630000Y-41930000D03*
X93380000Y-34180000D03*
X80630000Y-31430000D03*
X86880000Y-43930000D03*
X86000000Y-31430000D03*
G04 #@! TO.N,/Buttons/L3*
X141500000Y-55000000D03*
G04 #@! TO.N,/Buttons/L1*
X166000000Y-42000000D03*
G04 #@! TO.N,/Buttons/R1*
X220000000Y-60500000D03*
G04 #@! TO.N,/Buttons/B4*
X190000000Y-58500000D03*
G04 #@! TO.N,/Buttons/B3*
X167000000Y-75000000D03*
G04 #@! TO.N,/Buttons/R2*
X220000000Y-89500000D03*
G04 #@! TO.N,/Buttons/B2*
X191000000Y-89500000D03*
G04 #@! TO.N,/Buttons/B1*
X167000000Y-104000000D03*
G04 #@! TO.N,/Buttons/SPACE*
X143000000Y-127500000D03*
G04 #@! TO.N,DOWN*
X104000000Y-64500000D03*
G04 #@! TO.N,RIGHT*
X119500000Y-75500000D03*
G04 #@! TO.N,LEFT*
X85000000Y-58000000D03*
G04 #@! TO.N,L2*
X55000000Y-64000000D03*
G04 #@! TO.N,W*
X109000000Y-48500000D03*
G04 #@! TD*
D40*
G04 #@! TO.N,VBUS*
X73980000Y-26862590D02*
X73980000Y-27315000D01*
X73980000Y-26295001D02*
X74745001Y-25530000D01*
X68520000Y-32926000D02*
X68972000Y-33378000D01*
X69302000Y-33048000D02*
X68972000Y-33378000D01*
X70172000Y-33378000D02*
X73980000Y-29570000D01*
X78780000Y-26280000D02*
X78780000Y-26865000D01*
X73980000Y-26865000D02*
X73980000Y-26295001D01*
X68972000Y-33378000D02*
X70172000Y-33378000D01*
X74745001Y-25530000D02*
X78030000Y-25530000D01*
X73980000Y-29570000D02*
X73980000Y-27400000D01*
X78780000Y-27315000D02*
X78780000Y-26745001D01*
X78030000Y-25530000D02*
X78780000Y-26280000D01*
X68520000Y-31000000D02*
X68520000Y-32926000D01*
D41*
G04 #@! TO.N,GND*
X139730000Y-94500000D02*
X159275000Y-94500000D01*
D40*
X78400000Y-31930000D02*
X78400000Y-31410000D01*
X79580000Y-27400000D02*
X79580000Y-29370000D01*
X88500000Y-29000000D02*
X88480000Y-29000000D01*
X91800000Y-36840000D02*
X92079999Y-36840000D01*
X81668000Y-44198000D02*
X81630000Y-44160000D01*
X95296000Y-37630000D02*
X95296000Y-37530000D01*
X68968000Y-39761000D02*
X68968000Y-37982000D01*
X86860000Y-42930000D02*
X88880000Y-42930000D01*
X95296000Y-37530000D02*
X96996000Y-35830000D01*
X81700000Y-30420000D02*
X79390000Y-30420000D01*
X91800000Y-34510000D02*
X91880000Y-34430000D01*
X95296000Y-37630000D02*
X95296000Y-37730000D01*
X69950000Y-37000000D02*
X68972000Y-37978000D01*
X76270000Y-37000000D02*
X69950000Y-37000000D01*
X70621000Y-31000000D02*
X70873000Y-31252000D01*
X98852000Y-35228000D02*
X98813000Y-35189000D01*
X68968000Y-37982000D02*
X68972000Y-37978000D01*
D42*
X101490000Y-37866000D02*
X98813000Y-35189000D01*
D40*
X88115500Y-37878000D02*
X89183000Y-37878000D01*
X79640000Y-29680000D02*
X79640000Y-30170000D01*
X94007975Y-33188000D02*
X93122000Y-33188000D01*
X76778500Y-41602500D02*
X76842000Y-41539000D01*
X69480000Y-31000000D02*
X70621000Y-31000000D01*
X72000000Y-35020000D02*
X72000000Y-34050000D01*
D41*
X54880000Y-39930000D02*
X55005000Y-40055000D01*
D40*
X91800000Y-35430000D02*
X91800000Y-34510000D01*
X76520000Y-38500000D02*
X75320000Y-37300000D01*
X97304000Y-33680000D02*
X96360000Y-33680000D01*
X69650000Y-37300000D02*
X68972000Y-37978000D01*
X89183000Y-37878000D02*
X89669000Y-38364000D01*
X78400000Y-31410000D02*
X78880000Y-30930000D01*
D43*
X84640000Y-36840000D02*
X84678000Y-36878000D01*
D40*
X71510000Y-30615000D02*
X70873000Y-31252000D01*
X75320000Y-37300000D02*
X69650000Y-37300000D01*
X79640000Y-30170000D02*
X78880000Y-30930000D01*
X92079999Y-36840000D02*
X94380000Y-34539999D01*
X71510000Y-29347000D02*
X71510000Y-30615000D01*
X78400000Y-32930000D02*
X78400000Y-31930000D01*
X76770000Y-37500000D02*
X76270000Y-37000000D01*
X71880000Y-33930000D02*
X73122000Y-32688000D01*
X88480000Y-29000000D02*
X87480000Y-30000000D01*
X97237000Y-35189000D02*
X96996000Y-35430000D01*
D41*
X54755000Y-40055000D02*
X54880000Y-39930000D01*
D40*
X98852000Y-36728000D02*
X98852000Y-35228000D01*
X88880000Y-42930000D02*
X89380000Y-43430000D01*
D42*
X101490000Y-38000000D02*
X101490000Y-37866000D01*
D43*
X162000000Y-94500000D02*
X160575000Y-94500000D01*
D40*
X96996000Y-35830000D02*
X96996000Y-35430000D01*
D43*
X138000000Y-94500000D02*
X136500000Y-93000000D01*
D40*
X81668000Y-45222000D02*
X81668000Y-44198000D01*
X94380000Y-33560025D02*
X94007975Y-33188000D01*
D43*
X138430000Y-94500000D02*
X138000000Y-94500000D01*
D40*
X79390000Y-30420000D02*
X78880000Y-30930000D01*
D41*
X51905000Y-40055000D02*
X54755000Y-40055000D01*
D40*
X73180000Y-28945000D02*
X73180000Y-27400000D01*
X98813000Y-35189000D02*
X97237000Y-35189000D01*
X94380000Y-34539999D02*
X94380000Y-33560025D01*
D41*
X55005000Y-40055000D02*
X57905000Y-40055000D01*
D40*
X76778500Y-41602500D02*
X72496000Y-45885000D01*
X93122000Y-33188000D02*
X91880000Y-34430000D01*
X72000000Y-34050000D02*
X71880000Y-33930000D01*
X70873000Y-31252000D02*
X73180000Y-28945000D01*
D43*
X84716000Y-36840000D02*
X84640000Y-36840000D01*
D40*
X72496000Y-45885000D02*
X72496000Y-47254000D01*
X76842000Y-41539000D02*
X78410000Y-41539000D01*
X98813000Y-35189000D02*
X97304000Y-33680000D01*
X79580000Y-29370000D02*
X79640000Y-29430000D01*
X73122000Y-32688000D02*
X73822000Y-32688000D01*
D43*
X84716000Y-36916000D02*
X84716000Y-36840000D01*
D40*
G04 #@! TO.N,+3.3V*
X68972000Y-35678000D02*
X66000000Y-32706000D01*
X81630000Y-42968000D02*
X81862000Y-43200000D01*
X86520000Y-30000000D02*
X86520000Y-30910000D01*
X87581640Y-35078000D02*
X88115500Y-35078000D01*
X81700000Y-31400000D02*
X82078000Y-31778000D01*
X91500000Y-36180000D02*
X90840000Y-36840000D01*
X77730000Y-37500000D02*
X76830000Y-36600000D01*
X69090000Y-35796000D02*
X68972000Y-35678000D01*
X86520000Y-30910000D02*
X86000000Y-31430000D01*
X86911640Y-34408000D02*
X87581640Y-35078000D01*
X82078000Y-31778000D02*
X82078000Y-33440500D01*
X78552000Y-36678000D02*
X80000000Y-36678000D01*
X81240500Y-36678000D02*
X80000000Y-36678000D01*
X90840000Y-36840000D02*
X90678000Y-36678000D01*
X80630000Y-31430000D02*
X79860000Y-31430000D01*
X93380000Y-34786134D02*
X91986134Y-36180000D01*
X67571000Y-43735500D02*
X69184500Y-45349000D01*
X66500000Y-42664500D02*
X66500000Y-37500000D01*
X77730000Y-37500000D02*
X78552000Y-36678000D01*
X81630000Y-41930000D02*
X81630000Y-42968000D01*
X81240500Y-34678000D02*
X81240500Y-34278000D01*
X69632000Y-35980000D02*
X72000000Y-35980000D01*
X69184500Y-45349000D02*
X71210000Y-45349000D01*
X76830000Y-36600000D02*
X72620000Y-36600000D01*
X85678000Y-33440500D02*
X85678000Y-33974360D01*
D44*
X69204000Y-35910000D02*
X68972000Y-35678000D01*
D40*
X85678000Y-31752000D02*
X85678000Y-33440500D01*
X81700000Y-31380000D02*
X80680000Y-31380000D01*
X80400000Y-36278000D02*
X80000000Y-36678000D01*
X81700000Y-31380000D02*
X81700000Y-31400000D01*
X71536000Y-45675000D02*
X71536000Y-47254000D01*
X71210000Y-45349000D02*
X71536000Y-45675000D01*
X93380000Y-34180000D02*
X93380000Y-34786134D01*
X81240500Y-34678000D02*
X81240500Y-33810500D01*
X79860000Y-31430000D02*
X79360000Y-31930000D01*
X81630000Y-41930000D02*
X81630000Y-40763500D01*
X68972000Y-35678000D02*
X69330000Y-35678000D01*
X66000000Y-32706000D02*
X66000000Y-30750000D01*
X86111640Y-34408000D02*
X86911640Y-34408000D01*
X86000000Y-31430000D02*
X85678000Y-31752000D01*
X80680000Y-31380000D02*
X80630000Y-31430000D01*
X72620000Y-36600000D02*
X72000000Y-35980000D01*
X86880000Y-43910000D02*
X85900000Y-42930000D01*
X86880000Y-43930000D02*
X86880000Y-43910000D01*
X85678000Y-42026000D02*
X85678000Y-40315500D01*
X91986134Y-36180000D02*
X91500000Y-36180000D01*
X85678000Y-33974360D02*
X86111640Y-34408000D01*
X81240500Y-33810500D02*
X79360000Y-31930000D01*
D43*
X68972000Y-35678000D02*
X68322000Y-35678000D01*
D40*
X85900000Y-42930000D02*
X85900000Y-42248000D01*
X81630000Y-40763500D02*
X82078000Y-40315500D01*
X90678000Y-36678000D02*
X88115500Y-36678000D01*
X69330000Y-35678000D02*
X69632000Y-35980000D01*
D43*
X68322000Y-35678000D02*
X66500000Y-37500000D01*
D40*
X85900000Y-42248000D02*
X85678000Y-42026000D01*
X67571000Y-43735500D02*
X66500000Y-42664500D01*
X81240500Y-36278000D02*
X80400000Y-36278000D01*
D41*
G04 #@! TO.N,Net-(C4-Pad2)*
X92870000Y-37856000D02*
X92590000Y-37856000D01*
X95296000Y-35430000D02*
X92870000Y-37856000D01*
X95400000Y-35326000D02*
X95296000Y-35430000D01*
X95400000Y-33930000D02*
X95400000Y-35326000D01*
D40*
G04 #@! TO.N,Net-(J1-SHIELD)*
X80700000Y-26280000D02*
X80700000Y-26030000D01*
X70490000Y-29347000D02*
X70490000Y-28265000D01*
X72060000Y-22830000D02*
X73660000Y-24430000D01*
X72060000Y-22100000D02*
X72060000Y-22830000D01*
X79100000Y-24430000D02*
X73660000Y-24430000D01*
X72060000Y-26030000D02*
X72060000Y-26280000D01*
X80700000Y-22100000D02*
X80700000Y-22830000D01*
X80700000Y-22830000D02*
X79100000Y-24430000D01*
X70490000Y-28265000D02*
X72060000Y-26695000D01*
X80700000Y-26030000D02*
X79100000Y-24430000D01*
X73660000Y-24430000D02*
X72060000Y-26030000D01*
G04 #@! TO.N,Net-(J1-CC2)*
X73822000Y-31668000D02*
X74630000Y-30860000D01*
X74630000Y-30860000D02*
X74630000Y-27400000D01*
D41*
G04 #@! TO.N,Net-(J1-CC1)*
X78620000Y-29680000D02*
X78620000Y-29170000D01*
X78620000Y-29170000D02*
X77630000Y-28180000D01*
X77630000Y-28180000D02*
X77630000Y-27400000D01*
G04 #@! TO.N,Net-(U1-GPIO25)*
X86400000Y-26700000D02*
X86000000Y-26700000D01*
X84078000Y-28622000D02*
X84078000Y-33440500D01*
X86000000Y-26700000D02*
X84078000Y-28622000D01*
G04 #@! TO.N,Net-(U1-GPIO27_ADC1)*
X83278000Y-33440500D02*
X83278000Y-27522000D01*
X83278000Y-27522000D02*
X84100000Y-26700000D01*
D40*
G04 #@! TO.N,+1V1*
X74510000Y-39110000D02*
X73900000Y-38500000D01*
X81774360Y-37078000D02*
X81240500Y-37078000D01*
X81978000Y-36874360D02*
X81774360Y-37078000D01*
X77480000Y-38500000D02*
X77666134Y-38500000D01*
X80706640Y-35078000D02*
X80000000Y-34371360D01*
X80000000Y-34371360D02*
X80000000Y-33570000D01*
X81240500Y-35078000D02*
X80706640Y-35078000D01*
X81774360Y-35078000D02*
X81978000Y-35281640D01*
X81240500Y-35078000D02*
X81774360Y-35078000D01*
X77480000Y-38500000D02*
X76870000Y-39110000D01*
X81978000Y-35281640D02*
X81978000Y-36874360D01*
X87459640Y-36278000D02*
X88115500Y-36278000D01*
X87002000Y-35820360D02*
X87459640Y-36278000D01*
X77666134Y-38500000D02*
X79088134Y-37078000D01*
X86682000Y-34808000D02*
X87002000Y-35128000D01*
X89992000Y-36278000D02*
X90840000Y-35430000D01*
X82430000Y-34808000D02*
X86682000Y-34808000D01*
X79088134Y-37078000D02*
X81240500Y-37078000D01*
X80000000Y-33570000D02*
X79360000Y-32930000D01*
X82160000Y-35078000D02*
X82430000Y-34808000D01*
X76870000Y-39110000D02*
X74510000Y-39110000D01*
X88115500Y-36278000D02*
X89992000Y-36278000D01*
X81240500Y-35078000D02*
X82160000Y-35078000D01*
X87002000Y-35128000D02*
X87002000Y-35820360D01*
D41*
G04 #@! TO.N,Net-(R5-Pad1)*
X63245000Y-42930000D02*
X63251000Y-42936000D01*
X57905000Y-43805000D02*
X51905000Y-43805000D01*
X57905000Y-43805000D02*
X62382000Y-43805000D01*
X62382000Y-43805000D02*
X63251000Y-42936000D01*
D40*
G04 #@! TO.N,Net-(U1-USB_DM)*
X81240500Y-35478000D02*
X79988000Y-35478000D01*
X79988000Y-35478000D02*
X79010000Y-34500000D01*
G04 #@! TO.N,Net-(U1-USB_DP)*
X81240500Y-35878000D02*
X77978000Y-35878000D01*
X77978000Y-35878000D02*
X77900000Y-35800000D01*
X78028000Y-35878000D02*
X77900000Y-35750000D01*
D41*
G04 #@! TO.N,/Main/XIN*
X95746000Y-38880000D02*
X91339026Y-38880000D01*
X97180000Y-37630000D02*
X97238000Y-37688000D01*
X89937026Y-37478000D02*
X88115500Y-37478000D01*
X91339026Y-38880000D02*
X89937026Y-37478000D01*
X97238000Y-37688000D02*
X98852000Y-37688000D01*
X96996000Y-37630000D02*
X95746000Y-38880000D01*
X96996000Y-37630000D02*
X97180000Y-37630000D01*
G04 #@! TO.N,/Main/XOUT*
X90810000Y-37856000D02*
X90032000Y-37078000D01*
X90032000Y-37078000D02*
X88115500Y-37078000D01*
X91570000Y-37856000D02*
X90810000Y-37856000D01*
G04 #@! TO.N,/Main/QSPI_SS*
X64271000Y-42936000D02*
X65576500Y-42936000D01*
X65576500Y-42936000D02*
X67571000Y-44930500D01*
X70479500Y-47839000D02*
X75920000Y-47839000D01*
X78410000Y-45349000D02*
X79209999Y-45349000D01*
X80652000Y-40066500D02*
X81240500Y-39478000D01*
X80652000Y-43906999D02*
X80652000Y-40066500D01*
X79209999Y-45349000D02*
X80652000Y-43906999D01*
X67571000Y-44930500D02*
X70479500Y-47839000D01*
X75920000Y-47839000D02*
X78410000Y-45349000D01*
D40*
G04 #@! TO.N,/Main/D-*
X77130000Y-26880000D02*
X77130000Y-28781880D01*
X76130000Y-27781880D02*
X76130000Y-26880000D01*
D43*
X76994470Y-33819470D02*
X77425000Y-34250000D01*
X76994470Y-28781880D02*
X76994470Y-33819470D01*
D40*
X76994470Y-28781880D02*
X76130000Y-27917410D01*
X76130000Y-27917410D02*
X76130000Y-27315000D01*
X77130000Y-28781880D02*
X76994470Y-28781880D01*
G04 #@! TO.N,/Main/D+*
X76630000Y-26252590D02*
X76307410Y-25930000D01*
X75952590Y-25930000D02*
X75630000Y-26252590D01*
X75630000Y-26252590D02*
X75630000Y-28680000D01*
X76307410Y-25930000D02*
X75952590Y-25930000D01*
D43*
X75630000Y-35130000D02*
X75630000Y-28680000D01*
X76250000Y-35750000D02*
X75630000Y-35130000D01*
D40*
X76630000Y-26880000D02*
X76630000Y-26252590D01*
D41*
G04 #@! TO.N,/Main/SWCLK*
X92497000Y-32813000D02*
X89432000Y-35878000D01*
X96997000Y-32813000D02*
X92497000Y-32813000D01*
X89432000Y-35878000D02*
X88115500Y-35878000D01*
X98380000Y-31430000D02*
X96997000Y-32813000D01*
G04 #@! TO.N,/Main/SWDIO*
X92970000Y-31430000D02*
X94380000Y-31430000D01*
X88115500Y-35478000D02*
X88922000Y-35478000D01*
X88922000Y-35478000D02*
X92970000Y-31430000D01*
G04 #@! TO.N,/Main/QSPI_SD3*
X77818016Y-39696000D02*
X71065000Y-39696000D01*
X81240500Y-37478000D02*
X80036016Y-37478000D01*
X69785000Y-40976000D02*
X69785000Y-42864000D01*
X69785000Y-42864000D02*
X71000000Y-44079000D01*
X71000000Y-44079000D02*
X71210000Y-44079000D01*
X71065000Y-39696000D02*
X69785000Y-40976000D01*
X80036016Y-37478000D02*
X77818016Y-39696000D01*
G04 #@! TO.N,/Main/QSPI_SCLK*
X78075042Y-40046000D02*
X71223000Y-40046000D01*
X70410001Y-42809000D02*
X71210000Y-42809000D01*
X80243042Y-37878000D02*
X78075042Y-40046000D01*
X70135000Y-41134000D02*
X70135000Y-42533999D01*
X71223000Y-40046000D02*
X70135000Y-41134000D01*
X70135000Y-42533999D02*
X70410001Y-42809000D01*
X81240500Y-37878000D02*
X80243042Y-37878000D01*
G04 #@! TO.N,/Main/QSPI_SD0*
X80338016Y-38278000D02*
X81240500Y-38278000D01*
X78220016Y-40396000D02*
X80338016Y-38278000D01*
X71210000Y-41539000D02*
X72353000Y-40396000D01*
X72353000Y-40396000D02*
X78220016Y-40396000D01*
G04 #@! TO.N,/Main/QSPI_SD2*
X78410000Y-42809000D02*
X79209999Y-42809000D01*
X80534000Y-38678000D02*
X81240500Y-38678000D01*
X79209999Y-42809000D02*
X79630000Y-42388999D01*
X79630000Y-42388999D02*
X79630000Y-39582000D01*
X79630000Y-39582000D02*
X80534000Y-38678000D01*
G04 #@! TO.N,/Main/QSPI_SD1*
X80144000Y-39562974D02*
X80628974Y-39078000D01*
X79209999Y-44079000D02*
X80144000Y-43144999D01*
X78410000Y-44079000D02*
X79209999Y-44079000D01*
X80628974Y-39078000D02*
X81240500Y-39078000D01*
X80144000Y-43144999D02*
X80144000Y-39562974D01*
D42*
G04 #@! TO.N,Net-(D1-K)*
X102420000Y-34437500D02*
X102420000Y-37910000D01*
D40*
X102420000Y-34200000D02*
X110190000Y-34200000D01*
D42*
X102420000Y-37910000D02*
X102510000Y-38000000D01*
D41*
G04 #@! TO.N,/Buttons/L3*
X139730000Y-52500000D02*
X141500000Y-54270000D01*
X141500000Y-54270000D02*
X141500000Y-55000000D01*
G04 #@! TO.N,/Buttons/S2*
X160575000Y-72500000D02*
X163000000Y-72500000D01*
X191960000Y-32540000D02*
X193190000Y-32540000D01*
X189500000Y-35000000D02*
X191960000Y-32540000D01*
X163000000Y-72500000D02*
X189500000Y-46000000D01*
X189500000Y-46000000D02*
X189500000Y-35000000D01*
G04 #@! TO.N,/Buttons/S1*
X163258061Y-75500000D02*
X160575000Y-75500000D01*
X206218061Y-32540000D02*
X163258061Y-75500000D01*
X208690000Y-32540000D02*
X206218061Y-32540000D01*
G04 #@! TO.N,/Buttons/A1*
X165500000Y-74505026D02*
X200505026Y-39500000D01*
X223460000Y-32540000D02*
X224190000Y-32540000D01*
X165500000Y-83575000D02*
X165500000Y-74505026D01*
X200505026Y-39500000D02*
X216500000Y-39500000D01*
X216500000Y-39500000D02*
X223460000Y-32540000D01*
X160575000Y-88500000D02*
X165500000Y-83575000D01*
X224190000Y-32540000D02*
X222960000Y-32540000D01*
G04 #@! TO.N,/Buttons/A2*
X166000000Y-74500000D02*
X166000000Y-86075000D01*
X239690000Y-32540000D02*
X238460000Y-32540000D01*
X166000000Y-86075000D02*
X160575000Y-91500000D01*
X238460000Y-32540000D02*
X221000000Y-50000000D01*
X221000000Y-50000000D02*
X190500000Y-50000000D01*
X190500000Y-50000000D02*
X166000000Y-74500000D01*
G04 #@! TO.N,/Buttons/L1*
X162000000Y-68075000D02*
X162000000Y-46000000D01*
X160575000Y-69500000D02*
X162000000Y-68075000D01*
X162000000Y-46000000D02*
X166000000Y-42000000D01*
G04 #@! TO.N,/Buttons/R1*
X179575000Y-85500000D02*
X194000000Y-85500000D01*
X219000000Y-60500000D02*
X220000000Y-60500000D01*
X160575000Y-104500000D02*
X179575000Y-85500000D01*
X194000000Y-85500000D02*
X219000000Y-60500000D01*
G04 #@! TO.N,/Buttons/B4*
X160575000Y-101500000D02*
X160575000Y-100925000D01*
X160575000Y-100925000D02*
X190000000Y-71500000D01*
X190000000Y-71500000D02*
X190000000Y-58500000D01*
G04 #@! TO.N,/Buttons/B3*
X167000000Y-92075000D02*
X167000000Y-75000000D01*
X160575000Y-98500000D02*
X167000000Y-92075000D01*
G04 #@! TO.N,/Buttons/R2*
X196000000Y-113500000D02*
X220000000Y-89500000D01*
X160575000Y-113500000D02*
X196000000Y-113500000D01*
G04 #@! TO.N,/Buttons/B2*
X191000000Y-96500000D02*
X191000000Y-89500000D01*
X160575000Y-110500000D02*
X177000000Y-110500000D01*
X177000000Y-110500000D02*
X191000000Y-96500000D01*
G04 #@! TO.N,/Buttons/B1*
X167000000Y-104000000D02*
X163500000Y-107500000D01*
X163500000Y-107500000D02*
X160575000Y-107500000D01*
G04 #@! TO.N,/Buttons/SPACE*
X143000000Y-119770000D02*
X139730000Y-116500000D01*
X143000000Y-127500000D02*
X143000000Y-119770000D01*
G04 #@! TO.N,/Main/S2*
X91259335Y-27500000D02*
X124500000Y-27500000D01*
X137294909Y-71364909D02*
X138430000Y-72500000D01*
X124500000Y-27500000D02*
X137294909Y-40294909D01*
X86078000Y-32681335D02*
X91259335Y-27500000D01*
X86078000Y-33440500D02*
X86078000Y-32681335D01*
X137294909Y-40294909D02*
X137294909Y-71364909D01*
G04 #@! TO.N,/Main/S1*
X91254310Y-28000000D02*
X123610632Y-28000000D01*
X136944909Y-41334277D02*
X136944909Y-74014909D01*
X86478000Y-33440500D02*
X86478000Y-32776310D01*
X123610632Y-28000000D02*
X136944909Y-41334277D01*
X86478000Y-32776310D02*
X91254310Y-28000000D01*
X136944909Y-74014909D02*
X138430000Y-75500000D01*
G04 #@! TO.N,/Main/A1*
X126230000Y-39230000D02*
X89260980Y-39230000D01*
X138430000Y-88500000D02*
X136500000Y-86570000D01*
X89260980Y-39230000D02*
X88708980Y-38678000D01*
X136500000Y-86570000D02*
X136500000Y-49500000D01*
X136500000Y-49500000D02*
X126230000Y-39230000D01*
X88708980Y-38678000D02*
X88115500Y-38678000D01*
G04 #@! TO.N,/Main/A2*
X135500000Y-88570000D02*
X135500000Y-49500000D01*
X88614006Y-39078000D02*
X88115500Y-39078000D01*
X125580000Y-39580000D02*
X89116006Y-39580000D01*
X89116006Y-39580000D02*
X88614006Y-39078000D01*
X138430000Y-91500000D02*
X135500000Y-88570000D01*
X135500000Y-49500000D02*
X125580000Y-39580000D01*
G04 #@! TO.N,/Main/L1*
X137644909Y-39144909D02*
X137644909Y-68714909D01*
X85278000Y-30341220D02*
X88619220Y-27000000D01*
X125500000Y-27000000D02*
X137644909Y-39144909D01*
X85278000Y-33440500D02*
X85278000Y-30341220D01*
X88619220Y-27000000D02*
X125500000Y-27000000D01*
X137644909Y-68714909D02*
X138430000Y-69500000D01*
G04 #@! TO.N,/Main/R1*
X138430000Y-104500000D02*
X134000000Y-100070000D01*
X134000000Y-100070000D02*
X134000000Y-51000000D01*
X124430000Y-41430000D02*
X87493994Y-41430000D01*
X87493994Y-41430000D02*
X86878000Y-40814006D01*
X134000000Y-51000000D02*
X124430000Y-41430000D01*
X86878000Y-40814006D02*
X86878000Y-40315500D01*
G04 #@! TO.N,/Main/B4*
X138430000Y-101500000D02*
X134500000Y-97570000D01*
X124315500Y-40315500D02*
X87278000Y-40315500D01*
X134500000Y-97570000D02*
X134500000Y-50500000D01*
X134500000Y-50500000D02*
X124315500Y-40315500D01*
G04 #@! TO.N,/Main/L3*
X84878000Y-30246245D02*
X88624245Y-26500000D01*
X84878000Y-33440500D02*
X84878000Y-30246245D01*
X126500000Y-26500000D02*
X138430000Y-38430000D01*
X138430000Y-38430000D02*
X138430000Y-52500000D01*
X88624245Y-26500000D02*
X126500000Y-26500000D01*
G04 #@! TO.N,/Main/B3*
X124930000Y-39930000D02*
X88567500Y-39930000D01*
X135000000Y-50000000D02*
X124930000Y-39930000D01*
X135000000Y-95070000D02*
X135000000Y-50000000D01*
X138430000Y-98500000D02*
X135000000Y-95070000D01*
X88567500Y-39930000D02*
X88115500Y-39478000D01*
G04 #@! TO.N,/Main/R2*
X125000000Y-45000000D02*
X86450000Y-45000000D01*
X132500000Y-52500000D02*
X125000000Y-45000000D01*
X138430000Y-113500000D02*
X132500000Y-107570000D01*
X132500000Y-107570000D02*
X132500000Y-52500000D01*
X86450000Y-45000000D02*
X85278000Y-43828000D01*
X85278000Y-43828000D02*
X85278000Y-40315500D01*
G04 #@! TO.N,/Main/B2*
X86580000Y-42130000D02*
X86078000Y-41628000D01*
X133000000Y-105070000D02*
X133000000Y-52000000D01*
X86078000Y-41628000D02*
X86078000Y-40315500D01*
X133000000Y-52000000D02*
X123130000Y-42130000D01*
X123130000Y-42130000D02*
X86580000Y-42130000D01*
X138430000Y-110500000D02*
X133000000Y-105070000D01*
G04 #@! TO.N,/Main/B1*
X86478000Y-41171003D02*
X86478000Y-40315500D01*
X133500000Y-51500000D02*
X123780000Y-41780000D01*
X138430000Y-107500000D02*
X133500000Y-102570000D01*
X123780000Y-41780000D02*
X87086997Y-41780000D01*
X87086997Y-41780000D02*
X86478000Y-41171003D01*
X133500000Y-102570000D02*
X133500000Y-51500000D01*
G04 #@! TO.N,/Main/SPACE*
X83278000Y-61250000D02*
X83278000Y-40315500D01*
X138430000Y-116500000D02*
X83278000Y-61348000D01*
X83278000Y-61278000D02*
X83278000Y-61250000D01*
X83278000Y-61348000D02*
X83278000Y-61250000D01*
G04 #@! TO.N,DOWN*
X104000000Y-64500000D02*
X104000000Y-61500000D01*
X92128000Y-49628000D02*
X86696750Y-49628000D01*
X104000000Y-61500000D02*
X92128000Y-49628000D01*
X84078000Y-47009250D02*
X84078000Y-40315500D01*
X86696750Y-49628000D02*
X84078000Y-47009250D01*
G04 #@! TO.N,RIGHT*
X119500000Y-67500000D02*
X115500000Y-63500000D01*
X115500000Y-63500000D02*
X112500000Y-63500000D01*
X84478000Y-46528000D02*
X84478000Y-40315500D01*
X85880000Y-47930000D02*
X84478000Y-46528000D01*
X112500000Y-63500000D02*
X96930000Y-47930000D01*
X119500000Y-75500000D02*
X119500000Y-67500000D01*
X96930000Y-47930000D02*
X85880000Y-47930000D01*
G04 #@! TO.N,LEFT*
X85000000Y-58000000D02*
X83678000Y-56678000D01*
X83678000Y-56678000D02*
X83678000Y-40315500D01*
G04 #@! TO.N,L2*
X63141696Y-62500000D02*
X77371696Y-48270000D01*
X55000000Y-64000000D02*
X56500000Y-62500000D01*
X82040000Y-48270000D02*
X82878000Y-47432000D01*
X77371696Y-48270000D02*
X82040000Y-48270000D01*
X56500000Y-62500000D02*
X63141696Y-62500000D01*
X82878000Y-47432000D02*
X82878000Y-40315500D01*
G04 #@! TO.N,W*
X106930000Y-46430000D02*
X86498750Y-46430000D01*
X86498750Y-46430000D02*
X84878000Y-44809250D01*
X84878000Y-44809250D02*
X84878000Y-40315500D01*
X109000000Y-48500000D02*
X106930000Y-46430000D01*
G04 #@! TO.N,Net-(JP2-B)*
X159275000Y-72500000D02*
X139730000Y-72500000D01*
G04 #@! TO.N,Net-(JP22-A)*
X139730000Y-75500000D02*
X159275000Y-75500000D01*
G04 #@! TO.N,Net-(JP23-A)*
X159275000Y-88500000D02*
X139730000Y-88500000D01*
G04 #@! TO.N,Net-(JP24-A)*
X159275000Y-91500000D02*
X139730000Y-91500000D01*
G04 #@! TO.N,Net-(JP25-A)*
X139730000Y-69500000D02*
X159275000Y-69500000D01*
G04 #@! TO.N,Net-(JP26-A)*
X159275000Y-104500000D02*
X139730000Y-104500000D01*
G04 #@! TO.N,Net-(JP27-A)*
X139730000Y-101500000D02*
X159275000Y-101500000D01*
G04 #@! TO.N,Net-(JP10-B)*
X159275000Y-98500000D02*
X139730000Y-98500000D01*
G04 #@! TO.N,Net-(JP11-B)*
X139730000Y-113500000D02*
X159275000Y-113500000D01*
G04 #@! TO.N,Net-(JP12-B)*
X159275000Y-110500000D02*
X139730000Y-110500000D01*
G04 #@! TO.N,Net-(JP13-B)*
X139730000Y-107500000D02*
X159275000Y-107500000D01*
D40*
G04 #@! TO.N,/Main/P1*
X89144336Y-34678000D02*
X88115500Y-34678000D01*
X102420000Y-32625000D02*
X99456168Y-29661168D01*
X94161168Y-29661168D02*
X89144336Y-34678000D01*
X99456168Y-29661168D02*
X94161168Y-29661168D01*
G04 #@! TO.N,/Main/P2*
X93132332Y-29261168D02*
X88115500Y-34278000D01*
X101646168Y-29261168D02*
X93132332Y-29261168D01*
X105010000Y-32625000D02*
X101646168Y-29261168D01*
G04 #@! TO.N,/Main/P3*
X91857332Y-28861168D02*
X87278000Y-33440500D01*
X103836168Y-28861168D02*
X91857332Y-28861168D01*
X107600000Y-32625000D02*
X103836168Y-28861168D01*
G04 #@! TO.N,/Main/P4*
X86878000Y-32906640D02*
X86878000Y-33440500D01*
X110190000Y-32625000D02*
X106026168Y-28461168D01*
X106026168Y-28461168D02*
X91323472Y-28461168D01*
X91323472Y-28461168D02*
X86878000Y-32906640D01*
G04 #@! TD*
G04 #@! TA.AperFunction,Conductor*
G04 #@! TO.N,+3.3V*
G36*
X81730473Y-41133427D02*
G01*
X81733000Y-41137200D01*
X81995053Y-41766129D01*
X81995072Y-41775084D01*
X81988755Y-41781428D01*
X81634502Y-41929123D01*
X81625548Y-41929144D01*
X81625498Y-41929123D01*
X81271244Y-41781428D01*
X81264926Y-41775081D01*
X81264945Y-41766131D01*
X81527000Y-41137199D01*
X81533345Y-41130881D01*
X81537800Y-41130000D01*
X81722200Y-41130000D01*
X81730473Y-41133427D01*
G37*
G04 #@! TD.AperFunction*
G04 #@! TD*
G04 #@! TA.AperFunction,Conductor*
G04 #@! TO.N,+3.3V*
G36*
X93736502Y-34327632D02*
G01*
X93742820Y-34333979D01*
X93742799Y-34342933D01*
X93741767Y-34344873D01*
X93321524Y-34981954D01*
X93314108Y-34986973D01*
X93305315Y-34985279D01*
X93303484Y-34983785D01*
X93174246Y-34854547D01*
X93171348Y-34849753D01*
X93014122Y-34344873D01*
X93013621Y-34343262D01*
X93014433Y-34334345D01*
X93020302Y-34328979D01*
X93376211Y-34181159D01*
X93385163Y-34181151D01*
X93736502Y-34327632D01*
G37*
G04 #@! TD.AperFunction*
G04 #@! TD*
G04 #@! TA.AperFunction,Conductor*
G04 #@! TO.N,GND*
G36*
X92237483Y-34578041D02*
G01*
X92243801Y-34584388D01*
X92243780Y-34593342D01*
X92243216Y-34594509D01*
X91903341Y-35208056D01*
X91896334Y-35213633D01*
X91893106Y-35214087D01*
X91708702Y-35214087D01*
X91700429Y-35210660D01*
X91697497Y-35205753D01*
X91513483Y-34593177D01*
X91514384Y-34584268D01*
X91520183Y-34579013D01*
X91875500Y-34430875D01*
X91884449Y-34430855D01*
X92237483Y-34578041D01*
G37*
G04 #@! TD.AperFunction*
G04 #@! TD*
G04 #@! TA.AperFunction,Conductor*
G04 #@! TO.N,GND*
G36*
X92376717Y-33796592D02*
G01*
X92380490Y-33799119D01*
X92510880Y-33929509D01*
X92514307Y-33937782D01*
X92513426Y-33942237D01*
X92254005Y-34572256D01*
X92247686Y-34578601D01*
X92238734Y-34578621D01*
X91883804Y-34432563D01*
X91877457Y-34426245D01*
X91877436Y-34426195D01*
X91731378Y-34071265D01*
X91731399Y-34062311D01*
X91737742Y-34055994D01*
X92367764Y-33796573D01*
X92376717Y-33796592D01*
G37*
G04 #@! TD.AperFunction*
G04 #@! TD*
G04 #@! TA.AperFunction,Conductor*
G04 #@! TO.N,GND*
G36*
X98664428Y-34830244D02*
G01*
X98812123Y-35184498D01*
X98812144Y-35193452D01*
X98812123Y-35193502D01*
X98664428Y-35547755D01*
X98658081Y-35554073D01*
X98649129Y-35554053D01*
X98020200Y-35291999D01*
X98013881Y-35285654D01*
X98013000Y-35281199D01*
X98013000Y-35096800D01*
X98016427Y-35088527D01*
X98020200Y-35086000D01*
X98649131Y-34823945D01*
X98658084Y-34823927D01*
X98664428Y-34830244D01*
G37*
G04 #@! TD.AperFunction*
G04 #@! TD*
G04 #@! TA.AperFunction,Conductor*
G04 #@! TO.N,GND*
G36*
X76774695Y-41599936D02*
G01*
X76781042Y-41606254D01*
X76781063Y-41606304D01*
X76927121Y-41961234D01*
X76927100Y-41970188D01*
X76920756Y-41976505D01*
X76290737Y-42235926D01*
X76281782Y-42235907D01*
X76278009Y-42233380D01*
X76147619Y-42102990D01*
X76144192Y-42094717D01*
X76145072Y-42090266D01*
X76404494Y-41460242D01*
X76410813Y-41453898D01*
X76419764Y-41453878D01*
X76774695Y-41599936D01*
G37*
G04 #@! TD.AperFunction*
G04 #@! TD*
G04 #@! TA.AperFunction,Conductor*
G04 #@! TO.N,GND*
G36*
X98325233Y-34555572D02*
G01*
X98893944Y-34789747D01*
X98955256Y-34814994D01*
X98961601Y-34821313D01*
X98961621Y-34830265D01*
X98815563Y-35185195D01*
X98809245Y-35191542D01*
X98809195Y-35191563D01*
X98454265Y-35337621D01*
X98445311Y-35337600D01*
X98438994Y-35331256D01*
X98378851Y-35185195D01*
X98179573Y-34701235D01*
X98179592Y-34692282D01*
X98182116Y-34688512D01*
X98312510Y-34558118D01*
X98320782Y-34554692D01*
X98325233Y-34555572D01*
G37*
G04 #@! TD.AperFunction*
G04 #@! TD*
G04 #@! TA.AperFunction,Conductor*
G04 #@! TO.N,GND*
G36*
X72376717Y-33296592D02*
G01*
X72380490Y-33299119D01*
X72510880Y-33429509D01*
X72514307Y-33437782D01*
X72513426Y-33442237D01*
X72254005Y-34072256D01*
X72247686Y-34078601D01*
X72238734Y-34078621D01*
X71883804Y-33932563D01*
X71877457Y-33926245D01*
X71877436Y-33926195D01*
X71731378Y-33571265D01*
X71731399Y-33562311D01*
X71737742Y-33555994D01*
X72367764Y-33296573D01*
X72376717Y-33296592D01*
G37*
G04 #@! TD.AperFunction*
G04 #@! TD*
G04 #@! TA.AperFunction,Conductor*
G04 #@! TO.N,+3.3V*
G36*
X66858755Y-37648571D02*
G01*
X66865073Y-37654918D01*
X66865053Y-37663870D01*
X66603000Y-38292800D01*
X66596655Y-38299119D01*
X66592200Y-38300000D01*
X66407800Y-38300000D01*
X66399527Y-38296573D01*
X66397000Y-38292800D01*
X66134945Y-37663868D01*
X66134927Y-37654915D01*
X66141242Y-37648572D01*
X66495500Y-37500875D01*
X66504449Y-37500855D01*
X66858755Y-37648571D01*
G37*
G04 #@! TD.AperFunction*
G04 #@! TD*
G04 #@! TA.AperFunction,Conductor*
G04 #@! TO.N,GND*
G36*
X72240350Y-34079236D02*
G01*
X72246668Y-34085583D01*
X72247225Y-34092766D01*
X72102153Y-34697162D01*
X72096890Y-34704407D01*
X72090776Y-34706131D01*
X71906484Y-34706131D01*
X71898211Y-34702704D01*
X71896563Y-34700634D01*
X71517759Y-34094767D01*
X71516279Y-34085935D01*
X71521477Y-34078643D01*
X71523171Y-34077768D01*
X71875500Y-33930875D01*
X71884449Y-33930855D01*
X72240350Y-34079236D01*
G37*
G04 #@! TD.AperFunction*
G04 #@! TD*
G04 #@! TA.AperFunction,Conductor*
G04 #@! TO.N,+3.3V*
G36*
X81988755Y-42078571D02*
G01*
X81995073Y-42084918D01*
X81995053Y-42093870D01*
X81733000Y-42722800D01*
X81726655Y-42729119D01*
X81722200Y-42730000D01*
X81537800Y-42730000D01*
X81529527Y-42726573D01*
X81527000Y-42722800D01*
X81264945Y-42093868D01*
X81264927Y-42084915D01*
X81271242Y-42078572D01*
X81625500Y-41930875D01*
X81634449Y-41930855D01*
X81988755Y-42078571D01*
G37*
G04 #@! TD.AperFunction*
G04 #@! TD*
G04 #@! TA.AperFunction,Conductor*
G04 #@! TO.N,GND*
G36*
X99170459Y-35337031D02*
G01*
X99172267Y-35337785D01*
X99178585Y-35344132D01*
X99178771Y-35352554D01*
X98954788Y-35973512D01*
X98948757Y-35980131D01*
X98943782Y-35981242D01*
X98759344Y-35981242D01*
X98751071Y-35977815D01*
X98748807Y-35974628D01*
X98448820Y-35353202D01*
X98448310Y-35344262D01*
X98454271Y-35337579D01*
X98454848Y-35337320D01*
X98808500Y-35189875D01*
X98817449Y-35189855D01*
X99170459Y-35337031D01*
G37*
G04 #@! TD.AperFunction*
G04 #@! TD*
G04 #@! TA.AperFunction,Conductor*
G04 #@! TO.N,GND*
G36*
X99181044Y-35040253D02*
G01*
X99187206Y-35046239D01*
X99463747Y-35658928D01*
X99464027Y-35667878D01*
X99461356Y-35672014D01*
X99296014Y-35837356D01*
X99287741Y-35840783D01*
X99282928Y-35839747D01*
X98670239Y-35563206D01*
X98664108Y-35556679D01*
X98664232Y-35548090D01*
X98810437Y-35192802D01*
X98816753Y-35186457D01*
X99172090Y-35040232D01*
X99181044Y-35040253D01*
G37*
G04 #@! TD.AperFunction*
G04 #@! TD*
G04 #@! TA.AperFunction,Conductor*
G04 #@! TO.N,+3.3V*
G36*
X86003405Y-31432418D02*
G01*
X86003435Y-31432447D01*
X86012242Y-31441285D01*
X86273399Y-31703366D01*
X86276811Y-31711646D01*
X86273370Y-31719913D01*
X86272192Y-31720939D01*
X85894728Y-32007887D01*
X85793899Y-32084538D01*
X85781139Y-32094238D01*
X85774058Y-32096624D01*
X85590093Y-32096624D01*
X85581820Y-32093197D01*
X85578393Y-32084924D01*
X85578399Y-32084538D01*
X85590432Y-31719913D01*
X85599627Y-31441283D01*
X85603325Y-31433129D01*
X85611290Y-31429971D01*
X85995124Y-31429012D01*
X86003405Y-31432418D01*
G37*
G04 #@! TD.AperFunction*
G04 #@! TD*
G04 #@! TA.AperFunction,Conductor*
G04 #@! TO.N,+3.3V*
G36*
X86611945Y-30848817D02*
G01*
X86615372Y-30857090D01*
X86614751Y-30860851D01*
X86373558Y-31571271D01*
X86367653Y-31578004D01*
X86358718Y-31578589D01*
X86358027Y-31578330D01*
X86004503Y-31432853D01*
X85998156Y-31426535D01*
X85998141Y-31426500D01*
X85851542Y-31071619D01*
X85851551Y-31062666D01*
X85857889Y-31056340D01*
X85858207Y-31056214D01*
X86418012Y-30846135D01*
X86422123Y-30845390D01*
X86603672Y-30845390D01*
X86611945Y-30848817D01*
G37*
G04 #@! TD.AperFunction*
G04 #@! TD*
G04 #@! TA.AperFunction,Conductor*
G04 #@! TO.N,GND*
G36*
X77557785Y-41436373D02*
G01*
X77564593Y-41442189D01*
X77565869Y-41447501D01*
X77565869Y-41631928D01*
X77562442Y-41640201D01*
X77559608Y-41642287D01*
X76942891Y-41966109D01*
X76933973Y-41966921D01*
X76927093Y-41961189D01*
X76926653Y-41960252D01*
X76779375Y-41606999D01*
X76779355Y-41598050D01*
X76927421Y-41242905D01*
X76933767Y-41236589D01*
X76941833Y-41236281D01*
X77557785Y-41436373D01*
G37*
G04 #@! TD.AperFunction*
G04 #@! TD*
G04 #@! TA.AperFunction,Conductor*
G04 #@! TO.N,GND*
G36*
X71369717Y-30618592D02*
G01*
X71373490Y-30621119D01*
X71503880Y-30751509D01*
X71507307Y-30759782D01*
X71506426Y-30764237D01*
X71247005Y-31394256D01*
X71240686Y-31400601D01*
X71231734Y-31400621D01*
X70876804Y-31254563D01*
X70870457Y-31248245D01*
X70870436Y-31248195D01*
X70724378Y-30893265D01*
X70724399Y-30884311D01*
X70730742Y-30877994D01*
X71360764Y-30618573D01*
X71369717Y-30618592D01*
G37*
G04 #@! TD.AperFunction*
G04 #@! TD*
G04 #@! TA.AperFunction,Conductor*
G04 #@! TO.N,GND*
G36*
X88802258Y-42834680D02*
G01*
X89520831Y-43056666D01*
X89527723Y-43062381D01*
X89528556Y-43071297D01*
X89528197Y-43072296D01*
X89382853Y-43425496D01*
X89376535Y-43431843D01*
X89376500Y-43431858D01*
X89021347Y-43578570D01*
X89012392Y-43578561D01*
X89006066Y-43572223D01*
X88787957Y-43032107D01*
X88787106Y-43027726D01*
X88787106Y-42845860D01*
X88790533Y-42837587D01*
X88798806Y-42834160D01*
X88802258Y-42834680D01*
G37*
G04 #@! TD.AperFunction*
G04 #@! TD*
G04 #@! TA.AperFunction,Conductor*
G04 #@! TO.N,GND*
G36*
X88141077Y-28851300D02*
G01*
X88496195Y-28997436D01*
X88502542Y-29003754D01*
X88502563Y-29003804D01*
X88648531Y-29358515D01*
X88648510Y-29367469D01*
X88642163Y-29373787D01*
X88641948Y-29373873D01*
X88004127Y-29621643D01*
X87995174Y-29621444D01*
X87991617Y-29619010D01*
X87861212Y-29488605D01*
X87857785Y-29480332D01*
X87858745Y-29475691D01*
X87905510Y-29367469D01*
X88125888Y-28857478D01*
X88132314Y-28851245D01*
X88141077Y-28851300D01*
G37*
G04 #@! TD.AperFunction*
G04 #@! TD*
G04 #@! TA.AperFunction,Conductor*
G04 #@! TO.N,GND*
G36*
X71369717Y-30618592D02*
G01*
X71373490Y-30621119D01*
X71503880Y-30751509D01*
X71507307Y-30759782D01*
X71506426Y-30764237D01*
X71247005Y-31394256D01*
X71240686Y-31400601D01*
X71231734Y-31400621D01*
X70876804Y-31254563D01*
X70870457Y-31248245D01*
X70870436Y-31248195D01*
X70724378Y-30893265D01*
X70724399Y-30884311D01*
X70730742Y-30877994D01*
X71360764Y-30618573D01*
X71369717Y-30618592D01*
G37*
G04 #@! TD.AperFunction*
G04 #@! TD*
G04 #@! TA.AperFunction,Conductor*
G04 #@! TO.N,GND*
G36*
X70869022Y-30855706D02*
G01*
X70873004Y-30863727D01*
X70873031Y-30864494D01*
X70873987Y-31247124D01*
X70870581Y-31255405D01*
X70870546Y-31255441D01*
X70598569Y-31526460D01*
X70590289Y-31529872D01*
X70582022Y-31526431D01*
X70581900Y-31526306D01*
X70172838Y-31103401D01*
X70169548Y-31095267D01*
X70169548Y-30910928D01*
X70172975Y-30902655D01*
X70180449Y-30899256D01*
X70860536Y-30852850D01*
X70869022Y-30855706D01*
G37*
G04 #@! TD.AperFunction*
G04 #@! TD*
G04 #@! TA.AperFunction,Conductor*
G04 #@! TO.N,GND*
G36*
X69068473Y-38964427D02*
G01*
X69071000Y-38968200D01*
X69333053Y-39597129D01*
X69333072Y-39606084D01*
X69326755Y-39612428D01*
X68972502Y-39760123D01*
X68963548Y-39760144D01*
X68963498Y-39760123D01*
X68609244Y-39612428D01*
X68602926Y-39606081D01*
X68602945Y-39597131D01*
X68865000Y-38968199D01*
X68871345Y-38961881D01*
X68875800Y-38961000D01*
X69060200Y-38961000D01*
X69068473Y-38964427D01*
G37*
G04 #@! TD.AperFunction*
G04 #@! TD*
M02*
