G04 #@! TF.GenerationSoftware,KiCad,Pcbnew,8.0.4*
G04 #@! TF.CreationDate,2024-07-30T01:48:29-07:00*
G04 #@! TF.ProjectId,leverless_controller_3board,6c657665-726c-4657-9373-5f636f6e7472,rev?*
G04 #@! TF.SameCoordinates,Original*
G04 #@! TF.FileFunction,Soldermask,Bot*
G04 #@! TF.FilePolarity,Negative*
%FSLAX46Y46*%
G04 Gerber Fmt 4.6, Leading zero omitted, Abs format (unit mm)*
G04 Created by KiCad (PCBNEW 8.0.4) date 2024-07-30 01:48:29*
%MOMM*%
%LPD*%
G01*
G04 APERTURE LIST*
G04 Aperture macros list*
%AMRoundRect*
0 Rectangle with rounded corners*
0 $1 Rounding radius*
0 $2 $3 $4 $5 $6 $7 $8 $9 X,Y pos of 4 corners*
0 Add a 4 corners polygon primitive as box body*
4,1,4,$2,$3,$4,$5,$6,$7,$8,$9,$2,$3,0*
0 Add four circle primitives for the rounded corners*
1,1,$1+$1,$2,$3*
1,1,$1+$1,$4,$5*
1,1,$1+$1,$6,$7*
1,1,$1+$1,$8,$9*
0 Add four rect primitives between the rounded corners*
20,1,$1+$1,$2,$3,$4,$5,0*
20,1,$1+$1,$4,$5,$6,$7,0*
20,1,$1+$1,$6,$7,$8,$9,0*
20,1,$1+$1,$8,$9,$2,$3,0*%
G04 Aperture macros list end*
%ADD10C,1.750000*%
%ADD11C,3.050000*%
%ADD12C,4.000000*%
%ADD13RoundRect,0.250000X-1.025000X-1.000000X1.025000X-1.000000X1.025000X1.000000X-1.025000X1.000000X0*%
%ADD14C,3.200000*%
%ADD15C,2.500000*%
%ADD16RoundRect,0.250000X-1.329660X-0.531629X0.564293X-1.316130X1.329660X0.531629X-0.564293X1.316130X0*%
%ADD17C,1.400000*%
%ADD18R,1.000000X1.000000*%
%ADD19C,0.600000*%
%ADD20O,1.000000X2.000000*%
%ADD21O,1.000000X1.700000*%
%ADD22C,3.048000*%
%ADD23C,3.987800*%
G04 APERTURE END LIST*
D10*
G04 #@! TO.C,SW9_HK1*
X223853943Y-90000000D03*
D11*
X225123943Y-87460000D03*
D12*
X228933943Y-90000000D03*
D11*
X231473943Y-84920000D03*
D10*
X234013943Y-90000000D03*
D13*
X221848943Y-87460000D03*
X234775943Y-84920000D03*
G04 #@! TD*
D14*
G04 #@! TO.C,H12*
X166500000Y-60500000D03*
G04 #@! TD*
G04 #@! TO.C,H11*
X247000000Y-98500000D03*
G04 #@! TD*
D10*
G04 #@! TO.C,SW11_START1*
X191920000Y-35080000D03*
D12*
X197000000Y-35080000D03*
D10*
X202080000Y-35080000D03*
D15*
X193190000Y-32540000D03*
X199540000Y-30000000D03*
G04 #@! TD*
D14*
G04 #@! TO.C,H6*
X150000000Y-83000000D03*
G04 #@! TD*
D10*
G04 #@! TO.C,SW20_RIGHT1*
X121210635Y-81055968D03*
D11*
X123355978Y-79195322D03*
D12*
X125903943Y-83000000D03*
D11*
X130194629Y-79278708D03*
D10*
X130597251Y-84944032D03*
D16*
X120330272Y-77942034D03*
X133245279Y-80542329D03*
G04 #@! TD*
D10*
G04 #@! TO.C,SW18_DOWN1*
X105141464Y-70070330D03*
D11*
X107286807Y-68209684D03*
D12*
X109834772Y-72014362D03*
D11*
X114125458Y-68293070D03*
D10*
X114528080Y-73958394D03*
D16*
X104261101Y-66956396D03*
X117176108Y-69556691D03*
G04 #@! TD*
D14*
G04 #@! TO.C,H4*
X128000000Y-114250000D03*
G04 #@! TD*
D17*
G04 #@! TO.C,J2*
X98380000Y-31430000D03*
X96380000Y-31430000D03*
X94380000Y-31430000D03*
G04 #@! TD*
D10*
G04 #@! TO.C,SW17_W1*
X112431583Y-52470425D03*
D11*
X114576926Y-50609779D03*
D12*
X117124891Y-54414457D03*
D11*
X121415577Y-50693165D03*
D10*
X121818199Y-56358489D03*
D16*
X111551220Y-49356491D03*
X124466227Y-51956786D03*
G04 #@! TD*
D10*
G04 #@! TO.C,SW3_MK1*
X194853943Y-90000000D03*
D11*
X196123943Y-87460000D03*
D12*
X199933943Y-90000000D03*
D11*
X202473943Y-84920000D03*
D10*
X205013943Y-90000000D03*
D13*
X192848943Y-87460000D03*
X205775943Y-84920000D03*
G04 #@! TD*
D14*
G04 #@! TO.C,H1*
X49000000Y-29500000D03*
G04 #@! TD*
D18*
G04 #@! TO.C,TP1*
X66000000Y-30750000D03*
G04 #@! TD*
D14*
G04 #@! TO.C,H9*
X165000000Y-30500000D03*
G04 #@! TD*
D18*
G04 #@! TO.C,TP2*
X73900000Y-38500000D03*
G04 #@! TD*
D14*
G04 #@! TO.C,H2*
X50000000Y-90000000D03*
G04 #@! TD*
D10*
G04 #@! TO.C,SW2_LK1*
X169853943Y-104000000D03*
D11*
X171123943Y-101460000D03*
D12*
X174933943Y-104000000D03*
D11*
X177473943Y-98920000D03*
D10*
X180013943Y-104000000D03*
D13*
X167848943Y-101460000D03*
X180775943Y-98920000D03*
G04 #@! TD*
D10*
G04 #@! TO.C,SW8_DP1*
X54920000Y-71991696D03*
D11*
X56190000Y-69451696D03*
D12*
X60000000Y-71991696D03*
D11*
X62540000Y-66911696D03*
D10*
X65080000Y-71991696D03*
D13*
X52915000Y-69451696D03*
X65842000Y-66911696D03*
G04 #@! TD*
D10*
G04 #@! TO.C,SW12_THROW1*
X144835906Y-60354124D03*
D11*
X146105906Y-57814124D03*
D12*
X149915906Y-60354124D03*
D11*
X152455906Y-55274124D03*
D10*
X154995906Y-60354124D03*
D13*
X142830906Y-57814124D03*
X155757906Y-55274124D03*
G04 #@! TD*
D14*
G04 #@! TO.C,H13*
X174000000Y-137000000D03*
G04 #@! TD*
G04 #@! TO.C,H3*
X120500000Y-35000000D03*
G04 #@! TD*
G04 #@! TO.C,H8*
X191500000Y-75500000D03*
G04 #@! TD*
D19*
G04 #@! TO.C,J1*
X79270000Y-25795000D03*
X73490000Y-25795000D03*
D20*
X80700000Y-26295000D03*
D21*
X80700000Y-22100000D03*
D20*
X72060000Y-26295000D03*
D21*
X72060000Y-22100000D03*
G04 #@! TD*
D10*
G04 #@! TO.C,SW5_MP1*
X194853943Y-61000000D03*
D11*
X196123943Y-58460000D03*
D12*
X199933943Y-61000000D03*
D11*
X202473943Y-55920000D03*
D10*
X205013943Y-61000000D03*
D13*
X192848943Y-58460000D03*
X205775943Y-55920000D03*
G04 #@! TD*
D10*
G04 #@! TO.C,SW6_DI1*
X170034257Y-46000561D03*
D11*
X171304257Y-43460561D03*
D12*
X175114257Y-46000561D03*
D11*
X177654257Y-40920561D03*
D10*
X180194257Y-46000561D03*
D13*
X168029257Y-43460561D03*
X180956257Y-40920561D03*
G04 #@! TD*
D22*
G04 #@! TO.C,S1*
X138502000Y-129025000D03*
D23*
X138502000Y-144235000D03*
D22*
X162378000Y-129025000D03*
D23*
X162378000Y-144235000D03*
G04 #@! TD*
D10*
G04 #@! TO.C,SW19_LEFT1*
X87541559Y-62780211D03*
D11*
X89686902Y-60919565D03*
D12*
X92234867Y-64724243D03*
D11*
X96525553Y-61002951D03*
D10*
X96928175Y-66668275D03*
D16*
X86661196Y-59666277D03*
X99576203Y-62266572D03*
G04 #@! TD*
D14*
G04 #@! TO.C,H14*
X126000000Y-137000000D03*
G04 #@! TD*
D10*
G04 #@! TO.C,SW4_LP1*
X169853943Y-75000000D03*
D11*
X171123943Y-72460000D03*
D12*
X174933943Y-75000000D03*
D11*
X177473943Y-69920000D03*
D10*
X180013943Y-75000000D03*
D13*
X167848943Y-72460000D03*
X180775943Y-69920000D03*
G04 #@! TD*
D14*
G04 #@! TO.C,H10*
X248000000Y-49000000D03*
G04 #@! TD*
D10*
G04 #@! TO.C,SW7_HP1*
X223853943Y-61000000D03*
D11*
X225123943Y-58460000D03*
D12*
X228933943Y-61000000D03*
D11*
X231473943Y-55920000D03*
D10*
X234013943Y-61000000D03*
D13*
X221848943Y-58460000D03*
X234775943Y-55920000D03*
G04 #@! TD*
D14*
G04 #@! TO.C,H5*
X78000000Y-64000000D03*
G04 #@! TD*
D10*
G04 #@! TO.C,SW16_SPACE1*
X145360000Y-136010000D03*
D11*
X146630000Y-133470000D03*
D12*
X150440000Y-136010000D03*
D11*
X152980000Y-130930000D03*
D10*
X155520000Y-136010000D03*
D13*
X143355000Y-133470000D03*
X156282000Y-130930000D03*
G04 #@! TD*
D14*
G04 #@! TO.C,H7*
X149500000Y-119250000D03*
G04 #@! TD*
D10*
G04 #@! TO.C,SW10_SHARE1*
X207420000Y-35080000D03*
D12*
X212500000Y-35080000D03*
D10*
X217580000Y-35080000D03*
D15*
X208690000Y-32540000D03*
X215040000Y-30000000D03*
G04 #@! TD*
D10*
G04 #@! TO.C,SW15_TOUCHPAD1*
X238420000Y-35080000D03*
D12*
X243500000Y-35080000D03*
D10*
X248580000Y-35080000D03*
D15*
X239690000Y-32540000D03*
X246040000Y-30000000D03*
G04 #@! TD*
D10*
G04 #@! TO.C,SW14_PS1*
X222920000Y-35080000D03*
D12*
X228000000Y-35080000D03*
D10*
X233080000Y-35080000D03*
D15*
X224190000Y-32540000D03*
X230540000Y-30000000D03*
G04 #@! TD*
M02*
