M48
; DRILL file {KiCad 8.0.4} date 2024-07-30T01:48:29-0700
; FORMAT={-:-/ absolute / metric / decimal}
; #@! TF.CreationDate,2024-07-30T01:48:29-07:00
; #@! TF.GenerationSoftware,Kicad,Pcbnew,8.0.4
; #@! TF.FileFunction,MixedPlating,1,2
FMAT,2
METRIC
; #@! TA.AperFunction,Plated,PTH,ComponentDrill
T1C0.350
; #@! TA.AperFunction,Plated,PTH,ViaDrill
T2C0.400
; #@! TA.AperFunction,Plated,PTH,ComponentDrill
T3C0.500
; #@! TA.AperFunction,Plated,PTH,ComponentDrill
T4C0.600
; #@! TA.AperFunction,Plated,PTH,ComponentDrill
T5C0.700
; #@! TA.AperFunction,Plated,PTH,ComponentDrill
T6C1.500
; #@! TA.AperFunction,NonPlated,NPTH,ComponentDrill
T7C0.600
; #@! TA.AperFunction,NonPlated,NPTH,ComponentDrill
T8C1.750
; #@! TA.AperFunction,NonPlated,NPTH,ComponentDrill
T9C3.048
; #@! TA.AperFunction,NonPlated,NPTH,ComponentDrill
T10C3.050
; #@! TA.AperFunction,NonPlated,NPTH,ComponentDrill
T11C3.200
; #@! TA.AperFunction,NonPlated,NPTH,ComponentDrill
T12C3.988
; #@! TA.AperFunction,NonPlated,NPTH,ComponentDrill
T13C4.000
%
G90
G05
T1
X83.7Y-35.824
X83.7Y-36.84
X83.7Y-37.856
X84.716Y-35.824
X84.716Y-36.84
X84.716Y-37.856
X85.732Y-35.824
X85.732Y-36.84
X85.732Y-37.856
T2
X54.88Y-39.93
X55.0Y-64.0
X66.5Y-37.5
X68.968Y-39.761
X70.873Y-31.252
X71.88Y-33.93
X76.778Y-41.602
X78.88Y-30.93
X80.63Y-31.43
X81.63Y-41.93
X81.668Y-45.222
X85.0Y-58.0
X86.0Y-31.43
X86.88Y-43.93
X88.5Y-29.0
X89.38Y-43.43
X89.669Y-38.364
X91.88Y-34.43
X93.38Y-34.18
X98.813Y-35.189
X104.0Y-64.5
X109.0Y-48.5
X119.5Y-75.5
X136.5Y-93.0
X141.5Y-55.0
X143.0Y-127.5
X148.0Y-94.5
X162.0Y-94.5
X166.0Y-42.0
X167.0Y-75.0
X167.0Y-104.0
X190.0Y-58.5
X191.0Y-89.5
X220.0Y-60.5
X220.0Y-89.5
T3
X66.0Y-30.75
X73.9Y-38.5
T5
X94.38Y-31.43
X96.38Y-31.43
X98.38Y-31.43
T6
X193.19Y-32.54
X199.54Y-30.0
X208.69Y-32.54
X215.04Y-30.0
X224.19Y-32.54
X230.54Y-30.0
X239.69Y-32.54
X246.04Y-30.0
T7
X73.49Y-25.795
X79.27Y-25.795
T8
X54.92Y-71.992
X65.08Y-71.992
X87.542Y-62.78
X96.928Y-66.668
X105.141Y-70.07
X112.432Y-52.47
X114.528Y-73.958
X121.211Y-81.056
X121.818Y-56.358
X130.597Y-84.944
X144.836Y-60.354
X145.36Y-136.01
X154.996Y-60.354
X155.52Y-136.01
X169.854Y-75.0
X169.854Y-104.0
X170.034Y-46.001
X180.014Y-75.0
X180.014Y-104.0
X180.194Y-46.001
X191.92Y-35.08
X194.854Y-61.0
X194.854Y-90.0
X202.08Y-35.08
X205.014Y-61.0
X205.014Y-90.0
X207.42Y-35.08
X217.58Y-35.08
X222.92Y-35.08
X223.854Y-61.0
X223.854Y-90.0
X233.08Y-35.08
X234.014Y-61.0
X234.014Y-90.0
X238.42Y-35.08
X248.58Y-35.08
T9
X138.502Y-129.025
X162.378Y-129.025
T10
X56.19Y-69.452
X62.54Y-66.912
X89.687Y-60.92
X96.526Y-61.003
X107.287Y-68.21
X114.125Y-68.293
X114.577Y-50.61
X121.416Y-50.693
X123.356Y-79.195
X130.195Y-79.279
X146.106Y-57.814
X146.63Y-133.47
X152.456Y-55.274
X152.98Y-130.93
X171.124Y-72.46
X171.124Y-101.46
X171.304Y-43.461
X177.474Y-69.92
X177.474Y-98.92
X177.654Y-40.921
X196.124Y-58.46
X196.124Y-87.46
X202.474Y-55.92
X202.474Y-84.92
X225.124Y-58.46
X225.124Y-87.46
X231.474Y-55.92
X231.474Y-84.92
T11
X49.0Y-29.5
X50.0Y-90.0
X78.0Y-64.0
X120.5Y-35.0
X126.0Y-137.0
X128.0Y-114.25
X149.5Y-119.25
X150.0Y-83.0
X165.0Y-30.5
X166.5Y-60.5
X174.0Y-137.0
X191.5Y-75.5
X247.0Y-98.5
X248.0Y-49.0
T12
X138.502Y-144.235
X162.378Y-144.235
T13
X60.0Y-71.992
X92.235Y-64.724
X109.835Y-72.014
X117.125Y-54.414
X125.904Y-83.0
X149.916Y-60.354
X150.44Y-136.01
X174.934Y-75.0
X174.934Y-104.0
X175.114Y-46.001
X197.0Y-35.08
X199.934Y-61.0
X199.934Y-90.0
X212.5Y-35.08
X228.0Y-35.08
X228.934Y-61.0
X228.934Y-90.0
X243.5Y-35.08
T4
X72.06Y-22.5G85X72.06Y-21.7
G05
X72.06Y-26.845G85X72.06Y-25.745
G05
X80.7Y-22.5G85X80.7Y-21.7
G05
X80.7Y-26.845G85X80.7Y-25.745
G05
M30
