G04 #@! TF.GenerationSoftware,KiCad,Pcbnew,8.0.4*
G04 #@! TF.CreationDate,2024-07-30T01:48:29-07:00*
G04 #@! TF.ProjectId,leverless_controller_3board,6c657665-726c-4657-9373-5f636f6e7472,rev?*
G04 #@! TF.SameCoordinates,Original*
G04 #@! TF.FileFunction,Soldermask,Top*
G04 #@! TF.FilePolarity,Negative*
%FSLAX46Y46*%
G04 Gerber Fmt 4.6, Leading zero omitted, Abs format (unit mm)*
G04 Created by KiCad (PCBNEW 8.0.4) date 2024-07-30 01:48:29*
%MOMM*%
%LPD*%
G01*
G04 APERTURE LIST*
G04 Aperture macros list*
%AMRoundRect*
0 Rectangle with rounded corners*
0 $1 Rounding radius*
0 $2 $3 $4 $5 $6 $7 $8 $9 X,Y pos of 4 corners*
0 Add a 4 corners polygon primitive as box body*
4,1,4,$2,$3,$4,$5,$6,$7,$8,$9,$2,$3,0*
0 Add four circle primitives for the rounded corners*
1,1,$1+$1,$2,$3*
1,1,$1+$1,$4,$5*
1,1,$1+$1,$6,$7*
1,1,$1+$1,$8,$9*
0 Add four rect primitives between the rounded corners*
20,1,$1+$1,$2,$3,$4,$5,0*
20,1,$1+$1,$4,$5,$6,$7,0*
20,1,$1+$1,$6,$7,$8,$9,0*
20,1,$1+$1,$8,$9,$2,$3,0*%
%AMFreePoly0*
4,1,19,0.500000,-0.750000,0.000000,-0.750000,0.000000,-0.744911,-0.071157,-0.744911,-0.207708,-0.704816,-0.327430,-0.627875,-0.420627,-0.520320,-0.479746,-0.390866,-0.500000,-0.250000,-0.500000,0.250000,-0.479746,0.390866,-0.420627,0.520320,-0.327430,0.627875,-0.207708,0.704816,-0.071157,0.744911,0.000000,0.744911,0.000000,0.750000,0.500000,0.750000,0.500000,-0.750000,0.500000,-0.750000,
$1*%
%AMFreePoly1*
4,1,19,0.000000,0.744911,0.071157,0.744911,0.207708,0.704816,0.327430,0.627875,0.420627,0.520320,0.479746,0.390866,0.500000,0.250000,0.500000,-0.250000,0.479746,-0.390866,0.420627,-0.520320,0.327430,-0.627875,0.207708,-0.704816,0.071157,-0.744911,0.000000,-0.744911,0.000000,-0.750000,-0.500000,-0.750000,-0.500000,0.750000,0.000000,0.750000,0.000000,0.744911,0.000000,0.744911,
$1*%
G04 Aperture macros list end*
%ADD10C,1.750000*%
%ADD11C,3.050000*%
%ADD12C,4.000000*%
%ADD13FreePoly0,0.000000*%
%ADD14FreePoly1,0.000000*%
%ADD15R,1.200000X1.400000*%
%ADD16C,3.200000*%
%ADD17RoundRect,0.243750X0.456250X-0.243750X0.456250X0.243750X-0.456250X0.243750X-0.456250X-0.243750X0*%
%ADD18RoundRect,0.140000X0.140000X0.170000X-0.140000X0.170000X-0.140000X-0.170000X0.140000X-0.170000X0*%
%ADD19C,2.500000*%
%ADD20RoundRect,0.140000X-0.140000X-0.170000X0.140000X-0.170000X0.140000X0.170000X-0.140000X0.170000X0*%
%ADD21R,1.000000X0.750000*%
%ADD22C,1.000000*%
%ADD23RoundRect,0.135000X0.135000X0.185000X-0.135000X0.185000X-0.135000X-0.185000X0.135000X-0.185000X0*%
%ADD24RoundRect,0.135000X-0.135000X-0.185000X0.135000X-0.185000X0.135000X0.185000X-0.135000X0.185000X0*%
%ADD25RoundRect,0.135000X-0.185000X0.135000X-0.185000X-0.135000X0.185000X-0.135000X0.185000X0.135000X0*%
%ADD26RoundRect,0.500000X0.500000X1.400000X-0.500000X1.400000X-0.500000X-1.400000X0.500000X-1.400000X0*%
%ADD27RoundRect,0.375000X0.625000X0.375000X-0.625000X0.375000X-0.625000X-0.375000X0.625000X-0.375000X0*%
%ADD28C,1.400000*%
%ADD29RoundRect,0.140000X0.170000X-0.140000X0.170000X0.140000X-0.170000X0.140000X-0.170000X-0.140000X0*%
%ADD30R,1.000000X1.000000*%
%ADD31RoundRect,0.140000X-0.170000X0.140000X-0.170000X-0.140000X0.170000X-0.140000X0.170000X0.140000X0*%
%ADD32RoundRect,0.200000X-0.200000X-0.275000X0.200000X-0.275000X0.200000X0.275000X-0.200000X0.275000X0*%
%ADD33RoundRect,0.160000X-0.160000X0.197500X-0.160000X-0.197500X0.160000X-0.197500X0.160000X0.197500X0*%
%ADD34RoundRect,0.050000X0.050000X-0.387500X0.050000X0.387500X-0.050000X0.387500X-0.050000X-0.387500X0*%
%ADD35RoundRect,0.050000X0.387500X-0.050000X0.387500X0.050000X-0.387500X0.050000X-0.387500X-0.050000X0*%
%ADD36R,3.200000X3.200000*%
%ADD37C,0.600000*%
%ADD38RoundRect,0.150000X0.150000X0.420000X-0.150000X0.420000X-0.150000X-0.420000X0.150000X-0.420000X0*%
%ADD39RoundRect,0.075000X0.075000X0.495000X-0.075000X0.495000X-0.075000X-0.495000X0.075000X-0.495000X0*%
%ADD40O,1.000000X2.000000*%
%ADD41O,1.000000X1.700000*%
%ADD42C,3.048000*%
%ADD43C,3.987800*%
%ADD44RoundRect,0.150000X0.650000X0.150000X-0.650000X0.150000X-0.650000X-0.150000X0.650000X-0.150000X0*%
G04 APERTURE END LIST*
D10*
G04 #@! TO.C,SW9_HK1*
X223853943Y-90000000D03*
D11*
X225123943Y-87460000D03*
D12*
X228933943Y-90000000D03*
D11*
X231473943Y-84920000D03*
D10*
X234013943Y-90000000D03*
G04 #@! TD*
D13*
G04 #@! TO.C,JP1*
X138430000Y-94500000D03*
D14*
X139730000Y-94500000D03*
G04 #@! TD*
D15*
G04 #@! TO.C,Y1*
X96996000Y-37630000D03*
X96996000Y-35430000D03*
X95296000Y-35430000D03*
X95296000Y-37630000D03*
G04 #@! TD*
D16*
G04 #@! TO.C,H12*
X166500000Y-60500000D03*
G04 #@! TD*
D17*
G04 #@! TO.C,D4*
X110190000Y-34350000D03*
X110190000Y-32475000D03*
G04 #@! TD*
D18*
G04 #@! TO.C,C9*
X77480000Y-38500000D03*
X76520000Y-38500000D03*
G04 #@! TD*
G04 #@! TO.C,C7*
X79360000Y-31930000D03*
X78400000Y-31930000D03*
G04 #@! TD*
D16*
G04 #@! TO.C,H11*
X247000000Y-98500000D03*
G04 #@! TD*
D17*
G04 #@! TO.C,D2*
X105010000Y-34350000D03*
X105010000Y-32475000D03*
G04 #@! TD*
D10*
G04 #@! TO.C,SW11_START1*
X191920000Y-35080000D03*
D12*
X197000000Y-35080000D03*
D10*
X202080000Y-35080000D03*
D19*
X193190000Y-32540000D03*
X199540000Y-30000000D03*
G04 #@! TD*
D20*
G04 #@! TO.C,C8*
X90840000Y-35430000D03*
X91800000Y-35430000D03*
G04 #@! TD*
D21*
G04 #@! TO.C,SW1*
X51905000Y-40055000D03*
X57905000Y-40055000D03*
X51905000Y-43805000D03*
X57905000Y-43805000D03*
G04 #@! TD*
D13*
G04 #@! TO.C,JP18*
X159275000Y-113500000D03*
D14*
X160575000Y-113500000D03*
G04 #@! TD*
D16*
G04 #@! TO.C,H6*
X150000000Y-83000000D03*
G04 #@! TD*
D13*
G04 #@! TO.C,JP9*
X138430000Y-52500000D03*
D14*
X139730000Y-52500000D03*
G04 #@! TD*
D22*
G04 #@! TO.C,TP4*
X84100000Y-26700000D03*
G04 #@! TD*
D23*
G04 #@! TO.C,R4*
X92590000Y-37856000D03*
X91570000Y-37856000D03*
G04 #@! TD*
D17*
G04 #@! TO.C,D1*
X102420000Y-34350000D03*
X102420000Y-32475000D03*
G04 #@! TD*
D13*
G04 #@! TO.C,JP24*
X159275000Y-91500000D03*
D14*
X160575000Y-91500000D03*
G04 #@! TD*
D20*
G04 #@! TO.C,C15*
X86520000Y-30000000D03*
X87480000Y-30000000D03*
G04 #@! TD*
D13*
G04 #@! TO.C,JP5*
X138430000Y-91500000D03*
D14*
X139730000Y-91500000D03*
G04 #@! TD*
D24*
G04 #@! TO.C,R5*
X63251000Y-42936000D03*
X64271000Y-42936000D03*
G04 #@! TD*
D13*
G04 #@! TO.C,JP7*
X138430000Y-104500000D03*
D14*
X139730000Y-104500000D03*
G04 #@! TD*
D25*
G04 #@! TO.C,R2*
X73822000Y-31668000D03*
X73822000Y-32688000D03*
G04 #@! TD*
D10*
G04 #@! TO.C,SW20_RIGHT1*
X121210635Y-81055968D03*
D11*
X123355978Y-79195322D03*
D12*
X125903943Y-83000000D03*
D11*
X130194629Y-79278708D03*
D10*
X130597251Y-84944032D03*
G04 #@! TD*
G04 #@! TO.C,SW18_DOWN1*
X105141464Y-70070330D03*
D11*
X107286807Y-68209684D03*
D12*
X109834772Y-72014362D03*
D11*
X114125458Y-68293070D03*
D10*
X114528080Y-73958394D03*
G04 #@! TD*
D16*
G04 #@! TO.C,H4*
X128000000Y-114250000D03*
G04 #@! TD*
D26*
G04 #@! TO.C,U2*
X62672000Y-35678000D03*
D27*
X68972000Y-37978000D03*
X68972000Y-35678000D03*
X68972000Y-33378000D03*
G04 #@! TD*
D28*
G04 #@! TO.C,J2*
X98380000Y-31430000D03*
X96380000Y-31430000D03*
X94380000Y-31430000D03*
G04 #@! TD*
D13*
G04 #@! TO.C,JP4*
X138430000Y-88500000D03*
D14*
X139730000Y-88500000D03*
G04 #@! TD*
D10*
G04 #@! TO.C,SW17_W1*
X112431583Y-52470425D03*
D11*
X114576926Y-50609779D03*
D12*
X117124891Y-54414457D03*
D11*
X121415577Y-50693165D03*
D10*
X121818199Y-56358489D03*
G04 #@! TD*
D29*
G04 #@! TO.C,C11*
X81700000Y-31380000D03*
X81700000Y-30420000D03*
G04 #@! TD*
D10*
G04 #@! TO.C,SW3_MK1*
X194853943Y-90000000D03*
D11*
X196123943Y-87460000D03*
D12*
X199933943Y-90000000D03*
D11*
X202473943Y-84920000D03*
D10*
X205013943Y-90000000D03*
G04 #@! TD*
D16*
G04 #@! TO.C,H1*
X49000000Y-29500000D03*
G04 #@! TD*
D18*
G04 #@! TO.C,C10*
X77730000Y-37500000D03*
X76770000Y-37500000D03*
G04 #@! TD*
G04 #@! TO.C,C6*
X79360000Y-32930000D03*
X78400000Y-32930000D03*
G04 #@! TD*
D30*
G04 #@! TO.C,TP1*
X66000000Y-30750000D03*
G04 #@! TD*
D16*
G04 #@! TO.C,H9*
X165000000Y-30500000D03*
G04 #@! TD*
D22*
G04 #@! TO.C,TP3*
X86400000Y-26700000D03*
G04 #@! TD*
D30*
G04 #@! TO.C,TP2*
X73900000Y-38500000D03*
G04 #@! TD*
D31*
G04 #@! TO.C,C12*
X81630000Y-43200000D03*
X81630000Y-44160000D03*
G04 #@! TD*
D16*
G04 #@! TO.C,H2*
X50000000Y-90000000D03*
G04 #@! TD*
D10*
G04 #@! TO.C,SW2_LK1*
X169853943Y-104000000D03*
D11*
X171123943Y-101460000D03*
D12*
X174933943Y-104000000D03*
D11*
X177473943Y-98920000D03*
D10*
X180013943Y-104000000D03*
G04 #@! TD*
G04 #@! TO.C,SW8_DP1*
X54920000Y-71991696D03*
D11*
X56190000Y-69451696D03*
D12*
X60000000Y-71991696D03*
D11*
X62540000Y-66911696D03*
D10*
X65080000Y-71991696D03*
G04 #@! TD*
G04 #@! TO.C,SW12_THROW1*
X144835906Y-60354124D03*
D11*
X146105906Y-57814124D03*
D12*
X149915906Y-60354124D03*
D11*
X152455906Y-55274124D03*
D10*
X154995906Y-60354124D03*
G04 #@! TD*
D31*
G04 #@! TO.C,C3*
X98852000Y-36728000D03*
X98852000Y-37688000D03*
G04 #@! TD*
D16*
G04 #@! TO.C,H13*
X174000000Y-137000000D03*
G04 #@! TD*
D13*
G04 #@! TO.C,JP22*
X159275000Y-75500000D03*
D14*
X160575000Y-75500000D03*
G04 #@! TD*
D13*
G04 #@! TO.C,JP11*
X138430000Y-113500000D03*
D14*
X139730000Y-113500000D03*
G04 #@! TD*
D13*
G04 #@! TO.C,JP8*
X138430000Y-101500000D03*
D14*
X139730000Y-101500000D03*
G04 #@! TD*
D32*
G04 #@! TO.C,R7*
X77425000Y-34250000D03*
X79075000Y-34250000D03*
G04 #@! TD*
D16*
G04 #@! TO.C,H3*
X120500000Y-35000000D03*
G04 #@! TD*
D13*
G04 #@! TO.C,JP27*
X159275000Y-101500000D03*
D14*
X160575000Y-101500000D03*
G04 #@! TD*
D33*
G04 #@! TO.C,R6*
X67571000Y-43735500D03*
X67571000Y-44930500D03*
G04 #@! TD*
D13*
G04 #@! TO.C,JP12*
X138430000Y-110500000D03*
D14*
X139730000Y-110500000D03*
G04 #@! TD*
D13*
G04 #@! TO.C,JP20*
X159275000Y-107500000D03*
D14*
X160575000Y-107500000D03*
G04 #@! TD*
D13*
G04 #@! TO.C,JP21*
X159275000Y-72500000D03*
D14*
X160575000Y-72500000D03*
G04 #@! TD*
D13*
G04 #@! TO.C,JP23*
X159275000Y-88500000D03*
D14*
X160575000Y-88500000D03*
G04 #@! TD*
D20*
G04 #@! TO.C,C5*
X71536000Y-47254000D03*
X72496000Y-47254000D03*
G04 #@! TD*
D13*
G04 #@! TO.C,JP25*
X159275000Y-69500000D03*
D14*
X160575000Y-69500000D03*
G04 #@! TD*
D16*
G04 #@! TO.C,H8*
X191500000Y-75500000D03*
G04 #@! TD*
D17*
G04 #@! TO.C,D3*
X107600000Y-34350000D03*
X107600000Y-32475000D03*
G04 #@! TD*
D13*
G04 #@! TO.C,JP13*
X138430000Y-107500000D03*
D14*
X139730000Y-107500000D03*
G04 #@! TD*
D20*
G04 #@! TO.C,C13*
X85900000Y-42930000D03*
X86860000Y-42930000D03*
G04 #@! TD*
D34*
G04 #@! TO.C,U1*
X82078000Y-40315500D03*
X82478000Y-40315500D03*
X82878000Y-40315500D03*
X83278000Y-40315500D03*
X83678000Y-40315500D03*
X84078000Y-40315500D03*
X84478000Y-40315500D03*
X84878000Y-40315500D03*
X85278000Y-40315500D03*
X85678000Y-40315500D03*
X86078000Y-40315500D03*
X86478000Y-40315500D03*
X86878000Y-40315500D03*
X87278000Y-40315500D03*
D35*
X88115500Y-39478000D03*
X88115500Y-39078000D03*
X88115500Y-38678000D03*
X88115500Y-38278000D03*
X88115500Y-37878000D03*
X88115500Y-37478000D03*
X88115500Y-37078000D03*
X88115500Y-36678000D03*
X88115500Y-36278000D03*
X88115500Y-35878000D03*
X88115500Y-35478000D03*
X88115500Y-35078000D03*
X88115500Y-34678000D03*
X88115500Y-34278000D03*
D34*
X87278000Y-33440500D03*
X86878000Y-33440500D03*
X86478000Y-33440500D03*
X86078000Y-33440500D03*
X85678000Y-33440500D03*
X85278000Y-33440500D03*
X84878000Y-33440500D03*
X84478000Y-33440500D03*
X84078000Y-33440500D03*
X83678000Y-33440500D03*
X83278000Y-33440500D03*
X82878000Y-33440500D03*
X82478000Y-33440500D03*
X82078000Y-33440500D03*
D35*
X81240500Y-34278000D03*
X81240500Y-34678000D03*
X81240500Y-35078000D03*
X81240500Y-35478000D03*
X81240500Y-35878000D03*
X81240500Y-36278000D03*
X81240500Y-36678000D03*
X81240500Y-37078000D03*
X81240500Y-37478000D03*
X81240500Y-37878000D03*
X81240500Y-38278000D03*
X81240500Y-38678000D03*
X81240500Y-39078000D03*
X81240500Y-39478000D03*
D36*
X84678000Y-36878000D03*
G04 #@! TD*
D13*
G04 #@! TO.C,JP6*
X138430000Y-69500000D03*
D14*
X139730000Y-69500000D03*
G04 #@! TD*
D37*
G04 #@! TO.C,J1*
X79270000Y-25795000D03*
X73490000Y-25795000D03*
D38*
X79580000Y-26865000D03*
X78780000Y-26865000D03*
D39*
X77630000Y-26865000D03*
X76630000Y-26865000D03*
X76130000Y-26865000D03*
X75130000Y-26865000D03*
D38*
X73980000Y-26865000D03*
X73180000Y-26865000D03*
X73180000Y-26865000D03*
X73980000Y-26865000D03*
D39*
X74630000Y-26865000D03*
X75630000Y-26865000D03*
X77130000Y-26865000D03*
X78130000Y-26865000D03*
D38*
X78780000Y-26865000D03*
X79580000Y-26865000D03*
D40*
X80700000Y-26295000D03*
D41*
X80700000Y-22100000D03*
D40*
X72060000Y-26295000D03*
D41*
X72060000Y-22100000D03*
G04 #@! TD*
D20*
G04 #@! TO.C,C14*
X90840000Y-36840000D03*
X91800000Y-36840000D03*
G04 #@! TD*
D10*
G04 #@! TO.C,SW5_MP1*
X194853943Y-61000000D03*
D11*
X196123943Y-58460000D03*
D12*
X199933943Y-61000000D03*
D11*
X202473943Y-55920000D03*
D10*
X205013943Y-61000000D03*
G04 #@! TD*
G04 #@! TO.C,SW6_DI1*
X170034257Y-46000561D03*
D11*
X171304257Y-43460561D03*
D12*
X175114257Y-46000561D03*
D11*
X177654257Y-40920561D03*
D10*
X180194257Y-46000561D03*
G04 #@! TD*
D42*
G04 #@! TO.C,S1*
X138502000Y-129025000D03*
D43*
X138502000Y-144235000D03*
D42*
X162378000Y-129025000D03*
D43*
X162378000Y-144235000D03*
G04 #@! TD*
D13*
G04 #@! TO.C,JP26*
X159275000Y-104500000D03*
D14*
X160575000Y-104500000D03*
G04 #@! TD*
D24*
G04 #@! TO.C,R3*
X78620000Y-29680000D03*
X79640000Y-29680000D03*
G04 #@! TD*
D10*
G04 #@! TO.C,SW19_LEFT1*
X87541559Y-62780211D03*
D11*
X89686902Y-60919565D03*
D12*
X92234867Y-64724243D03*
D11*
X96525553Y-61002951D03*
D10*
X96928175Y-66668275D03*
G04 #@! TD*
D32*
G04 #@! TO.C,R8*
X76250000Y-35800000D03*
X77900000Y-35800000D03*
G04 #@! TD*
D16*
G04 #@! TO.C,H14*
X126000000Y-137000000D03*
G04 #@! TD*
D10*
G04 #@! TO.C,SW4_LP1*
X169853943Y-75000000D03*
D11*
X171123943Y-72460000D03*
D12*
X174933943Y-75000000D03*
D11*
X177473943Y-69920000D03*
D10*
X180013943Y-75000000D03*
G04 #@! TD*
D13*
G04 #@! TO.C,JP2*
X138430000Y-72500000D03*
D14*
X139730000Y-72500000D03*
G04 #@! TD*
D16*
G04 #@! TO.C,H10*
X248000000Y-49000000D03*
G04 #@! TD*
D44*
G04 #@! TO.C,U3*
X78410000Y-45349000D03*
X78410000Y-44079000D03*
X78410000Y-42809000D03*
X78410000Y-41539000D03*
X71210000Y-41539000D03*
X71210000Y-42809000D03*
X71210000Y-44079000D03*
X71210000Y-45349000D03*
G04 #@! TD*
D10*
G04 #@! TO.C,SW7_HP1*
X223853943Y-61000000D03*
D11*
X225123943Y-58460000D03*
D12*
X228933943Y-61000000D03*
D11*
X231473943Y-55920000D03*
D10*
X234013943Y-61000000D03*
G04 #@! TD*
D13*
G04 #@! TO.C,JP19*
X159275000Y-110500000D03*
D14*
X160575000Y-110500000D03*
G04 #@! TD*
D16*
G04 #@! TO.C,H5*
X78000000Y-64000000D03*
G04 #@! TD*
D10*
G04 #@! TO.C,SW16_SPACE1*
X145360000Y-136010000D03*
D11*
X146630000Y-133470000D03*
D12*
X150440000Y-136010000D03*
D11*
X152980000Y-130930000D03*
D10*
X155520000Y-136010000D03*
G04 #@! TD*
D16*
G04 #@! TO.C,H7*
X149500000Y-119250000D03*
G04 #@! TD*
D10*
G04 #@! TO.C,SW10_SHARE1*
X207420000Y-35080000D03*
D12*
X212500000Y-35080000D03*
D10*
X217580000Y-35080000D03*
D19*
X208690000Y-32540000D03*
X215040000Y-30000000D03*
G04 #@! TD*
D23*
G04 #@! TO.C,R9*
X102510000Y-38000000D03*
X101490000Y-38000000D03*
G04 #@! TD*
D20*
G04 #@! TO.C,C1*
X68520000Y-31000000D03*
X69480000Y-31000000D03*
G04 #@! TD*
D13*
G04 #@! TO.C,JP14*
X138430000Y-116500000D03*
D14*
X139730000Y-116500000D03*
G04 #@! TD*
D13*
G04 #@! TO.C,JP17*
X159275000Y-98500000D03*
D14*
X160575000Y-98500000D03*
G04 #@! TD*
D13*
G04 #@! TO.C,JP10*
X138430000Y-98500000D03*
D14*
X139730000Y-98500000D03*
G04 #@! TD*
D13*
G04 #@! TO.C,JP3*
X138430000Y-75500000D03*
D14*
X139730000Y-75500000D03*
G04 #@! TD*
D13*
G04 #@! TO.C,JP15*
X159275000Y-94500000D03*
D14*
X160575000Y-94500000D03*
G04 #@! TD*
D29*
G04 #@! TO.C,C2*
X72000000Y-35980000D03*
X72000000Y-35020000D03*
G04 #@! TD*
D18*
G04 #@! TO.C,C4*
X96360000Y-33680000D03*
X95400000Y-33680000D03*
G04 #@! TD*
D10*
G04 #@! TO.C,SW15_TOUCHPAD1*
X238420000Y-35080000D03*
D12*
X243500000Y-35080000D03*
D10*
X248580000Y-35080000D03*
D19*
X239690000Y-32540000D03*
X246040000Y-30000000D03*
G04 #@! TD*
D24*
G04 #@! TO.C,R1*
X70490000Y-29347000D03*
X71510000Y-29347000D03*
G04 #@! TD*
D10*
G04 #@! TO.C,SW14_PS1*
X222920000Y-35080000D03*
D12*
X228000000Y-35080000D03*
D10*
X233080000Y-35080000D03*
D19*
X224190000Y-32540000D03*
X230540000Y-30000000D03*
G04 #@! TD*
M02*
