M48
; DRILL file {KiCad 8.0.4} date 2024-07-23T17:58:50-0700
; FORMAT={-:-/ absolute / inch / decimal}
; #@! TF.CreationDate,2024-07-23T17:58:50-07:00
; #@! TF.GenerationSoftware,Kicad,Pcbnew,8.0.4
; #@! TF.FileFunction,NonPlated,1,2,NPTH
FMAT,2
INCH
; #@! TA.AperFunction,NonPlated,NPTH,ComponentDrill
T1C0.0689
; #@! TA.AperFunction,NonPlated,NPTH,ComponentDrill
T2C0.0709
; #@! TA.AperFunction,NonPlated,NPTH,ComponentDrill
T3C0.1200
; #@! TA.AperFunction,NonPlated,NPTH,ComponentDrill
T4C0.1260
; #@! TA.AperFunction,NonPlated,NPTH,ComponentDrill
T5C0.1570
; #@! TA.AperFunction,NonPlated,NPTH,ComponentDrill
T6C0.1575
%
G90
G05
T1
X3.954Y-2.1399
X3.9746Y-5.1185
X4.354Y-2.1399
X4.3746Y-5.1185
X4.9389Y-2.7165
X4.9389Y-3.8583
X4.946Y-1.5748
X5.3389Y-2.7165
X5.3389Y-3.8583
X5.346Y-1.5748
X5.9232Y-2.1654
X5.9232Y-3.3071
X6.3232Y-2.1654
X6.3232Y-3.3071
X7.0649Y-2.1654
X7.0649Y-3.3071
X7.4649Y-2.1654
X7.4649Y-3.3071
T2
X5.9498Y-1.1417
X6.3041Y-1.1417
X6.5404Y-1.1417
X6.8947Y-1.1417
X7.1309Y-1.1417
X7.4852Y-1.1417
X7.7215Y-1.1417
X8.0758Y-1.1417
T3
X3.7046Y-4.8435
X4.6446Y-4.8435
T4
X3.6565Y-4.4488
X4.2569Y-0.9646
X5.4774Y-5.4134
X6.5207Y-2.7362
X7.997Y-1.8701
X7.997Y-4.2126
T5
X3.7046Y-5.4423
X4.6446Y-5.4423
T6
X4.154Y-2.1399
X4.1746Y-5.1185
X5.1389Y-2.7165
X5.1389Y-3.8583
X5.146Y-1.5748
X6.1232Y-2.1654
X6.1232Y-3.3071
X7.2649Y-2.1654
X7.2649Y-3.3071
M30
