%TF.GenerationSoftware,KiCad,Pcbnew,8.0.4*%
%TF.CreationDate,2024-07-23T17:58:48-07:00*%
%TF.ProjectId,2board_b,32626f61-7264-45f6-922e-6b696361645f,rev?*%
%TF.SameCoordinates,Original*%
%TF.FileFunction,Copper,L2,Bot*%
%TF.FilePolarity,Positive*%
%FSLAX46Y46*%
G04 Gerber Fmt 4.6, Leading zero omitted, Abs format (unit mm)*
G04 Created by KiCad (PCBNEW 8.0.4) date 2024-07-23 17:58:48*
%MOMM*%
%LPD*%
G01*
G04 APERTURE LIST*
%TA.AperFunction,ComponentPad*%
%ADD10C,2.500000*%
%TD*%
%TA.AperFunction,ComponentPad*%
%ADD11O,1.700000X2.900000*%
%TD*%
%TA.AperFunction,ViaPad*%
%ADD12C,0.800000*%
%TD*%
%TA.AperFunction,Conductor*%
%ADD13C,0.800000*%
%TD*%
%TA.AperFunction,Conductor*%
%ADD14C,0.150000*%
%TD*%
G04 APERTURE END LIST*
D10*
%TO.P,SW3_MK1,1,1*%
%TO.N,/Buttons/B2*%
X151718943Y-81460000D03*
%TO.P,SW3_MK1,2,2*%
%TO.N,GND*%
X158068943Y-78920000D03*
%TD*%
%TO.P,SW4_LP1,1,1*%
%TO.N,/Buttons/B3*%
X126718943Y-66460000D03*
%TO.P,SW4_LP1,2,2*%
%TO.N,GND*%
X133068943Y-63920000D03*
%TD*%
%TO.P,SW6_DI1,1,1*%
%TO.N,/Buttons/L1*%
X126899257Y-37460561D03*
%TO.P,SW6_DI1,2,2*%
%TO.N,GND*%
X133249257Y-34920561D03*
%TD*%
D11*
%TO.P,SW11_START1,1,1*%
%TO.N,/Buttons/S2*%
X153125000Y-35250000D03*
X153125000Y-22750000D03*
%TO.P,SW11_START1,2,2*%
%TO.N,GND*%
X158125000Y-35250000D03*
X158125000Y-22750000D03*
%TD*%
%TO.P,SW15_TOUCHPAD1,1,1*%
%TO.N,/Buttons/A2*%
X198125000Y-35250000D03*
X198125000Y-22750000D03*
%TO.P,SW15_TOUCHPAD1,2,2*%
%TO.N,GND*%
X203125000Y-35250000D03*
X203125000Y-22750000D03*
%TD*%
D10*
%TO.P,SW5_MP1,1,1*%
%TO.N,/Buttons/B4*%
X151718943Y-52460000D03*
%TO.P,SW5_MP1,2,2*%
%TO.N,GND*%
X158068943Y-49920000D03*
%TD*%
D11*
%TO.P,SW14_PS1,1,1*%
%TO.N,/Buttons/A1*%
X183125000Y-35250000D03*
X183125000Y-22750000D03*
%TO.P,SW14_PS1,2,2*%
%TO.N,GND*%
X188125000Y-35250000D03*
X188125000Y-22750000D03*
%TD*%
D10*
%TO.P,SW2_LK1,1,1*%
%TO.N,/Buttons/B1*%
X126718943Y-95460000D03*
%TO.P,SW2_LK1,2,2*%
%TO.N,GND*%
X133068943Y-92920000D03*
%TD*%
%TO.P,SW9_HK1,1,1*%
%TO.N,/Buttons/R2*%
X180718943Y-81460000D03*
%TO.P,SW9_HK1,2,2*%
%TO.N,GND*%
X187068943Y-78920000D03*
%TD*%
%TO.P,SW12_THROW1,1,1*%
%TO.N,/Buttons/L3*%
X101700906Y-51814124D03*
%TO.P,SW12_THROW1,2,2*%
%TO.N,GND*%
X108050906Y-49274124D03*
%TD*%
D11*
%TO.P,SW10_SHARE1,1,1*%
%TO.N,/Buttons/S1*%
X168125000Y-35250000D03*
X168125000Y-22750000D03*
%TO.P,SW10_SHARE1,2,2*%
%TO.N,GND*%
X173125000Y-35250000D03*
X173125000Y-22750000D03*
%TD*%
D10*
%TO.P,SW16_SPACE1,1,1*%
%TO.N,/Buttons/SPACE*%
X102225000Y-127470000D03*
%TO.P,SW16_SPACE1,2,2*%
%TO.N,GND*%
X108575000Y-124930000D03*
%TD*%
%TO.P,SW7_HP1,1,1*%
%TO.N,/Buttons/R1*%
X180718943Y-52460000D03*
%TO.P,SW7_HP1,2,2*%
%TO.N,GND*%
X187068943Y-49920000D03*
%TD*%
D12*
%TO.N,GND*%
X98125000Y-24000000D03*
%TD*%
D13*
%TO.N,GND*%
X158068943Y-49920000D02*
X147068943Y-49920000D01*
X133249257Y-34920561D02*
X133228696Y-34900000D01*
X133068943Y-63920000D02*
X133625000Y-63363943D01*
X158125000Y-22750000D02*
X160375000Y-25000000D01*
X200875000Y-25000000D02*
X203125000Y-22750000D01*
X133625000Y-64476057D02*
X133625000Y-92363943D01*
X170875000Y-25000000D02*
X173125000Y-22750000D01*
X133625000Y-63363943D02*
X133625000Y-35296304D01*
X133068943Y-63920000D02*
X143068943Y-63920000D01*
X142545561Y-34920561D02*
X157545000Y-49920000D01*
X157545000Y-49920000D02*
X158068943Y-49920000D01*
X158125000Y-40250000D02*
X158068943Y-40306057D01*
X158125000Y-22750000D02*
X158125000Y-35250000D01*
X190375000Y-25000000D02*
X200875000Y-25000000D01*
X188125000Y-48863943D02*
X188125000Y-22750000D01*
X121675000Y-20700000D02*
X156075000Y-20700000D01*
X147068943Y-49920000D02*
X133068943Y-63920000D01*
X118375000Y-24000000D02*
X121675000Y-20700000D01*
X133249257Y-34920561D02*
X142545561Y-34920561D01*
X122328696Y-24000000D02*
X133249257Y-34920561D01*
X158068943Y-49920000D02*
X187068943Y-49920000D01*
X160375000Y-25000000D02*
X170875000Y-25000000D01*
X156075000Y-20700000D02*
X158125000Y-22750000D01*
X173125000Y-22750000D02*
X173125000Y-35250000D01*
X133625000Y-35296304D02*
X133249257Y-34920561D01*
X176125000Y-25000000D02*
X185875000Y-25000000D01*
X108050906Y-49274124D02*
X108050906Y-33125906D01*
X108050906Y-33125906D02*
X98125000Y-24000000D01*
X143068943Y-63920000D02*
X158068943Y-78920000D01*
X188125000Y-22750000D02*
X190375000Y-25000000D01*
X118375000Y-24000000D02*
X122328696Y-24000000D01*
X193455000Y-49920000D02*
X187068943Y-49920000D01*
X108050906Y-33125906D02*
X109249094Y-33125906D01*
X173875000Y-22750000D02*
X176125000Y-25000000D01*
X133068943Y-63920000D02*
X133625000Y-64476057D01*
X185875000Y-25000000D02*
X188125000Y-22750000D01*
X158125000Y-35250000D02*
X158125000Y-40250000D01*
X203125000Y-22750000D02*
X203125000Y-40250000D01*
X108575000Y-124930000D02*
X108575000Y-49798218D01*
X187068943Y-49920000D02*
X188125000Y-48863943D01*
X203125000Y-40250000D02*
X193455000Y-49920000D01*
X158068943Y-78920000D02*
X187068943Y-78920000D01*
X158068943Y-49920000D02*
X158068943Y-40306057D01*
X173125000Y-22750000D02*
X173875000Y-22750000D01*
X133625000Y-92363943D02*
X133068943Y-92920000D01*
X109249094Y-33125906D02*
X118375000Y-24000000D01*
D14*
%TO.N,/Buttons/S2*%
X153125000Y-22750000D02*
X153125000Y-35250000D01*
%TD*%
M02*
