%TF.GenerationSoftware,KiCad,Pcbnew,8.0.4*%
%TF.CreationDate,2024-07-23T17:58:48-07:00*%
%TF.ProjectId,2board_b,32626f61-7264-45f6-922e-6b696361645f,rev?*%
%TF.SameCoordinates,Original*%
%TF.FileFunction,Soldermask,Top*%
%TF.FilePolarity,Negative*%
%FSLAX46Y46*%
G04 Gerber Fmt 4.6, Leading zero omitted, Abs format (unit mm)*
G04 Created by KiCad (PCBNEW 8.0.4) date 2024-07-23 17:58:48*
%MOMM*%
%LPD*%
G01*
G04 APERTURE LIST*
G04 Aperture macros list*
%AMFreePoly0*
4,1,19,0.000000,0.744911,0.071157,0.744911,0.207708,0.704816,0.327430,0.627875,0.420627,0.520320,0.479746,0.390866,0.500000,0.250000,0.500000,-0.250000,0.479746,-0.390866,0.420627,-0.520320,0.327430,-0.627875,0.207708,-0.704816,0.071157,-0.744911,0.000000,-0.744911,0.000000,-0.750000,-0.500000,-0.750000,-0.500000,0.750000,0.000000,0.750000,0.000000,0.744911,0.000000,0.744911,
$1*%
G04 Aperture macros list end*
%ADD10FreePoly0,0.000000*%
%ADD11C,3.048000*%
%ADD12C,3.987800*%
%ADD13C,3.200000*%
%ADD14C,1.750000*%
%ADD15C,4.000000*%
%ADD16C,2.500000*%
%ADD17C,1.800000*%
%ADD18O,1.700000X2.900000*%
G04 APERTURE END LIST*
D10*
%TO.C,JP12*%
X95315000Y-97480000D03*
%TD*%
%TO.C,JP2*%
X95315000Y-26500000D03*
%TD*%
%TO.C,JP14*%
X95315000Y-104580000D03*
%TD*%
%TO.C,JP11*%
X95315000Y-93930000D03*
%TD*%
%TO.C,JP9*%
X95315000Y-44050000D03*
%TD*%
%TO.C,JP6*%
X95315000Y-36550000D03*
%TD*%
%TO.C,JP4*%
X95315000Y-31550000D03*
%TD*%
%TO.C,JP5*%
X95315000Y-34050000D03*
%TD*%
%TO.C,JP8*%
X95315000Y-41550000D03*
%TD*%
%TO.C,JP1*%
X95315000Y-24000000D03*
%TD*%
%TO.C,JP13*%
X95315000Y-101030000D03*
%TD*%
%TO.C,JP7*%
X95315000Y-39050000D03*
%TD*%
%TO.C,JP3*%
X95315000Y-29000000D03*
%TD*%
%TO.C,JP10*%
X95315000Y-90380000D03*
%TD*%
D11*
%TO.C,S1*%
X94097000Y-123025000D03*
D12*
X94097000Y-138235000D03*
D11*
X117973000Y-123025000D03*
D12*
X117973000Y-138235000D03*
%TD*%
D13*
%TO.C,H10*%
X92875000Y-113000000D03*
%TD*%
%TO.C,H9*%
X165625000Y-69500000D03*
%TD*%
D14*
%TO.C,SW3_MK1*%
X150448943Y-84000000D03*
D15*
X155528943Y-84000000D03*
D14*
X160608943Y-84000000D03*
D16*
X151718943Y-81460000D03*
X158068943Y-78920000D03*
%TD*%
D13*
%TO.C,H4*%
X139125000Y-137500000D03*
%TD*%
D14*
%TO.C,SW4_LP1*%
X125448943Y-69000000D03*
D15*
X130528943Y-69000000D03*
D14*
X135608943Y-69000000D03*
D16*
X126718943Y-66460000D03*
X133068943Y-63920000D03*
%TD*%
D13*
%TO.C,H3*%
X108125000Y-24500000D03*
%TD*%
D14*
%TO.C,SW6_DI1*%
X125629257Y-40000561D03*
D15*
X130709257Y-40000561D03*
D14*
X135789257Y-40000561D03*
D16*
X126899257Y-37460561D03*
X133249257Y-34920561D03*
%TD*%
D17*
%TO.C,SW11_START1*%
X151125000Y-29000000D03*
X160125000Y-29000000D03*
D18*
X153125000Y-35250000D03*
X153125000Y-22750000D03*
X158125000Y-35250000D03*
X158125000Y-22750000D03*
%TD*%
D17*
%TO.C,SW15_TOUCHPAD1*%
X196125000Y-29000000D03*
X205125000Y-29000000D03*
D18*
X198125000Y-35250000D03*
X198125000Y-22750000D03*
X203125000Y-35250000D03*
X203125000Y-22750000D03*
%TD*%
D14*
%TO.C,SW5_MP1*%
X150448943Y-55000000D03*
D15*
X155528943Y-55000000D03*
D14*
X160608943Y-55000000D03*
D16*
X151718943Y-52460000D03*
X158068943Y-49920000D03*
%TD*%
D17*
%TO.C,SW14_PS1*%
X181125000Y-29000000D03*
X190125000Y-29000000D03*
D18*
X183125000Y-35250000D03*
X183125000Y-22750000D03*
X188125000Y-35250000D03*
X188125000Y-22750000D03*
%TD*%
D14*
%TO.C,SW2_LK1*%
X125448943Y-98000000D03*
D15*
X130528943Y-98000000D03*
D14*
X135608943Y-98000000D03*
D16*
X126718943Y-95460000D03*
X133068943Y-92920000D03*
%TD*%
D14*
%TO.C,SW9_HK1*%
X179448943Y-84000000D03*
D15*
X184528943Y-84000000D03*
D14*
X189608943Y-84000000D03*
D16*
X180718943Y-81460000D03*
X187068943Y-78920000D03*
%TD*%
D13*
%TO.C,H5*%
X203125000Y-107000000D03*
%TD*%
D14*
%TO.C,SW12_THROW1*%
X100430906Y-54354124D03*
D15*
X105510906Y-54354124D03*
D14*
X110590906Y-54354124D03*
D16*
X101700906Y-51814124D03*
X108050906Y-49274124D03*
%TD*%
D17*
%TO.C,SW10_SHARE1*%
X166125000Y-29000000D03*
X175125000Y-29000000D03*
D18*
X168125000Y-35250000D03*
X168125000Y-22750000D03*
X173125000Y-35250000D03*
X173125000Y-22750000D03*
%TD*%
D14*
%TO.C,SW16_SPACE1*%
X100955000Y-130010000D03*
D15*
X106035000Y-130010000D03*
D14*
X111115000Y-130010000D03*
D16*
X102225000Y-127470000D03*
X108575000Y-124930000D03*
%TD*%
D14*
%TO.C,SW7_HP1*%
X179448943Y-55000000D03*
D15*
X184528943Y-55000000D03*
D14*
X189608943Y-55000000D03*
D16*
X180718943Y-52460000D03*
X187068943Y-49920000D03*
%TD*%
D13*
%TO.C,H6*%
X203125000Y-47500000D03*
%TD*%
M02*
