%TF.GenerationSoftware,KiCad,Pcbnew,8.0.4*%
%TF.CreationDate,2024-07-23T17:58:51-07:00*%
%TF.ProjectId,2board_b,32626f61-7264-45f6-922e-6b696361645f,rev?*%
%TF.SameCoordinates,Original*%
%TF.FileFunction,Drillmap*%
%TF.FilePolarity,Positive*%
%FSLAX45Y45*%
G04 Gerber Fmt 4.5, Leading zero omitted, Abs format (unit mm)*
G04 Created by KiCad (PCBNEW 8.0.4) date 2024-07-23 17:58:51*
%MOMM*%
%LPD*%
G01*
G04 APERTURE LIST*
%ADD10C,0.100000*%
%ADD11C,0.200000*%
%ADD12C,0.120000*%
%ADD13C,0.150000*%
G04 APERTURE END LIST*
D10*
X20812500Y-2000000D02*
X20809500Y-11150000D01*
X20809500Y-11150000D02*
X14287500Y-11150000D01*
X9473500Y-10750000D02*
X9473500Y-2000000D01*
X8887500Y-10749500D02*
X9473500Y-10750000D01*
X14287500Y-11150000D02*
X14287500Y-14125000D01*
X14287500Y-14125000D02*
X8887500Y-14125000D01*
X8887500Y-14125000D02*
X8887500Y-10749500D01*
X9473500Y-2000000D02*
X20812500Y-2000000D01*
D11*
D10*
X9792500Y-2380000D02*
X9832500Y-2420000D01*
X9832500Y-2380000D02*
X9792500Y-2420000D01*
D12*
X15372500Y-2275000D02*
G75*
G02*
X15252500Y-2275000I-60000J0D01*
G01*
X15252500Y-2275000D02*
G75*
G02*
X15372500Y-2275000I60000J0D01*
G01*
X15372500Y-3525000D02*
G75*
G02*
X15252500Y-3525000I-60000J0D01*
G01*
X15252500Y-3525000D02*
G75*
G02*
X15372500Y-3525000I60000J0D01*
G01*
X15872500Y-2275000D02*
G75*
G02*
X15752500Y-2275000I-60000J0D01*
G01*
X15752500Y-2275000D02*
G75*
G02*
X15872500Y-2275000I60000J0D01*
G01*
X15872500Y-3525000D02*
G75*
G02*
X15752500Y-3525000I-60000J0D01*
G01*
X15752500Y-3525000D02*
G75*
G02*
X15872500Y-3525000I60000J0D01*
G01*
X16872500Y-2275000D02*
G75*
G02*
X16752500Y-2275000I-60000J0D01*
G01*
X16752500Y-2275000D02*
G75*
G02*
X16872500Y-2275000I60000J0D01*
G01*
X16872500Y-3525000D02*
G75*
G02*
X16752500Y-3525000I-60000J0D01*
G01*
X16752500Y-3525000D02*
G75*
G02*
X16872500Y-3525000I60000J0D01*
G01*
X17372500Y-2275000D02*
G75*
G02*
X17252500Y-2275000I-60000J0D01*
G01*
X17252500Y-2275000D02*
G75*
G02*
X17372500Y-2275000I60000J0D01*
G01*
X17372500Y-3525000D02*
G75*
G02*
X17252500Y-3525000I-60000J0D01*
G01*
X17252500Y-3525000D02*
G75*
G02*
X17372500Y-3525000I60000J0D01*
G01*
X18372500Y-2275000D02*
G75*
G02*
X18252500Y-2275000I-60000J0D01*
G01*
X18252500Y-2275000D02*
G75*
G02*
X18372500Y-2275000I60000J0D01*
G01*
X18372500Y-3525000D02*
G75*
G02*
X18252500Y-3525000I-60000J0D01*
G01*
X18252500Y-3525000D02*
G75*
G02*
X18372500Y-3525000I60000J0D01*
G01*
X18872500Y-2275000D02*
G75*
G02*
X18752500Y-2275000I-60000J0D01*
G01*
X18752500Y-2275000D02*
G75*
G02*
X18872500Y-2275000I60000J0D01*
G01*
X18872500Y-3525000D02*
G75*
G02*
X18752500Y-3525000I-60000J0D01*
G01*
X18752500Y-3525000D02*
G75*
G02*
X18872500Y-3525000I60000J0D01*
G01*
X19872500Y-2275000D02*
G75*
G02*
X19752500Y-2275000I-60000J0D01*
G01*
X19752500Y-2275000D02*
G75*
G02*
X19872500Y-2275000I60000J0D01*
G01*
X19872500Y-3525000D02*
G75*
G02*
X19752500Y-3525000I-60000J0D01*
G01*
X19752500Y-3525000D02*
G75*
G02*
X19872500Y-3525000I60000J0D01*
G01*
X20372500Y-2275000D02*
G75*
G02*
X20252500Y-2275000I-60000J0D01*
G01*
X20252500Y-2275000D02*
G75*
G02*
X20372500Y-2275000I60000J0D01*
G01*
X20372500Y-3525000D02*
G75*
G02*
X20252500Y-3525000I-60000J0D01*
G01*
X20252500Y-3525000D02*
G75*
G02*
X20372500Y-3525000I60000J0D01*
G01*
D13*
X10170091Y-5106412D02*
X10170091Y-5256412D01*
X10095091Y-5181412D02*
X10245091Y-5181412D01*
X10222500Y-12672000D02*
X10222500Y-12822000D01*
X10147500Y-12747000D02*
X10297500Y-12747000D01*
X10805091Y-4852412D02*
X10805091Y-5002412D01*
X10730091Y-4927412D02*
X10880091Y-4927412D01*
X10857500Y-12418000D02*
X10857500Y-12568000D01*
X10782500Y-12493000D02*
X10932500Y-12493000D01*
X12671894Y-6571000D02*
X12671894Y-6721000D01*
X12596894Y-6646000D02*
X12746894Y-6646000D01*
X12671894Y-9471000D02*
X12671894Y-9621000D01*
X12596894Y-9546000D02*
X12746894Y-9546000D01*
X12689926Y-3671056D02*
X12689926Y-3821056D01*
X12614926Y-3746056D02*
X12764926Y-3746056D01*
X13306894Y-6317000D02*
X13306894Y-6467000D01*
X13231894Y-6392000D02*
X13381894Y-6392000D01*
X13306894Y-9217000D02*
X13306894Y-9367000D01*
X13231894Y-9292000D02*
X13381894Y-9292000D01*
X13324926Y-3417056D02*
X13324926Y-3567056D01*
X13249926Y-3492056D02*
X13399926Y-3492056D01*
X15171894Y-5171000D02*
X15171894Y-5321000D01*
X15096894Y-5246000D02*
X15246894Y-5246000D01*
X15171894Y-8071000D02*
X15171894Y-8221000D01*
X15096894Y-8146000D02*
X15246894Y-8146000D01*
X15806894Y-4917000D02*
X15806894Y-5067000D01*
X15731894Y-4992000D02*
X15881894Y-4992000D01*
X15806894Y-7817000D02*
X15806894Y-7967000D01*
X15731894Y-7892000D02*
X15881894Y-7892000D01*
X18071894Y-5171000D02*
X18071894Y-5321000D01*
X17996894Y-5246000D02*
X18146894Y-5246000D01*
X18071894Y-8071000D02*
X18071894Y-8221000D01*
X17996894Y-8146000D02*
X18146894Y-8146000D01*
X18706894Y-4917000D02*
X18706894Y-5067000D01*
X18631894Y-4992000D02*
X18781894Y-4992000D01*
X18706894Y-7817000D02*
X18706894Y-7967000D01*
X18631894Y-7892000D02*
X18781894Y-7892000D01*
D11*
X9143277Y-14441484D02*
X9143277Y-14241484D01*
X9143277Y-14241484D02*
X9190896Y-14241484D01*
X9190896Y-14241484D02*
X9219467Y-14251008D01*
X9219467Y-14251008D02*
X9238515Y-14270055D01*
X9238515Y-14270055D02*
X9248039Y-14289103D01*
X9248039Y-14289103D02*
X9257563Y-14327198D01*
X9257563Y-14327198D02*
X9257563Y-14355769D01*
X9257563Y-14355769D02*
X9248039Y-14393865D01*
X9248039Y-14393865D02*
X9238515Y-14412912D01*
X9238515Y-14412912D02*
X9219467Y-14431960D01*
X9219467Y-14431960D02*
X9190896Y-14441484D01*
X9190896Y-14441484D02*
X9143277Y-14441484D01*
X9343277Y-14441484D02*
X9343277Y-14308150D01*
X9343277Y-14346246D02*
X9352801Y-14327198D01*
X9352801Y-14327198D02*
X9362324Y-14317674D01*
X9362324Y-14317674D02*
X9381372Y-14308150D01*
X9381372Y-14308150D02*
X9400420Y-14308150D01*
X9467086Y-14441484D02*
X9467086Y-14308150D01*
X9467086Y-14241484D02*
X9457563Y-14251008D01*
X9457563Y-14251008D02*
X9467086Y-14260531D01*
X9467086Y-14260531D02*
X9476610Y-14251008D01*
X9476610Y-14251008D02*
X9467086Y-14241484D01*
X9467086Y-14241484D02*
X9467086Y-14260531D01*
X9590896Y-14441484D02*
X9571848Y-14431960D01*
X9571848Y-14431960D02*
X9562324Y-14412912D01*
X9562324Y-14412912D02*
X9562324Y-14241484D01*
X9695658Y-14441484D02*
X9676610Y-14431960D01*
X9676610Y-14431960D02*
X9667086Y-14412912D01*
X9667086Y-14412912D02*
X9667086Y-14241484D01*
X9924229Y-14441484D02*
X9924229Y-14241484D01*
X9924229Y-14241484D02*
X9990896Y-14384341D01*
X9990896Y-14384341D02*
X10057563Y-14241484D01*
X10057563Y-14241484D02*
X10057563Y-14441484D01*
X10238515Y-14441484D02*
X10238515Y-14336722D01*
X10238515Y-14336722D02*
X10228991Y-14317674D01*
X10228991Y-14317674D02*
X10209944Y-14308150D01*
X10209944Y-14308150D02*
X10171848Y-14308150D01*
X10171848Y-14308150D02*
X10152801Y-14317674D01*
X10238515Y-14431960D02*
X10219467Y-14441484D01*
X10219467Y-14441484D02*
X10171848Y-14441484D01*
X10171848Y-14441484D02*
X10152801Y-14431960D01*
X10152801Y-14431960D02*
X10143277Y-14412912D01*
X10143277Y-14412912D02*
X10143277Y-14393865D01*
X10143277Y-14393865D02*
X10152801Y-14374817D01*
X10152801Y-14374817D02*
X10171848Y-14365293D01*
X10171848Y-14365293D02*
X10219467Y-14365293D01*
X10219467Y-14365293D02*
X10238515Y-14355769D01*
X10333753Y-14308150D02*
X10333753Y-14508150D01*
X10333753Y-14317674D02*
X10352801Y-14308150D01*
X10352801Y-14308150D02*
X10390896Y-14308150D01*
X10390896Y-14308150D02*
X10409944Y-14317674D01*
X10409944Y-14317674D02*
X10419467Y-14327198D01*
X10419467Y-14327198D02*
X10428991Y-14346246D01*
X10428991Y-14346246D02*
X10428991Y-14403388D01*
X10428991Y-14403388D02*
X10419467Y-14422436D01*
X10419467Y-14422436D02*
X10409944Y-14431960D01*
X10409944Y-14431960D02*
X10390896Y-14441484D01*
X10390896Y-14441484D02*
X10352801Y-14441484D01*
X10352801Y-14441484D02*
X10333753Y-14431960D01*
X10514705Y-14422436D02*
X10524229Y-14431960D01*
X10524229Y-14431960D02*
X10514705Y-14441484D01*
X10514705Y-14441484D02*
X10505182Y-14431960D01*
X10505182Y-14431960D02*
X10514705Y-14422436D01*
X10514705Y-14422436D02*
X10514705Y-14441484D01*
X10514705Y-14317674D02*
X10524229Y-14327198D01*
X10524229Y-14327198D02*
X10514705Y-14336722D01*
X10514705Y-14336722D02*
X10505182Y-14327198D01*
X10505182Y-14327198D02*
X10514705Y-14317674D01*
X10514705Y-14317674D02*
X10514705Y-14336722D01*
D10*
X8842500Y-14750000D02*
X8882500Y-14790000D01*
X8882500Y-14750000D02*
X8842500Y-14790000D01*
D11*
X9181372Y-14661484D02*
X9200420Y-14661484D01*
X9200420Y-14661484D02*
X9219467Y-14671008D01*
X9219467Y-14671008D02*
X9228991Y-14680531D01*
X9228991Y-14680531D02*
X9238515Y-14699579D01*
X9238515Y-14699579D02*
X9248039Y-14737674D01*
X9248039Y-14737674D02*
X9248039Y-14785293D01*
X9248039Y-14785293D02*
X9238515Y-14823388D01*
X9238515Y-14823388D02*
X9228991Y-14842436D01*
X9228991Y-14842436D02*
X9219467Y-14851960D01*
X9219467Y-14851960D02*
X9200420Y-14861484D01*
X9200420Y-14861484D02*
X9181372Y-14861484D01*
X9181372Y-14861484D02*
X9162324Y-14851960D01*
X9162324Y-14851960D02*
X9152801Y-14842436D01*
X9152801Y-14842436D02*
X9143277Y-14823388D01*
X9143277Y-14823388D02*
X9133753Y-14785293D01*
X9133753Y-14785293D02*
X9133753Y-14737674D01*
X9133753Y-14737674D02*
X9143277Y-14699579D01*
X9143277Y-14699579D02*
X9152801Y-14680531D01*
X9152801Y-14680531D02*
X9162324Y-14671008D01*
X9162324Y-14671008D02*
X9181372Y-14661484D01*
X9333753Y-14842436D02*
X9343277Y-14851960D01*
X9343277Y-14851960D02*
X9333753Y-14861484D01*
X9333753Y-14861484D02*
X9324229Y-14851960D01*
X9324229Y-14851960D02*
X9333753Y-14842436D01*
X9333753Y-14842436D02*
X9333753Y-14861484D01*
X9514705Y-14728150D02*
X9514705Y-14861484D01*
X9467086Y-14651960D02*
X9419467Y-14794817D01*
X9419467Y-14794817D02*
X9543277Y-14794817D01*
X9657563Y-14661484D02*
X9676610Y-14661484D01*
X9676610Y-14661484D02*
X9695658Y-14671008D01*
X9695658Y-14671008D02*
X9705182Y-14680531D01*
X9705182Y-14680531D02*
X9714705Y-14699579D01*
X9714705Y-14699579D02*
X9724229Y-14737674D01*
X9724229Y-14737674D02*
X9724229Y-14785293D01*
X9724229Y-14785293D02*
X9714705Y-14823388D01*
X9714705Y-14823388D02*
X9705182Y-14842436D01*
X9705182Y-14842436D02*
X9695658Y-14851960D01*
X9695658Y-14851960D02*
X9676610Y-14861484D01*
X9676610Y-14861484D02*
X9657563Y-14861484D01*
X9657563Y-14861484D02*
X9638515Y-14851960D01*
X9638515Y-14851960D02*
X9628991Y-14842436D01*
X9628991Y-14842436D02*
X9619467Y-14823388D01*
X9619467Y-14823388D02*
X9609944Y-14785293D01*
X9609944Y-14785293D02*
X9609944Y-14737674D01*
X9609944Y-14737674D02*
X9619467Y-14699579D01*
X9619467Y-14699579D02*
X9628991Y-14680531D01*
X9628991Y-14680531D02*
X9638515Y-14671008D01*
X9638515Y-14671008D02*
X9657563Y-14661484D01*
X9848039Y-14661484D02*
X9867086Y-14661484D01*
X9867086Y-14661484D02*
X9886134Y-14671008D01*
X9886134Y-14671008D02*
X9895658Y-14680531D01*
X9895658Y-14680531D02*
X9905182Y-14699579D01*
X9905182Y-14699579D02*
X9914705Y-14737674D01*
X9914705Y-14737674D02*
X9914705Y-14785293D01*
X9914705Y-14785293D02*
X9905182Y-14823388D01*
X9905182Y-14823388D02*
X9895658Y-14842436D01*
X9895658Y-14842436D02*
X9886134Y-14851960D01*
X9886134Y-14851960D02*
X9867086Y-14861484D01*
X9867086Y-14861484D02*
X9848039Y-14861484D01*
X9848039Y-14861484D02*
X9828991Y-14851960D01*
X9828991Y-14851960D02*
X9819467Y-14842436D01*
X9819467Y-14842436D02*
X9809944Y-14823388D01*
X9809944Y-14823388D02*
X9800420Y-14785293D01*
X9800420Y-14785293D02*
X9800420Y-14737674D01*
X9800420Y-14737674D02*
X9809944Y-14699579D01*
X9809944Y-14699579D02*
X9819467Y-14680531D01*
X9819467Y-14680531D02*
X9828991Y-14671008D01*
X9828991Y-14671008D02*
X9848039Y-14661484D01*
X10000420Y-14861484D02*
X10000420Y-14728150D01*
X10000420Y-14747198D02*
X10009944Y-14737674D01*
X10009944Y-14737674D02*
X10028991Y-14728150D01*
X10028991Y-14728150D02*
X10057563Y-14728150D01*
X10057563Y-14728150D02*
X10076610Y-14737674D01*
X10076610Y-14737674D02*
X10086134Y-14756722D01*
X10086134Y-14756722D02*
X10086134Y-14861484D01*
X10086134Y-14756722D02*
X10095658Y-14737674D01*
X10095658Y-14737674D02*
X10114705Y-14728150D01*
X10114705Y-14728150D02*
X10143277Y-14728150D01*
X10143277Y-14728150D02*
X10162325Y-14737674D01*
X10162325Y-14737674D02*
X10171848Y-14756722D01*
X10171848Y-14756722D02*
X10171848Y-14861484D01*
X10267086Y-14861484D02*
X10267086Y-14728150D01*
X10267086Y-14747198D02*
X10276610Y-14737674D01*
X10276610Y-14737674D02*
X10295658Y-14728150D01*
X10295658Y-14728150D02*
X10324229Y-14728150D01*
X10324229Y-14728150D02*
X10343277Y-14737674D01*
X10343277Y-14737674D02*
X10352801Y-14756722D01*
X10352801Y-14756722D02*
X10352801Y-14861484D01*
X10352801Y-14756722D02*
X10362325Y-14737674D01*
X10362325Y-14737674D02*
X10381372Y-14728150D01*
X10381372Y-14728150D02*
X10409944Y-14728150D01*
X10409944Y-14728150D02*
X10428991Y-14737674D01*
X10428991Y-14737674D02*
X10438515Y-14756722D01*
X10438515Y-14756722D02*
X10438515Y-14861484D01*
X10828991Y-14651960D02*
X10657563Y-14909103D01*
X11086134Y-14661484D02*
X11105182Y-14661484D01*
X11105182Y-14661484D02*
X11124229Y-14671008D01*
X11124229Y-14671008D02*
X11133753Y-14680531D01*
X11133753Y-14680531D02*
X11143277Y-14699579D01*
X11143277Y-14699579D02*
X11152801Y-14737674D01*
X11152801Y-14737674D02*
X11152801Y-14785293D01*
X11152801Y-14785293D02*
X11143277Y-14823388D01*
X11143277Y-14823388D02*
X11133753Y-14842436D01*
X11133753Y-14842436D02*
X11124229Y-14851960D01*
X11124229Y-14851960D02*
X11105182Y-14861484D01*
X11105182Y-14861484D02*
X11086134Y-14861484D01*
X11086134Y-14861484D02*
X11067087Y-14851960D01*
X11067087Y-14851960D02*
X11057563Y-14842436D01*
X11057563Y-14842436D02*
X11048039Y-14823388D01*
X11048039Y-14823388D02*
X11038515Y-14785293D01*
X11038515Y-14785293D02*
X11038515Y-14737674D01*
X11038515Y-14737674D02*
X11048039Y-14699579D01*
X11048039Y-14699579D02*
X11057563Y-14680531D01*
X11057563Y-14680531D02*
X11067087Y-14671008D01*
X11067087Y-14671008D02*
X11086134Y-14661484D01*
X11238515Y-14842436D02*
X11248039Y-14851960D01*
X11248039Y-14851960D02*
X11238515Y-14861484D01*
X11238515Y-14861484D02*
X11228991Y-14851960D01*
X11228991Y-14851960D02*
X11238515Y-14842436D01*
X11238515Y-14842436D02*
X11238515Y-14861484D01*
X11371848Y-14661484D02*
X11390896Y-14661484D01*
X11390896Y-14661484D02*
X11409944Y-14671008D01*
X11409944Y-14671008D02*
X11419467Y-14680531D01*
X11419467Y-14680531D02*
X11428991Y-14699579D01*
X11428991Y-14699579D02*
X11438515Y-14737674D01*
X11438515Y-14737674D02*
X11438515Y-14785293D01*
X11438515Y-14785293D02*
X11428991Y-14823388D01*
X11428991Y-14823388D02*
X11419467Y-14842436D01*
X11419467Y-14842436D02*
X11409944Y-14851960D01*
X11409944Y-14851960D02*
X11390896Y-14861484D01*
X11390896Y-14861484D02*
X11371848Y-14861484D01*
X11371848Y-14861484D02*
X11352801Y-14851960D01*
X11352801Y-14851960D02*
X11343277Y-14842436D01*
X11343277Y-14842436D02*
X11333753Y-14823388D01*
X11333753Y-14823388D02*
X11324229Y-14785293D01*
X11324229Y-14785293D02*
X11324229Y-14737674D01*
X11324229Y-14737674D02*
X11333753Y-14699579D01*
X11333753Y-14699579D02*
X11343277Y-14680531D01*
X11343277Y-14680531D02*
X11352801Y-14671008D01*
X11352801Y-14671008D02*
X11371848Y-14661484D01*
X11628991Y-14861484D02*
X11514706Y-14861484D01*
X11571848Y-14861484D02*
X11571848Y-14661484D01*
X11571848Y-14661484D02*
X11552801Y-14690055D01*
X11552801Y-14690055D02*
X11533753Y-14709103D01*
X11533753Y-14709103D02*
X11514706Y-14718627D01*
X11809944Y-14661484D02*
X11714706Y-14661484D01*
X11714706Y-14661484D02*
X11705182Y-14756722D01*
X11705182Y-14756722D02*
X11714706Y-14747198D01*
X11714706Y-14747198D02*
X11733753Y-14737674D01*
X11733753Y-14737674D02*
X11781372Y-14737674D01*
X11781372Y-14737674D02*
X11800420Y-14747198D01*
X11800420Y-14747198D02*
X11809944Y-14756722D01*
X11809944Y-14756722D02*
X11819467Y-14775769D01*
X11819467Y-14775769D02*
X11819467Y-14823388D01*
X11819467Y-14823388D02*
X11809944Y-14842436D01*
X11809944Y-14842436D02*
X11800420Y-14851960D01*
X11800420Y-14851960D02*
X11781372Y-14861484D01*
X11781372Y-14861484D02*
X11733753Y-14861484D01*
X11733753Y-14861484D02*
X11714706Y-14851960D01*
X11714706Y-14851960D02*
X11705182Y-14842436D01*
X11886134Y-14661484D02*
X12019467Y-14661484D01*
X12019467Y-14661484D02*
X11933753Y-14861484D01*
X12086134Y-14661484D02*
X12086134Y-14699579D01*
X12162325Y-14661484D02*
X12162325Y-14699579D01*
X12457563Y-14937674D02*
X12448039Y-14928150D01*
X12448039Y-14928150D02*
X12428991Y-14899579D01*
X12428991Y-14899579D02*
X12419468Y-14880531D01*
X12419468Y-14880531D02*
X12409944Y-14851960D01*
X12409944Y-14851960D02*
X12400420Y-14804341D01*
X12400420Y-14804341D02*
X12400420Y-14766246D01*
X12400420Y-14766246D02*
X12409944Y-14718627D01*
X12409944Y-14718627D02*
X12419468Y-14690055D01*
X12419468Y-14690055D02*
X12428991Y-14671008D01*
X12428991Y-14671008D02*
X12448039Y-14642436D01*
X12448039Y-14642436D02*
X12457563Y-14632912D01*
X12638515Y-14861484D02*
X12524229Y-14861484D01*
X12581372Y-14861484D02*
X12581372Y-14661484D01*
X12581372Y-14661484D02*
X12562325Y-14690055D01*
X12562325Y-14690055D02*
X12543277Y-14709103D01*
X12543277Y-14709103D02*
X12524229Y-14718627D01*
X12876610Y-14861484D02*
X12876610Y-14661484D01*
X12962325Y-14861484D02*
X12962325Y-14756722D01*
X12962325Y-14756722D02*
X12952801Y-14737674D01*
X12952801Y-14737674D02*
X12933753Y-14728150D01*
X12933753Y-14728150D02*
X12905182Y-14728150D01*
X12905182Y-14728150D02*
X12886134Y-14737674D01*
X12886134Y-14737674D02*
X12876610Y-14747198D01*
X13086134Y-14861484D02*
X13067087Y-14851960D01*
X13067087Y-14851960D02*
X13057563Y-14842436D01*
X13057563Y-14842436D02*
X13048039Y-14823388D01*
X13048039Y-14823388D02*
X13048039Y-14766246D01*
X13048039Y-14766246D02*
X13057563Y-14747198D01*
X13057563Y-14747198D02*
X13067087Y-14737674D01*
X13067087Y-14737674D02*
X13086134Y-14728150D01*
X13086134Y-14728150D02*
X13114706Y-14728150D01*
X13114706Y-14728150D02*
X13133753Y-14737674D01*
X13133753Y-14737674D02*
X13143277Y-14747198D01*
X13143277Y-14747198D02*
X13152801Y-14766246D01*
X13152801Y-14766246D02*
X13152801Y-14823388D01*
X13152801Y-14823388D02*
X13143277Y-14842436D01*
X13143277Y-14842436D02*
X13133753Y-14851960D01*
X13133753Y-14851960D02*
X13114706Y-14861484D01*
X13114706Y-14861484D02*
X13086134Y-14861484D01*
X13267087Y-14861484D02*
X13248039Y-14851960D01*
X13248039Y-14851960D02*
X13238515Y-14832912D01*
X13238515Y-14832912D02*
X13238515Y-14661484D01*
X13419468Y-14851960D02*
X13400420Y-14861484D01*
X13400420Y-14861484D02*
X13362325Y-14861484D01*
X13362325Y-14861484D02*
X13343277Y-14851960D01*
X13343277Y-14851960D02*
X13333753Y-14832912D01*
X13333753Y-14832912D02*
X13333753Y-14756722D01*
X13333753Y-14756722D02*
X13343277Y-14737674D01*
X13343277Y-14737674D02*
X13362325Y-14728150D01*
X13362325Y-14728150D02*
X13400420Y-14728150D01*
X13400420Y-14728150D02*
X13419468Y-14737674D01*
X13419468Y-14737674D02*
X13428991Y-14756722D01*
X13428991Y-14756722D02*
X13428991Y-14775769D01*
X13428991Y-14775769D02*
X13333753Y-14794817D01*
X13495658Y-14937674D02*
X13505182Y-14928150D01*
X13505182Y-14928150D02*
X13524230Y-14899579D01*
X13524230Y-14899579D02*
X13533753Y-14880531D01*
X13533753Y-14880531D02*
X13543277Y-14851960D01*
X13543277Y-14851960D02*
X13552801Y-14804341D01*
X13552801Y-14804341D02*
X13552801Y-14766246D01*
X13552801Y-14766246D02*
X13543277Y-14718627D01*
X13543277Y-14718627D02*
X13533753Y-14690055D01*
X13533753Y-14690055D02*
X13524230Y-14671008D01*
X13524230Y-14671008D02*
X13505182Y-14642436D01*
X13505182Y-14642436D02*
X13495658Y-14632912D01*
D12*
X8882500Y-15034000D02*
G75*
G02*
X8762500Y-15034000I-60000J0D01*
G01*
X8762500Y-15034000D02*
G75*
G02*
X8882500Y-15034000I60000J0D01*
G01*
D11*
X9248039Y-15125484D02*
X9133753Y-15125484D01*
X9190896Y-15125484D02*
X9190896Y-14925484D01*
X9190896Y-14925484D02*
X9171848Y-14954055D01*
X9171848Y-14954055D02*
X9152801Y-14973103D01*
X9152801Y-14973103D02*
X9133753Y-14982627D01*
X9333753Y-15106436D02*
X9343277Y-15115960D01*
X9343277Y-15115960D02*
X9333753Y-15125484D01*
X9333753Y-15125484D02*
X9324229Y-15115960D01*
X9324229Y-15115960D02*
X9333753Y-15106436D01*
X9333753Y-15106436D02*
X9333753Y-15125484D01*
X9419467Y-14944531D02*
X9428991Y-14935008D01*
X9428991Y-14935008D02*
X9448039Y-14925484D01*
X9448039Y-14925484D02*
X9495658Y-14925484D01*
X9495658Y-14925484D02*
X9514705Y-14935008D01*
X9514705Y-14935008D02*
X9524229Y-14944531D01*
X9524229Y-14944531D02*
X9533753Y-14963579D01*
X9533753Y-14963579D02*
X9533753Y-14982627D01*
X9533753Y-14982627D02*
X9524229Y-15011198D01*
X9524229Y-15011198D02*
X9409944Y-15125484D01*
X9409944Y-15125484D02*
X9533753Y-15125484D01*
X9657563Y-14925484D02*
X9676610Y-14925484D01*
X9676610Y-14925484D02*
X9695658Y-14935008D01*
X9695658Y-14935008D02*
X9705182Y-14944531D01*
X9705182Y-14944531D02*
X9714705Y-14963579D01*
X9714705Y-14963579D02*
X9724229Y-15001674D01*
X9724229Y-15001674D02*
X9724229Y-15049293D01*
X9724229Y-15049293D02*
X9714705Y-15087388D01*
X9714705Y-15087388D02*
X9705182Y-15106436D01*
X9705182Y-15106436D02*
X9695658Y-15115960D01*
X9695658Y-15115960D02*
X9676610Y-15125484D01*
X9676610Y-15125484D02*
X9657563Y-15125484D01*
X9657563Y-15125484D02*
X9638515Y-15115960D01*
X9638515Y-15115960D02*
X9628991Y-15106436D01*
X9628991Y-15106436D02*
X9619467Y-15087388D01*
X9619467Y-15087388D02*
X9609944Y-15049293D01*
X9609944Y-15049293D02*
X9609944Y-15001674D01*
X9609944Y-15001674D02*
X9619467Y-14963579D01*
X9619467Y-14963579D02*
X9628991Y-14944531D01*
X9628991Y-14944531D02*
X9638515Y-14935008D01*
X9638515Y-14935008D02*
X9657563Y-14925484D01*
X9848039Y-14925484D02*
X9867086Y-14925484D01*
X9867086Y-14925484D02*
X9886134Y-14935008D01*
X9886134Y-14935008D02*
X9895658Y-14944531D01*
X9895658Y-14944531D02*
X9905182Y-14963579D01*
X9905182Y-14963579D02*
X9914705Y-15001674D01*
X9914705Y-15001674D02*
X9914705Y-15049293D01*
X9914705Y-15049293D02*
X9905182Y-15087388D01*
X9905182Y-15087388D02*
X9895658Y-15106436D01*
X9895658Y-15106436D02*
X9886134Y-15115960D01*
X9886134Y-15115960D02*
X9867086Y-15125484D01*
X9867086Y-15125484D02*
X9848039Y-15125484D01*
X9848039Y-15125484D02*
X9828991Y-15115960D01*
X9828991Y-15115960D02*
X9819467Y-15106436D01*
X9819467Y-15106436D02*
X9809944Y-15087388D01*
X9809944Y-15087388D02*
X9800420Y-15049293D01*
X9800420Y-15049293D02*
X9800420Y-15001674D01*
X9800420Y-15001674D02*
X9809944Y-14963579D01*
X9809944Y-14963579D02*
X9819467Y-14944531D01*
X9819467Y-14944531D02*
X9828991Y-14935008D01*
X9828991Y-14935008D02*
X9848039Y-14925484D01*
X10000420Y-15125484D02*
X10000420Y-14992150D01*
X10000420Y-15011198D02*
X10009944Y-15001674D01*
X10009944Y-15001674D02*
X10028991Y-14992150D01*
X10028991Y-14992150D02*
X10057563Y-14992150D01*
X10057563Y-14992150D02*
X10076610Y-15001674D01*
X10076610Y-15001674D02*
X10086134Y-15020722D01*
X10086134Y-15020722D02*
X10086134Y-15125484D01*
X10086134Y-15020722D02*
X10095658Y-15001674D01*
X10095658Y-15001674D02*
X10114705Y-14992150D01*
X10114705Y-14992150D02*
X10143277Y-14992150D01*
X10143277Y-14992150D02*
X10162325Y-15001674D01*
X10162325Y-15001674D02*
X10171848Y-15020722D01*
X10171848Y-15020722D02*
X10171848Y-15125484D01*
X10267086Y-15125484D02*
X10267086Y-14992150D01*
X10267086Y-15011198D02*
X10276610Y-15001674D01*
X10276610Y-15001674D02*
X10295658Y-14992150D01*
X10295658Y-14992150D02*
X10324229Y-14992150D01*
X10324229Y-14992150D02*
X10343277Y-15001674D01*
X10343277Y-15001674D02*
X10352801Y-15020722D01*
X10352801Y-15020722D02*
X10352801Y-15125484D01*
X10352801Y-15020722D02*
X10362325Y-15001674D01*
X10362325Y-15001674D02*
X10381372Y-14992150D01*
X10381372Y-14992150D02*
X10409944Y-14992150D01*
X10409944Y-14992150D02*
X10428991Y-15001674D01*
X10428991Y-15001674D02*
X10438515Y-15020722D01*
X10438515Y-15020722D02*
X10438515Y-15125484D01*
X10828991Y-14915960D02*
X10657563Y-15173103D01*
X11086134Y-14925484D02*
X11105182Y-14925484D01*
X11105182Y-14925484D02*
X11124229Y-14935008D01*
X11124229Y-14935008D02*
X11133753Y-14944531D01*
X11133753Y-14944531D02*
X11143277Y-14963579D01*
X11143277Y-14963579D02*
X11152801Y-15001674D01*
X11152801Y-15001674D02*
X11152801Y-15049293D01*
X11152801Y-15049293D02*
X11143277Y-15087388D01*
X11143277Y-15087388D02*
X11133753Y-15106436D01*
X11133753Y-15106436D02*
X11124229Y-15115960D01*
X11124229Y-15115960D02*
X11105182Y-15125484D01*
X11105182Y-15125484D02*
X11086134Y-15125484D01*
X11086134Y-15125484D02*
X11067087Y-15115960D01*
X11067087Y-15115960D02*
X11057563Y-15106436D01*
X11057563Y-15106436D02*
X11048039Y-15087388D01*
X11048039Y-15087388D02*
X11038515Y-15049293D01*
X11038515Y-15049293D02*
X11038515Y-15001674D01*
X11038515Y-15001674D02*
X11048039Y-14963579D01*
X11048039Y-14963579D02*
X11057563Y-14944531D01*
X11057563Y-14944531D02*
X11067087Y-14935008D01*
X11067087Y-14935008D02*
X11086134Y-14925484D01*
X11238515Y-15106436D02*
X11248039Y-15115960D01*
X11248039Y-15115960D02*
X11238515Y-15125484D01*
X11238515Y-15125484D02*
X11228991Y-15115960D01*
X11228991Y-15115960D02*
X11238515Y-15106436D01*
X11238515Y-15106436D02*
X11238515Y-15125484D01*
X11371848Y-14925484D02*
X11390896Y-14925484D01*
X11390896Y-14925484D02*
X11409944Y-14935008D01*
X11409944Y-14935008D02*
X11419467Y-14944531D01*
X11419467Y-14944531D02*
X11428991Y-14963579D01*
X11428991Y-14963579D02*
X11438515Y-15001674D01*
X11438515Y-15001674D02*
X11438515Y-15049293D01*
X11438515Y-15049293D02*
X11428991Y-15087388D01*
X11428991Y-15087388D02*
X11419467Y-15106436D01*
X11419467Y-15106436D02*
X11409944Y-15115960D01*
X11409944Y-15115960D02*
X11390896Y-15125484D01*
X11390896Y-15125484D02*
X11371848Y-15125484D01*
X11371848Y-15125484D02*
X11352801Y-15115960D01*
X11352801Y-15115960D02*
X11343277Y-15106436D01*
X11343277Y-15106436D02*
X11333753Y-15087388D01*
X11333753Y-15087388D02*
X11324229Y-15049293D01*
X11324229Y-15049293D02*
X11324229Y-15001674D01*
X11324229Y-15001674D02*
X11333753Y-14963579D01*
X11333753Y-14963579D02*
X11343277Y-14944531D01*
X11343277Y-14944531D02*
X11352801Y-14935008D01*
X11352801Y-14935008D02*
X11371848Y-14925484D01*
X11609944Y-14992150D02*
X11609944Y-15125484D01*
X11562325Y-14915960D02*
X11514706Y-15058817D01*
X11514706Y-15058817D02*
X11638515Y-15058817D01*
X11695658Y-14925484D02*
X11828991Y-14925484D01*
X11828991Y-14925484D02*
X11743277Y-15125484D01*
X11895658Y-14944531D02*
X11905182Y-14935008D01*
X11905182Y-14935008D02*
X11924229Y-14925484D01*
X11924229Y-14925484D02*
X11971848Y-14925484D01*
X11971848Y-14925484D02*
X11990896Y-14935008D01*
X11990896Y-14935008D02*
X12000420Y-14944531D01*
X12000420Y-14944531D02*
X12009944Y-14963579D01*
X12009944Y-14963579D02*
X12009944Y-14982627D01*
X12009944Y-14982627D02*
X12000420Y-15011198D01*
X12000420Y-15011198D02*
X11886134Y-15125484D01*
X11886134Y-15125484D02*
X12009944Y-15125484D01*
X12086134Y-14925484D02*
X12086134Y-14963579D01*
X12162325Y-14925484D02*
X12162325Y-14963579D01*
X12457563Y-15201674D02*
X12448039Y-15192150D01*
X12448039Y-15192150D02*
X12428991Y-15163579D01*
X12428991Y-15163579D02*
X12419468Y-15144531D01*
X12419468Y-15144531D02*
X12409944Y-15115960D01*
X12409944Y-15115960D02*
X12400420Y-15068341D01*
X12400420Y-15068341D02*
X12400420Y-15030246D01*
X12400420Y-15030246D02*
X12409944Y-14982627D01*
X12409944Y-14982627D02*
X12419468Y-14954055D01*
X12419468Y-14954055D02*
X12428991Y-14935008D01*
X12428991Y-14935008D02*
X12448039Y-14906436D01*
X12448039Y-14906436D02*
X12457563Y-14896912D01*
X12638515Y-15125484D02*
X12524229Y-15125484D01*
X12581372Y-15125484D02*
X12581372Y-14925484D01*
X12581372Y-14925484D02*
X12562325Y-14954055D01*
X12562325Y-14954055D02*
X12543277Y-14973103D01*
X12543277Y-14973103D02*
X12524229Y-14982627D01*
X12809944Y-14925484D02*
X12771848Y-14925484D01*
X12771848Y-14925484D02*
X12752801Y-14935008D01*
X12752801Y-14935008D02*
X12743277Y-14944531D01*
X12743277Y-14944531D02*
X12724229Y-14973103D01*
X12724229Y-14973103D02*
X12714706Y-15011198D01*
X12714706Y-15011198D02*
X12714706Y-15087388D01*
X12714706Y-15087388D02*
X12724229Y-15106436D01*
X12724229Y-15106436D02*
X12733753Y-15115960D01*
X12733753Y-15115960D02*
X12752801Y-15125484D01*
X12752801Y-15125484D02*
X12790896Y-15125484D01*
X12790896Y-15125484D02*
X12809944Y-15115960D01*
X12809944Y-15115960D02*
X12819468Y-15106436D01*
X12819468Y-15106436D02*
X12828991Y-15087388D01*
X12828991Y-15087388D02*
X12828991Y-15039769D01*
X12828991Y-15039769D02*
X12819468Y-15020722D01*
X12819468Y-15020722D02*
X12809944Y-15011198D01*
X12809944Y-15011198D02*
X12790896Y-15001674D01*
X12790896Y-15001674D02*
X12752801Y-15001674D01*
X12752801Y-15001674D02*
X12733753Y-15011198D01*
X12733753Y-15011198D02*
X12724229Y-15020722D01*
X12724229Y-15020722D02*
X12714706Y-15039769D01*
X13067087Y-15125484D02*
X13067087Y-14925484D01*
X13152801Y-15125484D02*
X13152801Y-15020722D01*
X13152801Y-15020722D02*
X13143277Y-15001674D01*
X13143277Y-15001674D02*
X13124230Y-14992150D01*
X13124230Y-14992150D02*
X13095658Y-14992150D01*
X13095658Y-14992150D02*
X13076610Y-15001674D01*
X13076610Y-15001674D02*
X13067087Y-15011198D01*
X13276610Y-15125484D02*
X13257563Y-15115960D01*
X13257563Y-15115960D02*
X13248039Y-15106436D01*
X13248039Y-15106436D02*
X13238515Y-15087388D01*
X13238515Y-15087388D02*
X13238515Y-15030246D01*
X13238515Y-15030246D02*
X13248039Y-15011198D01*
X13248039Y-15011198D02*
X13257563Y-15001674D01*
X13257563Y-15001674D02*
X13276610Y-14992150D01*
X13276610Y-14992150D02*
X13305182Y-14992150D01*
X13305182Y-14992150D02*
X13324230Y-15001674D01*
X13324230Y-15001674D02*
X13333753Y-15011198D01*
X13333753Y-15011198D02*
X13343277Y-15030246D01*
X13343277Y-15030246D02*
X13343277Y-15087388D01*
X13343277Y-15087388D02*
X13333753Y-15106436D01*
X13333753Y-15106436D02*
X13324230Y-15115960D01*
X13324230Y-15115960D02*
X13305182Y-15125484D01*
X13305182Y-15125484D02*
X13276610Y-15125484D01*
X13457563Y-15125484D02*
X13438515Y-15115960D01*
X13438515Y-15115960D02*
X13428991Y-15096912D01*
X13428991Y-15096912D02*
X13428991Y-14925484D01*
X13609944Y-15115960D02*
X13590896Y-15125484D01*
X13590896Y-15125484D02*
X13552801Y-15125484D01*
X13552801Y-15125484D02*
X13533753Y-15115960D01*
X13533753Y-15115960D02*
X13524230Y-15096912D01*
X13524230Y-15096912D02*
X13524230Y-15020722D01*
X13524230Y-15020722D02*
X13533753Y-15001674D01*
X13533753Y-15001674D02*
X13552801Y-14992150D01*
X13552801Y-14992150D02*
X13590896Y-14992150D01*
X13590896Y-14992150D02*
X13609944Y-15001674D01*
X13609944Y-15001674D02*
X13619468Y-15020722D01*
X13619468Y-15020722D02*
X13619468Y-15039769D01*
X13619468Y-15039769D02*
X13524230Y-15058817D01*
X13695658Y-15115960D02*
X13714706Y-15125484D01*
X13714706Y-15125484D02*
X13752801Y-15125484D01*
X13752801Y-15125484D02*
X13771849Y-15115960D01*
X13771849Y-15115960D02*
X13781372Y-15096912D01*
X13781372Y-15096912D02*
X13781372Y-15087388D01*
X13781372Y-15087388D02*
X13771849Y-15068341D01*
X13771849Y-15068341D02*
X13752801Y-15058817D01*
X13752801Y-15058817D02*
X13724230Y-15058817D01*
X13724230Y-15058817D02*
X13705182Y-15049293D01*
X13705182Y-15049293D02*
X13695658Y-15030246D01*
X13695658Y-15030246D02*
X13695658Y-15020722D01*
X13695658Y-15020722D02*
X13705182Y-15001674D01*
X13705182Y-15001674D02*
X13724230Y-14992150D01*
X13724230Y-14992150D02*
X13752801Y-14992150D01*
X13752801Y-14992150D02*
X13771849Y-15001674D01*
X13848039Y-15201674D02*
X13857563Y-15192150D01*
X13857563Y-15192150D02*
X13876611Y-15163579D01*
X13876611Y-15163579D02*
X13886134Y-15144531D01*
X13886134Y-15144531D02*
X13895658Y-15115960D01*
X13895658Y-15115960D02*
X13905182Y-15068341D01*
X13905182Y-15068341D02*
X13905182Y-15030246D01*
X13905182Y-15030246D02*
X13895658Y-14982627D01*
X13895658Y-14982627D02*
X13886134Y-14954055D01*
X13886134Y-14954055D02*
X13876611Y-14935008D01*
X13876611Y-14935008D02*
X13857563Y-14906436D01*
X13857563Y-14906436D02*
X13848039Y-14896912D01*
D13*
X8807500Y-15223000D02*
X8807500Y-15373000D01*
X8732500Y-15298000D02*
X8882500Y-15298000D01*
D11*
X9248039Y-15389484D02*
X9133753Y-15389484D01*
X9190896Y-15389484D02*
X9190896Y-15189484D01*
X9190896Y-15189484D02*
X9171848Y-15218055D01*
X9171848Y-15218055D02*
X9152801Y-15237103D01*
X9152801Y-15237103D02*
X9133753Y-15246627D01*
X9333753Y-15370436D02*
X9343277Y-15379960D01*
X9343277Y-15379960D02*
X9333753Y-15389484D01*
X9333753Y-15389484D02*
X9324229Y-15379960D01*
X9324229Y-15379960D02*
X9333753Y-15370436D01*
X9333753Y-15370436D02*
X9333753Y-15389484D01*
X9524229Y-15189484D02*
X9428991Y-15189484D01*
X9428991Y-15189484D02*
X9419467Y-15284722D01*
X9419467Y-15284722D02*
X9428991Y-15275198D01*
X9428991Y-15275198D02*
X9448039Y-15265674D01*
X9448039Y-15265674D02*
X9495658Y-15265674D01*
X9495658Y-15265674D02*
X9514705Y-15275198D01*
X9514705Y-15275198D02*
X9524229Y-15284722D01*
X9524229Y-15284722D02*
X9533753Y-15303769D01*
X9533753Y-15303769D02*
X9533753Y-15351388D01*
X9533753Y-15351388D02*
X9524229Y-15370436D01*
X9524229Y-15370436D02*
X9514705Y-15379960D01*
X9514705Y-15379960D02*
X9495658Y-15389484D01*
X9495658Y-15389484D02*
X9448039Y-15389484D01*
X9448039Y-15389484D02*
X9428991Y-15379960D01*
X9428991Y-15379960D02*
X9419467Y-15370436D01*
X9657563Y-15189484D02*
X9676610Y-15189484D01*
X9676610Y-15189484D02*
X9695658Y-15199008D01*
X9695658Y-15199008D02*
X9705182Y-15208531D01*
X9705182Y-15208531D02*
X9714705Y-15227579D01*
X9714705Y-15227579D02*
X9724229Y-15265674D01*
X9724229Y-15265674D02*
X9724229Y-15313293D01*
X9724229Y-15313293D02*
X9714705Y-15351388D01*
X9714705Y-15351388D02*
X9705182Y-15370436D01*
X9705182Y-15370436D02*
X9695658Y-15379960D01*
X9695658Y-15379960D02*
X9676610Y-15389484D01*
X9676610Y-15389484D02*
X9657563Y-15389484D01*
X9657563Y-15389484D02*
X9638515Y-15379960D01*
X9638515Y-15379960D02*
X9628991Y-15370436D01*
X9628991Y-15370436D02*
X9619467Y-15351388D01*
X9619467Y-15351388D02*
X9609944Y-15313293D01*
X9609944Y-15313293D02*
X9609944Y-15265674D01*
X9609944Y-15265674D02*
X9619467Y-15227579D01*
X9619467Y-15227579D02*
X9628991Y-15208531D01*
X9628991Y-15208531D02*
X9638515Y-15199008D01*
X9638515Y-15199008D02*
X9657563Y-15189484D01*
X9848039Y-15189484D02*
X9867086Y-15189484D01*
X9867086Y-15189484D02*
X9886134Y-15199008D01*
X9886134Y-15199008D02*
X9895658Y-15208531D01*
X9895658Y-15208531D02*
X9905182Y-15227579D01*
X9905182Y-15227579D02*
X9914705Y-15265674D01*
X9914705Y-15265674D02*
X9914705Y-15313293D01*
X9914705Y-15313293D02*
X9905182Y-15351388D01*
X9905182Y-15351388D02*
X9895658Y-15370436D01*
X9895658Y-15370436D02*
X9886134Y-15379960D01*
X9886134Y-15379960D02*
X9867086Y-15389484D01*
X9867086Y-15389484D02*
X9848039Y-15389484D01*
X9848039Y-15389484D02*
X9828991Y-15379960D01*
X9828991Y-15379960D02*
X9819467Y-15370436D01*
X9819467Y-15370436D02*
X9809944Y-15351388D01*
X9809944Y-15351388D02*
X9800420Y-15313293D01*
X9800420Y-15313293D02*
X9800420Y-15265674D01*
X9800420Y-15265674D02*
X9809944Y-15227579D01*
X9809944Y-15227579D02*
X9819467Y-15208531D01*
X9819467Y-15208531D02*
X9828991Y-15199008D01*
X9828991Y-15199008D02*
X9848039Y-15189484D01*
X10000420Y-15389484D02*
X10000420Y-15256150D01*
X10000420Y-15275198D02*
X10009944Y-15265674D01*
X10009944Y-15265674D02*
X10028991Y-15256150D01*
X10028991Y-15256150D02*
X10057563Y-15256150D01*
X10057563Y-15256150D02*
X10076610Y-15265674D01*
X10076610Y-15265674D02*
X10086134Y-15284722D01*
X10086134Y-15284722D02*
X10086134Y-15389484D01*
X10086134Y-15284722D02*
X10095658Y-15265674D01*
X10095658Y-15265674D02*
X10114705Y-15256150D01*
X10114705Y-15256150D02*
X10143277Y-15256150D01*
X10143277Y-15256150D02*
X10162325Y-15265674D01*
X10162325Y-15265674D02*
X10171848Y-15284722D01*
X10171848Y-15284722D02*
X10171848Y-15389484D01*
X10267086Y-15389484D02*
X10267086Y-15256150D01*
X10267086Y-15275198D02*
X10276610Y-15265674D01*
X10276610Y-15265674D02*
X10295658Y-15256150D01*
X10295658Y-15256150D02*
X10324229Y-15256150D01*
X10324229Y-15256150D02*
X10343277Y-15265674D01*
X10343277Y-15265674D02*
X10352801Y-15284722D01*
X10352801Y-15284722D02*
X10352801Y-15389484D01*
X10352801Y-15284722D02*
X10362325Y-15265674D01*
X10362325Y-15265674D02*
X10381372Y-15256150D01*
X10381372Y-15256150D02*
X10409944Y-15256150D01*
X10409944Y-15256150D02*
X10428991Y-15265674D01*
X10428991Y-15265674D02*
X10438515Y-15284722D01*
X10438515Y-15284722D02*
X10438515Y-15389484D01*
X10828991Y-15179960D02*
X10657563Y-15437103D01*
X11086134Y-15189484D02*
X11105182Y-15189484D01*
X11105182Y-15189484D02*
X11124229Y-15199008D01*
X11124229Y-15199008D02*
X11133753Y-15208531D01*
X11133753Y-15208531D02*
X11143277Y-15227579D01*
X11143277Y-15227579D02*
X11152801Y-15265674D01*
X11152801Y-15265674D02*
X11152801Y-15313293D01*
X11152801Y-15313293D02*
X11143277Y-15351388D01*
X11143277Y-15351388D02*
X11133753Y-15370436D01*
X11133753Y-15370436D02*
X11124229Y-15379960D01*
X11124229Y-15379960D02*
X11105182Y-15389484D01*
X11105182Y-15389484D02*
X11086134Y-15389484D01*
X11086134Y-15389484D02*
X11067087Y-15379960D01*
X11067087Y-15379960D02*
X11057563Y-15370436D01*
X11057563Y-15370436D02*
X11048039Y-15351388D01*
X11048039Y-15351388D02*
X11038515Y-15313293D01*
X11038515Y-15313293D02*
X11038515Y-15265674D01*
X11038515Y-15265674D02*
X11048039Y-15227579D01*
X11048039Y-15227579D02*
X11057563Y-15208531D01*
X11057563Y-15208531D02*
X11067087Y-15199008D01*
X11067087Y-15199008D02*
X11086134Y-15189484D01*
X11238515Y-15370436D02*
X11248039Y-15379960D01*
X11248039Y-15379960D02*
X11238515Y-15389484D01*
X11238515Y-15389484D02*
X11228991Y-15379960D01*
X11228991Y-15379960D02*
X11238515Y-15370436D01*
X11238515Y-15370436D02*
X11238515Y-15389484D01*
X11371848Y-15189484D02*
X11390896Y-15189484D01*
X11390896Y-15189484D02*
X11409944Y-15199008D01*
X11409944Y-15199008D02*
X11419467Y-15208531D01*
X11419467Y-15208531D02*
X11428991Y-15227579D01*
X11428991Y-15227579D02*
X11438515Y-15265674D01*
X11438515Y-15265674D02*
X11438515Y-15313293D01*
X11438515Y-15313293D02*
X11428991Y-15351388D01*
X11428991Y-15351388D02*
X11419467Y-15370436D01*
X11419467Y-15370436D02*
X11409944Y-15379960D01*
X11409944Y-15379960D02*
X11390896Y-15389484D01*
X11390896Y-15389484D02*
X11371848Y-15389484D01*
X11371848Y-15389484D02*
X11352801Y-15379960D01*
X11352801Y-15379960D02*
X11343277Y-15370436D01*
X11343277Y-15370436D02*
X11333753Y-15351388D01*
X11333753Y-15351388D02*
X11324229Y-15313293D01*
X11324229Y-15313293D02*
X11324229Y-15265674D01*
X11324229Y-15265674D02*
X11333753Y-15227579D01*
X11333753Y-15227579D02*
X11343277Y-15208531D01*
X11343277Y-15208531D02*
X11352801Y-15199008D01*
X11352801Y-15199008D02*
X11371848Y-15189484D01*
X11619467Y-15189484D02*
X11524229Y-15189484D01*
X11524229Y-15189484D02*
X11514706Y-15284722D01*
X11514706Y-15284722D02*
X11524229Y-15275198D01*
X11524229Y-15275198D02*
X11543277Y-15265674D01*
X11543277Y-15265674D02*
X11590896Y-15265674D01*
X11590896Y-15265674D02*
X11609944Y-15275198D01*
X11609944Y-15275198D02*
X11619467Y-15284722D01*
X11619467Y-15284722D02*
X11628991Y-15303769D01*
X11628991Y-15303769D02*
X11628991Y-15351388D01*
X11628991Y-15351388D02*
X11619467Y-15370436D01*
X11619467Y-15370436D02*
X11609944Y-15379960D01*
X11609944Y-15379960D02*
X11590896Y-15389484D01*
X11590896Y-15389484D02*
X11543277Y-15389484D01*
X11543277Y-15389484D02*
X11524229Y-15379960D01*
X11524229Y-15379960D02*
X11514706Y-15370436D01*
X11724229Y-15389484D02*
X11762325Y-15389484D01*
X11762325Y-15389484D02*
X11781372Y-15379960D01*
X11781372Y-15379960D02*
X11790896Y-15370436D01*
X11790896Y-15370436D02*
X11809944Y-15341865D01*
X11809944Y-15341865D02*
X11819467Y-15303769D01*
X11819467Y-15303769D02*
X11819467Y-15227579D01*
X11819467Y-15227579D02*
X11809944Y-15208531D01*
X11809944Y-15208531D02*
X11800420Y-15199008D01*
X11800420Y-15199008D02*
X11781372Y-15189484D01*
X11781372Y-15189484D02*
X11743277Y-15189484D01*
X11743277Y-15189484D02*
X11724229Y-15199008D01*
X11724229Y-15199008D02*
X11714706Y-15208531D01*
X11714706Y-15208531D02*
X11705182Y-15227579D01*
X11705182Y-15227579D02*
X11705182Y-15275198D01*
X11705182Y-15275198D02*
X11714706Y-15294246D01*
X11714706Y-15294246D02*
X11724229Y-15303769D01*
X11724229Y-15303769D02*
X11743277Y-15313293D01*
X11743277Y-15313293D02*
X11781372Y-15313293D01*
X11781372Y-15313293D02*
X11800420Y-15303769D01*
X11800420Y-15303769D02*
X11809944Y-15294246D01*
X11809944Y-15294246D02*
X11819467Y-15275198D01*
X12009944Y-15389484D02*
X11895658Y-15389484D01*
X11952801Y-15389484D02*
X11952801Y-15189484D01*
X11952801Y-15189484D02*
X11933753Y-15218055D01*
X11933753Y-15218055D02*
X11914706Y-15237103D01*
X11914706Y-15237103D02*
X11895658Y-15246627D01*
X12086134Y-15189484D02*
X12086134Y-15227579D01*
X12162325Y-15189484D02*
X12162325Y-15227579D01*
X12457563Y-15465674D02*
X12448039Y-15456150D01*
X12448039Y-15456150D02*
X12428991Y-15427579D01*
X12428991Y-15427579D02*
X12419468Y-15408531D01*
X12419468Y-15408531D02*
X12409944Y-15379960D01*
X12409944Y-15379960D02*
X12400420Y-15332341D01*
X12400420Y-15332341D02*
X12400420Y-15294246D01*
X12400420Y-15294246D02*
X12409944Y-15246627D01*
X12409944Y-15246627D02*
X12419468Y-15218055D01*
X12419468Y-15218055D02*
X12428991Y-15199008D01*
X12428991Y-15199008D02*
X12448039Y-15170436D01*
X12448039Y-15170436D02*
X12457563Y-15160912D01*
X12638515Y-15389484D02*
X12524229Y-15389484D01*
X12581372Y-15389484D02*
X12581372Y-15189484D01*
X12581372Y-15189484D02*
X12562325Y-15218055D01*
X12562325Y-15218055D02*
X12543277Y-15237103D01*
X12543277Y-15237103D02*
X12524229Y-15246627D01*
X12752801Y-15275198D02*
X12733753Y-15265674D01*
X12733753Y-15265674D02*
X12724229Y-15256150D01*
X12724229Y-15256150D02*
X12714706Y-15237103D01*
X12714706Y-15237103D02*
X12714706Y-15227579D01*
X12714706Y-15227579D02*
X12724229Y-15208531D01*
X12724229Y-15208531D02*
X12733753Y-15199008D01*
X12733753Y-15199008D02*
X12752801Y-15189484D01*
X12752801Y-15189484D02*
X12790896Y-15189484D01*
X12790896Y-15189484D02*
X12809944Y-15199008D01*
X12809944Y-15199008D02*
X12819468Y-15208531D01*
X12819468Y-15208531D02*
X12828991Y-15227579D01*
X12828991Y-15227579D02*
X12828991Y-15237103D01*
X12828991Y-15237103D02*
X12819468Y-15256150D01*
X12819468Y-15256150D02*
X12809944Y-15265674D01*
X12809944Y-15265674D02*
X12790896Y-15275198D01*
X12790896Y-15275198D02*
X12752801Y-15275198D01*
X12752801Y-15275198D02*
X12733753Y-15284722D01*
X12733753Y-15284722D02*
X12724229Y-15294246D01*
X12724229Y-15294246D02*
X12714706Y-15313293D01*
X12714706Y-15313293D02*
X12714706Y-15351388D01*
X12714706Y-15351388D02*
X12724229Y-15370436D01*
X12724229Y-15370436D02*
X12733753Y-15379960D01*
X12733753Y-15379960D02*
X12752801Y-15389484D01*
X12752801Y-15389484D02*
X12790896Y-15389484D01*
X12790896Y-15389484D02*
X12809944Y-15379960D01*
X12809944Y-15379960D02*
X12819468Y-15370436D01*
X12819468Y-15370436D02*
X12828991Y-15351388D01*
X12828991Y-15351388D02*
X12828991Y-15313293D01*
X12828991Y-15313293D02*
X12819468Y-15294246D01*
X12819468Y-15294246D02*
X12809944Y-15284722D01*
X12809944Y-15284722D02*
X12790896Y-15275198D01*
X13067087Y-15389484D02*
X13067087Y-15189484D01*
X13152801Y-15389484D02*
X13152801Y-15284722D01*
X13152801Y-15284722D02*
X13143277Y-15265674D01*
X13143277Y-15265674D02*
X13124230Y-15256150D01*
X13124230Y-15256150D02*
X13095658Y-15256150D01*
X13095658Y-15256150D02*
X13076610Y-15265674D01*
X13076610Y-15265674D02*
X13067087Y-15275198D01*
X13276610Y-15389484D02*
X13257563Y-15379960D01*
X13257563Y-15379960D02*
X13248039Y-15370436D01*
X13248039Y-15370436D02*
X13238515Y-15351388D01*
X13238515Y-15351388D02*
X13238515Y-15294246D01*
X13238515Y-15294246D02*
X13248039Y-15275198D01*
X13248039Y-15275198D02*
X13257563Y-15265674D01*
X13257563Y-15265674D02*
X13276610Y-15256150D01*
X13276610Y-15256150D02*
X13305182Y-15256150D01*
X13305182Y-15256150D02*
X13324230Y-15265674D01*
X13324230Y-15265674D02*
X13333753Y-15275198D01*
X13333753Y-15275198D02*
X13343277Y-15294246D01*
X13343277Y-15294246D02*
X13343277Y-15351388D01*
X13343277Y-15351388D02*
X13333753Y-15370436D01*
X13333753Y-15370436D02*
X13324230Y-15379960D01*
X13324230Y-15379960D02*
X13305182Y-15389484D01*
X13305182Y-15389484D02*
X13276610Y-15389484D01*
X13457563Y-15389484D02*
X13438515Y-15379960D01*
X13438515Y-15379960D02*
X13428991Y-15360912D01*
X13428991Y-15360912D02*
X13428991Y-15189484D01*
X13609944Y-15379960D02*
X13590896Y-15389484D01*
X13590896Y-15389484D02*
X13552801Y-15389484D01*
X13552801Y-15389484D02*
X13533753Y-15379960D01*
X13533753Y-15379960D02*
X13524230Y-15360912D01*
X13524230Y-15360912D02*
X13524230Y-15284722D01*
X13524230Y-15284722D02*
X13533753Y-15265674D01*
X13533753Y-15265674D02*
X13552801Y-15256150D01*
X13552801Y-15256150D02*
X13590896Y-15256150D01*
X13590896Y-15256150D02*
X13609944Y-15265674D01*
X13609944Y-15265674D02*
X13619468Y-15284722D01*
X13619468Y-15284722D02*
X13619468Y-15303769D01*
X13619468Y-15303769D02*
X13524230Y-15322817D01*
X13695658Y-15379960D02*
X13714706Y-15389484D01*
X13714706Y-15389484D02*
X13752801Y-15389484D01*
X13752801Y-15389484D02*
X13771849Y-15379960D01*
X13771849Y-15379960D02*
X13781372Y-15360912D01*
X13781372Y-15360912D02*
X13781372Y-15351388D01*
X13781372Y-15351388D02*
X13771849Y-15332341D01*
X13771849Y-15332341D02*
X13752801Y-15322817D01*
X13752801Y-15322817D02*
X13724230Y-15322817D01*
X13724230Y-15322817D02*
X13705182Y-15313293D01*
X13705182Y-15313293D02*
X13695658Y-15294246D01*
X13695658Y-15294246D02*
X13695658Y-15284722D01*
X13695658Y-15284722D02*
X13705182Y-15265674D01*
X13705182Y-15265674D02*
X13724230Y-15256150D01*
X13724230Y-15256150D02*
X13752801Y-15256150D01*
X13752801Y-15256150D02*
X13771849Y-15265674D01*
X13848039Y-15465674D02*
X13857563Y-15456150D01*
X13857563Y-15456150D02*
X13876611Y-15427579D01*
X13876611Y-15427579D02*
X13886134Y-15408531D01*
X13886134Y-15408531D02*
X13895658Y-15379960D01*
X13895658Y-15379960D02*
X13905182Y-15332341D01*
X13905182Y-15332341D02*
X13905182Y-15294246D01*
X13905182Y-15294246D02*
X13895658Y-15246627D01*
X13895658Y-15246627D02*
X13886134Y-15218055D01*
X13886134Y-15218055D02*
X13876611Y-15199008D01*
X13876611Y-15199008D02*
X13857563Y-15170436D01*
X13857563Y-15170436D02*
X13848039Y-15160912D01*
M02*
