M48
; DRILL file {KiCad 8.0.4} date 2024-07-23T17:58:50-0700
; FORMAT={-:-/ absolute / inch / decimal}
; #@! TF.CreationDate,2024-07-23T17:58:50-07:00
; #@! TF.GenerationSoftware,Kicad,Pcbnew,8.0.4
; #@! TF.FileFunction,Plated,1,2,PTH
FMAT,2
INCH
; #@! TA.AperFunction,Plated,PTH,ViaDrill
T1C0.0157
; #@! TA.AperFunction,Plated,PTH,ComponentDrill
T2C0.0472
; #@! TA.AperFunction,Plated,PTH,ComponentDrill
T3C0.0591
%
G90
G05
T1
X3.8632Y-0.9449
T2
X6.0285Y-0.8957
X6.0285Y-1.3878
X6.2254Y-0.8957
X6.2254Y-1.3878
X6.6191Y-0.8957
X6.6191Y-1.3878
X6.8159Y-0.8957
X6.8159Y-1.3878
X7.2096Y-0.8957
X7.2096Y-1.3878
X7.4065Y-0.8957
X7.4065Y-1.3878
X7.8002Y-0.8957
X7.8002Y-1.3878
X7.997Y-0.8957
X7.997Y-1.3878
T3
X4.004Y-2.0399
X4.0246Y-5.0185
X4.254Y-1.9399
X4.2746Y-4.9185
X4.9889Y-2.6165
X4.9889Y-3.7583
X4.996Y-1.4748
X5.2389Y-2.5165
X5.2389Y-3.6583
X5.246Y-1.3748
X5.9732Y-2.0654
X5.9732Y-3.2071
X6.2232Y-1.9654
X6.2232Y-3.1071
X7.1149Y-2.0654
X7.1149Y-3.2071
X7.3649Y-1.9654
X7.3649Y-3.1071
M30
