%TF.GenerationSoftware,KiCad,Pcbnew,8.0.4*%
%TF.CreationDate,2024-07-24T01:17:18-07:00*%
%TF.ProjectId,panel_2,70616e65-6c5f-4322-9e6b-696361645f70,rev?*%
%TF.SameCoordinates,Original*%
%TF.FileFunction,Profile,NP*%
%FSLAX46Y46*%
G04 Gerber Fmt 4.6, Leading zero omitted, Abs format (unit mm)*
G04 Created by KiCad (PCBNEW 8.0.4) date 2024-07-24 01:17:18*
%MOMM*%
%LPD*%
G01*
G04 APERTURE LIST*
%TA.AperFunction,Profile*%
%ADD10C,0.050000*%
%TD*%
G04 APERTURE END LIST*
D10*
X182500000Y-118580000D02*
G75*
G02*
X182500000Y-116920000I0J830000D01*
G01*
X142950000Y-135250000D02*
X142950000Y-139300000D01*
X144550000Y-121000000D02*
G75*
G02*
X142950000Y-121000000I-800000J0D01*
G01*
X168000000Y-116920000D02*
G75*
G02*
X168000000Y-118580000I0J-830000D01*
G01*
X168000000Y-118580000D02*
X144550000Y-118580000D01*
X144550000Y-139300000D02*
X144550000Y-135250000D01*
X144550000Y-121000000D02*
X144550000Y-118580000D01*
X195050000Y-139300000D02*
X144550000Y-139300000D01*
X102550000Y-139300000D02*
X142950000Y-139300000D01*
X172000000Y-116920000D02*
X178500000Y-116920000D01*
X195050000Y-116920000D02*
X195050000Y-39800000D01*
X193750000Y-116920000D02*
X195050000Y-116920000D01*
X142950000Y-125000000D02*
G75*
G02*
X144550000Y-125000000I800000J0D01*
G01*
X168000000Y-116920000D02*
X142950000Y-116920000D01*
X182500000Y-116920000D02*
X189750000Y-116920000D01*
X189750000Y-118580000D02*
X182500000Y-118580000D01*
X178500000Y-116920000D02*
G75*
G02*
X178500000Y-118580000I0J-830000D01*
G01*
X142950000Y-121000000D02*
X142950000Y-116920000D01*
X172000000Y-118580000D02*
G75*
G02*
X172000000Y-116920000I0J830000D01*
G01*
X195050000Y-39800000D02*
X102550000Y-39800000D01*
X142950000Y-135250000D02*
G75*
G02*
X144550000Y-135250000I800000J0D01*
G01*
X142950000Y-125000000D02*
X142950000Y-131250000D01*
X189750000Y-116920000D02*
G75*
G02*
X189750000Y-118580000I0J-830000D01*
G01*
X144550000Y-131250000D02*
X144550000Y-125000000D01*
X193750000Y-118580000D02*
G75*
G02*
X193750000Y-116920000I0J830000D01*
G01*
X102550000Y-39800000D02*
X102550000Y-139300000D01*
X193750000Y-118580000D02*
X195050000Y-118580000D01*
X144550000Y-131250000D02*
G75*
G02*
X142950000Y-131250000I-800000J0D01*
G01*
X195050000Y-118580000D02*
X195050000Y-139300000D01*
X178500000Y-118580000D02*
X172000000Y-118580000D01*
M02*
