%TF.GenerationSoftware,KiCad,Pcbnew,8.0.4*%
%TF.CreationDate,2024-07-29T01:23:14-07:00*%
%TF.ProjectId,panel_2,70616e65-6c5f-4322-9e6b-696361645f70,rev?*%
%TF.SameCoordinates,Original*%
%TF.FileFunction,Soldermask,Bot*%
%TF.FilePolarity,Negative*%
%FSLAX46Y46*%
G04 Gerber Fmt 4.6, Leading zero omitted, Abs format (unit mm)*
G04 Created by KiCad (PCBNEW 8.0.4) date 2024-07-29 01:23:14*
%MOMM*%
%LPD*%
G01*
G04 APERTURE LIST*
G04 Aperture macros list*
%AMRoundRect*
0 Rectangle with rounded corners*
0 $1 Rounding radius*
0 $2 $3 $4 $5 $6 $7 $8 $9 X,Y pos of 4 corners*
0 Add a 4 corners polygon primitive as box body*
4,1,4,$2,$3,$4,$5,$6,$7,$8,$9,$2,$3,0*
0 Add four circle primitives for the rounded corners*
1,1,$1+$1,$2,$3*
1,1,$1+$1,$4,$5*
1,1,$1+$1,$6,$7*
1,1,$1+$1,$8,$9*
0 Add four rect primitives between the rounded corners*
20,1,$1+$1,$2,$3,$4,$5,0*
20,1,$1+$1,$4,$5,$6,$7,0*
20,1,$1+$1,$6,$7,$8,$9,0*
20,1,$1+$1,$8,$9,$2,$3,0*%
G04 Aperture macros list end*
%ADD10C,0.500000*%
%ADD11C,3.200000*%
%ADD12RoundRect,0.250000X-1.025000X-1.000000X1.025000X-1.000000X1.025000X1.000000X-1.025000X1.000000X0*%
%ADD13C,1.750000*%
%ADD14C,3.050000*%
%ADD15C,4.000000*%
%ADD16C,2.500000*%
%ADD17RoundRect,0.250000X1.000000X-1.025000X1.000000X1.025000X-1.000000X1.025000X-1.000000X-1.025000X0*%
G04 APERTURE END LIST*
D10*
%TO.C,mouse-bite-2mm-slot*%
X185550000Y-113330000D03*
X185550000Y-111830000D03*
X184800000Y-113330000D03*
X184800000Y-111830000D03*
X184050000Y-113330000D03*
X184050000Y-111830000D03*
%TD*%
%TO.C,mouse-bite-2mm-slot*%
X166600000Y-134250000D03*
X166600000Y-135750000D03*
X167350000Y-134250000D03*
X167350000Y-135750000D03*
X168100000Y-134250000D03*
X168100000Y-135750000D03*
%TD*%
%TO.C,mouse-bite-2mm-slot*%
X174300000Y-113330000D03*
X174300000Y-111830000D03*
X173550000Y-113330000D03*
X173550000Y-111830000D03*
X172800000Y-113330000D03*
X172800000Y-111830000D03*
%TD*%
%TO.C,mouse-bite-2mm-slot*%
X183850000Y-134250000D03*
X183850000Y-135750000D03*
X184600000Y-134250000D03*
X184600000Y-135750000D03*
X185350000Y-134250000D03*
X185350000Y-135750000D03*
%TD*%
%TO.C,mouse-bite-2mm-slot*%
X136050000Y-118580000D03*
X137550000Y-118580000D03*
X136050000Y-117830000D03*
X137550000Y-117830000D03*
X136050000Y-117080000D03*
X137550000Y-117080000D03*
%TD*%
%TO.C,mouse-bite-2mm-slot*%
X175100000Y-134250000D03*
X175100000Y-135750000D03*
X175850000Y-134250000D03*
X175850000Y-135750000D03*
X176600000Y-134250000D03*
X176600000Y-135750000D03*
%TD*%
%TO.C,mouse-bite-2mm-slot*%
X188250000Y-129000000D03*
X189750000Y-129000000D03*
X188250000Y-128250000D03*
X189750000Y-128250000D03*
X188250000Y-127500000D03*
X189750000Y-127500000D03*
%TD*%
%TO.C,mouse-bite-2mm-slot*%
X136050000Y-128830000D03*
X137550000Y-128830000D03*
X136050000Y-128080000D03*
X137550000Y-128080000D03*
X136050000Y-127330000D03*
X137550000Y-127330000D03*
%TD*%
%TO.C,mouse-bite-2mm-slot*%
X188250000Y-120000000D03*
X189750000Y-120000000D03*
X188250000Y-119250000D03*
X189750000Y-119250000D03*
X188250000Y-118500000D03*
X189750000Y-118500000D03*
%TD*%
%TO.C,mouse-bite-2mm-slot*%
X163800000Y-113330000D03*
X163800000Y-111830000D03*
X163050000Y-113330000D03*
X163050000Y-111830000D03*
X162300000Y-113330000D03*
X162300000Y-111830000D03*
%TD*%
D11*
%TO.C,H9*%
X154050000Y-86800000D03*
%TD*%
D12*
%TO.C,SW4_LP*%
X123325943Y-83720000D03*
X110398943Y-86260000D03*
D13*
X122563943Y-88800000D03*
D14*
X120023943Y-83720000D03*
D15*
X117483943Y-88800000D03*
D14*
X113673943Y-86260000D03*
D13*
X112403943Y-88800000D03*
%TD*%
D16*
%TO.C,SW10_SHARE*%
X157590000Y-43800000D03*
X151240000Y-46340000D03*
D13*
X160130000Y-48880000D03*
D15*
X155050000Y-48880000D03*
D13*
X149970000Y-48880000D03*
%TD*%
D16*
%TO.C,SW14_PS*%
X173090000Y-43800000D03*
X166740000Y-46340000D03*
D13*
X175630000Y-48880000D03*
D15*
X170550000Y-48880000D03*
D13*
X165470000Y-48880000D03*
%TD*%
D16*
%TO.C,SW15_TOUCHPAD*%
X188590000Y-43800000D03*
X182240000Y-46340000D03*
D13*
X191130000Y-48880000D03*
D15*
X186050000Y-48880000D03*
D13*
X180970000Y-48880000D03*
%TD*%
D12*
%TO.C,SW6_DI*%
X123506257Y-54720561D03*
X110579257Y-57260561D03*
D13*
X122744257Y-59800561D03*
D14*
X120204257Y-54720561D03*
D15*
X117664257Y-59800561D03*
D14*
X113854257Y-57260561D03*
D13*
X112584257Y-59800561D03*
%TD*%
D11*
%TO.C,H12*%
X109050000Y-74300000D03*
%TD*%
D16*
%TO.C,SW11_START*%
X142090000Y-43800000D03*
X135740000Y-46340000D03*
D13*
X144630000Y-48880000D03*
D15*
X139550000Y-48880000D03*
D13*
X134470000Y-48880000D03*
%TD*%
D12*
%TO.C,SW9_HK*%
X177325943Y-98720000D03*
X164398943Y-101260000D03*
D13*
X176563943Y-103800000D03*
D14*
X174023943Y-98720000D03*
D15*
X171483943Y-103800000D03*
D14*
X167673943Y-101260000D03*
D13*
X166403943Y-103800000D03*
%TD*%
D12*
%TO.C,SW5_MP*%
X148325943Y-69720000D03*
X135398943Y-72260000D03*
D13*
X147563943Y-74800000D03*
D14*
X145023943Y-69720000D03*
D15*
X142483943Y-74800000D03*
D14*
X138673943Y-72260000D03*
D13*
X137403943Y-74800000D03*
%TD*%
D11*
%TO.C,H8*%
X118050000Y-134300000D03*
%TD*%
D12*
%TO.C,SW3_MK*%
X148325943Y-98720000D03*
X135398943Y-101260000D03*
D13*
X147563943Y-103800000D03*
D14*
X145023943Y-98720000D03*
D15*
X142483943Y-103800000D03*
D14*
X138673943Y-101260000D03*
D13*
X137403943Y-103800000D03*
%TD*%
D11*
%TO.C,H11*%
X189550000Y-103800000D03*
%TD*%
%TO.C,H10*%
X190550000Y-62800000D03*
%TD*%
D12*
%TO.C,SW7_HP*%
X177325943Y-69720000D03*
X164398943Y-72260000D03*
D13*
X176563943Y-74800000D03*
D14*
X174023943Y-69720000D03*
D15*
X171483943Y-74800000D03*
D14*
X167673943Y-72260000D03*
D13*
X166403943Y-74800000D03*
%TD*%
D12*
%TO.C,SW2_LK*%
X123325943Y-112720000D03*
X110398943Y-115260000D03*
D13*
X122563943Y-117800000D03*
D14*
X120023943Y-112720000D03*
D15*
X117483943Y-117800000D03*
D14*
X113673943Y-115260000D03*
D13*
X112403943Y-117800000D03*
%TD*%
D11*
%TO.C,H6*%
X183600000Y-123270000D03*
%TD*%
%TO.C,H7*%
X143400000Y-123770000D03*
%TD*%
D13*
%TO.C,SW12_THROW*%
X171954124Y-128434094D03*
D14*
X169414124Y-127164094D03*
D15*
X171954124Y-123354094D03*
D14*
X166874124Y-120814094D03*
D13*
X171954124Y-118274094D03*
D17*
X169414124Y-130439094D03*
X166874124Y-117512094D03*
%TD*%
M02*
