%TF.GenerationSoftware,KiCad,Pcbnew,8.0.4*%
%TF.CreationDate,2024-07-29T01:23:14-07:00*%
%TF.ProjectId,panel_2,70616e65-6c5f-4322-9e6b-696361645f70,rev?*%
%TF.SameCoordinates,Original*%
%TF.FileFunction,Copper,L1,Top*%
%TF.FilePolarity,Positive*%
%FSLAX46Y46*%
G04 Gerber Fmt 4.6, Leading zero omitted, Abs format (unit mm)*
G04 Created by KiCad (PCBNEW 8.0.4) date 2024-07-29 01:23:14*
%MOMM*%
%LPD*%
G01*
G04 APERTURE LIST*
G04 Aperture macros list*
%AMFreePoly0*
4,1,19,0.000000,0.744911,0.071157,0.744911,0.207708,0.704816,0.327430,0.627875,0.420627,0.520320,0.479746,0.390866,0.500000,0.250000,0.500000,-0.250000,0.479746,-0.390866,0.420627,-0.520320,0.327430,-0.627875,0.207708,-0.704816,0.071157,-0.744911,0.000000,-0.744911,0.000000,-0.750000,-0.500000,-0.750000,-0.500000,0.750000,0.000000,0.750000,0.000000,0.744911,0.000000,0.744911,
$1*%
%AMFreePoly1*
4,1,19,0.500000,-0.750000,0.000000,-0.750000,0.000000,-0.744911,-0.071157,-0.744911,-0.207708,-0.704816,-0.327430,-0.627875,-0.420627,-0.520320,-0.479746,-0.390866,-0.500000,-0.250000,-0.500000,0.250000,-0.479746,0.390866,-0.420627,0.520320,-0.327430,0.627875,-0.207708,0.704816,-0.071157,0.744911,0.000000,0.744911,0.000000,0.750000,0.500000,0.750000,0.500000,-0.750000,0.500000,-0.750000,
$1*%
G04 Aperture macros list end*
%TA.AperFunction,SMDPad,CuDef*%
%ADD10FreePoly0,0.000000*%
%TD*%
%TA.AperFunction,ComponentPad*%
%ADD11C,2.500000*%
%TD*%
%TA.AperFunction,SMDPad,CuDef*%
%ADD12FreePoly0,90.000000*%
%TD*%
%TA.AperFunction,SMDPad,CuDef*%
%ADD13FreePoly1,90.000000*%
%TD*%
%TA.AperFunction,ViaPad*%
%ADD14C,0.800000*%
%TD*%
%TA.AperFunction,Conductor*%
%ADD15C,0.150000*%
%TD*%
%TA.AperFunction,Conductor*%
%ADD16C,0.800000*%
%TD*%
G04 APERTURE END LIST*
D10*
%TO.P,JP20,2,B*%
%TO.N,/Buttons/B1*%
X103255000Y-125800000D03*
%TD*%
D11*
%TO.P,SW10_SHARE,2,2*%
%TO.N,GND*%
X157590000Y-43800000D03*
%TO.P,SW10_SHARE,1,1*%
%TO.N,/Buttons/S1*%
X151240000Y-46340000D03*
%TD*%
%TO.P,SW14_PS,2,2*%
%TO.N,GND*%
X173090000Y-43800000D03*
%TO.P,SW14_PS,1,1*%
%TO.N,/Buttons/A1*%
X166740000Y-46340000D03*
%TD*%
%TO.P,SW15_TOUCHPAD,2,2*%
%TO.N,GND*%
X188590000Y-43800000D03*
%TO.P,SW15_TOUCHPAD,1,1*%
%TO.N,/Buttons/A2*%
X182240000Y-46340000D03*
%TD*%
D10*
%TO.P,JP26,2,B*%
%TO.N,/Buttons/R1*%
X103255000Y-55550000D03*
%TD*%
%TO.P,JP23,2,B*%
%TO.N,/Buttons/A1*%
X103255000Y-47300000D03*
%TD*%
%TO.P,JP19,2,B*%
%TO.N,/Buttons/B2*%
X103255000Y-122800000D03*
%TD*%
D11*
%TO.P,SW11_START,2,2*%
%TO.N,GND*%
X142090000Y-43800000D03*
%TO.P,SW11_START,1,1*%
%TO.N,/Buttons/S2*%
X135740000Y-46340000D03*
%TD*%
D10*
%TO.P,JP22,2,B*%
%TO.N,/Buttons/S1*%
X103255000Y-44550000D03*
%TD*%
%TO.P,JP27,2,B*%
%TO.N,/Buttons/B4*%
X103255000Y-58300000D03*
%TD*%
%TO.P,JP25,2,B*%
%TO.N,/Buttons/L1*%
X103255000Y-52800000D03*
%TD*%
%TO.P,JP18,2,B*%
%TO.N,/Buttons/R2*%
X103255000Y-119800000D03*
%TD*%
%TO.P,JP15,2,B*%
%TO.N,GND*%
X103255000Y-61050000D03*
%TD*%
%TO.P,JP21,2,B*%
%TO.N,/Buttons/S2*%
X103255000Y-41800000D03*
%TD*%
%TO.P,JP24,2,B*%
%TO.N,/Buttons/A2*%
X103255000Y-50050000D03*
%TD*%
%TO.P,JP17,2,B*%
%TO.N,/Buttons/B3*%
X103255000Y-116800000D03*
%TD*%
D12*
%TO.P,JP2,2,B*%
%TO.N,Net-(JP2-B)*%
X139600000Y-133442500D03*
%TD*%
D13*
%TO.P,JP23,1,A*%
%TO.N,Net-(JP23-A)*%
X145100000Y-114105000D03*
%TD*%
D12*
%TO.P,JP7,2,B*%
%TO.N,Net-(JP26-A)*%
X153350000Y-133442500D03*
%TD*%
D13*
%TO.P,JP22,1,A*%
%TO.N,Net-(JP22-A)*%
X142350000Y-114105000D03*
%TD*%
D12*
%TO.P,JP8,2,B*%
%TO.N,Net-(JP27-A)*%
X156100000Y-133442500D03*
%TD*%
D13*
%TO.P,JP24,1,A*%
%TO.N,Net-(JP24-A)*%
X147850000Y-114105000D03*
%TD*%
D12*
%TO.P,JP6,2,B*%
%TO.N,Net-(JP25-A)*%
X150600000Y-133442500D03*
%TD*%
%TO.P,JP3,2,B*%
%TO.N,Net-(JP22-A)*%
X142350000Y-133442500D03*
%TD*%
D13*
%TO.P,JP25,1,A*%
%TO.N,Net-(JP25-A)*%
X150600000Y-114105000D03*
%TD*%
%TO.P,JP21,1,A*%
%TO.N,Net-(JP2-B)*%
X139600000Y-114105000D03*
%TD*%
%TO.P,JP26,1,A*%
%TO.N,Net-(JP26-A)*%
X153350000Y-114105000D03*
%TD*%
D12*
%TO.P,JP1,2,B*%
%TO.N,GND*%
X158850000Y-133442500D03*
%TD*%
%TO.P,JP9,2,B*%
%TO.N,/Buttons/L3*%
X161650000Y-133442500D03*
%TD*%
%TO.P,JP5,2,B*%
%TO.N,Net-(JP24-A)*%
X147850000Y-133442500D03*
%TD*%
D13*
%TO.P,JP27,1,A*%
%TO.N,Net-(JP27-A)*%
X156100000Y-114105000D03*
%TD*%
%TO.P,JP15,1,A*%
%TO.N,GND*%
X158850000Y-114105000D03*
%TD*%
D12*
%TO.P,JP4,2,B*%
%TO.N,Net-(JP23-A)*%
X145100000Y-133442500D03*
%TD*%
D14*
%TO.N,GND*%
X105300000Y-61050000D03*
%TO.N,/Buttons/L1*%
X108550000Y-55800000D03*
%TO.N,/Buttons/R1*%
X162550000Y-69800000D03*
%TO.N,/Buttons/B4*%
X132550000Y-72300000D03*
%TO.N,/Buttons/B3*%
X109550000Y-88800000D03*
%TO.N,/Buttons/R2*%
X163050000Y-98800000D03*
%TO.N,/Buttons/B2*%
X132550000Y-101300000D03*
%TO.N,/Buttons/B1*%
X109550000Y-117800000D03*
%TO.N,GND*%
X162392094Y-117512094D03*
%TO.N,/Buttons/L3*%
X166600000Y-131770000D03*
%TD*%
D15*
%TO.N,Net-(JP2-B)*%
X138700000Y-114870000D02*
X139600000Y-113970000D01*
X138700000Y-132680000D02*
X138700000Y-114870000D01*
X139600000Y-133580000D02*
X138700000Y-132680000D01*
%TO.N,Net-(JP22-A)*%
X139450000Y-130680000D02*
X142350000Y-133580000D01*
X139450000Y-116870000D02*
X139450000Y-130680000D01*
X142350000Y-113970000D02*
X139450000Y-116870000D01*
D16*
%TO.N,GND*%
X105300000Y-61050000D02*
X103150000Y-61050000D01*
D15*
%TO.N,/Buttons/S2*%
X131200000Y-41800000D02*
X103150000Y-41800000D01*
X135740000Y-46340000D02*
X131200000Y-41800000D01*
%TO.N,/Buttons/S1*%
X151240000Y-46340000D02*
X150010000Y-46340000D01*
X126300000Y-44550000D02*
X103150000Y-44550000D01*
X150010000Y-46340000D02*
X144050000Y-52300000D01*
X144050000Y-52300000D02*
X134050000Y-52300000D01*
X103150000Y-44550000D02*
X103400000Y-44800000D01*
X134050000Y-52300000D02*
X126300000Y-44550000D01*
%TO.N,/Buttons/A1*%
X127579753Y-47300000D02*
X103150000Y-47300000D01*
X159050000Y-52800000D02*
X133079753Y-52800000D01*
X165510000Y-46340000D02*
X159050000Y-52800000D01*
X166740000Y-46340000D02*
X165510000Y-46340000D01*
X133079753Y-52800000D02*
X127579753Y-47300000D01*
%TO.N,/Buttons/A2*%
X128830000Y-50050000D02*
X103150000Y-50050000D01*
X182240000Y-46340000D02*
X181010000Y-46340000D01*
X181010000Y-46340000D02*
X174050000Y-53300000D01*
X132080000Y-53300000D02*
X128830000Y-50050000D01*
X174050000Y-53300000D02*
X132080000Y-53300000D01*
%TO.N,/Buttons/L1*%
X103150000Y-52800000D02*
X105550000Y-52800000D01*
X105550000Y-52800000D02*
X108550000Y-55800000D01*
%TO.N,/Buttons/R1*%
X110400000Y-62800000D02*
X155550000Y-62800000D01*
X103150000Y-55550000D02*
X110400000Y-62800000D01*
X155550000Y-62800000D02*
X162550000Y-69800000D01*
%TO.N,/Buttons/B4*%
X132550000Y-72300000D02*
X118727513Y-72300000D01*
X118727513Y-72300000D02*
X104727513Y-58300000D01*
X104727513Y-58300000D02*
X103150000Y-58300000D01*
%TO.N,/Buttons/B3*%
X103150000Y-116800000D02*
X109050000Y-110900000D01*
X109050000Y-110900000D02*
X109050000Y-89300000D01*
X109050000Y-89300000D02*
X109550000Y-88800000D01*
%TO.N,/Buttons/R2*%
X103150000Y-119800000D02*
X126650000Y-96300000D01*
X126650000Y-96300000D02*
X160550000Y-96300000D01*
X160550000Y-96300000D02*
X163050000Y-98800000D01*
%TO.N,/Buttons/B2*%
X103150000Y-122200000D02*
X124050000Y-101300000D01*
X103150000Y-122800000D02*
X103150000Y-122200000D01*
X132550000Y-101300000D02*
X124050000Y-101300000D01*
%TO.N,/Buttons/B1*%
X109550000Y-119400000D02*
X109550000Y-117800000D01*
X103150000Y-125800000D02*
X109550000Y-119400000D01*
D16*
%TO.N,GND*%
X158850000Y-121054188D02*
X158850000Y-133550000D01*
X158985000Y-114105000D02*
X158850000Y-114105000D01*
X162392094Y-117512094D02*
X158985000Y-114105000D01*
X162392094Y-117512094D02*
X158850000Y-121054188D01*
D15*
%TO.N,/Buttons/L3*%
X163430000Y-131770000D02*
X161650000Y-133550000D01*
X166600000Y-131770000D02*
X163430000Y-131770000D01*
%TO.N,Net-(JP23-A)*%
X145100000Y-113970000D02*
X147100000Y-115970000D01*
X147100000Y-131580000D02*
X145100000Y-133580000D01*
X147100000Y-115970000D02*
X147100000Y-131580000D01*
%TO.N,Net-(JP24-A)*%
X147850000Y-113970000D02*
X147850000Y-133580000D01*
%TO.N,Net-(JP25-A)*%
X150600000Y-113970000D02*
X150600000Y-133550000D01*
%TO.N,Net-(JP26-A)*%
X153350000Y-133550000D02*
X153350000Y-113970000D01*
%TO.N,Net-(JP27-A)*%
X156100000Y-113970000D02*
X156100000Y-133550000D01*
%TD*%
M02*
