%TF.GenerationSoftware,KiCad,Pcbnew,8.0.4*%
%TF.CreationDate,2024-07-25T19:41:12-07:00*%
%TF.ProjectId,panel_2,70616e65-6c5f-4322-9e6b-696361645f70,rev?*%
%TF.SameCoordinates,Original*%
%TF.FileFunction,Legend,Top*%
%TF.FilePolarity,Positive*%
%FSLAX46Y46*%
G04 Gerber Fmt 4.6, Leading zero omitted, Abs format (unit mm)*
G04 Created by KiCad (PCBNEW 8.0.4) date 2024-07-25 19:41:12*
%MOMM*%
%LPD*%
G01*
G04 APERTURE LIST*
%ADD10C,0.150000*%
%ADD11C,0.100000*%
%ADD12C,0.120000*%
G04 APERTURE END LIST*
D10*
X114864895Y-110207200D02*
X115007752Y-110254819D01*
X115007752Y-110254819D02*
X115245847Y-110254819D01*
X115245847Y-110254819D02*
X115341085Y-110207200D01*
X115341085Y-110207200D02*
X115388704Y-110159580D01*
X115388704Y-110159580D02*
X115436323Y-110064342D01*
X115436323Y-110064342D02*
X115436323Y-109969104D01*
X115436323Y-109969104D02*
X115388704Y-109873866D01*
X115388704Y-109873866D02*
X115341085Y-109826247D01*
X115341085Y-109826247D02*
X115245847Y-109778628D01*
X115245847Y-109778628D02*
X115055371Y-109731009D01*
X115055371Y-109731009D02*
X114960133Y-109683390D01*
X114960133Y-109683390D02*
X114912514Y-109635771D01*
X114912514Y-109635771D02*
X114864895Y-109540533D01*
X114864895Y-109540533D02*
X114864895Y-109445295D01*
X114864895Y-109445295D02*
X114912514Y-109350057D01*
X114912514Y-109350057D02*
X114960133Y-109302438D01*
X114960133Y-109302438D02*
X115055371Y-109254819D01*
X115055371Y-109254819D02*
X115293466Y-109254819D01*
X115293466Y-109254819D02*
X115436323Y-109302438D01*
X115769657Y-109254819D02*
X116007752Y-110254819D01*
X116007752Y-110254819D02*
X116198228Y-109540533D01*
X116198228Y-109540533D02*
X116388704Y-110254819D01*
X116388704Y-110254819D02*
X116626800Y-109254819D01*
X116960133Y-109350057D02*
X117007752Y-109302438D01*
X117007752Y-109302438D02*
X117102990Y-109254819D01*
X117102990Y-109254819D02*
X117341085Y-109254819D01*
X117341085Y-109254819D02*
X117436323Y-109302438D01*
X117436323Y-109302438D02*
X117483942Y-109350057D01*
X117483942Y-109350057D02*
X117531561Y-109445295D01*
X117531561Y-109445295D02*
X117531561Y-109540533D01*
X117531561Y-109540533D02*
X117483942Y-109683390D01*
X117483942Y-109683390D02*
X116912514Y-110254819D01*
X116912514Y-110254819D02*
X117531561Y-110254819D01*
X117722038Y-110350057D02*
X118483942Y-110350057D01*
X119198228Y-110254819D02*
X118722038Y-110254819D01*
X118722038Y-110254819D02*
X118722038Y-109254819D01*
X119531562Y-110254819D02*
X119531562Y-109254819D01*
X120102990Y-110254819D02*
X119674419Y-109683390D01*
X120102990Y-109254819D02*
X119531562Y-109826247D01*
X154224819Y-123449523D02*
X154939104Y-123449523D01*
X154939104Y-123449523D02*
X155081961Y-123497142D01*
X155081961Y-123497142D02*
X155177200Y-123592380D01*
X155177200Y-123592380D02*
X155224819Y-123735237D01*
X155224819Y-123735237D02*
X155224819Y-123830475D01*
X155224819Y-122973332D02*
X154224819Y-122973332D01*
X154224819Y-122973332D02*
X154224819Y-122592380D01*
X154224819Y-122592380D02*
X154272438Y-122497142D01*
X154272438Y-122497142D02*
X154320057Y-122449523D01*
X154320057Y-122449523D02*
X154415295Y-122401904D01*
X154415295Y-122401904D02*
X154558152Y-122401904D01*
X154558152Y-122401904D02*
X154653390Y-122449523D01*
X154653390Y-122449523D02*
X154701009Y-122497142D01*
X154701009Y-122497142D02*
X154748628Y-122592380D01*
X154748628Y-122592380D02*
X154748628Y-122973332D01*
X154320057Y-122020951D02*
X154272438Y-121973332D01*
X154272438Y-121973332D02*
X154224819Y-121878094D01*
X154224819Y-121878094D02*
X154224819Y-121639999D01*
X154224819Y-121639999D02*
X154272438Y-121544761D01*
X154272438Y-121544761D02*
X154320057Y-121497142D01*
X154320057Y-121497142D02*
X154415295Y-121449523D01*
X154415295Y-121449523D02*
X154510533Y-121449523D01*
X154510533Y-121449523D02*
X154653390Y-121497142D01*
X154653390Y-121497142D02*
X155224819Y-122068570D01*
X155224819Y-122068570D02*
X155224819Y-121449523D01*
X154558152Y-120592380D02*
X155224819Y-120592380D01*
X154177200Y-120830475D02*
X154891485Y-121068570D01*
X154891485Y-121068570D02*
X154891485Y-120449523D01*
X146304819Y-129701904D02*
X145304819Y-129701904D01*
X145781009Y-129701904D02*
X145781009Y-129130476D01*
X146304819Y-129130476D02*
X145304819Y-129130476D01*
X145304819Y-128749523D02*
X145304819Y-128082857D01*
X145304819Y-128082857D02*
X146304819Y-128511428D01*
X162474819Y-123449523D02*
X163189104Y-123449523D01*
X163189104Y-123449523D02*
X163331961Y-123497142D01*
X163331961Y-123497142D02*
X163427200Y-123592380D01*
X163427200Y-123592380D02*
X163474819Y-123735237D01*
X163474819Y-123735237D02*
X163474819Y-123830475D01*
X163474819Y-122973332D02*
X162474819Y-122973332D01*
X162474819Y-122973332D02*
X162474819Y-122592380D01*
X162474819Y-122592380D02*
X162522438Y-122497142D01*
X162522438Y-122497142D02*
X162570057Y-122449523D01*
X162570057Y-122449523D02*
X162665295Y-122401904D01*
X162665295Y-122401904D02*
X162808152Y-122401904D01*
X162808152Y-122401904D02*
X162903390Y-122449523D01*
X162903390Y-122449523D02*
X162951009Y-122497142D01*
X162951009Y-122497142D02*
X162998628Y-122592380D01*
X162998628Y-122592380D02*
X162998628Y-122973332D01*
X162570057Y-122020951D02*
X162522438Y-121973332D01*
X162522438Y-121973332D02*
X162474819Y-121878094D01*
X162474819Y-121878094D02*
X162474819Y-121639999D01*
X162474819Y-121639999D02*
X162522438Y-121544761D01*
X162522438Y-121544761D02*
X162570057Y-121497142D01*
X162570057Y-121497142D02*
X162665295Y-121449523D01*
X162665295Y-121449523D02*
X162760533Y-121449523D01*
X162760533Y-121449523D02*
X162903390Y-121497142D01*
X162903390Y-121497142D02*
X163474819Y-122068570D01*
X163474819Y-122068570D02*
X163474819Y-121449523D01*
X162474819Y-121116189D02*
X162474819Y-120449523D01*
X162474819Y-120449523D02*
X163474819Y-120878094D01*
X148724819Y-123449523D02*
X149439104Y-123449523D01*
X149439104Y-123449523D02*
X149581961Y-123497142D01*
X149581961Y-123497142D02*
X149677200Y-123592380D01*
X149677200Y-123592380D02*
X149724819Y-123735237D01*
X149724819Y-123735237D02*
X149724819Y-123830475D01*
X149724819Y-122973332D02*
X148724819Y-122973332D01*
X148724819Y-122973332D02*
X148724819Y-122592380D01*
X148724819Y-122592380D02*
X148772438Y-122497142D01*
X148772438Y-122497142D02*
X148820057Y-122449523D01*
X148820057Y-122449523D02*
X148915295Y-122401904D01*
X148915295Y-122401904D02*
X149058152Y-122401904D01*
X149058152Y-122401904D02*
X149153390Y-122449523D01*
X149153390Y-122449523D02*
X149201009Y-122497142D01*
X149201009Y-122497142D02*
X149248628Y-122592380D01*
X149248628Y-122592380D02*
X149248628Y-122973332D01*
X148820057Y-122020951D02*
X148772438Y-121973332D01*
X148772438Y-121973332D02*
X148724819Y-121878094D01*
X148724819Y-121878094D02*
X148724819Y-121639999D01*
X148724819Y-121639999D02*
X148772438Y-121544761D01*
X148772438Y-121544761D02*
X148820057Y-121497142D01*
X148820057Y-121497142D02*
X148915295Y-121449523D01*
X148915295Y-121449523D02*
X149010533Y-121449523D01*
X149010533Y-121449523D02*
X149153390Y-121497142D01*
X149153390Y-121497142D02*
X149724819Y-122068570D01*
X149724819Y-122068570D02*
X149724819Y-121449523D01*
X148820057Y-121068570D02*
X148772438Y-121020951D01*
X148772438Y-121020951D02*
X148724819Y-120925713D01*
X148724819Y-120925713D02*
X148724819Y-120687618D01*
X148724819Y-120687618D02*
X148772438Y-120592380D01*
X148772438Y-120592380D02*
X148820057Y-120544761D01*
X148820057Y-120544761D02*
X148915295Y-120497142D01*
X148915295Y-120497142D02*
X149010533Y-120497142D01*
X149010533Y-120497142D02*
X149153390Y-120544761D01*
X149153390Y-120544761D02*
X149724819Y-121116189D01*
X149724819Y-121116189D02*
X149724819Y-120497142D01*
X156974819Y-123449523D02*
X157689104Y-123449523D01*
X157689104Y-123449523D02*
X157831961Y-123497142D01*
X157831961Y-123497142D02*
X157927200Y-123592380D01*
X157927200Y-123592380D02*
X157974819Y-123735237D01*
X157974819Y-123735237D02*
X157974819Y-123830475D01*
X157974819Y-122973332D02*
X156974819Y-122973332D01*
X156974819Y-122973332D02*
X156974819Y-122592380D01*
X156974819Y-122592380D02*
X157022438Y-122497142D01*
X157022438Y-122497142D02*
X157070057Y-122449523D01*
X157070057Y-122449523D02*
X157165295Y-122401904D01*
X157165295Y-122401904D02*
X157308152Y-122401904D01*
X157308152Y-122401904D02*
X157403390Y-122449523D01*
X157403390Y-122449523D02*
X157451009Y-122497142D01*
X157451009Y-122497142D02*
X157498628Y-122592380D01*
X157498628Y-122592380D02*
X157498628Y-122973332D01*
X157070057Y-122020951D02*
X157022438Y-121973332D01*
X157022438Y-121973332D02*
X156974819Y-121878094D01*
X156974819Y-121878094D02*
X156974819Y-121639999D01*
X156974819Y-121639999D02*
X157022438Y-121544761D01*
X157022438Y-121544761D02*
X157070057Y-121497142D01*
X157070057Y-121497142D02*
X157165295Y-121449523D01*
X157165295Y-121449523D02*
X157260533Y-121449523D01*
X157260533Y-121449523D02*
X157403390Y-121497142D01*
X157403390Y-121497142D02*
X157974819Y-122068570D01*
X157974819Y-122068570D02*
X157974819Y-121449523D01*
X156974819Y-120544761D02*
X156974819Y-121020951D01*
X156974819Y-121020951D02*
X157451009Y-121068570D01*
X157451009Y-121068570D02*
X157403390Y-121020951D01*
X157403390Y-121020951D02*
X157355771Y-120925713D01*
X157355771Y-120925713D02*
X157355771Y-120687618D01*
X157355771Y-120687618D02*
X157403390Y-120592380D01*
X157403390Y-120592380D02*
X157451009Y-120544761D01*
X157451009Y-120544761D02*
X157546247Y-120497142D01*
X157546247Y-120497142D02*
X157784342Y-120497142D01*
X157784342Y-120497142D02*
X157879580Y-120544761D01*
X157879580Y-120544761D02*
X157927200Y-120592380D01*
X157927200Y-120592380D02*
X157974819Y-120687618D01*
X157974819Y-120687618D02*
X157974819Y-120925713D01*
X157974819Y-120925713D02*
X157927200Y-121020951D01*
X157927200Y-121020951D02*
X157879580Y-121068570D01*
X112288095Y-134754819D02*
X112288095Y-133754819D01*
X112288095Y-134231009D02*
X112859523Y-134231009D01*
X112859523Y-134754819D02*
X112859523Y-133754819D01*
X113478571Y-134183390D02*
X113383333Y-134135771D01*
X113383333Y-134135771D02*
X113335714Y-134088152D01*
X113335714Y-134088152D02*
X113288095Y-133992914D01*
X113288095Y-133992914D02*
X113288095Y-133945295D01*
X113288095Y-133945295D02*
X113335714Y-133850057D01*
X113335714Y-133850057D02*
X113383333Y-133802438D01*
X113383333Y-133802438D02*
X113478571Y-133754819D01*
X113478571Y-133754819D02*
X113669047Y-133754819D01*
X113669047Y-133754819D02*
X113764285Y-133802438D01*
X113764285Y-133802438D02*
X113811904Y-133850057D01*
X113811904Y-133850057D02*
X113859523Y-133945295D01*
X113859523Y-133945295D02*
X113859523Y-133992914D01*
X113859523Y-133992914D02*
X113811904Y-134088152D01*
X113811904Y-134088152D02*
X113764285Y-134135771D01*
X113764285Y-134135771D02*
X113669047Y-134183390D01*
X113669047Y-134183390D02*
X113478571Y-134183390D01*
X113478571Y-134183390D02*
X113383333Y-134231009D01*
X113383333Y-134231009D02*
X113335714Y-134278628D01*
X113335714Y-134278628D02*
X113288095Y-134373866D01*
X113288095Y-134373866D02*
X113288095Y-134564342D01*
X113288095Y-134564342D02*
X113335714Y-134659580D01*
X113335714Y-134659580D02*
X113383333Y-134707200D01*
X113383333Y-134707200D02*
X113478571Y-134754819D01*
X113478571Y-134754819D02*
X113669047Y-134754819D01*
X113669047Y-134754819D02*
X113764285Y-134707200D01*
X113764285Y-134707200D02*
X113811904Y-134659580D01*
X113811904Y-134659580D02*
X113859523Y-134564342D01*
X113859523Y-134564342D02*
X113859523Y-134373866D01*
X113859523Y-134373866D02*
X113811904Y-134278628D01*
X113811904Y-134278628D02*
X113764285Y-134231009D01*
X113764285Y-134231009D02*
X113669047Y-134183390D01*
X139698229Y-96207200D02*
X139841086Y-96254819D01*
X139841086Y-96254819D02*
X140079181Y-96254819D01*
X140079181Y-96254819D02*
X140174419Y-96207200D01*
X140174419Y-96207200D02*
X140222038Y-96159580D01*
X140222038Y-96159580D02*
X140269657Y-96064342D01*
X140269657Y-96064342D02*
X140269657Y-95969104D01*
X140269657Y-95969104D02*
X140222038Y-95873866D01*
X140222038Y-95873866D02*
X140174419Y-95826247D01*
X140174419Y-95826247D02*
X140079181Y-95778628D01*
X140079181Y-95778628D02*
X139888705Y-95731009D01*
X139888705Y-95731009D02*
X139793467Y-95683390D01*
X139793467Y-95683390D02*
X139745848Y-95635771D01*
X139745848Y-95635771D02*
X139698229Y-95540533D01*
X139698229Y-95540533D02*
X139698229Y-95445295D01*
X139698229Y-95445295D02*
X139745848Y-95350057D01*
X139745848Y-95350057D02*
X139793467Y-95302438D01*
X139793467Y-95302438D02*
X139888705Y-95254819D01*
X139888705Y-95254819D02*
X140126800Y-95254819D01*
X140126800Y-95254819D02*
X140269657Y-95302438D01*
X140602991Y-95254819D02*
X140841086Y-96254819D01*
X140841086Y-96254819D02*
X141031562Y-95540533D01*
X141031562Y-95540533D02*
X141222038Y-96254819D01*
X141222038Y-96254819D02*
X141460134Y-95254819D01*
X141745848Y-95254819D02*
X142364895Y-95254819D01*
X142364895Y-95254819D02*
X142031562Y-95635771D01*
X142031562Y-95635771D02*
X142174419Y-95635771D01*
X142174419Y-95635771D02*
X142269657Y-95683390D01*
X142269657Y-95683390D02*
X142317276Y-95731009D01*
X142317276Y-95731009D02*
X142364895Y-95826247D01*
X142364895Y-95826247D02*
X142364895Y-96064342D01*
X142364895Y-96064342D02*
X142317276Y-96159580D01*
X142317276Y-96159580D02*
X142269657Y-96207200D01*
X142269657Y-96207200D02*
X142174419Y-96254819D01*
X142174419Y-96254819D02*
X141888705Y-96254819D01*
X141888705Y-96254819D02*
X141793467Y-96207200D01*
X141793467Y-96207200D02*
X141745848Y-96159580D01*
X142555372Y-96350057D02*
X143317276Y-96350057D01*
X143555372Y-96254819D02*
X143555372Y-95254819D01*
X143555372Y-95254819D02*
X143888705Y-95969104D01*
X143888705Y-95969104D02*
X144222038Y-95254819D01*
X144222038Y-95254819D02*
X144222038Y-96254819D01*
X144698229Y-96254819D02*
X144698229Y-95254819D01*
X145269657Y-96254819D02*
X144841086Y-95683390D01*
X145269657Y-95254819D02*
X144698229Y-95826247D01*
X112811905Y-74754819D02*
X112811905Y-73754819D01*
X112811905Y-74231009D02*
X113383333Y-74231009D01*
X113383333Y-74754819D02*
X113383333Y-73754819D01*
X114383333Y-74754819D02*
X113811905Y-74754819D01*
X114097619Y-74754819D02*
X114097619Y-73754819D01*
X114097619Y-73754819D02*
X114002381Y-73897676D01*
X114002381Y-73897676D02*
X113907143Y-73992914D01*
X113907143Y-73992914D02*
X113811905Y-74040533D01*
X114764286Y-73850057D02*
X114811905Y-73802438D01*
X114811905Y-73802438D02*
X114907143Y-73754819D01*
X114907143Y-73754819D02*
X115145238Y-73754819D01*
X115145238Y-73754819D02*
X115240476Y-73802438D01*
X115240476Y-73802438D02*
X115288095Y-73850057D01*
X115288095Y-73850057D02*
X115335714Y-73945295D01*
X115335714Y-73945295D02*
X115335714Y-74040533D01*
X115335714Y-74040533D02*
X115288095Y-74183390D01*
X115288095Y-74183390D02*
X114716667Y-74754819D01*
X114716667Y-74754819D02*
X115335714Y-74754819D01*
X153288095Y-91754819D02*
X153288095Y-90754819D01*
X153288095Y-91231009D02*
X153859523Y-91231009D01*
X153859523Y-91754819D02*
X153859523Y-90754819D01*
X154383333Y-91754819D02*
X154573809Y-91754819D01*
X154573809Y-91754819D02*
X154669047Y-91707200D01*
X154669047Y-91707200D02*
X154716666Y-91659580D01*
X154716666Y-91659580D02*
X154811904Y-91516723D01*
X154811904Y-91516723D02*
X154859523Y-91326247D01*
X154859523Y-91326247D02*
X154859523Y-90945295D01*
X154859523Y-90945295D02*
X154811904Y-90850057D01*
X154811904Y-90850057D02*
X154764285Y-90802438D01*
X154764285Y-90802438D02*
X154669047Y-90754819D01*
X154669047Y-90754819D02*
X154478571Y-90754819D01*
X154478571Y-90754819D02*
X154383333Y-90802438D01*
X154383333Y-90802438D02*
X154335714Y-90850057D01*
X154335714Y-90850057D02*
X154288095Y-90945295D01*
X154288095Y-90945295D02*
X154288095Y-91183390D01*
X154288095Y-91183390D02*
X154335714Y-91278628D01*
X154335714Y-91278628D02*
X154383333Y-91326247D01*
X154383333Y-91326247D02*
X154478571Y-91373866D01*
X154478571Y-91373866D02*
X154669047Y-91373866D01*
X154669047Y-91373866D02*
X154764285Y-91326247D01*
X154764285Y-91326247D02*
X154811904Y-91278628D01*
X154811904Y-91278628D02*
X154859523Y-91183390D01*
X165987200Y-51966666D02*
X166034819Y-51823809D01*
X166034819Y-51823809D02*
X166034819Y-51585714D01*
X166034819Y-51585714D02*
X165987200Y-51490476D01*
X165987200Y-51490476D02*
X165939580Y-51442857D01*
X165939580Y-51442857D02*
X165844342Y-51395238D01*
X165844342Y-51395238D02*
X165749104Y-51395238D01*
X165749104Y-51395238D02*
X165653866Y-51442857D01*
X165653866Y-51442857D02*
X165606247Y-51490476D01*
X165606247Y-51490476D02*
X165558628Y-51585714D01*
X165558628Y-51585714D02*
X165511009Y-51776190D01*
X165511009Y-51776190D02*
X165463390Y-51871428D01*
X165463390Y-51871428D02*
X165415771Y-51919047D01*
X165415771Y-51919047D02*
X165320533Y-51966666D01*
X165320533Y-51966666D02*
X165225295Y-51966666D01*
X165225295Y-51966666D02*
X165130057Y-51919047D01*
X165130057Y-51919047D02*
X165082438Y-51871428D01*
X165082438Y-51871428D02*
X165034819Y-51776190D01*
X165034819Y-51776190D02*
X165034819Y-51538095D01*
X165034819Y-51538095D02*
X165082438Y-51395238D01*
X165034819Y-51061904D02*
X166034819Y-50823809D01*
X166034819Y-50823809D02*
X165320533Y-50633333D01*
X165320533Y-50633333D02*
X166034819Y-50442857D01*
X166034819Y-50442857D02*
X165034819Y-50204762D01*
X166034819Y-49300000D02*
X166034819Y-49871428D01*
X166034819Y-49585714D02*
X165034819Y-49585714D01*
X165034819Y-49585714D02*
X165177676Y-49680952D01*
X165177676Y-49680952D02*
X165272914Y-49776190D01*
X165272914Y-49776190D02*
X165320533Y-49871428D01*
X165368152Y-48442857D02*
X166034819Y-48442857D01*
X164987200Y-48680952D02*
X165701485Y-48919047D01*
X165701485Y-48919047D02*
X165701485Y-48300000D01*
X166130057Y-48157143D02*
X166130057Y-47395238D01*
X166034819Y-47157142D02*
X165034819Y-47157142D01*
X165034819Y-47157142D02*
X165034819Y-46776190D01*
X165034819Y-46776190D02*
X165082438Y-46680952D01*
X165082438Y-46680952D02*
X165130057Y-46633333D01*
X165130057Y-46633333D02*
X165225295Y-46585714D01*
X165225295Y-46585714D02*
X165368152Y-46585714D01*
X165368152Y-46585714D02*
X165463390Y-46633333D01*
X165463390Y-46633333D02*
X165511009Y-46680952D01*
X165511009Y-46680952D02*
X165558628Y-46776190D01*
X165558628Y-46776190D02*
X165558628Y-47157142D01*
X165987200Y-46204761D02*
X166034819Y-46061904D01*
X166034819Y-46061904D02*
X166034819Y-45823809D01*
X166034819Y-45823809D02*
X165987200Y-45728571D01*
X165987200Y-45728571D02*
X165939580Y-45680952D01*
X165939580Y-45680952D02*
X165844342Y-45633333D01*
X165844342Y-45633333D02*
X165749104Y-45633333D01*
X165749104Y-45633333D02*
X165653866Y-45680952D01*
X165653866Y-45680952D02*
X165606247Y-45728571D01*
X165606247Y-45728571D02*
X165558628Y-45823809D01*
X165558628Y-45823809D02*
X165511009Y-46014285D01*
X165511009Y-46014285D02*
X165463390Y-46109523D01*
X165463390Y-46109523D02*
X165415771Y-46157142D01*
X165415771Y-46157142D02*
X165320533Y-46204761D01*
X165320533Y-46204761D02*
X165225295Y-46204761D01*
X165225295Y-46204761D02*
X165130057Y-46157142D01*
X165130057Y-46157142D02*
X165082438Y-46109523D01*
X165082438Y-46109523D02*
X165034819Y-46014285D01*
X165034819Y-46014285D02*
X165034819Y-45776190D01*
X165034819Y-45776190D02*
X165082438Y-45633333D01*
X165224819Y-123449523D02*
X165939104Y-123449523D01*
X165939104Y-123449523D02*
X166081961Y-123497142D01*
X166081961Y-123497142D02*
X166177200Y-123592380D01*
X166177200Y-123592380D02*
X166224819Y-123735237D01*
X166224819Y-123735237D02*
X166224819Y-123830475D01*
X166224819Y-122973332D02*
X165224819Y-122973332D01*
X165224819Y-122973332D02*
X165224819Y-122592380D01*
X165224819Y-122592380D02*
X165272438Y-122497142D01*
X165272438Y-122497142D02*
X165320057Y-122449523D01*
X165320057Y-122449523D02*
X165415295Y-122401904D01*
X165415295Y-122401904D02*
X165558152Y-122401904D01*
X165558152Y-122401904D02*
X165653390Y-122449523D01*
X165653390Y-122449523D02*
X165701009Y-122497142D01*
X165701009Y-122497142D02*
X165748628Y-122592380D01*
X165748628Y-122592380D02*
X165748628Y-122973332D01*
X166224819Y-121449523D02*
X166224819Y-122020951D01*
X166224819Y-121735237D02*
X165224819Y-121735237D01*
X165224819Y-121735237D02*
X165367676Y-121830475D01*
X165367676Y-121830475D02*
X165462914Y-121925713D01*
X165462914Y-121925713D02*
X165510533Y-122020951D01*
X165224819Y-120544761D02*
X165224819Y-121020951D01*
X165224819Y-121020951D02*
X165701009Y-121068570D01*
X165701009Y-121068570D02*
X165653390Y-121020951D01*
X165653390Y-121020951D02*
X165605771Y-120925713D01*
X165605771Y-120925713D02*
X165605771Y-120687618D01*
X165605771Y-120687618D02*
X165653390Y-120592380D01*
X165653390Y-120592380D02*
X165701009Y-120544761D01*
X165701009Y-120544761D02*
X165796247Y-120497142D01*
X165796247Y-120497142D02*
X166034342Y-120497142D01*
X166034342Y-120497142D02*
X166129580Y-120544761D01*
X166129580Y-120544761D02*
X166177200Y-120592380D01*
X166177200Y-120592380D02*
X166224819Y-120687618D01*
X166224819Y-120687618D02*
X166224819Y-120925713D01*
X166224819Y-120925713D02*
X166177200Y-121020951D01*
X166177200Y-121020951D02*
X166129580Y-121068570D01*
X114864895Y-81207200D02*
X115007752Y-81254819D01*
X115007752Y-81254819D02*
X115245847Y-81254819D01*
X115245847Y-81254819D02*
X115341085Y-81207200D01*
X115341085Y-81207200D02*
X115388704Y-81159580D01*
X115388704Y-81159580D02*
X115436323Y-81064342D01*
X115436323Y-81064342D02*
X115436323Y-80969104D01*
X115436323Y-80969104D02*
X115388704Y-80873866D01*
X115388704Y-80873866D02*
X115341085Y-80826247D01*
X115341085Y-80826247D02*
X115245847Y-80778628D01*
X115245847Y-80778628D02*
X115055371Y-80731009D01*
X115055371Y-80731009D02*
X114960133Y-80683390D01*
X114960133Y-80683390D02*
X114912514Y-80635771D01*
X114912514Y-80635771D02*
X114864895Y-80540533D01*
X114864895Y-80540533D02*
X114864895Y-80445295D01*
X114864895Y-80445295D02*
X114912514Y-80350057D01*
X114912514Y-80350057D02*
X114960133Y-80302438D01*
X114960133Y-80302438D02*
X115055371Y-80254819D01*
X115055371Y-80254819D02*
X115293466Y-80254819D01*
X115293466Y-80254819D02*
X115436323Y-80302438D01*
X115769657Y-80254819D02*
X116007752Y-81254819D01*
X116007752Y-81254819D02*
X116198228Y-80540533D01*
X116198228Y-80540533D02*
X116388704Y-81254819D01*
X116388704Y-81254819D02*
X116626800Y-80254819D01*
X117436323Y-80588152D02*
X117436323Y-81254819D01*
X117198228Y-80207200D02*
X116960133Y-80921485D01*
X116960133Y-80921485D02*
X117579180Y-80921485D01*
X117722038Y-81350057D02*
X118483942Y-81350057D01*
X119198228Y-81254819D02*
X118722038Y-81254819D01*
X118722038Y-81254819D02*
X118722038Y-80254819D01*
X119531562Y-81254819D02*
X119531562Y-80254819D01*
X119531562Y-80254819D02*
X119912514Y-80254819D01*
X119912514Y-80254819D02*
X120007752Y-80302438D01*
X120007752Y-80302438D02*
X120055371Y-80350057D01*
X120055371Y-80350057D02*
X120102990Y-80445295D01*
X120102990Y-80445295D02*
X120102990Y-80588152D01*
X120102990Y-80588152D02*
X120055371Y-80683390D01*
X120055371Y-80683390D02*
X120007752Y-80731009D01*
X120007752Y-80731009D02*
X119912514Y-80778628D01*
X119912514Y-80778628D02*
X119531562Y-80778628D01*
X135987200Y-53157142D02*
X136034819Y-53014285D01*
X136034819Y-53014285D02*
X136034819Y-52776190D01*
X136034819Y-52776190D02*
X135987200Y-52680952D01*
X135987200Y-52680952D02*
X135939580Y-52633333D01*
X135939580Y-52633333D02*
X135844342Y-52585714D01*
X135844342Y-52585714D02*
X135749104Y-52585714D01*
X135749104Y-52585714D02*
X135653866Y-52633333D01*
X135653866Y-52633333D02*
X135606247Y-52680952D01*
X135606247Y-52680952D02*
X135558628Y-52776190D01*
X135558628Y-52776190D02*
X135511009Y-52966666D01*
X135511009Y-52966666D02*
X135463390Y-53061904D01*
X135463390Y-53061904D02*
X135415771Y-53109523D01*
X135415771Y-53109523D02*
X135320533Y-53157142D01*
X135320533Y-53157142D02*
X135225295Y-53157142D01*
X135225295Y-53157142D02*
X135130057Y-53109523D01*
X135130057Y-53109523D02*
X135082438Y-53061904D01*
X135082438Y-53061904D02*
X135034819Y-52966666D01*
X135034819Y-52966666D02*
X135034819Y-52728571D01*
X135034819Y-52728571D02*
X135082438Y-52585714D01*
X135034819Y-52252380D02*
X136034819Y-52014285D01*
X136034819Y-52014285D02*
X135320533Y-51823809D01*
X135320533Y-51823809D02*
X136034819Y-51633333D01*
X136034819Y-51633333D02*
X135034819Y-51395238D01*
X136034819Y-50490476D02*
X136034819Y-51061904D01*
X136034819Y-50776190D02*
X135034819Y-50776190D01*
X135034819Y-50776190D02*
X135177676Y-50871428D01*
X135177676Y-50871428D02*
X135272914Y-50966666D01*
X135272914Y-50966666D02*
X135320533Y-51061904D01*
X136034819Y-49538095D02*
X136034819Y-50109523D01*
X136034819Y-49823809D02*
X135034819Y-49823809D01*
X135034819Y-49823809D02*
X135177676Y-49919047D01*
X135177676Y-49919047D02*
X135272914Y-50014285D01*
X135272914Y-50014285D02*
X135320533Y-50109523D01*
X136130057Y-49347619D02*
X136130057Y-48585714D01*
X135987200Y-48395237D02*
X136034819Y-48252380D01*
X136034819Y-48252380D02*
X136034819Y-48014285D01*
X136034819Y-48014285D02*
X135987200Y-47919047D01*
X135987200Y-47919047D02*
X135939580Y-47871428D01*
X135939580Y-47871428D02*
X135844342Y-47823809D01*
X135844342Y-47823809D02*
X135749104Y-47823809D01*
X135749104Y-47823809D02*
X135653866Y-47871428D01*
X135653866Y-47871428D02*
X135606247Y-47919047D01*
X135606247Y-47919047D02*
X135558628Y-48014285D01*
X135558628Y-48014285D02*
X135511009Y-48204761D01*
X135511009Y-48204761D02*
X135463390Y-48299999D01*
X135463390Y-48299999D02*
X135415771Y-48347618D01*
X135415771Y-48347618D02*
X135320533Y-48395237D01*
X135320533Y-48395237D02*
X135225295Y-48395237D01*
X135225295Y-48395237D02*
X135130057Y-48347618D01*
X135130057Y-48347618D02*
X135082438Y-48299999D01*
X135082438Y-48299999D02*
X135034819Y-48204761D01*
X135034819Y-48204761D02*
X135034819Y-47966666D01*
X135034819Y-47966666D02*
X135082438Y-47823809D01*
X135034819Y-47538094D02*
X135034819Y-46966666D01*
X136034819Y-47252380D02*
X135034819Y-47252380D01*
X135749104Y-46680951D02*
X135749104Y-46204761D01*
X136034819Y-46776189D02*
X135034819Y-46442856D01*
X135034819Y-46442856D02*
X136034819Y-46109523D01*
X136034819Y-45204761D02*
X135558628Y-45538094D01*
X136034819Y-45776189D02*
X135034819Y-45776189D01*
X135034819Y-45776189D02*
X135034819Y-45395237D01*
X135034819Y-45395237D02*
X135082438Y-45299999D01*
X135082438Y-45299999D02*
X135130057Y-45252380D01*
X135130057Y-45252380D02*
X135225295Y-45204761D01*
X135225295Y-45204761D02*
X135368152Y-45204761D01*
X135368152Y-45204761D02*
X135463390Y-45252380D01*
X135463390Y-45252380D02*
X135511009Y-45299999D01*
X135511009Y-45299999D02*
X135558628Y-45395237D01*
X135558628Y-45395237D02*
X135558628Y-45776189D01*
X135034819Y-44919046D02*
X135034819Y-44347618D01*
X136034819Y-44633332D02*
X135034819Y-44633332D01*
X168745848Y-96207200D02*
X168888705Y-96254819D01*
X168888705Y-96254819D02*
X169126800Y-96254819D01*
X169126800Y-96254819D02*
X169222038Y-96207200D01*
X169222038Y-96207200D02*
X169269657Y-96159580D01*
X169269657Y-96159580D02*
X169317276Y-96064342D01*
X169317276Y-96064342D02*
X169317276Y-95969104D01*
X169317276Y-95969104D02*
X169269657Y-95873866D01*
X169269657Y-95873866D02*
X169222038Y-95826247D01*
X169222038Y-95826247D02*
X169126800Y-95778628D01*
X169126800Y-95778628D02*
X168936324Y-95731009D01*
X168936324Y-95731009D02*
X168841086Y-95683390D01*
X168841086Y-95683390D02*
X168793467Y-95635771D01*
X168793467Y-95635771D02*
X168745848Y-95540533D01*
X168745848Y-95540533D02*
X168745848Y-95445295D01*
X168745848Y-95445295D02*
X168793467Y-95350057D01*
X168793467Y-95350057D02*
X168841086Y-95302438D01*
X168841086Y-95302438D02*
X168936324Y-95254819D01*
X168936324Y-95254819D02*
X169174419Y-95254819D01*
X169174419Y-95254819D02*
X169317276Y-95302438D01*
X169650610Y-95254819D02*
X169888705Y-96254819D01*
X169888705Y-96254819D02*
X170079181Y-95540533D01*
X170079181Y-95540533D02*
X170269657Y-96254819D01*
X170269657Y-96254819D02*
X170507753Y-95254819D01*
X170936324Y-96254819D02*
X171126800Y-96254819D01*
X171126800Y-96254819D02*
X171222038Y-96207200D01*
X171222038Y-96207200D02*
X171269657Y-96159580D01*
X171269657Y-96159580D02*
X171364895Y-96016723D01*
X171364895Y-96016723D02*
X171412514Y-95826247D01*
X171412514Y-95826247D02*
X171412514Y-95445295D01*
X171412514Y-95445295D02*
X171364895Y-95350057D01*
X171364895Y-95350057D02*
X171317276Y-95302438D01*
X171317276Y-95302438D02*
X171222038Y-95254819D01*
X171222038Y-95254819D02*
X171031562Y-95254819D01*
X171031562Y-95254819D02*
X170936324Y-95302438D01*
X170936324Y-95302438D02*
X170888705Y-95350057D01*
X170888705Y-95350057D02*
X170841086Y-95445295D01*
X170841086Y-95445295D02*
X170841086Y-95683390D01*
X170841086Y-95683390D02*
X170888705Y-95778628D01*
X170888705Y-95778628D02*
X170936324Y-95826247D01*
X170936324Y-95826247D02*
X171031562Y-95873866D01*
X171031562Y-95873866D02*
X171222038Y-95873866D01*
X171222038Y-95873866D02*
X171317276Y-95826247D01*
X171317276Y-95826247D02*
X171364895Y-95778628D01*
X171364895Y-95778628D02*
X171412514Y-95683390D01*
X171602991Y-96350057D02*
X172364895Y-96350057D01*
X172602991Y-96254819D02*
X172602991Y-95254819D01*
X172602991Y-95731009D02*
X173174419Y-95731009D01*
X173174419Y-96254819D02*
X173174419Y-95254819D01*
X173650610Y-96254819D02*
X173650610Y-95254819D01*
X174222038Y-96254819D02*
X173793467Y-95683390D01*
X174222038Y-95254819D02*
X173650610Y-95826247D01*
X189311905Y-67754819D02*
X189311905Y-66754819D01*
X189311905Y-67231009D02*
X189883333Y-67231009D01*
X189883333Y-67754819D02*
X189883333Y-66754819D01*
X190883333Y-67754819D02*
X190311905Y-67754819D01*
X190597619Y-67754819D02*
X190597619Y-66754819D01*
X190597619Y-66754819D02*
X190502381Y-66897676D01*
X190502381Y-66897676D02*
X190407143Y-66992914D01*
X190407143Y-66992914D02*
X190311905Y-67040533D01*
X191502381Y-66754819D02*
X191597619Y-66754819D01*
X191597619Y-66754819D02*
X191692857Y-66802438D01*
X191692857Y-66802438D02*
X191740476Y-66850057D01*
X191740476Y-66850057D02*
X191788095Y-66945295D01*
X191788095Y-66945295D02*
X191835714Y-67135771D01*
X191835714Y-67135771D02*
X191835714Y-67373866D01*
X191835714Y-67373866D02*
X191788095Y-67564342D01*
X191788095Y-67564342D02*
X191740476Y-67659580D01*
X191740476Y-67659580D02*
X191692857Y-67707200D01*
X191692857Y-67707200D02*
X191597619Y-67754819D01*
X191597619Y-67754819D02*
X191502381Y-67754819D01*
X191502381Y-67754819D02*
X191407143Y-67707200D01*
X191407143Y-67707200D02*
X191359524Y-67659580D01*
X191359524Y-67659580D02*
X191311905Y-67564342D01*
X191311905Y-67564342D02*
X191264286Y-67373866D01*
X191264286Y-67373866D02*
X191264286Y-67135771D01*
X191264286Y-67135771D02*
X191311905Y-66945295D01*
X191311905Y-66945295D02*
X191359524Y-66850057D01*
X191359524Y-66850057D02*
X191407143Y-66802438D01*
X191407143Y-66802438D02*
X191502381Y-66754819D01*
X139698229Y-67207200D02*
X139841086Y-67254819D01*
X139841086Y-67254819D02*
X140079181Y-67254819D01*
X140079181Y-67254819D02*
X140174419Y-67207200D01*
X140174419Y-67207200D02*
X140222038Y-67159580D01*
X140222038Y-67159580D02*
X140269657Y-67064342D01*
X140269657Y-67064342D02*
X140269657Y-66969104D01*
X140269657Y-66969104D02*
X140222038Y-66873866D01*
X140222038Y-66873866D02*
X140174419Y-66826247D01*
X140174419Y-66826247D02*
X140079181Y-66778628D01*
X140079181Y-66778628D02*
X139888705Y-66731009D01*
X139888705Y-66731009D02*
X139793467Y-66683390D01*
X139793467Y-66683390D02*
X139745848Y-66635771D01*
X139745848Y-66635771D02*
X139698229Y-66540533D01*
X139698229Y-66540533D02*
X139698229Y-66445295D01*
X139698229Y-66445295D02*
X139745848Y-66350057D01*
X139745848Y-66350057D02*
X139793467Y-66302438D01*
X139793467Y-66302438D02*
X139888705Y-66254819D01*
X139888705Y-66254819D02*
X140126800Y-66254819D01*
X140126800Y-66254819D02*
X140269657Y-66302438D01*
X140602991Y-66254819D02*
X140841086Y-67254819D01*
X140841086Y-67254819D02*
X141031562Y-66540533D01*
X141031562Y-66540533D02*
X141222038Y-67254819D01*
X141222038Y-67254819D02*
X141460134Y-66254819D01*
X142317276Y-66254819D02*
X141841086Y-66254819D01*
X141841086Y-66254819D02*
X141793467Y-66731009D01*
X141793467Y-66731009D02*
X141841086Y-66683390D01*
X141841086Y-66683390D02*
X141936324Y-66635771D01*
X141936324Y-66635771D02*
X142174419Y-66635771D01*
X142174419Y-66635771D02*
X142269657Y-66683390D01*
X142269657Y-66683390D02*
X142317276Y-66731009D01*
X142317276Y-66731009D02*
X142364895Y-66826247D01*
X142364895Y-66826247D02*
X142364895Y-67064342D01*
X142364895Y-67064342D02*
X142317276Y-67159580D01*
X142317276Y-67159580D02*
X142269657Y-67207200D01*
X142269657Y-67207200D02*
X142174419Y-67254819D01*
X142174419Y-67254819D02*
X141936324Y-67254819D01*
X141936324Y-67254819D02*
X141841086Y-67207200D01*
X141841086Y-67207200D02*
X141793467Y-67159580D01*
X142555372Y-67350057D02*
X143317276Y-67350057D01*
X143555372Y-67254819D02*
X143555372Y-66254819D01*
X143555372Y-66254819D02*
X143888705Y-66969104D01*
X143888705Y-66969104D02*
X144222038Y-66254819D01*
X144222038Y-66254819D02*
X144222038Y-67254819D01*
X144698229Y-67254819D02*
X144698229Y-66254819D01*
X144698229Y-66254819D02*
X145079181Y-66254819D01*
X145079181Y-66254819D02*
X145174419Y-66302438D01*
X145174419Y-66302438D02*
X145222038Y-66350057D01*
X145222038Y-66350057D02*
X145269657Y-66445295D01*
X145269657Y-66445295D02*
X145269657Y-66588152D01*
X145269657Y-66588152D02*
X145222038Y-66683390D01*
X145222038Y-66683390D02*
X145174419Y-66731009D01*
X145174419Y-66731009D02*
X145079181Y-66778628D01*
X145079181Y-66778628D02*
X144698229Y-66778628D01*
X191311904Y-132485180D02*
X191311904Y-133485180D01*
X191311904Y-133008990D02*
X190740476Y-133008990D01*
X190740476Y-132485180D02*
X190740476Y-133485180D01*
X189835714Y-133485180D02*
X190026190Y-133485180D01*
X190026190Y-133485180D02*
X190121428Y-133437561D01*
X190121428Y-133437561D02*
X190169047Y-133389942D01*
X190169047Y-133389942D02*
X190264285Y-133247085D01*
X190264285Y-133247085D02*
X190311904Y-133056609D01*
X190311904Y-133056609D02*
X190311904Y-132675657D01*
X190311904Y-132675657D02*
X190264285Y-132580419D01*
X190264285Y-132580419D02*
X190216666Y-132532800D01*
X190216666Y-132532800D02*
X190121428Y-132485180D01*
X190121428Y-132485180D02*
X189930952Y-132485180D01*
X189930952Y-132485180D02*
X189835714Y-132532800D01*
X189835714Y-132532800D02*
X189788095Y-132580419D01*
X189788095Y-132580419D02*
X189740476Y-132675657D01*
X189740476Y-132675657D02*
X189740476Y-132913752D01*
X189740476Y-132913752D02*
X189788095Y-133008990D01*
X189788095Y-133008990D02*
X189835714Y-133056609D01*
X189835714Y-133056609D02*
X189930952Y-133104228D01*
X189930952Y-133104228D02*
X190121428Y-133104228D01*
X190121428Y-133104228D02*
X190216666Y-133056609D01*
X190216666Y-133056609D02*
X190264285Y-133008990D01*
X190264285Y-133008990D02*
X190311904Y-132913752D01*
X168745848Y-67207200D02*
X168888705Y-67254819D01*
X168888705Y-67254819D02*
X169126800Y-67254819D01*
X169126800Y-67254819D02*
X169222038Y-67207200D01*
X169222038Y-67207200D02*
X169269657Y-67159580D01*
X169269657Y-67159580D02*
X169317276Y-67064342D01*
X169317276Y-67064342D02*
X169317276Y-66969104D01*
X169317276Y-66969104D02*
X169269657Y-66873866D01*
X169269657Y-66873866D02*
X169222038Y-66826247D01*
X169222038Y-66826247D02*
X169126800Y-66778628D01*
X169126800Y-66778628D02*
X168936324Y-66731009D01*
X168936324Y-66731009D02*
X168841086Y-66683390D01*
X168841086Y-66683390D02*
X168793467Y-66635771D01*
X168793467Y-66635771D02*
X168745848Y-66540533D01*
X168745848Y-66540533D02*
X168745848Y-66445295D01*
X168745848Y-66445295D02*
X168793467Y-66350057D01*
X168793467Y-66350057D02*
X168841086Y-66302438D01*
X168841086Y-66302438D02*
X168936324Y-66254819D01*
X168936324Y-66254819D02*
X169174419Y-66254819D01*
X169174419Y-66254819D02*
X169317276Y-66302438D01*
X169650610Y-66254819D02*
X169888705Y-67254819D01*
X169888705Y-67254819D02*
X170079181Y-66540533D01*
X170079181Y-66540533D02*
X170269657Y-67254819D01*
X170269657Y-67254819D02*
X170507753Y-66254819D01*
X170793467Y-66254819D02*
X171460133Y-66254819D01*
X171460133Y-66254819D02*
X171031562Y-67254819D01*
X171602991Y-67350057D02*
X172364895Y-67350057D01*
X172602991Y-67254819D02*
X172602991Y-66254819D01*
X172602991Y-66731009D02*
X173174419Y-66731009D01*
X173174419Y-67254819D02*
X173174419Y-66254819D01*
X173650610Y-67254819D02*
X173650610Y-66254819D01*
X173650610Y-66254819D02*
X174031562Y-66254819D01*
X174031562Y-66254819D02*
X174126800Y-66302438D01*
X174126800Y-66302438D02*
X174174419Y-66350057D01*
X174174419Y-66350057D02*
X174222038Y-66445295D01*
X174222038Y-66445295D02*
X174222038Y-66588152D01*
X174222038Y-66588152D02*
X174174419Y-66683390D01*
X174174419Y-66683390D02*
X174126800Y-66731009D01*
X174126800Y-66731009D02*
X174031562Y-66778628D01*
X174031562Y-66778628D02*
X173650610Y-66778628D01*
X151474819Y-123449523D02*
X152189104Y-123449523D01*
X152189104Y-123449523D02*
X152331961Y-123497142D01*
X152331961Y-123497142D02*
X152427200Y-123592380D01*
X152427200Y-123592380D02*
X152474819Y-123735237D01*
X152474819Y-123735237D02*
X152474819Y-123830475D01*
X152474819Y-122973332D02*
X151474819Y-122973332D01*
X151474819Y-122973332D02*
X151474819Y-122592380D01*
X151474819Y-122592380D02*
X151522438Y-122497142D01*
X151522438Y-122497142D02*
X151570057Y-122449523D01*
X151570057Y-122449523D02*
X151665295Y-122401904D01*
X151665295Y-122401904D02*
X151808152Y-122401904D01*
X151808152Y-122401904D02*
X151903390Y-122449523D01*
X151903390Y-122449523D02*
X151951009Y-122497142D01*
X151951009Y-122497142D02*
X151998628Y-122592380D01*
X151998628Y-122592380D02*
X151998628Y-122973332D01*
X151570057Y-122020951D02*
X151522438Y-121973332D01*
X151522438Y-121973332D02*
X151474819Y-121878094D01*
X151474819Y-121878094D02*
X151474819Y-121639999D01*
X151474819Y-121639999D02*
X151522438Y-121544761D01*
X151522438Y-121544761D02*
X151570057Y-121497142D01*
X151570057Y-121497142D02*
X151665295Y-121449523D01*
X151665295Y-121449523D02*
X151760533Y-121449523D01*
X151760533Y-121449523D02*
X151903390Y-121497142D01*
X151903390Y-121497142D02*
X152474819Y-122068570D01*
X152474819Y-122068570D02*
X152474819Y-121449523D01*
X151474819Y-121116189D02*
X151474819Y-120497142D01*
X151474819Y-120497142D02*
X151855771Y-120830475D01*
X151855771Y-120830475D02*
X151855771Y-120687618D01*
X151855771Y-120687618D02*
X151903390Y-120592380D01*
X151903390Y-120592380D02*
X151951009Y-120544761D01*
X151951009Y-120544761D02*
X152046247Y-120497142D01*
X152046247Y-120497142D02*
X152284342Y-120497142D01*
X152284342Y-120497142D02*
X152379580Y-120544761D01*
X152379580Y-120544761D02*
X152427200Y-120592380D01*
X152427200Y-120592380D02*
X152474819Y-120687618D01*
X152474819Y-120687618D02*
X152474819Y-120973332D01*
X152474819Y-120973332D02*
X152427200Y-121068570D01*
X152427200Y-121068570D02*
X152379580Y-121116189D01*
X188311905Y-100054819D02*
X188311905Y-99054819D01*
X188311905Y-99531009D02*
X188883333Y-99531009D01*
X188883333Y-100054819D02*
X188883333Y-99054819D01*
X189883333Y-100054819D02*
X189311905Y-100054819D01*
X189597619Y-100054819D02*
X189597619Y-99054819D01*
X189597619Y-99054819D02*
X189502381Y-99197676D01*
X189502381Y-99197676D02*
X189407143Y-99292914D01*
X189407143Y-99292914D02*
X189311905Y-99340533D01*
X190835714Y-100054819D02*
X190264286Y-100054819D01*
X190550000Y-100054819D02*
X190550000Y-99054819D01*
X190550000Y-99054819D02*
X190454762Y-99197676D01*
X190454762Y-99197676D02*
X190359524Y-99292914D01*
X190359524Y-99292914D02*
X190264286Y-99340533D01*
X159724819Y-123449523D02*
X160439104Y-123449523D01*
X160439104Y-123449523D02*
X160581961Y-123497142D01*
X160581961Y-123497142D02*
X160677200Y-123592380D01*
X160677200Y-123592380D02*
X160724819Y-123735237D01*
X160724819Y-123735237D02*
X160724819Y-123830475D01*
X160724819Y-122973332D02*
X159724819Y-122973332D01*
X159724819Y-122973332D02*
X159724819Y-122592380D01*
X159724819Y-122592380D02*
X159772438Y-122497142D01*
X159772438Y-122497142D02*
X159820057Y-122449523D01*
X159820057Y-122449523D02*
X159915295Y-122401904D01*
X159915295Y-122401904D02*
X160058152Y-122401904D01*
X160058152Y-122401904D02*
X160153390Y-122449523D01*
X160153390Y-122449523D02*
X160201009Y-122497142D01*
X160201009Y-122497142D02*
X160248628Y-122592380D01*
X160248628Y-122592380D02*
X160248628Y-122973332D01*
X159820057Y-122020951D02*
X159772438Y-121973332D01*
X159772438Y-121973332D02*
X159724819Y-121878094D01*
X159724819Y-121878094D02*
X159724819Y-121639999D01*
X159724819Y-121639999D02*
X159772438Y-121544761D01*
X159772438Y-121544761D02*
X159820057Y-121497142D01*
X159820057Y-121497142D02*
X159915295Y-121449523D01*
X159915295Y-121449523D02*
X160010533Y-121449523D01*
X160010533Y-121449523D02*
X160153390Y-121497142D01*
X160153390Y-121497142D02*
X160724819Y-122068570D01*
X160724819Y-122068570D02*
X160724819Y-121449523D01*
X159724819Y-120592380D02*
X159724819Y-120782856D01*
X159724819Y-120782856D02*
X159772438Y-120878094D01*
X159772438Y-120878094D02*
X159820057Y-120925713D01*
X159820057Y-120925713D02*
X159962914Y-121020951D01*
X159962914Y-121020951D02*
X160153390Y-121068570D01*
X160153390Y-121068570D02*
X160534342Y-121068570D01*
X160534342Y-121068570D02*
X160629580Y-121020951D01*
X160629580Y-121020951D02*
X160677200Y-120973332D01*
X160677200Y-120973332D02*
X160724819Y-120878094D01*
X160724819Y-120878094D02*
X160724819Y-120687618D01*
X160724819Y-120687618D02*
X160677200Y-120592380D01*
X160677200Y-120592380D02*
X160629580Y-120544761D01*
X160629580Y-120544761D02*
X160534342Y-120497142D01*
X160534342Y-120497142D02*
X160296247Y-120497142D01*
X160296247Y-120497142D02*
X160201009Y-120544761D01*
X160201009Y-120544761D02*
X160153390Y-120592380D01*
X160153390Y-120592380D02*
X160105771Y-120687618D01*
X160105771Y-120687618D02*
X160105771Y-120878094D01*
X160105771Y-120878094D02*
X160153390Y-120973332D01*
X160153390Y-120973332D02*
X160201009Y-121020951D01*
X160201009Y-121020951D02*
X160296247Y-121068570D01*
X180987200Y-54871428D02*
X181034819Y-54728571D01*
X181034819Y-54728571D02*
X181034819Y-54490476D01*
X181034819Y-54490476D02*
X180987200Y-54395238D01*
X180987200Y-54395238D02*
X180939580Y-54347619D01*
X180939580Y-54347619D02*
X180844342Y-54300000D01*
X180844342Y-54300000D02*
X180749104Y-54300000D01*
X180749104Y-54300000D02*
X180653866Y-54347619D01*
X180653866Y-54347619D02*
X180606247Y-54395238D01*
X180606247Y-54395238D02*
X180558628Y-54490476D01*
X180558628Y-54490476D02*
X180511009Y-54680952D01*
X180511009Y-54680952D02*
X180463390Y-54776190D01*
X180463390Y-54776190D02*
X180415771Y-54823809D01*
X180415771Y-54823809D02*
X180320533Y-54871428D01*
X180320533Y-54871428D02*
X180225295Y-54871428D01*
X180225295Y-54871428D02*
X180130057Y-54823809D01*
X180130057Y-54823809D02*
X180082438Y-54776190D01*
X180082438Y-54776190D02*
X180034819Y-54680952D01*
X180034819Y-54680952D02*
X180034819Y-54442857D01*
X180034819Y-54442857D02*
X180082438Y-54300000D01*
X180034819Y-53966666D02*
X181034819Y-53728571D01*
X181034819Y-53728571D02*
X180320533Y-53538095D01*
X180320533Y-53538095D02*
X181034819Y-53347619D01*
X181034819Y-53347619D02*
X180034819Y-53109524D01*
X181034819Y-52204762D02*
X181034819Y-52776190D01*
X181034819Y-52490476D02*
X180034819Y-52490476D01*
X180034819Y-52490476D02*
X180177676Y-52585714D01*
X180177676Y-52585714D02*
X180272914Y-52680952D01*
X180272914Y-52680952D02*
X180320533Y-52776190D01*
X180034819Y-51300000D02*
X180034819Y-51776190D01*
X180034819Y-51776190D02*
X180511009Y-51823809D01*
X180511009Y-51823809D02*
X180463390Y-51776190D01*
X180463390Y-51776190D02*
X180415771Y-51680952D01*
X180415771Y-51680952D02*
X180415771Y-51442857D01*
X180415771Y-51442857D02*
X180463390Y-51347619D01*
X180463390Y-51347619D02*
X180511009Y-51300000D01*
X180511009Y-51300000D02*
X180606247Y-51252381D01*
X180606247Y-51252381D02*
X180844342Y-51252381D01*
X180844342Y-51252381D02*
X180939580Y-51300000D01*
X180939580Y-51300000D02*
X180987200Y-51347619D01*
X180987200Y-51347619D02*
X181034819Y-51442857D01*
X181034819Y-51442857D02*
X181034819Y-51680952D01*
X181034819Y-51680952D02*
X180987200Y-51776190D01*
X180987200Y-51776190D02*
X180939580Y-51823809D01*
X181130057Y-51061905D02*
X181130057Y-50300000D01*
X180034819Y-50204761D02*
X180034819Y-49633333D01*
X181034819Y-49919047D02*
X180034819Y-49919047D01*
X180034819Y-49109523D02*
X180034819Y-48919047D01*
X180034819Y-48919047D02*
X180082438Y-48823809D01*
X180082438Y-48823809D02*
X180177676Y-48728571D01*
X180177676Y-48728571D02*
X180368152Y-48680952D01*
X180368152Y-48680952D02*
X180701485Y-48680952D01*
X180701485Y-48680952D02*
X180891961Y-48728571D01*
X180891961Y-48728571D02*
X180987200Y-48823809D01*
X180987200Y-48823809D02*
X181034819Y-48919047D01*
X181034819Y-48919047D02*
X181034819Y-49109523D01*
X181034819Y-49109523D02*
X180987200Y-49204761D01*
X180987200Y-49204761D02*
X180891961Y-49299999D01*
X180891961Y-49299999D02*
X180701485Y-49347618D01*
X180701485Y-49347618D02*
X180368152Y-49347618D01*
X180368152Y-49347618D02*
X180177676Y-49299999D01*
X180177676Y-49299999D02*
X180082438Y-49204761D01*
X180082438Y-49204761D02*
X180034819Y-49109523D01*
X180034819Y-48252380D02*
X180844342Y-48252380D01*
X180844342Y-48252380D02*
X180939580Y-48204761D01*
X180939580Y-48204761D02*
X180987200Y-48157142D01*
X180987200Y-48157142D02*
X181034819Y-48061904D01*
X181034819Y-48061904D02*
X181034819Y-47871428D01*
X181034819Y-47871428D02*
X180987200Y-47776190D01*
X180987200Y-47776190D02*
X180939580Y-47728571D01*
X180939580Y-47728571D02*
X180844342Y-47680952D01*
X180844342Y-47680952D02*
X180034819Y-47680952D01*
X180939580Y-46633333D02*
X180987200Y-46680952D01*
X180987200Y-46680952D02*
X181034819Y-46823809D01*
X181034819Y-46823809D02*
X181034819Y-46919047D01*
X181034819Y-46919047D02*
X180987200Y-47061904D01*
X180987200Y-47061904D02*
X180891961Y-47157142D01*
X180891961Y-47157142D02*
X180796723Y-47204761D01*
X180796723Y-47204761D02*
X180606247Y-47252380D01*
X180606247Y-47252380D02*
X180463390Y-47252380D01*
X180463390Y-47252380D02*
X180272914Y-47204761D01*
X180272914Y-47204761D02*
X180177676Y-47157142D01*
X180177676Y-47157142D02*
X180082438Y-47061904D01*
X180082438Y-47061904D02*
X180034819Y-46919047D01*
X180034819Y-46919047D02*
X180034819Y-46823809D01*
X180034819Y-46823809D02*
X180082438Y-46680952D01*
X180082438Y-46680952D02*
X180130057Y-46633333D01*
X181034819Y-46204761D02*
X180034819Y-46204761D01*
X180511009Y-46204761D02*
X180511009Y-45633333D01*
X181034819Y-45633333D02*
X180034819Y-45633333D01*
X181034819Y-45157142D02*
X180034819Y-45157142D01*
X180034819Y-45157142D02*
X180034819Y-44776190D01*
X180034819Y-44776190D02*
X180082438Y-44680952D01*
X180082438Y-44680952D02*
X180130057Y-44633333D01*
X180130057Y-44633333D02*
X180225295Y-44585714D01*
X180225295Y-44585714D02*
X180368152Y-44585714D01*
X180368152Y-44585714D02*
X180463390Y-44633333D01*
X180463390Y-44633333D02*
X180511009Y-44680952D01*
X180511009Y-44680952D02*
X180558628Y-44776190D01*
X180558628Y-44776190D02*
X180558628Y-45157142D01*
X180749104Y-44204761D02*
X180749104Y-43728571D01*
X181034819Y-44299999D02*
X180034819Y-43966666D01*
X180034819Y-43966666D02*
X181034819Y-43633333D01*
X181034819Y-43299999D02*
X180034819Y-43299999D01*
X180034819Y-43299999D02*
X180034819Y-43061904D01*
X180034819Y-43061904D02*
X180082438Y-42919047D01*
X180082438Y-42919047D02*
X180177676Y-42823809D01*
X180177676Y-42823809D02*
X180272914Y-42776190D01*
X180272914Y-42776190D02*
X180463390Y-42728571D01*
X180463390Y-42728571D02*
X180606247Y-42728571D01*
X180606247Y-42728571D02*
X180796723Y-42776190D01*
X180796723Y-42776190D02*
X180891961Y-42823809D01*
X180891961Y-42823809D02*
X180987200Y-42919047D01*
X180987200Y-42919047D02*
X181034819Y-43061904D01*
X181034819Y-43061904D02*
X181034819Y-43299999D01*
X145974819Y-123449523D02*
X146689104Y-123449523D01*
X146689104Y-123449523D02*
X146831961Y-123497142D01*
X146831961Y-123497142D02*
X146927200Y-123592380D01*
X146927200Y-123592380D02*
X146974819Y-123735237D01*
X146974819Y-123735237D02*
X146974819Y-123830475D01*
X146974819Y-122973332D02*
X145974819Y-122973332D01*
X145974819Y-122973332D02*
X145974819Y-122592380D01*
X145974819Y-122592380D02*
X146022438Y-122497142D01*
X146022438Y-122497142D02*
X146070057Y-122449523D01*
X146070057Y-122449523D02*
X146165295Y-122401904D01*
X146165295Y-122401904D02*
X146308152Y-122401904D01*
X146308152Y-122401904D02*
X146403390Y-122449523D01*
X146403390Y-122449523D02*
X146451009Y-122497142D01*
X146451009Y-122497142D02*
X146498628Y-122592380D01*
X146498628Y-122592380D02*
X146498628Y-122973332D01*
X146070057Y-122020951D02*
X146022438Y-121973332D01*
X146022438Y-121973332D02*
X145974819Y-121878094D01*
X145974819Y-121878094D02*
X145974819Y-121639999D01*
X145974819Y-121639999D02*
X146022438Y-121544761D01*
X146022438Y-121544761D02*
X146070057Y-121497142D01*
X146070057Y-121497142D02*
X146165295Y-121449523D01*
X146165295Y-121449523D02*
X146260533Y-121449523D01*
X146260533Y-121449523D02*
X146403390Y-121497142D01*
X146403390Y-121497142D02*
X146974819Y-122068570D01*
X146974819Y-122068570D02*
X146974819Y-121449523D01*
X146974819Y-120497142D02*
X146974819Y-121068570D01*
X146974819Y-120782856D02*
X145974819Y-120782856D01*
X145974819Y-120782856D02*
X146117676Y-120878094D01*
X146117676Y-120878094D02*
X146212914Y-120973332D01*
X146212914Y-120973332D02*
X146260533Y-121068570D01*
X171311324Y-133214569D02*
X171358943Y-133071712D01*
X171358943Y-133071712D02*
X171358943Y-132833617D01*
X171358943Y-132833617D02*
X171311324Y-132738379D01*
X171311324Y-132738379D02*
X171263704Y-132690760D01*
X171263704Y-132690760D02*
X171168466Y-132643141D01*
X171168466Y-132643141D02*
X171073228Y-132643141D01*
X171073228Y-132643141D02*
X170977990Y-132690760D01*
X170977990Y-132690760D02*
X170930371Y-132738379D01*
X170930371Y-132738379D02*
X170882752Y-132833617D01*
X170882752Y-132833617D02*
X170835133Y-133024093D01*
X170835133Y-133024093D02*
X170787514Y-133119331D01*
X170787514Y-133119331D02*
X170739895Y-133166950D01*
X170739895Y-133166950D02*
X170644657Y-133214569D01*
X170644657Y-133214569D02*
X170549419Y-133214569D01*
X170549419Y-133214569D02*
X170454181Y-133166950D01*
X170454181Y-133166950D02*
X170406562Y-133119331D01*
X170406562Y-133119331D02*
X170358943Y-133024093D01*
X170358943Y-133024093D02*
X170358943Y-132785998D01*
X170358943Y-132785998D02*
X170406562Y-132643141D01*
X170358943Y-132309807D02*
X171358943Y-132071712D01*
X171358943Y-132071712D02*
X170644657Y-131881236D01*
X170644657Y-131881236D02*
X171358943Y-131690760D01*
X171358943Y-131690760D02*
X170358943Y-131452665D01*
X171358943Y-130547903D02*
X171358943Y-131119331D01*
X171358943Y-130833617D02*
X170358943Y-130833617D01*
X170358943Y-130833617D02*
X170501800Y-130928855D01*
X170501800Y-130928855D02*
X170597038Y-131024093D01*
X170597038Y-131024093D02*
X170644657Y-131119331D01*
X170454181Y-130166950D02*
X170406562Y-130119331D01*
X170406562Y-130119331D02*
X170358943Y-130024093D01*
X170358943Y-130024093D02*
X170358943Y-129785998D01*
X170358943Y-129785998D02*
X170406562Y-129690760D01*
X170406562Y-129690760D02*
X170454181Y-129643141D01*
X170454181Y-129643141D02*
X170549419Y-129595522D01*
X170549419Y-129595522D02*
X170644657Y-129595522D01*
X170644657Y-129595522D02*
X170787514Y-129643141D01*
X170787514Y-129643141D02*
X171358943Y-130214569D01*
X171358943Y-130214569D02*
X171358943Y-129595522D01*
X171454181Y-129405046D02*
X171454181Y-128643141D01*
X170358943Y-128547902D02*
X170358943Y-127976474D01*
X171358943Y-128262188D02*
X170358943Y-128262188D01*
X171358943Y-127643140D02*
X170358943Y-127643140D01*
X170835133Y-127643140D02*
X170835133Y-127071712D01*
X171358943Y-127071712D02*
X170358943Y-127071712D01*
X171358943Y-126024093D02*
X170882752Y-126357426D01*
X171358943Y-126595521D02*
X170358943Y-126595521D01*
X170358943Y-126595521D02*
X170358943Y-126214569D01*
X170358943Y-126214569D02*
X170406562Y-126119331D01*
X170406562Y-126119331D02*
X170454181Y-126071712D01*
X170454181Y-126071712D02*
X170549419Y-126024093D01*
X170549419Y-126024093D02*
X170692276Y-126024093D01*
X170692276Y-126024093D02*
X170787514Y-126071712D01*
X170787514Y-126071712D02*
X170835133Y-126119331D01*
X170835133Y-126119331D02*
X170882752Y-126214569D01*
X170882752Y-126214569D02*
X170882752Y-126595521D01*
X170358943Y-125405045D02*
X170358943Y-125214569D01*
X170358943Y-125214569D02*
X170406562Y-125119331D01*
X170406562Y-125119331D02*
X170501800Y-125024093D01*
X170501800Y-125024093D02*
X170692276Y-124976474D01*
X170692276Y-124976474D02*
X171025609Y-124976474D01*
X171025609Y-124976474D02*
X171216085Y-125024093D01*
X171216085Y-125024093D02*
X171311324Y-125119331D01*
X171311324Y-125119331D02*
X171358943Y-125214569D01*
X171358943Y-125214569D02*
X171358943Y-125405045D01*
X171358943Y-125405045D02*
X171311324Y-125500283D01*
X171311324Y-125500283D02*
X171216085Y-125595521D01*
X171216085Y-125595521D02*
X171025609Y-125643140D01*
X171025609Y-125643140D02*
X170692276Y-125643140D01*
X170692276Y-125643140D02*
X170501800Y-125595521D01*
X170501800Y-125595521D02*
X170406562Y-125500283D01*
X170406562Y-125500283D02*
X170358943Y-125405045D01*
X170358943Y-124643140D02*
X171358943Y-124405045D01*
X171358943Y-124405045D02*
X170644657Y-124214569D01*
X170644657Y-124214569D02*
X171358943Y-124024093D01*
X171358943Y-124024093D02*
X170358943Y-123785998D01*
X115211876Y-52207761D02*
X115354733Y-52255380D01*
X115354733Y-52255380D02*
X115592828Y-52255380D01*
X115592828Y-52255380D02*
X115688066Y-52207761D01*
X115688066Y-52207761D02*
X115735685Y-52160141D01*
X115735685Y-52160141D02*
X115783304Y-52064903D01*
X115783304Y-52064903D02*
X115783304Y-51969665D01*
X115783304Y-51969665D02*
X115735685Y-51874427D01*
X115735685Y-51874427D02*
X115688066Y-51826808D01*
X115688066Y-51826808D02*
X115592828Y-51779189D01*
X115592828Y-51779189D02*
X115402352Y-51731570D01*
X115402352Y-51731570D02*
X115307114Y-51683951D01*
X115307114Y-51683951D02*
X115259495Y-51636332D01*
X115259495Y-51636332D02*
X115211876Y-51541094D01*
X115211876Y-51541094D02*
X115211876Y-51445856D01*
X115211876Y-51445856D02*
X115259495Y-51350618D01*
X115259495Y-51350618D02*
X115307114Y-51302999D01*
X115307114Y-51302999D02*
X115402352Y-51255380D01*
X115402352Y-51255380D02*
X115640447Y-51255380D01*
X115640447Y-51255380D02*
X115783304Y-51302999D01*
X116116638Y-51255380D02*
X116354733Y-52255380D01*
X116354733Y-52255380D02*
X116545209Y-51541094D01*
X116545209Y-51541094D02*
X116735685Y-52255380D01*
X116735685Y-52255380D02*
X116973781Y-51255380D01*
X117783304Y-51255380D02*
X117592828Y-51255380D01*
X117592828Y-51255380D02*
X117497590Y-51302999D01*
X117497590Y-51302999D02*
X117449971Y-51350618D01*
X117449971Y-51350618D02*
X117354733Y-51493475D01*
X117354733Y-51493475D02*
X117307114Y-51683951D01*
X117307114Y-51683951D02*
X117307114Y-52064903D01*
X117307114Y-52064903D02*
X117354733Y-52160141D01*
X117354733Y-52160141D02*
X117402352Y-52207761D01*
X117402352Y-52207761D02*
X117497590Y-52255380D01*
X117497590Y-52255380D02*
X117688066Y-52255380D01*
X117688066Y-52255380D02*
X117783304Y-52207761D01*
X117783304Y-52207761D02*
X117830923Y-52160141D01*
X117830923Y-52160141D02*
X117878542Y-52064903D01*
X117878542Y-52064903D02*
X117878542Y-51826808D01*
X117878542Y-51826808D02*
X117830923Y-51731570D01*
X117830923Y-51731570D02*
X117783304Y-51683951D01*
X117783304Y-51683951D02*
X117688066Y-51636332D01*
X117688066Y-51636332D02*
X117497590Y-51636332D01*
X117497590Y-51636332D02*
X117402352Y-51683951D01*
X117402352Y-51683951D02*
X117354733Y-51731570D01*
X117354733Y-51731570D02*
X117307114Y-51826808D01*
X118069019Y-52350618D02*
X118830923Y-52350618D01*
X119069019Y-52255380D02*
X119069019Y-51255380D01*
X119069019Y-51255380D02*
X119307114Y-51255380D01*
X119307114Y-51255380D02*
X119449971Y-51302999D01*
X119449971Y-51302999D02*
X119545209Y-51398237D01*
X119545209Y-51398237D02*
X119592828Y-51493475D01*
X119592828Y-51493475D02*
X119640447Y-51683951D01*
X119640447Y-51683951D02*
X119640447Y-51826808D01*
X119640447Y-51826808D02*
X119592828Y-52017284D01*
X119592828Y-52017284D02*
X119545209Y-52112522D01*
X119545209Y-52112522D02*
X119449971Y-52207761D01*
X119449971Y-52207761D02*
X119307114Y-52255380D01*
X119307114Y-52255380D02*
X119069019Y-52255380D01*
X120069019Y-52255380D02*
X120069019Y-51255380D01*
X150987200Y-53371428D02*
X151034819Y-53228571D01*
X151034819Y-53228571D02*
X151034819Y-52990476D01*
X151034819Y-52990476D02*
X150987200Y-52895238D01*
X150987200Y-52895238D02*
X150939580Y-52847619D01*
X150939580Y-52847619D02*
X150844342Y-52800000D01*
X150844342Y-52800000D02*
X150749104Y-52800000D01*
X150749104Y-52800000D02*
X150653866Y-52847619D01*
X150653866Y-52847619D02*
X150606247Y-52895238D01*
X150606247Y-52895238D02*
X150558628Y-52990476D01*
X150558628Y-52990476D02*
X150511009Y-53180952D01*
X150511009Y-53180952D02*
X150463390Y-53276190D01*
X150463390Y-53276190D02*
X150415771Y-53323809D01*
X150415771Y-53323809D02*
X150320533Y-53371428D01*
X150320533Y-53371428D02*
X150225295Y-53371428D01*
X150225295Y-53371428D02*
X150130057Y-53323809D01*
X150130057Y-53323809D02*
X150082438Y-53276190D01*
X150082438Y-53276190D02*
X150034819Y-53180952D01*
X150034819Y-53180952D02*
X150034819Y-52942857D01*
X150034819Y-52942857D02*
X150082438Y-52800000D01*
X150034819Y-52466666D02*
X151034819Y-52228571D01*
X151034819Y-52228571D02*
X150320533Y-52038095D01*
X150320533Y-52038095D02*
X151034819Y-51847619D01*
X151034819Y-51847619D02*
X150034819Y-51609524D01*
X151034819Y-50704762D02*
X151034819Y-51276190D01*
X151034819Y-50990476D02*
X150034819Y-50990476D01*
X150034819Y-50990476D02*
X150177676Y-51085714D01*
X150177676Y-51085714D02*
X150272914Y-51180952D01*
X150272914Y-51180952D02*
X150320533Y-51276190D01*
X150034819Y-50085714D02*
X150034819Y-49990476D01*
X150034819Y-49990476D02*
X150082438Y-49895238D01*
X150082438Y-49895238D02*
X150130057Y-49847619D01*
X150130057Y-49847619D02*
X150225295Y-49800000D01*
X150225295Y-49800000D02*
X150415771Y-49752381D01*
X150415771Y-49752381D02*
X150653866Y-49752381D01*
X150653866Y-49752381D02*
X150844342Y-49800000D01*
X150844342Y-49800000D02*
X150939580Y-49847619D01*
X150939580Y-49847619D02*
X150987200Y-49895238D01*
X150987200Y-49895238D02*
X151034819Y-49990476D01*
X151034819Y-49990476D02*
X151034819Y-50085714D01*
X151034819Y-50085714D02*
X150987200Y-50180952D01*
X150987200Y-50180952D02*
X150939580Y-50228571D01*
X150939580Y-50228571D02*
X150844342Y-50276190D01*
X150844342Y-50276190D02*
X150653866Y-50323809D01*
X150653866Y-50323809D02*
X150415771Y-50323809D01*
X150415771Y-50323809D02*
X150225295Y-50276190D01*
X150225295Y-50276190D02*
X150130057Y-50228571D01*
X150130057Y-50228571D02*
X150082438Y-50180952D01*
X150082438Y-50180952D02*
X150034819Y-50085714D01*
X151130057Y-49561905D02*
X151130057Y-48800000D01*
X150987200Y-48609523D02*
X151034819Y-48466666D01*
X151034819Y-48466666D02*
X151034819Y-48228571D01*
X151034819Y-48228571D02*
X150987200Y-48133333D01*
X150987200Y-48133333D02*
X150939580Y-48085714D01*
X150939580Y-48085714D02*
X150844342Y-48038095D01*
X150844342Y-48038095D02*
X150749104Y-48038095D01*
X150749104Y-48038095D02*
X150653866Y-48085714D01*
X150653866Y-48085714D02*
X150606247Y-48133333D01*
X150606247Y-48133333D02*
X150558628Y-48228571D01*
X150558628Y-48228571D02*
X150511009Y-48419047D01*
X150511009Y-48419047D02*
X150463390Y-48514285D01*
X150463390Y-48514285D02*
X150415771Y-48561904D01*
X150415771Y-48561904D02*
X150320533Y-48609523D01*
X150320533Y-48609523D02*
X150225295Y-48609523D01*
X150225295Y-48609523D02*
X150130057Y-48561904D01*
X150130057Y-48561904D02*
X150082438Y-48514285D01*
X150082438Y-48514285D02*
X150034819Y-48419047D01*
X150034819Y-48419047D02*
X150034819Y-48180952D01*
X150034819Y-48180952D02*
X150082438Y-48038095D01*
X151034819Y-47609523D02*
X150034819Y-47609523D01*
X150511009Y-47609523D02*
X150511009Y-47038095D01*
X151034819Y-47038095D02*
X150034819Y-47038095D01*
X150749104Y-46609523D02*
X150749104Y-46133333D01*
X151034819Y-46704761D02*
X150034819Y-46371428D01*
X150034819Y-46371428D02*
X151034819Y-46038095D01*
X151034819Y-45133333D02*
X150558628Y-45466666D01*
X151034819Y-45704761D02*
X150034819Y-45704761D01*
X150034819Y-45704761D02*
X150034819Y-45323809D01*
X150034819Y-45323809D02*
X150082438Y-45228571D01*
X150082438Y-45228571D02*
X150130057Y-45180952D01*
X150130057Y-45180952D02*
X150225295Y-45133333D01*
X150225295Y-45133333D02*
X150368152Y-45133333D01*
X150368152Y-45133333D02*
X150463390Y-45180952D01*
X150463390Y-45180952D02*
X150511009Y-45228571D01*
X150511009Y-45228571D02*
X150558628Y-45323809D01*
X150558628Y-45323809D02*
X150558628Y-45704761D01*
X150511009Y-44704761D02*
X150511009Y-44371428D01*
X151034819Y-44228571D02*
X151034819Y-44704761D01*
X151034819Y-44704761D02*
X150034819Y-44704761D01*
X150034819Y-44704761D02*
X150034819Y-44228571D01*
D11*
%TO.C,mouse-bite-2mm-slot*%
X178500000Y-116750000D02*
G75*
G02*
X178500000Y-118750000I0J-1000000D01*
G01*
X182500000Y-118750000D02*
G75*
G02*
X182500000Y-116750000I0J1000000D01*
G01*
D12*
%TO.C,SW2_LK*%
X110383943Y-110700000D02*
X110383943Y-124900000D01*
X110383943Y-124900000D02*
X124583943Y-124900000D01*
X124583943Y-110700000D02*
X110383943Y-110700000D01*
X124583943Y-124900000D02*
X124583943Y-110700000D01*
%TO.C,JP22*%
X102600000Y-43550000D02*
X103200000Y-43550000D01*
X102600000Y-45550000D02*
X102600000Y-43550000D01*
X103200000Y-45550000D02*
X102600000Y-45550000D01*
X103900000Y-44250000D02*
X103900000Y-44850000D01*
X103200000Y-43550000D02*
G75*
G02*
X103900000Y-44250000I0J-700000D01*
G01*
X103900000Y-44850000D02*
G75*
G02*
X103200000Y-45550000I-700000J0D01*
G01*
%TO.C,JP19*%
X102600000Y-121800000D02*
X103200000Y-121800000D01*
X102600000Y-123800000D02*
X102600000Y-121800000D01*
X103200000Y-123800000D02*
X102600000Y-123800000D01*
X103900000Y-122500000D02*
X103900000Y-123100000D01*
X103200000Y-121800000D02*
G75*
G02*
X103900000Y-122500000I0J-700000D01*
G01*
X103900000Y-123100000D02*
G75*
G02*
X103200000Y-123800000I-700000J0D01*
G01*
%TO.C,JP25*%
X102600000Y-51800000D02*
X103200000Y-51800000D01*
X102600000Y-53800000D02*
X102600000Y-51800000D01*
X103200000Y-53800000D02*
X102600000Y-53800000D01*
X103900000Y-52500000D02*
X103900000Y-53100000D01*
X103200000Y-51800000D02*
G75*
G02*
X103900000Y-52500000I0J-700000D01*
G01*
X103900000Y-53100000D02*
G75*
G02*
X103200000Y-53800000I-700000J0D01*
G01*
D11*
%TO.C,JP24*%
X153800000Y-118590000D02*
X153800000Y-119190000D01*
D12*
X155100000Y-119890000D02*
X154500000Y-119890000D01*
D11*
X155800000Y-118590000D02*
X153800000Y-118590000D01*
X155800000Y-119190000D02*
X155800000Y-118590000D01*
D12*
X154500000Y-119890000D02*
G75*
G02*
X153800000Y-119190000I-1J699999D01*
G01*
X155800000Y-119190000D02*
G75*
G02*
X155100000Y-119890000I-699999J-1D01*
G01*
D11*
%TO.C,mouse-bite-2mm-slot*%
X168000000Y-116750000D02*
G75*
G02*
X168000000Y-118750000I0J-1000000D01*
G01*
X172000000Y-118750000D02*
G75*
G02*
X172000000Y-116750000I0J1000000D01*
G01*
D12*
%TO.C,JP27*%
X102600000Y-57300000D02*
X103200000Y-57300000D01*
X102600000Y-59300000D02*
X102600000Y-57300000D01*
X103200000Y-59300000D02*
X102600000Y-59300000D01*
X103900000Y-58000000D02*
X103900000Y-58600000D01*
X103200000Y-57300000D02*
G75*
G02*
X103900000Y-58000000I0J-700000D01*
G01*
X103900000Y-58600000D02*
G75*
G02*
X103200000Y-59300000I-700000J0D01*
G01*
%TO.C,JP23*%
X102600000Y-46300000D02*
X103200000Y-46300000D01*
X102600000Y-48300000D02*
X102600000Y-46300000D01*
X103200000Y-48300000D02*
X102600000Y-48300000D01*
X103900000Y-47000000D02*
X103900000Y-47600000D01*
X103200000Y-46300000D02*
G75*
G02*
X103900000Y-47000000I0J-700000D01*
G01*
X103900000Y-47600000D02*
G75*
G02*
X103200000Y-48300000I-700000J0D01*
G01*
D11*
%TO.C,JP27*%
X162050000Y-118590000D02*
X162050000Y-119190000D01*
D12*
X163350000Y-119890000D02*
X162750000Y-119890000D01*
D11*
X164050000Y-118590000D02*
X162050000Y-118590000D01*
X164050000Y-119190000D02*
X164050000Y-118590000D01*
D12*
X162750000Y-119890000D02*
G75*
G02*
X162050000Y-119190000I-1J699999D01*
G01*
X164050000Y-119190000D02*
G75*
G02*
X163350000Y-119890000I-699999J-1D01*
G01*
%TO.C,JP3*%
X148300000Y-139270000D02*
X148300000Y-138670000D01*
X149000000Y-137970000D02*
X149600000Y-137970000D01*
X150300000Y-138670000D02*
X150300000Y-139270000D01*
X150300000Y-139270000D02*
X148300000Y-139270000D01*
X148300000Y-138670000D02*
G75*
G02*
X149000000Y-137970000I700000J0D01*
G01*
X149600000Y-137970000D02*
G75*
G02*
X150300000Y-138670000I0J-700000D01*
G01*
%TO.C,JP4*%
X151050000Y-139270000D02*
X151050000Y-138670000D01*
X151750000Y-137970000D02*
X152350000Y-137970000D01*
X153050000Y-138670000D02*
X153050000Y-139270000D01*
X153050000Y-139270000D02*
X151050000Y-139270000D01*
X151050000Y-138670000D02*
G75*
G02*
X151750000Y-137970000I700000J0D01*
G01*
X152350000Y-137970000D02*
G75*
G02*
X153050000Y-138670000I0J-700000D01*
G01*
%TO.C,JP9*%
X167600000Y-139270000D02*
X167600000Y-138670000D01*
X168300000Y-137970000D02*
X168900000Y-137970000D01*
X169600000Y-138670000D02*
X169600000Y-139270000D01*
X169600000Y-139270000D02*
X167600000Y-139270000D01*
X167600000Y-138670000D02*
G75*
G02*
X168300000Y-137970000I700000J0D01*
G01*
X168900000Y-137970000D02*
G75*
G02*
X169600000Y-138670000I0J-700000D01*
G01*
D11*
%TO.C,JP22*%
X148300000Y-118590000D02*
X148300000Y-119190000D01*
D12*
X149600000Y-119890000D02*
X149000000Y-119890000D01*
D11*
X150300000Y-118590000D02*
X148300000Y-118590000D01*
X150300000Y-119190000D02*
X150300000Y-118590000D01*
D12*
X149000000Y-119890000D02*
G75*
G02*
X148300000Y-119190000I-1J699999D01*
G01*
X150300000Y-119190000D02*
G75*
G02*
X149600000Y-119890000I-699999J-1D01*
G01*
%TO.C,JP7*%
X159300000Y-139270000D02*
X159300000Y-138670000D01*
X160000000Y-137970000D02*
X160600000Y-137970000D01*
X161300000Y-138670000D02*
X161300000Y-139270000D01*
X161300000Y-139270000D02*
X159300000Y-139270000D01*
X159300000Y-138670000D02*
G75*
G02*
X160000000Y-137970000I700000J0D01*
G01*
X160600000Y-137970000D02*
G75*
G02*
X161300000Y-138670000I0J-700000D01*
G01*
D11*
%TO.C,JP25*%
X156550000Y-118590000D02*
X156550000Y-119190000D01*
D12*
X157850000Y-119890000D02*
X157250000Y-119890000D01*
D11*
X158550000Y-118590000D02*
X156550000Y-118590000D01*
X158550000Y-119190000D02*
X158550000Y-118590000D01*
D12*
X157250000Y-119890000D02*
G75*
G02*
X156550000Y-119190000I-1J699999D01*
G01*
X158550000Y-119190000D02*
G75*
G02*
X157850000Y-119890000I-699999J-1D01*
G01*
%TO.C,JP21*%
X102600000Y-40800000D02*
X103200000Y-40800000D01*
X102600000Y-42800000D02*
X102600000Y-40800000D01*
X103200000Y-42800000D02*
X102600000Y-42800000D01*
X103900000Y-41500000D02*
X103900000Y-42100000D01*
X103200000Y-40800000D02*
G75*
G02*
X103900000Y-41500000I0J-700000D01*
G01*
X103900000Y-42100000D02*
G75*
G02*
X103200000Y-42800000I-700000J0D01*
G01*
%TO.C,SW3_MK*%
X135383943Y-96700000D02*
X135383943Y-110900000D01*
X135383943Y-110900000D02*
X149583943Y-110900000D01*
X149583943Y-96700000D02*
X135383943Y-96700000D01*
X149583943Y-110900000D02*
X149583943Y-96700000D01*
%TO.C,JP15*%
X102600000Y-60050000D02*
X103200000Y-60050000D01*
X102600000Y-62050000D02*
X102600000Y-60050000D01*
X103200000Y-62050000D02*
X102600000Y-62050000D01*
X103900000Y-60750000D02*
X103900000Y-61350000D01*
X103200000Y-60050000D02*
G75*
G02*
X103900000Y-60750000I0J-700000D01*
G01*
X103900000Y-61350000D02*
G75*
G02*
X103200000Y-62050000I-700000J0D01*
G01*
%TO.C,JP2*%
X145550000Y-139270000D02*
X145550000Y-138670000D01*
X146250000Y-137970000D02*
X146850000Y-137970000D01*
X147550000Y-138670000D02*
X147550000Y-139270000D01*
X147550000Y-139270000D02*
X145550000Y-139270000D01*
X145550000Y-138670000D02*
G75*
G02*
X146250000Y-137970000I700000J0D01*
G01*
X146850000Y-137970000D02*
G75*
G02*
X147550000Y-138670000I0J-700000D01*
G01*
%TO.C,SW14_PS*%
X166470000Y-42690000D02*
X168980000Y-42690000D01*
X166470000Y-54910000D02*
X166470000Y-42690000D01*
X166470000Y-54910000D02*
X168980000Y-54910000D01*
X171280000Y-42690000D02*
X173880000Y-42690000D01*
X171280000Y-54910000D02*
X173880000Y-54910000D01*
X176180000Y-42690000D02*
X178690000Y-42690000D01*
X176180000Y-54910000D02*
X178690000Y-54910000D01*
X178690000Y-42690000D02*
X178690000Y-54910000D01*
%TO.C,JP20*%
X102600000Y-124800000D02*
X103200000Y-124800000D01*
X102600000Y-126800000D02*
X102600000Y-124800000D01*
X103200000Y-126800000D02*
X102600000Y-126800000D01*
X103900000Y-125500000D02*
X103900000Y-126100000D01*
X103200000Y-124800000D02*
G75*
G02*
X103900000Y-125500000I0J-700000D01*
G01*
X103900000Y-126100000D02*
G75*
G02*
X103200000Y-126800000I-700000J0D01*
G01*
D11*
%TO.C,mouse-bite-2mm-slot*%
X142750000Y-125000000D02*
G75*
G02*
X144750000Y-125000000I1000000J0D01*
G01*
X144750000Y-121000000D02*
G75*
G02*
X142750000Y-121000000I-1000000J0D01*
G01*
D12*
%TO.C,JP24*%
X102600000Y-49050000D02*
X103200000Y-49050000D01*
X102600000Y-51050000D02*
X102600000Y-49050000D01*
X103200000Y-51050000D02*
X102600000Y-51050000D01*
X103900000Y-49750000D02*
X103900000Y-50350000D01*
X103200000Y-49050000D02*
G75*
G02*
X103900000Y-49750000I0J-700000D01*
G01*
X103900000Y-50350000D02*
G75*
G02*
X103200000Y-51050000I-700000J0D01*
G01*
D11*
%TO.C,JP15*%
X164800000Y-118590000D02*
X164800000Y-119190000D01*
D12*
X166100000Y-119890000D02*
X165500000Y-119890000D01*
D11*
X166800000Y-118590000D02*
X164800000Y-118590000D01*
X166800000Y-119190000D02*
X166800000Y-118590000D01*
D12*
X165500000Y-119890000D02*
G75*
G02*
X164800000Y-119190000I-1J699999D01*
G01*
X166800000Y-119190000D02*
G75*
G02*
X166100000Y-119890000I-699999J-1D01*
G01*
%TO.C,JP26*%
X102600000Y-54550000D02*
X103200000Y-54550000D01*
X102600000Y-56550000D02*
X102600000Y-54550000D01*
X103200000Y-56550000D02*
X102600000Y-56550000D01*
X103900000Y-55250000D02*
X103900000Y-55850000D01*
X103200000Y-54550000D02*
G75*
G02*
X103900000Y-55250000I0J-700000D01*
G01*
X103900000Y-55850000D02*
G75*
G02*
X103200000Y-56550000I-700000J0D01*
G01*
%TO.C,SW4_LP*%
X110383943Y-81700000D02*
X110383943Y-95900000D01*
X110383943Y-95900000D02*
X124583943Y-95900000D01*
X124583943Y-81700000D02*
X110383943Y-81700000D01*
X124583943Y-95900000D02*
X124583943Y-81700000D01*
%TO.C,SW11_START*%
X136470000Y-42690000D02*
X138980000Y-42690000D01*
X136470000Y-54910000D02*
X136470000Y-42690000D01*
X136470000Y-54910000D02*
X138980000Y-54910000D01*
X141280000Y-42690000D02*
X143880000Y-42690000D01*
X141280000Y-54910000D02*
X143880000Y-54910000D01*
X146180000Y-42690000D02*
X148690000Y-42690000D01*
X146180000Y-54910000D02*
X148690000Y-54910000D01*
X148690000Y-42690000D02*
X148690000Y-54910000D01*
%TO.C,SW9_HK*%
X164383943Y-96700000D02*
X164383943Y-110900000D01*
X164383943Y-110900000D02*
X178583943Y-110900000D01*
X178583943Y-96700000D02*
X164383943Y-96700000D01*
X178583943Y-110900000D02*
X178583943Y-96700000D01*
%TO.C,JP5*%
X153800000Y-139270000D02*
X153800000Y-138670000D01*
X154500000Y-137970000D02*
X155100000Y-137970000D01*
X155800000Y-138670000D02*
X155800000Y-139270000D01*
X155800000Y-139270000D02*
X153800000Y-139270000D01*
X153800000Y-138670000D02*
G75*
G02*
X154500000Y-137970000I700000J0D01*
G01*
X155100000Y-137970000D02*
G75*
G02*
X155800000Y-138670000I0J-700000D01*
G01*
%TO.C,SW5_MP*%
X135383943Y-67700000D02*
X135383943Y-81900000D01*
X135383943Y-81900000D02*
X149583943Y-81900000D01*
X149583943Y-67700000D02*
X135383943Y-67700000D01*
X149583943Y-81900000D02*
X149583943Y-67700000D01*
%TO.C,JP8*%
X162050000Y-139270000D02*
X162050000Y-138670000D01*
X162750000Y-137970000D02*
X163350000Y-137970000D01*
X164050000Y-138670000D02*
X164050000Y-139270000D01*
X164050000Y-139270000D02*
X162050000Y-139270000D01*
X162050000Y-138670000D02*
G75*
G02*
X162750000Y-137970000I700000J0D01*
G01*
X163350000Y-137970000D02*
G75*
G02*
X164050000Y-138670000I0J-700000D01*
G01*
%TO.C,SW7_HP*%
X164383943Y-67700000D02*
X164383943Y-81900000D01*
X164383943Y-81900000D02*
X178583943Y-81900000D01*
X178583943Y-67700000D02*
X164383943Y-67700000D01*
X178583943Y-81900000D02*
X178583943Y-67700000D01*
%TO.C,JP6*%
X156550000Y-139270000D02*
X156550000Y-138670000D01*
X157250000Y-137970000D02*
X157850000Y-137970000D01*
X158550000Y-138670000D02*
X158550000Y-139270000D01*
X158550000Y-139270000D02*
X156550000Y-139270000D01*
X156550000Y-138670000D02*
G75*
G02*
X157250000Y-137970000I700000J0D01*
G01*
X157850000Y-137970000D02*
G75*
G02*
X158550000Y-138670000I0J-700000D01*
G01*
D11*
%TO.C,JP23*%
X151050000Y-118590000D02*
X151050000Y-119190000D01*
D12*
X152350000Y-119890000D02*
X151750000Y-119890000D01*
D11*
X153050000Y-118590000D02*
X151050000Y-118590000D01*
X153050000Y-119190000D02*
X153050000Y-118590000D01*
D12*
X151750000Y-119890000D02*
G75*
G02*
X151050000Y-119190000I-1J699999D01*
G01*
X153050000Y-119190000D02*
G75*
G02*
X152350000Y-119890000I-699999J-1D01*
G01*
%TO.C,JP18*%
X102600000Y-118800000D02*
X103200000Y-118800000D01*
X102600000Y-120800000D02*
X102600000Y-118800000D01*
X103200000Y-120800000D02*
X102600000Y-120800000D01*
X103900000Y-119500000D02*
X103900000Y-120100000D01*
X103200000Y-118800000D02*
G75*
G02*
X103900000Y-119500000I0J-700000D01*
G01*
X103900000Y-120100000D02*
G75*
G02*
X103200000Y-120800000I-700000J0D01*
G01*
%TO.C,JP17*%
X102600000Y-115800000D02*
X103200000Y-115800000D01*
X102600000Y-117800000D02*
X102600000Y-115800000D01*
X103200000Y-117800000D02*
X102600000Y-117800000D01*
X103900000Y-116500000D02*
X103900000Y-117100000D01*
X103200000Y-115800000D02*
G75*
G02*
X103900000Y-116500000I0J-700000D01*
G01*
X103900000Y-117100000D02*
G75*
G02*
X103200000Y-117800000I-700000J0D01*
G01*
D11*
%TO.C,mouse-bite-2mm-slot*%
X142750000Y-135250000D02*
G75*
G02*
X144750000Y-135250000I1000000J0D01*
G01*
X144750000Y-131250000D02*
G75*
G02*
X142750000Y-131250000I-1000000J0D01*
G01*
%TO.C,JP26*%
X159300000Y-118590000D02*
X159300000Y-119190000D01*
D12*
X160600000Y-119890000D02*
X160000000Y-119890000D01*
D11*
X161300000Y-118590000D02*
X159300000Y-118590000D01*
X161300000Y-119190000D02*
X161300000Y-118590000D01*
D12*
X160000000Y-119890000D02*
G75*
G02*
X159300000Y-119190000I-1J699999D01*
G01*
X161300000Y-119190000D02*
G75*
G02*
X160600000Y-119890000I-699999J-1D01*
G01*
%TO.C,SW15_TOUCHPAD*%
X181470000Y-42690000D02*
X183980000Y-42690000D01*
X181470000Y-54910000D02*
X181470000Y-42690000D01*
X181470000Y-54910000D02*
X183980000Y-54910000D01*
X186280000Y-42690000D02*
X188880000Y-42690000D01*
X186280000Y-54910000D02*
X188880000Y-54910000D01*
X191180000Y-42690000D02*
X193690000Y-42690000D01*
X191180000Y-54910000D02*
X193690000Y-54910000D01*
X193690000Y-42690000D02*
X193690000Y-54910000D01*
D11*
%TO.C,JP21*%
X145550000Y-118590000D02*
X145550000Y-119190000D01*
D12*
X146850000Y-119890000D02*
X146250000Y-119890000D01*
D11*
X147550000Y-118590000D02*
X145550000Y-118590000D01*
X147550000Y-119190000D02*
X147550000Y-118590000D01*
D12*
X146250000Y-119890000D02*
G75*
G02*
X145550000Y-119190000I-1J699999D01*
G01*
X147550000Y-119190000D02*
G75*
G02*
X146850000Y-119890000I-699999J-1D01*
G01*
%TO.C,SW12_THROW*%
X171804124Y-121424094D02*
X171804124Y-135624094D01*
X171804124Y-135624094D02*
X186004124Y-135624094D01*
X186004124Y-121424094D02*
X171804124Y-121424094D01*
X186004124Y-135624094D02*
X186004124Y-121424094D01*
%TO.C,SW6_DI*%
X110564257Y-52700561D02*
X110564257Y-66900561D01*
X110564257Y-66900561D02*
X124764257Y-66900561D01*
X124764257Y-52700561D02*
X110564257Y-52700561D01*
X124764257Y-66900561D02*
X124764257Y-52700561D01*
%TO.C,JP1*%
X164800000Y-139270000D02*
X164800000Y-138670000D01*
X165500000Y-137970000D02*
X166100000Y-137970000D01*
X166800000Y-138670000D02*
X166800000Y-139270000D01*
X166800000Y-139270000D02*
X164800000Y-139270000D01*
X164800000Y-138670000D02*
G75*
G02*
X165500000Y-137970000I700000J0D01*
G01*
X166100000Y-137970000D02*
G75*
G02*
X166800000Y-138670000I0J-700000D01*
G01*
%TO.C,SW10_SHARE*%
X151470000Y-42690000D02*
X153980000Y-42690000D01*
X151470000Y-54910000D02*
X151470000Y-42690000D01*
X151470000Y-54910000D02*
X153980000Y-54910000D01*
X156280000Y-42690000D02*
X158880000Y-42690000D01*
X156280000Y-54910000D02*
X158880000Y-54910000D01*
X161180000Y-42690000D02*
X163690000Y-42690000D01*
X161180000Y-54910000D02*
X163690000Y-54910000D01*
X163690000Y-42690000D02*
X163690000Y-54910000D01*
D11*
%TO.C,mouse-bite-2mm-slot*%
X189750000Y-116750000D02*
G75*
G02*
X189750000Y-118750000I0J-1000000D01*
G01*
X193750000Y-118750000D02*
G75*
G02*
X193750000Y-116750000I0J1000000D01*
G01*
%TD*%
M02*
