M48
; DRILL file {KiCad 8.0.4} date 2024-07-28T23:22:27-0700
; FORMAT={-:-/ absolute / inch / decimal}
; #@! TF.CreationDate,2024-07-28T23:22:27-07:00
; #@! TF.GenerationSoftware,Kicad,Pcbnew,8.0.4
; #@! TF.FileFunction,NonPlated,1,2,NPTH
FMAT,2
INCH
; #@! TA.AperFunction,NonPlated,NPTH,ComponentDrill
T1C0.0197
; #@! TA.AperFunction,NonPlated,NPTH,ComponentDrill
T2C0.0689
; #@! TA.AperFunction,NonPlated,NPTH,ComponentDrill
T3C0.1201
; #@! TA.AperFunction,NonPlated,NPTH,ComponentDrill
T4C0.1260
; #@! TA.AperFunction,NonPlated,NPTH,ComponentDrill
T5C0.1575
%
G90
G05
T1
X5.3563Y-4.6094
X5.3563Y-4.639
X5.3563Y-4.6685
X5.3563Y-5.013
X5.3563Y-5.0425
X5.3563Y-5.072
X5.4154Y-4.6094
X5.4154Y-4.639
X5.4154Y-4.6685
X5.4154Y-5.013
X5.4154Y-5.0425
X5.4154Y-5.072
X6.3898Y-4.4028
X6.3898Y-4.4618
X6.4193Y-4.4028
X6.4193Y-4.4618
X6.4488Y-4.4028
X6.4488Y-4.4618
X6.5591Y-5.2854
X6.5591Y-5.3445
X6.5886Y-5.2854
X6.5886Y-5.3445
X6.6181Y-5.2854
X6.6181Y-5.3445
X6.8031Y-4.4028
X6.8031Y-4.4618
X6.8327Y-4.4028
X6.8327Y-4.4618
X6.8622Y-4.4028
X6.8622Y-4.4618
X6.8937Y-5.2854
X6.8937Y-5.3445
X6.9232Y-5.2854
X6.9232Y-5.3445
X6.9528Y-5.2854
X6.9528Y-5.3445
X7.2382Y-5.2854
X7.2382Y-5.3445
X7.2461Y-4.4028
X7.2461Y-4.4618
X7.2677Y-5.2854
X7.2677Y-5.3445
X7.2756Y-4.4028
X7.2756Y-4.4618
X7.2972Y-5.2854
X7.2972Y-5.3445
X7.3051Y-4.4028
X7.3051Y-4.4618
X7.4114Y-4.6654
X7.4114Y-4.6949
X7.4114Y-4.7244
X7.4114Y-5.0197
X7.4114Y-5.0492
X7.4114Y-5.0787
X7.4705Y-4.6654
X7.4705Y-4.6949
X7.4705Y-4.7244
X7.4705Y-5.0197
X7.4705Y-5.0492
X7.4705Y-5.0787
T2
X4.4254Y-3.4961
X4.4254Y-4.6378
X4.4325Y-2.3544
X4.8254Y-3.4961
X4.8254Y-4.6378
X4.8325Y-2.3544
X5.2941Y-1.9244
X5.4096Y-2.9449
X5.4096Y-4.0866
X5.6941Y-1.9244
X5.8096Y-2.9449
X5.8096Y-4.0866
X5.9043Y-1.9244
X6.3043Y-1.9244
X6.5146Y-1.9244
X6.5513Y-2.9449
X6.5513Y-4.0866
X6.7698Y-4.6565
X6.7698Y-5.0565
X6.9146Y-1.9244
X6.9513Y-2.9449
X6.9513Y-4.0866
X7.1248Y-1.9244
X7.5248Y-1.9244
T3
X4.4754Y-3.3961
X4.4754Y-4.5378
X4.4825Y-2.2544
X4.7254Y-3.2961
X4.7254Y-4.4378
X4.7325Y-2.1544
X5.4596Y-2.8449
X5.4596Y-3.9866
X5.7096Y-2.7449
X5.7096Y-3.8866
X6.5698Y-4.7565
X6.6013Y-2.8449
X6.6013Y-3.9866
X6.6698Y-5.0065
X6.8513Y-2.7449
X6.8513Y-3.8866
T4
X4.2933Y-2.9252
X4.6476Y-5.2874
X5.6457Y-4.8728
X6.065Y-3.4173
X7.2283Y-4.8531
X7.4626Y-4.0866
X7.502Y-2.4724
T5
X4.6254Y-3.4961
X4.6254Y-4.6378
X4.6325Y-2.3544
X5.4941Y-1.9244
X5.6096Y-2.9449
X5.6096Y-4.0866
X6.1043Y-1.9244
X6.7146Y-1.9244
X6.7513Y-2.9449
X6.7513Y-4.0866
X6.7698Y-4.8565
X7.3248Y-1.9244
M30
