%TF.GenerationSoftware,KiCad,Pcbnew,8.0.4*%
%TF.CreationDate,2024-07-24T01:17:21-07:00*%
%TF.ProjectId,panel_2,70616e65-6c5f-4322-9e6b-696361645f70,rev?*%
%TF.SameCoordinates,Original*%
%TF.FileFunction,Drillmap*%
%TF.FilePolarity,Positive*%
%FSLAX45Y45*%
G04 Gerber Fmt 4.5, Leading zero omitted, Abs format (unit mm)*
G04 Created by KiCad (PCBNEW 8.0.4) date 2024-07-24 01:17:21*
%MOMM*%
%LPD*%
G01*
G04 APERTURE LIST*
%ADD10C,0.050000*%
%ADD11C,0.200000*%
%ADD12C,0.100000*%
%ADD13C,0.175000*%
%ADD14C,0.180000*%
%ADD15C,0.320000*%
%ADD16C,0.400000*%
G04 APERTURE END LIST*
D10*
X18250000Y-11858000D02*
G75*
G02*
X18250000Y-11692000I0J83000D01*
G01*
X14295000Y-13525000D02*
X14295000Y-13930000D01*
X14455000Y-12100000D02*
G75*
G02*
X14295000Y-12100000I-80000J0D01*
G01*
X16800000Y-11692000D02*
G75*
G02*
X16800000Y-11858000I0J-83000D01*
G01*
X16800000Y-11858000D02*
X14455000Y-11858000D01*
X14455000Y-13930000D02*
X14455000Y-13525000D01*
X14455000Y-12100000D02*
X14455000Y-11858000D01*
X19505000Y-13930000D02*
X14455000Y-13930000D01*
X10255000Y-13930000D02*
X14295000Y-13930000D01*
X17200000Y-11692000D02*
X17850000Y-11692000D01*
X19505000Y-11692000D02*
X19505000Y-3980000D01*
X19375000Y-11692000D02*
X19505000Y-11692000D01*
X14295000Y-12500000D02*
G75*
G02*
X14455000Y-12500000I80000J0D01*
G01*
X16800000Y-11692000D02*
X14295000Y-11692000D01*
X18250000Y-11692000D02*
X18975000Y-11692000D01*
X18975000Y-11858000D02*
X18250000Y-11858000D01*
X17850000Y-11692000D02*
G75*
G02*
X17850000Y-11858000I0J-83000D01*
G01*
X14295000Y-12100000D02*
X14295000Y-11692000D01*
X17200000Y-11858000D02*
G75*
G02*
X17200000Y-11692000I0J83000D01*
G01*
X19505000Y-3980000D02*
X10255000Y-3980000D01*
X14295000Y-13525000D02*
G75*
G02*
X14455000Y-13525000I80000J0D01*
G01*
X14295000Y-12500000D02*
X14295000Y-13125000D01*
X18975000Y-11692000D02*
G75*
G02*
X18975000Y-11858000I0J-83000D01*
G01*
X14455000Y-13125000D02*
X14455000Y-12500000D01*
X19375000Y-11858000D02*
G75*
G02*
X19375000Y-11692000I0J83000D01*
G01*
X10255000Y-3980000D02*
X10255000Y-13930000D01*
X19375000Y-11858000D02*
X19505000Y-11858000D01*
X14455000Y-13125000D02*
G75*
G02*
X14295000Y-13125000I-80000J0D01*
G01*
X19505000Y-11858000D02*
X19505000Y-13930000D01*
X17850000Y-11858000D02*
X17200000Y-11858000D01*
D11*
D12*
X14275000Y-12200000D02*
X14325000Y-12250000D01*
X14325000Y-12200000D02*
X14275000Y-12250000D01*
X14275000Y-12275000D02*
X14325000Y-12325000D01*
X14325000Y-12275000D02*
X14275000Y-12325000D01*
X14275000Y-12350000D02*
X14325000Y-12400000D01*
X14325000Y-12350000D02*
X14275000Y-12400000D01*
X14275000Y-13225000D02*
X14325000Y-13275000D01*
X14325000Y-13225000D02*
X14275000Y-13275000D01*
X14275000Y-13300000D02*
X14325000Y-13350000D01*
X14325000Y-13300000D02*
X14275000Y-13350000D01*
X14275000Y-13375000D02*
X14325000Y-13425000D01*
X14325000Y-13375000D02*
X14275000Y-13425000D01*
X14425000Y-12200000D02*
X14475000Y-12250000D01*
X14475000Y-12200000D02*
X14425000Y-12250000D01*
X14425000Y-12275000D02*
X14475000Y-12325000D01*
X14475000Y-12275000D02*
X14425000Y-12325000D01*
X14425000Y-12350000D02*
X14475000Y-12400000D01*
X14475000Y-12350000D02*
X14425000Y-12400000D01*
X14425000Y-13225000D02*
X14475000Y-13275000D01*
X14475000Y-13225000D02*
X14425000Y-13275000D01*
X14425000Y-13300000D02*
X14475000Y-13350000D01*
X14475000Y-13300000D02*
X14425000Y-13350000D01*
X14425000Y-13375000D02*
X14475000Y-13425000D01*
X14475000Y-13375000D02*
X14425000Y-13425000D01*
X16900000Y-11675000D02*
X16950000Y-11725000D01*
X16950000Y-11675000D02*
X16900000Y-11725000D01*
X16900000Y-11825000D02*
X16950000Y-11875000D01*
X16950000Y-11825000D02*
X16900000Y-11875000D01*
X16975000Y-11675000D02*
X17025000Y-11725000D01*
X17025000Y-11675000D02*
X16975000Y-11725000D01*
X16975000Y-11825000D02*
X17025000Y-11875000D01*
X17025000Y-11825000D02*
X16975000Y-11875000D01*
X17050000Y-11675000D02*
X17100000Y-11725000D01*
X17100000Y-11675000D02*
X17050000Y-11725000D01*
X17050000Y-11825000D02*
X17100000Y-11875000D01*
X17100000Y-11825000D02*
X17050000Y-11875000D01*
X17950000Y-11675000D02*
X18000000Y-11725000D01*
X18000000Y-11675000D02*
X17950000Y-11725000D01*
X17950000Y-11825000D02*
X18000000Y-11875000D01*
X18000000Y-11825000D02*
X17950000Y-11875000D01*
X18025000Y-11675000D02*
X18075000Y-11725000D01*
X18075000Y-11675000D02*
X18025000Y-11725000D01*
X18025000Y-11825000D02*
X18075000Y-11875000D01*
X18075000Y-11825000D02*
X18025000Y-11875000D01*
X18100000Y-11675000D02*
X18150000Y-11725000D01*
X18150000Y-11675000D02*
X18100000Y-11725000D01*
X18100000Y-11825000D02*
X18150000Y-11875000D01*
X18150000Y-11825000D02*
X18100000Y-11875000D01*
X19075000Y-11675000D02*
X19125000Y-11725000D01*
X19125000Y-11675000D02*
X19075000Y-11725000D01*
X19075000Y-11825000D02*
X19125000Y-11875000D01*
X19125000Y-11825000D02*
X19075000Y-11875000D01*
X19150000Y-11675000D02*
X19200000Y-11725000D01*
X19200000Y-11675000D02*
X19150000Y-11725000D01*
X19150000Y-11825000D02*
X19200000Y-11875000D01*
X19200000Y-11825000D02*
X19150000Y-11875000D01*
X19225000Y-11675000D02*
X19275000Y-11725000D01*
X19275000Y-11675000D02*
X19225000Y-11725000D01*
X19225000Y-11825000D02*
X19275000Y-11875000D01*
X19275000Y-11825000D02*
X19225000Y-11875000D01*
D13*
X11327894Y-8880000D02*
G75*
G02*
X11152894Y-8880000I-87500J0D01*
G01*
X11152894Y-8880000D02*
G75*
G02*
X11327894Y-8880000I87500J0D01*
G01*
X11327894Y-11780000D02*
G75*
G02*
X11152894Y-11780000I-87500J0D01*
G01*
X11152894Y-11780000D02*
G75*
G02*
X11327894Y-11780000I87500J0D01*
G01*
X11345926Y-5980056D02*
G75*
G02*
X11170926Y-5980056I-87500J0D01*
G01*
X11170926Y-5980056D02*
G75*
G02*
X11345926Y-5980056I87500J0D01*
G01*
X12343894Y-8880000D02*
G75*
G02*
X12168894Y-8880000I-87500J0D01*
G01*
X12168894Y-8880000D02*
G75*
G02*
X12343894Y-8880000I87500J0D01*
G01*
X12343894Y-11780000D02*
G75*
G02*
X12168894Y-11780000I-87500J0D01*
G01*
X12168894Y-11780000D02*
G75*
G02*
X12343894Y-11780000I87500J0D01*
G01*
X12361926Y-5980056D02*
G75*
G02*
X12186926Y-5980056I-87500J0D01*
G01*
X12186926Y-5980056D02*
G75*
G02*
X12361926Y-5980056I87500J0D01*
G01*
X13827894Y-7480000D02*
G75*
G02*
X13652894Y-7480000I-87500J0D01*
G01*
X13652894Y-7480000D02*
G75*
G02*
X13827894Y-7480000I87500J0D01*
G01*
X13827894Y-10380000D02*
G75*
G02*
X13652894Y-10380000I-87500J0D01*
G01*
X13652894Y-10380000D02*
G75*
G02*
X13827894Y-10380000I87500J0D01*
G01*
X14843894Y-7480000D02*
G75*
G02*
X14668894Y-7480000I-87500J0D01*
G01*
X14668894Y-7480000D02*
G75*
G02*
X14843894Y-7480000I87500J0D01*
G01*
X14843894Y-10380000D02*
G75*
G02*
X14668894Y-10380000I-87500J0D01*
G01*
X14668894Y-10380000D02*
G75*
G02*
X14843894Y-10380000I87500J0D01*
G01*
X16727894Y-7480000D02*
G75*
G02*
X16552894Y-7480000I-87500J0D01*
G01*
X16552894Y-7480000D02*
G75*
G02*
X16727894Y-7480000I87500J0D01*
G01*
X16727894Y-10380000D02*
G75*
G02*
X16552894Y-10380000I-87500J0D01*
G01*
X16552894Y-10380000D02*
G75*
G02*
X16727894Y-10380000I87500J0D01*
G01*
X17743894Y-7480000D02*
G75*
G02*
X17568894Y-7480000I-87500J0D01*
G01*
X17568894Y-7480000D02*
G75*
G02*
X17743894Y-7480000I87500J0D01*
G01*
X17743894Y-10380000D02*
G75*
G02*
X17568894Y-10380000I-87500J0D01*
G01*
X17568894Y-10380000D02*
G75*
G02*
X17743894Y-10380000I87500J0D01*
G01*
X17977912Y-12344409D02*
G75*
G02*
X17802912Y-12344409I-87500J0D01*
G01*
X17802912Y-12344409D02*
G75*
G02*
X17977912Y-12344409I87500J0D01*
G01*
X17977912Y-13360409D02*
G75*
G02*
X17802912Y-13360409I-87500J0D01*
G01*
X17802912Y-13360409D02*
G75*
G02*
X17977912Y-13360409I87500J0D01*
G01*
D14*
X13808000Y-4790000D02*
X13808000Y-4970000D01*
X13718000Y-4880000D02*
X13898000Y-4880000D01*
X14708000Y-4790000D02*
X14708000Y-4970000D01*
X14618000Y-4880000D02*
X14798000Y-4880000D01*
X15308000Y-4790000D02*
X15308000Y-4970000D01*
X15218000Y-4880000D02*
X15398000Y-4880000D01*
X16208000Y-4790000D02*
X16208000Y-4970000D01*
X16118000Y-4880000D02*
X16298000Y-4880000D01*
X16808000Y-4790000D02*
X16808000Y-4970000D01*
X16718000Y-4880000D02*
X16898000Y-4880000D01*
X17708000Y-4790000D02*
X17708000Y-4970000D01*
X17618000Y-4880000D02*
X17798000Y-4880000D01*
X18308000Y-4790000D02*
X18308000Y-4970000D01*
X18218000Y-4880000D02*
X18398000Y-4880000D01*
X19208000Y-4790000D02*
X19208000Y-4970000D01*
X19118000Y-4880000D02*
X19298000Y-4880000D01*
D15*
X11018138Y-7543138D02*
X11018138Y-7316862D01*
X10791862Y-7316862D01*
X10791862Y-7543138D01*
X11018138Y-7543138D01*
X11918138Y-13543138D02*
X11918138Y-13316862D01*
X11691862Y-13316862D01*
X11691862Y-13543138D01*
X11918138Y-13543138D01*
X15118138Y-13007138D02*
X15118138Y-12780862D01*
X14891862Y-12780862D01*
X14891862Y-13007138D01*
X15118138Y-13007138D01*
X15518138Y-8793138D02*
X15518138Y-8566862D01*
X15291862Y-8566862D01*
X15291862Y-8793138D01*
X15518138Y-8793138D01*
X19068138Y-10493138D02*
X19068138Y-10266862D01*
X18841862Y-10266862D01*
X18841862Y-10493138D01*
X19068138Y-10493138D01*
X19168138Y-6393138D02*
X19168138Y-6166862D01*
X18941862Y-6166862D01*
X18941862Y-6393138D01*
X19168138Y-6393138D01*
X19168138Y-12957138D02*
X19168138Y-12730862D01*
X18941862Y-12730862D01*
X18941862Y-12957138D01*
X19168138Y-12957138D01*
D16*
X11748394Y-9080000D02*
X11948394Y-8880000D01*
X11748394Y-8680000D01*
X11548394Y-8880000D01*
X11748394Y-9080000D01*
X11748394Y-11980000D02*
X11948394Y-11780000D01*
X11748394Y-11580000D01*
X11548394Y-11780000D01*
X11748394Y-11980000D01*
X11766426Y-6180056D02*
X11966426Y-5980056D01*
X11766426Y-5780056D01*
X11566426Y-5980056D01*
X11766426Y-6180056D01*
X14248394Y-7680000D02*
X14448394Y-7480000D01*
X14248394Y-7280000D01*
X14048394Y-7480000D01*
X14248394Y-7680000D01*
X14248394Y-10580000D02*
X14448394Y-10380000D01*
X14248394Y-10180000D01*
X14048394Y-10380000D01*
X14248394Y-10580000D01*
X17148394Y-7680000D02*
X17348394Y-7480000D01*
X17148394Y-7280000D01*
X16948394Y-7480000D01*
X17148394Y-7680000D01*
X17148394Y-10580000D02*
X17348394Y-10380000D01*
X17148394Y-10180000D01*
X16948394Y-10380000D01*
X17148394Y-10580000D01*
X17890412Y-13052409D02*
X18090412Y-12852409D01*
X17890412Y-12652409D01*
X17690412Y-12852409D01*
X17890412Y-13052409D01*
D11*
X10513277Y-14243984D02*
X10513277Y-14043984D01*
X10513277Y-14043984D02*
X10560896Y-14043984D01*
X10560896Y-14043984D02*
X10589467Y-14053508D01*
X10589467Y-14053508D02*
X10608515Y-14072555D01*
X10608515Y-14072555D02*
X10618039Y-14091603D01*
X10618039Y-14091603D02*
X10627563Y-14129698D01*
X10627563Y-14129698D02*
X10627563Y-14158269D01*
X10627563Y-14158269D02*
X10618039Y-14196365D01*
X10618039Y-14196365D02*
X10608515Y-14215412D01*
X10608515Y-14215412D02*
X10589467Y-14234460D01*
X10589467Y-14234460D02*
X10560896Y-14243984D01*
X10560896Y-14243984D02*
X10513277Y-14243984D01*
X10713277Y-14243984D02*
X10713277Y-14110650D01*
X10713277Y-14148746D02*
X10722801Y-14129698D01*
X10722801Y-14129698D02*
X10732324Y-14120174D01*
X10732324Y-14120174D02*
X10751372Y-14110650D01*
X10751372Y-14110650D02*
X10770420Y-14110650D01*
X10837086Y-14243984D02*
X10837086Y-14110650D01*
X10837086Y-14043984D02*
X10827563Y-14053508D01*
X10827563Y-14053508D02*
X10837086Y-14063031D01*
X10837086Y-14063031D02*
X10846610Y-14053508D01*
X10846610Y-14053508D02*
X10837086Y-14043984D01*
X10837086Y-14043984D02*
X10837086Y-14063031D01*
X10960896Y-14243984D02*
X10941848Y-14234460D01*
X10941848Y-14234460D02*
X10932324Y-14215412D01*
X10932324Y-14215412D02*
X10932324Y-14043984D01*
X11065658Y-14243984D02*
X11046610Y-14234460D01*
X11046610Y-14234460D02*
X11037086Y-14215412D01*
X11037086Y-14215412D02*
X11037086Y-14043984D01*
X11294229Y-14243984D02*
X11294229Y-14043984D01*
X11294229Y-14043984D02*
X11360896Y-14186841D01*
X11360896Y-14186841D02*
X11427562Y-14043984D01*
X11427562Y-14043984D02*
X11427562Y-14243984D01*
X11608515Y-14243984D02*
X11608515Y-14139222D01*
X11608515Y-14139222D02*
X11598991Y-14120174D01*
X11598991Y-14120174D02*
X11579943Y-14110650D01*
X11579943Y-14110650D02*
X11541848Y-14110650D01*
X11541848Y-14110650D02*
X11522801Y-14120174D01*
X11608515Y-14234460D02*
X11589467Y-14243984D01*
X11589467Y-14243984D02*
X11541848Y-14243984D01*
X11541848Y-14243984D02*
X11522801Y-14234460D01*
X11522801Y-14234460D02*
X11513277Y-14215412D01*
X11513277Y-14215412D02*
X11513277Y-14196365D01*
X11513277Y-14196365D02*
X11522801Y-14177317D01*
X11522801Y-14177317D02*
X11541848Y-14167793D01*
X11541848Y-14167793D02*
X11589467Y-14167793D01*
X11589467Y-14167793D02*
X11608515Y-14158269D01*
X11703753Y-14110650D02*
X11703753Y-14310650D01*
X11703753Y-14120174D02*
X11722801Y-14110650D01*
X11722801Y-14110650D02*
X11760896Y-14110650D01*
X11760896Y-14110650D02*
X11779943Y-14120174D01*
X11779943Y-14120174D02*
X11789467Y-14129698D01*
X11789467Y-14129698D02*
X11798991Y-14148746D01*
X11798991Y-14148746D02*
X11798991Y-14205888D01*
X11798991Y-14205888D02*
X11789467Y-14224936D01*
X11789467Y-14224936D02*
X11779943Y-14234460D01*
X11779943Y-14234460D02*
X11760896Y-14243984D01*
X11760896Y-14243984D02*
X11722801Y-14243984D01*
X11722801Y-14243984D02*
X11703753Y-14234460D01*
X11884705Y-14224936D02*
X11894229Y-14234460D01*
X11894229Y-14234460D02*
X11884705Y-14243984D01*
X11884705Y-14243984D02*
X11875182Y-14234460D01*
X11875182Y-14234460D02*
X11884705Y-14224936D01*
X11884705Y-14224936D02*
X11884705Y-14243984D01*
X11884705Y-14120174D02*
X11894229Y-14129698D01*
X11894229Y-14129698D02*
X11884705Y-14139222D01*
X11884705Y-14139222D02*
X11875182Y-14129698D01*
X11875182Y-14129698D02*
X11884705Y-14120174D01*
X11884705Y-14120174D02*
X11884705Y-14139222D01*
D12*
X10202500Y-14547500D02*
X10252500Y-14597500D01*
X10252500Y-14547500D02*
X10202500Y-14597500D01*
D11*
X10551372Y-14463984D02*
X10570420Y-14463984D01*
X10570420Y-14463984D02*
X10589467Y-14473508D01*
X10589467Y-14473508D02*
X10598991Y-14483031D01*
X10598991Y-14483031D02*
X10608515Y-14502079D01*
X10608515Y-14502079D02*
X10618039Y-14540174D01*
X10618039Y-14540174D02*
X10618039Y-14587793D01*
X10618039Y-14587793D02*
X10608515Y-14625888D01*
X10608515Y-14625888D02*
X10598991Y-14644936D01*
X10598991Y-14644936D02*
X10589467Y-14654460D01*
X10589467Y-14654460D02*
X10570420Y-14663984D01*
X10570420Y-14663984D02*
X10551372Y-14663984D01*
X10551372Y-14663984D02*
X10532324Y-14654460D01*
X10532324Y-14654460D02*
X10522801Y-14644936D01*
X10522801Y-14644936D02*
X10513277Y-14625888D01*
X10513277Y-14625888D02*
X10503753Y-14587793D01*
X10503753Y-14587793D02*
X10503753Y-14540174D01*
X10503753Y-14540174D02*
X10513277Y-14502079D01*
X10513277Y-14502079D02*
X10522801Y-14483031D01*
X10522801Y-14483031D02*
X10532324Y-14473508D01*
X10532324Y-14473508D02*
X10551372Y-14463984D01*
X10703753Y-14644936D02*
X10713277Y-14654460D01*
X10713277Y-14654460D02*
X10703753Y-14663984D01*
X10703753Y-14663984D02*
X10694229Y-14654460D01*
X10694229Y-14654460D02*
X10703753Y-14644936D01*
X10703753Y-14644936D02*
X10703753Y-14663984D01*
X10894229Y-14463984D02*
X10798991Y-14463984D01*
X10798991Y-14463984D02*
X10789467Y-14559222D01*
X10789467Y-14559222D02*
X10798991Y-14549698D01*
X10798991Y-14549698D02*
X10818039Y-14540174D01*
X10818039Y-14540174D02*
X10865658Y-14540174D01*
X10865658Y-14540174D02*
X10884705Y-14549698D01*
X10884705Y-14549698D02*
X10894229Y-14559222D01*
X10894229Y-14559222D02*
X10903753Y-14578269D01*
X10903753Y-14578269D02*
X10903753Y-14625888D01*
X10903753Y-14625888D02*
X10894229Y-14644936D01*
X10894229Y-14644936D02*
X10884705Y-14654460D01*
X10884705Y-14654460D02*
X10865658Y-14663984D01*
X10865658Y-14663984D02*
X10818039Y-14663984D01*
X10818039Y-14663984D02*
X10798991Y-14654460D01*
X10798991Y-14654460D02*
X10789467Y-14644936D01*
X11027563Y-14463984D02*
X11046610Y-14463984D01*
X11046610Y-14463984D02*
X11065658Y-14473508D01*
X11065658Y-14473508D02*
X11075182Y-14483031D01*
X11075182Y-14483031D02*
X11084705Y-14502079D01*
X11084705Y-14502079D02*
X11094229Y-14540174D01*
X11094229Y-14540174D02*
X11094229Y-14587793D01*
X11094229Y-14587793D02*
X11084705Y-14625888D01*
X11084705Y-14625888D02*
X11075182Y-14644936D01*
X11075182Y-14644936D02*
X11065658Y-14654460D01*
X11065658Y-14654460D02*
X11046610Y-14663984D01*
X11046610Y-14663984D02*
X11027563Y-14663984D01*
X11027563Y-14663984D02*
X11008515Y-14654460D01*
X11008515Y-14654460D02*
X10998991Y-14644936D01*
X10998991Y-14644936D02*
X10989467Y-14625888D01*
X10989467Y-14625888D02*
X10979944Y-14587793D01*
X10979944Y-14587793D02*
X10979944Y-14540174D01*
X10979944Y-14540174D02*
X10989467Y-14502079D01*
X10989467Y-14502079D02*
X10998991Y-14483031D01*
X10998991Y-14483031D02*
X11008515Y-14473508D01*
X11008515Y-14473508D02*
X11027563Y-14463984D01*
X11218039Y-14463984D02*
X11237086Y-14463984D01*
X11237086Y-14463984D02*
X11256134Y-14473508D01*
X11256134Y-14473508D02*
X11265658Y-14483031D01*
X11265658Y-14483031D02*
X11275182Y-14502079D01*
X11275182Y-14502079D02*
X11284705Y-14540174D01*
X11284705Y-14540174D02*
X11284705Y-14587793D01*
X11284705Y-14587793D02*
X11275182Y-14625888D01*
X11275182Y-14625888D02*
X11265658Y-14644936D01*
X11265658Y-14644936D02*
X11256134Y-14654460D01*
X11256134Y-14654460D02*
X11237086Y-14663984D01*
X11237086Y-14663984D02*
X11218039Y-14663984D01*
X11218039Y-14663984D02*
X11198991Y-14654460D01*
X11198991Y-14654460D02*
X11189467Y-14644936D01*
X11189467Y-14644936D02*
X11179944Y-14625888D01*
X11179944Y-14625888D02*
X11170420Y-14587793D01*
X11170420Y-14587793D02*
X11170420Y-14540174D01*
X11170420Y-14540174D02*
X11179944Y-14502079D01*
X11179944Y-14502079D02*
X11189467Y-14483031D01*
X11189467Y-14483031D02*
X11198991Y-14473508D01*
X11198991Y-14473508D02*
X11218039Y-14463984D01*
X11370420Y-14663984D02*
X11370420Y-14530650D01*
X11370420Y-14549698D02*
X11379943Y-14540174D01*
X11379943Y-14540174D02*
X11398991Y-14530650D01*
X11398991Y-14530650D02*
X11427563Y-14530650D01*
X11427563Y-14530650D02*
X11446610Y-14540174D01*
X11446610Y-14540174D02*
X11456134Y-14559222D01*
X11456134Y-14559222D02*
X11456134Y-14663984D01*
X11456134Y-14559222D02*
X11465658Y-14540174D01*
X11465658Y-14540174D02*
X11484705Y-14530650D01*
X11484705Y-14530650D02*
X11513277Y-14530650D01*
X11513277Y-14530650D02*
X11532324Y-14540174D01*
X11532324Y-14540174D02*
X11541848Y-14559222D01*
X11541848Y-14559222D02*
X11541848Y-14663984D01*
X11637086Y-14663984D02*
X11637086Y-14530650D01*
X11637086Y-14549698D02*
X11646610Y-14540174D01*
X11646610Y-14540174D02*
X11665658Y-14530650D01*
X11665658Y-14530650D02*
X11694229Y-14530650D01*
X11694229Y-14530650D02*
X11713277Y-14540174D01*
X11713277Y-14540174D02*
X11722801Y-14559222D01*
X11722801Y-14559222D02*
X11722801Y-14663984D01*
X11722801Y-14559222D02*
X11732324Y-14540174D01*
X11732324Y-14540174D02*
X11751372Y-14530650D01*
X11751372Y-14530650D02*
X11779943Y-14530650D01*
X11779943Y-14530650D02*
X11798991Y-14540174D01*
X11798991Y-14540174D02*
X11808515Y-14559222D01*
X11808515Y-14559222D02*
X11808515Y-14663984D01*
X12198991Y-14454460D02*
X12027563Y-14711603D01*
X12456134Y-14463984D02*
X12475182Y-14463984D01*
X12475182Y-14463984D02*
X12494229Y-14473508D01*
X12494229Y-14473508D02*
X12503753Y-14483031D01*
X12503753Y-14483031D02*
X12513277Y-14502079D01*
X12513277Y-14502079D02*
X12522801Y-14540174D01*
X12522801Y-14540174D02*
X12522801Y-14587793D01*
X12522801Y-14587793D02*
X12513277Y-14625888D01*
X12513277Y-14625888D02*
X12503753Y-14644936D01*
X12503753Y-14644936D02*
X12494229Y-14654460D01*
X12494229Y-14654460D02*
X12475182Y-14663984D01*
X12475182Y-14663984D02*
X12456134Y-14663984D01*
X12456134Y-14663984D02*
X12437086Y-14654460D01*
X12437086Y-14654460D02*
X12427563Y-14644936D01*
X12427563Y-14644936D02*
X12418039Y-14625888D01*
X12418039Y-14625888D02*
X12408515Y-14587793D01*
X12408515Y-14587793D02*
X12408515Y-14540174D01*
X12408515Y-14540174D02*
X12418039Y-14502079D01*
X12418039Y-14502079D02*
X12427563Y-14483031D01*
X12427563Y-14483031D02*
X12437086Y-14473508D01*
X12437086Y-14473508D02*
X12456134Y-14463984D01*
X12608515Y-14644936D02*
X12618039Y-14654460D01*
X12618039Y-14654460D02*
X12608515Y-14663984D01*
X12608515Y-14663984D02*
X12598991Y-14654460D01*
X12598991Y-14654460D02*
X12608515Y-14644936D01*
X12608515Y-14644936D02*
X12608515Y-14663984D01*
X12741848Y-14463984D02*
X12760896Y-14463984D01*
X12760896Y-14463984D02*
X12779944Y-14473508D01*
X12779944Y-14473508D02*
X12789467Y-14483031D01*
X12789467Y-14483031D02*
X12798991Y-14502079D01*
X12798991Y-14502079D02*
X12808515Y-14540174D01*
X12808515Y-14540174D02*
X12808515Y-14587793D01*
X12808515Y-14587793D02*
X12798991Y-14625888D01*
X12798991Y-14625888D02*
X12789467Y-14644936D01*
X12789467Y-14644936D02*
X12779944Y-14654460D01*
X12779944Y-14654460D02*
X12760896Y-14663984D01*
X12760896Y-14663984D02*
X12741848Y-14663984D01*
X12741848Y-14663984D02*
X12722801Y-14654460D01*
X12722801Y-14654460D02*
X12713277Y-14644936D01*
X12713277Y-14644936D02*
X12703753Y-14625888D01*
X12703753Y-14625888D02*
X12694229Y-14587793D01*
X12694229Y-14587793D02*
X12694229Y-14540174D01*
X12694229Y-14540174D02*
X12703753Y-14502079D01*
X12703753Y-14502079D02*
X12713277Y-14483031D01*
X12713277Y-14483031D02*
X12722801Y-14473508D01*
X12722801Y-14473508D02*
X12741848Y-14463984D01*
X12998991Y-14663984D02*
X12884706Y-14663984D01*
X12941848Y-14663984D02*
X12941848Y-14463984D01*
X12941848Y-14463984D02*
X12922801Y-14492555D01*
X12922801Y-14492555D02*
X12903753Y-14511603D01*
X12903753Y-14511603D02*
X12884706Y-14521127D01*
X13094229Y-14663984D02*
X13132325Y-14663984D01*
X13132325Y-14663984D02*
X13151372Y-14654460D01*
X13151372Y-14654460D02*
X13160896Y-14644936D01*
X13160896Y-14644936D02*
X13179944Y-14616365D01*
X13179944Y-14616365D02*
X13189467Y-14578269D01*
X13189467Y-14578269D02*
X13189467Y-14502079D01*
X13189467Y-14502079D02*
X13179944Y-14483031D01*
X13179944Y-14483031D02*
X13170420Y-14473508D01*
X13170420Y-14473508D02*
X13151372Y-14463984D01*
X13151372Y-14463984D02*
X13113277Y-14463984D01*
X13113277Y-14463984D02*
X13094229Y-14473508D01*
X13094229Y-14473508D02*
X13084706Y-14483031D01*
X13084706Y-14483031D02*
X13075182Y-14502079D01*
X13075182Y-14502079D02*
X13075182Y-14549698D01*
X13075182Y-14549698D02*
X13084706Y-14568746D01*
X13084706Y-14568746D02*
X13094229Y-14578269D01*
X13094229Y-14578269D02*
X13113277Y-14587793D01*
X13113277Y-14587793D02*
X13151372Y-14587793D01*
X13151372Y-14587793D02*
X13170420Y-14578269D01*
X13170420Y-14578269D02*
X13179944Y-14568746D01*
X13179944Y-14568746D02*
X13189467Y-14549698D01*
X13256134Y-14463984D02*
X13389467Y-14463984D01*
X13389467Y-14463984D02*
X13303753Y-14663984D01*
X13456134Y-14463984D02*
X13456134Y-14502079D01*
X13532325Y-14463984D02*
X13532325Y-14502079D01*
X13827563Y-14740174D02*
X13818039Y-14730650D01*
X13818039Y-14730650D02*
X13798991Y-14702079D01*
X13798991Y-14702079D02*
X13789468Y-14683031D01*
X13789468Y-14683031D02*
X13779944Y-14654460D01*
X13779944Y-14654460D02*
X13770420Y-14606841D01*
X13770420Y-14606841D02*
X13770420Y-14568746D01*
X13770420Y-14568746D02*
X13779944Y-14521127D01*
X13779944Y-14521127D02*
X13789468Y-14492555D01*
X13789468Y-14492555D02*
X13798991Y-14473508D01*
X13798991Y-14473508D02*
X13818039Y-14444936D01*
X13818039Y-14444936D02*
X13827563Y-14435412D01*
X13884706Y-14463984D02*
X14008515Y-14463984D01*
X14008515Y-14463984D02*
X13941848Y-14540174D01*
X13941848Y-14540174D02*
X13970420Y-14540174D01*
X13970420Y-14540174D02*
X13989468Y-14549698D01*
X13989468Y-14549698D02*
X13998991Y-14559222D01*
X13998991Y-14559222D02*
X14008515Y-14578269D01*
X14008515Y-14578269D02*
X14008515Y-14625888D01*
X14008515Y-14625888D02*
X13998991Y-14644936D01*
X13998991Y-14644936D02*
X13989468Y-14654460D01*
X13989468Y-14654460D02*
X13970420Y-14663984D01*
X13970420Y-14663984D02*
X13913277Y-14663984D01*
X13913277Y-14663984D02*
X13894229Y-14654460D01*
X13894229Y-14654460D02*
X13884706Y-14644936D01*
X14132325Y-14463984D02*
X14151372Y-14463984D01*
X14151372Y-14463984D02*
X14170420Y-14473508D01*
X14170420Y-14473508D02*
X14179944Y-14483031D01*
X14179944Y-14483031D02*
X14189468Y-14502079D01*
X14189468Y-14502079D02*
X14198991Y-14540174D01*
X14198991Y-14540174D02*
X14198991Y-14587793D01*
X14198991Y-14587793D02*
X14189468Y-14625888D01*
X14189468Y-14625888D02*
X14179944Y-14644936D01*
X14179944Y-14644936D02*
X14170420Y-14654460D01*
X14170420Y-14654460D02*
X14151372Y-14663984D01*
X14151372Y-14663984D02*
X14132325Y-14663984D01*
X14132325Y-14663984D02*
X14113277Y-14654460D01*
X14113277Y-14654460D02*
X14103753Y-14644936D01*
X14103753Y-14644936D02*
X14094229Y-14625888D01*
X14094229Y-14625888D02*
X14084706Y-14587793D01*
X14084706Y-14587793D02*
X14084706Y-14540174D01*
X14084706Y-14540174D02*
X14094229Y-14502079D01*
X14094229Y-14502079D02*
X14103753Y-14483031D01*
X14103753Y-14483031D02*
X14113277Y-14473508D01*
X14113277Y-14473508D02*
X14132325Y-14463984D01*
X14437087Y-14663984D02*
X14437087Y-14463984D01*
X14522801Y-14663984D02*
X14522801Y-14559222D01*
X14522801Y-14559222D02*
X14513277Y-14540174D01*
X14513277Y-14540174D02*
X14494230Y-14530650D01*
X14494230Y-14530650D02*
X14465658Y-14530650D01*
X14465658Y-14530650D02*
X14446610Y-14540174D01*
X14446610Y-14540174D02*
X14437087Y-14549698D01*
X14646610Y-14663984D02*
X14627563Y-14654460D01*
X14627563Y-14654460D02*
X14618039Y-14644936D01*
X14618039Y-14644936D02*
X14608515Y-14625888D01*
X14608515Y-14625888D02*
X14608515Y-14568746D01*
X14608515Y-14568746D02*
X14618039Y-14549698D01*
X14618039Y-14549698D02*
X14627563Y-14540174D01*
X14627563Y-14540174D02*
X14646610Y-14530650D01*
X14646610Y-14530650D02*
X14675182Y-14530650D01*
X14675182Y-14530650D02*
X14694230Y-14540174D01*
X14694230Y-14540174D02*
X14703753Y-14549698D01*
X14703753Y-14549698D02*
X14713277Y-14568746D01*
X14713277Y-14568746D02*
X14713277Y-14625888D01*
X14713277Y-14625888D02*
X14703753Y-14644936D01*
X14703753Y-14644936D02*
X14694230Y-14654460D01*
X14694230Y-14654460D02*
X14675182Y-14663984D01*
X14675182Y-14663984D02*
X14646610Y-14663984D01*
X14827563Y-14663984D02*
X14808515Y-14654460D01*
X14808515Y-14654460D02*
X14798991Y-14635412D01*
X14798991Y-14635412D02*
X14798991Y-14463984D01*
X14979944Y-14654460D02*
X14960896Y-14663984D01*
X14960896Y-14663984D02*
X14922801Y-14663984D01*
X14922801Y-14663984D02*
X14903753Y-14654460D01*
X14903753Y-14654460D02*
X14894230Y-14635412D01*
X14894230Y-14635412D02*
X14894230Y-14559222D01*
X14894230Y-14559222D02*
X14903753Y-14540174D01*
X14903753Y-14540174D02*
X14922801Y-14530650D01*
X14922801Y-14530650D02*
X14960896Y-14530650D01*
X14960896Y-14530650D02*
X14979944Y-14540174D01*
X14979944Y-14540174D02*
X14989468Y-14559222D01*
X14989468Y-14559222D02*
X14989468Y-14578269D01*
X14989468Y-14578269D02*
X14894230Y-14597317D01*
X15065658Y-14654460D02*
X15084706Y-14663984D01*
X15084706Y-14663984D02*
X15122801Y-14663984D01*
X15122801Y-14663984D02*
X15141849Y-14654460D01*
X15141849Y-14654460D02*
X15151372Y-14635412D01*
X15151372Y-14635412D02*
X15151372Y-14625888D01*
X15151372Y-14625888D02*
X15141849Y-14606841D01*
X15141849Y-14606841D02*
X15122801Y-14597317D01*
X15122801Y-14597317D02*
X15094230Y-14597317D01*
X15094230Y-14597317D02*
X15075182Y-14587793D01*
X15075182Y-14587793D02*
X15065658Y-14568746D01*
X15065658Y-14568746D02*
X15065658Y-14559222D01*
X15065658Y-14559222D02*
X15075182Y-14540174D01*
X15075182Y-14540174D02*
X15094230Y-14530650D01*
X15094230Y-14530650D02*
X15122801Y-14530650D01*
X15122801Y-14530650D02*
X15141849Y-14540174D01*
X15218039Y-14740174D02*
X15227563Y-14730650D01*
X15227563Y-14730650D02*
X15246611Y-14702079D01*
X15246611Y-14702079D02*
X15256134Y-14683031D01*
X15256134Y-14683031D02*
X15265658Y-14654460D01*
X15265658Y-14654460D02*
X15275182Y-14606841D01*
X15275182Y-14606841D02*
X15275182Y-14568746D01*
X15275182Y-14568746D02*
X15265658Y-14521127D01*
X15265658Y-14521127D02*
X15256134Y-14492555D01*
X15256134Y-14492555D02*
X15246611Y-14473508D01*
X15246611Y-14473508D02*
X15227563Y-14444936D01*
X15227563Y-14444936D02*
X15218039Y-14435412D01*
X15579944Y-14740174D02*
X15570420Y-14730650D01*
X15570420Y-14730650D02*
X15551372Y-14702079D01*
X15551372Y-14702079D02*
X15541849Y-14683031D01*
X15541849Y-14683031D02*
X15532325Y-14654460D01*
X15532325Y-14654460D02*
X15522801Y-14606841D01*
X15522801Y-14606841D02*
X15522801Y-14568746D01*
X15522801Y-14568746D02*
X15532325Y-14521127D01*
X15532325Y-14521127D02*
X15541849Y-14492555D01*
X15541849Y-14492555D02*
X15551372Y-14473508D01*
X15551372Y-14473508D02*
X15570420Y-14444936D01*
X15570420Y-14444936D02*
X15579944Y-14435412D01*
X15656134Y-14530650D02*
X15656134Y-14663984D01*
X15656134Y-14549698D02*
X15665658Y-14540174D01*
X15665658Y-14540174D02*
X15684706Y-14530650D01*
X15684706Y-14530650D02*
X15713277Y-14530650D01*
X15713277Y-14530650D02*
X15732325Y-14540174D01*
X15732325Y-14540174D02*
X15741849Y-14559222D01*
X15741849Y-14559222D02*
X15741849Y-14663984D01*
X15865658Y-14663984D02*
X15846611Y-14654460D01*
X15846611Y-14654460D02*
X15837087Y-14644936D01*
X15837087Y-14644936D02*
X15827563Y-14625888D01*
X15827563Y-14625888D02*
X15827563Y-14568746D01*
X15827563Y-14568746D02*
X15837087Y-14549698D01*
X15837087Y-14549698D02*
X15846611Y-14540174D01*
X15846611Y-14540174D02*
X15865658Y-14530650D01*
X15865658Y-14530650D02*
X15894230Y-14530650D01*
X15894230Y-14530650D02*
X15913277Y-14540174D01*
X15913277Y-14540174D02*
X15922801Y-14549698D01*
X15922801Y-14549698D02*
X15932325Y-14568746D01*
X15932325Y-14568746D02*
X15932325Y-14625888D01*
X15932325Y-14625888D02*
X15922801Y-14644936D01*
X15922801Y-14644936D02*
X15913277Y-14654460D01*
X15913277Y-14654460D02*
X15894230Y-14663984D01*
X15894230Y-14663984D02*
X15865658Y-14663984D01*
X15989468Y-14530650D02*
X16065658Y-14530650D01*
X16018039Y-14463984D02*
X16018039Y-14635412D01*
X16018039Y-14635412D02*
X16027563Y-14654460D01*
X16027563Y-14654460D02*
X16046611Y-14663984D01*
X16046611Y-14663984D02*
X16065658Y-14663984D01*
X16284706Y-14530650D02*
X16284706Y-14730650D01*
X16284706Y-14540174D02*
X16303753Y-14530650D01*
X16303753Y-14530650D02*
X16341849Y-14530650D01*
X16341849Y-14530650D02*
X16360896Y-14540174D01*
X16360896Y-14540174D02*
X16370420Y-14549698D01*
X16370420Y-14549698D02*
X16379944Y-14568746D01*
X16379944Y-14568746D02*
X16379944Y-14625888D01*
X16379944Y-14625888D02*
X16370420Y-14644936D01*
X16370420Y-14644936D02*
X16360896Y-14654460D01*
X16360896Y-14654460D02*
X16341849Y-14663984D01*
X16341849Y-14663984D02*
X16303753Y-14663984D01*
X16303753Y-14663984D02*
X16284706Y-14654460D01*
X16494230Y-14663984D02*
X16475182Y-14654460D01*
X16475182Y-14654460D02*
X16465658Y-14635412D01*
X16465658Y-14635412D02*
X16465658Y-14463984D01*
X16656134Y-14663984D02*
X16656134Y-14559222D01*
X16656134Y-14559222D02*
X16646611Y-14540174D01*
X16646611Y-14540174D02*
X16627563Y-14530650D01*
X16627563Y-14530650D02*
X16589468Y-14530650D01*
X16589468Y-14530650D02*
X16570420Y-14540174D01*
X16656134Y-14654460D02*
X16637087Y-14663984D01*
X16637087Y-14663984D02*
X16589468Y-14663984D01*
X16589468Y-14663984D02*
X16570420Y-14654460D01*
X16570420Y-14654460D02*
X16560896Y-14635412D01*
X16560896Y-14635412D02*
X16560896Y-14616365D01*
X16560896Y-14616365D02*
X16570420Y-14597317D01*
X16570420Y-14597317D02*
X16589468Y-14587793D01*
X16589468Y-14587793D02*
X16637087Y-14587793D01*
X16637087Y-14587793D02*
X16656134Y-14578269D01*
X16722801Y-14530650D02*
X16798992Y-14530650D01*
X16751373Y-14463984D02*
X16751373Y-14635412D01*
X16751373Y-14635412D02*
X16760896Y-14654460D01*
X16760896Y-14654460D02*
X16779944Y-14663984D01*
X16779944Y-14663984D02*
X16798992Y-14663984D01*
X16941849Y-14654460D02*
X16922801Y-14663984D01*
X16922801Y-14663984D02*
X16884706Y-14663984D01*
X16884706Y-14663984D02*
X16865658Y-14654460D01*
X16865658Y-14654460D02*
X16856135Y-14635412D01*
X16856135Y-14635412D02*
X16856135Y-14559222D01*
X16856135Y-14559222D02*
X16865658Y-14540174D01*
X16865658Y-14540174D02*
X16884706Y-14530650D01*
X16884706Y-14530650D02*
X16922801Y-14530650D01*
X16922801Y-14530650D02*
X16941849Y-14540174D01*
X16941849Y-14540174D02*
X16951373Y-14559222D01*
X16951373Y-14559222D02*
X16951373Y-14578269D01*
X16951373Y-14578269D02*
X16856135Y-14597317D01*
X17122801Y-14663984D02*
X17122801Y-14463984D01*
X17122801Y-14654460D02*
X17103754Y-14663984D01*
X17103754Y-14663984D02*
X17065658Y-14663984D01*
X17065658Y-14663984D02*
X17046611Y-14654460D01*
X17046611Y-14654460D02*
X17037087Y-14644936D01*
X17037087Y-14644936D02*
X17027563Y-14625888D01*
X17027563Y-14625888D02*
X17027563Y-14568746D01*
X17027563Y-14568746D02*
X17037087Y-14549698D01*
X17037087Y-14549698D02*
X17046611Y-14540174D01*
X17046611Y-14540174D02*
X17065658Y-14530650D01*
X17065658Y-14530650D02*
X17103754Y-14530650D01*
X17103754Y-14530650D02*
X17122801Y-14540174D01*
X17198992Y-14740174D02*
X17208516Y-14730650D01*
X17208516Y-14730650D02*
X17227563Y-14702079D01*
X17227563Y-14702079D02*
X17237087Y-14683031D01*
X17237087Y-14683031D02*
X17246611Y-14654460D01*
X17246611Y-14654460D02*
X17256135Y-14606841D01*
X17256135Y-14606841D02*
X17256135Y-14568746D01*
X17256135Y-14568746D02*
X17246611Y-14521127D01*
X17246611Y-14521127D02*
X17237087Y-14492555D01*
X17237087Y-14492555D02*
X17227563Y-14473508D01*
X17227563Y-14473508D02*
X17208516Y-14444936D01*
X17208516Y-14444936D02*
X17198992Y-14435412D01*
D13*
X10252500Y-14836500D02*
G75*
G02*
X10077500Y-14836500I-87500J0D01*
G01*
X10077500Y-14836500D02*
G75*
G02*
X10252500Y-14836500I87500J0D01*
G01*
D11*
X10618039Y-14927984D02*
X10503753Y-14927984D01*
X10560896Y-14927984D02*
X10560896Y-14727984D01*
X10560896Y-14727984D02*
X10541848Y-14756555D01*
X10541848Y-14756555D02*
X10522801Y-14775603D01*
X10522801Y-14775603D02*
X10503753Y-14785127D01*
X10703753Y-14908936D02*
X10713277Y-14918460D01*
X10713277Y-14918460D02*
X10703753Y-14927984D01*
X10703753Y-14927984D02*
X10694229Y-14918460D01*
X10694229Y-14918460D02*
X10703753Y-14908936D01*
X10703753Y-14908936D02*
X10703753Y-14927984D01*
X10779944Y-14727984D02*
X10913277Y-14727984D01*
X10913277Y-14727984D02*
X10827563Y-14927984D01*
X11084705Y-14727984D02*
X10989467Y-14727984D01*
X10989467Y-14727984D02*
X10979944Y-14823222D01*
X10979944Y-14823222D02*
X10989467Y-14813698D01*
X10989467Y-14813698D02*
X11008515Y-14804174D01*
X11008515Y-14804174D02*
X11056134Y-14804174D01*
X11056134Y-14804174D02*
X11075182Y-14813698D01*
X11075182Y-14813698D02*
X11084705Y-14823222D01*
X11084705Y-14823222D02*
X11094229Y-14842269D01*
X11094229Y-14842269D02*
X11094229Y-14889888D01*
X11094229Y-14889888D02*
X11084705Y-14908936D01*
X11084705Y-14908936D02*
X11075182Y-14918460D01*
X11075182Y-14918460D02*
X11056134Y-14927984D01*
X11056134Y-14927984D02*
X11008515Y-14927984D01*
X11008515Y-14927984D02*
X10989467Y-14918460D01*
X10989467Y-14918460D02*
X10979944Y-14908936D01*
X11218039Y-14727984D02*
X11237086Y-14727984D01*
X11237086Y-14727984D02*
X11256134Y-14737508D01*
X11256134Y-14737508D02*
X11265658Y-14747031D01*
X11265658Y-14747031D02*
X11275182Y-14766079D01*
X11275182Y-14766079D02*
X11284705Y-14804174D01*
X11284705Y-14804174D02*
X11284705Y-14851793D01*
X11284705Y-14851793D02*
X11275182Y-14889888D01*
X11275182Y-14889888D02*
X11265658Y-14908936D01*
X11265658Y-14908936D02*
X11256134Y-14918460D01*
X11256134Y-14918460D02*
X11237086Y-14927984D01*
X11237086Y-14927984D02*
X11218039Y-14927984D01*
X11218039Y-14927984D02*
X11198991Y-14918460D01*
X11198991Y-14918460D02*
X11189467Y-14908936D01*
X11189467Y-14908936D02*
X11179944Y-14889888D01*
X11179944Y-14889888D02*
X11170420Y-14851793D01*
X11170420Y-14851793D02*
X11170420Y-14804174D01*
X11170420Y-14804174D02*
X11179944Y-14766079D01*
X11179944Y-14766079D02*
X11189467Y-14747031D01*
X11189467Y-14747031D02*
X11198991Y-14737508D01*
X11198991Y-14737508D02*
X11218039Y-14727984D01*
X11370420Y-14927984D02*
X11370420Y-14794650D01*
X11370420Y-14813698D02*
X11379943Y-14804174D01*
X11379943Y-14804174D02*
X11398991Y-14794650D01*
X11398991Y-14794650D02*
X11427563Y-14794650D01*
X11427563Y-14794650D02*
X11446610Y-14804174D01*
X11446610Y-14804174D02*
X11456134Y-14823222D01*
X11456134Y-14823222D02*
X11456134Y-14927984D01*
X11456134Y-14823222D02*
X11465658Y-14804174D01*
X11465658Y-14804174D02*
X11484705Y-14794650D01*
X11484705Y-14794650D02*
X11513277Y-14794650D01*
X11513277Y-14794650D02*
X11532324Y-14804174D01*
X11532324Y-14804174D02*
X11541848Y-14823222D01*
X11541848Y-14823222D02*
X11541848Y-14927984D01*
X11637086Y-14927984D02*
X11637086Y-14794650D01*
X11637086Y-14813698D02*
X11646610Y-14804174D01*
X11646610Y-14804174D02*
X11665658Y-14794650D01*
X11665658Y-14794650D02*
X11694229Y-14794650D01*
X11694229Y-14794650D02*
X11713277Y-14804174D01*
X11713277Y-14804174D02*
X11722801Y-14823222D01*
X11722801Y-14823222D02*
X11722801Y-14927984D01*
X11722801Y-14823222D02*
X11732324Y-14804174D01*
X11732324Y-14804174D02*
X11751372Y-14794650D01*
X11751372Y-14794650D02*
X11779943Y-14794650D01*
X11779943Y-14794650D02*
X11798991Y-14804174D01*
X11798991Y-14804174D02*
X11808515Y-14823222D01*
X11808515Y-14823222D02*
X11808515Y-14927984D01*
X12198991Y-14718460D02*
X12027563Y-14975603D01*
X12456134Y-14727984D02*
X12475182Y-14727984D01*
X12475182Y-14727984D02*
X12494229Y-14737508D01*
X12494229Y-14737508D02*
X12503753Y-14747031D01*
X12503753Y-14747031D02*
X12513277Y-14766079D01*
X12513277Y-14766079D02*
X12522801Y-14804174D01*
X12522801Y-14804174D02*
X12522801Y-14851793D01*
X12522801Y-14851793D02*
X12513277Y-14889888D01*
X12513277Y-14889888D02*
X12503753Y-14908936D01*
X12503753Y-14908936D02*
X12494229Y-14918460D01*
X12494229Y-14918460D02*
X12475182Y-14927984D01*
X12475182Y-14927984D02*
X12456134Y-14927984D01*
X12456134Y-14927984D02*
X12437086Y-14918460D01*
X12437086Y-14918460D02*
X12427563Y-14908936D01*
X12427563Y-14908936D02*
X12418039Y-14889888D01*
X12418039Y-14889888D02*
X12408515Y-14851793D01*
X12408515Y-14851793D02*
X12408515Y-14804174D01*
X12408515Y-14804174D02*
X12418039Y-14766079D01*
X12418039Y-14766079D02*
X12427563Y-14747031D01*
X12427563Y-14747031D02*
X12437086Y-14737508D01*
X12437086Y-14737508D02*
X12456134Y-14727984D01*
X12608515Y-14908936D02*
X12618039Y-14918460D01*
X12618039Y-14918460D02*
X12608515Y-14927984D01*
X12608515Y-14927984D02*
X12598991Y-14918460D01*
X12598991Y-14918460D02*
X12608515Y-14908936D01*
X12608515Y-14908936D02*
X12608515Y-14927984D01*
X12741848Y-14727984D02*
X12760896Y-14727984D01*
X12760896Y-14727984D02*
X12779944Y-14737508D01*
X12779944Y-14737508D02*
X12789467Y-14747031D01*
X12789467Y-14747031D02*
X12798991Y-14766079D01*
X12798991Y-14766079D02*
X12808515Y-14804174D01*
X12808515Y-14804174D02*
X12808515Y-14851793D01*
X12808515Y-14851793D02*
X12798991Y-14889888D01*
X12798991Y-14889888D02*
X12789467Y-14908936D01*
X12789467Y-14908936D02*
X12779944Y-14918460D01*
X12779944Y-14918460D02*
X12760896Y-14927984D01*
X12760896Y-14927984D02*
X12741848Y-14927984D01*
X12741848Y-14927984D02*
X12722801Y-14918460D01*
X12722801Y-14918460D02*
X12713277Y-14908936D01*
X12713277Y-14908936D02*
X12703753Y-14889888D01*
X12703753Y-14889888D02*
X12694229Y-14851793D01*
X12694229Y-14851793D02*
X12694229Y-14804174D01*
X12694229Y-14804174D02*
X12703753Y-14766079D01*
X12703753Y-14766079D02*
X12713277Y-14747031D01*
X12713277Y-14747031D02*
X12722801Y-14737508D01*
X12722801Y-14737508D02*
X12741848Y-14727984D01*
X12979944Y-14727984D02*
X12941848Y-14727984D01*
X12941848Y-14727984D02*
X12922801Y-14737508D01*
X12922801Y-14737508D02*
X12913277Y-14747031D01*
X12913277Y-14747031D02*
X12894229Y-14775603D01*
X12894229Y-14775603D02*
X12884706Y-14813698D01*
X12884706Y-14813698D02*
X12884706Y-14889888D01*
X12884706Y-14889888D02*
X12894229Y-14908936D01*
X12894229Y-14908936D02*
X12903753Y-14918460D01*
X12903753Y-14918460D02*
X12922801Y-14927984D01*
X12922801Y-14927984D02*
X12960896Y-14927984D01*
X12960896Y-14927984D02*
X12979944Y-14918460D01*
X12979944Y-14918460D02*
X12989467Y-14908936D01*
X12989467Y-14908936D02*
X12998991Y-14889888D01*
X12998991Y-14889888D02*
X12998991Y-14842269D01*
X12998991Y-14842269D02*
X12989467Y-14823222D01*
X12989467Y-14823222D02*
X12979944Y-14813698D01*
X12979944Y-14813698D02*
X12960896Y-14804174D01*
X12960896Y-14804174D02*
X12922801Y-14804174D01*
X12922801Y-14804174D02*
X12903753Y-14813698D01*
X12903753Y-14813698D02*
X12894229Y-14823222D01*
X12894229Y-14823222D02*
X12884706Y-14842269D01*
X13113277Y-14813698D02*
X13094229Y-14804174D01*
X13094229Y-14804174D02*
X13084706Y-14794650D01*
X13084706Y-14794650D02*
X13075182Y-14775603D01*
X13075182Y-14775603D02*
X13075182Y-14766079D01*
X13075182Y-14766079D02*
X13084706Y-14747031D01*
X13084706Y-14747031D02*
X13094229Y-14737508D01*
X13094229Y-14737508D02*
X13113277Y-14727984D01*
X13113277Y-14727984D02*
X13151372Y-14727984D01*
X13151372Y-14727984D02*
X13170420Y-14737508D01*
X13170420Y-14737508D02*
X13179944Y-14747031D01*
X13179944Y-14747031D02*
X13189467Y-14766079D01*
X13189467Y-14766079D02*
X13189467Y-14775603D01*
X13189467Y-14775603D02*
X13179944Y-14794650D01*
X13179944Y-14794650D02*
X13170420Y-14804174D01*
X13170420Y-14804174D02*
X13151372Y-14813698D01*
X13151372Y-14813698D02*
X13113277Y-14813698D01*
X13113277Y-14813698D02*
X13094229Y-14823222D01*
X13094229Y-14823222D02*
X13084706Y-14832746D01*
X13084706Y-14832746D02*
X13075182Y-14851793D01*
X13075182Y-14851793D02*
X13075182Y-14889888D01*
X13075182Y-14889888D02*
X13084706Y-14908936D01*
X13084706Y-14908936D02*
X13094229Y-14918460D01*
X13094229Y-14918460D02*
X13113277Y-14927984D01*
X13113277Y-14927984D02*
X13151372Y-14927984D01*
X13151372Y-14927984D02*
X13170420Y-14918460D01*
X13170420Y-14918460D02*
X13179944Y-14908936D01*
X13179944Y-14908936D02*
X13189467Y-14889888D01*
X13189467Y-14889888D02*
X13189467Y-14851793D01*
X13189467Y-14851793D02*
X13179944Y-14832746D01*
X13179944Y-14832746D02*
X13170420Y-14823222D01*
X13170420Y-14823222D02*
X13151372Y-14813698D01*
X13284706Y-14927984D02*
X13322801Y-14927984D01*
X13322801Y-14927984D02*
X13341848Y-14918460D01*
X13341848Y-14918460D02*
X13351372Y-14908936D01*
X13351372Y-14908936D02*
X13370420Y-14880365D01*
X13370420Y-14880365D02*
X13379944Y-14842269D01*
X13379944Y-14842269D02*
X13379944Y-14766079D01*
X13379944Y-14766079D02*
X13370420Y-14747031D01*
X13370420Y-14747031D02*
X13360896Y-14737508D01*
X13360896Y-14737508D02*
X13341848Y-14727984D01*
X13341848Y-14727984D02*
X13303753Y-14727984D01*
X13303753Y-14727984D02*
X13284706Y-14737508D01*
X13284706Y-14737508D02*
X13275182Y-14747031D01*
X13275182Y-14747031D02*
X13265658Y-14766079D01*
X13265658Y-14766079D02*
X13265658Y-14813698D01*
X13265658Y-14813698D02*
X13275182Y-14832746D01*
X13275182Y-14832746D02*
X13284706Y-14842269D01*
X13284706Y-14842269D02*
X13303753Y-14851793D01*
X13303753Y-14851793D02*
X13341848Y-14851793D01*
X13341848Y-14851793D02*
X13360896Y-14842269D01*
X13360896Y-14842269D02*
X13370420Y-14832746D01*
X13370420Y-14832746D02*
X13379944Y-14813698D01*
X13456134Y-14727984D02*
X13456134Y-14766079D01*
X13532325Y-14727984D02*
X13532325Y-14766079D01*
X13827563Y-15004174D02*
X13818039Y-14994650D01*
X13818039Y-14994650D02*
X13798991Y-14966079D01*
X13798991Y-14966079D02*
X13789468Y-14947031D01*
X13789468Y-14947031D02*
X13779944Y-14918460D01*
X13779944Y-14918460D02*
X13770420Y-14870841D01*
X13770420Y-14870841D02*
X13770420Y-14832746D01*
X13770420Y-14832746D02*
X13779944Y-14785127D01*
X13779944Y-14785127D02*
X13789468Y-14756555D01*
X13789468Y-14756555D02*
X13798991Y-14737508D01*
X13798991Y-14737508D02*
X13818039Y-14708936D01*
X13818039Y-14708936D02*
X13827563Y-14699412D01*
X14008515Y-14927984D02*
X13894229Y-14927984D01*
X13951372Y-14927984D02*
X13951372Y-14727984D01*
X13951372Y-14727984D02*
X13932325Y-14756555D01*
X13932325Y-14756555D02*
X13913277Y-14775603D01*
X13913277Y-14775603D02*
X13894229Y-14785127D01*
X14179944Y-14727984D02*
X14141848Y-14727984D01*
X14141848Y-14727984D02*
X14122801Y-14737508D01*
X14122801Y-14737508D02*
X14113277Y-14747031D01*
X14113277Y-14747031D02*
X14094229Y-14775603D01*
X14094229Y-14775603D02*
X14084706Y-14813698D01*
X14084706Y-14813698D02*
X14084706Y-14889888D01*
X14084706Y-14889888D02*
X14094229Y-14908936D01*
X14094229Y-14908936D02*
X14103753Y-14918460D01*
X14103753Y-14918460D02*
X14122801Y-14927984D01*
X14122801Y-14927984D02*
X14160896Y-14927984D01*
X14160896Y-14927984D02*
X14179944Y-14918460D01*
X14179944Y-14918460D02*
X14189468Y-14908936D01*
X14189468Y-14908936D02*
X14198991Y-14889888D01*
X14198991Y-14889888D02*
X14198991Y-14842269D01*
X14198991Y-14842269D02*
X14189468Y-14823222D01*
X14189468Y-14823222D02*
X14179944Y-14813698D01*
X14179944Y-14813698D02*
X14160896Y-14804174D01*
X14160896Y-14804174D02*
X14122801Y-14804174D01*
X14122801Y-14804174D02*
X14103753Y-14813698D01*
X14103753Y-14813698D02*
X14094229Y-14823222D01*
X14094229Y-14823222D02*
X14084706Y-14842269D01*
X14437087Y-14927984D02*
X14437087Y-14727984D01*
X14522801Y-14927984D02*
X14522801Y-14823222D01*
X14522801Y-14823222D02*
X14513277Y-14804174D01*
X14513277Y-14804174D02*
X14494230Y-14794650D01*
X14494230Y-14794650D02*
X14465658Y-14794650D01*
X14465658Y-14794650D02*
X14446610Y-14804174D01*
X14446610Y-14804174D02*
X14437087Y-14813698D01*
X14646610Y-14927984D02*
X14627563Y-14918460D01*
X14627563Y-14918460D02*
X14618039Y-14908936D01*
X14618039Y-14908936D02*
X14608515Y-14889888D01*
X14608515Y-14889888D02*
X14608515Y-14832746D01*
X14608515Y-14832746D02*
X14618039Y-14813698D01*
X14618039Y-14813698D02*
X14627563Y-14804174D01*
X14627563Y-14804174D02*
X14646610Y-14794650D01*
X14646610Y-14794650D02*
X14675182Y-14794650D01*
X14675182Y-14794650D02*
X14694230Y-14804174D01*
X14694230Y-14804174D02*
X14703753Y-14813698D01*
X14703753Y-14813698D02*
X14713277Y-14832746D01*
X14713277Y-14832746D02*
X14713277Y-14889888D01*
X14713277Y-14889888D02*
X14703753Y-14908936D01*
X14703753Y-14908936D02*
X14694230Y-14918460D01*
X14694230Y-14918460D02*
X14675182Y-14927984D01*
X14675182Y-14927984D02*
X14646610Y-14927984D01*
X14827563Y-14927984D02*
X14808515Y-14918460D01*
X14808515Y-14918460D02*
X14798991Y-14899412D01*
X14798991Y-14899412D02*
X14798991Y-14727984D01*
X14979944Y-14918460D02*
X14960896Y-14927984D01*
X14960896Y-14927984D02*
X14922801Y-14927984D01*
X14922801Y-14927984D02*
X14903753Y-14918460D01*
X14903753Y-14918460D02*
X14894230Y-14899412D01*
X14894230Y-14899412D02*
X14894230Y-14823222D01*
X14894230Y-14823222D02*
X14903753Y-14804174D01*
X14903753Y-14804174D02*
X14922801Y-14794650D01*
X14922801Y-14794650D02*
X14960896Y-14794650D01*
X14960896Y-14794650D02*
X14979944Y-14804174D01*
X14979944Y-14804174D02*
X14989468Y-14823222D01*
X14989468Y-14823222D02*
X14989468Y-14842269D01*
X14989468Y-14842269D02*
X14894230Y-14861317D01*
X15065658Y-14918460D02*
X15084706Y-14927984D01*
X15084706Y-14927984D02*
X15122801Y-14927984D01*
X15122801Y-14927984D02*
X15141849Y-14918460D01*
X15141849Y-14918460D02*
X15151372Y-14899412D01*
X15151372Y-14899412D02*
X15151372Y-14889888D01*
X15151372Y-14889888D02*
X15141849Y-14870841D01*
X15141849Y-14870841D02*
X15122801Y-14861317D01*
X15122801Y-14861317D02*
X15094230Y-14861317D01*
X15094230Y-14861317D02*
X15075182Y-14851793D01*
X15075182Y-14851793D02*
X15065658Y-14832746D01*
X15065658Y-14832746D02*
X15065658Y-14823222D01*
X15065658Y-14823222D02*
X15075182Y-14804174D01*
X15075182Y-14804174D02*
X15094230Y-14794650D01*
X15094230Y-14794650D02*
X15122801Y-14794650D01*
X15122801Y-14794650D02*
X15141849Y-14804174D01*
X15218039Y-15004174D02*
X15227563Y-14994650D01*
X15227563Y-14994650D02*
X15246611Y-14966079D01*
X15246611Y-14966079D02*
X15256134Y-14947031D01*
X15256134Y-14947031D02*
X15265658Y-14918460D01*
X15265658Y-14918460D02*
X15275182Y-14870841D01*
X15275182Y-14870841D02*
X15275182Y-14832746D01*
X15275182Y-14832746D02*
X15265658Y-14785127D01*
X15265658Y-14785127D02*
X15256134Y-14756555D01*
X15256134Y-14756555D02*
X15246611Y-14737508D01*
X15246611Y-14737508D02*
X15227563Y-14708936D01*
X15227563Y-14708936D02*
X15218039Y-14699412D01*
X15579944Y-15004174D02*
X15570420Y-14994650D01*
X15570420Y-14994650D02*
X15551372Y-14966079D01*
X15551372Y-14966079D02*
X15541849Y-14947031D01*
X15541849Y-14947031D02*
X15532325Y-14918460D01*
X15532325Y-14918460D02*
X15522801Y-14870841D01*
X15522801Y-14870841D02*
X15522801Y-14832746D01*
X15522801Y-14832746D02*
X15532325Y-14785127D01*
X15532325Y-14785127D02*
X15541849Y-14756555D01*
X15541849Y-14756555D02*
X15551372Y-14737508D01*
X15551372Y-14737508D02*
X15570420Y-14708936D01*
X15570420Y-14708936D02*
X15579944Y-14699412D01*
X15656134Y-14794650D02*
X15656134Y-14927984D01*
X15656134Y-14813698D02*
X15665658Y-14804174D01*
X15665658Y-14804174D02*
X15684706Y-14794650D01*
X15684706Y-14794650D02*
X15713277Y-14794650D01*
X15713277Y-14794650D02*
X15732325Y-14804174D01*
X15732325Y-14804174D02*
X15741849Y-14823222D01*
X15741849Y-14823222D02*
X15741849Y-14927984D01*
X15865658Y-14927984D02*
X15846611Y-14918460D01*
X15846611Y-14918460D02*
X15837087Y-14908936D01*
X15837087Y-14908936D02*
X15827563Y-14889888D01*
X15827563Y-14889888D02*
X15827563Y-14832746D01*
X15827563Y-14832746D02*
X15837087Y-14813698D01*
X15837087Y-14813698D02*
X15846611Y-14804174D01*
X15846611Y-14804174D02*
X15865658Y-14794650D01*
X15865658Y-14794650D02*
X15894230Y-14794650D01*
X15894230Y-14794650D02*
X15913277Y-14804174D01*
X15913277Y-14804174D02*
X15922801Y-14813698D01*
X15922801Y-14813698D02*
X15932325Y-14832746D01*
X15932325Y-14832746D02*
X15932325Y-14889888D01*
X15932325Y-14889888D02*
X15922801Y-14908936D01*
X15922801Y-14908936D02*
X15913277Y-14918460D01*
X15913277Y-14918460D02*
X15894230Y-14927984D01*
X15894230Y-14927984D02*
X15865658Y-14927984D01*
X15989468Y-14794650D02*
X16065658Y-14794650D01*
X16018039Y-14727984D02*
X16018039Y-14899412D01*
X16018039Y-14899412D02*
X16027563Y-14918460D01*
X16027563Y-14918460D02*
X16046611Y-14927984D01*
X16046611Y-14927984D02*
X16065658Y-14927984D01*
X16284706Y-14794650D02*
X16284706Y-14994650D01*
X16284706Y-14804174D02*
X16303753Y-14794650D01*
X16303753Y-14794650D02*
X16341849Y-14794650D01*
X16341849Y-14794650D02*
X16360896Y-14804174D01*
X16360896Y-14804174D02*
X16370420Y-14813698D01*
X16370420Y-14813698D02*
X16379944Y-14832746D01*
X16379944Y-14832746D02*
X16379944Y-14889888D01*
X16379944Y-14889888D02*
X16370420Y-14908936D01*
X16370420Y-14908936D02*
X16360896Y-14918460D01*
X16360896Y-14918460D02*
X16341849Y-14927984D01*
X16341849Y-14927984D02*
X16303753Y-14927984D01*
X16303753Y-14927984D02*
X16284706Y-14918460D01*
X16494230Y-14927984D02*
X16475182Y-14918460D01*
X16475182Y-14918460D02*
X16465658Y-14899412D01*
X16465658Y-14899412D02*
X16465658Y-14727984D01*
X16656134Y-14927984D02*
X16656134Y-14823222D01*
X16656134Y-14823222D02*
X16646611Y-14804174D01*
X16646611Y-14804174D02*
X16627563Y-14794650D01*
X16627563Y-14794650D02*
X16589468Y-14794650D01*
X16589468Y-14794650D02*
X16570420Y-14804174D01*
X16656134Y-14918460D02*
X16637087Y-14927984D01*
X16637087Y-14927984D02*
X16589468Y-14927984D01*
X16589468Y-14927984D02*
X16570420Y-14918460D01*
X16570420Y-14918460D02*
X16560896Y-14899412D01*
X16560896Y-14899412D02*
X16560896Y-14880365D01*
X16560896Y-14880365D02*
X16570420Y-14861317D01*
X16570420Y-14861317D02*
X16589468Y-14851793D01*
X16589468Y-14851793D02*
X16637087Y-14851793D01*
X16637087Y-14851793D02*
X16656134Y-14842269D01*
X16722801Y-14794650D02*
X16798992Y-14794650D01*
X16751373Y-14727984D02*
X16751373Y-14899412D01*
X16751373Y-14899412D02*
X16760896Y-14918460D01*
X16760896Y-14918460D02*
X16779944Y-14927984D01*
X16779944Y-14927984D02*
X16798992Y-14927984D01*
X16941849Y-14918460D02*
X16922801Y-14927984D01*
X16922801Y-14927984D02*
X16884706Y-14927984D01*
X16884706Y-14927984D02*
X16865658Y-14918460D01*
X16865658Y-14918460D02*
X16856135Y-14899412D01*
X16856135Y-14899412D02*
X16856135Y-14823222D01*
X16856135Y-14823222D02*
X16865658Y-14804174D01*
X16865658Y-14804174D02*
X16884706Y-14794650D01*
X16884706Y-14794650D02*
X16922801Y-14794650D01*
X16922801Y-14794650D02*
X16941849Y-14804174D01*
X16941849Y-14804174D02*
X16951373Y-14823222D01*
X16951373Y-14823222D02*
X16951373Y-14842269D01*
X16951373Y-14842269D02*
X16856135Y-14861317D01*
X17122801Y-14927984D02*
X17122801Y-14727984D01*
X17122801Y-14918460D02*
X17103754Y-14927984D01*
X17103754Y-14927984D02*
X17065658Y-14927984D01*
X17065658Y-14927984D02*
X17046611Y-14918460D01*
X17046611Y-14918460D02*
X17037087Y-14908936D01*
X17037087Y-14908936D02*
X17027563Y-14889888D01*
X17027563Y-14889888D02*
X17027563Y-14832746D01*
X17027563Y-14832746D02*
X17037087Y-14813698D01*
X17037087Y-14813698D02*
X17046611Y-14804174D01*
X17046611Y-14804174D02*
X17065658Y-14794650D01*
X17065658Y-14794650D02*
X17103754Y-14794650D01*
X17103754Y-14794650D02*
X17122801Y-14804174D01*
X17198992Y-15004174D02*
X17208516Y-14994650D01*
X17208516Y-14994650D02*
X17227563Y-14966079D01*
X17227563Y-14966079D02*
X17237087Y-14947031D01*
X17237087Y-14947031D02*
X17246611Y-14918460D01*
X17246611Y-14918460D02*
X17256135Y-14870841D01*
X17256135Y-14870841D02*
X17256135Y-14832746D01*
X17256135Y-14832746D02*
X17246611Y-14785127D01*
X17246611Y-14785127D02*
X17237087Y-14756555D01*
X17237087Y-14756555D02*
X17227563Y-14737508D01*
X17227563Y-14737508D02*
X17208516Y-14708936D01*
X17208516Y-14708936D02*
X17198992Y-14699412D01*
D14*
X10162500Y-15041500D02*
X10162500Y-15221500D01*
X10072500Y-15131500D02*
X10252500Y-15131500D01*
D11*
X10618039Y-15222984D02*
X10503753Y-15222984D01*
X10560896Y-15222984D02*
X10560896Y-15022984D01*
X10560896Y-15022984D02*
X10541848Y-15051555D01*
X10541848Y-15051555D02*
X10522801Y-15070603D01*
X10522801Y-15070603D02*
X10503753Y-15080127D01*
X10703753Y-15203936D02*
X10713277Y-15213460D01*
X10713277Y-15213460D02*
X10703753Y-15222984D01*
X10703753Y-15222984D02*
X10694229Y-15213460D01*
X10694229Y-15213460D02*
X10703753Y-15203936D01*
X10703753Y-15203936D02*
X10703753Y-15222984D01*
X10827563Y-15108698D02*
X10808515Y-15099174D01*
X10808515Y-15099174D02*
X10798991Y-15089650D01*
X10798991Y-15089650D02*
X10789467Y-15070603D01*
X10789467Y-15070603D02*
X10789467Y-15061079D01*
X10789467Y-15061079D02*
X10798991Y-15042031D01*
X10798991Y-15042031D02*
X10808515Y-15032508D01*
X10808515Y-15032508D02*
X10827563Y-15022984D01*
X10827563Y-15022984D02*
X10865658Y-15022984D01*
X10865658Y-15022984D02*
X10884705Y-15032508D01*
X10884705Y-15032508D02*
X10894229Y-15042031D01*
X10894229Y-15042031D02*
X10903753Y-15061079D01*
X10903753Y-15061079D02*
X10903753Y-15070603D01*
X10903753Y-15070603D02*
X10894229Y-15089650D01*
X10894229Y-15089650D02*
X10884705Y-15099174D01*
X10884705Y-15099174D02*
X10865658Y-15108698D01*
X10865658Y-15108698D02*
X10827563Y-15108698D01*
X10827563Y-15108698D02*
X10808515Y-15118222D01*
X10808515Y-15118222D02*
X10798991Y-15127746D01*
X10798991Y-15127746D02*
X10789467Y-15146793D01*
X10789467Y-15146793D02*
X10789467Y-15184888D01*
X10789467Y-15184888D02*
X10798991Y-15203936D01*
X10798991Y-15203936D02*
X10808515Y-15213460D01*
X10808515Y-15213460D02*
X10827563Y-15222984D01*
X10827563Y-15222984D02*
X10865658Y-15222984D01*
X10865658Y-15222984D02*
X10884705Y-15213460D01*
X10884705Y-15213460D02*
X10894229Y-15203936D01*
X10894229Y-15203936D02*
X10903753Y-15184888D01*
X10903753Y-15184888D02*
X10903753Y-15146793D01*
X10903753Y-15146793D02*
X10894229Y-15127746D01*
X10894229Y-15127746D02*
X10884705Y-15118222D01*
X10884705Y-15118222D02*
X10865658Y-15108698D01*
X11027563Y-15022984D02*
X11046610Y-15022984D01*
X11046610Y-15022984D02*
X11065658Y-15032508D01*
X11065658Y-15032508D02*
X11075182Y-15042031D01*
X11075182Y-15042031D02*
X11084705Y-15061079D01*
X11084705Y-15061079D02*
X11094229Y-15099174D01*
X11094229Y-15099174D02*
X11094229Y-15146793D01*
X11094229Y-15146793D02*
X11084705Y-15184888D01*
X11084705Y-15184888D02*
X11075182Y-15203936D01*
X11075182Y-15203936D02*
X11065658Y-15213460D01*
X11065658Y-15213460D02*
X11046610Y-15222984D01*
X11046610Y-15222984D02*
X11027563Y-15222984D01*
X11027563Y-15222984D02*
X11008515Y-15213460D01*
X11008515Y-15213460D02*
X10998991Y-15203936D01*
X10998991Y-15203936D02*
X10989467Y-15184888D01*
X10989467Y-15184888D02*
X10979944Y-15146793D01*
X10979944Y-15146793D02*
X10979944Y-15099174D01*
X10979944Y-15099174D02*
X10989467Y-15061079D01*
X10989467Y-15061079D02*
X10998991Y-15042031D01*
X10998991Y-15042031D02*
X11008515Y-15032508D01*
X11008515Y-15032508D02*
X11027563Y-15022984D01*
X11218039Y-15022984D02*
X11237086Y-15022984D01*
X11237086Y-15022984D02*
X11256134Y-15032508D01*
X11256134Y-15032508D02*
X11265658Y-15042031D01*
X11265658Y-15042031D02*
X11275182Y-15061079D01*
X11275182Y-15061079D02*
X11284705Y-15099174D01*
X11284705Y-15099174D02*
X11284705Y-15146793D01*
X11284705Y-15146793D02*
X11275182Y-15184888D01*
X11275182Y-15184888D02*
X11265658Y-15203936D01*
X11265658Y-15203936D02*
X11256134Y-15213460D01*
X11256134Y-15213460D02*
X11237086Y-15222984D01*
X11237086Y-15222984D02*
X11218039Y-15222984D01*
X11218039Y-15222984D02*
X11198991Y-15213460D01*
X11198991Y-15213460D02*
X11189467Y-15203936D01*
X11189467Y-15203936D02*
X11179944Y-15184888D01*
X11179944Y-15184888D02*
X11170420Y-15146793D01*
X11170420Y-15146793D02*
X11170420Y-15099174D01*
X11170420Y-15099174D02*
X11179944Y-15061079D01*
X11179944Y-15061079D02*
X11189467Y-15042031D01*
X11189467Y-15042031D02*
X11198991Y-15032508D01*
X11198991Y-15032508D02*
X11218039Y-15022984D01*
X11370420Y-15222984D02*
X11370420Y-15089650D01*
X11370420Y-15108698D02*
X11379943Y-15099174D01*
X11379943Y-15099174D02*
X11398991Y-15089650D01*
X11398991Y-15089650D02*
X11427563Y-15089650D01*
X11427563Y-15089650D02*
X11446610Y-15099174D01*
X11446610Y-15099174D02*
X11456134Y-15118222D01*
X11456134Y-15118222D02*
X11456134Y-15222984D01*
X11456134Y-15118222D02*
X11465658Y-15099174D01*
X11465658Y-15099174D02*
X11484705Y-15089650D01*
X11484705Y-15089650D02*
X11513277Y-15089650D01*
X11513277Y-15089650D02*
X11532324Y-15099174D01*
X11532324Y-15099174D02*
X11541848Y-15118222D01*
X11541848Y-15118222D02*
X11541848Y-15222984D01*
X11637086Y-15222984D02*
X11637086Y-15089650D01*
X11637086Y-15108698D02*
X11646610Y-15099174D01*
X11646610Y-15099174D02*
X11665658Y-15089650D01*
X11665658Y-15089650D02*
X11694229Y-15089650D01*
X11694229Y-15089650D02*
X11713277Y-15099174D01*
X11713277Y-15099174D02*
X11722801Y-15118222D01*
X11722801Y-15118222D02*
X11722801Y-15222984D01*
X11722801Y-15118222D02*
X11732324Y-15099174D01*
X11732324Y-15099174D02*
X11751372Y-15089650D01*
X11751372Y-15089650D02*
X11779943Y-15089650D01*
X11779943Y-15089650D02*
X11798991Y-15099174D01*
X11798991Y-15099174D02*
X11808515Y-15118222D01*
X11808515Y-15118222D02*
X11808515Y-15222984D01*
X12198991Y-15013460D02*
X12027563Y-15270603D01*
X12456134Y-15022984D02*
X12475182Y-15022984D01*
X12475182Y-15022984D02*
X12494229Y-15032508D01*
X12494229Y-15032508D02*
X12503753Y-15042031D01*
X12503753Y-15042031D02*
X12513277Y-15061079D01*
X12513277Y-15061079D02*
X12522801Y-15099174D01*
X12522801Y-15099174D02*
X12522801Y-15146793D01*
X12522801Y-15146793D02*
X12513277Y-15184888D01*
X12513277Y-15184888D02*
X12503753Y-15203936D01*
X12503753Y-15203936D02*
X12494229Y-15213460D01*
X12494229Y-15213460D02*
X12475182Y-15222984D01*
X12475182Y-15222984D02*
X12456134Y-15222984D01*
X12456134Y-15222984D02*
X12437086Y-15213460D01*
X12437086Y-15213460D02*
X12427563Y-15203936D01*
X12427563Y-15203936D02*
X12418039Y-15184888D01*
X12418039Y-15184888D02*
X12408515Y-15146793D01*
X12408515Y-15146793D02*
X12408515Y-15099174D01*
X12408515Y-15099174D02*
X12418039Y-15061079D01*
X12418039Y-15061079D02*
X12427563Y-15042031D01*
X12427563Y-15042031D02*
X12437086Y-15032508D01*
X12437086Y-15032508D02*
X12456134Y-15022984D01*
X12608515Y-15203936D02*
X12618039Y-15213460D01*
X12618039Y-15213460D02*
X12608515Y-15222984D01*
X12608515Y-15222984D02*
X12598991Y-15213460D01*
X12598991Y-15213460D02*
X12608515Y-15203936D01*
X12608515Y-15203936D02*
X12608515Y-15222984D01*
X12741848Y-15022984D02*
X12760896Y-15022984D01*
X12760896Y-15022984D02*
X12779944Y-15032508D01*
X12779944Y-15032508D02*
X12789467Y-15042031D01*
X12789467Y-15042031D02*
X12798991Y-15061079D01*
X12798991Y-15061079D02*
X12808515Y-15099174D01*
X12808515Y-15099174D02*
X12808515Y-15146793D01*
X12808515Y-15146793D02*
X12798991Y-15184888D01*
X12798991Y-15184888D02*
X12789467Y-15203936D01*
X12789467Y-15203936D02*
X12779944Y-15213460D01*
X12779944Y-15213460D02*
X12760896Y-15222984D01*
X12760896Y-15222984D02*
X12741848Y-15222984D01*
X12741848Y-15222984D02*
X12722801Y-15213460D01*
X12722801Y-15213460D02*
X12713277Y-15203936D01*
X12713277Y-15203936D02*
X12703753Y-15184888D01*
X12703753Y-15184888D02*
X12694229Y-15146793D01*
X12694229Y-15146793D02*
X12694229Y-15099174D01*
X12694229Y-15099174D02*
X12703753Y-15061079D01*
X12703753Y-15061079D02*
X12713277Y-15042031D01*
X12713277Y-15042031D02*
X12722801Y-15032508D01*
X12722801Y-15032508D02*
X12741848Y-15022984D01*
X12875182Y-15022984D02*
X13008515Y-15022984D01*
X13008515Y-15022984D02*
X12922801Y-15222984D01*
X13122801Y-15022984D02*
X13141848Y-15022984D01*
X13141848Y-15022984D02*
X13160896Y-15032508D01*
X13160896Y-15032508D02*
X13170420Y-15042031D01*
X13170420Y-15042031D02*
X13179944Y-15061079D01*
X13179944Y-15061079D02*
X13189467Y-15099174D01*
X13189467Y-15099174D02*
X13189467Y-15146793D01*
X13189467Y-15146793D02*
X13179944Y-15184888D01*
X13179944Y-15184888D02*
X13170420Y-15203936D01*
X13170420Y-15203936D02*
X13160896Y-15213460D01*
X13160896Y-15213460D02*
X13141848Y-15222984D01*
X13141848Y-15222984D02*
X13122801Y-15222984D01*
X13122801Y-15222984D02*
X13103753Y-15213460D01*
X13103753Y-15213460D02*
X13094229Y-15203936D01*
X13094229Y-15203936D02*
X13084706Y-15184888D01*
X13084706Y-15184888D02*
X13075182Y-15146793D01*
X13075182Y-15146793D02*
X13075182Y-15099174D01*
X13075182Y-15099174D02*
X13084706Y-15061079D01*
X13084706Y-15061079D02*
X13094229Y-15042031D01*
X13094229Y-15042031D02*
X13103753Y-15032508D01*
X13103753Y-15032508D02*
X13122801Y-15022984D01*
X13284706Y-15222984D02*
X13322801Y-15222984D01*
X13322801Y-15222984D02*
X13341848Y-15213460D01*
X13341848Y-15213460D02*
X13351372Y-15203936D01*
X13351372Y-15203936D02*
X13370420Y-15175365D01*
X13370420Y-15175365D02*
X13379944Y-15137269D01*
X13379944Y-15137269D02*
X13379944Y-15061079D01*
X13379944Y-15061079D02*
X13370420Y-15042031D01*
X13370420Y-15042031D02*
X13360896Y-15032508D01*
X13360896Y-15032508D02*
X13341848Y-15022984D01*
X13341848Y-15022984D02*
X13303753Y-15022984D01*
X13303753Y-15022984D02*
X13284706Y-15032508D01*
X13284706Y-15032508D02*
X13275182Y-15042031D01*
X13275182Y-15042031D02*
X13265658Y-15061079D01*
X13265658Y-15061079D02*
X13265658Y-15108698D01*
X13265658Y-15108698D02*
X13275182Y-15127746D01*
X13275182Y-15127746D02*
X13284706Y-15137269D01*
X13284706Y-15137269D02*
X13303753Y-15146793D01*
X13303753Y-15146793D02*
X13341848Y-15146793D01*
X13341848Y-15146793D02*
X13360896Y-15137269D01*
X13360896Y-15137269D02*
X13370420Y-15127746D01*
X13370420Y-15127746D02*
X13379944Y-15108698D01*
X13456134Y-15022984D02*
X13456134Y-15061079D01*
X13532325Y-15022984D02*
X13532325Y-15061079D01*
X13827563Y-15299174D02*
X13818039Y-15289650D01*
X13818039Y-15289650D02*
X13798991Y-15261079D01*
X13798991Y-15261079D02*
X13789468Y-15242031D01*
X13789468Y-15242031D02*
X13779944Y-15213460D01*
X13779944Y-15213460D02*
X13770420Y-15165841D01*
X13770420Y-15165841D02*
X13770420Y-15127746D01*
X13770420Y-15127746D02*
X13779944Y-15080127D01*
X13779944Y-15080127D02*
X13789468Y-15051555D01*
X13789468Y-15051555D02*
X13798991Y-15032508D01*
X13798991Y-15032508D02*
X13818039Y-15003936D01*
X13818039Y-15003936D02*
X13827563Y-14994412D01*
X13932325Y-15108698D02*
X13913277Y-15099174D01*
X13913277Y-15099174D02*
X13903753Y-15089650D01*
X13903753Y-15089650D02*
X13894229Y-15070603D01*
X13894229Y-15070603D02*
X13894229Y-15061079D01*
X13894229Y-15061079D02*
X13903753Y-15042031D01*
X13903753Y-15042031D02*
X13913277Y-15032508D01*
X13913277Y-15032508D02*
X13932325Y-15022984D01*
X13932325Y-15022984D02*
X13970420Y-15022984D01*
X13970420Y-15022984D02*
X13989468Y-15032508D01*
X13989468Y-15032508D02*
X13998991Y-15042031D01*
X13998991Y-15042031D02*
X14008515Y-15061079D01*
X14008515Y-15061079D02*
X14008515Y-15070603D01*
X14008515Y-15070603D02*
X13998991Y-15089650D01*
X13998991Y-15089650D02*
X13989468Y-15099174D01*
X13989468Y-15099174D02*
X13970420Y-15108698D01*
X13970420Y-15108698D02*
X13932325Y-15108698D01*
X13932325Y-15108698D02*
X13913277Y-15118222D01*
X13913277Y-15118222D02*
X13903753Y-15127746D01*
X13903753Y-15127746D02*
X13894229Y-15146793D01*
X13894229Y-15146793D02*
X13894229Y-15184888D01*
X13894229Y-15184888D02*
X13903753Y-15203936D01*
X13903753Y-15203936D02*
X13913277Y-15213460D01*
X13913277Y-15213460D02*
X13932325Y-15222984D01*
X13932325Y-15222984D02*
X13970420Y-15222984D01*
X13970420Y-15222984D02*
X13989468Y-15213460D01*
X13989468Y-15213460D02*
X13998991Y-15203936D01*
X13998991Y-15203936D02*
X14008515Y-15184888D01*
X14008515Y-15184888D02*
X14008515Y-15146793D01*
X14008515Y-15146793D02*
X13998991Y-15127746D01*
X13998991Y-15127746D02*
X13989468Y-15118222D01*
X13989468Y-15118222D02*
X13970420Y-15108698D01*
X14246610Y-15222984D02*
X14246610Y-15022984D01*
X14332325Y-15222984D02*
X14332325Y-15118222D01*
X14332325Y-15118222D02*
X14322801Y-15099174D01*
X14322801Y-15099174D02*
X14303753Y-15089650D01*
X14303753Y-15089650D02*
X14275182Y-15089650D01*
X14275182Y-15089650D02*
X14256134Y-15099174D01*
X14256134Y-15099174D02*
X14246610Y-15108698D01*
X14456134Y-15222984D02*
X14437087Y-15213460D01*
X14437087Y-15213460D02*
X14427563Y-15203936D01*
X14427563Y-15203936D02*
X14418039Y-15184888D01*
X14418039Y-15184888D02*
X14418039Y-15127746D01*
X14418039Y-15127746D02*
X14427563Y-15108698D01*
X14427563Y-15108698D02*
X14437087Y-15099174D01*
X14437087Y-15099174D02*
X14456134Y-15089650D01*
X14456134Y-15089650D02*
X14484706Y-15089650D01*
X14484706Y-15089650D02*
X14503753Y-15099174D01*
X14503753Y-15099174D02*
X14513277Y-15108698D01*
X14513277Y-15108698D02*
X14522801Y-15127746D01*
X14522801Y-15127746D02*
X14522801Y-15184888D01*
X14522801Y-15184888D02*
X14513277Y-15203936D01*
X14513277Y-15203936D02*
X14503753Y-15213460D01*
X14503753Y-15213460D02*
X14484706Y-15222984D01*
X14484706Y-15222984D02*
X14456134Y-15222984D01*
X14637087Y-15222984D02*
X14618039Y-15213460D01*
X14618039Y-15213460D02*
X14608515Y-15194412D01*
X14608515Y-15194412D02*
X14608515Y-15022984D01*
X14789468Y-15213460D02*
X14770420Y-15222984D01*
X14770420Y-15222984D02*
X14732325Y-15222984D01*
X14732325Y-15222984D02*
X14713277Y-15213460D01*
X14713277Y-15213460D02*
X14703753Y-15194412D01*
X14703753Y-15194412D02*
X14703753Y-15118222D01*
X14703753Y-15118222D02*
X14713277Y-15099174D01*
X14713277Y-15099174D02*
X14732325Y-15089650D01*
X14732325Y-15089650D02*
X14770420Y-15089650D01*
X14770420Y-15089650D02*
X14789468Y-15099174D01*
X14789468Y-15099174D02*
X14798991Y-15118222D01*
X14798991Y-15118222D02*
X14798991Y-15137269D01*
X14798991Y-15137269D02*
X14703753Y-15156317D01*
X14875182Y-15213460D02*
X14894230Y-15222984D01*
X14894230Y-15222984D02*
X14932325Y-15222984D01*
X14932325Y-15222984D02*
X14951372Y-15213460D01*
X14951372Y-15213460D02*
X14960896Y-15194412D01*
X14960896Y-15194412D02*
X14960896Y-15184888D01*
X14960896Y-15184888D02*
X14951372Y-15165841D01*
X14951372Y-15165841D02*
X14932325Y-15156317D01*
X14932325Y-15156317D02*
X14903753Y-15156317D01*
X14903753Y-15156317D02*
X14884706Y-15146793D01*
X14884706Y-15146793D02*
X14875182Y-15127746D01*
X14875182Y-15127746D02*
X14875182Y-15118222D01*
X14875182Y-15118222D02*
X14884706Y-15099174D01*
X14884706Y-15099174D02*
X14903753Y-15089650D01*
X14903753Y-15089650D02*
X14932325Y-15089650D01*
X14932325Y-15089650D02*
X14951372Y-15099174D01*
X15027563Y-15299174D02*
X15037087Y-15289650D01*
X15037087Y-15289650D02*
X15056134Y-15261079D01*
X15056134Y-15261079D02*
X15065658Y-15242031D01*
X15065658Y-15242031D02*
X15075182Y-15213460D01*
X15075182Y-15213460D02*
X15084706Y-15165841D01*
X15084706Y-15165841D02*
X15084706Y-15127746D01*
X15084706Y-15127746D02*
X15075182Y-15080127D01*
X15075182Y-15080127D02*
X15065658Y-15051555D01*
X15065658Y-15051555D02*
X15056134Y-15032508D01*
X15056134Y-15032508D02*
X15037087Y-15003936D01*
X15037087Y-15003936D02*
X15027563Y-14994412D01*
X15389468Y-15299174D02*
X15379944Y-15289650D01*
X15379944Y-15289650D02*
X15360896Y-15261079D01*
X15360896Y-15261079D02*
X15351372Y-15242031D01*
X15351372Y-15242031D02*
X15341849Y-15213460D01*
X15341849Y-15213460D02*
X15332325Y-15165841D01*
X15332325Y-15165841D02*
X15332325Y-15127746D01*
X15332325Y-15127746D02*
X15341849Y-15080127D01*
X15341849Y-15080127D02*
X15351372Y-15051555D01*
X15351372Y-15051555D02*
X15360896Y-15032508D01*
X15360896Y-15032508D02*
X15379944Y-15003936D01*
X15379944Y-15003936D02*
X15389468Y-14994412D01*
X15465658Y-15089650D02*
X15465658Y-15222984D01*
X15465658Y-15108698D02*
X15475182Y-15099174D01*
X15475182Y-15099174D02*
X15494230Y-15089650D01*
X15494230Y-15089650D02*
X15522801Y-15089650D01*
X15522801Y-15089650D02*
X15541849Y-15099174D01*
X15541849Y-15099174D02*
X15551372Y-15118222D01*
X15551372Y-15118222D02*
X15551372Y-15222984D01*
X15675182Y-15222984D02*
X15656134Y-15213460D01*
X15656134Y-15213460D02*
X15646611Y-15203936D01*
X15646611Y-15203936D02*
X15637087Y-15184888D01*
X15637087Y-15184888D02*
X15637087Y-15127746D01*
X15637087Y-15127746D02*
X15646611Y-15108698D01*
X15646611Y-15108698D02*
X15656134Y-15099174D01*
X15656134Y-15099174D02*
X15675182Y-15089650D01*
X15675182Y-15089650D02*
X15703753Y-15089650D01*
X15703753Y-15089650D02*
X15722801Y-15099174D01*
X15722801Y-15099174D02*
X15732325Y-15108698D01*
X15732325Y-15108698D02*
X15741849Y-15127746D01*
X15741849Y-15127746D02*
X15741849Y-15184888D01*
X15741849Y-15184888D02*
X15732325Y-15203936D01*
X15732325Y-15203936D02*
X15722801Y-15213460D01*
X15722801Y-15213460D02*
X15703753Y-15222984D01*
X15703753Y-15222984D02*
X15675182Y-15222984D01*
X15798992Y-15089650D02*
X15875182Y-15089650D01*
X15827563Y-15022984D02*
X15827563Y-15194412D01*
X15827563Y-15194412D02*
X15837087Y-15213460D01*
X15837087Y-15213460D02*
X15856134Y-15222984D01*
X15856134Y-15222984D02*
X15875182Y-15222984D01*
X16094230Y-15089650D02*
X16094230Y-15289650D01*
X16094230Y-15099174D02*
X16113277Y-15089650D01*
X16113277Y-15089650D02*
X16151373Y-15089650D01*
X16151373Y-15089650D02*
X16170420Y-15099174D01*
X16170420Y-15099174D02*
X16179944Y-15108698D01*
X16179944Y-15108698D02*
X16189468Y-15127746D01*
X16189468Y-15127746D02*
X16189468Y-15184888D01*
X16189468Y-15184888D02*
X16179944Y-15203936D01*
X16179944Y-15203936D02*
X16170420Y-15213460D01*
X16170420Y-15213460D02*
X16151373Y-15222984D01*
X16151373Y-15222984D02*
X16113277Y-15222984D01*
X16113277Y-15222984D02*
X16094230Y-15213460D01*
X16303753Y-15222984D02*
X16284706Y-15213460D01*
X16284706Y-15213460D02*
X16275182Y-15194412D01*
X16275182Y-15194412D02*
X16275182Y-15022984D01*
X16465658Y-15222984D02*
X16465658Y-15118222D01*
X16465658Y-15118222D02*
X16456134Y-15099174D01*
X16456134Y-15099174D02*
X16437087Y-15089650D01*
X16437087Y-15089650D02*
X16398992Y-15089650D01*
X16398992Y-15089650D02*
X16379944Y-15099174D01*
X16465658Y-15213460D02*
X16446611Y-15222984D01*
X16446611Y-15222984D02*
X16398992Y-15222984D01*
X16398992Y-15222984D02*
X16379944Y-15213460D01*
X16379944Y-15213460D02*
X16370420Y-15194412D01*
X16370420Y-15194412D02*
X16370420Y-15175365D01*
X16370420Y-15175365D02*
X16379944Y-15156317D01*
X16379944Y-15156317D02*
X16398992Y-15146793D01*
X16398992Y-15146793D02*
X16446611Y-15146793D01*
X16446611Y-15146793D02*
X16465658Y-15137269D01*
X16532325Y-15089650D02*
X16608515Y-15089650D01*
X16560896Y-15022984D02*
X16560896Y-15194412D01*
X16560896Y-15194412D02*
X16570420Y-15213460D01*
X16570420Y-15213460D02*
X16589468Y-15222984D01*
X16589468Y-15222984D02*
X16608515Y-15222984D01*
X16751373Y-15213460D02*
X16732325Y-15222984D01*
X16732325Y-15222984D02*
X16694230Y-15222984D01*
X16694230Y-15222984D02*
X16675182Y-15213460D01*
X16675182Y-15213460D02*
X16665658Y-15194412D01*
X16665658Y-15194412D02*
X16665658Y-15118222D01*
X16665658Y-15118222D02*
X16675182Y-15099174D01*
X16675182Y-15099174D02*
X16694230Y-15089650D01*
X16694230Y-15089650D02*
X16732325Y-15089650D01*
X16732325Y-15089650D02*
X16751373Y-15099174D01*
X16751373Y-15099174D02*
X16760896Y-15118222D01*
X16760896Y-15118222D02*
X16760896Y-15137269D01*
X16760896Y-15137269D02*
X16665658Y-15156317D01*
X16932325Y-15222984D02*
X16932325Y-15022984D01*
X16932325Y-15213460D02*
X16913277Y-15222984D01*
X16913277Y-15222984D02*
X16875182Y-15222984D01*
X16875182Y-15222984D02*
X16856135Y-15213460D01*
X16856135Y-15213460D02*
X16846611Y-15203936D01*
X16846611Y-15203936D02*
X16837087Y-15184888D01*
X16837087Y-15184888D02*
X16837087Y-15127746D01*
X16837087Y-15127746D02*
X16846611Y-15108698D01*
X16846611Y-15108698D02*
X16856135Y-15099174D01*
X16856135Y-15099174D02*
X16875182Y-15089650D01*
X16875182Y-15089650D02*
X16913277Y-15089650D01*
X16913277Y-15089650D02*
X16932325Y-15099174D01*
X17008516Y-15299174D02*
X17018039Y-15289650D01*
X17018039Y-15289650D02*
X17037087Y-15261079D01*
X17037087Y-15261079D02*
X17046611Y-15242031D01*
X17046611Y-15242031D02*
X17056135Y-15213460D01*
X17056135Y-15213460D02*
X17065658Y-15165841D01*
X17065658Y-15165841D02*
X17065658Y-15127746D01*
X17065658Y-15127746D02*
X17056135Y-15080127D01*
X17056135Y-15080127D02*
X17046611Y-15051555D01*
X17046611Y-15051555D02*
X17037087Y-15032508D01*
X17037087Y-15032508D02*
X17018039Y-15003936D01*
X17018039Y-15003936D02*
X17008516Y-14994412D01*
X10223211Y-15502211D02*
X10223211Y-15360789D01*
X10081789Y-15360789D01*
X10081789Y-15502211D01*
X10223211Y-15502211D01*
X10494229Y-15322984D02*
X10618039Y-15322984D01*
X10618039Y-15322984D02*
X10551372Y-15399174D01*
X10551372Y-15399174D02*
X10579944Y-15399174D01*
X10579944Y-15399174D02*
X10598991Y-15408698D01*
X10598991Y-15408698D02*
X10608515Y-15418222D01*
X10608515Y-15418222D02*
X10618039Y-15437269D01*
X10618039Y-15437269D02*
X10618039Y-15484888D01*
X10618039Y-15484888D02*
X10608515Y-15503936D01*
X10608515Y-15503936D02*
X10598991Y-15513460D01*
X10598991Y-15513460D02*
X10579944Y-15522984D01*
X10579944Y-15522984D02*
X10522801Y-15522984D01*
X10522801Y-15522984D02*
X10503753Y-15513460D01*
X10503753Y-15513460D02*
X10494229Y-15503936D01*
X10703753Y-15503936D02*
X10713277Y-15513460D01*
X10713277Y-15513460D02*
X10703753Y-15522984D01*
X10703753Y-15522984D02*
X10694229Y-15513460D01*
X10694229Y-15513460D02*
X10703753Y-15503936D01*
X10703753Y-15503936D02*
X10703753Y-15522984D01*
X10789467Y-15342031D02*
X10798991Y-15332508D01*
X10798991Y-15332508D02*
X10818039Y-15322984D01*
X10818039Y-15322984D02*
X10865658Y-15322984D01*
X10865658Y-15322984D02*
X10884705Y-15332508D01*
X10884705Y-15332508D02*
X10894229Y-15342031D01*
X10894229Y-15342031D02*
X10903753Y-15361079D01*
X10903753Y-15361079D02*
X10903753Y-15380127D01*
X10903753Y-15380127D02*
X10894229Y-15408698D01*
X10894229Y-15408698D02*
X10779944Y-15522984D01*
X10779944Y-15522984D02*
X10903753Y-15522984D01*
X11027563Y-15322984D02*
X11046610Y-15322984D01*
X11046610Y-15322984D02*
X11065658Y-15332508D01*
X11065658Y-15332508D02*
X11075182Y-15342031D01*
X11075182Y-15342031D02*
X11084705Y-15361079D01*
X11084705Y-15361079D02*
X11094229Y-15399174D01*
X11094229Y-15399174D02*
X11094229Y-15446793D01*
X11094229Y-15446793D02*
X11084705Y-15484888D01*
X11084705Y-15484888D02*
X11075182Y-15503936D01*
X11075182Y-15503936D02*
X11065658Y-15513460D01*
X11065658Y-15513460D02*
X11046610Y-15522984D01*
X11046610Y-15522984D02*
X11027563Y-15522984D01*
X11027563Y-15522984D02*
X11008515Y-15513460D01*
X11008515Y-15513460D02*
X10998991Y-15503936D01*
X10998991Y-15503936D02*
X10989467Y-15484888D01*
X10989467Y-15484888D02*
X10979944Y-15446793D01*
X10979944Y-15446793D02*
X10979944Y-15399174D01*
X10979944Y-15399174D02*
X10989467Y-15361079D01*
X10989467Y-15361079D02*
X10998991Y-15342031D01*
X10998991Y-15342031D02*
X11008515Y-15332508D01*
X11008515Y-15332508D02*
X11027563Y-15322984D01*
X11218039Y-15322984D02*
X11237086Y-15322984D01*
X11237086Y-15322984D02*
X11256134Y-15332508D01*
X11256134Y-15332508D02*
X11265658Y-15342031D01*
X11265658Y-15342031D02*
X11275182Y-15361079D01*
X11275182Y-15361079D02*
X11284705Y-15399174D01*
X11284705Y-15399174D02*
X11284705Y-15446793D01*
X11284705Y-15446793D02*
X11275182Y-15484888D01*
X11275182Y-15484888D02*
X11265658Y-15503936D01*
X11265658Y-15503936D02*
X11256134Y-15513460D01*
X11256134Y-15513460D02*
X11237086Y-15522984D01*
X11237086Y-15522984D02*
X11218039Y-15522984D01*
X11218039Y-15522984D02*
X11198991Y-15513460D01*
X11198991Y-15513460D02*
X11189467Y-15503936D01*
X11189467Y-15503936D02*
X11179944Y-15484888D01*
X11179944Y-15484888D02*
X11170420Y-15446793D01*
X11170420Y-15446793D02*
X11170420Y-15399174D01*
X11170420Y-15399174D02*
X11179944Y-15361079D01*
X11179944Y-15361079D02*
X11189467Y-15342031D01*
X11189467Y-15342031D02*
X11198991Y-15332508D01*
X11198991Y-15332508D02*
X11218039Y-15322984D01*
X11370420Y-15522984D02*
X11370420Y-15389650D01*
X11370420Y-15408698D02*
X11379943Y-15399174D01*
X11379943Y-15399174D02*
X11398991Y-15389650D01*
X11398991Y-15389650D02*
X11427563Y-15389650D01*
X11427563Y-15389650D02*
X11446610Y-15399174D01*
X11446610Y-15399174D02*
X11456134Y-15418222D01*
X11456134Y-15418222D02*
X11456134Y-15522984D01*
X11456134Y-15418222D02*
X11465658Y-15399174D01*
X11465658Y-15399174D02*
X11484705Y-15389650D01*
X11484705Y-15389650D02*
X11513277Y-15389650D01*
X11513277Y-15389650D02*
X11532324Y-15399174D01*
X11532324Y-15399174D02*
X11541848Y-15418222D01*
X11541848Y-15418222D02*
X11541848Y-15522984D01*
X11637086Y-15522984D02*
X11637086Y-15389650D01*
X11637086Y-15408698D02*
X11646610Y-15399174D01*
X11646610Y-15399174D02*
X11665658Y-15389650D01*
X11665658Y-15389650D02*
X11694229Y-15389650D01*
X11694229Y-15389650D02*
X11713277Y-15399174D01*
X11713277Y-15399174D02*
X11722801Y-15418222D01*
X11722801Y-15418222D02*
X11722801Y-15522984D01*
X11722801Y-15418222D02*
X11732324Y-15399174D01*
X11732324Y-15399174D02*
X11751372Y-15389650D01*
X11751372Y-15389650D02*
X11779943Y-15389650D01*
X11779943Y-15389650D02*
X11798991Y-15399174D01*
X11798991Y-15399174D02*
X11808515Y-15418222D01*
X11808515Y-15418222D02*
X11808515Y-15522984D01*
X12198991Y-15313460D02*
X12027563Y-15570603D01*
X12456134Y-15322984D02*
X12475182Y-15322984D01*
X12475182Y-15322984D02*
X12494229Y-15332508D01*
X12494229Y-15332508D02*
X12503753Y-15342031D01*
X12503753Y-15342031D02*
X12513277Y-15361079D01*
X12513277Y-15361079D02*
X12522801Y-15399174D01*
X12522801Y-15399174D02*
X12522801Y-15446793D01*
X12522801Y-15446793D02*
X12513277Y-15484888D01*
X12513277Y-15484888D02*
X12503753Y-15503936D01*
X12503753Y-15503936D02*
X12494229Y-15513460D01*
X12494229Y-15513460D02*
X12475182Y-15522984D01*
X12475182Y-15522984D02*
X12456134Y-15522984D01*
X12456134Y-15522984D02*
X12437086Y-15513460D01*
X12437086Y-15513460D02*
X12427563Y-15503936D01*
X12427563Y-15503936D02*
X12418039Y-15484888D01*
X12418039Y-15484888D02*
X12408515Y-15446793D01*
X12408515Y-15446793D02*
X12408515Y-15399174D01*
X12408515Y-15399174D02*
X12418039Y-15361079D01*
X12418039Y-15361079D02*
X12427563Y-15342031D01*
X12427563Y-15342031D02*
X12437086Y-15332508D01*
X12437086Y-15332508D02*
X12456134Y-15322984D01*
X12608515Y-15503936D02*
X12618039Y-15513460D01*
X12618039Y-15513460D02*
X12608515Y-15522984D01*
X12608515Y-15522984D02*
X12598991Y-15513460D01*
X12598991Y-15513460D02*
X12608515Y-15503936D01*
X12608515Y-15503936D02*
X12608515Y-15522984D01*
X12808515Y-15522984D02*
X12694229Y-15522984D01*
X12751372Y-15522984D02*
X12751372Y-15322984D01*
X12751372Y-15322984D02*
X12732325Y-15351555D01*
X12732325Y-15351555D02*
X12713277Y-15370603D01*
X12713277Y-15370603D02*
X12694229Y-15380127D01*
X12884706Y-15342031D02*
X12894229Y-15332508D01*
X12894229Y-15332508D02*
X12913277Y-15322984D01*
X12913277Y-15322984D02*
X12960896Y-15322984D01*
X12960896Y-15322984D02*
X12979944Y-15332508D01*
X12979944Y-15332508D02*
X12989467Y-15342031D01*
X12989467Y-15342031D02*
X12998991Y-15361079D01*
X12998991Y-15361079D02*
X12998991Y-15380127D01*
X12998991Y-15380127D02*
X12989467Y-15408698D01*
X12989467Y-15408698D02*
X12875182Y-15522984D01*
X12875182Y-15522984D02*
X12998991Y-15522984D01*
X13170420Y-15322984D02*
X13132325Y-15322984D01*
X13132325Y-15322984D02*
X13113277Y-15332508D01*
X13113277Y-15332508D02*
X13103753Y-15342031D01*
X13103753Y-15342031D02*
X13084706Y-15370603D01*
X13084706Y-15370603D02*
X13075182Y-15408698D01*
X13075182Y-15408698D02*
X13075182Y-15484888D01*
X13075182Y-15484888D02*
X13084706Y-15503936D01*
X13084706Y-15503936D02*
X13094229Y-15513460D01*
X13094229Y-15513460D02*
X13113277Y-15522984D01*
X13113277Y-15522984D02*
X13151372Y-15522984D01*
X13151372Y-15522984D02*
X13170420Y-15513460D01*
X13170420Y-15513460D02*
X13179944Y-15503936D01*
X13179944Y-15503936D02*
X13189467Y-15484888D01*
X13189467Y-15484888D02*
X13189467Y-15437269D01*
X13189467Y-15437269D02*
X13179944Y-15418222D01*
X13179944Y-15418222D02*
X13170420Y-15408698D01*
X13170420Y-15408698D02*
X13151372Y-15399174D01*
X13151372Y-15399174D02*
X13113277Y-15399174D01*
X13113277Y-15399174D02*
X13094229Y-15408698D01*
X13094229Y-15408698D02*
X13084706Y-15418222D01*
X13084706Y-15418222D02*
X13075182Y-15437269D01*
X13313277Y-15322984D02*
X13332325Y-15322984D01*
X13332325Y-15322984D02*
X13351372Y-15332508D01*
X13351372Y-15332508D02*
X13360896Y-15342031D01*
X13360896Y-15342031D02*
X13370420Y-15361079D01*
X13370420Y-15361079D02*
X13379944Y-15399174D01*
X13379944Y-15399174D02*
X13379944Y-15446793D01*
X13379944Y-15446793D02*
X13370420Y-15484888D01*
X13370420Y-15484888D02*
X13360896Y-15503936D01*
X13360896Y-15503936D02*
X13351372Y-15513460D01*
X13351372Y-15513460D02*
X13332325Y-15522984D01*
X13332325Y-15522984D02*
X13313277Y-15522984D01*
X13313277Y-15522984D02*
X13294229Y-15513460D01*
X13294229Y-15513460D02*
X13284706Y-15503936D01*
X13284706Y-15503936D02*
X13275182Y-15484888D01*
X13275182Y-15484888D02*
X13265658Y-15446793D01*
X13265658Y-15446793D02*
X13265658Y-15399174D01*
X13265658Y-15399174D02*
X13275182Y-15361079D01*
X13275182Y-15361079D02*
X13284706Y-15342031D01*
X13284706Y-15342031D02*
X13294229Y-15332508D01*
X13294229Y-15332508D02*
X13313277Y-15322984D01*
X13456134Y-15322984D02*
X13456134Y-15361079D01*
X13532325Y-15322984D02*
X13532325Y-15361079D01*
X13827563Y-15599174D02*
X13818039Y-15589650D01*
X13818039Y-15589650D02*
X13798991Y-15561079D01*
X13798991Y-15561079D02*
X13789468Y-15542031D01*
X13789468Y-15542031D02*
X13779944Y-15513460D01*
X13779944Y-15513460D02*
X13770420Y-15465841D01*
X13770420Y-15465841D02*
X13770420Y-15427746D01*
X13770420Y-15427746D02*
X13779944Y-15380127D01*
X13779944Y-15380127D02*
X13789468Y-15351555D01*
X13789468Y-15351555D02*
X13798991Y-15332508D01*
X13798991Y-15332508D02*
X13818039Y-15303936D01*
X13818039Y-15303936D02*
X13827563Y-15294412D01*
X13884706Y-15322984D02*
X14018039Y-15322984D01*
X14018039Y-15322984D02*
X13932325Y-15522984D01*
X14246610Y-15522984D02*
X14246610Y-15322984D01*
X14332325Y-15522984D02*
X14332325Y-15418222D01*
X14332325Y-15418222D02*
X14322801Y-15399174D01*
X14322801Y-15399174D02*
X14303753Y-15389650D01*
X14303753Y-15389650D02*
X14275182Y-15389650D01*
X14275182Y-15389650D02*
X14256134Y-15399174D01*
X14256134Y-15399174D02*
X14246610Y-15408698D01*
X14456134Y-15522984D02*
X14437087Y-15513460D01*
X14437087Y-15513460D02*
X14427563Y-15503936D01*
X14427563Y-15503936D02*
X14418039Y-15484888D01*
X14418039Y-15484888D02*
X14418039Y-15427746D01*
X14418039Y-15427746D02*
X14427563Y-15408698D01*
X14427563Y-15408698D02*
X14437087Y-15399174D01*
X14437087Y-15399174D02*
X14456134Y-15389650D01*
X14456134Y-15389650D02*
X14484706Y-15389650D01*
X14484706Y-15389650D02*
X14503753Y-15399174D01*
X14503753Y-15399174D02*
X14513277Y-15408698D01*
X14513277Y-15408698D02*
X14522801Y-15427746D01*
X14522801Y-15427746D02*
X14522801Y-15484888D01*
X14522801Y-15484888D02*
X14513277Y-15503936D01*
X14513277Y-15503936D02*
X14503753Y-15513460D01*
X14503753Y-15513460D02*
X14484706Y-15522984D01*
X14484706Y-15522984D02*
X14456134Y-15522984D01*
X14637087Y-15522984D02*
X14618039Y-15513460D01*
X14618039Y-15513460D02*
X14608515Y-15494412D01*
X14608515Y-15494412D02*
X14608515Y-15322984D01*
X14789468Y-15513460D02*
X14770420Y-15522984D01*
X14770420Y-15522984D02*
X14732325Y-15522984D01*
X14732325Y-15522984D02*
X14713277Y-15513460D01*
X14713277Y-15513460D02*
X14703753Y-15494412D01*
X14703753Y-15494412D02*
X14703753Y-15418222D01*
X14703753Y-15418222D02*
X14713277Y-15399174D01*
X14713277Y-15399174D02*
X14732325Y-15389650D01*
X14732325Y-15389650D02*
X14770420Y-15389650D01*
X14770420Y-15389650D02*
X14789468Y-15399174D01*
X14789468Y-15399174D02*
X14798991Y-15418222D01*
X14798991Y-15418222D02*
X14798991Y-15437269D01*
X14798991Y-15437269D02*
X14703753Y-15456317D01*
X14875182Y-15513460D02*
X14894230Y-15522984D01*
X14894230Y-15522984D02*
X14932325Y-15522984D01*
X14932325Y-15522984D02*
X14951372Y-15513460D01*
X14951372Y-15513460D02*
X14960896Y-15494412D01*
X14960896Y-15494412D02*
X14960896Y-15484888D01*
X14960896Y-15484888D02*
X14951372Y-15465841D01*
X14951372Y-15465841D02*
X14932325Y-15456317D01*
X14932325Y-15456317D02*
X14903753Y-15456317D01*
X14903753Y-15456317D02*
X14884706Y-15446793D01*
X14884706Y-15446793D02*
X14875182Y-15427746D01*
X14875182Y-15427746D02*
X14875182Y-15418222D01*
X14875182Y-15418222D02*
X14884706Y-15399174D01*
X14884706Y-15399174D02*
X14903753Y-15389650D01*
X14903753Y-15389650D02*
X14932325Y-15389650D01*
X14932325Y-15389650D02*
X14951372Y-15399174D01*
X15027563Y-15599174D02*
X15037087Y-15589650D01*
X15037087Y-15589650D02*
X15056134Y-15561079D01*
X15056134Y-15561079D02*
X15065658Y-15542031D01*
X15065658Y-15542031D02*
X15075182Y-15513460D01*
X15075182Y-15513460D02*
X15084706Y-15465841D01*
X15084706Y-15465841D02*
X15084706Y-15427746D01*
X15084706Y-15427746D02*
X15075182Y-15380127D01*
X15075182Y-15380127D02*
X15065658Y-15351555D01*
X15065658Y-15351555D02*
X15056134Y-15332508D01*
X15056134Y-15332508D02*
X15037087Y-15303936D01*
X15037087Y-15303936D02*
X15027563Y-15294412D01*
X15389468Y-15599174D02*
X15379944Y-15589650D01*
X15379944Y-15589650D02*
X15360896Y-15561079D01*
X15360896Y-15561079D02*
X15351372Y-15542031D01*
X15351372Y-15542031D02*
X15341849Y-15513460D01*
X15341849Y-15513460D02*
X15332325Y-15465841D01*
X15332325Y-15465841D02*
X15332325Y-15427746D01*
X15332325Y-15427746D02*
X15341849Y-15380127D01*
X15341849Y-15380127D02*
X15351372Y-15351555D01*
X15351372Y-15351555D02*
X15360896Y-15332508D01*
X15360896Y-15332508D02*
X15379944Y-15303936D01*
X15379944Y-15303936D02*
X15389468Y-15294412D01*
X15465658Y-15389650D02*
X15465658Y-15522984D01*
X15465658Y-15408698D02*
X15475182Y-15399174D01*
X15475182Y-15399174D02*
X15494230Y-15389650D01*
X15494230Y-15389650D02*
X15522801Y-15389650D01*
X15522801Y-15389650D02*
X15541849Y-15399174D01*
X15541849Y-15399174D02*
X15551372Y-15418222D01*
X15551372Y-15418222D02*
X15551372Y-15522984D01*
X15675182Y-15522984D02*
X15656134Y-15513460D01*
X15656134Y-15513460D02*
X15646611Y-15503936D01*
X15646611Y-15503936D02*
X15637087Y-15484888D01*
X15637087Y-15484888D02*
X15637087Y-15427746D01*
X15637087Y-15427746D02*
X15646611Y-15408698D01*
X15646611Y-15408698D02*
X15656134Y-15399174D01*
X15656134Y-15399174D02*
X15675182Y-15389650D01*
X15675182Y-15389650D02*
X15703753Y-15389650D01*
X15703753Y-15389650D02*
X15722801Y-15399174D01*
X15722801Y-15399174D02*
X15732325Y-15408698D01*
X15732325Y-15408698D02*
X15741849Y-15427746D01*
X15741849Y-15427746D02*
X15741849Y-15484888D01*
X15741849Y-15484888D02*
X15732325Y-15503936D01*
X15732325Y-15503936D02*
X15722801Y-15513460D01*
X15722801Y-15513460D02*
X15703753Y-15522984D01*
X15703753Y-15522984D02*
X15675182Y-15522984D01*
X15798992Y-15389650D02*
X15875182Y-15389650D01*
X15827563Y-15322984D02*
X15827563Y-15494412D01*
X15827563Y-15494412D02*
X15837087Y-15513460D01*
X15837087Y-15513460D02*
X15856134Y-15522984D01*
X15856134Y-15522984D02*
X15875182Y-15522984D01*
X16094230Y-15389650D02*
X16094230Y-15589650D01*
X16094230Y-15399174D02*
X16113277Y-15389650D01*
X16113277Y-15389650D02*
X16151373Y-15389650D01*
X16151373Y-15389650D02*
X16170420Y-15399174D01*
X16170420Y-15399174D02*
X16179944Y-15408698D01*
X16179944Y-15408698D02*
X16189468Y-15427746D01*
X16189468Y-15427746D02*
X16189468Y-15484888D01*
X16189468Y-15484888D02*
X16179944Y-15503936D01*
X16179944Y-15503936D02*
X16170420Y-15513460D01*
X16170420Y-15513460D02*
X16151373Y-15522984D01*
X16151373Y-15522984D02*
X16113277Y-15522984D01*
X16113277Y-15522984D02*
X16094230Y-15513460D01*
X16303753Y-15522984D02*
X16284706Y-15513460D01*
X16284706Y-15513460D02*
X16275182Y-15494412D01*
X16275182Y-15494412D02*
X16275182Y-15322984D01*
X16465658Y-15522984D02*
X16465658Y-15418222D01*
X16465658Y-15418222D02*
X16456134Y-15399174D01*
X16456134Y-15399174D02*
X16437087Y-15389650D01*
X16437087Y-15389650D02*
X16398992Y-15389650D01*
X16398992Y-15389650D02*
X16379944Y-15399174D01*
X16465658Y-15513460D02*
X16446611Y-15522984D01*
X16446611Y-15522984D02*
X16398992Y-15522984D01*
X16398992Y-15522984D02*
X16379944Y-15513460D01*
X16379944Y-15513460D02*
X16370420Y-15494412D01*
X16370420Y-15494412D02*
X16370420Y-15475365D01*
X16370420Y-15475365D02*
X16379944Y-15456317D01*
X16379944Y-15456317D02*
X16398992Y-15446793D01*
X16398992Y-15446793D02*
X16446611Y-15446793D01*
X16446611Y-15446793D02*
X16465658Y-15437269D01*
X16532325Y-15389650D02*
X16608515Y-15389650D01*
X16560896Y-15322984D02*
X16560896Y-15494412D01*
X16560896Y-15494412D02*
X16570420Y-15513460D01*
X16570420Y-15513460D02*
X16589468Y-15522984D01*
X16589468Y-15522984D02*
X16608515Y-15522984D01*
X16751373Y-15513460D02*
X16732325Y-15522984D01*
X16732325Y-15522984D02*
X16694230Y-15522984D01*
X16694230Y-15522984D02*
X16675182Y-15513460D01*
X16675182Y-15513460D02*
X16665658Y-15494412D01*
X16665658Y-15494412D02*
X16665658Y-15418222D01*
X16665658Y-15418222D02*
X16675182Y-15399174D01*
X16675182Y-15399174D02*
X16694230Y-15389650D01*
X16694230Y-15389650D02*
X16732325Y-15389650D01*
X16732325Y-15389650D02*
X16751373Y-15399174D01*
X16751373Y-15399174D02*
X16760896Y-15418222D01*
X16760896Y-15418222D02*
X16760896Y-15437269D01*
X16760896Y-15437269D02*
X16665658Y-15456317D01*
X16932325Y-15522984D02*
X16932325Y-15322984D01*
X16932325Y-15513460D02*
X16913277Y-15522984D01*
X16913277Y-15522984D02*
X16875182Y-15522984D01*
X16875182Y-15522984D02*
X16856135Y-15513460D01*
X16856135Y-15513460D02*
X16846611Y-15503936D01*
X16846611Y-15503936D02*
X16837087Y-15484888D01*
X16837087Y-15484888D02*
X16837087Y-15427746D01*
X16837087Y-15427746D02*
X16846611Y-15408698D01*
X16846611Y-15408698D02*
X16856135Y-15399174D01*
X16856135Y-15399174D02*
X16875182Y-15389650D01*
X16875182Y-15389650D02*
X16913277Y-15389650D01*
X16913277Y-15389650D02*
X16932325Y-15399174D01*
X17008516Y-15599174D02*
X17018039Y-15589650D01*
X17018039Y-15589650D02*
X17037087Y-15561079D01*
X17037087Y-15561079D02*
X17046611Y-15542031D01*
X17046611Y-15542031D02*
X17056135Y-15513460D01*
X17056135Y-15513460D02*
X17065658Y-15465841D01*
X17065658Y-15465841D02*
X17065658Y-15427746D01*
X17065658Y-15427746D02*
X17056135Y-15380127D01*
X17056135Y-15380127D02*
X17046611Y-15351555D01*
X17046611Y-15351555D02*
X17037087Y-15332508D01*
X17037087Y-15332508D02*
X17018039Y-15303936D01*
X17018039Y-15303936D02*
X17008516Y-15294412D01*
X10152500Y-15851500D02*
X10252500Y-15751500D01*
X10152500Y-15651500D01*
X10052500Y-15751500D01*
X10152500Y-15851500D01*
X10598991Y-15709650D02*
X10598991Y-15842984D01*
X10551372Y-15633460D02*
X10503753Y-15776317D01*
X10503753Y-15776317D02*
X10627563Y-15776317D01*
X10703753Y-15823936D02*
X10713277Y-15833460D01*
X10713277Y-15833460D02*
X10703753Y-15842984D01*
X10703753Y-15842984D02*
X10694229Y-15833460D01*
X10694229Y-15833460D02*
X10703753Y-15823936D01*
X10703753Y-15823936D02*
X10703753Y-15842984D01*
X10837086Y-15642984D02*
X10856134Y-15642984D01*
X10856134Y-15642984D02*
X10875182Y-15652508D01*
X10875182Y-15652508D02*
X10884705Y-15662031D01*
X10884705Y-15662031D02*
X10894229Y-15681079D01*
X10894229Y-15681079D02*
X10903753Y-15719174D01*
X10903753Y-15719174D02*
X10903753Y-15766793D01*
X10903753Y-15766793D02*
X10894229Y-15804888D01*
X10894229Y-15804888D02*
X10884705Y-15823936D01*
X10884705Y-15823936D02*
X10875182Y-15833460D01*
X10875182Y-15833460D02*
X10856134Y-15842984D01*
X10856134Y-15842984D02*
X10837086Y-15842984D01*
X10837086Y-15842984D02*
X10818039Y-15833460D01*
X10818039Y-15833460D02*
X10808515Y-15823936D01*
X10808515Y-15823936D02*
X10798991Y-15804888D01*
X10798991Y-15804888D02*
X10789467Y-15766793D01*
X10789467Y-15766793D02*
X10789467Y-15719174D01*
X10789467Y-15719174D02*
X10798991Y-15681079D01*
X10798991Y-15681079D02*
X10808515Y-15662031D01*
X10808515Y-15662031D02*
X10818039Y-15652508D01*
X10818039Y-15652508D02*
X10837086Y-15642984D01*
X11027563Y-15642984D02*
X11046610Y-15642984D01*
X11046610Y-15642984D02*
X11065658Y-15652508D01*
X11065658Y-15652508D02*
X11075182Y-15662031D01*
X11075182Y-15662031D02*
X11084705Y-15681079D01*
X11084705Y-15681079D02*
X11094229Y-15719174D01*
X11094229Y-15719174D02*
X11094229Y-15766793D01*
X11094229Y-15766793D02*
X11084705Y-15804888D01*
X11084705Y-15804888D02*
X11075182Y-15823936D01*
X11075182Y-15823936D02*
X11065658Y-15833460D01*
X11065658Y-15833460D02*
X11046610Y-15842984D01*
X11046610Y-15842984D02*
X11027563Y-15842984D01*
X11027563Y-15842984D02*
X11008515Y-15833460D01*
X11008515Y-15833460D02*
X10998991Y-15823936D01*
X10998991Y-15823936D02*
X10989467Y-15804888D01*
X10989467Y-15804888D02*
X10979944Y-15766793D01*
X10979944Y-15766793D02*
X10979944Y-15719174D01*
X10979944Y-15719174D02*
X10989467Y-15681079D01*
X10989467Y-15681079D02*
X10998991Y-15662031D01*
X10998991Y-15662031D02*
X11008515Y-15652508D01*
X11008515Y-15652508D02*
X11027563Y-15642984D01*
X11218039Y-15642984D02*
X11237086Y-15642984D01*
X11237086Y-15642984D02*
X11256134Y-15652508D01*
X11256134Y-15652508D02*
X11265658Y-15662031D01*
X11265658Y-15662031D02*
X11275182Y-15681079D01*
X11275182Y-15681079D02*
X11284705Y-15719174D01*
X11284705Y-15719174D02*
X11284705Y-15766793D01*
X11284705Y-15766793D02*
X11275182Y-15804888D01*
X11275182Y-15804888D02*
X11265658Y-15823936D01*
X11265658Y-15823936D02*
X11256134Y-15833460D01*
X11256134Y-15833460D02*
X11237086Y-15842984D01*
X11237086Y-15842984D02*
X11218039Y-15842984D01*
X11218039Y-15842984D02*
X11198991Y-15833460D01*
X11198991Y-15833460D02*
X11189467Y-15823936D01*
X11189467Y-15823936D02*
X11179944Y-15804888D01*
X11179944Y-15804888D02*
X11170420Y-15766793D01*
X11170420Y-15766793D02*
X11170420Y-15719174D01*
X11170420Y-15719174D02*
X11179944Y-15681079D01*
X11179944Y-15681079D02*
X11189467Y-15662031D01*
X11189467Y-15662031D02*
X11198991Y-15652508D01*
X11198991Y-15652508D02*
X11218039Y-15642984D01*
X11370420Y-15842984D02*
X11370420Y-15709650D01*
X11370420Y-15728698D02*
X11379943Y-15719174D01*
X11379943Y-15719174D02*
X11398991Y-15709650D01*
X11398991Y-15709650D02*
X11427563Y-15709650D01*
X11427563Y-15709650D02*
X11446610Y-15719174D01*
X11446610Y-15719174D02*
X11456134Y-15738222D01*
X11456134Y-15738222D02*
X11456134Y-15842984D01*
X11456134Y-15738222D02*
X11465658Y-15719174D01*
X11465658Y-15719174D02*
X11484705Y-15709650D01*
X11484705Y-15709650D02*
X11513277Y-15709650D01*
X11513277Y-15709650D02*
X11532324Y-15719174D01*
X11532324Y-15719174D02*
X11541848Y-15738222D01*
X11541848Y-15738222D02*
X11541848Y-15842984D01*
X11637086Y-15842984D02*
X11637086Y-15709650D01*
X11637086Y-15728698D02*
X11646610Y-15719174D01*
X11646610Y-15719174D02*
X11665658Y-15709650D01*
X11665658Y-15709650D02*
X11694229Y-15709650D01*
X11694229Y-15709650D02*
X11713277Y-15719174D01*
X11713277Y-15719174D02*
X11722801Y-15738222D01*
X11722801Y-15738222D02*
X11722801Y-15842984D01*
X11722801Y-15738222D02*
X11732324Y-15719174D01*
X11732324Y-15719174D02*
X11751372Y-15709650D01*
X11751372Y-15709650D02*
X11779943Y-15709650D01*
X11779943Y-15709650D02*
X11798991Y-15719174D01*
X11798991Y-15719174D02*
X11808515Y-15738222D01*
X11808515Y-15738222D02*
X11808515Y-15842984D01*
X12198991Y-15633460D02*
X12027563Y-15890603D01*
X12456134Y-15642984D02*
X12475182Y-15642984D01*
X12475182Y-15642984D02*
X12494229Y-15652508D01*
X12494229Y-15652508D02*
X12503753Y-15662031D01*
X12503753Y-15662031D02*
X12513277Y-15681079D01*
X12513277Y-15681079D02*
X12522801Y-15719174D01*
X12522801Y-15719174D02*
X12522801Y-15766793D01*
X12522801Y-15766793D02*
X12513277Y-15804888D01*
X12513277Y-15804888D02*
X12503753Y-15823936D01*
X12503753Y-15823936D02*
X12494229Y-15833460D01*
X12494229Y-15833460D02*
X12475182Y-15842984D01*
X12475182Y-15842984D02*
X12456134Y-15842984D01*
X12456134Y-15842984D02*
X12437086Y-15833460D01*
X12437086Y-15833460D02*
X12427563Y-15823936D01*
X12427563Y-15823936D02*
X12418039Y-15804888D01*
X12418039Y-15804888D02*
X12408515Y-15766793D01*
X12408515Y-15766793D02*
X12408515Y-15719174D01*
X12408515Y-15719174D02*
X12418039Y-15681079D01*
X12418039Y-15681079D02*
X12427563Y-15662031D01*
X12427563Y-15662031D02*
X12437086Y-15652508D01*
X12437086Y-15652508D02*
X12456134Y-15642984D01*
X12608515Y-15823936D02*
X12618039Y-15833460D01*
X12618039Y-15833460D02*
X12608515Y-15842984D01*
X12608515Y-15842984D02*
X12598991Y-15833460D01*
X12598991Y-15833460D02*
X12608515Y-15823936D01*
X12608515Y-15823936D02*
X12608515Y-15842984D01*
X12808515Y-15842984D02*
X12694229Y-15842984D01*
X12751372Y-15842984D02*
X12751372Y-15642984D01*
X12751372Y-15642984D02*
X12732325Y-15671555D01*
X12732325Y-15671555D02*
X12713277Y-15690603D01*
X12713277Y-15690603D02*
X12694229Y-15700127D01*
X12989467Y-15642984D02*
X12894229Y-15642984D01*
X12894229Y-15642984D02*
X12884706Y-15738222D01*
X12884706Y-15738222D02*
X12894229Y-15728698D01*
X12894229Y-15728698D02*
X12913277Y-15719174D01*
X12913277Y-15719174D02*
X12960896Y-15719174D01*
X12960896Y-15719174D02*
X12979944Y-15728698D01*
X12979944Y-15728698D02*
X12989467Y-15738222D01*
X12989467Y-15738222D02*
X12998991Y-15757269D01*
X12998991Y-15757269D02*
X12998991Y-15804888D01*
X12998991Y-15804888D02*
X12989467Y-15823936D01*
X12989467Y-15823936D02*
X12979944Y-15833460D01*
X12979944Y-15833460D02*
X12960896Y-15842984D01*
X12960896Y-15842984D02*
X12913277Y-15842984D01*
X12913277Y-15842984D02*
X12894229Y-15833460D01*
X12894229Y-15833460D02*
X12884706Y-15823936D01*
X13065658Y-15642984D02*
X13198991Y-15642984D01*
X13198991Y-15642984D02*
X13113277Y-15842984D01*
X13370420Y-15642984D02*
X13275182Y-15642984D01*
X13275182Y-15642984D02*
X13265658Y-15738222D01*
X13265658Y-15738222D02*
X13275182Y-15728698D01*
X13275182Y-15728698D02*
X13294229Y-15719174D01*
X13294229Y-15719174D02*
X13341848Y-15719174D01*
X13341848Y-15719174D02*
X13360896Y-15728698D01*
X13360896Y-15728698D02*
X13370420Y-15738222D01*
X13370420Y-15738222D02*
X13379944Y-15757269D01*
X13379944Y-15757269D02*
X13379944Y-15804888D01*
X13379944Y-15804888D02*
X13370420Y-15823936D01*
X13370420Y-15823936D02*
X13360896Y-15833460D01*
X13360896Y-15833460D02*
X13341848Y-15842984D01*
X13341848Y-15842984D02*
X13294229Y-15842984D01*
X13294229Y-15842984D02*
X13275182Y-15833460D01*
X13275182Y-15833460D02*
X13265658Y-15823936D01*
X13456134Y-15642984D02*
X13456134Y-15681079D01*
X13532325Y-15642984D02*
X13532325Y-15681079D01*
X13827563Y-15919174D02*
X13818039Y-15909650D01*
X13818039Y-15909650D02*
X13798991Y-15881079D01*
X13798991Y-15881079D02*
X13789468Y-15862031D01*
X13789468Y-15862031D02*
X13779944Y-15833460D01*
X13779944Y-15833460D02*
X13770420Y-15785841D01*
X13770420Y-15785841D02*
X13770420Y-15747746D01*
X13770420Y-15747746D02*
X13779944Y-15700127D01*
X13779944Y-15700127D02*
X13789468Y-15671555D01*
X13789468Y-15671555D02*
X13798991Y-15652508D01*
X13798991Y-15652508D02*
X13818039Y-15623936D01*
X13818039Y-15623936D02*
X13827563Y-15614412D01*
X13932325Y-15728698D02*
X13913277Y-15719174D01*
X13913277Y-15719174D02*
X13903753Y-15709650D01*
X13903753Y-15709650D02*
X13894229Y-15690603D01*
X13894229Y-15690603D02*
X13894229Y-15681079D01*
X13894229Y-15681079D02*
X13903753Y-15662031D01*
X13903753Y-15662031D02*
X13913277Y-15652508D01*
X13913277Y-15652508D02*
X13932325Y-15642984D01*
X13932325Y-15642984D02*
X13970420Y-15642984D01*
X13970420Y-15642984D02*
X13989468Y-15652508D01*
X13989468Y-15652508D02*
X13998991Y-15662031D01*
X13998991Y-15662031D02*
X14008515Y-15681079D01*
X14008515Y-15681079D02*
X14008515Y-15690603D01*
X14008515Y-15690603D02*
X13998991Y-15709650D01*
X13998991Y-15709650D02*
X13989468Y-15719174D01*
X13989468Y-15719174D02*
X13970420Y-15728698D01*
X13970420Y-15728698D02*
X13932325Y-15728698D01*
X13932325Y-15728698D02*
X13913277Y-15738222D01*
X13913277Y-15738222D02*
X13903753Y-15747746D01*
X13903753Y-15747746D02*
X13894229Y-15766793D01*
X13894229Y-15766793D02*
X13894229Y-15804888D01*
X13894229Y-15804888D02*
X13903753Y-15823936D01*
X13903753Y-15823936D02*
X13913277Y-15833460D01*
X13913277Y-15833460D02*
X13932325Y-15842984D01*
X13932325Y-15842984D02*
X13970420Y-15842984D01*
X13970420Y-15842984D02*
X13989468Y-15833460D01*
X13989468Y-15833460D02*
X13998991Y-15823936D01*
X13998991Y-15823936D02*
X14008515Y-15804888D01*
X14008515Y-15804888D02*
X14008515Y-15766793D01*
X14008515Y-15766793D02*
X13998991Y-15747746D01*
X13998991Y-15747746D02*
X13989468Y-15738222D01*
X13989468Y-15738222D02*
X13970420Y-15728698D01*
X14246610Y-15842984D02*
X14246610Y-15642984D01*
X14332325Y-15842984D02*
X14332325Y-15738222D01*
X14332325Y-15738222D02*
X14322801Y-15719174D01*
X14322801Y-15719174D02*
X14303753Y-15709650D01*
X14303753Y-15709650D02*
X14275182Y-15709650D01*
X14275182Y-15709650D02*
X14256134Y-15719174D01*
X14256134Y-15719174D02*
X14246610Y-15728698D01*
X14456134Y-15842984D02*
X14437087Y-15833460D01*
X14437087Y-15833460D02*
X14427563Y-15823936D01*
X14427563Y-15823936D02*
X14418039Y-15804888D01*
X14418039Y-15804888D02*
X14418039Y-15747746D01*
X14418039Y-15747746D02*
X14427563Y-15728698D01*
X14427563Y-15728698D02*
X14437087Y-15719174D01*
X14437087Y-15719174D02*
X14456134Y-15709650D01*
X14456134Y-15709650D02*
X14484706Y-15709650D01*
X14484706Y-15709650D02*
X14503753Y-15719174D01*
X14503753Y-15719174D02*
X14513277Y-15728698D01*
X14513277Y-15728698D02*
X14522801Y-15747746D01*
X14522801Y-15747746D02*
X14522801Y-15804888D01*
X14522801Y-15804888D02*
X14513277Y-15823936D01*
X14513277Y-15823936D02*
X14503753Y-15833460D01*
X14503753Y-15833460D02*
X14484706Y-15842984D01*
X14484706Y-15842984D02*
X14456134Y-15842984D01*
X14637087Y-15842984D02*
X14618039Y-15833460D01*
X14618039Y-15833460D02*
X14608515Y-15814412D01*
X14608515Y-15814412D02*
X14608515Y-15642984D01*
X14789468Y-15833460D02*
X14770420Y-15842984D01*
X14770420Y-15842984D02*
X14732325Y-15842984D01*
X14732325Y-15842984D02*
X14713277Y-15833460D01*
X14713277Y-15833460D02*
X14703753Y-15814412D01*
X14703753Y-15814412D02*
X14703753Y-15738222D01*
X14703753Y-15738222D02*
X14713277Y-15719174D01*
X14713277Y-15719174D02*
X14732325Y-15709650D01*
X14732325Y-15709650D02*
X14770420Y-15709650D01*
X14770420Y-15709650D02*
X14789468Y-15719174D01*
X14789468Y-15719174D02*
X14798991Y-15738222D01*
X14798991Y-15738222D02*
X14798991Y-15757269D01*
X14798991Y-15757269D02*
X14703753Y-15776317D01*
X14875182Y-15833460D02*
X14894230Y-15842984D01*
X14894230Y-15842984D02*
X14932325Y-15842984D01*
X14932325Y-15842984D02*
X14951372Y-15833460D01*
X14951372Y-15833460D02*
X14960896Y-15814412D01*
X14960896Y-15814412D02*
X14960896Y-15804888D01*
X14960896Y-15804888D02*
X14951372Y-15785841D01*
X14951372Y-15785841D02*
X14932325Y-15776317D01*
X14932325Y-15776317D02*
X14903753Y-15776317D01*
X14903753Y-15776317D02*
X14884706Y-15766793D01*
X14884706Y-15766793D02*
X14875182Y-15747746D01*
X14875182Y-15747746D02*
X14875182Y-15738222D01*
X14875182Y-15738222D02*
X14884706Y-15719174D01*
X14884706Y-15719174D02*
X14903753Y-15709650D01*
X14903753Y-15709650D02*
X14932325Y-15709650D01*
X14932325Y-15709650D02*
X14951372Y-15719174D01*
X15027563Y-15919174D02*
X15037087Y-15909650D01*
X15037087Y-15909650D02*
X15056134Y-15881079D01*
X15056134Y-15881079D02*
X15065658Y-15862031D01*
X15065658Y-15862031D02*
X15075182Y-15833460D01*
X15075182Y-15833460D02*
X15084706Y-15785841D01*
X15084706Y-15785841D02*
X15084706Y-15747746D01*
X15084706Y-15747746D02*
X15075182Y-15700127D01*
X15075182Y-15700127D02*
X15065658Y-15671555D01*
X15065658Y-15671555D02*
X15056134Y-15652508D01*
X15056134Y-15652508D02*
X15037087Y-15623936D01*
X15037087Y-15623936D02*
X15027563Y-15614412D01*
X15389468Y-15919174D02*
X15379944Y-15909650D01*
X15379944Y-15909650D02*
X15360896Y-15881079D01*
X15360896Y-15881079D02*
X15351372Y-15862031D01*
X15351372Y-15862031D02*
X15341849Y-15833460D01*
X15341849Y-15833460D02*
X15332325Y-15785841D01*
X15332325Y-15785841D02*
X15332325Y-15747746D01*
X15332325Y-15747746D02*
X15341849Y-15700127D01*
X15341849Y-15700127D02*
X15351372Y-15671555D01*
X15351372Y-15671555D02*
X15360896Y-15652508D01*
X15360896Y-15652508D02*
X15379944Y-15623936D01*
X15379944Y-15623936D02*
X15389468Y-15614412D01*
X15465658Y-15709650D02*
X15465658Y-15842984D01*
X15465658Y-15728698D02*
X15475182Y-15719174D01*
X15475182Y-15719174D02*
X15494230Y-15709650D01*
X15494230Y-15709650D02*
X15522801Y-15709650D01*
X15522801Y-15709650D02*
X15541849Y-15719174D01*
X15541849Y-15719174D02*
X15551372Y-15738222D01*
X15551372Y-15738222D02*
X15551372Y-15842984D01*
X15675182Y-15842984D02*
X15656134Y-15833460D01*
X15656134Y-15833460D02*
X15646611Y-15823936D01*
X15646611Y-15823936D02*
X15637087Y-15804888D01*
X15637087Y-15804888D02*
X15637087Y-15747746D01*
X15637087Y-15747746D02*
X15646611Y-15728698D01*
X15646611Y-15728698D02*
X15656134Y-15719174D01*
X15656134Y-15719174D02*
X15675182Y-15709650D01*
X15675182Y-15709650D02*
X15703753Y-15709650D01*
X15703753Y-15709650D02*
X15722801Y-15719174D01*
X15722801Y-15719174D02*
X15732325Y-15728698D01*
X15732325Y-15728698D02*
X15741849Y-15747746D01*
X15741849Y-15747746D02*
X15741849Y-15804888D01*
X15741849Y-15804888D02*
X15732325Y-15823936D01*
X15732325Y-15823936D02*
X15722801Y-15833460D01*
X15722801Y-15833460D02*
X15703753Y-15842984D01*
X15703753Y-15842984D02*
X15675182Y-15842984D01*
X15798992Y-15709650D02*
X15875182Y-15709650D01*
X15827563Y-15642984D02*
X15827563Y-15814412D01*
X15827563Y-15814412D02*
X15837087Y-15833460D01*
X15837087Y-15833460D02*
X15856134Y-15842984D01*
X15856134Y-15842984D02*
X15875182Y-15842984D01*
X16094230Y-15709650D02*
X16094230Y-15909650D01*
X16094230Y-15719174D02*
X16113277Y-15709650D01*
X16113277Y-15709650D02*
X16151373Y-15709650D01*
X16151373Y-15709650D02*
X16170420Y-15719174D01*
X16170420Y-15719174D02*
X16179944Y-15728698D01*
X16179944Y-15728698D02*
X16189468Y-15747746D01*
X16189468Y-15747746D02*
X16189468Y-15804888D01*
X16189468Y-15804888D02*
X16179944Y-15823936D01*
X16179944Y-15823936D02*
X16170420Y-15833460D01*
X16170420Y-15833460D02*
X16151373Y-15842984D01*
X16151373Y-15842984D02*
X16113277Y-15842984D01*
X16113277Y-15842984D02*
X16094230Y-15833460D01*
X16303753Y-15842984D02*
X16284706Y-15833460D01*
X16284706Y-15833460D02*
X16275182Y-15814412D01*
X16275182Y-15814412D02*
X16275182Y-15642984D01*
X16465658Y-15842984D02*
X16465658Y-15738222D01*
X16465658Y-15738222D02*
X16456134Y-15719174D01*
X16456134Y-15719174D02*
X16437087Y-15709650D01*
X16437087Y-15709650D02*
X16398992Y-15709650D01*
X16398992Y-15709650D02*
X16379944Y-15719174D01*
X16465658Y-15833460D02*
X16446611Y-15842984D01*
X16446611Y-15842984D02*
X16398992Y-15842984D01*
X16398992Y-15842984D02*
X16379944Y-15833460D01*
X16379944Y-15833460D02*
X16370420Y-15814412D01*
X16370420Y-15814412D02*
X16370420Y-15795365D01*
X16370420Y-15795365D02*
X16379944Y-15776317D01*
X16379944Y-15776317D02*
X16398992Y-15766793D01*
X16398992Y-15766793D02*
X16446611Y-15766793D01*
X16446611Y-15766793D02*
X16465658Y-15757269D01*
X16532325Y-15709650D02*
X16608515Y-15709650D01*
X16560896Y-15642984D02*
X16560896Y-15814412D01*
X16560896Y-15814412D02*
X16570420Y-15833460D01*
X16570420Y-15833460D02*
X16589468Y-15842984D01*
X16589468Y-15842984D02*
X16608515Y-15842984D01*
X16751373Y-15833460D02*
X16732325Y-15842984D01*
X16732325Y-15842984D02*
X16694230Y-15842984D01*
X16694230Y-15842984D02*
X16675182Y-15833460D01*
X16675182Y-15833460D02*
X16665658Y-15814412D01*
X16665658Y-15814412D02*
X16665658Y-15738222D01*
X16665658Y-15738222D02*
X16675182Y-15719174D01*
X16675182Y-15719174D02*
X16694230Y-15709650D01*
X16694230Y-15709650D02*
X16732325Y-15709650D01*
X16732325Y-15709650D02*
X16751373Y-15719174D01*
X16751373Y-15719174D02*
X16760896Y-15738222D01*
X16760896Y-15738222D02*
X16760896Y-15757269D01*
X16760896Y-15757269D02*
X16665658Y-15776317D01*
X16932325Y-15842984D02*
X16932325Y-15642984D01*
X16932325Y-15833460D02*
X16913277Y-15842984D01*
X16913277Y-15842984D02*
X16875182Y-15842984D01*
X16875182Y-15842984D02*
X16856135Y-15833460D01*
X16856135Y-15833460D02*
X16846611Y-15823936D01*
X16846611Y-15823936D02*
X16837087Y-15804888D01*
X16837087Y-15804888D02*
X16837087Y-15747746D01*
X16837087Y-15747746D02*
X16846611Y-15728698D01*
X16846611Y-15728698D02*
X16856135Y-15719174D01*
X16856135Y-15719174D02*
X16875182Y-15709650D01*
X16875182Y-15709650D02*
X16913277Y-15709650D01*
X16913277Y-15709650D02*
X16932325Y-15719174D01*
X17008516Y-15919174D02*
X17018039Y-15909650D01*
X17018039Y-15909650D02*
X17037087Y-15881079D01*
X17037087Y-15881079D02*
X17046611Y-15862031D01*
X17046611Y-15862031D02*
X17056135Y-15833460D01*
X17056135Y-15833460D02*
X17065658Y-15785841D01*
X17065658Y-15785841D02*
X17065658Y-15747746D01*
X17065658Y-15747746D02*
X17056135Y-15700127D01*
X17056135Y-15700127D02*
X17046611Y-15671555D01*
X17046611Y-15671555D02*
X17037087Y-15652508D01*
X17037087Y-15652508D02*
X17018039Y-15623936D01*
X17018039Y-15623936D02*
X17008516Y-15614412D01*
M02*
