%TF.GenerationSoftware,KiCad,Pcbnew,8.0.4*%
%TF.CreationDate,2024-07-24T01:17:21-07:00*%
%TF.ProjectId,panel_2,70616e65-6c5f-4322-9e6b-696361645f70,rev?*%
%TF.SameCoordinates,Original*%
%TF.FileFunction,Drillmap*%
%TF.FilePolarity,Positive*%
%FSLAX45Y45*%
G04 Gerber Fmt 4.5, Leading zero omitted, Abs format (unit mm)*
G04 Created by KiCad (PCBNEW 8.0.4) date 2024-07-24 01:17:21*
%MOMM*%
%LPD*%
G01*
G04 APERTURE LIST*
%ADD10C,0.050000*%
%ADD11C,0.200000*%
%ADD12C,0.100000*%
%ADD13C,0.120000*%
%ADD14C,0.150000*%
G04 APERTURE END LIST*
D10*
X18250000Y-11858000D02*
G75*
G02*
X18250000Y-11692000I0J83000D01*
G01*
X14295000Y-13525000D02*
X14295000Y-13930000D01*
X14455000Y-12100000D02*
G75*
G02*
X14295000Y-12100000I-80000J0D01*
G01*
X16800000Y-11692000D02*
G75*
G02*
X16800000Y-11858000I0J-83000D01*
G01*
X16800000Y-11858000D02*
X14455000Y-11858000D01*
X14455000Y-13930000D02*
X14455000Y-13525000D01*
X14455000Y-12100000D02*
X14455000Y-11858000D01*
X19505000Y-13930000D02*
X14455000Y-13930000D01*
X10255000Y-13930000D02*
X14295000Y-13930000D01*
X17200000Y-11692000D02*
X17850000Y-11692000D01*
X19505000Y-11692000D02*
X19505000Y-3980000D01*
X19375000Y-11692000D02*
X19505000Y-11692000D01*
X14295000Y-12500000D02*
G75*
G02*
X14455000Y-12500000I80000J0D01*
G01*
X16800000Y-11692000D02*
X14295000Y-11692000D01*
X18250000Y-11692000D02*
X18975000Y-11692000D01*
X18975000Y-11858000D02*
X18250000Y-11858000D01*
X17850000Y-11692000D02*
G75*
G02*
X17850000Y-11858000I0J-83000D01*
G01*
X14295000Y-12100000D02*
X14295000Y-11692000D01*
X17200000Y-11858000D02*
G75*
G02*
X17200000Y-11692000I0J83000D01*
G01*
X19505000Y-3980000D02*
X10255000Y-3980000D01*
X14295000Y-13525000D02*
G75*
G02*
X14455000Y-13525000I80000J0D01*
G01*
X14295000Y-12500000D02*
X14295000Y-13125000D01*
X18975000Y-11692000D02*
G75*
G02*
X18975000Y-11858000I0J-83000D01*
G01*
X14455000Y-13125000D02*
X14455000Y-12500000D01*
X19375000Y-11858000D02*
G75*
G02*
X19375000Y-11692000I0J83000D01*
G01*
X10255000Y-3980000D02*
X10255000Y-13930000D01*
X19375000Y-11858000D02*
X19505000Y-11858000D01*
X14455000Y-13125000D02*
G75*
G02*
X14295000Y-13125000I-80000J0D01*
G01*
X19505000Y-11858000D02*
X19505000Y-13930000D01*
X17850000Y-11858000D02*
X17200000Y-11858000D01*
D11*
D12*
X10510000Y-6085000D02*
X10550000Y-6125000D01*
X10550000Y-6085000D02*
X10510000Y-6125000D01*
D13*
X14068000Y-4255000D02*
G75*
G02*
X13948000Y-4255000I-60000J0D01*
G01*
X13948000Y-4255000D02*
G75*
G02*
X14068000Y-4255000I60000J0D01*
G01*
X14068000Y-5505000D02*
G75*
G02*
X13948000Y-5505000I-60000J0D01*
G01*
X13948000Y-5505000D02*
G75*
G02*
X14068000Y-5505000I60000J0D01*
G01*
X14568000Y-4255000D02*
G75*
G02*
X14448000Y-4255000I-60000J0D01*
G01*
X14448000Y-4255000D02*
G75*
G02*
X14568000Y-4255000I60000J0D01*
G01*
X14568000Y-5505000D02*
G75*
G02*
X14448000Y-5505000I-60000J0D01*
G01*
X14448000Y-5505000D02*
G75*
G02*
X14568000Y-5505000I60000J0D01*
G01*
X15568000Y-4255000D02*
G75*
G02*
X15448000Y-4255000I-60000J0D01*
G01*
X15448000Y-4255000D02*
G75*
G02*
X15568000Y-4255000I60000J0D01*
G01*
X15568000Y-5505000D02*
G75*
G02*
X15448000Y-5505000I-60000J0D01*
G01*
X15448000Y-5505000D02*
G75*
G02*
X15568000Y-5505000I60000J0D01*
G01*
X16068000Y-4255000D02*
G75*
G02*
X15948000Y-4255000I-60000J0D01*
G01*
X15948000Y-4255000D02*
G75*
G02*
X16068000Y-4255000I60000J0D01*
G01*
X16068000Y-5505000D02*
G75*
G02*
X15948000Y-5505000I-60000J0D01*
G01*
X15948000Y-5505000D02*
G75*
G02*
X16068000Y-5505000I60000J0D01*
G01*
X17068000Y-4255000D02*
G75*
G02*
X16948000Y-4255000I-60000J0D01*
G01*
X16948000Y-4255000D02*
G75*
G02*
X17068000Y-4255000I60000J0D01*
G01*
X17068000Y-5505000D02*
G75*
G02*
X16948000Y-5505000I-60000J0D01*
G01*
X16948000Y-5505000D02*
G75*
G02*
X17068000Y-5505000I60000J0D01*
G01*
X17568000Y-4255000D02*
G75*
G02*
X17448000Y-4255000I-60000J0D01*
G01*
X17448000Y-4255000D02*
G75*
G02*
X17568000Y-4255000I60000J0D01*
G01*
X17568000Y-5505000D02*
G75*
G02*
X17448000Y-5505000I-60000J0D01*
G01*
X17448000Y-5505000D02*
G75*
G02*
X17568000Y-5505000I60000J0D01*
G01*
X18568000Y-4255000D02*
G75*
G02*
X18448000Y-4255000I-60000J0D01*
G01*
X18448000Y-4255000D02*
G75*
G02*
X18568000Y-4255000I60000J0D01*
G01*
X18568000Y-5505000D02*
G75*
G02*
X18448000Y-5505000I-60000J0D01*
G01*
X18448000Y-5505000D02*
G75*
G02*
X18568000Y-5505000I60000J0D01*
G01*
X19068000Y-4255000D02*
G75*
G02*
X18948000Y-4255000I-60000J0D01*
G01*
X18948000Y-4255000D02*
G75*
G02*
X19068000Y-4255000I60000J0D01*
G01*
X19068000Y-5505000D02*
G75*
G02*
X18948000Y-5505000I-60000J0D01*
G01*
X18948000Y-5505000D02*
G75*
G02*
X19068000Y-5505000I60000J0D01*
G01*
D14*
X11367394Y-8551000D02*
X11367394Y-8701000D01*
X11292394Y-8626000D02*
X11442394Y-8626000D01*
X11367394Y-11451000D02*
X11367394Y-11601000D01*
X11292394Y-11526000D02*
X11442394Y-11526000D01*
X11385426Y-5651056D02*
X11385426Y-5801056D01*
X11310426Y-5726056D02*
X11460426Y-5726056D01*
X12002394Y-8297000D02*
X12002394Y-8447000D01*
X11927394Y-8372000D02*
X12077394Y-8372000D01*
X12002394Y-11197000D02*
X12002394Y-11347000D01*
X11927394Y-11272000D02*
X12077394Y-11272000D01*
X12020426Y-5397056D02*
X12020426Y-5547056D01*
X11945426Y-5472056D02*
X12095426Y-5472056D01*
X13867394Y-7151000D02*
X13867394Y-7301000D01*
X13792394Y-7226000D02*
X13942394Y-7226000D01*
X13867394Y-10051000D02*
X13867394Y-10201000D01*
X13792394Y-10126000D02*
X13942394Y-10126000D01*
X14502394Y-6897000D02*
X14502394Y-7047000D01*
X14427394Y-6972000D02*
X14577394Y-6972000D01*
X14502394Y-9797000D02*
X14502394Y-9947000D01*
X14427394Y-9872000D02*
X14577394Y-9872000D01*
X16767394Y-7151000D02*
X16767394Y-7301000D01*
X16692394Y-7226000D02*
X16842394Y-7226000D01*
X16767394Y-10051000D02*
X16767394Y-10201000D01*
X16692394Y-10126000D02*
X16842394Y-10126000D01*
X17382412Y-12523409D02*
X17382412Y-12673409D01*
X17307412Y-12598409D02*
X17457412Y-12598409D01*
X17402394Y-6897000D02*
X17402394Y-7047000D01*
X17327394Y-6972000D02*
X17477394Y-6972000D01*
X17402394Y-9797000D02*
X17402394Y-9947000D01*
X17327394Y-9872000D02*
X17477394Y-9872000D01*
X17636412Y-13158409D02*
X17636412Y-13308409D01*
X17561412Y-13233409D02*
X17711412Y-13233409D01*
D11*
X10513277Y-14243984D02*
X10513277Y-14043984D01*
X10513277Y-14043984D02*
X10560896Y-14043984D01*
X10560896Y-14043984D02*
X10589467Y-14053508D01*
X10589467Y-14053508D02*
X10608515Y-14072555D01*
X10608515Y-14072555D02*
X10618039Y-14091603D01*
X10618039Y-14091603D02*
X10627563Y-14129698D01*
X10627563Y-14129698D02*
X10627563Y-14158269D01*
X10627563Y-14158269D02*
X10618039Y-14196365D01*
X10618039Y-14196365D02*
X10608515Y-14215412D01*
X10608515Y-14215412D02*
X10589467Y-14234460D01*
X10589467Y-14234460D02*
X10560896Y-14243984D01*
X10560896Y-14243984D02*
X10513277Y-14243984D01*
X10713277Y-14243984D02*
X10713277Y-14110650D01*
X10713277Y-14148746D02*
X10722801Y-14129698D01*
X10722801Y-14129698D02*
X10732324Y-14120174D01*
X10732324Y-14120174D02*
X10751372Y-14110650D01*
X10751372Y-14110650D02*
X10770420Y-14110650D01*
X10837086Y-14243984D02*
X10837086Y-14110650D01*
X10837086Y-14043984D02*
X10827563Y-14053508D01*
X10827563Y-14053508D02*
X10837086Y-14063031D01*
X10837086Y-14063031D02*
X10846610Y-14053508D01*
X10846610Y-14053508D02*
X10837086Y-14043984D01*
X10837086Y-14043984D02*
X10837086Y-14063031D01*
X10960896Y-14243984D02*
X10941848Y-14234460D01*
X10941848Y-14234460D02*
X10932324Y-14215412D01*
X10932324Y-14215412D02*
X10932324Y-14043984D01*
X11065658Y-14243984D02*
X11046610Y-14234460D01*
X11046610Y-14234460D02*
X11037086Y-14215412D01*
X11037086Y-14215412D02*
X11037086Y-14043984D01*
X11294229Y-14243984D02*
X11294229Y-14043984D01*
X11294229Y-14043984D02*
X11360896Y-14186841D01*
X11360896Y-14186841D02*
X11427562Y-14043984D01*
X11427562Y-14043984D02*
X11427562Y-14243984D01*
X11608515Y-14243984D02*
X11608515Y-14139222D01*
X11608515Y-14139222D02*
X11598991Y-14120174D01*
X11598991Y-14120174D02*
X11579943Y-14110650D01*
X11579943Y-14110650D02*
X11541848Y-14110650D01*
X11541848Y-14110650D02*
X11522801Y-14120174D01*
X11608515Y-14234460D02*
X11589467Y-14243984D01*
X11589467Y-14243984D02*
X11541848Y-14243984D01*
X11541848Y-14243984D02*
X11522801Y-14234460D01*
X11522801Y-14234460D02*
X11513277Y-14215412D01*
X11513277Y-14215412D02*
X11513277Y-14196365D01*
X11513277Y-14196365D02*
X11522801Y-14177317D01*
X11522801Y-14177317D02*
X11541848Y-14167793D01*
X11541848Y-14167793D02*
X11589467Y-14167793D01*
X11589467Y-14167793D02*
X11608515Y-14158269D01*
X11703753Y-14110650D02*
X11703753Y-14310650D01*
X11703753Y-14120174D02*
X11722801Y-14110650D01*
X11722801Y-14110650D02*
X11760896Y-14110650D01*
X11760896Y-14110650D02*
X11779943Y-14120174D01*
X11779943Y-14120174D02*
X11789467Y-14129698D01*
X11789467Y-14129698D02*
X11798991Y-14148746D01*
X11798991Y-14148746D02*
X11798991Y-14205888D01*
X11798991Y-14205888D02*
X11789467Y-14224936D01*
X11789467Y-14224936D02*
X11779943Y-14234460D01*
X11779943Y-14234460D02*
X11760896Y-14243984D01*
X11760896Y-14243984D02*
X11722801Y-14243984D01*
X11722801Y-14243984D02*
X11703753Y-14234460D01*
X11884705Y-14224936D02*
X11894229Y-14234460D01*
X11894229Y-14234460D02*
X11884705Y-14243984D01*
X11884705Y-14243984D02*
X11875182Y-14234460D01*
X11875182Y-14234460D02*
X11884705Y-14224936D01*
X11884705Y-14224936D02*
X11884705Y-14243984D01*
X11884705Y-14120174D02*
X11894229Y-14129698D01*
X11894229Y-14129698D02*
X11884705Y-14139222D01*
X11884705Y-14139222D02*
X11875182Y-14129698D01*
X11875182Y-14129698D02*
X11884705Y-14120174D01*
X11884705Y-14120174D02*
X11884705Y-14139222D01*
D12*
X10212500Y-14552500D02*
X10252500Y-14592500D01*
X10252500Y-14552500D02*
X10212500Y-14592500D01*
D11*
X10551372Y-14463984D02*
X10570420Y-14463984D01*
X10570420Y-14463984D02*
X10589467Y-14473508D01*
X10589467Y-14473508D02*
X10598991Y-14483031D01*
X10598991Y-14483031D02*
X10608515Y-14502079D01*
X10608515Y-14502079D02*
X10618039Y-14540174D01*
X10618039Y-14540174D02*
X10618039Y-14587793D01*
X10618039Y-14587793D02*
X10608515Y-14625888D01*
X10608515Y-14625888D02*
X10598991Y-14644936D01*
X10598991Y-14644936D02*
X10589467Y-14654460D01*
X10589467Y-14654460D02*
X10570420Y-14663984D01*
X10570420Y-14663984D02*
X10551372Y-14663984D01*
X10551372Y-14663984D02*
X10532324Y-14654460D01*
X10532324Y-14654460D02*
X10522801Y-14644936D01*
X10522801Y-14644936D02*
X10513277Y-14625888D01*
X10513277Y-14625888D02*
X10503753Y-14587793D01*
X10503753Y-14587793D02*
X10503753Y-14540174D01*
X10503753Y-14540174D02*
X10513277Y-14502079D01*
X10513277Y-14502079D02*
X10522801Y-14483031D01*
X10522801Y-14483031D02*
X10532324Y-14473508D01*
X10532324Y-14473508D02*
X10551372Y-14463984D01*
X10703753Y-14644936D02*
X10713277Y-14654460D01*
X10713277Y-14654460D02*
X10703753Y-14663984D01*
X10703753Y-14663984D02*
X10694229Y-14654460D01*
X10694229Y-14654460D02*
X10703753Y-14644936D01*
X10703753Y-14644936D02*
X10703753Y-14663984D01*
X10884705Y-14530650D02*
X10884705Y-14663984D01*
X10837086Y-14454460D02*
X10789467Y-14597317D01*
X10789467Y-14597317D02*
X10913277Y-14597317D01*
X11027563Y-14463984D02*
X11046610Y-14463984D01*
X11046610Y-14463984D02*
X11065658Y-14473508D01*
X11065658Y-14473508D02*
X11075182Y-14483031D01*
X11075182Y-14483031D02*
X11084705Y-14502079D01*
X11084705Y-14502079D02*
X11094229Y-14540174D01*
X11094229Y-14540174D02*
X11094229Y-14587793D01*
X11094229Y-14587793D02*
X11084705Y-14625888D01*
X11084705Y-14625888D02*
X11075182Y-14644936D01*
X11075182Y-14644936D02*
X11065658Y-14654460D01*
X11065658Y-14654460D02*
X11046610Y-14663984D01*
X11046610Y-14663984D02*
X11027563Y-14663984D01*
X11027563Y-14663984D02*
X11008515Y-14654460D01*
X11008515Y-14654460D02*
X10998991Y-14644936D01*
X10998991Y-14644936D02*
X10989467Y-14625888D01*
X10989467Y-14625888D02*
X10979944Y-14587793D01*
X10979944Y-14587793D02*
X10979944Y-14540174D01*
X10979944Y-14540174D02*
X10989467Y-14502079D01*
X10989467Y-14502079D02*
X10998991Y-14483031D01*
X10998991Y-14483031D02*
X11008515Y-14473508D01*
X11008515Y-14473508D02*
X11027563Y-14463984D01*
X11218039Y-14463984D02*
X11237086Y-14463984D01*
X11237086Y-14463984D02*
X11256134Y-14473508D01*
X11256134Y-14473508D02*
X11265658Y-14483031D01*
X11265658Y-14483031D02*
X11275182Y-14502079D01*
X11275182Y-14502079D02*
X11284705Y-14540174D01*
X11284705Y-14540174D02*
X11284705Y-14587793D01*
X11284705Y-14587793D02*
X11275182Y-14625888D01*
X11275182Y-14625888D02*
X11265658Y-14644936D01*
X11265658Y-14644936D02*
X11256134Y-14654460D01*
X11256134Y-14654460D02*
X11237086Y-14663984D01*
X11237086Y-14663984D02*
X11218039Y-14663984D01*
X11218039Y-14663984D02*
X11198991Y-14654460D01*
X11198991Y-14654460D02*
X11189467Y-14644936D01*
X11189467Y-14644936D02*
X11179944Y-14625888D01*
X11179944Y-14625888D02*
X11170420Y-14587793D01*
X11170420Y-14587793D02*
X11170420Y-14540174D01*
X11170420Y-14540174D02*
X11179944Y-14502079D01*
X11179944Y-14502079D02*
X11189467Y-14483031D01*
X11189467Y-14483031D02*
X11198991Y-14473508D01*
X11198991Y-14473508D02*
X11218039Y-14463984D01*
X11370420Y-14663984D02*
X11370420Y-14530650D01*
X11370420Y-14549698D02*
X11379943Y-14540174D01*
X11379943Y-14540174D02*
X11398991Y-14530650D01*
X11398991Y-14530650D02*
X11427563Y-14530650D01*
X11427563Y-14530650D02*
X11446610Y-14540174D01*
X11446610Y-14540174D02*
X11456134Y-14559222D01*
X11456134Y-14559222D02*
X11456134Y-14663984D01*
X11456134Y-14559222D02*
X11465658Y-14540174D01*
X11465658Y-14540174D02*
X11484705Y-14530650D01*
X11484705Y-14530650D02*
X11513277Y-14530650D01*
X11513277Y-14530650D02*
X11532324Y-14540174D01*
X11532324Y-14540174D02*
X11541848Y-14559222D01*
X11541848Y-14559222D02*
X11541848Y-14663984D01*
X11637086Y-14663984D02*
X11637086Y-14530650D01*
X11637086Y-14549698D02*
X11646610Y-14540174D01*
X11646610Y-14540174D02*
X11665658Y-14530650D01*
X11665658Y-14530650D02*
X11694229Y-14530650D01*
X11694229Y-14530650D02*
X11713277Y-14540174D01*
X11713277Y-14540174D02*
X11722801Y-14559222D01*
X11722801Y-14559222D02*
X11722801Y-14663984D01*
X11722801Y-14559222D02*
X11732324Y-14540174D01*
X11732324Y-14540174D02*
X11751372Y-14530650D01*
X11751372Y-14530650D02*
X11779943Y-14530650D01*
X11779943Y-14530650D02*
X11798991Y-14540174D01*
X11798991Y-14540174D02*
X11808515Y-14559222D01*
X11808515Y-14559222D02*
X11808515Y-14663984D01*
X12198991Y-14454460D02*
X12027563Y-14711603D01*
X12456134Y-14463984D02*
X12475182Y-14463984D01*
X12475182Y-14463984D02*
X12494229Y-14473508D01*
X12494229Y-14473508D02*
X12503753Y-14483031D01*
X12503753Y-14483031D02*
X12513277Y-14502079D01*
X12513277Y-14502079D02*
X12522801Y-14540174D01*
X12522801Y-14540174D02*
X12522801Y-14587793D01*
X12522801Y-14587793D02*
X12513277Y-14625888D01*
X12513277Y-14625888D02*
X12503753Y-14644936D01*
X12503753Y-14644936D02*
X12494229Y-14654460D01*
X12494229Y-14654460D02*
X12475182Y-14663984D01*
X12475182Y-14663984D02*
X12456134Y-14663984D01*
X12456134Y-14663984D02*
X12437086Y-14654460D01*
X12437086Y-14654460D02*
X12427563Y-14644936D01*
X12427563Y-14644936D02*
X12418039Y-14625888D01*
X12418039Y-14625888D02*
X12408515Y-14587793D01*
X12408515Y-14587793D02*
X12408515Y-14540174D01*
X12408515Y-14540174D02*
X12418039Y-14502079D01*
X12418039Y-14502079D02*
X12427563Y-14483031D01*
X12427563Y-14483031D02*
X12437086Y-14473508D01*
X12437086Y-14473508D02*
X12456134Y-14463984D01*
X12608515Y-14644936D02*
X12618039Y-14654460D01*
X12618039Y-14654460D02*
X12608515Y-14663984D01*
X12608515Y-14663984D02*
X12598991Y-14654460D01*
X12598991Y-14654460D02*
X12608515Y-14644936D01*
X12608515Y-14644936D02*
X12608515Y-14663984D01*
X12741848Y-14463984D02*
X12760896Y-14463984D01*
X12760896Y-14463984D02*
X12779944Y-14473508D01*
X12779944Y-14473508D02*
X12789467Y-14483031D01*
X12789467Y-14483031D02*
X12798991Y-14502079D01*
X12798991Y-14502079D02*
X12808515Y-14540174D01*
X12808515Y-14540174D02*
X12808515Y-14587793D01*
X12808515Y-14587793D02*
X12798991Y-14625888D01*
X12798991Y-14625888D02*
X12789467Y-14644936D01*
X12789467Y-14644936D02*
X12779944Y-14654460D01*
X12779944Y-14654460D02*
X12760896Y-14663984D01*
X12760896Y-14663984D02*
X12741848Y-14663984D01*
X12741848Y-14663984D02*
X12722801Y-14654460D01*
X12722801Y-14654460D02*
X12713277Y-14644936D01*
X12713277Y-14644936D02*
X12703753Y-14625888D01*
X12703753Y-14625888D02*
X12694229Y-14587793D01*
X12694229Y-14587793D02*
X12694229Y-14540174D01*
X12694229Y-14540174D02*
X12703753Y-14502079D01*
X12703753Y-14502079D02*
X12713277Y-14483031D01*
X12713277Y-14483031D02*
X12722801Y-14473508D01*
X12722801Y-14473508D02*
X12741848Y-14463984D01*
X12998991Y-14663984D02*
X12884706Y-14663984D01*
X12941848Y-14663984D02*
X12941848Y-14463984D01*
X12941848Y-14463984D02*
X12922801Y-14492555D01*
X12922801Y-14492555D02*
X12903753Y-14511603D01*
X12903753Y-14511603D02*
X12884706Y-14521127D01*
X13179944Y-14463984D02*
X13084706Y-14463984D01*
X13084706Y-14463984D02*
X13075182Y-14559222D01*
X13075182Y-14559222D02*
X13084706Y-14549698D01*
X13084706Y-14549698D02*
X13103753Y-14540174D01*
X13103753Y-14540174D02*
X13151372Y-14540174D01*
X13151372Y-14540174D02*
X13170420Y-14549698D01*
X13170420Y-14549698D02*
X13179944Y-14559222D01*
X13179944Y-14559222D02*
X13189467Y-14578269D01*
X13189467Y-14578269D02*
X13189467Y-14625888D01*
X13189467Y-14625888D02*
X13179944Y-14644936D01*
X13179944Y-14644936D02*
X13170420Y-14654460D01*
X13170420Y-14654460D02*
X13151372Y-14663984D01*
X13151372Y-14663984D02*
X13103753Y-14663984D01*
X13103753Y-14663984D02*
X13084706Y-14654460D01*
X13084706Y-14654460D02*
X13075182Y-14644936D01*
X13256134Y-14463984D02*
X13389467Y-14463984D01*
X13389467Y-14463984D02*
X13303753Y-14663984D01*
X13456134Y-14463984D02*
X13456134Y-14502079D01*
X13532325Y-14463984D02*
X13532325Y-14502079D01*
X13827563Y-14740174D02*
X13818039Y-14730650D01*
X13818039Y-14730650D02*
X13798991Y-14702079D01*
X13798991Y-14702079D02*
X13789468Y-14683031D01*
X13789468Y-14683031D02*
X13779944Y-14654460D01*
X13779944Y-14654460D02*
X13770420Y-14606841D01*
X13770420Y-14606841D02*
X13770420Y-14568746D01*
X13770420Y-14568746D02*
X13779944Y-14521127D01*
X13779944Y-14521127D02*
X13789468Y-14492555D01*
X13789468Y-14492555D02*
X13798991Y-14473508D01*
X13798991Y-14473508D02*
X13818039Y-14444936D01*
X13818039Y-14444936D02*
X13827563Y-14435412D01*
X14008515Y-14663984D02*
X13894229Y-14663984D01*
X13951372Y-14663984D02*
X13951372Y-14463984D01*
X13951372Y-14463984D02*
X13932325Y-14492555D01*
X13932325Y-14492555D02*
X13913277Y-14511603D01*
X13913277Y-14511603D02*
X13894229Y-14521127D01*
X14246610Y-14663984D02*
X14246610Y-14463984D01*
X14332325Y-14663984D02*
X14332325Y-14559222D01*
X14332325Y-14559222D02*
X14322801Y-14540174D01*
X14322801Y-14540174D02*
X14303753Y-14530650D01*
X14303753Y-14530650D02*
X14275182Y-14530650D01*
X14275182Y-14530650D02*
X14256134Y-14540174D01*
X14256134Y-14540174D02*
X14246610Y-14549698D01*
X14456134Y-14663984D02*
X14437087Y-14654460D01*
X14437087Y-14654460D02*
X14427563Y-14644936D01*
X14427563Y-14644936D02*
X14418039Y-14625888D01*
X14418039Y-14625888D02*
X14418039Y-14568746D01*
X14418039Y-14568746D02*
X14427563Y-14549698D01*
X14427563Y-14549698D02*
X14437087Y-14540174D01*
X14437087Y-14540174D02*
X14456134Y-14530650D01*
X14456134Y-14530650D02*
X14484706Y-14530650D01*
X14484706Y-14530650D02*
X14503753Y-14540174D01*
X14503753Y-14540174D02*
X14513277Y-14549698D01*
X14513277Y-14549698D02*
X14522801Y-14568746D01*
X14522801Y-14568746D02*
X14522801Y-14625888D01*
X14522801Y-14625888D02*
X14513277Y-14644936D01*
X14513277Y-14644936D02*
X14503753Y-14654460D01*
X14503753Y-14654460D02*
X14484706Y-14663984D01*
X14484706Y-14663984D02*
X14456134Y-14663984D01*
X14637087Y-14663984D02*
X14618039Y-14654460D01*
X14618039Y-14654460D02*
X14608515Y-14635412D01*
X14608515Y-14635412D02*
X14608515Y-14463984D01*
X14789468Y-14654460D02*
X14770420Y-14663984D01*
X14770420Y-14663984D02*
X14732325Y-14663984D01*
X14732325Y-14663984D02*
X14713277Y-14654460D01*
X14713277Y-14654460D02*
X14703753Y-14635412D01*
X14703753Y-14635412D02*
X14703753Y-14559222D01*
X14703753Y-14559222D02*
X14713277Y-14540174D01*
X14713277Y-14540174D02*
X14732325Y-14530650D01*
X14732325Y-14530650D02*
X14770420Y-14530650D01*
X14770420Y-14530650D02*
X14789468Y-14540174D01*
X14789468Y-14540174D02*
X14798991Y-14559222D01*
X14798991Y-14559222D02*
X14798991Y-14578269D01*
X14798991Y-14578269D02*
X14703753Y-14597317D01*
X14865658Y-14740174D02*
X14875182Y-14730650D01*
X14875182Y-14730650D02*
X14894230Y-14702079D01*
X14894230Y-14702079D02*
X14903753Y-14683031D01*
X14903753Y-14683031D02*
X14913277Y-14654460D01*
X14913277Y-14654460D02*
X14922801Y-14606841D01*
X14922801Y-14606841D02*
X14922801Y-14568746D01*
X14922801Y-14568746D02*
X14913277Y-14521127D01*
X14913277Y-14521127D02*
X14903753Y-14492555D01*
X14903753Y-14492555D02*
X14894230Y-14473508D01*
X14894230Y-14473508D02*
X14875182Y-14444936D01*
X14875182Y-14444936D02*
X14865658Y-14435412D01*
D13*
X10252500Y-14836500D02*
G75*
G02*
X10132500Y-14836500I-60000J0D01*
G01*
X10132500Y-14836500D02*
G75*
G02*
X10252500Y-14836500I60000J0D01*
G01*
D11*
X10618039Y-14927984D02*
X10503753Y-14927984D01*
X10560896Y-14927984D02*
X10560896Y-14727984D01*
X10560896Y-14727984D02*
X10541848Y-14756555D01*
X10541848Y-14756555D02*
X10522801Y-14775603D01*
X10522801Y-14775603D02*
X10503753Y-14785127D01*
X10703753Y-14908936D02*
X10713277Y-14918460D01*
X10713277Y-14918460D02*
X10703753Y-14927984D01*
X10703753Y-14927984D02*
X10694229Y-14918460D01*
X10694229Y-14918460D02*
X10703753Y-14908936D01*
X10703753Y-14908936D02*
X10703753Y-14927984D01*
X10789467Y-14747031D02*
X10798991Y-14737508D01*
X10798991Y-14737508D02*
X10818039Y-14727984D01*
X10818039Y-14727984D02*
X10865658Y-14727984D01*
X10865658Y-14727984D02*
X10884705Y-14737508D01*
X10884705Y-14737508D02*
X10894229Y-14747031D01*
X10894229Y-14747031D02*
X10903753Y-14766079D01*
X10903753Y-14766079D02*
X10903753Y-14785127D01*
X10903753Y-14785127D02*
X10894229Y-14813698D01*
X10894229Y-14813698D02*
X10779944Y-14927984D01*
X10779944Y-14927984D02*
X10903753Y-14927984D01*
X11027563Y-14727984D02*
X11046610Y-14727984D01*
X11046610Y-14727984D02*
X11065658Y-14737508D01*
X11065658Y-14737508D02*
X11075182Y-14747031D01*
X11075182Y-14747031D02*
X11084705Y-14766079D01*
X11084705Y-14766079D02*
X11094229Y-14804174D01*
X11094229Y-14804174D02*
X11094229Y-14851793D01*
X11094229Y-14851793D02*
X11084705Y-14889888D01*
X11084705Y-14889888D02*
X11075182Y-14908936D01*
X11075182Y-14908936D02*
X11065658Y-14918460D01*
X11065658Y-14918460D02*
X11046610Y-14927984D01*
X11046610Y-14927984D02*
X11027563Y-14927984D01*
X11027563Y-14927984D02*
X11008515Y-14918460D01*
X11008515Y-14918460D02*
X10998991Y-14908936D01*
X10998991Y-14908936D02*
X10989467Y-14889888D01*
X10989467Y-14889888D02*
X10979944Y-14851793D01*
X10979944Y-14851793D02*
X10979944Y-14804174D01*
X10979944Y-14804174D02*
X10989467Y-14766079D01*
X10989467Y-14766079D02*
X10998991Y-14747031D01*
X10998991Y-14747031D02*
X11008515Y-14737508D01*
X11008515Y-14737508D02*
X11027563Y-14727984D01*
X11218039Y-14727984D02*
X11237086Y-14727984D01*
X11237086Y-14727984D02*
X11256134Y-14737508D01*
X11256134Y-14737508D02*
X11265658Y-14747031D01*
X11265658Y-14747031D02*
X11275182Y-14766079D01*
X11275182Y-14766079D02*
X11284705Y-14804174D01*
X11284705Y-14804174D02*
X11284705Y-14851793D01*
X11284705Y-14851793D02*
X11275182Y-14889888D01*
X11275182Y-14889888D02*
X11265658Y-14908936D01*
X11265658Y-14908936D02*
X11256134Y-14918460D01*
X11256134Y-14918460D02*
X11237086Y-14927984D01*
X11237086Y-14927984D02*
X11218039Y-14927984D01*
X11218039Y-14927984D02*
X11198991Y-14918460D01*
X11198991Y-14918460D02*
X11189467Y-14908936D01*
X11189467Y-14908936D02*
X11179944Y-14889888D01*
X11179944Y-14889888D02*
X11170420Y-14851793D01*
X11170420Y-14851793D02*
X11170420Y-14804174D01*
X11170420Y-14804174D02*
X11179944Y-14766079D01*
X11179944Y-14766079D02*
X11189467Y-14747031D01*
X11189467Y-14747031D02*
X11198991Y-14737508D01*
X11198991Y-14737508D02*
X11218039Y-14727984D01*
X11370420Y-14927984D02*
X11370420Y-14794650D01*
X11370420Y-14813698D02*
X11379943Y-14804174D01*
X11379943Y-14804174D02*
X11398991Y-14794650D01*
X11398991Y-14794650D02*
X11427563Y-14794650D01*
X11427563Y-14794650D02*
X11446610Y-14804174D01*
X11446610Y-14804174D02*
X11456134Y-14823222D01*
X11456134Y-14823222D02*
X11456134Y-14927984D01*
X11456134Y-14823222D02*
X11465658Y-14804174D01*
X11465658Y-14804174D02*
X11484705Y-14794650D01*
X11484705Y-14794650D02*
X11513277Y-14794650D01*
X11513277Y-14794650D02*
X11532324Y-14804174D01*
X11532324Y-14804174D02*
X11541848Y-14823222D01*
X11541848Y-14823222D02*
X11541848Y-14927984D01*
X11637086Y-14927984D02*
X11637086Y-14794650D01*
X11637086Y-14813698D02*
X11646610Y-14804174D01*
X11646610Y-14804174D02*
X11665658Y-14794650D01*
X11665658Y-14794650D02*
X11694229Y-14794650D01*
X11694229Y-14794650D02*
X11713277Y-14804174D01*
X11713277Y-14804174D02*
X11722801Y-14823222D01*
X11722801Y-14823222D02*
X11722801Y-14927984D01*
X11722801Y-14823222D02*
X11732324Y-14804174D01*
X11732324Y-14804174D02*
X11751372Y-14794650D01*
X11751372Y-14794650D02*
X11779943Y-14794650D01*
X11779943Y-14794650D02*
X11798991Y-14804174D01*
X11798991Y-14804174D02*
X11808515Y-14823222D01*
X11808515Y-14823222D02*
X11808515Y-14927984D01*
X12198991Y-14718460D02*
X12027563Y-14975603D01*
X12456134Y-14727984D02*
X12475182Y-14727984D01*
X12475182Y-14727984D02*
X12494229Y-14737508D01*
X12494229Y-14737508D02*
X12503753Y-14747031D01*
X12503753Y-14747031D02*
X12513277Y-14766079D01*
X12513277Y-14766079D02*
X12522801Y-14804174D01*
X12522801Y-14804174D02*
X12522801Y-14851793D01*
X12522801Y-14851793D02*
X12513277Y-14889888D01*
X12513277Y-14889888D02*
X12503753Y-14908936D01*
X12503753Y-14908936D02*
X12494229Y-14918460D01*
X12494229Y-14918460D02*
X12475182Y-14927984D01*
X12475182Y-14927984D02*
X12456134Y-14927984D01*
X12456134Y-14927984D02*
X12437086Y-14918460D01*
X12437086Y-14918460D02*
X12427563Y-14908936D01*
X12427563Y-14908936D02*
X12418039Y-14889888D01*
X12418039Y-14889888D02*
X12408515Y-14851793D01*
X12408515Y-14851793D02*
X12408515Y-14804174D01*
X12408515Y-14804174D02*
X12418039Y-14766079D01*
X12418039Y-14766079D02*
X12427563Y-14747031D01*
X12427563Y-14747031D02*
X12437086Y-14737508D01*
X12437086Y-14737508D02*
X12456134Y-14727984D01*
X12608515Y-14908936D02*
X12618039Y-14918460D01*
X12618039Y-14918460D02*
X12608515Y-14927984D01*
X12608515Y-14927984D02*
X12598991Y-14918460D01*
X12598991Y-14918460D02*
X12608515Y-14908936D01*
X12608515Y-14908936D02*
X12608515Y-14927984D01*
X12741848Y-14727984D02*
X12760896Y-14727984D01*
X12760896Y-14727984D02*
X12779944Y-14737508D01*
X12779944Y-14737508D02*
X12789467Y-14747031D01*
X12789467Y-14747031D02*
X12798991Y-14766079D01*
X12798991Y-14766079D02*
X12808515Y-14804174D01*
X12808515Y-14804174D02*
X12808515Y-14851793D01*
X12808515Y-14851793D02*
X12798991Y-14889888D01*
X12798991Y-14889888D02*
X12789467Y-14908936D01*
X12789467Y-14908936D02*
X12779944Y-14918460D01*
X12779944Y-14918460D02*
X12760896Y-14927984D01*
X12760896Y-14927984D02*
X12741848Y-14927984D01*
X12741848Y-14927984D02*
X12722801Y-14918460D01*
X12722801Y-14918460D02*
X12713277Y-14908936D01*
X12713277Y-14908936D02*
X12703753Y-14889888D01*
X12703753Y-14889888D02*
X12694229Y-14851793D01*
X12694229Y-14851793D02*
X12694229Y-14804174D01*
X12694229Y-14804174D02*
X12703753Y-14766079D01*
X12703753Y-14766079D02*
X12713277Y-14747031D01*
X12713277Y-14747031D02*
X12722801Y-14737508D01*
X12722801Y-14737508D02*
X12741848Y-14727984D01*
X12979944Y-14794650D02*
X12979944Y-14927984D01*
X12932325Y-14718460D02*
X12884706Y-14861317D01*
X12884706Y-14861317D02*
X13008515Y-14861317D01*
X13065658Y-14727984D02*
X13198991Y-14727984D01*
X13198991Y-14727984D02*
X13113277Y-14927984D01*
X13265658Y-14747031D02*
X13275182Y-14737508D01*
X13275182Y-14737508D02*
X13294229Y-14727984D01*
X13294229Y-14727984D02*
X13341848Y-14727984D01*
X13341848Y-14727984D02*
X13360896Y-14737508D01*
X13360896Y-14737508D02*
X13370420Y-14747031D01*
X13370420Y-14747031D02*
X13379944Y-14766079D01*
X13379944Y-14766079D02*
X13379944Y-14785127D01*
X13379944Y-14785127D02*
X13370420Y-14813698D01*
X13370420Y-14813698D02*
X13256134Y-14927984D01*
X13256134Y-14927984D02*
X13379944Y-14927984D01*
X13456134Y-14727984D02*
X13456134Y-14766079D01*
X13532325Y-14727984D02*
X13532325Y-14766079D01*
X13827563Y-15004174D02*
X13818039Y-14994650D01*
X13818039Y-14994650D02*
X13798991Y-14966079D01*
X13798991Y-14966079D02*
X13789468Y-14947031D01*
X13789468Y-14947031D02*
X13779944Y-14918460D01*
X13779944Y-14918460D02*
X13770420Y-14870841D01*
X13770420Y-14870841D02*
X13770420Y-14832746D01*
X13770420Y-14832746D02*
X13779944Y-14785127D01*
X13779944Y-14785127D02*
X13789468Y-14756555D01*
X13789468Y-14756555D02*
X13798991Y-14737508D01*
X13798991Y-14737508D02*
X13818039Y-14708936D01*
X13818039Y-14708936D02*
X13827563Y-14699412D01*
X14008515Y-14927984D02*
X13894229Y-14927984D01*
X13951372Y-14927984D02*
X13951372Y-14727984D01*
X13951372Y-14727984D02*
X13932325Y-14756555D01*
X13932325Y-14756555D02*
X13913277Y-14775603D01*
X13913277Y-14775603D02*
X13894229Y-14785127D01*
X14179944Y-14727984D02*
X14141848Y-14727984D01*
X14141848Y-14727984D02*
X14122801Y-14737508D01*
X14122801Y-14737508D02*
X14113277Y-14747031D01*
X14113277Y-14747031D02*
X14094229Y-14775603D01*
X14094229Y-14775603D02*
X14084706Y-14813698D01*
X14084706Y-14813698D02*
X14084706Y-14889888D01*
X14084706Y-14889888D02*
X14094229Y-14908936D01*
X14094229Y-14908936D02*
X14103753Y-14918460D01*
X14103753Y-14918460D02*
X14122801Y-14927984D01*
X14122801Y-14927984D02*
X14160896Y-14927984D01*
X14160896Y-14927984D02*
X14179944Y-14918460D01*
X14179944Y-14918460D02*
X14189468Y-14908936D01*
X14189468Y-14908936D02*
X14198991Y-14889888D01*
X14198991Y-14889888D02*
X14198991Y-14842269D01*
X14198991Y-14842269D02*
X14189468Y-14823222D01*
X14189468Y-14823222D02*
X14179944Y-14813698D01*
X14179944Y-14813698D02*
X14160896Y-14804174D01*
X14160896Y-14804174D02*
X14122801Y-14804174D01*
X14122801Y-14804174D02*
X14103753Y-14813698D01*
X14103753Y-14813698D02*
X14094229Y-14823222D01*
X14094229Y-14823222D02*
X14084706Y-14842269D01*
X14437087Y-14927984D02*
X14437087Y-14727984D01*
X14522801Y-14927984D02*
X14522801Y-14823222D01*
X14522801Y-14823222D02*
X14513277Y-14804174D01*
X14513277Y-14804174D02*
X14494230Y-14794650D01*
X14494230Y-14794650D02*
X14465658Y-14794650D01*
X14465658Y-14794650D02*
X14446610Y-14804174D01*
X14446610Y-14804174D02*
X14437087Y-14813698D01*
X14646610Y-14927984D02*
X14627563Y-14918460D01*
X14627563Y-14918460D02*
X14618039Y-14908936D01*
X14618039Y-14908936D02*
X14608515Y-14889888D01*
X14608515Y-14889888D02*
X14608515Y-14832746D01*
X14608515Y-14832746D02*
X14618039Y-14813698D01*
X14618039Y-14813698D02*
X14627563Y-14804174D01*
X14627563Y-14804174D02*
X14646610Y-14794650D01*
X14646610Y-14794650D02*
X14675182Y-14794650D01*
X14675182Y-14794650D02*
X14694230Y-14804174D01*
X14694230Y-14804174D02*
X14703753Y-14813698D01*
X14703753Y-14813698D02*
X14713277Y-14832746D01*
X14713277Y-14832746D02*
X14713277Y-14889888D01*
X14713277Y-14889888D02*
X14703753Y-14908936D01*
X14703753Y-14908936D02*
X14694230Y-14918460D01*
X14694230Y-14918460D02*
X14675182Y-14927984D01*
X14675182Y-14927984D02*
X14646610Y-14927984D01*
X14827563Y-14927984D02*
X14808515Y-14918460D01*
X14808515Y-14918460D02*
X14798991Y-14899412D01*
X14798991Y-14899412D02*
X14798991Y-14727984D01*
X14979944Y-14918460D02*
X14960896Y-14927984D01*
X14960896Y-14927984D02*
X14922801Y-14927984D01*
X14922801Y-14927984D02*
X14903753Y-14918460D01*
X14903753Y-14918460D02*
X14894230Y-14899412D01*
X14894230Y-14899412D02*
X14894230Y-14823222D01*
X14894230Y-14823222D02*
X14903753Y-14804174D01*
X14903753Y-14804174D02*
X14922801Y-14794650D01*
X14922801Y-14794650D02*
X14960896Y-14794650D01*
X14960896Y-14794650D02*
X14979944Y-14804174D01*
X14979944Y-14804174D02*
X14989468Y-14823222D01*
X14989468Y-14823222D02*
X14989468Y-14842269D01*
X14989468Y-14842269D02*
X14894230Y-14861317D01*
X15065658Y-14918460D02*
X15084706Y-14927984D01*
X15084706Y-14927984D02*
X15122801Y-14927984D01*
X15122801Y-14927984D02*
X15141849Y-14918460D01*
X15141849Y-14918460D02*
X15151372Y-14899412D01*
X15151372Y-14899412D02*
X15151372Y-14889888D01*
X15151372Y-14889888D02*
X15141849Y-14870841D01*
X15141849Y-14870841D02*
X15122801Y-14861317D01*
X15122801Y-14861317D02*
X15094230Y-14861317D01*
X15094230Y-14861317D02*
X15075182Y-14851793D01*
X15075182Y-14851793D02*
X15065658Y-14832746D01*
X15065658Y-14832746D02*
X15065658Y-14823222D01*
X15065658Y-14823222D02*
X15075182Y-14804174D01*
X15075182Y-14804174D02*
X15094230Y-14794650D01*
X15094230Y-14794650D02*
X15122801Y-14794650D01*
X15122801Y-14794650D02*
X15141849Y-14804174D01*
X15218039Y-15004174D02*
X15227563Y-14994650D01*
X15227563Y-14994650D02*
X15246611Y-14966079D01*
X15246611Y-14966079D02*
X15256134Y-14947031D01*
X15256134Y-14947031D02*
X15265658Y-14918460D01*
X15265658Y-14918460D02*
X15275182Y-14870841D01*
X15275182Y-14870841D02*
X15275182Y-14832746D01*
X15275182Y-14832746D02*
X15265658Y-14785127D01*
X15265658Y-14785127D02*
X15256134Y-14756555D01*
X15256134Y-14756555D02*
X15246611Y-14737508D01*
X15246611Y-14737508D02*
X15227563Y-14708936D01*
X15227563Y-14708936D02*
X15218039Y-14699412D01*
D14*
X10177500Y-15025500D02*
X10177500Y-15175500D01*
X10102500Y-15100500D02*
X10252500Y-15100500D01*
D11*
X10618039Y-15191984D02*
X10503753Y-15191984D01*
X10560896Y-15191984D02*
X10560896Y-14991984D01*
X10560896Y-14991984D02*
X10541848Y-15020555D01*
X10541848Y-15020555D02*
X10522801Y-15039603D01*
X10522801Y-15039603D02*
X10503753Y-15049127D01*
X10703753Y-15172936D02*
X10713277Y-15182460D01*
X10713277Y-15182460D02*
X10703753Y-15191984D01*
X10703753Y-15191984D02*
X10694229Y-15182460D01*
X10694229Y-15182460D02*
X10703753Y-15172936D01*
X10703753Y-15172936D02*
X10703753Y-15191984D01*
X10894229Y-14991984D02*
X10798991Y-14991984D01*
X10798991Y-14991984D02*
X10789467Y-15087222D01*
X10789467Y-15087222D02*
X10798991Y-15077698D01*
X10798991Y-15077698D02*
X10818039Y-15068174D01*
X10818039Y-15068174D02*
X10865658Y-15068174D01*
X10865658Y-15068174D02*
X10884705Y-15077698D01*
X10884705Y-15077698D02*
X10894229Y-15087222D01*
X10894229Y-15087222D02*
X10903753Y-15106269D01*
X10903753Y-15106269D02*
X10903753Y-15153888D01*
X10903753Y-15153888D02*
X10894229Y-15172936D01*
X10894229Y-15172936D02*
X10884705Y-15182460D01*
X10884705Y-15182460D02*
X10865658Y-15191984D01*
X10865658Y-15191984D02*
X10818039Y-15191984D01*
X10818039Y-15191984D02*
X10798991Y-15182460D01*
X10798991Y-15182460D02*
X10789467Y-15172936D01*
X11027563Y-14991984D02*
X11046610Y-14991984D01*
X11046610Y-14991984D02*
X11065658Y-15001508D01*
X11065658Y-15001508D02*
X11075182Y-15011031D01*
X11075182Y-15011031D02*
X11084705Y-15030079D01*
X11084705Y-15030079D02*
X11094229Y-15068174D01*
X11094229Y-15068174D02*
X11094229Y-15115793D01*
X11094229Y-15115793D02*
X11084705Y-15153888D01*
X11084705Y-15153888D02*
X11075182Y-15172936D01*
X11075182Y-15172936D02*
X11065658Y-15182460D01*
X11065658Y-15182460D02*
X11046610Y-15191984D01*
X11046610Y-15191984D02*
X11027563Y-15191984D01*
X11027563Y-15191984D02*
X11008515Y-15182460D01*
X11008515Y-15182460D02*
X10998991Y-15172936D01*
X10998991Y-15172936D02*
X10989467Y-15153888D01*
X10989467Y-15153888D02*
X10979944Y-15115793D01*
X10979944Y-15115793D02*
X10979944Y-15068174D01*
X10979944Y-15068174D02*
X10989467Y-15030079D01*
X10989467Y-15030079D02*
X10998991Y-15011031D01*
X10998991Y-15011031D02*
X11008515Y-15001508D01*
X11008515Y-15001508D02*
X11027563Y-14991984D01*
X11218039Y-14991984D02*
X11237086Y-14991984D01*
X11237086Y-14991984D02*
X11256134Y-15001508D01*
X11256134Y-15001508D02*
X11265658Y-15011031D01*
X11265658Y-15011031D02*
X11275182Y-15030079D01*
X11275182Y-15030079D02*
X11284705Y-15068174D01*
X11284705Y-15068174D02*
X11284705Y-15115793D01*
X11284705Y-15115793D02*
X11275182Y-15153888D01*
X11275182Y-15153888D02*
X11265658Y-15172936D01*
X11265658Y-15172936D02*
X11256134Y-15182460D01*
X11256134Y-15182460D02*
X11237086Y-15191984D01*
X11237086Y-15191984D02*
X11218039Y-15191984D01*
X11218039Y-15191984D02*
X11198991Y-15182460D01*
X11198991Y-15182460D02*
X11189467Y-15172936D01*
X11189467Y-15172936D02*
X11179944Y-15153888D01*
X11179944Y-15153888D02*
X11170420Y-15115793D01*
X11170420Y-15115793D02*
X11170420Y-15068174D01*
X11170420Y-15068174D02*
X11179944Y-15030079D01*
X11179944Y-15030079D02*
X11189467Y-15011031D01*
X11189467Y-15011031D02*
X11198991Y-15001508D01*
X11198991Y-15001508D02*
X11218039Y-14991984D01*
X11370420Y-15191984D02*
X11370420Y-15058650D01*
X11370420Y-15077698D02*
X11379943Y-15068174D01*
X11379943Y-15068174D02*
X11398991Y-15058650D01*
X11398991Y-15058650D02*
X11427563Y-15058650D01*
X11427563Y-15058650D02*
X11446610Y-15068174D01*
X11446610Y-15068174D02*
X11456134Y-15087222D01*
X11456134Y-15087222D02*
X11456134Y-15191984D01*
X11456134Y-15087222D02*
X11465658Y-15068174D01*
X11465658Y-15068174D02*
X11484705Y-15058650D01*
X11484705Y-15058650D02*
X11513277Y-15058650D01*
X11513277Y-15058650D02*
X11532324Y-15068174D01*
X11532324Y-15068174D02*
X11541848Y-15087222D01*
X11541848Y-15087222D02*
X11541848Y-15191984D01*
X11637086Y-15191984D02*
X11637086Y-15058650D01*
X11637086Y-15077698D02*
X11646610Y-15068174D01*
X11646610Y-15068174D02*
X11665658Y-15058650D01*
X11665658Y-15058650D02*
X11694229Y-15058650D01*
X11694229Y-15058650D02*
X11713277Y-15068174D01*
X11713277Y-15068174D02*
X11722801Y-15087222D01*
X11722801Y-15087222D02*
X11722801Y-15191984D01*
X11722801Y-15087222D02*
X11732324Y-15068174D01*
X11732324Y-15068174D02*
X11751372Y-15058650D01*
X11751372Y-15058650D02*
X11779943Y-15058650D01*
X11779943Y-15058650D02*
X11798991Y-15068174D01*
X11798991Y-15068174D02*
X11808515Y-15087222D01*
X11808515Y-15087222D02*
X11808515Y-15191984D01*
X12198991Y-14982460D02*
X12027563Y-15239603D01*
X12456134Y-14991984D02*
X12475182Y-14991984D01*
X12475182Y-14991984D02*
X12494229Y-15001508D01*
X12494229Y-15001508D02*
X12503753Y-15011031D01*
X12503753Y-15011031D02*
X12513277Y-15030079D01*
X12513277Y-15030079D02*
X12522801Y-15068174D01*
X12522801Y-15068174D02*
X12522801Y-15115793D01*
X12522801Y-15115793D02*
X12513277Y-15153888D01*
X12513277Y-15153888D02*
X12503753Y-15172936D01*
X12503753Y-15172936D02*
X12494229Y-15182460D01*
X12494229Y-15182460D02*
X12475182Y-15191984D01*
X12475182Y-15191984D02*
X12456134Y-15191984D01*
X12456134Y-15191984D02*
X12437086Y-15182460D01*
X12437086Y-15182460D02*
X12427563Y-15172936D01*
X12427563Y-15172936D02*
X12418039Y-15153888D01*
X12418039Y-15153888D02*
X12408515Y-15115793D01*
X12408515Y-15115793D02*
X12408515Y-15068174D01*
X12408515Y-15068174D02*
X12418039Y-15030079D01*
X12418039Y-15030079D02*
X12427563Y-15011031D01*
X12427563Y-15011031D02*
X12437086Y-15001508D01*
X12437086Y-15001508D02*
X12456134Y-14991984D01*
X12608515Y-15172936D02*
X12618039Y-15182460D01*
X12618039Y-15182460D02*
X12608515Y-15191984D01*
X12608515Y-15191984D02*
X12598991Y-15182460D01*
X12598991Y-15182460D02*
X12608515Y-15172936D01*
X12608515Y-15172936D02*
X12608515Y-15191984D01*
X12741848Y-14991984D02*
X12760896Y-14991984D01*
X12760896Y-14991984D02*
X12779944Y-15001508D01*
X12779944Y-15001508D02*
X12789467Y-15011031D01*
X12789467Y-15011031D02*
X12798991Y-15030079D01*
X12798991Y-15030079D02*
X12808515Y-15068174D01*
X12808515Y-15068174D02*
X12808515Y-15115793D01*
X12808515Y-15115793D02*
X12798991Y-15153888D01*
X12798991Y-15153888D02*
X12789467Y-15172936D01*
X12789467Y-15172936D02*
X12779944Y-15182460D01*
X12779944Y-15182460D02*
X12760896Y-15191984D01*
X12760896Y-15191984D02*
X12741848Y-15191984D01*
X12741848Y-15191984D02*
X12722801Y-15182460D01*
X12722801Y-15182460D02*
X12713277Y-15172936D01*
X12713277Y-15172936D02*
X12703753Y-15153888D01*
X12703753Y-15153888D02*
X12694229Y-15115793D01*
X12694229Y-15115793D02*
X12694229Y-15068174D01*
X12694229Y-15068174D02*
X12703753Y-15030079D01*
X12703753Y-15030079D02*
X12713277Y-15011031D01*
X12713277Y-15011031D02*
X12722801Y-15001508D01*
X12722801Y-15001508D02*
X12741848Y-14991984D01*
X12989467Y-14991984D02*
X12894229Y-14991984D01*
X12894229Y-14991984D02*
X12884706Y-15087222D01*
X12884706Y-15087222D02*
X12894229Y-15077698D01*
X12894229Y-15077698D02*
X12913277Y-15068174D01*
X12913277Y-15068174D02*
X12960896Y-15068174D01*
X12960896Y-15068174D02*
X12979944Y-15077698D01*
X12979944Y-15077698D02*
X12989467Y-15087222D01*
X12989467Y-15087222D02*
X12998991Y-15106269D01*
X12998991Y-15106269D02*
X12998991Y-15153888D01*
X12998991Y-15153888D02*
X12989467Y-15172936D01*
X12989467Y-15172936D02*
X12979944Y-15182460D01*
X12979944Y-15182460D02*
X12960896Y-15191984D01*
X12960896Y-15191984D02*
X12913277Y-15191984D01*
X12913277Y-15191984D02*
X12894229Y-15182460D01*
X12894229Y-15182460D02*
X12884706Y-15172936D01*
X13094229Y-15191984D02*
X13132325Y-15191984D01*
X13132325Y-15191984D02*
X13151372Y-15182460D01*
X13151372Y-15182460D02*
X13160896Y-15172936D01*
X13160896Y-15172936D02*
X13179944Y-15144365D01*
X13179944Y-15144365D02*
X13189467Y-15106269D01*
X13189467Y-15106269D02*
X13189467Y-15030079D01*
X13189467Y-15030079D02*
X13179944Y-15011031D01*
X13179944Y-15011031D02*
X13170420Y-15001508D01*
X13170420Y-15001508D02*
X13151372Y-14991984D01*
X13151372Y-14991984D02*
X13113277Y-14991984D01*
X13113277Y-14991984D02*
X13094229Y-15001508D01*
X13094229Y-15001508D02*
X13084706Y-15011031D01*
X13084706Y-15011031D02*
X13075182Y-15030079D01*
X13075182Y-15030079D02*
X13075182Y-15077698D01*
X13075182Y-15077698D02*
X13084706Y-15096746D01*
X13084706Y-15096746D02*
X13094229Y-15106269D01*
X13094229Y-15106269D02*
X13113277Y-15115793D01*
X13113277Y-15115793D02*
X13151372Y-15115793D01*
X13151372Y-15115793D02*
X13170420Y-15106269D01*
X13170420Y-15106269D02*
X13179944Y-15096746D01*
X13179944Y-15096746D02*
X13189467Y-15077698D01*
X13379944Y-15191984D02*
X13265658Y-15191984D01*
X13322801Y-15191984D02*
X13322801Y-14991984D01*
X13322801Y-14991984D02*
X13303753Y-15020555D01*
X13303753Y-15020555D02*
X13284706Y-15039603D01*
X13284706Y-15039603D02*
X13265658Y-15049127D01*
X13456134Y-14991984D02*
X13456134Y-15030079D01*
X13532325Y-14991984D02*
X13532325Y-15030079D01*
X13827563Y-15268174D02*
X13818039Y-15258650D01*
X13818039Y-15258650D02*
X13798991Y-15230079D01*
X13798991Y-15230079D02*
X13789468Y-15211031D01*
X13789468Y-15211031D02*
X13779944Y-15182460D01*
X13779944Y-15182460D02*
X13770420Y-15134841D01*
X13770420Y-15134841D02*
X13770420Y-15096746D01*
X13770420Y-15096746D02*
X13779944Y-15049127D01*
X13779944Y-15049127D02*
X13789468Y-15020555D01*
X13789468Y-15020555D02*
X13798991Y-15001508D01*
X13798991Y-15001508D02*
X13818039Y-14972936D01*
X13818039Y-14972936D02*
X13827563Y-14963412D01*
X14008515Y-15191984D02*
X13894229Y-15191984D01*
X13951372Y-15191984D02*
X13951372Y-14991984D01*
X13951372Y-14991984D02*
X13932325Y-15020555D01*
X13932325Y-15020555D02*
X13913277Y-15039603D01*
X13913277Y-15039603D02*
X13894229Y-15049127D01*
X14179944Y-14991984D02*
X14141848Y-14991984D01*
X14141848Y-14991984D02*
X14122801Y-15001508D01*
X14122801Y-15001508D02*
X14113277Y-15011031D01*
X14113277Y-15011031D02*
X14094229Y-15039603D01*
X14094229Y-15039603D02*
X14084706Y-15077698D01*
X14084706Y-15077698D02*
X14084706Y-15153888D01*
X14084706Y-15153888D02*
X14094229Y-15172936D01*
X14094229Y-15172936D02*
X14103753Y-15182460D01*
X14103753Y-15182460D02*
X14122801Y-15191984D01*
X14122801Y-15191984D02*
X14160896Y-15191984D01*
X14160896Y-15191984D02*
X14179944Y-15182460D01*
X14179944Y-15182460D02*
X14189468Y-15172936D01*
X14189468Y-15172936D02*
X14198991Y-15153888D01*
X14198991Y-15153888D02*
X14198991Y-15106269D01*
X14198991Y-15106269D02*
X14189468Y-15087222D01*
X14189468Y-15087222D02*
X14179944Y-15077698D01*
X14179944Y-15077698D02*
X14160896Y-15068174D01*
X14160896Y-15068174D02*
X14122801Y-15068174D01*
X14122801Y-15068174D02*
X14103753Y-15077698D01*
X14103753Y-15077698D02*
X14094229Y-15087222D01*
X14094229Y-15087222D02*
X14084706Y-15106269D01*
X14437087Y-15191984D02*
X14437087Y-14991984D01*
X14522801Y-15191984D02*
X14522801Y-15087222D01*
X14522801Y-15087222D02*
X14513277Y-15068174D01*
X14513277Y-15068174D02*
X14494230Y-15058650D01*
X14494230Y-15058650D02*
X14465658Y-15058650D01*
X14465658Y-15058650D02*
X14446610Y-15068174D01*
X14446610Y-15068174D02*
X14437087Y-15077698D01*
X14646610Y-15191984D02*
X14627563Y-15182460D01*
X14627563Y-15182460D02*
X14618039Y-15172936D01*
X14618039Y-15172936D02*
X14608515Y-15153888D01*
X14608515Y-15153888D02*
X14608515Y-15096746D01*
X14608515Y-15096746D02*
X14618039Y-15077698D01*
X14618039Y-15077698D02*
X14627563Y-15068174D01*
X14627563Y-15068174D02*
X14646610Y-15058650D01*
X14646610Y-15058650D02*
X14675182Y-15058650D01*
X14675182Y-15058650D02*
X14694230Y-15068174D01*
X14694230Y-15068174D02*
X14703753Y-15077698D01*
X14703753Y-15077698D02*
X14713277Y-15096746D01*
X14713277Y-15096746D02*
X14713277Y-15153888D01*
X14713277Y-15153888D02*
X14703753Y-15172936D01*
X14703753Y-15172936D02*
X14694230Y-15182460D01*
X14694230Y-15182460D02*
X14675182Y-15191984D01*
X14675182Y-15191984D02*
X14646610Y-15191984D01*
X14827563Y-15191984D02*
X14808515Y-15182460D01*
X14808515Y-15182460D02*
X14798991Y-15163412D01*
X14798991Y-15163412D02*
X14798991Y-14991984D01*
X14979944Y-15182460D02*
X14960896Y-15191984D01*
X14960896Y-15191984D02*
X14922801Y-15191984D01*
X14922801Y-15191984D02*
X14903753Y-15182460D01*
X14903753Y-15182460D02*
X14894230Y-15163412D01*
X14894230Y-15163412D02*
X14894230Y-15087222D01*
X14894230Y-15087222D02*
X14903753Y-15068174D01*
X14903753Y-15068174D02*
X14922801Y-15058650D01*
X14922801Y-15058650D02*
X14960896Y-15058650D01*
X14960896Y-15058650D02*
X14979944Y-15068174D01*
X14979944Y-15068174D02*
X14989468Y-15087222D01*
X14989468Y-15087222D02*
X14989468Y-15106269D01*
X14989468Y-15106269D02*
X14894230Y-15125317D01*
X15065658Y-15182460D02*
X15084706Y-15191984D01*
X15084706Y-15191984D02*
X15122801Y-15191984D01*
X15122801Y-15191984D02*
X15141849Y-15182460D01*
X15141849Y-15182460D02*
X15151372Y-15163412D01*
X15151372Y-15163412D02*
X15151372Y-15153888D01*
X15151372Y-15153888D02*
X15141849Y-15134841D01*
X15141849Y-15134841D02*
X15122801Y-15125317D01*
X15122801Y-15125317D02*
X15094230Y-15125317D01*
X15094230Y-15125317D02*
X15075182Y-15115793D01*
X15075182Y-15115793D02*
X15065658Y-15096746D01*
X15065658Y-15096746D02*
X15065658Y-15087222D01*
X15065658Y-15087222D02*
X15075182Y-15068174D01*
X15075182Y-15068174D02*
X15094230Y-15058650D01*
X15094230Y-15058650D02*
X15122801Y-15058650D01*
X15122801Y-15058650D02*
X15141849Y-15068174D01*
X15218039Y-15268174D02*
X15227563Y-15258650D01*
X15227563Y-15258650D02*
X15246611Y-15230079D01*
X15246611Y-15230079D02*
X15256134Y-15211031D01*
X15256134Y-15211031D02*
X15265658Y-15182460D01*
X15265658Y-15182460D02*
X15275182Y-15134841D01*
X15275182Y-15134841D02*
X15275182Y-15096746D01*
X15275182Y-15096746D02*
X15265658Y-15049127D01*
X15265658Y-15049127D02*
X15256134Y-15020555D01*
X15256134Y-15020555D02*
X15246611Y-15001508D01*
X15246611Y-15001508D02*
X15227563Y-14972936D01*
X15227563Y-14972936D02*
X15218039Y-14963412D01*
M02*
