M48
; DRILL file {KiCad 8.0.4} date 2024-07-25T19:41:14-0700
; FORMAT={-:-/ absolute / inch / decimal}
; #@! TF.CreationDate,2024-07-25T19:41:14-07:00
; #@! TF.GenerationSoftware,Kicad,Pcbnew,8.0.4
; #@! TF.FileFunction,Plated,1,2,PTH
FMAT,2
INCH
; #@! TA.AperFunction,Plated,PTH,ViaDrill
T1C0.0157
; #@! TA.AperFunction,Plated,PTH,ComponentDrill
T2C0.0472
; #@! TA.AperFunction,Plated,PTH,ComponentDrill
T3C0.0591
%
G90
G05
T1
X4.1457Y-2.4035
T2
X5.515Y-1.6752
X5.515Y-2.1673
X5.7118Y-1.6752
X5.7118Y-2.1673
X6.1055Y-1.6752
X6.1055Y-2.1673
X6.3024Y-1.6752
X6.3024Y-2.1673
X6.6961Y-1.6752
X6.6961Y-2.1673
X6.8929Y-1.6752
X6.8929Y-2.1673
X7.2866Y-1.6752
X7.2866Y-2.1673
X7.4835Y-1.6752
X7.4835Y-2.1673
T3
X4.4754Y-3.3961
X4.4754Y-4.5378
X4.4825Y-2.2544
X4.7254Y-3.2961
X4.7254Y-4.4378
X4.7325Y-2.1544
X5.4596Y-2.8449
X5.4596Y-3.9866
X5.7096Y-2.7449
X5.7096Y-3.8866
X6.6013Y-2.8449
X6.6013Y-3.9866
X6.8435Y-4.96
X6.8513Y-2.7449
X6.8513Y-3.8866
X6.9435Y-5.21
M30
