%TF.GenerationSoftware,KiCad,Pcbnew,8.0.4*%
%TF.CreationDate,2024-07-25T19:41:12-07:00*%
%TF.ProjectId,panel_2,70616e65-6c5f-4322-9e6b-696361645f70,rev?*%
%TF.SameCoordinates,Original*%
%TF.FileFunction,Copper,L1,Top*%
%TF.FilePolarity,Positive*%
%FSLAX46Y46*%
G04 Gerber Fmt 4.6, Leading zero omitted, Abs format (unit mm)*
G04 Created by KiCad (PCBNEW 8.0.4) date 2024-07-25 19:41:12*
%MOMM*%
%LPD*%
G01*
G04 APERTURE LIST*
G04 Aperture macros list*
%AMFreePoly0*
4,1,19,0.000000,0.744911,0.071157,0.744911,0.207708,0.704816,0.327430,0.627875,0.420627,0.520320,0.479746,0.390866,0.500000,0.250000,0.500000,-0.250000,0.479746,-0.390866,0.420627,-0.520320,0.327430,-0.627875,0.207708,-0.704816,0.071157,-0.744911,0.000000,-0.744911,0.000000,-0.750000,-0.500000,-0.750000,-0.500000,0.750000,0.000000,0.750000,0.000000,0.744911,0.000000,0.744911,
$1*%
%AMFreePoly1*
4,1,19,0.500000,-0.750000,0.000000,-0.750000,0.000000,-0.744911,-0.071157,-0.744911,-0.207708,-0.704816,-0.327430,-0.627875,-0.420627,-0.520320,-0.479746,-0.390866,-0.500000,-0.250000,-0.500000,0.250000,-0.479746,0.390866,-0.420627,0.520320,-0.327430,0.627875,-0.207708,0.704816,-0.071157,0.744911,0.000000,0.744911,0.000000,0.750000,0.500000,0.750000,0.500000,-0.750000,0.500000,-0.750000,
$1*%
G04 Aperture macros list end*
%TA.AperFunction,ComponentPad*%
%ADD10C,2.500000*%
%TD*%
%TA.AperFunction,SMDPad,CuDef*%
%ADD11FreePoly0,0.000000*%
%TD*%
%TA.AperFunction,SMDPad,CuDef*%
%ADD12FreePoly1,90.000000*%
%TD*%
%TA.AperFunction,SMDPad,CuDef*%
%ADD13FreePoly0,90.000000*%
%TD*%
%TA.AperFunction,ComponentPad*%
%ADD14O,1.700000X2.900000*%
%TD*%
%TA.AperFunction,ViaPad*%
%ADD15C,0.800000*%
%TD*%
%TA.AperFunction,Conductor*%
%ADD16C,0.800000*%
%TD*%
%TA.AperFunction,Conductor*%
%ADD17C,0.150000*%
%TD*%
%TA.AperFunction,Conductor*%
%ADD18C,0.200000*%
%TD*%
G04 APERTURE END LIST*
D10*
%TO.P,SW2_LK,1,1*%
%TO.N,/Buttons/B1*%
X113673943Y-115260000D03*
%TO.P,SW2_LK,2,2*%
%TO.N,GND*%
X120023943Y-112720000D03*
%TD*%
D11*
%TO.P,JP22,2,B*%
%TO.N,/Buttons/S1*%
X103150000Y-44550000D03*
%TD*%
%TO.P,JP19,2,B*%
%TO.N,/Buttons/B2*%
X103150000Y-122800000D03*
%TD*%
%TO.P,JP25,2,B*%
%TO.N,/Buttons/L1*%
X103150000Y-52800000D03*
%TD*%
D12*
%TO.P,JP24,1,A*%
%TO.N,Net-(JP24-A)*%
X154800000Y-119140000D03*
%TD*%
D11*
%TO.P,JP27,2,B*%
%TO.N,/Buttons/B4*%
X103150000Y-58300000D03*
%TD*%
%TO.P,JP23,2,B*%
%TO.N,/Buttons/A1*%
X103150000Y-47300000D03*
%TD*%
D12*
%TO.P,JP27,1,A*%
%TO.N,Net-(JP27-A)*%
X163050000Y-119140000D03*
%TD*%
D13*
%TO.P,JP3,2,B*%
%TO.N,Net-(JP22-A)*%
X149300000Y-138720000D03*
%TD*%
%TO.P,JP4,2,B*%
%TO.N,Net-(JP23-A)*%
X152050000Y-138720000D03*
%TD*%
%TO.P,JP9,2,B*%
%TO.N,/Buttons/L3*%
X168600000Y-138720000D03*
%TD*%
D12*
%TO.P,JP22,1,A*%
%TO.N,Net-(JP22-A)*%
X149300000Y-119140000D03*
%TD*%
D13*
%TO.P,JP7,2,B*%
%TO.N,Net-(JP26-A)*%
X160300000Y-138720000D03*
%TD*%
D12*
%TO.P,JP25,1,A*%
%TO.N,Net-(JP25-A)*%
X157550000Y-119140000D03*
%TD*%
D11*
%TO.P,JP21,2,B*%
%TO.N,/Buttons/S2*%
X103150000Y-41800000D03*
%TD*%
D10*
%TO.P,SW3_MK,1,1*%
%TO.N,/Buttons/B2*%
X138673943Y-101260000D03*
%TO.P,SW3_MK,2,2*%
%TO.N,GND*%
X145023943Y-98720000D03*
%TD*%
D11*
%TO.P,JP15,2,B*%
%TO.N,GND*%
X103150000Y-61050000D03*
%TD*%
D13*
%TO.P,JP2,2,B*%
%TO.N,Net-(JP2-B)*%
X146550000Y-138720000D03*
%TD*%
D14*
%TO.P,SW14_PS,1,1*%
%TO.N,/Buttons/A1*%
X170080000Y-55050000D03*
X170080000Y-42550000D03*
%TO.P,SW14_PS,2,2*%
%TO.N,GND*%
X175080000Y-55050000D03*
X175080000Y-42550000D03*
%TD*%
D11*
%TO.P,JP20,2,B*%
%TO.N,/Buttons/B1*%
X103150000Y-125800000D03*
%TD*%
%TO.P,JP24,2,B*%
%TO.N,/Buttons/A2*%
X103150000Y-50050000D03*
%TD*%
D12*
%TO.P,JP15,1,A*%
%TO.N,GND*%
X165800000Y-119140000D03*
%TD*%
D11*
%TO.P,JP26,2,B*%
%TO.N,/Buttons/R1*%
X103150000Y-55550000D03*
%TD*%
D10*
%TO.P,SW4_LP,1,1*%
%TO.N,/Buttons/B3*%
X113673943Y-86260000D03*
%TO.P,SW4_LP,2,2*%
%TO.N,GND*%
X120023943Y-83720000D03*
%TD*%
D14*
%TO.P,SW11_START,1,1*%
%TO.N,/Buttons/S2*%
X140080000Y-55050000D03*
X140080000Y-42550000D03*
%TO.P,SW11_START,2,2*%
%TO.N,GND*%
X145080000Y-55050000D03*
X145080000Y-42550000D03*
%TD*%
D10*
%TO.P,SW9_HK,1,1*%
%TO.N,/Buttons/R2*%
X167673943Y-101260000D03*
%TO.P,SW9_HK,2,2*%
%TO.N,GND*%
X174023943Y-98720000D03*
%TD*%
D13*
%TO.P,JP5,2,B*%
%TO.N,Net-(JP24-A)*%
X154800000Y-138720000D03*
%TD*%
D10*
%TO.P,SW5_MP,1,1*%
%TO.N,/Buttons/B4*%
X138673943Y-72260000D03*
%TO.P,SW5_MP,2,2*%
%TO.N,GND*%
X145023943Y-69720000D03*
%TD*%
D13*
%TO.P,JP8,2,B*%
%TO.N,Net-(JP27-A)*%
X163050000Y-138720000D03*
%TD*%
D10*
%TO.P,SW7_HP,1,1*%
%TO.N,/Buttons/R1*%
X167673943Y-72260000D03*
%TO.P,SW7_HP,2,2*%
%TO.N,GND*%
X174023943Y-69720000D03*
%TD*%
D13*
%TO.P,JP6,2,B*%
%TO.N,Net-(JP25-A)*%
X157550000Y-138720000D03*
%TD*%
D12*
%TO.P,JP23,1,A*%
%TO.N,Net-(JP23-A)*%
X152050000Y-119140000D03*
%TD*%
D11*
%TO.P,JP18,2,B*%
%TO.N,/Buttons/R2*%
X103150000Y-119800000D03*
%TD*%
%TO.P,JP17,2,B*%
%TO.N,/Buttons/B3*%
X103150000Y-116800000D03*
%TD*%
D12*
%TO.P,JP26,1,A*%
%TO.N,Net-(JP26-A)*%
X160300000Y-119140000D03*
%TD*%
D14*
%TO.P,SW15_TOUCHPAD,1,1*%
%TO.N,/Buttons/A2*%
X185080000Y-55050000D03*
X185080000Y-42550000D03*
%TO.P,SW15_TOUCHPAD,2,2*%
%TO.N,GND*%
X190080000Y-55050000D03*
X190080000Y-42550000D03*
%TD*%
D12*
%TO.P,JP21,1,A*%
%TO.N,Net-(JP2-B)*%
X146550000Y-119140000D03*
%TD*%
D10*
%TO.P,SW12_THROW,1,1*%
%TO.N,/Buttons/L3*%
X176364124Y-132334094D03*
%TO.P,SW12_THROW,2,2*%
%TO.N,GND*%
X173824124Y-125984094D03*
%TD*%
%TO.P,SW6_DI,1,1*%
%TO.N,/Buttons/L1*%
X113854257Y-57260561D03*
%TO.P,SW6_DI,2,2*%
%TO.N,GND*%
X120204257Y-54720561D03*
%TD*%
D13*
%TO.P,JP1,2,B*%
%TO.N,GND*%
X165800000Y-138720000D03*
%TD*%
D14*
%TO.P,SW10_SHARE,1,1*%
%TO.N,/Buttons/S1*%
X155080000Y-55050000D03*
X155080000Y-42550000D03*
%TO.P,SW10_SHARE,2,2*%
%TO.N,GND*%
X160080000Y-55050000D03*
X160080000Y-42550000D03*
%TD*%
D15*
%TO.N,GND*%
X105300000Y-61050000D03*
%TD*%
D16*
%TO.N,GND*%
X173824124Y-125984094D02*
X173824124Y-128915876D01*
X165800000Y-136940000D02*
X165800000Y-138720000D01*
X105300000Y-61050000D02*
X103150000Y-61050000D01*
X173824124Y-125984094D02*
X170844094Y-125984094D01*
X165800000Y-120940000D02*
X165800000Y-119140000D01*
X170844094Y-125984094D02*
X165800000Y-120940000D01*
X173824124Y-128915876D02*
X165800000Y-136940000D01*
D17*
%TO.N,/Buttons/S2*%
X103650000Y-42300000D02*
X139830000Y-42300000D01*
X103150000Y-41800000D02*
X103650000Y-42300000D01*
X139830000Y-42300000D02*
X140080000Y-42550000D01*
%TO.N,/Buttons/S1*%
X150830000Y-44800000D02*
X153080000Y-42550000D01*
X153080000Y-42550000D02*
X155080000Y-42550000D01*
X103150000Y-44550000D02*
X103400000Y-44800000D01*
X155080000Y-42550000D02*
X155080000Y-55050000D01*
X103400000Y-44800000D02*
X150830000Y-44800000D01*
%TO.N,/Buttons/A1*%
X128609505Y-47300000D02*
X138609505Y-57300000D01*
X167830000Y-57300000D02*
X170080000Y-55050000D01*
X170080000Y-42550000D02*
X170080000Y-55050000D01*
X138609505Y-57300000D02*
X167830000Y-57300000D01*
X103150000Y-47300000D02*
X128609505Y-47300000D01*
%TO.N,/Buttons/A2*%
X136580000Y-57800000D02*
X182330000Y-57800000D01*
X182330000Y-57800000D02*
X185080000Y-55050000D01*
X128830000Y-50050000D02*
X136580000Y-57800000D01*
X103150000Y-50050000D02*
X128830000Y-50050000D01*
X185080000Y-42550000D02*
X185080000Y-55050000D01*
%TO.N,/Buttons/L1*%
X103150000Y-52800000D02*
X109393696Y-52800000D01*
D18*
X113391845Y-57260561D02*
X113854257Y-57260561D01*
D17*
X109393696Y-52800000D02*
X113854257Y-57260561D01*
%TO.N,/Buttons/R1*%
X110400000Y-62800000D02*
X158213943Y-62800000D01*
X158213943Y-62800000D02*
X167673943Y-72260000D01*
X103150000Y-55550000D02*
X110400000Y-62800000D01*
%TO.N,/Buttons/B4*%
X104727513Y-58300000D02*
X118687513Y-72260000D01*
X103150000Y-58300000D02*
X104727513Y-58300000D01*
X118687513Y-72260000D02*
X138673943Y-72260000D01*
%TO.N,/Buttons/B3*%
X109050000Y-88800000D02*
X111590000Y-86260000D01*
X109050000Y-110900000D02*
X109050000Y-88800000D01*
X111590000Y-86260000D02*
X113673943Y-86260000D01*
X103150000Y-116800000D02*
X109050000Y-110900000D01*
%TO.N,/Buttons/R2*%
X162713943Y-96300000D02*
X167673943Y-101260000D01*
X126650000Y-96300000D02*
X162713943Y-96300000D01*
X103150000Y-119800000D02*
X126650000Y-96300000D01*
%TO.N,/Buttons/B2*%
X103150000Y-122200000D02*
X124090000Y-101260000D01*
X103150000Y-122800000D02*
X103150000Y-122200000D01*
X124090000Y-101260000D02*
X138673943Y-101260000D01*
%TO.N,/Buttons/B1*%
X112090000Y-115260000D02*
X113673943Y-115260000D01*
X103150000Y-125800000D02*
X107050000Y-121900000D01*
X107050000Y-120300000D02*
X112090000Y-115260000D01*
X107050000Y-121900000D02*
X107050000Y-120300000D01*
%TO.N,/Buttons/L3*%
X169938218Y-138760000D02*
X176364124Y-132334094D01*
X168600000Y-138760000D02*
X169938218Y-138760000D01*
%TO.N,Net-(JP2-B)*%
X145500000Y-120190000D02*
X146550000Y-119140000D01*
X146550000Y-138750000D02*
X145500000Y-137700000D01*
X145500000Y-137700000D02*
X145500000Y-120190000D01*
%TO.N,Net-(JP22-A)*%
X146200000Y-135650000D02*
X149300000Y-138750000D01*
X149300000Y-119140000D02*
X146200000Y-122240000D01*
X146200000Y-122240000D02*
X146200000Y-135650000D01*
%TO.N,Net-(JP23-A)*%
X154050000Y-136750000D02*
X152050000Y-138750000D01*
X152050000Y-119140000D02*
X154050000Y-121140000D01*
X154050000Y-121140000D02*
X154050000Y-136750000D01*
%TO.N,Net-(JP24-A)*%
X154800000Y-119140000D02*
X154800000Y-138750000D01*
%TO.N,Net-(JP25-A)*%
X157550000Y-119140000D02*
X157550000Y-138720000D01*
%TO.N,Net-(JP26-A)*%
X160300000Y-138720000D02*
X160300000Y-119140000D01*
%TO.N,Net-(JP27-A)*%
X163050000Y-119140000D02*
X163050000Y-138720000D01*
%TD*%
M02*
