%TF.GenerationSoftware,KiCad,Pcbnew,8.0.4*%
%TF.CreationDate,2024-07-25T19:41:12-07:00*%
%TF.ProjectId,panel_2,70616e65-6c5f-4322-9e6b-696361645f70,rev?*%
%TF.SameCoordinates,Original*%
%TF.FileFunction,Soldermask,Bot*%
%TF.FilePolarity,Negative*%
%FSLAX46Y46*%
G04 Gerber Fmt 4.6, Leading zero omitted, Abs format (unit mm)*
G04 Created by KiCad (PCBNEW 8.0.4) date 2024-07-25 19:41:12*
%MOMM*%
%LPD*%
G01*
G04 APERTURE LIST*
%ADD10C,0.500000*%
%ADD11C,1.750000*%
%ADD12C,4.000000*%
%ADD13C,2.500000*%
%ADD14C,3.200000*%
%ADD15O,1.700000X2.900000*%
G04 APERTURE END LIST*
D10*
%TO.C,mouse-bite-2mm-slot*%
X179750000Y-117000000D03*
X179750000Y-118500000D03*
X180500000Y-117000000D03*
X180500000Y-118500000D03*
X181250000Y-117000000D03*
X181250000Y-118500000D03*
%TD*%
D11*
%TO.C,SW2_LK*%
X112403943Y-117800000D03*
D12*
X117483943Y-117800000D03*
D11*
X122563943Y-117800000D03*
D13*
X113673943Y-115260000D03*
X120023943Y-112720000D03*
%TD*%
D10*
%TO.C,mouse-bite-2mm-slot*%
X169250000Y-117000000D03*
X169250000Y-118500000D03*
X170000000Y-117000000D03*
X170000000Y-118500000D03*
X170750000Y-117000000D03*
X170750000Y-118500000D03*
%TD*%
D14*
%TO.C,H7*%
X150050000Y-128940000D03*
%TD*%
%TO.C,H8*%
X118050000Y-134300000D03*
%TD*%
D11*
%TO.C,SW3_MK*%
X137403943Y-103800000D03*
D12*
X142483943Y-103800000D03*
D11*
X147563943Y-103800000D03*
D13*
X138673943Y-101260000D03*
X145023943Y-98720000D03*
%TD*%
D14*
%TO.C,H12*%
X109050000Y-74300000D03*
%TD*%
%TO.C,H9*%
X154050000Y-86800000D03*
%TD*%
D15*
%TO.C,SW14_PS*%
X170080000Y-55050000D03*
X170080000Y-42550000D03*
X175080000Y-55050000D03*
X175080000Y-42550000D03*
%TD*%
D10*
%TO.C,mouse-bite-2mm-slot*%
X143000000Y-123750000D03*
X144500000Y-123750000D03*
X143000000Y-123000000D03*
X144500000Y-123000000D03*
X143000000Y-122250000D03*
X144500000Y-122250000D03*
%TD*%
D11*
%TO.C,SW4_LP*%
X112403943Y-88800000D03*
D12*
X117483943Y-88800000D03*
D11*
X122563943Y-88800000D03*
D13*
X113673943Y-86260000D03*
X120023943Y-83720000D03*
%TD*%
D15*
%TO.C,SW11_START*%
X140080000Y-55050000D03*
X140080000Y-42550000D03*
X145080000Y-55050000D03*
X145080000Y-42550000D03*
%TD*%
D11*
%TO.C,SW9_HK*%
X166403943Y-103800000D03*
D12*
X171483943Y-103800000D03*
D11*
X176563943Y-103800000D03*
D13*
X167673943Y-101260000D03*
X174023943Y-98720000D03*
%TD*%
D14*
%TO.C,H10*%
X190550000Y-62800000D03*
%TD*%
D11*
%TO.C,SW5_MP*%
X137403943Y-74800000D03*
D12*
X142483943Y-74800000D03*
D11*
X147563943Y-74800000D03*
D13*
X138673943Y-72260000D03*
X145023943Y-69720000D03*
%TD*%
D14*
%TO.C,H6*%
X190550000Y-128440000D03*
%TD*%
D11*
%TO.C,SW7_HP*%
X166403943Y-74800000D03*
D12*
X171483943Y-74800000D03*
D11*
X176563943Y-74800000D03*
D13*
X167673943Y-72260000D03*
X174023943Y-69720000D03*
%TD*%
D14*
%TO.C,H11*%
X189550000Y-103800000D03*
%TD*%
D10*
%TO.C,mouse-bite-2mm-slot*%
X143000000Y-134000000D03*
X144500000Y-134000000D03*
X143000000Y-133250000D03*
X144500000Y-133250000D03*
X143000000Y-132500000D03*
X144500000Y-132500000D03*
%TD*%
D15*
%TO.C,SW15_TOUCHPAD*%
X185080000Y-55050000D03*
X185080000Y-42550000D03*
X190080000Y-55050000D03*
X190080000Y-42550000D03*
%TD*%
D11*
%TO.C,SW12_THROW*%
X178904124Y-133604094D03*
D12*
X178904124Y-128524094D03*
D11*
X178904124Y-123444094D03*
D13*
X176364124Y-132334094D03*
X173824124Y-125984094D03*
%TD*%
D11*
%TO.C,SW6_DI*%
X112584257Y-59800561D03*
D12*
X117664257Y-59800561D03*
D11*
X122744257Y-59800561D03*
D13*
X113854257Y-57260561D03*
X120204257Y-54720561D03*
%TD*%
D15*
%TO.C,SW10_SHARE*%
X155080000Y-55050000D03*
X155080000Y-42550000D03*
X160080000Y-55050000D03*
X160080000Y-42550000D03*
%TD*%
D10*
%TO.C,mouse-bite-2mm-slot*%
X191000000Y-117000000D03*
X191000000Y-118500000D03*
X191750000Y-117000000D03*
X191750000Y-118500000D03*
X192500000Y-117000000D03*
X192500000Y-118500000D03*
%TD*%
M02*
