%TF.GenerationSoftware,KiCad,Pcbnew,8.0.4*%
%TF.CreationDate,2024-07-29T01:23:14-07:00*%
%TF.ProjectId,panel_2,70616e65-6c5f-4322-9e6b-696361645f70,rev?*%
%TF.SameCoordinates,Original*%
%TF.FileFunction,Legend,Top*%
%TF.FilePolarity,Positive*%
%FSLAX46Y46*%
G04 Gerber Fmt 4.6, Leading zero omitted, Abs format (unit mm)*
G04 Created by KiCad (PCBNEW 8.0.4) date 2024-07-29 01:23:14*
%MOMM*%
%LPD*%
G01*
G04 APERTURE LIST*
G04 Aperture macros list*
%AMFreePoly0*
4,1,19,0.000000,0.744911,0.071157,0.744911,0.207708,0.704816,0.327430,0.627875,0.420627,0.520320,0.479746,0.390866,0.500000,0.250000,0.500000,-0.250000,0.479746,-0.390866,0.420627,-0.520320,0.327430,-0.627875,0.207708,-0.704816,0.071157,-0.744911,0.000000,-0.744911,0.000000,-0.750000,-0.500000,-0.750000,-0.500000,0.750000,0.000000,0.750000,0.000000,0.744911,0.000000,0.744911,
$1*%
%AMFreePoly1*
4,1,19,0.500000,-0.750000,0.000000,-0.750000,0.000000,-0.744911,-0.071157,-0.744911,-0.207708,-0.704816,-0.327430,-0.627875,-0.420627,-0.520320,-0.479746,-0.390866,-0.500000,-0.250000,-0.500000,0.250000,-0.479746,0.390866,-0.420627,0.520320,-0.327430,0.627875,-0.207708,0.704816,-0.071157,0.744911,0.000000,0.744911,0.000000,0.750000,0.500000,0.750000,0.500000,-0.750000,0.500000,-0.750000,
$1*%
G04 Aperture macros list end*
%ADD10C,0.150000*%
%ADD11C,0.100000*%
%ADD12C,0.120000*%
%ADD13C,0.500000*%
%ADD14C,3.200000*%
%ADD15C,1.750000*%
%ADD16C,3.050000*%
%ADD17C,4.000000*%
%ADD18FreePoly0,0.000000*%
%ADD19C,2.500000*%
%ADD20FreePoly0,90.000000*%
%ADD21FreePoly1,90.000000*%
G04 APERTURE END LIST*
D10*
X153288095Y-91754819D02*
X153288095Y-90754819D01*
X153288095Y-91231009D02*
X153859523Y-91231009D01*
X153859523Y-91754819D02*
X153859523Y-90754819D01*
X154383333Y-91754819D02*
X154573809Y-91754819D01*
X154573809Y-91754819D02*
X154669047Y-91707200D01*
X154669047Y-91707200D02*
X154716666Y-91659580D01*
X154716666Y-91659580D02*
X154811904Y-91516723D01*
X154811904Y-91516723D02*
X154859523Y-91326247D01*
X154859523Y-91326247D02*
X154859523Y-90945295D01*
X154859523Y-90945295D02*
X154811904Y-90850057D01*
X154811904Y-90850057D02*
X154764285Y-90802438D01*
X154764285Y-90802438D02*
X154669047Y-90754819D01*
X154669047Y-90754819D02*
X154478571Y-90754819D01*
X154478571Y-90754819D02*
X154383333Y-90802438D01*
X154383333Y-90802438D02*
X154335714Y-90850057D01*
X154335714Y-90850057D02*
X154288095Y-90945295D01*
X154288095Y-90945295D02*
X154288095Y-91183390D01*
X154288095Y-91183390D02*
X154335714Y-91278628D01*
X154335714Y-91278628D02*
X154383333Y-91326247D01*
X154383333Y-91326247D02*
X154478571Y-91373866D01*
X154478571Y-91373866D02*
X154669047Y-91373866D01*
X154669047Y-91373866D02*
X154764285Y-91326247D01*
X154764285Y-91326247D02*
X154811904Y-91278628D01*
X154811904Y-91278628D02*
X154859523Y-91183390D01*
X114864895Y-81207200D02*
X115007752Y-81254819D01*
X115007752Y-81254819D02*
X115245847Y-81254819D01*
X115245847Y-81254819D02*
X115341085Y-81207200D01*
X115341085Y-81207200D02*
X115388704Y-81159580D01*
X115388704Y-81159580D02*
X115436323Y-81064342D01*
X115436323Y-81064342D02*
X115436323Y-80969104D01*
X115436323Y-80969104D02*
X115388704Y-80873866D01*
X115388704Y-80873866D02*
X115341085Y-80826247D01*
X115341085Y-80826247D02*
X115245847Y-80778628D01*
X115245847Y-80778628D02*
X115055371Y-80731009D01*
X115055371Y-80731009D02*
X114960133Y-80683390D01*
X114960133Y-80683390D02*
X114912514Y-80635771D01*
X114912514Y-80635771D02*
X114864895Y-80540533D01*
X114864895Y-80540533D02*
X114864895Y-80445295D01*
X114864895Y-80445295D02*
X114912514Y-80350057D01*
X114912514Y-80350057D02*
X114960133Y-80302438D01*
X114960133Y-80302438D02*
X115055371Y-80254819D01*
X115055371Y-80254819D02*
X115293466Y-80254819D01*
X115293466Y-80254819D02*
X115436323Y-80302438D01*
X115769657Y-80254819D02*
X116007752Y-81254819D01*
X116007752Y-81254819D02*
X116198228Y-80540533D01*
X116198228Y-80540533D02*
X116388704Y-81254819D01*
X116388704Y-81254819D02*
X116626800Y-80254819D01*
X117436323Y-80588152D02*
X117436323Y-81254819D01*
X117198228Y-80207200D02*
X116960133Y-80921485D01*
X116960133Y-80921485D02*
X117579180Y-80921485D01*
X117722038Y-81350057D02*
X118483942Y-81350057D01*
X119198228Y-81254819D02*
X118722038Y-81254819D01*
X118722038Y-81254819D02*
X118722038Y-80254819D01*
X119531562Y-81254819D02*
X119531562Y-80254819D01*
X119531562Y-80254819D02*
X119912514Y-80254819D01*
X119912514Y-80254819D02*
X120007752Y-80302438D01*
X120007752Y-80302438D02*
X120055371Y-80350057D01*
X120055371Y-80350057D02*
X120102990Y-80445295D01*
X120102990Y-80445295D02*
X120102990Y-80588152D01*
X120102990Y-80588152D02*
X120055371Y-80683390D01*
X120055371Y-80683390D02*
X120007752Y-80731009D01*
X120007752Y-80731009D02*
X119912514Y-80778628D01*
X119912514Y-80778628D02*
X119531562Y-80778628D01*
X150478571Y-41287200D02*
X150621428Y-41334819D01*
X150621428Y-41334819D02*
X150859523Y-41334819D01*
X150859523Y-41334819D02*
X150954761Y-41287200D01*
X150954761Y-41287200D02*
X151002380Y-41239580D01*
X151002380Y-41239580D02*
X151049999Y-41144342D01*
X151049999Y-41144342D02*
X151049999Y-41049104D01*
X151049999Y-41049104D02*
X151002380Y-40953866D01*
X151002380Y-40953866D02*
X150954761Y-40906247D01*
X150954761Y-40906247D02*
X150859523Y-40858628D01*
X150859523Y-40858628D02*
X150669047Y-40811009D01*
X150669047Y-40811009D02*
X150573809Y-40763390D01*
X150573809Y-40763390D02*
X150526190Y-40715771D01*
X150526190Y-40715771D02*
X150478571Y-40620533D01*
X150478571Y-40620533D02*
X150478571Y-40525295D01*
X150478571Y-40525295D02*
X150526190Y-40430057D01*
X150526190Y-40430057D02*
X150573809Y-40382438D01*
X150573809Y-40382438D02*
X150669047Y-40334819D01*
X150669047Y-40334819D02*
X150907142Y-40334819D01*
X150907142Y-40334819D02*
X151049999Y-40382438D01*
X151383333Y-40334819D02*
X151621428Y-41334819D01*
X151621428Y-41334819D02*
X151811904Y-40620533D01*
X151811904Y-40620533D02*
X152002380Y-41334819D01*
X152002380Y-41334819D02*
X152240476Y-40334819D01*
X153145237Y-41334819D02*
X152573809Y-41334819D01*
X152859523Y-41334819D02*
X152859523Y-40334819D01*
X152859523Y-40334819D02*
X152764285Y-40477676D01*
X152764285Y-40477676D02*
X152669047Y-40572914D01*
X152669047Y-40572914D02*
X152573809Y-40620533D01*
X153764285Y-40334819D02*
X153859523Y-40334819D01*
X153859523Y-40334819D02*
X153954761Y-40382438D01*
X153954761Y-40382438D02*
X154002380Y-40430057D01*
X154002380Y-40430057D02*
X154049999Y-40525295D01*
X154049999Y-40525295D02*
X154097618Y-40715771D01*
X154097618Y-40715771D02*
X154097618Y-40953866D01*
X154097618Y-40953866D02*
X154049999Y-41144342D01*
X154049999Y-41144342D02*
X154002380Y-41239580D01*
X154002380Y-41239580D02*
X153954761Y-41287200D01*
X153954761Y-41287200D02*
X153859523Y-41334819D01*
X153859523Y-41334819D02*
X153764285Y-41334819D01*
X153764285Y-41334819D02*
X153669047Y-41287200D01*
X153669047Y-41287200D02*
X153621428Y-41239580D01*
X153621428Y-41239580D02*
X153573809Y-41144342D01*
X153573809Y-41144342D02*
X153526190Y-40953866D01*
X153526190Y-40953866D02*
X153526190Y-40715771D01*
X153526190Y-40715771D02*
X153573809Y-40525295D01*
X153573809Y-40525295D02*
X153621428Y-40430057D01*
X153621428Y-40430057D02*
X153669047Y-40382438D01*
X153669047Y-40382438D02*
X153764285Y-40334819D01*
X154288095Y-41430057D02*
X155049999Y-41430057D01*
X155240476Y-41287200D02*
X155383333Y-41334819D01*
X155383333Y-41334819D02*
X155621428Y-41334819D01*
X155621428Y-41334819D02*
X155716666Y-41287200D01*
X155716666Y-41287200D02*
X155764285Y-41239580D01*
X155764285Y-41239580D02*
X155811904Y-41144342D01*
X155811904Y-41144342D02*
X155811904Y-41049104D01*
X155811904Y-41049104D02*
X155764285Y-40953866D01*
X155764285Y-40953866D02*
X155716666Y-40906247D01*
X155716666Y-40906247D02*
X155621428Y-40858628D01*
X155621428Y-40858628D02*
X155430952Y-40811009D01*
X155430952Y-40811009D02*
X155335714Y-40763390D01*
X155335714Y-40763390D02*
X155288095Y-40715771D01*
X155288095Y-40715771D02*
X155240476Y-40620533D01*
X155240476Y-40620533D02*
X155240476Y-40525295D01*
X155240476Y-40525295D02*
X155288095Y-40430057D01*
X155288095Y-40430057D02*
X155335714Y-40382438D01*
X155335714Y-40382438D02*
X155430952Y-40334819D01*
X155430952Y-40334819D02*
X155669047Y-40334819D01*
X155669047Y-40334819D02*
X155811904Y-40382438D01*
X156240476Y-41334819D02*
X156240476Y-40334819D01*
X156240476Y-40811009D02*
X156811904Y-40811009D01*
X156811904Y-41334819D02*
X156811904Y-40334819D01*
X157240476Y-41049104D02*
X157716666Y-41049104D01*
X157145238Y-41334819D02*
X157478571Y-40334819D01*
X157478571Y-40334819D02*
X157811904Y-41334819D01*
X158716666Y-41334819D02*
X158383333Y-40858628D01*
X158145238Y-41334819D02*
X158145238Y-40334819D01*
X158145238Y-40334819D02*
X158526190Y-40334819D01*
X158526190Y-40334819D02*
X158621428Y-40382438D01*
X158621428Y-40382438D02*
X158669047Y-40430057D01*
X158669047Y-40430057D02*
X158716666Y-40525295D01*
X158716666Y-40525295D02*
X158716666Y-40668152D01*
X158716666Y-40668152D02*
X158669047Y-40763390D01*
X158669047Y-40763390D02*
X158621428Y-40811009D01*
X158621428Y-40811009D02*
X158526190Y-40858628D01*
X158526190Y-40858628D02*
X158145238Y-40858628D01*
X159145238Y-40811009D02*
X159478571Y-40811009D01*
X159621428Y-41334819D02*
X159145238Y-41334819D01*
X159145238Y-41334819D02*
X159145238Y-40334819D01*
X159145238Y-40334819D02*
X159621428Y-40334819D01*
X167383333Y-41287200D02*
X167526190Y-41334819D01*
X167526190Y-41334819D02*
X167764285Y-41334819D01*
X167764285Y-41334819D02*
X167859523Y-41287200D01*
X167859523Y-41287200D02*
X167907142Y-41239580D01*
X167907142Y-41239580D02*
X167954761Y-41144342D01*
X167954761Y-41144342D02*
X167954761Y-41049104D01*
X167954761Y-41049104D02*
X167907142Y-40953866D01*
X167907142Y-40953866D02*
X167859523Y-40906247D01*
X167859523Y-40906247D02*
X167764285Y-40858628D01*
X167764285Y-40858628D02*
X167573809Y-40811009D01*
X167573809Y-40811009D02*
X167478571Y-40763390D01*
X167478571Y-40763390D02*
X167430952Y-40715771D01*
X167430952Y-40715771D02*
X167383333Y-40620533D01*
X167383333Y-40620533D02*
X167383333Y-40525295D01*
X167383333Y-40525295D02*
X167430952Y-40430057D01*
X167430952Y-40430057D02*
X167478571Y-40382438D01*
X167478571Y-40382438D02*
X167573809Y-40334819D01*
X167573809Y-40334819D02*
X167811904Y-40334819D01*
X167811904Y-40334819D02*
X167954761Y-40382438D01*
X168288095Y-40334819D02*
X168526190Y-41334819D01*
X168526190Y-41334819D02*
X168716666Y-40620533D01*
X168716666Y-40620533D02*
X168907142Y-41334819D01*
X168907142Y-41334819D02*
X169145238Y-40334819D01*
X170049999Y-41334819D02*
X169478571Y-41334819D01*
X169764285Y-41334819D02*
X169764285Y-40334819D01*
X169764285Y-40334819D02*
X169669047Y-40477676D01*
X169669047Y-40477676D02*
X169573809Y-40572914D01*
X169573809Y-40572914D02*
X169478571Y-40620533D01*
X170907142Y-40668152D02*
X170907142Y-41334819D01*
X170669047Y-40287200D02*
X170430952Y-41001485D01*
X170430952Y-41001485D02*
X171049999Y-41001485D01*
X171192857Y-41430057D02*
X171954761Y-41430057D01*
X172192857Y-41334819D02*
X172192857Y-40334819D01*
X172192857Y-40334819D02*
X172573809Y-40334819D01*
X172573809Y-40334819D02*
X172669047Y-40382438D01*
X172669047Y-40382438D02*
X172716666Y-40430057D01*
X172716666Y-40430057D02*
X172764285Y-40525295D01*
X172764285Y-40525295D02*
X172764285Y-40668152D01*
X172764285Y-40668152D02*
X172716666Y-40763390D01*
X172716666Y-40763390D02*
X172669047Y-40811009D01*
X172669047Y-40811009D02*
X172573809Y-40858628D01*
X172573809Y-40858628D02*
X172192857Y-40858628D01*
X173145238Y-41287200D02*
X173288095Y-41334819D01*
X173288095Y-41334819D02*
X173526190Y-41334819D01*
X173526190Y-41334819D02*
X173621428Y-41287200D01*
X173621428Y-41287200D02*
X173669047Y-41239580D01*
X173669047Y-41239580D02*
X173716666Y-41144342D01*
X173716666Y-41144342D02*
X173716666Y-41049104D01*
X173716666Y-41049104D02*
X173669047Y-40953866D01*
X173669047Y-40953866D02*
X173621428Y-40906247D01*
X173621428Y-40906247D02*
X173526190Y-40858628D01*
X173526190Y-40858628D02*
X173335714Y-40811009D01*
X173335714Y-40811009D02*
X173240476Y-40763390D01*
X173240476Y-40763390D02*
X173192857Y-40715771D01*
X173192857Y-40715771D02*
X173145238Y-40620533D01*
X173145238Y-40620533D02*
X173145238Y-40525295D01*
X173145238Y-40525295D02*
X173192857Y-40430057D01*
X173192857Y-40430057D02*
X173240476Y-40382438D01*
X173240476Y-40382438D02*
X173335714Y-40334819D01*
X173335714Y-40334819D02*
X173573809Y-40334819D01*
X173573809Y-40334819D02*
X173716666Y-40382438D01*
X179978571Y-41287200D02*
X180121428Y-41334819D01*
X180121428Y-41334819D02*
X180359523Y-41334819D01*
X180359523Y-41334819D02*
X180454761Y-41287200D01*
X180454761Y-41287200D02*
X180502380Y-41239580D01*
X180502380Y-41239580D02*
X180549999Y-41144342D01*
X180549999Y-41144342D02*
X180549999Y-41049104D01*
X180549999Y-41049104D02*
X180502380Y-40953866D01*
X180502380Y-40953866D02*
X180454761Y-40906247D01*
X180454761Y-40906247D02*
X180359523Y-40858628D01*
X180359523Y-40858628D02*
X180169047Y-40811009D01*
X180169047Y-40811009D02*
X180073809Y-40763390D01*
X180073809Y-40763390D02*
X180026190Y-40715771D01*
X180026190Y-40715771D02*
X179978571Y-40620533D01*
X179978571Y-40620533D02*
X179978571Y-40525295D01*
X179978571Y-40525295D02*
X180026190Y-40430057D01*
X180026190Y-40430057D02*
X180073809Y-40382438D01*
X180073809Y-40382438D02*
X180169047Y-40334819D01*
X180169047Y-40334819D02*
X180407142Y-40334819D01*
X180407142Y-40334819D02*
X180549999Y-40382438D01*
X180883333Y-40334819D02*
X181121428Y-41334819D01*
X181121428Y-41334819D02*
X181311904Y-40620533D01*
X181311904Y-40620533D02*
X181502380Y-41334819D01*
X181502380Y-41334819D02*
X181740476Y-40334819D01*
X182645237Y-41334819D02*
X182073809Y-41334819D01*
X182359523Y-41334819D02*
X182359523Y-40334819D01*
X182359523Y-40334819D02*
X182264285Y-40477676D01*
X182264285Y-40477676D02*
X182169047Y-40572914D01*
X182169047Y-40572914D02*
X182073809Y-40620533D01*
X183549999Y-40334819D02*
X183073809Y-40334819D01*
X183073809Y-40334819D02*
X183026190Y-40811009D01*
X183026190Y-40811009D02*
X183073809Y-40763390D01*
X183073809Y-40763390D02*
X183169047Y-40715771D01*
X183169047Y-40715771D02*
X183407142Y-40715771D01*
X183407142Y-40715771D02*
X183502380Y-40763390D01*
X183502380Y-40763390D02*
X183549999Y-40811009D01*
X183549999Y-40811009D02*
X183597618Y-40906247D01*
X183597618Y-40906247D02*
X183597618Y-41144342D01*
X183597618Y-41144342D02*
X183549999Y-41239580D01*
X183549999Y-41239580D02*
X183502380Y-41287200D01*
X183502380Y-41287200D02*
X183407142Y-41334819D01*
X183407142Y-41334819D02*
X183169047Y-41334819D01*
X183169047Y-41334819D02*
X183073809Y-41287200D01*
X183073809Y-41287200D02*
X183026190Y-41239580D01*
X183788095Y-41430057D02*
X184549999Y-41430057D01*
X184645238Y-40334819D02*
X185216666Y-40334819D01*
X184930952Y-41334819D02*
X184930952Y-40334819D01*
X185740476Y-40334819D02*
X185930952Y-40334819D01*
X185930952Y-40334819D02*
X186026190Y-40382438D01*
X186026190Y-40382438D02*
X186121428Y-40477676D01*
X186121428Y-40477676D02*
X186169047Y-40668152D01*
X186169047Y-40668152D02*
X186169047Y-41001485D01*
X186169047Y-41001485D02*
X186121428Y-41191961D01*
X186121428Y-41191961D02*
X186026190Y-41287200D01*
X186026190Y-41287200D02*
X185930952Y-41334819D01*
X185930952Y-41334819D02*
X185740476Y-41334819D01*
X185740476Y-41334819D02*
X185645238Y-41287200D01*
X185645238Y-41287200D02*
X185550000Y-41191961D01*
X185550000Y-41191961D02*
X185502381Y-41001485D01*
X185502381Y-41001485D02*
X185502381Y-40668152D01*
X185502381Y-40668152D02*
X185550000Y-40477676D01*
X185550000Y-40477676D02*
X185645238Y-40382438D01*
X185645238Y-40382438D02*
X185740476Y-40334819D01*
X186597619Y-40334819D02*
X186597619Y-41144342D01*
X186597619Y-41144342D02*
X186645238Y-41239580D01*
X186645238Y-41239580D02*
X186692857Y-41287200D01*
X186692857Y-41287200D02*
X186788095Y-41334819D01*
X186788095Y-41334819D02*
X186978571Y-41334819D01*
X186978571Y-41334819D02*
X187073809Y-41287200D01*
X187073809Y-41287200D02*
X187121428Y-41239580D01*
X187121428Y-41239580D02*
X187169047Y-41144342D01*
X187169047Y-41144342D02*
X187169047Y-40334819D01*
X188216666Y-41239580D02*
X188169047Y-41287200D01*
X188169047Y-41287200D02*
X188026190Y-41334819D01*
X188026190Y-41334819D02*
X187930952Y-41334819D01*
X187930952Y-41334819D02*
X187788095Y-41287200D01*
X187788095Y-41287200D02*
X187692857Y-41191961D01*
X187692857Y-41191961D02*
X187645238Y-41096723D01*
X187645238Y-41096723D02*
X187597619Y-40906247D01*
X187597619Y-40906247D02*
X187597619Y-40763390D01*
X187597619Y-40763390D02*
X187645238Y-40572914D01*
X187645238Y-40572914D02*
X187692857Y-40477676D01*
X187692857Y-40477676D02*
X187788095Y-40382438D01*
X187788095Y-40382438D02*
X187930952Y-40334819D01*
X187930952Y-40334819D02*
X188026190Y-40334819D01*
X188026190Y-40334819D02*
X188169047Y-40382438D01*
X188169047Y-40382438D02*
X188216666Y-40430057D01*
X188645238Y-41334819D02*
X188645238Y-40334819D01*
X188645238Y-40811009D02*
X189216666Y-40811009D01*
X189216666Y-41334819D02*
X189216666Y-40334819D01*
X189692857Y-41334819D02*
X189692857Y-40334819D01*
X189692857Y-40334819D02*
X190073809Y-40334819D01*
X190073809Y-40334819D02*
X190169047Y-40382438D01*
X190169047Y-40382438D02*
X190216666Y-40430057D01*
X190216666Y-40430057D02*
X190264285Y-40525295D01*
X190264285Y-40525295D02*
X190264285Y-40668152D01*
X190264285Y-40668152D02*
X190216666Y-40763390D01*
X190216666Y-40763390D02*
X190169047Y-40811009D01*
X190169047Y-40811009D02*
X190073809Y-40858628D01*
X190073809Y-40858628D02*
X189692857Y-40858628D01*
X190645238Y-41049104D02*
X191121428Y-41049104D01*
X190550000Y-41334819D02*
X190883333Y-40334819D01*
X190883333Y-40334819D02*
X191216666Y-41334819D01*
X191550000Y-41334819D02*
X191550000Y-40334819D01*
X191550000Y-40334819D02*
X191788095Y-40334819D01*
X191788095Y-40334819D02*
X191930952Y-40382438D01*
X191930952Y-40382438D02*
X192026190Y-40477676D01*
X192026190Y-40477676D02*
X192073809Y-40572914D01*
X192073809Y-40572914D02*
X192121428Y-40763390D01*
X192121428Y-40763390D02*
X192121428Y-40906247D01*
X192121428Y-40906247D02*
X192073809Y-41096723D01*
X192073809Y-41096723D02*
X192026190Y-41191961D01*
X192026190Y-41191961D02*
X191930952Y-41287200D01*
X191930952Y-41287200D02*
X191788095Y-41334819D01*
X191788095Y-41334819D02*
X191550000Y-41334819D01*
X115211876Y-52207761D02*
X115354733Y-52255380D01*
X115354733Y-52255380D02*
X115592828Y-52255380D01*
X115592828Y-52255380D02*
X115688066Y-52207761D01*
X115688066Y-52207761D02*
X115735685Y-52160141D01*
X115735685Y-52160141D02*
X115783304Y-52064903D01*
X115783304Y-52064903D02*
X115783304Y-51969665D01*
X115783304Y-51969665D02*
X115735685Y-51874427D01*
X115735685Y-51874427D02*
X115688066Y-51826808D01*
X115688066Y-51826808D02*
X115592828Y-51779189D01*
X115592828Y-51779189D02*
X115402352Y-51731570D01*
X115402352Y-51731570D02*
X115307114Y-51683951D01*
X115307114Y-51683951D02*
X115259495Y-51636332D01*
X115259495Y-51636332D02*
X115211876Y-51541094D01*
X115211876Y-51541094D02*
X115211876Y-51445856D01*
X115211876Y-51445856D02*
X115259495Y-51350618D01*
X115259495Y-51350618D02*
X115307114Y-51302999D01*
X115307114Y-51302999D02*
X115402352Y-51255380D01*
X115402352Y-51255380D02*
X115640447Y-51255380D01*
X115640447Y-51255380D02*
X115783304Y-51302999D01*
X116116638Y-51255380D02*
X116354733Y-52255380D01*
X116354733Y-52255380D02*
X116545209Y-51541094D01*
X116545209Y-51541094D02*
X116735685Y-52255380D01*
X116735685Y-52255380D02*
X116973781Y-51255380D01*
X117783304Y-51255380D02*
X117592828Y-51255380D01*
X117592828Y-51255380D02*
X117497590Y-51302999D01*
X117497590Y-51302999D02*
X117449971Y-51350618D01*
X117449971Y-51350618D02*
X117354733Y-51493475D01*
X117354733Y-51493475D02*
X117307114Y-51683951D01*
X117307114Y-51683951D02*
X117307114Y-52064903D01*
X117307114Y-52064903D02*
X117354733Y-52160141D01*
X117354733Y-52160141D02*
X117402352Y-52207761D01*
X117402352Y-52207761D02*
X117497590Y-52255380D01*
X117497590Y-52255380D02*
X117688066Y-52255380D01*
X117688066Y-52255380D02*
X117783304Y-52207761D01*
X117783304Y-52207761D02*
X117830923Y-52160141D01*
X117830923Y-52160141D02*
X117878542Y-52064903D01*
X117878542Y-52064903D02*
X117878542Y-51826808D01*
X117878542Y-51826808D02*
X117830923Y-51731570D01*
X117830923Y-51731570D02*
X117783304Y-51683951D01*
X117783304Y-51683951D02*
X117688066Y-51636332D01*
X117688066Y-51636332D02*
X117497590Y-51636332D01*
X117497590Y-51636332D02*
X117402352Y-51683951D01*
X117402352Y-51683951D02*
X117354733Y-51731570D01*
X117354733Y-51731570D02*
X117307114Y-51826808D01*
X118069019Y-52350618D02*
X118830923Y-52350618D01*
X119069019Y-52255380D02*
X119069019Y-51255380D01*
X119069019Y-51255380D02*
X119307114Y-51255380D01*
X119307114Y-51255380D02*
X119449971Y-51302999D01*
X119449971Y-51302999D02*
X119545209Y-51398237D01*
X119545209Y-51398237D02*
X119592828Y-51493475D01*
X119592828Y-51493475D02*
X119640447Y-51683951D01*
X119640447Y-51683951D02*
X119640447Y-51826808D01*
X119640447Y-51826808D02*
X119592828Y-52017284D01*
X119592828Y-52017284D02*
X119545209Y-52112522D01*
X119545209Y-52112522D02*
X119449971Y-52207761D01*
X119449971Y-52207761D02*
X119307114Y-52255380D01*
X119307114Y-52255380D02*
X119069019Y-52255380D01*
X120069019Y-52255380D02*
X120069019Y-51255380D01*
X112811905Y-74754819D02*
X112811905Y-73754819D01*
X112811905Y-74231009D02*
X113383333Y-74231009D01*
X113383333Y-74754819D02*
X113383333Y-73754819D01*
X114383333Y-74754819D02*
X113811905Y-74754819D01*
X114097619Y-74754819D02*
X114097619Y-73754819D01*
X114097619Y-73754819D02*
X114002381Y-73897676D01*
X114002381Y-73897676D02*
X113907143Y-73992914D01*
X113907143Y-73992914D02*
X113811905Y-74040533D01*
X114764286Y-73850057D02*
X114811905Y-73802438D01*
X114811905Y-73802438D02*
X114907143Y-73754819D01*
X114907143Y-73754819D02*
X115145238Y-73754819D01*
X115145238Y-73754819D02*
X115240476Y-73802438D01*
X115240476Y-73802438D02*
X115288095Y-73850057D01*
X115288095Y-73850057D02*
X115335714Y-73945295D01*
X115335714Y-73945295D02*
X115335714Y-74040533D01*
X115335714Y-74040533D02*
X115288095Y-74183390D01*
X115288095Y-74183390D02*
X114716667Y-74754819D01*
X114716667Y-74754819D02*
X115335714Y-74754819D01*
X135192857Y-41287200D02*
X135335714Y-41334819D01*
X135335714Y-41334819D02*
X135573809Y-41334819D01*
X135573809Y-41334819D02*
X135669047Y-41287200D01*
X135669047Y-41287200D02*
X135716666Y-41239580D01*
X135716666Y-41239580D02*
X135764285Y-41144342D01*
X135764285Y-41144342D02*
X135764285Y-41049104D01*
X135764285Y-41049104D02*
X135716666Y-40953866D01*
X135716666Y-40953866D02*
X135669047Y-40906247D01*
X135669047Y-40906247D02*
X135573809Y-40858628D01*
X135573809Y-40858628D02*
X135383333Y-40811009D01*
X135383333Y-40811009D02*
X135288095Y-40763390D01*
X135288095Y-40763390D02*
X135240476Y-40715771D01*
X135240476Y-40715771D02*
X135192857Y-40620533D01*
X135192857Y-40620533D02*
X135192857Y-40525295D01*
X135192857Y-40525295D02*
X135240476Y-40430057D01*
X135240476Y-40430057D02*
X135288095Y-40382438D01*
X135288095Y-40382438D02*
X135383333Y-40334819D01*
X135383333Y-40334819D02*
X135621428Y-40334819D01*
X135621428Y-40334819D02*
X135764285Y-40382438D01*
X136097619Y-40334819D02*
X136335714Y-41334819D01*
X136335714Y-41334819D02*
X136526190Y-40620533D01*
X136526190Y-40620533D02*
X136716666Y-41334819D01*
X136716666Y-41334819D02*
X136954762Y-40334819D01*
X137859523Y-41334819D02*
X137288095Y-41334819D01*
X137573809Y-41334819D02*
X137573809Y-40334819D01*
X137573809Y-40334819D02*
X137478571Y-40477676D01*
X137478571Y-40477676D02*
X137383333Y-40572914D01*
X137383333Y-40572914D02*
X137288095Y-40620533D01*
X138811904Y-41334819D02*
X138240476Y-41334819D01*
X138526190Y-41334819D02*
X138526190Y-40334819D01*
X138526190Y-40334819D02*
X138430952Y-40477676D01*
X138430952Y-40477676D02*
X138335714Y-40572914D01*
X138335714Y-40572914D02*
X138240476Y-40620533D01*
X139002381Y-41430057D02*
X139764285Y-41430057D01*
X139954762Y-41287200D02*
X140097619Y-41334819D01*
X140097619Y-41334819D02*
X140335714Y-41334819D01*
X140335714Y-41334819D02*
X140430952Y-41287200D01*
X140430952Y-41287200D02*
X140478571Y-41239580D01*
X140478571Y-41239580D02*
X140526190Y-41144342D01*
X140526190Y-41144342D02*
X140526190Y-41049104D01*
X140526190Y-41049104D02*
X140478571Y-40953866D01*
X140478571Y-40953866D02*
X140430952Y-40906247D01*
X140430952Y-40906247D02*
X140335714Y-40858628D01*
X140335714Y-40858628D02*
X140145238Y-40811009D01*
X140145238Y-40811009D02*
X140050000Y-40763390D01*
X140050000Y-40763390D02*
X140002381Y-40715771D01*
X140002381Y-40715771D02*
X139954762Y-40620533D01*
X139954762Y-40620533D02*
X139954762Y-40525295D01*
X139954762Y-40525295D02*
X140002381Y-40430057D01*
X140002381Y-40430057D02*
X140050000Y-40382438D01*
X140050000Y-40382438D02*
X140145238Y-40334819D01*
X140145238Y-40334819D02*
X140383333Y-40334819D01*
X140383333Y-40334819D02*
X140526190Y-40382438D01*
X140811905Y-40334819D02*
X141383333Y-40334819D01*
X141097619Y-41334819D02*
X141097619Y-40334819D01*
X141669048Y-41049104D02*
X142145238Y-41049104D01*
X141573810Y-41334819D02*
X141907143Y-40334819D01*
X141907143Y-40334819D02*
X142240476Y-41334819D01*
X143145238Y-41334819D02*
X142811905Y-40858628D01*
X142573810Y-41334819D02*
X142573810Y-40334819D01*
X142573810Y-40334819D02*
X142954762Y-40334819D01*
X142954762Y-40334819D02*
X143050000Y-40382438D01*
X143050000Y-40382438D02*
X143097619Y-40430057D01*
X143097619Y-40430057D02*
X143145238Y-40525295D01*
X143145238Y-40525295D02*
X143145238Y-40668152D01*
X143145238Y-40668152D02*
X143097619Y-40763390D01*
X143097619Y-40763390D02*
X143050000Y-40811009D01*
X143050000Y-40811009D02*
X142954762Y-40858628D01*
X142954762Y-40858628D02*
X142573810Y-40858628D01*
X143430953Y-40334819D02*
X144002381Y-40334819D01*
X143716667Y-41334819D02*
X143716667Y-40334819D01*
X168745848Y-96207200D02*
X168888705Y-96254819D01*
X168888705Y-96254819D02*
X169126800Y-96254819D01*
X169126800Y-96254819D02*
X169222038Y-96207200D01*
X169222038Y-96207200D02*
X169269657Y-96159580D01*
X169269657Y-96159580D02*
X169317276Y-96064342D01*
X169317276Y-96064342D02*
X169317276Y-95969104D01*
X169317276Y-95969104D02*
X169269657Y-95873866D01*
X169269657Y-95873866D02*
X169222038Y-95826247D01*
X169222038Y-95826247D02*
X169126800Y-95778628D01*
X169126800Y-95778628D02*
X168936324Y-95731009D01*
X168936324Y-95731009D02*
X168841086Y-95683390D01*
X168841086Y-95683390D02*
X168793467Y-95635771D01*
X168793467Y-95635771D02*
X168745848Y-95540533D01*
X168745848Y-95540533D02*
X168745848Y-95445295D01*
X168745848Y-95445295D02*
X168793467Y-95350057D01*
X168793467Y-95350057D02*
X168841086Y-95302438D01*
X168841086Y-95302438D02*
X168936324Y-95254819D01*
X168936324Y-95254819D02*
X169174419Y-95254819D01*
X169174419Y-95254819D02*
X169317276Y-95302438D01*
X169650610Y-95254819D02*
X169888705Y-96254819D01*
X169888705Y-96254819D02*
X170079181Y-95540533D01*
X170079181Y-95540533D02*
X170269657Y-96254819D01*
X170269657Y-96254819D02*
X170507753Y-95254819D01*
X170936324Y-96254819D02*
X171126800Y-96254819D01*
X171126800Y-96254819D02*
X171222038Y-96207200D01*
X171222038Y-96207200D02*
X171269657Y-96159580D01*
X171269657Y-96159580D02*
X171364895Y-96016723D01*
X171364895Y-96016723D02*
X171412514Y-95826247D01*
X171412514Y-95826247D02*
X171412514Y-95445295D01*
X171412514Y-95445295D02*
X171364895Y-95350057D01*
X171364895Y-95350057D02*
X171317276Y-95302438D01*
X171317276Y-95302438D02*
X171222038Y-95254819D01*
X171222038Y-95254819D02*
X171031562Y-95254819D01*
X171031562Y-95254819D02*
X170936324Y-95302438D01*
X170936324Y-95302438D02*
X170888705Y-95350057D01*
X170888705Y-95350057D02*
X170841086Y-95445295D01*
X170841086Y-95445295D02*
X170841086Y-95683390D01*
X170841086Y-95683390D02*
X170888705Y-95778628D01*
X170888705Y-95778628D02*
X170936324Y-95826247D01*
X170936324Y-95826247D02*
X171031562Y-95873866D01*
X171031562Y-95873866D02*
X171222038Y-95873866D01*
X171222038Y-95873866D02*
X171317276Y-95826247D01*
X171317276Y-95826247D02*
X171364895Y-95778628D01*
X171364895Y-95778628D02*
X171412514Y-95683390D01*
X171602991Y-96350057D02*
X172364895Y-96350057D01*
X172602991Y-96254819D02*
X172602991Y-95254819D01*
X172602991Y-95731009D02*
X173174419Y-95731009D01*
X173174419Y-96254819D02*
X173174419Y-95254819D01*
X173650610Y-96254819D02*
X173650610Y-95254819D01*
X174222038Y-96254819D02*
X173793467Y-95683390D01*
X174222038Y-95254819D02*
X173650610Y-95826247D01*
X139698229Y-67207200D02*
X139841086Y-67254819D01*
X139841086Y-67254819D02*
X140079181Y-67254819D01*
X140079181Y-67254819D02*
X140174419Y-67207200D01*
X140174419Y-67207200D02*
X140222038Y-67159580D01*
X140222038Y-67159580D02*
X140269657Y-67064342D01*
X140269657Y-67064342D02*
X140269657Y-66969104D01*
X140269657Y-66969104D02*
X140222038Y-66873866D01*
X140222038Y-66873866D02*
X140174419Y-66826247D01*
X140174419Y-66826247D02*
X140079181Y-66778628D01*
X140079181Y-66778628D02*
X139888705Y-66731009D01*
X139888705Y-66731009D02*
X139793467Y-66683390D01*
X139793467Y-66683390D02*
X139745848Y-66635771D01*
X139745848Y-66635771D02*
X139698229Y-66540533D01*
X139698229Y-66540533D02*
X139698229Y-66445295D01*
X139698229Y-66445295D02*
X139745848Y-66350057D01*
X139745848Y-66350057D02*
X139793467Y-66302438D01*
X139793467Y-66302438D02*
X139888705Y-66254819D01*
X139888705Y-66254819D02*
X140126800Y-66254819D01*
X140126800Y-66254819D02*
X140269657Y-66302438D01*
X140602991Y-66254819D02*
X140841086Y-67254819D01*
X140841086Y-67254819D02*
X141031562Y-66540533D01*
X141031562Y-66540533D02*
X141222038Y-67254819D01*
X141222038Y-67254819D02*
X141460134Y-66254819D01*
X142317276Y-66254819D02*
X141841086Y-66254819D01*
X141841086Y-66254819D02*
X141793467Y-66731009D01*
X141793467Y-66731009D02*
X141841086Y-66683390D01*
X141841086Y-66683390D02*
X141936324Y-66635771D01*
X141936324Y-66635771D02*
X142174419Y-66635771D01*
X142174419Y-66635771D02*
X142269657Y-66683390D01*
X142269657Y-66683390D02*
X142317276Y-66731009D01*
X142317276Y-66731009D02*
X142364895Y-66826247D01*
X142364895Y-66826247D02*
X142364895Y-67064342D01*
X142364895Y-67064342D02*
X142317276Y-67159580D01*
X142317276Y-67159580D02*
X142269657Y-67207200D01*
X142269657Y-67207200D02*
X142174419Y-67254819D01*
X142174419Y-67254819D02*
X141936324Y-67254819D01*
X141936324Y-67254819D02*
X141841086Y-67207200D01*
X141841086Y-67207200D02*
X141793467Y-67159580D01*
X142555372Y-67350057D02*
X143317276Y-67350057D01*
X143555372Y-67254819D02*
X143555372Y-66254819D01*
X143555372Y-66254819D02*
X143888705Y-66969104D01*
X143888705Y-66969104D02*
X144222038Y-66254819D01*
X144222038Y-66254819D02*
X144222038Y-67254819D01*
X144698229Y-67254819D02*
X144698229Y-66254819D01*
X144698229Y-66254819D02*
X145079181Y-66254819D01*
X145079181Y-66254819D02*
X145174419Y-66302438D01*
X145174419Y-66302438D02*
X145222038Y-66350057D01*
X145222038Y-66350057D02*
X145269657Y-66445295D01*
X145269657Y-66445295D02*
X145269657Y-66588152D01*
X145269657Y-66588152D02*
X145222038Y-66683390D01*
X145222038Y-66683390D02*
X145174419Y-66731009D01*
X145174419Y-66731009D02*
X145079181Y-66778628D01*
X145079181Y-66778628D02*
X144698229Y-66778628D01*
X112288095Y-134754819D02*
X112288095Y-133754819D01*
X112288095Y-134231009D02*
X112859523Y-134231009D01*
X112859523Y-134754819D02*
X112859523Y-133754819D01*
X113478571Y-134183390D02*
X113383333Y-134135771D01*
X113383333Y-134135771D02*
X113335714Y-134088152D01*
X113335714Y-134088152D02*
X113288095Y-133992914D01*
X113288095Y-133992914D02*
X113288095Y-133945295D01*
X113288095Y-133945295D02*
X113335714Y-133850057D01*
X113335714Y-133850057D02*
X113383333Y-133802438D01*
X113383333Y-133802438D02*
X113478571Y-133754819D01*
X113478571Y-133754819D02*
X113669047Y-133754819D01*
X113669047Y-133754819D02*
X113764285Y-133802438D01*
X113764285Y-133802438D02*
X113811904Y-133850057D01*
X113811904Y-133850057D02*
X113859523Y-133945295D01*
X113859523Y-133945295D02*
X113859523Y-133992914D01*
X113859523Y-133992914D02*
X113811904Y-134088152D01*
X113811904Y-134088152D02*
X113764285Y-134135771D01*
X113764285Y-134135771D02*
X113669047Y-134183390D01*
X113669047Y-134183390D02*
X113478571Y-134183390D01*
X113478571Y-134183390D02*
X113383333Y-134231009D01*
X113383333Y-134231009D02*
X113335714Y-134278628D01*
X113335714Y-134278628D02*
X113288095Y-134373866D01*
X113288095Y-134373866D02*
X113288095Y-134564342D01*
X113288095Y-134564342D02*
X113335714Y-134659580D01*
X113335714Y-134659580D02*
X113383333Y-134707200D01*
X113383333Y-134707200D02*
X113478571Y-134754819D01*
X113478571Y-134754819D02*
X113669047Y-134754819D01*
X113669047Y-134754819D02*
X113764285Y-134707200D01*
X113764285Y-134707200D02*
X113811904Y-134659580D01*
X113811904Y-134659580D02*
X113859523Y-134564342D01*
X113859523Y-134564342D02*
X113859523Y-134373866D01*
X113859523Y-134373866D02*
X113811904Y-134278628D01*
X113811904Y-134278628D02*
X113764285Y-134231009D01*
X113764285Y-134231009D02*
X113669047Y-134183390D01*
X139698229Y-96207200D02*
X139841086Y-96254819D01*
X139841086Y-96254819D02*
X140079181Y-96254819D01*
X140079181Y-96254819D02*
X140174419Y-96207200D01*
X140174419Y-96207200D02*
X140222038Y-96159580D01*
X140222038Y-96159580D02*
X140269657Y-96064342D01*
X140269657Y-96064342D02*
X140269657Y-95969104D01*
X140269657Y-95969104D02*
X140222038Y-95873866D01*
X140222038Y-95873866D02*
X140174419Y-95826247D01*
X140174419Y-95826247D02*
X140079181Y-95778628D01*
X140079181Y-95778628D02*
X139888705Y-95731009D01*
X139888705Y-95731009D02*
X139793467Y-95683390D01*
X139793467Y-95683390D02*
X139745848Y-95635771D01*
X139745848Y-95635771D02*
X139698229Y-95540533D01*
X139698229Y-95540533D02*
X139698229Y-95445295D01*
X139698229Y-95445295D02*
X139745848Y-95350057D01*
X139745848Y-95350057D02*
X139793467Y-95302438D01*
X139793467Y-95302438D02*
X139888705Y-95254819D01*
X139888705Y-95254819D02*
X140126800Y-95254819D01*
X140126800Y-95254819D02*
X140269657Y-95302438D01*
X140602991Y-95254819D02*
X140841086Y-96254819D01*
X140841086Y-96254819D02*
X141031562Y-95540533D01*
X141031562Y-95540533D02*
X141222038Y-96254819D01*
X141222038Y-96254819D02*
X141460134Y-95254819D01*
X141745848Y-95254819D02*
X142364895Y-95254819D01*
X142364895Y-95254819D02*
X142031562Y-95635771D01*
X142031562Y-95635771D02*
X142174419Y-95635771D01*
X142174419Y-95635771D02*
X142269657Y-95683390D01*
X142269657Y-95683390D02*
X142317276Y-95731009D01*
X142317276Y-95731009D02*
X142364895Y-95826247D01*
X142364895Y-95826247D02*
X142364895Y-96064342D01*
X142364895Y-96064342D02*
X142317276Y-96159580D01*
X142317276Y-96159580D02*
X142269657Y-96207200D01*
X142269657Y-96207200D02*
X142174419Y-96254819D01*
X142174419Y-96254819D02*
X141888705Y-96254819D01*
X141888705Y-96254819D02*
X141793467Y-96207200D01*
X141793467Y-96207200D02*
X141745848Y-96159580D01*
X142555372Y-96350057D02*
X143317276Y-96350057D01*
X143555372Y-96254819D02*
X143555372Y-95254819D01*
X143555372Y-95254819D02*
X143888705Y-95969104D01*
X143888705Y-95969104D02*
X144222038Y-95254819D01*
X144222038Y-95254819D02*
X144222038Y-96254819D01*
X144698229Y-96254819D02*
X144698229Y-95254819D01*
X145269657Y-96254819D02*
X144841086Y-95683390D01*
X145269657Y-95254819D02*
X144698229Y-95826247D01*
X188311905Y-100054819D02*
X188311905Y-99054819D01*
X188311905Y-99531009D02*
X188883333Y-99531009D01*
X188883333Y-100054819D02*
X188883333Y-99054819D01*
X189883333Y-100054819D02*
X189311905Y-100054819D01*
X189597619Y-100054819D02*
X189597619Y-99054819D01*
X189597619Y-99054819D02*
X189502381Y-99197676D01*
X189502381Y-99197676D02*
X189407143Y-99292914D01*
X189407143Y-99292914D02*
X189311905Y-99340533D01*
X190835714Y-100054819D02*
X190264286Y-100054819D01*
X190550000Y-100054819D02*
X190550000Y-99054819D01*
X190550000Y-99054819D02*
X190454762Y-99197676D01*
X190454762Y-99197676D02*
X190359524Y-99292914D01*
X190359524Y-99292914D02*
X190264286Y-99340533D01*
X189311905Y-67754819D02*
X189311905Y-66754819D01*
X189311905Y-67231009D02*
X189883333Y-67231009D01*
X189883333Y-67754819D02*
X189883333Y-66754819D01*
X190883333Y-67754819D02*
X190311905Y-67754819D01*
X190597619Y-67754819D02*
X190597619Y-66754819D01*
X190597619Y-66754819D02*
X190502381Y-66897676D01*
X190502381Y-66897676D02*
X190407143Y-66992914D01*
X190407143Y-66992914D02*
X190311905Y-67040533D01*
X191502381Y-66754819D02*
X191597619Y-66754819D01*
X191597619Y-66754819D02*
X191692857Y-66802438D01*
X191692857Y-66802438D02*
X191740476Y-66850057D01*
X191740476Y-66850057D02*
X191788095Y-66945295D01*
X191788095Y-66945295D02*
X191835714Y-67135771D01*
X191835714Y-67135771D02*
X191835714Y-67373866D01*
X191835714Y-67373866D02*
X191788095Y-67564342D01*
X191788095Y-67564342D02*
X191740476Y-67659580D01*
X191740476Y-67659580D02*
X191692857Y-67707200D01*
X191692857Y-67707200D02*
X191597619Y-67754819D01*
X191597619Y-67754819D02*
X191502381Y-67754819D01*
X191502381Y-67754819D02*
X191407143Y-67707200D01*
X191407143Y-67707200D02*
X191359524Y-67659580D01*
X191359524Y-67659580D02*
X191311905Y-67564342D01*
X191311905Y-67564342D02*
X191264286Y-67373866D01*
X191264286Y-67373866D02*
X191264286Y-67135771D01*
X191264286Y-67135771D02*
X191311905Y-66945295D01*
X191311905Y-66945295D02*
X191359524Y-66850057D01*
X191359524Y-66850057D02*
X191407143Y-66802438D01*
X191407143Y-66802438D02*
X191502381Y-66754819D01*
X168745848Y-67207200D02*
X168888705Y-67254819D01*
X168888705Y-67254819D02*
X169126800Y-67254819D01*
X169126800Y-67254819D02*
X169222038Y-67207200D01*
X169222038Y-67207200D02*
X169269657Y-67159580D01*
X169269657Y-67159580D02*
X169317276Y-67064342D01*
X169317276Y-67064342D02*
X169317276Y-66969104D01*
X169317276Y-66969104D02*
X169269657Y-66873866D01*
X169269657Y-66873866D02*
X169222038Y-66826247D01*
X169222038Y-66826247D02*
X169126800Y-66778628D01*
X169126800Y-66778628D02*
X168936324Y-66731009D01*
X168936324Y-66731009D02*
X168841086Y-66683390D01*
X168841086Y-66683390D02*
X168793467Y-66635771D01*
X168793467Y-66635771D02*
X168745848Y-66540533D01*
X168745848Y-66540533D02*
X168745848Y-66445295D01*
X168745848Y-66445295D02*
X168793467Y-66350057D01*
X168793467Y-66350057D02*
X168841086Y-66302438D01*
X168841086Y-66302438D02*
X168936324Y-66254819D01*
X168936324Y-66254819D02*
X169174419Y-66254819D01*
X169174419Y-66254819D02*
X169317276Y-66302438D01*
X169650610Y-66254819D02*
X169888705Y-67254819D01*
X169888705Y-67254819D02*
X170079181Y-66540533D01*
X170079181Y-66540533D02*
X170269657Y-67254819D01*
X170269657Y-67254819D02*
X170507753Y-66254819D01*
X170793467Y-66254819D02*
X171460133Y-66254819D01*
X171460133Y-66254819D02*
X171031562Y-67254819D01*
X171602991Y-67350057D02*
X172364895Y-67350057D01*
X172602991Y-67254819D02*
X172602991Y-66254819D01*
X172602991Y-66731009D02*
X173174419Y-66731009D01*
X173174419Y-67254819D02*
X173174419Y-66254819D01*
X173650610Y-67254819D02*
X173650610Y-66254819D01*
X173650610Y-66254819D02*
X174031562Y-66254819D01*
X174031562Y-66254819D02*
X174126800Y-66302438D01*
X174126800Y-66302438D02*
X174174419Y-66350057D01*
X174174419Y-66350057D02*
X174222038Y-66445295D01*
X174222038Y-66445295D02*
X174222038Y-66588152D01*
X174222038Y-66588152D02*
X174174419Y-66683390D01*
X174174419Y-66683390D02*
X174126800Y-66731009D01*
X174126800Y-66731009D02*
X174031562Y-66778628D01*
X174031562Y-66778628D02*
X173650610Y-66778628D01*
X114864895Y-110207200D02*
X115007752Y-110254819D01*
X115007752Y-110254819D02*
X115245847Y-110254819D01*
X115245847Y-110254819D02*
X115341085Y-110207200D01*
X115341085Y-110207200D02*
X115388704Y-110159580D01*
X115388704Y-110159580D02*
X115436323Y-110064342D01*
X115436323Y-110064342D02*
X115436323Y-109969104D01*
X115436323Y-109969104D02*
X115388704Y-109873866D01*
X115388704Y-109873866D02*
X115341085Y-109826247D01*
X115341085Y-109826247D02*
X115245847Y-109778628D01*
X115245847Y-109778628D02*
X115055371Y-109731009D01*
X115055371Y-109731009D02*
X114960133Y-109683390D01*
X114960133Y-109683390D02*
X114912514Y-109635771D01*
X114912514Y-109635771D02*
X114864895Y-109540533D01*
X114864895Y-109540533D02*
X114864895Y-109445295D01*
X114864895Y-109445295D02*
X114912514Y-109350057D01*
X114912514Y-109350057D02*
X114960133Y-109302438D01*
X114960133Y-109302438D02*
X115055371Y-109254819D01*
X115055371Y-109254819D02*
X115293466Y-109254819D01*
X115293466Y-109254819D02*
X115436323Y-109302438D01*
X115769657Y-109254819D02*
X116007752Y-110254819D01*
X116007752Y-110254819D02*
X116198228Y-109540533D01*
X116198228Y-109540533D02*
X116388704Y-110254819D01*
X116388704Y-110254819D02*
X116626800Y-109254819D01*
X116960133Y-109350057D02*
X117007752Y-109302438D01*
X117007752Y-109302438D02*
X117102990Y-109254819D01*
X117102990Y-109254819D02*
X117341085Y-109254819D01*
X117341085Y-109254819D02*
X117436323Y-109302438D01*
X117436323Y-109302438D02*
X117483942Y-109350057D01*
X117483942Y-109350057D02*
X117531561Y-109445295D01*
X117531561Y-109445295D02*
X117531561Y-109540533D01*
X117531561Y-109540533D02*
X117483942Y-109683390D01*
X117483942Y-109683390D02*
X116912514Y-110254819D01*
X116912514Y-110254819D02*
X117531561Y-110254819D01*
X117722038Y-110350057D02*
X118483942Y-110350057D01*
X119198228Y-110254819D02*
X118722038Y-110254819D01*
X118722038Y-110254819D02*
X118722038Y-109254819D01*
X119531562Y-110254819D02*
X119531562Y-109254819D01*
X120102990Y-110254819D02*
X119674419Y-109683390D01*
X120102990Y-109254819D02*
X119531562Y-109826247D01*
X184361904Y-127315180D02*
X184361904Y-128315180D01*
X184361904Y-127838990D02*
X183790476Y-127838990D01*
X183790476Y-127315180D02*
X183790476Y-128315180D01*
X182885714Y-128315180D02*
X183076190Y-128315180D01*
X183076190Y-128315180D02*
X183171428Y-128267561D01*
X183171428Y-128267561D02*
X183219047Y-128219942D01*
X183219047Y-128219942D02*
X183314285Y-128077085D01*
X183314285Y-128077085D02*
X183361904Y-127886609D01*
X183361904Y-127886609D02*
X183361904Y-127505657D01*
X183361904Y-127505657D02*
X183314285Y-127410419D01*
X183314285Y-127410419D02*
X183266666Y-127362800D01*
X183266666Y-127362800D02*
X183171428Y-127315180D01*
X183171428Y-127315180D02*
X182980952Y-127315180D01*
X182980952Y-127315180D02*
X182885714Y-127362800D01*
X182885714Y-127362800D02*
X182838095Y-127410419D01*
X182838095Y-127410419D02*
X182790476Y-127505657D01*
X182790476Y-127505657D02*
X182790476Y-127743752D01*
X182790476Y-127743752D02*
X182838095Y-127838990D01*
X182838095Y-127838990D02*
X182885714Y-127886609D01*
X182885714Y-127886609D02*
X182980952Y-127934228D01*
X182980952Y-127934228D02*
X183171428Y-127934228D01*
X183171428Y-127934228D02*
X183266666Y-127886609D01*
X183266666Y-127886609D02*
X183314285Y-127838990D01*
X183314285Y-127838990D02*
X183361904Y-127743752D01*
X139654819Y-124531904D02*
X138654819Y-124531904D01*
X139131009Y-124531904D02*
X139131009Y-123960476D01*
X139654819Y-123960476D02*
X138654819Y-123960476D01*
X138654819Y-123579523D02*
X138654819Y-122912857D01*
X138654819Y-122912857D02*
X139654819Y-123341428D01*
X144524819Y-118224523D02*
X145239104Y-118224523D01*
X145239104Y-118224523D02*
X145381961Y-118272142D01*
X145381961Y-118272142D02*
X145477200Y-118367380D01*
X145477200Y-118367380D02*
X145524819Y-118510237D01*
X145524819Y-118510237D02*
X145524819Y-118605475D01*
X145524819Y-117748332D02*
X144524819Y-117748332D01*
X144524819Y-117748332D02*
X144524819Y-117367380D01*
X144524819Y-117367380D02*
X144572438Y-117272142D01*
X144572438Y-117272142D02*
X144620057Y-117224523D01*
X144620057Y-117224523D02*
X144715295Y-117176904D01*
X144715295Y-117176904D02*
X144858152Y-117176904D01*
X144858152Y-117176904D02*
X144953390Y-117224523D01*
X144953390Y-117224523D02*
X145001009Y-117272142D01*
X145001009Y-117272142D02*
X145048628Y-117367380D01*
X145048628Y-117367380D02*
X145048628Y-117748332D01*
X144620057Y-116795951D02*
X144572438Y-116748332D01*
X144572438Y-116748332D02*
X144524819Y-116653094D01*
X144524819Y-116653094D02*
X144524819Y-116414999D01*
X144524819Y-116414999D02*
X144572438Y-116319761D01*
X144572438Y-116319761D02*
X144620057Y-116272142D01*
X144620057Y-116272142D02*
X144715295Y-116224523D01*
X144715295Y-116224523D02*
X144810533Y-116224523D01*
X144810533Y-116224523D02*
X144953390Y-116272142D01*
X144953390Y-116272142D02*
X145524819Y-116843570D01*
X145524819Y-116843570D02*
X145524819Y-116224523D01*
X144524819Y-115891189D02*
X144524819Y-115272142D01*
X144524819Y-115272142D02*
X144905771Y-115605475D01*
X144905771Y-115605475D02*
X144905771Y-115462618D01*
X144905771Y-115462618D02*
X144953390Y-115367380D01*
X144953390Y-115367380D02*
X145001009Y-115319761D01*
X145001009Y-115319761D02*
X145096247Y-115272142D01*
X145096247Y-115272142D02*
X145334342Y-115272142D01*
X145334342Y-115272142D02*
X145429580Y-115319761D01*
X145429580Y-115319761D02*
X145477200Y-115367380D01*
X145477200Y-115367380D02*
X145524819Y-115462618D01*
X145524819Y-115462618D02*
X145524819Y-115748332D01*
X145524819Y-115748332D02*
X145477200Y-115843570D01*
X145477200Y-115843570D02*
X145429580Y-115891189D01*
X141774819Y-118224523D02*
X142489104Y-118224523D01*
X142489104Y-118224523D02*
X142631961Y-118272142D01*
X142631961Y-118272142D02*
X142727200Y-118367380D01*
X142727200Y-118367380D02*
X142774819Y-118510237D01*
X142774819Y-118510237D02*
X142774819Y-118605475D01*
X142774819Y-117748332D02*
X141774819Y-117748332D01*
X141774819Y-117748332D02*
X141774819Y-117367380D01*
X141774819Y-117367380D02*
X141822438Y-117272142D01*
X141822438Y-117272142D02*
X141870057Y-117224523D01*
X141870057Y-117224523D02*
X141965295Y-117176904D01*
X141965295Y-117176904D02*
X142108152Y-117176904D01*
X142108152Y-117176904D02*
X142203390Y-117224523D01*
X142203390Y-117224523D02*
X142251009Y-117272142D01*
X142251009Y-117272142D02*
X142298628Y-117367380D01*
X142298628Y-117367380D02*
X142298628Y-117748332D01*
X141870057Y-116795951D02*
X141822438Y-116748332D01*
X141822438Y-116748332D02*
X141774819Y-116653094D01*
X141774819Y-116653094D02*
X141774819Y-116414999D01*
X141774819Y-116414999D02*
X141822438Y-116319761D01*
X141822438Y-116319761D02*
X141870057Y-116272142D01*
X141870057Y-116272142D02*
X141965295Y-116224523D01*
X141965295Y-116224523D02*
X142060533Y-116224523D01*
X142060533Y-116224523D02*
X142203390Y-116272142D01*
X142203390Y-116272142D02*
X142774819Y-116843570D01*
X142774819Y-116843570D02*
X142774819Y-116224523D01*
X141870057Y-115843570D02*
X141822438Y-115795951D01*
X141822438Y-115795951D02*
X141774819Y-115700713D01*
X141774819Y-115700713D02*
X141774819Y-115462618D01*
X141774819Y-115462618D02*
X141822438Y-115367380D01*
X141822438Y-115367380D02*
X141870057Y-115319761D01*
X141870057Y-115319761D02*
X141965295Y-115272142D01*
X141965295Y-115272142D02*
X142060533Y-115272142D01*
X142060533Y-115272142D02*
X142203390Y-115319761D01*
X142203390Y-115319761D02*
X142774819Y-115891189D01*
X142774819Y-115891189D02*
X142774819Y-115272142D01*
X147274819Y-118224523D02*
X147989104Y-118224523D01*
X147989104Y-118224523D02*
X148131961Y-118272142D01*
X148131961Y-118272142D02*
X148227200Y-118367380D01*
X148227200Y-118367380D02*
X148274819Y-118510237D01*
X148274819Y-118510237D02*
X148274819Y-118605475D01*
X148274819Y-117748332D02*
X147274819Y-117748332D01*
X147274819Y-117748332D02*
X147274819Y-117367380D01*
X147274819Y-117367380D02*
X147322438Y-117272142D01*
X147322438Y-117272142D02*
X147370057Y-117224523D01*
X147370057Y-117224523D02*
X147465295Y-117176904D01*
X147465295Y-117176904D02*
X147608152Y-117176904D01*
X147608152Y-117176904D02*
X147703390Y-117224523D01*
X147703390Y-117224523D02*
X147751009Y-117272142D01*
X147751009Y-117272142D02*
X147798628Y-117367380D01*
X147798628Y-117367380D02*
X147798628Y-117748332D01*
X147370057Y-116795951D02*
X147322438Y-116748332D01*
X147322438Y-116748332D02*
X147274819Y-116653094D01*
X147274819Y-116653094D02*
X147274819Y-116414999D01*
X147274819Y-116414999D02*
X147322438Y-116319761D01*
X147322438Y-116319761D02*
X147370057Y-116272142D01*
X147370057Y-116272142D02*
X147465295Y-116224523D01*
X147465295Y-116224523D02*
X147560533Y-116224523D01*
X147560533Y-116224523D02*
X147703390Y-116272142D01*
X147703390Y-116272142D02*
X148274819Y-116843570D01*
X148274819Y-116843570D02*
X148274819Y-116224523D01*
X147608152Y-115367380D02*
X148274819Y-115367380D01*
X147227200Y-115605475D02*
X147941485Y-115843570D01*
X147941485Y-115843570D02*
X147941485Y-115224523D01*
X150024819Y-118224523D02*
X150739104Y-118224523D01*
X150739104Y-118224523D02*
X150881961Y-118272142D01*
X150881961Y-118272142D02*
X150977200Y-118367380D01*
X150977200Y-118367380D02*
X151024819Y-118510237D01*
X151024819Y-118510237D02*
X151024819Y-118605475D01*
X151024819Y-117748332D02*
X150024819Y-117748332D01*
X150024819Y-117748332D02*
X150024819Y-117367380D01*
X150024819Y-117367380D02*
X150072438Y-117272142D01*
X150072438Y-117272142D02*
X150120057Y-117224523D01*
X150120057Y-117224523D02*
X150215295Y-117176904D01*
X150215295Y-117176904D02*
X150358152Y-117176904D01*
X150358152Y-117176904D02*
X150453390Y-117224523D01*
X150453390Y-117224523D02*
X150501009Y-117272142D01*
X150501009Y-117272142D02*
X150548628Y-117367380D01*
X150548628Y-117367380D02*
X150548628Y-117748332D01*
X150120057Y-116795951D02*
X150072438Y-116748332D01*
X150072438Y-116748332D02*
X150024819Y-116653094D01*
X150024819Y-116653094D02*
X150024819Y-116414999D01*
X150024819Y-116414999D02*
X150072438Y-116319761D01*
X150072438Y-116319761D02*
X150120057Y-116272142D01*
X150120057Y-116272142D02*
X150215295Y-116224523D01*
X150215295Y-116224523D02*
X150310533Y-116224523D01*
X150310533Y-116224523D02*
X150453390Y-116272142D01*
X150453390Y-116272142D02*
X151024819Y-116843570D01*
X151024819Y-116843570D02*
X151024819Y-116224523D01*
X150024819Y-115319761D02*
X150024819Y-115795951D01*
X150024819Y-115795951D02*
X150501009Y-115843570D01*
X150501009Y-115843570D02*
X150453390Y-115795951D01*
X150453390Y-115795951D02*
X150405771Y-115700713D01*
X150405771Y-115700713D02*
X150405771Y-115462618D01*
X150405771Y-115462618D02*
X150453390Y-115367380D01*
X150453390Y-115367380D02*
X150501009Y-115319761D01*
X150501009Y-115319761D02*
X150596247Y-115272142D01*
X150596247Y-115272142D02*
X150834342Y-115272142D01*
X150834342Y-115272142D02*
X150929580Y-115319761D01*
X150929580Y-115319761D02*
X150977200Y-115367380D01*
X150977200Y-115367380D02*
X151024819Y-115462618D01*
X151024819Y-115462618D02*
X151024819Y-115700713D01*
X151024819Y-115700713D02*
X150977200Y-115795951D01*
X150977200Y-115795951D02*
X150929580Y-115843570D01*
X139024819Y-118224523D02*
X139739104Y-118224523D01*
X139739104Y-118224523D02*
X139881961Y-118272142D01*
X139881961Y-118272142D02*
X139977200Y-118367380D01*
X139977200Y-118367380D02*
X140024819Y-118510237D01*
X140024819Y-118510237D02*
X140024819Y-118605475D01*
X140024819Y-117748332D02*
X139024819Y-117748332D01*
X139024819Y-117748332D02*
X139024819Y-117367380D01*
X139024819Y-117367380D02*
X139072438Y-117272142D01*
X139072438Y-117272142D02*
X139120057Y-117224523D01*
X139120057Y-117224523D02*
X139215295Y-117176904D01*
X139215295Y-117176904D02*
X139358152Y-117176904D01*
X139358152Y-117176904D02*
X139453390Y-117224523D01*
X139453390Y-117224523D02*
X139501009Y-117272142D01*
X139501009Y-117272142D02*
X139548628Y-117367380D01*
X139548628Y-117367380D02*
X139548628Y-117748332D01*
X139120057Y-116795951D02*
X139072438Y-116748332D01*
X139072438Y-116748332D02*
X139024819Y-116653094D01*
X139024819Y-116653094D02*
X139024819Y-116414999D01*
X139024819Y-116414999D02*
X139072438Y-116319761D01*
X139072438Y-116319761D02*
X139120057Y-116272142D01*
X139120057Y-116272142D02*
X139215295Y-116224523D01*
X139215295Y-116224523D02*
X139310533Y-116224523D01*
X139310533Y-116224523D02*
X139453390Y-116272142D01*
X139453390Y-116272142D02*
X140024819Y-116843570D01*
X140024819Y-116843570D02*
X140024819Y-116224523D01*
X140024819Y-115272142D02*
X140024819Y-115843570D01*
X140024819Y-115557856D02*
X139024819Y-115557856D01*
X139024819Y-115557856D02*
X139167676Y-115653094D01*
X139167676Y-115653094D02*
X139262914Y-115748332D01*
X139262914Y-115748332D02*
X139310533Y-115843570D01*
X152774819Y-118224523D02*
X153489104Y-118224523D01*
X153489104Y-118224523D02*
X153631961Y-118272142D01*
X153631961Y-118272142D02*
X153727200Y-118367380D01*
X153727200Y-118367380D02*
X153774819Y-118510237D01*
X153774819Y-118510237D02*
X153774819Y-118605475D01*
X153774819Y-117748332D02*
X152774819Y-117748332D01*
X152774819Y-117748332D02*
X152774819Y-117367380D01*
X152774819Y-117367380D02*
X152822438Y-117272142D01*
X152822438Y-117272142D02*
X152870057Y-117224523D01*
X152870057Y-117224523D02*
X152965295Y-117176904D01*
X152965295Y-117176904D02*
X153108152Y-117176904D01*
X153108152Y-117176904D02*
X153203390Y-117224523D01*
X153203390Y-117224523D02*
X153251009Y-117272142D01*
X153251009Y-117272142D02*
X153298628Y-117367380D01*
X153298628Y-117367380D02*
X153298628Y-117748332D01*
X152870057Y-116795951D02*
X152822438Y-116748332D01*
X152822438Y-116748332D02*
X152774819Y-116653094D01*
X152774819Y-116653094D02*
X152774819Y-116414999D01*
X152774819Y-116414999D02*
X152822438Y-116319761D01*
X152822438Y-116319761D02*
X152870057Y-116272142D01*
X152870057Y-116272142D02*
X152965295Y-116224523D01*
X152965295Y-116224523D02*
X153060533Y-116224523D01*
X153060533Y-116224523D02*
X153203390Y-116272142D01*
X153203390Y-116272142D02*
X153774819Y-116843570D01*
X153774819Y-116843570D02*
X153774819Y-116224523D01*
X152774819Y-115367380D02*
X152774819Y-115557856D01*
X152774819Y-115557856D02*
X152822438Y-115653094D01*
X152822438Y-115653094D02*
X152870057Y-115700713D01*
X152870057Y-115700713D02*
X153012914Y-115795951D01*
X153012914Y-115795951D02*
X153203390Y-115843570D01*
X153203390Y-115843570D02*
X153584342Y-115843570D01*
X153584342Y-115843570D02*
X153679580Y-115795951D01*
X153679580Y-115795951D02*
X153727200Y-115748332D01*
X153727200Y-115748332D02*
X153774819Y-115653094D01*
X153774819Y-115653094D02*
X153774819Y-115462618D01*
X153774819Y-115462618D02*
X153727200Y-115367380D01*
X153727200Y-115367380D02*
X153679580Y-115319761D01*
X153679580Y-115319761D02*
X153584342Y-115272142D01*
X153584342Y-115272142D02*
X153346247Y-115272142D01*
X153346247Y-115272142D02*
X153251009Y-115319761D01*
X153251009Y-115319761D02*
X153203390Y-115367380D01*
X153203390Y-115367380D02*
X153155771Y-115462618D01*
X153155771Y-115462618D02*
X153155771Y-115653094D01*
X153155771Y-115653094D02*
X153203390Y-115748332D01*
X153203390Y-115748332D02*
X153251009Y-115795951D01*
X153251009Y-115795951D02*
X153346247Y-115843570D01*
X155524819Y-118224523D02*
X156239104Y-118224523D01*
X156239104Y-118224523D02*
X156381961Y-118272142D01*
X156381961Y-118272142D02*
X156477200Y-118367380D01*
X156477200Y-118367380D02*
X156524819Y-118510237D01*
X156524819Y-118510237D02*
X156524819Y-118605475D01*
X156524819Y-117748332D02*
X155524819Y-117748332D01*
X155524819Y-117748332D02*
X155524819Y-117367380D01*
X155524819Y-117367380D02*
X155572438Y-117272142D01*
X155572438Y-117272142D02*
X155620057Y-117224523D01*
X155620057Y-117224523D02*
X155715295Y-117176904D01*
X155715295Y-117176904D02*
X155858152Y-117176904D01*
X155858152Y-117176904D02*
X155953390Y-117224523D01*
X155953390Y-117224523D02*
X156001009Y-117272142D01*
X156001009Y-117272142D02*
X156048628Y-117367380D01*
X156048628Y-117367380D02*
X156048628Y-117748332D01*
X155620057Y-116795951D02*
X155572438Y-116748332D01*
X155572438Y-116748332D02*
X155524819Y-116653094D01*
X155524819Y-116653094D02*
X155524819Y-116414999D01*
X155524819Y-116414999D02*
X155572438Y-116319761D01*
X155572438Y-116319761D02*
X155620057Y-116272142D01*
X155620057Y-116272142D02*
X155715295Y-116224523D01*
X155715295Y-116224523D02*
X155810533Y-116224523D01*
X155810533Y-116224523D02*
X155953390Y-116272142D01*
X155953390Y-116272142D02*
X156524819Y-116843570D01*
X156524819Y-116843570D02*
X156524819Y-116224523D01*
X155524819Y-115891189D02*
X155524819Y-115224523D01*
X155524819Y-115224523D02*
X156524819Y-115653094D01*
X158274819Y-118224523D02*
X158989104Y-118224523D01*
X158989104Y-118224523D02*
X159131961Y-118272142D01*
X159131961Y-118272142D02*
X159227200Y-118367380D01*
X159227200Y-118367380D02*
X159274819Y-118510237D01*
X159274819Y-118510237D02*
X159274819Y-118605475D01*
X159274819Y-117748332D02*
X158274819Y-117748332D01*
X158274819Y-117748332D02*
X158274819Y-117367380D01*
X158274819Y-117367380D02*
X158322438Y-117272142D01*
X158322438Y-117272142D02*
X158370057Y-117224523D01*
X158370057Y-117224523D02*
X158465295Y-117176904D01*
X158465295Y-117176904D02*
X158608152Y-117176904D01*
X158608152Y-117176904D02*
X158703390Y-117224523D01*
X158703390Y-117224523D02*
X158751009Y-117272142D01*
X158751009Y-117272142D02*
X158798628Y-117367380D01*
X158798628Y-117367380D02*
X158798628Y-117748332D01*
X159274819Y-116224523D02*
X159274819Y-116795951D01*
X159274819Y-116510237D02*
X158274819Y-116510237D01*
X158274819Y-116510237D02*
X158417676Y-116605475D01*
X158417676Y-116605475D02*
X158512914Y-116700713D01*
X158512914Y-116700713D02*
X158560533Y-116795951D01*
X158274819Y-115319761D02*
X158274819Y-115795951D01*
X158274819Y-115795951D02*
X158751009Y-115843570D01*
X158751009Y-115843570D02*
X158703390Y-115795951D01*
X158703390Y-115795951D02*
X158655771Y-115700713D01*
X158655771Y-115700713D02*
X158655771Y-115462618D01*
X158655771Y-115462618D02*
X158703390Y-115367380D01*
X158703390Y-115367380D02*
X158751009Y-115319761D01*
X158751009Y-115319761D02*
X158846247Y-115272142D01*
X158846247Y-115272142D02*
X159084342Y-115272142D01*
X159084342Y-115272142D02*
X159179580Y-115319761D01*
X159179580Y-115319761D02*
X159227200Y-115367380D01*
X159227200Y-115367380D02*
X159274819Y-115462618D01*
X159274819Y-115462618D02*
X159274819Y-115700713D01*
X159274819Y-115700713D02*
X159227200Y-115795951D01*
X159227200Y-115795951D02*
X159179580Y-115843570D01*
X164361324Y-128044569D02*
X164408943Y-127901712D01*
X164408943Y-127901712D02*
X164408943Y-127663617D01*
X164408943Y-127663617D02*
X164361324Y-127568379D01*
X164361324Y-127568379D02*
X164313704Y-127520760D01*
X164313704Y-127520760D02*
X164218466Y-127473141D01*
X164218466Y-127473141D02*
X164123228Y-127473141D01*
X164123228Y-127473141D02*
X164027990Y-127520760D01*
X164027990Y-127520760D02*
X163980371Y-127568379D01*
X163980371Y-127568379D02*
X163932752Y-127663617D01*
X163932752Y-127663617D02*
X163885133Y-127854093D01*
X163885133Y-127854093D02*
X163837514Y-127949331D01*
X163837514Y-127949331D02*
X163789895Y-127996950D01*
X163789895Y-127996950D02*
X163694657Y-128044569D01*
X163694657Y-128044569D02*
X163599419Y-128044569D01*
X163599419Y-128044569D02*
X163504181Y-127996950D01*
X163504181Y-127996950D02*
X163456562Y-127949331D01*
X163456562Y-127949331D02*
X163408943Y-127854093D01*
X163408943Y-127854093D02*
X163408943Y-127615998D01*
X163408943Y-127615998D02*
X163456562Y-127473141D01*
X163408943Y-127139807D02*
X164408943Y-126901712D01*
X164408943Y-126901712D02*
X163694657Y-126711236D01*
X163694657Y-126711236D02*
X164408943Y-126520760D01*
X164408943Y-126520760D02*
X163408943Y-126282665D01*
X164408943Y-125377903D02*
X164408943Y-125949331D01*
X164408943Y-125663617D02*
X163408943Y-125663617D01*
X163408943Y-125663617D02*
X163551800Y-125758855D01*
X163551800Y-125758855D02*
X163647038Y-125854093D01*
X163647038Y-125854093D02*
X163694657Y-125949331D01*
X163504181Y-124996950D02*
X163456562Y-124949331D01*
X163456562Y-124949331D02*
X163408943Y-124854093D01*
X163408943Y-124854093D02*
X163408943Y-124615998D01*
X163408943Y-124615998D02*
X163456562Y-124520760D01*
X163456562Y-124520760D02*
X163504181Y-124473141D01*
X163504181Y-124473141D02*
X163599419Y-124425522D01*
X163599419Y-124425522D02*
X163694657Y-124425522D01*
X163694657Y-124425522D02*
X163837514Y-124473141D01*
X163837514Y-124473141D02*
X164408943Y-125044569D01*
X164408943Y-125044569D02*
X164408943Y-124425522D01*
X164504181Y-124235046D02*
X164504181Y-123473141D01*
X163408943Y-123377902D02*
X163408943Y-122806474D01*
X164408943Y-123092188D02*
X163408943Y-123092188D01*
X164408943Y-122473140D02*
X163408943Y-122473140D01*
X163885133Y-122473140D02*
X163885133Y-121901712D01*
X164408943Y-121901712D02*
X163408943Y-121901712D01*
X164408943Y-120854093D02*
X163932752Y-121187426D01*
X164408943Y-121425521D02*
X163408943Y-121425521D01*
X163408943Y-121425521D02*
X163408943Y-121044569D01*
X163408943Y-121044569D02*
X163456562Y-120949331D01*
X163456562Y-120949331D02*
X163504181Y-120901712D01*
X163504181Y-120901712D02*
X163599419Y-120854093D01*
X163599419Y-120854093D02*
X163742276Y-120854093D01*
X163742276Y-120854093D02*
X163837514Y-120901712D01*
X163837514Y-120901712D02*
X163885133Y-120949331D01*
X163885133Y-120949331D02*
X163932752Y-121044569D01*
X163932752Y-121044569D02*
X163932752Y-121425521D01*
X163408943Y-120235045D02*
X163408943Y-120044569D01*
X163408943Y-120044569D02*
X163456562Y-119949331D01*
X163456562Y-119949331D02*
X163551800Y-119854093D01*
X163551800Y-119854093D02*
X163742276Y-119806474D01*
X163742276Y-119806474D02*
X164075609Y-119806474D01*
X164075609Y-119806474D02*
X164266085Y-119854093D01*
X164266085Y-119854093D02*
X164361324Y-119949331D01*
X164361324Y-119949331D02*
X164408943Y-120044569D01*
X164408943Y-120044569D02*
X164408943Y-120235045D01*
X164408943Y-120235045D02*
X164361324Y-120330283D01*
X164361324Y-120330283D02*
X164266085Y-120425521D01*
X164266085Y-120425521D02*
X164075609Y-120473140D01*
X164075609Y-120473140D02*
X163742276Y-120473140D01*
X163742276Y-120473140D02*
X163551800Y-120425521D01*
X163551800Y-120425521D02*
X163456562Y-120330283D01*
X163456562Y-120330283D02*
X163408943Y-120235045D01*
X163408943Y-119473140D02*
X164408943Y-119235045D01*
X164408943Y-119235045D02*
X163694657Y-119044569D01*
X163694657Y-119044569D02*
X164408943Y-118854093D01*
X164408943Y-118854093D02*
X163408943Y-118615998D01*
D11*
%TO.C,mouse-bite-2mm-slot*%
X182800000Y-111580000D02*
G75*
G02*
X182800000Y-113580000I0J-1000000D01*
G01*
X186800000Y-113580000D02*
G75*
G02*
X186800000Y-111580000I0J1000000D01*
G01*
X165350000Y-134000000D02*
G75*
G02*
X165350000Y-136000000I0J-1000000D01*
G01*
X169350000Y-136000000D02*
G75*
G02*
X169350000Y-134000000I0J1000000D01*
G01*
X171550000Y-111580000D02*
G75*
G02*
X171550000Y-113580000I0J-1000000D01*
G01*
X175550000Y-113580000D02*
G75*
G02*
X175550000Y-111580000I0J1000000D01*
G01*
X182600000Y-134000000D02*
G75*
G02*
X182600000Y-136000000I0J-1000000D01*
G01*
X186600000Y-136000000D02*
G75*
G02*
X186600000Y-134000000I0J1000000D01*
G01*
X135800000Y-119830000D02*
G75*
G02*
X137800000Y-119830000I1000000J0D01*
G01*
X137800000Y-115830000D02*
G75*
G02*
X135800000Y-115830000I-1000000J0D01*
G01*
X173850000Y-134000000D02*
G75*
G02*
X173850000Y-136000000I0J-1000000D01*
G01*
X177850000Y-136000000D02*
G75*
G02*
X177850000Y-134000000I0J1000000D01*
G01*
X188000000Y-130250000D02*
G75*
G02*
X190000000Y-130250000I1000000J0D01*
G01*
X190000000Y-126250000D02*
G75*
G02*
X188000000Y-126250000I-1000000J0D01*
G01*
X135800000Y-130080000D02*
G75*
G02*
X137800000Y-130080000I1000000J0D01*
G01*
X137800000Y-126080000D02*
G75*
G02*
X135800000Y-126080000I-1000000J0D01*
G01*
X188000000Y-121250000D02*
G75*
G02*
X190000000Y-121250000I1000000J0D01*
G01*
X190000000Y-117250000D02*
G75*
G02*
X188000000Y-117250000I-1000000J0D01*
G01*
X161050000Y-111580000D02*
G75*
G02*
X161050000Y-113580000I0J-1000000D01*
G01*
X165050000Y-113580000D02*
G75*
G02*
X165050000Y-111580000I0J1000000D01*
G01*
D12*
%TO.C,SW4_LP*%
X124583943Y-95900000D02*
X124583943Y-81700000D01*
X124583943Y-81700000D02*
X110383943Y-81700000D01*
X110383943Y-95900000D02*
X124583943Y-95900000D01*
X110383943Y-81700000D02*
X110383943Y-95900000D01*
%TO.C,JP20*%
X104005000Y-126100000D02*
G75*
G02*
X103305000Y-126800000I-700000J0D01*
G01*
X103305000Y-124800000D02*
G75*
G02*
X104005000Y-125500000I0J-700000D01*
G01*
X104005000Y-125500000D02*
X104005000Y-126100000D01*
X103305000Y-126800000D02*
X102705000Y-126800000D01*
X102705000Y-126800000D02*
X102705000Y-124800000D01*
X102705000Y-124800000D02*
X103305000Y-124800000D01*
%TO.C,SW10_SHARE*%
X162150000Y-55980000D02*
X162150000Y-41780000D01*
X162150000Y-41780000D02*
X147950000Y-41780000D01*
X147950000Y-55980000D02*
X162150000Y-55980000D01*
X147950000Y-41780000D02*
X147950000Y-55980000D01*
%TO.C,SW14_PS*%
X177650000Y-55980000D02*
X177650000Y-41780000D01*
X177650000Y-41780000D02*
X163450000Y-41780000D01*
X163450000Y-55980000D02*
X177650000Y-55980000D01*
X163450000Y-41780000D02*
X163450000Y-55980000D01*
%TO.C,SW15_TOUCHPAD*%
X193150000Y-55980000D02*
X193150000Y-41780000D01*
X193150000Y-41780000D02*
X178950000Y-41780000D01*
X178950000Y-55980000D02*
X193150000Y-55980000D01*
X178950000Y-41780000D02*
X178950000Y-55980000D01*
%TO.C,JP26*%
X104005000Y-55850000D02*
G75*
G02*
X103305000Y-56550000I-700000J0D01*
G01*
X103305000Y-54550000D02*
G75*
G02*
X104005000Y-55250000I0J-700000D01*
G01*
X104005000Y-55250000D02*
X104005000Y-55850000D01*
X103305000Y-56550000D02*
X102705000Y-56550000D01*
X102705000Y-56550000D02*
X102705000Y-54550000D01*
X102705000Y-54550000D02*
X103305000Y-54550000D01*
%TO.C,SW6_DI*%
X124764257Y-66900561D02*
X124764257Y-52700561D01*
X124764257Y-52700561D02*
X110564257Y-52700561D01*
X110564257Y-66900561D02*
X124764257Y-66900561D01*
X110564257Y-52700561D02*
X110564257Y-66900561D01*
%TO.C,JP23*%
X104005000Y-47600000D02*
G75*
G02*
X103305000Y-48300000I-700000J0D01*
G01*
X103305000Y-46300000D02*
G75*
G02*
X104005000Y-47000000I0J-700000D01*
G01*
X104005000Y-47000000D02*
X104005000Y-47600000D01*
X103305000Y-48300000D02*
X102705000Y-48300000D01*
X102705000Y-48300000D02*
X102705000Y-46300000D01*
X102705000Y-46300000D02*
X103305000Y-46300000D01*
%TO.C,JP19*%
X104005000Y-123100000D02*
G75*
G02*
X103305000Y-123800000I-700000J0D01*
G01*
X103305000Y-121800000D02*
G75*
G02*
X104005000Y-122500000I0J-700000D01*
G01*
X104005000Y-122500000D02*
X104005000Y-123100000D01*
X103305000Y-123800000D02*
X102705000Y-123800000D01*
X102705000Y-123800000D02*
X102705000Y-121800000D01*
X102705000Y-121800000D02*
X103305000Y-121800000D01*
%TO.C,SW11_START*%
X146650000Y-55980000D02*
X146650000Y-41780000D01*
X146650000Y-41780000D02*
X132450000Y-41780000D01*
X132450000Y-55980000D02*
X146650000Y-55980000D01*
X132450000Y-41780000D02*
X132450000Y-55980000D01*
%TO.C,JP22*%
X104005000Y-44850000D02*
G75*
G02*
X103305000Y-45550000I-700000J0D01*
G01*
X103305000Y-43550000D02*
G75*
G02*
X104005000Y-44250000I0J-700000D01*
G01*
X104005000Y-44250000D02*
X104005000Y-44850000D01*
X103305000Y-45550000D02*
X102705000Y-45550000D01*
X102705000Y-45550000D02*
X102705000Y-43550000D01*
X102705000Y-43550000D02*
X103305000Y-43550000D01*
%TO.C,SW9_HK*%
X178583943Y-110900000D02*
X178583943Y-96700000D01*
X178583943Y-96700000D02*
X164383943Y-96700000D01*
X164383943Y-110900000D02*
X178583943Y-110900000D01*
X164383943Y-96700000D02*
X164383943Y-110900000D01*
%TO.C,JP27*%
X104005000Y-58600000D02*
G75*
G02*
X103305000Y-59300000I-700000J0D01*
G01*
X103305000Y-57300000D02*
G75*
G02*
X104005000Y-58000000I0J-700000D01*
G01*
X104005000Y-58000000D02*
X104005000Y-58600000D01*
X103305000Y-59300000D02*
X102705000Y-59300000D01*
X102705000Y-59300000D02*
X102705000Y-57300000D01*
X102705000Y-57300000D02*
X103305000Y-57300000D01*
%TO.C,SW5_MP*%
X149583943Y-81900000D02*
X149583943Y-67700000D01*
X149583943Y-67700000D02*
X135383943Y-67700000D01*
X135383943Y-81900000D02*
X149583943Y-81900000D01*
X135383943Y-67700000D02*
X135383943Y-81900000D01*
%TO.C,JP25*%
X104005000Y-53100000D02*
G75*
G02*
X103305000Y-53800000I-700000J0D01*
G01*
X103305000Y-51800000D02*
G75*
G02*
X104005000Y-52500000I0J-700000D01*
G01*
X104005000Y-52500000D02*
X104005000Y-53100000D01*
X103305000Y-53800000D02*
X102705000Y-53800000D01*
X102705000Y-53800000D02*
X102705000Y-51800000D01*
X102705000Y-51800000D02*
X103305000Y-51800000D01*
%TO.C,SW3_MK*%
X149583943Y-110900000D02*
X149583943Y-96700000D01*
X149583943Y-96700000D02*
X135383943Y-96700000D01*
X135383943Y-110900000D02*
X149583943Y-110900000D01*
X135383943Y-96700000D02*
X135383943Y-110900000D01*
%TO.C,JP18*%
X104005000Y-120100000D02*
G75*
G02*
X103305000Y-120800000I-700000J0D01*
G01*
X103305000Y-118800000D02*
G75*
G02*
X104005000Y-119500000I0J-700000D01*
G01*
X104005000Y-119500000D02*
X104005000Y-120100000D01*
X103305000Y-120800000D02*
X102705000Y-120800000D01*
X102705000Y-120800000D02*
X102705000Y-118800000D01*
X102705000Y-118800000D02*
X103305000Y-118800000D01*
%TO.C,JP15*%
X104005000Y-61350000D02*
G75*
G02*
X103305000Y-62050000I-700000J0D01*
G01*
X103305000Y-60050000D02*
G75*
G02*
X104005000Y-60750000I0J-700000D01*
G01*
X104005000Y-60750000D02*
X104005000Y-61350000D01*
X103305000Y-62050000D02*
X102705000Y-62050000D01*
X102705000Y-62050000D02*
X102705000Y-60050000D01*
X102705000Y-60050000D02*
X103305000Y-60050000D01*
%TO.C,JP21*%
X104005000Y-42100000D02*
G75*
G02*
X103305000Y-42800000I-700000J0D01*
G01*
X103305000Y-40800000D02*
G75*
G02*
X104005000Y-41500000I0J-700000D01*
G01*
X104005000Y-41500000D02*
X104005000Y-42100000D01*
X103305000Y-42800000D02*
X102705000Y-42800000D01*
X102705000Y-42800000D02*
X102705000Y-40800000D01*
X102705000Y-40800000D02*
X103305000Y-40800000D01*
%TO.C,JP24*%
X104005000Y-50350000D02*
G75*
G02*
X103305000Y-51050000I-700000J0D01*
G01*
X103305000Y-49050000D02*
G75*
G02*
X104005000Y-49750000I0J-700000D01*
G01*
X104005000Y-49750000D02*
X104005000Y-50350000D01*
X103305000Y-51050000D02*
X102705000Y-51050000D01*
X102705000Y-51050000D02*
X102705000Y-49050000D01*
X102705000Y-49050000D02*
X103305000Y-49050000D01*
%TO.C,SW7_HP*%
X178583943Y-81900000D02*
X178583943Y-67700000D01*
X178583943Y-67700000D02*
X164383943Y-67700000D01*
X164383943Y-81900000D02*
X178583943Y-81900000D01*
X164383943Y-67700000D02*
X164383943Y-81900000D01*
%TO.C,SW2_LK*%
X124583943Y-124900000D02*
X124583943Y-110700000D01*
X124583943Y-110700000D02*
X110383943Y-110700000D01*
X110383943Y-124900000D02*
X124583943Y-124900000D01*
X110383943Y-110700000D02*
X110383943Y-124900000D01*
%TO.C,JP17*%
X104005000Y-117100000D02*
G75*
G02*
X103305000Y-117800000I-700000J0D01*
G01*
X103305000Y-115800000D02*
G75*
G02*
X104005000Y-116500000I0J-700000D01*
G01*
X104005000Y-116500000D02*
X104005000Y-117100000D01*
X103305000Y-117800000D02*
X102705000Y-117800000D01*
X102705000Y-117800000D02*
X102705000Y-115800000D01*
X102705000Y-115800000D02*
X103305000Y-115800000D01*
%TO.C,JP2*%
X138600000Y-133992500D02*
X138600000Y-133392500D01*
X140600000Y-133992500D02*
X138600000Y-133992500D01*
X140600000Y-133392500D02*
X140600000Y-133992500D01*
X139300000Y-132692500D02*
X139900000Y-132692500D01*
X138600000Y-133392500D02*
G75*
G02*
X139300000Y-132692500I700000J0D01*
G01*
X139900000Y-132692500D02*
G75*
G02*
X140600000Y-133392500I0J-700000D01*
G01*
%TO.C,JP23*%
X145400000Y-114855000D02*
X144800000Y-114855000D01*
D11*
X146100000Y-114155000D02*
X146100000Y-113555000D01*
X144100000Y-113555000D02*
X144100000Y-114155000D01*
X146100000Y-113555000D02*
X144100000Y-113555000D01*
D12*
X144800000Y-114855000D02*
G75*
G02*
X144100000Y-114155000I-1J699999D01*
G01*
X146100000Y-114155000D02*
G75*
G02*
X145400000Y-114855000I-699999J-1D01*
G01*
%TO.C,JP7*%
X152350000Y-133992500D02*
X152350000Y-133392500D01*
X154350000Y-133992500D02*
X152350000Y-133992500D01*
X154350000Y-133392500D02*
X154350000Y-133992500D01*
X153050000Y-132692500D02*
X153650000Y-132692500D01*
X152350000Y-133392500D02*
G75*
G02*
X153050000Y-132692500I700000J0D01*
G01*
X153650000Y-132692500D02*
G75*
G02*
X154350000Y-133392500I0J-700000D01*
G01*
%TO.C,JP22*%
X142650000Y-114855000D02*
X142050000Y-114855000D01*
D11*
X143350000Y-114155000D02*
X143350000Y-113555000D01*
X141350000Y-113555000D02*
X141350000Y-114155000D01*
X143350000Y-113555000D02*
X141350000Y-113555000D01*
D12*
X142050000Y-114855000D02*
G75*
G02*
X141350000Y-114155000I-1J699999D01*
G01*
X143350000Y-114155000D02*
G75*
G02*
X142650000Y-114855000I-699999J-1D01*
G01*
%TO.C,JP8*%
X155100000Y-133992500D02*
X155100000Y-133392500D01*
X157100000Y-133992500D02*
X155100000Y-133992500D01*
X157100000Y-133392500D02*
X157100000Y-133992500D01*
X155800000Y-132692500D02*
X156400000Y-132692500D01*
X155100000Y-133392500D02*
G75*
G02*
X155800000Y-132692500I700000J0D01*
G01*
X156400000Y-132692500D02*
G75*
G02*
X157100000Y-133392500I0J-700000D01*
G01*
%TO.C,JP24*%
X148150000Y-114855000D02*
X147550000Y-114855000D01*
D11*
X148850000Y-114155000D02*
X148850000Y-113555000D01*
X146850000Y-113555000D02*
X146850000Y-114155000D01*
X148850000Y-113555000D02*
X146850000Y-113555000D01*
D12*
X147550000Y-114855000D02*
G75*
G02*
X146850000Y-114155000I-1J699999D01*
G01*
X148850000Y-114155000D02*
G75*
G02*
X148150000Y-114855000I-699999J-1D01*
G01*
%TO.C,JP6*%
X149600000Y-133992500D02*
X149600000Y-133392500D01*
X151600000Y-133992500D02*
X149600000Y-133992500D01*
X151600000Y-133392500D02*
X151600000Y-133992500D01*
X150300000Y-132692500D02*
X150900000Y-132692500D01*
X149600000Y-133392500D02*
G75*
G02*
X150300000Y-132692500I700000J0D01*
G01*
X150900000Y-132692500D02*
G75*
G02*
X151600000Y-133392500I0J-700000D01*
G01*
%TO.C,JP3*%
X141350000Y-133992500D02*
X141350000Y-133392500D01*
X143350000Y-133992500D02*
X141350000Y-133992500D01*
X143350000Y-133392500D02*
X143350000Y-133992500D01*
X142050000Y-132692500D02*
X142650000Y-132692500D01*
X141350000Y-133392500D02*
G75*
G02*
X142050000Y-132692500I700000J0D01*
G01*
X142650000Y-132692500D02*
G75*
G02*
X143350000Y-133392500I0J-700000D01*
G01*
%TO.C,JP25*%
X150900000Y-114855000D02*
X150300000Y-114855000D01*
D11*
X151600000Y-114155000D02*
X151600000Y-113555000D01*
X149600000Y-113555000D02*
X149600000Y-114155000D01*
X151600000Y-113555000D02*
X149600000Y-113555000D01*
D12*
X150300000Y-114855000D02*
G75*
G02*
X149600000Y-114155000I-1J699999D01*
G01*
X151600000Y-114155000D02*
G75*
G02*
X150900000Y-114855000I-699999J-1D01*
G01*
%TO.C,JP21*%
X139900000Y-114855000D02*
X139300000Y-114855000D01*
D11*
X140600000Y-114155000D02*
X140600000Y-113555000D01*
X138600000Y-113555000D02*
X138600000Y-114155000D01*
X140600000Y-113555000D02*
X138600000Y-113555000D01*
D12*
X139300000Y-114855000D02*
G75*
G02*
X138600000Y-114155000I-1J699999D01*
G01*
X140600000Y-114155000D02*
G75*
G02*
X139900000Y-114855000I-699999J-1D01*
G01*
%TO.C,JP26*%
X153650000Y-114855000D02*
X153050000Y-114855000D01*
D11*
X154350000Y-114155000D02*
X154350000Y-113555000D01*
X152350000Y-113555000D02*
X152350000Y-114155000D01*
X154350000Y-113555000D02*
X152350000Y-113555000D01*
D12*
X153050000Y-114855000D02*
G75*
G02*
X152350000Y-114155000I-1J699999D01*
G01*
X154350000Y-114155000D02*
G75*
G02*
X153650000Y-114855000I-699999J-1D01*
G01*
%TO.C,JP1*%
X157850000Y-133992500D02*
X157850000Y-133392500D01*
X159850000Y-133992500D02*
X157850000Y-133992500D01*
X159850000Y-133392500D02*
X159850000Y-133992500D01*
X158550000Y-132692500D02*
X159150000Y-132692500D01*
X157850000Y-133392500D02*
G75*
G02*
X158550000Y-132692500I700000J0D01*
G01*
X159150000Y-132692500D02*
G75*
G02*
X159850000Y-133392500I0J-700000D01*
G01*
%TO.C,JP9*%
X160650000Y-133992500D02*
X160650000Y-133392500D01*
X162650000Y-133992500D02*
X160650000Y-133992500D01*
X162650000Y-133392500D02*
X162650000Y-133992500D01*
X161350000Y-132692500D02*
X161950000Y-132692500D01*
X160650000Y-133392500D02*
G75*
G02*
X161350000Y-132692500I700000J0D01*
G01*
X161950000Y-132692500D02*
G75*
G02*
X162650000Y-133392500I0J-700000D01*
G01*
%TO.C,JP5*%
X146850000Y-133992500D02*
X146850000Y-133392500D01*
X148850000Y-133992500D02*
X146850000Y-133992500D01*
X148850000Y-133392500D02*
X148850000Y-133992500D01*
X147550000Y-132692500D02*
X148150000Y-132692500D01*
X146850000Y-133392500D02*
G75*
G02*
X147550000Y-132692500I700000J0D01*
G01*
X148150000Y-132692500D02*
G75*
G02*
X148850000Y-133392500I0J-700000D01*
G01*
%TO.C,JP27*%
X156400000Y-114855000D02*
X155800000Y-114855000D01*
D11*
X157100000Y-114155000D02*
X157100000Y-113555000D01*
X155100000Y-113555000D02*
X155100000Y-114155000D01*
X157100000Y-113555000D02*
X155100000Y-113555000D01*
D12*
X155800000Y-114855000D02*
G75*
G02*
X155100000Y-114155000I-1J699999D01*
G01*
X157100000Y-114155000D02*
G75*
G02*
X156400000Y-114855000I-699999J-1D01*
G01*
%TO.C,JP15*%
X159150000Y-114855000D02*
X158550000Y-114855000D01*
D11*
X159850000Y-114155000D02*
X159850000Y-113555000D01*
X157850000Y-113555000D02*
X157850000Y-114155000D01*
X159850000Y-113555000D02*
X157850000Y-113555000D01*
D12*
X158550000Y-114855000D02*
G75*
G02*
X157850000Y-114155000I-1J699999D01*
G01*
X159850000Y-114155000D02*
G75*
G02*
X159150000Y-114855000I-699999J-1D01*
G01*
%TO.C,JP4*%
X144100000Y-133992500D02*
X144100000Y-133392500D01*
X146100000Y-133992500D02*
X144100000Y-133992500D01*
X146100000Y-133392500D02*
X146100000Y-133992500D01*
X144800000Y-132692500D02*
X145400000Y-132692500D01*
X144100000Y-133392500D02*
G75*
G02*
X144800000Y-132692500I700000J0D01*
G01*
X145400000Y-132692500D02*
G75*
G02*
X146100000Y-133392500I0J-700000D01*
G01*
%TO.C,SW12_THROW*%
X164854124Y-130454094D02*
X179054124Y-130454094D01*
X179054124Y-130454094D02*
X179054124Y-116254094D01*
X164854124Y-116254094D02*
X164854124Y-130454094D01*
X179054124Y-116254094D02*
X164854124Y-116254094D01*
%TD*%
%LPC*%
D13*
%TO.C,mouse-bite-2mm-slot*%
X185550000Y-113330000D03*
X185550000Y-111830000D03*
X184800000Y-113330000D03*
X184800000Y-111830000D03*
X184050000Y-113330000D03*
X184050000Y-111830000D03*
%TD*%
%TO.C,mouse-bite-2mm-slot*%
X166600000Y-134250000D03*
X166600000Y-135750000D03*
X167350000Y-134250000D03*
X167350000Y-135750000D03*
X168100000Y-134250000D03*
X168100000Y-135750000D03*
%TD*%
%TO.C,mouse-bite-2mm-slot*%
X174300000Y-113330000D03*
X174300000Y-111830000D03*
X173550000Y-113330000D03*
X173550000Y-111830000D03*
X172800000Y-113330000D03*
X172800000Y-111830000D03*
%TD*%
%TO.C,mouse-bite-2mm-slot*%
X183850000Y-134250000D03*
X183850000Y-135750000D03*
X184600000Y-134250000D03*
X184600000Y-135750000D03*
X185350000Y-134250000D03*
X185350000Y-135750000D03*
%TD*%
%TO.C,mouse-bite-2mm-slot*%
X136050000Y-118580000D03*
X137550000Y-118580000D03*
X136050000Y-117830000D03*
X137550000Y-117830000D03*
X136050000Y-117080000D03*
X137550000Y-117080000D03*
%TD*%
%TO.C,mouse-bite-2mm-slot*%
X175100000Y-134250000D03*
X175100000Y-135750000D03*
X175850000Y-134250000D03*
X175850000Y-135750000D03*
X176600000Y-134250000D03*
X176600000Y-135750000D03*
%TD*%
%TO.C,mouse-bite-2mm-slot*%
X188250000Y-129000000D03*
X189750000Y-129000000D03*
X188250000Y-128250000D03*
X189750000Y-128250000D03*
X188250000Y-127500000D03*
X189750000Y-127500000D03*
%TD*%
%TO.C,mouse-bite-2mm-slot*%
X136050000Y-128830000D03*
X137550000Y-128830000D03*
X136050000Y-128080000D03*
X137550000Y-128080000D03*
X136050000Y-127330000D03*
X137550000Y-127330000D03*
%TD*%
%TO.C,mouse-bite-2mm-slot*%
X188250000Y-120000000D03*
X189750000Y-120000000D03*
X188250000Y-119250000D03*
X189750000Y-119250000D03*
X188250000Y-118500000D03*
X189750000Y-118500000D03*
%TD*%
%TO.C,mouse-bite-2mm-slot*%
X163800000Y-113330000D03*
X163800000Y-111830000D03*
X163050000Y-113330000D03*
X163050000Y-111830000D03*
X162300000Y-113330000D03*
X162300000Y-111830000D03*
%TD*%
D14*
%TO.C,H9*%
X154050000Y-86800000D03*
%TD*%
D15*
%TO.C,SW4_LP*%
X122563943Y-88800000D03*
D16*
X120023943Y-83720000D03*
D17*
X117483943Y-88800000D03*
D16*
X113673943Y-86260000D03*
D15*
X112403943Y-88800000D03*
%TD*%
D18*
%TO.C,JP20*%
X103255000Y-125800000D03*
%TD*%
D19*
%TO.C,SW10_SHARE*%
X157590000Y-43800000D03*
X151240000Y-46340000D03*
D15*
X160130000Y-48880000D03*
D17*
X155050000Y-48880000D03*
D15*
X149970000Y-48880000D03*
%TD*%
D19*
%TO.C,SW14_PS*%
X173090000Y-43800000D03*
X166740000Y-46340000D03*
D15*
X175630000Y-48880000D03*
D17*
X170550000Y-48880000D03*
D15*
X165470000Y-48880000D03*
%TD*%
D19*
%TO.C,SW15_TOUCHPAD*%
X188590000Y-43800000D03*
X182240000Y-46340000D03*
D15*
X191130000Y-48880000D03*
D17*
X186050000Y-48880000D03*
D15*
X180970000Y-48880000D03*
%TD*%
D18*
%TO.C,JP26*%
X103255000Y-55550000D03*
%TD*%
D15*
%TO.C,SW6_DI*%
X122744257Y-59800561D03*
D16*
X120204257Y-54720561D03*
D17*
X117664257Y-59800561D03*
D16*
X113854257Y-57260561D03*
D15*
X112584257Y-59800561D03*
%TD*%
D18*
%TO.C,JP23*%
X103255000Y-47300000D03*
%TD*%
D14*
%TO.C,H12*%
X109050000Y-74300000D03*
%TD*%
D18*
%TO.C,JP19*%
X103255000Y-122800000D03*
%TD*%
D19*
%TO.C,SW11_START*%
X142090000Y-43800000D03*
X135740000Y-46340000D03*
D15*
X144630000Y-48880000D03*
D17*
X139550000Y-48880000D03*
D15*
X134470000Y-48880000D03*
%TD*%
D18*
%TO.C,JP22*%
X103255000Y-44550000D03*
%TD*%
D15*
%TO.C,SW9_HK*%
X176563943Y-103800000D03*
D16*
X174023943Y-98720000D03*
D17*
X171483943Y-103800000D03*
D16*
X167673943Y-101260000D03*
D15*
X166403943Y-103800000D03*
%TD*%
D18*
%TO.C,JP27*%
X103255000Y-58300000D03*
%TD*%
D15*
%TO.C,SW5_MP*%
X147563943Y-74800000D03*
D16*
X145023943Y-69720000D03*
D17*
X142483943Y-74800000D03*
D16*
X138673943Y-72260000D03*
D15*
X137403943Y-74800000D03*
%TD*%
D14*
%TO.C,H8*%
X118050000Y-134300000D03*
%TD*%
D18*
%TO.C,JP25*%
X103255000Y-52800000D03*
%TD*%
D15*
%TO.C,SW3_MK*%
X147563943Y-103800000D03*
D16*
X145023943Y-98720000D03*
D17*
X142483943Y-103800000D03*
D16*
X138673943Y-101260000D03*
D15*
X137403943Y-103800000D03*
%TD*%
D18*
%TO.C,JP18*%
X103255000Y-119800000D03*
%TD*%
D14*
%TO.C,H11*%
X189550000Y-103800000D03*
%TD*%
D18*
%TO.C,JP15*%
X103255000Y-61050000D03*
%TD*%
%TO.C,JP21*%
X103255000Y-41800000D03*
%TD*%
D14*
%TO.C,H10*%
X190550000Y-62800000D03*
%TD*%
D18*
%TO.C,JP24*%
X103255000Y-50050000D03*
%TD*%
D15*
%TO.C,SW7_HP*%
X176563943Y-74800000D03*
D16*
X174023943Y-69720000D03*
D17*
X171483943Y-74800000D03*
D16*
X167673943Y-72260000D03*
D15*
X166403943Y-74800000D03*
%TD*%
%TO.C,SW2_LK*%
X122563943Y-117800000D03*
D16*
X120023943Y-112720000D03*
D17*
X117483943Y-117800000D03*
D16*
X113673943Y-115260000D03*
D15*
X112403943Y-117800000D03*
%TD*%
D18*
%TO.C,JP17*%
X103255000Y-116800000D03*
%TD*%
D20*
%TO.C,JP2*%
X139600000Y-133442500D03*
%TD*%
D14*
%TO.C,H6*%
X183600000Y-123270000D03*
%TD*%
%TO.C,H7*%
X143400000Y-123770000D03*
%TD*%
D21*
%TO.C,JP23*%
X145100000Y-114105000D03*
%TD*%
D20*
%TO.C,JP7*%
X153350000Y-133442500D03*
%TD*%
D21*
%TO.C,JP22*%
X142350000Y-114105000D03*
%TD*%
D20*
%TO.C,JP8*%
X156100000Y-133442500D03*
%TD*%
D21*
%TO.C,JP24*%
X147850000Y-114105000D03*
%TD*%
D20*
%TO.C,JP6*%
X150600000Y-133442500D03*
%TD*%
%TO.C,JP3*%
X142350000Y-133442500D03*
%TD*%
D21*
%TO.C,JP25*%
X150600000Y-114105000D03*
%TD*%
%TO.C,JP21*%
X139600000Y-114105000D03*
%TD*%
%TO.C,JP26*%
X153350000Y-114105000D03*
%TD*%
D20*
%TO.C,JP1*%
X158850000Y-133442500D03*
%TD*%
%TO.C,JP9*%
X161650000Y-133442500D03*
%TD*%
%TO.C,JP5*%
X147850000Y-133442500D03*
%TD*%
D21*
%TO.C,JP27*%
X156100000Y-114105000D03*
%TD*%
%TO.C,JP15*%
X158850000Y-114105000D03*
%TD*%
D20*
%TO.C,JP4*%
X145100000Y-133442500D03*
%TD*%
D15*
%TO.C,SW12_THROW*%
X171954124Y-128434094D03*
D16*
X169414124Y-127164094D03*
D17*
X171954124Y-123354094D03*
D16*
X166874124Y-120814094D03*
D15*
X171954124Y-118274094D03*
%TD*%
%LPD*%
M02*
