M48
; DRILL file {KiCad 8.0.4} date 2024-07-24T01:17:20-0700
; FORMAT={-:-/ absolute / inch / decimal}
; #@! TF.CreationDate,2024-07-24T01:17:20-07:00
; #@! TF.GenerationSoftware,Kicad,Pcbnew,8.0.4
; #@! TF.FileFunction,NonPlated,1,2,NPTH
FMAT,2
INCH
; #@! TA.AperFunction,NonPlated,NPTH,ComponentDrill
T1C0.0197
; #@! TA.AperFunction,NonPlated,NPTH,ComponentDrill
T2C0.0689
; #@! TA.AperFunction,NonPlated,NPTH,ComponentDrill
T3C0.0709
; #@! TA.AperFunction,NonPlated,NPTH,ComponentDrill
T4C0.1260
; #@! TA.AperFunction,NonPlated,NPTH,ComponentDrill
T5C0.1575
%
G90
G05
T1
X5.6299Y-4.813
X5.6299Y-4.8425
X5.6299Y-4.872
X5.6299Y-5.2165
X5.6299Y-5.2461
X5.6299Y-5.2756
X5.689Y-4.813
X5.689Y-4.8425
X5.689Y-4.872
X5.689Y-5.2165
X5.689Y-5.2461
X5.689Y-5.2756
X6.6634Y-4.6063
X6.6634Y-4.6654
X6.6929Y-4.6063
X6.6929Y-4.6654
X6.7224Y-4.6063
X6.7224Y-4.6654
X7.0768Y-4.6063
X7.0768Y-4.6654
X7.1063Y-4.6063
X7.1063Y-4.6654
X7.1358Y-4.6063
X7.1358Y-4.6654
X7.5197Y-4.6063
X7.5197Y-4.6654
X7.5492Y-4.6063
X7.5492Y-4.6654
X7.5787Y-4.6063
X7.5787Y-4.6654
T2
X4.4254Y-3.4961
X4.4254Y-4.6378
X4.4325Y-2.3544
X4.8254Y-3.4961
X4.8254Y-4.6378
X4.8325Y-2.3544
X5.4096Y-2.9449
X5.4096Y-4.0866
X5.8096Y-2.9449
X5.8096Y-4.0866
X6.5513Y-2.9449
X6.5513Y-4.0866
X6.9513Y-2.9449
X6.9513Y-4.0866
X7.0435Y-4.86
X7.0435Y-5.26
T3
X5.4362Y-1.9213
X5.7906Y-1.9213
X6.0268Y-1.9213
X6.3811Y-1.9213
X6.6173Y-1.9213
X6.9717Y-1.9213
X7.2079Y-1.9213
X7.5622Y-1.9213
T4
X4.2933Y-2.9252
X4.6476Y-5.2874
X5.9075Y-5.0764
X6.065Y-3.4173
X7.4626Y-4.0866
X7.502Y-2.4724
X7.502Y-5.0567
T5
X4.6254Y-3.4961
X4.6254Y-4.6378
X4.6325Y-2.3544
X5.6096Y-2.9449
X5.6096Y-4.0866
X6.7513Y-2.9449
X6.7513Y-4.0866
X7.0435Y-5.06
M30
