%TF.GenerationSoftware,KiCad,Pcbnew,8.0.4*%
%TF.CreationDate,2024-07-28T23:22:28-07:00*%
%TF.ProjectId,panel_2,70616e65-6c5f-4322-9e6b-696361645f70,rev?*%
%TF.SameCoordinates,Original*%
%TF.FileFunction,Drillmap*%
%TF.FilePolarity,Positive*%
%FSLAX45Y45*%
G04 Gerber Fmt 4.5, Leading zero omitted, Abs format (unit mm)*
G04 Created by KiCad (PCBNEW 8.0.4) date 2024-07-28 23:22:28*
%MOMM*%
%LPD*%
G01*
G04 APERTURE LIST*
%ADD10C,0.050000*%
%ADD11C,0.200000*%
%ADD12C,0.100000*%
%ADD13C,0.175000*%
%ADD14C,0.305000*%
%ADD15C,0.320000*%
%ADD16C,0.400000*%
G04 APERTURE END LIST*
D10*
X10255000Y-3980000D02*
X10255000Y-13930000D01*
X19505000Y-13930000D02*
X10255000Y-13930000D01*
X19505000Y-3980000D02*
X19505000Y-13930000D01*
X19505000Y-3980000D02*
X10255000Y-3980000D01*
X17555000Y-11341000D02*
G75*
G02*
X17555000Y-11175000I0J83000D01*
G01*
X18260000Y-13413000D02*
G75*
G02*
X18260000Y-13587000I0J-87000D01*
G01*
X18985000Y-11725000D02*
G75*
G02*
X18815000Y-11725000I-85000J0D01*
G01*
X13600000Y-13008000D02*
X13600000Y-13587000D01*
X13760000Y-11583000D02*
G75*
G02*
X13600000Y-11583000I-80000J0D01*
G01*
X17785000Y-13587000D02*
X18260000Y-13587000D01*
X16105000Y-11175000D02*
G75*
G02*
X16105000Y-11341000I0J-83000D01*
G01*
X16105000Y-11341000D02*
X13760000Y-11341000D01*
X18660000Y-13587006D02*
X18985000Y-13587006D01*
X18985000Y-12625000D02*
G75*
G02*
X18815000Y-12625000I-85000J0D01*
G01*
X18680000Y-11175000D02*
X18985000Y-11175000D01*
X13760000Y-13413000D02*
X13760000Y-13008000D01*
X16535000Y-13587000D02*
X13600000Y-13587000D01*
X18815000Y-12125000D02*
X18815000Y-12625000D01*
X18815000Y-12125000D02*
G75*
G02*
X18985000Y-12125000I85000J0D01*
G01*
X18985000Y-13025000D02*
X18985000Y-13587000D01*
X16935000Y-13587000D02*
X17385000Y-13587000D01*
X13760000Y-11583000D02*
X13760000Y-11341000D01*
X16935000Y-13413000D02*
X17385000Y-13413000D01*
X16535000Y-13413000D02*
X13760000Y-13413000D01*
X16935000Y-13587000D02*
G75*
G02*
X16935000Y-13413000I0J87000D01*
G01*
X17785000Y-13587000D02*
G75*
G02*
X17785000Y-13413000I0J87000D01*
G01*
X13600000Y-11983000D02*
G75*
G02*
X13760000Y-11983000I80000J0D01*
G01*
X16105000Y-11175000D02*
X13600000Y-11175000D01*
X18280000Y-11341000D02*
X17555000Y-11341000D01*
X17155000Y-11175000D02*
G75*
G02*
X17155000Y-11341000I0J-83000D01*
G01*
X18985000Y-11725000D02*
X18985000Y-11175000D01*
X17785000Y-13413000D02*
X18260000Y-13413000D01*
X13600000Y-11583000D02*
X13600000Y-11175000D01*
X18815000Y-13412994D02*
X18815000Y-13025000D01*
X16505000Y-11341000D02*
G75*
G02*
X16505000Y-11175000I0J83000D01*
G01*
X18985000Y-12625000D02*
X18985000Y-12125000D01*
X16505000Y-11175000D02*
X17155000Y-11175000D01*
X17385000Y-13413000D02*
G75*
G02*
X17385000Y-13587000I0J-87000D01*
G01*
X18280000Y-11175000D02*
X17555000Y-11175000D01*
X13600000Y-13008000D02*
G75*
G02*
X13760000Y-13008000I80000J0D01*
G01*
X13600000Y-11983000D02*
X13600000Y-12608000D01*
X18660000Y-13412994D02*
X18815000Y-13412994D01*
X18815000Y-13025000D02*
G75*
G02*
X18985000Y-13025000I85000J0D01*
G01*
X18280000Y-11175000D02*
G75*
G02*
X18280000Y-11341000I0J-83000D01*
G01*
X13760000Y-12608000D02*
X13760000Y-11983000D01*
X18680000Y-11341000D02*
G75*
G02*
X18680000Y-11175000I0J83000D01*
G01*
X16535000Y-13413000D02*
G75*
G02*
X16535000Y-13587000I0J-87000D01*
G01*
X18660000Y-13587006D02*
G75*
G02*
X18660000Y-13412994I0J87006D01*
G01*
X18680000Y-11341000D02*
X18815000Y-11341000D01*
X13760000Y-12608000D02*
G75*
G02*
X13600000Y-12608000I-80000J0D01*
G01*
X18815000Y-11341000D02*
X18815000Y-11725000D01*
X17155000Y-11341000D02*
X16505000Y-11341000D01*
D11*
D12*
X13580000Y-11683000D02*
X13630000Y-11733000D01*
X13630000Y-11683000D02*
X13580000Y-11733000D01*
X13580000Y-11758000D02*
X13630000Y-11808000D01*
X13630000Y-11758000D02*
X13580000Y-11808000D01*
X13580000Y-11833000D02*
X13630000Y-11883000D01*
X13630000Y-11833000D02*
X13580000Y-11883000D01*
X13580000Y-12708000D02*
X13630000Y-12758000D01*
X13630000Y-12708000D02*
X13580000Y-12758000D01*
X13580000Y-12783000D02*
X13630000Y-12833000D01*
X13630000Y-12783000D02*
X13580000Y-12833000D01*
X13580000Y-12858000D02*
X13630000Y-12908000D01*
X13630000Y-12858000D02*
X13580000Y-12908000D01*
X13730000Y-11683000D02*
X13780000Y-11733000D01*
X13780000Y-11683000D02*
X13730000Y-11733000D01*
X13730000Y-11758000D02*
X13780000Y-11808000D01*
X13780000Y-11758000D02*
X13730000Y-11808000D01*
X13730000Y-11833000D02*
X13780000Y-11883000D01*
X13780000Y-11833000D02*
X13730000Y-11883000D01*
X13730000Y-12708000D02*
X13780000Y-12758000D01*
X13780000Y-12708000D02*
X13730000Y-12758000D01*
X13730000Y-12783000D02*
X13780000Y-12833000D01*
X13780000Y-12783000D02*
X13730000Y-12833000D01*
X13730000Y-12858000D02*
X13780000Y-12908000D01*
X13780000Y-12858000D02*
X13730000Y-12908000D01*
X16205000Y-11158000D02*
X16255000Y-11208000D01*
X16255000Y-11158000D02*
X16205000Y-11208000D01*
X16205000Y-11308000D02*
X16255000Y-11358000D01*
X16255000Y-11308000D02*
X16205000Y-11358000D01*
X16280000Y-11158000D02*
X16330000Y-11208000D01*
X16330000Y-11158000D02*
X16280000Y-11208000D01*
X16280000Y-11308000D02*
X16330000Y-11358000D01*
X16330000Y-11308000D02*
X16280000Y-11358000D01*
X16355000Y-11158000D02*
X16405000Y-11208000D01*
X16405000Y-11158000D02*
X16355000Y-11208000D01*
X16355000Y-11308000D02*
X16405000Y-11358000D01*
X16405000Y-11308000D02*
X16355000Y-11358000D01*
X16635000Y-13400000D02*
X16685000Y-13450000D01*
X16685000Y-13400000D02*
X16635000Y-13450000D01*
X16635000Y-13550000D02*
X16685000Y-13600000D01*
X16685000Y-13550000D02*
X16635000Y-13600000D01*
X16710000Y-13400000D02*
X16760000Y-13450000D01*
X16760000Y-13400000D02*
X16710000Y-13450000D01*
X16710000Y-13550000D02*
X16760000Y-13600000D01*
X16760000Y-13550000D02*
X16710000Y-13600000D01*
X16785000Y-13400000D02*
X16835000Y-13450000D01*
X16835000Y-13400000D02*
X16785000Y-13450000D01*
X16785000Y-13550000D02*
X16835000Y-13600000D01*
X16835000Y-13550000D02*
X16785000Y-13600000D01*
X17255000Y-11158000D02*
X17305000Y-11208000D01*
X17305000Y-11158000D02*
X17255000Y-11208000D01*
X17255000Y-11308000D02*
X17305000Y-11358000D01*
X17305000Y-11308000D02*
X17255000Y-11358000D01*
X17330000Y-11158000D02*
X17380000Y-11208000D01*
X17380000Y-11158000D02*
X17330000Y-11208000D01*
X17330000Y-11308000D02*
X17380000Y-11358000D01*
X17380000Y-11308000D02*
X17330000Y-11358000D01*
X17405000Y-11158000D02*
X17455000Y-11208000D01*
X17455000Y-11158000D02*
X17405000Y-11208000D01*
X17405000Y-11308000D02*
X17455000Y-11358000D01*
X17455000Y-11308000D02*
X17405000Y-11358000D01*
X17485000Y-13400000D02*
X17535000Y-13450000D01*
X17535000Y-13400000D02*
X17485000Y-13450000D01*
X17485000Y-13550000D02*
X17535000Y-13600000D01*
X17535000Y-13550000D02*
X17485000Y-13600000D01*
X17560000Y-13400000D02*
X17610000Y-13450000D01*
X17610000Y-13400000D02*
X17560000Y-13450000D01*
X17560000Y-13550000D02*
X17610000Y-13600000D01*
X17610000Y-13550000D02*
X17560000Y-13600000D01*
X17635000Y-13400000D02*
X17685000Y-13450000D01*
X17685000Y-13400000D02*
X17635000Y-13450000D01*
X17635000Y-13550000D02*
X17685000Y-13600000D01*
X17685000Y-13550000D02*
X17635000Y-13600000D01*
X18360000Y-13400000D02*
X18410000Y-13450000D01*
X18410000Y-13400000D02*
X18360000Y-13450000D01*
X18360000Y-13550000D02*
X18410000Y-13600000D01*
X18410000Y-13550000D02*
X18360000Y-13600000D01*
X18380000Y-11158000D02*
X18430000Y-11208000D01*
X18430000Y-11158000D02*
X18380000Y-11208000D01*
X18380000Y-11308000D02*
X18430000Y-11358000D01*
X18430000Y-11308000D02*
X18380000Y-11358000D01*
X18435000Y-13400000D02*
X18485000Y-13450000D01*
X18485000Y-13400000D02*
X18435000Y-13450000D01*
X18435000Y-13550000D02*
X18485000Y-13600000D01*
X18485000Y-13550000D02*
X18435000Y-13600000D01*
X18455000Y-11158000D02*
X18505000Y-11208000D01*
X18505000Y-11158000D02*
X18455000Y-11208000D01*
X18455000Y-11308000D02*
X18505000Y-11358000D01*
X18505000Y-11308000D02*
X18455000Y-11358000D01*
X18510000Y-13400000D02*
X18560000Y-13450000D01*
X18560000Y-13400000D02*
X18510000Y-13450000D01*
X18510000Y-13550000D02*
X18560000Y-13600000D01*
X18560000Y-13550000D02*
X18510000Y-13600000D01*
X18530000Y-11158000D02*
X18580000Y-11208000D01*
X18580000Y-11158000D02*
X18530000Y-11208000D01*
X18530000Y-11308000D02*
X18580000Y-11358000D01*
X18580000Y-11308000D02*
X18530000Y-11358000D01*
X18800000Y-11825000D02*
X18850000Y-11875000D01*
X18850000Y-11825000D02*
X18800000Y-11875000D01*
X18800000Y-11900000D02*
X18850000Y-11950000D01*
X18850000Y-11900000D02*
X18800000Y-11950000D01*
X18800000Y-11975000D02*
X18850000Y-12025000D01*
X18850000Y-11975000D02*
X18800000Y-12025000D01*
X18800000Y-12725000D02*
X18850000Y-12775000D01*
X18850000Y-12725000D02*
X18800000Y-12775000D01*
X18800000Y-12800000D02*
X18850000Y-12850000D01*
X18850000Y-12800000D02*
X18800000Y-12850000D01*
X18800000Y-12875000D02*
X18850000Y-12925000D01*
X18850000Y-12875000D02*
X18800000Y-12925000D01*
X18950000Y-11825000D02*
X19000000Y-11875000D01*
X19000000Y-11825000D02*
X18950000Y-11875000D01*
X18950000Y-11900000D02*
X19000000Y-11950000D01*
X19000000Y-11900000D02*
X18950000Y-11950000D01*
X18950000Y-11975000D02*
X19000000Y-12025000D01*
X19000000Y-11975000D02*
X18950000Y-12025000D01*
X18950000Y-12725000D02*
X19000000Y-12775000D01*
X19000000Y-12725000D02*
X18950000Y-12775000D01*
X18950000Y-12800000D02*
X19000000Y-12850000D01*
X19000000Y-12800000D02*
X18950000Y-12850000D01*
X18950000Y-12875000D02*
X19000000Y-12925000D01*
X19000000Y-12875000D02*
X18950000Y-12925000D01*
D13*
X11327894Y-8880000D02*
G75*
G02*
X11152894Y-8880000I-87500J0D01*
G01*
X11152894Y-8880000D02*
G75*
G02*
X11327894Y-8880000I87500J0D01*
G01*
X11327894Y-11780000D02*
G75*
G02*
X11152894Y-11780000I-87500J0D01*
G01*
X11152894Y-11780000D02*
G75*
G02*
X11327894Y-11780000I87500J0D01*
G01*
X11345926Y-5980056D02*
G75*
G02*
X11170926Y-5980056I-87500J0D01*
G01*
X11170926Y-5980056D02*
G75*
G02*
X11345926Y-5980056I87500J0D01*
G01*
X12343894Y-8880000D02*
G75*
G02*
X12168894Y-8880000I-87500J0D01*
G01*
X12168894Y-8880000D02*
G75*
G02*
X12343894Y-8880000I87500J0D01*
G01*
X12343894Y-11780000D02*
G75*
G02*
X12168894Y-11780000I-87500J0D01*
G01*
X12168894Y-11780000D02*
G75*
G02*
X12343894Y-11780000I87500J0D01*
G01*
X12361926Y-5980056D02*
G75*
G02*
X12186926Y-5980056I-87500J0D01*
G01*
X12186926Y-5980056D02*
G75*
G02*
X12361926Y-5980056I87500J0D01*
G01*
X13534500Y-4888000D02*
G75*
G02*
X13359500Y-4888000I-87500J0D01*
G01*
X13359500Y-4888000D02*
G75*
G02*
X13534500Y-4888000I87500J0D01*
G01*
X13827894Y-7480000D02*
G75*
G02*
X13652894Y-7480000I-87500J0D01*
G01*
X13652894Y-7480000D02*
G75*
G02*
X13827894Y-7480000I87500J0D01*
G01*
X13827894Y-10380000D02*
G75*
G02*
X13652894Y-10380000I-87500J0D01*
G01*
X13652894Y-10380000D02*
G75*
G02*
X13827894Y-10380000I87500J0D01*
G01*
X14550500Y-4888000D02*
G75*
G02*
X14375500Y-4888000I-87500J0D01*
G01*
X14375500Y-4888000D02*
G75*
G02*
X14550500Y-4888000I87500J0D01*
G01*
X14843894Y-7480000D02*
G75*
G02*
X14668894Y-7480000I-87500J0D01*
G01*
X14668894Y-7480000D02*
G75*
G02*
X14843894Y-7480000I87500J0D01*
G01*
X14843894Y-10380000D02*
G75*
G02*
X14668894Y-10380000I-87500J0D01*
G01*
X14668894Y-10380000D02*
G75*
G02*
X14843894Y-10380000I87500J0D01*
G01*
X15084500Y-4888000D02*
G75*
G02*
X14909500Y-4888000I-87500J0D01*
G01*
X14909500Y-4888000D02*
G75*
G02*
X15084500Y-4888000I87500J0D01*
G01*
X16100500Y-4888000D02*
G75*
G02*
X15925500Y-4888000I-87500J0D01*
G01*
X15925500Y-4888000D02*
G75*
G02*
X16100500Y-4888000I87500J0D01*
G01*
X16634500Y-4888000D02*
G75*
G02*
X16459500Y-4888000I-87500J0D01*
G01*
X16459500Y-4888000D02*
G75*
G02*
X16634500Y-4888000I87500J0D01*
G01*
X16727894Y-7480000D02*
G75*
G02*
X16552894Y-7480000I-87500J0D01*
G01*
X16552894Y-7480000D02*
G75*
G02*
X16727894Y-7480000I87500J0D01*
G01*
X16727894Y-10380000D02*
G75*
G02*
X16552894Y-10380000I-87500J0D01*
G01*
X16552894Y-10380000D02*
G75*
G02*
X16727894Y-10380000I87500J0D01*
G01*
X17282912Y-11827409D02*
G75*
G02*
X17107912Y-11827409I-87500J0D01*
G01*
X17107912Y-11827409D02*
G75*
G02*
X17282912Y-11827409I87500J0D01*
G01*
X17282912Y-12843409D02*
G75*
G02*
X17107912Y-12843409I-87500J0D01*
G01*
X17107912Y-12843409D02*
G75*
G02*
X17282912Y-12843409I87500J0D01*
G01*
X17650500Y-4888000D02*
G75*
G02*
X17475500Y-4888000I-87500J0D01*
G01*
X17475500Y-4888000D02*
G75*
G02*
X17650500Y-4888000I87500J0D01*
G01*
X17743894Y-7480000D02*
G75*
G02*
X17568894Y-7480000I-87500J0D01*
G01*
X17568894Y-7480000D02*
G75*
G02*
X17743894Y-7480000I87500J0D01*
G01*
X17743894Y-10380000D02*
G75*
G02*
X17568894Y-10380000I-87500J0D01*
G01*
X17568894Y-10380000D02*
G75*
G02*
X17743894Y-10380000I87500J0D01*
G01*
X18184500Y-4888000D02*
G75*
G02*
X18009500Y-4888000I-87500J0D01*
G01*
X18009500Y-4888000D02*
G75*
G02*
X18184500Y-4888000I87500J0D01*
G01*
X19200500Y-4888000D02*
G75*
G02*
X19025500Y-4888000I-87500J0D01*
G01*
X19025500Y-4888000D02*
G75*
G02*
X19200500Y-4888000I87500J0D01*
G01*
D14*
X11367394Y-8473500D02*
X11367394Y-8778500D01*
X11214894Y-8626000D02*
X11519894Y-8626000D01*
X11367394Y-11373500D02*
X11367394Y-11678500D01*
X11214894Y-11526000D02*
X11519894Y-11526000D01*
X11385426Y-5573556D02*
X11385426Y-5878556D01*
X11232926Y-5726056D02*
X11537926Y-5726056D01*
X12002394Y-8219500D02*
X12002394Y-8524500D01*
X11849894Y-8372000D02*
X12154894Y-8372000D01*
X12002394Y-11119500D02*
X12002394Y-11424500D01*
X11849894Y-11272000D02*
X12154894Y-11272000D01*
X12020426Y-5319556D02*
X12020426Y-5624556D01*
X11867926Y-5472056D02*
X12172926Y-5472056D01*
X13867394Y-7073500D02*
X13867394Y-7378500D01*
X13714894Y-7226000D02*
X14019894Y-7226000D01*
X13867394Y-9973500D02*
X13867394Y-10278500D01*
X13714894Y-10126000D02*
X14019894Y-10126000D01*
X14502394Y-6819500D02*
X14502394Y-7124500D01*
X14349894Y-6972000D02*
X14654894Y-6972000D01*
X14502394Y-9719500D02*
X14502394Y-10024500D01*
X14349894Y-9872000D02*
X14654894Y-9872000D01*
X16687412Y-11928909D02*
X16687412Y-12233909D01*
X16534912Y-12081409D02*
X16839912Y-12081409D01*
X16767394Y-7073500D02*
X16767394Y-7378500D01*
X16614894Y-7226000D02*
X16919894Y-7226000D01*
X16767394Y-9973500D02*
X16767394Y-10278500D01*
X16614894Y-10126000D02*
X16919894Y-10126000D01*
X16941412Y-12563909D02*
X16941412Y-12868909D01*
X16788912Y-12716409D02*
X17093912Y-12716409D01*
X17402394Y-6819500D02*
X17402394Y-7124500D01*
X17249894Y-6972000D02*
X17554894Y-6972000D01*
X17402394Y-9719500D02*
X17402394Y-10024500D01*
X17249894Y-9872000D02*
X17554894Y-9872000D01*
D15*
X11018138Y-7543138D02*
X11018138Y-7316862D01*
X10791862Y-7316862D01*
X10791862Y-7543138D01*
X11018138Y-7543138D01*
X11918138Y-13543138D02*
X11918138Y-13316862D01*
X11691862Y-13316862D01*
X11691862Y-13543138D01*
X11918138Y-13543138D01*
X14453138Y-12490138D02*
X14453138Y-12263862D01*
X14226862Y-12263862D01*
X14226862Y-12490138D01*
X14453138Y-12490138D01*
X15518138Y-8793138D02*
X15518138Y-8566862D01*
X15291862Y-8566862D01*
X15291862Y-8793138D01*
X15518138Y-8793138D01*
X18473138Y-12440138D02*
X18473138Y-12213862D01*
X18246862Y-12213862D01*
X18246862Y-12440138D01*
X18473138Y-12440138D01*
X19068138Y-10493138D02*
X19068138Y-10266862D01*
X18841862Y-10266862D01*
X18841862Y-10493138D01*
X19068138Y-10493138D01*
X19168138Y-6393138D02*
X19168138Y-6166862D01*
X18941862Y-6166862D01*
X18941862Y-6393138D01*
X19168138Y-6393138D01*
D16*
X11748394Y-9080000D02*
X11948394Y-8880000D01*
X11748394Y-8680000D01*
X11548394Y-8880000D01*
X11748394Y-9080000D01*
X11748394Y-11980000D02*
X11948394Y-11780000D01*
X11748394Y-11580000D01*
X11548394Y-11780000D01*
X11748394Y-11980000D01*
X11766426Y-6180056D02*
X11966426Y-5980056D01*
X11766426Y-5780056D01*
X11566426Y-5980056D01*
X11766426Y-6180056D01*
X13955000Y-5088000D02*
X14155000Y-4888000D01*
X13955000Y-4688000D01*
X13755000Y-4888000D01*
X13955000Y-5088000D01*
X14248394Y-7680000D02*
X14448394Y-7480000D01*
X14248394Y-7280000D01*
X14048394Y-7480000D01*
X14248394Y-7680000D01*
X14248394Y-10580000D02*
X14448394Y-10380000D01*
X14248394Y-10180000D01*
X14048394Y-10380000D01*
X14248394Y-10580000D01*
X15505000Y-5088000D02*
X15705000Y-4888000D01*
X15505000Y-4688000D01*
X15305000Y-4888000D01*
X15505000Y-5088000D01*
X17055000Y-5088000D02*
X17255000Y-4888000D01*
X17055000Y-4688000D01*
X16855000Y-4888000D01*
X17055000Y-5088000D01*
X17148394Y-7680000D02*
X17348394Y-7480000D01*
X17148394Y-7280000D01*
X16948394Y-7480000D01*
X17148394Y-7680000D01*
X17148394Y-10580000D02*
X17348394Y-10380000D01*
X17148394Y-10180000D01*
X16948394Y-10380000D01*
X17148394Y-10580000D01*
X17195412Y-12535409D02*
X17395412Y-12335409D01*
X17195412Y-12135409D01*
X16995412Y-12335409D01*
X17195412Y-12535409D01*
X18605000Y-5088000D02*
X18805000Y-4888000D01*
X18605000Y-4688000D01*
X18405000Y-4888000D01*
X18605000Y-5088000D01*
D11*
X10513277Y-14243984D02*
X10513277Y-14043984D01*
X10513277Y-14043984D02*
X10560896Y-14043984D01*
X10560896Y-14043984D02*
X10589467Y-14053508D01*
X10589467Y-14053508D02*
X10608515Y-14072555D01*
X10608515Y-14072555D02*
X10618039Y-14091603D01*
X10618039Y-14091603D02*
X10627563Y-14129698D01*
X10627563Y-14129698D02*
X10627563Y-14158269D01*
X10627563Y-14158269D02*
X10618039Y-14196365D01*
X10618039Y-14196365D02*
X10608515Y-14215412D01*
X10608515Y-14215412D02*
X10589467Y-14234460D01*
X10589467Y-14234460D02*
X10560896Y-14243984D01*
X10560896Y-14243984D02*
X10513277Y-14243984D01*
X10713277Y-14243984D02*
X10713277Y-14110650D01*
X10713277Y-14148746D02*
X10722801Y-14129698D01*
X10722801Y-14129698D02*
X10732324Y-14120174D01*
X10732324Y-14120174D02*
X10751372Y-14110650D01*
X10751372Y-14110650D02*
X10770420Y-14110650D01*
X10837086Y-14243984D02*
X10837086Y-14110650D01*
X10837086Y-14043984D02*
X10827563Y-14053508D01*
X10827563Y-14053508D02*
X10837086Y-14063031D01*
X10837086Y-14063031D02*
X10846610Y-14053508D01*
X10846610Y-14053508D02*
X10837086Y-14043984D01*
X10837086Y-14043984D02*
X10837086Y-14063031D01*
X10960896Y-14243984D02*
X10941848Y-14234460D01*
X10941848Y-14234460D02*
X10932324Y-14215412D01*
X10932324Y-14215412D02*
X10932324Y-14043984D01*
X11065658Y-14243984D02*
X11046610Y-14234460D01*
X11046610Y-14234460D02*
X11037086Y-14215412D01*
X11037086Y-14215412D02*
X11037086Y-14043984D01*
X11294229Y-14243984D02*
X11294229Y-14043984D01*
X11294229Y-14043984D02*
X11360896Y-14186841D01*
X11360896Y-14186841D02*
X11427562Y-14043984D01*
X11427562Y-14043984D02*
X11427562Y-14243984D01*
X11608515Y-14243984D02*
X11608515Y-14139222D01*
X11608515Y-14139222D02*
X11598991Y-14120174D01*
X11598991Y-14120174D02*
X11579943Y-14110650D01*
X11579943Y-14110650D02*
X11541848Y-14110650D01*
X11541848Y-14110650D02*
X11522801Y-14120174D01*
X11608515Y-14234460D02*
X11589467Y-14243984D01*
X11589467Y-14243984D02*
X11541848Y-14243984D01*
X11541848Y-14243984D02*
X11522801Y-14234460D01*
X11522801Y-14234460D02*
X11513277Y-14215412D01*
X11513277Y-14215412D02*
X11513277Y-14196365D01*
X11513277Y-14196365D02*
X11522801Y-14177317D01*
X11522801Y-14177317D02*
X11541848Y-14167793D01*
X11541848Y-14167793D02*
X11589467Y-14167793D01*
X11589467Y-14167793D02*
X11608515Y-14158269D01*
X11703753Y-14110650D02*
X11703753Y-14310650D01*
X11703753Y-14120174D02*
X11722801Y-14110650D01*
X11722801Y-14110650D02*
X11760896Y-14110650D01*
X11760896Y-14110650D02*
X11779943Y-14120174D01*
X11779943Y-14120174D02*
X11789467Y-14129698D01*
X11789467Y-14129698D02*
X11798991Y-14148746D01*
X11798991Y-14148746D02*
X11798991Y-14205888D01*
X11798991Y-14205888D02*
X11789467Y-14224936D01*
X11789467Y-14224936D02*
X11779943Y-14234460D01*
X11779943Y-14234460D02*
X11760896Y-14243984D01*
X11760896Y-14243984D02*
X11722801Y-14243984D01*
X11722801Y-14243984D02*
X11703753Y-14234460D01*
X11884705Y-14224936D02*
X11894229Y-14234460D01*
X11894229Y-14234460D02*
X11884705Y-14243984D01*
X11884705Y-14243984D02*
X11875182Y-14234460D01*
X11875182Y-14234460D02*
X11884705Y-14224936D01*
X11884705Y-14224936D02*
X11884705Y-14243984D01*
X11884705Y-14120174D02*
X11894229Y-14129698D01*
X11894229Y-14129698D02*
X11884705Y-14139222D01*
X11884705Y-14139222D02*
X11875182Y-14129698D01*
X11875182Y-14129698D02*
X11884705Y-14120174D01*
X11884705Y-14120174D02*
X11884705Y-14139222D01*
D12*
X10202500Y-14547500D02*
X10252500Y-14597500D01*
X10252500Y-14547500D02*
X10202500Y-14597500D01*
D11*
X10551372Y-14463984D02*
X10570420Y-14463984D01*
X10570420Y-14463984D02*
X10589467Y-14473508D01*
X10589467Y-14473508D02*
X10598991Y-14483031D01*
X10598991Y-14483031D02*
X10608515Y-14502079D01*
X10608515Y-14502079D02*
X10618039Y-14540174D01*
X10618039Y-14540174D02*
X10618039Y-14587793D01*
X10618039Y-14587793D02*
X10608515Y-14625888D01*
X10608515Y-14625888D02*
X10598991Y-14644936D01*
X10598991Y-14644936D02*
X10589467Y-14654460D01*
X10589467Y-14654460D02*
X10570420Y-14663984D01*
X10570420Y-14663984D02*
X10551372Y-14663984D01*
X10551372Y-14663984D02*
X10532324Y-14654460D01*
X10532324Y-14654460D02*
X10522801Y-14644936D01*
X10522801Y-14644936D02*
X10513277Y-14625888D01*
X10513277Y-14625888D02*
X10503753Y-14587793D01*
X10503753Y-14587793D02*
X10503753Y-14540174D01*
X10503753Y-14540174D02*
X10513277Y-14502079D01*
X10513277Y-14502079D02*
X10522801Y-14483031D01*
X10522801Y-14483031D02*
X10532324Y-14473508D01*
X10532324Y-14473508D02*
X10551372Y-14463984D01*
X10703753Y-14644936D02*
X10713277Y-14654460D01*
X10713277Y-14654460D02*
X10703753Y-14663984D01*
X10703753Y-14663984D02*
X10694229Y-14654460D01*
X10694229Y-14654460D02*
X10703753Y-14644936D01*
X10703753Y-14644936D02*
X10703753Y-14663984D01*
X10894229Y-14463984D02*
X10798991Y-14463984D01*
X10798991Y-14463984D02*
X10789467Y-14559222D01*
X10789467Y-14559222D02*
X10798991Y-14549698D01*
X10798991Y-14549698D02*
X10818039Y-14540174D01*
X10818039Y-14540174D02*
X10865658Y-14540174D01*
X10865658Y-14540174D02*
X10884705Y-14549698D01*
X10884705Y-14549698D02*
X10894229Y-14559222D01*
X10894229Y-14559222D02*
X10903753Y-14578269D01*
X10903753Y-14578269D02*
X10903753Y-14625888D01*
X10903753Y-14625888D02*
X10894229Y-14644936D01*
X10894229Y-14644936D02*
X10884705Y-14654460D01*
X10884705Y-14654460D02*
X10865658Y-14663984D01*
X10865658Y-14663984D02*
X10818039Y-14663984D01*
X10818039Y-14663984D02*
X10798991Y-14654460D01*
X10798991Y-14654460D02*
X10789467Y-14644936D01*
X11027563Y-14463984D02*
X11046610Y-14463984D01*
X11046610Y-14463984D02*
X11065658Y-14473508D01*
X11065658Y-14473508D02*
X11075182Y-14483031D01*
X11075182Y-14483031D02*
X11084705Y-14502079D01*
X11084705Y-14502079D02*
X11094229Y-14540174D01*
X11094229Y-14540174D02*
X11094229Y-14587793D01*
X11094229Y-14587793D02*
X11084705Y-14625888D01*
X11084705Y-14625888D02*
X11075182Y-14644936D01*
X11075182Y-14644936D02*
X11065658Y-14654460D01*
X11065658Y-14654460D02*
X11046610Y-14663984D01*
X11046610Y-14663984D02*
X11027563Y-14663984D01*
X11027563Y-14663984D02*
X11008515Y-14654460D01*
X11008515Y-14654460D02*
X10998991Y-14644936D01*
X10998991Y-14644936D02*
X10989467Y-14625888D01*
X10989467Y-14625888D02*
X10979944Y-14587793D01*
X10979944Y-14587793D02*
X10979944Y-14540174D01*
X10979944Y-14540174D02*
X10989467Y-14502079D01*
X10989467Y-14502079D02*
X10998991Y-14483031D01*
X10998991Y-14483031D02*
X11008515Y-14473508D01*
X11008515Y-14473508D02*
X11027563Y-14463984D01*
X11218039Y-14463984D02*
X11237086Y-14463984D01*
X11237086Y-14463984D02*
X11256134Y-14473508D01*
X11256134Y-14473508D02*
X11265658Y-14483031D01*
X11265658Y-14483031D02*
X11275182Y-14502079D01*
X11275182Y-14502079D02*
X11284705Y-14540174D01*
X11284705Y-14540174D02*
X11284705Y-14587793D01*
X11284705Y-14587793D02*
X11275182Y-14625888D01*
X11275182Y-14625888D02*
X11265658Y-14644936D01*
X11265658Y-14644936D02*
X11256134Y-14654460D01*
X11256134Y-14654460D02*
X11237086Y-14663984D01*
X11237086Y-14663984D02*
X11218039Y-14663984D01*
X11218039Y-14663984D02*
X11198991Y-14654460D01*
X11198991Y-14654460D02*
X11189467Y-14644936D01*
X11189467Y-14644936D02*
X11179944Y-14625888D01*
X11179944Y-14625888D02*
X11170420Y-14587793D01*
X11170420Y-14587793D02*
X11170420Y-14540174D01*
X11170420Y-14540174D02*
X11179944Y-14502079D01*
X11179944Y-14502079D02*
X11189467Y-14483031D01*
X11189467Y-14483031D02*
X11198991Y-14473508D01*
X11198991Y-14473508D02*
X11218039Y-14463984D01*
X11370420Y-14663984D02*
X11370420Y-14530650D01*
X11370420Y-14549698D02*
X11379943Y-14540174D01*
X11379943Y-14540174D02*
X11398991Y-14530650D01*
X11398991Y-14530650D02*
X11427563Y-14530650D01*
X11427563Y-14530650D02*
X11446610Y-14540174D01*
X11446610Y-14540174D02*
X11456134Y-14559222D01*
X11456134Y-14559222D02*
X11456134Y-14663984D01*
X11456134Y-14559222D02*
X11465658Y-14540174D01*
X11465658Y-14540174D02*
X11484705Y-14530650D01*
X11484705Y-14530650D02*
X11513277Y-14530650D01*
X11513277Y-14530650D02*
X11532324Y-14540174D01*
X11532324Y-14540174D02*
X11541848Y-14559222D01*
X11541848Y-14559222D02*
X11541848Y-14663984D01*
X11637086Y-14663984D02*
X11637086Y-14530650D01*
X11637086Y-14549698D02*
X11646610Y-14540174D01*
X11646610Y-14540174D02*
X11665658Y-14530650D01*
X11665658Y-14530650D02*
X11694229Y-14530650D01*
X11694229Y-14530650D02*
X11713277Y-14540174D01*
X11713277Y-14540174D02*
X11722801Y-14559222D01*
X11722801Y-14559222D02*
X11722801Y-14663984D01*
X11722801Y-14559222D02*
X11732324Y-14540174D01*
X11732324Y-14540174D02*
X11751372Y-14530650D01*
X11751372Y-14530650D02*
X11779943Y-14530650D01*
X11779943Y-14530650D02*
X11798991Y-14540174D01*
X11798991Y-14540174D02*
X11808515Y-14559222D01*
X11808515Y-14559222D02*
X11808515Y-14663984D01*
X12198991Y-14454460D02*
X12027563Y-14711603D01*
X12456134Y-14463984D02*
X12475182Y-14463984D01*
X12475182Y-14463984D02*
X12494229Y-14473508D01*
X12494229Y-14473508D02*
X12503753Y-14483031D01*
X12503753Y-14483031D02*
X12513277Y-14502079D01*
X12513277Y-14502079D02*
X12522801Y-14540174D01*
X12522801Y-14540174D02*
X12522801Y-14587793D01*
X12522801Y-14587793D02*
X12513277Y-14625888D01*
X12513277Y-14625888D02*
X12503753Y-14644936D01*
X12503753Y-14644936D02*
X12494229Y-14654460D01*
X12494229Y-14654460D02*
X12475182Y-14663984D01*
X12475182Y-14663984D02*
X12456134Y-14663984D01*
X12456134Y-14663984D02*
X12437086Y-14654460D01*
X12437086Y-14654460D02*
X12427563Y-14644936D01*
X12427563Y-14644936D02*
X12418039Y-14625888D01*
X12418039Y-14625888D02*
X12408515Y-14587793D01*
X12408515Y-14587793D02*
X12408515Y-14540174D01*
X12408515Y-14540174D02*
X12418039Y-14502079D01*
X12418039Y-14502079D02*
X12427563Y-14483031D01*
X12427563Y-14483031D02*
X12437086Y-14473508D01*
X12437086Y-14473508D02*
X12456134Y-14463984D01*
X12608515Y-14644936D02*
X12618039Y-14654460D01*
X12618039Y-14654460D02*
X12608515Y-14663984D01*
X12608515Y-14663984D02*
X12598991Y-14654460D01*
X12598991Y-14654460D02*
X12608515Y-14644936D01*
X12608515Y-14644936D02*
X12608515Y-14663984D01*
X12741848Y-14463984D02*
X12760896Y-14463984D01*
X12760896Y-14463984D02*
X12779944Y-14473508D01*
X12779944Y-14473508D02*
X12789467Y-14483031D01*
X12789467Y-14483031D02*
X12798991Y-14502079D01*
X12798991Y-14502079D02*
X12808515Y-14540174D01*
X12808515Y-14540174D02*
X12808515Y-14587793D01*
X12808515Y-14587793D02*
X12798991Y-14625888D01*
X12798991Y-14625888D02*
X12789467Y-14644936D01*
X12789467Y-14644936D02*
X12779944Y-14654460D01*
X12779944Y-14654460D02*
X12760896Y-14663984D01*
X12760896Y-14663984D02*
X12741848Y-14663984D01*
X12741848Y-14663984D02*
X12722801Y-14654460D01*
X12722801Y-14654460D02*
X12713277Y-14644936D01*
X12713277Y-14644936D02*
X12703753Y-14625888D01*
X12703753Y-14625888D02*
X12694229Y-14587793D01*
X12694229Y-14587793D02*
X12694229Y-14540174D01*
X12694229Y-14540174D02*
X12703753Y-14502079D01*
X12703753Y-14502079D02*
X12713277Y-14483031D01*
X12713277Y-14483031D02*
X12722801Y-14473508D01*
X12722801Y-14473508D02*
X12741848Y-14463984D01*
X12998991Y-14663984D02*
X12884706Y-14663984D01*
X12941848Y-14663984D02*
X12941848Y-14463984D01*
X12941848Y-14463984D02*
X12922801Y-14492555D01*
X12922801Y-14492555D02*
X12903753Y-14511603D01*
X12903753Y-14511603D02*
X12884706Y-14521127D01*
X13094229Y-14663984D02*
X13132325Y-14663984D01*
X13132325Y-14663984D02*
X13151372Y-14654460D01*
X13151372Y-14654460D02*
X13160896Y-14644936D01*
X13160896Y-14644936D02*
X13179944Y-14616365D01*
X13179944Y-14616365D02*
X13189467Y-14578269D01*
X13189467Y-14578269D02*
X13189467Y-14502079D01*
X13189467Y-14502079D02*
X13179944Y-14483031D01*
X13179944Y-14483031D02*
X13170420Y-14473508D01*
X13170420Y-14473508D02*
X13151372Y-14463984D01*
X13151372Y-14463984D02*
X13113277Y-14463984D01*
X13113277Y-14463984D02*
X13094229Y-14473508D01*
X13094229Y-14473508D02*
X13084706Y-14483031D01*
X13084706Y-14483031D02*
X13075182Y-14502079D01*
X13075182Y-14502079D02*
X13075182Y-14549698D01*
X13075182Y-14549698D02*
X13084706Y-14568746D01*
X13084706Y-14568746D02*
X13094229Y-14578269D01*
X13094229Y-14578269D02*
X13113277Y-14587793D01*
X13113277Y-14587793D02*
X13151372Y-14587793D01*
X13151372Y-14587793D02*
X13170420Y-14578269D01*
X13170420Y-14578269D02*
X13179944Y-14568746D01*
X13179944Y-14568746D02*
X13189467Y-14549698D01*
X13256134Y-14463984D02*
X13389467Y-14463984D01*
X13389467Y-14463984D02*
X13303753Y-14663984D01*
X13456134Y-14463984D02*
X13456134Y-14502079D01*
X13532325Y-14463984D02*
X13532325Y-14502079D01*
X13827563Y-14740174D02*
X13818039Y-14730650D01*
X13818039Y-14730650D02*
X13798991Y-14702079D01*
X13798991Y-14702079D02*
X13789468Y-14683031D01*
X13789468Y-14683031D02*
X13779944Y-14654460D01*
X13779944Y-14654460D02*
X13770420Y-14606841D01*
X13770420Y-14606841D02*
X13770420Y-14568746D01*
X13770420Y-14568746D02*
X13779944Y-14521127D01*
X13779944Y-14521127D02*
X13789468Y-14492555D01*
X13789468Y-14492555D02*
X13798991Y-14473508D01*
X13798991Y-14473508D02*
X13818039Y-14444936D01*
X13818039Y-14444936D02*
X13827563Y-14435412D01*
X13989468Y-14463984D02*
X13951372Y-14463984D01*
X13951372Y-14463984D02*
X13932325Y-14473508D01*
X13932325Y-14473508D02*
X13922801Y-14483031D01*
X13922801Y-14483031D02*
X13903753Y-14511603D01*
X13903753Y-14511603D02*
X13894229Y-14549698D01*
X13894229Y-14549698D02*
X13894229Y-14625888D01*
X13894229Y-14625888D02*
X13903753Y-14644936D01*
X13903753Y-14644936D02*
X13913277Y-14654460D01*
X13913277Y-14654460D02*
X13932325Y-14663984D01*
X13932325Y-14663984D02*
X13970420Y-14663984D01*
X13970420Y-14663984D02*
X13989468Y-14654460D01*
X13989468Y-14654460D02*
X13998991Y-14644936D01*
X13998991Y-14644936D02*
X14008515Y-14625888D01*
X14008515Y-14625888D02*
X14008515Y-14578269D01*
X14008515Y-14578269D02*
X13998991Y-14559222D01*
X13998991Y-14559222D02*
X13989468Y-14549698D01*
X13989468Y-14549698D02*
X13970420Y-14540174D01*
X13970420Y-14540174D02*
X13932325Y-14540174D01*
X13932325Y-14540174D02*
X13913277Y-14549698D01*
X13913277Y-14549698D02*
X13903753Y-14559222D01*
X13903753Y-14559222D02*
X13894229Y-14578269D01*
X14132325Y-14463984D02*
X14151372Y-14463984D01*
X14151372Y-14463984D02*
X14170420Y-14473508D01*
X14170420Y-14473508D02*
X14179944Y-14483031D01*
X14179944Y-14483031D02*
X14189468Y-14502079D01*
X14189468Y-14502079D02*
X14198991Y-14540174D01*
X14198991Y-14540174D02*
X14198991Y-14587793D01*
X14198991Y-14587793D02*
X14189468Y-14625888D01*
X14189468Y-14625888D02*
X14179944Y-14644936D01*
X14179944Y-14644936D02*
X14170420Y-14654460D01*
X14170420Y-14654460D02*
X14151372Y-14663984D01*
X14151372Y-14663984D02*
X14132325Y-14663984D01*
X14132325Y-14663984D02*
X14113277Y-14654460D01*
X14113277Y-14654460D02*
X14103753Y-14644936D01*
X14103753Y-14644936D02*
X14094229Y-14625888D01*
X14094229Y-14625888D02*
X14084706Y-14587793D01*
X14084706Y-14587793D02*
X14084706Y-14540174D01*
X14084706Y-14540174D02*
X14094229Y-14502079D01*
X14094229Y-14502079D02*
X14103753Y-14483031D01*
X14103753Y-14483031D02*
X14113277Y-14473508D01*
X14113277Y-14473508D02*
X14132325Y-14463984D01*
X14437087Y-14663984D02*
X14437087Y-14463984D01*
X14522801Y-14663984D02*
X14522801Y-14559222D01*
X14522801Y-14559222D02*
X14513277Y-14540174D01*
X14513277Y-14540174D02*
X14494230Y-14530650D01*
X14494230Y-14530650D02*
X14465658Y-14530650D01*
X14465658Y-14530650D02*
X14446610Y-14540174D01*
X14446610Y-14540174D02*
X14437087Y-14549698D01*
X14646610Y-14663984D02*
X14627563Y-14654460D01*
X14627563Y-14654460D02*
X14618039Y-14644936D01*
X14618039Y-14644936D02*
X14608515Y-14625888D01*
X14608515Y-14625888D02*
X14608515Y-14568746D01*
X14608515Y-14568746D02*
X14618039Y-14549698D01*
X14618039Y-14549698D02*
X14627563Y-14540174D01*
X14627563Y-14540174D02*
X14646610Y-14530650D01*
X14646610Y-14530650D02*
X14675182Y-14530650D01*
X14675182Y-14530650D02*
X14694230Y-14540174D01*
X14694230Y-14540174D02*
X14703753Y-14549698D01*
X14703753Y-14549698D02*
X14713277Y-14568746D01*
X14713277Y-14568746D02*
X14713277Y-14625888D01*
X14713277Y-14625888D02*
X14703753Y-14644936D01*
X14703753Y-14644936D02*
X14694230Y-14654460D01*
X14694230Y-14654460D02*
X14675182Y-14663984D01*
X14675182Y-14663984D02*
X14646610Y-14663984D01*
X14827563Y-14663984D02*
X14808515Y-14654460D01*
X14808515Y-14654460D02*
X14798991Y-14635412D01*
X14798991Y-14635412D02*
X14798991Y-14463984D01*
X14979944Y-14654460D02*
X14960896Y-14663984D01*
X14960896Y-14663984D02*
X14922801Y-14663984D01*
X14922801Y-14663984D02*
X14903753Y-14654460D01*
X14903753Y-14654460D02*
X14894230Y-14635412D01*
X14894230Y-14635412D02*
X14894230Y-14559222D01*
X14894230Y-14559222D02*
X14903753Y-14540174D01*
X14903753Y-14540174D02*
X14922801Y-14530650D01*
X14922801Y-14530650D02*
X14960896Y-14530650D01*
X14960896Y-14530650D02*
X14979944Y-14540174D01*
X14979944Y-14540174D02*
X14989468Y-14559222D01*
X14989468Y-14559222D02*
X14989468Y-14578269D01*
X14989468Y-14578269D02*
X14894230Y-14597317D01*
X15065658Y-14654460D02*
X15084706Y-14663984D01*
X15084706Y-14663984D02*
X15122801Y-14663984D01*
X15122801Y-14663984D02*
X15141849Y-14654460D01*
X15141849Y-14654460D02*
X15151372Y-14635412D01*
X15151372Y-14635412D02*
X15151372Y-14625888D01*
X15151372Y-14625888D02*
X15141849Y-14606841D01*
X15141849Y-14606841D02*
X15122801Y-14597317D01*
X15122801Y-14597317D02*
X15094230Y-14597317D01*
X15094230Y-14597317D02*
X15075182Y-14587793D01*
X15075182Y-14587793D02*
X15065658Y-14568746D01*
X15065658Y-14568746D02*
X15065658Y-14559222D01*
X15065658Y-14559222D02*
X15075182Y-14540174D01*
X15075182Y-14540174D02*
X15094230Y-14530650D01*
X15094230Y-14530650D02*
X15122801Y-14530650D01*
X15122801Y-14530650D02*
X15141849Y-14540174D01*
X15218039Y-14740174D02*
X15227563Y-14730650D01*
X15227563Y-14730650D02*
X15246611Y-14702079D01*
X15246611Y-14702079D02*
X15256134Y-14683031D01*
X15256134Y-14683031D02*
X15265658Y-14654460D01*
X15265658Y-14654460D02*
X15275182Y-14606841D01*
X15275182Y-14606841D02*
X15275182Y-14568746D01*
X15275182Y-14568746D02*
X15265658Y-14521127D01*
X15265658Y-14521127D02*
X15256134Y-14492555D01*
X15256134Y-14492555D02*
X15246611Y-14473508D01*
X15246611Y-14473508D02*
X15227563Y-14444936D01*
X15227563Y-14444936D02*
X15218039Y-14435412D01*
X15579944Y-14740174D02*
X15570420Y-14730650D01*
X15570420Y-14730650D02*
X15551372Y-14702079D01*
X15551372Y-14702079D02*
X15541849Y-14683031D01*
X15541849Y-14683031D02*
X15532325Y-14654460D01*
X15532325Y-14654460D02*
X15522801Y-14606841D01*
X15522801Y-14606841D02*
X15522801Y-14568746D01*
X15522801Y-14568746D02*
X15532325Y-14521127D01*
X15532325Y-14521127D02*
X15541849Y-14492555D01*
X15541849Y-14492555D02*
X15551372Y-14473508D01*
X15551372Y-14473508D02*
X15570420Y-14444936D01*
X15570420Y-14444936D02*
X15579944Y-14435412D01*
X15656134Y-14530650D02*
X15656134Y-14663984D01*
X15656134Y-14549698D02*
X15665658Y-14540174D01*
X15665658Y-14540174D02*
X15684706Y-14530650D01*
X15684706Y-14530650D02*
X15713277Y-14530650D01*
X15713277Y-14530650D02*
X15732325Y-14540174D01*
X15732325Y-14540174D02*
X15741849Y-14559222D01*
X15741849Y-14559222D02*
X15741849Y-14663984D01*
X15865658Y-14663984D02*
X15846611Y-14654460D01*
X15846611Y-14654460D02*
X15837087Y-14644936D01*
X15837087Y-14644936D02*
X15827563Y-14625888D01*
X15827563Y-14625888D02*
X15827563Y-14568746D01*
X15827563Y-14568746D02*
X15837087Y-14549698D01*
X15837087Y-14549698D02*
X15846611Y-14540174D01*
X15846611Y-14540174D02*
X15865658Y-14530650D01*
X15865658Y-14530650D02*
X15894230Y-14530650D01*
X15894230Y-14530650D02*
X15913277Y-14540174D01*
X15913277Y-14540174D02*
X15922801Y-14549698D01*
X15922801Y-14549698D02*
X15932325Y-14568746D01*
X15932325Y-14568746D02*
X15932325Y-14625888D01*
X15932325Y-14625888D02*
X15922801Y-14644936D01*
X15922801Y-14644936D02*
X15913277Y-14654460D01*
X15913277Y-14654460D02*
X15894230Y-14663984D01*
X15894230Y-14663984D02*
X15865658Y-14663984D01*
X15989468Y-14530650D02*
X16065658Y-14530650D01*
X16018039Y-14463984D02*
X16018039Y-14635412D01*
X16018039Y-14635412D02*
X16027563Y-14654460D01*
X16027563Y-14654460D02*
X16046611Y-14663984D01*
X16046611Y-14663984D02*
X16065658Y-14663984D01*
X16284706Y-14530650D02*
X16284706Y-14730650D01*
X16284706Y-14540174D02*
X16303753Y-14530650D01*
X16303753Y-14530650D02*
X16341849Y-14530650D01*
X16341849Y-14530650D02*
X16360896Y-14540174D01*
X16360896Y-14540174D02*
X16370420Y-14549698D01*
X16370420Y-14549698D02*
X16379944Y-14568746D01*
X16379944Y-14568746D02*
X16379944Y-14625888D01*
X16379944Y-14625888D02*
X16370420Y-14644936D01*
X16370420Y-14644936D02*
X16360896Y-14654460D01*
X16360896Y-14654460D02*
X16341849Y-14663984D01*
X16341849Y-14663984D02*
X16303753Y-14663984D01*
X16303753Y-14663984D02*
X16284706Y-14654460D01*
X16494230Y-14663984D02*
X16475182Y-14654460D01*
X16475182Y-14654460D02*
X16465658Y-14635412D01*
X16465658Y-14635412D02*
X16465658Y-14463984D01*
X16656134Y-14663984D02*
X16656134Y-14559222D01*
X16656134Y-14559222D02*
X16646611Y-14540174D01*
X16646611Y-14540174D02*
X16627563Y-14530650D01*
X16627563Y-14530650D02*
X16589468Y-14530650D01*
X16589468Y-14530650D02*
X16570420Y-14540174D01*
X16656134Y-14654460D02*
X16637087Y-14663984D01*
X16637087Y-14663984D02*
X16589468Y-14663984D01*
X16589468Y-14663984D02*
X16570420Y-14654460D01*
X16570420Y-14654460D02*
X16560896Y-14635412D01*
X16560896Y-14635412D02*
X16560896Y-14616365D01*
X16560896Y-14616365D02*
X16570420Y-14597317D01*
X16570420Y-14597317D02*
X16589468Y-14587793D01*
X16589468Y-14587793D02*
X16637087Y-14587793D01*
X16637087Y-14587793D02*
X16656134Y-14578269D01*
X16722801Y-14530650D02*
X16798992Y-14530650D01*
X16751373Y-14463984D02*
X16751373Y-14635412D01*
X16751373Y-14635412D02*
X16760896Y-14654460D01*
X16760896Y-14654460D02*
X16779944Y-14663984D01*
X16779944Y-14663984D02*
X16798992Y-14663984D01*
X16941849Y-14654460D02*
X16922801Y-14663984D01*
X16922801Y-14663984D02*
X16884706Y-14663984D01*
X16884706Y-14663984D02*
X16865658Y-14654460D01*
X16865658Y-14654460D02*
X16856135Y-14635412D01*
X16856135Y-14635412D02*
X16856135Y-14559222D01*
X16856135Y-14559222D02*
X16865658Y-14540174D01*
X16865658Y-14540174D02*
X16884706Y-14530650D01*
X16884706Y-14530650D02*
X16922801Y-14530650D01*
X16922801Y-14530650D02*
X16941849Y-14540174D01*
X16941849Y-14540174D02*
X16951373Y-14559222D01*
X16951373Y-14559222D02*
X16951373Y-14578269D01*
X16951373Y-14578269D02*
X16856135Y-14597317D01*
X17122801Y-14663984D02*
X17122801Y-14463984D01*
X17122801Y-14654460D02*
X17103754Y-14663984D01*
X17103754Y-14663984D02*
X17065658Y-14663984D01*
X17065658Y-14663984D02*
X17046611Y-14654460D01*
X17046611Y-14654460D02*
X17037087Y-14644936D01*
X17037087Y-14644936D02*
X17027563Y-14625888D01*
X17027563Y-14625888D02*
X17027563Y-14568746D01*
X17027563Y-14568746D02*
X17037087Y-14549698D01*
X17037087Y-14549698D02*
X17046611Y-14540174D01*
X17046611Y-14540174D02*
X17065658Y-14530650D01*
X17065658Y-14530650D02*
X17103754Y-14530650D01*
X17103754Y-14530650D02*
X17122801Y-14540174D01*
X17198992Y-14740174D02*
X17208516Y-14730650D01*
X17208516Y-14730650D02*
X17227563Y-14702079D01*
X17227563Y-14702079D02*
X17237087Y-14683031D01*
X17237087Y-14683031D02*
X17246611Y-14654460D01*
X17246611Y-14654460D02*
X17256135Y-14606841D01*
X17256135Y-14606841D02*
X17256135Y-14568746D01*
X17256135Y-14568746D02*
X17246611Y-14521127D01*
X17246611Y-14521127D02*
X17237087Y-14492555D01*
X17237087Y-14492555D02*
X17227563Y-14473508D01*
X17227563Y-14473508D02*
X17208516Y-14444936D01*
X17208516Y-14444936D02*
X17198992Y-14435412D01*
D13*
X10252500Y-14836500D02*
G75*
G02*
X10077500Y-14836500I-87500J0D01*
G01*
X10077500Y-14836500D02*
G75*
G02*
X10252500Y-14836500I87500J0D01*
G01*
D11*
X10618039Y-14927984D02*
X10503753Y-14927984D01*
X10560896Y-14927984D02*
X10560896Y-14727984D01*
X10560896Y-14727984D02*
X10541848Y-14756555D01*
X10541848Y-14756555D02*
X10522801Y-14775603D01*
X10522801Y-14775603D02*
X10503753Y-14785127D01*
X10703753Y-14908936D02*
X10713277Y-14918460D01*
X10713277Y-14918460D02*
X10703753Y-14927984D01*
X10703753Y-14927984D02*
X10694229Y-14918460D01*
X10694229Y-14918460D02*
X10703753Y-14908936D01*
X10703753Y-14908936D02*
X10703753Y-14927984D01*
X10779944Y-14727984D02*
X10913277Y-14727984D01*
X10913277Y-14727984D02*
X10827563Y-14927984D01*
X11084705Y-14727984D02*
X10989467Y-14727984D01*
X10989467Y-14727984D02*
X10979944Y-14823222D01*
X10979944Y-14823222D02*
X10989467Y-14813698D01*
X10989467Y-14813698D02*
X11008515Y-14804174D01*
X11008515Y-14804174D02*
X11056134Y-14804174D01*
X11056134Y-14804174D02*
X11075182Y-14813698D01*
X11075182Y-14813698D02*
X11084705Y-14823222D01*
X11084705Y-14823222D02*
X11094229Y-14842269D01*
X11094229Y-14842269D02*
X11094229Y-14889888D01*
X11094229Y-14889888D02*
X11084705Y-14908936D01*
X11084705Y-14908936D02*
X11075182Y-14918460D01*
X11075182Y-14918460D02*
X11056134Y-14927984D01*
X11056134Y-14927984D02*
X11008515Y-14927984D01*
X11008515Y-14927984D02*
X10989467Y-14918460D01*
X10989467Y-14918460D02*
X10979944Y-14908936D01*
X11218039Y-14727984D02*
X11237086Y-14727984D01*
X11237086Y-14727984D02*
X11256134Y-14737508D01*
X11256134Y-14737508D02*
X11265658Y-14747031D01*
X11265658Y-14747031D02*
X11275182Y-14766079D01*
X11275182Y-14766079D02*
X11284705Y-14804174D01*
X11284705Y-14804174D02*
X11284705Y-14851793D01*
X11284705Y-14851793D02*
X11275182Y-14889888D01*
X11275182Y-14889888D02*
X11265658Y-14908936D01*
X11265658Y-14908936D02*
X11256134Y-14918460D01*
X11256134Y-14918460D02*
X11237086Y-14927984D01*
X11237086Y-14927984D02*
X11218039Y-14927984D01*
X11218039Y-14927984D02*
X11198991Y-14918460D01*
X11198991Y-14918460D02*
X11189467Y-14908936D01*
X11189467Y-14908936D02*
X11179944Y-14889888D01*
X11179944Y-14889888D02*
X11170420Y-14851793D01*
X11170420Y-14851793D02*
X11170420Y-14804174D01*
X11170420Y-14804174D02*
X11179944Y-14766079D01*
X11179944Y-14766079D02*
X11189467Y-14747031D01*
X11189467Y-14747031D02*
X11198991Y-14737508D01*
X11198991Y-14737508D02*
X11218039Y-14727984D01*
X11370420Y-14927984D02*
X11370420Y-14794650D01*
X11370420Y-14813698D02*
X11379943Y-14804174D01*
X11379943Y-14804174D02*
X11398991Y-14794650D01*
X11398991Y-14794650D02*
X11427563Y-14794650D01*
X11427563Y-14794650D02*
X11446610Y-14804174D01*
X11446610Y-14804174D02*
X11456134Y-14823222D01*
X11456134Y-14823222D02*
X11456134Y-14927984D01*
X11456134Y-14823222D02*
X11465658Y-14804174D01*
X11465658Y-14804174D02*
X11484705Y-14794650D01*
X11484705Y-14794650D02*
X11513277Y-14794650D01*
X11513277Y-14794650D02*
X11532324Y-14804174D01*
X11532324Y-14804174D02*
X11541848Y-14823222D01*
X11541848Y-14823222D02*
X11541848Y-14927984D01*
X11637086Y-14927984D02*
X11637086Y-14794650D01*
X11637086Y-14813698D02*
X11646610Y-14804174D01*
X11646610Y-14804174D02*
X11665658Y-14794650D01*
X11665658Y-14794650D02*
X11694229Y-14794650D01*
X11694229Y-14794650D02*
X11713277Y-14804174D01*
X11713277Y-14804174D02*
X11722801Y-14823222D01*
X11722801Y-14823222D02*
X11722801Y-14927984D01*
X11722801Y-14823222D02*
X11732324Y-14804174D01*
X11732324Y-14804174D02*
X11751372Y-14794650D01*
X11751372Y-14794650D02*
X11779943Y-14794650D01*
X11779943Y-14794650D02*
X11798991Y-14804174D01*
X11798991Y-14804174D02*
X11808515Y-14823222D01*
X11808515Y-14823222D02*
X11808515Y-14927984D01*
X12198991Y-14718460D02*
X12027563Y-14975603D01*
X12456134Y-14727984D02*
X12475182Y-14727984D01*
X12475182Y-14727984D02*
X12494229Y-14737508D01*
X12494229Y-14737508D02*
X12503753Y-14747031D01*
X12503753Y-14747031D02*
X12513277Y-14766079D01*
X12513277Y-14766079D02*
X12522801Y-14804174D01*
X12522801Y-14804174D02*
X12522801Y-14851793D01*
X12522801Y-14851793D02*
X12513277Y-14889888D01*
X12513277Y-14889888D02*
X12503753Y-14908936D01*
X12503753Y-14908936D02*
X12494229Y-14918460D01*
X12494229Y-14918460D02*
X12475182Y-14927984D01*
X12475182Y-14927984D02*
X12456134Y-14927984D01*
X12456134Y-14927984D02*
X12437086Y-14918460D01*
X12437086Y-14918460D02*
X12427563Y-14908936D01*
X12427563Y-14908936D02*
X12418039Y-14889888D01*
X12418039Y-14889888D02*
X12408515Y-14851793D01*
X12408515Y-14851793D02*
X12408515Y-14804174D01*
X12408515Y-14804174D02*
X12418039Y-14766079D01*
X12418039Y-14766079D02*
X12427563Y-14747031D01*
X12427563Y-14747031D02*
X12437086Y-14737508D01*
X12437086Y-14737508D02*
X12456134Y-14727984D01*
X12608515Y-14908936D02*
X12618039Y-14918460D01*
X12618039Y-14918460D02*
X12608515Y-14927984D01*
X12608515Y-14927984D02*
X12598991Y-14918460D01*
X12598991Y-14918460D02*
X12608515Y-14908936D01*
X12608515Y-14908936D02*
X12608515Y-14927984D01*
X12741848Y-14727984D02*
X12760896Y-14727984D01*
X12760896Y-14727984D02*
X12779944Y-14737508D01*
X12779944Y-14737508D02*
X12789467Y-14747031D01*
X12789467Y-14747031D02*
X12798991Y-14766079D01*
X12798991Y-14766079D02*
X12808515Y-14804174D01*
X12808515Y-14804174D02*
X12808515Y-14851793D01*
X12808515Y-14851793D02*
X12798991Y-14889888D01*
X12798991Y-14889888D02*
X12789467Y-14908936D01*
X12789467Y-14908936D02*
X12779944Y-14918460D01*
X12779944Y-14918460D02*
X12760896Y-14927984D01*
X12760896Y-14927984D02*
X12741848Y-14927984D01*
X12741848Y-14927984D02*
X12722801Y-14918460D01*
X12722801Y-14918460D02*
X12713277Y-14908936D01*
X12713277Y-14908936D02*
X12703753Y-14889888D01*
X12703753Y-14889888D02*
X12694229Y-14851793D01*
X12694229Y-14851793D02*
X12694229Y-14804174D01*
X12694229Y-14804174D02*
X12703753Y-14766079D01*
X12703753Y-14766079D02*
X12713277Y-14747031D01*
X12713277Y-14747031D02*
X12722801Y-14737508D01*
X12722801Y-14737508D02*
X12741848Y-14727984D01*
X12979944Y-14727984D02*
X12941848Y-14727984D01*
X12941848Y-14727984D02*
X12922801Y-14737508D01*
X12922801Y-14737508D02*
X12913277Y-14747031D01*
X12913277Y-14747031D02*
X12894229Y-14775603D01*
X12894229Y-14775603D02*
X12884706Y-14813698D01*
X12884706Y-14813698D02*
X12884706Y-14889888D01*
X12884706Y-14889888D02*
X12894229Y-14908936D01*
X12894229Y-14908936D02*
X12903753Y-14918460D01*
X12903753Y-14918460D02*
X12922801Y-14927984D01*
X12922801Y-14927984D02*
X12960896Y-14927984D01*
X12960896Y-14927984D02*
X12979944Y-14918460D01*
X12979944Y-14918460D02*
X12989467Y-14908936D01*
X12989467Y-14908936D02*
X12998991Y-14889888D01*
X12998991Y-14889888D02*
X12998991Y-14842269D01*
X12998991Y-14842269D02*
X12989467Y-14823222D01*
X12989467Y-14823222D02*
X12979944Y-14813698D01*
X12979944Y-14813698D02*
X12960896Y-14804174D01*
X12960896Y-14804174D02*
X12922801Y-14804174D01*
X12922801Y-14804174D02*
X12903753Y-14813698D01*
X12903753Y-14813698D02*
X12894229Y-14823222D01*
X12894229Y-14823222D02*
X12884706Y-14842269D01*
X13113277Y-14813698D02*
X13094229Y-14804174D01*
X13094229Y-14804174D02*
X13084706Y-14794650D01*
X13084706Y-14794650D02*
X13075182Y-14775603D01*
X13075182Y-14775603D02*
X13075182Y-14766079D01*
X13075182Y-14766079D02*
X13084706Y-14747031D01*
X13084706Y-14747031D02*
X13094229Y-14737508D01*
X13094229Y-14737508D02*
X13113277Y-14727984D01*
X13113277Y-14727984D02*
X13151372Y-14727984D01*
X13151372Y-14727984D02*
X13170420Y-14737508D01*
X13170420Y-14737508D02*
X13179944Y-14747031D01*
X13179944Y-14747031D02*
X13189467Y-14766079D01*
X13189467Y-14766079D02*
X13189467Y-14775603D01*
X13189467Y-14775603D02*
X13179944Y-14794650D01*
X13179944Y-14794650D02*
X13170420Y-14804174D01*
X13170420Y-14804174D02*
X13151372Y-14813698D01*
X13151372Y-14813698D02*
X13113277Y-14813698D01*
X13113277Y-14813698D02*
X13094229Y-14823222D01*
X13094229Y-14823222D02*
X13084706Y-14832746D01*
X13084706Y-14832746D02*
X13075182Y-14851793D01*
X13075182Y-14851793D02*
X13075182Y-14889888D01*
X13075182Y-14889888D02*
X13084706Y-14908936D01*
X13084706Y-14908936D02*
X13094229Y-14918460D01*
X13094229Y-14918460D02*
X13113277Y-14927984D01*
X13113277Y-14927984D02*
X13151372Y-14927984D01*
X13151372Y-14927984D02*
X13170420Y-14918460D01*
X13170420Y-14918460D02*
X13179944Y-14908936D01*
X13179944Y-14908936D02*
X13189467Y-14889888D01*
X13189467Y-14889888D02*
X13189467Y-14851793D01*
X13189467Y-14851793D02*
X13179944Y-14832746D01*
X13179944Y-14832746D02*
X13170420Y-14823222D01*
X13170420Y-14823222D02*
X13151372Y-14813698D01*
X13284706Y-14927984D02*
X13322801Y-14927984D01*
X13322801Y-14927984D02*
X13341848Y-14918460D01*
X13341848Y-14918460D02*
X13351372Y-14908936D01*
X13351372Y-14908936D02*
X13370420Y-14880365D01*
X13370420Y-14880365D02*
X13379944Y-14842269D01*
X13379944Y-14842269D02*
X13379944Y-14766079D01*
X13379944Y-14766079D02*
X13370420Y-14747031D01*
X13370420Y-14747031D02*
X13360896Y-14737508D01*
X13360896Y-14737508D02*
X13341848Y-14727984D01*
X13341848Y-14727984D02*
X13303753Y-14727984D01*
X13303753Y-14727984D02*
X13284706Y-14737508D01*
X13284706Y-14737508D02*
X13275182Y-14747031D01*
X13275182Y-14747031D02*
X13265658Y-14766079D01*
X13265658Y-14766079D02*
X13265658Y-14813698D01*
X13265658Y-14813698D02*
X13275182Y-14832746D01*
X13275182Y-14832746D02*
X13284706Y-14842269D01*
X13284706Y-14842269D02*
X13303753Y-14851793D01*
X13303753Y-14851793D02*
X13341848Y-14851793D01*
X13341848Y-14851793D02*
X13360896Y-14842269D01*
X13360896Y-14842269D02*
X13370420Y-14832746D01*
X13370420Y-14832746D02*
X13379944Y-14813698D01*
X13456134Y-14727984D02*
X13456134Y-14766079D01*
X13532325Y-14727984D02*
X13532325Y-14766079D01*
X13827563Y-15004174D02*
X13818039Y-14994650D01*
X13818039Y-14994650D02*
X13798991Y-14966079D01*
X13798991Y-14966079D02*
X13789468Y-14947031D01*
X13789468Y-14947031D02*
X13779944Y-14918460D01*
X13779944Y-14918460D02*
X13770420Y-14870841D01*
X13770420Y-14870841D02*
X13770420Y-14832746D01*
X13770420Y-14832746D02*
X13779944Y-14785127D01*
X13779944Y-14785127D02*
X13789468Y-14756555D01*
X13789468Y-14756555D02*
X13798991Y-14737508D01*
X13798991Y-14737508D02*
X13818039Y-14708936D01*
X13818039Y-14708936D02*
X13827563Y-14699412D01*
X13894229Y-14747031D02*
X13903753Y-14737508D01*
X13903753Y-14737508D02*
X13922801Y-14727984D01*
X13922801Y-14727984D02*
X13970420Y-14727984D01*
X13970420Y-14727984D02*
X13989468Y-14737508D01*
X13989468Y-14737508D02*
X13998991Y-14747031D01*
X13998991Y-14747031D02*
X14008515Y-14766079D01*
X14008515Y-14766079D02*
X14008515Y-14785127D01*
X14008515Y-14785127D02*
X13998991Y-14813698D01*
X13998991Y-14813698D02*
X13884706Y-14927984D01*
X13884706Y-14927984D02*
X14008515Y-14927984D01*
X14179944Y-14794650D02*
X14179944Y-14927984D01*
X14132325Y-14718460D02*
X14084706Y-14861317D01*
X14084706Y-14861317D02*
X14208515Y-14861317D01*
X14437087Y-14927984D02*
X14437087Y-14727984D01*
X14522801Y-14927984D02*
X14522801Y-14823222D01*
X14522801Y-14823222D02*
X14513277Y-14804174D01*
X14513277Y-14804174D02*
X14494230Y-14794650D01*
X14494230Y-14794650D02*
X14465658Y-14794650D01*
X14465658Y-14794650D02*
X14446610Y-14804174D01*
X14446610Y-14804174D02*
X14437087Y-14813698D01*
X14646610Y-14927984D02*
X14627563Y-14918460D01*
X14627563Y-14918460D02*
X14618039Y-14908936D01*
X14618039Y-14908936D02*
X14608515Y-14889888D01*
X14608515Y-14889888D02*
X14608515Y-14832746D01*
X14608515Y-14832746D02*
X14618039Y-14813698D01*
X14618039Y-14813698D02*
X14627563Y-14804174D01*
X14627563Y-14804174D02*
X14646610Y-14794650D01*
X14646610Y-14794650D02*
X14675182Y-14794650D01*
X14675182Y-14794650D02*
X14694230Y-14804174D01*
X14694230Y-14804174D02*
X14703753Y-14813698D01*
X14703753Y-14813698D02*
X14713277Y-14832746D01*
X14713277Y-14832746D02*
X14713277Y-14889888D01*
X14713277Y-14889888D02*
X14703753Y-14908936D01*
X14703753Y-14908936D02*
X14694230Y-14918460D01*
X14694230Y-14918460D02*
X14675182Y-14927984D01*
X14675182Y-14927984D02*
X14646610Y-14927984D01*
X14827563Y-14927984D02*
X14808515Y-14918460D01*
X14808515Y-14918460D02*
X14798991Y-14899412D01*
X14798991Y-14899412D02*
X14798991Y-14727984D01*
X14979944Y-14918460D02*
X14960896Y-14927984D01*
X14960896Y-14927984D02*
X14922801Y-14927984D01*
X14922801Y-14927984D02*
X14903753Y-14918460D01*
X14903753Y-14918460D02*
X14894230Y-14899412D01*
X14894230Y-14899412D02*
X14894230Y-14823222D01*
X14894230Y-14823222D02*
X14903753Y-14804174D01*
X14903753Y-14804174D02*
X14922801Y-14794650D01*
X14922801Y-14794650D02*
X14960896Y-14794650D01*
X14960896Y-14794650D02*
X14979944Y-14804174D01*
X14979944Y-14804174D02*
X14989468Y-14823222D01*
X14989468Y-14823222D02*
X14989468Y-14842269D01*
X14989468Y-14842269D02*
X14894230Y-14861317D01*
X15065658Y-14918460D02*
X15084706Y-14927984D01*
X15084706Y-14927984D02*
X15122801Y-14927984D01*
X15122801Y-14927984D02*
X15141849Y-14918460D01*
X15141849Y-14918460D02*
X15151372Y-14899412D01*
X15151372Y-14899412D02*
X15151372Y-14889888D01*
X15151372Y-14889888D02*
X15141849Y-14870841D01*
X15141849Y-14870841D02*
X15122801Y-14861317D01*
X15122801Y-14861317D02*
X15094230Y-14861317D01*
X15094230Y-14861317D02*
X15075182Y-14851793D01*
X15075182Y-14851793D02*
X15065658Y-14832746D01*
X15065658Y-14832746D02*
X15065658Y-14823222D01*
X15065658Y-14823222D02*
X15075182Y-14804174D01*
X15075182Y-14804174D02*
X15094230Y-14794650D01*
X15094230Y-14794650D02*
X15122801Y-14794650D01*
X15122801Y-14794650D02*
X15141849Y-14804174D01*
X15218039Y-15004174D02*
X15227563Y-14994650D01*
X15227563Y-14994650D02*
X15246611Y-14966079D01*
X15246611Y-14966079D02*
X15256134Y-14947031D01*
X15256134Y-14947031D02*
X15265658Y-14918460D01*
X15265658Y-14918460D02*
X15275182Y-14870841D01*
X15275182Y-14870841D02*
X15275182Y-14832746D01*
X15275182Y-14832746D02*
X15265658Y-14785127D01*
X15265658Y-14785127D02*
X15256134Y-14756555D01*
X15256134Y-14756555D02*
X15246611Y-14737508D01*
X15246611Y-14737508D02*
X15227563Y-14708936D01*
X15227563Y-14708936D02*
X15218039Y-14699412D01*
X15579944Y-15004174D02*
X15570420Y-14994650D01*
X15570420Y-14994650D02*
X15551372Y-14966079D01*
X15551372Y-14966079D02*
X15541849Y-14947031D01*
X15541849Y-14947031D02*
X15532325Y-14918460D01*
X15532325Y-14918460D02*
X15522801Y-14870841D01*
X15522801Y-14870841D02*
X15522801Y-14832746D01*
X15522801Y-14832746D02*
X15532325Y-14785127D01*
X15532325Y-14785127D02*
X15541849Y-14756555D01*
X15541849Y-14756555D02*
X15551372Y-14737508D01*
X15551372Y-14737508D02*
X15570420Y-14708936D01*
X15570420Y-14708936D02*
X15579944Y-14699412D01*
X15656134Y-14794650D02*
X15656134Y-14927984D01*
X15656134Y-14813698D02*
X15665658Y-14804174D01*
X15665658Y-14804174D02*
X15684706Y-14794650D01*
X15684706Y-14794650D02*
X15713277Y-14794650D01*
X15713277Y-14794650D02*
X15732325Y-14804174D01*
X15732325Y-14804174D02*
X15741849Y-14823222D01*
X15741849Y-14823222D02*
X15741849Y-14927984D01*
X15865658Y-14927984D02*
X15846611Y-14918460D01*
X15846611Y-14918460D02*
X15837087Y-14908936D01*
X15837087Y-14908936D02*
X15827563Y-14889888D01*
X15827563Y-14889888D02*
X15827563Y-14832746D01*
X15827563Y-14832746D02*
X15837087Y-14813698D01*
X15837087Y-14813698D02*
X15846611Y-14804174D01*
X15846611Y-14804174D02*
X15865658Y-14794650D01*
X15865658Y-14794650D02*
X15894230Y-14794650D01*
X15894230Y-14794650D02*
X15913277Y-14804174D01*
X15913277Y-14804174D02*
X15922801Y-14813698D01*
X15922801Y-14813698D02*
X15932325Y-14832746D01*
X15932325Y-14832746D02*
X15932325Y-14889888D01*
X15932325Y-14889888D02*
X15922801Y-14908936D01*
X15922801Y-14908936D02*
X15913277Y-14918460D01*
X15913277Y-14918460D02*
X15894230Y-14927984D01*
X15894230Y-14927984D02*
X15865658Y-14927984D01*
X15989468Y-14794650D02*
X16065658Y-14794650D01*
X16018039Y-14727984D02*
X16018039Y-14899412D01*
X16018039Y-14899412D02*
X16027563Y-14918460D01*
X16027563Y-14918460D02*
X16046611Y-14927984D01*
X16046611Y-14927984D02*
X16065658Y-14927984D01*
X16284706Y-14794650D02*
X16284706Y-14994650D01*
X16284706Y-14804174D02*
X16303753Y-14794650D01*
X16303753Y-14794650D02*
X16341849Y-14794650D01*
X16341849Y-14794650D02*
X16360896Y-14804174D01*
X16360896Y-14804174D02*
X16370420Y-14813698D01*
X16370420Y-14813698D02*
X16379944Y-14832746D01*
X16379944Y-14832746D02*
X16379944Y-14889888D01*
X16379944Y-14889888D02*
X16370420Y-14908936D01*
X16370420Y-14908936D02*
X16360896Y-14918460D01*
X16360896Y-14918460D02*
X16341849Y-14927984D01*
X16341849Y-14927984D02*
X16303753Y-14927984D01*
X16303753Y-14927984D02*
X16284706Y-14918460D01*
X16494230Y-14927984D02*
X16475182Y-14918460D01*
X16475182Y-14918460D02*
X16465658Y-14899412D01*
X16465658Y-14899412D02*
X16465658Y-14727984D01*
X16656134Y-14927984D02*
X16656134Y-14823222D01*
X16656134Y-14823222D02*
X16646611Y-14804174D01*
X16646611Y-14804174D02*
X16627563Y-14794650D01*
X16627563Y-14794650D02*
X16589468Y-14794650D01*
X16589468Y-14794650D02*
X16570420Y-14804174D01*
X16656134Y-14918460D02*
X16637087Y-14927984D01*
X16637087Y-14927984D02*
X16589468Y-14927984D01*
X16589468Y-14927984D02*
X16570420Y-14918460D01*
X16570420Y-14918460D02*
X16560896Y-14899412D01*
X16560896Y-14899412D02*
X16560896Y-14880365D01*
X16560896Y-14880365D02*
X16570420Y-14861317D01*
X16570420Y-14861317D02*
X16589468Y-14851793D01*
X16589468Y-14851793D02*
X16637087Y-14851793D01*
X16637087Y-14851793D02*
X16656134Y-14842269D01*
X16722801Y-14794650D02*
X16798992Y-14794650D01*
X16751373Y-14727984D02*
X16751373Y-14899412D01*
X16751373Y-14899412D02*
X16760896Y-14918460D01*
X16760896Y-14918460D02*
X16779944Y-14927984D01*
X16779944Y-14927984D02*
X16798992Y-14927984D01*
X16941849Y-14918460D02*
X16922801Y-14927984D01*
X16922801Y-14927984D02*
X16884706Y-14927984D01*
X16884706Y-14927984D02*
X16865658Y-14918460D01*
X16865658Y-14918460D02*
X16856135Y-14899412D01*
X16856135Y-14899412D02*
X16856135Y-14823222D01*
X16856135Y-14823222D02*
X16865658Y-14804174D01*
X16865658Y-14804174D02*
X16884706Y-14794650D01*
X16884706Y-14794650D02*
X16922801Y-14794650D01*
X16922801Y-14794650D02*
X16941849Y-14804174D01*
X16941849Y-14804174D02*
X16951373Y-14823222D01*
X16951373Y-14823222D02*
X16951373Y-14842269D01*
X16951373Y-14842269D02*
X16856135Y-14861317D01*
X17122801Y-14927984D02*
X17122801Y-14727984D01*
X17122801Y-14918460D02*
X17103754Y-14927984D01*
X17103754Y-14927984D02*
X17065658Y-14927984D01*
X17065658Y-14927984D02*
X17046611Y-14918460D01*
X17046611Y-14918460D02*
X17037087Y-14908936D01*
X17037087Y-14908936D02*
X17027563Y-14889888D01*
X17027563Y-14889888D02*
X17027563Y-14832746D01*
X17027563Y-14832746D02*
X17037087Y-14813698D01*
X17037087Y-14813698D02*
X17046611Y-14804174D01*
X17046611Y-14804174D02*
X17065658Y-14794650D01*
X17065658Y-14794650D02*
X17103754Y-14794650D01*
X17103754Y-14794650D02*
X17122801Y-14804174D01*
X17198992Y-15004174D02*
X17208516Y-14994650D01*
X17208516Y-14994650D02*
X17227563Y-14966079D01*
X17227563Y-14966079D02*
X17237087Y-14947031D01*
X17237087Y-14947031D02*
X17246611Y-14918460D01*
X17246611Y-14918460D02*
X17256135Y-14870841D01*
X17256135Y-14870841D02*
X17256135Y-14832746D01*
X17256135Y-14832746D02*
X17246611Y-14785127D01*
X17246611Y-14785127D02*
X17237087Y-14756555D01*
X17237087Y-14756555D02*
X17227563Y-14737508D01*
X17227563Y-14737508D02*
X17208516Y-14708936D01*
X17208516Y-14708936D02*
X17198992Y-14699412D01*
X10152500Y-15031500D02*
X10152500Y-15231500D01*
X10052500Y-15131500D02*
X10252500Y-15131500D01*
X10494229Y-15022984D02*
X10618039Y-15022984D01*
X10618039Y-15022984D02*
X10551372Y-15099174D01*
X10551372Y-15099174D02*
X10579944Y-15099174D01*
X10579944Y-15099174D02*
X10598991Y-15108698D01*
X10598991Y-15108698D02*
X10608515Y-15118222D01*
X10608515Y-15118222D02*
X10618039Y-15137269D01*
X10618039Y-15137269D02*
X10618039Y-15184888D01*
X10618039Y-15184888D02*
X10608515Y-15203936D01*
X10608515Y-15203936D02*
X10598991Y-15213460D01*
X10598991Y-15213460D02*
X10579944Y-15222984D01*
X10579944Y-15222984D02*
X10522801Y-15222984D01*
X10522801Y-15222984D02*
X10503753Y-15213460D01*
X10503753Y-15213460D02*
X10494229Y-15203936D01*
X10703753Y-15203936D02*
X10713277Y-15213460D01*
X10713277Y-15213460D02*
X10703753Y-15222984D01*
X10703753Y-15222984D02*
X10694229Y-15213460D01*
X10694229Y-15213460D02*
X10703753Y-15203936D01*
X10703753Y-15203936D02*
X10703753Y-15222984D01*
X10837086Y-15022984D02*
X10856134Y-15022984D01*
X10856134Y-15022984D02*
X10875182Y-15032508D01*
X10875182Y-15032508D02*
X10884705Y-15042031D01*
X10884705Y-15042031D02*
X10894229Y-15061079D01*
X10894229Y-15061079D02*
X10903753Y-15099174D01*
X10903753Y-15099174D02*
X10903753Y-15146793D01*
X10903753Y-15146793D02*
X10894229Y-15184888D01*
X10894229Y-15184888D02*
X10884705Y-15203936D01*
X10884705Y-15203936D02*
X10875182Y-15213460D01*
X10875182Y-15213460D02*
X10856134Y-15222984D01*
X10856134Y-15222984D02*
X10837086Y-15222984D01*
X10837086Y-15222984D02*
X10818039Y-15213460D01*
X10818039Y-15213460D02*
X10808515Y-15203936D01*
X10808515Y-15203936D02*
X10798991Y-15184888D01*
X10798991Y-15184888D02*
X10789467Y-15146793D01*
X10789467Y-15146793D02*
X10789467Y-15099174D01*
X10789467Y-15099174D02*
X10798991Y-15061079D01*
X10798991Y-15061079D02*
X10808515Y-15042031D01*
X10808515Y-15042031D02*
X10818039Y-15032508D01*
X10818039Y-15032508D02*
X10837086Y-15022984D01*
X11084705Y-15022984D02*
X10989467Y-15022984D01*
X10989467Y-15022984D02*
X10979944Y-15118222D01*
X10979944Y-15118222D02*
X10989467Y-15108698D01*
X10989467Y-15108698D02*
X11008515Y-15099174D01*
X11008515Y-15099174D02*
X11056134Y-15099174D01*
X11056134Y-15099174D02*
X11075182Y-15108698D01*
X11075182Y-15108698D02*
X11084705Y-15118222D01*
X11084705Y-15118222D02*
X11094229Y-15137269D01*
X11094229Y-15137269D02*
X11094229Y-15184888D01*
X11094229Y-15184888D02*
X11084705Y-15203936D01*
X11084705Y-15203936D02*
X11075182Y-15213460D01*
X11075182Y-15213460D02*
X11056134Y-15222984D01*
X11056134Y-15222984D02*
X11008515Y-15222984D01*
X11008515Y-15222984D02*
X10989467Y-15213460D01*
X10989467Y-15213460D02*
X10979944Y-15203936D01*
X11218039Y-15022984D02*
X11237086Y-15022984D01*
X11237086Y-15022984D02*
X11256134Y-15032508D01*
X11256134Y-15032508D02*
X11265658Y-15042031D01*
X11265658Y-15042031D02*
X11275182Y-15061079D01*
X11275182Y-15061079D02*
X11284705Y-15099174D01*
X11284705Y-15099174D02*
X11284705Y-15146793D01*
X11284705Y-15146793D02*
X11275182Y-15184888D01*
X11275182Y-15184888D02*
X11265658Y-15203936D01*
X11265658Y-15203936D02*
X11256134Y-15213460D01*
X11256134Y-15213460D02*
X11237086Y-15222984D01*
X11237086Y-15222984D02*
X11218039Y-15222984D01*
X11218039Y-15222984D02*
X11198991Y-15213460D01*
X11198991Y-15213460D02*
X11189467Y-15203936D01*
X11189467Y-15203936D02*
X11179944Y-15184888D01*
X11179944Y-15184888D02*
X11170420Y-15146793D01*
X11170420Y-15146793D02*
X11170420Y-15099174D01*
X11170420Y-15099174D02*
X11179944Y-15061079D01*
X11179944Y-15061079D02*
X11189467Y-15042031D01*
X11189467Y-15042031D02*
X11198991Y-15032508D01*
X11198991Y-15032508D02*
X11218039Y-15022984D01*
X11370420Y-15222984D02*
X11370420Y-15089650D01*
X11370420Y-15108698D02*
X11379943Y-15099174D01*
X11379943Y-15099174D02*
X11398991Y-15089650D01*
X11398991Y-15089650D02*
X11427563Y-15089650D01*
X11427563Y-15089650D02*
X11446610Y-15099174D01*
X11446610Y-15099174D02*
X11456134Y-15118222D01*
X11456134Y-15118222D02*
X11456134Y-15222984D01*
X11456134Y-15118222D02*
X11465658Y-15099174D01*
X11465658Y-15099174D02*
X11484705Y-15089650D01*
X11484705Y-15089650D02*
X11513277Y-15089650D01*
X11513277Y-15089650D02*
X11532324Y-15099174D01*
X11532324Y-15099174D02*
X11541848Y-15118222D01*
X11541848Y-15118222D02*
X11541848Y-15222984D01*
X11637086Y-15222984D02*
X11637086Y-15089650D01*
X11637086Y-15108698D02*
X11646610Y-15099174D01*
X11646610Y-15099174D02*
X11665658Y-15089650D01*
X11665658Y-15089650D02*
X11694229Y-15089650D01*
X11694229Y-15089650D02*
X11713277Y-15099174D01*
X11713277Y-15099174D02*
X11722801Y-15118222D01*
X11722801Y-15118222D02*
X11722801Y-15222984D01*
X11722801Y-15118222D02*
X11732324Y-15099174D01*
X11732324Y-15099174D02*
X11751372Y-15089650D01*
X11751372Y-15089650D02*
X11779943Y-15089650D01*
X11779943Y-15089650D02*
X11798991Y-15099174D01*
X11798991Y-15099174D02*
X11808515Y-15118222D01*
X11808515Y-15118222D02*
X11808515Y-15222984D01*
X12198991Y-15013460D02*
X12027563Y-15270603D01*
X12456134Y-15022984D02*
X12475182Y-15022984D01*
X12475182Y-15022984D02*
X12494229Y-15032508D01*
X12494229Y-15032508D02*
X12503753Y-15042031D01*
X12503753Y-15042031D02*
X12513277Y-15061079D01*
X12513277Y-15061079D02*
X12522801Y-15099174D01*
X12522801Y-15099174D02*
X12522801Y-15146793D01*
X12522801Y-15146793D02*
X12513277Y-15184888D01*
X12513277Y-15184888D02*
X12503753Y-15203936D01*
X12503753Y-15203936D02*
X12494229Y-15213460D01*
X12494229Y-15213460D02*
X12475182Y-15222984D01*
X12475182Y-15222984D02*
X12456134Y-15222984D01*
X12456134Y-15222984D02*
X12437086Y-15213460D01*
X12437086Y-15213460D02*
X12427563Y-15203936D01*
X12427563Y-15203936D02*
X12418039Y-15184888D01*
X12418039Y-15184888D02*
X12408515Y-15146793D01*
X12408515Y-15146793D02*
X12408515Y-15099174D01*
X12408515Y-15099174D02*
X12418039Y-15061079D01*
X12418039Y-15061079D02*
X12427563Y-15042031D01*
X12427563Y-15042031D02*
X12437086Y-15032508D01*
X12437086Y-15032508D02*
X12456134Y-15022984D01*
X12608515Y-15203936D02*
X12618039Y-15213460D01*
X12618039Y-15213460D02*
X12608515Y-15222984D01*
X12608515Y-15222984D02*
X12598991Y-15213460D01*
X12598991Y-15213460D02*
X12608515Y-15203936D01*
X12608515Y-15203936D02*
X12608515Y-15222984D01*
X12808515Y-15222984D02*
X12694229Y-15222984D01*
X12751372Y-15222984D02*
X12751372Y-15022984D01*
X12751372Y-15022984D02*
X12732325Y-15051555D01*
X12732325Y-15051555D02*
X12713277Y-15070603D01*
X12713277Y-15070603D02*
X12694229Y-15080127D01*
X12884706Y-15042031D02*
X12894229Y-15032508D01*
X12894229Y-15032508D02*
X12913277Y-15022984D01*
X12913277Y-15022984D02*
X12960896Y-15022984D01*
X12960896Y-15022984D02*
X12979944Y-15032508D01*
X12979944Y-15032508D02*
X12989467Y-15042031D01*
X12989467Y-15042031D02*
X12998991Y-15061079D01*
X12998991Y-15061079D02*
X12998991Y-15080127D01*
X12998991Y-15080127D02*
X12989467Y-15108698D01*
X12989467Y-15108698D02*
X12875182Y-15222984D01*
X12875182Y-15222984D02*
X12998991Y-15222984D01*
X13122801Y-15022984D02*
X13141848Y-15022984D01*
X13141848Y-15022984D02*
X13160896Y-15032508D01*
X13160896Y-15032508D02*
X13170420Y-15042031D01*
X13170420Y-15042031D02*
X13179944Y-15061079D01*
X13179944Y-15061079D02*
X13189467Y-15099174D01*
X13189467Y-15099174D02*
X13189467Y-15146793D01*
X13189467Y-15146793D02*
X13179944Y-15184888D01*
X13179944Y-15184888D02*
X13170420Y-15203936D01*
X13170420Y-15203936D02*
X13160896Y-15213460D01*
X13160896Y-15213460D02*
X13141848Y-15222984D01*
X13141848Y-15222984D02*
X13122801Y-15222984D01*
X13122801Y-15222984D02*
X13103753Y-15213460D01*
X13103753Y-15213460D02*
X13094229Y-15203936D01*
X13094229Y-15203936D02*
X13084706Y-15184888D01*
X13084706Y-15184888D02*
X13075182Y-15146793D01*
X13075182Y-15146793D02*
X13075182Y-15099174D01*
X13075182Y-15099174D02*
X13084706Y-15061079D01*
X13084706Y-15061079D02*
X13094229Y-15042031D01*
X13094229Y-15042031D02*
X13103753Y-15032508D01*
X13103753Y-15032508D02*
X13122801Y-15022984D01*
X13379944Y-15222984D02*
X13265658Y-15222984D01*
X13322801Y-15222984D02*
X13322801Y-15022984D01*
X13322801Y-15022984D02*
X13303753Y-15051555D01*
X13303753Y-15051555D02*
X13284706Y-15070603D01*
X13284706Y-15070603D02*
X13265658Y-15080127D01*
X13456134Y-15022984D02*
X13456134Y-15061079D01*
X13532325Y-15022984D02*
X13532325Y-15061079D01*
X13827563Y-15299174D02*
X13818039Y-15289650D01*
X13818039Y-15289650D02*
X13798991Y-15261079D01*
X13798991Y-15261079D02*
X13789468Y-15242031D01*
X13789468Y-15242031D02*
X13779944Y-15213460D01*
X13779944Y-15213460D02*
X13770420Y-15165841D01*
X13770420Y-15165841D02*
X13770420Y-15127746D01*
X13770420Y-15127746D02*
X13779944Y-15080127D01*
X13779944Y-15080127D02*
X13789468Y-15051555D01*
X13789468Y-15051555D02*
X13798991Y-15032508D01*
X13798991Y-15032508D02*
X13818039Y-15003936D01*
X13818039Y-15003936D02*
X13827563Y-14994412D01*
X14008515Y-15222984D02*
X13894229Y-15222984D01*
X13951372Y-15222984D02*
X13951372Y-15022984D01*
X13951372Y-15022984D02*
X13932325Y-15051555D01*
X13932325Y-15051555D02*
X13913277Y-15070603D01*
X13913277Y-15070603D02*
X13894229Y-15080127D01*
X14179944Y-15022984D02*
X14141848Y-15022984D01*
X14141848Y-15022984D02*
X14122801Y-15032508D01*
X14122801Y-15032508D02*
X14113277Y-15042031D01*
X14113277Y-15042031D02*
X14094229Y-15070603D01*
X14094229Y-15070603D02*
X14084706Y-15108698D01*
X14084706Y-15108698D02*
X14084706Y-15184888D01*
X14084706Y-15184888D02*
X14094229Y-15203936D01*
X14094229Y-15203936D02*
X14103753Y-15213460D01*
X14103753Y-15213460D02*
X14122801Y-15222984D01*
X14122801Y-15222984D02*
X14160896Y-15222984D01*
X14160896Y-15222984D02*
X14179944Y-15213460D01*
X14179944Y-15213460D02*
X14189468Y-15203936D01*
X14189468Y-15203936D02*
X14198991Y-15184888D01*
X14198991Y-15184888D02*
X14198991Y-15137269D01*
X14198991Y-15137269D02*
X14189468Y-15118222D01*
X14189468Y-15118222D02*
X14179944Y-15108698D01*
X14179944Y-15108698D02*
X14160896Y-15099174D01*
X14160896Y-15099174D02*
X14122801Y-15099174D01*
X14122801Y-15099174D02*
X14103753Y-15108698D01*
X14103753Y-15108698D02*
X14094229Y-15118222D01*
X14094229Y-15118222D02*
X14084706Y-15137269D01*
X14437087Y-15222984D02*
X14437087Y-15022984D01*
X14522801Y-15222984D02*
X14522801Y-15118222D01*
X14522801Y-15118222D02*
X14513277Y-15099174D01*
X14513277Y-15099174D02*
X14494230Y-15089650D01*
X14494230Y-15089650D02*
X14465658Y-15089650D01*
X14465658Y-15089650D02*
X14446610Y-15099174D01*
X14446610Y-15099174D02*
X14437087Y-15108698D01*
X14646610Y-15222984D02*
X14627563Y-15213460D01*
X14627563Y-15213460D02*
X14618039Y-15203936D01*
X14618039Y-15203936D02*
X14608515Y-15184888D01*
X14608515Y-15184888D02*
X14608515Y-15127746D01*
X14608515Y-15127746D02*
X14618039Y-15108698D01*
X14618039Y-15108698D02*
X14627563Y-15099174D01*
X14627563Y-15099174D02*
X14646610Y-15089650D01*
X14646610Y-15089650D02*
X14675182Y-15089650D01*
X14675182Y-15089650D02*
X14694230Y-15099174D01*
X14694230Y-15099174D02*
X14703753Y-15108698D01*
X14703753Y-15108698D02*
X14713277Y-15127746D01*
X14713277Y-15127746D02*
X14713277Y-15184888D01*
X14713277Y-15184888D02*
X14703753Y-15203936D01*
X14703753Y-15203936D02*
X14694230Y-15213460D01*
X14694230Y-15213460D02*
X14675182Y-15222984D01*
X14675182Y-15222984D02*
X14646610Y-15222984D01*
X14827563Y-15222984D02*
X14808515Y-15213460D01*
X14808515Y-15213460D02*
X14798991Y-15194412D01*
X14798991Y-15194412D02*
X14798991Y-15022984D01*
X14979944Y-15213460D02*
X14960896Y-15222984D01*
X14960896Y-15222984D02*
X14922801Y-15222984D01*
X14922801Y-15222984D02*
X14903753Y-15213460D01*
X14903753Y-15213460D02*
X14894230Y-15194412D01*
X14894230Y-15194412D02*
X14894230Y-15118222D01*
X14894230Y-15118222D02*
X14903753Y-15099174D01*
X14903753Y-15099174D02*
X14922801Y-15089650D01*
X14922801Y-15089650D02*
X14960896Y-15089650D01*
X14960896Y-15089650D02*
X14979944Y-15099174D01*
X14979944Y-15099174D02*
X14989468Y-15118222D01*
X14989468Y-15118222D02*
X14989468Y-15137269D01*
X14989468Y-15137269D02*
X14894230Y-15156317D01*
X15065658Y-15213460D02*
X15084706Y-15222984D01*
X15084706Y-15222984D02*
X15122801Y-15222984D01*
X15122801Y-15222984D02*
X15141849Y-15213460D01*
X15141849Y-15213460D02*
X15151372Y-15194412D01*
X15151372Y-15194412D02*
X15151372Y-15184888D01*
X15151372Y-15184888D02*
X15141849Y-15165841D01*
X15141849Y-15165841D02*
X15122801Y-15156317D01*
X15122801Y-15156317D02*
X15094230Y-15156317D01*
X15094230Y-15156317D02*
X15075182Y-15146793D01*
X15075182Y-15146793D02*
X15065658Y-15127746D01*
X15065658Y-15127746D02*
X15065658Y-15118222D01*
X15065658Y-15118222D02*
X15075182Y-15099174D01*
X15075182Y-15099174D02*
X15094230Y-15089650D01*
X15094230Y-15089650D02*
X15122801Y-15089650D01*
X15122801Y-15089650D02*
X15141849Y-15099174D01*
X15218039Y-15299174D02*
X15227563Y-15289650D01*
X15227563Y-15289650D02*
X15246611Y-15261079D01*
X15246611Y-15261079D02*
X15256134Y-15242031D01*
X15256134Y-15242031D02*
X15265658Y-15213460D01*
X15265658Y-15213460D02*
X15275182Y-15165841D01*
X15275182Y-15165841D02*
X15275182Y-15127746D01*
X15275182Y-15127746D02*
X15265658Y-15080127D01*
X15265658Y-15080127D02*
X15256134Y-15051555D01*
X15256134Y-15051555D02*
X15246611Y-15032508D01*
X15246611Y-15032508D02*
X15227563Y-15003936D01*
X15227563Y-15003936D02*
X15218039Y-14994412D01*
X15579944Y-15299174D02*
X15570420Y-15289650D01*
X15570420Y-15289650D02*
X15551372Y-15261079D01*
X15551372Y-15261079D02*
X15541849Y-15242031D01*
X15541849Y-15242031D02*
X15532325Y-15213460D01*
X15532325Y-15213460D02*
X15522801Y-15165841D01*
X15522801Y-15165841D02*
X15522801Y-15127746D01*
X15522801Y-15127746D02*
X15532325Y-15080127D01*
X15532325Y-15080127D02*
X15541849Y-15051555D01*
X15541849Y-15051555D02*
X15551372Y-15032508D01*
X15551372Y-15032508D02*
X15570420Y-15003936D01*
X15570420Y-15003936D02*
X15579944Y-14994412D01*
X15656134Y-15089650D02*
X15656134Y-15222984D01*
X15656134Y-15108698D02*
X15665658Y-15099174D01*
X15665658Y-15099174D02*
X15684706Y-15089650D01*
X15684706Y-15089650D02*
X15713277Y-15089650D01*
X15713277Y-15089650D02*
X15732325Y-15099174D01*
X15732325Y-15099174D02*
X15741849Y-15118222D01*
X15741849Y-15118222D02*
X15741849Y-15222984D01*
X15865658Y-15222984D02*
X15846611Y-15213460D01*
X15846611Y-15213460D02*
X15837087Y-15203936D01*
X15837087Y-15203936D02*
X15827563Y-15184888D01*
X15827563Y-15184888D02*
X15827563Y-15127746D01*
X15827563Y-15127746D02*
X15837087Y-15108698D01*
X15837087Y-15108698D02*
X15846611Y-15099174D01*
X15846611Y-15099174D02*
X15865658Y-15089650D01*
X15865658Y-15089650D02*
X15894230Y-15089650D01*
X15894230Y-15089650D02*
X15913277Y-15099174D01*
X15913277Y-15099174D02*
X15922801Y-15108698D01*
X15922801Y-15108698D02*
X15932325Y-15127746D01*
X15932325Y-15127746D02*
X15932325Y-15184888D01*
X15932325Y-15184888D02*
X15922801Y-15203936D01*
X15922801Y-15203936D02*
X15913277Y-15213460D01*
X15913277Y-15213460D02*
X15894230Y-15222984D01*
X15894230Y-15222984D02*
X15865658Y-15222984D01*
X15989468Y-15089650D02*
X16065658Y-15089650D01*
X16018039Y-15022984D02*
X16018039Y-15194412D01*
X16018039Y-15194412D02*
X16027563Y-15213460D01*
X16027563Y-15213460D02*
X16046611Y-15222984D01*
X16046611Y-15222984D02*
X16065658Y-15222984D01*
X16284706Y-15089650D02*
X16284706Y-15289650D01*
X16284706Y-15099174D02*
X16303753Y-15089650D01*
X16303753Y-15089650D02*
X16341849Y-15089650D01*
X16341849Y-15089650D02*
X16360896Y-15099174D01*
X16360896Y-15099174D02*
X16370420Y-15108698D01*
X16370420Y-15108698D02*
X16379944Y-15127746D01*
X16379944Y-15127746D02*
X16379944Y-15184888D01*
X16379944Y-15184888D02*
X16370420Y-15203936D01*
X16370420Y-15203936D02*
X16360896Y-15213460D01*
X16360896Y-15213460D02*
X16341849Y-15222984D01*
X16341849Y-15222984D02*
X16303753Y-15222984D01*
X16303753Y-15222984D02*
X16284706Y-15213460D01*
X16494230Y-15222984D02*
X16475182Y-15213460D01*
X16475182Y-15213460D02*
X16465658Y-15194412D01*
X16465658Y-15194412D02*
X16465658Y-15022984D01*
X16656134Y-15222984D02*
X16656134Y-15118222D01*
X16656134Y-15118222D02*
X16646611Y-15099174D01*
X16646611Y-15099174D02*
X16627563Y-15089650D01*
X16627563Y-15089650D02*
X16589468Y-15089650D01*
X16589468Y-15089650D02*
X16570420Y-15099174D01*
X16656134Y-15213460D02*
X16637087Y-15222984D01*
X16637087Y-15222984D02*
X16589468Y-15222984D01*
X16589468Y-15222984D02*
X16570420Y-15213460D01*
X16570420Y-15213460D02*
X16560896Y-15194412D01*
X16560896Y-15194412D02*
X16560896Y-15175365D01*
X16560896Y-15175365D02*
X16570420Y-15156317D01*
X16570420Y-15156317D02*
X16589468Y-15146793D01*
X16589468Y-15146793D02*
X16637087Y-15146793D01*
X16637087Y-15146793D02*
X16656134Y-15137269D01*
X16722801Y-15089650D02*
X16798992Y-15089650D01*
X16751373Y-15022984D02*
X16751373Y-15194412D01*
X16751373Y-15194412D02*
X16760896Y-15213460D01*
X16760896Y-15213460D02*
X16779944Y-15222984D01*
X16779944Y-15222984D02*
X16798992Y-15222984D01*
X16941849Y-15213460D02*
X16922801Y-15222984D01*
X16922801Y-15222984D02*
X16884706Y-15222984D01*
X16884706Y-15222984D02*
X16865658Y-15213460D01*
X16865658Y-15213460D02*
X16856135Y-15194412D01*
X16856135Y-15194412D02*
X16856135Y-15118222D01*
X16856135Y-15118222D02*
X16865658Y-15099174D01*
X16865658Y-15099174D02*
X16884706Y-15089650D01*
X16884706Y-15089650D02*
X16922801Y-15089650D01*
X16922801Y-15089650D02*
X16941849Y-15099174D01*
X16941849Y-15099174D02*
X16951373Y-15118222D01*
X16951373Y-15118222D02*
X16951373Y-15137269D01*
X16951373Y-15137269D02*
X16856135Y-15156317D01*
X17122801Y-15222984D02*
X17122801Y-15022984D01*
X17122801Y-15213460D02*
X17103754Y-15222984D01*
X17103754Y-15222984D02*
X17065658Y-15222984D01*
X17065658Y-15222984D02*
X17046611Y-15213460D01*
X17046611Y-15213460D02*
X17037087Y-15203936D01*
X17037087Y-15203936D02*
X17027563Y-15184888D01*
X17027563Y-15184888D02*
X17027563Y-15127746D01*
X17027563Y-15127746D02*
X17037087Y-15108698D01*
X17037087Y-15108698D02*
X17046611Y-15099174D01*
X17046611Y-15099174D02*
X17065658Y-15089650D01*
X17065658Y-15089650D02*
X17103754Y-15089650D01*
X17103754Y-15089650D02*
X17122801Y-15099174D01*
X17198992Y-15299174D02*
X17208516Y-15289650D01*
X17208516Y-15289650D02*
X17227563Y-15261079D01*
X17227563Y-15261079D02*
X17237087Y-15242031D01*
X17237087Y-15242031D02*
X17246611Y-15213460D01*
X17246611Y-15213460D02*
X17256135Y-15165841D01*
X17256135Y-15165841D02*
X17256135Y-15127746D01*
X17256135Y-15127746D02*
X17246611Y-15080127D01*
X17246611Y-15080127D02*
X17237087Y-15051555D01*
X17237087Y-15051555D02*
X17227563Y-15032508D01*
X17227563Y-15032508D02*
X17208516Y-15003936D01*
X17208516Y-15003936D02*
X17198992Y-14994412D01*
X10223211Y-15522211D02*
X10223211Y-15380789D01*
X10081789Y-15380789D01*
X10081789Y-15522211D01*
X10223211Y-15522211D01*
X10494229Y-15342984D02*
X10618039Y-15342984D01*
X10618039Y-15342984D02*
X10551372Y-15419174D01*
X10551372Y-15419174D02*
X10579944Y-15419174D01*
X10579944Y-15419174D02*
X10598991Y-15428698D01*
X10598991Y-15428698D02*
X10608515Y-15438222D01*
X10608515Y-15438222D02*
X10618039Y-15457269D01*
X10618039Y-15457269D02*
X10618039Y-15504888D01*
X10618039Y-15504888D02*
X10608515Y-15523936D01*
X10608515Y-15523936D02*
X10598991Y-15533460D01*
X10598991Y-15533460D02*
X10579944Y-15542984D01*
X10579944Y-15542984D02*
X10522801Y-15542984D01*
X10522801Y-15542984D02*
X10503753Y-15533460D01*
X10503753Y-15533460D02*
X10494229Y-15523936D01*
X10703753Y-15523936D02*
X10713277Y-15533460D01*
X10713277Y-15533460D02*
X10703753Y-15542984D01*
X10703753Y-15542984D02*
X10694229Y-15533460D01*
X10694229Y-15533460D02*
X10703753Y-15523936D01*
X10703753Y-15523936D02*
X10703753Y-15542984D01*
X10789467Y-15362031D02*
X10798991Y-15352508D01*
X10798991Y-15352508D02*
X10818039Y-15342984D01*
X10818039Y-15342984D02*
X10865658Y-15342984D01*
X10865658Y-15342984D02*
X10884705Y-15352508D01*
X10884705Y-15352508D02*
X10894229Y-15362031D01*
X10894229Y-15362031D02*
X10903753Y-15381079D01*
X10903753Y-15381079D02*
X10903753Y-15400127D01*
X10903753Y-15400127D02*
X10894229Y-15428698D01*
X10894229Y-15428698D02*
X10779944Y-15542984D01*
X10779944Y-15542984D02*
X10903753Y-15542984D01*
X11027563Y-15342984D02*
X11046610Y-15342984D01*
X11046610Y-15342984D02*
X11065658Y-15352508D01*
X11065658Y-15352508D02*
X11075182Y-15362031D01*
X11075182Y-15362031D02*
X11084705Y-15381079D01*
X11084705Y-15381079D02*
X11094229Y-15419174D01*
X11094229Y-15419174D02*
X11094229Y-15466793D01*
X11094229Y-15466793D02*
X11084705Y-15504888D01*
X11084705Y-15504888D02*
X11075182Y-15523936D01*
X11075182Y-15523936D02*
X11065658Y-15533460D01*
X11065658Y-15533460D02*
X11046610Y-15542984D01*
X11046610Y-15542984D02*
X11027563Y-15542984D01*
X11027563Y-15542984D02*
X11008515Y-15533460D01*
X11008515Y-15533460D02*
X10998991Y-15523936D01*
X10998991Y-15523936D02*
X10989467Y-15504888D01*
X10989467Y-15504888D02*
X10979944Y-15466793D01*
X10979944Y-15466793D02*
X10979944Y-15419174D01*
X10979944Y-15419174D02*
X10989467Y-15381079D01*
X10989467Y-15381079D02*
X10998991Y-15362031D01*
X10998991Y-15362031D02*
X11008515Y-15352508D01*
X11008515Y-15352508D02*
X11027563Y-15342984D01*
X11218039Y-15342984D02*
X11237086Y-15342984D01*
X11237086Y-15342984D02*
X11256134Y-15352508D01*
X11256134Y-15352508D02*
X11265658Y-15362031D01*
X11265658Y-15362031D02*
X11275182Y-15381079D01*
X11275182Y-15381079D02*
X11284705Y-15419174D01*
X11284705Y-15419174D02*
X11284705Y-15466793D01*
X11284705Y-15466793D02*
X11275182Y-15504888D01*
X11275182Y-15504888D02*
X11265658Y-15523936D01*
X11265658Y-15523936D02*
X11256134Y-15533460D01*
X11256134Y-15533460D02*
X11237086Y-15542984D01*
X11237086Y-15542984D02*
X11218039Y-15542984D01*
X11218039Y-15542984D02*
X11198991Y-15533460D01*
X11198991Y-15533460D02*
X11189467Y-15523936D01*
X11189467Y-15523936D02*
X11179944Y-15504888D01*
X11179944Y-15504888D02*
X11170420Y-15466793D01*
X11170420Y-15466793D02*
X11170420Y-15419174D01*
X11170420Y-15419174D02*
X11179944Y-15381079D01*
X11179944Y-15381079D02*
X11189467Y-15362031D01*
X11189467Y-15362031D02*
X11198991Y-15352508D01*
X11198991Y-15352508D02*
X11218039Y-15342984D01*
X11370420Y-15542984D02*
X11370420Y-15409650D01*
X11370420Y-15428698D02*
X11379943Y-15419174D01*
X11379943Y-15419174D02*
X11398991Y-15409650D01*
X11398991Y-15409650D02*
X11427563Y-15409650D01*
X11427563Y-15409650D02*
X11446610Y-15419174D01*
X11446610Y-15419174D02*
X11456134Y-15438222D01*
X11456134Y-15438222D02*
X11456134Y-15542984D01*
X11456134Y-15438222D02*
X11465658Y-15419174D01*
X11465658Y-15419174D02*
X11484705Y-15409650D01*
X11484705Y-15409650D02*
X11513277Y-15409650D01*
X11513277Y-15409650D02*
X11532324Y-15419174D01*
X11532324Y-15419174D02*
X11541848Y-15438222D01*
X11541848Y-15438222D02*
X11541848Y-15542984D01*
X11637086Y-15542984D02*
X11637086Y-15409650D01*
X11637086Y-15428698D02*
X11646610Y-15419174D01*
X11646610Y-15419174D02*
X11665658Y-15409650D01*
X11665658Y-15409650D02*
X11694229Y-15409650D01*
X11694229Y-15409650D02*
X11713277Y-15419174D01*
X11713277Y-15419174D02*
X11722801Y-15438222D01*
X11722801Y-15438222D02*
X11722801Y-15542984D01*
X11722801Y-15438222D02*
X11732324Y-15419174D01*
X11732324Y-15419174D02*
X11751372Y-15409650D01*
X11751372Y-15409650D02*
X11779943Y-15409650D01*
X11779943Y-15409650D02*
X11798991Y-15419174D01*
X11798991Y-15419174D02*
X11808515Y-15438222D01*
X11808515Y-15438222D02*
X11808515Y-15542984D01*
X12198991Y-15333460D02*
X12027563Y-15590603D01*
X12456134Y-15342984D02*
X12475182Y-15342984D01*
X12475182Y-15342984D02*
X12494229Y-15352508D01*
X12494229Y-15352508D02*
X12503753Y-15362031D01*
X12503753Y-15362031D02*
X12513277Y-15381079D01*
X12513277Y-15381079D02*
X12522801Y-15419174D01*
X12522801Y-15419174D02*
X12522801Y-15466793D01*
X12522801Y-15466793D02*
X12513277Y-15504888D01*
X12513277Y-15504888D02*
X12503753Y-15523936D01*
X12503753Y-15523936D02*
X12494229Y-15533460D01*
X12494229Y-15533460D02*
X12475182Y-15542984D01*
X12475182Y-15542984D02*
X12456134Y-15542984D01*
X12456134Y-15542984D02*
X12437086Y-15533460D01*
X12437086Y-15533460D02*
X12427563Y-15523936D01*
X12427563Y-15523936D02*
X12418039Y-15504888D01*
X12418039Y-15504888D02*
X12408515Y-15466793D01*
X12408515Y-15466793D02*
X12408515Y-15419174D01*
X12408515Y-15419174D02*
X12418039Y-15381079D01*
X12418039Y-15381079D02*
X12427563Y-15362031D01*
X12427563Y-15362031D02*
X12437086Y-15352508D01*
X12437086Y-15352508D02*
X12456134Y-15342984D01*
X12608515Y-15523936D02*
X12618039Y-15533460D01*
X12618039Y-15533460D02*
X12608515Y-15542984D01*
X12608515Y-15542984D02*
X12598991Y-15533460D01*
X12598991Y-15533460D02*
X12608515Y-15523936D01*
X12608515Y-15523936D02*
X12608515Y-15542984D01*
X12808515Y-15542984D02*
X12694229Y-15542984D01*
X12751372Y-15542984D02*
X12751372Y-15342984D01*
X12751372Y-15342984D02*
X12732325Y-15371555D01*
X12732325Y-15371555D02*
X12713277Y-15390603D01*
X12713277Y-15390603D02*
X12694229Y-15400127D01*
X12884706Y-15362031D02*
X12894229Y-15352508D01*
X12894229Y-15352508D02*
X12913277Y-15342984D01*
X12913277Y-15342984D02*
X12960896Y-15342984D01*
X12960896Y-15342984D02*
X12979944Y-15352508D01*
X12979944Y-15352508D02*
X12989467Y-15362031D01*
X12989467Y-15362031D02*
X12998991Y-15381079D01*
X12998991Y-15381079D02*
X12998991Y-15400127D01*
X12998991Y-15400127D02*
X12989467Y-15428698D01*
X12989467Y-15428698D02*
X12875182Y-15542984D01*
X12875182Y-15542984D02*
X12998991Y-15542984D01*
X13170420Y-15342984D02*
X13132325Y-15342984D01*
X13132325Y-15342984D02*
X13113277Y-15352508D01*
X13113277Y-15352508D02*
X13103753Y-15362031D01*
X13103753Y-15362031D02*
X13084706Y-15390603D01*
X13084706Y-15390603D02*
X13075182Y-15428698D01*
X13075182Y-15428698D02*
X13075182Y-15504888D01*
X13075182Y-15504888D02*
X13084706Y-15523936D01*
X13084706Y-15523936D02*
X13094229Y-15533460D01*
X13094229Y-15533460D02*
X13113277Y-15542984D01*
X13113277Y-15542984D02*
X13151372Y-15542984D01*
X13151372Y-15542984D02*
X13170420Y-15533460D01*
X13170420Y-15533460D02*
X13179944Y-15523936D01*
X13179944Y-15523936D02*
X13189467Y-15504888D01*
X13189467Y-15504888D02*
X13189467Y-15457269D01*
X13189467Y-15457269D02*
X13179944Y-15438222D01*
X13179944Y-15438222D02*
X13170420Y-15428698D01*
X13170420Y-15428698D02*
X13151372Y-15419174D01*
X13151372Y-15419174D02*
X13113277Y-15419174D01*
X13113277Y-15419174D02*
X13094229Y-15428698D01*
X13094229Y-15428698D02*
X13084706Y-15438222D01*
X13084706Y-15438222D02*
X13075182Y-15457269D01*
X13313277Y-15342984D02*
X13332325Y-15342984D01*
X13332325Y-15342984D02*
X13351372Y-15352508D01*
X13351372Y-15352508D02*
X13360896Y-15362031D01*
X13360896Y-15362031D02*
X13370420Y-15381079D01*
X13370420Y-15381079D02*
X13379944Y-15419174D01*
X13379944Y-15419174D02*
X13379944Y-15466793D01*
X13379944Y-15466793D02*
X13370420Y-15504888D01*
X13370420Y-15504888D02*
X13360896Y-15523936D01*
X13360896Y-15523936D02*
X13351372Y-15533460D01*
X13351372Y-15533460D02*
X13332325Y-15542984D01*
X13332325Y-15542984D02*
X13313277Y-15542984D01*
X13313277Y-15542984D02*
X13294229Y-15533460D01*
X13294229Y-15533460D02*
X13284706Y-15523936D01*
X13284706Y-15523936D02*
X13275182Y-15504888D01*
X13275182Y-15504888D02*
X13265658Y-15466793D01*
X13265658Y-15466793D02*
X13265658Y-15419174D01*
X13265658Y-15419174D02*
X13275182Y-15381079D01*
X13275182Y-15381079D02*
X13284706Y-15362031D01*
X13284706Y-15362031D02*
X13294229Y-15352508D01*
X13294229Y-15352508D02*
X13313277Y-15342984D01*
X13456134Y-15342984D02*
X13456134Y-15381079D01*
X13532325Y-15342984D02*
X13532325Y-15381079D01*
X13827563Y-15619174D02*
X13818039Y-15609650D01*
X13818039Y-15609650D02*
X13798991Y-15581079D01*
X13798991Y-15581079D02*
X13789468Y-15562031D01*
X13789468Y-15562031D02*
X13779944Y-15533460D01*
X13779944Y-15533460D02*
X13770420Y-15485841D01*
X13770420Y-15485841D02*
X13770420Y-15447746D01*
X13770420Y-15447746D02*
X13779944Y-15400127D01*
X13779944Y-15400127D02*
X13789468Y-15371555D01*
X13789468Y-15371555D02*
X13798991Y-15352508D01*
X13798991Y-15352508D02*
X13818039Y-15323936D01*
X13818039Y-15323936D02*
X13827563Y-15314412D01*
X13884706Y-15342984D02*
X14018039Y-15342984D01*
X14018039Y-15342984D02*
X13932325Y-15542984D01*
X14246610Y-15542984D02*
X14246610Y-15342984D01*
X14332325Y-15542984D02*
X14332325Y-15438222D01*
X14332325Y-15438222D02*
X14322801Y-15419174D01*
X14322801Y-15419174D02*
X14303753Y-15409650D01*
X14303753Y-15409650D02*
X14275182Y-15409650D01*
X14275182Y-15409650D02*
X14256134Y-15419174D01*
X14256134Y-15419174D02*
X14246610Y-15428698D01*
X14456134Y-15542984D02*
X14437087Y-15533460D01*
X14437087Y-15533460D02*
X14427563Y-15523936D01*
X14427563Y-15523936D02*
X14418039Y-15504888D01*
X14418039Y-15504888D02*
X14418039Y-15447746D01*
X14418039Y-15447746D02*
X14427563Y-15428698D01*
X14427563Y-15428698D02*
X14437087Y-15419174D01*
X14437087Y-15419174D02*
X14456134Y-15409650D01*
X14456134Y-15409650D02*
X14484706Y-15409650D01*
X14484706Y-15409650D02*
X14503753Y-15419174D01*
X14503753Y-15419174D02*
X14513277Y-15428698D01*
X14513277Y-15428698D02*
X14522801Y-15447746D01*
X14522801Y-15447746D02*
X14522801Y-15504888D01*
X14522801Y-15504888D02*
X14513277Y-15523936D01*
X14513277Y-15523936D02*
X14503753Y-15533460D01*
X14503753Y-15533460D02*
X14484706Y-15542984D01*
X14484706Y-15542984D02*
X14456134Y-15542984D01*
X14637087Y-15542984D02*
X14618039Y-15533460D01*
X14618039Y-15533460D02*
X14608515Y-15514412D01*
X14608515Y-15514412D02*
X14608515Y-15342984D01*
X14789468Y-15533460D02*
X14770420Y-15542984D01*
X14770420Y-15542984D02*
X14732325Y-15542984D01*
X14732325Y-15542984D02*
X14713277Y-15533460D01*
X14713277Y-15533460D02*
X14703753Y-15514412D01*
X14703753Y-15514412D02*
X14703753Y-15438222D01*
X14703753Y-15438222D02*
X14713277Y-15419174D01*
X14713277Y-15419174D02*
X14732325Y-15409650D01*
X14732325Y-15409650D02*
X14770420Y-15409650D01*
X14770420Y-15409650D02*
X14789468Y-15419174D01*
X14789468Y-15419174D02*
X14798991Y-15438222D01*
X14798991Y-15438222D02*
X14798991Y-15457269D01*
X14798991Y-15457269D02*
X14703753Y-15476317D01*
X14875182Y-15533460D02*
X14894230Y-15542984D01*
X14894230Y-15542984D02*
X14932325Y-15542984D01*
X14932325Y-15542984D02*
X14951372Y-15533460D01*
X14951372Y-15533460D02*
X14960896Y-15514412D01*
X14960896Y-15514412D02*
X14960896Y-15504888D01*
X14960896Y-15504888D02*
X14951372Y-15485841D01*
X14951372Y-15485841D02*
X14932325Y-15476317D01*
X14932325Y-15476317D02*
X14903753Y-15476317D01*
X14903753Y-15476317D02*
X14884706Y-15466793D01*
X14884706Y-15466793D02*
X14875182Y-15447746D01*
X14875182Y-15447746D02*
X14875182Y-15438222D01*
X14875182Y-15438222D02*
X14884706Y-15419174D01*
X14884706Y-15419174D02*
X14903753Y-15409650D01*
X14903753Y-15409650D02*
X14932325Y-15409650D01*
X14932325Y-15409650D02*
X14951372Y-15419174D01*
X15027563Y-15619174D02*
X15037087Y-15609650D01*
X15037087Y-15609650D02*
X15056134Y-15581079D01*
X15056134Y-15581079D02*
X15065658Y-15562031D01*
X15065658Y-15562031D02*
X15075182Y-15533460D01*
X15075182Y-15533460D02*
X15084706Y-15485841D01*
X15084706Y-15485841D02*
X15084706Y-15447746D01*
X15084706Y-15447746D02*
X15075182Y-15400127D01*
X15075182Y-15400127D02*
X15065658Y-15371555D01*
X15065658Y-15371555D02*
X15056134Y-15352508D01*
X15056134Y-15352508D02*
X15037087Y-15323936D01*
X15037087Y-15323936D02*
X15027563Y-15314412D01*
X15389468Y-15619174D02*
X15379944Y-15609650D01*
X15379944Y-15609650D02*
X15360896Y-15581079D01*
X15360896Y-15581079D02*
X15351372Y-15562031D01*
X15351372Y-15562031D02*
X15341849Y-15533460D01*
X15341849Y-15533460D02*
X15332325Y-15485841D01*
X15332325Y-15485841D02*
X15332325Y-15447746D01*
X15332325Y-15447746D02*
X15341849Y-15400127D01*
X15341849Y-15400127D02*
X15351372Y-15371555D01*
X15351372Y-15371555D02*
X15360896Y-15352508D01*
X15360896Y-15352508D02*
X15379944Y-15323936D01*
X15379944Y-15323936D02*
X15389468Y-15314412D01*
X15465658Y-15409650D02*
X15465658Y-15542984D01*
X15465658Y-15428698D02*
X15475182Y-15419174D01*
X15475182Y-15419174D02*
X15494230Y-15409650D01*
X15494230Y-15409650D02*
X15522801Y-15409650D01*
X15522801Y-15409650D02*
X15541849Y-15419174D01*
X15541849Y-15419174D02*
X15551372Y-15438222D01*
X15551372Y-15438222D02*
X15551372Y-15542984D01*
X15675182Y-15542984D02*
X15656134Y-15533460D01*
X15656134Y-15533460D02*
X15646611Y-15523936D01*
X15646611Y-15523936D02*
X15637087Y-15504888D01*
X15637087Y-15504888D02*
X15637087Y-15447746D01*
X15637087Y-15447746D02*
X15646611Y-15428698D01*
X15646611Y-15428698D02*
X15656134Y-15419174D01*
X15656134Y-15419174D02*
X15675182Y-15409650D01*
X15675182Y-15409650D02*
X15703753Y-15409650D01*
X15703753Y-15409650D02*
X15722801Y-15419174D01*
X15722801Y-15419174D02*
X15732325Y-15428698D01*
X15732325Y-15428698D02*
X15741849Y-15447746D01*
X15741849Y-15447746D02*
X15741849Y-15504888D01*
X15741849Y-15504888D02*
X15732325Y-15523936D01*
X15732325Y-15523936D02*
X15722801Y-15533460D01*
X15722801Y-15533460D02*
X15703753Y-15542984D01*
X15703753Y-15542984D02*
X15675182Y-15542984D01*
X15798992Y-15409650D02*
X15875182Y-15409650D01*
X15827563Y-15342984D02*
X15827563Y-15514412D01*
X15827563Y-15514412D02*
X15837087Y-15533460D01*
X15837087Y-15533460D02*
X15856134Y-15542984D01*
X15856134Y-15542984D02*
X15875182Y-15542984D01*
X16094230Y-15409650D02*
X16094230Y-15609650D01*
X16094230Y-15419174D02*
X16113277Y-15409650D01*
X16113277Y-15409650D02*
X16151373Y-15409650D01*
X16151373Y-15409650D02*
X16170420Y-15419174D01*
X16170420Y-15419174D02*
X16179944Y-15428698D01*
X16179944Y-15428698D02*
X16189468Y-15447746D01*
X16189468Y-15447746D02*
X16189468Y-15504888D01*
X16189468Y-15504888D02*
X16179944Y-15523936D01*
X16179944Y-15523936D02*
X16170420Y-15533460D01*
X16170420Y-15533460D02*
X16151373Y-15542984D01*
X16151373Y-15542984D02*
X16113277Y-15542984D01*
X16113277Y-15542984D02*
X16094230Y-15533460D01*
X16303753Y-15542984D02*
X16284706Y-15533460D01*
X16284706Y-15533460D02*
X16275182Y-15514412D01*
X16275182Y-15514412D02*
X16275182Y-15342984D01*
X16465658Y-15542984D02*
X16465658Y-15438222D01*
X16465658Y-15438222D02*
X16456134Y-15419174D01*
X16456134Y-15419174D02*
X16437087Y-15409650D01*
X16437087Y-15409650D02*
X16398992Y-15409650D01*
X16398992Y-15409650D02*
X16379944Y-15419174D01*
X16465658Y-15533460D02*
X16446611Y-15542984D01*
X16446611Y-15542984D02*
X16398992Y-15542984D01*
X16398992Y-15542984D02*
X16379944Y-15533460D01*
X16379944Y-15533460D02*
X16370420Y-15514412D01*
X16370420Y-15514412D02*
X16370420Y-15495365D01*
X16370420Y-15495365D02*
X16379944Y-15476317D01*
X16379944Y-15476317D02*
X16398992Y-15466793D01*
X16398992Y-15466793D02*
X16446611Y-15466793D01*
X16446611Y-15466793D02*
X16465658Y-15457269D01*
X16532325Y-15409650D02*
X16608515Y-15409650D01*
X16560896Y-15342984D02*
X16560896Y-15514412D01*
X16560896Y-15514412D02*
X16570420Y-15533460D01*
X16570420Y-15533460D02*
X16589468Y-15542984D01*
X16589468Y-15542984D02*
X16608515Y-15542984D01*
X16751373Y-15533460D02*
X16732325Y-15542984D01*
X16732325Y-15542984D02*
X16694230Y-15542984D01*
X16694230Y-15542984D02*
X16675182Y-15533460D01*
X16675182Y-15533460D02*
X16665658Y-15514412D01*
X16665658Y-15514412D02*
X16665658Y-15438222D01*
X16665658Y-15438222D02*
X16675182Y-15419174D01*
X16675182Y-15419174D02*
X16694230Y-15409650D01*
X16694230Y-15409650D02*
X16732325Y-15409650D01*
X16732325Y-15409650D02*
X16751373Y-15419174D01*
X16751373Y-15419174D02*
X16760896Y-15438222D01*
X16760896Y-15438222D02*
X16760896Y-15457269D01*
X16760896Y-15457269D02*
X16665658Y-15476317D01*
X16932325Y-15542984D02*
X16932325Y-15342984D01*
X16932325Y-15533460D02*
X16913277Y-15542984D01*
X16913277Y-15542984D02*
X16875182Y-15542984D01*
X16875182Y-15542984D02*
X16856135Y-15533460D01*
X16856135Y-15533460D02*
X16846611Y-15523936D01*
X16846611Y-15523936D02*
X16837087Y-15504888D01*
X16837087Y-15504888D02*
X16837087Y-15447746D01*
X16837087Y-15447746D02*
X16846611Y-15428698D01*
X16846611Y-15428698D02*
X16856135Y-15419174D01*
X16856135Y-15419174D02*
X16875182Y-15409650D01*
X16875182Y-15409650D02*
X16913277Y-15409650D01*
X16913277Y-15409650D02*
X16932325Y-15419174D01*
X17008516Y-15619174D02*
X17018039Y-15609650D01*
X17018039Y-15609650D02*
X17037087Y-15581079D01*
X17037087Y-15581079D02*
X17046611Y-15562031D01*
X17046611Y-15562031D02*
X17056135Y-15533460D01*
X17056135Y-15533460D02*
X17065658Y-15485841D01*
X17065658Y-15485841D02*
X17065658Y-15447746D01*
X17065658Y-15447746D02*
X17056135Y-15400127D01*
X17056135Y-15400127D02*
X17046611Y-15371555D01*
X17046611Y-15371555D02*
X17037087Y-15352508D01*
X17037087Y-15352508D02*
X17018039Y-15323936D01*
X17018039Y-15323936D02*
X17008516Y-15314412D01*
X10152500Y-15871500D02*
X10252500Y-15771500D01*
X10152500Y-15671500D01*
X10052500Y-15771500D01*
X10152500Y-15871500D01*
X10598991Y-15729650D02*
X10598991Y-15862984D01*
X10551372Y-15653460D02*
X10503753Y-15796317D01*
X10503753Y-15796317D02*
X10627563Y-15796317D01*
X10703753Y-15843936D02*
X10713277Y-15853460D01*
X10713277Y-15853460D02*
X10703753Y-15862984D01*
X10703753Y-15862984D02*
X10694229Y-15853460D01*
X10694229Y-15853460D02*
X10703753Y-15843936D01*
X10703753Y-15843936D02*
X10703753Y-15862984D01*
X10837086Y-15662984D02*
X10856134Y-15662984D01*
X10856134Y-15662984D02*
X10875182Y-15672508D01*
X10875182Y-15672508D02*
X10884705Y-15682031D01*
X10884705Y-15682031D02*
X10894229Y-15701079D01*
X10894229Y-15701079D02*
X10903753Y-15739174D01*
X10903753Y-15739174D02*
X10903753Y-15786793D01*
X10903753Y-15786793D02*
X10894229Y-15824888D01*
X10894229Y-15824888D02*
X10884705Y-15843936D01*
X10884705Y-15843936D02*
X10875182Y-15853460D01*
X10875182Y-15853460D02*
X10856134Y-15862984D01*
X10856134Y-15862984D02*
X10837086Y-15862984D01*
X10837086Y-15862984D02*
X10818039Y-15853460D01*
X10818039Y-15853460D02*
X10808515Y-15843936D01*
X10808515Y-15843936D02*
X10798991Y-15824888D01*
X10798991Y-15824888D02*
X10789467Y-15786793D01*
X10789467Y-15786793D02*
X10789467Y-15739174D01*
X10789467Y-15739174D02*
X10798991Y-15701079D01*
X10798991Y-15701079D02*
X10808515Y-15682031D01*
X10808515Y-15682031D02*
X10818039Y-15672508D01*
X10818039Y-15672508D02*
X10837086Y-15662984D01*
X11027563Y-15662984D02*
X11046610Y-15662984D01*
X11046610Y-15662984D02*
X11065658Y-15672508D01*
X11065658Y-15672508D02*
X11075182Y-15682031D01*
X11075182Y-15682031D02*
X11084705Y-15701079D01*
X11084705Y-15701079D02*
X11094229Y-15739174D01*
X11094229Y-15739174D02*
X11094229Y-15786793D01*
X11094229Y-15786793D02*
X11084705Y-15824888D01*
X11084705Y-15824888D02*
X11075182Y-15843936D01*
X11075182Y-15843936D02*
X11065658Y-15853460D01*
X11065658Y-15853460D02*
X11046610Y-15862984D01*
X11046610Y-15862984D02*
X11027563Y-15862984D01*
X11027563Y-15862984D02*
X11008515Y-15853460D01*
X11008515Y-15853460D02*
X10998991Y-15843936D01*
X10998991Y-15843936D02*
X10989467Y-15824888D01*
X10989467Y-15824888D02*
X10979944Y-15786793D01*
X10979944Y-15786793D02*
X10979944Y-15739174D01*
X10979944Y-15739174D02*
X10989467Y-15701079D01*
X10989467Y-15701079D02*
X10998991Y-15682031D01*
X10998991Y-15682031D02*
X11008515Y-15672508D01*
X11008515Y-15672508D02*
X11027563Y-15662984D01*
X11218039Y-15662984D02*
X11237086Y-15662984D01*
X11237086Y-15662984D02*
X11256134Y-15672508D01*
X11256134Y-15672508D02*
X11265658Y-15682031D01*
X11265658Y-15682031D02*
X11275182Y-15701079D01*
X11275182Y-15701079D02*
X11284705Y-15739174D01*
X11284705Y-15739174D02*
X11284705Y-15786793D01*
X11284705Y-15786793D02*
X11275182Y-15824888D01*
X11275182Y-15824888D02*
X11265658Y-15843936D01*
X11265658Y-15843936D02*
X11256134Y-15853460D01*
X11256134Y-15853460D02*
X11237086Y-15862984D01*
X11237086Y-15862984D02*
X11218039Y-15862984D01*
X11218039Y-15862984D02*
X11198991Y-15853460D01*
X11198991Y-15853460D02*
X11189467Y-15843936D01*
X11189467Y-15843936D02*
X11179944Y-15824888D01*
X11179944Y-15824888D02*
X11170420Y-15786793D01*
X11170420Y-15786793D02*
X11170420Y-15739174D01*
X11170420Y-15739174D02*
X11179944Y-15701079D01*
X11179944Y-15701079D02*
X11189467Y-15682031D01*
X11189467Y-15682031D02*
X11198991Y-15672508D01*
X11198991Y-15672508D02*
X11218039Y-15662984D01*
X11370420Y-15862984D02*
X11370420Y-15729650D01*
X11370420Y-15748698D02*
X11379943Y-15739174D01*
X11379943Y-15739174D02*
X11398991Y-15729650D01*
X11398991Y-15729650D02*
X11427563Y-15729650D01*
X11427563Y-15729650D02*
X11446610Y-15739174D01*
X11446610Y-15739174D02*
X11456134Y-15758222D01*
X11456134Y-15758222D02*
X11456134Y-15862984D01*
X11456134Y-15758222D02*
X11465658Y-15739174D01*
X11465658Y-15739174D02*
X11484705Y-15729650D01*
X11484705Y-15729650D02*
X11513277Y-15729650D01*
X11513277Y-15729650D02*
X11532324Y-15739174D01*
X11532324Y-15739174D02*
X11541848Y-15758222D01*
X11541848Y-15758222D02*
X11541848Y-15862984D01*
X11637086Y-15862984D02*
X11637086Y-15729650D01*
X11637086Y-15748698D02*
X11646610Y-15739174D01*
X11646610Y-15739174D02*
X11665658Y-15729650D01*
X11665658Y-15729650D02*
X11694229Y-15729650D01*
X11694229Y-15729650D02*
X11713277Y-15739174D01*
X11713277Y-15739174D02*
X11722801Y-15758222D01*
X11722801Y-15758222D02*
X11722801Y-15862984D01*
X11722801Y-15758222D02*
X11732324Y-15739174D01*
X11732324Y-15739174D02*
X11751372Y-15729650D01*
X11751372Y-15729650D02*
X11779943Y-15729650D01*
X11779943Y-15729650D02*
X11798991Y-15739174D01*
X11798991Y-15739174D02*
X11808515Y-15758222D01*
X11808515Y-15758222D02*
X11808515Y-15862984D01*
X12198991Y-15653460D02*
X12027563Y-15910603D01*
X12456134Y-15662984D02*
X12475182Y-15662984D01*
X12475182Y-15662984D02*
X12494229Y-15672508D01*
X12494229Y-15672508D02*
X12503753Y-15682031D01*
X12503753Y-15682031D02*
X12513277Y-15701079D01*
X12513277Y-15701079D02*
X12522801Y-15739174D01*
X12522801Y-15739174D02*
X12522801Y-15786793D01*
X12522801Y-15786793D02*
X12513277Y-15824888D01*
X12513277Y-15824888D02*
X12503753Y-15843936D01*
X12503753Y-15843936D02*
X12494229Y-15853460D01*
X12494229Y-15853460D02*
X12475182Y-15862984D01*
X12475182Y-15862984D02*
X12456134Y-15862984D01*
X12456134Y-15862984D02*
X12437086Y-15853460D01*
X12437086Y-15853460D02*
X12427563Y-15843936D01*
X12427563Y-15843936D02*
X12418039Y-15824888D01*
X12418039Y-15824888D02*
X12408515Y-15786793D01*
X12408515Y-15786793D02*
X12408515Y-15739174D01*
X12408515Y-15739174D02*
X12418039Y-15701079D01*
X12418039Y-15701079D02*
X12427563Y-15682031D01*
X12427563Y-15682031D02*
X12437086Y-15672508D01*
X12437086Y-15672508D02*
X12456134Y-15662984D01*
X12608515Y-15843936D02*
X12618039Y-15853460D01*
X12618039Y-15853460D02*
X12608515Y-15862984D01*
X12608515Y-15862984D02*
X12598991Y-15853460D01*
X12598991Y-15853460D02*
X12608515Y-15843936D01*
X12608515Y-15843936D02*
X12608515Y-15862984D01*
X12808515Y-15862984D02*
X12694229Y-15862984D01*
X12751372Y-15862984D02*
X12751372Y-15662984D01*
X12751372Y-15662984D02*
X12732325Y-15691555D01*
X12732325Y-15691555D02*
X12713277Y-15710603D01*
X12713277Y-15710603D02*
X12694229Y-15720127D01*
X12989467Y-15662984D02*
X12894229Y-15662984D01*
X12894229Y-15662984D02*
X12884706Y-15758222D01*
X12884706Y-15758222D02*
X12894229Y-15748698D01*
X12894229Y-15748698D02*
X12913277Y-15739174D01*
X12913277Y-15739174D02*
X12960896Y-15739174D01*
X12960896Y-15739174D02*
X12979944Y-15748698D01*
X12979944Y-15748698D02*
X12989467Y-15758222D01*
X12989467Y-15758222D02*
X12998991Y-15777269D01*
X12998991Y-15777269D02*
X12998991Y-15824888D01*
X12998991Y-15824888D02*
X12989467Y-15843936D01*
X12989467Y-15843936D02*
X12979944Y-15853460D01*
X12979944Y-15853460D02*
X12960896Y-15862984D01*
X12960896Y-15862984D02*
X12913277Y-15862984D01*
X12913277Y-15862984D02*
X12894229Y-15853460D01*
X12894229Y-15853460D02*
X12884706Y-15843936D01*
X13065658Y-15662984D02*
X13198991Y-15662984D01*
X13198991Y-15662984D02*
X13113277Y-15862984D01*
X13370420Y-15662984D02*
X13275182Y-15662984D01*
X13275182Y-15662984D02*
X13265658Y-15758222D01*
X13265658Y-15758222D02*
X13275182Y-15748698D01*
X13275182Y-15748698D02*
X13294229Y-15739174D01*
X13294229Y-15739174D02*
X13341848Y-15739174D01*
X13341848Y-15739174D02*
X13360896Y-15748698D01*
X13360896Y-15748698D02*
X13370420Y-15758222D01*
X13370420Y-15758222D02*
X13379944Y-15777269D01*
X13379944Y-15777269D02*
X13379944Y-15824888D01*
X13379944Y-15824888D02*
X13370420Y-15843936D01*
X13370420Y-15843936D02*
X13360896Y-15853460D01*
X13360896Y-15853460D02*
X13341848Y-15862984D01*
X13341848Y-15862984D02*
X13294229Y-15862984D01*
X13294229Y-15862984D02*
X13275182Y-15853460D01*
X13275182Y-15853460D02*
X13265658Y-15843936D01*
X13456134Y-15662984D02*
X13456134Y-15701079D01*
X13532325Y-15662984D02*
X13532325Y-15701079D01*
X13827563Y-15939174D02*
X13818039Y-15929650D01*
X13818039Y-15929650D02*
X13798991Y-15901079D01*
X13798991Y-15901079D02*
X13789468Y-15882031D01*
X13789468Y-15882031D02*
X13779944Y-15853460D01*
X13779944Y-15853460D02*
X13770420Y-15805841D01*
X13770420Y-15805841D02*
X13770420Y-15767746D01*
X13770420Y-15767746D02*
X13779944Y-15720127D01*
X13779944Y-15720127D02*
X13789468Y-15691555D01*
X13789468Y-15691555D02*
X13798991Y-15672508D01*
X13798991Y-15672508D02*
X13818039Y-15643936D01*
X13818039Y-15643936D02*
X13827563Y-15634412D01*
X14008515Y-15862984D02*
X13894229Y-15862984D01*
X13951372Y-15862984D02*
X13951372Y-15662984D01*
X13951372Y-15662984D02*
X13932325Y-15691555D01*
X13932325Y-15691555D02*
X13913277Y-15710603D01*
X13913277Y-15710603D02*
X13894229Y-15720127D01*
X14084706Y-15682031D02*
X14094229Y-15672508D01*
X14094229Y-15672508D02*
X14113277Y-15662984D01*
X14113277Y-15662984D02*
X14160896Y-15662984D01*
X14160896Y-15662984D02*
X14179944Y-15672508D01*
X14179944Y-15672508D02*
X14189468Y-15682031D01*
X14189468Y-15682031D02*
X14198991Y-15701079D01*
X14198991Y-15701079D02*
X14198991Y-15720127D01*
X14198991Y-15720127D02*
X14189468Y-15748698D01*
X14189468Y-15748698D02*
X14075182Y-15862984D01*
X14075182Y-15862984D02*
X14198991Y-15862984D01*
X14437087Y-15862984D02*
X14437087Y-15662984D01*
X14522801Y-15862984D02*
X14522801Y-15758222D01*
X14522801Y-15758222D02*
X14513277Y-15739174D01*
X14513277Y-15739174D02*
X14494230Y-15729650D01*
X14494230Y-15729650D02*
X14465658Y-15729650D01*
X14465658Y-15729650D02*
X14446610Y-15739174D01*
X14446610Y-15739174D02*
X14437087Y-15748698D01*
X14646610Y-15862984D02*
X14627563Y-15853460D01*
X14627563Y-15853460D02*
X14618039Y-15843936D01*
X14618039Y-15843936D02*
X14608515Y-15824888D01*
X14608515Y-15824888D02*
X14608515Y-15767746D01*
X14608515Y-15767746D02*
X14618039Y-15748698D01*
X14618039Y-15748698D02*
X14627563Y-15739174D01*
X14627563Y-15739174D02*
X14646610Y-15729650D01*
X14646610Y-15729650D02*
X14675182Y-15729650D01*
X14675182Y-15729650D02*
X14694230Y-15739174D01*
X14694230Y-15739174D02*
X14703753Y-15748698D01*
X14703753Y-15748698D02*
X14713277Y-15767746D01*
X14713277Y-15767746D02*
X14713277Y-15824888D01*
X14713277Y-15824888D02*
X14703753Y-15843936D01*
X14703753Y-15843936D02*
X14694230Y-15853460D01*
X14694230Y-15853460D02*
X14675182Y-15862984D01*
X14675182Y-15862984D02*
X14646610Y-15862984D01*
X14827563Y-15862984D02*
X14808515Y-15853460D01*
X14808515Y-15853460D02*
X14798991Y-15834412D01*
X14798991Y-15834412D02*
X14798991Y-15662984D01*
X14979944Y-15853460D02*
X14960896Y-15862984D01*
X14960896Y-15862984D02*
X14922801Y-15862984D01*
X14922801Y-15862984D02*
X14903753Y-15853460D01*
X14903753Y-15853460D02*
X14894230Y-15834412D01*
X14894230Y-15834412D02*
X14894230Y-15758222D01*
X14894230Y-15758222D02*
X14903753Y-15739174D01*
X14903753Y-15739174D02*
X14922801Y-15729650D01*
X14922801Y-15729650D02*
X14960896Y-15729650D01*
X14960896Y-15729650D02*
X14979944Y-15739174D01*
X14979944Y-15739174D02*
X14989468Y-15758222D01*
X14989468Y-15758222D02*
X14989468Y-15777269D01*
X14989468Y-15777269D02*
X14894230Y-15796317D01*
X15065658Y-15853460D02*
X15084706Y-15862984D01*
X15084706Y-15862984D02*
X15122801Y-15862984D01*
X15122801Y-15862984D02*
X15141849Y-15853460D01*
X15141849Y-15853460D02*
X15151372Y-15834412D01*
X15151372Y-15834412D02*
X15151372Y-15824888D01*
X15151372Y-15824888D02*
X15141849Y-15805841D01*
X15141849Y-15805841D02*
X15122801Y-15796317D01*
X15122801Y-15796317D02*
X15094230Y-15796317D01*
X15094230Y-15796317D02*
X15075182Y-15786793D01*
X15075182Y-15786793D02*
X15065658Y-15767746D01*
X15065658Y-15767746D02*
X15065658Y-15758222D01*
X15065658Y-15758222D02*
X15075182Y-15739174D01*
X15075182Y-15739174D02*
X15094230Y-15729650D01*
X15094230Y-15729650D02*
X15122801Y-15729650D01*
X15122801Y-15729650D02*
X15141849Y-15739174D01*
X15218039Y-15939174D02*
X15227563Y-15929650D01*
X15227563Y-15929650D02*
X15246611Y-15901079D01*
X15246611Y-15901079D02*
X15256134Y-15882031D01*
X15256134Y-15882031D02*
X15265658Y-15853460D01*
X15265658Y-15853460D02*
X15275182Y-15805841D01*
X15275182Y-15805841D02*
X15275182Y-15767746D01*
X15275182Y-15767746D02*
X15265658Y-15720127D01*
X15265658Y-15720127D02*
X15256134Y-15691555D01*
X15256134Y-15691555D02*
X15246611Y-15672508D01*
X15246611Y-15672508D02*
X15227563Y-15643936D01*
X15227563Y-15643936D02*
X15218039Y-15634412D01*
X15579944Y-15939174D02*
X15570420Y-15929650D01*
X15570420Y-15929650D02*
X15551372Y-15901079D01*
X15551372Y-15901079D02*
X15541849Y-15882031D01*
X15541849Y-15882031D02*
X15532325Y-15853460D01*
X15532325Y-15853460D02*
X15522801Y-15805841D01*
X15522801Y-15805841D02*
X15522801Y-15767746D01*
X15522801Y-15767746D02*
X15532325Y-15720127D01*
X15532325Y-15720127D02*
X15541849Y-15691555D01*
X15541849Y-15691555D02*
X15551372Y-15672508D01*
X15551372Y-15672508D02*
X15570420Y-15643936D01*
X15570420Y-15643936D02*
X15579944Y-15634412D01*
X15656134Y-15729650D02*
X15656134Y-15862984D01*
X15656134Y-15748698D02*
X15665658Y-15739174D01*
X15665658Y-15739174D02*
X15684706Y-15729650D01*
X15684706Y-15729650D02*
X15713277Y-15729650D01*
X15713277Y-15729650D02*
X15732325Y-15739174D01*
X15732325Y-15739174D02*
X15741849Y-15758222D01*
X15741849Y-15758222D02*
X15741849Y-15862984D01*
X15865658Y-15862984D02*
X15846611Y-15853460D01*
X15846611Y-15853460D02*
X15837087Y-15843936D01*
X15837087Y-15843936D02*
X15827563Y-15824888D01*
X15827563Y-15824888D02*
X15827563Y-15767746D01*
X15827563Y-15767746D02*
X15837087Y-15748698D01*
X15837087Y-15748698D02*
X15846611Y-15739174D01*
X15846611Y-15739174D02*
X15865658Y-15729650D01*
X15865658Y-15729650D02*
X15894230Y-15729650D01*
X15894230Y-15729650D02*
X15913277Y-15739174D01*
X15913277Y-15739174D02*
X15922801Y-15748698D01*
X15922801Y-15748698D02*
X15932325Y-15767746D01*
X15932325Y-15767746D02*
X15932325Y-15824888D01*
X15932325Y-15824888D02*
X15922801Y-15843936D01*
X15922801Y-15843936D02*
X15913277Y-15853460D01*
X15913277Y-15853460D02*
X15894230Y-15862984D01*
X15894230Y-15862984D02*
X15865658Y-15862984D01*
X15989468Y-15729650D02*
X16065658Y-15729650D01*
X16018039Y-15662984D02*
X16018039Y-15834412D01*
X16018039Y-15834412D02*
X16027563Y-15853460D01*
X16027563Y-15853460D02*
X16046611Y-15862984D01*
X16046611Y-15862984D02*
X16065658Y-15862984D01*
X16284706Y-15729650D02*
X16284706Y-15929650D01*
X16284706Y-15739174D02*
X16303753Y-15729650D01*
X16303753Y-15729650D02*
X16341849Y-15729650D01*
X16341849Y-15729650D02*
X16360896Y-15739174D01*
X16360896Y-15739174D02*
X16370420Y-15748698D01*
X16370420Y-15748698D02*
X16379944Y-15767746D01*
X16379944Y-15767746D02*
X16379944Y-15824888D01*
X16379944Y-15824888D02*
X16370420Y-15843936D01*
X16370420Y-15843936D02*
X16360896Y-15853460D01*
X16360896Y-15853460D02*
X16341849Y-15862984D01*
X16341849Y-15862984D02*
X16303753Y-15862984D01*
X16303753Y-15862984D02*
X16284706Y-15853460D01*
X16494230Y-15862984D02*
X16475182Y-15853460D01*
X16475182Y-15853460D02*
X16465658Y-15834412D01*
X16465658Y-15834412D02*
X16465658Y-15662984D01*
X16656134Y-15862984D02*
X16656134Y-15758222D01*
X16656134Y-15758222D02*
X16646611Y-15739174D01*
X16646611Y-15739174D02*
X16627563Y-15729650D01*
X16627563Y-15729650D02*
X16589468Y-15729650D01*
X16589468Y-15729650D02*
X16570420Y-15739174D01*
X16656134Y-15853460D02*
X16637087Y-15862984D01*
X16637087Y-15862984D02*
X16589468Y-15862984D01*
X16589468Y-15862984D02*
X16570420Y-15853460D01*
X16570420Y-15853460D02*
X16560896Y-15834412D01*
X16560896Y-15834412D02*
X16560896Y-15815365D01*
X16560896Y-15815365D02*
X16570420Y-15796317D01*
X16570420Y-15796317D02*
X16589468Y-15786793D01*
X16589468Y-15786793D02*
X16637087Y-15786793D01*
X16637087Y-15786793D02*
X16656134Y-15777269D01*
X16722801Y-15729650D02*
X16798992Y-15729650D01*
X16751373Y-15662984D02*
X16751373Y-15834412D01*
X16751373Y-15834412D02*
X16760896Y-15853460D01*
X16760896Y-15853460D02*
X16779944Y-15862984D01*
X16779944Y-15862984D02*
X16798992Y-15862984D01*
X16941849Y-15853460D02*
X16922801Y-15862984D01*
X16922801Y-15862984D02*
X16884706Y-15862984D01*
X16884706Y-15862984D02*
X16865658Y-15853460D01*
X16865658Y-15853460D02*
X16856135Y-15834412D01*
X16856135Y-15834412D02*
X16856135Y-15758222D01*
X16856135Y-15758222D02*
X16865658Y-15739174D01*
X16865658Y-15739174D02*
X16884706Y-15729650D01*
X16884706Y-15729650D02*
X16922801Y-15729650D01*
X16922801Y-15729650D02*
X16941849Y-15739174D01*
X16941849Y-15739174D02*
X16951373Y-15758222D01*
X16951373Y-15758222D02*
X16951373Y-15777269D01*
X16951373Y-15777269D02*
X16856135Y-15796317D01*
X17122801Y-15862984D02*
X17122801Y-15662984D01*
X17122801Y-15853460D02*
X17103754Y-15862984D01*
X17103754Y-15862984D02*
X17065658Y-15862984D01*
X17065658Y-15862984D02*
X17046611Y-15853460D01*
X17046611Y-15853460D02*
X17037087Y-15843936D01*
X17037087Y-15843936D02*
X17027563Y-15824888D01*
X17027563Y-15824888D02*
X17027563Y-15767746D01*
X17027563Y-15767746D02*
X17037087Y-15748698D01*
X17037087Y-15748698D02*
X17046611Y-15739174D01*
X17046611Y-15739174D02*
X17065658Y-15729650D01*
X17065658Y-15729650D02*
X17103754Y-15729650D01*
X17103754Y-15729650D02*
X17122801Y-15739174D01*
X17198992Y-15939174D02*
X17208516Y-15929650D01*
X17208516Y-15929650D02*
X17227563Y-15901079D01*
X17227563Y-15901079D02*
X17237087Y-15882031D01*
X17237087Y-15882031D02*
X17246611Y-15853460D01*
X17246611Y-15853460D02*
X17256135Y-15805841D01*
X17256135Y-15805841D02*
X17256135Y-15767746D01*
X17256135Y-15767746D02*
X17246611Y-15720127D01*
X17246611Y-15720127D02*
X17237087Y-15691555D01*
X17237087Y-15691555D02*
X17227563Y-15672508D01*
X17227563Y-15672508D02*
X17208516Y-15643936D01*
X17208516Y-15643936D02*
X17198992Y-15634412D01*
M02*
