M48
; DRILL file {KiCad 9.0.2} date 2025-06-17T17:20:11-0700
; FORMAT={-:-/ absolute / inch / decimal}
; #@! TF.CreationDate,2025-06-17T17:20:11-07:00
; #@! TF.GenerationSoftware,Kicad,Pcbnew,9.0.2
; #@! TF.FileFunction,Plated,1,2,PTH
FMAT,2
INCH
; #@! TA.AperFunction,Plated,PTH,ViaDrill
T1C0.0118
; #@! TA.AperFunction,Plated,PTH,ComponentDrill
T2C0.0315
; #@! TA.AperFunction,Plated,PTH,ComponentDrill
T3C0.0394
; #@! TA.AperFunction,Plated,PTH,ComponentDrill
T4C0.0591
%
G90
G05
T1
X9.1732Y-1.752
X9.9705Y-1.752
T2
X5.7727Y-1.3638
X5.7727Y-1.4638
X5.7727Y-1.5638
X5.7727Y-1.6638
X5.7727Y-1.7638
X5.7727Y-1.8638
X5.7727Y-1.9638
X5.7727Y-2.0638
X5.7727Y-2.1638
X5.8727Y-2.172
X5.9727Y-2.172
X6.0727Y-2.172
X6.1727Y-2.172
X6.2727Y-2.172
X6.3727Y-1.3638
X6.3727Y-1.4638
X6.3727Y-1.5638
X6.3727Y-1.6638
X6.3727Y-1.7638
X6.3727Y-1.8638
X6.3727Y-1.9638
X6.3727Y-2.0638
X6.3727Y-2.1638
T3
X2.5492Y-1.4764
X2.5492Y-1.6535
X2.8051Y-1.4764
X2.8051Y-1.6535
X3.1791Y-1.4764
X3.1791Y-1.6535
X3.435Y-1.4764
X3.435Y-1.6535
X3.8091Y-1.4764
X3.8091Y-1.6535
X4.065Y-1.4764
X4.065Y-1.6535
T4
X2.4255Y-2.7172
X2.6755Y-2.6172
X3.6157Y-2.3809
X3.885Y-2.3842
X4.3086Y-2.6679
X4.5779Y-2.6712
X4.5957Y-1.975
X4.8649Y-1.9783
X4.9413Y-3.1004
X5.2105Y-3.1037
X5.5227Y-5.2372
X5.7727Y-5.1372
X6.192Y-2.7175
X6.192Y-3.8592
X6.442Y-2.6175
X6.442Y-3.7592
X6.8219Y-4.8115
X7.0719Y-4.7115
X7.1763Y-2.1663
X7.1763Y-3.3081
X7.4263Y-2.0663
X7.4263Y-3.2081
X8.318Y-2.1663
X8.318Y-3.3081
X8.568Y-2.0663
X8.568Y-3.2081
X9.4204Y-2.6388
X9.4204Y-3.7805
X9.6704Y-2.5388
X9.6704Y-3.6805
M30
