%TF.GenerationSoftware,KiCad,Pcbnew,9.0.2*%
%TF.CreationDate,2025-06-17T17:20:09-07:00*%
%TF.ProjectId,daughter_board,64617567-6874-4657-925f-626f6172642e,rev?*%
%TF.SameCoordinates,Original*%
%TF.FileFunction,Copper,L2,Bot*%
%TF.FilePolarity,Positive*%
%FSLAX46Y46*%
G04 Gerber Fmt 4.6, Leading zero omitted, Abs format (unit mm)*
G04 Created by KiCad (PCBNEW 9.0.2) date 2025-06-17 17:20:09*
%MOMM*%
%LPD*%
G01*
G04 APERTURE LIST*
G04 Aperture macros list*
%AMRoundRect*
0 Rectangle with rounded corners*
0 $1 Rounding radius*
0 $2 $3 $4 $5 $6 $7 $8 $9 X,Y pos of 4 corners*
0 Add a 4 corners polygon primitive as box body*
4,1,4,$2,$3,$4,$5,$6,$7,$8,$9,$2,$3,0*
0 Add four circle primitives for the rounded corners*
1,1,$1+$1,$2,$3*
1,1,$1+$1,$4,$5*
1,1,$1+$1,$6,$7*
1,1,$1+$1,$8,$9*
0 Add four rect primitives between the rounded corners*
20,1,$1+$1,$2,$3,$4,$5,0*
20,1,$1+$1,$4,$5,$6,$7,0*
20,1,$1+$1,$6,$7,$8,$9,0*
20,1,$1+$1,$8,$9,$2,$3,0*%
G04 Aperture macros list end*
%TA.AperFunction,ComponentPad*%
%ADD10C,2.200000*%
%TD*%
%TA.AperFunction,ComponentPad*%
%ADD11C,2.000000*%
%TD*%
%TA.AperFunction,ComponentPad*%
%ADD12RoundRect,0.400000X0.900000X0.400000X-0.900000X0.400000X-0.900000X-0.400000X0.900000X-0.400000X0*%
%TD*%
%TA.AperFunction,ComponentPad*%
%ADD13RoundRect,0.400050X0.899950X0.400050X-0.899950X0.400050X-0.899950X-0.400050X0.899950X-0.400050X0*%
%TD*%
%TA.AperFunction,ComponentPad*%
%ADD14RoundRect,0.400000X0.400000X0.900000X-0.400000X0.900000X-0.400000X-0.900000X0.400000X-0.900000X0*%
%TD*%
%TA.AperFunction,ComponentPad*%
%ADD15RoundRect,0.393700X0.393700X0.906300X-0.393700X0.906300X-0.393700X-0.906300X0.393700X-0.906300X0*%
%TD*%
%TA.AperFunction,ViaPad*%
%ADD16C,0.600000*%
%TD*%
G04 APERTURE END LIST*
D10*
%TO.P,SW12,1,1*%
%TO.N,/B2*%
X188627364Y-81484873D03*
%TO.P,SW12,2,2*%
%TO.N,GND*%
X182277364Y-84024873D03*
%TD*%
D11*
%TO.P,SW17,1,1*%
%TO.N,/S1*%
X87250000Y-42000000D03*
X80750000Y-42000000D03*
%TO.P,SW17,2,2*%
%TO.N,GND*%
X87250000Y-37500000D03*
X80750000Y-37500000D03*
%TD*%
D10*
%TO.P,SW13,1,1*%
%TO.N,/R2*%
X217627364Y-81484873D03*
%TO.P,SW13,2,2*%
%TO.N,GND*%
X211277364Y-84024873D03*
%TD*%
%TO.P,SW3,1,1*%
%TO.N,/Right*%
X132347378Y-78834676D03*
%TO.P,SW3,2,2*%
%TO.N,GND*%
X125508727Y-78751290D03*
%TD*%
%TO.P,SW15,1,1*%
%TO.N,/L3*%
X179627364Y-119671647D03*
%TO.P,SW15,2,2*%
%TO.N,GND*%
X173277364Y-122211647D03*
%TD*%
%TO.P,SW1,1,1*%
%TO.N,/Left*%
X98678302Y-60558919D03*
%TO.P,SW1,2,2*%
%TO.N,GND*%
X91839651Y-60475533D03*
%TD*%
%TO.P,SW10,1,1*%
%TO.N,/L1*%
X245627364Y-64484873D03*
%TO.P,SW10,2,2*%
%TO.N,GND*%
X239277364Y-67024873D03*
%TD*%
%TO.P,SW8,1,1*%
%TO.N,/B4*%
X188627364Y-52484873D03*
%TO.P,SW8,2,2*%
%TO.N,GND*%
X182277364Y-55024873D03*
%TD*%
D11*
%TO.P,SW16,1,1*%
%TO.N,/S2*%
X71250000Y-42000000D03*
X64750000Y-42000000D03*
%TO.P,SW16,2,2*%
%TO.N,GND*%
X71250000Y-37500000D03*
X64750000Y-37500000D03*
%TD*%
D10*
%TO.P,SW2,1,1*%
%TO.N,/Down*%
X116278207Y-67849038D03*
%TO.P,SW2,2,2*%
%TO.N,GND*%
X109439556Y-67765652D03*
%TD*%
%TO.P,SW9,1,1*%
%TO.N,/R1*%
X217627364Y-52484873D03*
%TO.P,SW9,2,2*%
%TO.N,GND*%
X211277364Y-55024873D03*
%TD*%
%TO.P,SW7,1,1*%
%TO.N,/B3*%
X163627364Y-66484873D03*
%TO.P,SW7,2,2*%
%TO.N,GND*%
X157277364Y-69024873D03*
%TD*%
%TO.P,SW11,1,1*%
%TO.N,/B1*%
X163627364Y-95484873D03*
%TO.P,SW11,2,2*%
%TO.N,GND*%
X157277364Y-98024873D03*
%TD*%
%TO.P,SW4,1,1*%
%TO.N,/W*%
X123568326Y-50249133D03*
%TO.P,SW4,2,2*%
%TO.N,GND*%
X116729675Y-50165747D03*
%TD*%
%TO.P,SW14,1,1*%
%TO.N,/R3*%
X245627364Y-93484873D03*
%TO.P,SW14,2,2*%
%TO.N,GND*%
X239277364Y-96024873D03*
%TD*%
D11*
%TO.P,SW18,1,1*%
%TO.N,/FUNC*%
X96750000Y-37500000D03*
X103250000Y-37500000D03*
%TO.P,SW18,2,2*%
%TO.N,GND*%
X96750000Y-42000000D03*
X103250000Y-42000000D03*
%TD*%
D10*
%TO.P,SW6,1,1*%
%TO.N,/Space*%
X146627364Y-130484873D03*
%TO.P,SW6,2,2*%
%TO.N,GND*%
X140277364Y-133024873D03*
%TD*%
%TO.P,SW5,1,1*%
%TO.N,/L2*%
X67958288Y-66476569D03*
%TO.P,SW5,2,2*%
%TO.N,GND*%
X61608288Y-69016569D03*
%TD*%
D12*
%TO.P,RZ1,1,GP0*%
%TO.N,/FUNC*%
X146026102Y-34640000D03*
%TO.P,RZ1,2,GP1*%
%TO.N,/S1*%
X146026102Y-37180000D03*
%TO.P,RZ1,3,GP2*%
%TO.N,/S2*%
X146026102Y-39720000D03*
%TO.P,RZ1,4,GP3*%
%TO.N,/L2*%
X146026102Y-42260000D03*
%TO.P,RZ1,5,GP4*%
%TO.N,/Left*%
X146026102Y-44800000D03*
D13*
%TO.P,RZ1,6,GP5*%
%TO.N,/W*%
X146026102Y-47340000D03*
%TO.P,RZ1,7,GP6*%
%TO.N,/Down*%
X146026102Y-49880000D03*
%TO.P,RZ1,8,GP7*%
%TO.N,/Right*%
X146026102Y-52420000D03*
%TO.P,RZ1,9,GP8*%
%TO.N,/Space*%
X146026102Y-54960000D03*
D14*
%TO.P,RZ1,10,GP9*%
%TO.N,/B1*%
X149166102Y-55770000D03*
D15*
%TO.P,RZ1,11,GP10*%
%TO.N,/B3*%
X151706102Y-55770000D03*
%TO.P,RZ1,12,GP11*%
%TO.N,/L3*%
X154246102Y-55770000D03*
%TO.P,RZ1,13,GP12*%
%TO.N,/B2*%
X156786102Y-55770000D03*
%TO.P,RZ1,14,GP13*%
%TO.N,/R2*%
X159326102Y-55770000D03*
D13*
%TO.P,RZ1,15,GP14*%
%TO.N,/B4*%
X162466102Y-54960000D03*
%TO.P,RZ1,16,GP15*%
%TO.N,/R1*%
X162466102Y-52420000D03*
%TO.P,RZ1,17,GP26*%
%TO.N,/R3*%
X162466102Y-49880000D03*
%TO.P,RZ1,18,GP27*%
%TO.N,/L1*%
X162466102Y-47340000D03*
%TO.P,RZ1,19,GP28*%
%TO.N,/D-*%
X162466102Y-44800000D03*
%TO.P,RZ1,20,GP29*%
%TO.N,/D+*%
X162466102Y-42260000D03*
%TO.P,RZ1,21,3V3*%
%TO.N,unconnected-(RZ1-3V3-Pad21)*%
X162466102Y-39720000D03*
%TO.P,RZ1,22,5V*%
%TO.N,+5V*%
X162466102Y-34640000D03*
%TO.P,RZ1,23,GND*%
%TO.N,GND*%
X162466102Y-37180000D03*
%TD*%
D16*
%TO.N,GND*%
X233000000Y-44500000D03*
X253250000Y-44500000D03*
%TD*%
%TA.AperFunction,Conductor*%
%TO.N,GND*%
G36*
X144168641Y-34270185D02*
G01*
X144214396Y-34322989D01*
X144225602Y-34374500D01*
X144225602Y-35103010D01*
X144225603Y-35103029D01*
X144231789Y-35181643D01*
X144262849Y-35297562D01*
X144280782Y-35364488D01*
X144280817Y-35364556D01*
X144366716Y-35533146D01*
X144366781Y-35533226D01*
X144485845Y-35680257D01*
X144632953Y-35799383D01*
X144632957Y-35799386D01*
X144633216Y-35799518D01*
X144633339Y-35799634D01*
X144638406Y-35802925D01*
X144637804Y-35803851D01*
X144684010Y-35847495D01*
X144700802Y-35915317D01*
X144678261Y-35981451D01*
X144637952Y-36016377D01*
X144638406Y-36017075D01*
X144633383Y-36020336D01*
X144633216Y-36020482D01*
X144632957Y-36020613D01*
X144485845Y-36139743D01*
X144366716Y-36286853D01*
X144280782Y-36455512D01*
X144231789Y-36638356D01*
X144231789Y-36638357D01*
X144225602Y-36716973D01*
X144225602Y-37643010D01*
X144225603Y-37643029D01*
X144231789Y-37721643D01*
X144231790Y-37721645D01*
X144280782Y-37904488D01*
X144302885Y-37947868D01*
X144366716Y-38073146D01*
X144368867Y-38075802D01*
X144485845Y-38220257D01*
X144632953Y-38339383D01*
X144632957Y-38339386D01*
X144633216Y-38339518D01*
X144633339Y-38339634D01*
X144638406Y-38342925D01*
X144637804Y-38343851D01*
X144684010Y-38387495D01*
X144700802Y-38455317D01*
X144678261Y-38521451D01*
X144637952Y-38556377D01*
X144638406Y-38557075D01*
X144633383Y-38560336D01*
X144633216Y-38560482D01*
X144632957Y-38560613D01*
X144485845Y-38679743D01*
X144366716Y-38826853D01*
X144280782Y-38995512D01*
X144231789Y-39178356D01*
X144231789Y-39178357D01*
X144225602Y-39256973D01*
X144225602Y-40183010D01*
X144225603Y-40183029D01*
X144231789Y-40261643D01*
X144262849Y-40377562D01*
X144280782Y-40444488D01*
X144280817Y-40444556D01*
X144366716Y-40613146D01*
X144366781Y-40613226D01*
X144485845Y-40760257D01*
X144632953Y-40879383D01*
X144632957Y-40879386D01*
X144633216Y-40879518D01*
X144633339Y-40879634D01*
X144638406Y-40882925D01*
X144637804Y-40883851D01*
X144684010Y-40927495D01*
X144700802Y-40995317D01*
X144678261Y-41061451D01*
X144637952Y-41096377D01*
X144638406Y-41097075D01*
X144633383Y-41100336D01*
X144633216Y-41100482D01*
X144632957Y-41100613D01*
X144485845Y-41219743D01*
X144366716Y-41366853D01*
X144280782Y-41535512D01*
X144231789Y-41718356D01*
X144231789Y-41718357D01*
X144225602Y-41796973D01*
X144225602Y-42723010D01*
X144225603Y-42723029D01*
X144231789Y-42801643D01*
X144262849Y-42917562D01*
X144280782Y-42984488D01*
X144280817Y-42984556D01*
X144366716Y-43153146D01*
X144366781Y-43153226D01*
X144485845Y-43300257D01*
X144597370Y-43390568D01*
X144632957Y-43419386D01*
X144633216Y-43419518D01*
X144633339Y-43419634D01*
X144638406Y-43422925D01*
X144637804Y-43423851D01*
X144684010Y-43467495D01*
X144700802Y-43535317D01*
X144678261Y-43601451D01*
X144637952Y-43636377D01*
X144638406Y-43637075D01*
X144633383Y-43640336D01*
X144633216Y-43640482D01*
X144632957Y-43640613D01*
X144485845Y-43759743D01*
X144366716Y-43906853D01*
X144280782Y-44075512D01*
X144231789Y-44258356D01*
X144231789Y-44258357D01*
X144225602Y-44336973D01*
X144225602Y-45263010D01*
X144225603Y-45263029D01*
X144231789Y-45341643D01*
X144262849Y-45457562D01*
X144280782Y-45524488D01*
X144280817Y-45524556D01*
X144366716Y-45693146D01*
X144366781Y-45693226D01*
X144485845Y-45840257D01*
X144632953Y-45959383D01*
X144633120Y-45959468D01*
X144633201Y-45959544D01*
X144638406Y-45962925D01*
X144637788Y-45963875D01*
X144683922Y-46007436D01*
X144700725Y-46075255D01*
X144678195Y-46141393D01*
X144637957Y-46176266D01*
X144638425Y-46176986D01*
X144633247Y-46180348D01*
X144633145Y-46180437D01*
X144632985Y-46180518D01*
X144632975Y-46180524D01*
X144485860Y-46299658D01*
X144366726Y-46446773D01*
X144366725Y-46446775D01*
X144280786Y-46615444D01*
X144231789Y-46798298D01*
X144225602Y-46876919D01*
X144225602Y-47803064D01*
X144225603Y-47803083D01*
X144231789Y-47881699D01*
X144231790Y-47881701D01*
X144231790Y-47881703D01*
X144280786Y-48064556D01*
X144310164Y-48122214D01*
X144366725Y-48233224D01*
X144366726Y-48233226D01*
X144432553Y-48314514D01*
X144485860Y-48380342D01*
X144567148Y-48446168D01*
X144632975Y-48499475D01*
X144632977Y-48499476D01*
X144633055Y-48499516D01*
X144633091Y-48499550D01*
X144638425Y-48503014D01*
X144637791Y-48503989D01*
X144683851Y-48547491D01*
X144700645Y-48615312D01*
X144678107Y-48681447D01*
X144637945Y-48716246D01*
X144638425Y-48716986D01*
X144633104Y-48720440D01*
X144633055Y-48720484D01*
X144632975Y-48720524D01*
X144485860Y-48839658D01*
X144366726Y-48986773D01*
X144366725Y-48986775D01*
X144280786Y-49155444D01*
X144231789Y-49338298D01*
X144225602Y-49416919D01*
X144225602Y-50343064D01*
X144225603Y-50343083D01*
X144231789Y-50421699D01*
X144231790Y-50421701D01*
X144231790Y-50421703D01*
X144280786Y-50604556D01*
X144300804Y-50643844D01*
X144366725Y-50773224D01*
X144366726Y-50773226D01*
X144413016Y-50830388D01*
X144485860Y-50920342D01*
X144567148Y-50986168D01*
X144632975Y-51039475D01*
X144632977Y-51039476D01*
X144633055Y-51039516D01*
X144633091Y-51039550D01*
X144638425Y-51043014D01*
X144637791Y-51043989D01*
X144683851Y-51087491D01*
X144700645Y-51155312D01*
X144678107Y-51221447D01*
X144637945Y-51256246D01*
X144638425Y-51256986D01*
X144633104Y-51260440D01*
X144633055Y-51260484D01*
X144632975Y-51260524D01*
X144485860Y-51379658D01*
X144366726Y-51526773D01*
X144366725Y-51526775D01*
X144280786Y-51695444D01*
X144231789Y-51878298D01*
X144225602Y-51956919D01*
X144225602Y-52883064D01*
X144225603Y-52883083D01*
X144231789Y-52961699D01*
X144231790Y-52961701D01*
X144231790Y-52961703D01*
X144280786Y-53144556D01*
X144310164Y-53202214D01*
X144366725Y-53313224D01*
X144366726Y-53313226D01*
X144432553Y-53394514D01*
X144485860Y-53460342D01*
X144567148Y-53526168D01*
X144632975Y-53579475D01*
X144632977Y-53579476D01*
X144633055Y-53579516D01*
X144633091Y-53579550D01*
X144638425Y-53583014D01*
X144637791Y-53583989D01*
X144683851Y-53627491D01*
X144700645Y-53695312D01*
X144678107Y-53761447D01*
X144637945Y-53796246D01*
X144638425Y-53796986D01*
X144633104Y-53800440D01*
X144633055Y-53800484D01*
X144632975Y-53800524D01*
X144485860Y-53919658D01*
X144366726Y-54066773D01*
X144366725Y-54066775D01*
X144280786Y-54235444D01*
X144231789Y-54418298D01*
X144225602Y-54496919D01*
X144225602Y-55423064D01*
X144225603Y-55423083D01*
X144231789Y-55501699D01*
X144231790Y-55501701D01*
X144231790Y-55501703D01*
X144280786Y-55684556D01*
X144283374Y-55689635D01*
X144366725Y-55853224D01*
X144366726Y-55853226D01*
X144406967Y-55902918D01*
X144485860Y-56000342D01*
X144567148Y-56066168D01*
X144632975Y-56119475D01*
X144632977Y-56119476D01*
X144688481Y-56147756D01*
X144801646Y-56205416D01*
X144984499Y-56254412D01*
X145063127Y-56260600D01*
X146989076Y-56260599D01*
X147067705Y-56254412D01*
X147250558Y-56205416D01*
X147419228Y-56119475D01*
X147566344Y-56000342D01*
X147645238Y-55902916D01*
X147702723Y-55863207D01*
X147772554Y-55860879D01*
X147832558Y-55896675D01*
X147863684Y-55959228D01*
X147865602Y-55980954D01*
X147865602Y-56733010D01*
X147865603Y-56733029D01*
X147871789Y-56811643D01*
X147881516Y-56847943D01*
X147920782Y-56994488D01*
X147942885Y-57037868D01*
X148006716Y-57163146D01*
X148055961Y-57223958D01*
X148125845Y-57310257D01*
X148208295Y-57377024D01*
X148272955Y-57429385D01*
X148356473Y-57471938D01*
X148441614Y-57515320D01*
X148624457Y-57564312D01*
X148703081Y-57570500D01*
X149629122Y-57570499D01*
X149707747Y-57564312D01*
X149890590Y-57515320D01*
X150019110Y-57449835D01*
X150059248Y-57429385D01*
X150059249Y-57429383D01*
X150059251Y-57429383D01*
X150206359Y-57310257D01*
X150325485Y-57163149D01*
X150330694Y-57152923D01*
X150378665Y-57102128D01*
X150446485Y-57085328D01*
X150512621Y-57107863D01*
X150551664Y-57152917D01*
X150558328Y-57165995D01*
X150558329Y-57165996D01*
X150558331Y-57165999D01*
X150676624Y-57312078D01*
X150782447Y-57397772D01*
X150822705Y-57430373D01*
X150916695Y-57478262D01*
X150990184Y-57515706D01*
X151171748Y-57564356D01*
X151249813Y-57570500D01*
X152162390Y-57570499D01*
X152240456Y-57564356D01*
X152422020Y-57515706D01*
X152536524Y-57457363D01*
X152589498Y-57430373D01*
X152589499Y-57430371D01*
X152589501Y-57430371D01*
X152735580Y-57312078D01*
X152853873Y-57165999D01*
X152865616Y-57142950D01*
X152913589Y-57092154D01*
X152981410Y-57075358D01*
X153047545Y-57097894D01*
X153086588Y-57142951D01*
X153098328Y-57165995D01*
X153098331Y-57165999D01*
X153216624Y-57312078D01*
X153322447Y-57397772D01*
X153362705Y-57430373D01*
X153456695Y-57478262D01*
X153530184Y-57515706D01*
X153711748Y-57564356D01*
X153789813Y-57570500D01*
X154702390Y-57570499D01*
X154780456Y-57564356D01*
X154962020Y-57515706D01*
X155076524Y-57457363D01*
X155129498Y-57430373D01*
X155129499Y-57430371D01*
X155129501Y-57430371D01*
X155275580Y-57312078D01*
X155393873Y-57165999D01*
X155405616Y-57142950D01*
X155453589Y-57092154D01*
X155521410Y-57075358D01*
X155587545Y-57097894D01*
X155626588Y-57142951D01*
X155638328Y-57165995D01*
X155638331Y-57165999D01*
X155756624Y-57312078D01*
X155862447Y-57397772D01*
X155902705Y-57430373D01*
X155996695Y-57478262D01*
X156070184Y-57515706D01*
X156251748Y-57564356D01*
X156329813Y-57570500D01*
X157242390Y-57570499D01*
X157320456Y-57564356D01*
X157502020Y-57515706D01*
X157616524Y-57457363D01*
X157669498Y-57430373D01*
X157669499Y-57430371D01*
X157669501Y-57430371D01*
X157815580Y-57312078D01*
X157933873Y-57165999D01*
X157945616Y-57142950D01*
X157993589Y-57092154D01*
X158061410Y-57075358D01*
X158127545Y-57097894D01*
X158166588Y-57142951D01*
X158178328Y-57165995D01*
X158178331Y-57165999D01*
X158296624Y-57312078D01*
X158402447Y-57397772D01*
X158442705Y-57430373D01*
X158536695Y-57478262D01*
X158610184Y-57515706D01*
X158791748Y-57564356D01*
X158869813Y-57570500D01*
X159782390Y-57570499D01*
X159860456Y-57564356D01*
X160042020Y-57515706D01*
X160115508Y-57478262D01*
X179906864Y-57478262D01*
X179906864Y-57651484D01*
X179933962Y-57822574D01*
X179987491Y-57987318D01*
X180066132Y-58141661D01*
X180167950Y-58281801D01*
X180290436Y-58404287D01*
X180430576Y-58506105D01*
X180584919Y-58584746D01*
X180749663Y-58638275D01*
X180920753Y-58665373D01*
X180920754Y-58665373D01*
X181093974Y-58665373D01*
X181093975Y-58665373D01*
X181265065Y-58638275D01*
X181429809Y-58584746D01*
X181584152Y-58506105D01*
X181724292Y-58404287D01*
X181846778Y-58281801D01*
X181948596Y-58141661D01*
X182027237Y-57987318D01*
X182080766Y-57822574D01*
X182107864Y-57651484D01*
X182107864Y-57478262D01*
X182098218Y-57417359D01*
X183836864Y-57417359D01*
X183836864Y-57712386D01*
X183868935Y-57955986D01*
X183875371Y-58004866D01*
X183949576Y-58281803D01*
X183951725Y-58289824D01*
X183951728Y-58289834D01*
X184064618Y-58562373D01*
X184064622Y-58562383D01*
X184212125Y-58817866D01*
X184391716Y-59051913D01*
X184391722Y-59051920D01*
X184600316Y-59260514D01*
X184600323Y-59260520D01*
X184834370Y-59440111D01*
X185089853Y-59587614D01*
X185089854Y-59587614D01*
X185089857Y-59587616D01*
X185362412Y-59700512D01*
X185647371Y-59776866D01*
X185939858Y-59815373D01*
X185939865Y-59815373D01*
X186234863Y-59815373D01*
X186234870Y-59815373D01*
X186527357Y-59776866D01*
X186812316Y-59700512D01*
X187084871Y-59587616D01*
X187340358Y-59440111D01*
X187574406Y-59260519D01*
X187783010Y-59051915D01*
X187962602Y-58817867D01*
X188110107Y-58562380D01*
X188223003Y-58289825D01*
X188299357Y-58004866D01*
X188337864Y-57712379D01*
X188337864Y-57478262D01*
X190066864Y-57478262D01*
X190066864Y-57651484D01*
X190093962Y-57822574D01*
X190147491Y-57987318D01*
X190226132Y-58141661D01*
X190327950Y-58281801D01*
X190450436Y-58404287D01*
X190590576Y-58506105D01*
X190744919Y-58584746D01*
X190909663Y-58638275D01*
X191080753Y-58665373D01*
X191080754Y-58665373D01*
X191253974Y-58665373D01*
X191253975Y-58665373D01*
X191425065Y-58638275D01*
X191589809Y-58584746D01*
X191744152Y-58506105D01*
X191884292Y-58404287D01*
X192006778Y-58281801D01*
X192108596Y-58141661D01*
X192187237Y-57987318D01*
X192240766Y-57822574D01*
X192267864Y-57651484D01*
X192267864Y-57478262D01*
X208906864Y-57478262D01*
X208906864Y-57651484D01*
X208933962Y-57822574D01*
X208987491Y-57987318D01*
X209066132Y-58141661D01*
X209167950Y-58281801D01*
X209290436Y-58404287D01*
X209430576Y-58506105D01*
X209584919Y-58584746D01*
X209749663Y-58638275D01*
X209920753Y-58665373D01*
X209920754Y-58665373D01*
X210093974Y-58665373D01*
X210093975Y-58665373D01*
X210265065Y-58638275D01*
X210429809Y-58584746D01*
X210584152Y-58506105D01*
X210724292Y-58404287D01*
X210846778Y-58281801D01*
X210948596Y-58141661D01*
X211027237Y-57987318D01*
X211080766Y-57822574D01*
X211107864Y-57651484D01*
X211107864Y-57478262D01*
X211098218Y-57417359D01*
X212836864Y-57417359D01*
X212836864Y-57712386D01*
X212868935Y-57955986D01*
X212875371Y-58004866D01*
X212949576Y-58281803D01*
X212951725Y-58289824D01*
X212951728Y-58289834D01*
X213064618Y-58562373D01*
X213064622Y-58562383D01*
X213212125Y-58817866D01*
X213391716Y-59051913D01*
X213391722Y-59051920D01*
X213600316Y-59260514D01*
X213600323Y-59260520D01*
X213834370Y-59440111D01*
X214089853Y-59587614D01*
X214089854Y-59587614D01*
X214089857Y-59587616D01*
X214362412Y-59700512D01*
X214647371Y-59776866D01*
X214939858Y-59815373D01*
X214939865Y-59815373D01*
X215234863Y-59815373D01*
X215234870Y-59815373D01*
X215527357Y-59776866D01*
X215812316Y-59700512D01*
X216084871Y-59587616D01*
X216340358Y-59440111D01*
X216574406Y-59260519D01*
X216783010Y-59051915D01*
X216962602Y-58817867D01*
X217110107Y-58562380D01*
X217223003Y-58289825D01*
X217299357Y-58004866D01*
X217337864Y-57712379D01*
X217337864Y-57478262D01*
X219066864Y-57478262D01*
X219066864Y-57651484D01*
X219093962Y-57822574D01*
X219147491Y-57987318D01*
X219226132Y-58141661D01*
X219327950Y-58281801D01*
X219450436Y-58404287D01*
X219590576Y-58506105D01*
X219744919Y-58584746D01*
X219909663Y-58638275D01*
X220080753Y-58665373D01*
X220080754Y-58665373D01*
X220253974Y-58665373D01*
X220253975Y-58665373D01*
X220425065Y-58638275D01*
X220589809Y-58584746D01*
X220744152Y-58506105D01*
X220884292Y-58404287D01*
X221006778Y-58281801D01*
X221108596Y-58141661D01*
X221187237Y-57987318D01*
X221240766Y-57822574D01*
X221267864Y-57651484D01*
X221267864Y-57478262D01*
X221240766Y-57307172D01*
X221187237Y-57142428D01*
X221108596Y-56988085D01*
X221006778Y-56847945D01*
X220884292Y-56725459D01*
X220744152Y-56623641D01*
X220589809Y-56545000D01*
X220425065Y-56491471D01*
X220425063Y-56491470D01*
X220425062Y-56491470D01*
X220293635Y-56470654D01*
X220253975Y-56464373D01*
X220080753Y-56464373D01*
X220041092Y-56470654D01*
X219909666Y-56491470D01*
X219744916Y-56545001D01*
X219590575Y-56623641D01*
X219534479Y-56664398D01*
X219450436Y-56725459D01*
X219450434Y-56725461D01*
X219450433Y-56725461D01*
X219327952Y-56847942D01*
X219327952Y-56847943D01*
X219327950Y-56847945D01*
X219322324Y-56855689D01*
X219226132Y-56988084D01*
X219147492Y-57142425D01*
X219093961Y-57307175D01*
X219066864Y-57478262D01*
X217337864Y-57478262D01*
X217337864Y-57417367D01*
X217299357Y-57124880D01*
X217223003Y-56839921D01*
X217110107Y-56567366D01*
X217059968Y-56480523D01*
X216962602Y-56311879D01*
X216783011Y-56077832D01*
X216783005Y-56077825D01*
X216574411Y-55869231D01*
X216574404Y-55869225D01*
X216340357Y-55689634D01*
X216084874Y-55542131D01*
X216084864Y-55542127D01*
X215812325Y-55429237D01*
X215812318Y-55429235D01*
X215812316Y-55429234D01*
X215527357Y-55352880D01*
X215478477Y-55346444D01*
X215234877Y-55314373D01*
X215234870Y-55314373D01*
X214939858Y-55314373D01*
X214939850Y-55314373D01*
X214661449Y-55351026D01*
X214647371Y-55352880D01*
X214473225Y-55399542D01*
X214362412Y-55429234D01*
X214362402Y-55429237D01*
X214089863Y-55542127D01*
X214089853Y-55542131D01*
X213834370Y-55689634D01*
X213600323Y-55869225D01*
X213600316Y-55869231D01*
X213391722Y-56077825D01*
X213391716Y-56077832D01*
X213212125Y-56311879D01*
X213064622Y-56567362D01*
X213064618Y-56567372D01*
X212951728Y-56839911D01*
X212951725Y-56839921D01*
X212881468Y-57102128D01*
X212875372Y-57124877D01*
X212875370Y-57124888D01*
X212836864Y-57417359D01*
X211098218Y-57417359D01*
X211080766Y-57307172D01*
X211027237Y-57142428D01*
X210948596Y-56988085D01*
X210846778Y-56847945D01*
X210794246Y-56795413D01*
X210760761Y-56734090D01*
X210765745Y-56664398D01*
X210807617Y-56608465D01*
X210873081Y-56584048D01*
X210901325Y-56585259D01*
X211151436Y-56624873D01*
X211403292Y-56624873D01*
X211652033Y-56585475D01*
X211891548Y-56507653D01*
X212115939Y-56393319D01*
X212115945Y-56393315D01*
X212218061Y-56319123D01*
X212218062Y-56319123D01*
X211601389Y-55702451D01*
X211632622Y-55689514D01*
X211755461Y-55607436D01*
X211859927Y-55502970D01*
X211942005Y-55380131D01*
X211954941Y-55348898D01*
X212571614Y-55965571D01*
X212571614Y-55965570D01*
X212645806Y-55863454D01*
X212645810Y-55863448D01*
X212760144Y-55639057D01*
X212837966Y-55399542D01*
X212877364Y-55150801D01*
X212877364Y-54898944D01*
X212837966Y-54650203D01*
X212760144Y-54410688D01*
X212645806Y-54186289D01*
X212571614Y-54084174D01*
X212571614Y-54084173D01*
X211954941Y-54700846D01*
X211942005Y-54669615D01*
X211859927Y-54546776D01*
X211755461Y-54442310D01*
X211632622Y-54360232D01*
X211601388Y-54347294D01*
X212218062Y-53730621D01*
X212115947Y-53656430D01*
X211891548Y-53542092D01*
X211652033Y-53464270D01*
X211403292Y-53424873D01*
X211151436Y-53424873D01*
X210902694Y-53464270D01*
X210663179Y-53542092D01*
X210438777Y-53656432D01*
X210336665Y-53730620D01*
X210336664Y-53730621D01*
X210953338Y-54347294D01*
X210922106Y-54360232D01*
X210799267Y-54442310D01*
X210694801Y-54546776D01*
X210612723Y-54669615D01*
X210599785Y-54700847D01*
X209983112Y-54084173D01*
X209983111Y-54084174D01*
X209908923Y-54186286D01*
X209794583Y-54410688D01*
X209716761Y-54650203D01*
X209677364Y-54898944D01*
X209677364Y-55150801D01*
X209716761Y-55399542D01*
X209794583Y-55639057D01*
X209908921Y-55863456D01*
X209983112Y-55965570D01*
X209983112Y-55965571D01*
X210599785Y-55348897D01*
X210612723Y-55380131D01*
X210694801Y-55502970D01*
X210799267Y-55607436D01*
X210922106Y-55689514D01*
X210953338Y-55702450D01*
X210336664Y-56319123D01*
X210338962Y-56348322D01*
X210324597Y-56416700D01*
X210275545Y-56466456D01*
X210207380Y-56481794D01*
X210195947Y-56480523D01*
X210093975Y-56464373D01*
X209920753Y-56464373D01*
X209881092Y-56470654D01*
X209749666Y-56491470D01*
X209584916Y-56545001D01*
X209430575Y-56623641D01*
X209374479Y-56664398D01*
X209290436Y-56725459D01*
X209290434Y-56725461D01*
X209290433Y-56725461D01*
X209167952Y-56847942D01*
X209167952Y-56847943D01*
X209167950Y-56847945D01*
X209162324Y-56855689D01*
X209066132Y-56988084D01*
X208987492Y-57142425D01*
X208933961Y-57307175D01*
X208906864Y-57478262D01*
X192267864Y-57478262D01*
X192240766Y-57307172D01*
X192187237Y-57142428D01*
X192108596Y-56988085D01*
X192006778Y-56847945D01*
X191884292Y-56725459D01*
X191744152Y-56623641D01*
X191589809Y-56545000D01*
X191425065Y-56491471D01*
X191425063Y-56491470D01*
X191425062Y-56491470D01*
X191293635Y-56470654D01*
X191253975Y-56464373D01*
X191080753Y-56464373D01*
X191041092Y-56470654D01*
X190909666Y-56491470D01*
X190744916Y-56545001D01*
X190590575Y-56623641D01*
X190534479Y-56664398D01*
X190450436Y-56725459D01*
X190450434Y-56725461D01*
X190450433Y-56725461D01*
X190327952Y-56847942D01*
X190327952Y-56847943D01*
X190327950Y-56847945D01*
X190322324Y-56855689D01*
X190226132Y-56988084D01*
X190147492Y-57142425D01*
X190093961Y-57307175D01*
X190066864Y-57478262D01*
X188337864Y-57478262D01*
X188337864Y-57417367D01*
X188299357Y-57124880D01*
X188223003Y-56839921D01*
X188110107Y-56567366D01*
X188059968Y-56480523D01*
X187962602Y-56311879D01*
X187783011Y-56077832D01*
X187783005Y-56077825D01*
X187574411Y-55869231D01*
X187574404Y-55869225D01*
X187340357Y-55689634D01*
X187084874Y-55542131D01*
X187084864Y-55542127D01*
X186812325Y-55429237D01*
X186812318Y-55429235D01*
X186812316Y-55429234D01*
X186527357Y-55352880D01*
X186478477Y-55346444D01*
X186234877Y-55314373D01*
X186234870Y-55314373D01*
X185939858Y-55314373D01*
X185939850Y-55314373D01*
X185661449Y-55351026D01*
X185647371Y-55352880D01*
X185473225Y-55399542D01*
X185362412Y-55429234D01*
X185362402Y-55429237D01*
X185089863Y-55542127D01*
X185089853Y-55542131D01*
X184834370Y-55689634D01*
X184600323Y-55869225D01*
X184600316Y-55869231D01*
X184391722Y-56077825D01*
X184391716Y-56077832D01*
X184212125Y-56311879D01*
X184064622Y-56567362D01*
X184064618Y-56567372D01*
X183951728Y-56839911D01*
X183951725Y-56839921D01*
X183881468Y-57102128D01*
X183875372Y-57124877D01*
X183875370Y-57124888D01*
X183836864Y-57417359D01*
X182098218Y-57417359D01*
X182080766Y-57307172D01*
X182027237Y-57142428D01*
X181948596Y-56988085D01*
X181846778Y-56847945D01*
X181794246Y-56795413D01*
X181760761Y-56734090D01*
X181765745Y-56664398D01*
X181807617Y-56608465D01*
X181873081Y-56584048D01*
X181901325Y-56585259D01*
X182151436Y-56624873D01*
X182403292Y-56624873D01*
X182652033Y-56585475D01*
X182891548Y-56507653D01*
X183115939Y-56393319D01*
X183115945Y-56393315D01*
X183218061Y-56319123D01*
X183218062Y-56319123D01*
X182601389Y-55702451D01*
X182632622Y-55689514D01*
X182755461Y-55607436D01*
X182859927Y-55502970D01*
X182942005Y-55380131D01*
X182954942Y-55348898D01*
X183571614Y-55965571D01*
X183571614Y-55965570D01*
X183645806Y-55863454D01*
X183645810Y-55863448D01*
X183760144Y-55639057D01*
X183837966Y-55399542D01*
X183877364Y-55150801D01*
X183877364Y-54898944D01*
X183837966Y-54650203D01*
X183760144Y-54410688D01*
X183645806Y-54186289D01*
X183571614Y-54084174D01*
X183571614Y-54084173D01*
X182954941Y-54700846D01*
X182942005Y-54669615D01*
X182859927Y-54546776D01*
X182755461Y-54442310D01*
X182632622Y-54360232D01*
X182601388Y-54347294D01*
X183218062Y-53730621D01*
X183115947Y-53656430D01*
X182891548Y-53542092D01*
X182652033Y-53464270D01*
X182403292Y-53424873D01*
X182151436Y-53424873D01*
X181902694Y-53464270D01*
X181663179Y-53542092D01*
X181438777Y-53656432D01*
X181336665Y-53730620D01*
X181336664Y-53730621D01*
X181953338Y-54347294D01*
X181922106Y-54360232D01*
X181799267Y-54442310D01*
X181694801Y-54546776D01*
X181612723Y-54669615D01*
X181599785Y-54700847D01*
X180983112Y-54084173D01*
X180983111Y-54084174D01*
X180908923Y-54186286D01*
X180794583Y-54410688D01*
X180716761Y-54650203D01*
X180677364Y-54898944D01*
X180677364Y-55150801D01*
X180716761Y-55399542D01*
X180794583Y-55639057D01*
X180908921Y-55863456D01*
X180983112Y-55965570D01*
X180983112Y-55965571D01*
X181599785Y-55348897D01*
X181612723Y-55380131D01*
X181694801Y-55502970D01*
X181799267Y-55607436D01*
X181922106Y-55689514D01*
X181953338Y-55702450D01*
X181336664Y-56319123D01*
X181338962Y-56348322D01*
X181324597Y-56416700D01*
X181275545Y-56466456D01*
X181207380Y-56481794D01*
X181195947Y-56480523D01*
X181093975Y-56464373D01*
X180920753Y-56464373D01*
X180881092Y-56470654D01*
X180749666Y-56491470D01*
X180584916Y-56545001D01*
X180430575Y-56623641D01*
X180374479Y-56664398D01*
X180290436Y-56725459D01*
X180290434Y-56725461D01*
X180290433Y-56725461D01*
X180167952Y-56847942D01*
X180167952Y-56847943D01*
X180167950Y-56847945D01*
X180162324Y-56855689D01*
X180066132Y-56988084D01*
X179987492Y-57142425D01*
X179933961Y-57307175D01*
X179906864Y-57478262D01*
X160115508Y-57478262D01*
X160156524Y-57457363D01*
X160209498Y-57430373D01*
X160209499Y-57430371D01*
X160209501Y-57430371D01*
X160355580Y-57312078D01*
X160473873Y-57165999D01*
X160473876Y-57165995D01*
X160503494Y-57107863D01*
X160559208Y-56998518D01*
X160607858Y-56816954D01*
X160614002Y-56738889D01*
X160614001Y-55965392D01*
X160633685Y-55898356D01*
X160686489Y-55852601D01*
X160755648Y-55842657D01*
X160819204Y-55871682D01*
X160834366Y-55887358D01*
X160920052Y-55993170D01*
X160925860Y-56000342D01*
X160926757Y-56001068D01*
X161072975Y-56119475D01*
X161072977Y-56119476D01*
X161128481Y-56147756D01*
X161241646Y-56205416D01*
X161424499Y-56254412D01*
X161503127Y-56260600D01*
X163429076Y-56260599D01*
X163507705Y-56254412D01*
X163690558Y-56205416D01*
X163859228Y-56119475D01*
X164006344Y-56000342D01*
X164125477Y-55853226D01*
X164211418Y-55684556D01*
X164260414Y-55501703D01*
X164266602Y-55423075D01*
X164266601Y-54496926D01*
X164260414Y-54418297D01*
X164211418Y-54235444D01*
X164134343Y-54084174D01*
X164125478Y-54066775D01*
X164125477Y-54066773D01*
X164045583Y-53968114D01*
X164006344Y-53919658D01*
X163859228Y-53800525D01*
X163848599Y-53795109D01*
X163839260Y-53787837D01*
X163825493Y-53768698D01*
X163808357Y-53752516D01*
X163805470Y-53740864D01*
X163798459Y-53731117D01*
X163797224Y-53707576D01*
X163791557Y-53684696D01*
X163795429Y-53673330D01*
X163794801Y-53661343D01*
X163806487Y-53640874D01*
X163814091Y-53618560D01*
X163824260Y-53609748D01*
X163829445Y-53600668D01*
X163842746Y-53593729D01*
X163854259Y-53583753D01*
X163853779Y-53583014D01*
X163859104Y-53579555D01*
X163859155Y-53579512D01*
X163859228Y-53579475D01*
X164006344Y-53460342D01*
X164125477Y-53313226D01*
X164211418Y-53144556D01*
X164260414Y-52961703D01*
X164266602Y-52883075D01*
X164266601Y-52358911D01*
X187026864Y-52358911D01*
X187026864Y-52610834D01*
X187066274Y-52859658D01*
X187144124Y-53099256D01*
X187258496Y-53323721D01*
X187406565Y-53527522D01*
X187406569Y-53527527D01*
X187584709Y-53705667D01*
X187584714Y-53705671D01*
X187762481Y-53834825D01*
X187788519Y-53853743D01*
X187917885Y-53919658D01*
X188012980Y-53968112D01*
X188012982Y-53968112D01*
X188012985Y-53968114D01*
X188252579Y-54045963D01*
X188501402Y-54085373D01*
X188501403Y-54085373D01*
X188753325Y-54085373D01*
X188753326Y-54085373D01*
X189002149Y-54045963D01*
X189241743Y-53968114D01*
X189466209Y-53853743D01*
X189670020Y-53705666D01*
X189848157Y-53527529D01*
X189996234Y-53323718D01*
X190110605Y-53099252D01*
X190188454Y-52859658D01*
X190227864Y-52610835D01*
X190227864Y-52358911D01*
X216026864Y-52358911D01*
X216026864Y-52610834D01*
X216066274Y-52859658D01*
X216144124Y-53099256D01*
X216258496Y-53323721D01*
X216406565Y-53527522D01*
X216406569Y-53527527D01*
X216584709Y-53705667D01*
X216584714Y-53705671D01*
X216762481Y-53834825D01*
X216788519Y-53853743D01*
X216917885Y-53919658D01*
X217012980Y-53968112D01*
X217012982Y-53968112D01*
X217012985Y-53968114D01*
X217252579Y-54045963D01*
X217501402Y-54085373D01*
X217501403Y-54085373D01*
X217753325Y-54085373D01*
X217753326Y-54085373D01*
X218002149Y-54045963D01*
X218241743Y-53968114D01*
X218466209Y-53853743D01*
X218670020Y-53705666D01*
X218848157Y-53527529D01*
X218996234Y-53323718D01*
X219110605Y-53099252D01*
X219188454Y-52859658D01*
X219227864Y-52610835D01*
X219227864Y-52358911D01*
X219188454Y-52110088D01*
X219110605Y-51870494D01*
X219110603Y-51870491D01*
X219110603Y-51870489D01*
X219053507Y-51758433D01*
X218996234Y-51646028D01*
X218964785Y-51602742D01*
X218848162Y-51442223D01*
X218848158Y-51442218D01*
X218670018Y-51264078D01*
X218670013Y-51264074D01*
X218466212Y-51116005D01*
X218466211Y-51116004D01*
X218466209Y-51116003D01*
X218392723Y-51078560D01*
X218241747Y-51001633D01*
X218002149Y-50923783D01*
X217753326Y-50884373D01*
X217501402Y-50884373D01*
X217376990Y-50904078D01*
X217252578Y-50923783D01*
X217012980Y-51001633D01*
X216788515Y-51116005D01*
X216584714Y-51264074D01*
X216584709Y-51264078D01*
X216406569Y-51442218D01*
X216406565Y-51442223D01*
X216258496Y-51646024D01*
X216144124Y-51870489D01*
X216066274Y-52110087D01*
X216026864Y-52358911D01*
X190227864Y-52358911D01*
X190188454Y-52110088D01*
X190110605Y-51870494D01*
X190110603Y-51870491D01*
X190110603Y-51870489D01*
X190053507Y-51758433D01*
X189996234Y-51646028D01*
X189964785Y-51602742D01*
X189848162Y-51442223D01*
X189848158Y-51442218D01*
X189670018Y-51264078D01*
X189670013Y-51264074D01*
X189466212Y-51116005D01*
X189466211Y-51116004D01*
X189466209Y-51116003D01*
X189392723Y-51078560D01*
X189241747Y-51001633D01*
X189002149Y-50923783D01*
X188753326Y-50884373D01*
X188501402Y-50884373D01*
X188376990Y-50904078D01*
X188252578Y-50923783D01*
X188012980Y-51001633D01*
X187788515Y-51116005D01*
X187584714Y-51264074D01*
X187584709Y-51264078D01*
X187406569Y-51442218D01*
X187406565Y-51442223D01*
X187258496Y-51646024D01*
X187144124Y-51870489D01*
X187066274Y-52110087D01*
X187026864Y-52358911D01*
X164266601Y-52358911D01*
X164266601Y-51956926D01*
X164260414Y-51878297D01*
X164211418Y-51695444D01*
X164153758Y-51582279D01*
X164125478Y-51526775D01*
X164125477Y-51526773D01*
X164072170Y-51460946D01*
X164006344Y-51379658D01*
X163897827Y-51291782D01*
X163859230Y-51260526D01*
X163859155Y-51260488D01*
X163859118Y-51260453D01*
X163853779Y-51256986D01*
X163854412Y-51256009D01*
X163808357Y-51212516D01*
X163791557Y-51144696D01*
X163814091Y-51078560D01*
X163854259Y-51043753D01*
X163853779Y-51043014D01*
X163859104Y-51039555D01*
X163859155Y-51039512D01*
X163859228Y-51039475D01*
X164006344Y-50920342D01*
X164125477Y-50773226D01*
X164211418Y-50604556D01*
X164260414Y-50421703D01*
X164266602Y-50343075D01*
X164266601Y-49416926D01*
X164260414Y-49338297D01*
X164211418Y-49155444D01*
X164125478Y-48986775D01*
X164125477Y-48986773D01*
X164039227Y-48880265D01*
X164006344Y-48839658D01*
X163922998Y-48772165D01*
X163859230Y-48720526D01*
X163859155Y-48720488D01*
X163859118Y-48720453D01*
X163853779Y-48716986D01*
X163854412Y-48716009D01*
X163808357Y-48672516D01*
X163791557Y-48604696D01*
X163814091Y-48538560D01*
X163854259Y-48503753D01*
X163853779Y-48503014D01*
X163859104Y-48499555D01*
X163859155Y-48499512D01*
X163859228Y-48499475D01*
X164006344Y-48380342D01*
X164125477Y-48233226D01*
X164211418Y-48064556D01*
X164260414Y-47881703D01*
X164266602Y-47803075D01*
X164266601Y-46876926D01*
X164260414Y-46798297D01*
X164211418Y-46615444D01*
X164125478Y-46446775D01*
X164125477Y-46446773D01*
X164072170Y-46380946D01*
X164006344Y-46299658D01*
X163922998Y-46232165D01*
X163859230Y-46180526D01*
X163859155Y-46180488D01*
X163859118Y-46180453D01*
X163853779Y-46176986D01*
X163854412Y-46176009D01*
X163808357Y-46132516D01*
X163791557Y-46064696D01*
X163814091Y-45998560D01*
X163854259Y-45963753D01*
X163853779Y-45963014D01*
X163859104Y-45959555D01*
X163859155Y-45959512D01*
X163859228Y-45959475D01*
X164006344Y-45840342D01*
X164125477Y-45693226D01*
X164211418Y-45524556D01*
X164260414Y-45341703D01*
X164266602Y-45263075D01*
X164266601Y-44336926D01*
X164260414Y-44258297D01*
X164211418Y-44075444D01*
X164153758Y-43962279D01*
X164125478Y-43906775D01*
X164125477Y-43906773D01*
X164072170Y-43840946D01*
X164006344Y-43759658D01*
X163922998Y-43692165D01*
X163859230Y-43640526D01*
X163859155Y-43640488D01*
X163859118Y-43640453D01*
X163853779Y-43636986D01*
X163854412Y-43636009D01*
X163808357Y-43592516D01*
X163791557Y-43524696D01*
X163814091Y-43458560D01*
X163854259Y-43423753D01*
X163853779Y-43423014D01*
X163859104Y-43419555D01*
X163859155Y-43419512D01*
X163859228Y-43419475D01*
X164006344Y-43300342D01*
X164125477Y-43153226D01*
X164165885Y-43073920D01*
X240249499Y-43073920D01*
X240278340Y-43218907D01*
X240278343Y-43218917D01*
X240334912Y-43355488D01*
X240334919Y-43355501D01*
X240417048Y-43478415D01*
X240417051Y-43478419D01*
X240521580Y-43582948D01*
X240521584Y-43582951D01*
X240644498Y-43665080D01*
X240644511Y-43665087D01*
X240781082Y-43721656D01*
X240781087Y-43721658D01*
X240781091Y-43721658D01*
X240781092Y-43721659D01*
X240926079Y-43750500D01*
X240926082Y-43750500D01*
X241073920Y-43750500D01*
X241171462Y-43731096D01*
X241218913Y-43721658D01*
X241355495Y-43665084D01*
X241478416Y-43582951D01*
X241582951Y-43478416D01*
X241665084Y-43355495D01*
X241721658Y-43218913D01*
X241750500Y-43073920D01*
X244749499Y-43073920D01*
X244778340Y-43218907D01*
X244778343Y-43218917D01*
X244834912Y-43355488D01*
X244834919Y-43355501D01*
X244917048Y-43478415D01*
X244917051Y-43478419D01*
X245021580Y-43582948D01*
X245021584Y-43582951D01*
X245144498Y-43665080D01*
X245144511Y-43665087D01*
X245281082Y-43721656D01*
X245281087Y-43721658D01*
X245281091Y-43721658D01*
X245281092Y-43721659D01*
X245426079Y-43750500D01*
X245426082Y-43750500D01*
X245573920Y-43750500D01*
X245671462Y-43731096D01*
X245718913Y-43721658D01*
X245855495Y-43665084D01*
X245978416Y-43582951D01*
X246082951Y-43478416D01*
X246165084Y-43355495D01*
X246221658Y-43218913D01*
X246250500Y-43073918D01*
X246250500Y-42926082D01*
X246250500Y-42926079D01*
X246221659Y-42781092D01*
X246221658Y-42781091D01*
X246221658Y-42781087D01*
X246197602Y-42723010D01*
X246165087Y-42644511D01*
X246165080Y-42644498D01*
X246082951Y-42521584D01*
X246082948Y-42521580D01*
X245978419Y-42417051D01*
X245978415Y-42417048D01*
X245855501Y-42334919D01*
X245855488Y-42334912D01*
X245718917Y-42278343D01*
X245718907Y-42278340D01*
X245573920Y-42249500D01*
X245573918Y-42249500D01*
X245426082Y-42249500D01*
X245426080Y-42249500D01*
X245281092Y-42278340D01*
X245281082Y-42278343D01*
X245144511Y-42334912D01*
X245144498Y-42334919D01*
X245021584Y-42417048D01*
X245021580Y-42417051D01*
X244917051Y-42521580D01*
X244917048Y-42521584D01*
X244834919Y-42644498D01*
X244834912Y-42644511D01*
X244778343Y-42781082D01*
X244778340Y-42781092D01*
X244749500Y-42926079D01*
X244749500Y-42926082D01*
X244749500Y-43073918D01*
X244749500Y-43073920D01*
X244749499Y-43073920D01*
X241750500Y-43073920D01*
X241750500Y-43073918D01*
X241750500Y-42926082D01*
X241750500Y-42926079D01*
X241721659Y-42781092D01*
X241721658Y-42781091D01*
X241721658Y-42781087D01*
X241697602Y-42723010D01*
X241665087Y-42644511D01*
X241665080Y-42644498D01*
X241582951Y-42521584D01*
X241582948Y-42521580D01*
X241478419Y-42417051D01*
X241478415Y-42417048D01*
X241355501Y-42334919D01*
X241355488Y-42334912D01*
X241218917Y-42278343D01*
X241218907Y-42278340D01*
X241073920Y-42249500D01*
X241073918Y-42249500D01*
X240926082Y-42249500D01*
X240926080Y-42249500D01*
X240781092Y-42278340D01*
X240781082Y-42278343D01*
X240644511Y-42334912D01*
X240644498Y-42334919D01*
X240521584Y-42417048D01*
X240521580Y-42417051D01*
X240417051Y-42521580D01*
X240417048Y-42521584D01*
X240334919Y-42644498D01*
X240334912Y-42644511D01*
X240278343Y-42781082D01*
X240278340Y-42781092D01*
X240249500Y-42926079D01*
X240249500Y-42926082D01*
X240249500Y-43073918D01*
X240249500Y-43073920D01*
X240249499Y-43073920D01*
X164165885Y-43073920D01*
X164211418Y-42984556D01*
X164260414Y-42801703D01*
X164266602Y-42723075D01*
X164266601Y-41796926D01*
X164260414Y-41718297D01*
X164211418Y-41535444D01*
X164140900Y-41397043D01*
X164125478Y-41366775D01*
X164125477Y-41366773D01*
X164017632Y-41233598D01*
X164006344Y-41219658D01*
X163899215Y-41132906D01*
X163859230Y-41100526D01*
X163859155Y-41100488D01*
X163859118Y-41100453D01*
X163853779Y-41096986D01*
X163854412Y-41096009D01*
X163808357Y-41052516D01*
X163791557Y-40984696D01*
X163814091Y-40918560D01*
X163854259Y-40883753D01*
X163853779Y-40883014D01*
X163859104Y-40879555D01*
X163859155Y-40879512D01*
X163859228Y-40879475D01*
X164006344Y-40760342D01*
X164125477Y-40613226D01*
X164211418Y-40444556D01*
X164260414Y-40261703D01*
X164266602Y-40183075D01*
X164266601Y-39256926D01*
X164260414Y-39178297D01*
X164211418Y-38995444D01*
X164153758Y-38882279D01*
X164125478Y-38826775D01*
X164125477Y-38826773D01*
X164070332Y-38758676D01*
X164006344Y-38679658D01*
X163940516Y-38626351D01*
X163859228Y-38560524D01*
X163859225Y-38560522D01*
X163858588Y-38560198D01*
X163858286Y-38559912D01*
X163853779Y-38556986D01*
X163854314Y-38556161D01*
X163807797Y-38512218D01*
X163791009Y-38444395D01*
X163813554Y-38378263D01*
X163853946Y-38343271D01*
X163853506Y-38342593D01*
X163858392Y-38339419D01*
X163858615Y-38339227D01*
X163858957Y-38339052D01*
X164005988Y-38219986D01*
X164125055Y-38072954D01*
X164125057Y-38072951D01*
X164210950Y-37904374D01*
X164259918Y-37721622D01*
X164266101Y-37643053D01*
X164266102Y-37643040D01*
X164266102Y-37430000D01*
X162590102Y-37430000D01*
X162523063Y-37410315D01*
X162477308Y-37357511D01*
X162466102Y-37306000D01*
X162466102Y-37054000D01*
X162485787Y-36986961D01*
X162538591Y-36941206D01*
X162590102Y-36930000D01*
X164266102Y-36930000D01*
X164266102Y-36716959D01*
X164266101Y-36716946D01*
X164259918Y-36638377D01*
X164210950Y-36455625D01*
X164125057Y-36287048D01*
X164125055Y-36287045D01*
X164005988Y-36140013D01*
X163858956Y-36020946D01*
X163858953Y-36020944D01*
X163858601Y-36020765D01*
X163858433Y-36020607D01*
X163853506Y-36017407D01*
X163854091Y-36016505D01*
X163807804Y-35972791D01*
X163791009Y-35904970D01*
X163813546Y-35838835D01*
X163854177Y-35803627D01*
X163853779Y-35803014D01*
X163858196Y-35800145D01*
X163858602Y-35799794D01*
X163858916Y-35799634D01*
X163859228Y-35799475D01*
X164006344Y-35680342D01*
X164125477Y-35533226D01*
X164211418Y-35364556D01*
X164260414Y-35181703D01*
X164266602Y-35103075D01*
X164266601Y-34374499D01*
X164286285Y-34307461D01*
X164339089Y-34261706D01*
X164390601Y-34250500D01*
X251991324Y-34250500D01*
X252058363Y-34270185D01*
X252079005Y-34286819D01*
X256463181Y-38670995D01*
X256496666Y-38732318D01*
X256499500Y-38758676D01*
X256499500Y-111875500D01*
X256479815Y-111942539D01*
X256427011Y-111988294D01*
X256375500Y-111999500D01*
X229065733Y-111999500D01*
X229065580Y-111999459D01*
X228999688Y-111999500D01*
X228934096Y-111999500D01*
X228933795Y-111999540D01*
X228870549Y-112016529D01*
X228870477Y-112016548D01*
X228806814Y-112033607D01*
X228806779Y-112033622D01*
X228806777Y-112033622D01*
X228806534Y-112033722D01*
X228749889Y-112066473D01*
X228749825Y-112066510D01*
X228686134Y-112103283D01*
X228685551Y-112103671D01*
X172339119Y-144682154D01*
X160149771Y-151729815D01*
X160144525Y-151732848D01*
X160082458Y-151749500D01*
X125374500Y-151749500D01*
X125307461Y-151729815D01*
X125261706Y-151677011D01*
X125250500Y-151625500D01*
X125250500Y-135478262D01*
X137906864Y-135478262D01*
X137906864Y-135651484D01*
X137933962Y-135822574D01*
X137987491Y-135987318D01*
X138066132Y-136141661D01*
X138167950Y-136281801D01*
X138290436Y-136404287D01*
X138430576Y-136506105D01*
X138584919Y-136584746D01*
X138749663Y-136638275D01*
X138920753Y-136665373D01*
X138920754Y-136665373D01*
X139093974Y-136665373D01*
X139093975Y-136665373D01*
X139265065Y-136638275D01*
X139429809Y-136584746D01*
X139584152Y-136506105D01*
X139724292Y-136404287D01*
X139846778Y-136281801D01*
X139948596Y-136141661D01*
X140027237Y-135987318D01*
X140080766Y-135822574D01*
X140107864Y-135651484D01*
X140107864Y-135478262D01*
X140098218Y-135417359D01*
X141836864Y-135417359D01*
X141836864Y-135712386D01*
X141868935Y-135955986D01*
X141875371Y-136004866D01*
X141949576Y-136281803D01*
X141951725Y-136289824D01*
X141951728Y-136289834D01*
X142064618Y-136562373D01*
X142064622Y-136562383D01*
X142212125Y-136817866D01*
X142391716Y-137051913D01*
X142391722Y-137051920D01*
X142600316Y-137260514D01*
X142600323Y-137260520D01*
X142834370Y-137440111D01*
X143089853Y-137587614D01*
X143089854Y-137587614D01*
X143089857Y-137587616D01*
X143362412Y-137700512D01*
X143647371Y-137776866D01*
X143939858Y-137815373D01*
X143939865Y-137815373D01*
X144234863Y-137815373D01*
X144234870Y-137815373D01*
X144527357Y-137776866D01*
X144812316Y-137700512D01*
X145084871Y-137587616D01*
X145340358Y-137440111D01*
X145574406Y-137260519D01*
X145783010Y-137051915D01*
X145962602Y-136817867D01*
X146110107Y-136562380D01*
X146223003Y-136289825D01*
X146299357Y-136004866D01*
X146337864Y-135712379D01*
X146337864Y-135478262D01*
X148066864Y-135478262D01*
X148066864Y-135651484D01*
X148093962Y-135822574D01*
X148147491Y-135987318D01*
X148226132Y-136141661D01*
X148327950Y-136281801D01*
X148450436Y-136404287D01*
X148590576Y-136506105D01*
X148744919Y-136584746D01*
X148909663Y-136638275D01*
X149080753Y-136665373D01*
X149080754Y-136665373D01*
X149253974Y-136665373D01*
X149253975Y-136665373D01*
X149425065Y-136638275D01*
X149589809Y-136584746D01*
X149744152Y-136506105D01*
X149884292Y-136404287D01*
X150006778Y-136281801D01*
X150108596Y-136141661D01*
X150187237Y-135987318D01*
X150240766Y-135822574D01*
X150267864Y-135651484D01*
X150267864Y-135478262D01*
X150240766Y-135307172D01*
X150187237Y-135142428D01*
X150108596Y-134988085D01*
X150006778Y-134847945D01*
X149884292Y-134725459D01*
X149744152Y-134623641D01*
X149589809Y-134545000D01*
X149425065Y-134491471D01*
X149425063Y-134491470D01*
X149425062Y-134491470D01*
X149293635Y-134470654D01*
X149253975Y-134464373D01*
X149080753Y-134464373D01*
X149041092Y-134470654D01*
X148909666Y-134491470D01*
X148744916Y-134545001D01*
X148590575Y-134623641D01*
X148534479Y-134664398D01*
X148450436Y-134725459D01*
X148450434Y-134725461D01*
X148450433Y-134725461D01*
X148327952Y-134847942D01*
X148327952Y-134847943D01*
X148327950Y-134847945D01*
X148284223Y-134908129D01*
X148226132Y-134988084D01*
X148147492Y-135142425D01*
X148093961Y-135307175D01*
X148066864Y-135478262D01*
X146337864Y-135478262D01*
X146337864Y-135417367D01*
X146299357Y-135124880D01*
X146223003Y-134839921D01*
X146110107Y-134567366D01*
X146059968Y-134480523D01*
X145962602Y-134311879D01*
X145783011Y-134077832D01*
X145783005Y-134077825D01*
X145574411Y-133869231D01*
X145574404Y-133869225D01*
X145340357Y-133689634D01*
X145084874Y-133542131D01*
X145084864Y-133542127D01*
X144812325Y-133429237D01*
X144812318Y-133429235D01*
X144812316Y-133429234D01*
X144527357Y-133352880D01*
X144478477Y-133346444D01*
X144234877Y-133314373D01*
X144234870Y-133314373D01*
X143939858Y-133314373D01*
X143939850Y-133314373D01*
X143661449Y-133351026D01*
X143647371Y-133352880D01*
X143473225Y-133399542D01*
X143362412Y-133429234D01*
X143362402Y-133429237D01*
X143089863Y-133542127D01*
X143089853Y-133542131D01*
X142834370Y-133689634D01*
X142600323Y-133869225D01*
X142600316Y-133869231D01*
X142391722Y-134077825D01*
X142391716Y-134077832D01*
X142212125Y-134311879D01*
X142064622Y-134567362D01*
X142064618Y-134567372D01*
X141951728Y-134839911D01*
X141951725Y-134839921D01*
X141875372Y-135124877D01*
X141875370Y-135124888D01*
X141836864Y-135417359D01*
X140098218Y-135417359D01*
X140080766Y-135307172D01*
X140027237Y-135142428D01*
X139948596Y-134988085D01*
X139846778Y-134847945D01*
X139794246Y-134795413D01*
X139760761Y-134734090D01*
X139765745Y-134664398D01*
X139807617Y-134608465D01*
X139873081Y-134584048D01*
X139901325Y-134585259D01*
X140151436Y-134624873D01*
X140403292Y-134624873D01*
X140652033Y-134585475D01*
X140891548Y-134507653D01*
X141115939Y-134393319D01*
X141115945Y-134393315D01*
X141218061Y-134319123D01*
X141218062Y-134319123D01*
X140601389Y-133702451D01*
X140632622Y-133689514D01*
X140755461Y-133607436D01*
X140859927Y-133502970D01*
X140942005Y-133380131D01*
X140954942Y-133348898D01*
X141571614Y-133965571D01*
X141571614Y-133965570D01*
X141645806Y-133863454D01*
X141645810Y-133863448D01*
X141760144Y-133639057D01*
X141837966Y-133399542D01*
X141877364Y-133150801D01*
X141877364Y-132898944D01*
X141837966Y-132650203D01*
X141760144Y-132410688D01*
X141645806Y-132186289D01*
X141571614Y-132084174D01*
X141571614Y-132084173D01*
X140954941Y-132700846D01*
X140942005Y-132669615D01*
X140859927Y-132546776D01*
X140755461Y-132442310D01*
X140632622Y-132360232D01*
X140601388Y-132347294D01*
X141218062Y-131730621D01*
X141115947Y-131656430D01*
X140891548Y-131542092D01*
X140652033Y-131464270D01*
X140403292Y-131424873D01*
X140151436Y-131424873D01*
X139902694Y-131464270D01*
X139663179Y-131542092D01*
X139438777Y-131656432D01*
X139336665Y-131730620D01*
X139336664Y-131730621D01*
X139953338Y-132347294D01*
X139922106Y-132360232D01*
X139799267Y-132442310D01*
X139694801Y-132546776D01*
X139612723Y-132669615D01*
X139599785Y-132700847D01*
X138983112Y-132084173D01*
X138983111Y-132084174D01*
X138908923Y-132186286D01*
X138794583Y-132410688D01*
X138716761Y-132650203D01*
X138677364Y-132898944D01*
X138677364Y-133150801D01*
X138716761Y-133399542D01*
X138794583Y-133639057D01*
X138908921Y-133863456D01*
X138983112Y-133965570D01*
X138983112Y-133965571D01*
X139599785Y-133348897D01*
X139612723Y-133380131D01*
X139694801Y-133502970D01*
X139799267Y-133607436D01*
X139922106Y-133689514D01*
X139953338Y-133702450D01*
X139336664Y-134319123D01*
X139338962Y-134348322D01*
X139324597Y-134416700D01*
X139275545Y-134466456D01*
X139207380Y-134481794D01*
X139195947Y-134480523D01*
X139093975Y-134464373D01*
X138920753Y-134464373D01*
X138881092Y-134470654D01*
X138749666Y-134491470D01*
X138584916Y-134545001D01*
X138430575Y-134623641D01*
X138374479Y-134664398D01*
X138290436Y-134725459D01*
X138290434Y-134725461D01*
X138290433Y-134725461D01*
X138167952Y-134847942D01*
X138167952Y-134847943D01*
X138167950Y-134847945D01*
X138124223Y-134908129D01*
X138066132Y-134988084D01*
X137987492Y-135142425D01*
X137933961Y-135307175D01*
X137906864Y-135478262D01*
X125250500Y-135478262D01*
X125250500Y-130358911D01*
X145026864Y-130358911D01*
X145026864Y-130610834D01*
X145066274Y-130859658D01*
X145144124Y-131099256D01*
X145258496Y-131323721D01*
X145406565Y-131527522D01*
X145406569Y-131527527D01*
X145584709Y-131705667D01*
X145584714Y-131705671D01*
X145762481Y-131834825D01*
X145788519Y-131853743D01*
X145931548Y-131926620D01*
X146012980Y-131968112D01*
X146012982Y-131968112D01*
X146012985Y-131968114D01*
X146252579Y-132045963D01*
X146501402Y-132085373D01*
X146501403Y-132085373D01*
X146753325Y-132085373D01*
X146753326Y-132085373D01*
X147002149Y-132045963D01*
X147241743Y-131968114D01*
X147466209Y-131853743D01*
X147670020Y-131705666D01*
X147848157Y-131527529D01*
X147996234Y-131323718D01*
X148110605Y-131099252D01*
X148188454Y-130859658D01*
X148227864Y-130610835D01*
X148227864Y-130358911D01*
X148188454Y-130110088D01*
X148110605Y-129870494D01*
X148110603Y-129870491D01*
X148110603Y-129870489D01*
X148069111Y-129789057D01*
X147996234Y-129646028D01*
X147977316Y-129619990D01*
X147848162Y-129442223D01*
X147848158Y-129442218D01*
X147670018Y-129264078D01*
X147670013Y-129264074D01*
X147466212Y-129116005D01*
X147466211Y-129116004D01*
X147466209Y-129116003D01*
X147396111Y-129080286D01*
X147241747Y-129001633D01*
X147002149Y-128923783D01*
X146753326Y-128884373D01*
X146501402Y-128884373D01*
X146376990Y-128904078D01*
X146252578Y-128923783D01*
X146012980Y-129001633D01*
X145788515Y-129116005D01*
X145584714Y-129264074D01*
X145584709Y-129264078D01*
X145406569Y-129442218D01*
X145406565Y-129442223D01*
X145258496Y-129646024D01*
X145144124Y-129870489D01*
X145066274Y-130110087D01*
X145026864Y-130358911D01*
X125250500Y-130358911D01*
X125250500Y-124665036D01*
X170906864Y-124665036D01*
X170906864Y-124838258D01*
X170933962Y-125009348D01*
X170987491Y-125174092D01*
X171066132Y-125328435D01*
X171167950Y-125468575D01*
X171290436Y-125591061D01*
X171430576Y-125692879D01*
X171584919Y-125771520D01*
X171749663Y-125825049D01*
X171920753Y-125852147D01*
X171920754Y-125852147D01*
X172093974Y-125852147D01*
X172093975Y-125852147D01*
X172265065Y-125825049D01*
X172429809Y-125771520D01*
X172584152Y-125692879D01*
X172724292Y-125591061D01*
X172846778Y-125468575D01*
X172948596Y-125328435D01*
X173027237Y-125174092D01*
X173080766Y-125009348D01*
X173107864Y-124838258D01*
X173107864Y-124665036D01*
X173098218Y-124604133D01*
X174836864Y-124604133D01*
X174836864Y-124899160D01*
X174868935Y-125142760D01*
X174875371Y-125191640D01*
X174949576Y-125468577D01*
X174951725Y-125476598D01*
X174951728Y-125476608D01*
X175064618Y-125749147D01*
X175064622Y-125749157D01*
X175212125Y-126004640D01*
X175391716Y-126238687D01*
X175391722Y-126238694D01*
X175600316Y-126447288D01*
X175600323Y-126447294D01*
X175834370Y-126626885D01*
X176089853Y-126774388D01*
X176089854Y-126774388D01*
X176089857Y-126774390D01*
X176362412Y-126887286D01*
X176647371Y-126963640D01*
X176939858Y-127002147D01*
X176939865Y-127002147D01*
X177234863Y-127002147D01*
X177234870Y-127002147D01*
X177527357Y-126963640D01*
X177812316Y-126887286D01*
X178084871Y-126774390D01*
X178340358Y-126626885D01*
X178574406Y-126447293D01*
X178783010Y-126238689D01*
X178962602Y-126004641D01*
X179110107Y-125749154D01*
X179223003Y-125476599D01*
X179299357Y-125191640D01*
X179337864Y-124899153D01*
X179337864Y-124665036D01*
X181066864Y-124665036D01*
X181066864Y-124838258D01*
X181093962Y-125009348D01*
X181147491Y-125174092D01*
X181226132Y-125328435D01*
X181327950Y-125468575D01*
X181450436Y-125591061D01*
X181590576Y-125692879D01*
X181744919Y-125771520D01*
X181909663Y-125825049D01*
X182080753Y-125852147D01*
X182080754Y-125852147D01*
X182253974Y-125852147D01*
X182253975Y-125852147D01*
X182425065Y-125825049D01*
X182589809Y-125771520D01*
X182744152Y-125692879D01*
X182884292Y-125591061D01*
X183006778Y-125468575D01*
X183108596Y-125328435D01*
X183187237Y-125174092D01*
X183240766Y-125009348D01*
X183267864Y-124838258D01*
X183267864Y-124665036D01*
X183240766Y-124493946D01*
X183187237Y-124329202D01*
X183108596Y-124174859D01*
X183006778Y-124034719D01*
X182884292Y-123912233D01*
X182744152Y-123810415D01*
X182589809Y-123731774D01*
X182425065Y-123678245D01*
X182425063Y-123678244D01*
X182425062Y-123678244D01*
X182293635Y-123657428D01*
X182253975Y-123651147D01*
X182080753Y-123651147D01*
X182041092Y-123657428D01*
X181909666Y-123678244D01*
X181744916Y-123731775D01*
X181590575Y-123810415D01*
X181534479Y-123851172D01*
X181450436Y-123912233D01*
X181450434Y-123912235D01*
X181450433Y-123912235D01*
X181327952Y-124034716D01*
X181327952Y-124034717D01*
X181327950Y-124034719D01*
X181284223Y-124094903D01*
X181226132Y-124174858D01*
X181147492Y-124329199D01*
X181093961Y-124493949D01*
X181066864Y-124665036D01*
X179337864Y-124665036D01*
X179337864Y-124604141D01*
X179299357Y-124311654D01*
X179223003Y-124026695D01*
X179110107Y-123754140D01*
X179059968Y-123667297D01*
X178962602Y-123498653D01*
X178783011Y-123264606D01*
X178783005Y-123264599D01*
X178574411Y-123056005D01*
X178574404Y-123055999D01*
X178340357Y-122876408D01*
X178084874Y-122728905D01*
X178084864Y-122728901D01*
X177812325Y-122616011D01*
X177812318Y-122616009D01*
X177812316Y-122616008D01*
X177527357Y-122539654D01*
X177478477Y-122533218D01*
X177234877Y-122501147D01*
X177234870Y-122501147D01*
X176939858Y-122501147D01*
X176939850Y-122501147D01*
X176661449Y-122537800D01*
X176647371Y-122539654D01*
X176473225Y-122586316D01*
X176362412Y-122616008D01*
X176362402Y-122616011D01*
X176089863Y-122728901D01*
X176089853Y-122728905D01*
X175834370Y-122876408D01*
X175600323Y-123055999D01*
X175600316Y-123056005D01*
X175391722Y-123264599D01*
X175391716Y-123264606D01*
X175212125Y-123498653D01*
X175064622Y-123754136D01*
X175064618Y-123754146D01*
X174951728Y-124026685D01*
X174951725Y-124026695D01*
X174875372Y-124311651D01*
X174875370Y-124311662D01*
X174836864Y-124604133D01*
X173098218Y-124604133D01*
X173080766Y-124493946D01*
X173027237Y-124329202D01*
X172948596Y-124174859D01*
X172846778Y-124034719D01*
X172794246Y-123982187D01*
X172760761Y-123920864D01*
X172765745Y-123851172D01*
X172807617Y-123795239D01*
X172873081Y-123770822D01*
X172901325Y-123772033D01*
X173151436Y-123811647D01*
X173403292Y-123811647D01*
X173652033Y-123772249D01*
X173891548Y-123694427D01*
X174115939Y-123580093D01*
X174115945Y-123580089D01*
X174218061Y-123505897D01*
X174218062Y-123505897D01*
X173601389Y-122889225D01*
X173632622Y-122876288D01*
X173755461Y-122794210D01*
X173859927Y-122689744D01*
X173942005Y-122566905D01*
X173954941Y-122535672D01*
X174571614Y-123152345D01*
X174571614Y-123152344D01*
X174645806Y-123050228D01*
X174645810Y-123050222D01*
X174760144Y-122825831D01*
X174837966Y-122586316D01*
X174877364Y-122337575D01*
X174877364Y-122085718D01*
X174837966Y-121836977D01*
X174760144Y-121597462D01*
X174645806Y-121373063D01*
X174571614Y-121270948D01*
X174571614Y-121270947D01*
X173954941Y-121887620D01*
X173942005Y-121856389D01*
X173859927Y-121733550D01*
X173755461Y-121629084D01*
X173632622Y-121547006D01*
X173601388Y-121534068D01*
X174218062Y-120917395D01*
X174115947Y-120843204D01*
X173891548Y-120728866D01*
X173652033Y-120651044D01*
X173403292Y-120611647D01*
X173151436Y-120611647D01*
X172902694Y-120651044D01*
X172663179Y-120728866D01*
X172438777Y-120843206D01*
X172336665Y-120917394D01*
X172336664Y-120917395D01*
X172953338Y-121534068D01*
X172922106Y-121547006D01*
X172799267Y-121629084D01*
X172694801Y-121733550D01*
X172612723Y-121856389D01*
X172599785Y-121887621D01*
X171983112Y-121270947D01*
X171983111Y-121270948D01*
X171908923Y-121373060D01*
X171794583Y-121597462D01*
X171716761Y-121836977D01*
X171677364Y-122085718D01*
X171677364Y-122337575D01*
X171716761Y-122586316D01*
X171794583Y-122825831D01*
X171908921Y-123050230D01*
X171983112Y-123152344D01*
X171983112Y-123152345D01*
X172599785Y-122535671D01*
X172612723Y-122566905D01*
X172694801Y-122689744D01*
X172799267Y-122794210D01*
X172922106Y-122876288D01*
X172953338Y-122889224D01*
X172336664Y-123505897D01*
X172338962Y-123535096D01*
X172324597Y-123603474D01*
X172275545Y-123653230D01*
X172207380Y-123668568D01*
X172195947Y-123667297D01*
X172093975Y-123651147D01*
X171920753Y-123651147D01*
X171881092Y-123657428D01*
X171749666Y-123678244D01*
X171584916Y-123731775D01*
X171430575Y-123810415D01*
X171374479Y-123851172D01*
X171290436Y-123912233D01*
X171290434Y-123912235D01*
X171290433Y-123912235D01*
X171167952Y-124034716D01*
X171167952Y-124034717D01*
X171167950Y-124034719D01*
X171124223Y-124094903D01*
X171066132Y-124174858D01*
X170987492Y-124329199D01*
X170933961Y-124493949D01*
X170906864Y-124665036D01*
X125250500Y-124665036D01*
X125250500Y-119545685D01*
X178026864Y-119545685D01*
X178026864Y-119797608D01*
X178066274Y-120046432D01*
X178144124Y-120286030D01*
X178258496Y-120510495D01*
X178406565Y-120714296D01*
X178406569Y-120714301D01*
X178584709Y-120892441D01*
X178584714Y-120892445D01*
X178762481Y-121021599D01*
X178788519Y-121040517D01*
X178931548Y-121113394D01*
X179012980Y-121154886D01*
X179012982Y-121154886D01*
X179012985Y-121154888D01*
X179252579Y-121232737D01*
X179501402Y-121272147D01*
X179501403Y-121272147D01*
X179753325Y-121272147D01*
X179753326Y-121272147D01*
X180002149Y-121232737D01*
X180241743Y-121154888D01*
X180466209Y-121040517D01*
X180670020Y-120892440D01*
X180848157Y-120714303D01*
X180996234Y-120510492D01*
X181110605Y-120286026D01*
X181188454Y-120046432D01*
X181227864Y-119797609D01*
X181227864Y-119545685D01*
X181188454Y-119296862D01*
X181110605Y-119057268D01*
X181110603Y-119057265D01*
X181110603Y-119057263D01*
X181069111Y-118975831D01*
X180996234Y-118832802D01*
X180977316Y-118806764D01*
X180848162Y-118628997D01*
X180848158Y-118628992D01*
X180670018Y-118450852D01*
X180670013Y-118450848D01*
X180466212Y-118302779D01*
X180466211Y-118302778D01*
X180466209Y-118302777D01*
X180396111Y-118267060D01*
X180241747Y-118188407D01*
X180002149Y-118110557D01*
X179753326Y-118071147D01*
X179501402Y-118071147D01*
X179376990Y-118090852D01*
X179252578Y-118110557D01*
X179012980Y-118188407D01*
X178788515Y-118302779D01*
X178584714Y-118450848D01*
X178584709Y-118450852D01*
X178406569Y-118628992D01*
X178406565Y-118628997D01*
X178258496Y-118832798D01*
X178144124Y-119057263D01*
X178066274Y-119296861D01*
X178026864Y-119545685D01*
X125250500Y-119545685D01*
X125250500Y-116771645D01*
X125254320Y-116727554D01*
X125250500Y-116705996D01*
X125250500Y-116684108D01*
X125239047Y-116641365D01*
X125231326Y-116597792D01*
X125222058Y-116577960D01*
X125216392Y-116556814D01*
X125196943Y-116523129D01*
X125192002Y-116513647D01*
X125175531Y-116478401D01*
X125161444Y-116461641D01*
X125150500Y-116442686D01*
X125119215Y-116411401D01*
X125115763Y-116407294D01*
X125115762Y-116407293D01*
X125090740Y-116377525D01*
X125090736Y-116377520D01*
X125090732Y-116377517D01*
X125090731Y-116377516D01*
X125081723Y-116371220D01*
X125081723Y-116371219D01*
X125072788Y-116364974D01*
X125057314Y-116349500D01*
X125018987Y-116327372D01*
X125014592Y-116324300D01*
X125014591Y-116324299D01*
X124982724Y-116302026D01*
X124982718Y-116302022D01*
X124972389Y-116298273D01*
X124952706Y-116289104D01*
X124943186Y-116283608D01*
X124943179Y-116283605D01*
X124905619Y-116273541D01*
X124895402Y-116270325D01*
X105080189Y-109077131D01*
X104770283Y-108964631D01*
X136757820Y-108964631D01*
X136757820Y-109207208D01*
X136789481Y-109447705D01*
X136852267Y-109682024D01*
X136945093Y-109906125D01*
X136945096Y-109906132D01*
X137066384Y-110116209D01*
X137066386Y-110116212D01*
X137066387Y-110116213D01*
X137214053Y-110308656D01*
X137214059Y-110308663D01*
X137385576Y-110480180D01*
X137385582Y-110480185D01*
X137578031Y-110627856D01*
X137788108Y-110749144D01*
X138012220Y-110841974D01*
X138246531Y-110904758D01*
X138426906Y-110928504D01*
X138487031Y-110936420D01*
X138487032Y-110936420D01*
X138729609Y-110936420D01*
X138777708Y-110930087D01*
X138970109Y-110904758D01*
X139204420Y-110841974D01*
X139428532Y-110749144D01*
X139638609Y-110627856D01*
X139831058Y-110480185D01*
X140002585Y-110308658D01*
X140150256Y-110116209D01*
X140271544Y-109906132D01*
X140364374Y-109682020D01*
X140427158Y-109447709D01*
X140458820Y-109207208D01*
X140458820Y-108964632D01*
X140427158Y-108724131D01*
X140364374Y-108489820D01*
X140271544Y-108265708D01*
X140150256Y-108055631D01*
X140002585Y-107863182D01*
X140002580Y-107863176D01*
X139831063Y-107691659D01*
X139831056Y-107691653D01*
X139638613Y-107543987D01*
X139638612Y-107543986D01*
X139638609Y-107543984D01*
X139428532Y-107422696D01*
X139428525Y-107422693D01*
X139204424Y-107329867D01*
X138970105Y-107267081D01*
X138729609Y-107235420D01*
X138729608Y-107235420D01*
X138487032Y-107235420D01*
X138487031Y-107235420D01*
X138246534Y-107267081D01*
X138012215Y-107329867D01*
X137788114Y-107422693D01*
X137788105Y-107422697D01*
X137578026Y-107543987D01*
X137385583Y-107691653D01*
X137385576Y-107691659D01*
X137214059Y-107863176D01*
X137214053Y-107863183D01*
X137066387Y-108055626D01*
X136945097Y-108265705D01*
X136945093Y-108265714D01*
X136852267Y-108489815D01*
X136789481Y-108724134D01*
X136757820Y-108964631D01*
X104770283Y-108964631D01*
X92049040Y-104346645D01*
X91739134Y-104234145D01*
X198736864Y-104234145D01*
X198736864Y-104476722D01*
X198768525Y-104717219D01*
X198831311Y-104951538D01*
X198924137Y-105175639D01*
X198924140Y-105175646D01*
X199045428Y-105385723D01*
X199045430Y-105385726D01*
X199045431Y-105385727D01*
X199193097Y-105578170D01*
X199193103Y-105578177D01*
X199364620Y-105749694D01*
X199364626Y-105749699D01*
X199557075Y-105897370D01*
X199767152Y-106018658D01*
X199991264Y-106111488D01*
X200225575Y-106174272D01*
X200405950Y-106198018D01*
X200466075Y-106205934D01*
X200466076Y-106205934D01*
X200708653Y-106205934D01*
X200756752Y-106199601D01*
X200949153Y-106174272D01*
X201183464Y-106111488D01*
X201407576Y-106018658D01*
X201617653Y-105897370D01*
X201810102Y-105749699D01*
X201981629Y-105578172D01*
X202129300Y-105385723D01*
X202250588Y-105175646D01*
X202343418Y-104951534D01*
X202406202Y-104717223D01*
X202437864Y-104476722D01*
X202437864Y-104234146D01*
X202406202Y-103993645D01*
X202343418Y-103759334D01*
X202250588Y-103535222D01*
X202129300Y-103325145D01*
X201981629Y-103132696D01*
X201981624Y-103132690D01*
X201810107Y-102961173D01*
X201810100Y-102961167D01*
X201617657Y-102813501D01*
X201617656Y-102813500D01*
X201617653Y-102813498D01*
X201446025Y-102714408D01*
X201407578Y-102692211D01*
X201407569Y-102692207D01*
X201183468Y-102599381D01*
X200949149Y-102536595D01*
X200708653Y-102504934D01*
X200708652Y-102504934D01*
X200466076Y-102504934D01*
X200466075Y-102504934D01*
X200225578Y-102536595D01*
X199991259Y-102599381D01*
X199767158Y-102692207D01*
X199767149Y-102692211D01*
X199557070Y-102813501D01*
X199364627Y-102961167D01*
X199364620Y-102961173D01*
X199193103Y-103132690D01*
X199193097Y-103132697D01*
X199045431Y-103325140D01*
X198924141Y-103535219D01*
X198924137Y-103535228D01*
X198831311Y-103759329D01*
X198768525Y-103993648D01*
X198736864Y-104234145D01*
X91739134Y-104234145D01*
X81700403Y-100589948D01*
X81392740Y-100478262D01*
X154906864Y-100478262D01*
X154906864Y-100651483D01*
X154926722Y-100776866D01*
X154933962Y-100822574D01*
X154987491Y-100987318D01*
X155066132Y-101141661D01*
X155167950Y-101281801D01*
X155290436Y-101404287D01*
X155430576Y-101506105D01*
X155584919Y-101584746D01*
X155749663Y-101638275D01*
X155920753Y-101665373D01*
X155920754Y-101665373D01*
X156093974Y-101665373D01*
X156093975Y-101665373D01*
X156265065Y-101638275D01*
X156429809Y-101584746D01*
X156584152Y-101506105D01*
X156724292Y-101404287D01*
X156846778Y-101281801D01*
X156948596Y-101141661D01*
X157027237Y-100987318D01*
X157080766Y-100822574D01*
X157107864Y-100651484D01*
X157107864Y-100478262D01*
X157098218Y-100417359D01*
X158836864Y-100417359D01*
X158836864Y-100712386D01*
X158868935Y-100955986D01*
X158875371Y-101004866D01*
X158949576Y-101281803D01*
X158951725Y-101289824D01*
X158951728Y-101289834D01*
X159064618Y-101562373D01*
X159064622Y-101562383D01*
X159212125Y-101817866D01*
X159391716Y-102051913D01*
X159391722Y-102051920D01*
X159600316Y-102260514D01*
X159600323Y-102260520D01*
X159834370Y-102440111D01*
X160089853Y-102587614D01*
X160089854Y-102587614D01*
X160089857Y-102587616D01*
X160300660Y-102674933D01*
X160342371Y-102692211D01*
X160362412Y-102700512D01*
X160647371Y-102776866D01*
X160939858Y-102815373D01*
X160939865Y-102815373D01*
X161234863Y-102815373D01*
X161234870Y-102815373D01*
X161527357Y-102776866D01*
X161812316Y-102700512D01*
X162084871Y-102587616D01*
X162340358Y-102440111D01*
X162574406Y-102260519D01*
X162783010Y-102051915D01*
X162962602Y-101817867D01*
X163110107Y-101562380D01*
X163223003Y-101289825D01*
X163299357Y-101004866D01*
X163337864Y-100712379D01*
X163337864Y-100478262D01*
X165066864Y-100478262D01*
X165066864Y-100651483D01*
X165086722Y-100776866D01*
X165093962Y-100822574D01*
X165147491Y-100987318D01*
X165226132Y-101141661D01*
X165327950Y-101281801D01*
X165450436Y-101404287D01*
X165590576Y-101506105D01*
X165744919Y-101584746D01*
X165909663Y-101638275D01*
X166080753Y-101665373D01*
X166080754Y-101665373D01*
X166253974Y-101665373D01*
X166253975Y-101665373D01*
X166425065Y-101638275D01*
X166589809Y-101584746D01*
X166744152Y-101506105D01*
X166884292Y-101404287D01*
X167006778Y-101281801D01*
X167108596Y-101141661D01*
X167187237Y-100987318D01*
X167240766Y-100822574D01*
X167267864Y-100651484D01*
X167267864Y-100478262D01*
X167240766Y-100307172D01*
X167187237Y-100142428D01*
X167108596Y-99988085D01*
X167006778Y-99847945D01*
X166884292Y-99725459D01*
X166744152Y-99623641D01*
X166589809Y-99545000D01*
X166425065Y-99491471D01*
X166425063Y-99491470D01*
X166425062Y-99491470D01*
X166293635Y-99470654D01*
X166253975Y-99464373D01*
X166080753Y-99464373D01*
X166041092Y-99470654D01*
X165909666Y-99491470D01*
X165744916Y-99545001D01*
X165590575Y-99623641D01*
X165534479Y-99664398D01*
X165450436Y-99725459D01*
X165450434Y-99725461D01*
X165450433Y-99725461D01*
X165327952Y-99847942D01*
X165327952Y-99847943D01*
X165327950Y-99847945D01*
X165284223Y-99908129D01*
X165226132Y-99988084D01*
X165147492Y-100142425D01*
X165093961Y-100307175D01*
X165066864Y-100478262D01*
X163337864Y-100478262D01*
X163337864Y-100417367D01*
X163299357Y-100124880D01*
X163223003Y-99839921D01*
X163110107Y-99567366D01*
X163107228Y-99562380D01*
X162962602Y-99311879D01*
X162783011Y-99077832D01*
X162783005Y-99077825D01*
X162574411Y-98869231D01*
X162574404Y-98869225D01*
X162340357Y-98689634D01*
X162151810Y-98580777D01*
X162084874Y-98542131D01*
X162084864Y-98542127D01*
X161930681Y-98478262D01*
X236906864Y-98478262D01*
X236906864Y-98651484D01*
X236933962Y-98822574D01*
X236987491Y-98987318D01*
X237066132Y-99141661D01*
X237167950Y-99281801D01*
X237290436Y-99404287D01*
X237430576Y-99506105D01*
X237584919Y-99584746D01*
X237749663Y-99638275D01*
X237920753Y-99665373D01*
X237920754Y-99665373D01*
X238093974Y-99665373D01*
X238093975Y-99665373D01*
X238265065Y-99638275D01*
X238429809Y-99584746D01*
X238584152Y-99506105D01*
X238724292Y-99404287D01*
X238846778Y-99281801D01*
X238948596Y-99141661D01*
X239027237Y-98987318D01*
X239080766Y-98822574D01*
X239107864Y-98651484D01*
X239107864Y-98478262D01*
X239098218Y-98417359D01*
X240836864Y-98417359D01*
X240836864Y-98712386D01*
X240857514Y-98869231D01*
X240875371Y-99004866D01*
X240949576Y-99281803D01*
X240951725Y-99289824D01*
X240951728Y-99289834D01*
X241064618Y-99562373D01*
X241064622Y-99562383D01*
X241212125Y-99817866D01*
X241391716Y-100051913D01*
X241391722Y-100051920D01*
X241600316Y-100260514D01*
X241600323Y-100260520D01*
X241834370Y-100440111D01*
X242089853Y-100587614D01*
X242089854Y-100587614D01*
X242089857Y-100587616D01*
X242362412Y-100700512D01*
X242647371Y-100776866D01*
X242939858Y-100815373D01*
X242939865Y-100815373D01*
X243234863Y-100815373D01*
X243234870Y-100815373D01*
X243527357Y-100776866D01*
X243812316Y-100700512D01*
X244084871Y-100587616D01*
X244340358Y-100440111D01*
X244574406Y-100260519D01*
X244783010Y-100051915D01*
X244962602Y-99817867D01*
X245110107Y-99562380D01*
X245223003Y-99289825D01*
X245299357Y-99004866D01*
X245337864Y-98712379D01*
X245337864Y-98478262D01*
X247066864Y-98478262D01*
X247066864Y-98651484D01*
X247093962Y-98822574D01*
X247147491Y-98987318D01*
X247226132Y-99141661D01*
X247327950Y-99281801D01*
X247450436Y-99404287D01*
X247590576Y-99506105D01*
X247744919Y-99584746D01*
X247909663Y-99638275D01*
X248080753Y-99665373D01*
X248080754Y-99665373D01*
X248253974Y-99665373D01*
X248253975Y-99665373D01*
X248425065Y-99638275D01*
X248589809Y-99584746D01*
X248744152Y-99506105D01*
X248884292Y-99404287D01*
X249006778Y-99281801D01*
X249108596Y-99141661D01*
X249187237Y-98987318D01*
X249240766Y-98822574D01*
X249267864Y-98651484D01*
X249267864Y-98478262D01*
X249240766Y-98307172D01*
X249187237Y-98142428D01*
X249108596Y-97988085D01*
X249006778Y-97847945D01*
X248884292Y-97725459D01*
X248744152Y-97623641D01*
X248589809Y-97545000D01*
X248425065Y-97491471D01*
X248425063Y-97491470D01*
X248425062Y-97491470D01*
X248293635Y-97470654D01*
X248253975Y-97464373D01*
X248080753Y-97464373D01*
X248041092Y-97470654D01*
X247909666Y-97491470D01*
X247744916Y-97545001D01*
X247590575Y-97623641D01*
X247534479Y-97664398D01*
X247450436Y-97725459D01*
X247450434Y-97725461D01*
X247450433Y-97725461D01*
X247327952Y-97847942D01*
X247327952Y-97847943D01*
X247327950Y-97847945D01*
X247290897Y-97898944D01*
X247226132Y-97988084D01*
X247147492Y-98142425D01*
X247093961Y-98307175D01*
X247066864Y-98478262D01*
X245337864Y-98478262D01*
X245337864Y-98417367D01*
X245299357Y-98124880D01*
X245223003Y-97839921D01*
X245110107Y-97567366D01*
X245098219Y-97546776D01*
X244962602Y-97311879D01*
X244783011Y-97077832D01*
X244783005Y-97077825D01*
X244574411Y-96869231D01*
X244574404Y-96869225D01*
X244340357Y-96689634D01*
X244084874Y-96542131D01*
X244084864Y-96542127D01*
X243812325Y-96429237D01*
X243812318Y-96429235D01*
X243812316Y-96429234D01*
X243527357Y-96352880D01*
X243478477Y-96346444D01*
X243234877Y-96314373D01*
X243234870Y-96314373D01*
X242939858Y-96314373D01*
X242939850Y-96314373D01*
X242661449Y-96351026D01*
X242647371Y-96352880D01*
X242473225Y-96399542D01*
X242362412Y-96429234D01*
X242362402Y-96429237D01*
X242089863Y-96542127D01*
X242089853Y-96542131D01*
X241834370Y-96689634D01*
X241600323Y-96869225D01*
X241600316Y-96869231D01*
X241391722Y-97077825D01*
X241391716Y-97077832D01*
X241212125Y-97311879D01*
X241064622Y-97567362D01*
X241064618Y-97567372D01*
X240951728Y-97839911D01*
X240951725Y-97839921D01*
X240875372Y-98124877D01*
X240875370Y-98124888D01*
X240836864Y-98417359D01*
X239098218Y-98417359D01*
X239080766Y-98307172D01*
X239027237Y-98142428D01*
X238948596Y-97988085D01*
X238846778Y-97847945D01*
X238794246Y-97795413D01*
X238760761Y-97734090D01*
X238765745Y-97664398D01*
X238807617Y-97608465D01*
X238873081Y-97584048D01*
X238901325Y-97585259D01*
X239151436Y-97624873D01*
X239403292Y-97624873D01*
X239652033Y-97585475D01*
X239891548Y-97507653D01*
X240115939Y-97393319D01*
X240115945Y-97393315D01*
X240218061Y-97319123D01*
X240218062Y-97319123D01*
X239601389Y-96702451D01*
X239632622Y-96689514D01*
X239755461Y-96607436D01*
X239859927Y-96502970D01*
X239942005Y-96380131D01*
X239954941Y-96348898D01*
X240571614Y-96965571D01*
X240571614Y-96965570D01*
X240645806Y-96863454D01*
X240645810Y-96863448D01*
X240760144Y-96639057D01*
X240837966Y-96399542D01*
X240877364Y-96150801D01*
X240877364Y-95898944D01*
X240837966Y-95650203D01*
X240760144Y-95410688D01*
X240645806Y-95186289D01*
X240571614Y-95084174D01*
X240571614Y-95084173D01*
X239954941Y-95700846D01*
X239942005Y-95669615D01*
X239859927Y-95546776D01*
X239755461Y-95442310D01*
X239632622Y-95360232D01*
X239601388Y-95347294D01*
X240218062Y-94730621D01*
X240115947Y-94656430D01*
X239891548Y-94542092D01*
X239652033Y-94464270D01*
X239403292Y-94424873D01*
X239151436Y-94424873D01*
X238902694Y-94464270D01*
X238663179Y-94542092D01*
X238438777Y-94656432D01*
X238336665Y-94730620D01*
X238336664Y-94730621D01*
X238953338Y-95347294D01*
X238922106Y-95360232D01*
X238799267Y-95442310D01*
X238694801Y-95546776D01*
X238612723Y-95669615D01*
X238599785Y-95700847D01*
X237983112Y-95084173D01*
X237983111Y-95084174D01*
X237908923Y-95186286D01*
X237794583Y-95410688D01*
X237716761Y-95650203D01*
X237677364Y-95898944D01*
X237677364Y-96150801D01*
X237716761Y-96399542D01*
X237794583Y-96639057D01*
X237908921Y-96863456D01*
X237983112Y-96965570D01*
X237983112Y-96965571D01*
X238599785Y-96348897D01*
X238612723Y-96380131D01*
X238694801Y-96502970D01*
X238799267Y-96607436D01*
X238922106Y-96689514D01*
X238953338Y-96702450D01*
X238336664Y-97319123D01*
X238338962Y-97348322D01*
X238324597Y-97416700D01*
X238275545Y-97466456D01*
X238207380Y-97481794D01*
X238195947Y-97480523D01*
X238093975Y-97464373D01*
X237920753Y-97464373D01*
X237881092Y-97470654D01*
X237749666Y-97491470D01*
X237584916Y-97545001D01*
X237430575Y-97623641D01*
X237374479Y-97664398D01*
X237290436Y-97725459D01*
X237290434Y-97725461D01*
X237290433Y-97725461D01*
X237167952Y-97847942D01*
X237167952Y-97847943D01*
X237167950Y-97847945D01*
X237130897Y-97898944D01*
X237066132Y-97988084D01*
X236987492Y-98142425D01*
X236933961Y-98307175D01*
X236906864Y-98478262D01*
X161930681Y-98478262D01*
X161812325Y-98429237D01*
X161812318Y-98429235D01*
X161812316Y-98429234D01*
X161527357Y-98352880D01*
X161478477Y-98346444D01*
X161234877Y-98314373D01*
X161234870Y-98314373D01*
X160939858Y-98314373D01*
X160939850Y-98314373D01*
X160661449Y-98351026D01*
X160647371Y-98352880D01*
X160406701Y-98417367D01*
X160362412Y-98429234D01*
X160362402Y-98429237D01*
X160089863Y-98542127D01*
X160089853Y-98542131D01*
X159834370Y-98689634D01*
X159600323Y-98869225D01*
X159600316Y-98869231D01*
X159391722Y-99077825D01*
X159391716Y-99077832D01*
X159212125Y-99311879D01*
X159064622Y-99567362D01*
X159064618Y-99567372D01*
X158951728Y-99839911D01*
X158951725Y-99839921D01*
X158894921Y-100051920D01*
X158875372Y-100124877D01*
X158875370Y-100124888D01*
X158836864Y-100417359D01*
X157098218Y-100417359D01*
X157080766Y-100307172D01*
X157027237Y-100142428D01*
X156948596Y-99988085D01*
X156846778Y-99847945D01*
X156794246Y-99795413D01*
X156760761Y-99734090D01*
X156765745Y-99664398D01*
X156807617Y-99608465D01*
X156873081Y-99584048D01*
X156901325Y-99585259D01*
X157151436Y-99624873D01*
X157403292Y-99624873D01*
X157652033Y-99585475D01*
X157891548Y-99507653D01*
X158115939Y-99393319D01*
X158115945Y-99393315D01*
X158218061Y-99319123D01*
X158218062Y-99319123D01*
X157601389Y-98702451D01*
X157632622Y-98689514D01*
X157755461Y-98607436D01*
X157859927Y-98502970D01*
X157942005Y-98380131D01*
X157954941Y-98348898D01*
X158571614Y-98965571D01*
X158571614Y-98965570D01*
X158645806Y-98863454D01*
X158645810Y-98863448D01*
X158760144Y-98639057D01*
X158837966Y-98399542D01*
X158877364Y-98150801D01*
X158877364Y-97898944D01*
X158837966Y-97650203D01*
X158760144Y-97410688D01*
X158645806Y-97186289D01*
X158571614Y-97084174D01*
X158571614Y-97084173D01*
X157954941Y-97700846D01*
X157942005Y-97669615D01*
X157859927Y-97546776D01*
X157755461Y-97442310D01*
X157632622Y-97360232D01*
X157601388Y-97347294D01*
X158218062Y-96730621D01*
X158115947Y-96656430D01*
X157891548Y-96542092D01*
X157652033Y-96464270D01*
X157403292Y-96424873D01*
X157151436Y-96424873D01*
X156902694Y-96464270D01*
X156663179Y-96542092D01*
X156438777Y-96656432D01*
X156336665Y-96730620D01*
X156336664Y-96730621D01*
X156953338Y-97347294D01*
X156922106Y-97360232D01*
X156799267Y-97442310D01*
X156694801Y-97546776D01*
X156612723Y-97669615D01*
X156599785Y-97700847D01*
X155983112Y-97084173D01*
X155983111Y-97084174D01*
X155908923Y-97186286D01*
X155794583Y-97410688D01*
X155716761Y-97650203D01*
X155677364Y-97898944D01*
X155677364Y-98150801D01*
X155716761Y-98399542D01*
X155794583Y-98639057D01*
X155908921Y-98863456D01*
X155983112Y-98965570D01*
X155983112Y-98965571D01*
X156599785Y-98348897D01*
X156612723Y-98380131D01*
X156694801Y-98502970D01*
X156799267Y-98607436D01*
X156922106Y-98689514D01*
X156953338Y-98702450D01*
X156336664Y-99319123D01*
X156338962Y-99348322D01*
X156324597Y-99416700D01*
X156275545Y-99466456D01*
X156207380Y-99481794D01*
X156195947Y-99480523D01*
X156093975Y-99464373D01*
X155920753Y-99464373D01*
X155881092Y-99470654D01*
X155749666Y-99491470D01*
X155584916Y-99545001D01*
X155430575Y-99623641D01*
X155374479Y-99664398D01*
X155290436Y-99725459D01*
X155290434Y-99725461D01*
X155290433Y-99725461D01*
X155167952Y-99847942D01*
X155167952Y-99847943D01*
X155167950Y-99847945D01*
X155124223Y-99908129D01*
X155066132Y-99988084D01*
X154987492Y-100142425D01*
X154933961Y-100307175D01*
X154906864Y-100478262D01*
X81392740Y-100478262D01*
X74595129Y-98010636D01*
X71520322Y-96894439D01*
X63971668Y-94154174D01*
X63661762Y-94041674D01*
X100813206Y-94041674D01*
X100813206Y-94284251D01*
X100844867Y-94524748D01*
X100907653Y-94759067D01*
X101000479Y-94983168D01*
X101000482Y-94983175D01*
X101121770Y-95193252D01*
X101121772Y-95193255D01*
X101121773Y-95193256D01*
X101269439Y-95385699D01*
X101269445Y-95385706D01*
X101440962Y-95557223D01*
X101440968Y-95557228D01*
X101633417Y-95704899D01*
X101843494Y-95826187D01*
X102067606Y-95919017D01*
X102301917Y-95981801D01*
X102482292Y-96005547D01*
X102542417Y-96013463D01*
X102542418Y-96013463D01*
X102784995Y-96013463D01*
X102833094Y-96007130D01*
X103025495Y-95981801D01*
X103259806Y-95919017D01*
X103483918Y-95826187D01*
X103693995Y-95704899D01*
X103886444Y-95557228D01*
X104057971Y-95385701D01*
X104078528Y-95358911D01*
X162026864Y-95358911D01*
X162026864Y-95610834D01*
X162066274Y-95859658D01*
X162144124Y-96099256D01*
X162170388Y-96150801D01*
X162253732Y-96314373D01*
X162258496Y-96323721D01*
X162406565Y-96527522D01*
X162406569Y-96527527D01*
X162584709Y-96705667D01*
X162584714Y-96705671D01*
X162640293Y-96746051D01*
X162788519Y-96853743D01*
X162931548Y-96926620D01*
X163012980Y-96968112D01*
X163012982Y-96968112D01*
X163012985Y-96968114D01*
X163252579Y-97045963D01*
X163501402Y-97085373D01*
X163501403Y-97085373D01*
X163753325Y-97085373D01*
X163753326Y-97085373D01*
X164002149Y-97045963D01*
X164241743Y-96968114D01*
X164466209Y-96853743D01*
X164670020Y-96705666D01*
X164848157Y-96527529D01*
X164996234Y-96323718D01*
X165110605Y-96099252D01*
X165188454Y-95859658D01*
X165227864Y-95610835D01*
X165227864Y-95358911D01*
X165188454Y-95110088D01*
X165110605Y-94870494D01*
X165110603Y-94870491D01*
X165110603Y-94870489D01*
X165092100Y-94834176D01*
X165039336Y-94730621D01*
X164996234Y-94646028D01*
X164977316Y-94619990D01*
X164848162Y-94442223D01*
X164848158Y-94442218D01*
X164670018Y-94264078D01*
X164670013Y-94264074D01*
X164466212Y-94116005D01*
X164466211Y-94116004D01*
X164466209Y-94116003D01*
X164396111Y-94080286D01*
X164241747Y-94001633D01*
X164002149Y-93923783D01*
X163753326Y-93884373D01*
X163501402Y-93884373D01*
X163376990Y-93904078D01*
X163252578Y-93923783D01*
X163012980Y-94001633D01*
X162788515Y-94116005D01*
X162584714Y-94264074D01*
X162584709Y-94264078D01*
X162406569Y-94442218D01*
X162406565Y-94442223D01*
X162258496Y-94646024D01*
X162144124Y-94870489D01*
X162066274Y-95110087D01*
X162026864Y-95358911D01*
X104078528Y-95358911D01*
X104095998Y-95336143D01*
X104140189Y-95278553D01*
X104166390Y-95244405D01*
X104205642Y-95193252D01*
X104326930Y-94983175D01*
X104419760Y-94759063D01*
X104482544Y-94524752D01*
X104514206Y-94284251D01*
X104514206Y-94041675D01*
X104508934Y-94001633D01*
X104482544Y-93801177D01*
X104482544Y-93801174D01*
X104419760Y-93566863D01*
X104419757Y-93566855D01*
X104351262Y-93401491D01*
X104333624Y-93358911D01*
X244026864Y-93358911D01*
X244026864Y-93610834D01*
X244066274Y-93859658D01*
X244144124Y-94099256D01*
X244258496Y-94323721D01*
X244406565Y-94527522D01*
X244406569Y-94527527D01*
X244584709Y-94705667D01*
X244584714Y-94705671D01*
X244658208Y-94759067D01*
X244788519Y-94853743D01*
X244931548Y-94926620D01*
X245012980Y-94968112D01*
X245012982Y-94968112D01*
X245012985Y-94968114D01*
X245252579Y-95045963D01*
X245501402Y-95085373D01*
X245501403Y-95085373D01*
X245753325Y-95085373D01*
X245753326Y-95085373D01*
X246002149Y-95045963D01*
X246241743Y-94968114D01*
X246466209Y-94853743D01*
X246670020Y-94705666D01*
X246848157Y-94527529D01*
X246996234Y-94323718D01*
X247110605Y-94099252D01*
X247188454Y-93859658D01*
X247227864Y-93610835D01*
X247227864Y-93358911D01*
X247188454Y-93110088D01*
X247110605Y-92870494D01*
X247110603Y-92870491D01*
X247110603Y-92870489D01*
X247058736Y-92768696D01*
X246996234Y-92646028D01*
X246889950Y-92499740D01*
X246848162Y-92442223D01*
X246848158Y-92442218D01*
X246670018Y-92264078D01*
X246670013Y-92264074D01*
X246466212Y-92116005D01*
X246466211Y-92116004D01*
X246466209Y-92116003D01*
X246396111Y-92080286D01*
X246241747Y-92001633D01*
X246002149Y-91923783D01*
X245753326Y-91884373D01*
X245501402Y-91884373D01*
X245376990Y-91904078D01*
X245252578Y-91923783D01*
X245012980Y-92001633D01*
X244788515Y-92116005D01*
X244584714Y-92264074D01*
X244584709Y-92264078D01*
X244406569Y-92442218D01*
X244406565Y-92442223D01*
X244258496Y-92646024D01*
X244144124Y-92870489D01*
X244066274Y-93110087D01*
X244026864Y-93358911D01*
X104333624Y-93358911D01*
X104326933Y-93342757D01*
X104326928Y-93342748D01*
X104205642Y-93132674D01*
X104057971Y-92940225D01*
X104057966Y-92940219D01*
X103886449Y-92768702D01*
X103886442Y-92768696D01*
X103693999Y-92621030D01*
X103693998Y-92621029D01*
X103693995Y-92621027D01*
X103483918Y-92499739D01*
X103483911Y-92499736D01*
X103259810Y-92406910D01*
X103025491Y-92344124D01*
X102784995Y-92312463D01*
X102784994Y-92312463D01*
X102542418Y-92312463D01*
X102542417Y-92312463D01*
X102301920Y-92344124D01*
X102067601Y-92406910D01*
X101843500Y-92499736D01*
X101843491Y-92499740D01*
X101633412Y-92621030D01*
X101440969Y-92768696D01*
X101440962Y-92768702D01*
X101269445Y-92940219D01*
X101269439Y-92940226D01*
X101121773Y-93132669D01*
X101000483Y-93342748D01*
X101000479Y-93342757D01*
X100907653Y-93566858D01*
X100844867Y-93801177D01*
X100813206Y-94041674D01*
X63661762Y-94041674D01*
X52332188Y-89928883D01*
X52275889Y-89887504D01*
X52250898Y-89822256D01*
X52250500Y-89812325D01*
X52250500Y-86478262D01*
X179906864Y-86478262D01*
X179906864Y-86651484D01*
X179933962Y-86822574D01*
X179987491Y-86987318D01*
X180066132Y-87141661D01*
X180167950Y-87281801D01*
X180290436Y-87404287D01*
X180430576Y-87506105D01*
X180584919Y-87584746D01*
X180749663Y-87638275D01*
X180920753Y-87665373D01*
X180920754Y-87665373D01*
X181093974Y-87665373D01*
X181093975Y-87665373D01*
X181265065Y-87638275D01*
X181429809Y-87584746D01*
X181584152Y-87506105D01*
X181724292Y-87404287D01*
X181846778Y-87281801D01*
X181948596Y-87141661D01*
X182027237Y-86987318D01*
X182080766Y-86822574D01*
X182107864Y-86651484D01*
X182107864Y-86478262D01*
X182098218Y-86417359D01*
X183836864Y-86417359D01*
X183836864Y-86712386D01*
X183868935Y-86955986D01*
X183875371Y-87004866D01*
X183949576Y-87281803D01*
X183951725Y-87289824D01*
X183951728Y-87289834D01*
X184064618Y-87562373D01*
X184064622Y-87562383D01*
X184212125Y-87817866D01*
X184391716Y-88051913D01*
X184391722Y-88051920D01*
X184600316Y-88260514D01*
X184600323Y-88260520D01*
X184834370Y-88440111D01*
X185089853Y-88587614D01*
X185089854Y-88587614D01*
X185089857Y-88587616D01*
X185362412Y-88700512D01*
X185647371Y-88776866D01*
X185939858Y-88815373D01*
X185939865Y-88815373D01*
X186234863Y-88815373D01*
X186234870Y-88815373D01*
X186527357Y-88776866D01*
X186812316Y-88700512D01*
X187084871Y-88587616D01*
X187340358Y-88440111D01*
X187574406Y-88260519D01*
X187783010Y-88051915D01*
X187962602Y-87817867D01*
X188110107Y-87562380D01*
X188223003Y-87289825D01*
X188299357Y-87004866D01*
X188337864Y-86712379D01*
X188337864Y-86478262D01*
X190066864Y-86478262D01*
X190066864Y-86651484D01*
X190093962Y-86822574D01*
X190147491Y-86987318D01*
X190226132Y-87141661D01*
X190327950Y-87281801D01*
X190450436Y-87404287D01*
X190590576Y-87506105D01*
X190744919Y-87584746D01*
X190909663Y-87638275D01*
X191080753Y-87665373D01*
X191080754Y-87665373D01*
X191253974Y-87665373D01*
X191253975Y-87665373D01*
X191425065Y-87638275D01*
X191589809Y-87584746D01*
X191744152Y-87506105D01*
X191884292Y-87404287D01*
X192006778Y-87281801D01*
X192108596Y-87141661D01*
X192187237Y-86987318D01*
X192240766Y-86822574D01*
X192267864Y-86651484D01*
X192267864Y-86478262D01*
X208906864Y-86478262D01*
X208906864Y-86651484D01*
X208933962Y-86822574D01*
X208987491Y-86987318D01*
X209066132Y-87141661D01*
X209167950Y-87281801D01*
X209290436Y-87404287D01*
X209430576Y-87506105D01*
X209584919Y-87584746D01*
X209749663Y-87638275D01*
X209920753Y-87665373D01*
X209920754Y-87665373D01*
X210093974Y-87665373D01*
X210093975Y-87665373D01*
X210265065Y-87638275D01*
X210429809Y-87584746D01*
X210584152Y-87506105D01*
X210724292Y-87404287D01*
X210846778Y-87281801D01*
X210948596Y-87141661D01*
X211027237Y-86987318D01*
X211080766Y-86822574D01*
X211107864Y-86651484D01*
X211107864Y-86478262D01*
X211098218Y-86417359D01*
X212836864Y-86417359D01*
X212836864Y-86712386D01*
X212868935Y-86955986D01*
X212875371Y-87004866D01*
X212949576Y-87281803D01*
X212951725Y-87289824D01*
X212951728Y-87289834D01*
X213064618Y-87562373D01*
X213064622Y-87562383D01*
X213212125Y-87817866D01*
X213391716Y-88051913D01*
X213391722Y-88051920D01*
X213600316Y-88260514D01*
X213600323Y-88260520D01*
X213834370Y-88440111D01*
X214089853Y-88587614D01*
X214089854Y-88587614D01*
X214089857Y-88587616D01*
X214362412Y-88700512D01*
X214647371Y-88776866D01*
X214939858Y-88815373D01*
X214939865Y-88815373D01*
X215234863Y-88815373D01*
X215234870Y-88815373D01*
X215527357Y-88776866D01*
X215812316Y-88700512D01*
X216084871Y-88587616D01*
X216340358Y-88440111D01*
X216574406Y-88260519D01*
X216783010Y-88051915D01*
X216962602Y-87817867D01*
X217110107Y-87562380D01*
X217223003Y-87289825D01*
X217299357Y-87004866D01*
X217337864Y-86712379D01*
X217337864Y-86478262D01*
X219066864Y-86478262D01*
X219066864Y-86651484D01*
X219093962Y-86822574D01*
X219147491Y-86987318D01*
X219226132Y-87141661D01*
X219327950Y-87281801D01*
X219450436Y-87404287D01*
X219590576Y-87506105D01*
X219744919Y-87584746D01*
X219909663Y-87638275D01*
X220080753Y-87665373D01*
X220080754Y-87665373D01*
X220253974Y-87665373D01*
X220253975Y-87665373D01*
X220425065Y-87638275D01*
X220589809Y-87584746D01*
X220744152Y-87506105D01*
X220884292Y-87404287D01*
X221006778Y-87281801D01*
X221108596Y-87141661D01*
X221187237Y-86987318D01*
X221240766Y-86822574D01*
X221267864Y-86651484D01*
X221267864Y-86478262D01*
X221240766Y-86307172D01*
X221187237Y-86142428D01*
X221108596Y-85988085D01*
X221006778Y-85847945D01*
X220884292Y-85725459D01*
X220744152Y-85623641D01*
X220589809Y-85545000D01*
X220425065Y-85491471D01*
X220425063Y-85491470D01*
X220425062Y-85491470D01*
X220293635Y-85470654D01*
X220253975Y-85464373D01*
X220080753Y-85464373D01*
X220041092Y-85470654D01*
X219909666Y-85491470D01*
X219744916Y-85545001D01*
X219590575Y-85623641D01*
X219534479Y-85664398D01*
X219450436Y-85725459D01*
X219450434Y-85725461D01*
X219450433Y-85725461D01*
X219327952Y-85847942D01*
X219327952Y-85847943D01*
X219327950Y-85847945D01*
X219284223Y-85908129D01*
X219226132Y-85988084D01*
X219147492Y-86142425D01*
X219093961Y-86307175D01*
X219066864Y-86478262D01*
X217337864Y-86478262D01*
X217337864Y-86417367D01*
X217299357Y-86124880D01*
X217223003Y-85839921D01*
X217110107Y-85567366D01*
X217059968Y-85480523D01*
X216962602Y-85311879D01*
X216783011Y-85077832D01*
X216783005Y-85077825D01*
X216574411Y-84869231D01*
X216574404Y-84869225D01*
X216340357Y-84689634D01*
X216084874Y-84542131D01*
X216084864Y-84542127D01*
X215812325Y-84429237D01*
X215812318Y-84429235D01*
X215812316Y-84429234D01*
X215527357Y-84352880D01*
X215478477Y-84346444D01*
X215234877Y-84314373D01*
X215234870Y-84314373D01*
X214939858Y-84314373D01*
X214939850Y-84314373D01*
X214661449Y-84351026D01*
X214647371Y-84352880D01*
X214473225Y-84399542D01*
X214362412Y-84429234D01*
X214362402Y-84429237D01*
X214089863Y-84542127D01*
X214089853Y-84542131D01*
X213834370Y-84689634D01*
X213600323Y-84869225D01*
X213600316Y-84869231D01*
X213391722Y-85077825D01*
X213391716Y-85077832D01*
X213212125Y-85311879D01*
X213064622Y-85567362D01*
X213064618Y-85567372D01*
X212951728Y-85839911D01*
X212951725Y-85839921D01*
X212875372Y-86124877D01*
X212875370Y-86124888D01*
X212836864Y-86417359D01*
X211098218Y-86417359D01*
X211080766Y-86307172D01*
X211027237Y-86142428D01*
X210948596Y-85988085D01*
X210846778Y-85847945D01*
X210794246Y-85795413D01*
X210760761Y-85734090D01*
X210765745Y-85664398D01*
X210807617Y-85608465D01*
X210873081Y-85584048D01*
X210901325Y-85585259D01*
X211151436Y-85624873D01*
X211403292Y-85624873D01*
X211652033Y-85585475D01*
X211891548Y-85507653D01*
X212115939Y-85393319D01*
X212115945Y-85393315D01*
X212218061Y-85319123D01*
X212218062Y-85319123D01*
X211601389Y-84702451D01*
X211632622Y-84689514D01*
X211755461Y-84607436D01*
X211859927Y-84502970D01*
X211942005Y-84380131D01*
X211954941Y-84348898D01*
X212571614Y-84965571D01*
X212571614Y-84965570D01*
X212645806Y-84863454D01*
X212645810Y-84863448D01*
X212760144Y-84639057D01*
X212837966Y-84399542D01*
X212877364Y-84150801D01*
X212877364Y-83898944D01*
X212837966Y-83650203D01*
X212760144Y-83410688D01*
X212645806Y-83186289D01*
X212571614Y-83084174D01*
X212571614Y-83084173D01*
X211954941Y-83700846D01*
X211942005Y-83669615D01*
X211859927Y-83546776D01*
X211755461Y-83442310D01*
X211632622Y-83360232D01*
X211601388Y-83347294D01*
X212218062Y-82730621D01*
X212115947Y-82656430D01*
X211891548Y-82542092D01*
X211652033Y-82464270D01*
X211403292Y-82424873D01*
X211151436Y-82424873D01*
X210902694Y-82464270D01*
X210663179Y-82542092D01*
X210438777Y-82656432D01*
X210336665Y-82730620D01*
X210336664Y-82730621D01*
X210953338Y-83347294D01*
X210922106Y-83360232D01*
X210799267Y-83442310D01*
X210694801Y-83546776D01*
X210612723Y-83669615D01*
X210599785Y-83700847D01*
X209983112Y-83084173D01*
X209983111Y-83084174D01*
X209908923Y-83186286D01*
X209794583Y-83410688D01*
X209716761Y-83650203D01*
X209677364Y-83898944D01*
X209677364Y-84150801D01*
X209716761Y-84399542D01*
X209794583Y-84639057D01*
X209908921Y-84863456D01*
X209983112Y-84965570D01*
X209983112Y-84965571D01*
X210599785Y-84348897D01*
X210612723Y-84380131D01*
X210694801Y-84502970D01*
X210799267Y-84607436D01*
X210922106Y-84689514D01*
X210953338Y-84702450D01*
X210336664Y-85319123D01*
X210338962Y-85348322D01*
X210324597Y-85416700D01*
X210275545Y-85466456D01*
X210207380Y-85481794D01*
X210195947Y-85480523D01*
X210093975Y-85464373D01*
X209920753Y-85464373D01*
X209881092Y-85470654D01*
X209749666Y-85491470D01*
X209584916Y-85545001D01*
X209430575Y-85623641D01*
X209374479Y-85664398D01*
X209290436Y-85725459D01*
X209290434Y-85725461D01*
X209290433Y-85725461D01*
X209167952Y-85847942D01*
X209167952Y-85847943D01*
X209167950Y-85847945D01*
X209124223Y-85908129D01*
X209066132Y-85988084D01*
X208987492Y-86142425D01*
X208933961Y-86307175D01*
X208906864Y-86478262D01*
X192267864Y-86478262D01*
X192240766Y-86307172D01*
X192187237Y-86142428D01*
X192108596Y-85988085D01*
X192006778Y-85847945D01*
X191884292Y-85725459D01*
X191744152Y-85623641D01*
X191589809Y-85545000D01*
X191425065Y-85491471D01*
X191425063Y-85491470D01*
X191425062Y-85491470D01*
X191293635Y-85470654D01*
X191253975Y-85464373D01*
X191080753Y-85464373D01*
X191041092Y-85470654D01*
X190909666Y-85491470D01*
X190744916Y-85545001D01*
X190590575Y-85623641D01*
X190534479Y-85664398D01*
X190450436Y-85725459D01*
X190450434Y-85725461D01*
X190450433Y-85725461D01*
X190327952Y-85847942D01*
X190327952Y-85847943D01*
X190327950Y-85847945D01*
X190284223Y-85908129D01*
X190226132Y-85988084D01*
X190147492Y-86142425D01*
X190093961Y-86307175D01*
X190066864Y-86478262D01*
X188337864Y-86478262D01*
X188337864Y-86417367D01*
X188299357Y-86124880D01*
X188223003Y-85839921D01*
X188110107Y-85567366D01*
X188059968Y-85480523D01*
X187962602Y-85311879D01*
X187783011Y-85077832D01*
X187783005Y-85077825D01*
X187574411Y-84869231D01*
X187574404Y-84869225D01*
X187340357Y-84689634D01*
X187084874Y-84542131D01*
X187084864Y-84542127D01*
X186812325Y-84429237D01*
X186812318Y-84429235D01*
X186812316Y-84429234D01*
X186527357Y-84352880D01*
X186478477Y-84346444D01*
X186234877Y-84314373D01*
X186234870Y-84314373D01*
X185939858Y-84314373D01*
X185939850Y-84314373D01*
X185661449Y-84351026D01*
X185647371Y-84352880D01*
X185473225Y-84399542D01*
X185362412Y-84429234D01*
X185362402Y-84429237D01*
X185089863Y-84542127D01*
X185089853Y-84542131D01*
X184834370Y-84689634D01*
X184600323Y-84869225D01*
X184600316Y-84869231D01*
X184391722Y-85077825D01*
X184391716Y-85077832D01*
X184212125Y-85311879D01*
X184064622Y-85567362D01*
X184064618Y-85567372D01*
X183951728Y-85839911D01*
X183951725Y-85839921D01*
X183875372Y-86124877D01*
X183875370Y-86124888D01*
X183836864Y-86417359D01*
X182098218Y-86417359D01*
X182080766Y-86307172D01*
X182027237Y-86142428D01*
X181948596Y-85988085D01*
X181846778Y-85847945D01*
X181794246Y-85795413D01*
X181760761Y-85734090D01*
X181765745Y-85664398D01*
X181807617Y-85608465D01*
X181873081Y-85584048D01*
X181901325Y-85585259D01*
X182151436Y-85624873D01*
X182403292Y-85624873D01*
X182652033Y-85585475D01*
X182891548Y-85507653D01*
X183115939Y-85393319D01*
X183115945Y-85393315D01*
X183218061Y-85319123D01*
X183218062Y-85319123D01*
X182601389Y-84702451D01*
X182632622Y-84689514D01*
X182755461Y-84607436D01*
X182859927Y-84502970D01*
X182942005Y-84380131D01*
X182954942Y-84348898D01*
X183571614Y-84965571D01*
X183571614Y-84965570D01*
X183645806Y-84863454D01*
X183645810Y-84863448D01*
X183760144Y-84639057D01*
X183837966Y-84399542D01*
X183877364Y-84150801D01*
X183877364Y-83898944D01*
X183837966Y-83650203D01*
X183760144Y-83410688D01*
X183645806Y-83186289D01*
X183571614Y-83084174D01*
X183571614Y-83084173D01*
X182954941Y-83700846D01*
X182942005Y-83669615D01*
X182859927Y-83546776D01*
X182755461Y-83442310D01*
X182632622Y-83360232D01*
X182601388Y-83347294D01*
X183218062Y-82730621D01*
X183115947Y-82656430D01*
X182891548Y-82542092D01*
X182652033Y-82464270D01*
X182403292Y-82424873D01*
X182151436Y-82424873D01*
X181902694Y-82464270D01*
X181663179Y-82542092D01*
X181438777Y-82656432D01*
X181336665Y-82730620D01*
X181336664Y-82730621D01*
X181953338Y-83347294D01*
X181922106Y-83360232D01*
X181799267Y-83442310D01*
X181694801Y-83546776D01*
X181612723Y-83669615D01*
X181599785Y-83700847D01*
X180983112Y-83084173D01*
X180983111Y-83084174D01*
X180908923Y-83186286D01*
X180794583Y-83410688D01*
X180716761Y-83650203D01*
X180677364Y-83898944D01*
X180677364Y-84150801D01*
X180716761Y-84399542D01*
X180794583Y-84639057D01*
X180908921Y-84863456D01*
X180983112Y-84965570D01*
X180983112Y-84965571D01*
X181599785Y-84348897D01*
X181612723Y-84380131D01*
X181694801Y-84502970D01*
X181799267Y-84607436D01*
X181922106Y-84689514D01*
X181953338Y-84702450D01*
X181336664Y-85319123D01*
X181338962Y-85348322D01*
X181324597Y-85416700D01*
X181275545Y-85466456D01*
X181207380Y-85481794D01*
X181195947Y-85480523D01*
X181093975Y-85464373D01*
X180920753Y-85464373D01*
X180881092Y-85470654D01*
X180749666Y-85491470D01*
X180584916Y-85545001D01*
X180430575Y-85623641D01*
X180374479Y-85664398D01*
X180290436Y-85725459D01*
X180290434Y-85725461D01*
X180290433Y-85725461D01*
X180167952Y-85847942D01*
X180167952Y-85847943D01*
X180167950Y-85847945D01*
X180124223Y-85908129D01*
X180066132Y-85988084D01*
X179987492Y-86142425D01*
X179933961Y-86307175D01*
X179906864Y-86478262D01*
X52250500Y-86478262D01*
X52250500Y-82408454D01*
X125806192Y-82408454D01*
X125806192Y-82703481D01*
X125825975Y-82853740D01*
X125844699Y-82995961D01*
X125868657Y-83085373D01*
X125921053Y-83280919D01*
X125921056Y-83280929D01*
X126033946Y-83553468D01*
X126033950Y-83553478D01*
X126181453Y-83808961D01*
X126361044Y-84043008D01*
X126361050Y-84043015D01*
X126569644Y-84251609D01*
X126569651Y-84251615D01*
X126803698Y-84431206D01*
X127059181Y-84578709D01*
X127059182Y-84578709D01*
X127059185Y-84578711D01*
X127204873Y-84639057D01*
X127326976Y-84689634D01*
X127331740Y-84691607D01*
X127616699Y-84767961D01*
X127909186Y-84806468D01*
X127909193Y-84806468D01*
X128204191Y-84806468D01*
X128204198Y-84806468D01*
X128496685Y-84767961D01*
X128781644Y-84691607D01*
X129054199Y-84578711D01*
X129309686Y-84431206D01*
X129332905Y-84413389D01*
X131649500Y-84413389D01*
X131649500Y-84586610D01*
X131674752Y-84746051D01*
X131676598Y-84757701D01*
X131730127Y-84922445D01*
X131808768Y-85076788D01*
X131910586Y-85216928D01*
X132033072Y-85339414D01*
X132173212Y-85441232D01*
X132327555Y-85519873D01*
X132492299Y-85573402D01*
X132663389Y-85600500D01*
X132663390Y-85600500D01*
X132836610Y-85600500D01*
X132836611Y-85600500D01*
X133007701Y-85573402D01*
X133172445Y-85519873D01*
X133326788Y-85441232D01*
X133466928Y-85339414D01*
X133589414Y-85216928D01*
X133691232Y-85076788D01*
X133769873Y-84922445D01*
X133823402Y-84757701D01*
X133850500Y-84586611D01*
X133850500Y-84413389D01*
X133823402Y-84242299D01*
X133769873Y-84077555D01*
X133691232Y-83923212D01*
X133589414Y-83783072D01*
X133466928Y-83660586D01*
X133326788Y-83558768D01*
X133172445Y-83480127D01*
X133007701Y-83426598D01*
X133007699Y-83426597D01*
X133007698Y-83426597D01*
X132876271Y-83405781D01*
X132836611Y-83399500D01*
X132663389Y-83399500D01*
X132623728Y-83405781D01*
X132492302Y-83426597D01*
X132327552Y-83480128D01*
X132173211Y-83558768D01*
X132093256Y-83616859D01*
X132033072Y-83660586D01*
X132033070Y-83660588D01*
X132033069Y-83660588D01*
X131910588Y-83783069D01*
X131910588Y-83783070D01*
X131910586Y-83783072D01*
X131891776Y-83808962D01*
X131808768Y-83923211D01*
X131730128Y-84077552D01*
X131676597Y-84242302D01*
X131649500Y-84413389D01*
X129332905Y-84413389D01*
X129543734Y-84251614D01*
X129752338Y-84043010D01*
X129931930Y-83808962D01*
X130079435Y-83553475D01*
X130192331Y-83280920D01*
X130268685Y-82995961D01*
X130307192Y-82703474D01*
X130307192Y-82408462D01*
X130268685Y-82115975D01*
X130192331Y-81831016D01*
X130079435Y-81558461D01*
X129964225Y-81358911D01*
X187026864Y-81358911D01*
X187026864Y-81610834D01*
X187066274Y-81859658D01*
X187144124Y-82099256D01*
X187258496Y-82323721D01*
X187406565Y-82527522D01*
X187406569Y-82527527D01*
X187584709Y-82705667D01*
X187584714Y-82705671D01*
X187661825Y-82761695D01*
X187788519Y-82853743D01*
X187931548Y-82926620D01*
X188012980Y-82968112D01*
X188012982Y-82968112D01*
X188012985Y-82968114D01*
X188252579Y-83045963D01*
X188501402Y-83085373D01*
X188501403Y-83085373D01*
X188753325Y-83085373D01*
X188753326Y-83085373D01*
X189002149Y-83045963D01*
X189241743Y-82968114D01*
X189466209Y-82853743D01*
X189670020Y-82705666D01*
X189848157Y-82527529D01*
X189996234Y-82323718D01*
X190110605Y-82099252D01*
X190188454Y-81859658D01*
X190227864Y-81610835D01*
X190227864Y-81358911D01*
X216026864Y-81358911D01*
X216026864Y-81610834D01*
X216066274Y-81859658D01*
X216144124Y-82099256D01*
X216258496Y-82323721D01*
X216406565Y-82527522D01*
X216406569Y-82527527D01*
X216584709Y-82705667D01*
X216584714Y-82705671D01*
X216661825Y-82761695D01*
X216788519Y-82853743D01*
X216931548Y-82926620D01*
X217012980Y-82968112D01*
X217012982Y-82968112D01*
X217012985Y-82968114D01*
X217252579Y-83045963D01*
X217501402Y-83085373D01*
X217501403Y-83085373D01*
X217753325Y-83085373D01*
X217753326Y-83085373D01*
X218002149Y-83045963D01*
X218241743Y-82968114D01*
X218466209Y-82853743D01*
X218670020Y-82705666D01*
X218848157Y-82527529D01*
X218996234Y-82323718D01*
X219110605Y-82099252D01*
X219188454Y-81859658D01*
X219227864Y-81610835D01*
X219227864Y-81358911D01*
X219188454Y-81110088D01*
X219110605Y-80870494D01*
X219110603Y-80870491D01*
X219110603Y-80870489D01*
X219069111Y-80789057D01*
X218996234Y-80646028D01*
X218914276Y-80533222D01*
X218848162Y-80442223D01*
X218848158Y-80442218D01*
X218670018Y-80264078D01*
X218670013Y-80264074D01*
X218466212Y-80116005D01*
X218466211Y-80116004D01*
X218466209Y-80116003D01*
X218353569Y-80058610D01*
X218241747Y-80001633D01*
X218002149Y-79923783D01*
X217753326Y-79884373D01*
X217501402Y-79884373D01*
X217434256Y-79895008D01*
X217252578Y-79923783D01*
X217012980Y-80001633D01*
X216788515Y-80116005D01*
X216584714Y-80264074D01*
X216584709Y-80264078D01*
X216406569Y-80442218D01*
X216406565Y-80442223D01*
X216258496Y-80646024D01*
X216144124Y-80870489D01*
X216066274Y-81110087D01*
X216026864Y-81358911D01*
X190227864Y-81358911D01*
X190188454Y-81110088D01*
X190110605Y-80870494D01*
X190110603Y-80870491D01*
X190110603Y-80870489D01*
X190069111Y-80789057D01*
X189996234Y-80646028D01*
X189914276Y-80533222D01*
X189848162Y-80442223D01*
X189848158Y-80442218D01*
X189670018Y-80264078D01*
X189670013Y-80264074D01*
X189466212Y-80116005D01*
X189466211Y-80116004D01*
X189466209Y-80116003D01*
X189353569Y-80058610D01*
X189241747Y-80001633D01*
X189002149Y-79923783D01*
X188753326Y-79884373D01*
X188501402Y-79884373D01*
X188434256Y-79895008D01*
X188252578Y-79923783D01*
X188012980Y-80001633D01*
X187788515Y-80116005D01*
X187584714Y-80264074D01*
X187584709Y-80264078D01*
X187406569Y-80442218D01*
X187406565Y-80442223D01*
X187258496Y-80646024D01*
X187144124Y-80870489D01*
X187066274Y-81110087D01*
X187026864Y-81358911D01*
X129964225Y-81358911D01*
X129931930Y-81302974D01*
X129752338Y-81068926D01*
X129752333Y-81068920D01*
X129543739Y-80860326D01*
X129543732Y-80860320D01*
X129309685Y-80680729D01*
X129054202Y-80533226D01*
X129054192Y-80533222D01*
X128781653Y-80420332D01*
X128781646Y-80420330D01*
X128781644Y-80420329D01*
X128496685Y-80343975D01*
X128447805Y-80337539D01*
X128204205Y-80305468D01*
X128204198Y-80305468D01*
X127909186Y-80305468D01*
X127909178Y-80305468D01*
X127630777Y-80342121D01*
X127616699Y-80343975D01*
X127423415Y-80395765D01*
X127331740Y-80420329D01*
X127331730Y-80420332D01*
X127059191Y-80533222D01*
X127059181Y-80533226D01*
X126803698Y-80680729D01*
X126569651Y-80860320D01*
X126569644Y-80860326D01*
X126361050Y-81068920D01*
X126361044Y-81068927D01*
X126181453Y-81302974D01*
X126033950Y-81558457D01*
X126033946Y-81558467D01*
X125921056Y-81831006D01*
X125921053Y-81831016D01*
X125844700Y-82115972D01*
X125844698Y-82115983D01*
X125806192Y-82408454D01*
X52250500Y-82408454D01*
X52250500Y-80525325D01*
X122262884Y-80525325D01*
X122262884Y-80698546D01*
X122288506Y-80860322D01*
X122289982Y-80869637D01*
X122343511Y-81034381D01*
X122422152Y-81188724D01*
X122523970Y-81328864D01*
X122646456Y-81451350D01*
X122786596Y-81553168D01*
X122940939Y-81631809D01*
X123105683Y-81685338D01*
X123276773Y-81712436D01*
X123276774Y-81712436D01*
X123449994Y-81712436D01*
X123449995Y-81712436D01*
X123621085Y-81685338D01*
X123785829Y-81631809D01*
X123940172Y-81553168D01*
X124080312Y-81451350D01*
X124202798Y-81328864D01*
X124304616Y-81188724D01*
X124383257Y-81034381D01*
X124436786Y-80869637D01*
X124463884Y-80698547D01*
X124463884Y-80525325D01*
X124436786Y-80354235D01*
X124383257Y-80189491D01*
X124383253Y-80189484D01*
X124382864Y-80188285D01*
X124380869Y-80118443D01*
X124416949Y-80058610D01*
X124479650Y-80027782D01*
X124549064Y-80035746D01*
X124573681Y-80049648D01*
X124670143Y-80119732D01*
X124894542Y-80234070D01*
X125134057Y-80311892D01*
X125382799Y-80351290D01*
X125634655Y-80351290D01*
X125883388Y-80311894D01*
X125883394Y-80311893D01*
X125884414Y-80311561D01*
X125548788Y-79501290D01*
X125582596Y-79501290D01*
X125727494Y-79472468D01*
X125863985Y-79415931D01*
X125986824Y-79333853D01*
X126010727Y-79309949D01*
X126346353Y-80120219D01*
X126347305Y-80119735D01*
X126347316Y-80119728D01*
X126551053Y-79971704D01*
X126551059Y-79971699D01*
X126729136Y-79793622D01*
X126729136Y-79793621D01*
X126877169Y-79589873D01*
X126991507Y-79365474D01*
X127069329Y-79125959D01*
X127108727Y-78877218D01*
X127108727Y-78708714D01*
X130746878Y-78708714D01*
X130746878Y-78960638D01*
X130773224Y-79126978D01*
X130786288Y-79209461D01*
X130864138Y-79449059D01*
X130935400Y-79588917D01*
X130977485Y-79671514D01*
X130978510Y-79673524D01*
X131126579Y-79877325D01*
X131126583Y-79877330D01*
X131304723Y-80055470D01*
X131304728Y-80055474D01*
X131393843Y-80120219D01*
X131508533Y-80203546D01*
X131627326Y-80264074D01*
X131732994Y-80317915D01*
X131732996Y-80317915D01*
X131732999Y-80317917D01*
X131972593Y-80395766D01*
X132221416Y-80435176D01*
X132221417Y-80435176D01*
X132473339Y-80435176D01*
X132473340Y-80435176D01*
X132722163Y-80395766D01*
X132961757Y-80317917D01*
X133186223Y-80203546D01*
X133390034Y-80055469D01*
X133568171Y-79877332D01*
X133716248Y-79673521D01*
X133830619Y-79449055D01*
X133908468Y-79209461D01*
X133947878Y-78960638D01*
X133947878Y-78708714D01*
X133908468Y-78459891D01*
X133830619Y-78220297D01*
X133830617Y-78220294D01*
X133830617Y-78220292D01*
X133762522Y-78086649D01*
X133716248Y-77995831D01*
X133655858Y-77912711D01*
X133568176Y-77792026D01*
X133568172Y-77792021D01*
X133390032Y-77613881D01*
X133390027Y-77613877D01*
X133186226Y-77465808D01*
X133186225Y-77465807D01*
X133186223Y-77465806D01*
X133116125Y-77430089D01*
X132961761Y-77351436D01*
X132722163Y-77273586D01*
X132690108Y-77268509D01*
X132473340Y-77234176D01*
X132221416Y-77234176D01*
X132097004Y-77253881D01*
X131972592Y-77273586D01*
X131732994Y-77351436D01*
X131508529Y-77465808D01*
X131304728Y-77613877D01*
X131304723Y-77613881D01*
X131126583Y-77792021D01*
X131126579Y-77792026D01*
X130978510Y-77995827D01*
X130864138Y-78220292D01*
X130786288Y-78459890D01*
X130786288Y-78459891D01*
X130746878Y-78708714D01*
X127108727Y-78708714D01*
X127108727Y-78625361D01*
X127069331Y-78376631D01*
X127069328Y-78376617D01*
X127068997Y-78375601D01*
X126258727Y-78711226D01*
X126258727Y-78677421D01*
X126229905Y-78532523D01*
X126173368Y-78396032D01*
X126091290Y-78273193D01*
X126067384Y-78249287D01*
X126877656Y-77913661D01*
X126877172Y-77912711D01*
X126877168Y-77912705D01*
X126729136Y-77708957D01*
X126551059Y-77530880D01*
X126347310Y-77382847D01*
X126122911Y-77268509D01*
X125883396Y-77190687D01*
X125634655Y-77151290D01*
X125382799Y-77151290D01*
X125134063Y-77190686D01*
X125133037Y-77191018D01*
X125468664Y-78001290D01*
X125434858Y-78001290D01*
X125289960Y-78030112D01*
X125153469Y-78086649D01*
X125030630Y-78168727D01*
X125006725Y-78192631D01*
X124671098Y-77382358D01*
X124670148Y-77382843D01*
X124466400Y-77530875D01*
X124466394Y-77530880D01*
X124288317Y-77708957D01*
X124288317Y-77708958D01*
X124140284Y-77912706D01*
X124025946Y-78137105D01*
X123948124Y-78376620D01*
X123908727Y-78625361D01*
X123908727Y-78877218D01*
X123948122Y-79125951D01*
X123948124Y-79125959D01*
X123948455Y-79126978D01*
X124758727Y-78791351D01*
X124758727Y-78825159D01*
X124787549Y-78970057D01*
X124844086Y-79106548D01*
X124926164Y-79229387D01*
X124950067Y-79253290D01*
X124139795Y-79588917D01*
X124130525Y-79614074D01*
X124088874Y-79670171D01*
X124023506Y-79694845D01*
X123955175Y-79680262D01*
X123941287Y-79671514D01*
X123940173Y-79670704D01*
X123785831Y-79592064D01*
X123785830Y-79592063D01*
X123785829Y-79592063D01*
X123621085Y-79538534D01*
X123621083Y-79538533D01*
X123621082Y-79538533D01*
X123489655Y-79517717D01*
X123449995Y-79511436D01*
X123276773Y-79511436D01*
X123237112Y-79517717D01*
X123105686Y-79538533D01*
X122940936Y-79592064D01*
X122786595Y-79670704D01*
X122706640Y-79728795D01*
X122646456Y-79772522D01*
X122646454Y-79772524D01*
X122646453Y-79772524D01*
X122523972Y-79895005D01*
X122523972Y-79895006D01*
X122523970Y-79895008D01*
X122503064Y-79923783D01*
X122422152Y-80035147D01*
X122343512Y-80189488D01*
X122289981Y-80354238D01*
X122262884Y-80525325D01*
X52250500Y-80525325D01*
X52250500Y-71469958D01*
X59237788Y-71469958D01*
X59237788Y-71643180D01*
X59264886Y-71814270D01*
X59318415Y-71979014D01*
X59397056Y-72133357D01*
X59498874Y-72273497D01*
X59621360Y-72395983D01*
X59761500Y-72497801D01*
X59915843Y-72576442D01*
X60080587Y-72629971D01*
X60251677Y-72657069D01*
X60251678Y-72657069D01*
X60424898Y-72657069D01*
X60424899Y-72657069D01*
X60595989Y-72629971D01*
X60760733Y-72576442D01*
X60915076Y-72497801D01*
X61055216Y-72395983D01*
X61177702Y-72273497D01*
X61279520Y-72133357D01*
X61358161Y-71979014D01*
X61411690Y-71814270D01*
X61438788Y-71643180D01*
X61438788Y-71469958D01*
X61429142Y-71409055D01*
X63167788Y-71409055D01*
X63167788Y-71704082D01*
X63199859Y-71947682D01*
X63206295Y-71996562D01*
X63280500Y-72273499D01*
X63282649Y-72281520D01*
X63282652Y-72281530D01*
X63395542Y-72554069D01*
X63395546Y-72554079D01*
X63543049Y-72809562D01*
X63722640Y-73043609D01*
X63722646Y-73043616D01*
X63931240Y-73252210D01*
X63931247Y-73252216D01*
X64165294Y-73431807D01*
X64420777Y-73579310D01*
X64420778Y-73579310D01*
X64420781Y-73579312D01*
X64693336Y-73692208D01*
X64978295Y-73768562D01*
X65270782Y-73807069D01*
X65270789Y-73807069D01*
X65565787Y-73807069D01*
X65565794Y-73807069D01*
X65858281Y-73768562D01*
X66143240Y-73692208D01*
X66415795Y-73579312D01*
X66671282Y-73431807D01*
X66905330Y-73252215D01*
X67113934Y-73043611D01*
X67293526Y-72809563D01*
X67441031Y-72554076D01*
X67553927Y-72281521D01*
X67630281Y-71996562D01*
X67668788Y-71704075D01*
X67668788Y-71469958D01*
X69397788Y-71469958D01*
X69397788Y-71643180D01*
X69424886Y-71814270D01*
X69478415Y-71979014D01*
X69557056Y-72133357D01*
X69658874Y-72273497D01*
X69781360Y-72395983D01*
X69921500Y-72497801D01*
X70075843Y-72576442D01*
X70240587Y-72629971D01*
X70411677Y-72657069D01*
X70411678Y-72657069D01*
X70584898Y-72657069D01*
X70584899Y-72657069D01*
X70755989Y-72629971D01*
X70920733Y-72576442D01*
X71075076Y-72497801D01*
X71215216Y-72395983D01*
X71337702Y-72273497D01*
X71439520Y-72133357D01*
X71518161Y-71979014D01*
X71571690Y-71814270D01*
X71598788Y-71643180D01*
X71598788Y-71469958D01*
X71591321Y-71422816D01*
X109737021Y-71422816D01*
X109737021Y-71717843D01*
X109750810Y-71822574D01*
X109775528Y-72010323D01*
X109850420Y-72289824D01*
X109851882Y-72295281D01*
X109851885Y-72295291D01*
X109964775Y-72567830D01*
X109964779Y-72567840D01*
X110112282Y-72823323D01*
X110291873Y-73057370D01*
X110291879Y-73057377D01*
X110500473Y-73265971D01*
X110500480Y-73265977D01*
X110734527Y-73445568D01*
X110990010Y-73593071D01*
X110990011Y-73593071D01*
X110990014Y-73593073D01*
X111200817Y-73680390D01*
X111249394Y-73700512D01*
X111262569Y-73705969D01*
X111547528Y-73782323D01*
X111840015Y-73820830D01*
X111840022Y-73820830D01*
X112135020Y-73820830D01*
X112135027Y-73820830D01*
X112427514Y-73782323D01*
X112712473Y-73705969D01*
X112985028Y-73593073D01*
X113240515Y-73445568D01*
X113263734Y-73427751D01*
X115580329Y-73427751D01*
X115580329Y-73600972D01*
X115596958Y-73705968D01*
X115607427Y-73772063D01*
X115660956Y-73936807D01*
X115739597Y-74091150D01*
X115841415Y-74231290D01*
X115963901Y-74353776D01*
X116104041Y-74455594D01*
X116258384Y-74534235D01*
X116423128Y-74587764D01*
X116594218Y-74614862D01*
X116594219Y-74614862D01*
X116767439Y-74614862D01*
X116767440Y-74614862D01*
X116938530Y-74587764D01*
X117103274Y-74534235D01*
X117257617Y-74455594D01*
X117397757Y-74353776D01*
X117520243Y-74231290D01*
X117622061Y-74091150D01*
X117700702Y-73936807D01*
X117754231Y-73772063D01*
X117781329Y-73600973D01*
X117781329Y-73427751D01*
X117754231Y-73256661D01*
X117700702Y-73091917D01*
X117622061Y-72937574D01*
X117520243Y-72797434D01*
X117397757Y-72674948D01*
X117257617Y-72573130D01*
X117103274Y-72494489D01*
X116938530Y-72440960D01*
X116938528Y-72440959D01*
X116938527Y-72440959D01*
X116807100Y-72420143D01*
X116767440Y-72413862D01*
X116594218Y-72413862D01*
X116554557Y-72420143D01*
X116423131Y-72440959D01*
X116258381Y-72494490D01*
X116104040Y-72573130D01*
X116025806Y-72629971D01*
X115963901Y-72674948D01*
X115963899Y-72674950D01*
X115963898Y-72674950D01*
X115841417Y-72797431D01*
X115841417Y-72797432D01*
X115841415Y-72797434D01*
X115822605Y-72823324D01*
X115739597Y-72937573D01*
X115660957Y-73091914D01*
X115607426Y-73256664D01*
X115580329Y-73427751D01*
X113263734Y-73427751D01*
X113474563Y-73265976D01*
X113683167Y-73057372D01*
X113862759Y-72823324D01*
X114010264Y-72567837D01*
X114123160Y-72295282D01*
X114199514Y-72010323D01*
X114238021Y-71717836D01*
X114238021Y-71478262D01*
X154906864Y-71478262D01*
X154906864Y-71651483D01*
X154932646Y-71814270D01*
X154933962Y-71822574D01*
X154987491Y-71987318D01*
X155066132Y-72141661D01*
X155167950Y-72281801D01*
X155290436Y-72404287D01*
X155430576Y-72506105D01*
X155584919Y-72584746D01*
X155749663Y-72638275D01*
X155920753Y-72665373D01*
X155920754Y-72665373D01*
X156093974Y-72665373D01*
X156093975Y-72665373D01*
X156265065Y-72638275D01*
X156429809Y-72584746D01*
X156584152Y-72506105D01*
X156724292Y-72404287D01*
X156846778Y-72281801D01*
X156948596Y-72141661D01*
X157027237Y-71987318D01*
X157080766Y-71822574D01*
X157107864Y-71651484D01*
X157107864Y-71478262D01*
X157098218Y-71417359D01*
X158836864Y-71417359D01*
X158836864Y-71712386D01*
X158868935Y-71955986D01*
X158875371Y-72004866D01*
X158949576Y-72281803D01*
X158951725Y-72289824D01*
X158951728Y-72289834D01*
X159064618Y-72562373D01*
X159064622Y-72562383D01*
X159212125Y-72817866D01*
X159391716Y-73051913D01*
X159391722Y-73051920D01*
X159600316Y-73260514D01*
X159600323Y-73260520D01*
X159834370Y-73440111D01*
X160089853Y-73587614D01*
X160089854Y-73587614D01*
X160089857Y-73587616D01*
X160300660Y-73674933D01*
X160342354Y-73692204D01*
X160362412Y-73700512D01*
X160647371Y-73776866D01*
X160939858Y-73815373D01*
X160939865Y-73815373D01*
X161234863Y-73815373D01*
X161234870Y-73815373D01*
X161527357Y-73776866D01*
X161812316Y-73700512D01*
X162084871Y-73587616D01*
X162340358Y-73440111D01*
X162574406Y-73260519D01*
X162783010Y-73051915D01*
X162962602Y-72817867D01*
X163110107Y-72562380D01*
X163223003Y-72289825D01*
X163299357Y-72004866D01*
X163337864Y-71712379D01*
X163337864Y-71478262D01*
X165066864Y-71478262D01*
X165066864Y-71651483D01*
X165092646Y-71814270D01*
X165093962Y-71822574D01*
X165147491Y-71987318D01*
X165226132Y-72141661D01*
X165327950Y-72281801D01*
X165450436Y-72404287D01*
X165590576Y-72506105D01*
X165744919Y-72584746D01*
X165909663Y-72638275D01*
X166080753Y-72665373D01*
X166080754Y-72665373D01*
X166253974Y-72665373D01*
X166253975Y-72665373D01*
X166425065Y-72638275D01*
X166589809Y-72584746D01*
X166744152Y-72506105D01*
X166884292Y-72404287D01*
X167006778Y-72281801D01*
X167108596Y-72141661D01*
X167187237Y-71987318D01*
X167240766Y-71822574D01*
X167267864Y-71651484D01*
X167267864Y-71478262D01*
X167240766Y-71307172D01*
X167187237Y-71142428D01*
X167108596Y-70988085D01*
X167006778Y-70847945D01*
X166884292Y-70725459D01*
X166744152Y-70623641D01*
X166617419Y-70559068D01*
X166589811Y-70545001D01*
X166589810Y-70545000D01*
X166589809Y-70545000D01*
X166425065Y-70491471D01*
X166425063Y-70491470D01*
X166425062Y-70491470D01*
X166293635Y-70470654D01*
X166253975Y-70464373D01*
X166080753Y-70464373D01*
X166041092Y-70470654D01*
X165909666Y-70491470D01*
X165744916Y-70545001D01*
X165590575Y-70623641D01*
X165559566Y-70646171D01*
X165450436Y-70725459D01*
X165450434Y-70725461D01*
X165450433Y-70725461D01*
X165327952Y-70847942D01*
X165327952Y-70847943D01*
X165327950Y-70847945D01*
X165284223Y-70908129D01*
X165226132Y-70988084D01*
X165147492Y-71142425D01*
X165093961Y-71307175D01*
X165066864Y-71478262D01*
X163337864Y-71478262D01*
X163337864Y-71417367D01*
X163299357Y-71124880D01*
X163223003Y-70839921D01*
X163110107Y-70567366D01*
X163107228Y-70562380D01*
X162962602Y-70311879D01*
X162783011Y-70077832D01*
X162783005Y-70077825D01*
X162574411Y-69869231D01*
X162574404Y-69869225D01*
X162340357Y-69689634D01*
X162151810Y-69580777D01*
X162084874Y-69542131D01*
X162084864Y-69542127D01*
X161930681Y-69478262D01*
X236906864Y-69478262D01*
X236906864Y-69651483D01*
X236925091Y-69766569D01*
X236933962Y-69822574D01*
X236987491Y-69987318D01*
X237066132Y-70141661D01*
X237167950Y-70281801D01*
X237290436Y-70404287D01*
X237430576Y-70506105D01*
X237584919Y-70584746D01*
X237749663Y-70638275D01*
X237920753Y-70665373D01*
X237920754Y-70665373D01*
X238093974Y-70665373D01*
X238093975Y-70665373D01*
X238265065Y-70638275D01*
X238429809Y-70584746D01*
X238584152Y-70506105D01*
X238724292Y-70404287D01*
X238846778Y-70281801D01*
X238948596Y-70141661D01*
X239027237Y-69987318D01*
X239080766Y-69822574D01*
X239107864Y-69651484D01*
X239107864Y-69478262D01*
X239098218Y-69417359D01*
X240836864Y-69417359D01*
X240836864Y-69712386D01*
X240859458Y-69883995D01*
X240875371Y-70004866D01*
X240949576Y-70281803D01*
X240951725Y-70289824D01*
X240951728Y-70289834D01*
X241064618Y-70562373D01*
X241064622Y-70562383D01*
X241212125Y-70817866D01*
X241391716Y-71051913D01*
X241391722Y-71051920D01*
X241600316Y-71260514D01*
X241600323Y-71260520D01*
X241834370Y-71440111D01*
X242089853Y-71587614D01*
X242089854Y-71587614D01*
X242089857Y-71587616D01*
X242362412Y-71700512D01*
X242647371Y-71776866D01*
X242925779Y-71813519D01*
X242931449Y-71814266D01*
X242939858Y-71815373D01*
X242939865Y-71815373D01*
X243234863Y-71815373D01*
X243234870Y-71815373D01*
X243527357Y-71776866D01*
X243812316Y-71700512D01*
X244084871Y-71587616D01*
X244340358Y-71440111D01*
X244574406Y-71260519D01*
X244783010Y-71051915D01*
X244962602Y-70817867D01*
X245110107Y-70562380D01*
X245223003Y-70289825D01*
X245299357Y-70004866D01*
X245337864Y-69712379D01*
X245337864Y-69478262D01*
X247066864Y-69478262D01*
X247066864Y-69651483D01*
X247085091Y-69766569D01*
X247093962Y-69822574D01*
X247147491Y-69987318D01*
X247226132Y-70141661D01*
X247327950Y-70281801D01*
X247450436Y-70404287D01*
X247590576Y-70506105D01*
X247744919Y-70584746D01*
X247909663Y-70638275D01*
X248080753Y-70665373D01*
X248080754Y-70665373D01*
X248253974Y-70665373D01*
X248253975Y-70665373D01*
X248425065Y-70638275D01*
X248589809Y-70584746D01*
X248744152Y-70506105D01*
X248884292Y-70404287D01*
X249006778Y-70281801D01*
X249108596Y-70141661D01*
X249187237Y-69987318D01*
X249240766Y-69822574D01*
X249267864Y-69651484D01*
X249267864Y-69478262D01*
X249240766Y-69307172D01*
X249187237Y-69142428D01*
X249108596Y-68988085D01*
X249006778Y-68847945D01*
X248884292Y-68725459D01*
X248744152Y-68623641D01*
X248589809Y-68545000D01*
X248425065Y-68491471D01*
X248425063Y-68491470D01*
X248425062Y-68491470D01*
X248293635Y-68470654D01*
X248253975Y-68464373D01*
X248080753Y-68464373D01*
X248041092Y-68470654D01*
X247909666Y-68491470D01*
X247744916Y-68545001D01*
X247590575Y-68623641D01*
X247534479Y-68664398D01*
X247450436Y-68725459D01*
X247450434Y-68725461D01*
X247450433Y-68725461D01*
X247327952Y-68847942D01*
X247327952Y-68847943D01*
X247327950Y-68847945D01*
X247290897Y-68898944D01*
X247226132Y-68988084D01*
X247147492Y-69142425D01*
X247093961Y-69307175D01*
X247066864Y-69478262D01*
X245337864Y-69478262D01*
X245337864Y-69417367D01*
X245299357Y-69124880D01*
X245223003Y-68839921D01*
X245110107Y-68567366D01*
X245098219Y-68546776D01*
X244962602Y-68311879D01*
X244783011Y-68077832D01*
X244783005Y-68077825D01*
X244574411Y-67869231D01*
X244574404Y-67869225D01*
X244340357Y-67689634D01*
X244084874Y-67542131D01*
X244084864Y-67542127D01*
X243812325Y-67429237D01*
X243812318Y-67429235D01*
X243812316Y-67429234D01*
X243527357Y-67352880D01*
X243478477Y-67346444D01*
X243234877Y-67314373D01*
X243234870Y-67314373D01*
X242939858Y-67314373D01*
X242939850Y-67314373D01*
X242661449Y-67351026D01*
X242647371Y-67352880D01*
X242409679Y-67416569D01*
X242362412Y-67429234D01*
X242362402Y-67429237D01*
X242089863Y-67542127D01*
X242089853Y-67542131D01*
X241834370Y-67689634D01*
X241600323Y-67869225D01*
X241600316Y-67869231D01*
X241391722Y-68077825D01*
X241391716Y-68077832D01*
X241212125Y-68311879D01*
X241064622Y-68567362D01*
X241064618Y-68567372D01*
X240951728Y-68839911D01*
X240951725Y-68839921D01*
X240895567Y-69049509D01*
X240875372Y-69124877D01*
X240875370Y-69124888D01*
X240836864Y-69417359D01*
X239098218Y-69417359D01*
X239080766Y-69307172D01*
X239027237Y-69142428D01*
X238948596Y-68988085D01*
X238846778Y-68847945D01*
X238794246Y-68795413D01*
X238760761Y-68734090D01*
X238765745Y-68664398D01*
X238807617Y-68608465D01*
X238873081Y-68584048D01*
X238901325Y-68585259D01*
X239151436Y-68624873D01*
X239403292Y-68624873D01*
X239652033Y-68585475D01*
X239891548Y-68507653D01*
X240115939Y-68393319D01*
X240115945Y-68393315D01*
X240218061Y-68319123D01*
X240218062Y-68319123D01*
X239601389Y-67702451D01*
X239632622Y-67689514D01*
X239755461Y-67607436D01*
X239859927Y-67502970D01*
X239942005Y-67380131D01*
X239954941Y-67348898D01*
X240571614Y-67965571D01*
X240571614Y-67965570D01*
X240645806Y-67863454D01*
X240645810Y-67863448D01*
X240760144Y-67639057D01*
X240837966Y-67399542D01*
X240877364Y-67150801D01*
X240877364Y-66898944D01*
X240837966Y-66650203D01*
X240760144Y-66410688D01*
X240645806Y-66186289D01*
X240571614Y-66084174D01*
X240571614Y-66084173D01*
X239954941Y-66700846D01*
X239942005Y-66669615D01*
X239859927Y-66546776D01*
X239755461Y-66442310D01*
X239632622Y-66360232D01*
X239601388Y-66347294D01*
X240218062Y-65730621D01*
X240115947Y-65656430D01*
X239891548Y-65542092D01*
X239652033Y-65464270D01*
X239403292Y-65424873D01*
X239151436Y-65424873D01*
X238902694Y-65464270D01*
X238663179Y-65542092D01*
X238438777Y-65656432D01*
X238336665Y-65730620D01*
X238336664Y-65730621D01*
X238953338Y-66347294D01*
X238922106Y-66360232D01*
X238799267Y-66442310D01*
X238694801Y-66546776D01*
X238612723Y-66669615D01*
X238599785Y-66700847D01*
X237983112Y-66084173D01*
X237983111Y-66084174D01*
X237908923Y-66186286D01*
X237794583Y-66410688D01*
X237716761Y-66650203D01*
X237677364Y-66898944D01*
X237677364Y-67150801D01*
X237716761Y-67399542D01*
X237794583Y-67639057D01*
X237908921Y-67863456D01*
X237983112Y-67965570D01*
X237983112Y-67965571D01*
X238599785Y-67348897D01*
X238612723Y-67380131D01*
X238694801Y-67502970D01*
X238799267Y-67607436D01*
X238922106Y-67689514D01*
X238953338Y-67702450D01*
X238336664Y-68319123D01*
X238338962Y-68348322D01*
X238324597Y-68416700D01*
X238275545Y-68466456D01*
X238207380Y-68481794D01*
X238195947Y-68480523D01*
X238093975Y-68464373D01*
X237920753Y-68464373D01*
X237881092Y-68470654D01*
X237749666Y-68491470D01*
X237584916Y-68545001D01*
X237430575Y-68623641D01*
X237374479Y-68664398D01*
X237290436Y-68725459D01*
X237290434Y-68725461D01*
X237290433Y-68725461D01*
X237167952Y-68847942D01*
X237167952Y-68847943D01*
X237167950Y-68847945D01*
X237130897Y-68898944D01*
X237066132Y-68988084D01*
X236987492Y-69142425D01*
X236933961Y-69307175D01*
X236906864Y-69478262D01*
X161930681Y-69478262D01*
X161812325Y-69429237D01*
X161812318Y-69429235D01*
X161812316Y-69429234D01*
X161527357Y-69352880D01*
X161464290Y-69344577D01*
X161234877Y-69314373D01*
X161234870Y-69314373D01*
X160939858Y-69314373D01*
X160939850Y-69314373D01*
X160661449Y-69351026D01*
X160647371Y-69352880D01*
X160406701Y-69417367D01*
X160362412Y-69429234D01*
X160362402Y-69429237D01*
X160089863Y-69542127D01*
X160089853Y-69542131D01*
X159834370Y-69689634D01*
X159600323Y-69869225D01*
X159600316Y-69869231D01*
X159391722Y-70077825D01*
X159391716Y-70077832D01*
X159212125Y-70311879D01*
X159064622Y-70567362D01*
X159064618Y-70567372D01*
X158951728Y-70839911D01*
X158951725Y-70839921D01*
X158894921Y-71051920D01*
X158875372Y-71124877D01*
X158875370Y-71124888D01*
X158836864Y-71417359D01*
X157098218Y-71417359D01*
X157080766Y-71307172D01*
X157027237Y-71142428D01*
X156948596Y-70988085D01*
X156846778Y-70847945D01*
X156794246Y-70795413D01*
X156760761Y-70734090D01*
X156765745Y-70664398D01*
X156807617Y-70608465D01*
X156873081Y-70584048D01*
X156901325Y-70585259D01*
X157151436Y-70624873D01*
X157403292Y-70624873D01*
X157652033Y-70585475D01*
X157891548Y-70507653D01*
X158115939Y-70393319D01*
X158115945Y-70393315D01*
X158218061Y-70319123D01*
X158218062Y-70319123D01*
X157601389Y-69702451D01*
X157632622Y-69689514D01*
X157755461Y-69607436D01*
X157859927Y-69502970D01*
X157942005Y-69380131D01*
X157954941Y-69348898D01*
X158571614Y-69965571D01*
X158571614Y-69965570D01*
X158645806Y-69863454D01*
X158645810Y-69863448D01*
X158760144Y-69639057D01*
X158837966Y-69399542D01*
X158877364Y-69150801D01*
X158877364Y-68898944D01*
X158837966Y-68650203D01*
X158760144Y-68410688D01*
X158645806Y-68186289D01*
X158571614Y-68084174D01*
X158571614Y-68084173D01*
X157954941Y-68700846D01*
X157942005Y-68669615D01*
X157859927Y-68546776D01*
X157755461Y-68442310D01*
X157632622Y-68360232D01*
X157601388Y-68347294D01*
X158218062Y-67730621D01*
X158115947Y-67656430D01*
X157891548Y-67542092D01*
X157652033Y-67464270D01*
X157403292Y-67424873D01*
X157151436Y-67424873D01*
X156902694Y-67464270D01*
X156663179Y-67542092D01*
X156438777Y-67656432D01*
X156336665Y-67730620D01*
X156336664Y-67730621D01*
X156953338Y-68347294D01*
X156922106Y-68360232D01*
X156799267Y-68442310D01*
X156694801Y-68546776D01*
X156612723Y-68669615D01*
X156599785Y-68700847D01*
X155983112Y-68084173D01*
X155983111Y-68084174D01*
X155908923Y-68186286D01*
X155794583Y-68410688D01*
X155716761Y-68650203D01*
X155677364Y-68898944D01*
X155677364Y-69150801D01*
X155716761Y-69399542D01*
X155794583Y-69639057D01*
X155908921Y-69863456D01*
X155983112Y-69965570D01*
X155983112Y-69965571D01*
X156599785Y-69348897D01*
X156612723Y-69380131D01*
X156694801Y-69502970D01*
X156799267Y-69607436D01*
X156922106Y-69689514D01*
X156953338Y-69702450D01*
X156336664Y-70319123D01*
X156338962Y-70348322D01*
X156324597Y-70416700D01*
X156275545Y-70466456D01*
X156207380Y-70481794D01*
X156195947Y-70480523D01*
X156093975Y-70464373D01*
X155920753Y-70464373D01*
X155881092Y-70470654D01*
X155749666Y-70491470D01*
X155584916Y-70545001D01*
X155430575Y-70623641D01*
X155399566Y-70646171D01*
X155290436Y-70725459D01*
X155290434Y-70725461D01*
X155290433Y-70725461D01*
X155167952Y-70847942D01*
X155167952Y-70847943D01*
X155167950Y-70847945D01*
X155124223Y-70908129D01*
X155066132Y-70988084D01*
X154987492Y-71142425D01*
X154933961Y-71307175D01*
X154906864Y-71478262D01*
X114238021Y-71478262D01*
X114238021Y-71422824D01*
X114199514Y-71130337D01*
X114123160Y-70845378D01*
X114120895Y-70839911D01*
X114077063Y-70734090D01*
X114010264Y-70572823D01*
X114007113Y-70567366D01*
X113862759Y-70317336D01*
X113683168Y-70083289D01*
X113683162Y-70083282D01*
X113474568Y-69874688D01*
X113474561Y-69874682D01*
X113240514Y-69695091D01*
X112985031Y-69547588D01*
X112985021Y-69547584D01*
X112712482Y-69434694D01*
X112712475Y-69434692D01*
X112712473Y-69434691D01*
X112427514Y-69358337D01*
X112378634Y-69351901D01*
X112135034Y-69319830D01*
X112135027Y-69319830D01*
X111840015Y-69319830D01*
X111840007Y-69319830D01*
X111561606Y-69356483D01*
X111547528Y-69358337D01*
X111327224Y-69417367D01*
X111262569Y-69434691D01*
X111262559Y-69434694D01*
X110990020Y-69547584D01*
X110990010Y-69547588D01*
X110734527Y-69695091D01*
X110500480Y-69874682D01*
X110500473Y-69874688D01*
X110291879Y-70083282D01*
X110291873Y-70083289D01*
X110112282Y-70317336D01*
X109964779Y-70572819D01*
X109964775Y-70572829D01*
X109851885Y-70845368D01*
X109851882Y-70845378D01*
X109775529Y-71130334D01*
X109775527Y-71130345D01*
X109737021Y-71422816D01*
X71591321Y-71422816D01*
X71571690Y-71298868D01*
X71518161Y-71134124D01*
X71439520Y-70979781D01*
X71337702Y-70839641D01*
X71215216Y-70717155D01*
X71075076Y-70615337D01*
X70920733Y-70536696D01*
X70755989Y-70483167D01*
X70755987Y-70483166D01*
X70755986Y-70483166D01*
X70624559Y-70462350D01*
X70584899Y-70456069D01*
X70411677Y-70456069D01*
X70372016Y-70462350D01*
X70240590Y-70483166D01*
X70075840Y-70536697D01*
X69921499Y-70615337D01*
X69841544Y-70673428D01*
X69781360Y-70717155D01*
X69781358Y-70717157D01*
X69781357Y-70717157D01*
X69658876Y-70839638D01*
X69658876Y-70839639D01*
X69658874Y-70839641D01*
X69652841Y-70847945D01*
X69557056Y-70979780D01*
X69478416Y-71134121D01*
X69424885Y-71298871D01*
X69403689Y-71432702D01*
X69397788Y-71469958D01*
X67668788Y-71469958D01*
X67668788Y-71409063D01*
X67630281Y-71116576D01*
X67553927Y-70831617D01*
X67441031Y-70559062D01*
X67432912Y-70545000D01*
X67293526Y-70303575D01*
X67113935Y-70069528D01*
X67113929Y-70069521D01*
X66905335Y-69860927D01*
X66905328Y-69860921D01*
X66671281Y-69681330D01*
X66603509Y-69642202D01*
X66425948Y-69539687D01*
X106193713Y-69539687D01*
X106193713Y-69712908D01*
X106219335Y-69874684D01*
X106220811Y-69883999D01*
X106274340Y-70048743D01*
X106352981Y-70203086D01*
X106454799Y-70343226D01*
X106577285Y-70465712D01*
X106717425Y-70567530D01*
X106871768Y-70646171D01*
X107036512Y-70699700D01*
X107207602Y-70726798D01*
X107207603Y-70726798D01*
X107380823Y-70726798D01*
X107380824Y-70726798D01*
X107551914Y-70699700D01*
X107716658Y-70646171D01*
X107871001Y-70567530D01*
X108011141Y-70465712D01*
X108133627Y-70343226D01*
X108235445Y-70203086D01*
X108314086Y-70048743D01*
X108367615Y-69883999D01*
X108394713Y-69712909D01*
X108394713Y-69539687D01*
X108367615Y-69368597D01*
X108314086Y-69203853D01*
X108314082Y-69203846D01*
X108313693Y-69202647D01*
X108311698Y-69132805D01*
X108347778Y-69072972D01*
X108410479Y-69042144D01*
X108479893Y-69050108D01*
X108504510Y-69064010D01*
X108600972Y-69134094D01*
X108825371Y-69248432D01*
X109064886Y-69326254D01*
X109313628Y-69365652D01*
X109565484Y-69365652D01*
X109814217Y-69326256D01*
X109814223Y-69326255D01*
X109815243Y-69325923D01*
X109479617Y-68515652D01*
X109513425Y-68515652D01*
X109658323Y-68486830D01*
X109794814Y-68430293D01*
X109917653Y-68348215D01*
X109941556Y-68324311D01*
X110277182Y-69134581D01*
X110278134Y-69134097D01*
X110278145Y-69134090D01*
X110481882Y-68986066D01*
X110481888Y-68986061D01*
X110659965Y-68807984D01*
X110659965Y-68807983D01*
X110807998Y-68604235D01*
X110922336Y-68379836D01*
X111000158Y-68140321D01*
X111039556Y-67891580D01*
X111039556Y-67723076D01*
X114677707Y-67723076D01*
X114677707Y-67975000D01*
X114704053Y-68141340D01*
X114717117Y-68223823D01*
X114794967Y-68463421D01*
X114873620Y-68617785D01*
X114908314Y-68685876D01*
X114909339Y-68687886D01*
X115057408Y-68891687D01*
X115057412Y-68891692D01*
X115235552Y-69069832D01*
X115235557Y-69069836D01*
X115324672Y-69134581D01*
X115439362Y-69217908D01*
X115582391Y-69290785D01*
X115663823Y-69332277D01*
X115663825Y-69332277D01*
X115663828Y-69332279D01*
X115903422Y-69410128D01*
X116152245Y-69449538D01*
X116152246Y-69449538D01*
X116404168Y-69449538D01*
X116404169Y-69449538D01*
X116652992Y-69410128D01*
X116892586Y-69332279D01*
X117117052Y-69217908D01*
X117320863Y-69069831D01*
X117499000Y-68891694D01*
X117502561Y-68886791D01*
X117550223Y-68821193D01*
X117619775Y-68725461D01*
X117647077Y-68687883D01*
X117761448Y-68463417D01*
X117839297Y-68223823D01*
X117878707Y-67975000D01*
X117878707Y-67723076D01*
X117839297Y-67474253D01*
X117761448Y-67234659D01*
X117761446Y-67234656D01*
X117761446Y-67234654D01*
X117693351Y-67101011D01*
X117647077Y-67010193D01*
X117596931Y-66941173D01*
X117499005Y-66806388D01*
X117499001Y-66806383D01*
X117320861Y-66628243D01*
X117320856Y-66628239D01*
X117117055Y-66480170D01*
X117117054Y-66480169D01*
X117117052Y-66480168D01*
X117086349Y-66464524D01*
X116892590Y-66365798D01*
X116871394Y-66358911D01*
X162026864Y-66358911D01*
X162026864Y-66610835D01*
X162032543Y-66646688D01*
X162066274Y-66859658D01*
X162144124Y-67099256D01*
X162177865Y-67165475D01*
X162254264Y-67315417D01*
X162258496Y-67323721D01*
X162406565Y-67527522D01*
X162406569Y-67527527D01*
X162584709Y-67705667D01*
X162584714Y-67705671D01*
X162640293Y-67746051D01*
X162788519Y-67853743D01*
X162931548Y-67926620D01*
X163012980Y-67968112D01*
X163012982Y-67968112D01*
X163012985Y-67968114D01*
X163252579Y-68045963D01*
X163501402Y-68085373D01*
X163501403Y-68085373D01*
X163753325Y-68085373D01*
X163753326Y-68085373D01*
X164002149Y-68045963D01*
X164241743Y-67968114D01*
X164466209Y-67853743D01*
X164670020Y-67705666D01*
X164848157Y-67527529D01*
X164996234Y-67323718D01*
X165110605Y-67099252D01*
X165188454Y-66859658D01*
X165227864Y-66610835D01*
X165227864Y-66358911D01*
X165188454Y-66110088D01*
X165110605Y-65870494D01*
X165110603Y-65870491D01*
X165110603Y-65870489D01*
X165092100Y-65834176D01*
X164996234Y-65646028D01*
X164977316Y-65619990D01*
X164848162Y-65442223D01*
X164848158Y-65442218D01*
X164670018Y-65264078D01*
X164670013Y-65264074D01*
X164466212Y-65116005D01*
X164466211Y-65116004D01*
X164466209Y-65116003D01*
X164396111Y-65080286D01*
X164241747Y-65001633D01*
X164002149Y-64923783D01*
X163949720Y-64915479D01*
X163753326Y-64884373D01*
X163501402Y-64884373D01*
X163376990Y-64904078D01*
X163252578Y-64923783D01*
X163012980Y-65001633D01*
X162788515Y-65116005D01*
X162584714Y-65264074D01*
X162584709Y-65264078D01*
X162406569Y-65442218D01*
X162406565Y-65442223D01*
X162258496Y-65646024D01*
X162144124Y-65870489D01*
X162066274Y-66110087D01*
X162035727Y-66302952D01*
X162026864Y-66358911D01*
X116871394Y-66358911D01*
X116652992Y-66287948D01*
X116570440Y-66274873D01*
X116404169Y-66248538D01*
X116152245Y-66248538D01*
X116027833Y-66268243D01*
X115903421Y-66287948D01*
X115663823Y-66365798D01*
X115439358Y-66480170D01*
X115235557Y-66628239D01*
X115235552Y-66628243D01*
X115057412Y-66806383D01*
X115057408Y-66806388D01*
X114909339Y-67010189D01*
X114794967Y-67234654D01*
X114717117Y-67474252D01*
X114706372Y-67542092D01*
X114677707Y-67723076D01*
X111039556Y-67723076D01*
X111039556Y-67639723D01*
X111000160Y-67390993D01*
X111000157Y-67390979D01*
X110999826Y-67389963D01*
X110189556Y-67725588D01*
X110189556Y-67691783D01*
X110160734Y-67546885D01*
X110104197Y-67410394D01*
X110022119Y-67287555D01*
X109998213Y-67263649D01*
X110808485Y-66928023D01*
X110808001Y-66927073D01*
X110807997Y-66927067D01*
X110659965Y-66723319D01*
X110481888Y-66545242D01*
X110278139Y-66397209D01*
X110053740Y-66282871D01*
X109814225Y-66205049D01*
X109565484Y-66165652D01*
X109313628Y-66165652D01*
X109064892Y-66205048D01*
X109063866Y-66205380D01*
X109399493Y-67015652D01*
X109365687Y-67015652D01*
X109220789Y-67044474D01*
X109084298Y-67101011D01*
X108961459Y-67183089D01*
X108937554Y-67206993D01*
X108601927Y-66396720D01*
X108600977Y-66397205D01*
X108397229Y-66545237D01*
X108397223Y-66545242D01*
X108219146Y-66723319D01*
X108219146Y-66723320D01*
X108071113Y-66927068D01*
X107956775Y-67151467D01*
X107878953Y-67390982D01*
X107839556Y-67639723D01*
X107839556Y-67891580D01*
X107878951Y-68140313D01*
X107878953Y-68140321D01*
X107879284Y-68141340D01*
X108689556Y-67805713D01*
X108689556Y-67839521D01*
X108718378Y-67984419D01*
X108774915Y-68120910D01*
X108856993Y-68243749D01*
X108880896Y-68267652D01*
X108070624Y-68603279D01*
X108061354Y-68628436D01*
X108019703Y-68684533D01*
X107954335Y-68709207D01*
X107886004Y-68694624D01*
X107872116Y-68685876D01*
X107871002Y-68685066D01*
X107716660Y-68606426D01*
X107716659Y-68606425D01*
X107716658Y-68606425D01*
X107551914Y-68552896D01*
X107551912Y-68552895D01*
X107551911Y-68552895D01*
X107420484Y-68532079D01*
X107380824Y-68525798D01*
X107207602Y-68525798D01*
X107167941Y-68532079D01*
X107036515Y-68552895D01*
X106871765Y-68606426D01*
X106717424Y-68685066D01*
X106661829Y-68725459D01*
X106577285Y-68786884D01*
X106577283Y-68786886D01*
X106577282Y-68786886D01*
X106454801Y-68909367D01*
X106454801Y-68909368D01*
X106454799Y-68909370D01*
X106424550Y-68951004D01*
X106352981Y-69049509D01*
X106274341Y-69203850D01*
X106220810Y-69368600D01*
X106193713Y-69539687D01*
X66425948Y-69539687D01*
X66415798Y-69533827D01*
X66415788Y-69533823D01*
X66143249Y-69420933D01*
X66143242Y-69420931D01*
X66143240Y-69420930D01*
X65858281Y-69344576D01*
X65809401Y-69338140D01*
X65565801Y-69306069D01*
X65565794Y-69306069D01*
X65270782Y-69306069D01*
X65270774Y-69306069D01*
X64992373Y-69342722D01*
X64978295Y-69344576D01*
X64845601Y-69380131D01*
X64693336Y-69420930D01*
X64693326Y-69420933D01*
X64420787Y-69533823D01*
X64420777Y-69533827D01*
X64165294Y-69681330D01*
X63931247Y-69860921D01*
X63931240Y-69860927D01*
X63722646Y-70069521D01*
X63722640Y-70069528D01*
X63543049Y-70303575D01*
X63395546Y-70559058D01*
X63395542Y-70559068D01*
X63282652Y-70831607D01*
X63282649Y-70831617D01*
X63223620Y-71051920D01*
X63206296Y-71116573D01*
X63206294Y-71116584D01*
X63167788Y-71409055D01*
X61429142Y-71409055D01*
X61411690Y-71298868D01*
X61358161Y-71134124D01*
X61279520Y-70979781D01*
X61177702Y-70839641D01*
X61125170Y-70787109D01*
X61091685Y-70725786D01*
X61096669Y-70656094D01*
X61138541Y-70600161D01*
X61204005Y-70575744D01*
X61232249Y-70576955D01*
X61482360Y-70616569D01*
X61734216Y-70616569D01*
X61982957Y-70577171D01*
X62222472Y-70499349D01*
X62446863Y-70385015D01*
X62446869Y-70385011D01*
X62548985Y-70310819D01*
X62548986Y-70310819D01*
X61932313Y-69694147D01*
X61963546Y-69681210D01*
X62086385Y-69599132D01*
X62190851Y-69494666D01*
X62272929Y-69371827D01*
X62285865Y-69340594D01*
X62902538Y-69957267D01*
X62902538Y-69957266D01*
X62976730Y-69855150D01*
X62976734Y-69855144D01*
X63091068Y-69630753D01*
X63168890Y-69391238D01*
X63208288Y-69142497D01*
X63208288Y-68890640D01*
X63168890Y-68641899D01*
X63091068Y-68402384D01*
X62976730Y-68177985D01*
X62902538Y-68075870D01*
X62902538Y-68075869D01*
X62285865Y-68692542D01*
X62272929Y-68661311D01*
X62190851Y-68538472D01*
X62086385Y-68434006D01*
X61963546Y-68351928D01*
X61932312Y-68338990D01*
X62548986Y-67722317D01*
X62446871Y-67648126D01*
X62222472Y-67533788D01*
X61982957Y-67455966D01*
X61734216Y-67416569D01*
X61482360Y-67416569D01*
X61233618Y-67455966D01*
X60994103Y-67533788D01*
X60769701Y-67648128D01*
X60667589Y-67722316D01*
X60667588Y-67722317D01*
X61284262Y-68338990D01*
X61253030Y-68351928D01*
X61130191Y-68434006D01*
X61025725Y-68538472D01*
X60943647Y-68661311D01*
X60930709Y-68692543D01*
X60314036Y-68075869D01*
X60314035Y-68075870D01*
X60239847Y-68177982D01*
X60125507Y-68402384D01*
X60047685Y-68641899D01*
X60008288Y-68890640D01*
X60008288Y-69142497D01*
X60047685Y-69391238D01*
X60125507Y-69630753D01*
X60239845Y-69855152D01*
X60314036Y-69957266D01*
X60314036Y-69957267D01*
X60930709Y-69340593D01*
X60943647Y-69371827D01*
X61025725Y-69494666D01*
X61130191Y-69599132D01*
X61253030Y-69681210D01*
X61284262Y-69694146D01*
X60667588Y-70310819D01*
X60669886Y-70340018D01*
X60655521Y-70408396D01*
X60606469Y-70458152D01*
X60538304Y-70473490D01*
X60526871Y-70472219D01*
X60424899Y-70456069D01*
X60251677Y-70456069D01*
X60212016Y-70462350D01*
X60080590Y-70483166D01*
X59915840Y-70536697D01*
X59761499Y-70615337D01*
X59681544Y-70673428D01*
X59621360Y-70717155D01*
X59621358Y-70717157D01*
X59621357Y-70717157D01*
X59498876Y-70839638D01*
X59498876Y-70839639D01*
X59498874Y-70839641D01*
X59492841Y-70847945D01*
X59397056Y-70979780D01*
X59318416Y-71134121D01*
X59264885Y-71298871D01*
X59243689Y-71432702D01*
X59237788Y-71469958D01*
X52250500Y-71469958D01*
X52250500Y-66350607D01*
X66357788Y-66350607D01*
X66357788Y-66602531D01*
X66361861Y-66628245D01*
X66397198Y-66851354D01*
X66475048Y-67090952D01*
X66513020Y-67165475D01*
X66580364Y-67297645D01*
X66589420Y-67315417D01*
X66737489Y-67519218D01*
X66737493Y-67519223D01*
X66915633Y-67697363D01*
X66915638Y-67697367D01*
X67022317Y-67774873D01*
X67119443Y-67845439D01*
X67228392Y-67900951D01*
X67343904Y-67959808D01*
X67343906Y-67959808D01*
X67343909Y-67959810D01*
X67583503Y-68037659D01*
X67832326Y-68077069D01*
X67832327Y-68077069D01*
X68084249Y-68077069D01*
X68084250Y-68077069D01*
X68333073Y-68037659D01*
X68572667Y-67959810D01*
X68797133Y-67845439D01*
X69000944Y-67697362D01*
X69179081Y-67519225D01*
X69327158Y-67315414D01*
X69441529Y-67090948D01*
X69519378Y-66851354D01*
X69558788Y-66602531D01*
X69558788Y-66350607D01*
X69519378Y-66101784D01*
X69441529Y-65862190D01*
X69441527Y-65862187D01*
X69441527Y-65862185D01*
X69374491Y-65730621D01*
X69327158Y-65637724D01*
X69308240Y-65611686D01*
X69179086Y-65433919D01*
X69179082Y-65433914D01*
X69000942Y-65255774D01*
X69000937Y-65255770D01*
X68797136Y-65107701D01*
X68797135Y-65107700D01*
X68797133Y-65107699D01*
X68727035Y-65071982D01*
X68572671Y-64993329D01*
X68333073Y-64915479D01*
X68084250Y-64876069D01*
X67832326Y-64876069D01*
X67707914Y-64895774D01*
X67583502Y-64915479D01*
X67343904Y-64993329D01*
X67119439Y-65107701D01*
X66915638Y-65255770D01*
X66915633Y-65255774D01*
X66737493Y-65433914D01*
X66737489Y-65433919D01*
X66589420Y-65637720D01*
X66475048Y-65862185D01*
X66415335Y-66045963D01*
X66397198Y-66101784D01*
X66357788Y-66350607D01*
X52250500Y-66350607D01*
X52250500Y-64132697D01*
X92137116Y-64132697D01*
X92137116Y-64427724D01*
X92161224Y-64610834D01*
X92175623Y-64720204D01*
X92248806Y-64993328D01*
X92251977Y-65005162D01*
X92251980Y-65005172D01*
X92364870Y-65277711D01*
X92364874Y-65277721D01*
X92512377Y-65533204D01*
X92691968Y-65767251D01*
X92691974Y-65767258D01*
X92900568Y-65975852D01*
X92900575Y-65975858D01*
X93134622Y-66155449D01*
X93390105Y-66302952D01*
X93390106Y-66302952D01*
X93390109Y-66302954D01*
X93662664Y-66415850D01*
X93947623Y-66492204D01*
X94240110Y-66530711D01*
X94240117Y-66530711D01*
X94535115Y-66530711D01*
X94535122Y-66530711D01*
X94827609Y-66492204D01*
X95112568Y-66415850D01*
X95385123Y-66302954D01*
X95640610Y-66155449D01*
X95663829Y-66137632D01*
X97980424Y-66137632D01*
X97980424Y-66310853D01*
X98007240Y-66480168D01*
X98007522Y-66481944D01*
X98061051Y-66646688D01*
X98139692Y-66801031D01*
X98241510Y-66941171D01*
X98363996Y-67063657D01*
X98504136Y-67165475D01*
X98658479Y-67244116D01*
X98823223Y-67297645D01*
X98994313Y-67324743D01*
X98994314Y-67324743D01*
X99167534Y-67324743D01*
X99167535Y-67324743D01*
X99338625Y-67297645D01*
X99503369Y-67244116D01*
X99657712Y-67165475D01*
X99797852Y-67063657D01*
X99920338Y-66941171D01*
X100022156Y-66801031D01*
X100100797Y-66646688D01*
X100154326Y-66481944D01*
X100181424Y-66310854D01*
X100181424Y-66137632D01*
X100154326Y-65966542D01*
X100100797Y-65801798D01*
X100022156Y-65647455D01*
X99920338Y-65507315D01*
X99797852Y-65384829D01*
X99657712Y-65283011D01*
X99647310Y-65277711D01*
X99503371Y-65204371D01*
X99503370Y-65204370D01*
X99503369Y-65204370D01*
X99338625Y-65150841D01*
X99338623Y-65150840D01*
X99338622Y-65150840D01*
X99207195Y-65130024D01*
X99167535Y-65123743D01*
X98994313Y-65123743D01*
X98954652Y-65130024D01*
X98823226Y-65150840D01*
X98658476Y-65204371D01*
X98504135Y-65283011D01*
X98424180Y-65341102D01*
X98363996Y-65384829D01*
X98363994Y-65384831D01*
X98363993Y-65384831D01*
X98241512Y-65507312D01*
X98241512Y-65507313D01*
X98241510Y-65507315D01*
X98222700Y-65533205D01*
X98139692Y-65647454D01*
X98061052Y-65801795D01*
X98007521Y-65966545D01*
X97980424Y-66137632D01*
X95663829Y-66137632D01*
X95874658Y-65975857D01*
X96083262Y-65767253D01*
X96262854Y-65533205D01*
X96410359Y-65277718D01*
X96523255Y-65005163D01*
X96599609Y-64720204D01*
X96638116Y-64427717D01*
X96638116Y-64358911D01*
X244026864Y-64358911D01*
X244026864Y-64610835D01*
X244044187Y-64720206D01*
X244066274Y-64859658D01*
X244144124Y-65099256D01*
X244222777Y-65253620D01*
X244235057Y-65277721D01*
X244258496Y-65323721D01*
X244406565Y-65527522D01*
X244406569Y-65527527D01*
X244584709Y-65705667D01*
X244584714Y-65705671D01*
X244761587Y-65834176D01*
X244788519Y-65853743D01*
X244931548Y-65926620D01*
X245012980Y-65968112D01*
X245012982Y-65968112D01*
X245012985Y-65968114D01*
X245252579Y-66045963D01*
X245501402Y-66085373D01*
X245501403Y-66085373D01*
X245753325Y-66085373D01*
X245753326Y-66085373D01*
X246002149Y-66045963D01*
X246241743Y-65968114D01*
X246466209Y-65853743D01*
X246670020Y-65705666D01*
X246848157Y-65527529D01*
X246996234Y-65323718D01*
X247110605Y-65099252D01*
X247188454Y-64859658D01*
X247227864Y-64610835D01*
X247227864Y-64358911D01*
X247188454Y-64110088D01*
X247110605Y-63870494D01*
X247110603Y-63870491D01*
X247110603Y-63870489D01*
X247069111Y-63789057D01*
X246996234Y-63646028D01*
X246930287Y-63555259D01*
X246848162Y-63442223D01*
X246848158Y-63442218D01*
X246670018Y-63264078D01*
X246670013Y-63264074D01*
X246466212Y-63116005D01*
X246466211Y-63116004D01*
X246466209Y-63116003D01*
X246396111Y-63080286D01*
X246241747Y-63001633D01*
X246002149Y-62923783D01*
X245933860Y-62912967D01*
X245753326Y-62884373D01*
X245501402Y-62884373D01*
X245376990Y-62904078D01*
X245252578Y-62923783D01*
X245012980Y-63001633D01*
X244788515Y-63116005D01*
X244584714Y-63264074D01*
X244584709Y-63264078D01*
X244406569Y-63442218D01*
X244406565Y-63442223D01*
X244258496Y-63646024D01*
X244144124Y-63870489D01*
X244066274Y-64110087D01*
X244066274Y-64110088D01*
X244026864Y-64358911D01*
X96638116Y-64358911D01*
X96638116Y-64132705D01*
X96599609Y-63840218D01*
X96523255Y-63555259D01*
X96410359Y-63282704D01*
X96399606Y-63264080D01*
X96262854Y-63027217D01*
X96083263Y-62793170D01*
X96083257Y-62793163D01*
X95874663Y-62584569D01*
X95874656Y-62584563D01*
X95640609Y-62404972D01*
X95385126Y-62257469D01*
X95385116Y-62257465D01*
X95112577Y-62144575D01*
X95112570Y-62144573D01*
X95112568Y-62144572D01*
X94827609Y-62068218D01*
X94778729Y-62061782D01*
X94535129Y-62029711D01*
X94535122Y-62029711D01*
X94240110Y-62029711D01*
X94240102Y-62029711D01*
X93961701Y-62066364D01*
X93947623Y-62068218D01*
X93754339Y-62120008D01*
X93662664Y-62144572D01*
X93662654Y-62144575D01*
X93390115Y-62257465D01*
X93390105Y-62257469D01*
X93134622Y-62404972D01*
X92900575Y-62584563D01*
X92900568Y-62584569D01*
X92691974Y-62793163D01*
X92691968Y-62793170D01*
X92512377Y-63027217D01*
X92364874Y-63282700D01*
X92364870Y-63282710D01*
X92251980Y-63555249D01*
X92251977Y-63555259D01*
X92175624Y-63840215D01*
X92175622Y-63840226D01*
X92137116Y-64132697D01*
X52250500Y-64132697D01*
X52250500Y-62249568D01*
X88593808Y-62249568D01*
X88593808Y-62422789D01*
X88619430Y-62584565D01*
X88620906Y-62593880D01*
X88674435Y-62758624D01*
X88753076Y-62912967D01*
X88854894Y-63053107D01*
X88977380Y-63175593D01*
X89117520Y-63277411D01*
X89271863Y-63356052D01*
X89436607Y-63409581D01*
X89607697Y-63436679D01*
X89607698Y-63436679D01*
X89780918Y-63436679D01*
X89780919Y-63436679D01*
X89952009Y-63409581D01*
X90116753Y-63356052D01*
X90271096Y-63277411D01*
X90411236Y-63175593D01*
X90533722Y-63053107D01*
X90635540Y-62912967D01*
X90714181Y-62758624D01*
X90767710Y-62593880D01*
X90794808Y-62422790D01*
X90794808Y-62249568D01*
X90767710Y-62078478D01*
X90714181Y-61913734D01*
X90714177Y-61913727D01*
X90713788Y-61912528D01*
X90711793Y-61842686D01*
X90747873Y-61782853D01*
X90810574Y-61752025D01*
X90879988Y-61759989D01*
X90904605Y-61773891D01*
X91001067Y-61843975D01*
X91225466Y-61958313D01*
X91464981Y-62036135D01*
X91713723Y-62075533D01*
X91965579Y-62075533D01*
X92214312Y-62036137D01*
X92214318Y-62036136D01*
X92215338Y-62035804D01*
X91879712Y-61225533D01*
X91913520Y-61225533D01*
X92058418Y-61196711D01*
X92194909Y-61140174D01*
X92317748Y-61058096D01*
X92341651Y-61034192D01*
X92677277Y-61844462D01*
X92678229Y-61843978D01*
X92678240Y-61843971D01*
X92881977Y-61695947D01*
X92881983Y-61695942D01*
X93060060Y-61517865D01*
X93060060Y-61517864D01*
X93208093Y-61314116D01*
X93322431Y-61089717D01*
X93400253Y-60850202D01*
X93439651Y-60601461D01*
X93439651Y-60432957D01*
X97077802Y-60432957D01*
X97077802Y-60684881D01*
X97104148Y-60851221D01*
X97117212Y-60933704D01*
X97195062Y-61173302D01*
X97266324Y-61313160D01*
X97308409Y-61395757D01*
X97309434Y-61397767D01*
X97457503Y-61601568D01*
X97457507Y-61601573D01*
X97635647Y-61779713D01*
X97635652Y-61779717D01*
X97724767Y-61844462D01*
X97839457Y-61927789D01*
X97982486Y-62000666D01*
X98063918Y-62042158D01*
X98063920Y-62042158D01*
X98063923Y-62042160D01*
X98303517Y-62120009D01*
X98552340Y-62159419D01*
X98552341Y-62159419D01*
X98804263Y-62159419D01*
X98804264Y-62159419D01*
X99053087Y-62120009D01*
X99292681Y-62042160D01*
X99517147Y-61927789D01*
X99720958Y-61779712D01*
X99899095Y-61601575D01*
X100047172Y-61397764D01*
X100161543Y-61173298D01*
X100239392Y-60933704D01*
X100278802Y-60684881D01*
X100278802Y-60432957D01*
X100239392Y-60184134D01*
X100161543Y-59944540D01*
X100161541Y-59944537D01*
X100161541Y-59944535D01*
X100095729Y-59815373D01*
X100047172Y-59720074D01*
X99986782Y-59636954D01*
X99899100Y-59516269D01*
X99899096Y-59516264D01*
X99720956Y-59338124D01*
X99720951Y-59338120D01*
X99517150Y-59190051D01*
X99517149Y-59190050D01*
X99517147Y-59190049D01*
X99447049Y-59154332D01*
X99292685Y-59075679D01*
X99053087Y-58997829D01*
X99021032Y-58992752D01*
X98804264Y-58958419D01*
X98552340Y-58958419D01*
X98427928Y-58978124D01*
X98303516Y-58997829D01*
X98063918Y-59075679D01*
X97839453Y-59190051D01*
X97635652Y-59338120D01*
X97635647Y-59338124D01*
X97457507Y-59516264D01*
X97457503Y-59516269D01*
X97309434Y-59720070D01*
X97195062Y-59944535D01*
X97117212Y-60184133D01*
X97117212Y-60184134D01*
X97077802Y-60432957D01*
X93439651Y-60432957D01*
X93439651Y-60349604D01*
X93400255Y-60100874D01*
X93400252Y-60100860D01*
X93399921Y-60099844D01*
X92589651Y-60435469D01*
X92589651Y-60401664D01*
X92560829Y-60256766D01*
X92504292Y-60120275D01*
X92422214Y-59997436D01*
X92398308Y-59973530D01*
X93208580Y-59637904D01*
X93208096Y-59636954D01*
X93208092Y-59636948D01*
X93060060Y-59433200D01*
X92881983Y-59255123D01*
X92678234Y-59107090D01*
X92453835Y-58992752D01*
X92214320Y-58914930D01*
X91965579Y-58875533D01*
X91713723Y-58875533D01*
X91464987Y-58914929D01*
X91463961Y-58915261D01*
X91799588Y-59725533D01*
X91765782Y-59725533D01*
X91620884Y-59754355D01*
X91484393Y-59810892D01*
X91361554Y-59892970D01*
X91337649Y-59916874D01*
X91002022Y-59106601D01*
X91001072Y-59107086D01*
X90797324Y-59255118D01*
X90797318Y-59255123D01*
X90619241Y-59433200D01*
X90619241Y-59433201D01*
X90471208Y-59636949D01*
X90356870Y-59861348D01*
X90279048Y-60100863D01*
X90239651Y-60349604D01*
X90239651Y-60601461D01*
X90279046Y-60850194D01*
X90279048Y-60850202D01*
X90279379Y-60851221D01*
X91089651Y-60515594D01*
X91089651Y-60549402D01*
X91118473Y-60694300D01*
X91175010Y-60830791D01*
X91257088Y-60953630D01*
X91280991Y-60977533D01*
X90470719Y-61313160D01*
X90461449Y-61338317D01*
X90419798Y-61394414D01*
X90354430Y-61419088D01*
X90286099Y-61404505D01*
X90272211Y-61395757D01*
X90271097Y-61394947D01*
X90116755Y-61316307D01*
X90116754Y-61316306D01*
X90116753Y-61316306D01*
X89952009Y-61262777D01*
X89952007Y-61262776D01*
X89952006Y-61262776D01*
X89820579Y-61241960D01*
X89780919Y-61235679D01*
X89607697Y-61235679D01*
X89568036Y-61241960D01*
X89436610Y-61262776D01*
X89271860Y-61316307D01*
X89117519Y-61394947D01*
X89037564Y-61453038D01*
X88977380Y-61496765D01*
X88977378Y-61496767D01*
X88977377Y-61496767D01*
X88854896Y-61619248D01*
X88854896Y-61619249D01*
X88854894Y-61619251D01*
X88811167Y-61679435D01*
X88753076Y-61759390D01*
X88674436Y-61913731D01*
X88620905Y-62078481D01*
X88593808Y-62249568D01*
X52250500Y-62249568D01*
X52250500Y-53822911D01*
X117027140Y-53822911D01*
X117027140Y-54117938D01*
X117059040Y-54360232D01*
X117065647Y-54410418D01*
X117088827Y-54496926D01*
X117142001Y-54695376D01*
X117142004Y-54695386D01*
X117254894Y-54967925D01*
X117254898Y-54967935D01*
X117402401Y-55223418D01*
X117581992Y-55457465D01*
X117581998Y-55457472D01*
X117790592Y-55666066D01*
X117790599Y-55666072D01*
X118024646Y-55845663D01*
X118280129Y-55993166D01*
X118280130Y-55993166D01*
X118280133Y-55993168D01*
X118552688Y-56106064D01*
X118837647Y-56182418D01*
X119130134Y-56220925D01*
X119130141Y-56220925D01*
X119425139Y-56220925D01*
X119425146Y-56220925D01*
X119717633Y-56182418D01*
X120002592Y-56106064D01*
X120275147Y-55993168D01*
X120530634Y-55845663D01*
X120553853Y-55827846D01*
X122870448Y-55827846D01*
X122870448Y-56001067D01*
X122887077Y-56106063D01*
X122897546Y-56172158D01*
X122951075Y-56336902D01*
X123029716Y-56491245D01*
X123131534Y-56631385D01*
X123254020Y-56753871D01*
X123394160Y-56855689D01*
X123548503Y-56934330D01*
X123713247Y-56987859D01*
X123884337Y-57014957D01*
X123884338Y-57014957D01*
X124057558Y-57014957D01*
X124057559Y-57014957D01*
X124228649Y-56987859D01*
X124393393Y-56934330D01*
X124547736Y-56855689D01*
X124687876Y-56753871D01*
X124810362Y-56631385D01*
X124912180Y-56491245D01*
X124990821Y-56336902D01*
X125044350Y-56172158D01*
X125071448Y-56001068D01*
X125071448Y-55827846D01*
X125044350Y-55656756D01*
X124990821Y-55492012D01*
X124912180Y-55337669D01*
X124810362Y-55197529D01*
X124687876Y-55075043D01*
X124547736Y-54973225D01*
X124393393Y-54894584D01*
X124228649Y-54841055D01*
X124228647Y-54841054D01*
X124228646Y-54841054D01*
X124097219Y-54820238D01*
X124057559Y-54813957D01*
X123884337Y-54813957D01*
X123844676Y-54820238D01*
X123713250Y-54841054D01*
X123548500Y-54894585D01*
X123394159Y-54973225D01*
X123323074Y-55024872D01*
X123254020Y-55075043D01*
X123254018Y-55075045D01*
X123254017Y-55075045D01*
X123131536Y-55197526D01*
X123131536Y-55197527D01*
X123131534Y-55197529D01*
X123112724Y-55223419D01*
X123029716Y-55337668D01*
X122951076Y-55492009D01*
X122897545Y-55656759D01*
X122870448Y-55827846D01*
X120553853Y-55827846D01*
X120764682Y-55666071D01*
X120973286Y-55457467D01*
X121152878Y-55223419D01*
X121300383Y-54967932D01*
X121413279Y-54695377D01*
X121489633Y-54410418D01*
X121528140Y-54117931D01*
X121528140Y-53822919D01*
X121489633Y-53530432D01*
X121413279Y-53245473D01*
X121300383Y-52972918D01*
X121152878Y-52717431D01*
X120973286Y-52483383D01*
X120973281Y-52483377D01*
X120764687Y-52274783D01*
X120764680Y-52274777D01*
X120530633Y-52095186D01*
X120275150Y-51947683D01*
X120275140Y-51947679D01*
X120002601Y-51834789D01*
X120002594Y-51834787D01*
X120002592Y-51834786D01*
X119717633Y-51758432D01*
X119668753Y-51751996D01*
X119425153Y-51719925D01*
X119425146Y-51719925D01*
X119130134Y-51719925D01*
X119130126Y-51719925D01*
X118851725Y-51756578D01*
X118837647Y-51758432D01*
X118644363Y-51810222D01*
X118552688Y-51834786D01*
X118552678Y-51834789D01*
X118280139Y-51947679D01*
X118280129Y-51947683D01*
X118024646Y-52095186D01*
X117790599Y-52274777D01*
X117790592Y-52274783D01*
X117581998Y-52483377D01*
X117581992Y-52483384D01*
X117402401Y-52717431D01*
X117254898Y-52972914D01*
X117254894Y-52972924D01*
X117142004Y-53245463D01*
X117142001Y-53245473D01*
X117066426Y-53527527D01*
X117065648Y-53530429D01*
X117065646Y-53530440D01*
X117027140Y-53822911D01*
X52250500Y-53822911D01*
X52250500Y-51939782D01*
X113483832Y-51939782D01*
X113483832Y-52113003D01*
X113509454Y-52274779D01*
X113510930Y-52284094D01*
X113564459Y-52448838D01*
X113643100Y-52603181D01*
X113744918Y-52743321D01*
X113867404Y-52865807D01*
X114007544Y-52967625D01*
X114161887Y-53046266D01*
X114326631Y-53099795D01*
X114497721Y-53126893D01*
X114497722Y-53126893D01*
X114670942Y-53126893D01*
X114670943Y-53126893D01*
X114842033Y-53099795D01*
X115006777Y-53046266D01*
X115161120Y-52967625D01*
X115301260Y-52865807D01*
X115423746Y-52743321D01*
X115525564Y-52603181D01*
X115604205Y-52448838D01*
X115657734Y-52284094D01*
X115684832Y-52113004D01*
X115684832Y-51939782D01*
X115657734Y-51768692D01*
X115604205Y-51603948D01*
X115604201Y-51603941D01*
X115603812Y-51602742D01*
X115601817Y-51532900D01*
X115637897Y-51473067D01*
X115700598Y-51442239D01*
X115770012Y-51450203D01*
X115794629Y-51464105D01*
X115891091Y-51534189D01*
X116115490Y-51648527D01*
X116355005Y-51726349D01*
X116603747Y-51765747D01*
X116855603Y-51765747D01*
X117104336Y-51726351D01*
X117104342Y-51726350D01*
X117105362Y-51726018D01*
X116769736Y-50915747D01*
X116803544Y-50915747D01*
X116948442Y-50886925D01*
X117084933Y-50830388D01*
X117207772Y-50748310D01*
X117231675Y-50724406D01*
X117567301Y-51534676D01*
X117568253Y-51534192D01*
X117568264Y-51534185D01*
X117772001Y-51386161D01*
X117772007Y-51386156D01*
X117950084Y-51208079D01*
X117950084Y-51208078D01*
X118098117Y-51004330D01*
X118212455Y-50779931D01*
X118290277Y-50540416D01*
X118329675Y-50291675D01*
X118329675Y-50123171D01*
X121967826Y-50123171D01*
X121967826Y-50375095D01*
X121994172Y-50541435D01*
X122007236Y-50623918D01*
X122085086Y-50863516D01*
X122155461Y-51001633D01*
X122198433Y-51085971D01*
X122199458Y-51087981D01*
X122347527Y-51291782D01*
X122347531Y-51291787D01*
X122525671Y-51469927D01*
X122525676Y-51469931D01*
X122614791Y-51534676D01*
X122729481Y-51618003D01*
X122872510Y-51690880D01*
X122953942Y-51732372D01*
X122953944Y-51732372D01*
X122953947Y-51732374D01*
X123193541Y-51810223D01*
X123442364Y-51849633D01*
X123442365Y-51849633D01*
X123694287Y-51849633D01*
X123694288Y-51849633D01*
X123943111Y-51810223D01*
X124182705Y-51732374D01*
X124407171Y-51618003D01*
X124610982Y-51469926D01*
X124789119Y-51291789D01*
X124937196Y-51087978D01*
X125051567Y-50863512D01*
X125129416Y-50623918D01*
X125168826Y-50375095D01*
X125168826Y-50123171D01*
X125129416Y-49874348D01*
X125051567Y-49634754D01*
X125051565Y-49634751D01*
X125051565Y-49634749D01*
X124983470Y-49501106D01*
X124937196Y-49410288D01*
X124876806Y-49327168D01*
X124789124Y-49206483D01*
X124789120Y-49206478D01*
X124610980Y-49028338D01*
X124610975Y-49028334D01*
X124407174Y-48880265D01*
X124407173Y-48880264D01*
X124407171Y-48880263D01*
X124327479Y-48839658D01*
X124182709Y-48765893D01*
X123943111Y-48688043D01*
X123845078Y-48672516D01*
X123694288Y-48648633D01*
X123442364Y-48648633D01*
X123317952Y-48668338D01*
X123193540Y-48688043D01*
X122953942Y-48765893D01*
X122729477Y-48880265D01*
X122525676Y-49028334D01*
X122525671Y-49028338D01*
X122347531Y-49206478D01*
X122347527Y-49206483D01*
X122199458Y-49410284D01*
X122085086Y-49634749D01*
X122007236Y-49874347D01*
X122007236Y-49874348D01*
X121967826Y-50123171D01*
X118329675Y-50123171D01*
X118329675Y-50039818D01*
X118290279Y-49791088D01*
X118290276Y-49791074D01*
X118289945Y-49790058D01*
X117479675Y-50125683D01*
X117479675Y-50091878D01*
X117450853Y-49946980D01*
X117394316Y-49810489D01*
X117312238Y-49687650D01*
X117288332Y-49663744D01*
X118098604Y-49328118D01*
X118098120Y-49327168D01*
X118098116Y-49327162D01*
X117950084Y-49123414D01*
X117772007Y-48945337D01*
X117568258Y-48797304D01*
X117343859Y-48682966D01*
X117104344Y-48605144D01*
X116855603Y-48565747D01*
X116603747Y-48565747D01*
X116355011Y-48605143D01*
X116353985Y-48605475D01*
X116689612Y-49415747D01*
X116655806Y-49415747D01*
X116510908Y-49444569D01*
X116374417Y-49501106D01*
X116251578Y-49583184D01*
X116227673Y-49607088D01*
X115892046Y-48796815D01*
X115891096Y-48797300D01*
X115687348Y-48945332D01*
X115687342Y-48945337D01*
X115509265Y-49123414D01*
X115509265Y-49123415D01*
X115361232Y-49327163D01*
X115246894Y-49551562D01*
X115169072Y-49791077D01*
X115129675Y-50039818D01*
X115129675Y-50291675D01*
X115169070Y-50540408D01*
X115169072Y-50540416D01*
X115169403Y-50541435D01*
X115979675Y-50205808D01*
X115979675Y-50239616D01*
X116008497Y-50384514D01*
X116065034Y-50521005D01*
X116147112Y-50643844D01*
X116171015Y-50667747D01*
X115360743Y-51003374D01*
X115351473Y-51028531D01*
X115309822Y-51084628D01*
X115244454Y-51109302D01*
X115176123Y-51094719D01*
X115162235Y-51085971D01*
X115161121Y-51085161D01*
X115006779Y-51006521D01*
X115006778Y-51006520D01*
X115006777Y-51006520D01*
X114842033Y-50952991D01*
X114842031Y-50952990D01*
X114842030Y-50952990D01*
X114710603Y-50932174D01*
X114670943Y-50925893D01*
X114497721Y-50925893D01*
X114458060Y-50932174D01*
X114326634Y-50952990D01*
X114161884Y-51006521D01*
X114007543Y-51085161D01*
X113965091Y-51116005D01*
X113867404Y-51186979D01*
X113867402Y-51186981D01*
X113867401Y-51186981D01*
X113744920Y-51309462D01*
X113744920Y-51309463D01*
X113744918Y-51309465D01*
X113701191Y-51369649D01*
X113643100Y-51449604D01*
X113564460Y-51603945D01*
X113510929Y-51768695D01*
X113483832Y-51939782D01*
X52250500Y-51939782D01*
X52250500Y-41881902D01*
X63249500Y-41881902D01*
X63249500Y-42118097D01*
X63286446Y-42351368D01*
X63359433Y-42575996D01*
X63434377Y-42723080D01*
X63466657Y-42786433D01*
X63605483Y-42977510D01*
X63772490Y-43144517D01*
X63963567Y-43283343D01*
X64062991Y-43334002D01*
X64174003Y-43390566D01*
X64174005Y-43390566D01*
X64174008Y-43390568D01*
X64263088Y-43419512D01*
X64398631Y-43463553D01*
X64631903Y-43500500D01*
X64631908Y-43500500D01*
X64868097Y-43500500D01*
X65101368Y-43463553D01*
X65116735Y-43458560D01*
X65325992Y-43390568D01*
X65536433Y-43283343D01*
X65727510Y-43144517D01*
X65894517Y-42977510D01*
X66033343Y-42786433D01*
X66140568Y-42575992D01*
X66213553Y-42351368D01*
X66225119Y-42278342D01*
X66250500Y-42118097D01*
X66250500Y-41881902D01*
X69749500Y-41881902D01*
X69749500Y-42118097D01*
X69786446Y-42351368D01*
X69859433Y-42575996D01*
X69934377Y-42723080D01*
X69966657Y-42786433D01*
X70105483Y-42977510D01*
X70272490Y-43144517D01*
X70463567Y-43283343D01*
X70562991Y-43334002D01*
X70674003Y-43390566D01*
X70674005Y-43390566D01*
X70674008Y-43390568D01*
X70763088Y-43419512D01*
X70898631Y-43463553D01*
X71131903Y-43500500D01*
X71131908Y-43500500D01*
X71368097Y-43500500D01*
X71601368Y-43463553D01*
X71616735Y-43458560D01*
X71825992Y-43390568D01*
X72036433Y-43283343D01*
X72227510Y-43144517D01*
X72394517Y-42977510D01*
X72533343Y-42786433D01*
X72640568Y-42575992D01*
X72713553Y-42351368D01*
X72725119Y-42278342D01*
X72750500Y-42118097D01*
X72750500Y-41881902D01*
X79249500Y-41881902D01*
X79249500Y-42118097D01*
X79286446Y-42351368D01*
X79359433Y-42575996D01*
X79434377Y-42723080D01*
X79466657Y-42786433D01*
X79605483Y-42977510D01*
X79772490Y-43144517D01*
X79963567Y-43283343D01*
X80062991Y-43334002D01*
X80174003Y-43390566D01*
X80174005Y-43390566D01*
X80174008Y-43390568D01*
X80263088Y-43419512D01*
X80398631Y-43463553D01*
X80631903Y-43500500D01*
X80631908Y-43500500D01*
X80868097Y-43500500D01*
X81101368Y-43463553D01*
X81116735Y-43458560D01*
X81325992Y-43390568D01*
X81536433Y-43283343D01*
X81727510Y-43144517D01*
X81894517Y-42977510D01*
X82033343Y-42786433D01*
X82140568Y-42575992D01*
X82213553Y-42351368D01*
X82225119Y-42278342D01*
X82250500Y-42118097D01*
X82250500Y-41881902D01*
X85749500Y-41881902D01*
X85749500Y-42118097D01*
X85786446Y-42351368D01*
X85859433Y-42575996D01*
X85934377Y-42723080D01*
X85966657Y-42786433D01*
X86105483Y-42977510D01*
X86272490Y-43144517D01*
X86463567Y-43283343D01*
X86562991Y-43334002D01*
X86674003Y-43390566D01*
X86674005Y-43390566D01*
X86674008Y-43390568D01*
X86763088Y-43419512D01*
X86898631Y-43463553D01*
X87131903Y-43500500D01*
X87131908Y-43500500D01*
X87368097Y-43500500D01*
X87601368Y-43463553D01*
X87616735Y-43458560D01*
X87825992Y-43390568D01*
X88036433Y-43283343D01*
X88227510Y-43144517D01*
X88394517Y-42977510D01*
X88533343Y-42786433D01*
X88640568Y-42575992D01*
X88713553Y-42351368D01*
X88725119Y-42278342D01*
X88750500Y-42118097D01*
X88750500Y-41881947D01*
X95250000Y-41881947D01*
X95250000Y-42118052D01*
X95286934Y-42351247D01*
X95359897Y-42575802D01*
X95467087Y-42786174D01*
X95527338Y-42869104D01*
X95527340Y-42869105D01*
X96267037Y-42129408D01*
X96284075Y-42192993D01*
X96349901Y-42307007D01*
X96442993Y-42400099D01*
X96557007Y-42465925D01*
X96620590Y-42482962D01*
X95880893Y-43222658D01*
X95963828Y-43282914D01*
X96174197Y-43390102D01*
X96398752Y-43463065D01*
X96398751Y-43463065D01*
X96631948Y-43500000D01*
X96868052Y-43500000D01*
X97101247Y-43463065D01*
X97325802Y-43390102D01*
X97536163Y-43282918D01*
X97536169Y-43282914D01*
X97619104Y-43222658D01*
X97619105Y-43222658D01*
X96879408Y-42482962D01*
X96942993Y-42465925D01*
X97057007Y-42400099D01*
X97150099Y-42307007D01*
X97215925Y-42192993D01*
X97232962Y-42129409D01*
X97972658Y-42869105D01*
X97972658Y-42869104D01*
X98032914Y-42786169D01*
X98032918Y-42786163D01*
X98140102Y-42575802D01*
X98213065Y-42351247D01*
X98250000Y-42118052D01*
X98250000Y-41881947D01*
X101750000Y-41881947D01*
X101750000Y-42118052D01*
X101786934Y-42351247D01*
X101859897Y-42575802D01*
X101967087Y-42786174D01*
X102027338Y-42869104D01*
X102027340Y-42869105D01*
X102767037Y-42129408D01*
X102784075Y-42192993D01*
X102849901Y-42307007D01*
X102942993Y-42400099D01*
X103057007Y-42465925D01*
X103120590Y-42482962D01*
X102380893Y-43222658D01*
X102463828Y-43282914D01*
X102674197Y-43390102D01*
X102898752Y-43463065D01*
X102898751Y-43463065D01*
X103131948Y-43500000D01*
X103368052Y-43500000D01*
X103601247Y-43463065D01*
X103825802Y-43390102D01*
X104036163Y-43282918D01*
X104036169Y-43282914D01*
X104119104Y-43222658D01*
X104119105Y-43222658D01*
X103379408Y-42482962D01*
X103442993Y-42465925D01*
X103557007Y-42400099D01*
X103650099Y-42307007D01*
X103715925Y-42192993D01*
X103732962Y-42129409D01*
X104472658Y-42869105D01*
X104472658Y-42869104D01*
X104532914Y-42786169D01*
X104532918Y-42786163D01*
X104640102Y-42575802D01*
X104713065Y-42351247D01*
X104750000Y-42118052D01*
X104750000Y-41881947D01*
X104713065Y-41648752D01*
X104640102Y-41424197D01*
X104532914Y-41213828D01*
X104472658Y-41130894D01*
X104472658Y-41130893D01*
X103732962Y-41870590D01*
X103715925Y-41807007D01*
X103650099Y-41692993D01*
X103557007Y-41599901D01*
X103442993Y-41534075D01*
X103379409Y-41517037D01*
X104119105Y-40777340D01*
X104119104Y-40777338D01*
X104036174Y-40717087D01*
X103825802Y-40609897D01*
X103601247Y-40536934D01*
X103601248Y-40536934D01*
X103368052Y-40500000D01*
X103131948Y-40500000D01*
X102898752Y-40536934D01*
X102674197Y-40609897D01*
X102463830Y-40717084D01*
X102380894Y-40777340D01*
X103120591Y-41517037D01*
X103057007Y-41534075D01*
X102942993Y-41599901D01*
X102849901Y-41692993D01*
X102784075Y-41807007D01*
X102767037Y-41870591D01*
X102027340Y-41130894D01*
X101967084Y-41213830D01*
X101859897Y-41424197D01*
X101786934Y-41648752D01*
X101750000Y-41881947D01*
X98250000Y-41881947D01*
X98213065Y-41648752D01*
X98140102Y-41424197D01*
X98032914Y-41213828D01*
X97972658Y-41130894D01*
X97972658Y-41130893D01*
X97232962Y-41870590D01*
X97215925Y-41807007D01*
X97150099Y-41692993D01*
X97057007Y-41599901D01*
X96942993Y-41534075D01*
X96879409Y-41517037D01*
X97619105Y-40777340D01*
X97619104Y-40777339D01*
X97536174Y-40717087D01*
X97325802Y-40609897D01*
X97101247Y-40536934D01*
X97101248Y-40536934D01*
X96868052Y-40500000D01*
X96631948Y-40500000D01*
X96398752Y-40536934D01*
X96174197Y-40609897D01*
X95963830Y-40717084D01*
X95880894Y-40777340D01*
X96620591Y-41517037D01*
X96557007Y-41534075D01*
X96442993Y-41599901D01*
X96349901Y-41692993D01*
X96284075Y-41807007D01*
X96267037Y-41870591D01*
X95527340Y-41130894D01*
X95467084Y-41213830D01*
X95359897Y-41424197D01*
X95286934Y-41648752D01*
X95250000Y-41881947D01*
X88750500Y-41881947D01*
X88750500Y-41881902D01*
X88713553Y-41648631D01*
X88659200Y-41481351D01*
X88640568Y-41424008D01*
X88640566Y-41424005D01*
X88640566Y-41424003D01*
X88572523Y-41290463D01*
X88533343Y-41213567D01*
X88394517Y-41022490D01*
X88227510Y-40855483D01*
X88036433Y-40716657D01*
X87825996Y-40609433D01*
X87601368Y-40536446D01*
X87368097Y-40499500D01*
X87368092Y-40499500D01*
X87131908Y-40499500D01*
X87131903Y-40499500D01*
X86898631Y-40536446D01*
X86674003Y-40609433D01*
X86463566Y-40716657D01*
X86380044Y-40777340D01*
X86272490Y-40855483D01*
X86272488Y-40855485D01*
X86272487Y-40855485D01*
X86105485Y-41022487D01*
X86105485Y-41022488D01*
X86105483Y-41022490D01*
X86083668Y-41052516D01*
X85966657Y-41213566D01*
X85859433Y-41424003D01*
X85786446Y-41648631D01*
X85749500Y-41881902D01*
X82250500Y-41881902D01*
X82213553Y-41648631D01*
X82159200Y-41481351D01*
X82140568Y-41424008D01*
X82140566Y-41424005D01*
X82140566Y-41424003D01*
X82072523Y-41290463D01*
X82033343Y-41213567D01*
X81894517Y-41022490D01*
X81727510Y-40855483D01*
X81536433Y-40716657D01*
X81325996Y-40609433D01*
X81101368Y-40536446D01*
X80868097Y-40499500D01*
X80868092Y-40499500D01*
X80631908Y-40499500D01*
X80631903Y-40499500D01*
X80398631Y-40536446D01*
X80174003Y-40609433D01*
X79963566Y-40716657D01*
X79880044Y-40777340D01*
X79772490Y-40855483D01*
X79772488Y-40855485D01*
X79772487Y-40855485D01*
X79605485Y-41022487D01*
X79605485Y-41022488D01*
X79605483Y-41022490D01*
X79583668Y-41052516D01*
X79466657Y-41213566D01*
X79359433Y-41424003D01*
X79286446Y-41648631D01*
X79249500Y-41881902D01*
X72750500Y-41881902D01*
X72713553Y-41648631D01*
X72659200Y-41481351D01*
X72640568Y-41424008D01*
X72640566Y-41424005D01*
X72640566Y-41424003D01*
X72572523Y-41290463D01*
X72533343Y-41213567D01*
X72394517Y-41022490D01*
X72227510Y-40855483D01*
X72036433Y-40716657D01*
X71825996Y-40609433D01*
X71601368Y-40536446D01*
X71368097Y-40499500D01*
X71368092Y-40499500D01*
X71131908Y-40499500D01*
X71131903Y-40499500D01*
X70898631Y-40536446D01*
X70674003Y-40609433D01*
X70463566Y-40716657D01*
X70380044Y-40777340D01*
X70272490Y-40855483D01*
X70272488Y-40855485D01*
X70272487Y-40855485D01*
X70105485Y-41022487D01*
X70105485Y-41022488D01*
X70105483Y-41022490D01*
X70083668Y-41052516D01*
X69966657Y-41213566D01*
X69859433Y-41424003D01*
X69786446Y-41648631D01*
X69749500Y-41881902D01*
X66250500Y-41881902D01*
X66213553Y-41648631D01*
X66159200Y-41481351D01*
X66140568Y-41424008D01*
X66140566Y-41424005D01*
X66140566Y-41424003D01*
X66072523Y-41290463D01*
X66033343Y-41213567D01*
X65894517Y-41022490D01*
X65727510Y-40855483D01*
X65536433Y-40716657D01*
X65325996Y-40609433D01*
X65101368Y-40536446D01*
X64868097Y-40499500D01*
X64868092Y-40499500D01*
X64631908Y-40499500D01*
X64631903Y-40499500D01*
X64398631Y-40536446D01*
X64174003Y-40609433D01*
X63963566Y-40716657D01*
X63880044Y-40777340D01*
X63772490Y-40855483D01*
X63772488Y-40855485D01*
X63772487Y-40855485D01*
X63605485Y-41022487D01*
X63605485Y-41022488D01*
X63605483Y-41022490D01*
X63583668Y-41052516D01*
X63466657Y-41213566D01*
X63359433Y-41424003D01*
X63286446Y-41648631D01*
X63249500Y-41881902D01*
X52250500Y-41881902D01*
X52250500Y-41786365D01*
X52270185Y-41719326D01*
X52293587Y-41692402D01*
X57299277Y-37381947D01*
X63250000Y-37381947D01*
X63250000Y-37618052D01*
X63286934Y-37851247D01*
X63359897Y-38075802D01*
X63467087Y-38286174D01*
X63527338Y-38369104D01*
X63527340Y-38369105D01*
X64267037Y-37629408D01*
X64284075Y-37692993D01*
X64349901Y-37807007D01*
X64442993Y-37900099D01*
X64557007Y-37965925D01*
X64620590Y-37982962D01*
X63880893Y-38722658D01*
X63963828Y-38782914D01*
X64174197Y-38890102D01*
X64398752Y-38963065D01*
X64398751Y-38963065D01*
X64631948Y-39000000D01*
X64868052Y-39000000D01*
X65101247Y-38963065D01*
X65325802Y-38890102D01*
X65536163Y-38782918D01*
X65536169Y-38782914D01*
X65619104Y-38722658D01*
X65619105Y-38722658D01*
X64879408Y-37982962D01*
X64942993Y-37965925D01*
X65057007Y-37900099D01*
X65150099Y-37807007D01*
X65215925Y-37692993D01*
X65232962Y-37629409D01*
X65972658Y-38369105D01*
X65972658Y-38369104D01*
X66032914Y-38286169D01*
X66032918Y-38286163D01*
X66140102Y-38075802D01*
X66213065Y-37851247D01*
X66250000Y-37618052D01*
X66250000Y-37381947D01*
X69750000Y-37381947D01*
X69750000Y-37618052D01*
X69786934Y-37851247D01*
X69859897Y-38075802D01*
X69967087Y-38286174D01*
X70027338Y-38369104D01*
X70027340Y-38369105D01*
X70767037Y-37629408D01*
X70784075Y-37692993D01*
X70849901Y-37807007D01*
X70942993Y-37900099D01*
X71057007Y-37965925D01*
X71120590Y-37982962D01*
X70380893Y-38722658D01*
X70463828Y-38782914D01*
X70674197Y-38890102D01*
X70898752Y-38963065D01*
X70898751Y-38963065D01*
X71131948Y-39000000D01*
X71368052Y-39000000D01*
X71601247Y-38963065D01*
X71825802Y-38890102D01*
X72036163Y-38782918D01*
X72036169Y-38782914D01*
X72119104Y-38722658D01*
X72119105Y-38722658D01*
X71379408Y-37982962D01*
X71442993Y-37965925D01*
X71557007Y-37900099D01*
X71650099Y-37807007D01*
X71715925Y-37692993D01*
X71732962Y-37629409D01*
X72472658Y-38369105D01*
X72472658Y-38369104D01*
X72532914Y-38286169D01*
X72532918Y-38286163D01*
X72640102Y-38075802D01*
X72713065Y-37851247D01*
X72750000Y-37618052D01*
X72750000Y-37381947D01*
X79250000Y-37381947D01*
X79250000Y-37618052D01*
X79286934Y-37851247D01*
X79359897Y-38075802D01*
X79467087Y-38286174D01*
X79527338Y-38369104D01*
X79527340Y-38369105D01*
X80267037Y-37629408D01*
X80284075Y-37692993D01*
X80349901Y-37807007D01*
X80442993Y-37900099D01*
X80557007Y-37965925D01*
X80620590Y-37982962D01*
X79880893Y-38722658D01*
X79963828Y-38782914D01*
X80174197Y-38890102D01*
X80398752Y-38963065D01*
X80398751Y-38963065D01*
X80631948Y-39000000D01*
X80868052Y-39000000D01*
X81101247Y-38963065D01*
X81325802Y-38890102D01*
X81536163Y-38782918D01*
X81536169Y-38782914D01*
X81619104Y-38722658D01*
X81619105Y-38722658D01*
X80879408Y-37982962D01*
X80942993Y-37965925D01*
X81057007Y-37900099D01*
X81150099Y-37807007D01*
X81215925Y-37692993D01*
X81232962Y-37629409D01*
X81972658Y-38369105D01*
X81972658Y-38369104D01*
X82032914Y-38286169D01*
X82032918Y-38286163D01*
X82140102Y-38075802D01*
X82213065Y-37851247D01*
X82250000Y-37618052D01*
X82250000Y-37381947D01*
X85750000Y-37381947D01*
X85750000Y-37618052D01*
X85786934Y-37851247D01*
X85859897Y-38075802D01*
X85967087Y-38286174D01*
X86027338Y-38369104D01*
X86027340Y-38369105D01*
X86767037Y-37629408D01*
X86784075Y-37692993D01*
X86849901Y-37807007D01*
X86942993Y-37900099D01*
X87057007Y-37965925D01*
X87120590Y-37982962D01*
X86380893Y-38722658D01*
X86463828Y-38782914D01*
X86674197Y-38890102D01*
X86898752Y-38963065D01*
X86898751Y-38963065D01*
X87131948Y-39000000D01*
X87368052Y-39000000D01*
X87601247Y-38963065D01*
X87825802Y-38890102D01*
X88036163Y-38782918D01*
X88036169Y-38782914D01*
X88119104Y-38722658D01*
X88119105Y-38722658D01*
X87379408Y-37982962D01*
X87442993Y-37965925D01*
X87557007Y-37900099D01*
X87650099Y-37807007D01*
X87715925Y-37692993D01*
X87732962Y-37629409D01*
X88472658Y-38369105D01*
X88472658Y-38369104D01*
X88532914Y-38286169D01*
X88532918Y-38286163D01*
X88640102Y-38075802D01*
X88713065Y-37851247D01*
X88750000Y-37618052D01*
X88750000Y-37381947D01*
X88749993Y-37381902D01*
X95249500Y-37381902D01*
X95249500Y-37618097D01*
X95286446Y-37851368D01*
X95359433Y-38075996D01*
X95466519Y-38286163D01*
X95466657Y-38286433D01*
X95605483Y-38477510D01*
X95772490Y-38644517D01*
X95963567Y-38783343D01*
X96048803Y-38826773D01*
X96174003Y-38890566D01*
X96174005Y-38890566D01*
X96174008Y-38890568D01*
X96294412Y-38929689D01*
X96398631Y-38963553D01*
X96631903Y-39000500D01*
X96631908Y-39000500D01*
X96868097Y-39000500D01*
X97101368Y-38963553D01*
X97102870Y-38963065D01*
X97325992Y-38890568D01*
X97536433Y-38783343D01*
X97727510Y-38644517D01*
X97894517Y-38477510D01*
X98033343Y-38286433D01*
X98140568Y-38075992D01*
X98213553Y-37851368D01*
X98234099Y-37721645D01*
X98250500Y-37618097D01*
X98250500Y-37381902D01*
X101749500Y-37381902D01*
X101749500Y-37618097D01*
X101786446Y-37851368D01*
X101859433Y-38075996D01*
X101966519Y-38286163D01*
X101966657Y-38286433D01*
X102105483Y-38477510D01*
X102272490Y-38644517D01*
X102463567Y-38783343D01*
X102548803Y-38826773D01*
X102674003Y-38890566D01*
X102674005Y-38890566D01*
X102674008Y-38890568D01*
X102794412Y-38929689D01*
X102898631Y-38963553D01*
X103131903Y-39000500D01*
X103131908Y-39000500D01*
X103368097Y-39000500D01*
X103601368Y-38963553D01*
X103602870Y-38963065D01*
X103825992Y-38890568D01*
X104036433Y-38783343D01*
X104227510Y-38644517D01*
X104394517Y-38477510D01*
X104533343Y-38286433D01*
X104640568Y-38075992D01*
X104713553Y-37851368D01*
X104734099Y-37721645D01*
X104750500Y-37618097D01*
X104750500Y-37381902D01*
X104713553Y-37148631D01*
X104646156Y-36941206D01*
X104640568Y-36924008D01*
X104640566Y-36924005D01*
X104640566Y-36924003D01*
X104567192Y-36780000D01*
X104533343Y-36713567D01*
X104394517Y-36522490D01*
X104227510Y-36355483D01*
X104036433Y-36216657D01*
X103825996Y-36109433D01*
X103601368Y-36036446D01*
X103368097Y-35999500D01*
X103368092Y-35999500D01*
X103131908Y-35999500D01*
X103131903Y-35999500D01*
X102898631Y-36036446D01*
X102674003Y-36109433D01*
X102463566Y-36216657D01*
X102366682Y-36287048D01*
X102272490Y-36355483D01*
X102272488Y-36355485D01*
X102272487Y-36355485D01*
X102105485Y-36522487D01*
X102105485Y-36522488D01*
X102105483Y-36522490D01*
X102045862Y-36604550D01*
X101966657Y-36713566D01*
X101859433Y-36924003D01*
X101786446Y-37148631D01*
X101749500Y-37381902D01*
X98250500Y-37381902D01*
X98213553Y-37148631D01*
X98146156Y-36941206D01*
X98140568Y-36924008D01*
X98140566Y-36924005D01*
X98140566Y-36924003D01*
X98067192Y-36780000D01*
X98033343Y-36713567D01*
X97894517Y-36522490D01*
X97727510Y-36355483D01*
X97536433Y-36216657D01*
X97325996Y-36109433D01*
X97101368Y-36036446D01*
X96868097Y-35999500D01*
X96868092Y-35999500D01*
X96631908Y-35999500D01*
X96631903Y-35999500D01*
X96398631Y-36036446D01*
X96174003Y-36109433D01*
X95963566Y-36216657D01*
X95866682Y-36287048D01*
X95772490Y-36355483D01*
X95772488Y-36355485D01*
X95772487Y-36355485D01*
X95605485Y-36522487D01*
X95605485Y-36522488D01*
X95605483Y-36522490D01*
X95545862Y-36604550D01*
X95466657Y-36713566D01*
X95359433Y-36924003D01*
X95286446Y-37148631D01*
X95249500Y-37381902D01*
X88749993Y-37381902D01*
X88713065Y-37148752D01*
X88640102Y-36924197D01*
X88532914Y-36713828D01*
X88472658Y-36630894D01*
X88472658Y-36630893D01*
X87732962Y-37370590D01*
X87715925Y-37307007D01*
X87650099Y-37192993D01*
X87557007Y-37099901D01*
X87442993Y-37034075D01*
X87379409Y-37017037D01*
X88119105Y-36277340D01*
X88119104Y-36277338D01*
X88036174Y-36217087D01*
X87825802Y-36109897D01*
X87601247Y-36036934D01*
X87601248Y-36036934D01*
X87368052Y-36000000D01*
X87131948Y-36000000D01*
X86898752Y-36036934D01*
X86674197Y-36109897D01*
X86463830Y-36217084D01*
X86380894Y-36277340D01*
X87120591Y-37017037D01*
X87057007Y-37034075D01*
X86942993Y-37099901D01*
X86849901Y-37192993D01*
X86784075Y-37307007D01*
X86767037Y-37370591D01*
X86027340Y-36630894D01*
X85967084Y-36713830D01*
X85859897Y-36924197D01*
X85786934Y-37148752D01*
X85750000Y-37381947D01*
X82250000Y-37381947D01*
X82213065Y-37148752D01*
X82140102Y-36924197D01*
X82032914Y-36713828D01*
X81972658Y-36630894D01*
X81972658Y-36630893D01*
X81232962Y-37370590D01*
X81215925Y-37307007D01*
X81150099Y-37192993D01*
X81057007Y-37099901D01*
X80942993Y-37034075D01*
X80879409Y-37017037D01*
X81619105Y-36277340D01*
X81619104Y-36277339D01*
X81536174Y-36217087D01*
X81325802Y-36109897D01*
X81101247Y-36036934D01*
X81101248Y-36036934D01*
X80868052Y-36000000D01*
X80631948Y-36000000D01*
X80398752Y-36036934D01*
X80174197Y-36109897D01*
X79963830Y-36217084D01*
X79880894Y-36277340D01*
X80620591Y-37017037D01*
X80557007Y-37034075D01*
X80442993Y-37099901D01*
X80349901Y-37192993D01*
X80284075Y-37307007D01*
X80267037Y-37370591D01*
X79527340Y-36630894D01*
X79467084Y-36713830D01*
X79359897Y-36924197D01*
X79286934Y-37148752D01*
X79250000Y-37381947D01*
X72750000Y-37381947D01*
X72713065Y-37148752D01*
X72640102Y-36924197D01*
X72532914Y-36713828D01*
X72472658Y-36630894D01*
X72472658Y-36630893D01*
X71732962Y-37370590D01*
X71715925Y-37307007D01*
X71650099Y-37192993D01*
X71557007Y-37099901D01*
X71442993Y-37034075D01*
X71379409Y-37017037D01*
X72119105Y-36277340D01*
X72119104Y-36277339D01*
X72036174Y-36217087D01*
X71825802Y-36109897D01*
X71601247Y-36036934D01*
X71601248Y-36036934D01*
X71368052Y-36000000D01*
X71131948Y-36000000D01*
X70898752Y-36036934D01*
X70674197Y-36109897D01*
X70463830Y-36217084D01*
X70380894Y-36277340D01*
X71120591Y-37017037D01*
X71057007Y-37034075D01*
X70942993Y-37099901D01*
X70849901Y-37192993D01*
X70784075Y-37307007D01*
X70767037Y-37370591D01*
X70027340Y-36630894D01*
X69967084Y-36713830D01*
X69859897Y-36924197D01*
X69786934Y-37148752D01*
X69750000Y-37381947D01*
X66250000Y-37381947D01*
X66213065Y-37148752D01*
X66140102Y-36924197D01*
X66032914Y-36713828D01*
X65972658Y-36630894D01*
X65972658Y-36630893D01*
X65232962Y-37370590D01*
X65215925Y-37307007D01*
X65150099Y-37192993D01*
X65057007Y-37099901D01*
X64942993Y-37034075D01*
X64879409Y-37017037D01*
X65619105Y-36277340D01*
X65619104Y-36277339D01*
X65536174Y-36217087D01*
X65325802Y-36109897D01*
X65101247Y-36036934D01*
X65101248Y-36036934D01*
X64868052Y-36000000D01*
X64631948Y-36000000D01*
X64398752Y-36036934D01*
X64174197Y-36109897D01*
X63963830Y-36217084D01*
X63880894Y-36277340D01*
X64620591Y-37017037D01*
X64557007Y-37034075D01*
X64442993Y-37099901D01*
X64349901Y-37192993D01*
X64284075Y-37307007D01*
X64267037Y-37370591D01*
X63527340Y-36630894D01*
X63467084Y-36713830D01*
X63359897Y-36924197D01*
X63286934Y-37148752D01*
X63250000Y-37381947D01*
X57299277Y-37381947D01*
X60900915Y-34280536D01*
X60964560Y-34251708D01*
X60981828Y-34250500D01*
X144101602Y-34250500D01*
X144168641Y-34270185D01*
G37*
%TD.AperFunction*%
%TD*%
M02*
