M48
; DRILL file {KiCad 9.0.2} date 2025-06-17T17:20:11-0700
; FORMAT={-:-/ absolute / inch / decimal}
; #@! TF.CreationDate,2025-06-17T17:20:11-07:00
; #@! TF.GenerationSoftware,Kicad,Pcbnew,9.0.2
; #@! TF.FileFunction,NonPlated,1,2,NPTH
FMAT,2
INCH
; #@! TA.AperFunction,NonPlated,NPTH,ComponentDrill
T1C0.0394
; #@! TA.AperFunction,NonPlated,NPTH,ComponentDrill
T2C0.0669
; #@! TA.AperFunction,NonPlated,NPTH,ComponentDrill
T3C0.1260
; #@! TA.AperFunction,NonPlated,NPTH,ComponentDrill
T4C0.1575
%
G90
G05
T1
X9.4882Y-1.6929
X9.6654Y-1.6929
T2
X2.3755Y-2.8172
X2.7755Y-2.8172
X3.5313Y-2.4542
X3.9008Y-2.6073
X4.2242Y-2.7412
X4.5112Y-2.0483
X4.5937Y-2.8943
X4.8568Y-3.1737
X4.8807Y-2.2014
X5.2264Y-3.3268
X5.4727Y-5.3372
X5.8727Y-5.3372
X6.142Y-2.8175
X6.142Y-3.9592
X6.542Y-2.8175
X6.542Y-3.9592
X6.7719Y-4.9115
X7.1263Y-2.2663
X7.1263Y-3.4081
X7.1719Y-4.9115
X7.5263Y-2.2663
X7.5263Y-3.4081
X8.268Y-2.2663
X8.268Y-3.4081
X8.668Y-2.2663
X8.668Y-3.4081
X9.3704Y-2.7388
X9.3704Y-3.8805
X9.7704Y-2.7388
X9.7704Y-3.8805
T3
X4.0419Y-3.7072
X5.457Y-4.2947
X7.8971Y-4.1085
T4
X2.5755Y-2.8172
X3.716Y-2.5307
X4.409Y-2.8177
X4.696Y-2.1248
X5.0416Y-3.2502
X5.6727Y-5.3372
X6.342Y-2.8175
X6.342Y-3.9592
X6.9719Y-4.9115
X7.3263Y-2.2663
X7.3263Y-3.4081
X8.468Y-2.2663
X8.468Y-3.4081
X9.5704Y-2.7388
X9.5704Y-3.8805
M30
