%TF.GenerationSoftware,KiCad,Pcbnew,8.0.4*%
%TF.CreationDate,2024-07-29T00:22:05-07:00*%
%TF.ProjectId,panel_1,70616e65-6c5f-4312-9e6b-696361645f70,rev?*%
%TF.SameCoordinates,Original*%
%TF.FileFunction,Drillmap*%
%TF.FilePolarity,Positive*%
%FSLAX45Y45*%
G04 Gerber Fmt 4.5, Leading zero omitted, Abs format (unit mm)*
G04 Created by KiCad (PCBNEW 8.0.4) date 2024-07-29 00:22:05*
%MOMM*%
%LPD*%
G01*
G04 APERTURE LIST*
%ADD10C,0.050000*%
%ADD11C,0.200000*%
%ADD12C,0.100000*%
G04 APERTURE END LIST*
D10*
X13900000Y-11950000D02*
X13900000Y-2500000D01*
X13900000Y-11950000D02*
X9825000Y-11950000D01*
X4400000Y-11950000D02*
X4400000Y-2500000D01*
X4905000Y-10110000D02*
G75*
G02*
X5055000Y-10110000I75000J0D01*
G01*
X9520000Y-7850000D02*
G75*
G02*
X9520000Y-7670000I0J90000D01*
G01*
X7410000Y-8545000D02*
X7410000Y-8805000D01*
X9655000Y-9600000D02*
X9655000Y-10185000D01*
X7580000Y-11950000D02*
X9655000Y-11950000D01*
X4905000Y-10410000D02*
X4905000Y-10110000D01*
X7050000Y-2500000D02*
X4400000Y-2500000D01*
X7580000Y-11770000D02*
X7580000Y-11950000D01*
X7420000Y-11770000D02*
X7420000Y-11950000D01*
X5055000Y-10110000D02*
X5055000Y-10410000D01*
X9825000Y-9200000D02*
G75*
G02*
X9655000Y-9200000I-85000J0D01*
G01*
X7420000Y-11950000D02*
X4400000Y-11950000D01*
X5055000Y-9060000D02*
X5055000Y-8965000D01*
X9825000Y-11395000D02*
X9825000Y-10585000D01*
X9120000Y-7670000D02*
G75*
G02*
X9120000Y-7850000I0J-90000D01*
G01*
X6725000Y-8965000D02*
G75*
G02*
X6725000Y-8805000I0J80000D01*
G01*
X9655000Y-10585000D02*
G75*
G02*
X9825000Y-10585000I85000J0D01*
G01*
X5055000Y-11035000D02*
X7000000Y-11035000D01*
X7560000Y-7670000D02*
X7410000Y-7820000D01*
X4905000Y-9060000D02*
X4905000Y-8890000D01*
X9825000Y-7870000D02*
X9625000Y-7670000D01*
X9825000Y-11795000D02*
X9825000Y-11950000D01*
X7580000Y-11370000D02*
G75*
G02*
X7420000Y-11370000I-80000J0D01*
G01*
X8140000Y-7850000D02*
G75*
G02*
X8140000Y-7670000I0J90000D01*
G01*
X7580000Y-11035000D02*
X7580000Y-11370000D01*
X9825000Y-9200000D02*
X9825000Y-8885000D01*
X7740000Y-7670000D02*
G75*
G02*
X7740000Y-7850000I0J-90000D01*
G01*
X9655000Y-7850000D02*
X9655000Y-8485000D01*
X9120000Y-7670000D02*
X8140000Y-7670000D01*
X7000000Y-11185000D02*
X4905000Y-11185000D01*
X9655000Y-11950000D02*
X9655000Y-11795000D01*
X5055000Y-9060000D02*
G75*
G02*
X4905000Y-9060000I-75000J0D01*
G01*
X7000000Y-11035000D02*
G75*
G02*
X7000000Y-11185000I0J-75000D01*
G01*
X9655000Y-7850000D02*
X9520000Y-7850000D01*
X7580000Y-8965000D02*
X7410000Y-8965000D01*
X4905000Y-9460000D02*
G75*
G02*
X5055000Y-9460000I75000J0D01*
G01*
X9655000Y-9200000D02*
X9655000Y-8885000D01*
X7010000Y-8805000D02*
G75*
G02*
X7010000Y-8965000I0J-80000D01*
G01*
X7740000Y-7670000D02*
X7560000Y-7670000D01*
X5055000Y-10810000D02*
X5055000Y-11035000D01*
X9825000Y-10185000D02*
G75*
G02*
X9655000Y-10185000I-85000J0D01*
G01*
X7420000Y-11185000D02*
X7400000Y-11185000D01*
X7580000Y-8145000D02*
X7580000Y-7850000D01*
X5055000Y-9460000D02*
X5055000Y-9710000D01*
X7410000Y-8145000D02*
X7410000Y-7820000D01*
X4905000Y-10810000D02*
G75*
G02*
X5055000Y-10810000I75000J0D01*
G01*
X7580000Y-7850000D02*
X7740000Y-7850000D01*
X7420000Y-11770000D02*
G75*
G02*
X7580000Y-11770000I80000J0D01*
G01*
X5055000Y-9710000D02*
G75*
G02*
X4905000Y-9710000I-75000J0D01*
G01*
X8200000Y-2500000D02*
X8200000Y-2000000D01*
X9625000Y-7670000D02*
X9520000Y-7670000D01*
X9120000Y-7850000D02*
X8140000Y-7850000D01*
X7400000Y-11035000D02*
X7580000Y-11035000D01*
X9825000Y-8485000D02*
G75*
G02*
X9655000Y-8485000I-85000J0D01*
G01*
X4905000Y-8890000D02*
X4990000Y-8805000D01*
X9655000Y-9600000D02*
G75*
G02*
X9825000Y-9600000I85000J0D01*
G01*
X9825000Y-8485000D02*
X9825000Y-7870000D01*
X7050000Y-2000000D02*
X7050000Y-2500000D01*
X4905000Y-10810000D02*
X4905000Y-11185000D01*
X7410000Y-8545000D02*
G75*
G02*
X7580000Y-8545000I85000J0D01*
G01*
X5055000Y-10410000D02*
G75*
G02*
X4905000Y-10410000I-75000J0D01*
G01*
X13900000Y-2500000D02*
X8200000Y-2500000D01*
X9825000Y-11395000D02*
G75*
G02*
X9655000Y-11395000I-85000J0D01*
G01*
X7010000Y-8965000D02*
X6725000Y-8965000D01*
X4905000Y-9710000D02*
X4905000Y-9460000D01*
X9825000Y-10185000D02*
X9825000Y-9600000D01*
X7410000Y-8965000D02*
G75*
G02*
X7410000Y-8805000I0J80000D01*
G01*
X6325000Y-8805000D02*
G75*
G02*
X6325000Y-8965000I0J-80000D01*
G01*
X7580000Y-8145000D02*
G75*
G02*
X7410000Y-8145000I-85000J0D01*
G01*
X9655000Y-11395000D02*
X9655000Y-10585000D01*
X9655000Y-8885000D02*
G75*
G02*
X9825000Y-8885000I85000J0D01*
G01*
X6725000Y-8805000D02*
X7010000Y-8805000D01*
X6325000Y-8805000D02*
X4990000Y-8805000D01*
X8200000Y-2000000D02*
X7050000Y-2000000D01*
X7400000Y-11185000D02*
G75*
G02*
X7400000Y-11035000I0J75000D01*
G01*
X9655000Y-11795000D02*
G75*
G02*
X9825000Y-11795000I85000J0D01*
G01*
X6325000Y-8965000D02*
X5055000Y-8965000D01*
X7420000Y-11370000D02*
X7420000Y-11185000D01*
X7580000Y-8545000D02*
X7580000Y-8965000D01*
D11*
D12*
X8352500Y-3564900D02*
X8387500Y-3599900D01*
X8387500Y-3564900D02*
X8352500Y-3599900D01*
X8352500Y-3666500D02*
X8387500Y-3701500D01*
X8387500Y-3666500D02*
X8352500Y-3701500D01*
X8352500Y-3768100D02*
X8387500Y-3803100D01*
X8387500Y-3768100D02*
X8352500Y-3803100D01*
X8454100Y-3564900D02*
X8489100Y-3599900D01*
X8489100Y-3564900D02*
X8454100Y-3599900D01*
X8454100Y-3666500D02*
X8489100Y-3701500D01*
X8489100Y-3666500D02*
X8454100Y-3701500D01*
X8454100Y-3768100D02*
X8489100Y-3803100D01*
X8489100Y-3768100D02*
X8454100Y-3803100D01*
X8555700Y-3564900D02*
X8590700Y-3599900D01*
X8590700Y-3564900D02*
X8555700Y-3599900D01*
X8555700Y-3666500D02*
X8590700Y-3701500D01*
X8590700Y-3666500D02*
X8555700Y-3701500D01*
X8555700Y-3768100D02*
X8590700Y-3803100D01*
X8590700Y-3768100D02*
X8555700Y-3803100D01*
X5508000Y-3993000D02*
G75*
G02*
X5468000Y-3993000I-20000J0D01*
G01*
X5468000Y-3993000D02*
G75*
G02*
X5508000Y-3993000I20000J0D01*
G01*
X5520000Y-6400000D02*
G75*
G02*
X5480000Y-6400000I-20000J0D01*
G01*
X5480000Y-6400000D02*
G75*
G02*
X5520000Y-6400000I20000J0D01*
G01*
X6670000Y-3750000D02*
G75*
G02*
X6630000Y-3750000I-20000J0D01*
G01*
X6630000Y-3750000D02*
G75*
G02*
X6670000Y-3750000I20000J0D01*
G01*
X6916800Y-3976100D02*
G75*
G02*
X6876800Y-3976100I-20000J0D01*
G01*
X6876800Y-3976100D02*
G75*
G02*
X6916800Y-3976100I20000J0D01*
G01*
X7107300Y-3125200D02*
G75*
G02*
X7067300Y-3125200I-20000J0D01*
G01*
X7067300Y-3125200D02*
G75*
G02*
X7107300Y-3125200I20000J0D01*
G01*
X7208000Y-3393000D02*
G75*
G02*
X7168000Y-3393000I-20000J0D01*
G01*
X7168000Y-3393000D02*
G75*
G02*
X7208000Y-3393000I20000J0D01*
G01*
X7596500Y-9603500D02*
G75*
G02*
X7556500Y-9603500I-20000J0D01*
G01*
X7556500Y-9603500D02*
G75*
G02*
X7596500Y-9603500I20000J0D01*
G01*
X7697850Y-4160250D02*
G75*
G02*
X7657850Y-4160250I-20000J0D01*
G01*
X7657850Y-4160250D02*
G75*
G02*
X7697850Y-4160250I20000J0D01*
G01*
X7700000Y-10650000D02*
G75*
G02*
X7660000Y-10650000I-20000J0D01*
G01*
X7660000Y-10650000D02*
G75*
G02*
X7700000Y-10650000I20000J0D01*
G01*
X7908000Y-3093000D02*
G75*
G02*
X7868000Y-3093000I-20000J0D01*
G01*
X7868000Y-3093000D02*
G75*
G02*
X7908000Y-3093000I20000J0D01*
G01*
X8083000Y-3143000D02*
G75*
G02*
X8043000Y-3143000I-20000J0D01*
G01*
X8043000Y-3143000D02*
G75*
G02*
X8083000Y-3143000I20000J0D01*
G01*
X8183000Y-4193000D02*
G75*
G02*
X8143000Y-4193000I-20000J0D01*
G01*
X8143000Y-4193000D02*
G75*
G02*
X8183000Y-4193000I20000J0D01*
G01*
X8186800Y-4522200D02*
G75*
G02*
X8146800Y-4522200I-20000J0D01*
G01*
X8146800Y-4522200D02*
G75*
G02*
X8186800Y-4522200I20000J0D01*
G01*
X8520000Y-5800000D02*
G75*
G02*
X8480000Y-5800000I-20000J0D01*
G01*
X8480000Y-5800000D02*
G75*
G02*
X8520000Y-5800000I20000J0D01*
G01*
X8620000Y-3143000D02*
G75*
G02*
X8580000Y-3143000I-20000J0D01*
G01*
X8580000Y-3143000D02*
G75*
G02*
X8620000Y-3143000I20000J0D01*
G01*
X8708000Y-4393000D02*
G75*
G02*
X8668000Y-4393000I-20000J0D01*
G01*
X8668000Y-4393000D02*
G75*
G02*
X8708000Y-4393000I20000J0D01*
G01*
X8870000Y-2900000D02*
G75*
G02*
X8830000Y-2900000I-20000J0D01*
G01*
X8830000Y-2900000D02*
G75*
G02*
X8870000Y-2900000I20000J0D01*
G01*
X8958000Y-4343000D02*
G75*
G02*
X8918000Y-4343000I-20000J0D01*
G01*
X8918000Y-4343000D02*
G75*
G02*
X8958000Y-4343000I20000J0D01*
G01*
X8986900Y-3836400D02*
G75*
G02*
X8946900Y-3836400I-20000J0D01*
G01*
X8946900Y-3836400D02*
G75*
G02*
X8986900Y-3836400I20000J0D01*
G01*
X9208000Y-3443000D02*
G75*
G02*
X9168000Y-3443000I-20000J0D01*
G01*
X9168000Y-3443000D02*
G75*
G02*
X9208000Y-3443000I20000J0D01*
G01*
X9358000Y-3418000D02*
G75*
G02*
X9318000Y-3418000I-20000J0D01*
G01*
X9318000Y-3418000D02*
G75*
G02*
X9358000Y-3418000I20000J0D01*
G01*
X9901300Y-3518900D02*
G75*
G02*
X9861300Y-3518900I-20000J0D01*
G01*
X9861300Y-3518900D02*
G75*
G02*
X9901300Y-3518900I20000J0D01*
G01*
X10420000Y-6450000D02*
G75*
G02*
X10380000Y-6450000I-20000J0D01*
G01*
X10380000Y-6450000D02*
G75*
G02*
X10420000Y-6450000I20000J0D01*
G01*
X10920000Y-4850000D02*
G75*
G02*
X10880000Y-4850000I-20000J0D01*
G01*
X10880000Y-4850000D02*
G75*
G02*
X10920000Y-4850000I20000J0D01*
G01*
X11970000Y-7550000D02*
G75*
G02*
X11930000Y-7550000I-20000J0D01*
G01*
X11930000Y-7550000D02*
G75*
G02*
X11970000Y-7550000I20000J0D01*
G01*
X13250000Y-4725000D02*
G75*
G02*
X13210000Y-4725000I-20000J0D01*
G01*
X13210000Y-4725000D02*
G75*
G02*
X13250000Y-4725000I20000J0D01*
G01*
X13620000Y-11350000D02*
G75*
G02*
X13580000Y-11350000I-20000J0D01*
G01*
X13580000Y-11350000D02*
G75*
G02*
X13620000Y-11350000I20000J0D01*
G01*
X6600000Y-3050000D02*
X6600000Y-3100000D01*
X6575000Y-3075000D02*
X6625000Y-3075000D01*
X7390000Y-3825000D02*
X7390000Y-3875000D01*
X7365000Y-3850000D02*
X7415000Y-3850000D01*
X7227213Y-2231213D02*
X7227213Y-2188787D01*
X7184787Y-2188787D01*
X7184787Y-2231213D01*
X7227213Y-2231213D01*
X7236000Y-2250000D02*
X7236000Y-2170000D01*
X7176000Y-2170000D02*
G75*
G02*
X7236000Y-2170000I30000J0D01*
G01*
X7176000Y-2170000D02*
X7176000Y-2250000D01*
X7176000Y-2250000D02*
G75*
G03*
X7236000Y-2250000I30000J0D01*
G01*
X7227213Y-2650713D02*
X7227213Y-2608287D01*
X7184787Y-2608287D01*
X7184787Y-2650713D01*
X7227213Y-2650713D01*
X7236000Y-2684500D02*
X7236000Y-2574500D01*
X7176000Y-2574500D02*
G75*
G02*
X7236000Y-2574500I30000J0D01*
G01*
X7176000Y-2574500D02*
X7176000Y-2684500D01*
X7176000Y-2684500D02*
G75*
G03*
X7236000Y-2684500I30000J0D01*
G01*
X8091213Y-2231213D02*
X8091213Y-2188787D01*
X8048787Y-2188787D01*
X8048787Y-2231213D01*
X8091213Y-2231213D01*
X8100000Y-2250000D02*
X8100000Y-2170000D01*
X8040000Y-2170000D02*
G75*
G02*
X8100000Y-2170000I30000J0D01*
G01*
X8040000Y-2170000D02*
X8040000Y-2250000D01*
X8040000Y-2250000D02*
G75*
G03*
X8100000Y-2250000I30000J0D01*
G01*
X8091213Y-2650713D02*
X8091213Y-2608287D01*
X8048787Y-2608287D01*
X8048787Y-2650713D01*
X8091213Y-2650713D01*
X8100000Y-2684500D02*
X8100000Y-2574500D01*
X8040000Y-2574500D02*
G75*
G02*
X8100000Y-2574500I30000J0D01*
G01*
X8040000Y-2574500D02*
X8040000Y-2684500D01*
X8040000Y-2684500D02*
G75*
G03*
X8100000Y-2684500I30000J0D01*
G01*
X9438000Y-3178000D02*
X9473000Y-3143000D01*
X9438000Y-3108000D01*
X9403000Y-3143000D01*
X9438000Y-3178000D01*
X9638000Y-3178000D02*
X9673000Y-3143000D01*
X9638000Y-3108000D01*
X9603000Y-3143000D01*
X9638000Y-3178000D01*
X9838000Y-3178000D02*
X9873000Y-3143000D01*
X9838000Y-3108000D01*
X9803000Y-3143000D01*
X9838000Y-3178000D01*
D11*
X4658277Y-12263984D02*
X4658277Y-12063984D01*
X4658277Y-12063984D02*
X4705896Y-12063984D01*
X4705896Y-12063984D02*
X4734467Y-12073508D01*
X4734467Y-12073508D02*
X4753515Y-12092555D01*
X4753515Y-12092555D02*
X4763039Y-12111603D01*
X4763039Y-12111603D02*
X4772563Y-12149698D01*
X4772563Y-12149698D02*
X4772563Y-12178269D01*
X4772563Y-12178269D02*
X4763039Y-12216365D01*
X4763039Y-12216365D02*
X4753515Y-12235412D01*
X4753515Y-12235412D02*
X4734467Y-12254460D01*
X4734467Y-12254460D02*
X4705896Y-12263984D01*
X4705896Y-12263984D02*
X4658277Y-12263984D01*
X4858277Y-12263984D02*
X4858277Y-12130650D01*
X4858277Y-12168746D02*
X4867801Y-12149698D01*
X4867801Y-12149698D02*
X4877324Y-12140174D01*
X4877324Y-12140174D02*
X4896372Y-12130650D01*
X4896372Y-12130650D02*
X4915420Y-12130650D01*
X4982086Y-12263984D02*
X4982086Y-12130650D01*
X4982086Y-12063984D02*
X4972563Y-12073508D01*
X4972563Y-12073508D02*
X4982086Y-12083031D01*
X4982086Y-12083031D02*
X4991610Y-12073508D01*
X4991610Y-12073508D02*
X4982086Y-12063984D01*
X4982086Y-12063984D02*
X4982086Y-12083031D01*
X5105896Y-12263984D02*
X5086848Y-12254460D01*
X5086848Y-12254460D02*
X5077324Y-12235412D01*
X5077324Y-12235412D02*
X5077324Y-12063984D01*
X5210658Y-12263984D02*
X5191610Y-12254460D01*
X5191610Y-12254460D02*
X5182086Y-12235412D01*
X5182086Y-12235412D02*
X5182086Y-12063984D01*
X5439229Y-12263984D02*
X5439229Y-12063984D01*
X5439229Y-12063984D02*
X5505896Y-12206841D01*
X5505896Y-12206841D02*
X5572563Y-12063984D01*
X5572563Y-12063984D02*
X5572563Y-12263984D01*
X5753515Y-12263984D02*
X5753515Y-12159222D01*
X5753515Y-12159222D02*
X5743991Y-12140174D01*
X5743991Y-12140174D02*
X5724943Y-12130650D01*
X5724943Y-12130650D02*
X5686848Y-12130650D01*
X5686848Y-12130650D02*
X5667801Y-12140174D01*
X5753515Y-12254460D02*
X5734467Y-12263984D01*
X5734467Y-12263984D02*
X5686848Y-12263984D01*
X5686848Y-12263984D02*
X5667801Y-12254460D01*
X5667801Y-12254460D02*
X5658277Y-12235412D01*
X5658277Y-12235412D02*
X5658277Y-12216365D01*
X5658277Y-12216365D02*
X5667801Y-12197317D01*
X5667801Y-12197317D02*
X5686848Y-12187793D01*
X5686848Y-12187793D02*
X5734467Y-12187793D01*
X5734467Y-12187793D02*
X5753515Y-12178269D01*
X5848753Y-12130650D02*
X5848753Y-12330650D01*
X5848753Y-12140174D02*
X5867801Y-12130650D01*
X5867801Y-12130650D02*
X5905896Y-12130650D01*
X5905896Y-12130650D02*
X5924943Y-12140174D01*
X5924943Y-12140174D02*
X5934467Y-12149698D01*
X5934467Y-12149698D02*
X5943991Y-12168746D01*
X5943991Y-12168746D02*
X5943991Y-12225888D01*
X5943991Y-12225888D02*
X5934467Y-12244936D01*
X5934467Y-12244936D02*
X5924943Y-12254460D01*
X5924943Y-12254460D02*
X5905896Y-12263984D01*
X5905896Y-12263984D02*
X5867801Y-12263984D01*
X5867801Y-12263984D02*
X5848753Y-12254460D01*
X6029705Y-12244936D02*
X6039229Y-12254460D01*
X6039229Y-12254460D02*
X6029705Y-12263984D01*
X6029705Y-12263984D02*
X6020182Y-12254460D01*
X6020182Y-12254460D02*
X6029705Y-12244936D01*
X6029705Y-12244936D02*
X6029705Y-12263984D01*
X6029705Y-12140174D02*
X6039229Y-12149698D01*
X6039229Y-12149698D02*
X6029705Y-12159222D01*
X6029705Y-12159222D02*
X6020182Y-12149698D01*
X6020182Y-12149698D02*
X6029705Y-12140174D01*
X6029705Y-12140174D02*
X6029705Y-12159222D01*
D12*
X4362500Y-12575000D02*
X4397500Y-12610000D01*
X4397500Y-12575000D02*
X4362500Y-12610000D01*
D11*
X4696372Y-12483984D02*
X4715420Y-12483984D01*
X4715420Y-12483984D02*
X4734467Y-12493508D01*
X4734467Y-12493508D02*
X4743991Y-12503031D01*
X4743991Y-12503031D02*
X4753515Y-12522079D01*
X4753515Y-12522079D02*
X4763039Y-12560174D01*
X4763039Y-12560174D02*
X4763039Y-12607793D01*
X4763039Y-12607793D02*
X4753515Y-12645888D01*
X4753515Y-12645888D02*
X4743991Y-12664936D01*
X4743991Y-12664936D02*
X4734467Y-12674460D01*
X4734467Y-12674460D02*
X4715420Y-12683984D01*
X4715420Y-12683984D02*
X4696372Y-12683984D01*
X4696372Y-12683984D02*
X4677324Y-12674460D01*
X4677324Y-12674460D02*
X4667801Y-12664936D01*
X4667801Y-12664936D02*
X4658277Y-12645888D01*
X4658277Y-12645888D02*
X4648753Y-12607793D01*
X4648753Y-12607793D02*
X4648753Y-12560174D01*
X4648753Y-12560174D02*
X4658277Y-12522079D01*
X4658277Y-12522079D02*
X4667801Y-12503031D01*
X4667801Y-12503031D02*
X4677324Y-12493508D01*
X4677324Y-12493508D02*
X4696372Y-12483984D01*
X4848753Y-12664936D02*
X4858277Y-12674460D01*
X4858277Y-12674460D02*
X4848753Y-12683984D01*
X4848753Y-12683984D02*
X4839229Y-12674460D01*
X4839229Y-12674460D02*
X4848753Y-12664936D01*
X4848753Y-12664936D02*
X4848753Y-12683984D01*
X4924944Y-12483984D02*
X5048753Y-12483984D01*
X5048753Y-12483984D02*
X4982086Y-12560174D01*
X4982086Y-12560174D02*
X5010658Y-12560174D01*
X5010658Y-12560174D02*
X5029705Y-12569698D01*
X5029705Y-12569698D02*
X5039229Y-12579222D01*
X5039229Y-12579222D02*
X5048753Y-12598269D01*
X5048753Y-12598269D02*
X5048753Y-12645888D01*
X5048753Y-12645888D02*
X5039229Y-12664936D01*
X5039229Y-12664936D02*
X5029705Y-12674460D01*
X5029705Y-12674460D02*
X5010658Y-12683984D01*
X5010658Y-12683984D02*
X4953515Y-12683984D01*
X4953515Y-12683984D02*
X4934467Y-12674460D01*
X4934467Y-12674460D02*
X4924944Y-12664936D01*
X5229705Y-12483984D02*
X5134467Y-12483984D01*
X5134467Y-12483984D02*
X5124944Y-12579222D01*
X5124944Y-12579222D02*
X5134467Y-12569698D01*
X5134467Y-12569698D02*
X5153515Y-12560174D01*
X5153515Y-12560174D02*
X5201134Y-12560174D01*
X5201134Y-12560174D02*
X5220182Y-12569698D01*
X5220182Y-12569698D02*
X5229705Y-12579222D01*
X5229705Y-12579222D02*
X5239229Y-12598269D01*
X5239229Y-12598269D02*
X5239229Y-12645888D01*
X5239229Y-12645888D02*
X5229705Y-12664936D01*
X5229705Y-12664936D02*
X5220182Y-12674460D01*
X5220182Y-12674460D02*
X5201134Y-12683984D01*
X5201134Y-12683984D02*
X5153515Y-12683984D01*
X5153515Y-12683984D02*
X5134467Y-12674460D01*
X5134467Y-12674460D02*
X5124944Y-12664936D01*
X5363039Y-12483984D02*
X5382086Y-12483984D01*
X5382086Y-12483984D02*
X5401134Y-12493508D01*
X5401134Y-12493508D02*
X5410658Y-12503031D01*
X5410658Y-12503031D02*
X5420182Y-12522079D01*
X5420182Y-12522079D02*
X5429705Y-12560174D01*
X5429705Y-12560174D02*
X5429705Y-12607793D01*
X5429705Y-12607793D02*
X5420182Y-12645888D01*
X5420182Y-12645888D02*
X5410658Y-12664936D01*
X5410658Y-12664936D02*
X5401134Y-12674460D01*
X5401134Y-12674460D02*
X5382086Y-12683984D01*
X5382086Y-12683984D02*
X5363039Y-12683984D01*
X5363039Y-12683984D02*
X5343991Y-12674460D01*
X5343991Y-12674460D02*
X5334467Y-12664936D01*
X5334467Y-12664936D02*
X5324944Y-12645888D01*
X5324944Y-12645888D02*
X5315420Y-12607793D01*
X5315420Y-12607793D02*
X5315420Y-12560174D01*
X5315420Y-12560174D02*
X5324944Y-12522079D01*
X5324944Y-12522079D02*
X5334467Y-12503031D01*
X5334467Y-12503031D02*
X5343991Y-12493508D01*
X5343991Y-12493508D02*
X5363039Y-12483984D01*
X5515420Y-12683984D02*
X5515420Y-12550650D01*
X5515420Y-12569698D02*
X5524944Y-12560174D01*
X5524944Y-12560174D02*
X5543991Y-12550650D01*
X5543991Y-12550650D02*
X5572563Y-12550650D01*
X5572563Y-12550650D02*
X5591610Y-12560174D01*
X5591610Y-12560174D02*
X5601134Y-12579222D01*
X5601134Y-12579222D02*
X5601134Y-12683984D01*
X5601134Y-12579222D02*
X5610658Y-12560174D01*
X5610658Y-12560174D02*
X5629705Y-12550650D01*
X5629705Y-12550650D02*
X5658277Y-12550650D01*
X5658277Y-12550650D02*
X5677324Y-12560174D01*
X5677324Y-12560174D02*
X5686848Y-12579222D01*
X5686848Y-12579222D02*
X5686848Y-12683984D01*
X5782086Y-12683984D02*
X5782086Y-12550650D01*
X5782086Y-12569698D02*
X5791610Y-12560174D01*
X5791610Y-12560174D02*
X5810658Y-12550650D01*
X5810658Y-12550650D02*
X5839229Y-12550650D01*
X5839229Y-12550650D02*
X5858277Y-12560174D01*
X5858277Y-12560174D02*
X5867801Y-12579222D01*
X5867801Y-12579222D02*
X5867801Y-12683984D01*
X5867801Y-12579222D02*
X5877324Y-12560174D01*
X5877324Y-12560174D02*
X5896372Y-12550650D01*
X5896372Y-12550650D02*
X5924943Y-12550650D01*
X5924943Y-12550650D02*
X5943991Y-12560174D01*
X5943991Y-12560174D02*
X5953515Y-12579222D01*
X5953515Y-12579222D02*
X5953515Y-12683984D01*
X6343991Y-12474460D02*
X6172563Y-12731603D01*
X6601134Y-12483984D02*
X6620182Y-12483984D01*
X6620182Y-12483984D02*
X6639229Y-12493508D01*
X6639229Y-12493508D02*
X6648753Y-12503031D01*
X6648753Y-12503031D02*
X6658277Y-12522079D01*
X6658277Y-12522079D02*
X6667801Y-12560174D01*
X6667801Y-12560174D02*
X6667801Y-12607793D01*
X6667801Y-12607793D02*
X6658277Y-12645888D01*
X6658277Y-12645888D02*
X6648753Y-12664936D01*
X6648753Y-12664936D02*
X6639229Y-12674460D01*
X6639229Y-12674460D02*
X6620182Y-12683984D01*
X6620182Y-12683984D02*
X6601134Y-12683984D01*
X6601134Y-12683984D02*
X6582086Y-12674460D01*
X6582086Y-12674460D02*
X6572563Y-12664936D01*
X6572563Y-12664936D02*
X6563039Y-12645888D01*
X6563039Y-12645888D02*
X6553515Y-12607793D01*
X6553515Y-12607793D02*
X6553515Y-12560174D01*
X6553515Y-12560174D02*
X6563039Y-12522079D01*
X6563039Y-12522079D02*
X6572563Y-12503031D01*
X6572563Y-12503031D02*
X6582086Y-12493508D01*
X6582086Y-12493508D02*
X6601134Y-12483984D01*
X6753515Y-12664936D02*
X6763039Y-12674460D01*
X6763039Y-12674460D02*
X6753515Y-12683984D01*
X6753515Y-12683984D02*
X6743991Y-12674460D01*
X6743991Y-12674460D02*
X6753515Y-12664936D01*
X6753515Y-12664936D02*
X6753515Y-12683984D01*
X6886848Y-12483984D02*
X6905896Y-12483984D01*
X6905896Y-12483984D02*
X6924944Y-12493508D01*
X6924944Y-12493508D02*
X6934467Y-12503031D01*
X6934467Y-12503031D02*
X6943991Y-12522079D01*
X6943991Y-12522079D02*
X6953515Y-12560174D01*
X6953515Y-12560174D02*
X6953515Y-12607793D01*
X6953515Y-12607793D02*
X6943991Y-12645888D01*
X6943991Y-12645888D02*
X6934467Y-12664936D01*
X6934467Y-12664936D02*
X6924944Y-12674460D01*
X6924944Y-12674460D02*
X6905896Y-12683984D01*
X6905896Y-12683984D02*
X6886848Y-12683984D01*
X6886848Y-12683984D02*
X6867801Y-12674460D01*
X6867801Y-12674460D02*
X6858277Y-12664936D01*
X6858277Y-12664936D02*
X6848753Y-12645888D01*
X6848753Y-12645888D02*
X6839229Y-12607793D01*
X6839229Y-12607793D02*
X6839229Y-12560174D01*
X6839229Y-12560174D02*
X6848753Y-12522079D01*
X6848753Y-12522079D02*
X6858277Y-12503031D01*
X6858277Y-12503031D02*
X6867801Y-12493508D01*
X6867801Y-12493508D02*
X6886848Y-12483984D01*
X7143991Y-12683984D02*
X7029706Y-12683984D01*
X7086848Y-12683984D02*
X7086848Y-12483984D01*
X7086848Y-12483984D02*
X7067801Y-12512555D01*
X7067801Y-12512555D02*
X7048753Y-12531603D01*
X7048753Y-12531603D02*
X7029706Y-12541127D01*
X7210658Y-12483984D02*
X7334467Y-12483984D01*
X7334467Y-12483984D02*
X7267801Y-12560174D01*
X7267801Y-12560174D02*
X7296372Y-12560174D01*
X7296372Y-12560174D02*
X7315420Y-12569698D01*
X7315420Y-12569698D02*
X7324944Y-12579222D01*
X7324944Y-12579222D02*
X7334467Y-12598269D01*
X7334467Y-12598269D02*
X7334467Y-12645888D01*
X7334467Y-12645888D02*
X7324944Y-12664936D01*
X7324944Y-12664936D02*
X7315420Y-12674460D01*
X7315420Y-12674460D02*
X7296372Y-12683984D01*
X7296372Y-12683984D02*
X7239229Y-12683984D01*
X7239229Y-12683984D02*
X7220182Y-12674460D01*
X7220182Y-12674460D02*
X7210658Y-12664936D01*
X7448753Y-12569698D02*
X7429706Y-12560174D01*
X7429706Y-12560174D02*
X7420182Y-12550650D01*
X7420182Y-12550650D02*
X7410658Y-12531603D01*
X7410658Y-12531603D02*
X7410658Y-12522079D01*
X7410658Y-12522079D02*
X7420182Y-12503031D01*
X7420182Y-12503031D02*
X7429706Y-12493508D01*
X7429706Y-12493508D02*
X7448753Y-12483984D01*
X7448753Y-12483984D02*
X7486848Y-12483984D01*
X7486848Y-12483984D02*
X7505896Y-12493508D01*
X7505896Y-12493508D02*
X7515420Y-12503031D01*
X7515420Y-12503031D02*
X7524944Y-12522079D01*
X7524944Y-12522079D02*
X7524944Y-12531603D01*
X7524944Y-12531603D02*
X7515420Y-12550650D01*
X7515420Y-12550650D02*
X7505896Y-12560174D01*
X7505896Y-12560174D02*
X7486848Y-12569698D01*
X7486848Y-12569698D02*
X7448753Y-12569698D01*
X7448753Y-12569698D02*
X7429706Y-12579222D01*
X7429706Y-12579222D02*
X7420182Y-12588746D01*
X7420182Y-12588746D02*
X7410658Y-12607793D01*
X7410658Y-12607793D02*
X7410658Y-12645888D01*
X7410658Y-12645888D02*
X7420182Y-12664936D01*
X7420182Y-12664936D02*
X7429706Y-12674460D01*
X7429706Y-12674460D02*
X7448753Y-12683984D01*
X7448753Y-12683984D02*
X7486848Y-12683984D01*
X7486848Y-12683984D02*
X7505896Y-12674460D01*
X7505896Y-12674460D02*
X7515420Y-12664936D01*
X7515420Y-12664936D02*
X7524944Y-12645888D01*
X7524944Y-12645888D02*
X7524944Y-12607793D01*
X7524944Y-12607793D02*
X7515420Y-12588746D01*
X7515420Y-12588746D02*
X7505896Y-12579222D01*
X7505896Y-12579222D02*
X7486848Y-12569698D01*
X7601134Y-12483984D02*
X7601134Y-12522079D01*
X7677325Y-12483984D02*
X7677325Y-12522079D01*
X7972563Y-12760174D02*
X7963039Y-12750650D01*
X7963039Y-12750650D02*
X7943991Y-12722079D01*
X7943991Y-12722079D02*
X7934468Y-12703031D01*
X7934468Y-12703031D02*
X7924944Y-12674460D01*
X7924944Y-12674460D02*
X7915420Y-12626841D01*
X7915420Y-12626841D02*
X7915420Y-12588746D01*
X7915420Y-12588746D02*
X7924944Y-12541127D01*
X7924944Y-12541127D02*
X7934468Y-12512555D01*
X7934468Y-12512555D02*
X7943991Y-12493508D01*
X7943991Y-12493508D02*
X7963039Y-12464936D01*
X7963039Y-12464936D02*
X7972563Y-12455412D01*
X8058277Y-12683984D02*
X8096372Y-12683984D01*
X8096372Y-12683984D02*
X8115420Y-12674460D01*
X8115420Y-12674460D02*
X8124944Y-12664936D01*
X8124944Y-12664936D02*
X8143991Y-12636365D01*
X8143991Y-12636365D02*
X8153515Y-12598269D01*
X8153515Y-12598269D02*
X8153515Y-12522079D01*
X8153515Y-12522079D02*
X8143991Y-12503031D01*
X8143991Y-12503031D02*
X8134468Y-12493508D01*
X8134468Y-12493508D02*
X8115420Y-12483984D01*
X8115420Y-12483984D02*
X8077325Y-12483984D01*
X8077325Y-12483984D02*
X8058277Y-12493508D01*
X8058277Y-12493508D02*
X8048753Y-12503031D01*
X8048753Y-12503031D02*
X8039229Y-12522079D01*
X8039229Y-12522079D02*
X8039229Y-12569698D01*
X8039229Y-12569698D02*
X8048753Y-12588746D01*
X8048753Y-12588746D02*
X8058277Y-12598269D01*
X8058277Y-12598269D02*
X8077325Y-12607793D01*
X8077325Y-12607793D02*
X8115420Y-12607793D01*
X8115420Y-12607793D02*
X8134468Y-12598269D01*
X8134468Y-12598269D02*
X8143991Y-12588746D01*
X8143991Y-12588746D02*
X8153515Y-12569698D01*
X8391611Y-12683984D02*
X8391611Y-12483984D01*
X8477325Y-12683984D02*
X8477325Y-12579222D01*
X8477325Y-12579222D02*
X8467801Y-12560174D01*
X8467801Y-12560174D02*
X8448753Y-12550650D01*
X8448753Y-12550650D02*
X8420182Y-12550650D01*
X8420182Y-12550650D02*
X8401134Y-12560174D01*
X8401134Y-12560174D02*
X8391611Y-12569698D01*
X8601134Y-12683984D02*
X8582087Y-12674460D01*
X8582087Y-12674460D02*
X8572563Y-12664936D01*
X8572563Y-12664936D02*
X8563039Y-12645888D01*
X8563039Y-12645888D02*
X8563039Y-12588746D01*
X8563039Y-12588746D02*
X8572563Y-12569698D01*
X8572563Y-12569698D02*
X8582087Y-12560174D01*
X8582087Y-12560174D02*
X8601134Y-12550650D01*
X8601134Y-12550650D02*
X8629706Y-12550650D01*
X8629706Y-12550650D02*
X8648753Y-12560174D01*
X8648753Y-12560174D02*
X8658277Y-12569698D01*
X8658277Y-12569698D02*
X8667801Y-12588746D01*
X8667801Y-12588746D02*
X8667801Y-12645888D01*
X8667801Y-12645888D02*
X8658277Y-12664936D01*
X8658277Y-12664936D02*
X8648753Y-12674460D01*
X8648753Y-12674460D02*
X8629706Y-12683984D01*
X8629706Y-12683984D02*
X8601134Y-12683984D01*
X8782087Y-12683984D02*
X8763039Y-12674460D01*
X8763039Y-12674460D02*
X8753515Y-12655412D01*
X8753515Y-12655412D02*
X8753515Y-12483984D01*
X8934468Y-12674460D02*
X8915420Y-12683984D01*
X8915420Y-12683984D02*
X8877325Y-12683984D01*
X8877325Y-12683984D02*
X8858277Y-12674460D01*
X8858277Y-12674460D02*
X8848753Y-12655412D01*
X8848753Y-12655412D02*
X8848753Y-12579222D01*
X8848753Y-12579222D02*
X8858277Y-12560174D01*
X8858277Y-12560174D02*
X8877325Y-12550650D01*
X8877325Y-12550650D02*
X8915420Y-12550650D01*
X8915420Y-12550650D02*
X8934468Y-12560174D01*
X8934468Y-12560174D02*
X8943992Y-12579222D01*
X8943992Y-12579222D02*
X8943992Y-12598269D01*
X8943992Y-12598269D02*
X8848753Y-12617317D01*
X9020182Y-12674460D02*
X9039230Y-12683984D01*
X9039230Y-12683984D02*
X9077325Y-12683984D01*
X9077325Y-12683984D02*
X9096373Y-12674460D01*
X9096373Y-12674460D02*
X9105896Y-12655412D01*
X9105896Y-12655412D02*
X9105896Y-12645888D01*
X9105896Y-12645888D02*
X9096373Y-12626841D01*
X9096373Y-12626841D02*
X9077325Y-12617317D01*
X9077325Y-12617317D02*
X9048753Y-12617317D01*
X9048753Y-12617317D02*
X9029706Y-12607793D01*
X9029706Y-12607793D02*
X9020182Y-12588746D01*
X9020182Y-12588746D02*
X9020182Y-12579222D01*
X9020182Y-12579222D02*
X9029706Y-12560174D01*
X9029706Y-12560174D02*
X9048753Y-12550650D01*
X9048753Y-12550650D02*
X9077325Y-12550650D01*
X9077325Y-12550650D02*
X9096373Y-12560174D01*
X9172563Y-12760174D02*
X9182087Y-12750650D01*
X9182087Y-12750650D02*
X9201134Y-12722079D01*
X9201134Y-12722079D02*
X9210658Y-12703031D01*
X9210658Y-12703031D02*
X9220182Y-12674460D01*
X9220182Y-12674460D02*
X9229706Y-12626841D01*
X9229706Y-12626841D02*
X9229706Y-12588746D01*
X9229706Y-12588746D02*
X9220182Y-12541127D01*
X9220182Y-12541127D02*
X9210658Y-12512555D01*
X9210658Y-12512555D02*
X9201134Y-12493508D01*
X9201134Y-12493508D02*
X9182087Y-12464936D01*
X9182087Y-12464936D02*
X9172563Y-12455412D01*
D12*
X4397500Y-12856500D02*
G75*
G02*
X4357500Y-12856500I-20000J0D01*
G01*
X4357500Y-12856500D02*
G75*
G02*
X4397500Y-12856500I20000J0D01*
G01*
D11*
X4696372Y-12747984D02*
X4715420Y-12747984D01*
X4715420Y-12747984D02*
X4734467Y-12757508D01*
X4734467Y-12757508D02*
X4743991Y-12767031D01*
X4743991Y-12767031D02*
X4753515Y-12786079D01*
X4753515Y-12786079D02*
X4763039Y-12824174D01*
X4763039Y-12824174D02*
X4763039Y-12871793D01*
X4763039Y-12871793D02*
X4753515Y-12909888D01*
X4753515Y-12909888D02*
X4743991Y-12928936D01*
X4743991Y-12928936D02*
X4734467Y-12938460D01*
X4734467Y-12938460D02*
X4715420Y-12947984D01*
X4715420Y-12947984D02*
X4696372Y-12947984D01*
X4696372Y-12947984D02*
X4677324Y-12938460D01*
X4677324Y-12938460D02*
X4667801Y-12928936D01*
X4667801Y-12928936D02*
X4658277Y-12909888D01*
X4658277Y-12909888D02*
X4648753Y-12871793D01*
X4648753Y-12871793D02*
X4648753Y-12824174D01*
X4648753Y-12824174D02*
X4658277Y-12786079D01*
X4658277Y-12786079D02*
X4667801Y-12767031D01*
X4667801Y-12767031D02*
X4677324Y-12757508D01*
X4677324Y-12757508D02*
X4696372Y-12747984D01*
X4848753Y-12928936D02*
X4858277Y-12938460D01*
X4858277Y-12938460D02*
X4848753Y-12947984D01*
X4848753Y-12947984D02*
X4839229Y-12938460D01*
X4839229Y-12938460D02*
X4848753Y-12928936D01*
X4848753Y-12928936D02*
X4848753Y-12947984D01*
X5029705Y-12814650D02*
X5029705Y-12947984D01*
X4982086Y-12738460D02*
X4934467Y-12881317D01*
X4934467Y-12881317D02*
X5058277Y-12881317D01*
X5172563Y-12747984D02*
X5191610Y-12747984D01*
X5191610Y-12747984D02*
X5210658Y-12757508D01*
X5210658Y-12757508D02*
X5220182Y-12767031D01*
X5220182Y-12767031D02*
X5229705Y-12786079D01*
X5229705Y-12786079D02*
X5239229Y-12824174D01*
X5239229Y-12824174D02*
X5239229Y-12871793D01*
X5239229Y-12871793D02*
X5229705Y-12909888D01*
X5229705Y-12909888D02*
X5220182Y-12928936D01*
X5220182Y-12928936D02*
X5210658Y-12938460D01*
X5210658Y-12938460D02*
X5191610Y-12947984D01*
X5191610Y-12947984D02*
X5172563Y-12947984D01*
X5172563Y-12947984D02*
X5153515Y-12938460D01*
X5153515Y-12938460D02*
X5143991Y-12928936D01*
X5143991Y-12928936D02*
X5134467Y-12909888D01*
X5134467Y-12909888D02*
X5124944Y-12871793D01*
X5124944Y-12871793D02*
X5124944Y-12824174D01*
X5124944Y-12824174D02*
X5134467Y-12786079D01*
X5134467Y-12786079D02*
X5143991Y-12767031D01*
X5143991Y-12767031D02*
X5153515Y-12757508D01*
X5153515Y-12757508D02*
X5172563Y-12747984D01*
X5363039Y-12747984D02*
X5382086Y-12747984D01*
X5382086Y-12747984D02*
X5401134Y-12757508D01*
X5401134Y-12757508D02*
X5410658Y-12767031D01*
X5410658Y-12767031D02*
X5420182Y-12786079D01*
X5420182Y-12786079D02*
X5429705Y-12824174D01*
X5429705Y-12824174D02*
X5429705Y-12871793D01*
X5429705Y-12871793D02*
X5420182Y-12909888D01*
X5420182Y-12909888D02*
X5410658Y-12928936D01*
X5410658Y-12928936D02*
X5401134Y-12938460D01*
X5401134Y-12938460D02*
X5382086Y-12947984D01*
X5382086Y-12947984D02*
X5363039Y-12947984D01*
X5363039Y-12947984D02*
X5343991Y-12938460D01*
X5343991Y-12938460D02*
X5334467Y-12928936D01*
X5334467Y-12928936D02*
X5324944Y-12909888D01*
X5324944Y-12909888D02*
X5315420Y-12871793D01*
X5315420Y-12871793D02*
X5315420Y-12824174D01*
X5315420Y-12824174D02*
X5324944Y-12786079D01*
X5324944Y-12786079D02*
X5334467Y-12767031D01*
X5334467Y-12767031D02*
X5343991Y-12757508D01*
X5343991Y-12757508D02*
X5363039Y-12747984D01*
X5515420Y-12947984D02*
X5515420Y-12814650D01*
X5515420Y-12833698D02*
X5524944Y-12824174D01*
X5524944Y-12824174D02*
X5543991Y-12814650D01*
X5543991Y-12814650D02*
X5572563Y-12814650D01*
X5572563Y-12814650D02*
X5591610Y-12824174D01*
X5591610Y-12824174D02*
X5601134Y-12843222D01*
X5601134Y-12843222D02*
X5601134Y-12947984D01*
X5601134Y-12843222D02*
X5610658Y-12824174D01*
X5610658Y-12824174D02*
X5629705Y-12814650D01*
X5629705Y-12814650D02*
X5658277Y-12814650D01*
X5658277Y-12814650D02*
X5677324Y-12824174D01*
X5677324Y-12824174D02*
X5686848Y-12843222D01*
X5686848Y-12843222D02*
X5686848Y-12947984D01*
X5782086Y-12947984D02*
X5782086Y-12814650D01*
X5782086Y-12833698D02*
X5791610Y-12824174D01*
X5791610Y-12824174D02*
X5810658Y-12814650D01*
X5810658Y-12814650D02*
X5839229Y-12814650D01*
X5839229Y-12814650D02*
X5858277Y-12824174D01*
X5858277Y-12824174D02*
X5867801Y-12843222D01*
X5867801Y-12843222D02*
X5867801Y-12947984D01*
X5867801Y-12843222D02*
X5877324Y-12824174D01*
X5877324Y-12824174D02*
X5896372Y-12814650D01*
X5896372Y-12814650D02*
X5924943Y-12814650D01*
X5924943Y-12814650D02*
X5943991Y-12824174D01*
X5943991Y-12824174D02*
X5953515Y-12843222D01*
X5953515Y-12843222D02*
X5953515Y-12947984D01*
X6343991Y-12738460D02*
X6172563Y-12995603D01*
X6601134Y-12747984D02*
X6620182Y-12747984D01*
X6620182Y-12747984D02*
X6639229Y-12757508D01*
X6639229Y-12757508D02*
X6648753Y-12767031D01*
X6648753Y-12767031D02*
X6658277Y-12786079D01*
X6658277Y-12786079D02*
X6667801Y-12824174D01*
X6667801Y-12824174D02*
X6667801Y-12871793D01*
X6667801Y-12871793D02*
X6658277Y-12909888D01*
X6658277Y-12909888D02*
X6648753Y-12928936D01*
X6648753Y-12928936D02*
X6639229Y-12938460D01*
X6639229Y-12938460D02*
X6620182Y-12947984D01*
X6620182Y-12947984D02*
X6601134Y-12947984D01*
X6601134Y-12947984D02*
X6582086Y-12938460D01*
X6582086Y-12938460D02*
X6572563Y-12928936D01*
X6572563Y-12928936D02*
X6563039Y-12909888D01*
X6563039Y-12909888D02*
X6553515Y-12871793D01*
X6553515Y-12871793D02*
X6553515Y-12824174D01*
X6553515Y-12824174D02*
X6563039Y-12786079D01*
X6563039Y-12786079D02*
X6572563Y-12767031D01*
X6572563Y-12767031D02*
X6582086Y-12757508D01*
X6582086Y-12757508D02*
X6601134Y-12747984D01*
X6753515Y-12928936D02*
X6763039Y-12938460D01*
X6763039Y-12938460D02*
X6753515Y-12947984D01*
X6753515Y-12947984D02*
X6743991Y-12938460D01*
X6743991Y-12938460D02*
X6753515Y-12928936D01*
X6753515Y-12928936D02*
X6753515Y-12947984D01*
X6886848Y-12747984D02*
X6905896Y-12747984D01*
X6905896Y-12747984D02*
X6924944Y-12757508D01*
X6924944Y-12757508D02*
X6934467Y-12767031D01*
X6934467Y-12767031D02*
X6943991Y-12786079D01*
X6943991Y-12786079D02*
X6953515Y-12824174D01*
X6953515Y-12824174D02*
X6953515Y-12871793D01*
X6953515Y-12871793D02*
X6943991Y-12909888D01*
X6943991Y-12909888D02*
X6934467Y-12928936D01*
X6934467Y-12928936D02*
X6924944Y-12938460D01*
X6924944Y-12938460D02*
X6905896Y-12947984D01*
X6905896Y-12947984D02*
X6886848Y-12947984D01*
X6886848Y-12947984D02*
X6867801Y-12938460D01*
X6867801Y-12938460D02*
X6858277Y-12928936D01*
X6858277Y-12928936D02*
X6848753Y-12909888D01*
X6848753Y-12909888D02*
X6839229Y-12871793D01*
X6839229Y-12871793D02*
X6839229Y-12824174D01*
X6839229Y-12824174D02*
X6848753Y-12786079D01*
X6848753Y-12786079D02*
X6858277Y-12767031D01*
X6858277Y-12767031D02*
X6867801Y-12757508D01*
X6867801Y-12757508D02*
X6886848Y-12747984D01*
X7143991Y-12947984D02*
X7029706Y-12947984D01*
X7086848Y-12947984D02*
X7086848Y-12747984D01*
X7086848Y-12747984D02*
X7067801Y-12776555D01*
X7067801Y-12776555D02*
X7048753Y-12795603D01*
X7048753Y-12795603D02*
X7029706Y-12805127D01*
X7324944Y-12747984D02*
X7229706Y-12747984D01*
X7229706Y-12747984D02*
X7220182Y-12843222D01*
X7220182Y-12843222D02*
X7229706Y-12833698D01*
X7229706Y-12833698D02*
X7248753Y-12824174D01*
X7248753Y-12824174D02*
X7296372Y-12824174D01*
X7296372Y-12824174D02*
X7315420Y-12833698D01*
X7315420Y-12833698D02*
X7324944Y-12843222D01*
X7324944Y-12843222D02*
X7334467Y-12862269D01*
X7334467Y-12862269D02*
X7334467Y-12909888D01*
X7334467Y-12909888D02*
X7324944Y-12928936D01*
X7324944Y-12928936D02*
X7315420Y-12938460D01*
X7315420Y-12938460D02*
X7296372Y-12947984D01*
X7296372Y-12947984D02*
X7248753Y-12947984D01*
X7248753Y-12947984D02*
X7229706Y-12938460D01*
X7229706Y-12938460D02*
X7220182Y-12928936D01*
X7401134Y-12747984D02*
X7534467Y-12747984D01*
X7534467Y-12747984D02*
X7448753Y-12947984D01*
X7601134Y-12747984D02*
X7601134Y-12786079D01*
X7677325Y-12747984D02*
X7677325Y-12786079D01*
X7972563Y-13024174D02*
X7963039Y-13014650D01*
X7963039Y-13014650D02*
X7943991Y-12986079D01*
X7943991Y-12986079D02*
X7934468Y-12967031D01*
X7934468Y-12967031D02*
X7924944Y-12938460D01*
X7924944Y-12938460D02*
X7915420Y-12890841D01*
X7915420Y-12890841D02*
X7915420Y-12852746D01*
X7915420Y-12852746D02*
X7924944Y-12805127D01*
X7924944Y-12805127D02*
X7934468Y-12776555D01*
X7934468Y-12776555D02*
X7943991Y-12757508D01*
X7943991Y-12757508D02*
X7963039Y-12728936D01*
X7963039Y-12728936D02*
X7972563Y-12719412D01*
X8039229Y-12767031D02*
X8048753Y-12757508D01*
X8048753Y-12757508D02*
X8067801Y-12747984D01*
X8067801Y-12747984D02*
X8115420Y-12747984D01*
X8115420Y-12747984D02*
X8134468Y-12757508D01*
X8134468Y-12757508D02*
X8143991Y-12767031D01*
X8143991Y-12767031D02*
X8153515Y-12786079D01*
X8153515Y-12786079D02*
X8153515Y-12805127D01*
X8153515Y-12805127D02*
X8143991Y-12833698D01*
X8143991Y-12833698D02*
X8029706Y-12947984D01*
X8029706Y-12947984D02*
X8153515Y-12947984D01*
X8220182Y-12747984D02*
X8353515Y-12747984D01*
X8353515Y-12747984D02*
X8267801Y-12947984D01*
X8582087Y-12947984D02*
X8582087Y-12747984D01*
X8667801Y-12947984D02*
X8667801Y-12843222D01*
X8667801Y-12843222D02*
X8658277Y-12824174D01*
X8658277Y-12824174D02*
X8639230Y-12814650D01*
X8639230Y-12814650D02*
X8610658Y-12814650D01*
X8610658Y-12814650D02*
X8591611Y-12824174D01*
X8591611Y-12824174D02*
X8582087Y-12833698D01*
X8791611Y-12947984D02*
X8772563Y-12938460D01*
X8772563Y-12938460D02*
X8763039Y-12928936D01*
X8763039Y-12928936D02*
X8753515Y-12909888D01*
X8753515Y-12909888D02*
X8753515Y-12852746D01*
X8753515Y-12852746D02*
X8763039Y-12833698D01*
X8763039Y-12833698D02*
X8772563Y-12824174D01*
X8772563Y-12824174D02*
X8791611Y-12814650D01*
X8791611Y-12814650D02*
X8820182Y-12814650D01*
X8820182Y-12814650D02*
X8839230Y-12824174D01*
X8839230Y-12824174D02*
X8848753Y-12833698D01*
X8848753Y-12833698D02*
X8858277Y-12852746D01*
X8858277Y-12852746D02*
X8858277Y-12909888D01*
X8858277Y-12909888D02*
X8848753Y-12928936D01*
X8848753Y-12928936D02*
X8839230Y-12938460D01*
X8839230Y-12938460D02*
X8820182Y-12947984D01*
X8820182Y-12947984D02*
X8791611Y-12947984D01*
X8972563Y-12947984D02*
X8953515Y-12938460D01*
X8953515Y-12938460D02*
X8943992Y-12919412D01*
X8943992Y-12919412D02*
X8943992Y-12747984D01*
X9124944Y-12938460D02*
X9105896Y-12947984D01*
X9105896Y-12947984D02*
X9067801Y-12947984D01*
X9067801Y-12947984D02*
X9048753Y-12938460D01*
X9048753Y-12938460D02*
X9039230Y-12919412D01*
X9039230Y-12919412D02*
X9039230Y-12843222D01*
X9039230Y-12843222D02*
X9048753Y-12824174D01*
X9048753Y-12824174D02*
X9067801Y-12814650D01*
X9067801Y-12814650D02*
X9105896Y-12814650D01*
X9105896Y-12814650D02*
X9124944Y-12824174D01*
X9124944Y-12824174D02*
X9134468Y-12843222D01*
X9134468Y-12843222D02*
X9134468Y-12862269D01*
X9134468Y-12862269D02*
X9039230Y-12881317D01*
X9210658Y-12938460D02*
X9229706Y-12947984D01*
X9229706Y-12947984D02*
X9267801Y-12947984D01*
X9267801Y-12947984D02*
X9286849Y-12938460D01*
X9286849Y-12938460D02*
X9296373Y-12919412D01*
X9296373Y-12919412D02*
X9296373Y-12909888D01*
X9296373Y-12909888D02*
X9286849Y-12890841D01*
X9286849Y-12890841D02*
X9267801Y-12881317D01*
X9267801Y-12881317D02*
X9239230Y-12881317D01*
X9239230Y-12881317D02*
X9220182Y-12871793D01*
X9220182Y-12871793D02*
X9210658Y-12852746D01*
X9210658Y-12852746D02*
X9210658Y-12843222D01*
X9210658Y-12843222D02*
X9220182Y-12824174D01*
X9220182Y-12824174D02*
X9239230Y-12814650D01*
X9239230Y-12814650D02*
X9267801Y-12814650D01*
X9267801Y-12814650D02*
X9286849Y-12824174D01*
X9363039Y-13024174D02*
X9372563Y-13014650D01*
X9372563Y-13014650D02*
X9391611Y-12986079D01*
X9391611Y-12986079D02*
X9401134Y-12967031D01*
X9401134Y-12967031D02*
X9410658Y-12938460D01*
X9410658Y-12938460D02*
X9420182Y-12890841D01*
X9420182Y-12890841D02*
X9420182Y-12852746D01*
X9420182Y-12852746D02*
X9410658Y-12805127D01*
X9410658Y-12805127D02*
X9401134Y-12776555D01*
X9401134Y-12776555D02*
X9391611Y-12757508D01*
X9391611Y-12757508D02*
X9372563Y-12728936D01*
X9372563Y-12728936D02*
X9363039Y-12719412D01*
D12*
X4372500Y-13095500D02*
X4372500Y-13145500D01*
X4347500Y-13120500D02*
X4397500Y-13120500D01*
D11*
X4696372Y-13011984D02*
X4715420Y-13011984D01*
X4715420Y-13011984D02*
X4734467Y-13021508D01*
X4734467Y-13021508D02*
X4743991Y-13031031D01*
X4743991Y-13031031D02*
X4753515Y-13050079D01*
X4753515Y-13050079D02*
X4763039Y-13088174D01*
X4763039Y-13088174D02*
X4763039Y-13135793D01*
X4763039Y-13135793D02*
X4753515Y-13173888D01*
X4753515Y-13173888D02*
X4743991Y-13192936D01*
X4743991Y-13192936D02*
X4734467Y-13202460D01*
X4734467Y-13202460D02*
X4715420Y-13211984D01*
X4715420Y-13211984D02*
X4696372Y-13211984D01*
X4696372Y-13211984D02*
X4677324Y-13202460D01*
X4677324Y-13202460D02*
X4667801Y-13192936D01*
X4667801Y-13192936D02*
X4658277Y-13173888D01*
X4658277Y-13173888D02*
X4648753Y-13135793D01*
X4648753Y-13135793D02*
X4648753Y-13088174D01*
X4648753Y-13088174D02*
X4658277Y-13050079D01*
X4658277Y-13050079D02*
X4667801Y-13031031D01*
X4667801Y-13031031D02*
X4677324Y-13021508D01*
X4677324Y-13021508D02*
X4696372Y-13011984D01*
X4848753Y-13192936D02*
X4858277Y-13202460D01*
X4858277Y-13202460D02*
X4848753Y-13211984D01*
X4848753Y-13211984D02*
X4839229Y-13202460D01*
X4839229Y-13202460D02*
X4848753Y-13192936D01*
X4848753Y-13192936D02*
X4848753Y-13211984D01*
X5039229Y-13011984D02*
X4943991Y-13011984D01*
X4943991Y-13011984D02*
X4934467Y-13107222D01*
X4934467Y-13107222D02*
X4943991Y-13097698D01*
X4943991Y-13097698D02*
X4963039Y-13088174D01*
X4963039Y-13088174D02*
X5010658Y-13088174D01*
X5010658Y-13088174D02*
X5029705Y-13097698D01*
X5029705Y-13097698D02*
X5039229Y-13107222D01*
X5039229Y-13107222D02*
X5048753Y-13126269D01*
X5048753Y-13126269D02*
X5048753Y-13173888D01*
X5048753Y-13173888D02*
X5039229Y-13192936D01*
X5039229Y-13192936D02*
X5029705Y-13202460D01*
X5029705Y-13202460D02*
X5010658Y-13211984D01*
X5010658Y-13211984D02*
X4963039Y-13211984D01*
X4963039Y-13211984D02*
X4943991Y-13202460D01*
X4943991Y-13202460D02*
X4934467Y-13192936D01*
X5172563Y-13011984D02*
X5191610Y-13011984D01*
X5191610Y-13011984D02*
X5210658Y-13021508D01*
X5210658Y-13021508D02*
X5220182Y-13031031D01*
X5220182Y-13031031D02*
X5229705Y-13050079D01*
X5229705Y-13050079D02*
X5239229Y-13088174D01*
X5239229Y-13088174D02*
X5239229Y-13135793D01*
X5239229Y-13135793D02*
X5229705Y-13173888D01*
X5229705Y-13173888D02*
X5220182Y-13192936D01*
X5220182Y-13192936D02*
X5210658Y-13202460D01*
X5210658Y-13202460D02*
X5191610Y-13211984D01*
X5191610Y-13211984D02*
X5172563Y-13211984D01*
X5172563Y-13211984D02*
X5153515Y-13202460D01*
X5153515Y-13202460D02*
X5143991Y-13192936D01*
X5143991Y-13192936D02*
X5134467Y-13173888D01*
X5134467Y-13173888D02*
X5124944Y-13135793D01*
X5124944Y-13135793D02*
X5124944Y-13088174D01*
X5124944Y-13088174D02*
X5134467Y-13050079D01*
X5134467Y-13050079D02*
X5143991Y-13031031D01*
X5143991Y-13031031D02*
X5153515Y-13021508D01*
X5153515Y-13021508D02*
X5172563Y-13011984D01*
X5363039Y-13011984D02*
X5382086Y-13011984D01*
X5382086Y-13011984D02*
X5401134Y-13021508D01*
X5401134Y-13021508D02*
X5410658Y-13031031D01*
X5410658Y-13031031D02*
X5420182Y-13050079D01*
X5420182Y-13050079D02*
X5429705Y-13088174D01*
X5429705Y-13088174D02*
X5429705Y-13135793D01*
X5429705Y-13135793D02*
X5420182Y-13173888D01*
X5420182Y-13173888D02*
X5410658Y-13192936D01*
X5410658Y-13192936D02*
X5401134Y-13202460D01*
X5401134Y-13202460D02*
X5382086Y-13211984D01*
X5382086Y-13211984D02*
X5363039Y-13211984D01*
X5363039Y-13211984D02*
X5343991Y-13202460D01*
X5343991Y-13202460D02*
X5334467Y-13192936D01*
X5334467Y-13192936D02*
X5324944Y-13173888D01*
X5324944Y-13173888D02*
X5315420Y-13135793D01*
X5315420Y-13135793D02*
X5315420Y-13088174D01*
X5315420Y-13088174D02*
X5324944Y-13050079D01*
X5324944Y-13050079D02*
X5334467Y-13031031D01*
X5334467Y-13031031D02*
X5343991Y-13021508D01*
X5343991Y-13021508D02*
X5363039Y-13011984D01*
X5515420Y-13211984D02*
X5515420Y-13078650D01*
X5515420Y-13097698D02*
X5524944Y-13088174D01*
X5524944Y-13088174D02*
X5543991Y-13078650D01*
X5543991Y-13078650D02*
X5572563Y-13078650D01*
X5572563Y-13078650D02*
X5591610Y-13088174D01*
X5591610Y-13088174D02*
X5601134Y-13107222D01*
X5601134Y-13107222D02*
X5601134Y-13211984D01*
X5601134Y-13107222D02*
X5610658Y-13088174D01*
X5610658Y-13088174D02*
X5629705Y-13078650D01*
X5629705Y-13078650D02*
X5658277Y-13078650D01*
X5658277Y-13078650D02*
X5677324Y-13088174D01*
X5677324Y-13088174D02*
X5686848Y-13107222D01*
X5686848Y-13107222D02*
X5686848Y-13211984D01*
X5782086Y-13211984D02*
X5782086Y-13078650D01*
X5782086Y-13097698D02*
X5791610Y-13088174D01*
X5791610Y-13088174D02*
X5810658Y-13078650D01*
X5810658Y-13078650D02*
X5839229Y-13078650D01*
X5839229Y-13078650D02*
X5858277Y-13088174D01*
X5858277Y-13088174D02*
X5867801Y-13107222D01*
X5867801Y-13107222D02*
X5867801Y-13211984D01*
X5867801Y-13107222D02*
X5877324Y-13088174D01*
X5877324Y-13088174D02*
X5896372Y-13078650D01*
X5896372Y-13078650D02*
X5924943Y-13078650D01*
X5924943Y-13078650D02*
X5943991Y-13088174D01*
X5943991Y-13088174D02*
X5953515Y-13107222D01*
X5953515Y-13107222D02*
X5953515Y-13211984D01*
X6343991Y-13002460D02*
X6172563Y-13259603D01*
X6601134Y-13011984D02*
X6620182Y-13011984D01*
X6620182Y-13011984D02*
X6639229Y-13021508D01*
X6639229Y-13021508D02*
X6648753Y-13031031D01*
X6648753Y-13031031D02*
X6658277Y-13050079D01*
X6658277Y-13050079D02*
X6667801Y-13088174D01*
X6667801Y-13088174D02*
X6667801Y-13135793D01*
X6667801Y-13135793D02*
X6658277Y-13173888D01*
X6658277Y-13173888D02*
X6648753Y-13192936D01*
X6648753Y-13192936D02*
X6639229Y-13202460D01*
X6639229Y-13202460D02*
X6620182Y-13211984D01*
X6620182Y-13211984D02*
X6601134Y-13211984D01*
X6601134Y-13211984D02*
X6582086Y-13202460D01*
X6582086Y-13202460D02*
X6572563Y-13192936D01*
X6572563Y-13192936D02*
X6563039Y-13173888D01*
X6563039Y-13173888D02*
X6553515Y-13135793D01*
X6553515Y-13135793D02*
X6553515Y-13088174D01*
X6553515Y-13088174D02*
X6563039Y-13050079D01*
X6563039Y-13050079D02*
X6572563Y-13031031D01*
X6572563Y-13031031D02*
X6582086Y-13021508D01*
X6582086Y-13021508D02*
X6601134Y-13011984D01*
X6753515Y-13192936D02*
X6763039Y-13202460D01*
X6763039Y-13202460D02*
X6753515Y-13211984D01*
X6753515Y-13211984D02*
X6743991Y-13202460D01*
X6743991Y-13202460D02*
X6753515Y-13192936D01*
X6753515Y-13192936D02*
X6753515Y-13211984D01*
X6886848Y-13011984D02*
X6905896Y-13011984D01*
X6905896Y-13011984D02*
X6924944Y-13021508D01*
X6924944Y-13021508D02*
X6934467Y-13031031D01*
X6934467Y-13031031D02*
X6943991Y-13050079D01*
X6943991Y-13050079D02*
X6953515Y-13088174D01*
X6953515Y-13088174D02*
X6953515Y-13135793D01*
X6953515Y-13135793D02*
X6943991Y-13173888D01*
X6943991Y-13173888D02*
X6934467Y-13192936D01*
X6934467Y-13192936D02*
X6924944Y-13202460D01*
X6924944Y-13202460D02*
X6905896Y-13211984D01*
X6905896Y-13211984D02*
X6886848Y-13211984D01*
X6886848Y-13211984D02*
X6867801Y-13202460D01*
X6867801Y-13202460D02*
X6858277Y-13192936D01*
X6858277Y-13192936D02*
X6848753Y-13173888D01*
X6848753Y-13173888D02*
X6839229Y-13135793D01*
X6839229Y-13135793D02*
X6839229Y-13088174D01*
X6839229Y-13088174D02*
X6848753Y-13050079D01*
X6848753Y-13050079D02*
X6858277Y-13031031D01*
X6858277Y-13031031D02*
X6867801Y-13021508D01*
X6867801Y-13021508D02*
X6886848Y-13011984D01*
X7143991Y-13211984D02*
X7029706Y-13211984D01*
X7086848Y-13211984D02*
X7086848Y-13011984D01*
X7086848Y-13011984D02*
X7067801Y-13040555D01*
X7067801Y-13040555D02*
X7048753Y-13059603D01*
X7048753Y-13059603D02*
X7029706Y-13069127D01*
X7239229Y-13211984D02*
X7277325Y-13211984D01*
X7277325Y-13211984D02*
X7296372Y-13202460D01*
X7296372Y-13202460D02*
X7305896Y-13192936D01*
X7305896Y-13192936D02*
X7324944Y-13164365D01*
X7324944Y-13164365D02*
X7334467Y-13126269D01*
X7334467Y-13126269D02*
X7334467Y-13050079D01*
X7334467Y-13050079D02*
X7324944Y-13031031D01*
X7324944Y-13031031D02*
X7315420Y-13021508D01*
X7315420Y-13021508D02*
X7296372Y-13011984D01*
X7296372Y-13011984D02*
X7258277Y-13011984D01*
X7258277Y-13011984D02*
X7239229Y-13021508D01*
X7239229Y-13021508D02*
X7229706Y-13031031D01*
X7229706Y-13031031D02*
X7220182Y-13050079D01*
X7220182Y-13050079D02*
X7220182Y-13097698D01*
X7220182Y-13097698D02*
X7229706Y-13116746D01*
X7229706Y-13116746D02*
X7239229Y-13126269D01*
X7239229Y-13126269D02*
X7258277Y-13135793D01*
X7258277Y-13135793D02*
X7296372Y-13135793D01*
X7296372Y-13135793D02*
X7315420Y-13126269D01*
X7315420Y-13126269D02*
X7324944Y-13116746D01*
X7324944Y-13116746D02*
X7334467Y-13097698D01*
X7401134Y-13011984D02*
X7534467Y-13011984D01*
X7534467Y-13011984D02*
X7448753Y-13211984D01*
X7601134Y-13011984D02*
X7601134Y-13050079D01*
X7677325Y-13011984D02*
X7677325Y-13050079D01*
X7972563Y-13288174D02*
X7963039Y-13278650D01*
X7963039Y-13278650D02*
X7943991Y-13250079D01*
X7943991Y-13250079D02*
X7934468Y-13231031D01*
X7934468Y-13231031D02*
X7924944Y-13202460D01*
X7924944Y-13202460D02*
X7915420Y-13154841D01*
X7915420Y-13154841D02*
X7915420Y-13116746D01*
X7915420Y-13116746D02*
X7924944Y-13069127D01*
X7924944Y-13069127D02*
X7934468Y-13040555D01*
X7934468Y-13040555D02*
X7943991Y-13021508D01*
X7943991Y-13021508D02*
X7963039Y-12992936D01*
X7963039Y-12992936D02*
X7972563Y-12983412D01*
X8039229Y-13031031D02*
X8048753Y-13021508D01*
X8048753Y-13021508D02*
X8067801Y-13011984D01*
X8067801Y-13011984D02*
X8115420Y-13011984D01*
X8115420Y-13011984D02*
X8134468Y-13021508D01*
X8134468Y-13021508D02*
X8143991Y-13031031D01*
X8143991Y-13031031D02*
X8153515Y-13050079D01*
X8153515Y-13050079D02*
X8153515Y-13069127D01*
X8153515Y-13069127D02*
X8143991Y-13097698D01*
X8143991Y-13097698D02*
X8029706Y-13211984D01*
X8029706Y-13211984D02*
X8153515Y-13211984D01*
X8391611Y-13211984D02*
X8391611Y-13011984D01*
X8477325Y-13211984D02*
X8477325Y-13107222D01*
X8477325Y-13107222D02*
X8467801Y-13088174D01*
X8467801Y-13088174D02*
X8448753Y-13078650D01*
X8448753Y-13078650D02*
X8420182Y-13078650D01*
X8420182Y-13078650D02*
X8401134Y-13088174D01*
X8401134Y-13088174D02*
X8391611Y-13097698D01*
X8601134Y-13211984D02*
X8582087Y-13202460D01*
X8582087Y-13202460D02*
X8572563Y-13192936D01*
X8572563Y-13192936D02*
X8563039Y-13173888D01*
X8563039Y-13173888D02*
X8563039Y-13116746D01*
X8563039Y-13116746D02*
X8572563Y-13097698D01*
X8572563Y-13097698D02*
X8582087Y-13088174D01*
X8582087Y-13088174D02*
X8601134Y-13078650D01*
X8601134Y-13078650D02*
X8629706Y-13078650D01*
X8629706Y-13078650D02*
X8648753Y-13088174D01*
X8648753Y-13088174D02*
X8658277Y-13097698D01*
X8658277Y-13097698D02*
X8667801Y-13116746D01*
X8667801Y-13116746D02*
X8667801Y-13173888D01*
X8667801Y-13173888D02*
X8658277Y-13192936D01*
X8658277Y-13192936D02*
X8648753Y-13202460D01*
X8648753Y-13202460D02*
X8629706Y-13211984D01*
X8629706Y-13211984D02*
X8601134Y-13211984D01*
X8782087Y-13211984D02*
X8763039Y-13202460D01*
X8763039Y-13202460D02*
X8753515Y-13183412D01*
X8753515Y-13183412D02*
X8753515Y-13011984D01*
X8934468Y-13202460D02*
X8915420Y-13211984D01*
X8915420Y-13211984D02*
X8877325Y-13211984D01*
X8877325Y-13211984D02*
X8858277Y-13202460D01*
X8858277Y-13202460D02*
X8848753Y-13183412D01*
X8848753Y-13183412D02*
X8848753Y-13107222D01*
X8848753Y-13107222D02*
X8858277Y-13088174D01*
X8858277Y-13088174D02*
X8877325Y-13078650D01*
X8877325Y-13078650D02*
X8915420Y-13078650D01*
X8915420Y-13078650D02*
X8934468Y-13088174D01*
X8934468Y-13088174D02*
X8943992Y-13107222D01*
X8943992Y-13107222D02*
X8943992Y-13126269D01*
X8943992Y-13126269D02*
X8848753Y-13145317D01*
X9020182Y-13202460D02*
X9039230Y-13211984D01*
X9039230Y-13211984D02*
X9077325Y-13211984D01*
X9077325Y-13211984D02*
X9096373Y-13202460D01*
X9096373Y-13202460D02*
X9105896Y-13183412D01*
X9105896Y-13183412D02*
X9105896Y-13173888D01*
X9105896Y-13173888D02*
X9096373Y-13154841D01*
X9096373Y-13154841D02*
X9077325Y-13145317D01*
X9077325Y-13145317D02*
X9048753Y-13145317D01*
X9048753Y-13145317D02*
X9029706Y-13135793D01*
X9029706Y-13135793D02*
X9020182Y-13116746D01*
X9020182Y-13116746D02*
X9020182Y-13107222D01*
X9020182Y-13107222D02*
X9029706Y-13088174D01*
X9029706Y-13088174D02*
X9048753Y-13078650D01*
X9048753Y-13078650D02*
X9077325Y-13078650D01*
X9077325Y-13078650D02*
X9096373Y-13088174D01*
X9172563Y-13288174D02*
X9182087Y-13278650D01*
X9182087Y-13278650D02*
X9201134Y-13250079D01*
X9201134Y-13250079D02*
X9210658Y-13231031D01*
X9210658Y-13231031D02*
X9220182Y-13202460D01*
X9220182Y-13202460D02*
X9229706Y-13154841D01*
X9229706Y-13154841D02*
X9229706Y-13116746D01*
X9229706Y-13116746D02*
X9220182Y-13069127D01*
X9220182Y-13069127D02*
X9210658Y-13040555D01*
X9210658Y-13040555D02*
X9201134Y-13021508D01*
X9201134Y-13021508D02*
X9182087Y-12992936D01*
X9182087Y-12992936D02*
X9172563Y-12983412D01*
D12*
X4388713Y-13405713D02*
X4388713Y-13363287D01*
X4346287Y-13363287D01*
X4346287Y-13405713D01*
X4388713Y-13405713D01*
D11*
X4696372Y-13275984D02*
X4715420Y-13275984D01*
X4715420Y-13275984D02*
X4734467Y-13285508D01*
X4734467Y-13285508D02*
X4743991Y-13295031D01*
X4743991Y-13295031D02*
X4753515Y-13314079D01*
X4753515Y-13314079D02*
X4763039Y-13352174D01*
X4763039Y-13352174D02*
X4763039Y-13399793D01*
X4763039Y-13399793D02*
X4753515Y-13437888D01*
X4753515Y-13437888D02*
X4743991Y-13456936D01*
X4743991Y-13456936D02*
X4734467Y-13466460D01*
X4734467Y-13466460D02*
X4715420Y-13475984D01*
X4715420Y-13475984D02*
X4696372Y-13475984D01*
X4696372Y-13475984D02*
X4677324Y-13466460D01*
X4677324Y-13466460D02*
X4667801Y-13456936D01*
X4667801Y-13456936D02*
X4658277Y-13437888D01*
X4658277Y-13437888D02*
X4648753Y-13399793D01*
X4648753Y-13399793D02*
X4648753Y-13352174D01*
X4648753Y-13352174D02*
X4658277Y-13314079D01*
X4658277Y-13314079D02*
X4667801Y-13295031D01*
X4667801Y-13295031D02*
X4677324Y-13285508D01*
X4677324Y-13285508D02*
X4696372Y-13275984D01*
X4848753Y-13456936D02*
X4858277Y-13466460D01*
X4858277Y-13466460D02*
X4848753Y-13475984D01*
X4848753Y-13475984D02*
X4839229Y-13466460D01*
X4839229Y-13466460D02*
X4848753Y-13456936D01*
X4848753Y-13456936D02*
X4848753Y-13475984D01*
X5029705Y-13275984D02*
X4991610Y-13275984D01*
X4991610Y-13275984D02*
X4972563Y-13285508D01*
X4972563Y-13285508D02*
X4963039Y-13295031D01*
X4963039Y-13295031D02*
X4943991Y-13323603D01*
X4943991Y-13323603D02*
X4934467Y-13361698D01*
X4934467Y-13361698D02*
X4934467Y-13437888D01*
X4934467Y-13437888D02*
X4943991Y-13456936D01*
X4943991Y-13456936D02*
X4953515Y-13466460D01*
X4953515Y-13466460D02*
X4972563Y-13475984D01*
X4972563Y-13475984D02*
X5010658Y-13475984D01*
X5010658Y-13475984D02*
X5029705Y-13466460D01*
X5029705Y-13466460D02*
X5039229Y-13456936D01*
X5039229Y-13456936D02*
X5048753Y-13437888D01*
X5048753Y-13437888D02*
X5048753Y-13390269D01*
X5048753Y-13390269D02*
X5039229Y-13371222D01*
X5039229Y-13371222D02*
X5029705Y-13361698D01*
X5029705Y-13361698D02*
X5010658Y-13352174D01*
X5010658Y-13352174D02*
X4972563Y-13352174D01*
X4972563Y-13352174D02*
X4953515Y-13361698D01*
X4953515Y-13361698D02*
X4943991Y-13371222D01*
X4943991Y-13371222D02*
X4934467Y-13390269D01*
X5172563Y-13275984D02*
X5191610Y-13275984D01*
X5191610Y-13275984D02*
X5210658Y-13285508D01*
X5210658Y-13285508D02*
X5220182Y-13295031D01*
X5220182Y-13295031D02*
X5229705Y-13314079D01*
X5229705Y-13314079D02*
X5239229Y-13352174D01*
X5239229Y-13352174D02*
X5239229Y-13399793D01*
X5239229Y-13399793D02*
X5229705Y-13437888D01*
X5229705Y-13437888D02*
X5220182Y-13456936D01*
X5220182Y-13456936D02*
X5210658Y-13466460D01*
X5210658Y-13466460D02*
X5191610Y-13475984D01*
X5191610Y-13475984D02*
X5172563Y-13475984D01*
X5172563Y-13475984D02*
X5153515Y-13466460D01*
X5153515Y-13466460D02*
X5143991Y-13456936D01*
X5143991Y-13456936D02*
X5134467Y-13437888D01*
X5134467Y-13437888D02*
X5124944Y-13399793D01*
X5124944Y-13399793D02*
X5124944Y-13352174D01*
X5124944Y-13352174D02*
X5134467Y-13314079D01*
X5134467Y-13314079D02*
X5143991Y-13295031D01*
X5143991Y-13295031D02*
X5153515Y-13285508D01*
X5153515Y-13285508D02*
X5172563Y-13275984D01*
X5363039Y-13275984D02*
X5382086Y-13275984D01*
X5382086Y-13275984D02*
X5401134Y-13285508D01*
X5401134Y-13285508D02*
X5410658Y-13295031D01*
X5410658Y-13295031D02*
X5420182Y-13314079D01*
X5420182Y-13314079D02*
X5429705Y-13352174D01*
X5429705Y-13352174D02*
X5429705Y-13399793D01*
X5429705Y-13399793D02*
X5420182Y-13437888D01*
X5420182Y-13437888D02*
X5410658Y-13456936D01*
X5410658Y-13456936D02*
X5401134Y-13466460D01*
X5401134Y-13466460D02*
X5382086Y-13475984D01*
X5382086Y-13475984D02*
X5363039Y-13475984D01*
X5363039Y-13475984D02*
X5343991Y-13466460D01*
X5343991Y-13466460D02*
X5334467Y-13456936D01*
X5334467Y-13456936D02*
X5324944Y-13437888D01*
X5324944Y-13437888D02*
X5315420Y-13399793D01*
X5315420Y-13399793D02*
X5315420Y-13352174D01*
X5315420Y-13352174D02*
X5324944Y-13314079D01*
X5324944Y-13314079D02*
X5334467Y-13295031D01*
X5334467Y-13295031D02*
X5343991Y-13285508D01*
X5343991Y-13285508D02*
X5363039Y-13275984D01*
X5515420Y-13475984D02*
X5515420Y-13342650D01*
X5515420Y-13361698D02*
X5524944Y-13352174D01*
X5524944Y-13352174D02*
X5543991Y-13342650D01*
X5543991Y-13342650D02*
X5572563Y-13342650D01*
X5572563Y-13342650D02*
X5591610Y-13352174D01*
X5591610Y-13352174D02*
X5601134Y-13371222D01*
X5601134Y-13371222D02*
X5601134Y-13475984D01*
X5601134Y-13371222D02*
X5610658Y-13352174D01*
X5610658Y-13352174D02*
X5629705Y-13342650D01*
X5629705Y-13342650D02*
X5658277Y-13342650D01*
X5658277Y-13342650D02*
X5677324Y-13352174D01*
X5677324Y-13352174D02*
X5686848Y-13371222D01*
X5686848Y-13371222D02*
X5686848Y-13475984D01*
X5782086Y-13475984D02*
X5782086Y-13342650D01*
X5782086Y-13361698D02*
X5791610Y-13352174D01*
X5791610Y-13352174D02*
X5810658Y-13342650D01*
X5810658Y-13342650D02*
X5839229Y-13342650D01*
X5839229Y-13342650D02*
X5858277Y-13352174D01*
X5858277Y-13352174D02*
X5867801Y-13371222D01*
X5867801Y-13371222D02*
X5867801Y-13475984D01*
X5867801Y-13371222D02*
X5877324Y-13352174D01*
X5877324Y-13352174D02*
X5896372Y-13342650D01*
X5896372Y-13342650D02*
X5924943Y-13342650D01*
X5924943Y-13342650D02*
X5943991Y-13352174D01*
X5943991Y-13352174D02*
X5953515Y-13371222D01*
X5953515Y-13371222D02*
X5953515Y-13475984D01*
X6343991Y-13266460D02*
X6172563Y-13523603D01*
X6601134Y-13275984D02*
X6620182Y-13275984D01*
X6620182Y-13275984D02*
X6639229Y-13285508D01*
X6639229Y-13285508D02*
X6648753Y-13295031D01*
X6648753Y-13295031D02*
X6658277Y-13314079D01*
X6658277Y-13314079D02*
X6667801Y-13352174D01*
X6667801Y-13352174D02*
X6667801Y-13399793D01*
X6667801Y-13399793D02*
X6658277Y-13437888D01*
X6658277Y-13437888D02*
X6648753Y-13456936D01*
X6648753Y-13456936D02*
X6639229Y-13466460D01*
X6639229Y-13466460D02*
X6620182Y-13475984D01*
X6620182Y-13475984D02*
X6601134Y-13475984D01*
X6601134Y-13475984D02*
X6582086Y-13466460D01*
X6582086Y-13466460D02*
X6572563Y-13456936D01*
X6572563Y-13456936D02*
X6563039Y-13437888D01*
X6563039Y-13437888D02*
X6553515Y-13399793D01*
X6553515Y-13399793D02*
X6553515Y-13352174D01*
X6553515Y-13352174D02*
X6563039Y-13314079D01*
X6563039Y-13314079D02*
X6572563Y-13295031D01*
X6572563Y-13295031D02*
X6582086Y-13285508D01*
X6582086Y-13285508D02*
X6601134Y-13275984D01*
X6753515Y-13456936D02*
X6763039Y-13466460D01*
X6763039Y-13466460D02*
X6753515Y-13475984D01*
X6753515Y-13475984D02*
X6743991Y-13466460D01*
X6743991Y-13466460D02*
X6753515Y-13456936D01*
X6753515Y-13456936D02*
X6753515Y-13475984D01*
X6886848Y-13275984D02*
X6905896Y-13275984D01*
X6905896Y-13275984D02*
X6924944Y-13285508D01*
X6924944Y-13285508D02*
X6934467Y-13295031D01*
X6934467Y-13295031D02*
X6943991Y-13314079D01*
X6943991Y-13314079D02*
X6953515Y-13352174D01*
X6953515Y-13352174D02*
X6953515Y-13399793D01*
X6953515Y-13399793D02*
X6943991Y-13437888D01*
X6943991Y-13437888D02*
X6934467Y-13456936D01*
X6934467Y-13456936D02*
X6924944Y-13466460D01*
X6924944Y-13466460D02*
X6905896Y-13475984D01*
X6905896Y-13475984D02*
X6886848Y-13475984D01*
X6886848Y-13475984D02*
X6867801Y-13466460D01*
X6867801Y-13466460D02*
X6858277Y-13456936D01*
X6858277Y-13456936D02*
X6848753Y-13437888D01*
X6848753Y-13437888D02*
X6839229Y-13399793D01*
X6839229Y-13399793D02*
X6839229Y-13352174D01*
X6839229Y-13352174D02*
X6848753Y-13314079D01*
X6848753Y-13314079D02*
X6858277Y-13295031D01*
X6858277Y-13295031D02*
X6867801Y-13285508D01*
X6867801Y-13285508D02*
X6886848Y-13275984D01*
X7029706Y-13295031D02*
X7039229Y-13285508D01*
X7039229Y-13285508D02*
X7058277Y-13275984D01*
X7058277Y-13275984D02*
X7105896Y-13275984D01*
X7105896Y-13275984D02*
X7124944Y-13285508D01*
X7124944Y-13285508D02*
X7134467Y-13295031D01*
X7134467Y-13295031D02*
X7143991Y-13314079D01*
X7143991Y-13314079D02*
X7143991Y-13333127D01*
X7143991Y-13333127D02*
X7134467Y-13361698D01*
X7134467Y-13361698D02*
X7020182Y-13475984D01*
X7020182Y-13475984D02*
X7143991Y-13475984D01*
X7210658Y-13275984D02*
X7334467Y-13275984D01*
X7334467Y-13275984D02*
X7267801Y-13352174D01*
X7267801Y-13352174D02*
X7296372Y-13352174D01*
X7296372Y-13352174D02*
X7315420Y-13361698D01*
X7315420Y-13361698D02*
X7324944Y-13371222D01*
X7324944Y-13371222D02*
X7334467Y-13390269D01*
X7334467Y-13390269D02*
X7334467Y-13437888D01*
X7334467Y-13437888D02*
X7324944Y-13456936D01*
X7324944Y-13456936D02*
X7315420Y-13466460D01*
X7315420Y-13466460D02*
X7296372Y-13475984D01*
X7296372Y-13475984D02*
X7239229Y-13475984D01*
X7239229Y-13475984D02*
X7220182Y-13466460D01*
X7220182Y-13466460D02*
X7210658Y-13456936D01*
X7505896Y-13275984D02*
X7467801Y-13275984D01*
X7467801Y-13275984D02*
X7448753Y-13285508D01*
X7448753Y-13285508D02*
X7439229Y-13295031D01*
X7439229Y-13295031D02*
X7420182Y-13323603D01*
X7420182Y-13323603D02*
X7410658Y-13361698D01*
X7410658Y-13361698D02*
X7410658Y-13437888D01*
X7410658Y-13437888D02*
X7420182Y-13456936D01*
X7420182Y-13456936D02*
X7429706Y-13466460D01*
X7429706Y-13466460D02*
X7448753Y-13475984D01*
X7448753Y-13475984D02*
X7486848Y-13475984D01*
X7486848Y-13475984D02*
X7505896Y-13466460D01*
X7505896Y-13466460D02*
X7515420Y-13456936D01*
X7515420Y-13456936D02*
X7524944Y-13437888D01*
X7524944Y-13437888D02*
X7524944Y-13390269D01*
X7524944Y-13390269D02*
X7515420Y-13371222D01*
X7515420Y-13371222D02*
X7505896Y-13361698D01*
X7505896Y-13361698D02*
X7486848Y-13352174D01*
X7486848Y-13352174D02*
X7448753Y-13352174D01*
X7448753Y-13352174D02*
X7429706Y-13361698D01*
X7429706Y-13361698D02*
X7420182Y-13371222D01*
X7420182Y-13371222D02*
X7410658Y-13390269D01*
X7601134Y-13275984D02*
X7601134Y-13314079D01*
X7677325Y-13275984D02*
X7677325Y-13314079D01*
X7972563Y-13552174D02*
X7963039Y-13542650D01*
X7963039Y-13542650D02*
X7943991Y-13514079D01*
X7943991Y-13514079D02*
X7934468Y-13495031D01*
X7934468Y-13495031D02*
X7924944Y-13466460D01*
X7924944Y-13466460D02*
X7915420Y-13418841D01*
X7915420Y-13418841D02*
X7915420Y-13380746D01*
X7915420Y-13380746D02*
X7924944Y-13333127D01*
X7924944Y-13333127D02*
X7934468Y-13304555D01*
X7934468Y-13304555D02*
X7943991Y-13285508D01*
X7943991Y-13285508D02*
X7963039Y-13256936D01*
X7963039Y-13256936D02*
X7972563Y-13247412D01*
X8086848Y-13275984D02*
X8105896Y-13275984D01*
X8105896Y-13275984D02*
X8124944Y-13285508D01*
X8124944Y-13285508D02*
X8134468Y-13295031D01*
X8134468Y-13295031D02*
X8143991Y-13314079D01*
X8143991Y-13314079D02*
X8153515Y-13352174D01*
X8153515Y-13352174D02*
X8153515Y-13399793D01*
X8153515Y-13399793D02*
X8143991Y-13437888D01*
X8143991Y-13437888D02*
X8134468Y-13456936D01*
X8134468Y-13456936D02*
X8124944Y-13466460D01*
X8124944Y-13466460D02*
X8105896Y-13475984D01*
X8105896Y-13475984D02*
X8086848Y-13475984D01*
X8086848Y-13475984D02*
X8067801Y-13466460D01*
X8067801Y-13466460D02*
X8058277Y-13456936D01*
X8058277Y-13456936D02*
X8048753Y-13437888D01*
X8048753Y-13437888D02*
X8039229Y-13399793D01*
X8039229Y-13399793D02*
X8039229Y-13352174D01*
X8039229Y-13352174D02*
X8048753Y-13314079D01*
X8048753Y-13314079D02*
X8058277Y-13295031D01*
X8058277Y-13295031D02*
X8067801Y-13285508D01*
X8067801Y-13285508D02*
X8086848Y-13275984D01*
X8391611Y-13475984D02*
X8391611Y-13275984D01*
X8477325Y-13475984D02*
X8477325Y-13371222D01*
X8477325Y-13371222D02*
X8467801Y-13352174D01*
X8467801Y-13352174D02*
X8448753Y-13342650D01*
X8448753Y-13342650D02*
X8420182Y-13342650D01*
X8420182Y-13342650D02*
X8401134Y-13352174D01*
X8401134Y-13352174D02*
X8391611Y-13361698D01*
X8601134Y-13475984D02*
X8582087Y-13466460D01*
X8582087Y-13466460D02*
X8572563Y-13456936D01*
X8572563Y-13456936D02*
X8563039Y-13437888D01*
X8563039Y-13437888D02*
X8563039Y-13380746D01*
X8563039Y-13380746D02*
X8572563Y-13361698D01*
X8572563Y-13361698D02*
X8582087Y-13352174D01*
X8582087Y-13352174D02*
X8601134Y-13342650D01*
X8601134Y-13342650D02*
X8629706Y-13342650D01*
X8629706Y-13342650D02*
X8648753Y-13352174D01*
X8648753Y-13352174D02*
X8658277Y-13361698D01*
X8658277Y-13361698D02*
X8667801Y-13380746D01*
X8667801Y-13380746D02*
X8667801Y-13437888D01*
X8667801Y-13437888D02*
X8658277Y-13456936D01*
X8658277Y-13456936D02*
X8648753Y-13466460D01*
X8648753Y-13466460D02*
X8629706Y-13475984D01*
X8629706Y-13475984D02*
X8601134Y-13475984D01*
X8782087Y-13475984D02*
X8763039Y-13466460D01*
X8763039Y-13466460D02*
X8753515Y-13447412D01*
X8753515Y-13447412D02*
X8753515Y-13275984D01*
X8934468Y-13466460D02*
X8915420Y-13475984D01*
X8915420Y-13475984D02*
X8877325Y-13475984D01*
X8877325Y-13475984D02*
X8858277Y-13466460D01*
X8858277Y-13466460D02*
X8848753Y-13447412D01*
X8848753Y-13447412D02*
X8848753Y-13371222D01*
X8848753Y-13371222D02*
X8858277Y-13352174D01*
X8858277Y-13352174D02*
X8877325Y-13342650D01*
X8877325Y-13342650D02*
X8915420Y-13342650D01*
X8915420Y-13342650D02*
X8934468Y-13352174D01*
X8934468Y-13352174D02*
X8943992Y-13371222D01*
X8943992Y-13371222D02*
X8943992Y-13390269D01*
X8943992Y-13390269D02*
X8848753Y-13409317D01*
X9020182Y-13466460D02*
X9039230Y-13475984D01*
X9039230Y-13475984D02*
X9077325Y-13475984D01*
X9077325Y-13475984D02*
X9096373Y-13466460D01*
X9096373Y-13466460D02*
X9105896Y-13447412D01*
X9105896Y-13447412D02*
X9105896Y-13437888D01*
X9105896Y-13437888D02*
X9096373Y-13418841D01*
X9096373Y-13418841D02*
X9077325Y-13409317D01*
X9077325Y-13409317D02*
X9048753Y-13409317D01*
X9048753Y-13409317D02*
X9029706Y-13399793D01*
X9029706Y-13399793D02*
X9020182Y-13380746D01*
X9020182Y-13380746D02*
X9020182Y-13371222D01*
X9020182Y-13371222D02*
X9029706Y-13352174D01*
X9029706Y-13352174D02*
X9048753Y-13342650D01*
X9048753Y-13342650D02*
X9077325Y-13342650D01*
X9077325Y-13342650D02*
X9096373Y-13352174D01*
X9343992Y-13399793D02*
X9496373Y-13399793D01*
X9420182Y-13475984D02*
X9420182Y-13323603D01*
X9829706Y-13342650D02*
X9829706Y-13475984D01*
X9782087Y-13266460D02*
X9734468Y-13409317D01*
X9734468Y-13409317D02*
X9858277Y-13409317D01*
X10077325Y-13466460D02*
X10096373Y-13475984D01*
X10096373Y-13475984D02*
X10134468Y-13475984D01*
X10134468Y-13475984D02*
X10153516Y-13466460D01*
X10153516Y-13466460D02*
X10163039Y-13447412D01*
X10163039Y-13447412D02*
X10163039Y-13437888D01*
X10163039Y-13437888D02*
X10153516Y-13418841D01*
X10153516Y-13418841D02*
X10134468Y-13409317D01*
X10134468Y-13409317D02*
X10105896Y-13409317D01*
X10105896Y-13409317D02*
X10086849Y-13399793D01*
X10086849Y-13399793D02*
X10077325Y-13380746D01*
X10077325Y-13380746D02*
X10077325Y-13371222D01*
X10077325Y-13371222D02*
X10086849Y-13352174D01*
X10086849Y-13352174D02*
X10105896Y-13342650D01*
X10105896Y-13342650D02*
X10134468Y-13342650D01*
X10134468Y-13342650D02*
X10153516Y-13352174D01*
X10277325Y-13475984D02*
X10258277Y-13466460D01*
X10258277Y-13466460D02*
X10248754Y-13447412D01*
X10248754Y-13447412D02*
X10248754Y-13275984D01*
X10382087Y-13475984D02*
X10363039Y-13466460D01*
X10363039Y-13466460D02*
X10353516Y-13456936D01*
X10353516Y-13456936D02*
X10343992Y-13437888D01*
X10343992Y-13437888D02*
X10343992Y-13380746D01*
X10343992Y-13380746D02*
X10353516Y-13361698D01*
X10353516Y-13361698D02*
X10363039Y-13352174D01*
X10363039Y-13352174D02*
X10382087Y-13342650D01*
X10382087Y-13342650D02*
X10410658Y-13342650D01*
X10410658Y-13342650D02*
X10429706Y-13352174D01*
X10429706Y-13352174D02*
X10439230Y-13361698D01*
X10439230Y-13361698D02*
X10448754Y-13380746D01*
X10448754Y-13380746D02*
X10448754Y-13437888D01*
X10448754Y-13437888D02*
X10439230Y-13456936D01*
X10439230Y-13456936D02*
X10429706Y-13466460D01*
X10429706Y-13466460D02*
X10410658Y-13475984D01*
X10410658Y-13475984D02*
X10382087Y-13475984D01*
X10505897Y-13342650D02*
X10582087Y-13342650D01*
X10534468Y-13275984D02*
X10534468Y-13447412D01*
X10534468Y-13447412D02*
X10543992Y-13466460D01*
X10543992Y-13466460D02*
X10563039Y-13475984D01*
X10563039Y-13475984D02*
X10582087Y-13475984D01*
X10639230Y-13466460D02*
X10658277Y-13475984D01*
X10658277Y-13475984D02*
X10696373Y-13475984D01*
X10696373Y-13475984D02*
X10715420Y-13466460D01*
X10715420Y-13466460D02*
X10724944Y-13447412D01*
X10724944Y-13447412D02*
X10724944Y-13437888D01*
X10724944Y-13437888D02*
X10715420Y-13418841D01*
X10715420Y-13418841D02*
X10696373Y-13409317D01*
X10696373Y-13409317D02*
X10667801Y-13409317D01*
X10667801Y-13409317D02*
X10648754Y-13399793D01*
X10648754Y-13399793D02*
X10639230Y-13380746D01*
X10639230Y-13380746D02*
X10639230Y-13371222D01*
X10639230Y-13371222D02*
X10648754Y-13352174D01*
X10648754Y-13352174D02*
X10667801Y-13342650D01*
X10667801Y-13342650D02*
X10696373Y-13342650D01*
X10696373Y-13342650D02*
X10715420Y-13352174D01*
X10791611Y-13552174D02*
X10801135Y-13542650D01*
X10801135Y-13542650D02*
X10820182Y-13514079D01*
X10820182Y-13514079D02*
X10829706Y-13495031D01*
X10829706Y-13495031D02*
X10839230Y-13466460D01*
X10839230Y-13466460D02*
X10848754Y-13418841D01*
X10848754Y-13418841D02*
X10848754Y-13380746D01*
X10848754Y-13380746D02*
X10839230Y-13333127D01*
X10839230Y-13333127D02*
X10829706Y-13304555D01*
X10829706Y-13304555D02*
X10820182Y-13285508D01*
X10820182Y-13285508D02*
X10801135Y-13256936D01*
X10801135Y-13256936D02*
X10791611Y-13247412D01*
D12*
X4362500Y-13683500D02*
X4397500Y-13648500D01*
X4362500Y-13613500D01*
X4327500Y-13648500D01*
X4362500Y-13683500D01*
D11*
X4696372Y-13539984D02*
X4715420Y-13539984D01*
X4715420Y-13539984D02*
X4734467Y-13549508D01*
X4734467Y-13549508D02*
X4743991Y-13559031D01*
X4743991Y-13559031D02*
X4753515Y-13578079D01*
X4753515Y-13578079D02*
X4763039Y-13616174D01*
X4763039Y-13616174D02*
X4763039Y-13663793D01*
X4763039Y-13663793D02*
X4753515Y-13701888D01*
X4753515Y-13701888D02*
X4743991Y-13720936D01*
X4743991Y-13720936D02*
X4734467Y-13730460D01*
X4734467Y-13730460D02*
X4715420Y-13739984D01*
X4715420Y-13739984D02*
X4696372Y-13739984D01*
X4696372Y-13739984D02*
X4677324Y-13730460D01*
X4677324Y-13730460D02*
X4667801Y-13720936D01*
X4667801Y-13720936D02*
X4658277Y-13701888D01*
X4658277Y-13701888D02*
X4648753Y-13663793D01*
X4648753Y-13663793D02*
X4648753Y-13616174D01*
X4648753Y-13616174D02*
X4658277Y-13578079D01*
X4658277Y-13578079D02*
X4667801Y-13559031D01*
X4667801Y-13559031D02*
X4677324Y-13549508D01*
X4677324Y-13549508D02*
X4696372Y-13539984D01*
X4848753Y-13720936D02*
X4858277Y-13730460D01*
X4858277Y-13730460D02*
X4848753Y-13739984D01*
X4848753Y-13739984D02*
X4839229Y-13730460D01*
X4839229Y-13730460D02*
X4848753Y-13720936D01*
X4848753Y-13720936D02*
X4848753Y-13739984D01*
X4924944Y-13539984D02*
X5058277Y-13539984D01*
X5058277Y-13539984D02*
X4972563Y-13739984D01*
X5172563Y-13539984D02*
X5191610Y-13539984D01*
X5191610Y-13539984D02*
X5210658Y-13549508D01*
X5210658Y-13549508D02*
X5220182Y-13559031D01*
X5220182Y-13559031D02*
X5229705Y-13578079D01*
X5229705Y-13578079D02*
X5239229Y-13616174D01*
X5239229Y-13616174D02*
X5239229Y-13663793D01*
X5239229Y-13663793D02*
X5229705Y-13701888D01*
X5229705Y-13701888D02*
X5220182Y-13720936D01*
X5220182Y-13720936D02*
X5210658Y-13730460D01*
X5210658Y-13730460D02*
X5191610Y-13739984D01*
X5191610Y-13739984D02*
X5172563Y-13739984D01*
X5172563Y-13739984D02*
X5153515Y-13730460D01*
X5153515Y-13730460D02*
X5143991Y-13720936D01*
X5143991Y-13720936D02*
X5134467Y-13701888D01*
X5134467Y-13701888D02*
X5124944Y-13663793D01*
X5124944Y-13663793D02*
X5124944Y-13616174D01*
X5124944Y-13616174D02*
X5134467Y-13578079D01*
X5134467Y-13578079D02*
X5143991Y-13559031D01*
X5143991Y-13559031D02*
X5153515Y-13549508D01*
X5153515Y-13549508D02*
X5172563Y-13539984D01*
X5363039Y-13539984D02*
X5382086Y-13539984D01*
X5382086Y-13539984D02*
X5401134Y-13549508D01*
X5401134Y-13549508D02*
X5410658Y-13559031D01*
X5410658Y-13559031D02*
X5420182Y-13578079D01*
X5420182Y-13578079D02*
X5429705Y-13616174D01*
X5429705Y-13616174D02*
X5429705Y-13663793D01*
X5429705Y-13663793D02*
X5420182Y-13701888D01*
X5420182Y-13701888D02*
X5410658Y-13720936D01*
X5410658Y-13720936D02*
X5401134Y-13730460D01*
X5401134Y-13730460D02*
X5382086Y-13739984D01*
X5382086Y-13739984D02*
X5363039Y-13739984D01*
X5363039Y-13739984D02*
X5343991Y-13730460D01*
X5343991Y-13730460D02*
X5334467Y-13720936D01*
X5334467Y-13720936D02*
X5324944Y-13701888D01*
X5324944Y-13701888D02*
X5315420Y-13663793D01*
X5315420Y-13663793D02*
X5315420Y-13616174D01*
X5315420Y-13616174D02*
X5324944Y-13578079D01*
X5324944Y-13578079D02*
X5334467Y-13559031D01*
X5334467Y-13559031D02*
X5343991Y-13549508D01*
X5343991Y-13549508D02*
X5363039Y-13539984D01*
X5515420Y-13739984D02*
X5515420Y-13606650D01*
X5515420Y-13625698D02*
X5524944Y-13616174D01*
X5524944Y-13616174D02*
X5543991Y-13606650D01*
X5543991Y-13606650D02*
X5572563Y-13606650D01*
X5572563Y-13606650D02*
X5591610Y-13616174D01*
X5591610Y-13616174D02*
X5601134Y-13635222D01*
X5601134Y-13635222D02*
X5601134Y-13739984D01*
X5601134Y-13635222D02*
X5610658Y-13616174D01*
X5610658Y-13616174D02*
X5629705Y-13606650D01*
X5629705Y-13606650D02*
X5658277Y-13606650D01*
X5658277Y-13606650D02*
X5677324Y-13616174D01*
X5677324Y-13616174D02*
X5686848Y-13635222D01*
X5686848Y-13635222D02*
X5686848Y-13739984D01*
X5782086Y-13739984D02*
X5782086Y-13606650D01*
X5782086Y-13625698D02*
X5791610Y-13616174D01*
X5791610Y-13616174D02*
X5810658Y-13606650D01*
X5810658Y-13606650D02*
X5839229Y-13606650D01*
X5839229Y-13606650D02*
X5858277Y-13616174D01*
X5858277Y-13616174D02*
X5867801Y-13635222D01*
X5867801Y-13635222D02*
X5867801Y-13739984D01*
X5867801Y-13635222D02*
X5877324Y-13616174D01*
X5877324Y-13616174D02*
X5896372Y-13606650D01*
X5896372Y-13606650D02*
X5924943Y-13606650D01*
X5924943Y-13606650D02*
X5943991Y-13616174D01*
X5943991Y-13616174D02*
X5953515Y-13635222D01*
X5953515Y-13635222D02*
X5953515Y-13739984D01*
X6343991Y-13530460D02*
X6172563Y-13787603D01*
X6601134Y-13539984D02*
X6620182Y-13539984D01*
X6620182Y-13539984D02*
X6639229Y-13549508D01*
X6639229Y-13549508D02*
X6648753Y-13559031D01*
X6648753Y-13559031D02*
X6658277Y-13578079D01*
X6658277Y-13578079D02*
X6667801Y-13616174D01*
X6667801Y-13616174D02*
X6667801Y-13663793D01*
X6667801Y-13663793D02*
X6658277Y-13701888D01*
X6658277Y-13701888D02*
X6648753Y-13720936D01*
X6648753Y-13720936D02*
X6639229Y-13730460D01*
X6639229Y-13730460D02*
X6620182Y-13739984D01*
X6620182Y-13739984D02*
X6601134Y-13739984D01*
X6601134Y-13739984D02*
X6582086Y-13730460D01*
X6582086Y-13730460D02*
X6572563Y-13720936D01*
X6572563Y-13720936D02*
X6563039Y-13701888D01*
X6563039Y-13701888D02*
X6553515Y-13663793D01*
X6553515Y-13663793D02*
X6553515Y-13616174D01*
X6553515Y-13616174D02*
X6563039Y-13578079D01*
X6563039Y-13578079D02*
X6572563Y-13559031D01*
X6572563Y-13559031D02*
X6582086Y-13549508D01*
X6582086Y-13549508D02*
X6601134Y-13539984D01*
X6753515Y-13720936D02*
X6763039Y-13730460D01*
X6763039Y-13730460D02*
X6753515Y-13739984D01*
X6753515Y-13739984D02*
X6743991Y-13730460D01*
X6743991Y-13730460D02*
X6753515Y-13720936D01*
X6753515Y-13720936D02*
X6753515Y-13739984D01*
X6886848Y-13539984D02*
X6905896Y-13539984D01*
X6905896Y-13539984D02*
X6924944Y-13549508D01*
X6924944Y-13549508D02*
X6934467Y-13559031D01*
X6934467Y-13559031D02*
X6943991Y-13578079D01*
X6943991Y-13578079D02*
X6953515Y-13616174D01*
X6953515Y-13616174D02*
X6953515Y-13663793D01*
X6953515Y-13663793D02*
X6943991Y-13701888D01*
X6943991Y-13701888D02*
X6934467Y-13720936D01*
X6934467Y-13720936D02*
X6924944Y-13730460D01*
X6924944Y-13730460D02*
X6905896Y-13739984D01*
X6905896Y-13739984D02*
X6886848Y-13739984D01*
X6886848Y-13739984D02*
X6867801Y-13730460D01*
X6867801Y-13730460D02*
X6858277Y-13720936D01*
X6858277Y-13720936D02*
X6848753Y-13701888D01*
X6848753Y-13701888D02*
X6839229Y-13663793D01*
X6839229Y-13663793D02*
X6839229Y-13616174D01*
X6839229Y-13616174D02*
X6848753Y-13578079D01*
X6848753Y-13578079D02*
X6858277Y-13559031D01*
X6858277Y-13559031D02*
X6867801Y-13549508D01*
X6867801Y-13549508D02*
X6886848Y-13539984D01*
X7029706Y-13559031D02*
X7039229Y-13549508D01*
X7039229Y-13549508D02*
X7058277Y-13539984D01*
X7058277Y-13539984D02*
X7105896Y-13539984D01*
X7105896Y-13539984D02*
X7124944Y-13549508D01*
X7124944Y-13549508D02*
X7134467Y-13559031D01*
X7134467Y-13559031D02*
X7143991Y-13578079D01*
X7143991Y-13578079D02*
X7143991Y-13597127D01*
X7143991Y-13597127D02*
X7134467Y-13625698D01*
X7134467Y-13625698D02*
X7020182Y-13739984D01*
X7020182Y-13739984D02*
X7143991Y-13739984D01*
X7210658Y-13539984D02*
X7343991Y-13539984D01*
X7343991Y-13539984D02*
X7258277Y-13739984D01*
X7505896Y-13539984D02*
X7467801Y-13539984D01*
X7467801Y-13539984D02*
X7448753Y-13549508D01*
X7448753Y-13549508D02*
X7439229Y-13559031D01*
X7439229Y-13559031D02*
X7420182Y-13587603D01*
X7420182Y-13587603D02*
X7410658Y-13625698D01*
X7410658Y-13625698D02*
X7410658Y-13701888D01*
X7410658Y-13701888D02*
X7420182Y-13720936D01*
X7420182Y-13720936D02*
X7429706Y-13730460D01*
X7429706Y-13730460D02*
X7448753Y-13739984D01*
X7448753Y-13739984D02*
X7486848Y-13739984D01*
X7486848Y-13739984D02*
X7505896Y-13730460D01*
X7505896Y-13730460D02*
X7515420Y-13720936D01*
X7515420Y-13720936D02*
X7524944Y-13701888D01*
X7524944Y-13701888D02*
X7524944Y-13654269D01*
X7524944Y-13654269D02*
X7515420Y-13635222D01*
X7515420Y-13635222D02*
X7505896Y-13625698D01*
X7505896Y-13625698D02*
X7486848Y-13616174D01*
X7486848Y-13616174D02*
X7448753Y-13616174D01*
X7448753Y-13616174D02*
X7429706Y-13625698D01*
X7429706Y-13625698D02*
X7420182Y-13635222D01*
X7420182Y-13635222D02*
X7410658Y-13654269D01*
X7601134Y-13539984D02*
X7601134Y-13578079D01*
X7677325Y-13539984D02*
X7677325Y-13578079D01*
X7972563Y-13816174D02*
X7963039Y-13806650D01*
X7963039Y-13806650D02*
X7943991Y-13778079D01*
X7943991Y-13778079D02*
X7934468Y-13759031D01*
X7934468Y-13759031D02*
X7924944Y-13730460D01*
X7924944Y-13730460D02*
X7915420Y-13682841D01*
X7915420Y-13682841D02*
X7915420Y-13644746D01*
X7915420Y-13644746D02*
X7924944Y-13597127D01*
X7924944Y-13597127D02*
X7934468Y-13568555D01*
X7934468Y-13568555D02*
X7943991Y-13549508D01*
X7943991Y-13549508D02*
X7963039Y-13520936D01*
X7963039Y-13520936D02*
X7972563Y-13511412D01*
X8029706Y-13539984D02*
X8153515Y-13539984D01*
X8153515Y-13539984D02*
X8086848Y-13616174D01*
X8086848Y-13616174D02*
X8115420Y-13616174D01*
X8115420Y-13616174D02*
X8134468Y-13625698D01*
X8134468Y-13625698D02*
X8143991Y-13635222D01*
X8143991Y-13635222D02*
X8153515Y-13654269D01*
X8153515Y-13654269D02*
X8153515Y-13701888D01*
X8153515Y-13701888D02*
X8143991Y-13720936D01*
X8143991Y-13720936D02*
X8134468Y-13730460D01*
X8134468Y-13730460D02*
X8115420Y-13739984D01*
X8115420Y-13739984D02*
X8058277Y-13739984D01*
X8058277Y-13739984D02*
X8039229Y-13730460D01*
X8039229Y-13730460D02*
X8029706Y-13720936D01*
X8391611Y-13739984D02*
X8391611Y-13539984D01*
X8477325Y-13739984D02*
X8477325Y-13635222D01*
X8477325Y-13635222D02*
X8467801Y-13616174D01*
X8467801Y-13616174D02*
X8448753Y-13606650D01*
X8448753Y-13606650D02*
X8420182Y-13606650D01*
X8420182Y-13606650D02*
X8401134Y-13616174D01*
X8401134Y-13616174D02*
X8391611Y-13625698D01*
X8601134Y-13739984D02*
X8582087Y-13730460D01*
X8582087Y-13730460D02*
X8572563Y-13720936D01*
X8572563Y-13720936D02*
X8563039Y-13701888D01*
X8563039Y-13701888D02*
X8563039Y-13644746D01*
X8563039Y-13644746D02*
X8572563Y-13625698D01*
X8572563Y-13625698D02*
X8582087Y-13616174D01*
X8582087Y-13616174D02*
X8601134Y-13606650D01*
X8601134Y-13606650D02*
X8629706Y-13606650D01*
X8629706Y-13606650D02*
X8648753Y-13616174D01*
X8648753Y-13616174D02*
X8658277Y-13625698D01*
X8658277Y-13625698D02*
X8667801Y-13644746D01*
X8667801Y-13644746D02*
X8667801Y-13701888D01*
X8667801Y-13701888D02*
X8658277Y-13720936D01*
X8658277Y-13720936D02*
X8648753Y-13730460D01*
X8648753Y-13730460D02*
X8629706Y-13739984D01*
X8629706Y-13739984D02*
X8601134Y-13739984D01*
X8782087Y-13739984D02*
X8763039Y-13730460D01*
X8763039Y-13730460D02*
X8753515Y-13711412D01*
X8753515Y-13711412D02*
X8753515Y-13539984D01*
X8934468Y-13730460D02*
X8915420Y-13739984D01*
X8915420Y-13739984D02*
X8877325Y-13739984D01*
X8877325Y-13739984D02*
X8858277Y-13730460D01*
X8858277Y-13730460D02*
X8848753Y-13711412D01*
X8848753Y-13711412D02*
X8848753Y-13635222D01*
X8848753Y-13635222D02*
X8858277Y-13616174D01*
X8858277Y-13616174D02*
X8877325Y-13606650D01*
X8877325Y-13606650D02*
X8915420Y-13606650D01*
X8915420Y-13606650D02*
X8934468Y-13616174D01*
X8934468Y-13616174D02*
X8943992Y-13635222D01*
X8943992Y-13635222D02*
X8943992Y-13654269D01*
X8943992Y-13654269D02*
X8848753Y-13673317D01*
X9020182Y-13730460D02*
X9039230Y-13739984D01*
X9039230Y-13739984D02*
X9077325Y-13739984D01*
X9077325Y-13739984D02*
X9096373Y-13730460D01*
X9096373Y-13730460D02*
X9105896Y-13711412D01*
X9105896Y-13711412D02*
X9105896Y-13701888D01*
X9105896Y-13701888D02*
X9096373Y-13682841D01*
X9096373Y-13682841D02*
X9077325Y-13673317D01*
X9077325Y-13673317D02*
X9048753Y-13673317D01*
X9048753Y-13673317D02*
X9029706Y-13663793D01*
X9029706Y-13663793D02*
X9020182Y-13644746D01*
X9020182Y-13644746D02*
X9020182Y-13635222D01*
X9020182Y-13635222D02*
X9029706Y-13616174D01*
X9029706Y-13616174D02*
X9048753Y-13606650D01*
X9048753Y-13606650D02*
X9077325Y-13606650D01*
X9077325Y-13606650D02*
X9096373Y-13616174D01*
X9172563Y-13816174D02*
X9182087Y-13806650D01*
X9182087Y-13806650D02*
X9201134Y-13778079D01*
X9201134Y-13778079D02*
X9210658Y-13759031D01*
X9210658Y-13759031D02*
X9220182Y-13730460D01*
X9220182Y-13730460D02*
X9229706Y-13682841D01*
X9229706Y-13682841D02*
X9229706Y-13644746D01*
X9229706Y-13644746D02*
X9220182Y-13597127D01*
X9220182Y-13597127D02*
X9210658Y-13568555D01*
X9210658Y-13568555D02*
X9201134Y-13549508D01*
X9201134Y-13549508D02*
X9182087Y-13520936D01*
X9182087Y-13520936D02*
X9172563Y-13511412D01*
M02*
