%TF.GenerationSoftware,KiCad,Pcbnew,8.0.4*%
%TF.CreationDate,2024-07-29T01:22:02-07:00*%
%TF.ProjectId,panel_1,70616e65-6c5f-4312-9e6b-696361645f70,rev?*%
%TF.SameCoordinates,Original*%
%TF.FileFunction,Copper,L2,Bot*%
%TF.FilePolarity,Positive*%
%FSLAX46Y46*%
G04 Gerber Fmt 4.6, Leading zero omitted, Abs format (unit mm)*
G04 Created by KiCad (PCBNEW 8.0.4) date 2024-07-29 01:22:02*
%MOMM*%
%LPD*%
G01*
G04 APERTURE LIST*
G04 Aperture macros list*
%AMRoundRect*
0 Rectangle with rounded corners*
0 $1 Rounding radius*
0 $2 $3 $4 $5 $6 $7 $8 $9 X,Y pos of 4 corners*
0 Add a 4 corners polygon primitive as box body*
4,1,4,$2,$3,$4,$5,$6,$7,$8,$9,$2,$3,0*
0 Add four circle primitives for the rounded corners*
1,1,$1+$1,$2,$3*
1,1,$1+$1,$4,$5*
1,1,$1+$1,$6,$7*
1,1,$1+$1,$8,$9*
0 Add four rect primitives between the rounded corners*
20,1,$1+$1,$2,$3,$4,$5,0*
20,1,$1+$1,$4,$5,$6,$7,0*
20,1,$1+$1,$6,$7,$8,$9,0*
20,1,$1+$1,$8,$9,$2,$3,0*%
G04 Aperture macros list end*
%TA.AperFunction,ComponentPad*%
%ADD10R,1.000000X1.000000*%
%TD*%
%TA.AperFunction,SMDPad,CuDef*%
%ADD11RoundRect,0.250000X-1.329660X-0.531629X0.564293X-1.316130X1.329660X0.531629X-0.564293X1.316130X0*%
%TD*%
%TA.AperFunction,ComponentPad*%
%ADD12C,0.600000*%
%TD*%
%TA.AperFunction,ComponentPad*%
%ADD13C,1.400000*%
%TD*%
%TA.AperFunction,SMDPad,CuDef*%
%ADD14RoundRect,0.250000X-1.025000X-1.000000X1.025000X-1.000000X1.025000X1.000000X-1.025000X1.000000X0*%
%TD*%
%TA.AperFunction,ComponentPad*%
%ADD15O,1.000000X1.700000*%
%TD*%
%TA.AperFunction,ComponentPad*%
%ADD16O,1.000000X2.000000*%
%TD*%
%TA.AperFunction,SMDPad,CuDef*%
%ADD17RoundRect,0.250000X1.000000X-1.025000X1.000000X1.025000X-1.000000X1.025000X-1.000000X-1.025000X0*%
%TD*%
%TA.AperFunction,ViaPad*%
%ADD18C,0.800000*%
%TD*%
%TA.AperFunction,Conductor*%
%ADD19C,0.800000*%
%TD*%
%TA.AperFunction,Conductor*%
%ADD20C,0.150000*%
%TD*%
G04 APERTURE END LIST*
D10*
%TO.P,TP2,1,1*%
%TO.N,+1V1*%
X73900000Y-38500000D03*
%TD*%
D11*
%TO.P,SW20_RIGHT,2,2*%
%TO.N,GND*%
X133245279Y-80542329D03*
%TO.P,SW20_RIGHT,1,1*%
%TO.N,RIGHT*%
X120330272Y-77942034D03*
%TD*%
D12*
%TO.P,,57,GND*%
%TO.N,GND*%
X83700000Y-35824000D03*
%TD*%
D13*
%TO.P,J2,3,Pin_3*%
%TO.N,/Main/SWDIO*%
X94380000Y-31430000D03*
%TO.P,J2,2,Pin_2*%
%TO.N,GND*%
X96380000Y-31430000D03*
%TO.P,J2,1,Pin_1*%
%TO.N,/Main/SWCLK*%
X98380000Y-31430000D03*
%TD*%
D12*
%TO.P,,57,GND*%
%TO.N,GND*%
X84716000Y-35824000D03*
%TD*%
%TO.P,,57,GND*%
%TO.N,GND*%
X84716000Y-36840000D03*
%TD*%
D11*
%TO.P,SW17_W,2,2*%
%TO.N,GND*%
X124466227Y-51956786D03*
%TO.P,SW17_W,1,1*%
%TO.N,W*%
X111551220Y-49356491D03*
%TD*%
D12*
%TO.P,,57,GND*%
%TO.N,GND*%
X85732000Y-36840000D03*
%TD*%
D10*
%TO.P,TP1,1,1*%
%TO.N,+3.3V*%
X66000000Y-30750000D03*
%TD*%
D12*
%TO.P,,57,GND*%
%TO.N,GND*%
X84716000Y-37856000D03*
%TD*%
%TO.P,,57,GND*%
%TO.N,GND*%
X83700000Y-36840000D03*
%TD*%
D11*
%TO.P,SW18_DOWN,2,2*%
%TO.N,GND*%
X117176108Y-69556691D03*
%TO.P,SW18_DOWN,1,1*%
%TO.N,DOWN*%
X104261101Y-66956396D03*
%TD*%
D12*
%TO.P,,57,GND*%
%TO.N,GND*%
X85732000Y-35824000D03*
%TD*%
D14*
%TO.P,SW8_DP,2,2*%
%TO.N,GND*%
X65842000Y-66911696D03*
%TO.P,SW8_DP,1,1*%
%TO.N,L2*%
X52915000Y-69451696D03*
%TD*%
D12*
%TO.P,,57,GND*%
%TO.N,GND*%
X85732000Y-37856000D03*
%TD*%
D15*
%TO.P,J1,S1,SHIELD*%
%TO.N,Net-(J1-SHIELD)*%
X72060000Y-22100000D03*
D16*
X72060000Y-26295000D03*
D15*
X80700000Y-22100000D03*
D16*
X80700000Y-26295000D03*
%TD*%
D12*
%TO.P,,57,GND*%
%TO.N,GND*%
X83700000Y-37856000D03*
%TD*%
D11*
%TO.P,SW19_LEFT,2,2*%
%TO.N,GND*%
X99576203Y-62266572D03*
%TO.P,SW19_LEFT,1,1*%
%TO.N,LEFT*%
X86661196Y-59666277D03*
%TD*%
D17*
%TO.P,SW16_SPACE,1,1*%
%TO.N,/Buttons/SPACE*%
X82770000Y-106145000D03*
%TO.P,SW16_SPACE,2,2*%
%TO.N,GND*%
X80230000Y-93218000D03*
%TD*%
D18*
%TO.N,GND*%
X91880000Y-34430000D03*
X136000000Y-113500000D03*
X54880000Y-39930000D03*
X81668000Y-45222000D03*
X70873000Y-31252000D03*
X78880000Y-30930000D03*
X89380000Y-43430000D03*
X89669000Y-38364000D03*
X98813000Y-35189000D03*
X132300000Y-47250000D03*
X68968000Y-39761000D03*
X88500000Y-29000000D03*
X76778500Y-41602500D03*
X71880000Y-33930000D03*
%TO.N,+3.3V*%
X66500000Y-37500000D03*
X81630000Y-41930000D03*
X80630000Y-31430000D03*
X93380000Y-34180000D03*
X86000000Y-31430000D03*
X86880000Y-43930000D03*
%TO.N,DOWN*%
X104000000Y-64500000D03*
%TO.N,RIGHT*%
X119500000Y-75500000D03*
%TO.N,LEFT*%
X85000000Y-58000000D03*
%TO.N,L2*%
X55000000Y-64000000D03*
%TO.N,W*%
X109000000Y-48500000D03*
%TO.N,GND*%
X75765000Y-96035000D03*
%TO.N,/Buttons/SPACE*%
X76800000Y-106500000D03*
%TD*%
D19*
%TO.N,GND*%
X65842000Y-63158000D02*
X66000000Y-63000000D01*
X121800000Y-46800000D02*
X108200000Y-46800000D01*
X117176108Y-69556691D02*
X117176108Y-66176108D01*
X132300000Y-47250000D02*
X131850000Y-46800000D01*
X131850000Y-46800000D02*
X121800000Y-46800000D01*
X124466227Y-49466227D02*
X121800000Y-46800000D01*
X124466227Y-51956786D02*
X124466227Y-49466227D01*
X136000000Y-83297050D02*
X133245279Y-80542329D01*
X99576203Y-62266572D02*
X99576203Y-57076203D01*
X133245279Y-80542329D02*
X133245279Y-77245279D01*
X65842000Y-66911696D02*
X65842000Y-63158000D01*
X125556691Y-69556691D02*
X117176108Y-69556691D01*
X117176108Y-66176108D02*
X105000000Y-54000000D01*
X136000000Y-113500000D02*
X136000000Y-83297050D01*
X133245279Y-77245279D02*
X125556691Y-69556691D01*
%TO.N,+3.3V*%
X80906000Y-48778000D02*
X83630000Y-46054000D01*
X83630000Y-46054000D02*
X83630000Y-43930000D01*
X91130000Y-31930000D02*
X93380000Y-34180000D01*
X66500000Y-44532000D02*
X70746000Y-48778000D01*
X70746000Y-48778000D02*
X80906000Y-48778000D01*
X93380000Y-37430000D02*
X86880000Y-43930000D01*
X86880000Y-43930000D02*
X83630000Y-43930000D01*
X93380000Y-34180000D02*
X93380000Y-37430000D01*
X86000000Y-31430000D02*
X86500000Y-31930000D01*
X86500000Y-31930000D02*
X91130000Y-31930000D01*
X86000000Y-31430000D02*
X80630000Y-31430000D01*
X66500000Y-37500000D02*
X66500000Y-44532000D01*
X83630000Y-43930000D02*
X81630000Y-41930000D01*
D20*
%TO.N,DOWN*%
X104000000Y-64500000D02*
X104261101Y-64761101D01*
X104261101Y-64761101D02*
X104261101Y-66956396D01*
%TO.N,RIGHT*%
X120330272Y-77942034D02*
X120330272Y-76330272D01*
X120330272Y-76330272D02*
X119500000Y-75500000D01*
%TO.N,LEFT*%
X86661196Y-59666277D02*
X85000000Y-58005081D01*
X85000000Y-58005081D02*
X85000000Y-58000000D01*
%TO.N,L2*%
X52915000Y-66085000D02*
X55000000Y-64000000D01*
X52915000Y-69451696D02*
X52915000Y-66085000D01*
%TO.N,W*%
X109856491Y-49356491D02*
X109000000Y-48500000D01*
X111551220Y-49356491D02*
X109856491Y-49356491D01*
D19*
%TO.N,GND*%
X75765000Y-96035000D02*
X78582000Y-93218000D01*
X78582000Y-93218000D02*
X80230000Y-93218000D01*
D20*
%TO.N,/Buttons/SPACE*%
X76800000Y-106500000D02*
X77155000Y-106145000D01*
X77155000Y-106145000D02*
X82770000Y-106145000D01*
%TD*%
%TA.AperFunction,Conductor*%
%TO.N,GND*%
G36*
X81442539Y-20520185D02*
G01*
X81488294Y-20572989D01*
X81499500Y-20624500D01*
X81499500Y-20848929D01*
X81479815Y-20915968D01*
X81427011Y-20961723D01*
X81357853Y-20971667D01*
X81306609Y-20952031D01*
X81173920Y-20863371D01*
X81173907Y-20863364D01*
X80991839Y-20787950D01*
X80991829Y-20787947D01*
X80798543Y-20749500D01*
X80798541Y-20749500D01*
X80601459Y-20749500D01*
X80601457Y-20749500D01*
X80408170Y-20787947D01*
X80408160Y-20787950D01*
X80226092Y-20863364D01*
X80226079Y-20863371D01*
X80062218Y-20972860D01*
X80062214Y-20972863D01*
X79922863Y-21112214D01*
X79922860Y-21112218D01*
X79813371Y-21276079D01*
X79813364Y-21276092D01*
X79737950Y-21458160D01*
X79737947Y-21458170D01*
X79699500Y-21651456D01*
X79699500Y-21651459D01*
X79699500Y-22548541D01*
X79699500Y-22548543D01*
X79699499Y-22548543D01*
X79737947Y-22741829D01*
X79737950Y-22741839D01*
X79813364Y-22923907D01*
X79813371Y-22923920D01*
X79922860Y-23087781D01*
X79922863Y-23087785D01*
X80062214Y-23227136D01*
X80062218Y-23227139D01*
X80226079Y-23336628D01*
X80226092Y-23336635D01*
X80408160Y-23412049D01*
X80408165Y-23412051D01*
X80408169Y-23412051D01*
X80408170Y-23412052D01*
X80601456Y-23450500D01*
X80601459Y-23450500D01*
X80798543Y-23450500D01*
X80928582Y-23424632D01*
X80991835Y-23412051D01*
X81173914Y-23336632D01*
X81306609Y-23247967D01*
X81373286Y-23227090D01*
X81440666Y-23245574D01*
X81487357Y-23297553D01*
X81499500Y-23351070D01*
X81499500Y-24893929D01*
X81479815Y-24960968D01*
X81427011Y-25006723D01*
X81357853Y-25016667D01*
X81306609Y-24997031D01*
X81173920Y-24908371D01*
X81173907Y-24908364D01*
X80991839Y-24832950D01*
X80991829Y-24832947D01*
X80798543Y-24794500D01*
X80798541Y-24794500D01*
X80601459Y-24794500D01*
X80601457Y-24794500D01*
X80408170Y-24832947D01*
X80408160Y-24832950D01*
X80226092Y-24908364D01*
X80226079Y-24908371D01*
X80062218Y-25017860D01*
X80062214Y-25017863D01*
X79922863Y-25157214D01*
X79922860Y-25157218D01*
X79813371Y-25321079D01*
X79810498Y-25326456D01*
X79808761Y-25325527D01*
X79770611Y-25372867D01*
X79704316Y-25394929D01*
X79636617Y-25377648D01*
X79612213Y-25358689D01*
X79608017Y-25354493D01*
X79608011Y-25354488D01*
X79482488Y-25282017D01*
X79482489Y-25282017D01*
X79471006Y-25278940D01*
X79342475Y-25244500D01*
X79197525Y-25244500D01*
X79068993Y-25278940D01*
X79057511Y-25282017D01*
X78931988Y-25354488D01*
X78931982Y-25354493D01*
X78829493Y-25456982D01*
X78829488Y-25456988D01*
X78757017Y-25582511D01*
X78757016Y-25582515D01*
X78719500Y-25722525D01*
X78719500Y-25867475D01*
X78757016Y-26007485D01*
X78757017Y-26007488D01*
X78829488Y-26133011D01*
X78829490Y-26133013D01*
X78829491Y-26133015D01*
X78931985Y-26235509D01*
X78931986Y-26235510D01*
X78931988Y-26235511D01*
X79057511Y-26307982D01*
X79057512Y-26307982D01*
X79057515Y-26307984D01*
X79197525Y-26345500D01*
X79197528Y-26345500D01*
X79342472Y-26345500D01*
X79342475Y-26345500D01*
X79482485Y-26307984D01*
X79513499Y-26290077D01*
X79581397Y-26273604D01*
X79647425Y-26296455D01*
X79690617Y-26351375D01*
X79699500Y-26397464D01*
X79699500Y-26893541D01*
X79699500Y-26893543D01*
X79699499Y-26893543D01*
X79737947Y-27086829D01*
X79737950Y-27086839D01*
X79813364Y-27268907D01*
X79813371Y-27268920D01*
X79922860Y-27432781D01*
X79922863Y-27432785D01*
X80062214Y-27572136D01*
X80062218Y-27572139D01*
X80226079Y-27681628D01*
X80226092Y-27681635D01*
X80376526Y-27743946D01*
X80408165Y-27757051D01*
X80408169Y-27757051D01*
X80408170Y-27757052D01*
X80601456Y-27795500D01*
X80601459Y-27795500D01*
X80798543Y-27795500D01*
X80928582Y-27769632D01*
X80991835Y-27757051D01*
X81173914Y-27681632D01*
X81337782Y-27572139D01*
X81477139Y-27432782D01*
X81586632Y-27268914D01*
X81662051Y-27086835D01*
X81700500Y-26893541D01*
X81700500Y-25696459D01*
X81700499Y-25696456D01*
X81693664Y-25662094D01*
X81685077Y-25618924D01*
X81691304Y-25549334D01*
X81734166Y-25494156D01*
X81800056Y-25470911D01*
X81838779Y-25474957D01*
X81934108Y-25500500D01*
X81934111Y-25500500D01*
X115671170Y-25500500D01*
X115738209Y-25520185D01*
X115783964Y-25572989D01*
X115793908Y-25642147D01*
X115789333Y-25662094D01*
X114896003Y-28469706D01*
X108824138Y-47552705D01*
X108785053Y-47610620D01*
X108731761Y-47636397D01*
X108720199Y-47638854D01*
X108720192Y-47638857D01*
X108547270Y-47715848D01*
X108547265Y-47715851D01*
X108394129Y-47827111D01*
X108267466Y-47967785D01*
X108172821Y-48131715D01*
X108172818Y-48131722D01*
X108114327Y-48311740D01*
X108114326Y-48311744D01*
X108094540Y-48500000D01*
X108114326Y-48688256D01*
X108114327Y-48688259D01*
X108172818Y-48868277D01*
X108172821Y-48868284D01*
X108267467Y-49032216D01*
X108283383Y-49049892D01*
X108313613Y-49112883D01*
X108309397Y-49170462D01*
X105527492Y-57913597D01*
X105488407Y-57971512D01*
X105424216Y-57999103D01*
X105409329Y-58000000D01*
X87237388Y-58000000D01*
X87189935Y-57990561D01*
X86337903Y-57637638D01*
X86238929Y-57608006D01*
X86238927Y-57608005D01*
X86238922Y-57608004D01*
X86238919Y-57608003D01*
X86238916Y-57608003D01*
X86063945Y-57595256D01*
X85912497Y-57619695D01*
X85843178Y-57610941D01*
X85789596Y-57566100D01*
X85785357Y-57559278D01*
X85783816Y-57556608D01*
X85732533Y-57467784D01*
X85605871Y-57327112D01*
X85605870Y-57327111D01*
X85452734Y-57215851D01*
X85452729Y-57215848D01*
X85279807Y-57138857D01*
X85279802Y-57138855D01*
X85134001Y-57107865D01*
X85094646Y-57099500D01*
X84905354Y-57099500D01*
X84872897Y-57106398D01*
X84720197Y-57138855D01*
X84720192Y-57138857D01*
X84547270Y-57215848D01*
X84547265Y-57215851D01*
X84394129Y-57327111D01*
X84267466Y-57467785D01*
X84172821Y-57631715D01*
X84172818Y-57631722D01*
X84114327Y-57811740D01*
X84114326Y-57811744D01*
X84094540Y-58000000D01*
X84114326Y-58188256D01*
X84114327Y-58188259D01*
X84172818Y-58368277D01*
X84172821Y-58368284D01*
X84267467Y-58532216D01*
X84394129Y-58672888D01*
X84547265Y-58784148D01*
X84547270Y-58784151D01*
X84720192Y-58861142D01*
X84720197Y-58861144D01*
X84898529Y-58899049D01*
X84960010Y-58932241D01*
X84993787Y-58993404D01*
X84989135Y-59063119D01*
X84987309Y-59067792D01*
X84619027Y-59956905D01*
X84589395Y-60055879D01*
X84589392Y-60055892D01*
X84586858Y-60090685D01*
X84566360Y-60150458D01*
X82036811Y-63944783D01*
X81983246Y-63989644D01*
X81933637Y-64000000D01*
X79974500Y-64000000D01*
X79907461Y-63980315D01*
X79861706Y-63927511D01*
X79851954Y-63882685D01*
X79850766Y-63882763D01*
X79850500Y-63878717D01*
X79850500Y-63878712D01*
X79818838Y-63638211D01*
X79756054Y-63403900D01*
X79663224Y-63179788D01*
X79541936Y-62969711D01*
X79449315Y-62849005D01*
X79394266Y-62777263D01*
X79394260Y-62777256D01*
X79222743Y-62605739D01*
X79222736Y-62605733D01*
X79030293Y-62458067D01*
X79030292Y-62458066D01*
X79030289Y-62458064D01*
X78820212Y-62336776D01*
X78703188Y-62288303D01*
X78596104Y-62243947D01*
X78478944Y-62212554D01*
X78361789Y-62181162D01*
X78361788Y-62181161D01*
X78361785Y-62181161D01*
X78121289Y-62149500D01*
X78121288Y-62149500D01*
X77878712Y-62149500D01*
X77878711Y-62149500D01*
X77638214Y-62181161D01*
X77403895Y-62243947D01*
X77179794Y-62336773D01*
X77179785Y-62336777D01*
X76969706Y-62458067D01*
X76777263Y-62605733D01*
X76777256Y-62605739D01*
X76605739Y-62777256D01*
X76605733Y-62777263D01*
X76458067Y-62969706D01*
X76336777Y-63179785D01*
X76336773Y-63179794D01*
X76243947Y-63403895D01*
X76181161Y-63638214D01*
X76149499Y-63878717D01*
X76149234Y-63882763D01*
X76147546Y-63882652D01*
X76129815Y-63943039D01*
X76077011Y-63988794D01*
X76025500Y-64000000D01*
X56017110Y-64000000D01*
X55950071Y-63980315D01*
X55904316Y-63927511D01*
X55893790Y-63888964D01*
X55885674Y-63811744D01*
X55827179Y-63631716D01*
X55732533Y-63467784D01*
X55605871Y-63327112D01*
X55605870Y-63327111D01*
X55452734Y-63215851D01*
X55452729Y-63215848D01*
X55279807Y-63138857D01*
X55279802Y-63138855D01*
X55134001Y-63107865D01*
X55094646Y-63099500D01*
X54905354Y-63099500D01*
X54872897Y-63106398D01*
X54720197Y-63138855D01*
X54720192Y-63138857D01*
X54547270Y-63215848D01*
X54547265Y-63215851D01*
X54394129Y-63327111D01*
X54267466Y-63467785D01*
X54172821Y-63631715D01*
X54172818Y-63631722D01*
X54136719Y-63742825D01*
X54114326Y-63811744D01*
X54106210Y-63888963D01*
X54079627Y-63953576D01*
X54022329Y-63993561D01*
X53982890Y-64000000D01*
X44624500Y-64000000D01*
X44557461Y-63980315D01*
X44511706Y-63927511D01*
X44500500Y-63876000D01*
X44500500Y-37499999D01*
X65594540Y-37499999D01*
X65598821Y-37540731D01*
X65599500Y-37553692D01*
X65599500Y-44620696D01*
X65634103Y-44794658D01*
X65634105Y-44794666D01*
X65668046Y-44876606D01*
X65668046Y-44876607D01*
X65701984Y-44958542D01*
X65701985Y-44958544D01*
X65761063Y-45046960D01*
X65761064Y-45046961D01*
X65800534Y-45106034D01*
X65800535Y-45106035D01*
X65800536Y-45106036D01*
X70046536Y-49352035D01*
X70171965Y-49477464D01*
X70319453Y-49576013D01*
X70367452Y-49595895D01*
X70483334Y-49643895D01*
X70657303Y-49678499D01*
X70657307Y-49678500D01*
X70657308Y-49678500D01*
X80994693Y-49678500D01*
X80994694Y-49678499D01*
X81168666Y-49643895D01*
X81250606Y-49609953D01*
X81332547Y-49576013D01*
X81332549Y-49576011D01*
X81332552Y-49576010D01*
X81420955Y-49516939D01*
X81420955Y-49516938D01*
X81420959Y-49516936D01*
X81480036Y-49477464D01*
X84329464Y-46628035D01*
X84428013Y-46480547D01*
X84447895Y-46432547D01*
X84495895Y-46316666D01*
X84530500Y-46142692D01*
X84530500Y-45965308D01*
X84530500Y-44954500D01*
X84550185Y-44887461D01*
X84602989Y-44841706D01*
X84654500Y-44830500D01*
X86974645Y-44830500D01*
X86974646Y-44830500D01*
X87060699Y-44812208D01*
X87062134Y-44811912D01*
X87142666Y-44795895D01*
X87142671Y-44795893D01*
X87148495Y-44794127D01*
X87148628Y-44794568D01*
X87159319Y-44791247D01*
X87159509Y-44791206D01*
X87159803Y-44791144D01*
X87234057Y-44758082D01*
X87236955Y-44756837D01*
X87306547Y-44728013D01*
X87307633Y-44727287D01*
X87326095Y-44717104D01*
X87332730Y-44714151D01*
X87393039Y-44670333D01*
X87396966Y-44667595D01*
X87454036Y-44629464D01*
X87459735Y-44623763D01*
X87474533Y-44611124D01*
X87485871Y-44602888D01*
X87531265Y-44552471D01*
X87535697Y-44547801D01*
X94079464Y-38004036D01*
X94118936Y-37944959D01*
X94178013Y-37856547D01*
X94222353Y-37749500D01*
X94245895Y-37692666D01*
X94280500Y-37518692D01*
X94280500Y-37341308D01*
X94280500Y-34233692D01*
X94281179Y-34220731D01*
X94285460Y-34180000D01*
X94281179Y-34139266D01*
X94280500Y-34126306D01*
X94280500Y-34091309D01*
X94272360Y-34050393D01*
X94270656Y-34039156D01*
X94265674Y-33991744D01*
X94255095Y-33959189D01*
X94251412Y-33945075D01*
X94245895Y-33917334D01*
X94227350Y-33872563D01*
X94223986Y-33863442D01*
X94207180Y-33811718D01*
X94207179Y-33811716D01*
X94193426Y-33787896D01*
X94186257Y-33773359D01*
X94180341Y-33759075D01*
X94178695Y-33754474D01*
X94178013Y-33753453D01*
X94147368Y-33707591D01*
X94143088Y-33700708D01*
X94112531Y-33647781D01*
X94112530Y-33647780D01*
X94098637Y-33632350D01*
X94087684Y-33618268D01*
X94079464Y-33605965D01*
X94035724Y-33562225D01*
X94031255Y-33557516D01*
X93985872Y-33507113D01*
X93985871Y-33507112D01*
X93974525Y-33498869D01*
X93959734Y-33486235D01*
X93954035Y-33480536D01*
X91903499Y-31429999D01*
X93174357Y-31429999D01*
X93174357Y-31430000D01*
X93194884Y-31651535D01*
X93194885Y-31651537D01*
X93255769Y-31865523D01*
X93255775Y-31865538D01*
X93354938Y-32064683D01*
X93354943Y-32064691D01*
X93489020Y-32242238D01*
X93653437Y-32392123D01*
X93653439Y-32392125D01*
X93842595Y-32509245D01*
X93842596Y-32509245D01*
X93842599Y-32509247D01*
X94050060Y-32589618D01*
X94268757Y-32630500D01*
X94268759Y-32630500D01*
X94491241Y-32630500D01*
X94491243Y-32630500D01*
X94709940Y-32589618D01*
X94917401Y-32509247D01*
X95034280Y-32436879D01*
X95726672Y-32436879D01*
X95726672Y-32436880D01*
X95842821Y-32508797D01*
X95842822Y-32508798D01*
X96050195Y-32589134D01*
X96268807Y-32630000D01*
X96491193Y-32630000D01*
X96709809Y-32589133D01*
X96917168Y-32508801D01*
X96917181Y-32508795D01*
X97033326Y-32436879D01*
X96380001Y-31783553D01*
X96380000Y-31783553D01*
X95726672Y-32436879D01*
X95034280Y-32436879D01*
X95106562Y-32392124D01*
X95270981Y-32242236D01*
X95405058Y-32064689D01*
X95409232Y-32056305D01*
X95432553Y-32023892D01*
X96026447Y-31430000D01*
X95980369Y-31383922D01*
X96030000Y-31383922D01*
X96030000Y-31476078D01*
X96053852Y-31565095D01*
X96099930Y-31644905D01*
X96165095Y-31710070D01*
X96244905Y-31756148D01*
X96333922Y-31780000D01*
X96426078Y-31780000D01*
X96515095Y-31756148D01*
X96594905Y-31710070D01*
X96660070Y-31644905D01*
X96706148Y-31565095D01*
X96730000Y-31476078D01*
X96730000Y-31429999D01*
X96733553Y-31429999D01*
X96733553Y-31430000D01*
X97327447Y-32023894D01*
X97350765Y-32056301D01*
X97354942Y-32064689D01*
X97489020Y-32242238D01*
X97653437Y-32392123D01*
X97653439Y-32392125D01*
X97842595Y-32509245D01*
X97842596Y-32509245D01*
X97842599Y-32509247D01*
X98050060Y-32589618D01*
X98268757Y-32630500D01*
X98268759Y-32630500D01*
X98491241Y-32630500D01*
X98491243Y-32630500D01*
X98709940Y-32589618D01*
X98917401Y-32509247D01*
X99106562Y-32392124D01*
X99270981Y-32242236D01*
X99405058Y-32064689D01*
X99504229Y-31865528D01*
X99565115Y-31651536D01*
X99585643Y-31430000D01*
X99575342Y-31318838D01*
X99565115Y-31208464D01*
X99565114Y-31208462D01*
X99563341Y-31202231D01*
X99504229Y-30994472D01*
X99504224Y-30994461D01*
X99405061Y-30795316D01*
X99405056Y-30795308D01*
X99270979Y-30617761D01*
X99106562Y-30467876D01*
X99106560Y-30467874D01*
X98917404Y-30350754D01*
X98917398Y-30350752D01*
X98709940Y-30270382D01*
X98491243Y-30229500D01*
X98268757Y-30229500D01*
X98050060Y-30270382D01*
X97921452Y-30320205D01*
X97842601Y-30350752D01*
X97842595Y-30350754D01*
X97653439Y-30467874D01*
X97653437Y-30467876D01*
X97489019Y-30617762D01*
X97489017Y-30617765D01*
X97354943Y-30795309D01*
X97354940Y-30795313D01*
X97350763Y-30803702D01*
X97327448Y-30836103D01*
X96733553Y-31429999D01*
X96730000Y-31429999D01*
X96730000Y-31383922D01*
X96706148Y-31294905D01*
X96660070Y-31215095D01*
X96594905Y-31149930D01*
X96515095Y-31103852D01*
X96426078Y-31080000D01*
X96333922Y-31080000D01*
X96244905Y-31103852D01*
X96165095Y-31149930D01*
X96099930Y-31215095D01*
X96053852Y-31294905D01*
X96030000Y-31383922D01*
X95980369Y-31383922D01*
X95432553Y-30836106D01*
X95409233Y-30803695D01*
X95405060Y-30795315D01*
X95405056Y-30795308D01*
X95270979Y-30617761D01*
X95106562Y-30467876D01*
X95106560Y-30467874D01*
X95034278Y-30423119D01*
X95726671Y-30423119D01*
X96380000Y-31076447D01*
X96380001Y-31076447D01*
X97033327Y-30423119D01*
X96917178Y-30351202D01*
X96917177Y-30351201D01*
X96709804Y-30270865D01*
X96491193Y-30230000D01*
X96268807Y-30230000D01*
X96050195Y-30270865D01*
X95842824Y-30351200D01*
X95842823Y-30351201D01*
X95726671Y-30423119D01*
X95034278Y-30423119D01*
X94917404Y-30350754D01*
X94917398Y-30350752D01*
X94709940Y-30270382D01*
X94491243Y-30229500D01*
X94268757Y-30229500D01*
X94050060Y-30270382D01*
X93921452Y-30320205D01*
X93842601Y-30350752D01*
X93842595Y-30350754D01*
X93653439Y-30467874D01*
X93653437Y-30467876D01*
X93489020Y-30617761D01*
X93354943Y-30795308D01*
X93354938Y-30795316D01*
X93255775Y-30994461D01*
X93255769Y-30994476D01*
X93194885Y-31208462D01*
X93194884Y-31208464D01*
X93174357Y-31429999D01*
X91903499Y-31429999D01*
X91704035Y-31230535D01*
X91704030Y-31230531D01*
X91644961Y-31191064D01*
X91644960Y-31191063D01*
X91556544Y-31131985D01*
X91556542Y-31131984D01*
X91474607Y-31098046D01*
X91474606Y-31098046D01*
X91392666Y-31064105D01*
X91392658Y-31064103D01*
X91218696Y-31029500D01*
X91218692Y-31029500D01*
X91218691Y-31029500D01*
X86924362Y-31029500D01*
X86857323Y-31009815D01*
X86836681Y-30993181D01*
X86655716Y-30812216D01*
X86651246Y-30807506D01*
X86605875Y-30757115D01*
X86605871Y-30757112D01*
X86594531Y-30748873D01*
X86579738Y-30736238D01*
X86574036Y-30730536D01*
X86562373Y-30722743D01*
X86517021Y-30692439D01*
X86513028Y-30689656D01*
X86452732Y-30645850D01*
X86452728Y-30645848D01*
X86446092Y-30642893D01*
X86427643Y-30632719D01*
X86426551Y-30631989D01*
X86426546Y-30631986D01*
X86356993Y-30603177D01*
X86354010Y-30601895D01*
X86279806Y-30568857D01*
X86279804Y-30568856D01*
X86279803Y-30568856D01*
X86279294Y-30568747D01*
X86268632Y-30565437D01*
X86268500Y-30565874D01*
X86262667Y-30564105D01*
X86182222Y-30548103D01*
X86180633Y-30547776D01*
X86094650Y-30529500D01*
X86094646Y-30529500D01*
X86088691Y-30529500D01*
X80724646Y-30529500D01*
X80535354Y-30529500D01*
X80535350Y-30529500D01*
X80449334Y-30547783D01*
X80447745Y-30548110D01*
X80367336Y-30564105D01*
X80361514Y-30565871D01*
X80361382Y-30565437D01*
X80350720Y-30568744D01*
X80350200Y-30568854D01*
X80350199Y-30568854D01*
X80275969Y-30601904D01*
X80272986Y-30603185D01*
X80203457Y-30631984D01*
X80203450Y-30631988D01*
X80202346Y-30632726D01*
X80183911Y-30642892D01*
X80177272Y-30645848D01*
X80177264Y-30645853D01*
X80116976Y-30689653D01*
X80112986Y-30692434D01*
X80055968Y-30730533D01*
X80055958Y-30730542D01*
X80050253Y-30736246D01*
X80035472Y-30748870D01*
X80024129Y-30757111D01*
X80024126Y-30757114D01*
X79978742Y-30807517D01*
X79974277Y-30812222D01*
X79930539Y-30855961D01*
X79930532Y-30855969D01*
X79922310Y-30868275D01*
X79911362Y-30882350D01*
X79897472Y-30897776D01*
X79897467Y-30897784D01*
X79866914Y-30950703D01*
X79862630Y-30957591D01*
X79831988Y-31003450D01*
X79823741Y-31023360D01*
X79816569Y-31037902D01*
X79802824Y-31061710D01*
X79802821Y-31061715D01*
X79786010Y-31113451D01*
X79782643Y-31122578D01*
X79764106Y-31167333D01*
X79758589Y-31195066D01*
X79754905Y-31209183D01*
X79744325Y-31241747D01*
X79739340Y-31289171D01*
X79737638Y-31300396D01*
X79729500Y-31341310D01*
X79729500Y-31376306D01*
X79728821Y-31389266D01*
X79724540Y-31429999D01*
X79728821Y-31470731D01*
X79729500Y-31483692D01*
X79729500Y-31518695D01*
X79737637Y-31559602D01*
X79739341Y-31570831D01*
X79744325Y-31618253D01*
X79744325Y-31618254D01*
X79754904Y-31650811D01*
X79758590Y-31664938D01*
X79764104Y-31692662D01*
X79764105Y-31692664D01*
X79782644Y-31737423D01*
X79786012Y-31746554D01*
X79802819Y-31798279D01*
X79802822Y-31798286D01*
X79816569Y-31822097D01*
X79823742Y-31836643D01*
X79831984Y-31856542D01*
X79862634Y-31902413D01*
X79866919Y-31909304D01*
X79897468Y-31962218D01*
X79897469Y-31962219D01*
X79911357Y-31977643D01*
X79922307Y-31991721D01*
X79930534Y-32004033D01*
X79974274Y-32047773D01*
X79978744Y-32052483D01*
X80024129Y-32102888D01*
X80024131Y-32102890D01*
X80035467Y-32111126D01*
X80050263Y-32123763D01*
X80055961Y-32129461D01*
X80055965Y-32129464D01*
X80112994Y-32167570D01*
X80116967Y-32170339D01*
X80177270Y-32214151D01*
X80183902Y-32217104D01*
X80202361Y-32227283D01*
X80203453Y-32228013D01*
X80273042Y-32256836D01*
X80275987Y-32258102D01*
X80350197Y-32291144D01*
X80350696Y-32291250D01*
X80361370Y-32294562D01*
X80361503Y-32294125D01*
X80367330Y-32295892D01*
X80367334Y-32295894D01*
X80447816Y-32311902D01*
X80449282Y-32312204D01*
X80535354Y-32330500D01*
X80541309Y-32330500D01*
X85575639Y-32330500D01*
X85642678Y-32350185D01*
X85663320Y-32366819D01*
X85800536Y-32504035D01*
X85925965Y-32629464D01*
X86073453Y-32728013D01*
X86121452Y-32747895D01*
X86237334Y-32795895D01*
X86411303Y-32830499D01*
X86411307Y-32830500D01*
X86411308Y-32830500D01*
X86411309Y-32830500D01*
X90705638Y-32830500D01*
X90772677Y-32850185D01*
X90793319Y-32866819D01*
X92443181Y-34516680D01*
X92476666Y-34578003D01*
X92479500Y-34604361D01*
X92479500Y-37005638D01*
X92459815Y-37072677D01*
X92443181Y-37093319D01*
X86543319Y-42993181D01*
X86481996Y-43026666D01*
X86455638Y-43029500D01*
X84054362Y-43029500D01*
X83987323Y-43009815D01*
X83966681Y-42993181D01*
X82285715Y-41312215D01*
X82281245Y-41307505D01*
X82235875Y-41257115D01*
X82235871Y-41257112D01*
X82224531Y-41248873D01*
X82209738Y-41236238D01*
X82204036Y-41230536D01*
X82204032Y-41230533D01*
X82204031Y-41230532D01*
X82147021Y-41192439D01*
X82143028Y-41189657D01*
X82119977Y-41172910D01*
X82082730Y-41145849D01*
X82076081Y-41142888D01*
X82057636Y-41132716D01*
X82057022Y-41132305D01*
X82056546Y-41131987D01*
X82020459Y-41117039D01*
X81986984Y-41103173D01*
X81984039Y-41101907D01*
X81909804Y-41068856D01*
X81909618Y-41068816D01*
X81909294Y-41068747D01*
X81898632Y-41065437D01*
X81898500Y-41065874D01*
X81892667Y-41064105D01*
X81812222Y-41048103D01*
X81810633Y-41047776D01*
X81724650Y-41029500D01*
X81724646Y-41029500D01*
X81535354Y-41029500D01*
X81449306Y-41047789D01*
X81447717Y-41048115D01*
X81367333Y-41064104D01*
X81361508Y-41065871D01*
X81361378Y-41065443D01*
X81350726Y-41068743D01*
X81350202Y-41068854D01*
X81350198Y-41068855D01*
X81275971Y-41101902D01*
X81272994Y-41103181D01*
X81203453Y-41131988D01*
X81203450Y-41131989D01*
X81202342Y-41132730D01*
X81183921Y-41142886D01*
X81177279Y-41145843D01*
X81177273Y-41145847D01*
X81116993Y-41189641D01*
X81113004Y-41192421D01*
X81055967Y-41230533D01*
X81055955Y-41230543D01*
X81050251Y-41236247D01*
X81035468Y-41248872D01*
X81024136Y-41257105D01*
X81024126Y-41257114D01*
X80978751Y-41307507D01*
X80974286Y-41312212D01*
X80930539Y-41355960D01*
X80930532Y-41355968D01*
X80922308Y-41368277D01*
X80911361Y-41382352D01*
X80897468Y-41397782D01*
X80897467Y-41397783D01*
X80866907Y-41450713D01*
X80862626Y-41457597D01*
X80831987Y-41503454D01*
X80823742Y-41523357D01*
X80816575Y-41537890D01*
X80802820Y-41561716D01*
X80802818Y-41561721D01*
X80786010Y-41613449D01*
X80782642Y-41622580D01*
X80764105Y-41667333D01*
X80764103Y-41667341D01*
X80758588Y-41695067D01*
X80754902Y-41709193D01*
X80744326Y-41741743D01*
X80744325Y-41741746D01*
X80739341Y-41789160D01*
X80737639Y-41800384D01*
X80729500Y-41841307D01*
X80729500Y-41876306D01*
X80728821Y-41889266D01*
X80724540Y-41929999D01*
X80728821Y-41970731D01*
X80729500Y-41983692D01*
X80729500Y-42018692D01*
X80737639Y-42059614D01*
X80739341Y-42070839D01*
X80744325Y-42118249D01*
X80744326Y-42118256D01*
X80754903Y-42150807D01*
X80758587Y-42164927D01*
X80764105Y-42192665D01*
X80764106Y-42192670D01*
X80782641Y-42237417D01*
X80786011Y-42246550D01*
X80802820Y-42298282D01*
X80816571Y-42322100D01*
X80823743Y-42336644D01*
X80831986Y-42356544D01*
X80831988Y-42356547D01*
X80862626Y-42402402D01*
X80866910Y-42409290D01*
X80897467Y-42462216D01*
X80911355Y-42477640D01*
X80922307Y-42491721D01*
X80930535Y-42504035D01*
X80974283Y-42547783D01*
X80978752Y-42552492D01*
X81024129Y-42602888D01*
X81035467Y-42611125D01*
X81050261Y-42623761D01*
X82693181Y-44266681D01*
X82726666Y-44328004D01*
X82729500Y-44354362D01*
X82729500Y-45629638D01*
X82709815Y-45696677D01*
X82693181Y-45717319D01*
X80569319Y-47841181D01*
X80507996Y-47874666D01*
X80481638Y-47877500D01*
X71170361Y-47877500D01*
X71103322Y-47857815D01*
X71082680Y-47841181D01*
X67436819Y-44195319D01*
X67403334Y-44133996D01*
X67400500Y-44107638D01*
X67400500Y-37952135D01*
X72899500Y-37952135D01*
X72899500Y-39047870D01*
X72899501Y-39047876D01*
X72905908Y-39107483D01*
X72956202Y-39242328D01*
X72956206Y-39242335D01*
X73042452Y-39357544D01*
X73042455Y-39357547D01*
X73157664Y-39443793D01*
X73157671Y-39443797D01*
X73292517Y-39494091D01*
X73292516Y-39494091D01*
X73299444Y-39494835D01*
X73352127Y-39500500D01*
X74447872Y-39500499D01*
X74507483Y-39494091D01*
X74642331Y-39443796D01*
X74757546Y-39357546D01*
X74843796Y-39242331D01*
X74894091Y-39107483D01*
X74900500Y-39047873D01*
X74900499Y-37952128D01*
X74894091Y-37892517D01*
X74843796Y-37757669D01*
X74843795Y-37757668D01*
X74843793Y-37757664D01*
X74757547Y-37642455D01*
X74757544Y-37642452D01*
X74642335Y-37556206D01*
X74642328Y-37556202D01*
X74507482Y-37505908D01*
X74507483Y-37505908D01*
X74447883Y-37499501D01*
X74447881Y-37499500D01*
X74447873Y-37499500D01*
X74447864Y-37499500D01*
X73352129Y-37499500D01*
X73352123Y-37499501D01*
X73292516Y-37505908D01*
X73157671Y-37556202D01*
X73157664Y-37556206D01*
X73042455Y-37642452D01*
X73042452Y-37642455D01*
X72956206Y-37757664D01*
X72956202Y-37757671D01*
X72905908Y-37892517D01*
X72899501Y-37952116D01*
X72899501Y-37952123D01*
X72899500Y-37952135D01*
X67400500Y-37952135D01*
X67400500Y-37553692D01*
X67401179Y-37540731D01*
X67405460Y-37500000D01*
X67401179Y-37459266D01*
X67400500Y-37446306D01*
X67400500Y-37411309D01*
X67392360Y-37370393D01*
X67390656Y-37359156D01*
X67385674Y-37311744D01*
X67375094Y-37279183D01*
X67371409Y-37265059D01*
X67365895Y-37237339D01*
X67365894Y-37237338D01*
X67365894Y-37237334D01*
X67347352Y-37192569D01*
X67343990Y-37183455D01*
X67327181Y-37131720D01*
X67327178Y-37131715D01*
X67313424Y-37107892D01*
X67306256Y-37093355D01*
X67298014Y-37073456D01*
X67298013Y-37073454D01*
X67298013Y-37073453D01*
X67267359Y-37027577D01*
X67263088Y-37020708D01*
X67232534Y-36967785D01*
X67232530Y-36967780D01*
X67218637Y-36952350D01*
X67207684Y-36938268D01*
X67199464Y-36925965D01*
X67155721Y-36882222D01*
X67151255Y-36877516D01*
X67105871Y-36827112D01*
X67105870Y-36827111D01*
X67094527Y-36818870D01*
X67079737Y-36806238D01*
X67074035Y-36800536D01*
X67017008Y-36762431D01*
X67013016Y-36759649D01*
X66952730Y-36715849D01*
X66946092Y-36712893D01*
X66927643Y-36702719D01*
X66926551Y-36701989D01*
X66926546Y-36701986D01*
X66856993Y-36673177D01*
X66854010Y-36671895D01*
X66779806Y-36638856D01*
X66779797Y-36638853D01*
X66779285Y-36638745D01*
X66768626Y-36635438D01*
X66768494Y-36635874D01*
X66762667Y-36634106D01*
X66762666Y-36634106D01*
X66762663Y-36634105D01*
X66762662Y-36634105D01*
X66682268Y-36618113D01*
X66680715Y-36617794D01*
X66594646Y-36599500D01*
X66405354Y-36599500D01*
X66405350Y-36599500D01*
X66319334Y-36617783D01*
X66317745Y-36618110D01*
X66237336Y-36634105D01*
X66231514Y-36635871D01*
X66231382Y-36635437D01*
X66220720Y-36638744D01*
X66220200Y-36638854D01*
X66220199Y-36638854D01*
X66145969Y-36671904D01*
X66142986Y-36673185D01*
X66073457Y-36701984D01*
X66073450Y-36701988D01*
X66072346Y-36702726D01*
X66053911Y-36712892D01*
X66047272Y-36715848D01*
X66047264Y-36715853D01*
X65986976Y-36759653D01*
X65982986Y-36762434D01*
X65925968Y-36800533D01*
X65925958Y-36800542D01*
X65920253Y-36806246D01*
X65905472Y-36818870D01*
X65894129Y-36827111D01*
X65894126Y-36827114D01*
X65848742Y-36877517D01*
X65844277Y-36882222D01*
X65800539Y-36925961D01*
X65800532Y-36925969D01*
X65792310Y-36938275D01*
X65781362Y-36952350D01*
X65767472Y-36967776D01*
X65767467Y-36967784D01*
X65736914Y-37020703D01*
X65732630Y-37027591D01*
X65701988Y-37073450D01*
X65693741Y-37093360D01*
X65686569Y-37107902D01*
X65672824Y-37131710D01*
X65672821Y-37131715D01*
X65656010Y-37183451D01*
X65652643Y-37192578D01*
X65634106Y-37237333D01*
X65628589Y-37265066D01*
X65624905Y-37279183D01*
X65614325Y-37311747D01*
X65609340Y-37359171D01*
X65607638Y-37370396D01*
X65599500Y-37411310D01*
X65599500Y-37446306D01*
X65598821Y-37459266D01*
X65594540Y-37499999D01*
X44500500Y-37499999D01*
X44500500Y-29378711D01*
X47149500Y-29378711D01*
X47149500Y-29621288D01*
X47181161Y-29861785D01*
X47243947Y-30096104D01*
X47336773Y-30320205D01*
X47336777Y-30320214D01*
X47354668Y-30351202D01*
X47458064Y-30530289D01*
X47458066Y-30530292D01*
X47458067Y-30530293D01*
X47605733Y-30722736D01*
X47605739Y-30722743D01*
X47777256Y-30894260D01*
X47777263Y-30894266D01*
X47855396Y-30954219D01*
X47969711Y-31041936D01*
X48179788Y-31163224D01*
X48403900Y-31256054D01*
X48638211Y-31318838D01*
X48808898Y-31341309D01*
X48878711Y-31350500D01*
X48878712Y-31350500D01*
X49121289Y-31350500D01*
X49191094Y-31341310D01*
X49361789Y-31318838D01*
X49596100Y-31256054D01*
X49820212Y-31163224D01*
X50030289Y-31041936D01*
X50222738Y-30894265D01*
X50394265Y-30722738D01*
X50541936Y-30530289D01*
X50663224Y-30320212D01*
X50712133Y-30202135D01*
X64999500Y-30202135D01*
X64999500Y-31297870D01*
X64999501Y-31297876D01*
X65005908Y-31357483D01*
X65056202Y-31492328D01*
X65056206Y-31492335D01*
X65142452Y-31607544D01*
X65142455Y-31607547D01*
X65257664Y-31693793D01*
X65257671Y-31693797D01*
X65392517Y-31744091D01*
X65392516Y-31744091D01*
X65399444Y-31744835D01*
X65452127Y-31750500D01*
X66547872Y-31750499D01*
X66607483Y-31744091D01*
X66742331Y-31693796D01*
X66857546Y-31607546D01*
X66943796Y-31492331D01*
X66994091Y-31357483D01*
X67000500Y-31297873D01*
X67000499Y-30202128D01*
X66994091Y-30142517D01*
X66943796Y-30007669D01*
X66943795Y-30007668D01*
X66943793Y-30007664D01*
X66857547Y-29892455D01*
X66857544Y-29892452D01*
X66742335Y-29806206D01*
X66742328Y-29806202D01*
X66607482Y-29755908D01*
X66607483Y-29755908D01*
X66547883Y-29749501D01*
X66547881Y-29749500D01*
X66547873Y-29749500D01*
X66547864Y-29749500D01*
X65452129Y-29749500D01*
X65452123Y-29749501D01*
X65392516Y-29755908D01*
X65257671Y-29806202D01*
X65257664Y-29806206D01*
X65142455Y-29892452D01*
X65142452Y-29892455D01*
X65056206Y-30007664D01*
X65056202Y-30007671D01*
X65005908Y-30142517D01*
X64999501Y-30202116D01*
X64999501Y-30202123D01*
X64999500Y-30202135D01*
X50712133Y-30202135D01*
X50756054Y-30096100D01*
X50818838Y-29861789D01*
X50850500Y-29621288D01*
X50850500Y-29378712D01*
X50818838Y-29138211D01*
X50756054Y-28903900D01*
X50663224Y-28679788D01*
X50541936Y-28469711D01*
X50394265Y-28277262D01*
X50394260Y-28277256D01*
X50222743Y-28105739D01*
X50222736Y-28105733D01*
X50030293Y-27958067D01*
X50030292Y-27958066D01*
X50030289Y-27958064D01*
X49820212Y-27836776D01*
X49820205Y-27836773D01*
X49596104Y-27743947D01*
X49361785Y-27681161D01*
X49121289Y-27649500D01*
X49121288Y-27649500D01*
X48878712Y-27649500D01*
X48878711Y-27649500D01*
X48638214Y-27681161D01*
X48403895Y-27743947D01*
X48179794Y-27836773D01*
X48179785Y-27836777D01*
X47969706Y-27958067D01*
X47777263Y-28105733D01*
X47777256Y-28105739D01*
X47605739Y-28277256D01*
X47605733Y-28277263D01*
X47458067Y-28469706D01*
X47336777Y-28679785D01*
X47336773Y-28679794D01*
X47243947Y-28903895D01*
X47181161Y-29138214D01*
X47149500Y-29378711D01*
X44500500Y-29378711D01*
X44500500Y-26893543D01*
X71059499Y-26893543D01*
X71097947Y-27086829D01*
X71097950Y-27086839D01*
X71173364Y-27268907D01*
X71173371Y-27268920D01*
X71282860Y-27432781D01*
X71282863Y-27432785D01*
X71422214Y-27572136D01*
X71422218Y-27572139D01*
X71586079Y-27681628D01*
X71586092Y-27681635D01*
X71736526Y-27743946D01*
X71768165Y-27757051D01*
X71768169Y-27757051D01*
X71768170Y-27757052D01*
X71961456Y-27795500D01*
X71961459Y-27795500D01*
X72158543Y-27795500D01*
X72288582Y-27769632D01*
X72351835Y-27757051D01*
X72533914Y-27681632D01*
X72697782Y-27572139D01*
X72837139Y-27432782D01*
X72946632Y-27268914D01*
X73022051Y-27086835D01*
X73060500Y-26893541D01*
X73060500Y-26397464D01*
X73080185Y-26330425D01*
X73132989Y-26284670D01*
X73202147Y-26274726D01*
X73246499Y-26290077D01*
X73277515Y-26307984D01*
X73417525Y-26345500D01*
X73417528Y-26345500D01*
X73562472Y-26345500D01*
X73562475Y-26345500D01*
X73702485Y-26307984D01*
X73828015Y-26235509D01*
X73930509Y-26133015D01*
X74002984Y-26007485D01*
X74040500Y-25867475D01*
X74040500Y-25722525D01*
X74002984Y-25582515D01*
X73962102Y-25511706D01*
X73930511Y-25456988D01*
X73930506Y-25456982D01*
X73828017Y-25354493D01*
X73828011Y-25354488D01*
X73702488Y-25282017D01*
X73702489Y-25282017D01*
X73691006Y-25278940D01*
X73562475Y-25244500D01*
X73417525Y-25244500D01*
X73288993Y-25278940D01*
X73277511Y-25282017D01*
X73151988Y-25354488D01*
X73147782Y-25358694D01*
X73086457Y-25392176D01*
X73016766Y-25387188D01*
X72960834Y-25345313D01*
X72949960Y-25326211D01*
X72949502Y-25326456D01*
X72946628Y-25321079D01*
X72837139Y-25157218D01*
X72837136Y-25157214D01*
X72697785Y-25017863D01*
X72697781Y-25017860D01*
X72533920Y-24908371D01*
X72533907Y-24908364D01*
X72351839Y-24832950D01*
X72351829Y-24832947D01*
X72158543Y-24794500D01*
X72158541Y-24794500D01*
X71961459Y-24794500D01*
X71961457Y-24794500D01*
X71768170Y-24832947D01*
X71768160Y-24832950D01*
X71586092Y-24908364D01*
X71586079Y-24908371D01*
X71422218Y-25017860D01*
X71422214Y-25017863D01*
X71282863Y-25157214D01*
X71282860Y-25157218D01*
X71187873Y-25299375D01*
X71167712Y-25316223D01*
X71168338Y-25329359D01*
X71162394Y-25347577D01*
X71097950Y-25503160D01*
X71097947Y-25503170D01*
X71059500Y-25696456D01*
X71059500Y-25696457D01*
X71059500Y-25696459D01*
X71059500Y-26893541D01*
X71059500Y-26893543D01*
X71059499Y-26893543D01*
X44500500Y-26893543D01*
X44500500Y-25624500D01*
X44520185Y-25557461D01*
X44572989Y-25511706D01*
X44624500Y-25500500D01*
X70565890Y-25500500D01*
X70565892Y-25500500D01*
X70693186Y-25466392D01*
X70807314Y-25400500D01*
X70900500Y-25307314D01*
X70940446Y-25238124D01*
X70965044Y-25214670D01*
X70964996Y-25198390D01*
X70966389Y-25193191D01*
X70966392Y-25193186D01*
X71000500Y-25065892D01*
X71000500Y-23073972D01*
X71020185Y-23006933D01*
X71072989Y-22961178D01*
X71142147Y-22951234D01*
X71205703Y-22980259D01*
X71227602Y-23005082D01*
X71282857Y-23087777D01*
X71282863Y-23087785D01*
X71422214Y-23227136D01*
X71422218Y-23227139D01*
X71586079Y-23336628D01*
X71586092Y-23336635D01*
X71768160Y-23412049D01*
X71768165Y-23412051D01*
X71768169Y-23412051D01*
X71768170Y-23412052D01*
X71961456Y-23450500D01*
X71961459Y-23450500D01*
X72158543Y-23450500D01*
X72288582Y-23424632D01*
X72351835Y-23412051D01*
X72533914Y-23336632D01*
X72697782Y-23227139D01*
X72837139Y-23087782D01*
X72946632Y-22923914D01*
X73022051Y-22741835D01*
X73060500Y-22548541D01*
X73060500Y-21651459D01*
X73060500Y-21651456D01*
X73022052Y-21458170D01*
X73022051Y-21458169D01*
X73022051Y-21458165D01*
X73022049Y-21458160D01*
X72946635Y-21276092D01*
X72946628Y-21276079D01*
X72837139Y-21112218D01*
X72837136Y-21112214D01*
X72697785Y-20972863D01*
X72697781Y-20972860D01*
X72533920Y-20863371D01*
X72533907Y-20863364D01*
X72351839Y-20787950D01*
X72351829Y-20787947D01*
X72158543Y-20749500D01*
X72158541Y-20749500D01*
X71961459Y-20749500D01*
X71961457Y-20749500D01*
X71768170Y-20787947D01*
X71768160Y-20787950D01*
X71586092Y-20863364D01*
X71586079Y-20863371D01*
X71422218Y-20972860D01*
X71422214Y-20972863D01*
X71282863Y-21112214D01*
X71282860Y-21112218D01*
X71227602Y-21194918D01*
X71173990Y-21239723D01*
X71104665Y-21248430D01*
X71041637Y-21218275D01*
X71004918Y-21158832D01*
X71000500Y-21126027D01*
X71000500Y-20624500D01*
X71020185Y-20557461D01*
X71072989Y-20511706D01*
X71124500Y-20500500D01*
X81375500Y-20500500D01*
X81442539Y-20520185D01*
G37*
%TD.AperFunction*%
%TD*%
M02*
