M48
; DRILL file {KiCad 8.0.4} date 2024-07-29T00:22:04-0700
; FORMAT={-:-/ absolute / inch / decimal}
; #@! TF.CreationDate,2024-07-29T00:22:04-07:00
; #@! TF.GenerationSoftware,Kicad,Pcbnew,8.0.4
; #@! TF.FileFunction,NonPlated,1,2,NPTH
FMAT,2
INCH
; #@! TA.AperFunction,NonPlated,NPTH,ComponentDrill
T1C0.0197
; #@! TA.AperFunction,NonPlated,NPTH,ComponentDrill
T2C0.0236
; #@! TA.AperFunction,NonPlated,NPTH,ComponentDrill
T3C0.0689
; #@! TA.AperFunction,NonPlated,NPTH,ComponentDrill
T4C0.1200
; #@! TA.AperFunction,NonPlated,NPTH,ComponentDrill
T5C0.1201
; #@! TA.AperFunction,NonPlated,NPTH,ComponentDrill
T6C0.1260
; #@! TA.AperFunction,NonPlated,NPTH,ComponentDrill
T7C0.1570
; #@! TA.AperFunction,NonPlated,NPTH,ComponentDrill
T8C0.1575
%
G90
G05
T1
X1.9311Y-3.6161
X1.9311Y-3.6457
X1.9311Y-3.6752
X1.9311Y-3.872
X1.9311Y-3.9016
X1.9311Y-3.9311
X1.9311Y-4.1476
X1.9311Y-4.1772
X1.9311Y-4.2067
X1.9902Y-3.6161
X1.9902Y-3.6457
X1.9902Y-3.6752
X1.9902Y-3.872
X1.9902Y-3.9016
X1.9902Y-3.9311
X1.9902Y-4.1476
X1.9902Y-4.1772
X1.9902Y-4.2067
X2.5394Y-3.4685
X2.5394Y-3.5276
X2.5689Y-3.4685
X2.5689Y-3.5276
X2.5984Y-3.4685
X2.5984Y-3.5276
X2.8051Y-4.3445
X2.8051Y-4.4035
X2.8091Y-3.4685
X2.8091Y-3.5276
X2.8346Y-4.3445
X2.8346Y-4.4035
X2.8386Y-3.4685
X2.8386Y-3.5276
X2.8642Y-4.3445
X2.8642Y-4.4035
X2.8681Y-3.4685
X2.8681Y-3.5276
X2.9213Y-3.2559
X2.9213Y-3.2854
X2.9213Y-3.315
X2.9232Y-4.5256
X2.9232Y-4.5551
X2.9232Y-4.5846
X2.9803Y-3.2559
X2.9803Y-3.2854
X2.9803Y-3.315
X2.9823Y-4.5256
X2.9823Y-4.5551
X2.9823Y-4.5846
X3.0965Y-3.0256
X3.0965Y-3.0846
X3.126Y-3.0256
X3.126Y-3.0846
X3.1555Y-3.0256
X3.1555Y-3.0846
X3.6398Y-3.0256
X3.6398Y-3.0846
X3.6693Y-3.0256
X3.6693Y-3.0846
X3.6988Y-3.0256
X3.6988Y-3.0846
X3.8051Y-3.3898
X3.8051Y-3.4193
X3.8051Y-3.4488
X3.8051Y-3.6713
X3.8051Y-3.7008
X3.8051Y-3.7303
X3.8051Y-4.0591
X3.8051Y-4.0886
X3.8051Y-4.1181
X3.8051Y-4.5354
X3.8051Y-4.565
X3.8051Y-4.5945
X3.8642Y-3.3898
X3.8642Y-3.4193
X3.8642Y-3.4488
X3.8642Y-3.6713
X3.8642Y-3.7008
X3.8642Y-3.7303
X3.8642Y-4.0591
X3.8642Y-4.0886
X3.8642Y-4.1181
X3.8642Y-4.5354
X3.8642Y-4.565
X3.8642Y-4.5945
T2
X2.8933Y-1.0156
X3.1209Y-1.0156
T3
X2.1622Y-2.8343
X2.5622Y-2.8343
X3.3587Y-3.7
X3.3587Y-4.1
X3.4465Y-2.4717
X3.8161Y-2.6247
X4.1394Y-2.7587
X4.4264Y-2.0658
X4.509Y-2.9117
X4.7721Y-3.1912
X4.796Y-2.2188
X5.1416Y-3.3443
T4
X3.0837Y-3.43
X3.0837Y-4.37
T5
X2.2122Y-2.7343
X2.4622Y-2.6343
X3.1587Y-3.8
X3.2587Y-4.05
X3.531Y-2.3984
X3.8002Y-2.4017
X4.2239Y-2.6854
X4.4931Y-2.6887
X4.5109Y-1.9925
X4.7801Y-1.9958
X4.8565Y-3.1179
X5.1258Y-3.1212
T6
X1.9291Y-1.1614
X1.9291Y-3.2874
X2.6299Y-3.9173
X3.0709Y-2.5197
X4.7441Y-1.378
X5.0197Y-4.311
T7
X3.6825Y-3.43
X3.6825Y-4.37
T8
X2.3622Y-2.8343
X3.3587Y-3.9
X3.6313Y-2.5482
X4.3242Y-2.8352
X4.6112Y-2.1423
X4.9568Y-3.2677
M30
