%TF.GenerationSoftware,KiCad,Pcbnew,8.0.4*%
%TF.CreationDate,2024-07-29T01:22:02-07:00*%
%TF.ProjectId,panel_1,70616e65-6c5f-4312-9e6b-696361645f70,rev?*%
%TF.SameCoordinates,Original*%
%TF.FileFunction,Soldermask,Top*%
%TF.FilePolarity,Negative*%
%FSLAX46Y46*%
G04 Gerber Fmt 4.6, Leading zero omitted, Abs format (unit mm)*
G04 Created by KiCad (PCBNEW 8.0.4) date 2024-07-29 01:22:02*
%MOMM*%
%LPD*%
G01*
G04 APERTURE LIST*
G04 Aperture macros list*
%AMRoundRect*
0 Rectangle with rounded corners*
0 $1 Rounding radius*
0 $2 $3 $4 $5 $6 $7 $8 $9 X,Y pos of 4 corners*
0 Add a 4 corners polygon primitive as box body*
4,1,4,$2,$3,$4,$5,$6,$7,$8,$9,$2,$3,0*
0 Add four circle primitives for the rounded corners*
1,1,$1+$1,$2,$3*
1,1,$1+$1,$4,$5*
1,1,$1+$1,$6,$7*
1,1,$1+$1,$8,$9*
0 Add four rect primitives between the rounded corners*
20,1,$1+$1,$2,$3,$4,$5,0*
20,1,$1+$1,$4,$5,$6,$7,0*
20,1,$1+$1,$6,$7,$8,$9,0*
20,1,$1+$1,$8,$9,$2,$3,0*%
%AMFreePoly0*
4,1,19,0.500000,-0.750000,0.000000,-0.750000,0.000000,-0.744911,-0.071157,-0.744911,-0.207708,-0.704816,-0.327430,-0.627875,-0.420627,-0.520320,-0.479746,-0.390866,-0.500000,-0.250000,-0.500000,0.250000,-0.479746,0.390866,-0.420627,0.520320,-0.327430,0.627875,-0.207708,0.704816,-0.071157,0.744911,0.000000,0.744911,0.000000,0.750000,0.500000,0.750000,0.500000,-0.750000,0.500000,-0.750000,
$1*%
%AMFreePoly1*
4,1,19,0.000000,0.744911,0.071157,0.744911,0.207708,0.704816,0.327430,0.627875,0.420627,0.520320,0.479746,0.390866,0.500000,0.250000,0.500000,-0.250000,0.479746,-0.390866,0.420627,-0.520320,0.327430,-0.627875,0.207708,-0.704816,0.071157,-0.744911,0.000000,-0.744911,0.000000,-0.750000,-0.500000,-0.750000,-0.500000,0.750000,0.000000,0.750000,0.000000,0.744911,0.000000,0.744911,
$1*%
G04 Aperture macros list end*
%ADD10C,0.500000*%
%ADD11RoundRect,0.140000X0.140000X0.170000X-0.140000X0.170000X-0.140000X-0.170000X0.140000X-0.170000X0*%
%ADD12R,1.000000X1.000000*%
%ADD13RoundRect,0.243750X0.456250X-0.243750X0.456250X0.243750X-0.456250X0.243750X-0.456250X-0.243750X0*%
%ADD14C,1.750000*%
%ADD15C,3.050000*%
%ADD16C,4.000000*%
%ADD17RoundRect,0.150000X0.650000X0.150000X-0.650000X0.150000X-0.650000X-0.150000X0.650000X-0.150000X0*%
%ADD18RoundRect,0.140000X-0.140000X-0.170000X0.140000X-0.170000X0.140000X0.170000X-0.140000X0.170000X0*%
%ADD19R,1.200000X1.400000*%
%ADD20C,1.400000*%
%ADD21C,3.200000*%
%ADD22RoundRect,0.140000X-0.170000X0.140000X-0.170000X-0.140000X0.170000X-0.140000X0.170000X0.140000X0*%
%ADD23R,3.200000X3.200000*%
%ADD24RoundRect,0.050000X0.387500X-0.050000X0.387500X0.050000X-0.387500X0.050000X-0.387500X-0.050000X0*%
%ADD25RoundRect,0.050000X0.050000X-0.387500X0.050000X0.387500X-0.050000X0.387500X-0.050000X-0.387500X0*%
%ADD26FreePoly0,0.000000*%
%ADD27RoundRect,0.135000X0.135000X0.185000X-0.135000X0.185000X-0.135000X-0.185000X0.135000X-0.185000X0*%
%ADD28RoundRect,0.140000X0.170000X-0.140000X0.170000X0.140000X-0.170000X0.140000X-0.170000X-0.140000X0*%
%ADD29C,1.000000*%
%ADD30RoundRect,0.160000X-0.160000X0.197500X-0.160000X-0.197500X0.160000X-0.197500X0.160000X0.197500X0*%
%ADD31RoundRect,0.135000X-0.135000X-0.185000X0.135000X-0.185000X0.135000X0.185000X-0.135000X0.185000X0*%
%ADD32R,1.000000X0.750000*%
%ADD33RoundRect,0.375000X0.625000X0.375000X-0.625000X0.375000X-0.625000X-0.375000X0.625000X-0.375000X0*%
%ADD34RoundRect,0.500000X0.500000X1.400000X-0.500000X1.400000X-0.500000X-1.400000X0.500000X-1.400000X0*%
%ADD35RoundRect,0.135000X-0.185000X0.135000X-0.185000X-0.135000X0.185000X-0.135000X0.185000X0.135000X0*%
%ADD36O,1.000000X1.700000*%
%ADD37O,1.000000X2.000000*%
%ADD38RoundRect,0.150000X0.150000X0.420000X-0.150000X0.420000X-0.150000X-0.420000X0.150000X-0.420000X0*%
%ADD39RoundRect,0.075000X0.075000X0.495000X-0.075000X0.495000X-0.075000X-0.495000X0.075000X-0.495000X0*%
%ADD40C,0.600000*%
%ADD41FreePoly1,90.000000*%
%ADD42FreePoly0,90.000000*%
%ADD43C,3.048000*%
%ADD44C,3.987800*%
G04 APERTURE END LIST*
D10*
%TO.C,mouse-bite-2mm-slot*%
X74200000Y-84200000D03*
X75700000Y-84200000D03*
X74200000Y-83450000D03*
X75700000Y-83450000D03*
X74200000Y-82700000D03*
X75700000Y-82700000D03*
%TD*%
%TO.C,mouse-bite-2mm-slot*%
X93950000Y-78350000D03*
X93950000Y-76850000D03*
X93200000Y-78350000D03*
X93200000Y-76850000D03*
X92450000Y-78350000D03*
X92450000Y-76850000D03*
%TD*%
%TO.C,mouse-bite-2mm-slot*%
X49050000Y-93350000D03*
X50550000Y-93350000D03*
X49050000Y-92600000D03*
X50550000Y-92600000D03*
X49050000Y-91850000D03*
X50550000Y-91850000D03*
%TD*%
%TO.C,mouse-bite-2mm-slot*%
X66000000Y-89600000D03*
X66000000Y-88100000D03*
X65250000Y-89600000D03*
X65250000Y-88100000D03*
X64500000Y-89600000D03*
X64500000Y-88100000D03*
%TD*%
%TO.C,mouse-bite-2mm-slot*%
X96650000Y-116700000D03*
X98150000Y-116700000D03*
X96650000Y-115950000D03*
X98150000Y-115950000D03*
X96650000Y-115200000D03*
X98150000Y-115200000D03*
%TD*%
%TO.C,mouse-bite-2mm-slot*%
X49050000Y-99850000D03*
X50550000Y-99850000D03*
X49050000Y-99100000D03*
X50550000Y-99100000D03*
X49050000Y-98350000D03*
X50550000Y-98350000D03*
%TD*%
%TO.C,mouse-bite-2mm-slot*%
X96650000Y-94750000D03*
X98150000Y-94750000D03*
X96650000Y-94000000D03*
X98150000Y-94000000D03*
X96650000Y-93250000D03*
X98150000Y-93250000D03*
%TD*%
%TO.C,mouse-bite-2mm-slot*%
X72850000Y-89600000D03*
X72850000Y-88100000D03*
X72100000Y-89600000D03*
X72100000Y-88100000D03*
X71350000Y-89600000D03*
X71350000Y-88100000D03*
%TD*%
%TO.C,mouse-bite-2mm-slot*%
X72750000Y-111850000D03*
X72750000Y-110350000D03*
X72000000Y-111850000D03*
X72000000Y-110350000D03*
X71250000Y-111850000D03*
X71250000Y-110350000D03*
%TD*%
%TO.C,mouse-bite-2mm-slot*%
X96650000Y-87600000D03*
X98150000Y-87600000D03*
X96650000Y-86850000D03*
X98150000Y-86850000D03*
X96650000Y-86100000D03*
X98150000Y-86100000D03*
%TD*%
%TO.C,mouse-bite-2mm-slot*%
X80150000Y-78350000D03*
X80150000Y-76850000D03*
X79400000Y-78350000D03*
X79400000Y-76850000D03*
X78650000Y-78350000D03*
X78650000Y-76850000D03*
%TD*%
%TO.C,mouse-bite-2mm-slot*%
X74250000Y-116450000D03*
X75750000Y-116450000D03*
X74250000Y-115700000D03*
X75750000Y-115700000D03*
X74250000Y-114950000D03*
X75750000Y-114950000D03*
%TD*%
%TO.C,mouse-bite-2mm-slot*%
X96650000Y-104600000D03*
X98150000Y-104600000D03*
X96650000Y-103850000D03*
X98150000Y-103850000D03*
X96650000Y-103100000D03*
X98150000Y-103100000D03*
%TD*%
%TO.C,mouse-bite-2mm-slot*%
X49050000Y-106850000D03*
X50550000Y-106850000D03*
X49050000Y-106100000D03*
X50550000Y-106100000D03*
X49050000Y-105350000D03*
X50550000Y-105350000D03*
%TD*%
D11*
%TO.C,C6*%
X78400000Y-32930000D03*
X79360000Y-32930000D03*
%TD*%
D12*
%TO.C,TP2*%
X73900000Y-38500000D03*
%TD*%
D13*
%TO.C,D4*%
X110190000Y-32475000D03*
X110190000Y-34350000D03*
%TD*%
D14*
%TO.C,SW20_RIGHT*%
X130597251Y-84944032D03*
D15*
X130194629Y-79278708D03*
D16*
X125903943Y-83000000D03*
D15*
X123355978Y-79195322D03*
D14*
X121210635Y-81055968D03*
%TD*%
D17*
%TO.C,U3*%
X71210000Y-45349000D03*
X71210000Y-44079000D03*
X71210000Y-42809000D03*
X71210000Y-41539000D03*
X78410000Y-41539000D03*
X78410000Y-42809000D03*
X78410000Y-44079000D03*
X78410000Y-45349000D03*
%TD*%
D18*
%TO.C,C5*%
X72496000Y-47254000D03*
X71536000Y-47254000D03*
%TD*%
D19*
%TO.C,Y1*%
X95296000Y-37630000D03*
X95296000Y-35430000D03*
X96996000Y-35430000D03*
X96996000Y-37630000D03*
%TD*%
D20*
%TO.C,J2*%
X94380000Y-31430000D03*
X96380000Y-31430000D03*
X98380000Y-31430000D03*
%TD*%
D18*
%TO.C,C8*%
X91800000Y-35430000D03*
X90840000Y-35430000D03*
%TD*%
D21*
%TO.C,H2*%
X49000000Y-83500000D03*
%TD*%
D22*
%TO.C,C3*%
X98852000Y-37688000D03*
X98852000Y-36728000D03*
%TD*%
D23*
%TO.C,U1*%
X84678000Y-36878000D03*
D24*
X81240500Y-39478000D03*
X81240500Y-39078000D03*
X81240500Y-38678000D03*
X81240500Y-38278000D03*
X81240500Y-37878000D03*
X81240500Y-37478000D03*
X81240500Y-37078000D03*
X81240500Y-36678000D03*
X81240500Y-36278000D03*
X81240500Y-35878000D03*
X81240500Y-35478000D03*
X81240500Y-35078000D03*
X81240500Y-34678000D03*
X81240500Y-34278000D03*
D25*
X82078000Y-33440500D03*
X82478000Y-33440500D03*
X82878000Y-33440500D03*
X83278000Y-33440500D03*
X83678000Y-33440500D03*
X84078000Y-33440500D03*
X84478000Y-33440500D03*
X84878000Y-33440500D03*
X85278000Y-33440500D03*
X85678000Y-33440500D03*
X86078000Y-33440500D03*
X86478000Y-33440500D03*
X86878000Y-33440500D03*
X87278000Y-33440500D03*
D24*
X88115500Y-34278000D03*
X88115500Y-34678000D03*
X88115500Y-35078000D03*
X88115500Y-35478000D03*
X88115500Y-35878000D03*
X88115500Y-36278000D03*
X88115500Y-36678000D03*
X88115500Y-37078000D03*
X88115500Y-37478000D03*
X88115500Y-37878000D03*
X88115500Y-38278000D03*
X88115500Y-38678000D03*
X88115500Y-39078000D03*
X88115500Y-39478000D03*
D25*
X87278000Y-40315500D03*
X86878000Y-40315500D03*
X86478000Y-40315500D03*
X86078000Y-40315500D03*
X85678000Y-40315500D03*
X85278000Y-40315500D03*
X84878000Y-40315500D03*
X84478000Y-40315500D03*
X84078000Y-40315500D03*
X83678000Y-40315500D03*
X83278000Y-40315500D03*
X82878000Y-40315500D03*
X82478000Y-40315500D03*
X82078000Y-40315500D03*
%TD*%
D26*
%TO.C,JP8*%
X138280000Y-44500000D03*
%TD*%
D27*
%TO.C,R4*%
X91570000Y-37856000D03*
X92590000Y-37856000D03*
%TD*%
D21*
%TO.C,H5*%
X78000000Y-64000000D03*
%TD*%
D14*
%TO.C,SW17_W*%
X121818199Y-56358489D03*
D15*
X121415577Y-50693165D03*
D16*
X117124891Y-54414457D03*
D15*
X114576926Y-50609779D03*
D14*
X112431583Y-52470425D03*
%TD*%
D21*
%TO.C,H4*%
X127500000Y-109500000D03*
%TD*%
D11*
%TO.C,C4*%
X95400000Y-33680000D03*
X96360000Y-33680000D03*
%TD*%
%TO.C,C9*%
X77520000Y-38000000D03*
X78480000Y-38000000D03*
%TD*%
D26*
%TO.C,JP5*%
X138280000Y-36250000D03*
%TD*%
%TO.C,JP10*%
X138280000Y-103000000D03*
%TD*%
D13*
%TO.C,D2*%
X105010000Y-32475000D03*
X105010000Y-34350000D03*
%TD*%
D26*
%TO.C,JP16*%
X138270000Y-115000000D03*
%TD*%
D28*
%TO.C,C2*%
X72000000Y-35020000D03*
X72000000Y-35980000D03*
%TD*%
D29*
%TO.C,TP3*%
X86400000Y-26700000D03*
%TD*%
D26*
%TO.C,JP12*%
X138280000Y-109000000D03*
%TD*%
D11*
%TO.C,C10*%
X78020000Y-37000000D03*
X78980000Y-37000000D03*
%TD*%
D26*
%TO.C,JP9*%
X138280000Y-50050000D03*
%TD*%
D27*
%TO.C,R9*%
X101490000Y-38000000D03*
X102510000Y-38000000D03*
%TD*%
D12*
%TO.C,TP1*%
X66000000Y-30750000D03*
%TD*%
D26*
%TO.C,JP3*%
X138280000Y-30750000D03*
%TD*%
D29*
%TO.C,TP4*%
X84100000Y-26700000D03*
%TD*%
D26*
%TO.C,JP4*%
X138280000Y-33500000D03*
%TD*%
D30*
%TO.C,R6*%
X67571000Y-44930500D03*
X67571000Y-43735500D03*
%TD*%
D18*
%TO.C,C15*%
X87480000Y-30000000D03*
X86520000Y-30000000D03*
%TD*%
D13*
%TO.C,D3*%
X107600000Y-32475000D03*
X107600000Y-34350000D03*
%TD*%
D28*
%TO.C,C11*%
X81700000Y-30420000D03*
X81700000Y-31380000D03*
%TD*%
D31*
%TO.C,R1*%
X71510000Y-29347000D03*
X70490000Y-29347000D03*
%TD*%
D26*
%TO.C,JP7*%
X138280000Y-41750000D03*
%TD*%
%TO.C,JP1*%
X138280000Y-47250000D03*
%TD*%
D32*
%TO.C,SW1*%
X57905000Y-43805000D03*
X51905000Y-43805000D03*
X57905000Y-40055000D03*
X51905000Y-40055000D03*
%TD*%
D18*
%TO.C,C14*%
X91800000Y-36840000D03*
X90840000Y-36840000D03*
%TD*%
D31*
%TO.C,R8*%
X79010000Y-35500000D03*
X77990000Y-35500000D03*
%TD*%
D14*
%TO.C,SW18_DOWN*%
X114528080Y-73958394D03*
D15*
X114125458Y-68293070D03*
D16*
X109834772Y-72014362D03*
D15*
X107286807Y-68209684D03*
D14*
X105141464Y-70070330D03*
%TD*%
D31*
%TO.C,R5*%
X64271000Y-42936000D03*
X63251000Y-42936000D03*
%TD*%
D26*
%TO.C,JP6*%
X138280000Y-39000000D03*
%TD*%
D33*
%TO.C,U2*%
X68972000Y-33378000D03*
X68972000Y-35678000D03*
X68972000Y-37978000D03*
D34*
X62672000Y-35678000D03*
%TD*%
D26*
%TO.C,JP13*%
X138280000Y-112000000D03*
%TD*%
D14*
%TO.C,SW8_DP*%
X65080000Y-71991696D03*
D15*
X62540000Y-66911696D03*
D16*
X60000000Y-71991696D03*
D15*
X56190000Y-69451696D03*
D14*
X54920000Y-71991696D03*
%TD*%
D26*
%TO.C,JP2*%
X138280000Y-28000000D03*
%TD*%
D22*
%TO.C,C12*%
X81630000Y-44160000D03*
X81630000Y-43200000D03*
%TD*%
D11*
%TO.C,C7*%
X78400000Y-31930000D03*
X79360000Y-31930000D03*
%TD*%
D31*
%TO.C,R3*%
X79640000Y-29680000D03*
X78620000Y-29680000D03*
%TD*%
D26*
%TO.C,JP14*%
X138300000Y-118000000D03*
%TD*%
D21*
%TO.C,H3*%
X120500000Y-35000000D03*
%TD*%
D18*
%TO.C,C1*%
X69480000Y-31000000D03*
X68520000Y-31000000D03*
%TD*%
D13*
%TO.C,D1*%
X102420000Y-32475000D03*
X102420000Y-34350000D03*
%TD*%
D18*
%TO.C,C13*%
X86860000Y-42930000D03*
X85900000Y-42930000D03*
%TD*%
D35*
%TO.C,R2*%
X73822000Y-32688000D03*
X73822000Y-31668000D03*
%TD*%
D36*
%TO.C,J1*%
X72060000Y-22100000D03*
D37*
X72060000Y-26295000D03*
D36*
X80700000Y-22100000D03*
D37*
X80700000Y-26295000D03*
D38*
X79580000Y-26865000D03*
X78780000Y-26865000D03*
D39*
X78130000Y-26865000D03*
X77130000Y-26865000D03*
X75630000Y-26865000D03*
X74630000Y-26865000D03*
D38*
X73980000Y-26865000D03*
X73180000Y-26865000D03*
X73180000Y-26865000D03*
X73980000Y-26865000D03*
D39*
X75130000Y-26865000D03*
X76130000Y-26865000D03*
X76630000Y-26865000D03*
X77630000Y-26865000D03*
D38*
X78780000Y-26865000D03*
X79580000Y-26865000D03*
D40*
X73490000Y-25795000D03*
X79270000Y-25795000D03*
%TD*%
D21*
%TO.C,H1*%
X49000000Y-29500000D03*
%TD*%
D31*
%TO.C,R7*%
X79010000Y-34500000D03*
X77990000Y-34500000D03*
%TD*%
D26*
%TO.C,JP11*%
X138280000Y-106000000D03*
%TD*%
D14*
%TO.C,SW19_LEFT*%
X96928175Y-66668275D03*
D15*
X96525553Y-61002951D03*
D16*
X92234867Y-64724243D03*
D15*
X89686902Y-60919565D03*
D14*
X87541559Y-62780211D03*
%TD*%
%TO.C,SW16_SPACE*%
X85310000Y-104140000D03*
D15*
X82770000Y-102870000D03*
D16*
X85310000Y-99060000D03*
D15*
X80230000Y-96520000D03*
D14*
X85310000Y-93980000D03*
%TD*%
D41*
%TO.C,JP11*%
X55300000Y-109670000D03*
%TD*%
D42*
%TO.C,JP17*%
X52300000Y-90350000D03*
%TD*%
D41*
%TO.C,JP14*%
X67300000Y-109650000D03*
%TD*%
D42*
%TO.C,JP20*%
X61300000Y-90350000D03*
%TD*%
D41*
%TO.C,JP12*%
X58300000Y-109670000D03*
%TD*%
%TO.C,JP10*%
X52300000Y-109670000D03*
%TD*%
%TO.C,JP13*%
X61300000Y-109670000D03*
%TD*%
D42*
%TO.C,JP18*%
X55300000Y-90350000D03*
%TD*%
D41*
%TO.C,JP16*%
X64300000Y-109650000D03*
%TD*%
D21*
%TO.C,H13*%
X66800000Y-99500000D03*
%TD*%
D42*
%TO.C,JP19*%
X58300000Y-90350000D03*
%TD*%
D43*
%TO.C,S1*%
X78325000Y-110998000D03*
D44*
X93535000Y-110998000D03*
D43*
X78325000Y-87122000D03*
D44*
X93535000Y-87122000D03*
%TD*%
M02*
