%TF.GenerationSoftware,KiCad,Pcbnew,8.0.4*%
%TF.CreationDate,2024-07-25T19:53:29-07:00*%
%TF.ProjectId,panel_1,70616e65-6c5f-4312-9e6b-696361645f70,rev?*%
%TF.SameCoordinates,Original*%
%TF.FileFunction,Copper,L2,Bot*%
%TF.FilePolarity,Positive*%
%FSLAX46Y46*%
G04 Gerber Fmt 4.6, Leading zero omitted, Abs format (unit mm)*
G04 Created by KiCad (PCBNEW 8.0.4) date 2024-07-25 19:53:29*
%MOMM*%
%LPD*%
G01*
G04 APERTURE LIST*
%TA.AperFunction,ComponentPad*%
%ADD10C,2.500000*%
%TD*%
%TA.AperFunction,ComponentPad*%
%ADD11C,0.600000*%
%TD*%
%TA.AperFunction,ComponentPad*%
%ADD12R,1.000000X1.000000*%
%TD*%
%TA.AperFunction,ComponentPad*%
%ADD13C,1.400000*%
%TD*%
%TA.AperFunction,ComponentPad*%
%ADD14O,1.000000X2.000000*%
%TD*%
%TA.AperFunction,ComponentPad*%
%ADD15O,1.000000X1.800000*%
%TD*%
%TA.AperFunction,ComponentPad*%
%ADD16O,1.000000X1.700000*%
%TD*%
%TA.AperFunction,ViaPad*%
%ADD17C,0.800000*%
%TD*%
%TA.AperFunction,Conductor*%
%ADD18C,0.800000*%
%TD*%
G04 APERTURE END LIST*
D10*
%TO.P,SW8_DP,1,1*%
%TO.N,L2*%
X56190000Y-69451696D03*
%TO.P,SW8_DP,2,2*%
%TO.N,GND*%
X62540000Y-66911696D03*
%TD*%
D11*
%TO.P,,57,GND*%
%TO.N,GND*%
X83700000Y-36840000D03*
%TD*%
%TO.P,,57,GND*%
%TO.N,GND*%
X84716000Y-36840000D03*
%TD*%
D10*
%TO.P,SW19_LEFT,1,1*%
%TO.N,LEFT*%
X89686902Y-60919565D03*
%TO.P,SW19_LEFT,2,2*%
%TO.N,GND*%
X96525553Y-61002951D03*
%TD*%
D12*
%TO.P,TP1,1,1*%
%TO.N,+3.3V*%
X59800000Y-35600000D03*
%TD*%
D10*
%TO.P,SW20_RIGHT,1,1*%
%TO.N,RIGHT*%
X123355978Y-79195322D03*
%TO.P,SW20_RIGHT,2,2*%
%TO.N,GND*%
X130194629Y-79278708D03*
%TD*%
D11*
%TO.P,,57,GND*%
%TO.N,GND*%
X85732000Y-35824000D03*
%TD*%
%TO.P,,57,GND*%
%TO.N,GND*%
X85732000Y-37856000D03*
%TD*%
D10*
%TO.P,SW16_SPACE,1,1*%
%TO.N,/Buttons/SPACE*%
X82770000Y-102870000D03*
%TO.P,SW16_SPACE,2,2*%
%TO.N,GND*%
X80230000Y-96520000D03*
%TD*%
D11*
%TO.P,,57,GND*%
%TO.N,GND*%
X85732000Y-36840000D03*
%TD*%
%TO.P,,57,GND*%
%TO.N,GND*%
X83700000Y-37856000D03*
%TD*%
D13*
%TO.P,J2,1,Pin_1*%
%TO.N,/Main/SWCLK*%
X98380000Y-31430000D03*
%TO.P,J2,2,Pin_2*%
%TO.N,GND*%
X96380000Y-31430000D03*
%TO.P,J2,3,Pin_3*%
%TO.N,/Main/SWDIO*%
X94380000Y-31430000D03*
%TD*%
D11*
%TO.P,,57,GND*%
%TO.N,GND*%
X83700000Y-35824000D03*
%TD*%
D10*
%TO.P,SW17_W,1,1*%
%TO.N,W*%
X114576926Y-50609779D03*
%TO.P,SW17_W,2,2*%
%TO.N,GND*%
X121415577Y-50693165D03*
%TD*%
D11*
%TO.P,,57,GND*%
%TO.N,GND*%
X84716000Y-35824000D03*
%TD*%
%TO.P,,57,GND*%
%TO.N,GND*%
X84716000Y-37856000D03*
%TD*%
D14*
%TO.P,J1,S1,SHIELD*%
%TO.N,Net-(J1-SHIELD)*%
X80700000Y-26745000D03*
D15*
X80700000Y-22605000D03*
D14*
X72060000Y-26745000D03*
D16*
X72060000Y-22605000D03*
%TD*%
D12*
%TO.P,TP2,1,1*%
%TO.N,+1V1*%
X73900000Y-38500000D03*
%TD*%
D10*
%TO.P,SW18_DOWN,1,1*%
%TO.N,DOWN*%
X107286807Y-68209684D03*
%TO.P,SW18_DOWN,2,2*%
%TO.N,GND*%
X114125458Y-68293070D03*
%TD*%
D17*
%TO.N,GND*%
X136000000Y-113500000D03*
X81668000Y-45222000D03*
X71880000Y-33930000D03*
X70873000Y-31252000D03*
X136250000Y-48500000D03*
X54880000Y-39930000D03*
X62745000Y-29220000D03*
X78880000Y-30930000D03*
X98813000Y-35189000D03*
X89380000Y-43430000D03*
X91880000Y-34430000D03*
X76778500Y-41602500D03*
X88500000Y-29000000D03*
X89669000Y-38364000D03*
X68968000Y-39761000D03*
%TO.N,+3.3V*%
X80630000Y-31430000D03*
X86000000Y-31430000D03*
X86880000Y-43930000D03*
X81630000Y-41930000D03*
X62672000Y-40015000D03*
X93380000Y-34180000D03*
%TD*%
D18*
%TO.N,GND*%
X114125458Y-68293070D02*
X114125458Y-65875458D01*
X136000000Y-113500000D02*
X136000000Y-85084079D01*
X96525553Y-54224447D02*
X96750000Y-54000000D01*
X62540000Y-66911696D02*
X62540000Y-63210000D01*
X136250000Y-48500000D02*
X133750000Y-48500000D01*
X117522412Y-46800000D02*
X108200000Y-46800000D01*
X121415577Y-50693165D02*
X117522412Y-46800000D01*
X62540000Y-63210000D02*
X62750000Y-63000000D01*
X136000000Y-85084079D02*
X130194629Y-79278708D01*
X119208991Y-68293070D02*
X114125458Y-68293070D01*
X96525553Y-61002951D02*
X96525553Y-54224447D01*
X133750000Y-48500000D02*
X131556835Y-50693165D01*
X130194629Y-79278708D02*
X119208991Y-68293070D01*
X131556835Y-50693165D02*
X121415577Y-50693165D01*
X114125458Y-65875458D02*
X102250000Y-54000000D01*
%TO.N,+3.3V*%
X83630000Y-43930000D02*
X81630000Y-41930000D01*
X91130000Y-31930000D02*
X93380000Y-34180000D01*
X93380000Y-34180000D02*
X93380000Y-37430000D01*
X93380000Y-37430000D02*
X86880000Y-43930000D01*
X86500000Y-31930000D02*
X91130000Y-31930000D01*
X86000000Y-31430000D02*
X80630000Y-31430000D01*
X86880000Y-43930000D02*
X83630000Y-43930000D01*
X83630000Y-46054000D02*
X83630000Y-43930000D01*
X86000000Y-31430000D02*
X86500000Y-31930000D01*
X62672000Y-40704000D02*
X70746000Y-48778000D01*
X80906000Y-48778000D02*
X83630000Y-46054000D01*
X62672000Y-40015000D02*
X62672000Y-40704000D01*
X70746000Y-48778000D02*
X80906000Y-48778000D01*
%TD*%
%TA.AperFunction,Conductor*%
%TO.N,GND*%
G36*
X81442539Y-20520185D02*
G01*
X81488294Y-20572989D01*
X81499500Y-20624500D01*
X81499500Y-21303929D01*
X81479815Y-21370968D01*
X81427011Y-21416723D01*
X81357853Y-21426667D01*
X81306609Y-21407031D01*
X81173920Y-21318371D01*
X81173907Y-21318364D01*
X80991839Y-21242950D01*
X80991829Y-21242947D01*
X80798543Y-21204500D01*
X80798541Y-21204500D01*
X80601459Y-21204500D01*
X80601457Y-21204500D01*
X80408170Y-21242947D01*
X80408160Y-21242950D01*
X80226092Y-21318364D01*
X80226079Y-21318371D01*
X80062218Y-21427860D01*
X80062214Y-21427863D01*
X79922863Y-21567214D01*
X79922860Y-21567218D01*
X79813371Y-21731079D01*
X79813364Y-21731092D01*
X79737950Y-21913160D01*
X79737947Y-21913170D01*
X79699500Y-22106456D01*
X79699500Y-22106459D01*
X79699500Y-23103541D01*
X79699500Y-23103543D01*
X79699499Y-23103543D01*
X79737947Y-23296829D01*
X79737950Y-23296839D01*
X79813364Y-23478907D01*
X79813371Y-23478920D01*
X79922860Y-23642781D01*
X79922863Y-23642785D01*
X80062214Y-23782136D01*
X80062218Y-23782139D01*
X80226079Y-23891628D01*
X80226092Y-23891635D01*
X80380278Y-23955500D01*
X80408165Y-23967051D01*
X80408169Y-23967051D01*
X80408170Y-23967052D01*
X80601456Y-24005500D01*
X80601459Y-24005500D01*
X80798543Y-24005500D01*
X80928582Y-23979632D01*
X80991835Y-23967051D01*
X81173914Y-23891632D01*
X81306609Y-23802967D01*
X81373286Y-23782090D01*
X81440666Y-23800574D01*
X81487357Y-23852553D01*
X81499500Y-23906070D01*
X81499500Y-25065891D01*
X81533608Y-25193187D01*
X81563234Y-25244500D01*
X81599500Y-25307314D01*
X81692686Y-25400500D01*
X81806814Y-25466392D01*
X81934108Y-25500500D01*
X81934110Y-25500500D01*
X115671170Y-25500500D01*
X115738209Y-25520185D01*
X115783964Y-25572989D01*
X115793908Y-25642147D01*
X115789333Y-25662094D01*
X108147750Y-49678499D01*
X105527492Y-57913597D01*
X105488407Y-57971512D01*
X105424216Y-57999103D01*
X105409329Y-58000000D01*
X86000000Y-58000000D01*
X82036811Y-63944783D01*
X81983246Y-63989644D01*
X81933637Y-64000000D01*
X79974500Y-64000000D01*
X79907461Y-63980315D01*
X79861706Y-63927511D01*
X79851954Y-63882685D01*
X79850766Y-63882763D01*
X79850500Y-63878717D01*
X79850500Y-63878712D01*
X79818838Y-63638211D01*
X79756054Y-63403900D01*
X79663224Y-63179788D01*
X79541936Y-62969711D01*
X79394265Y-62777262D01*
X79394260Y-62777256D01*
X79222743Y-62605739D01*
X79222736Y-62605733D01*
X79030293Y-62458067D01*
X79030292Y-62458066D01*
X79030289Y-62458064D01*
X78820212Y-62336776D01*
X78820205Y-62336773D01*
X78596104Y-62243947D01*
X78478944Y-62212554D01*
X78361789Y-62181162D01*
X78361788Y-62181161D01*
X78361785Y-62181161D01*
X78121289Y-62149500D01*
X78121288Y-62149500D01*
X77878712Y-62149500D01*
X77878711Y-62149500D01*
X77638214Y-62181161D01*
X77403895Y-62243947D01*
X77179794Y-62336773D01*
X77179785Y-62336777D01*
X76969706Y-62458067D01*
X76777263Y-62605733D01*
X76777256Y-62605739D01*
X76605739Y-62777256D01*
X76605733Y-62777263D01*
X76458067Y-62969706D01*
X76336777Y-63179785D01*
X76336773Y-63179794D01*
X76243947Y-63403895D01*
X76181161Y-63638214D01*
X76149499Y-63878717D01*
X76149234Y-63882763D01*
X76147546Y-63882652D01*
X76129815Y-63943039D01*
X76077011Y-63988794D01*
X76025500Y-64000000D01*
X44624500Y-64000000D01*
X44557461Y-63980315D01*
X44511706Y-63927511D01*
X44500500Y-63876000D01*
X44500500Y-40014999D01*
X61766540Y-40014999D01*
X61770821Y-40055731D01*
X61771500Y-40068692D01*
X61771500Y-40792696D01*
X61806103Y-40966658D01*
X61806105Y-40966666D01*
X61832132Y-41029500D01*
X61873987Y-41130548D01*
X61873989Y-41130551D01*
X61884208Y-41145844D01*
X61884210Y-41145847D01*
X61884212Y-41145849D01*
X61940795Y-41230532D01*
X61972537Y-41278038D01*
X61972538Y-41278039D01*
X70046536Y-49352035D01*
X70110299Y-49415798D01*
X70171966Y-49477465D01*
X70319446Y-49576009D01*
X70319459Y-49576016D01*
X70427874Y-49620922D01*
X70483334Y-49643894D01*
X70525935Y-49652368D01*
X70657305Y-49678500D01*
X70657308Y-49678500D01*
X80994693Y-49678500D01*
X80994694Y-49678499D01*
X81168666Y-49643895D01*
X81250606Y-49609953D01*
X81332547Y-49576013D01*
X81332549Y-49576011D01*
X81332552Y-49576010D01*
X81420955Y-49516939D01*
X81420955Y-49516938D01*
X81420959Y-49516936D01*
X81480036Y-49477464D01*
X84329464Y-46628035D01*
X84428013Y-46480547D01*
X84447895Y-46432547D01*
X84495895Y-46316666D01*
X84530500Y-46142692D01*
X84530500Y-45965308D01*
X84530500Y-44954500D01*
X84550185Y-44887461D01*
X84602989Y-44841706D01*
X84654500Y-44830500D01*
X86974645Y-44830500D01*
X86974646Y-44830500D01*
X87060699Y-44812208D01*
X87062134Y-44811912D01*
X87142666Y-44795895D01*
X87142671Y-44795893D01*
X87148495Y-44794127D01*
X87148628Y-44794568D01*
X87159319Y-44791247D01*
X87159509Y-44791206D01*
X87159803Y-44791144D01*
X87234057Y-44758082D01*
X87236955Y-44756837D01*
X87306547Y-44728013D01*
X87307633Y-44727287D01*
X87326095Y-44717104D01*
X87332730Y-44714151D01*
X87393039Y-44670333D01*
X87396966Y-44667595D01*
X87454036Y-44629464D01*
X87459735Y-44623763D01*
X87474533Y-44611124D01*
X87485871Y-44602888D01*
X87531265Y-44552471D01*
X87535697Y-44547801D01*
X94079464Y-38004036D01*
X94118936Y-37944959D01*
X94178013Y-37856547D01*
X94222353Y-37749500D01*
X94245895Y-37692666D01*
X94280500Y-37518692D01*
X94280500Y-37341308D01*
X94280500Y-34233692D01*
X94281179Y-34220731D01*
X94285460Y-34180000D01*
X94281179Y-34139266D01*
X94280500Y-34126306D01*
X94280500Y-34091309D01*
X94272360Y-34050393D01*
X94270656Y-34039156D01*
X94265674Y-33991744D01*
X94255095Y-33959189D01*
X94251412Y-33945075D01*
X94245895Y-33917334D01*
X94227350Y-33872563D01*
X94223986Y-33863442D01*
X94207180Y-33811718D01*
X94207179Y-33811716D01*
X94193426Y-33787896D01*
X94186257Y-33773359D01*
X94180341Y-33759075D01*
X94178695Y-33754474D01*
X94178013Y-33753453D01*
X94147368Y-33707591D01*
X94143088Y-33700708D01*
X94112531Y-33647781D01*
X94112530Y-33647780D01*
X94098637Y-33632350D01*
X94087684Y-33618268D01*
X94079464Y-33605965D01*
X94035724Y-33562225D01*
X94031255Y-33557516D01*
X93985872Y-33507113D01*
X93985871Y-33507112D01*
X93974525Y-33498869D01*
X93959734Y-33486235D01*
X93954035Y-33480536D01*
X91903499Y-31429999D01*
X93174357Y-31429999D01*
X93174357Y-31430000D01*
X93194884Y-31651535D01*
X93194885Y-31651537D01*
X93255769Y-31865523D01*
X93255775Y-31865538D01*
X93354938Y-32064683D01*
X93354943Y-32064691D01*
X93489020Y-32242238D01*
X93653437Y-32392123D01*
X93653439Y-32392125D01*
X93842595Y-32509245D01*
X93842596Y-32509245D01*
X93842599Y-32509247D01*
X94050060Y-32589618D01*
X94268757Y-32630500D01*
X94268759Y-32630500D01*
X94491241Y-32630500D01*
X94491243Y-32630500D01*
X94709940Y-32589618D01*
X94917401Y-32509247D01*
X95034280Y-32436879D01*
X95726672Y-32436879D01*
X95726672Y-32436880D01*
X95842821Y-32508797D01*
X95842822Y-32508798D01*
X96050195Y-32589134D01*
X96268807Y-32630000D01*
X96491193Y-32630000D01*
X96709809Y-32589133D01*
X96917168Y-32508801D01*
X96917181Y-32508795D01*
X97033326Y-32436879D01*
X96380001Y-31783553D01*
X96380000Y-31783553D01*
X95726672Y-32436879D01*
X95034280Y-32436879D01*
X95106562Y-32392124D01*
X95270981Y-32242236D01*
X95405058Y-32064689D01*
X95409232Y-32056305D01*
X95432553Y-32023892D01*
X96026447Y-31430000D01*
X95980369Y-31383922D01*
X96030000Y-31383922D01*
X96030000Y-31476078D01*
X96053852Y-31565095D01*
X96099930Y-31644905D01*
X96165095Y-31710070D01*
X96244905Y-31756148D01*
X96333922Y-31780000D01*
X96426078Y-31780000D01*
X96515095Y-31756148D01*
X96594905Y-31710070D01*
X96660070Y-31644905D01*
X96706148Y-31565095D01*
X96730000Y-31476078D01*
X96730000Y-31429999D01*
X96733553Y-31429999D01*
X96733553Y-31430000D01*
X97327447Y-32023894D01*
X97350765Y-32056301D01*
X97354942Y-32064689D01*
X97489020Y-32242238D01*
X97653437Y-32392123D01*
X97653439Y-32392125D01*
X97842595Y-32509245D01*
X97842596Y-32509245D01*
X97842599Y-32509247D01*
X98050060Y-32589618D01*
X98268757Y-32630500D01*
X98268759Y-32630500D01*
X98491241Y-32630500D01*
X98491243Y-32630500D01*
X98709940Y-32589618D01*
X98917401Y-32509247D01*
X99106562Y-32392124D01*
X99270981Y-32242236D01*
X99405058Y-32064689D01*
X99504229Y-31865528D01*
X99565115Y-31651536D01*
X99585643Y-31430000D01*
X99575342Y-31318838D01*
X99565115Y-31208464D01*
X99565114Y-31208462D01*
X99563341Y-31202231D01*
X99504229Y-30994472D01*
X99504224Y-30994461D01*
X99405061Y-30795316D01*
X99405056Y-30795308D01*
X99270979Y-30617761D01*
X99106562Y-30467876D01*
X99106560Y-30467874D01*
X98917404Y-30350754D01*
X98917398Y-30350752D01*
X98709940Y-30270382D01*
X98491243Y-30229500D01*
X98268757Y-30229500D01*
X98050060Y-30270382D01*
X97921452Y-30320205D01*
X97842601Y-30350752D01*
X97842595Y-30350754D01*
X97653439Y-30467874D01*
X97653437Y-30467876D01*
X97489019Y-30617762D01*
X97489017Y-30617765D01*
X97354943Y-30795309D01*
X97354940Y-30795313D01*
X97350763Y-30803702D01*
X97327448Y-30836103D01*
X96733553Y-31429999D01*
X96730000Y-31429999D01*
X96730000Y-31383922D01*
X96706148Y-31294905D01*
X96660070Y-31215095D01*
X96594905Y-31149930D01*
X96515095Y-31103852D01*
X96426078Y-31080000D01*
X96333922Y-31080000D01*
X96244905Y-31103852D01*
X96165095Y-31149930D01*
X96099930Y-31215095D01*
X96053852Y-31294905D01*
X96030000Y-31383922D01*
X95980369Y-31383922D01*
X95432553Y-30836106D01*
X95409233Y-30803695D01*
X95405060Y-30795315D01*
X95405056Y-30795308D01*
X95270979Y-30617761D01*
X95106562Y-30467876D01*
X95106560Y-30467874D01*
X95034278Y-30423119D01*
X95726671Y-30423119D01*
X96380000Y-31076447D01*
X96380001Y-31076447D01*
X97033327Y-30423119D01*
X96917178Y-30351202D01*
X96917177Y-30351201D01*
X96709804Y-30270865D01*
X96491193Y-30230000D01*
X96268807Y-30230000D01*
X96050195Y-30270865D01*
X95842824Y-30351200D01*
X95842823Y-30351201D01*
X95726671Y-30423119D01*
X95034278Y-30423119D01*
X94917404Y-30350754D01*
X94917398Y-30350752D01*
X94709940Y-30270382D01*
X94491243Y-30229500D01*
X94268757Y-30229500D01*
X94050060Y-30270382D01*
X93921452Y-30320205D01*
X93842601Y-30350752D01*
X93842595Y-30350754D01*
X93653439Y-30467874D01*
X93653437Y-30467876D01*
X93489020Y-30617761D01*
X93354943Y-30795308D01*
X93354938Y-30795316D01*
X93255775Y-30994461D01*
X93255769Y-30994476D01*
X93194885Y-31208462D01*
X93194884Y-31208464D01*
X93174357Y-31429999D01*
X91903499Y-31429999D01*
X91704035Y-31230535D01*
X91704030Y-31230531D01*
X91644961Y-31191064D01*
X91644960Y-31191063D01*
X91556544Y-31131985D01*
X91556542Y-31131984D01*
X91474607Y-31098046D01*
X91474606Y-31098046D01*
X91392666Y-31064105D01*
X91392658Y-31064103D01*
X91218696Y-31029500D01*
X91218692Y-31029500D01*
X91218691Y-31029500D01*
X86924362Y-31029500D01*
X86857323Y-31009815D01*
X86836681Y-30993181D01*
X86655716Y-30812216D01*
X86651246Y-30807506D01*
X86605875Y-30757115D01*
X86605871Y-30757112D01*
X86594531Y-30748873D01*
X86579738Y-30736238D01*
X86574036Y-30730536D01*
X86562373Y-30722743D01*
X86517021Y-30692439D01*
X86513028Y-30689656D01*
X86452732Y-30645850D01*
X86452728Y-30645848D01*
X86446092Y-30642893D01*
X86427643Y-30632719D01*
X86426551Y-30631989D01*
X86426546Y-30631986D01*
X86356993Y-30603177D01*
X86354010Y-30601895D01*
X86279806Y-30568857D01*
X86279804Y-30568856D01*
X86279803Y-30568856D01*
X86279294Y-30568747D01*
X86268632Y-30565437D01*
X86268500Y-30565874D01*
X86262667Y-30564105D01*
X86182222Y-30548103D01*
X86180633Y-30547776D01*
X86094650Y-30529500D01*
X86094646Y-30529500D01*
X86088691Y-30529500D01*
X80724646Y-30529500D01*
X80535354Y-30529500D01*
X80535350Y-30529500D01*
X80449334Y-30547783D01*
X80447745Y-30548110D01*
X80367336Y-30564105D01*
X80361514Y-30565871D01*
X80361382Y-30565437D01*
X80350720Y-30568744D01*
X80350200Y-30568854D01*
X80350199Y-30568854D01*
X80275969Y-30601904D01*
X80272986Y-30603185D01*
X80203457Y-30631984D01*
X80203450Y-30631988D01*
X80202346Y-30632726D01*
X80183911Y-30642892D01*
X80177272Y-30645848D01*
X80177264Y-30645853D01*
X80116976Y-30689653D01*
X80112986Y-30692434D01*
X80055968Y-30730533D01*
X80055958Y-30730542D01*
X80050253Y-30736246D01*
X80035472Y-30748870D01*
X80024129Y-30757111D01*
X80024126Y-30757114D01*
X79978742Y-30807517D01*
X79974277Y-30812222D01*
X79930539Y-30855961D01*
X79930532Y-30855969D01*
X79922310Y-30868275D01*
X79911362Y-30882350D01*
X79897472Y-30897776D01*
X79897467Y-30897784D01*
X79866914Y-30950703D01*
X79862630Y-30957591D01*
X79831988Y-31003450D01*
X79823741Y-31023360D01*
X79816569Y-31037902D01*
X79802824Y-31061710D01*
X79802821Y-31061715D01*
X79786010Y-31113451D01*
X79782643Y-31122578D01*
X79764106Y-31167333D01*
X79758589Y-31195066D01*
X79754905Y-31209183D01*
X79744325Y-31241747D01*
X79739340Y-31289171D01*
X79737638Y-31300396D01*
X79729500Y-31341310D01*
X79729500Y-31376306D01*
X79728821Y-31389266D01*
X79724540Y-31429999D01*
X79728821Y-31470731D01*
X79729500Y-31483692D01*
X79729500Y-31518695D01*
X79737637Y-31559602D01*
X79739341Y-31570831D01*
X79744325Y-31618253D01*
X79744325Y-31618254D01*
X79754904Y-31650811D01*
X79758590Y-31664938D01*
X79764104Y-31692662D01*
X79764105Y-31692664D01*
X79782644Y-31737423D01*
X79786012Y-31746554D01*
X79802819Y-31798279D01*
X79802822Y-31798286D01*
X79816569Y-31822097D01*
X79823742Y-31836643D01*
X79831984Y-31856542D01*
X79862634Y-31902413D01*
X79866919Y-31909304D01*
X79897468Y-31962218D01*
X79897469Y-31962219D01*
X79911357Y-31977643D01*
X79922307Y-31991721D01*
X79930534Y-32004033D01*
X79974274Y-32047773D01*
X79978744Y-32052483D01*
X80024129Y-32102888D01*
X80024131Y-32102890D01*
X80035467Y-32111126D01*
X80050263Y-32123763D01*
X80055961Y-32129461D01*
X80055965Y-32129464D01*
X80112994Y-32167570D01*
X80116967Y-32170339D01*
X80177270Y-32214151D01*
X80183902Y-32217104D01*
X80202361Y-32227283D01*
X80203453Y-32228013D01*
X80273042Y-32256836D01*
X80275987Y-32258102D01*
X80350197Y-32291144D01*
X80350696Y-32291250D01*
X80361370Y-32294562D01*
X80361503Y-32294125D01*
X80367330Y-32295892D01*
X80367334Y-32295894D01*
X80447816Y-32311902D01*
X80449282Y-32312204D01*
X80535354Y-32330500D01*
X80541309Y-32330500D01*
X85575639Y-32330500D01*
X85642678Y-32350185D01*
X85663320Y-32366819D01*
X85800536Y-32504035D01*
X85925965Y-32629464D01*
X86073453Y-32728013D01*
X86121452Y-32747895D01*
X86237334Y-32795895D01*
X86411303Y-32830499D01*
X86411307Y-32830500D01*
X86411308Y-32830500D01*
X86411309Y-32830500D01*
X90705638Y-32830500D01*
X90772677Y-32850185D01*
X90793319Y-32866819D01*
X92443181Y-34516680D01*
X92476666Y-34578003D01*
X92479500Y-34604361D01*
X92479500Y-37005638D01*
X92459815Y-37072677D01*
X92443181Y-37093319D01*
X86543319Y-42993181D01*
X86481996Y-43026666D01*
X86455638Y-43029500D01*
X84054362Y-43029500D01*
X83987323Y-43009815D01*
X83966681Y-42993181D01*
X82285715Y-41312215D01*
X82281245Y-41307505D01*
X82235875Y-41257115D01*
X82235871Y-41257112D01*
X82224531Y-41248873D01*
X82209738Y-41236238D01*
X82204036Y-41230536D01*
X82204032Y-41230533D01*
X82204031Y-41230532D01*
X82147021Y-41192439D01*
X82143028Y-41189657D01*
X82119977Y-41172910D01*
X82082730Y-41145849D01*
X82076081Y-41142888D01*
X82057636Y-41132716D01*
X82057022Y-41132305D01*
X82056546Y-41131987D01*
X82020459Y-41117039D01*
X81986984Y-41103173D01*
X81984039Y-41101907D01*
X81909804Y-41068856D01*
X81909618Y-41068816D01*
X81909294Y-41068747D01*
X81898632Y-41065437D01*
X81898500Y-41065874D01*
X81892667Y-41064105D01*
X81812222Y-41048103D01*
X81810633Y-41047776D01*
X81724650Y-41029500D01*
X81724646Y-41029500D01*
X81535354Y-41029500D01*
X81449306Y-41047789D01*
X81447717Y-41048115D01*
X81367333Y-41064104D01*
X81361508Y-41065871D01*
X81361378Y-41065443D01*
X81350726Y-41068743D01*
X81350202Y-41068854D01*
X81350198Y-41068855D01*
X81275971Y-41101902D01*
X81272994Y-41103181D01*
X81203453Y-41131988D01*
X81203450Y-41131989D01*
X81202342Y-41132730D01*
X81183921Y-41142886D01*
X81177279Y-41145843D01*
X81177273Y-41145847D01*
X81116993Y-41189641D01*
X81113004Y-41192421D01*
X81055967Y-41230533D01*
X81055955Y-41230543D01*
X81050251Y-41236247D01*
X81035468Y-41248872D01*
X81024136Y-41257105D01*
X81024126Y-41257114D01*
X80978751Y-41307507D01*
X80974286Y-41312212D01*
X80930539Y-41355960D01*
X80930532Y-41355968D01*
X80922308Y-41368277D01*
X80911361Y-41382352D01*
X80897468Y-41397782D01*
X80897467Y-41397783D01*
X80866907Y-41450713D01*
X80862626Y-41457597D01*
X80831987Y-41503454D01*
X80823742Y-41523357D01*
X80816575Y-41537890D01*
X80802820Y-41561716D01*
X80802818Y-41561721D01*
X80786010Y-41613449D01*
X80782642Y-41622580D01*
X80764105Y-41667333D01*
X80764103Y-41667341D01*
X80758588Y-41695067D01*
X80754902Y-41709193D01*
X80744326Y-41741743D01*
X80744325Y-41741746D01*
X80739341Y-41789160D01*
X80737639Y-41800384D01*
X80729500Y-41841307D01*
X80729500Y-41876306D01*
X80728821Y-41889266D01*
X80724540Y-41929999D01*
X80728821Y-41970731D01*
X80729500Y-41983692D01*
X80729500Y-42018692D01*
X80737639Y-42059614D01*
X80739341Y-42070839D01*
X80744325Y-42118249D01*
X80744326Y-42118256D01*
X80754903Y-42150807D01*
X80758587Y-42164927D01*
X80764105Y-42192665D01*
X80764106Y-42192670D01*
X80782641Y-42237417D01*
X80786011Y-42246550D01*
X80802820Y-42298282D01*
X80816571Y-42322100D01*
X80823743Y-42336644D01*
X80831986Y-42356544D01*
X80831988Y-42356547D01*
X80862626Y-42402402D01*
X80866910Y-42409290D01*
X80897467Y-42462216D01*
X80911355Y-42477640D01*
X80922307Y-42491721D01*
X80930535Y-42504035D01*
X80974283Y-42547783D01*
X80978752Y-42552492D01*
X81024129Y-42602888D01*
X81035467Y-42611125D01*
X81050261Y-42623761D01*
X82693181Y-44266681D01*
X82726666Y-44328004D01*
X82729500Y-44354362D01*
X82729500Y-45629638D01*
X82709815Y-45696677D01*
X82693181Y-45717319D01*
X80569319Y-47841181D01*
X80507996Y-47874666D01*
X80481638Y-47877500D01*
X71170361Y-47877500D01*
X71103322Y-47857815D01*
X71082680Y-47841181D01*
X63608819Y-40367319D01*
X63575334Y-40305996D01*
X63572500Y-40279638D01*
X63572500Y-40068692D01*
X63573179Y-40055731D01*
X63577460Y-40015000D01*
X63573179Y-39974266D01*
X63572500Y-39961306D01*
X63572500Y-39926309D01*
X63564360Y-39885393D01*
X63562656Y-39874156D01*
X63557674Y-39826744D01*
X63547094Y-39794183D01*
X63543409Y-39780059D01*
X63537895Y-39752339D01*
X63537894Y-39752338D01*
X63537894Y-39752334D01*
X63519352Y-39707569D01*
X63515990Y-39698455D01*
X63499181Y-39646720D01*
X63499178Y-39646715D01*
X63485424Y-39622892D01*
X63478256Y-39608355D01*
X63470014Y-39588456D01*
X63470013Y-39588454D01*
X63470013Y-39588453D01*
X63439359Y-39542577D01*
X63435088Y-39535708D01*
X63404534Y-39482785D01*
X63404530Y-39482780D01*
X63390637Y-39467350D01*
X63379684Y-39453268D01*
X63373356Y-39443797D01*
X63371464Y-39440965D01*
X63327721Y-39397222D01*
X63323253Y-39392514D01*
X63277871Y-39342112D01*
X63277870Y-39342111D01*
X63266527Y-39333870D01*
X63251737Y-39321238D01*
X63246035Y-39315536D01*
X63189008Y-39277431D01*
X63185016Y-39274649D01*
X63140539Y-39242335D01*
X63124730Y-39230849D01*
X63118092Y-39227893D01*
X63099643Y-39217719D01*
X63098551Y-39216989D01*
X63098546Y-39216986D01*
X63028993Y-39188177D01*
X63026010Y-39186895D01*
X62951806Y-39153856D01*
X62951797Y-39153853D01*
X62951285Y-39153745D01*
X62940626Y-39150438D01*
X62940494Y-39150874D01*
X62934667Y-39149106D01*
X62934666Y-39149106D01*
X62934663Y-39149105D01*
X62934662Y-39149105D01*
X62854268Y-39133113D01*
X62852715Y-39132794D01*
X62766646Y-39114500D01*
X62577354Y-39114500D01*
X62577350Y-39114500D01*
X62491334Y-39132783D01*
X62489745Y-39133110D01*
X62409336Y-39149105D01*
X62403514Y-39150871D01*
X62403382Y-39150437D01*
X62392720Y-39153744D01*
X62392200Y-39153854D01*
X62392199Y-39153854D01*
X62317969Y-39186904D01*
X62314986Y-39188185D01*
X62245457Y-39216984D01*
X62245450Y-39216988D01*
X62244346Y-39217726D01*
X62225911Y-39227892D01*
X62219272Y-39230848D01*
X62219264Y-39230853D01*
X62158976Y-39274653D01*
X62154986Y-39277434D01*
X62097968Y-39315533D01*
X62097958Y-39315542D01*
X62092253Y-39321246D01*
X62077472Y-39333870D01*
X62066129Y-39342111D01*
X62066127Y-39342113D01*
X62020745Y-39392515D01*
X62016278Y-39397222D01*
X61972538Y-39440961D01*
X61972532Y-39440969D01*
X61964310Y-39453275D01*
X61953362Y-39467350D01*
X61939472Y-39482776D01*
X61939467Y-39482784D01*
X61908914Y-39535703D01*
X61904630Y-39542591D01*
X61873988Y-39588450D01*
X61865741Y-39608360D01*
X61858569Y-39622902D01*
X61844824Y-39646710D01*
X61844821Y-39646715D01*
X61828010Y-39698451D01*
X61824643Y-39707578D01*
X61806106Y-39752333D01*
X61800589Y-39780066D01*
X61796905Y-39794183D01*
X61786325Y-39826747D01*
X61781340Y-39874171D01*
X61779638Y-39885396D01*
X61771500Y-39926310D01*
X61771500Y-39961306D01*
X61770821Y-39974266D01*
X61766540Y-40014999D01*
X44500500Y-40014999D01*
X44500500Y-37952135D01*
X72899500Y-37952135D01*
X72899500Y-39047870D01*
X72899501Y-39047876D01*
X72905908Y-39107483D01*
X72956202Y-39242328D01*
X72956206Y-39242335D01*
X73042452Y-39357544D01*
X73042455Y-39357547D01*
X73157664Y-39443793D01*
X73157671Y-39443797D01*
X73292517Y-39494091D01*
X73292516Y-39494091D01*
X73299444Y-39494835D01*
X73352127Y-39500500D01*
X74447872Y-39500499D01*
X74507483Y-39494091D01*
X74642331Y-39443796D01*
X74757546Y-39357546D01*
X74843796Y-39242331D01*
X74894091Y-39107483D01*
X74900500Y-39047873D01*
X74900499Y-37952128D01*
X74894091Y-37892517D01*
X74843796Y-37757669D01*
X74843795Y-37757668D01*
X74843793Y-37757664D01*
X74757547Y-37642455D01*
X74757544Y-37642452D01*
X74642335Y-37556206D01*
X74642328Y-37556202D01*
X74507482Y-37505908D01*
X74507483Y-37505908D01*
X74447883Y-37499501D01*
X74447881Y-37499500D01*
X74447873Y-37499500D01*
X74447864Y-37499500D01*
X73352129Y-37499500D01*
X73352123Y-37499501D01*
X73292516Y-37505908D01*
X73157671Y-37556202D01*
X73157664Y-37556206D01*
X73042455Y-37642452D01*
X73042452Y-37642455D01*
X72956206Y-37757664D01*
X72956202Y-37757671D01*
X72905908Y-37892517D01*
X72899501Y-37952116D01*
X72899501Y-37952123D01*
X72899500Y-37952135D01*
X44500500Y-37952135D01*
X44500500Y-35052135D01*
X58799500Y-35052135D01*
X58799500Y-36147870D01*
X58799501Y-36147876D01*
X58805908Y-36207483D01*
X58856202Y-36342328D01*
X58856206Y-36342335D01*
X58942452Y-36457544D01*
X58942455Y-36457547D01*
X59057664Y-36543793D01*
X59057671Y-36543797D01*
X59192517Y-36594091D01*
X59192516Y-36594091D01*
X59199444Y-36594835D01*
X59252127Y-36600500D01*
X60347872Y-36600499D01*
X60407483Y-36594091D01*
X60542331Y-36543796D01*
X60657546Y-36457546D01*
X60743796Y-36342331D01*
X60794091Y-36207483D01*
X60800500Y-36147873D01*
X60800499Y-35052128D01*
X60794091Y-34992517D01*
X60743796Y-34857669D01*
X60743795Y-34857668D01*
X60743793Y-34857664D01*
X60657547Y-34742455D01*
X60657544Y-34742452D01*
X60542335Y-34656206D01*
X60542328Y-34656202D01*
X60407482Y-34605908D01*
X60407483Y-34605908D01*
X60347883Y-34599501D01*
X60347881Y-34599500D01*
X60347873Y-34599500D01*
X60347864Y-34599500D01*
X59252129Y-34599500D01*
X59252123Y-34599501D01*
X59192516Y-34605908D01*
X59057671Y-34656202D01*
X59057664Y-34656206D01*
X58942455Y-34742452D01*
X58942452Y-34742455D01*
X58856206Y-34857664D01*
X58856202Y-34857671D01*
X58805908Y-34992517D01*
X58799501Y-35052116D01*
X58799501Y-35052123D01*
X58799500Y-35052135D01*
X44500500Y-35052135D01*
X44500500Y-29378711D01*
X47149500Y-29378711D01*
X47149500Y-29621288D01*
X47181161Y-29861785D01*
X47243947Y-30096104D01*
X47336773Y-30320205D01*
X47336777Y-30320214D01*
X47354668Y-30351202D01*
X47458064Y-30530289D01*
X47458066Y-30530292D01*
X47458067Y-30530293D01*
X47605733Y-30722736D01*
X47605739Y-30722743D01*
X47777256Y-30894260D01*
X47777263Y-30894266D01*
X47855396Y-30954219D01*
X47969711Y-31041936D01*
X48179788Y-31163224D01*
X48403900Y-31256054D01*
X48638211Y-31318838D01*
X48808898Y-31341309D01*
X48878711Y-31350500D01*
X48878712Y-31350500D01*
X49121289Y-31350500D01*
X49191094Y-31341310D01*
X49361789Y-31318838D01*
X49596100Y-31256054D01*
X49820212Y-31163224D01*
X50030289Y-31041936D01*
X50222738Y-30894265D01*
X50394265Y-30722738D01*
X50541936Y-30530289D01*
X50663224Y-30320212D01*
X50756054Y-30096100D01*
X50818838Y-29861789D01*
X50850500Y-29621288D01*
X50850500Y-29378712D01*
X50818838Y-29138211D01*
X50756054Y-28903900D01*
X50663224Y-28679788D01*
X50541936Y-28469711D01*
X50394265Y-28277262D01*
X50394260Y-28277256D01*
X50222743Y-28105739D01*
X50222736Y-28105733D01*
X50030293Y-27958067D01*
X50030292Y-27958066D01*
X50030289Y-27958064D01*
X49820212Y-27836776D01*
X49820205Y-27836773D01*
X49596104Y-27743947D01*
X49361785Y-27681161D01*
X49121289Y-27649500D01*
X49121288Y-27649500D01*
X48878712Y-27649500D01*
X48878711Y-27649500D01*
X48638214Y-27681161D01*
X48403895Y-27743947D01*
X48179794Y-27836773D01*
X48179785Y-27836777D01*
X47969706Y-27958067D01*
X47777263Y-28105733D01*
X47777256Y-28105739D01*
X47605739Y-28277256D01*
X47605733Y-28277263D01*
X47458067Y-28469706D01*
X47336777Y-28679785D01*
X47336773Y-28679794D01*
X47243947Y-28903895D01*
X47181161Y-29138214D01*
X47149500Y-29378711D01*
X44500500Y-29378711D01*
X44500500Y-27343543D01*
X71059499Y-27343543D01*
X71097947Y-27536829D01*
X71097950Y-27536839D01*
X71173364Y-27718907D01*
X71173371Y-27718920D01*
X71282860Y-27882781D01*
X71282863Y-27882785D01*
X71422214Y-28022136D01*
X71422218Y-28022139D01*
X71586079Y-28131628D01*
X71586092Y-28131635D01*
X71768160Y-28207049D01*
X71768165Y-28207051D01*
X71768169Y-28207051D01*
X71768170Y-28207052D01*
X71961456Y-28245500D01*
X71961459Y-28245500D01*
X72158543Y-28245500D01*
X72288582Y-28219632D01*
X72351835Y-28207051D01*
X72533914Y-28131632D01*
X72697782Y-28022139D01*
X72837139Y-27882782D01*
X72946632Y-27718914D01*
X73022051Y-27536835D01*
X73060500Y-27343541D01*
X73060500Y-26873446D01*
X73080185Y-26806407D01*
X73132989Y-26760652D01*
X73202147Y-26750708D01*
X73246502Y-26766060D01*
X73272862Y-26781280D01*
X73272864Y-26781280D01*
X73272865Y-26781281D01*
X73419234Y-26820500D01*
X73419236Y-26820500D01*
X73570764Y-26820500D01*
X73570766Y-26820500D01*
X73717135Y-26781281D01*
X73848365Y-26705515D01*
X73955515Y-26598365D01*
X74031281Y-26467135D01*
X74070500Y-26320766D01*
X74070500Y-26169234D01*
X78689500Y-26169234D01*
X78689500Y-26320765D01*
X78728719Y-26467136D01*
X78766602Y-26532750D01*
X78804485Y-26598365D01*
X78911635Y-26705515D01*
X79042865Y-26781281D01*
X79189234Y-26820500D01*
X79189236Y-26820500D01*
X79340764Y-26820500D01*
X79340766Y-26820500D01*
X79487135Y-26781281D01*
X79513498Y-26766059D01*
X79581398Y-26749586D01*
X79647425Y-26772437D01*
X79690617Y-26827358D01*
X79699500Y-26873446D01*
X79699500Y-27343541D01*
X79699500Y-27343543D01*
X79699499Y-27343543D01*
X79737947Y-27536829D01*
X79737950Y-27536839D01*
X79813364Y-27718907D01*
X79813371Y-27718920D01*
X79922860Y-27882781D01*
X79922863Y-27882785D01*
X80062214Y-28022136D01*
X80062218Y-28022139D01*
X80226079Y-28131628D01*
X80226092Y-28131635D01*
X80408160Y-28207049D01*
X80408165Y-28207051D01*
X80408169Y-28207051D01*
X80408170Y-28207052D01*
X80601456Y-28245500D01*
X80601459Y-28245500D01*
X80798543Y-28245500D01*
X80928582Y-28219632D01*
X80991835Y-28207051D01*
X81173914Y-28131632D01*
X81337782Y-28022139D01*
X81477139Y-27882782D01*
X81586632Y-27718914D01*
X81662051Y-27536835D01*
X81700500Y-27343541D01*
X81700500Y-26146459D01*
X81700500Y-26146456D01*
X81662052Y-25953170D01*
X81662051Y-25953169D01*
X81662051Y-25953165D01*
X81636565Y-25891635D01*
X81586635Y-25771092D01*
X81586628Y-25771079D01*
X81477139Y-25607218D01*
X81477136Y-25607214D01*
X81337785Y-25467863D01*
X81337781Y-25467860D01*
X81173920Y-25358371D01*
X81173907Y-25358364D01*
X80991839Y-25282950D01*
X80991829Y-25282947D01*
X80798543Y-25244500D01*
X80798541Y-25244500D01*
X80601459Y-25244500D01*
X80601457Y-25244500D01*
X80408170Y-25282947D01*
X80408160Y-25282950D01*
X80226092Y-25358364D01*
X80226079Y-25358371D01*
X80062218Y-25467860D01*
X80062214Y-25467863D01*
X79922863Y-25607214D01*
X79922860Y-25607218D01*
X79813836Y-25770383D01*
X79760223Y-25815188D01*
X79690898Y-25823895D01*
X79627871Y-25793740D01*
X79623053Y-25789173D01*
X79618367Y-25784487D01*
X79618365Y-25784485D01*
X79552750Y-25746602D01*
X79487136Y-25708719D01*
X79413950Y-25689109D01*
X79340766Y-25669500D01*
X79189234Y-25669500D01*
X79042863Y-25708719D01*
X78911635Y-25784485D01*
X78911632Y-25784487D01*
X78804487Y-25891632D01*
X78804485Y-25891635D01*
X78728719Y-26022863D01*
X78689500Y-26169234D01*
X74070500Y-26169234D01*
X74031281Y-26022865D01*
X73955515Y-25891635D01*
X73848365Y-25784485D01*
X73782750Y-25746602D01*
X73717136Y-25708719D01*
X73643950Y-25689109D01*
X73570766Y-25669500D01*
X73419234Y-25669500D01*
X73272863Y-25708719D01*
X73141635Y-25784485D01*
X73141629Y-25784489D01*
X73136941Y-25789178D01*
X73075616Y-25822660D01*
X73005925Y-25817673D01*
X72949993Y-25775799D01*
X72946183Y-25770415D01*
X72837139Y-25607218D01*
X72837137Y-25607215D01*
X72697785Y-25467863D01*
X72697781Y-25467860D01*
X72533920Y-25358371D01*
X72533907Y-25358364D01*
X72351839Y-25282950D01*
X72351829Y-25282947D01*
X72158543Y-25244500D01*
X72158541Y-25244500D01*
X71961459Y-25244500D01*
X71961457Y-25244500D01*
X71768170Y-25282947D01*
X71768160Y-25282950D01*
X71586092Y-25358364D01*
X71586079Y-25358371D01*
X71422218Y-25467860D01*
X71422214Y-25467863D01*
X71282863Y-25607214D01*
X71282860Y-25607218D01*
X71173371Y-25771079D01*
X71173364Y-25771092D01*
X71097950Y-25953160D01*
X71097947Y-25953170D01*
X71059500Y-26146456D01*
X71059500Y-26146459D01*
X71059500Y-27343541D01*
X71059500Y-27343543D01*
X71059499Y-27343543D01*
X44500500Y-27343543D01*
X44500500Y-25624500D01*
X44520185Y-25557461D01*
X44572989Y-25511706D01*
X44624500Y-25500500D01*
X70565890Y-25500500D01*
X70565892Y-25500500D01*
X70693186Y-25466392D01*
X70807314Y-25400500D01*
X70900500Y-25307314D01*
X70966392Y-25193186D01*
X71000500Y-25065892D01*
X71000500Y-23578972D01*
X71020185Y-23511933D01*
X71072989Y-23466178D01*
X71142147Y-23456234D01*
X71205703Y-23485259D01*
X71227602Y-23510082D01*
X71282857Y-23592777D01*
X71282863Y-23592785D01*
X71422214Y-23732136D01*
X71422218Y-23732139D01*
X71586079Y-23841628D01*
X71586092Y-23841635D01*
X71741654Y-23906070D01*
X71768165Y-23917051D01*
X71768169Y-23917051D01*
X71768170Y-23917052D01*
X71961456Y-23955500D01*
X71961459Y-23955500D01*
X72158543Y-23955500D01*
X72288582Y-23929632D01*
X72351835Y-23917051D01*
X72533914Y-23841632D01*
X72697782Y-23732139D01*
X72837139Y-23592782D01*
X72946632Y-23428914D01*
X73022051Y-23246835D01*
X73050554Y-23103543D01*
X73060500Y-23053543D01*
X73060500Y-22156456D01*
X73022052Y-21963170D01*
X73022051Y-21963169D01*
X73022051Y-21963165D01*
X73001343Y-21913170D01*
X72946635Y-21781092D01*
X72946628Y-21781079D01*
X72837139Y-21617218D01*
X72837136Y-21617214D01*
X72697785Y-21477863D01*
X72697781Y-21477860D01*
X72533920Y-21368371D01*
X72533907Y-21368364D01*
X72351839Y-21292950D01*
X72351829Y-21292947D01*
X72158543Y-21254500D01*
X72158541Y-21254500D01*
X71961459Y-21254500D01*
X71961457Y-21254500D01*
X71768170Y-21292947D01*
X71768160Y-21292950D01*
X71586092Y-21368364D01*
X71586079Y-21368371D01*
X71422218Y-21477860D01*
X71422214Y-21477863D01*
X71282863Y-21617214D01*
X71282860Y-21617218D01*
X71227602Y-21699918D01*
X71173990Y-21744723D01*
X71104665Y-21753430D01*
X71041637Y-21723275D01*
X71004918Y-21663832D01*
X71000500Y-21631027D01*
X71000500Y-20624500D01*
X71020185Y-20557461D01*
X71072989Y-20511706D01*
X71124500Y-20500500D01*
X81375500Y-20500500D01*
X81442539Y-20520185D01*
G37*
%TD.AperFunction*%
%TD*%
M02*
