%TF.GenerationSoftware,KiCad,Pcbnew,8.0.4*%
%TF.CreationDate,2024-07-29T01:22:02-07:00*%
%TF.ProjectId,panel_1,70616e65-6c5f-4312-9e6b-696361645f70,rev?*%
%TF.SameCoordinates,Original*%
%TF.FileFunction,Profile,NP*%
%FSLAX46Y46*%
G04 Gerber Fmt 4.6, Leading zero omitted, Abs format (unit mm)*
G04 Created by KiCad (PCBNEW 8.0.4) date 2024-07-29 01:22:02*
%MOMM*%
%LPD*%
G01*
G04 APERTURE LIST*
%TA.AperFunction,Profile*%
%ADD10C,0.050000*%
%TD*%
G04 APERTURE END LIST*
D10*
X139000000Y-119500000D02*
X139000000Y-25000000D01*
X139000000Y-119500000D02*
X98250000Y-119500000D01*
X44000000Y-119500000D02*
X44000000Y-25000000D01*
X49050000Y-101100000D02*
G75*
G02*
X50550000Y-101100000I750000J0D01*
G01*
X95200000Y-78500000D02*
G75*
G02*
X95200000Y-76700000I0J900000D01*
G01*
X74100000Y-85450000D02*
X74100000Y-88050000D01*
X96550000Y-96000000D02*
X96550000Y-101850000D01*
X75800000Y-119500000D02*
X96550000Y-119500000D01*
X49050000Y-104100000D02*
X49050000Y-101100000D01*
X70500000Y-25000000D02*
X44000000Y-25000000D01*
X75800000Y-117700000D02*
X75800000Y-119500000D01*
X74200000Y-117700000D02*
X74200000Y-119500000D01*
X50550000Y-101100000D02*
X50550000Y-104100000D01*
X98250000Y-92000000D02*
G75*
G02*
X96550000Y-92000000I-850000J0D01*
G01*
X74200000Y-119500000D02*
X44000000Y-119500000D01*
X50550000Y-90600000D02*
X50550000Y-89650000D01*
X98250000Y-113950000D02*
X98250000Y-105850000D01*
X91200000Y-76700000D02*
G75*
G02*
X91200000Y-78500000I0J-900000D01*
G01*
X67250000Y-89650000D02*
G75*
G02*
X67250000Y-88050000I0J800000D01*
G01*
X96550000Y-105850000D02*
G75*
G02*
X98250000Y-105850000I850000J0D01*
G01*
X50550000Y-110350000D02*
X70000000Y-110350000D01*
X75600000Y-76700000D02*
X74100000Y-78200000D01*
X49050000Y-90600000D02*
X49050000Y-88900000D01*
X98250000Y-78700000D02*
X96250000Y-76700000D01*
X98250000Y-117950000D02*
X98250000Y-119500000D01*
X75800000Y-113700000D02*
G75*
G02*
X74200000Y-113700000I-800000J0D01*
G01*
X81400000Y-78500000D02*
G75*
G02*
X81400000Y-76700000I0J900000D01*
G01*
X75800000Y-110350000D02*
X75800000Y-113700000D01*
X98250000Y-92000000D02*
X98250000Y-88850000D01*
X77400000Y-76700000D02*
G75*
G02*
X77400000Y-78500000I0J-900000D01*
G01*
X96550000Y-78500000D02*
X96550000Y-84850000D01*
X91200000Y-76700000D02*
X81400000Y-76700000D01*
X70000000Y-111850000D02*
X49050000Y-111850000D01*
X96550000Y-119500000D02*
X96550000Y-117950000D01*
X50550000Y-90600000D02*
G75*
G02*
X49050000Y-90600000I-750000J0D01*
G01*
X70000000Y-110350000D02*
G75*
G02*
X70000000Y-111850000I0J-750000D01*
G01*
X96550000Y-78500000D02*
X95200000Y-78500000D01*
X75800000Y-89650000D02*
X74100000Y-89650000D01*
X49050000Y-94600000D02*
G75*
G02*
X50550000Y-94600000I750000J0D01*
G01*
X96550000Y-92000000D02*
X96550000Y-88850000D01*
X70100000Y-88050000D02*
G75*
G02*
X70100000Y-89650000I0J-800000D01*
G01*
X77400000Y-76700000D02*
X75600000Y-76700000D01*
X50550000Y-108100000D02*
X50550000Y-110350000D01*
X98250000Y-101850000D02*
G75*
G02*
X96550000Y-101850000I-850000J0D01*
G01*
X74200000Y-111850000D02*
X74000000Y-111850000D01*
X75800000Y-81450000D02*
X75800000Y-78500000D01*
X50550000Y-94600000D02*
X50550000Y-97100000D01*
X74100000Y-81450000D02*
X74100000Y-78200000D01*
X49050000Y-108100000D02*
G75*
G02*
X50550000Y-108100000I750000J0D01*
G01*
X75800000Y-78500000D02*
X77400000Y-78500000D01*
X74200000Y-117700000D02*
G75*
G02*
X75800000Y-117700000I800000J0D01*
G01*
X50550000Y-97100000D02*
G75*
G02*
X49050000Y-97100000I-750000J0D01*
G01*
X82000000Y-25000000D02*
X82000000Y-20000000D01*
X96250000Y-76700000D02*
X95200000Y-76700000D01*
X91200000Y-78500000D02*
X81400000Y-78500000D01*
X74000000Y-110350000D02*
X75800000Y-110350000D01*
X98250000Y-84850000D02*
G75*
G02*
X96550000Y-84850000I-850000J0D01*
G01*
X49050000Y-88900000D02*
X49900000Y-88050000D01*
X96550000Y-96000000D02*
G75*
G02*
X98250000Y-96000000I850000J0D01*
G01*
X98250000Y-84850000D02*
X98250000Y-78700000D01*
X70500000Y-20000000D02*
X70500000Y-25000000D01*
X49050000Y-108100000D02*
X49050000Y-111850000D01*
X74100000Y-85450000D02*
G75*
G02*
X75800000Y-85450000I850000J0D01*
G01*
X50550000Y-104100000D02*
G75*
G02*
X49050000Y-104100000I-750000J0D01*
G01*
X139000000Y-25000000D02*
X82000000Y-25000000D01*
X98250000Y-113950000D02*
G75*
G02*
X96550000Y-113950000I-850000J0D01*
G01*
X70100000Y-89650000D02*
X67250000Y-89650000D01*
X49050000Y-97100000D02*
X49050000Y-94600000D01*
X98250000Y-101850000D02*
X98250000Y-96000000D01*
X74100000Y-89650000D02*
G75*
G02*
X74100000Y-88050000I0J800000D01*
G01*
X63250000Y-88050000D02*
G75*
G02*
X63250000Y-89650000I0J-800000D01*
G01*
X75800000Y-81450000D02*
G75*
G02*
X74100000Y-81450000I-850000J0D01*
G01*
X96550000Y-113950000D02*
X96550000Y-105850000D01*
X96550000Y-88850000D02*
G75*
G02*
X98250000Y-88850000I850000J0D01*
G01*
X67250000Y-88050000D02*
X70100000Y-88050000D01*
X63250000Y-88050000D02*
X49900000Y-88050000D01*
X82000000Y-20000000D02*
X70500000Y-20000000D01*
X74000000Y-111850000D02*
G75*
G02*
X74000000Y-110350000I0J750000D01*
G01*
X96550000Y-117950000D02*
G75*
G02*
X98250000Y-117950000I850000J0D01*
G01*
X63250000Y-89650000D02*
X50550000Y-89650000D01*
X74200000Y-113700000D02*
X74200000Y-111850000D01*
X75800000Y-85450000D02*
X75800000Y-89650000D01*
M02*
