%TF.GenerationSoftware,KiCad,Pcbnew,8.0.4*%
%TF.CreationDate,2024-07-29T01:22:02-07:00*%
%TF.ProjectId,panel_1,70616e65-6c5f-4312-9e6b-696361645f70,rev?*%
%TF.SameCoordinates,Original*%
%TF.FileFunction,Soldermask,Bot*%
%TF.FilePolarity,Negative*%
%FSLAX46Y46*%
G04 Gerber Fmt 4.6, Leading zero omitted, Abs format (unit mm)*
G04 Created by KiCad (PCBNEW 8.0.4) date 2024-07-29 01:22:02*
%MOMM*%
%LPD*%
G01*
G04 APERTURE LIST*
G04 Aperture macros list*
%AMRoundRect*
0 Rectangle with rounded corners*
0 $1 Rounding radius*
0 $2 $3 $4 $5 $6 $7 $8 $9 X,Y pos of 4 corners*
0 Add a 4 corners polygon primitive as box body*
4,1,4,$2,$3,$4,$5,$6,$7,$8,$9,$2,$3,0*
0 Add four circle primitives for the rounded corners*
1,1,$1+$1,$2,$3*
1,1,$1+$1,$4,$5*
1,1,$1+$1,$6,$7*
1,1,$1+$1,$8,$9*
0 Add four rect primitives between the rounded corners*
20,1,$1+$1,$2,$3,$4,$5,0*
20,1,$1+$1,$4,$5,$6,$7,0*
20,1,$1+$1,$6,$7,$8,$9,0*
20,1,$1+$1,$8,$9,$2,$3,0*%
G04 Aperture macros list end*
%ADD10C,0.500000*%
%ADD11R,1.000000X1.000000*%
%ADD12RoundRect,0.250000X-1.329660X-0.531629X0.564293X-1.316130X1.329660X0.531629X-0.564293X1.316130X0*%
%ADD13C,1.750000*%
%ADD14C,3.050000*%
%ADD15C,4.000000*%
%ADD16C,1.400000*%
%ADD17C,3.200000*%
%ADD18RoundRect,0.250000X-1.025000X-1.000000X1.025000X-1.000000X1.025000X1.000000X-1.025000X1.000000X0*%
%ADD19O,1.000000X1.700000*%
%ADD20O,1.000000X2.000000*%
%ADD21C,0.600000*%
%ADD22RoundRect,0.250000X1.000000X-1.025000X1.000000X1.025000X-1.000000X1.025000X-1.000000X-1.025000X0*%
%ADD23C,3.048000*%
%ADD24C,3.987800*%
G04 APERTURE END LIST*
D10*
%TO.C,mouse-bite-2mm-slot*%
X74200000Y-84200000D03*
X75700000Y-84200000D03*
X74200000Y-83450000D03*
X75700000Y-83450000D03*
X74200000Y-82700000D03*
X75700000Y-82700000D03*
%TD*%
%TO.C,mouse-bite-2mm-slot*%
X93950000Y-78350000D03*
X93950000Y-76850000D03*
X93200000Y-78350000D03*
X93200000Y-76850000D03*
X92450000Y-78350000D03*
X92450000Y-76850000D03*
%TD*%
%TO.C,mouse-bite-2mm-slot*%
X49050000Y-93350000D03*
X50550000Y-93350000D03*
X49050000Y-92600000D03*
X50550000Y-92600000D03*
X49050000Y-91850000D03*
X50550000Y-91850000D03*
%TD*%
%TO.C,mouse-bite-2mm-slot*%
X66000000Y-89600000D03*
X66000000Y-88100000D03*
X65250000Y-89600000D03*
X65250000Y-88100000D03*
X64500000Y-89600000D03*
X64500000Y-88100000D03*
%TD*%
%TO.C,mouse-bite-2mm-slot*%
X96650000Y-116700000D03*
X98150000Y-116700000D03*
X96650000Y-115950000D03*
X98150000Y-115950000D03*
X96650000Y-115200000D03*
X98150000Y-115200000D03*
%TD*%
%TO.C,mouse-bite-2mm-slot*%
X49050000Y-99850000D03*
X50550000Y-99850000D03*
X49050000Y-99100000D03*
X50550000Y-99100000D03*
X49050000Y-98350000D03*
X50550000Y-98350000D03*
%TD*%
%TO.C,mouse-bite-2mm-slot*%
X96650000Y-94750000D03*
X98150000Y-94750000D03*
X96650000Y-94000000D03*
X98150000Y-94000000D03*
X96650000Y-93250000D03*
X98150000Y-93250000D03*
%TD*%
%TO.C,mouse-bite-2mm-slot*%
X72850000Y-89600000D03*
X72850000Y-88100000D03*
X72100000Y-89600000D03*
X72100000Y-88100000D03*
X71350000Y-89600000D03*
X71350000Y-88100000D03*
%TD*%
%TO.C,mouse-bite-2mm-slot*%
X72750000Y-111850000D03*
X72750000Y-110350000D03*
X72000000Y-111850000D03*
X72000000Y-110350000D03*
X71250000Y-111850000D03*
X71250000Y-110350000D03*
%TD*%
%TO.C,mouse-bite-2mm-slot*%
X96650000Y-87600000D03*
X98150000Y-87600000D03*
X96650000Y-86850000D03*
X98150000Y-86850000D03*
X96650000Y-86100000D03*
X98150000Y-86100000D03*
%TD*%
%TO.C,mouse-bite-2mm-slot*%
X80150000Y-78350000D03*
X80150000Y-76850000D03*
X79400000Y-78350000D03*
X79400000Y-76850000D03*
X78650000Y-78350000D03*
X78650000Y-76850000D03*
%TD*%
%TO.C,mouse-bite-2mm-slot*%
X74250000Y-116450000D03*
X75750000Y-116450000D03*
X74250000Y-115700000D03*
X75750000Y-115700000D03*
X74250000Y-114950000D03*
X75750000Y-114950000D03*
%TD*%
%TO.C,mouse-bite-2mm-slot*%
X96650000Y-104600000D03*
X98150000Y-104600000D03*
X96650000Y-103850000D03*
X98150000Y-103850000D03*
X96650000Y-103100000D03*
X98150000Y-103100000D03*
%TD*%
%TO.C,mouse-bite-2mm-slot*%
X49050000Y-106850000D03*
X50550000Y-106850000D03*
X49050000Y-106100000D03*
X50550000Y-106100000D03*
X49050000Y-105350000D03*
X50550000Y-105350000D03*
%TD*%
D11*
%TO.C,TP2*%
X73900000Y-38500000D03*
%TD*%
D12*
%TO.C,SW20_RIGHT*%
X133245279Y-80542329D03*
X120330272Y-77942034D03*
D13*
X130597251Y-84944032D03*
D14*
X130194629Y-79278708D03*
D15*
X125903943Y-83000000D03*
D14*
X123355978Y-79195322D03*
D13*
X121210635Y-81055968D03*
%TD*%
D16*
%TO.C,J2*%
X94380000Y-31430000D03*
X96380000Y-31430000D03*
X98380000Y-31430000D03*
%TD*%
D17*
%TO.C,H2*%
X49000000Y-83500000D03*
%TD*%
%TO.C,H5*%
X78000000Y-64000000D03*
%TD*%
D12*
%TO.C,SW17_W*%
X124466227Y-51956786D03*
X111551220Y-49356491D03*
D13*
X121818199Y-56358489D03*
D14*
X121415577Y-50693165D03*
D15*
X117124891Y-54414457D03*
D14*
X114576926Y-50609779D03*
D13*
X112431583Y-52470425D03*
%TD*%
D17*
%TO.C,H4*%
X127500000Y-109500000D03*
%TD*%
D11*
%TO.C,TP1*%
X66000000Y-30750000D03*
%TD*%
D12*
%TO.C,SW18_DOWN*%
X117176108Y-69556691D03*
X104261101Y-66956396D03*
D13*
X114528080Y-73958394D03*
D14*
X114125458Y-68293070D03*
D15*
X109834772Y-72014362D03*
D14*
X107286807Y-68209684D03*
D13*
X105141464Y-70070330D03*
%TD*%
D18*
%TO.C,SW8_DP*%
X65842000Y-66911696D03*
X52915000Y-69451696D03*
D13*
X65080000Y-71991696D03*
D14*
X62540000Y-66911696D03*
D15*
X60000000Y-71991696D03*
D14*
X56190000Y-69451696D03*
D13*
X54920000Y-71991696D03*
%TD*%
D17*
%TO.C,H3*%
X120500000Y-35000000D03*
%TD*%
D19*
%TO.C,J1*%
X72060000Y-22100000D03*
D20*
X72060000Y-26295000D03*
D19*
X80700000Y-22100000D03*
D20*
X80700000Y-26295000D03*
D21*
X73490000Y-25795000D03*
X79270000Y-25795000D03*
%TD*%
D17*
%TO.C,H1*%
X49000000Y-29500000D03*
%TD*%
D12*
%TO.C,SW19_LEFT*%
X99576203Y-62266572D03*
X86661196Y-59666277D03*
D13*
X96928175Y-66668275D03*
D14*
X96525553Y-61002951D03*
D15*
X92234867Y-64724243D03*
D14*
X89686902Y-60919565D03*
D13*
X87541559Y-62780211D03*
%TD*%
%TO.C,SW16_SPACE*%
X85310000Y-104140000D03*
D14*
X82770000Y-102870000D03*
D15*
X85310000Y-99060000D03*
D14*
X80230000Y-96520000D03*
D13*
X85310000Y-93980000D03*
D22*
X82770000Y-106145000D03*
X80230000Y-93218000D03*
%TD*%
D17*
%TO.C,H13*%
X66800000Y-99500000D03*
%TD*%
D23*
%TO.C,S1*%
X78325000Y-110998000D03*
D24*
X93535000Y-110998000D03*
D23*
X78325000Y-87122000D03*
D24*
X93535000Y-87122000D03*
%TD*%
M02*
