%TF.GenerationSoftware,KiCad,Pcbnew,8.0.4*%
%TF.CreationDate,2024-07-29T14:44:41-07:00*%
%TF.ProjectId,3board_c,33626f61-7264-45f6-932e-6b696361645f,rev?*%
%TF.SameCoordinates,Original*%
%TF.FileFunction,Soldermask,Top*%
%TF.FilePolarity,Negative*%
%FSLAX46Y46*%
G04 Gerber Fmt 4.6, Leading zero omitted, Abs format (unit mm)*
G04 Created by KiCad (PCBNEW 8.0.4) date 2024-07-29 14:44:41*
%MOMM*%
%LPD*%
G01*
G04 APERTURE LIST*
G04 Aperture macros list*
%AMFreePoly0*
4,1,19,0.500000,-0.750000,0.000000,-0.750000,0.000000,-0.744911,-0.071157,-0.744911,-0.207708,-0.704816,-0.327430,-0.627875,-0.420627,-0.520320,-0.479746,-0.390866,-0.500000,-0.250000,-0.500000,0.250000,-0.479746,0.390866,-0.420627,0.520320,-0.327430,0.627875,-0.207708,0.704816,-0.071157,0.744911,0.000000,0.744911,0.000000,0.750000,0.500000,0.750000,0.500000,-0.750000,0.500000,-0.750000,
$1*%
%AMFreePoly1*
4,1,19,0.000000,0.744911,0.071157,0.744911,0.207708,0.704816,0.327430,0.627875,0.420627,0.520320,0.479746,0.390866,0.500000,0.250000,0.500000,-0.250000,0.479746,-0.390866,0.420627,-0.520320,0.327430,-0.627875,0.207708,-0.704816,0.071157,-0.744911,0.000000,-0.744911,0.000000,-0.750000,-0.500000,-0.750000,-0.500000,0.750000,0.000000,0.750000,0.000000,0.744911,0.000000,0.744911,
$1*%
G04 Aperture macros list end*
%ADD10C,3.200000*%
%ADD11FreePoly0,0.000000*%
%ADD12FreePoly1,0.000000*%
%ADD13C,3.048000*%
%ADD14C,3.987800*%
%ADD15C,1.750000*%
%ADD16C,3.050000*%
%ADD17C,4.000000*%
G04 APERTURE END LIST*
D10*
%TO.C,*%
X173500000Y-106375000D03*
%TD*%
%TO.C,*%
X124500000Y-106375000D03*
%TD*%
D11*
%TO.C,JP26*%
X157170000Y-73995000D03*
%TD*%
D12*
%TO.C,JP4*%
X137880000Y-57995000D03*
%TD*%
D10*
%TO.C,H6*%
X148000000Y-52500000D03*
%TD*%
D11*
%TO.C,JP18*%
X157170000Y-82995000D03*
%TD*%
%TO.C,JP22*%
X157170000Y-44995000D03*
%TD*%
%TO.C,JP25*%
X157170000Y-38995000D03*
%TD*%
D12*
%TO.C,JP6*%
X137880000Y-38995000D03*
%TD*%
%TO.C,JP8*%
X137880000Y-70995000D03*
%TD*%
%TO.C,JP11*%
X137880000Y-82995000D03*
%TD*%
D13*
%TO.C,S1*%
X136502000Y-98525000D03*
D14*
X136502000Y-113735000D03*
D13*
X160378000Y-98525000D03*
D14*
X160378000Y-113735000D03*
%TD*%
D12*
%TO.C,JP2*%
X137880000Y-41995000D03*
%TD*%
D10*
%TO.C,H7*%
X147500000Y-88750000D03*
%TD*%
D11*
%TO.C,JP21*%
X157170000Y-41995000D03*
%TD*%
D15*
%TO.C,SW12_THROW*%
X142835906Y-29854124D03*
D16*
X144105906Y-27314124D03*
D17*
X147915906Y-29854124D03*
D16*
X150455906Y-24774124D03*
D15*
X152995906Y-29854124D03*
%TD*%
D12*
%TO.C,JP1*%
X137880000Y-63995000D03*
%TD*%
D11*
%TO.C,JP20*%
X157170000Y-76995000D03*
%TD*%
%TO.C,JP19*%
X157170000Y-79995000D03*
%TD*%
D12*
%TO.C,JP5*%
X137880000Y-60995000D03*
%TD*%
%TO.C,JP10*%
X137880000Y-67995000D03*
%TD*%
D11*
%TO.C,JP23*%
X157170000Y-57995000D03*
%TD*%
%TO.C,JP27*%
X157170000Y-70995000D03*
%TD*%
%TO.C,JP17*%
X157170000Y-67995000D03*
%TD*%
%TO.C,JP15*%
X157170000Y-63995000D03*
%TD*%
%TO.C,JP24*%
X157170000Y-60995000D03*
%TD*%
D12*
%TO.C,JP7*%
X137880000Y-73995000D03*
%TD*%
%TO.C,JP12*%
X137880000Y-79995000D03*
%TD*%
%TO.C,JP14*%
X137880000Y-85995000D03*
%TD*%
%TO.C,JP3*%
X137880000Y-44995000D03*
%TD*%
D15*
%TO.C,SW16_SPACE*%
X143360000Y-105510000D03*
D16*
X144630000Y-102970000D03*
D17*
X148440000Y-105510000D03*
D16*
X150980000Y-100430000D03*
D15*
X153520000Y-105510000D03*
%TD*%
D12*
%TO.C,JP9*%
X137880000Y-21995000D03*
%TD*%
%TO.C,JP13*%
X137880000Y-76995000D03*
%TD*%
M02*
