%TF.GenerationSoftware,KiCad,Pcbnew,8.0.4*%
%TF.CreationDate,2024-07-29T14:44:41-07:00*%
%TF.ProjectId,3board_c,33626f61-7264-45f6-932e-6b696361645f,rev?*%
%TF.SameCoordinates,Original*%
%TF.FileFunction,Copper,L1,Top*%
%TF.FilePolarity,Positive*%
%FSLAX46Y46*%
G04 Gerber Fmt 4.6, Leading zero omitted, Abs format (unit mm)*
G04 Created by KiCad (PCBNEW 8.0.4) date 2024-07-29 14:44:41*
%MOMM*%
%LPD*%
G01*
G04 APERTURE LIST*
G04 Aperture macros list*
%AMFreePoly0*
4,1,19,0.500000,-0.750000,0.000000,-0.750000,0.000000,-0.744911,-0.071157,-0.744911,-0.207708,-0.704816,-0.327430,-0.627875,-0.420627,-0.520320,-0.479746,-0.390866,-0.500000,-0.250000,-0.500000,0.250000,-0.479746,0.390866,-0.420627,0.520320,-0.327430,0.627875,-0.207708,0.704816,-0.071157,0.744911,0.000000,0.744911,0.000000,0.750000,0.500000,0.750000,0.500000,-0.750000,0.500000,-0.750000,
$1*%
%AMFreePoly1*
4,1,19,0.000000,0.744911,0.071157,0.744911,0.207708,0.704816,0.327430,0.627875,0.420627,0.520320,0.479746,0.390866,0.500000,0.250000,0.500000,-0.250000,0.479746,-0.390866,0.420627,-0.520320,0.327430,-0.627875,0.207708,-0.704816,0.071157,-0.744911,0.000000,-0.744911,0.000000,-0.750000,-0.500000,-0.750000,-0.500000,0.750000,0.000000,0.750000,0.000000,0.744911,0.000000,0.744911,
$1*%
G04 Aperture macros list end*
%TA.AperFunction,SMDPad,CuDef*%
%ADD10FreePoly0,0.000000*%
%TD*%
%TA.AperFunction,SMDPad,CuDef*%
%ADD11FreePoly1,0.000000*%
%TD*%
%TA.AperFunction,ViaPad*%
%ADD12C,0.800000*%
%TD*%
%TA.AperFunction,Conductor*%
%ADD13C,0.150000*%
%TD*%
G04 APERTURE END LIST*
D10*
%TO.P,JP26,1,A*%
%TO.N,Net-(JP26-A)*%
X157170000Y-73995000D03*
%TD*%
D11*
%TO.P,JP4,2,B*%
%TO.N,Net-(JP23-A)*%
X137880000Y-57995000D03*
%TD*%
D10*
%TO.P,JP18,1,A*%
%TO.N,Net-(JP11-B)*%
X157170000Y-82995000D03*
%TD*%
%TO.P,JP22,1,A*%
%TO.N,Net-(JP22-A)*%
X157170000Y-44995000D03*
%TD*%
%TO.P,JP25,1,A*%
%TO.N,Net-(JP25-A)*%
X157170000Y-38995000D03*
%TD*%
D11*
%TO.P,JP6,2,B*%
%TO.N,Net-(JP25-A)*%
X137880000Y-38995000D03*
%TD*%
%TO.P,JP8,2,B*%
%TO.N,Net-(JP27-A)*%
X137880000Y-70995000D03*
%TD*%
%TO.P,JP11,2,B*%
%TO.N,Net-(JP11-B)*%
X137880000Y-82995000D03*
%TD*%
%TO.P,JP2,2,B*%
%TO.N,Net-(JP2-B)*%
X137880000Y-41995000D03*
%TD*%
D10*
%TO.P,JP21,1,A*%
%TO.N,Net-(JP2-B)*%
X157170000Y-41995000D03*
%TD*%
D11*
%TO.P,JP1,2,B*%
%TO.N,GND*%
X137880000Y-63995000D03*
%TD*%
D10*
%TO.P,JP20,1,A*%
%TO.N,Net-(JP13-B)*%
X157170000Y-76995000D03*
%TD*%
%TO.P,JP19,1,A*%
%TO.N,Net-(JP12-B)*%
X157170000Y-79995000D03*
%TD*%
D11*
%TO.P,JP5,2,B*%
%TO.N,Net-(JP24-A)*%
X137880000Y-60995000D03*
%TD*%
%TO.P,JP10,2,B*%
%TO.N,Net-(JP10-B)*%
X137880000Y-67995000D03*
%TD*%
D10*
%TO.P,JP23,1,A*%
%TO.N,Net-(JP23-A)*%
X157170000Y-57995000D03*
%TD*%
%TO.P,JP27,1,A*%
%TO.N,Net-(JP27-A)*%
X157170000Y-70995000D03*
%TD*%
%TO.P,JP17,1,A*%
%TO.N,Net-(JP10-B)*%
X157170000Y-67995000D03*
%TD*%
%TO.P,JP15,1,A*%
%TO.N,GND*%
X157170000Y-63995000D03*
%TD*%
%TO.P,JP24,1,A*%
%TO.N,Net-(JP24-A)*%
X157170000Y-60995000D03*
%TD*%
D11*
%TO.P,JP7,2,B*%
%TO.N,Net-(JP26-A)*%
X137880000Y-73995000D03*
%TD*%
%TO.P,JP12,2,B*%
%TO.N,Net-(JP12-B)*%
X137880000Y-79995000D03*
%TD*%
%TO.P,JP14,2,B*%
%TO.N,/Buttons/SPACE*%
X137880000Y-85995000D03*
%TD*%
%TO.P,JP3,2,B*%
%TO.N,Net-(JP22-A)*%
X137880000Y-44995000D03*
%TD*%
%TO.P,JP9,2,B*%
%TO.N,/Buttons/L3*%
X137880000Y-21995000D03*
%TD*%
%TO.P,JP13,2,B*%
%TO.N,Net-(JP13-B)*%
X137880000Y-76995000D03*
%TD*%
D12*
%TO.N,GND*%
X146000000Y-64000000D03*
%TO.N,/Buttons/L3*%
X139500000Y-24500000D03*
%TO.N,/Buttons/SPACE*%
X141000000Y-97000000D03*
%TD*%
D13*
%TO.N,GND*%
X137730000Y-64000000D02*
X157275000Y-64000000D01*
%TO.N,/Buttons/L3*%
X139500000Y-23770000D02*
X139500000Y-24500000D01*
X137730000Y-22000000D02*
X139500000Y-23770000D01*
%TO.N,/Buttons/SPACE*%
X141000000Y-89270000D02*
X137730000Y-86000000D01*
X141000000Y-97000000D02*
X141000000Y-89270000D01*
%TO.N,Net-(JP2-B)*%
X157275000Y-42000000D02*
X137730000Y-42000000D01*
%TO.N,Net-(JP22-A)*%
X137730000Y-45000000D02*
X157275000Y-45000000D01*
%TO.N,Net-(JP23-A)*%
X157275000Y-58000000D02*
X137730000Y-58000000D01*
%TO.N,Net-(JP24-A)*%
X157275000Y-61000000D02*
X137730000Y-61000000D01*
%TO.N,Net-(JP25-A)*%
X137730000Y-39000000D02*
X157275000Y-39000000D01*
%TO.N,Net-(JP26-A)*%
X157275000Y-74000000D02*
X137730000Y-74000000D01*
%TO.N,Net-(JP27-A)*%
X137730000Y-71000000D02*
X157275000Y-71000000D01*
%TO.N,Net-(JP10-B)*%
X157275000Y-68000000D02*
X137730000Y-68000000D01*
%TO.N,Net-(JP11-B)*%
X137730000Y-83000000D02*
X157275000Y-83000000D01*
%TO.N,Net-(JP12-B)*%
X157275000Y-80000000D02*
X137730000Y-80000000D01*
%TO.N,Net-(JP13-B)*%
X137730000Y-77000000D02*
X157275000Y-77000000D01*
%TD*%
M02*
