%TF.GenerationSoftware,KiCad,Pcbnew,8.0.4*%
%TF.CreationDate,2024-07-29T14:44:43-07:00*%
%TF.ProjectId,3board_c,33626f61-7264-45f6-932e-6b696361645f,rev?*%
%TF.SameCoordinates,Original*%
%TF.FileFunction,Drillmap*%
%TF.FilePolarity,Positive*%
%FSLAX45Y45*%
G04 Gerber Fmt 4.5, Leading zero omitted, Abs format (unit mm)*
G04 Created by KiCad (PCBNEW 8.0.4) date 2024-07-29 14:44:43*
%MOMM*%
%LPD*%
G01*
G04 APERTURE LIST*
%ADD10C,0.100000*%
%ADD11C,0.200000*%
%ADD12C,0.175000*%
%ADD13C,0.304800*%
%ADD14C,0.305000*%
%ADD15C,0.320000*%
%ADD16C,0.398780*%
%ADD17C,0.400000*%
G04 APERTURE END LIST*
D10*
X15786000Y-2000000D02*
X15786000Y-9600000D01*
X11800000Y-9600000D02*
X13715000Y-9600000D01*
X17900000Y-9600000D02*
X17900000Y-11675000D01*
X15786000Y-9600000D02*
X17900000Y-9600000D01*
X13715000Y-9600000D02*
X13715000Y-2000000D01*
X11800000Y-11675000D02*
X11800000Y-9600000D01*
X13715000Y-2000000D02*
X15786000Y-2000000D01*
X17900000Y-11675000D02*
X11800000Y-11675000D01*
D11*
D12*
X14196091Y-2897912D02*
X14371091Y-3072912D01*
X14371091Y-2897912D02*
X14196091Y-3072912D01*
X14248500Y-10463500D02*
X14423500Y-10638500D01*
X14423500Y-10463500D02*
X14248500Y-10638500D01*
X15212091Y-2897912D02*
X15387091Y-3072912D01*
X15387091Y-2897912D02*
X15212091Y-3072912D01*
X15264500Y-10463500D02*
X15439500Y-10638500D01*
X15439500Y-10463500D02*
X15264500Y-10638500D01*
D13*
X13802600Y-9852500D02*
G75*
G02*
X13497800Y-9852500I-152400J0D01*
G01*
X13497800Y-9852500D02*
G75*
G02*
X13802600Y-9852500I152400J0D01*
G01*
X16190200Y-9852500D02*
G75*
G02*
X15885400Y-9852500I-152400J0D01*
G01*
X15885400Y-9852500D02*
G75*
G02*
X16190200Y-9852500I152400J0D01*
G01*
D14*
X14410591Y-2578912D02*
X14410591Y-2883912D01*
X14258091Y-2731412D02*
X14563091Y-2731412D01*
X14463000Y-10144500D02*
X14463000Y-10449500D01*
X14310500Y-10297000D02*
X14615500Y-10297000D01*
X15045591Y-2324912D02*
X15045591Y-2629912D01*
X14893091Y-2477412D02*
X15198091Y-2477412D01*
X15098000Y-9890500D02*
X15098000Y-10195500D01*
X14945500Y-10043000D02*
X15250500Y-10043000D01*
D15*
X12563138Y-10750638D02*
X12563138Y-10524362D01*
X12336862Y-10524362D01*
X12336862Y-10750638D01*
X12563138Y-10750638D01*
X14863138Y-8988138D02*
X14863138Y-8761862D01*
X14636862Y-8761862D01*
X14636862Y-8988138D01*
X14863138Y-8988138D01*
X14913138Y-5363138D02*
X14913138Y-5136862D01*
X14686862Y-5136862D01*
X14686862Y-5363138D01*
X14913138Y-5363138D01*
X17463138Y-10750638D02*
X17463138Y-10524362D01*
X17236862Y-10524362D01*
X17236862Y-10750638D01*
X17463138Y-10750638D01*
D16*
X13650200Y-11572890D02*
X13849590Y-11373500D01*
X13650200Y-11174110D01*
X13450810Y-11373500D01*
X13650200Y-11572890D01*
X16037800Y-11572890D02*
X16237190Y-11373500D01*
X16037800Y-11174110D01*
X15838410Y-11373500D01*
X16037800Y-11572890D01*
D17*
X14591591Y-2785412D02*
X14991591Y-3185412D01*
X14991591Y-2785412D02*
X14591591Y-3185412D01*
X14991591Y-2985412D02*
G75*
G02*
X14591591Y-2985412I-200000J0D01*
G01*
X14591591Y-2985412D02*
G75*
G02*
X14991591Y-2985412I200000J0D01*
G01*
X14644000Y-10351000D02*
X15044000Y-10751000D01*
X15044000Y-10351000D02*
X14644000Y-10751000D01*
X15044000Y-10551000D02*
G75*
G02*
X14644000Y-10551000I-200000J0D01*
G01*
X14644000Y-10551000D02*
G75*
G02*
X15044000Y-10551000I200000J0D01*
G01*
D11*
X12055777Y-11991484D02*
X12055777Y-11791484D01*
X12055777Y-11791484D02*
X12103396Y-11791484D01*
X12103396Y-11791484D02*
X12131967Y-11801008D01*
X12131967Y-11801008D02*
X12151015Y-11820055D01*
X12151015Y-11820055D02*
X12160539Y-11839103D01*
X12160539Y-11839103D02*
X12170062Y-11877198D01*
X12170062Y-11877198D02*
X12170062Y-11905769D01*
X12170062Y-11905769D02*
X12160539Y-11943865D01*
X12160539Y-11943865D02*
X12151015Y-11962912D01*
X12151015Y-11962912D02*
X12131967Y-11981960D01*
X12131967Y-11981960D02*
X12103396Y-11991484D01*
X12103396Y-11991484D02*
X12055777Y-11991484D01*
X12255777Y-11991484D02*
X12255777Y-11858150D01*
X12255777Y-11896246D02*
X12265301Y-11877198D01*
X12265301Y-11877198D02*
X12274824Y-11867674D01*
X12274824Y-11867674D02*
X12293872Y-11858150D01*
X12293872Y-11858150D02*
X12312920Y-11858150D01*
X12379586Y-11991484D02*
X12379586Y-11858150D01*
X12379586Y-11791484D02*
X12370062Y-11801008D01*
X12370062Y-11801008D02*
X12379586Y-11810531D01*
X12379586Y-11810531D02*
X12389110Y-11801008D01*
X12389110Y-11801008D02*
X12379586Y-11791484D01*
X12379586Y-11791484D02*
X12379586Y-11810531D01*
X12503396Y-11991484D02*
X12484348Y-11981960D01*
X12484348Y-11981960D02*
X12474824Y-11962912D01*
X12474824Y-11962912D02*
X12474824Y-11791484D01*
X12608158Y-11991484D02*
X12589110Y-11981960D01*
X12589110Y-11981960D02*
X12579586Y-11962912D01*
X12579586Y-11962912D02*
X12579586Y-11791484D01*
X12836729Y-11991484D02*
X12836729Y-11791484D01*
X12836729Y-11791484D02*
X12903396Y-11934341D01*
X12903396Y-11934341D02*
X12970062Y-11791484D01*
X12970062Y-11791484D02*
X12970062Y-11991484D01*
X13151015Y-11991484D02*
X13151015Y-11886722D01*
X13151015Y-11886722D02*
X13141491Y-11867674D01*
X13141491Y-11867674D02*
X13122443Y-11858150D01*
X13122443Y-11858150D02*
X13084348Y-11858150D01*
X13084348Y-11858150D02*
X13065301Y-11867674D01*
X13151015Y-11981960D02*
X13131967Y-11991484D01*
X13131967Y-11991484D02*
X13084348Y-11991484D01*
X13084348Y-11991484D02*
X13065301Y-11981960D01*
X13065301Y-11981960D02*
X13055777Y-11962912D01*
X13055777Y-11962912D02*
X13055777Y-11943865D01*
X13055777Y-11943865D02*
X13065301Y-11924817D01*
X13065301Y-11924817D02*
X13084348Y-11915293D01*
X13084348Y-11915293D02*
X13131967Y-11915293D01*
X13131967Y-11915293D02*
X13151015Y-11905769D01*
X13246253Y-11858150D02*
X13246253Y-12058150D01*
X13246253Y-11867674D02*
X13265301Y-11858150D01*
X13265301Y-11858150D02*
X13303396Y-11858150D01*
X13303396Y-11858150D02*
X13322443Y-11867674D01*
X13322443Y-11867674D02*
X13331967Y-11877198D01*
X13331967Y-11877198D02*
X13341491Y-11896246D01*
X13341491Y-11896246D02*
X13341491Y-11953388D01*
X13341491Y-11953388D02*
X13331967Y-11972436D01*
X13331967Y-11972436D02*
X13322443Y-11981960D01*
X13322443Y-11981960D02*
X13303396Y-11991484D01*
X13303396Y-11991484D02*
X13265301Y-11991484D01*
X13265301Y-11991484D02*
X13246253Y-11981960D01*
X13427205Y-11972436D02*
X13436729Y-11981960D01*
X13436729Y-11981960D02*
X13427205Y-11991484D01*
X13427205Y-11991484D02*
X13417682Y-11981960D01*
X13417682Y-11981960D02*
X13427205Y-11972436D01*
X13427205Y-11972436D02*
X13427205Y-11991484D01*
X13427205Y-11867674D02*
X13436729Y-11877198D01*
X13436729Y-11877198D02*
X13427205Y-11886722D01*
X13427205Y-11886722D02*
X13417682Y-11877198D01*
X13417682Y-11877198D02*
X13427205Y-11867674D01*
X13427205Y-11867674D02*
X13427205Y-11886722D01*
D12*
X11620000Y-12232500D02*
X11795000Y-12407500D01*
X11795000Y-12232500D02*
X11620000Y-12407500D01*
D11*
X12160539Y-12411484D02*
X12046253Y-12411484D01*
X12103396Y-12411484D02*
X12103396Y-12211484D01*
X12103396Y-12211484D02*
X12084348Y-12240055D01*
X12084348Y-12240055D02*
X12065301Y-12259103D01*
X12065301Y-12259103D02*
X12046253Y-12268627D01*
X12246253Y-12392436D02*
X12255777Y-12401960D01*
X12255777Y-12401960D02*
X12246253Y-12411484D01*
X12246253Y-12411484D02*
X12236729Y-12401960D01*
X12236729Y-12401960D02*
X12246253Y-12392436D01*
X12246253Y-12392436D02*
X12246253Y-12411484D01*
X12322443Y-12211484D02*
X12455777Y-12211484D01*
X12455777Y-12211484D02*
X12370062Y-12411484D01*
X12627205Y-12211484D02*
X12531967Y-12211484D01*
X12531967Y-12211484D02*
X12522443Y-12306722D01*
X12522443Y-12306722D02*
X12531967Y-12297198D01*
X12531967Y-12297198D02*
X12551015Y-12287674D01*
X12551015Y-12287674D02*
X12598634Y-12287674D01*
X12598634Y-12287674D02*
X12617682Y-12297198D01*
X12617682Y-12297198D02*
X12627205Y-12306722D01*
X12627205Y-12306722D02*
X12636729Y-12325769D01*
X12636729Y-12325769D02*
X12636729Y-12373388D01*
X12636729Y-12373388D02*
X12627205Y-12392436D01*
X12627205Y-12392436D02*
X12617682Y-12401960D01*
X12617682Y-12401960D02*
X12598634Y-12411484D01*
X12598634Y-12411484D02*
X12551015Y-12411484D01*
X12551015Y-12411484D02*
X12531967Y-12401960D01*
X12531967Y-12401960D02*
X12522443Y-12392436D01*
X12760539Y-12211484D02*
X12779586Y-12211484D01*
X12779586Y-12211484D02*
X12798634Y-12221008D01*
X12798634Y-12221008D02*
X12808158Y-12230531D01*
X12808158Y-12230531D02*
X12817682Y-12249579D01*
X12817682Y-12249579D02*
X12827205Y-12287674D01*
X12827205Y-12287674D02*
X12827205Y-12335293D01*
X12827205Y-12335293D02*
X12817682Y-12373388D01*
X12817682Y-12373388D02*
X12808158Y-12392436D01*
X12808158Y-12392436D02*
X12798634Y-12401960D01*
X12798634Y-12401960D02*
X12779586Y-12411484D01*
X12779586Y-12411484D02*
X12760539Y-12411484D01*
X12760539Y-12411484D02*
X12741491Y-12401960D01*
X12741491Y-12401960D02*
X12731967Y-12392436D01*
X12731967Y-12392436D02*
X12722443Y-12373388D01*
X12722443Y-12373388D02*
X12712920Y-12335293D01*
X12712920Y-12335293D02*
X12712920Y-12287674D01*
X12712920Y-12287674D02*
X12722443Y-12249579D01*
X12722443Y-12249579D02*
X12731967Y-12230531D01*
X12731967Y-12230531D02*
X12741491Y-12221008D01*
X12741491Y-12221008D02*
X12760539Y-12211484D01*
X12912920Y-12411484D02*
X12912920Y-12278150D01*
X12912920Y-12297198D02*
X12922443Y-12287674D01*
X12922443Y-12287674D02*
X12941491Y-12278150D01*
X12941491Y-12278150D02*
X12970063Y-12278150D01*
X12970063Y-12278150D02*
X12989110Y-12287674D01*
X12989110Y-12287674D02*
X12998634Y-12306722D01*
X12998634Y-12306722D02*
X12998634Y-12411484D01*
X12998634Y-12306722D02*
X13008158Y-12287674D01*
X13008158Y-12287674D02*
X13027205Y-12278150D01*
X13027205Y-12278150D02*
X13055777Y-12278150D01*
X13055777Y-12278150D02*
X13074824Y-12287674D01*
X13074824Y-12287674D02*
X13084348Y-12306722D01*
X13084348Y-12306722D02*
X13084348Y-12411484D01*
X13179586Y-12411484D02*
X13179586Y-12278150D01*
X13179586Y-12297198D02*
X13189110Y-12287674D01*
X13189110Y-12287674D02*
X13208158Y-12278150D01*
X13208158Y-12278150D02*
X13236729Y-12278150D01*
X13236729Y-12278150D02*
X13255777Y-12287674D01*
X13255777Y-12287674D02*
X13265301Y-12306722D01*
X13265301Y-12306722D02*
X13265301Y-12411484D01*
X13265301Y-12306722D02*
X13274824Y-12287674D01*
X13274824Y-12287674D02*
X13293872Y-12278150D01*
X13293872Y-12278150D02*
X13322443Y-12278150D01*
X13322443Y-12278150D02*
X13341491Y-12287674D01*
X13341491Y-12287674D02*
X13351015Y-12306722D01*
X13351015Y-12306722D02*
X13351015Y-12411484D01*
X13741491Y-12201960D02*
X13570063Y-12459103D01*
X13998634Y-12211484D02*
X14017682Y-12211484D01*
X14017682Y-12211484D02*
X14036729Y-12221008D01*
X14036729Y-12221008D02*
X14046253Y-12230531D01*
X14046253Y-12230531D02*
X14055777Y-12249579D01*
X14055777Y-12249579D02*
X14065301Y-12287674D01*
X14065301Y-12287674D02*
X14065301Y-12335293D01*
X14065301Y-12335293D02*
X14055777Y-12373388D01*
X14055777Y-12373388D02*
X14046253Y-12392436D01*
X14046253Y-12392436D02*
X14036729Y-12401960D01*
X14036729Y-12401960D02*
X14017682Y-12411484D01*
X14017682Y-12411484D02*
X13998634Y-12411484D01*
X13998634Y-12411484D02*
X13979586Y-12401960D01*
X13979586Y-12401960D02*
X13970063Y-12392436D01*
X13970063Y-12392436D02*
X13960539Y-12373388D01*
X13960539Y-12373388D02*
X13951015Y-12335293D01*
X13951015Y-12335293D02*
X13951015Y-12287674D01*
X13951015Y-12287674D02*
X13960539Y-12249579D01*
X13960539Y-12249579D02*
X13970063Y-12230531D01*
X13970063Y-12230531D02*
X13979586Y-12221008D01*
X13979586Y-12221008D02*
X13998634Y-12211484D01*
X14151015Y-12392436D02*
X14160539Y-12401960D01*
X14160539Y-12401960D02*
X14151015Y-12411484D01*
X14151015Y-12411484D02*
X14141491Y-12401960D01*
X14141491Y-12401960D02*
X14151015Y-12392436D01*
X14151015Y-12392436D02*
X14151015Y-12411484D01*
X14284348Y-12211484D02*
X14303396Y-12211484D01*
X14303396Y-12211484D02*
X14322444Y-12221008D01*
X14322444Y-12221008D02*
X14331967Y-12230531D01*
X14331967Y-12230531D02*
X14341491Y-12249579D01*
X14341491Y-12249579D02*
X14351015Y-12287674D01*
X14351015Y-12287674D02*
X14351015Y-12335293D01*
X14351015Y-12335293D02*
X14341491Y-12373388D01*
X14341491Y-12373388D02*
X14331967Y-12392436D01*
X14331967Y-12392436D02*
X14322444Y-12401960D01*
X14322444Y-12401960D02*
X14303396Y-12411484D01*
X14303396Y-12411484D02*
X14284348Y-12411484D01*
X14284348Y-12411484D02*
X14265301Y-12401960D01*
X14265301Y-12401960D02*
X14255777Y-12392436D01*
X14255777Y-12392436D02*
X14246253Y-12373388D01*
X14246253Y-12373388D02*
X14236729Y-12335293D01*
X14236729Y-12335293D02*
X14236729Y-12287674D01*
X14236729Y-12287674D02*
X14246253Y-12249579D01*
X14246253Y-12249579D02*
X14255777Y-12230531D01*
X14255777Y-12230531D02*
X14265301Y-12221008D01*
X14265301Y-12221008D02*
X14284348Y-12211484D01*
X14522444Y-12211484D02*
X14484348Y-12211484D01*
X14484348Y-12211484D02*
X14465301Y-12221008D01*
X14465301Y-12221008D02*
X14455777Y-12230531D01*
X14455777Y-12230531D02*
X14436729Y-12259103D01*
X14436729Y-12259103D02*
X14427206Y-12297198D01*
X14427206Y-12297198D02*
X14427206Y-12373388D01*
X14427206Y-12373388D02*
X14436729Y-12392436D01*
X14436729Y-12392436D02*
X14446253Y-12401960D01*
X14446253Y-12401960D02*
X14465301Y-12411484D01*
X14465301Y-12411484D02*
X14503396Y-12411484D01*
X14503396Y-12411484D02*
X14522444Y-12401960D01*
X14522444Y-12401960D02*
X14531967Y-12392436D01*
X14531967Y-12392436D02*
X14541491Y-12373388D01*
X14541491Y-12373388D02*
X14541491Y-12325769D01*
X14541491Y-12325769D02*
X14531967Y-12306722D01*
X14531967Y-12306722D02*
X14522444Y-12297198D01*
X14522444Y-12297198D02*
X14503396Y-12287674D01*
X14503396Y-12287674D02*
X14465301Y-12287674D01*
X14465301Y-12287674D02*
X14446253Y-12297198D01*
X14446253Y-12297198D02*
X14436729Y-12306722D01*
X14436729Y-12306722D02*
X14427206Y-12325769D01*
X14655777Y-12297198D02*
X14636729Y-12287674D01*
X14636729Y-12287674D02*
X14627206Y-12278150D01*
X14627206Y-12278150D02*
X14617682Y-12259103D01*
X14617682Y-12259103D02*
X14617682Y-12249579D01*
X14617682Y-12249579D02*
X14627206Y-12230531D01*
X14627206Y-12230531D02*
X14636729Y-12221008D01*
X14636729Y-12221008D02*
X14655777Y-12211484D01*
X14655777Y-12211484D02*
X14693872Y-12211484D01*
X14693872Y-12211484D02*
X14712920Y-12221008D01*
X14712920Y-12221008D02*
X14722444Y-12230531D01*
X14722444Y-12230531D02*
X14731967Y-12249579D01*
X14731967Y-12249579D02*
X14731967Y-12259103D01*
X14731967Y-12259103D02*
X14722444Y-12278150D01*
X14722444Y-12278150D02*
X14712920Y-12287674D01*
X14712920Y-12287674D02*
X14693872Y-12297198D01*
X14693872Y-12297198D02*
X14655777Y-12297198D01*
X14655777Y-12297198D02*
X14636729Y-12306722D01*
X14636729Y-12306722D02*
X14627206Y-12316246D01*
X14627206Y-12316246D02*
X14617682Y-12335293D01*
X14617682Y-12335293D02*
X14617682Y-12373388D01*
X14617682Y-12373388D02*
X14627206Y-12392436D01*
X14627206Y-12392436D02*
X14636729Y-12401960D01*
X14636729Y-12401960D02*
X14655777Y-12411484D01*
X14655777Y-12411484D02*
X14693872Y-12411484D01*
X14693872Y-12411484D02*
X14712920Y-12401960D01*
X14712920Y-12401960D02*
X14722444Y-12392436D01*
X14722444Y-12392436D02*
X14731967Y-12373388D01*
X14731967Y-12373388D02*
X14731967Y-12335293D01*
X14731967Y-12335293D02*
X14722444Y-12316246D01*
X14722444Y-12316246D02*
X14712920Y-12306722D01*
X14712920Y-12306722D02*
X14693872Y-12297198D01*
X14827206Y-12411484D02*
X14865301Y-12411484D01*
X14865301Y-12411484D02*
X14884348Y-12401960D01*
X14884348Y-12401960D02*
X14893872Y-12392436D01*
X14893872Y-12392436D02*
X14912920Y-12363865D01*
X14912920Y-12363865D02*
X14922444Y-12325769D01*
X14922444Y-12325769D02*
X14922444Y-12249579D01*
X14922444Y-12249579D02*
X14912920Y-12230531D01*
X14912920Y-12230531D02*
X14903396Y-12221008D01*
X14903396Y-12221008D02*
X14884348Y-12211484D01*
X14884348Y-12211484D02*
X14846253Y-12211484D01*
X14846253Y-12211484D02*
X14827206Y-12221008D01*
X14827206Y-12221008D02*
X14817682Y-12230531D01*
X14817682Y-12230531D02*
X14808158Y-12249579D01*
X14808158Y-12249579D02*
X14808158Y-12297198D01*
X14808158Y-12297198D02*
X14817682Y-12316246D01*
X14817682Y-12316246D02*
X14827206Y-12325769D01*
X14827206Y-12325769D02*
X14846253Y-12335293D01*
X14846253Y-12335293D02*
X14884348Y-12335293D01*
X14884348Y-12335293D02*
X14903396Y-12325769D01*
X14903396Y-12325769D02*
X14912920Y-12316246D01*
X14912920Y-12316246D02*
X14922444Y-12297198D01*
X14998634Y-12211484D02*
X14998634Y-12249579D01*
X15074825Y-12211484D02*
X15074825Y-12249579D01*
X15370063Y-12487674D02*
X15360539Y-12478150D01*
X15360539Y-12478150D02*
X15341491Y-12449579D01*
X15341491Y-12449579D02*
X15331968Y-12430531D01*
X15331968Y-12430531D02*
X15322444Y-12401960D01*
X15322444Y-12401960D02*
X15312920Y-12354341D01*
X15312920Y-12354341D02*
X15312920Y-12316246D01*
X15312920Y-12316246D02*
X15322444Y-12268627D01*
X15322444Y-12268627D02*
X15331968Y-12240055D01*
X15331968Y-12240055D02*
X15341491Y-12221008D01*
X15341491Y-12221008D02*
X15360539Y-12192436D01*
X15360539Y-12192436D02*
X15370063Y-12182912D01*
X15531968Y-12278150D02*
X15531968Y-12411484D01*
X15484348Y-12201960D02*
X15436729Y-12344817D01*
X15436729Y-12344817D02*
X15560539Y-12344817D01*
X15789110Y-12411484D02*
X15789110Y-12211484D01*
X15874825Y-12411484D02*
X15874825Y-12306722D01*
X15874825Y-12306722D02*
X15865301Y-12287674D01*
X15865301Y-12287674D02*
X15846253Y-12278150D01*
X15846253Y-12278150D02*
X15817682Y-12278150D01*
X15817682Y-12278150D02*
X15798634Y-12287674D01*
X15798634Y-12287674D02*
X15789110Y-12297198D01*
X15998634Y-12411484D02*
X15979587Y-12401960D01*
X15979587Y-12401960D02*
X15970063Y-12392436D01*
X15970063Y-12392436D02*
X15960539Y-12373388D01*
X15960539Y-12373388D02*
X15960539Y-12316246D01*
X15960539Y-12316246D02*
X15970063Y-12297198D01*
X15970063Y-12297198D02*
X15979587Y-12287674D01*
X15979587Y-12287674D02*
X15998634Y-12278150D01*
X15998634Y-12278150D02*
X16027206Y-12278150D01*
X16027206Y-12278150D02*
X16046253Y-12287674D01*
X16046253Y-12287674D02*
X16055777Y-12297198D01*
X16055777Y-12297198D02*
X16065301Y-12316246D01*
X16065301Y-12316246D02*
X16065301Y-12373388D01*
X16065301Y-12373388D02*
X16055777Y-12392436D01*
X16055777Y-12392436D02*
X16046253Y-12401960D01*
X16046253Y-12401960D02*
X16027206Y-12411484D01*
X16027206Y-12411484D02*
X15998634Y-12411484D01*
X16179587Y-12411484D02*
X16160539Y-12401960D01*
X16160539Y-12401960D02*
X16151015Y-12382912D01*
X16151015Y-12382912D02*
X16151015Y-12211484D01*
X16331968Y-12401960D02*
X16312920Y-12411484D01*
X16312920Y-12411484D02*
X16274825Y-12411484D01*
X16274825Y-12411484D02*
X16255777Y-12401960D01*
X16255777Y-12401960D02*
X16246253Y-12382912D01*
X16246253Y-12382912D02*
X16246253Y-12306722D01*
X16246253Y-12306722D02*
X16255777Y-12287674D01*
X16255777Y-12287674D02*
X16274825Y-12278150D01*
X16274825Y-12278150D02*
X16312920Y-12278150D01*
X16312920Y-12278150D02*
X16331968Y-12287674D01*
X16331968Y-12287674D02*
X16341491Y-12306722D01*
X16341491Y-12306722D02*
X16341491Y-12325769D01*
X16341491Y-12325769D02*
X16246253Y-12344817D01*
X16417682Y-12401960D02*
X16436730Y-12411484D01*
X16436730Y-12411484D02*
X16474825Y-12411484D01*
X16474825Y-12411484D02*
X16493872Y-12401960D01*
X16493872Y-12401960D02*
X16503396Y-12382912D01*
X16503396Y-12382912D02*
X16503396Y-12373388D01*
X16503396Y-12373388D02*
X16493872Y-12354341D01*
X16493872Y-12354341D02*
X16474825Y-12344817D01*
X16474825Y-12344817D02*
X16446253Y-12344817D01*
X16446253Y-12344817D02*
X16427206Y-12335293D01*
X16427206Y-12335293D02*
X16417682Y-12316246D01*
X16417682Y-12316246D02*
X16417682Y-12306722D01*
X16417682Y-12306722D02*
X16427206Y-12287674D01*
X16427206Y-12287674D02*
X16446253Y-12278150D01*
X16446253Y-12278150D02*
X16474825Y-12278150D01*
X16474825Y-12278150D02*
X16493872Y-12287674D01*
X16570063Y-12487674D02*
X16579587Y-12478150D01*
X16579587Y-12478150D02*
X16598634Y-12449579D01*
X16598634Y-12449579D02*
X16608158Y-12430531D01*
X16608158Y-12430531D02*
X16617682Y-12401960D01*
X16617682Y-12401960D02*
X16627206Y-12354341D01*
X16627206Y-12354341D02*
X16627206Y-12316246D01*
X16627206Y-12316246D02*
X16617682Y-12268627D01*
X16617682Y-12268627D02*
X16608158Y-12240055D01*
X16608158Y-12240055D02*
X16598634Y-12221008D01*
X16598634Y-12221008D02*
X16579587Y-12192436D01*
X16579587Y-12192436D02*
X16570063Y-12182912D01*
X16931968Y-12487674D02*
X16922444Y-12478150D01*
X16922444Y-12478150D02*
X16903396Y-12449579D01*
X16903396Y-12449579D02*
X16893873Y-12430531D01*
X16893873Y-12430531D02*
X16884349Y-12401960D01*
X16884349Y-12401960D02*
X16874825Y-12354341D01*
X16874825Y-12354341D02*
X16874825Y-12316246D01*
X16874825Y-12316246D02*
X16884349Y-12268627D01*
X16884349Y-12268627D02*
X16893873Y-12240055D01*
X16893873Y-12240055D02*
X16903396Y-12221008D01*
X16903396Y-12221008D02*
X16922444Y-12192436D01*
X16922444Y-12192436D02*
X16931968Y-12182912D01*
X17008158Y-12278150D02*
X17008158Y-12411484D01*
X17008158Y-12297198D02*
X17017682Y-12287674D01*
X17017682Y-12287674D02*
X17036730Y-12278150D01*
X17036730Y-12278150D02*
X17065301Y-12278150D01*
X17065301Y-12278150D02*
X17084349Y-12287674D01*
X17084349Y-12287674D02*
X17093873Y-12306722D01*
X17093873Y-12306722D02*
X17093873Y-12411484D01*
X17217682Y-12411484D02*
X17198634Y-12401960D01*
X17198634Y-12401960D02*
X17189111Y-12392436D01*
X17189111Y-12392436D02*
X17179587Y-12373388D01*
X17179587Y-12373388D02*
X17179587Y-12316246D01*
X17179587Y-12316246D02*
X17189111Y-12297198D01*
X17189111Y-12297198D02*
X17198634Y-12287674D01*
X17198634Y-12287674D02*
X17217682Y-12278150D01*
X17217682Y-12278150D02*
X17246254Y-12278150D01*
X17246254Y-12278150D02*
X17265301Y-12287674D01*
X17265301Y-12287674D02*
X17274825Y-12297198D01*
X17274825Y-12297198D02*
X17284349Y-12316246D01*
X17284349Y-12316246D02*
X17284349Y-12373388D01*
X17284349Y-12373388D02*
X17274825Y-12392436D01*
X17274825Y-12392436D02*
X17265301Y-12401960D01*
X17265301Y-12401960D02*
X17246254Y-12411484D01*
X17246254Y-12411484D02*
X17217682Y-12411484D01*
X17341492Y-12278150D02*
X17417682Y-12278150D01*
X17370063Y-12211484D02*
X17370063Y-12382912D01*
X17370063Y-12382912D02*
X17379587Y-12401960D01*
X17379587Y-12401960D02*
X17398634Y-12411484D01*
X17398634Y-12411484D02*
X17417682Y-12411484D01*
X17636730Y-12278150D02*
X17636730Y-12478150D01*
X17636730Y-12287674D02*
X17655777Y-12278150D01*
X17655777Y-12278150D02*
X17693873Y-12278150D01*
X17693873Y-12278150D02*
X17712920Y-12287674D01*
X17712920Y-12287674D02*
X17722444Y-12297198D01*
X17722444Y-12297198D02*
X17731968Y-12316246D01*
X17731968Y-12316246D02*
X17731968Y-12373388D01*
X17731968Y-12373388D02*
X17722444Y-12392436D01*
X17722444Y-12392436D02*
X17712920Y-12401960D01*
X17712920Y-12401960D02*
X17693873Y-12411484D01*
X17693873Y-12411484D02*
X17655777Y-12411484D01*
X17655777Y-12411484D02*
X17636730Y-12401960D01*
X17846254Y-12411484D02*
X17827206Y-12401960D01*
X17827206Y-12401960D02*
X17817682Y-12382912D01*
X17817682Y-12382912D02*
X17817682Y-12211484D01*
X18008158Y-12411484D02*
X18008158Y-12306722D01*
X18008158Y-12306722D02*
X17998635Y-12287674D01*
X17998635Y-12287674D02*
X17979587Y-12278150D01*
X17979587Y-12278150D02*
X17941492Y-12278150D01*
X17941492Y-12278150D02*
X17922444Y-12287674D01*
X18008158Y-12401960D02*
X17989111Y-12411484D01*
X17989111Y-12411484D02*
X17941492Y-12411484D01*
X17941492Y-12411484D02*
X17922444Y-12401960D01*
X17922444Y-12401960D02*
X17912920Y-12382912D01*
X17912920Y-12382912D02*
X17912920Y-12363865D01*
X17912920Y-12363865D02*
X17922444Y-12344817D01*
X17922444Y-12344817D02*
X17941492Y-12335293D01*
X17941492Y-12335293D02*
X17989111Y-12335293D01*
X17989111Y-12335293D02*
X18008158Y-12325769D01*
X18074825Y-12278150D02*
X18151015Y-12278150D01*
X18103396Y-12211484D02*
X18103396Y-12382912D01*
X18103396Y-12382912D02*
X18112920Y-12401960D01*
X18112920Y-12401960D02*
X18131968Y-12411484D01*
X18131968Y-12411484D02*
X18151015Y-12411484D01*
X18293873Y-12401960D02*
X18274825Y-12411484D01*
X18274825Y-12411484D02*
X18236730Y-12411484D01*
X18236730Y-12411484D02*
X18217682Y-12401960D01*
X18217682Y-12401960D02*
X18208158Y-12382912D01*
X18208158Y-12382912D02*
X18208158Y-12306722D01*
X18208158Y-12306722D02*
X18217682Y-12287674D01*
X18217682Y-12287674D02*
X18236730Y-12278150D01*
X18236730Y-12278150D02*
X18274825Y-12278150D01*
X18274825Y-12278150D02*
X18293873Y-12287674D01*
X18293873Y-12287674D02*
X18303396Y-12306722D01*
X18303396Y-12306722D02*
X18303396Y-12325769D01*
X18303396Y-12325769D02*
X18208158Y-12344817D01*
X18474825Y-12411484D02*
X18474825Y-12211484D01*
X18474825Y-12401960D02*
X18455777Y-12411484D01*
X18455777Y-12411484D02*
X18417682Y-12411484D01*
X18417682Y-12411484D02*
X18398635Y-12401960D01*
X18398635Y-12401960D02*
X18389111Y-12392436D01*
X18389111Y-12392436D02*
X18379587Y-12373388D01*
X18379587Y-12373388D02*
X18379587Y-12316246D01*
X18379587Y-12316246D02*
X18389111Y-12297198D01*
X18389111Y-12297198D02*
X18398635Y-12287674D01*
X18398635Y-12287674D02*
X18417682Y-12278150D01*
X18417682Y-12278150D02*
X18455777Y-12278150D01*
X18455777Y-12278150D02*
X18474825Y-12287674D01*
X18551016Y-12487674D02*
X18560539Y-12478150D01*
X18560539Y-12478150D02*
X18579587Y-12449579D01*
X18579587Y-12449579D02*
X18589111Y-12430531D01*
X18589111Y-12430531D02*
X18598635Y-12401960D01*
X18598635Y-12401960D02*
X18608158Y-12354341D01*
X18608158Y-12354341D02*
X18608158Y-12316246D01*
X18608158Y-12316246D02*
X18598635Y-12268627D01*
X18598635Y-12268627D02*
X18589111Y-12240055D01*
X18589111Y-12240055D02*
X18579587Y-12221008D01*
X18579587Y-12221008D02*
X18560539Y-12192436D01*
X18560539Y-12192436D02*
X18551016Y-12182912D01*
X11795000Y-12615000D02*
G75*
G02*
X11595000Y-12615000I-100000J0D01*
G01*
X11595000Y-12615000D02*
G75*
G02*
X11795000Y-12615000I100000J0D01*
G01*
X12036729Y-12506484D02*
X12160539Y-12506484D01*
X12160539Y-12506484D02*
X12093872Y-12582674D01*
X12093872Y-12582674D02*
X12122443Y-12582674D01*
X12122443Y-12582674D02*
X12141491Y-12592198D01*
X12141491Y-12592198D02*
X12151015Y-12601722D01*
X12151015Y-12601722D02*
X12160539Y-12620769D01*
X12160539Y-12620769D02*
X12160539Y-12668388D01*
X12160539Y-12668388D02*
X12151015Y-12687436D01*
X12151015Y-12687436D02*
X12141491Y-12696960D01*
X12141491Y-12696960D02*
X12122443Y-12706484D01*
X12122443Y-12706484D02*
X12065301Y-12706484D01*
X12065301Y-12706484D02*
X12046253Y-12696960D01*
X12046253Y-12696960D02*
X12036729Y-12687436D01*
X12246253Y-12687436D02*
X12255777Y-12696960D01*
X12255777Y-12696960D02*
X12246253Y-12706484D01*
X12246253Y-12706484D02*
X12236729Y-12696960D01*
X12236729Y-12696960D02*
X12246253Y-12687436D01*
X12246253Y-12687436D02*
X12246253Y-12706484D01*
X12379586Y-12506484D02*
X12398634Y-12506484D01*
X12398634Y-12506484D02*
X12417682Y-12516008D01*
X12417682Y-12516008D02*
X12427205Y-12525531D01*
X12427205Y-12525531D02*
X12436729Y-12544579D01*
X12436729Y-12544579D02*
X12446253Y-12582674D01*
X12446253Y-12582674D02*
X12446253Y-12630293D01*
X12446253Y-12630293D02*
X12436729Y-12668388D01*
X12436729Y-12668388D02*
X12427205Y-12687436D01*
X12427205Y-12687436D02*
X12417682Y-12696960D01*
X12417682Y-12696960D02*
X12398634Y-12706484D01*
X12398634Y-12706484D02*
X12379586Y-12706484D01*
X12379586Y-12706484D02*
X12360539Y-12696960D01*
X12360539Y-12696960D02*
X12351015Y-12687436D01*
X12351015Y-12687436D02*
X12341491Y-12668388D01*
X12341491Y-12668388D02*
X12331967Y-12630293D01*
X12331967Y-12630293D02*
X12331967Y-12582674D01*
X12331967Y-12582674D02*
X12341491Y-12544579D01*
X12341491Y-12544579D02*
X12351015Y-12525531D01*
X12351015Y-12525531D02*
X12360539Y-12516008D01*
X12360539Y-12516008D02*
X12379586Y-12506484D01*
X12617682Y-12573150D02*
X12617682Y-12706484D01*
X12570062Y-12496960D02*
X12522443Y-12639817D01*
X12522443Y-12639817D02*
X12646253Y-12639817D01*
X12751015Y-12592198D02*
X12731967Y-12582674D01*
X12731967Y-12582674D02*
X12722443Y-12573150D01*
X12722443Y-12573150D02*
X12712920Y-12554103D01*
X12712920Y-12554103D02*
X12712920Y-12544579D01*
X12712920Y-12544579D02*
X12722443Y-12525531D01*
X12722443Y-12525531D02*
X12731967Y-12516008D01*
X12731967Y-12516008D02*
X12751015Y-12506484D01*
X12751015Y-12506484D02*
X12789110Y-12506484D01*
X12789110Y-12506484D02*
X12808158Y-12516008D01*
X12808158Y-12516008D02*
X12817682Y-12525531D01*
X12817682Y-12525531D02*
X12827205Y-12544579D01*
X12827205Y-12544579D02*
X12827205Y-12554103D01*
X12827205Y-12554103D02*
X12817682Y-12573150D01*
X12817682Y-12573150D02*
X12808158Y-12582674D01*
X12808158Y-12582674D02*
X12789110Y-12592198D01*
X12789110Y-12592198D02*
X12751015Y-12592198D01*
X12751015Y-12592198D02*
X12731967Y-12601722D01*
X12731967Y-12601722D02*
X12722443Y-12611246D01*
X12722443Y-12611246D02*
X12712920Y-12630293D01*
X12712920Y-12630293D02*
X12712920Y-12668388D01*
X12712920Y-12668388D02*
X12722443Y-12687436D01*
X12722443Y-12687436D02*
X12731967Y-12696960D01*
X12731967Y-12696960D02*
X12751015Y-12706484D01*
X12751015Y-12706484D02*
X12789110Y-12706484D01*
X12789110Y-12706484D02*
X12808158Y-12696960D01*
X12808158Y-12696960D02*
X12817682Y-12687436D01*
X12817682Y-12687436D02*
X12827205Y-12668388D01*
X12827205Y-12668388D02*
X12827205Y-12630293D01*
X12827205Y-12630293D02*
X12817682Y-12611246D01*
X12817682Y-12611246D02*
X12808158Y-12601722D01*
X12808158Y-12601722D02*
X12789110Y-12592198D01*
X12912920Y-12706484D02*
X12912920Y-12573150D01*
X12912920Y-12592198D02*
X12922443Y-12582674D01*
X12922443Y-12582674D02*
X12941491Y-12573150D01*
X12941491Y-12573150D02*
X12970063Y-12573150D01*
X12970063Y-12573150D02*
X12989110Y-12582674D01*
X12989110Y-12582674D02*
X12998634Y-12601722D01*
X12998634Y-12601722D02*
X12998634Y-12706484D01*
X12998634Y-12601722D02*
X13008158Y-12582674D01*
X13008158Y-12582674D02*
X13027205Y-12573150D01*
X13027205Y-12573150D02*
X13055777Y-12573150D01*
X13055777Y-12573150D02*
X13074824Y-12582674D01*
X13074824Y-12582674D02*
X13084348Y-12601722D01*
X13084348Y-12601722D02*
X13084348Y-12706484D01*
X13179586Y-12706484D02*
X13179586Y-12573150D01*
X13179586Y-12592198D02*
X13189110Y-12582674D01*
X13189110Y-12582674D02*
X13208158Y-12573150D01*
X13208158Y-12573150D02*
X13236729Y-12573150D01*
X13236729Y-12573150D02*
X13255777Y-12582674D01*
X13255777Y-12582674D02*
X13265301Y-12601722D01*
X13265301Y-12601722D02*
X13265301Y-12706484D01*
X13265301Y-12601722D02*
X13274824Y-12582674D01*
X13274824Y-12582674D02*
X13293872Y-12573150D01*
X13293872Y-12573150D02*
X13322443Y-12573150D01*
X13322443Y-12573150D02*
X13341491Y-12582674D01*
X13341491Y-12582674D02*
X13351015Y-12601722D01*
X13351015Y-12601722D02*
X13351015Y-12706484D01*
X13741491Y-12496960D02*
X13570063Y-12754103D01*
X13998634Y-12506484D02*
X14017682Y-12506484D01*
X14017682Y-12506484D02*
X14036729Y-12516008D01*
X14036729Y-12516008D02*
X14046253Y-12525531D01*
X14046253Y-12525531D02*
X14055777Y-12544579D01*
X14055777Y-12544579D02*
X14065301Y-12582674D01*
X14065301Y-12582674D02*
X14065301Y-12630293D01*
X14065301Y-12630293D02*
X14055777Y-12668388D01*
X14055777Y-12668388D02*
X14046253Y-12687436D01*
X14046253Y-12687436D02*
X14036729Y-12696960D01*
X14036729Y-12696960D02*
X14017682Y-12706484D01*
X14017682Y-12706484D02*
X13998634Y-12706484D01*
X13998634Y-12706484D02*
X13979586Y-12696960D01*
X13979586Y-12696960D02*
X13970063Y-12687436D01*
X13970063Y-12687436D02*
X13960539Y-12668388D01*
X13960539Y-12668388D02*
X13951015Y-12630293D01*
X13951015Y-12630293D02*
X13951015Y-12582674D01*
X13951015Y-12582674D02*
X13960539Y-12544579D01*
X13960539Y-12544579D02*
X13970063Y-12525531D01*
X13970063Y-12525531D02*
X13979586Y-12516008D01*
X13979586Y-12516008D02*
X13998634Y-12506484D01*
X14151015Y-12687436D02*
X14160539Y-12696960D01*
X14160539Y-12696960D02*
X14151015Y-12706484D01*
X14151015Y-12706484D02*
X14141491Y-12696960D01*
X14141491Y-12696960D02*
X14151015Y-12687436D01*
X14151015Y-12687436D02*
X14151015Y-12706484D01*
X14351015Y-12706484D02*
X14236729Y-12706484D01*
X14293872Y-12706484D02*
X14293872Y-12506484D01*
X14293872Y-12506484D02*
X14274825Y-12535055D01*
X14274825Y-12535055D02*
X14255777Y-12554103D01*
X14255777Y-12554103D02*
X14236729Y-12563627D01*
X14427206Y-12525531D02*
X14436729Y-12516008D01*
X14436729Y-12516008D02*
X14455777Y-12506484D01*
X14455777Y-12506484D02*
X14503396Y-12506484D01*
X14503396Y-12506484D02*
X14522444Y-12516008D01*
X14522444Y-12516008D02*
X14531967Y-12525531D01*
X14531967Y-12525531D02*
X14541491Y-12544579D01*
X14541491Y-12544579D02*
X14541491Y-12563627D01*
X14541491Y-12563627D02*
X14531967Y-12592198D01*
X14531967Y-12592198D02*
X14417682Y-12706484D01*
X14417682Y-12706484D02*
X14541491Y-12706484D01*
X14665301Y-12506484D02*
X14684348Y-12506484D01*
X14684348Y-12506484D02*
X14703396Y-12516008D01*
X14703396Y-12516008D02*
X14712920Y-12525531D01*
X14712920Y-12525531D02*
X14722444Y-12544579D01*
X14722444Y-12544579D02*
X14731967Y-12582674D01*
X14731967Y-12582674D02*
X14731967Y-12630293D01*
X14731967Y-12630293D02*
X14722444Y-12668388D01*
X14722444Y-12668388D02*
X14712920Y-12687436D01*
X14712920Y-12687436D02*
X14703396Y-12696960D01*
X14703396Y-12696960D02*
X14684348Y-12706484D01*
X14684348Y-12706484D02*
X14665301Y-12706484D01*
X14665301Y-12706484D02*
X14646253Y-12696960D01*
X14646253Y-12696960D02*
X14636729Y-12687436D01*
X14636729Y-12687436D02*
X14627206Y-12668388D01*
X14627206Y-12668388D02*
X14617682Y-12630293D01*
X14617682Y-12630293D02*
X14617682Y-12582674D01*
X14617682Y-12582674D02*
X14627206Y-12544579D01*
X14627206Y-12544579D02*
X14636729Y-12525531D01*
X14636729Y-12525531D02*
X14646253Y-12516008D01*
X14646253Y-12516008D02*
X14665301Y-12506484D01*
X14855777Y-12506484D02*
X14874825Y-12506484D01*
X14874825Y-12506484D02*
X14893872Y-12516008D01*
X14893872Y-12516008D02*
X14903396Y-12525531D01*
X14903396Y-12525531D02*
X14912920Y-12544579D01*
X14912920Y-12544579D02*
X14922444Y-12582674D01*
X14922444Y-12582674D02*
X14922444Y-12630293D01*
X14922444Y-12630293D02*
X14912920Y-12668388D01*
X14912920Y-12668388D02*
X14903396Y-12687436D01*
X14903396Y-12687436D02*
X14893872Y-12696960D01*
X14893872Y-12696960D02*
X14874825Y-12706484D01*
X14874825Y-12706484D02*
X14855777Y-12706484D01*
X14855777Y-12706484D02*
X14836729Y-12696960D01*
X14836729Y-12696960D02*
X14827206Y-12687436D01*
X14827206Y-12687436D02*
X14817682Y-12668388D01*
X14817682Y-12668388D02*
X14808158Y-12630293D01*
X14808158Y-12630293D02*
X14808158Y-12582674D01*
X14808158Y-12582674D02*
X14817682Y-12544579D01*
X14817682Y-12544579D02*
X14827206Y-12525531D01*
X14827206Y-12525531D02*
X14836729Y-12516008D01*
X14836729Y-12516008D02*
X14855777Y-12506484D01*
X14998634Y-12506484D02*
X14998634Y-12544579D01*
X15074825Y-12506484D02*
X15074825Y-12544579D01*
X15370063Y-12782674D02*
X15360539Y-12773150D01*
X15360539Y-12773150D02*
X15341491Y-12744579D01*
X15341491Y-12744579D02*
X15331968Y-12725531D01*
X15331968Y-12725531D02*
X15322444Y-12696960D01*
X15322444Y-12696960D02*
X15312920Y-12649341D01*
X15312920Y-12649341D02*
X15312920Y-12611246D01*
X15312920Y-12611246D02*
X15322444Y-12563627D01*
X15322444Y-12563627D02*
X15331968Y-12535055D01*
X15331968Y-12535055D02*
X15341491Y-12516008D01*
X15341491Y-12516008D02*
X15360539Y-12487436D01*
X15360539Y-12487436D02*
X15370063Y-12477912D01*
X15436729Y-12525531D02*
X15446253Y-12516008D01*
X15446253Y-12516008D02*
X15465301Y-12506484D01*
X15465301Y-12506484D02*
X15512920Y-12506484D01*
X15512920Y-12506484D02*
X15531968Y-12516008D01*
X15531968Y-12516008D02*
X15541491Y-12525531D01*
X15541491Y-12525531D02*
X15551015Y-12544579D01*
X15551015Y-12544579D02*
X15551015Y-12563627D01*
X15551015Y-12563627D02*
X15541491Y-12592198D01*
X15541491Y-12592198D02*
X15427206Y-12706484D01*
X15427206Y-12706484D02*
X15551015Y-12706484D01*
X15789110Y-12706484D02*
X15789110Y-12506484D01*
X15874825Y-12706484D02*
X15874825Y-12601722D01*
X15874825Y-12601722D02*
X15865301Y-12582674D01*
X15865301Y-12582674D02*
X15846253Y-12573150D01*
X15846253Y-12573150D02*
X15817682Y-12573150D01*
X15817682Y-12573150D02*
X15798634Y-12582674D01*
X15798634Y-12582674D02*
X15789110Y-12592198D01*
X15998634Y-12706484D02*
X15979587Y-12696960D01*
X15979587Y-12696960D02*
X15970063Y-12687436D01*
X15970063Y-12687436D02*
X15960539Y-12668388D01*
X15960539Y-12668388D02*
X15960539Y-12611246D01*
X15960539Y-12611246D02*
X15970063Y-12592198D01*
X15970063Y-12592198D02*
X15979587Y-12582674D01*
X15979587Y-12582674D02*
X15998634Y-12573150D01*
X15998634Y-12573150D02*
X16027206Y-12573150D01*
X16027206Y-12573150D02*
X16046253Y-12582674D01*
X16046253Y-12582674D02*
X16055777Y-12592198D01*
X16055777Y-12592198D02*
X16065301Y-12611246D01*
X16065301Y-12611246D02*
X16065301Y-12668388D01*
X16065301Y-12668388D02*
X16055777Y-12687436D01*
X16055777Y-12687436D02*
X16046253Y-12696960D01*
X16046253Y-12696960D02*
X16027206Y-12706484D01*
X16027206Y-12706484D02*
X15998634Y-12706484D01*
X16179587Y-12706484D02*
X16160539Y-12696960D01*
X16160539Y-12696960D02*
X16151015Y-12677912D01*
X16151015Y-12677912D02*
X16151015Y-12506484D01*
X16331968Y-12696960D02*
X16312920Y-12706484D01*
X16312920Y-12706484D02*
X16274825Y-12706484D01*
X16274825Y-12706484D02*
X16255777Y-12696960D01*
X16255777Y-12696960D02*
X16246253Y-12677912D01*
X16246253Y-12677912D02*
X16246253Y-12601722D01*
X16246253Y-12601722D02*
X16255777Y-12582674D01*
X16255777Y-12582674D02*
X16274825Y-12573150D01*
X16274825Y-12573150D02*
X16312920Y-12573150D01*
X16312920Y-12573150D02*
X16331968Y-12582674D01*
X16331968Y-12582674D02*
X16341491Y-12601722D01*
X16341491Y-12601722D02*
X16341491Y-12620769D01*
X16341491Y-12620769D02*
X16246253Y-12639817D01*
X16417682Y-12696960D02*
X16436730Y-12706484D01*
X16436730Y-12706484D02*
X16474825Y-12706484D01*
X16474825Y-12706484D02*
X16493872Y-12696960D01*
X16493872Y-12696960D02*
X16503396Y-12677912D01*
X16503396Y-12677912D02*
X16503396Y-12668388D01*
X16503396Y-12668388D02*
X16493872Y-12649341D01*
X16493872Y-12649341D02*
X16474825Y-12639817D01*
X16474825Y-12639817D02*
X16446253Y-12639817D01*
X16446253Y-12639817D02*
X16427206Y-12630293D01*
X16427206Y-12630293D02*
X16417682Y-12611246D01*
X16417682Y-12611246D02*
X16417682Y-12601722D01*
X16417682Y-12601722D02*
X16427206Y-12582674D01*
X16427206Y-12582674D02*
X16446253Y-12573150D01*
X16446253Y-12573150D02*
X16474825Y-12573150D01*
X16474825Y-12573150D02*
X16493872Y-12582674D01*
X16570063Y-12782674D02*
X16579587Y-12773150D01*
X16579587Y-12773150D02*
X16598634Y-12744579D01*
X16598634Y-12744579D02*
X16608158Y-12725531D01*
X16608158Y-12725531D02*
X16617682Y-12696960D01*
X16617682Y-12696960D02*
X16627206Y-12649341D01*
X16627206Y-12649341D02*
X16627206Y-12611246D01*
X16627206Y-12611246D02*
X16617682Y-12563627D01*
X16617682Y-12563627D02*
X16608158Y-12535055D01*
X16608158Y-12535055D02*
X16598634Y-12516008D01*
X16598634Y-12516008D02*
X16579587Y-12487436D01*
X16579587Y-12487436D02*
X16570063Y-12477912D01*
X16931968Y-12782674D02*
X16922444Y-12773150D01*
X16922444Y-12773150D02*
X16903396Y-12744579D01*
X16903396Y-12744579D02*
X16893873Y-12725531D01*
X16893873Y-12725531D02*
X16884349Y-12696960D01*
X16884349Y-12696960D02*
X16874825Y-12649341D01*
X16874825Y-12649341D02*
X16874825Y-12611246D01*
X16874825Y-12611246D02*
X16884349Y-12563627D01*
X16884349Y-12563627D02*
X16893873Y-12535055D01*
X16893873Y-12535055D02*
X16903396Y-12516008D01*
X16903396Y-12516008D02*
X16922444Y-12487436D01*
X16922444Y-12487436D02*
X16931968Y-12477912D01*
X17008158Y-12573150D02*
X17008158Y-12706484D01*
X17008158Y-12592198D02*
X17017682Y-12582674D01*
X17017682Y-12582674D02*
X17036730Y-12573150D01*
X17036730Y-12573150D02*
X17065301Y-12573150D01*
X17065301Y-12573150D02*
X17084349Y-12582674D01*
X17084349Y-12582674D02*
X17093873Y-12601722D01*
X17093873Y-12601722D02*
X17093873Y-12706484D01*
X17217682Y-12706484D02*
X17198634Y-12696960D01*
X17198634Y-12696960D02*
X17189111Y-12687436D01*
X17189111Y-12687436D02*
X17179587Y-12668388D01*
X17179587Y-12668388D02*
X17179587Y-12611246D01*
X17179587Y-12611246D02*
X17189111Y-12592198D01*
X17189111Y-12592198D02*
X17198634Y-12582674D01*
X17198634Y-12582674D02*
X17217682Y-12573150D01*
X17217682Y-12573150D02*
X17246254Y-12573150D01*
X17246254Y-12573150D02*
X17265301Y-12582674D01*
X17265301Y-12582674D02*
X17274825Y-12592198D01*
X17274825Y-12592198D02*
X17284349Y-12611246D01*
X17284349Y-12611246D02*
X17284349Y-12668388D01*
X17284349Y-12668388D02*
X17274825Y-12687436D01*
X17274825Y-12687436D02*
X17265301Y-12696960D01*
X17265301Y-12696960D02*
X17246254Y-12706484D01*
X17246254Y-12706484D02*
X17217682Y-12706484D01*
X17341492Y-12573150D02*
X17417682Y-12573150D01*
X17370063Y-12506484D02*
X17370063Y-12677912D01*
X17370063Y-12677912D02*
X17379587Y-12696960D01*
X17379587Y-12696960D02*
X17398634Y-12706484D01*
X17398634Y-12706484D02*
X17417682Y-12706484D01*
X17636730Y-12573150D02*
X17636730Y-12773150D01*
X17636730Y-12582674D02*
X17655777Y-12573150D01*
X17655777Y-12573150D02*
X17693873Y-12573150D01*
X17693873Y-12573150D02*
X17712920Y-12582674D01*
X17712920Y-12582674D02*
X17722444Y-12592198D01*
X17722444Y-12592198D02*
X17731968Y-12611246D01*
X17731968Y-12611246D02*
X17731968Y-12668388D01*
X17731968Y-12668388D02*
X17722444Y-12687436D01*
X17722444Y-12687436D02*
X17712920Y-12696960D01*
X17712920Y-12696960D02*
X17693873Y-12706484D01*
X17693873Y-12706484D02*
X17655777Y-12706484D01*
X17655777Y-12706484D02*
X17636730Y-12696960D01*
X17846254Y-12706484D02*
X17827206Y-12696960D01*
X17827206Y-12696960D02*
X17817682Y-12677912D01*
X17817682Y-12677912D02*
X17817682Y-12506484D01*
X18008158Y-12706484D02*
X18008158Y-12601722D01*
X18008158Y-12601722D02*
X17998635Y-12582674D01*
X17998635Y-12582674D02*
X17979587Y-12573150D01*
X17979587Y-12573150D02*
X17941492Y-12573150D01*
X17941492Y-12573150D02*
X17922444Y-12582674D01*
X18008158Y-12696960D02*
X17989111Y-12706484D01*
X17989111Y-12706484D02*
X17941492Y-12706484D01*
X17941492Y-12706484D02*
X17922444Y-12696960D01*
X17922444Y-12696960D02*
X17912920Y-12677912D01*
X17912920Y-12677912D02*
X17912920Y-12658865D01*
X17912920Y-12658865D02*
X17922444Y-12639817D01*
X17922444Y-12639817D02*
X17941492Y-12630293D01*
X17941492Y-12630293D02*
X17989111Y-12630293D01*
X17989111Y-12630293D02*
X18008158Y-12620769D01*
X18074825Y-12573150D02*
X18151015Y-12573150D01*
X18103396Y-12506484D02*
X18103396Y-12677912D01*
X18103396Y-12677912D02*
X18112920Y-12696960D01*
X18112920Y-12696960D02*
X18131968Y-12706484D01*
X18131968Y-12706484D02*
X18151015Y-12706484D01*
X18293873Y-12696960D02*
X18274825Y-12706484D01*
X18274825Y-12706484D02*
X18236730Y-12706484D01*
X18236730Y-12706484D02*
X18217682Y-12696960D01*
X18217682Y-12696960D02*
X18208158Y-12677912D01*
X18208158Y-12677912D02*
X18208158Y-12601722D01*
X18208158Y-12601722D02*
X18217682Y-12582674D01*
X18217682Y-12582674D02*
X18236730Y-12573150D01*
X18236730Y-12573150D02*
X18274825Y-12573150D01*
X18274825Y-12573150D02*
X18293873Y-12582674D01*
X18293873Y-12582674D02*
X18303396Y-12601722D01*
X18303396Y-12601722D02*
X18303396Y-12620769D01*
X18303396Y-12620769D02*
X18208158Y-12639817D01*
X18474825Y-12706484D02*
X18474825Y-12506484D01*
X18474825Y-12696960D02*
X18455777Y-12706484D01*
X18455777Y-12706484D02*
X18417682Y-12706484D01*
X18417682Y-12706484D02*
X18398635Y-12696960D01*
X18398635Y-12696960D02*
X18389111Y-12687436D01*
X18389111Y-12687436D02*
X18379587Y-12668388D01*
X18379587Y-12668388D02*
X18379587Y-12611246D01*
X18379587Y-12611246D02*
X18389111Y-12592198D01*
X18389111Y-12592198D02*
X18398635Y-12582674D01*
X18398635Y-12582674D02*
X18417682Y-12573150D01*
X18417682Y-12573150D02*
X18455777Y-12573150D01*
X18455777Y-12573150D02*
X18474825Y-12582674D01*
X18551016Y-12782674D02*
X18560539Y-12773150D01*
X18560539Y-12773150D02*
X18579587Y-12744579D01*
X18579587Y-12744579D02*
X18589111Y-12725531D01*
X18589111Y-12725531D02*
X18598635Y-12696960D01*
X18598635Y-12696960D02*
X18608158Y-12649341D01*
X18608158Y-12649341D02*
X18608158Y-12611246D01*
X18608158Y-12611246D02*
X18598635Y-12563627D01*
X18598635Y-12563627D02*
X18589111Y-12535055D01*
X18589111Y-12535055D02*
X18579587Y-12516008D01*
X18579587Y-12516008D02*
X18560539Y-12487436D01*
X18560539Y-12487436D02*
X18551016Y-12477912D01*
X11695000Y-12835000D02*
X11695000Y-13035000D01*
X11595000Y-12935000D02*
X11795000Y-12935000D01*
X12036729Y-12826484D02*
X12160539Y-12826484D01*
X12160539Y-12826484D02*
X12093872Y-12902674D01*
X12093872Y-12902674D02*
X12122443Y-12902674D01*
X12122443Y-12902674D02*
X12141491Y-12912198D01*
X12141491Y-12912198D02*
X12151015Y-12921722D01*
X12151015Y-12921722D02*
X12160539Y-12940769D01*
X12160539Y-12940769D02*
X12160539Y-12988388D01*
X12160539Y-12988388D02*
X12151015Y-13007436D01*
X12151015Y-13007436D02*
X12141491Y-13016960D01*
X12141491Y-13016960D02*
X12122443Y-13026484D01*
X12122443Y-13026484D02*
X12065301Y-13026484D01*
X12065301Y-13026484D02*
X12046253Y-13016960D01*
X12046253Y-13016960D02*
X12036729Y-13007436D01*
X12246253Y-13007436D02*
X12255777Y-13016960D01*
X12255777Y-13016960D02*
X12246253Y-13026484D01*
X12246253Y-13026484D02*
X12236729Y-13016960D01*
X12236729Y-13016960D02*
X12246253Y-13007436D01*
X12246253Y-13007436D02*
X12246253Y-13026484D01*
X12379586Y-12826484D02*
X12398634Y-12826484D01*
X12398634Y-12826484D02*
X12417682Y-12836008D01*
X12417682Y-12836008D02*
X12427205Y-12845531D01*
X12427205Y-12845531D02*
X12436729Y-12864579D01*
X12436729Y-12864579D02*
X12446253Y-12902674D01*
X12446253Y-12902674D02*
X12446253Y-12950293D01*
X12446253Y-12950293D02*
X12436729Y-12988388D01*
X12436729Y-12988388D02*
X12427205Y-13007436D01*
X12427205Y-13007436D02*
X12417682Y-13016960D01*
X12417682Y-13016960D02*
X12398634Y-13026484D01*
X12398634Y-13026484D02*
X12379586Y-13026484D01*
X12379586Y-13026484D02*
X12360539Y-13016960D01*
X12360539Y-13016960D02*
X12351015Y-13007436D01*
X12351015Y-13007436D02*
X12341491Y-12988388D01*
X12341491Y-12988388D02*
X12331967Y-12950293D01*
X12331967Y-12950293D02*
X12331967Y-12902674D01*
X12331967Y-12902674D02*
X12341491Y-12864579D01*
X12341491Y-12864579D02*
X12351015Y-12845531D01*
X12351015Y-12845531D02*
X12360539Y-12836008D01*
X12360539Y-12836008D02*
X12379586Y-12826484D01*
X12627205Y-12826484D02*
X12531967Y-12826484D01*
X12531967Y-12826484D02*
X12522443Y-12921722D01*
X12522443Y-12921722D02*
X12531967Y-12912198D01*
X12531967Y-12912198D02*
X12551015Y-12902674D01*
X12551015Y-12902674D02*
X12598634Y-12902674D01*
X12598634Y-12902674D02*
X12617682Y-12912198D01*
X12617682Y-12912198D02*
X12627205Y-12921722D01*
X12627205Y-12921722D02*
X12636729Y-12940769D01*
X12636729Y-12940769D02*
X12636729Y-12988388D01*
X12636729Y-12988388D02*
X12627205Y-13007436D01*
X12627205Y-13007436D02*
X12617682Y-13016960D01*
X12617682Y-13016960D02*
X12598634Y-13026484D01*
X12598634Y-13026484D02*
X12551015Y-13026484D01*
X12551015Y-13026484D02*
X12531967Y-13016960D01*
X12531967Y-13016960D02*
X12522443Y-13007436D01*
X12760539Y-12826484D02*
X12779586Y-12826484D01*
X12779586Y-12826484D02*
X12798634Y-12836008D01*
X12798634Y-12836008D02*
X12808158Y-12845531D01*
X12808158Y-12845531D02*
X12817682Y-12864579D01*
X12817682Y-12864579D02*
X12827205Y-12902674D01*
X12827205Y-12902674D02*
X12827205Y-12950293D01*
X12827205Y-12950293D02*
X12817682Y-12988388D01*
X12817682Y-12988388D02*
X12808158Y-13007436D01*
X12808158Y-13007436D02*
X12798634Y-13016960D01*
X12798634Y-13016960D02*
X12779586Y-13026484D01*
X12779586Y-13026484D02*
X12760539Y-13026484D01*
X12760539Y-13026484D02*
X12741491Y-13016960D01*
X12741491Y-13016960D02*
X12731967Y-13007436D01*
X12731967Y-13007436D02*
X12722443Y-12988388D01*
X12722443Y-12988388D02*
X12712920Y-12950293D01*
X12712920Y-12950293D02*
X12712920Y-12902674D01*
X12712920Y-12902674D02*
X12722443Y-12864579D01*
X12722443Y-12864579D02*
X12731967Y-12845531D01*
X12731967Y-12845531D02*
X12741491Y-12836008D01*
X12741491Y-12836008D02*
X12760539Y-12826484D01*
X12912920Y-13026484D02*
X12912920Y-12893150D01*
X12912920Y-12912198D02*
X12922443Y-12902674D01*
X12922443Y-12902674D02*
X12941491Y-12893150D01*
X12941491Y-12893150D02*
X12970063Y-12893150D01*
X12970063Y-12893150D02*
X12989110Y-12902674D01*
X12989110Y-12902674D02*
X12998634Y-12921722D01*
X12998634Y-12921722D02*
X12998634Y-13026484D01*
X12998634Y-12921722D02*
X13008158Y-12902674D01*
X13008158Y-12902674D02*
X13027205Y-12893150D01*
X13027205Y-12893150D02*
X13055777Y-12893150D01*
X13055777Y-12893150D02*
X13074824Y-12902674D01*
X13074824Y-12902674D02*
X13084348Y-12921722D01*
X13084348Y-12921722D02*
X13084348Y-13026484D01*
X13179586Y-13026484D02*
X13179586Y-12893150D01*
X13179586Y-12912198D02*
X13189110Y-12902674D01*
X13189110Y-12902674D02*
X13208158Y-12893150D01*
X13208158Y-12893150D02*
X13236729Y-12893150D01*
X13236729Y-12893150D02*
X13255777Y-12902674D01*
X13255777Y-12902674D02*
X13265301Y-12921722D01*
X13265301Y-12921722D02*
X13265301Y-13026484D01*
X13265301Y-12921722D02*
X13274824Y-12902674D01*
X13274824Y-12902674D02*
X13293872Y-12893150D01*
X13293872Y-12893150D02*
X13322443Y-12893150D01*
X13322443Y-12893150D02*
X13341491Y-12902674D01*
X13341491Y-12902674D02*
X13351015Y-12921722D01*
X13351015Y-12921722D02*
X13351015Y-13026484D01*
X13741491Y-12816960D02*
X13570063Y-13074103D01*
X13998634Y-12826484D02*
X14017682Y-12826484D01*
X14017682Y-12826484D02*
X14036729Y-12836008D01*
X14036729Y-12836008D02*
X14046253Y-12845531D01*
X14046253Y-12845531D02*
X14055777Y-12864579D01*
X14055777Y-12864579D02*
X14065301Y-12902674D01*
X14065301Y-12902674D02*
X14065301Y-12950293D01*
X14065301Y-12950293D02*
X14055777Y-12988388D01*
X14055777Y-12988388D02*
X14046253Y-13007436D01*
X14046253Y-13007436D02*
X14036729Y-13016960D01*
X14036729Y-13016960D02*
X14017682Y-13026484D01*
X14017682Y-13026484D02*
X13998634Y-13026484D01*
X13998634Y-13026484D02*
X13979586Y-13016960D01*
X13979586Y-13016960D02*
X13970063Y-13007436D01*
X13970063Y-13007436D02*
X13960539Y-12988388D01*
X13960539Y-12988388D02*
X13951015Y-12950293D01*
X13951015Y-12950293D02*
X13951015Y-12902674D01*
X13951015Y-12902674D02*
X13960539Y-12864579D01*
X13960539Y-12864579D02*
X13970063Y-12845531D01*
X13970063Y-12845531D02*
X13979586Y-12836008D01*
X13979586Y-12836008D02*
X13998634Y-12826484D01*
X14151015Y-13007436D02*
X14160539Y-13016960D01*
X14160539Y-13016960D02*
X14151015Y-13026484D01*
X14151015Y-13026484D02*
X14141491Y-13016960D01*
X14141491Y-13016960D02*
X14151015Y-13007436D01*
X14151015Y-13007436D02*
X14151015Y-13026484D01*
X14351015Y-13026484D02*
X14236729Y-13026484D01*
X14293872Y-13026484D02*
X14293872Y-12826484D01*
X14293872Y-12826484D02*
X14274825Y-12855055D01*
X14274825Y-12855055D02*
X14255777Y-12874103D01*
X14255777Y-12874103D02*
X14236729Y-12883627D01*
X14427206Y-12845531D02*
X14436729Y-12836008D01*
X14436729Y-12836008D02*
X14455777Y-12826484D01*
X14455777Y-12826484D02*
X14503396Y-12826484D01*
X14503396Y-12826484D02*
X14522444Y-12836008D01*
X14522444Y-12836008D02*
X14531967Y-12845531D01*
X14531967Y-12845531D02*
X14541491Y-12864579D01*
X14541491Y-12864579D02*
X14541491Y-12883627D01*
X14541491Y-12883627D02*
X14531967Y-12912198D01*
X14531967Y-12912198D02*
X14417682Y-13026484D01*
X14417682Y-13026484D02*
X14541491Y-13026484D01*
X14665301Y-12826484D02*
X14684348Y-12826484D01*
X14684348Y-12826484D02*
X14703396Y-12836008D01*
X14703396Y-12836008D02*
X14712920Y-12845531D01*
X14712920Y-12845531D02*
X14722444Y-12864579D01*
X14722444Y-12864579D02*
X14731967Y-12902674D01*
X14731967Y-12902674D02*
X14731967Y-12950293D01*
X14731967Y-12950293D02*
X14722444Y-12988388D01*
X14722444Y-12988388D02*
X14712920Y-13007436D01*
X14712920Y-13007436D02*
X14703396Y-13016960D01*
X14703396Y-13016960D02*
X14684348Y-13026484D01*
X14684348Y-13026484D02*
X14665301Y-13026484D01*
X14665301Y-13026484D02*
X14646253Y-13016960D01*
X14646253Y-13016960D02*
X14636729Y-13007436D01*
X14636729Y-13007436D02*
X14627206Y-12988388D01*
X14627206Y-12988388D02*
X14617682Y-12950293D01*
X14617682Y-12950293D02*
X14617682Y-12902674D01*
X14617682Y-12902674D02*
X14627206Y-12864579D01*
X14627206Y-12864579D02*
X14636729Y-12845531D01*
X14636729Y-12845531D02*
X14646253Y-12836008D01*
X14646253Y-12836008D02*
X14665301Y-12826484D01*
X14922444Y-13026484D02*
X14808158Y-13026484D01*
X14865301Y-13026484D02*
X14865301Y-12826484D01*
X14865301Y-12826484D02*
X14846253Y-12855055D01*
X14846253Y-12855055D02*
X14827206Y-12874103D01*
X14827206Y-12874103D02*
X14808158Y-12883627D01*
X14998634Y-12826484D02*
X14998634Y-12864579D01*
X15074825Y-12826484D02*
X15074825Y-12864579D01*
X15370063Y-13102674D02*
X15360539Y-13093150D01*
X15360539Y-13093150D02*
X15341491Y-13064579D01*
X15341491Y-13064579D02*
X15331968Y-13045531D01*
X15331968Y-13045531D02*
X15322444Y-13016960D01*
X15322444Y-13016960D02*
X15312920Y-12969341D01*
X15312920Y-12969341D02*
X15312920Y-12931246D01*
X15312920Y-12931246D02*
X15322444Y-12883627D01*
X15322444Y-12883627D02*
X15331968Y-12855055D01*
X15331968Y-12855055D02*
X15341491Y-12836008D01*
X15341491Y-12836008D02*
X15360539Y-12807436D01*
X15360539Y-12807436D02*
X15370063Y-12797912D01*
X15531968Y-12893150D02*
X15531968Y-13026484D01*
X15484348Y-12816960D02*
X15436729Y-12959817D01*
X15436729Y-12959817D02*
X15560539Y-12959817D01*
X15789110Y-13026484D02*
X15789110Y-12826484D01*
X15874825Y-13026484D02*
X15874825Y-12921722D01*
X15874825Y-12921722D02*
X15865301Y-12902674D01*
X15865301Y-12902674D02*
X15846253Y-12893150D01*
X15846253Y-12893150D02*
X15817682Y-12893150D01*
X15817682Y-12893150D02*
X15798634Y-12902674D01*
X15798634Y-12902674D02*
X15789110Y-12912198D01*
X15998634Y-13026484D02*
X15979587Y-13016960D01*
X15979587Y-13016960D02*
X15970063Y-13007436D01*
X15970063Y-13007436D02*
X15960539Y-12988388D01*
X15960539Y-12988388D02*
X15960539Y-12931246D01*
X15960539Y-12931246D02*
X15970063Y-12912198D01*
X15970063Y-12912198D02*
X15979587Y-12902674D01*
X15979587Y-12902674D02*
X15998634Y-12893150D01*
X15998634Y-12893150D02*
X16027206Y-12893150D01*
X16027206Y-12893150D02*
X16046253Y-12902674D01*
X16046253Y-12902674D02*
X16055777Y-12912198D01*
X16055777Y-12912198D02*
X16065301Y-12931246D01*
X16065301Y-12931246D02*
X16065301Y-12988388D01*
X16065301Y-12988388D02*
X16055777Y-13007436D01*
X16055777Y-13007436D02*
X16046253Y-13016960D01*
X16046253Y-13016960D02*
X16027206Y-13026484D01*
X16027206Y-13026484D02*
X15998634Y-13026484D01*
X16179587Y-13026484D02*
X16160539Y-13016960D01*
X16160539Y-13016960D02*
X16151015Y-12997912D01*
X16151015Y-12997912D02*
X16151015Y-12826484D01*
X16331968Y-13016960D02*
X16312920Y-13026484D01*
X16312920Y-13026484D02*
X16274825Y-13026484D01*
X16274825Y-13026484D02*
X16255777Y-13016960D01*
X16255777Y-13016960D02*
X16246253Y-12997912D01*
X16246253Y-12997912D02*
X16246253Y-12921722D01*
X16246253Y-12921722D02*
X16255777Y-12902674D01*
X16255777Y-12902674D02*
X16274825Y-12893150D01*
X16274825Y-12893150D02*
X16312920Y-12893150D01*
X16312920Y-12893150D02*
X16331968Y-12902674D01*
X16331968Y-12902674D02*
X16341491Y-12921722D01*
X16341491Y-12921722D02*
X16341491Y-12940769D01*
X16341491Y-12940769D02*
X16246253Y-12959817D01*
X16417682Y-13016960D02*
X16436730Y-13026484D01*
X16436730Y-13026484D02*
X16474825Y-13026484D01*
X16474825Y-13026484D02*
X16493872Y-13016960D01*
X16493872Y-13016960D02*
X16503396Y-12997912D01*
X16503396Y-12997912D02*
X16503396Y-12988388D01*
X16503396Y-12988388D02*
X16493872Y-12969341D01*
X16493872Y-12969341D02*
X16474825Y-12959817D01*
X16474825Y-12959817D02*
X16446253Y-12959817D01*
X16446253Y-12959817D02*
X16427206Y-12950293D01*
X16427206Y-12950293D02*
X16417682Y-12931246D01*
X16417682Y-12931246D02*
X16417682Y-12921722D01*
X16417682Y-12921722D02*
X16427206Y-12902674D01*
X16427206Y-12902674D02*
X16446253Y-12893150D01*
X16446253Y-12893150D02*
X16474825Y-12893150D01*
X16474825Y-12893150D02*
X16493872Y-12902674D01*
X16570063Y-13102674D02*
X16579587Y-13093150D01*
X16579587Y-13093150D02*
X16598634Y-13064579D01*
X16598634Y-13064579D02*
X16608158Y-13045531D01*
X16608158Y-13045531D02*
X16617682Y-13016960D01*
X16617682Y-13016960D02*
X16627206Y-12969341D01*
X16627206Y-12969341D02*
X16627206Y-12931246D01*
X16627206Y-12931246D02*
X16617682Y-12883627D01*
X16617682Y-12883627D02*
X16608158Y-12855055D01*
X16608158Y-12855055D02*
X16598634Y-12836008D01*
X16598634Y-12836008D02*
X16579587Y-12807436D01*
X16579587Y-12807436D02*
X16570063Y-12797912D01*
X16931968Y-13102674D02*
X16922444Y-13093150D01*
X16922444Y-13093150D02*
X16903396Y-13064579D01*
X16903396Y-13064579D02*
X16893873Y-13045531D01*
X16893873Y-13045531D02*
X16884349Y-13016960D01*
X16884349Y-13016960D02*
X16874825Y-12969341D01*
X16874825Y-12969341D02*
X16874825Y-12931246D01*
X16874825Y-12931246D02*
X16884349Y-12883627D01*
X16884349Y-12883627D02*
X16893873Y-12855055D01*
X16893873Y-12855055D02*
X16903396Y-12836008D01*
X16903396Y-12836008D02*
X16922444Y-12807436D01*
X16922444Y-12807436D02*
X16931968Y-12797912D01*
X17008158Y-12893150D02*
X17008158Y-13026484D01*
X17008158Y-12912198D02*
X17017682Y-12902674D01*
X17017682Y-12902674D02*
X17036730Y-12893150D01*
X17036730Y-12893150D02*
X17065301Y-12893150D01*
X17065301Y-12893150D02*
X17084349Y-12902674D01*
X17084349Y-12902674D02*
X17093873Y-12921722D01*
X17093873Y-12921722D02*
X17093873Y-13026484D01*
X17217682Y-13026484D02*
X17198634Y-13016960D01*
X17198634Y-13016960D02*
X17189111Y-13007436D01*
X17189111Y-13007436D02*
X17179587Y-12988388D01*
X17179587Y-12988388D02*
X17179587Y-12931246D01*
X17179587Y-12931246D02*
X17189111Y-12912198D01*
X17189111Y-12912198D02*
X17198634Y-12902674D01*
X17198634Y-12902674D02*
X17217682Y-12893150D01*
X17217682Y-12893150D02*
X17246254Y-12893150D01*
X17246254Y-12893150D02*
X17265301Y-12902674D01*
X17265301Y-12902674D02*
X17274825Y-12912198D01*
X17274825Y-12912198D02*
X17284349Y-12931246D01*
X17284349Y-12931246D02*
X17284349Y-12988388D01*
X17284349Y-12988388D02*
X17274825Y-13007436D01*
X17274825Y-13007436D02*
X17265301Y-13016960D01*
X17265301Y-13016960D02*
X17246254Y-13026484D01*
X17246254Y-13026484D02*
X17217682Y-13026484D01*
X17341492Y-12893150D02*
X17417682Y-12893150D01*
X17370063Y-12826484D02*
X17370063Y-12997912D01*
X17370063Y-12997912D02*
X17379587Y-13016960D01*
X17379587Y-13016960D02*
X17398634Y-13026484D01*
X17398634Y-13026484D02*
X17417682Y-13026484D01*
X17636730Y-12893150D02*
X17636730Y-13093150D01*
X17636730Y-12902674D02*
X17655777Y-12893150D01*
X17655777Y-12893150D02*
X17693873Y-12893150D01*
X17693873Y-12893150D02*
X17712920Y-12902674D01*
X17712920Y-12902674D02*
X17722444Y-12912198D01*
X17722444Y-12912198D02*
X17731968Y-12931246D01*
X17731968Y-12931246D02*
X17731968Y-12988388D01*
X17731968Y-12988388D02*
X17722444Y-13007436D01*
X17722444Y-13007436D02*
X17712920Y-13016960D01*
X17712920Y-13016960D02*
X17693873Y-13026484D01*
X17693873Y-13026484D02*
X17655777Y-13026484D01*
X17655777Y-13026484D02*
X17636730Y-13016960D01*
X17846254Y-13026484D02*
X17827206Y-13016960D01*
X17827206Y-13016960D02*
X17817682Y-12997912D01*
X17817682Y-12997912D02*
X17817682Y-12826484D01*
X18008158Y-13026484D02*
X18008158Y-12921722D01*
X18008158Y-12921722D02*
X17998635Y-12902674D01*
X17998635Y-12902674D02*
X17979587Y-12893150D01*
X17979587Y-12893150D02*
X17941492Y-12893150D01*
X17941492Y-12893150D02*
X17922444Y-12902674D01*
X18008158Y-13016960D02*
X17989111Y-13026484D01*
X17989111Y-13026484D02*
X17941492Y-13026484D01*
X17941492Y-13026484D02*
X17922444Y-13016960D01*
X17922444Y-13016960D02*
X17912920Y-12997912D01*
X17912920Y-12997912D02*
X17912920Y-12978865D01*
X17912920Y-12978865D02*
X17922444Y-12959817D01*
X17922444Y-12959817D02*
X17941492Y-12950293D01*
X17941492Y-12950293D02*
X17989111Y-12950293D01*
X17989111Y-12950293D02*
X18008158Y-12940769D01*
X18074825Y-12893150D02*
X18151015Y-12893150D01*
X18103396Y-12826484D02*
X18103396Y-12997912D01*
X18103396Y-12997912D02*
X18112920Y-13016960D01*
X18112920Y-13016960D02*
X18131968Y-13026484D01*
X18131968Y-13026484D02*
X18151015Y-13026484D01*
X18293873Y-13016960D02*
X18274825Y-13026484D01*
X18274825Y-13026484D02*
X18236730Y-13026484D01*
X18236730Y-13026484D02*
X18217682Y-13016960D01*
X18217682Y-13016960D02*
X18208158Y-12997912D01*
X18208158Y-12997912D02*
X18208158Y-12921722D01*
X18208158Y-12921722D02*
X18217682Y-12902674D01*
X18217682Y-12902674D02*
X18236730Y-12893150D01*
X18236730Y-12893150D02*
X18274825Y-12893150D01*
X18274825Y-12893150D02*
X18293873Y-12902674D01*
X18293873Y-12902674D02*
X18303396Y-12921722D01*
X18303396Y-12921722D02*
X18303396Y-12940769D01*
X18303396Y-12940769D02*
X18208158Y-12959817D01*
X18474825Y-13026484D02*
X18474825Y-12826484D01*
X18474825Y-13016960D02*
X18455777Y-13026484D01*
X18455777Y-13026484D02*
X18417682Y-13026484D01*
X18417682Y-13026484D02*
X18398635Y-13016960D01*
X18398635Y-13016960D02*
X18389111Y-13007436D01*
X18389111Y-13007436D02*
X18379587Y-12988388D01*
X18379587Y-12988388D02*
X18379587Y-12931246D01*
X18379587Y-12931246D02*
X18389111Y-12912198D01*
X18389111Y-12912198D02*
X18398635Y-12902674D01*
X18398635Y-12902674D02*
X18417682Y-12893150D01*
X18417682Y-12893150D02*
X18455777Y-12893150D01*
X18455777Y-12893150D02*
X18474825Y-12902674D01*
X18551016Y-13102674D02*
X18560539Y-13093150D01*
X18560539Y-13093150D02*
X18579587Y-13064579D01*
X18579587Y-13064579D02*
X18589111Y-13045531D01*
X18589111Y-13045531D02*
X18598635Y-13016960D01*
X18598635Y-13016960D02*
X18608158Y-12969341D01*
X18608158Y-12969341D02*
X18608158Y-12931246D01*
X18608158Y-12931246D02*
X18598635Y-12883627D01*
X18598635Y-12883627D02*
X18589111Y-12855055D01*
X18589111Y-12855055D02*
X18579587Y-12836008D01*
X18579587Y-12836008D02*
X18560539Y-12807436D01*
X18560539Y-12807436D02*
X18551016Y-12797912D01*
X11765711Y-13325711D02*
X11765711Y-13184289D01*
X11624289Y-13184289D01*
X11624289Y-13325711D01*
X11765711Y-13325711D01*
X12036729Y-13146484D02*
X12160539Y-13146484D01*
X12160539Y-13146484D02*
X12093872Y-13222674D01*
X12093872Y-13222674D02*
X12122443Y-13222674D01*
X12122443Y-13222674D02*
X12141491Y-13232198D01*
X12141491Y-13232198D02*
X12151015Y-13241722D01*
X12151015Y-13241722D02*
X12160539Y-13260769D01*
X12160539Y-13260769D02*
X12160539Y-13308388D01*
X12160539Y-13308388D02*
X12151015Y-13327436D01*
X12151015Y-13327436D02*
X12141491Y-13336960D01*
X12141491Y-13336960D02*
X12122443Y-13346484D01*
X12122443Y-13346484D02*
X12065301Y-13346484D01*
X12065301Y-13346484D02*
X12046253Y-13336960D01*
X12046253Y-13336960D02*
X12036729Y-13327436D01*
X12246253Y-13327436D02*
X12255777Y-13336960D01*
X12255777Y-13336960D02*
X12246253Y-13346484D01*
X12246253Y-13346484D02*
X12236729Y-13336960D01*
X12236729Y-13336960D02*
X12246253Y-13327436D01*
X12246253Y-13327436D02*
X12246253Y-13346484D01*
X12331967Y-13165531D02*
X12341491Y-13156008D01*
X12341491Y-13156008D02*
X12360539Y-13146484D01*
X12360539Y-13146484D02*
X12408158Y-13146484D01*
X12408158Y-13146484D02*
X12427205Y-13156008D01*
X12427205Y-13156008D02*
X12436729Y-13165531D01*
X12436729Y-13165531D02*
X12446253Y-13184579D01*
X12446253Y-13184579D02*
X12446253Y-13203627D01*
X12446253Y-13203627D02*
X12436729Y-13232198D01*
X12436729Y-13232198D02*
X12322443Y-13346484D01*
X12322443Y-13346484D02*
X12446253Y-13346484D01*
X12570062Y-13146484D02*
X12589110Y-13146484D01*
X12589110Y-13146484D02*
X12608158Y-13156008D01*
X12608158Y-13156008D02*
X12617682Y-13165531D01*
X12617682Y-13165531D02*
X12627205Y-13184579D01*
X12627205Y-13184579D02*
X12636729Y-13222674D01*
X12636729Y-13222674D02*
X12636729Y-13270293D01*
X12636729Y-13270293D02*
X12627205Y-13308388D01*
X12627205Y-13308388D02*
X12617682Y-13327436D01*
X12617682Y-13327436D02*
X12608158Y-13336960D01*
X12608158Y-13336960D02*
X12589110Y-13346484D01*
X12589110Y-13346484D02*
X12570062Y-13346484D01*
X12570062Y-13346484D02*
X12551015Y-13336960D01*
X12551015Y-13336960D02*
X12541491Y-13327436D01*
X12541491Y-13327436D02*
X12531967Y-13308388D01*
X12531967Y-13308388D02*
X12522443Y-13270293D01*
X12522443Y-13270293D02*
X12522443Y-13222674D01*
X12522443Y-13222674D02*
X12531967Y-13184579D01*
X12531967Y-13184579D02*
X12541491Y-13165531D01*
X12541491Y-13165531D02*
X12551015Y-13156008D01*
X12551015Y-13156008D02*
X12570062Y-13146484D01*
X12760539Y-13146484D02*
X12779586Y-13146484D01*
X12779586Y-13146484D02*
X12798634Y-13156008D01*
X12798634Y-13156008D02*
X12808158Y-13165531D01*
X12808158Y-13165531D02*
X12817682Y-13184579D01*
X12817682Y-13184579D02*
X12827205Y-13222674D01*
X12827205Y-13222674D02*
X12827205Y-13270293D01*
X12827205Y-13270293D02*
X12817682Y-13308388D01*
X12817682Y-13308388D02*
X12808158Y-13327436D01*
X12808158Y-13327436D02*
X12798634Y-13336960D01*
X12798634Y-13336960D02*
X12779586Y-13346484D01*
X12779586Y-13346484D02*
X12760539Y-13346484D01*
X12760539Y-13346484D02*
X12741491Y-13336960D01*
X12741491Y-13336960D02*
X12731967Y-13327436D01*
X12731967Y-13327436D02*
X12722443Y-13308388D01*
X12722443Y-13308388D02*
X12712920Y-13270293D01*
X12712920Y-13270293D02*
X12712920Y-13222674D01*
X12712920Y-13222674D02*
X12722443Y-13184579D01*
X12722443Y-13184579D02*
X12731967Y-13165531D01*
X12731967Y-13165531D02*
X12741491Y-13156008D01*
X12741491Y-13156008D02*
X12760539Y-13146484D01*
X12912920Y-13346484D02*
X12912920Y-13213150D01*
X12912920Y-13232198D02*
X12922443Y-13222674D01*
X12922443Y-13222674D02*
X12941491Y-13213150D01*
X12941491Y-13213150D02*
X12970063Y-13213150D01*
X12970063Y-13213150D02*
X12989110Y-13222674D01*
X12989110Y-13222674D02*
X12998634Y-13241722D01*
X12998634Y-13241722D02*
X12998634Y-13346484D01*
X12998634Y-13241722D02*
X13008158Y-13222674D01*
X13008158Y-13222674D02*
X13027205Y-13213150D01*
X13027205Y-13213150D02*
X13055777Y-13213150D01*
X13055777Y-13213150D02*
X13074824Y-13222674D01*
X13074824Y-13222674D02*
X13084348Y-13241722D01*
X13084348Y-13241722D02*
X13084348Y-13346484D01*
X13179586Y-13346484D02*
X13179586Y-13213150D01*
X13179586Y-13232198D02*
X13189110Y-13222674D01*
X13189110Y-13222674D02*
X13208158Y-13213150D01*
X13208158Y-13213150D02*
X13236729Y-13213150D01*
X13236729Y-13213150D02*
X13255777Y-13222674D01*
X13255777Y-13222674D02*
X13265301Y-13241722D01*
X13265301Y-13241722D02*
X13265301Y-13346484D01*
X13265301Y-13241722D02*
X13274824Y-13222674D01*
X13274824Y-13222674D02*
X13293872Y-13213150D01*
X13293872Y-13213150D02*
X13322443Y-13213150D01*
X13322443Y-13213150D02*
X13341491Y-13222674D01*
X13341491Y-13222674D02*
X13351015Y-13241722D01*
X13351015Y-13241722D02*
X13351015Y-13346484D01*
X13741491Y-13136960D02*
X13570063Y-13394103D01*
X13998634Y-13146484D02*
X14017682Y-13146484D01*
X14017682Y-13146484D02*
X14036729Y-13156008D01*
X14036729Y-13156008D02*
X14046253Y-13165531D01*
X14046253Y-13165531D02*
X14055777Y-13184579D01*
X14055777Y-13184579D02*
X14065301Y-13222674D01*
X14065301Y-13222674D02*
X14065301Y-13270293D01*
X14065301Y-13270293D02*
X14055777Y-13308388D01*
X14055777Y-13308388D02*
X14046253Y-13327436D01*
X14046253Y-13327436D02*
X14036729Y-13336960D01*
X14036729Y-13336960D02*
X14017682Y-13346484D01*
X14017682Y-13346484D02*
X13998634Y-13346484D01*
X13998634Y-13346484D02*
X13979586Y-13336960D01*
X13979586Y-13336960D02*
X13970063Y-13327436D01*
X13970063Y-13327436D02*
X13960539Y-13308388D01*
X13960539Y-13308388D02*
X13951015Y-13270293D01*
X13951015Y-13270293D02*
X13951015Y-13222674D01*
X13951015Y-13222674D02*
X13960539Y-13184579D01*
X13960539Y-13184579D02*
X13970063Y-13165531D01*
X13970063Y-13165531D02*
X13979586Y-13156008D01*
X13979586Y-13156008D02*
X13998634Y-13146484D01*
X14151015Y-13327436D02*
X14160539Y-13336960D01*
X14160539Y-13336960D02*
X14151015Y-13346484D01*
X14151015Y-13346484D02*
X14141491Y-13336960D01*
X14141491Y-13336960D02*
X14151015Y-13327436D01*
X14151015Y-13327436D02*
X14151015Y-13346484D01*
X14351015Y-13346484D02*
X14236729Y-13346484D01*
X14293872Y-13346484D02*
X14293872Y-13146484D01*
X14293872Y-13146484D02*
X14274825Y-13175055D01*
X14274825Y-13175055D02*
X14255777Y-13194103D01*
X14255777Y-13194103D02*
X14236729Y-13203627D01*
X14427206Y-13165531D02*
X14436729Y-13156008D01*
X14436729Y-13156008D02*
X14455777Y-13146484D01*
X14455777Y-13146484D02*
X14503396Y-13146484D01*
X14503396Y-13146484D02*
X14522444Y-13156008D01*
X14522444Y-13156008D02*
X14531967Y-13165531D01*
X14531967Y-13165531D02*
X14541491Y-13184579D01*
X14541491Y-13184579D02*
X14541491Y-13203627D01*
X14541491Y-13203627D02*
X14531967Y-13232198D01*
X14531967Y-13232198D02*
X14417682Y-13346484D01*
X14417682Y-13346484D02*
X14541491Y-13346484D01*
X14712920Y-13146484D02*
X14674825Y-13146484D01*
X14674825Y-13146484D02*
X14655777Y-13156008D01*
X14655777Y-13156008D02*
X14646253Y-13165531D01*
X14646253Y-13165531D02*
X14627206Y-13194103D01*
X14627206Y-13194103D02*
X14617682Y-13232198D01*
X14617682Y-13232198D02*
X14617682Y-13308388D01*
X14617682Y-13308388D02*
X14627206Y-13327436D01*
X14627206Y-13327436D02*
X14636729Y-13336960D01*
X14636729Y-13336960D02*
X14655777Y-13346484D01*
X14655777Y-13346484D02*
X14693872Y-13346484D01*
X14693872Y-13346484D02*
X14712920Y-13336960D01*
X14712920Y-13336960D02*
X14722444Y-13327436D01*
X14722444Y-13327436D02*
X14731967Y-13308388D01*
X14731967Y-13308388D02*
X14731967Y-13260769D01*
X14731967Y-13260769D02*
X14722444Y-13241722D01*
X14722444Y-13241722D02*
X14712920Y-13232198D01*
X14712920Y-13232198D02*
X14693872Y-13222674D01*
X14693872Y-13222674D02*
X14655777Y-13222674D01*
X14655777Y-13222674D02*
X14636729Y-13232198D01*
X14636729Y-13232198D02*
X14627206Y-13241722D01*
X14627206Y-13241722D02*
X14617682Y-13260769D01*
X14855777Y-13146484D02*
X14874825Y-13146484D01*
X14874825Y-13146484D02*
X14893872Y-13156008D01*
X14893872Y-13156008D02*
X14903396Y-13165531D01*
X14903396Y-13165531D02*
X14912920Y-13184579D01*
X14912920Y-13184579D02*
X14922444Y-13222674D01*
X14922444Y-13222674D02*
X14922444Y-13270293D01*
X14922444Y-13270293D02*
X14912920Y-13308388D01*
X14912920Y-13308388D02*
X14903396Y-13327436D01*
X14903396Y-13327436D02*
X14893872Y-13336960D01*
X14893872Y-13336960D02*
X14874825Y-13346484D01*
X14874825Y-13346484D02*
X14855777Y-13346484D01*
X14855777Y-13346484D02*
X14836729Y-13336960D01*
X14836729Y-13336960D02*
X14827206Y-13327436D01*
X14827206Y-13327436D02*
X14817682Y-13308388D01*
X14817682Y-13308388D02*
X14808158Y-13270293D01*
X14808158Y-13270293D02*
X14808158Y-13222674D01*
X14808158Y-13222674D02*
X14817682Y-13184579D01*
X14817682Y-13184579D02*
X14827206Y-13165531D01*
X14827206Y-13165531D02*
X14836729Y-13156008D01*
X14836729Y-13156008D02*
X14855777Y-13146484D01*
X14998634Y-13146484D02*
X14998634Y-13184579D01*
X15074825Y-13146484D02*
X15074825Y-13184579D01*
X15370063Y-13422674D02*
X15360539Y-13413150D01*
X15360539Y-13413150D02*
X15341491Y-13384579D01*
X15341491Y-13384579D02*
X15331968Y-13365531D01*
X15331968Y-13365531D02*
X15322444Y-13336960D01*
X15322444Y-13336960D02*
X15312920Y-13289341D01*
X15312920Y-13289341D02*
X15312920Y-13251246D01*
X15312920Y-13251246D02*
X15322444Y-13203627D01*
X15322444Y-13203627D02*
X15331968Y-13175055D01*
X15331968Y-13175055D02*
X15341491Y-13156008D01*
X15341491Y-13156008D02*
X15360539Y-13127436D01*
X15360539Y-13127436D02*
X15370063Y-13117912D01*
X15531968Y-13213150D02*
X15531968Y-13346484D01*
X15484348Y-13136960D02*
X15436729Y-13279817D01*
X15436729Y-13279817D02*
X15560539Y-13279817D01*
X15789110Y-13346484D02*
X15789110Y-13146484D01*
X15874825Y-13346484D02*
X15874825Y-13241722D01*
X15874825Y-13241722D02*
X15865301Y-13222674D01*
X15865301Y-13222674D02*
X15846253Y-13213150D01*
X15846253Y-13213150D02*
X15817682Y-13213150D01*
X15817682Y-13213150D02*
X15798634Y-13222674D01*
X15798634Y-13222674D02*
X15789110Y-13232198D01*
X15998634Y-13346484D02*
X15979587Y-13336960D01*
X15979587Y-13336960D02*
X15970063Y-13327436D01*
X15970063Y-13327436D02*
X15960539Y-13308388D01*
X15960539Y-13308388D02*
X15960539Y-13251246D01*
X15960539Y-13251246D02*
X15970063Y-13232198D01*
X15970063Y-13232198D02*
X15979587Y-13222674D01*
X15979587Y-13222674D02*
X15998634Y-13213150D01*
X15998634Y-13213150D02*
X16027206Y-13213150D01*
X16027206Y-13213150D02*
X16046253Y-13222674D01*
X16046253Y-13222674D02*
X16055777Y-13232198D01*
X16055777Y-13232198D02*
X16065301Y-13251246D01*
X16065301Y-13251246D02*
X16065301Y-13308388D01*
X16065301Y-13308388D02*
X16055777Y-13327436D01*
X16055777Y-13327436D02*
X16046253Y-13336960D01*
X16046253Y-13336960D02*
X16027206Y-13346484D01*
X16027206Y-13346484D02*
X15998634Y-13346484D01*
X16179587Y-13346484D02*
X16160539Y-13336960D01*
X16160539Y-13336960D02*
X16151015Y-13317912D01*
X16151015Y-13317912D02*
X16151015Y-13146484D01*
X16331968Y-13336960D02*
X16312920Y-13346484D01*
X16312920Y-13346484D02*
X16274825Y-13346484D01*
X16274825Y-13346484D02*
X16255777Y-13336960D01*
X16255777Y-13336960D02*
X16246253Y-13317912D01*
X16246253Y-13317912D02*
X16246253Y-13241722D01*
X16246253Y-13241722D02*
X16255777Y-13222674D01*
X16255777Y-13222674D02*
X16274825Y-13213150D01*
X16274825Y-13213150D02*
X16312920Y-13213150D01*
X16312920Y-13213150D02*
X16331968Y-13222674D01*
X16331968Y-13222674D02*
X16341491Y-13241722D01*
X16341491Y-13241722D02*
X16341491Y-13260769D01*
X16341491Y-13260769D02*
X16246253Y-13279817D01*
X16417682Y-13336960D02*
X16436730Y-13346484D01*
X16436730Y-13346484D02*
X16474825Y-13346484D01*
X16474825Y-13346484D02*
X16493872Y-13336960D01*
X16493872Y-13336960D02*
X16503396Y-13317912D01*
X16503396Y-13317912D02*
X16503396Y-13308388D01*
X16503396Y-13308388D02*
X16493872Y-13289341D01*
X16493872Y-13289341D02*
X16474825Y-13279817D01*
X16474825Y-13279817D02*
X16446253Y-13279817D01*
X16446253Y-13279817D02*
X16427206Y-13270293D01*
X16427206Y-13270293D02*
X16417682Y-13251246D01*
X16417682Y-13251246D02*
X16417682Y-13241722D01*
X16417682Y-13241722D02*
X16427206Y-13222674D01*
X16427206Y-13222674D02*
X16446253Y-13213150D01*
X16446253Y-13213150D02*
X16474825Y-13213150D01*
X16474825Y-13213150D02*
X16493872Y-13222674D01*
X16570063Y-13422674D02*
X16579587Y-13413150D01*
X16579587Y-13413150D02*
X16598634Y-13384579D01*
X16598634Y-13384579D02*
X16608158Y-13365531D01*
X16608158Y-13365531D02*
X16617682Y-13336960D01*
X16617682Y-13336960D02*
X16627206Y-13289341D01*
X16627206Y-13289341D02*
X16627206Y-13251246D01*
X16627206Y-13251246D02*
X16617682Y-13203627D01*
X16617682Y-13203627D02*
X16608158Y-13175055D01*
X16608158Y-13175055D02*
X16598634Y-13156008D01*
X16598634Y-13156008D02*
X16579587Y-13127436D01*
X16579587Y-13127436D02*
X16570063Y-13117912D01*
X16931968Y-13422674D02*
X16922444Y-13413150D01*
X16922444Y-13413150D02*
X16903396Y-13384579D01*
X16903396Y-13384579D02*
X16893873Y-13365531D01*
X16893873Y-13365531D02*
X16884349Y-13336960D01*
X16884349Y-13336960D02*
X16874825Y-13289341D01*
X16874825Y-13289341D02*
X16874825Y-13251246D01*
X16874825Y-13251246D02*
X16884349Y-13203627D01*
X16884349Y-13203627D02*
X16893873Y-13175055D01*
X16893873Y-13175055D02*
X16903396Y-13156008D01*
X16903396Y-13156008D02*
X16922444Y-13127436D01*
X16922444Y-13127436D02*
X16931968Y-13117912D01*
X17008158Y-13213150D02*
X17008158Y-13346484D01*
X17008158Y-13232198D02*
X17017682Y-13222674D01*
X17017682Y-13222674D02*
X17036730Y-13213150D01*
X17036730Y-13213150D02*
X17065301Y-13213150D01*
X17065301Y-13213150D02*
X17084349Y-13222674D01*
X17084349Y-13222674D02*
X17093873Y-13241722D01*
X17093873Y-13241722D02*
X17093873Y-13346484D01*
X17217682Y-13346484D02*
X17198634Y-13336960D01*
X17198634Y-13336960D02*
X17189111Y-13327436D01*
X17189111Y-13327436D02*
X17179587Y-13308388D01*
X17179587Y-13308388D02*
X17179587Y-13251246D01*
X17179587Y-13251246D02*
X17189111Y-13232198D01*
X17189111Y-13232198D02*
X17198634Y-13222674D01*
X17198634Y-13222674D02*
X17217682Y-13213150D01*
X17217682Y-13213150D02*
X17246254Y-13213150D01*
X17246254Y-13213150D02*
X17265301Y-13222674D01*
X17265301Y-13222674D02*
X17274825Y-13232198D01*
X17274825Y-13232198D02*
X17284349Y-13251246D01*
X17284349Y-13251246D02*
X17284349Y-13308388D01*
X17284349Y-13308388D02*
X17274825Y-13327436D01*
X17274825Y-13327436D02*
X17265301Y-13336960D01*
X17265301Y-13336960D02*
X17246254Y-13346484D01*
X17246254Y-13346484D02*
X17217682Y-13346484D01*
X17341492Y-13213150D02*
X17417682Y-13213150D01*
X17370063Y-13146484D02*
X17370063Y-13317912D01*
X17370063Y-13317912D02*
X17379587Y-13336960D01*
X17379587Y-13336960D02*
X17398634Y-13346484D01*
X17398634Y-13346484D02*
X17417682Y-13346484D01*
X17636730Y-13213150D02*
X17636730Y-13413150D01*
X17636730Y-13222674D02*
X17655777Y-13213150D01*
X17655777Y-13213150D02*
X17693873Y-13213150D01*
X17693873Y-13213150D02*
X17712920Y-13222674D01*
X17712920Y-13222674D02*
X17722444Y-13232198D01*
X17722444Y-13232198D02*
X17731968Y-13251246D01*
X17731968Y-13251246D02*
X17731968Y-13308388D01*
X17731968Y-13308388D02*
X17722444Y-13327436D01*
X17722444Y-13327436D02*
X17712920Y-13336960D01*
X17712920Y-13336960D02*
X17693873Y-13346484D01*
X17693873Y-13346484D02*
X17655777Y-13346484D01*
X17655777Y-13346484D02*
X17636730Y-13336960D01*
X17846254Y-13346484D02*
X17827206Y-13336960D01*
X17827206Y-13336960D02*
X17817682Y-13317912D01*
X17817682Y-13317912D02*
X17817682Y-13146484D01*
X18008158Y-13346484D02*
X18008158Y-13241722D01*
X18008158Y-13241722D02*
X17998635Y-13222674D01*
X17998635Y-13222674D02*
X17979587Y-13213150D01*
X17979587Y-13213150D02*
X17941492Y-13213150D01*
X17941492Y-13213150D02*
X17922444Y-13222674D01*
X18008158Y-13336960D02*
X17989111Y-13346484D01*
X17989111Y-13346484D02*
X17941492Y-13346484D01*
X17941492Y-13346484D02*
X17922444Y-13336960D01*
X17922444Y-13336960D02*
X17912920Y-13317912D01*
X17912920Y-13317912D02*
X17912920Y-13298865D01*
X17912920Y-13298865D02*
X17922444Y-13279817D01*
X17922444Y-13279817D02*
X17941492Y-13270293D01*
X17941492Y-13270293D02*
X17989111Y-13270293D01*
X17989111Y-13270293D02*
X18008158Y-13260769D01*
X18074825Y-13213150D02*
X18151015Y-13213150D01*
X18103396Y-13146484D02*
X18103396Y-13317912D01*
X18103396Y-13317912D02*
X18112920Y-13336960D01*
X18112920Y-13336960D02*
X18131968Y-13346484D01*
X18131968Y-13346484D02*
X18151015Y-13346484D01*
X18293873Y-13336960D02*
X18274825Y-13346484D01*
X18274825Y-13346484D02*
X18236730Y-13346484D01*
X18236730Y-13346484D02*
X18217682Y-13336960D01*
X18217682Y-13336960D02*
X18208158Y-13317912D01*
X18208158Y-13317912D02*
X18208158Y-13241722D01*
X18208158Y-13241722D02*
X18217682Y-13222674D01*
X18217682Y-13222674D02*
X18236730Y-13213150D01*
X18236730Y-13213150D02*
X18274825Y-13213150D01*
X18274825Y-13213150D02*
X18293873Y-13222674D01*
X18293873Y-13222674D02*
X18303396Y-13241722D01*
X18303396Y-13241722D02*
X18303396Y-13260769D01*
X18303396Y-13260769D02*
X18208158Y-13279817D01*
X18474825Y-13346484D02*
X18474825Y-13146484D01*
X18474825Y-13336960D02*
X18455777Y-13346484D01*
X18455777Y-13346484D02*
X18417682Y-13346484D01*
X18417682Y-13346484D02*
X18398635Y-13336960D01*
X18398635Y-13336960D02*
X18389111Y-13327436D01*
X18389111Y-13327436D02*
X18379587Y-13308388D01*
X18379587Y-13308388D02*
X18379587Y-13251246D01*
X18379587Y-13251246D02*
X18389111Y-13232198D01*
X18389111Y-13232198D02*
X18398635Y-13222674D01*
X18398635Y-13222674D02*
X18417682Y-13213150D01*
X18417682Y-13213150D02*
X18455777Y-13213150D01*
X18455777Y-13213150D02*
X18474825Y-13222674D01*
X18551016Y-13422674D02*
X18560539Y-13413150D01*
X18560539Y-13413150D02*
X18579587Y-13384579D01*
X18579587Y-13384579D02*
X18589111Y-13365531D01*
X18589111Y-13365531D02*
X18598635Y-13336960D01*
X18598635Y-13336960D02*
X18608158Y-13289341D01*
X18608158Y-13289341D02*
X18608158Y-13251246D01*
X18608158Y-13251246D02*
X18598635Y-13203627D01*
X18598635Y-13203627D02*
X18589111Y-13175055D01*
X18589111Y-13175055D02*
X18579587Y-13156008D01*
X18579587Y-13156008D02*
X18560539Y-13127436D01*
X18560539Y-13127436D02*
X18551016Y-13117912D01*
X11695000Y-13675000D02*
X11795000Y-13575000D01*
X11695000Y-13475000D01*
X11595000Y-13575000D01*
X11695000Y-13675000D01*
X12036729Y-13466484D02*
X12160539Y-13466484D01*
X12160539Y-13466484D02*
X12093872Y-13542674D01*
X12093872Y-13542674D02*
X12122443Y-13542674D01*
X12122443Y-13542674D02*
X12141491Y-13552198D01*
X12141491Y-13552198D02*
X12151015Y-13561722D01*
X12151015Y-13561722D02*
X12160539Y-13580769D01*
X12160539Y-13580769D02*
X12160539Y-13628388D01*
X12160539Y-13628388D02*
X12151015Y-13647436D01*
X12151015Y-13647436D02*
X12141491Y-13656960D01*
X12141491Y-13656960D02*
X12122443Y-13666484D01*
X12122443Y-13666484D02*
X12065301Y-13666484D01*
X12065301Y-13666484D02*
X12046253Y-13656960D01*
X12046253Y-13656960D02*
X12036729Y-13647436D01*
X12246253Y-13647436D02*
X12255777Y-13656960D01*
X12255777Y-13656960D02*
X12246253Y-13666484D01*
X12246253Y-13666484D02*
X12236729Y-13656960D01*
X12236729Y-13656960D02*
X12246253Y-13647436D01*
X12246253Y-13647436D02*
X12246253Y-13666484D01*
X12351015Y-13666484D02*
X12389110Y-13666484D01*
X12389110Y-13666484D02*
X12408158Y-13656960D01*
X12408158Y-13656960D02*
X12417682Y-13647436D01*
X12417682Y-13647436D02*
X12436729Y-13618865D01*
X12436729Y-13618865D02*
X12446253Y-13580769D01*
X12446253Y-13580769D02*
X12446253Y-13504579D01*
X12446253Y-13504579D02*
X12436729Y-13485531D01*
X12436729Y-13485531D02*
X12427205Y-13476008D01*
X12427205Y-13476008D02*
X12408158Y-13466484D01*
X12408158Y-13466484D02*
X12370062Y-13466484D01*
X12370062Y-13466484D02*
X12351015Y-13476008D01*
X12351015Y-13476008D02*
X12341491Y-13485531D01*
X12341491Y-13485531D02*
X12331967Y-13504579D01*
X12331967Y-13504579D02*
X12331967Y-13552198D01*
X12331967Y-13552198D02*
X12341491Y-13571246D01*
X12341491Y-13571246D02*
X12351015Y-13580769D01*
X12351015Y-13580769D02*
X12370062Y-13590293D01*
X12370062Y-13590293D02*
X12408158Y-13590293D01*
X12408158Y-13590293D02*
X12427205Y-13580769D01*
X12427205Y-13580769D02*
X12436729Y-13571246D01*
X12436729Y-13571246D02*
X12446253Y-13552198D01*
X12560539Y-13552198D02*
X12541491Y-13542674D01*
X12541491Y-13542674D02*
X12531967Y-13533150D01*
X12531967Y-13533150D02*
X12522443Y-13514103D01*
X12522443Y-13514103D02*
X12522443Y-13504579D01*
X12522443Y-13504579D02*
X12531967Y-13485531D01*
X12531967Y-13485531D02*
X12541491Y-13476008D01*
X12541491Y-13476008D02*
X12560539Y-13466484D01*
X12560539Y-13466484D02*
X12598634Y-13466484D01*
X12598634Y-13466484D02*
X12617682Y-13476008D01*
X12617682Y-13476008D02*
X12627205Y-13485531D01*
X12627205Y-13485531D02*
X12636729Y-13504579D01*
X12636729Y-13504579D02*
X12636729Y-13514103D01*
X12636729Y-13514103D02*
X12627205Y-13533150D01*
X12627205Y-13533150D02*
X12617682Y-13542674D01*
X12617682Y-13542674D02*
X12598634Y-13552198D01*
X12598634Y-13552198D02*
X12560539Y-13552198D01*
X12560539Y-13552198D02*
X12541491Y-13561722D01*
X12541491Y-13561722D02*
X12531967Y-13571246D01*
X12531967Y-13571246D02*
X12522443Y-13590293D01*
X12522443Y-13590293D02*
X12522443Y-13628388D01*
X12522443Y-13628388D02*
X12531967Y-13647436D01*
X12531967Y-13647436D02*
X12541491Y-13656960D01*
X12541491Y-13656960D02*
X12560539Y-13666484D01*
X12560539Y-13666484D02*
X12598634Y-13666484D01*
X12598634Y-13666484D02*
X12617682Y-13656960D01*
X12617682Y-13656960D02*
X12627205Y-13647436D01*
X12627205Y-13647436D02*
X12636729Y-13628388D01*
X12636729Y-13628388D02*
X12636729Y-13590293D01*
X12636729Y-13590293D02*
X12627205Y-13571246D01*
X12627205Y-13571246D02*
X12617682Y-13561722D01*
X12617682Y-13561722D02*
X12598634Y-13552198D01*
X12751015Y-13552198D02*
X12731967Y-13542674D01*
X12731967Y-13542674D02*
X12722443Y-13533150D01*
X12722443Y-13533150D02*
X12712920Y-13514103D01*
X12712920Y-13514103D02*
X12712920Y-13504579D01*
X12712920Y-13504579D02*
X12722443Y-13485531D01*
X12722443Y-13485531D02*
X12731967Y-13476008D01*
X12731967Y-13476008D02*
X12751015Y-13466484D01*
X12751015Y-13466484D02*
X12789110Y-13466484D01*
X12789110Y-13466484D02*
X12808158Y-13476008D01*
X12808158Y-13476008D02*
X12817682Y-13485531D01*
X12817682Y-13485531D02*
X12827205Y-13504579D01*
X12827205Y-13504579D02*
X12827205Y-13514103D01*
X12827205Y-13514103D02*
X12817682Y-13533150D01*
X12817682Y-13533150D02*
X12808158Y-13542674D01*
X12808158Y-13542674D02*
X12789110Y-13552198D01*
X12789110Y-13552198D02*
X12751015Y-13552198D01*
X12751015Y-13552198D02*
X12731967Y-13561722D01*
X12731967Y-13561722D02*
X12722443Y-13571246D01*
X12722443Y-13571246D02*
X12712920Y-13590293D01*
X12712920Y-13590293D02*
X12712920Y-13628388D01*
X12712920Y-13628388D02*
X12722443Y-13647436D01*
X12722443Y-13647436D02*
X12731967Y-13656960D01*
X12731967Y-13656960D02*
X12751015Y-13666484D01*
X12751015Y-13666484D02*
X12789110Y-13666484D01*
X12789110Y-13666484D02*
X12808158Y-13656960D01*
X12808158Y-13656960D02*
X12817682Y-13647436D01*
X12817682Y-13647436D02*
X12827205Y-13628388D01*
X12827205Y-13628388D02*
X12827205Y-13590293D01*
X12827205Y-13590293D02*
X12817682Y-13571246D01*
X12817682Y-13571246D02*
X12808158Y-13561722D01*
X12808158Y-13561722D02*
X12789110Y-13552198D01*
X12912920Y-13666484D02*
X12912920Y-13533150D01*
X12912920Y-13552198D02*
X12922443Y-13542674D01*
X12922443Y-13542674D02*
X12941491Y-13533150D01*
X12941491Y-13533150D02*
X12970063Y-13533150D01*
X12970063Y-13533150D02*
X12989110Y-13542674D01*
X12989110Y-13542674D02*
X12998634Y-13561722D01*
X12998634Y-13561722D02*
X12998634Y-13666484D01*
X12998634Y-13561722D02*
X13008158Y-13542674D01*
X13008158Y-13542674D02*
X13027205Y-13533150D01*
X13027205Y-13533150D02*
X13055777Y-13533150D01*
X13055777Y-13533150D02*
X13074824Y-13542674D01*
X13074824Y-13542674D02*
X13084348Y-13561722D01*
X13084348Y-13561722D02*
X13084348Y-13666484D01*
X13179586Y-13666484D02*
X13179586Y-13533150D01*
X13179586Y-13552198D02*
X13189110Y-13542674D01*
X13189110Y-13542674D02*
X13208158Y-13533150D01*
X13208158Y-13533150D02*
X13236729Y-13533150D01*
X13236729Y-13533150D02*
X13255777Y-13542674D01*
X13255777Y-13542674D02*
X13265301Y-13561722D01*
X13265301Y-13561722D02*
X13265301Y-13666484D01*
X13265301Y-13561722D02*
X13274824Y-13542674D01*
X13274824Y-13542674D02*
X13293872Y-13533150D01*
X13293872Y-13533150D02*
X13322443Y-13533150D01*
X13322443Y-13533150D02*
X13341491Y-13542674D01*
X13341491Y-13542674D02*
X13351015Y-13561722D01*
X13351015Y-13561722D02*
X13351015Y-13666484D01*
X13741491Y-13456960D02*
X13570063Y-13714103D01*
X13998634Y-13466484D02*
X14017682Y-13466484D01*
X14017682Y-13466484D02*
X14036729Y-13476008D01*
X14036729Y-13476008D02*
X14046253Y-13485531D01*
X14046253Y-13485531D02*
X14055777Y-13504579D01*
X14055777Y-13504579D02*
X14065301Y-13542674D01*
X14065301Y-13542674D02*
X14065301Y-13590293D01*
X14065301Y-13590293D02*
X14055777Y-13628388D01*
X14055777Y-13628388D02*
X14046253Y-13647436D01*
X14046253Y-13647436D02*
X14036729Y-13656960D01*
X14036729Y-13656960D02*
X14017682Y-13666484D01*
X14017682Y-13666484D02*
X13998634Y-13666484D01*
X13998634Y-13666484D02*
X13979586Y-13656960D01*
X13979586Y-13656960D02*
X13970063Y-13647436D01*
X13970063Y-13647436D02*
X13960539Y-13628388D01*
X13960539Y-13628388D02*
X13951015Y-13590293D01*
X13951015Y-13590293D02*
X13951015Y-13542674D01*
X13951015Y-13542674D02*
X13960539Y-13504579D01*
X13960539Y-13504579D02*
X13970063Y-13485531D01*
X13970063Y-13485531D02*
X13979586Y-13476008D01*
X13979586Y-13476008D02*
X13998634Y-13466484D01*
X14151015Y-13647436D02*
X14160539Y-13656960D01*
X14160539Y-13656960D02*
X14151015Y-13666484D01*
X14151015Y-13666484D02*
X14141491Y-13656960D01*
X14141491Y-13656960D02*
X14151015Y-13647436D01*
X14151015Y-13647436D02*
X14151015Y-13666484D01*
X14351015Y-13666484D02*
X14236729Y-13666484D01*
X14293872Y-13666484D02*
X14293872Y-13466484D01*
X14293872Y-13466484D02*
X14274825Y-13495055D01*
X14274825Y-13495055D02*
X14255777Y-13514103D01*
X14255777Y-13514103D02*
X14236729Y-13523627D01*
X14531967Y-13466484D02*
X14436729Y-13466484D01*
X14436729Y-13466484D02*
X14427206Y-13561722D01*
X14427206Y-13561722D02*
X14436729Y-13552198D01*
X14436729Y-13552198D02*
X14455777Y-13542674D01*
X14455777Y-13542674D02*
X14503396Y-13542674D01*
X14503396Y-13542674D02*
X14522444Y-13552198D01*
X14522444Y-13552198D02*
X14531967Y-13561722D01*
X14531967Y-13561722D02*
X14541491Y-13580769D01*
X14541491Y-13580769D02*
X14541491Y-13628388D01*
X14541491Y-13628388D02*
X14531967Y-13647436D01*
X14531967Y-13647436D02*
X14522444Y-13656960D01*
X14522444Y-13656960D02*
X14503396Y-13666484D01*
X14503396Y-13666484D02*
X14455777Y-13666484D01*
X14455777Y-13666484D02*
X14436729Y-13656960D01*
X14436729Y-13656960D02*
X14427206Y-13647436D01*
X14608158Y-13466484D02*
X14741491Y-13466484D01*
X14741491Y-13466484D02*
X14655777Y-13666484D01*
X14855777Y-13466484D02*
X14874825Y-13466484D01*
X14874825Y-13466484D02*
X14893872Y-13476008D01*
X14893872Y-13476008D02*
X14903396Y-13485531D01*
X14903396Y-13485531D02*
X14912920Y-13504579D01*
X14912920Y-13504579D02*
X14922444Y-13542674D01*
X14922444Y-13542674D02*
X14922444Y-13590293D01*
X14922444Y-13590293D02*
X14912920Y-13628388D01*
X14912920Y-13628388D02*
X14903396Y-13647436D01*
X14903396Y-13647436D02*
X14893872Y-13656960D01*
X14893872Y-13656960D02*
X14874825Y-13666484D01*
X14874825Y-13666484D02*
X14855777Y-13666484D01*
X14855777Y-13666484D02*
X14836729Y-13656960D01*
X14836729Y-13656960D02*
X14827206Y-13647436D01*
X14827206Y-13647436D02*
X14817682Y-13628388D01*
X14817682Y-13628388D02*
X14808158Y-13590293D01*
X14808158Y-13590293D02*
X14808158Y-13542674D01*
X14808158Y-13542674D02*
X14817682Y-13504579D01*
X14817682Y-13504579D02*
X14827206Y-13485531D01*
X14827206Y-13485531D02*
X14836729Y-13476008D01*
X14836729Y-13476008D02*
X14855777Y-13466484D01*
X14998634Y-13466484D02*
X14998634Y-13504579D01*
X15074825Y-13466484D02*
X15074825Y-13504579D01*
X15370063Y-13742674D02*
X15360539Y-13733150D01*
X15360539Y-13733150D02*
X15341491Y-13704579D01*
X15341491Y-13704579D02*
X15331968Y-13685531D01*
X15331968Y-13685531D02*
X15322444Y-13656960D01*
X15322444Y-13656960D02*
X15312920Y-13609341D01*
X15312920Y-13609341D02*
X15312920Y-13571246D01*
X15312920Y-13571246D02*
X15322444Y-13523627D01*
X15322444Y-13523627D02*
X15331968Y-13495055D01*
X15331968Y-13495055D02*
X15341491Y-13476008D01*
X15341491Y-13476008D02*
X15360539Y-13447436D01*
X15360539Y-13447436D02*
X15370063Y-13437912D01*
X15436729Y-13485531D02*
X15446253Y-13476008D01*
X15446253Y-13476008D02*
X15465301Y-13466484D01*
X15465301Y-13466484D02*
X15512920Y-13466484D01*
X15512920Y-13466484D02*
X15531968Y-13476008D01*
X15531968Y-13476008D02*
X15541491Y-13485531D01*
X15541491Y-13485531D02*
X15551015Y-13504579D01*
X15551015Y-13504579D02*
X15551015Y-13523627D01*
X15551015Y-13523627D02*
X15541491Y-13552198D01*
X15541491Y-13552198D02*
X15427206Y-13666484D01*
X15427206Y-13666484D02*
X15551015Y-13666484D01*
X15789110Y-13666484D02*
X15789110Y-13466484D01*
X15874825Y-13666484D02*
X15874825Y-13561722D01*
X15874825Y-13561722D02*
X15865301Y-13542674D01*
X15865301Y-13542674D02*
X15846253Y-13533150D01*
X15846253Y-13533150D02*
X15817682Y-13533150D01*
X15817682Y-13533150D02*
X15798634Y-13542674D01*
X15798634Y-13542674D02*
X15789110Y-13552198D01*
X15998634Y-13666484D02*
X15979587Y-13656960D01*
X15979587Y-13656960D02*
X15970063Y-13647436D01*
X15970063Y-13647436D02*
X15960539Y-13628388D01*
X15960539Y-13628388D02*
X15960539Y-13571246D01*
X15960539Y-13571246D02*
X15970063Y-13552198D01*
X15970063Y-13552198D02*
X15979587Y-13542674D01*
X15979587Y-13542674D02*
X15998634Y-13533150D01*
X15998634Y-13533150D02*
X16027206Y-13533150D01*
X16027206Y-13533150D02*
X16046253Y-13542674D01*
X16046253Y-13542674D02*
X16055777Y-13552198D01*
X16055777Y-13552198D02*
X16065301Y-13571246D01*
X16065301Y-13571246D02*
X16065301Y-13628388D01*
X16065301Y-13628388D02*
X16055777Y-13647436D01*
X16055777Y-13647436D02*
X16046253Y-13656960D01*
X16046253Y-13656960D02*
X16027206Y-13666484D01*
X16027206Y-13666484D02*
X15998634Y-13666484D01*
X16179587Y-13666484D02*
X16160539Y-13656960D01*
X16160539Y-13656960D02*
X16151015Y-13637912D01*
X16151015Y-13637912D02*
X16151015Y-13466484D01*
X16331968Y-13656960D02*
X16312920Y-13666484D01*
X16312920Y-13666484D02*
X16274825Y-13666484D01*
X16274825Y-13666484D02*
X16255777Y-13656960D01*
X16255777Y-13656960D02*
X16246253Y-13637912D01*
X16246253Y-13637912D02*
X16246253Y-13561722D01*
X16246253Y-13561722D02*
X16255777Y-13542674D01*
X16255777Y-13542674D02*
X16274825Y-13533150D01*
X16274825Y-13533150D02*
X16312920Y-13533150D01*
X16312920Y-13533150D02*
X16331968Y-13542674D01*
X16331968Y-13542674D02*
X16341491Y-13561722D01*
X16341491Y-13561722D02*
X16341491Y-13580769D01*
X16341491Y-13580769D02*
X16246253Y-13599817D01*
X16417682Y-13656960D02*
X16436730Y-13666484D01*
X16436730Y-13666484D02*
X16474825Y-13666484D01*
X16474825Y-13666484D02*
X16493872Y-13656960D01*
X16493872Y-13656960D02*
X16503396Y-13637912D01*
X16503396Y-13637912D02*
X16503396Y-13628388D01*
X16503396Y-13628388D02*
X16493872Y-13609341D01*
X16493872Y-13609341D02*
X16474825Y-13599817D01*
X16474825Y-13599817D02*
X16446253Y-13599817D01*
X16446253Y-13599817D02*
X16427206Y-13590293D01*
X16427206Y-13590293D02*
X16417682Y-13571246D01*
X16417682Y-13571246D02*
X16417682Y-13561722D01*
X16417682Y-13561722D02*
X16427206Y-13542674D01*
X16427206Y-13542674D02*
X16446253Y-13533150D01*
X16446253Y-13533150D02*
X16474825Y-13533150D01*
X16474825Y-13533150D02*
X16493872Y-13542674D01*
X16570063Y-13742674D02*
X16579587Y-13733150D01*
X16579587Y-13733150D02*
X16598634Y-13704579D01*
X16598634Y-13704579D02*
X16608158Y-13685531D01*
X16608158Y-13685531D02*
X16617682Y-13656960D01*
X16617682Y-13656960D02*
X16627206Y-13609341D01*
X16627206Y-13609341D02*
X16627206Y-13571246D01*
X16627206Y-13571246D02*
X16617682Y-13523627D01*
X16617682Y-13523627D02*
X16608158Y-13495055D01*
X16608158Y-13495055D02*
X16598634Y-13476008D01*
X16598634Y-13476008D02*
X16579587Y-13447436D01*
X16579587Y-13447436D02*
X16570063Y-13437912D01*
X16931968Y-13742674D02*
X16922444Y-13733150D01*
X16922444Y-13733150D02*
X16903396Y-13704579D01*
X16903396Y-13704579D02*
X16893873Y-13685531D01*
X16893873Y-13685531D02*
X16884349Y-13656960D01*
X16884349Y-13656960D02*
X16874825Y-13609341D01*
X16874825Y-13609341D02*
X16874825Y-13571246D01*
X16874825Y-13571246D02*
X16884349Y-13523627D01*
X16884349Y-13523627D02*
X16893873Y-13495055D01*
X16893873Y-13495055D02*
X16903396Y-13476008D01*
X16903396Y-13476008D02*
X16922444Y-13447436D01*
X16922444Y-13447436D02*
X16931968Y-13437912D01*
X17008158Y-13533150D02*
X17008158Y-13666484D01*
X17008158Y-13552198D02*
X17017682Y-13542674D01*
X17017682Y-13542674D02*
X17036730Y-13533150D01*
X17036730Y-13533150D02*
X17065301Y-13533150D01*
X17065301Y-13533150D02*
X17084349Y-13542674D01*
X17084349Y-13542674D02*
X17093873Y-13561722D01*
X17093873Y-13561722D02*
X17093873Y-13666484D01*
X17217682Y-13666484D02*
X17198634Y-13656960D01*
X17198634Y-13656960D02*
X17189111Y-13647436D01*
X17189111Y-13647436D02*
X17179587Y-13628388D01*
X17179587Y-13628388D02*
X17179587Y-13571246D01*
X17179587Y-13571246D02*
X17189111Y-13552198D01*
X17189111Y-13552198D02*
X17198634Y-13542674D01*
X17198634Y-13542674D02*
X17217682Y-13533150D01*
X17217682Y-13533150D02*
X17246254Y-13533150D01*
X17246254Y-13533150D02*
X17265301Y-13542674D01*
X17265301Y-13542674D02*
X17274825Y-13552198D01*
X17274825Y-13552198D02*
X17284349Y-13571246D01*
X17284349Y-13571246D02*
X17284349Y-13628388D01*
X17284349Y-13628388D02*
X17274825Y-13647436D01*
X17274825Y-13647436D02*
X17265301Y-13656960D01*
X17265301Y-13656960D02*
X17246254Y-13666484D01*
X17246254Y-13666484D02*
X17217682Y-13666484D01*
X17341492Y-13533150D02*
X17417682Y-13533150D01*
X17370063Y-13466484D02*
X17370063Y-13637912D01*
X17370063Y-13637912D02*
X17379587Y-13656960D01*
X17379587Y-13656960D02*
X17398634Y-13666484D01*
X17398634Y-13666484D02*
X17417682Y-13666484D01*
X17636730Y-13533150D02*
X17636730Y-13733150D01*
X17636730Y-13542674D02*
X17655777Y-13533150D01*
X17655777Y-13533150D02*
X17693873Y-13533150D01*
X17693873Y-13533150D02*
X17712920Y-13542674D01*
X17712920Y-13542674D02*
X17722444Y-13552198D01*
X17722444Y-13552198D02*
X17731968Y-13571246D01*
X17731968Y-13571246D02*
X17731968Y-13628388D01*
X17731968Y-13628388D02*
X17722444Y-13647436D01*
X17722444Y-13647436D02*
X17712920Y-13656960D01*
X17712920Y-13656960D02*
X17693873Y-13666484D01*
X17693873Y-13666484D02*
X17655777Y-13666484D01*
X17655777Y-13666484D02*
X17636730Y-13656960D01*
X17846254Y-13666484D02*
X17827206Y-13656960D01*
X17827206Y-13656960D02*
X17817682Y-13637912D01*
X17817682Y-13637912D02*
X17817682Y-13466484D01*
X18008158Y-13666484D02*
X18008158Y-13561722D01*
X18008158Y-13561722D02*
X17998635Y-13542674D01*
X17998635Y-13542674D02*
X17979587Y-13533150D01*
X17979587Y-13533150D02*
X17941492Y-13533150D01*
X17941492Y-13533150D02*
X17922444Y-13542674D01*
X18008158Y-13656960D02*
X17989111Y-13666484D01*
X17989111Y-13666484D02*
X17941492Y-13666484D01*
X17941492Y-13666484D02*
X17922444Y-13656960D01*
X17922444Y-13656960D02*
X17912920Y-13637912D01*
X17912920Y-13637912D02*
X17912920Y-13618865D01*
X17912920Y-13618865D02*
X17922444Y-13599817D01*
X17922444Y-13599817D02*
X17941492Y-13590293D01*
X17941492Y-13590293D02*
X17989111Y-13590293D01*
X17989111Y-13590293D02*
X18008158Y-13580769D01*
X18074825Y-13533150D02*
X18151015Y-13533150D01*
X18103396Y-13466484D02*
X18103396Y-13637912D01*
X18103396Y-13637912D02*
X18112920Y-13656960D01*
X18112920Y-13656960D02*
X18131968Y-13666484D01*
X18131968Y-13666484D02*
X18151015Y-13666484D01*
X18293873Y-13656960D02*
X18274825Y-13666484D01*
X18274825Y-13666484D02*
X18236730Y-13666484D01*
X18236730Y-13666484D02*
X18217682Y-13656960D01*
X18217682Y-13656960D02*
X18208158Y-13637912D01*
X18208158Y-13637912D02*
X18208158Y-13561722D01*
X18208158Y-13561722D02*
X18217682Y-13542674D01*
X18217682Y-13542674D02*
X18236730Y-13533150D01*
X18236730Y-13533150D02*
X18274825Y-13533150D01*
X18274825Y-13533150D02*
X18293873Y-13542674D01*
X18293873Y-13542674D02*
X18303396Y-13561722D01*
X18303396Y-13561722D02*
X18303396Y-13580769D01*
X18303396Y-13580769D02*
X18208158Y-13599817D01*
X18474825Y-13666484D02*
X18474825Y-13466484D01*
X18474825Y-13656960D02*
X18455777Y-13666484D01*
X18455777Y-13666484D02*
X18417682Y-13666484D01*
X18417682Y-13666484D02*
X18398635Y-13656960D01*
X18398635Y-13656960D02*
X18389111Y-13647436D01*
X18389111Y-13647436D02*
X18379587Y-13628388D01*
X18379587Y-13628388D02*
X18379587Y-13571246D01*
X18379587Y-13571246D02*
X18389111Y-13552198D01*
X18389111Y-13552198D02*
X18398635Y-13542674D01*
X18398635Y-13542674D02*
X18417682Y-13533150D01*
X18417682Y-13533150D02*
X18455777Y-13533150D01*
X18455777Y-13533150D02*
X18474825Y-13542674D01*
X18551016Y-13742674D02*
X18560539Y-13733150D01*
X18560539Y-13733150D02*
X18579587Y-13704579D01*
X18579587Y-13704579D02*
X18589111Y-13685531D01*
X18589111Y-13685531D02*
X18598635Y-13656960D01*
X18598635Y-13656960D02*
X18608158Y-13609341D01*
X18608158Y-13609341D02*
X18608158Y-13571246D01*
X18608158Y-13571246D02*
X18598635Y-13523627D01*
X18598635Y-13523627D02*
X18589111Y-13495055D01*
X18589111Y-13495055D02*
X18579587Y-13476008D01*
X18579587Y-13476008D02*
X18560539Y-13447436D01*
X18560539Y-13447436D02*
X18551016Y-13437912D01*
X11595000Y-13795000D02*
X11795000Y-13995000D01*
X11795000Y-13795000D02*
X11595000Y-13995000D01*
X11795000Y-13895000D02*
G75*
G02*
X11595000Y-13895000I-100000J0D01*
G01*
X11595000Y-13895000D02*
G75*
G02*
X11795000Y-13895000I100000J0D01*
G01*
X12141491Y-13853150D02*
X12141491Y-13986484D01*
X12093872Y-13776960D02*
X12046253Y-13919817D01*
X12046253Y-13919817D02*
X12170062Y-13919817D01*
X12246253Y-13967436D02*
X12255777Y-13976960D01*
X12255777Y-13976960D02*
X12246253Y-13986484D01*
X12246253Y-13986484D02*
X12236729Y-13976960D01*
X12236729Y-13976960D02*
X12246253Y-13967436D01*
X12246253Y-13967436D02*
X12246253Y-13986484D01*
X12379586Y-13786484D02*
X12398634Y-13786484D01*
X12398634Y-13786484D02*
X12417682Y-13796008D01*
X12417682Y-13796008D02*
X12427205Y-13805531D01*
X12427205Y-13805531D02*
X12436729Y-13824579D01*
X12436729Y-13824579D02*
X12446253Y-13862674D01*
X12446253Y-13862674D02*
X12446253Y-13910293D01*
X12446253Y-13910293D02*
X12436729Y-13948388D01*
X12436729Y-13948388D02*
X12427205Y-13967436D01*
X12427205Y-13967436D02*
X12417682Y-13976960D01*
X12417682Y-13976960D02*
X12398634Y-13986484D01*
X12398634Y-13986484D02*
X12379586Y-13986484D01*
X12379586Y-13986484D02*
X12360539Y-13976960D01*
X12360539Y-13976960D02*
X12351015Y-13967436D01*
X12351015Y-13967436D02*
X12341491Y-13948388D01*
X12341491Y-13948388D02*
X12331967Y-13910293D01*
X12331967Y-13910293D02*
X12331967Y-13862674D01*
X12331967Y-13862674D02*
X12341491Y-13824579D01*
X12341491Y-13824579D02*
X12351015Y-13805531D01*
X12351015Y-13805531D02*
X12360539Y-13796008D01*
X12360539Y-13796008D02*
X12379586Y-13786484D01*
X12570062Y-13786484D02*
X12589110Y-13786484D01*
X12589110Y-13786484D02*
X12608158Y-13796008D01*
X12608158Y-13796008D02*
X12617682Y-13805531D01*
X12617682Y-13805531D02*
X12627205Y-13824579D01*
X12627205Y-13824579D02*
X12636729Y-13862674D01*
X12636729Y-13862674D02*
X12636729Y-13910293D01*
X12636729Y-13910293D02*
X12627205Y-13948388D01*
X12627205Y-13948388D02*
X12617682Y-13967436D01*
X12617682Y-13967436D02*
X12608158Y-13976960D01*
X12608158Y-13976960D02*
X12589110Y-13986484D01*
X12589110Y-13986484D02*
X12570062Y-13986484D01*
X12570062Y-13986484D02*
X12551015Y-13976960D01*
X12551015Y-13976960D02*
X12541491Y-13967436D01*
X12541491Y-13967436D02*
X12531967Y-13948388D01*
X12531967Y-13948388D02*
X12522443Y-13910293D01*
X12522443Y-13910293D02*
X12522443Y-13862674D01*
X12522443Y-13862674D02*
X12531967Y-13824579D01*
X12531967Y-13824579D02*
X12541491Y-13805531D01*
X12541491Y-13805531D02*
X12551015Y-13796008D01*
X12551015Y-13796008D02*
X12570062Y-13786484D01*
X12760539Y-13786484D02*
X12779586Y-13786484D01*
X12779586Y-13786484D02*
X12798634Y-13796008D01*
X12798634Y-13796008D02*
X12808158Y-13805531D01*
X12808158Y-13805531D02*
X12817682Y-13824579D01*
X12817682Y-13824579D02*
X12827205Y-13862674D01*
X12827205Y-13862674D02*
X12827205Y-13910293D01*
X12827205Y-13910293D02*
X12817682Y-13948388D01*
X12817682Y-13948388D02*
X12808158Y-13967436D01*
X12808158Y-13967436D02*
X12798634Y-13976960D01*
X12798634Y-13976960D02*
X12779586Y-13986484D01*
X12779586Y-13986484D02*
X12760539Y-13986484D01*
X12760539Y-13986484D02*
X12741491Y-13976960D01*
X12741491Y-13976960D02*
X12731967Y-13967436D01*
X12731967Y-13967436D02*
X12722443Y-13948388D01*
X12722443Y-13948388D02*
X12712920Y-13910293D01*
X12712920Y-13910293D02*
X12712920Y-13862674D01*
X12712920Y-13862674D02*
X12722443Y-13824579D01*
X12722443Y-13824579D02*
X12731967Y-13805531D01*
X12731967Y-13805531D02*
X12741491Y-13796008D01*
X12741491Y-13796008D02*
X12760539Y-13786484D01*
X12912920Y-13986484D02*
X12912920Y-13853150D01*
X12912920Y-13872198D02*
X12922443Y-13862674D01*
X12922443Y-13862674D02*
X12941491Y-13853150D01*
X12941491Y-13853150D02*
X12970063Y-13853150D01*
X12970063Y-13853150D02*
X12989110Y-13862674D01*
X12989110Y-13862674D02*
X12998634Y-13881722D01*
X12998634Y-13881722D02*
X12998634Y-13986484D01*
X12998634Y-13881722D02*
X13008158Y-13862674D01*
X13008158Y-13862674D02*
X13027205Y-13853150D01*
X13027205Y-13853150D02*
X13055777Y-13853150D01*
X13055777Y-13853150D02*
X13074824Y-13862674D01*
X13074824Y-13862674D02*
X13084348Y-13881722D01*
X13084348Y-13881722D02*
X13084348Y-13986484D01*
X13179586Y-13986484D02*
X13179586Y-13853150D01*
X13179586Y-13872198D02*
X13189110Y-13862674D01*
X13189110Y-13862674D02*
X13208158Y-13853150D01*
X13208158Y-13853150D02*
X13236729Y-13853150D01*
X13236729Y-13853150D02*
X13255777Y-13862674D01*
X13255777Y-13862674D02*
X13265301Y-13881722D01*
X13265301Y-13881722D02*
X13265301Y-13986484D01*
X13265301Y-13881722D02*
X13274824Y-13862674D01*
X13274824Y-13862674D02*
X13293872Y-13853150D01*
X13293872Y-13853150D02*
X13322443Y-13853150D01*
X13322443Y-13853150D02*
X13341491Y-13862674D01*
X13341491Y-13862674D02*
X13351015Y-13881722D01*
X13351015Y-13881722D02*
X13351015Y-13986484D01*
X13741491Y-13776960D02*
X13570063Y-14034103D01*
X13998634Y-13786484D02*
X14017682Y-13786484D01*
X14017682Y-13786484D02*
X14036729Y-13796008D01*
X14036729Y-13796008D02*
X14046253Y-13805531D01*
X14046253Y-13805531D02*
X14055777Y-13824579D01*
X14055777Y-13824579D02*
X14065301Y-13862674D01*
X14065301Y-13862674D02*
X14065301Y-13910293D01*
X14065301Y-13910293D02*
X14055777Y-13948388D01*
X14055777Y-13948388D02*
X14046253Y-13967436D01*
X14046253Y-13967436D02*
X14036729Y-13976960D01*
X14036729Y-13976960D02*
X14017682Y-13986484D01*
X14017682Y-13986484D02*
X13998634Y-13986484D01*
X13998634Y-13986484D02*
X13979586Y-13976960D01*
X13979586Y-13976960D02*
X13970063Y-13967436D01*
X13970063Y-13967436D02*
X13960539Y-13948388D01*
X13960539Y-13948388D02*
X13951015Y-13910293D01*
X13951015Y-13910293D02*
X13951015Y-13862674D01*
X13951015Y-13862674D02*
X13960539Y-13824579D01*
X13960539Y-13824579D02*
X13970063Y-13805531D01*
X13970063Y-13805531D02*
X13979586Y-13796008D01*
X13979586Y-13796008D02*
X13998634Y-13786484D01*
X14151015Y-13967436D02*
X14160539Y-13976960D01*
X14160539Y-13976960D02*
X14151015Y-13986484D01*
X14151015Y-13986484D02*
X14141491Y-13976960D01*
X14141491Y-13976960D02*
X14151015Y-13967436D01*
X14151015Y-13967436D02*
X14151015Y-13986484D01*
X14351015Y-13986484D02*
X14236729Y-13986484D01*
X14293872Y-13986484D02*
X14293872Y-13786484D01*
X14293872Y-13786484D02*
X14274825Y-13815055D01*
X14274825Y-13815055D02*
X14255777Y-13834103D01*
X14255777Y-13834103D02*
X14236729Y-13843627D01*
X14531967Y-13786484D02*
X14436729Y-13786484D01*
X14436729Y-13786484D02*
X14427206Y-13881722D01*
X14427206Y-13881722D02*
X14436729Y-13872198D01*
X14436729Y-13872198D02*
X14455777Y-13862674D01*
X14455777Y-13862674D02*
X14503396Y-13862674D01*
X14503396Y-13862674D02*
X14522444Y-13872198D01*
X14522444Y-13872198D02*
X14531967Y-13881722D01*
X14531967Y-13881722D02*
X14541491Y-13900769D01*
X14541491Y-13900769D02*
X14541491Y-13948388D01*
X14541491Y-13948388D02*
X14531967Y-13967436D01*
X14531967Y-13967436D02*
X14522444Y-13976960D01*
X14522444Y-13976960D02*
X14503396Y-13986484D01*
X14503396Y-13986484D02*
X14455777Y-13986484D01*
X14455777Y-13986484D02*
X14436729Y-13976960D01*
X14436729Y-13976960D02*
X14427206Y-13967436D01*
X14608158Y-13786484D02*
X14741491Y-13786484D01*
X14741491Y-13786484D02*
X14655777Y-13986484D01*
X14912920Y-13786484D02*
X14817682Y-13786484D01*
X14817682Y-13786484D02*
X14808158Y-13881722D01*
X14808158Y-13881722D02*
X14817682Y-13872198D01*
X14817682Y-13872198D02*
X14836729Y-13862674D01*
X14836729Y-13862674D02*
X14884348Y-13862674D01*
X14884348Y-13862674D02*
X14903396Y-13872198D01*
X14903396Y-13872198D02*
X14912920Y-13881722D01*
X14912920Y-13881722D02*
X14922444Y-13900769D01*
X14922444Y-13900769D02*
X14922444Y-13948388D01*
X14922444Y-13948388D02*
X14912920Y-13967436D01*
X14912920Y-13967436D02*
X14903396Y-13976960D01*
X14903396Y-13976960D02*
X14884348Y-13986484D01*
X14884348Y-13986484D02*
X14836729Y-13986484D01*
X14836729Y-13986484D02*
X14817682Y-13976960D01*
X14817682Y-13976960D02*
X14808158Y-13967436D01*
X14998634Y-13786484D02*
X14998634Y-13824579D01*
X15074825Y-13786484D02*
X15074825Y-13824579D01*
X15370063Y-14062674D02*
X15360539Y-14053150D01*
X15360539Y-14053150D02*
X15341491Y-14024579D01*
X15341491Y-14024579D02*
X15331968Y-14005531D01*
X15331968Y-14005531D02*
X15322444Y-13976960D01*
X15322444Y-13976960D02*
X15312920Y-13929341D01*
X15312920Y-13929341D02*
X15312920Y-13891246D01*
X15312920Y-13891246D02*
X15322444Y-13843627D01*
X15322444Y-13843627D02*
X15331968Y-13815055D01*
X15331968Y-13815055D02*
X15341491Y-13796008D01*
X15341491Y-13796008D02*
X15360539Y-13767436D01*
X15360539Y-13767436D02*
X15370063Y-13757912D01*
X15436729Y-13805531D02*
X15446253Y-13796008D01*
X15446253Y-13796008D02*
X15465301Y-13786484D01*
X15465301Y-13786484D02*
X15512920Y-13786484D01*
X15512920Y-13786484D02*
X15531968Y-13796008D01*
X15531968Y-13796008D02*
X15541491Y-13805531D01*
X15541491Y-13805531D02*
X15551015Y-13824579D01*
X15551015Y-13824579D02*
X15551015Y-13843627D01*
X15551015Y-13843627D02*
X15541491Y-13872198D01*
X15541491Y-13872198D02*
X15427206Y-13986484D01*
X15427206Y-13986484D02*
X15551015Y-13986484D01*
X15789110Y-13986484D02*
X15789110Y-13786484D01*
X15874825Y-13986484D02*
X15874825Y-13881722D01*
X15874825Y-13881722D02*
X15865301Y-13862674D01*
X15865301Y-13862674D02*
X15846253Y-13853150D01*
X15846253Y-13853150D02*
X15817682Y-13853150D01*
X15817682Y-13853150D02*
X15798634Y-13862674D01*
X15798634Y-13862674D02*
X15789110Y-13872198D01*
X15998634Y-13986484D02*
X15979587Y-13976960D01*
X15979587Y-13976960D02*
X15970063Y-13967436D01*
X15970063Y-13967436D02*
X15960539Y-13948388D01*
X15960539Y-13948388D02*
X15960539Y-13891246D01*
X15960539Y-13891246D02*
X15970063Y-13872198D01*
X15970063Y-13872198D02*
X15979587Y-13862674D01*
X15979587Y-13862674D02*
X15998634Y-13853150D01*
X15998634Y-13853150D02*
X16027206Y-13853150D01*
X16027206Y-13853150D02*
X16046253Y-13862674D01*
X16046253Y-13862674D02*
X16055777Y-13872198D01*
X16055777Y-13872198D02*
X16065301Y-13891246D01*
X16065301Y-13891246D02*
X16065301Y-13948388D01*
X16065301Y-13948388D02*
X16055777Y-13967436D01*
X16055777Y-13967436D02*
X16046253Y-13976960D01*
X16046253Y-13976960D02*
X16027206Y-13986484D01*
X16027206Y-13986484D02*
X15998634Y-13986484D01*
X16179587Y-13986484D02*
X16160539Y-13976960D01*
X16160539Y-13976960D02*
X16151015Y-13957912D01*
X16151015Y-13957912D02*
X16151015Y-13786484D01*
X16331968Y-13976960D02*
X16312920Y-13986484D01*
X16312920Y-13986484D02*
X16274825Y-13986484D01*
X16274825Y-13986484D02*
X16255777Y-13976960D01*
X16255777Y-13976960D02*
X16246253Y-13957912D01*
X16246253Y-13957912D02*
X16246253Y-13881722D01*
X16246253Y-13881722D02*
X16255777Y-13862674D01*
X16255777Y-13862674D02*
X16274825Y-13853150D01*
X16274825Y-13853150D02*
X16312920Y-13853150D01*
X16312920Y-13853150D02*
X16331968Y-13862674D01*
X16331968Y-13862674D02*
X16341491Y-13881722D01*
X16341491Y-13881722D02*
X16341491Y-13900769D01*
X16341491Y-13900769D02*
X16246253Y-13919817D01*
X16417682Y-13976960D02*
X16436730Y-13986484D01*
X16436730Y-13986484D02*
X16474825Y-13986484D01*
X16474825Y-13986484D02*
X16493872Y-13976960D01*
X16493872Y-13976960D02*
X16503396Y-13957912D01*
X16503396Y-13957912D02*
X16503396Y-13948388D01*
X16503396Y-13948388D02*
X16493872Y-13929341D01*
X16493872Y-13929341D02*
X16474825Y-13919817D01*
X16474825Y-13919817D02*
X16446253Y-13919817D01*
X16446253Y-13919817D02*
X16427206Y-13910293D01*
X16427206Y-13910293D02*
X16417682Y-13891246D01*
X16417682Y-13891246D02*
X16417682Y-13881722D01*
X16417682Y-13881722D02*
X16427206Y-13862674D01*
X16427206Y-13862674D02*
X16446253Y-13853150D01*
X16446253Y-13853150D02*
X16474825Y-13853150D01*
X16474825Y-13853150D02*
X16493872Y-13862674D01*
X16570063Y-14062674D02*
X16579587Y-14053150D01*
X16579587Y-14053150D02*
X16598634Y-14024579D01*
X16598634Y-14024579D02*
X16608158Y-14005531D01*
X16608158Y-14005531D02*
X16617682Y-13976960D01*
X16617682Y-13976960D02*
X16627206Y-13929341D01*
X16627206Y-13929341D02*
X16627206Y-13891246D01*
X16627206Y-13891246D02*
X16617682Y-13843627D01*
X16617682Y-13843627D02*
X16608158Y-13815055D01*
X16608158Y-13815055D02*
X16598634Y-13796008D01*
X16598634Y-13796008D02*
X16579587Y-13767436D01*
X16579587Y-13767436D02*
X16570063Y-13757912D01*
X16931968Y-14062674D02*
X16922444Y-14053150D01*
X16922444Y-14053150D02*
X16903396Y-14024579D01*
X16903396Y-14024579D02*
X16893873Y-14005531D01*
X16893873Y-14005531D02*
X16884349Y-13976960D01*
X16884349Y-13976960D02*
X16874825Y-13929341D01*
X16874825Y-13929341D02*
X16874825Y-13891246D01*
X16874825Y-13891246D02*
X16884349Y-13843627D01*
X16884349Y-13843627D02*
X16893873Y-13815055D01*
X16893873Y-13815055D02*
X16903396Y-13796008D01*
X16903396Y-13796008D02*
X16922444Y-13767436D01*
X16922444Y-13767436D02*
X16931968Y-13757912D01*
X17008158Y-13853150D02*
X17008158Y-13986484D01*
X17008158Y-13872198D02*
X17017682Y-13862674D01*
X17017682Y-13862674D02*
X17036730Y-13853150D01*
X17036730Y-13853150D02*
X17065301Y-13853150D01*
X17065301Y-13853150D02*
X17084349Y-13862674D01*
X17084349Y-13862674D02*
X17093873Y-13881722D01*
X17093873Y-13881722D02*
X17093873Y-13986484D01*
X17217682Y-13986484D02*
X17198634Y-13976960D01*
X17198634Y-13976960D02*
X17189111Y-13967436D01*
X17189111Y-13967436D02*
X17179587Y-13948388D01*
X17179587Y-13948388D02*
X17179587Y-13891246D01*
X17179587Y-13891246D02*
X17189111Y-13872198D01*
X17189111Y-13872198D02*
X17198634Y-13862674D01*
X17198634Y-13862674D02*
X17217682Y-13853150D01*
X17217682Y-13853150D02*
X17246254Y-13853150D01*
X17246254Y-13853150D02*
X17265301Y-13862674D01*
X17265301Y-13862674D02*
X17274825Y-13872198D01*
X17274825Y-13872198D02*
X17284349Y-13891246D01*
X17284349Y-13891246D02*
X17284349Y-13948388D01*
X17284349Y-13948388D02*
X17274825Y-13967436D01*
X17274825Y-13967436D02*
X17265301Y-13976960D01*
X17265301Y-13976960D02*
X17246254Y-13986484D01*
X17246254Y-13986484D02*
X17217682Y-13986484D01*
X17341492Y-13853150D02*
X17417682Y-13853150D01*
X17370063Y-13786484D02*
X17370063Y-13957912D01*
X17370063Y-13957912D02*
X17379587Y-13976960D01*
X17379587Y-13976960D02*
X17398634Y-13986484D01*
X17398634Y-13986484D02*
X17417682Y-13986484D01*
X17636730Y-13853150D02*
X17636730Y-14053150D01*
X17636730Y-13862674D02*
X17655777Y-13853150D01*
X17655777Y-13853150D02*
X17693873Y-13853150D01*
X17693873Y-13853150D02*
X17712920Y-13862674D01*
X17712920Y-13862674D02*
X17722444Y-13872198D01*
X17722444Y-13872198D02*
X17731968Y-13891246D01*
X17731968Y-13891246D02*
X17731968Y-13948388D01*
X17731968Y-13948388D02*
X17722444Y-13967436D01*
X17722444Y-13967436D02*
X17712920Y-13976960D01*
X17712920Y-13976960D02*
X17693873Y-13986484D01*
X17693873Y-13986484D02*
X17655777Y-13986484D01*
X17655777Y-13986484D02*
X17636730Y-13976960D01*
X17846254Y-13986484D02*
X17827206Y-13976960D01*
X17827206Y-13976960D02*
X17817682Y-13957912D01*
X17817682Y-13957912D02*
X17817682Y-13786484D01*
X18008158Y-13986484D02*
X18008158Y-13881722D01*
X18008158Y-13881722D02*
X17998635Y-13862674D01*
X17998635Y-13862674D02*
X17979587Y-13853150D01*
X17979587Y-13853150D02*
X17941492Y-13853150D01*
X17941492Y-13853150D02*
X17922444Y-13862674D01*
X18008158Y-13976960D02*
X17989111Y-13986484D01*
X17989111Y-13986484D02*
X17941492Y-13986484D01*
X17941492Y-13986484D02*
X17922444Y-13976960D01*
X17922444Y-13976960D02*
X17912920Y-13957912D01*
X17912920Y-13957912D02*
X17912920Y-13938865D01*
X17912920Y-13938865D02*
X17922444Y-13919817D01*
X17922444Y-13919817D02*
X17941492Y-13910293D01*
X17941492Y-13910293D02*
X17989111Y-13910293D01*
X17989111Y-13910293D02*
X18008158Y-13900769D01*
X18074825Y-13853150D02*
X18151015Y-13853150D01*
X18103396Y-13786484D02*
X18103396Y-13957912D01*
X18103396Y-13957912D02*
X18112920Y-13976960D01*
X18112920Y-13976960D02*
X18131968Y-13986484D01*
X18131968Y-13986484D02*
X18151015Y-13986484D01*
X18293873Y-13976960D02*
X18274825Y-13986484D01*
X18274825Y-13986484D02*
X18236730Y-13986484D01*
X18236730Y-13986484D02*
X18217682Y-13976960D01*
X18217682Y-13976960D02*
X18208158Y-13957912D01*
X18208158Y-13957912D02*
X18208158Y-13881722D01*
X18208158Y-13881722D02*
X18217682Y-13862674D01*
X18217682Y-13862674D02*
X18236730Y-13853150D01*
X18236730Y-13853150D02*
X18274825Y-13853150D01*
X18274825Y-13853150D02*
X18293873Y-13862674D01*
X18293873Y-13862674D02*
X18303396Y-13881722D01*
X18303396Y-13881722D02*
X18303396Y-13900769D01*
X18303396Y-13900769D02*
X18208158Y-13919817D01*
X18474825Y-13986484D02*
X18474825Y-13786484D01*
X18474825Y-13976960D02*
X18455777Y-13986484D01*
X18455777Y-13986484D02*
X18417682Y-13986484D01*
X18417682Y-13986484D02*
X18398635Y-13976960D01*
X18398635Y-13976960D02*
X18389111Y-13967436D01*
X18389111Y-13967436D02*
X18379587Y-13948388D01*
X18379587Y-13948388D02*
X18379587Y-13891246D01*
X18379587Y-13891246D02*
X18389111Y-13872198D01*
X18389111Y-13872198D02*
X18398635Y-13862674D01*
X18398635Y-13862674D02*
X18417682Y-13853150D01*
X18417682Y-13853150D02*
X18455777Y-13853150D01*
X18455777Y-13853150D02*
X18474825Y-13862674D01*
X18551016Y-14062674D02*
X18560539Y-14053150D01*
X18560539Y-14053150D02*
X18579587Y-14024579D01*
X18579587Y-14024579D02*
X18589111Y-14005531D01*
X18589111Y-14005531D02*
X18598635Y-13976960D01*
X18598635Y-13976960D02*
X18608158Y-13929341D01*
X18608158Y-13929341D02*
X18608158Y-13891246D01*
X18608158Y-13891246D02*
X18598635Y-13843627D01*
X18598635Y-13843627D02*
X18589111Y-13815055D01*
X18589111Y-13815055D02*
X18579587Y-13796008D01*
X18579587Y-13796008D02*
X18560539Y-13767436D01*
X18560539Y-13767436D02*
X18551016Y-13757912D01*
M02*
