%TF.GenerationSoftware,KiCad,Pcbnew,8.0.4*%
%TF.CreationDate,2024-07-29T14:44:43-07:00*%
%TF.ProjectId,3board_c,33626f61-7264-45f6-932e-6b696361645f,rev?*%
%TF.SameCoordinates,Original*%
%TF.FileFunction,Drillmap*%
%TF.FilePolarity,Positive*%
%FSLAX45Y45*%
G04 Gerber Fmt 4.5, Leading zero omitted, Abs format (unit mm)*
G04 Created by KiCad (PCBNEW 8.0.4) date 2024-07-29 14:44:43*
%MOMM*%
%LPD*%
G01*
G04 APERTURE LIST*
%ADD10C,0.100000*%
%ADD11C,0.200000*%
G04 APERTURE END LIST*
D10*
X15786000Y-2000000D02*
X15786000Y-9600000D01*
X11800000Y-9600000D02*
X13715000Y-9600000D01*
X17900000Y-9600000D02*
X17900000Y-11675000D01*
X15786000Y-9600000D02*
X17900000Y-9600000D01*
X13715000Y-9600000D02*
X13715000Y-2000000D01*
X11800000Y-11675000D02*
X11800000Y-9600000D01*
X13715000Y-2000000D02*
X15786000Y-2000000D01*
X17900000Y-11675000D02*
X11800000Y-11675000D01*
D11*
D10*
X13930000Y-2430000D02*
X13970000Y-2470000D01*
X13970000Y-2430000D02*
X13930000Y-2470000D01*
X14080000Y-9680000D02*
X14120000Y-9720000D01*
X14120000Y-9680000D02*
X14080000Y-9720000D01*
X14580000Y-6380000D02*
X14620000Y-6420000D01*
X14620000Y-6380000D02*
X14580000Y-6420000D01*
D11*
X12055777Y-11991484D02*
X12055777Y-11791484D01*
X12055777Y-11791484D02*
X12103396Y-11791484D01*
X12103396Y-11791484D02*
X12131967Y-11801008D01*
X12131967Y-11801008D02*
X12151015Y-11820055D01*
X12151015Y-11820055D02*
X12160539Y-11839103D01*
X12160539Y-11839103D02*
X12170062Y-11877198D01*
X12170062Y-11877198D02*
X12170062Y-11905769D01*
X12170062Y-11905769D02*
X12160539Y-11943865D01*
X12160539Y-11943865D02*
X12151015Y-11962912D01*
X12151015Y-11962912D02*
X12131967Y-11981960D01*
X12131967Y-11981960D02*
X12103396Y-11991484D01*
X12103396Y-11991484D02*
X12055777Y-11991484D01*
X12255777Y-11991484D02*
X12255777Y-11858150D01*
X12255777Y-11896246D02*
X12265301Y-11877198D01*
X12265301Y-11877198D02*
X12274824Y-11867674D01*
X12274824Y-11867674D02*
X12293872Y-11858150D01*
X12293872Y-11858150D02*
X12312920Y-11858150D01*
X12379586Y-11991484D02*
X12379586Y-11858150D01*
X12379586Y-11791484D02*
X12370062Y-11801008D01*
X12370062Y-11801008D02*
X12379586Y-11810531D01*
X12379586Y-11810531D02*
X12389110Y-11801008D01*
X12389110Y-11801008D02*
X12379586Y-11791484D01*
X12379586Y-11791484D02*
X12379586Y-11810531D01*
X12503396Y-11991484D02*
X12484348Y-11981960D01*
X12484348Y-11981960D02*
X12474824Y-11962912D01*
X12474824Y-11962912D02*
X12474824Y-11791484D01*
X12608158Y-11991484D02*
X12589110Y-11981960D01*
X12589110Y-11981960D02*
X12579586Y-11962912D01*
X12579586Y-11962912D02*
X12579586Y-11791484D01*
X12836729Y-11991484D02*
X12836729Y-11791484D01*
X12836729Y-11791484D02*
X12903396Y-11934341D01*
X12903396Y-11934341D02*
X12970062Y-11791484D01*
X12970062Y-11791484D02*
X12970062Y-11991484D01*
X13151015Y-11991484D02*
X13151015Y-11886722D01*
X13151015Y-11886722D02*
X13141491Y-11867674D01*
X13141491Y-11867674D02*
X13122443Y-11858150D01*
X13122443Y-11858150D02*
X13084348Y-11858150D01*
X13084348Y-11858150D02*
X13065301Y-11867674D01*
X13151015Y-11981960D02*
X13131967Y-11991484D01*
X13131967Y-11991484D02*
X13084348Y-11991484D01*
X13084348Y-11991484D02*
X13065301Y-11981960D01*
X13065301Y-11981960D02*
X13055777Y-11962912D01*
X13055777Y-11962912D02*
X13055777Y-11943865D01*
X13055777Y-11943865D02*
X13065301Y-11924817D01*
X13065301Y-11924817D02*
X13084348Y-11915293D01*
X13084348Y-11915293D02*
X13131967Y-11915293D01*
X13131967Y-11915293D02*
X13151015Y-11905769D01*
X13246253Y-11858150D02*
X13246253Y-12058150D01*
X13246253Y-11867674D02*
X13265301Y-11858150D01*
X13265301Y-11858150D02*
X13303396Y-11858150D01*
X13303396Y-11858150D02*
X13322443Y-11867674D01*
X13322443Y-11867674D02*
X13331967Y-11877198D01*
X13331967Y-11877198D02*
X13341491Y-11896246D01*
X13341491Y-11896246D02*
X13341491Y-11953388D01*
X13341491Y-11953388D02*
X13331967Y-11972436D01*
X13331967Y-11972436D02*
X13322443Y-11981960D01*
X13322443Y-11981960D02*
X13303396Y-11991484D01*
X13303396Y-11991484D02*
X13265301Y-11991484D01*
X13265301Y-11991484D02*
X13246253Y-11981960D01*
X13427205Y-11972436D02*
X13436729Y-11981960D01*
X13436729Y-11981960D02*
X13427205Y-11991484D01*
X13427205Y-11991484D02*
X13417682Y-11981960D01*
X13417682Y-11981960D02*
X13427205Y-11972436D01*
X13427205Y-11972436D02*
X13427205Y-11991484D01*
X13427205Y-11867674D02*
X13436729Y-11877198D01*
X13436729Y-11877198D02*
X13427205Y-11886722D01*
X13427205Y-11886722D02*
X13417682Y-11877198D01*
X13417682Y-11877198D02*
X13427205Y-11867674D01*
X13427205Y-11867674D02*
X13427205Y-11886722D01*
D10*
X11755000Y-12300000D02*
X11795000Y-12340000D01*
X11795000Y-12300000D02*
X11755000Y-12340000D01*
D11*
X12093872Y-12211484D02*
X12112920Y-12211484D01*
X12112920Y-12211484D02*
X12131967Y-12221008D01*
X12131967Y-12221008D02*
X12141491Y-12230531D01*
X12141491Y-12230531D02*
X12151015Y-12249579D01*
X12151015Y-12249579D02*
X12160539Y-12287674D01*
X12160539Y-12287674D02*
X12160539Y-12335293D01*
X12160539Y-12335293D02*
X12151015Y-12373388D01*
X12151015Y-12373388D02*
X12141491Y-12392436D01*
X12141491Y-12392436D02*
X12131967Y-12401960D01*
X12131967Y-12401960D02*
X12112920Y-12411484D01*
X12112920Y-12411484D02*
X12093872Y-12411484D01*
X12093872Y-12411484D02*
X12074824Y-12401960D01*
X12074824Y-12401960D02*
X12065301Y-12392436D01*
X12065301Y-12392436D02*
X12055777Y-12373388D01*
X12055777Y-12373388D02*
X12046253Y-12335293D01*
X12046253Y-12335293D02*
X12046253Y-12287674D01*
X12046253Y-12287674D02*
X12055777Y-12249579D01*
X12055777Y-12249579D02*
X12065301Y-12230531D01*
X12065301Y-12230531D02*
X12074824Y-12221008D01*
X12074824Y-12221008D02*
X12093872Y-12211484D01*
X12246253Y-12392436D02*
X12255777Y-12401960D01*
X12255777Y-12401960D02*
X12246253Y-12411484D01*
X12246253Y-12411484D02*
X12236729Y-12401960D01*
X12236729Y-12401960D02*
X12246253Y-12392436D01*
X12246253Y-12392436D02*
X12246253Y-12411484D01*
X12427205Y-12278150D02*
X12427205Y-12411484D01*
X12379586Y-12201960D02*
X12331967Y-12344817D01*
X12331967Y-12344817D02*
X12455777Y-12344817D01*
X12570062Y-12211484D02*
X12589110Y-12211484D01*
X12589110Y-12211484D02*
X12608158Y-12221008D01*
X12608158Y-12221008D02*
X12617682Y-12230531D01*
X12617682Y-12230531D02*
X12627205Y-12249579D01*
X12627205Y-12249579D02*
X12636729Y-12287674D01*
X12636729Y-12287674D02*
X12636729Y-12335293D01*
X12636729Y-12335293D02*
X12627205Y-12373388D01*
X12627205Y-12373388D02*
X12617682Y-12392436D01*
X12617682Y-12392436D02*
X12608158Y-12401960D01*
X12608158Y-12401960D02*
X12589110Y-12411484D01*
X12589110Y-12411484D02*
X12570062Y-12411484D01*
X12570062Y-12411484D02*
X12551015Y-12401960D01*
X12551015Y-12401960D02*
X12541491Y-12392436D01*
X12541491Y-12392436D02*
X12531967Y-12373388D01*
X12531967Y-12373388D02*
X12522443Y-12335293D01*
X12522443Y-12335293D02*
X12522443Y-12287674D01*
X12522443Y-12287674D02*
X12531967Y-12249579D01*
X12531967Y-12249579D02*
X12541491Y-12230531D01*
X12541491Y-12230531D02*
X12551015Y-12221008D01*
X12551015Y-12221008D02*
X12570062Y-12211484D01*
X12760539Y-12211484D02*
X12779586Y-12211484D01*
X12779586Y-12211484D02*
X12798634Y-12221008D01*
X12798634Y-12221008D02*
X12808158Y-12230531D01*
X12808158Y-12230531D02*
X12817682Y-12249579D01*
X12817682Y-12249579D02*
X12827205Y-12287674D01*
X12827205Y-12287674D02*
X12827205Y-12335293D01*
X12827205Y-12335293D02*
X12817682Y-12373388D01*
X12817682Y-12373388D02*
X12808158Y-12392436D01*
X12808158Y-12392436D02*
X12798634Y-12401960D01*
X12798634Y-12401960D02*
X12779586Y-12411484D01*
X12779586Y-12411484D02*
X12760539Y-12411484D01*
X12760539Y-12411484D02*
X12741491Y-12401960D01*
X12741491Y-12401960D02*
X12731967Y-12392436D01*
X12731967Y-12392436D02*
X12722443Y-12373388D01*
X12722443Y-12373388D02*
X12712920Y-12335293D01*
X12712920Y-12335293D02*
X12712920Y-12287674D01*
X12712920Y-12287674D02*
X12722443Y-12249579D01*
X12722443Y-12249579D02*
X12731967Y-12230531D01*
X12731967Y-12230531D02*
X12741491Y-12221008D01*
X12741491Y-12221008D02*
X12760539Y-12211484D01*
X12912920Y-12411484D02*
X12912920Y-12278150D01*
X12912920Y-12297198D02*
X12922443Y-12287674D01*
X12922443Y-12287674D02*
X12941491Y-12278150D01*
X12941491Y-12278150D02*
X12970063Y-12278150D01*
X12970063Y-12278150D02*
X12989110Y-12287674D01*
X12989110Y-12287674D02*
X12998634Y-12306722D01*
X12998634Y-12306722D02*
X12998634Y-12411484D01*
X12998634Y-12306722D02*
X13008158Y-12287674D01*
X13008158Y-12287674D02*
X13027205Y-12278150D01*
X13027205Y-12278150D02*
X13055777Y-12278150D01*
X13055777Y-12278150D02*
X13074824Y-12287674D01*
X13074824Y-12287674D02*
X13084348Y-12306722D01*
X13084348Y-12306722D02*
X13084348Y-12411484D01*
X13179586Y-12411484D02*
X13179586Y-12278150D01*
X13179586Y-12297198D02*
X13189110Y-12287674D01*
X13189110Y-12287674D02*
X13208158Y-12278150D01*
X13208158Y-12278150D02*
X13236729Y-12278150D01*
X13236729Y-12278150D02*
X13255777Y-12287674D01*
X13255777Y-12287674D02*
X13265301Y-12306722D01*
X13265301Y-12306722D02*
X13265301Y-12411484D01*
X13265301Y-12306722D02*
X13274824Y-12287674D01*
X13274824Y-12287674D02*
X13293872Y-12278150D01*
X13293872Y-12278150D02*
X13322443Y-12278150D01*
X13322443Y-12278150D02*
X13341491Y-12287674D01*
X13341491Y-12287674D02*
X13351015Y-12306722D01*
X13351015Y-12306722D02*
X13351015Y-12411484D01*
X13741491Y-12201960D02*
X13570063Y-12459103D01*
X13998634Y-12211484D02*
X14017682Y-12211484D01*
X14017682Y-12211484D02*
X14036729Y-12221008D01*
X14036729Y-12221008D02*
X14046253Y-12230531D01*
X14046253Y-12230531D02*
X14055777Y-12249579D01*
X14055777Y-12249579D02*
X14065301Y-12287674D01*
X14065301Y-12287674D02*
X14065301Y-12335293D01*
X14065301Y-12335293D02*
X14055777Y-12373388D01*
X14055777Y-12373388D02*
X14046253Y-12392436D01*
X14046253Y-12392436D02*
X14036729Y-12401960D01*
X14036729Y-12401960D02*
X14017682Y-12411484D01*
X14017682Y-12411484D02*
X13998634Y-12411484D01*
X13998634Y-12411484D02*
X13979586Y-12401960D01*
X13979586Y-12401960D02*
X13970063Y-12392436D01*
X13970063Y-12392436D02*
X13960539Y-12373388D01*
X13960539Y-12373388D02*
X13951015Y-12335293D01*
X13951015Y-12335293D02*
X13951015Y-12287674D01*
X13951015Y-12287674D02*
X13960539Y-12249579D01*
X13960539Y-12249579D02*
X13970063Y-12230531D01*
X13970063Y-12230531D02*
X13979586Y-12221008D01*
X13979586Y-12221008D02*
X13998634Y-12211484D01*
X14151015Y-12392436D02*
X14160539Y-12401960D01*
X14160539Y-12401960D02*
X14151015Y-12411484D01*
X14151015Y-12411484D02*
X14141491Y-12401960D01*
X14141491Y-12401960D02*
X14151015Y-12392436D01*
X14151015Y-12392436D02*
X14151015Y-12411484D01*
X14284348Y-12211484D02*
X14303396Y-12211484D01*
X14303396Y-12211484D02*
X14322444Y-12221008D01*
X14322444Y-12221008D02*
X14331967Y-12230531D01*
X14331967Y-12230531D02*
X14341491Y-12249579D01*
X14341491Y-12249579D02*
X14351015Y-12287674D01*
X14351015Y-12287674D02*
X14351015Y-12335293D01*
X14351015Y-12335293D02*
X14341491Y-12373388D01*
X14341491Y-12373388D02*
X14331967Y-12392436D01*
X14331967Y-12392436D02*
X14322444Y-12401960D01*
X14322444Y-12401960D02*
X14303396Y-12411484D01*
X14303396Y-12411484D02*
X14284348Y-12411484D01*
X14284348Y-12411484D02*
X14265301Y-12401960D01*
X14265301Y-12401960D02*
X14255777Y-12392436D01*
X14255777Y-12392436D02*
X14246253Y-12373388D01*
X14246253Y-12373388D02*
X14236729Y-12335293D01*
X14236729Y-12335293D02*
X14236729Y-12287674D01*
X14236729Y-12287674D02*
X14246253Y-12249579D01*
X14246253Y-12249579D02*
X14255777Y-12230531D01*
X14255777Y-12230531D02*
X14265301Y-12221008D01*
X14265301Y-12221008D02*
X14284348Y-12211484D01*
X14541491Y-12411484D02*
X14427206Y-12411484D01*
X14484348Y-12411484D02*
X14484348Y-12211484D01*
X14484348Y-12211484D02*
X14465301Y-12240055D01*
X14465301Y-12240055D02*
X14446253Y-12259103D01*
X14446253Y-12259103D02*
X14427206Y-12268627D01*
X14722444Y-12211484D02*
X14627206Y-12211484D01*
X14627206Y-12211484D02*
X14617682Y-12306722D01*
X14617682Y-12306722D02*
X14627206Y-12297198D01*
X14627206Y-12297198D02*
X14646253Y-12287674D01*
X14646253Y-12287674D02*
X14693872Y-12287674D01*
X14693872Y-12287674D02*
X14712920Y-12297198D01*
X14712920Y-12297198D02*
X14722444Y-12306722D01*
X14722444Y-12306722D02*
X14731967Y-12325769D01*
X14731967Y-12325769D02*
X14731967Y-12373388D01*
X14731967Y-12373388D02*
X14722444Y-12392436D01*
X14722444Y-12392436D02*
X14712920Y-12401960D01*
X14712920Y-12401960D02*
X14693872Y-12411484D01*
X14693872Y-12411484D02*
X14646253Y-12411484D01*
X14646253Y-12411484D02*
X14627206Y-12401960D01*
X14627206Y-12401960D02*
X14617682Y-12392436D01*
X14798634Y-12211484D02*
X14931967Y-12211484D01*
X14931967Y-12211484D02*
X14846253Y-12411484D01*
X14998634Y-12211484D02*
X14998634Y-12249579D01*
X15074825Y-12211484D02*
X15074825Y-12249579D01*
X15370063Y-12487674D02*
X15360539Y-12478150D01*
X15360539Y-12478150D02*
X15341491Y-12449579D01*
X15341491Y-12449579D02*
X15331968Y-12430531D01*
X15331968Y-12430531D02*
X15322444Y-12401960D01*
X15322444Y-12401960D02*
X15312920Y-12354341D01*
X15312920Y-12354341D02*
X15312920Y-12316246D01*
X15312920Y-12316246D02*
X15322444Y-12268627D01*
X15322444Y-12268627D02*
X15331968Y-12240055D01*
X15331968Y-12240055D02*
X15341491Y-12221008D01*
X15341491Y-12221008D02*
X15360539Y-12192436D01*
X15360539Y-12192436D02*
X15370063Y-12182912D01*
X15427206Y-12211484D02*
X15551015Y-12211484D01*
X15551015Y-12211484D02*
X15484348Y-12287674D01*
X15484348Y-12287674D02*
X15512920Y-12287674D01*
X15512920Y-12287674D02*
X15531968Y-12297198D01*
X15531968Y-12297198D02*
X15541491Y-12306722D01*
X15541491Y-12306722D02*
X15551015Y-12325769D01*
X15551015Y-12325769D02*
X15551015Y-12373388D01*
X15551015Y-12373388D02*
X15541491Y-12392436D01*
X15541491Y-12392436D02*
X15531968Y-12401960D01*
X15531968Y-12401960D02*
X15512920Y-12411484D01*
X15512920Y-12411484D02*
X15455777Y-12411484D01*
X15455777Y-12411484D02*
X15436729Y-12401960D01*
X15436729Y-12401960D02*
X15427206Y-12392436D01*
X15789110Y-12411484D02*
X15789110Y-12211484D01*
X15874825Y-12411484D02*
X15874825Y-12306722D01*
X15874825Y-12306722D02*
X15865301Y-12287674D01*
X15865301Y-12287674D02*
X15846253Y-12278150D01*
X15846253Y-12278150D02*
X15817682Y-12278150D01*
X15817682Y-12278150D02*
X15798634Y-12287674D01*
X15798634Y-12287674D02*
X15789110Y-12297198D01*
X15998634Y-12411484D02*
X15979587Y-12401960D01*
X15979587Y-12401960D02*
X15970063Y-12392436D01*
X15970063Y-12392436D02*
X15960539Y-12373388D01*
X15960539Y-12373388D02*
X15960539Y-12316246D01*
X15960539Y-12316246D02*
X15970063Y-12297198D01*
X15970063Y-12297198D02*
X15979587Y-12287674D01*
X15979587Y-12287674D02*
X15998634Y-12278150D01*
X15998634Y-12278150D02*
X16027206Y-12278150D01*
X16027206Y-12278150D02*
X16046253Y-12287674D01*
X16046253Y-12287674D02*
X16055777Y-12297198D01*
X16055777Y-12297198D02*
X16065301Y-12316246D01*
X16065301Y-12316246D02*
X16065301Y-12373388D01*
X16065301Y-12373388D02*
X16055777Y-12392436D01*
X16055777Y-12392436D02*
X16046253Y-12401960D01*
X16046253Y-12401960D02*
X16027206Y-12411484D01*
X16027206Y-12411484D02*
X15998634Y-12411484D01*
X16179587Y-12411484D02*
X16160539Y-12401960D01*
X16160539Y-12401960D02*
X16151015Y-12382912D01*
X16151015Y-12382912D02*
X16151015Y-12211484D01*
X16331968Y-12401960D02*
X16312920Y-12411484D01*
X16312920Y-12411484D02*
X16274825Y-12411484D01*
X16274825Y-12411484D02*
X16255777Y-12401960D01*
X16255777Y-12401960D02*
X16246253Y-12382912D01*
X16246253Y-12382912D02*
X16246253Y-12306722D01*
X16246253Y-12306722D02*
X16255777Y-12287674D01*
X16255777Y-12287674D02*
X16274825Y-12278150D01*
X16274825Y-12278150D02*
X16312920Y-12278150D01*
X16312920Y-12278150D02*
X16331968Y-12287674D01*
X16331968Y-12287674D02*
X16341491Y-12306722D01*
X16341491Y-12306722D02*
X16341491Y-12325769D01*
X16341491Y-12325769D02*
X16246253Y-12344817D01*
X16417682Y-12401960D02*
X16436730Y-12411484D01*
X16436730Y-12411484D02*
X16474825Y-12411484D01*
X16474825Y-12411484D02*
X16493872Y-12401960D01*
X16493872Y-12401960D02*
X16503396Y-12382912D01*
X16503396Y-12382912D02*
X16503396Y-12373388D01*
X16503396Y-12373388D02*
X16493872Y-12354341D01*
X16493872Y-12354341D02*
X16474825Y-12344817D01*
X16474825Y-12344817D02*
X16446253Y-12344817D01*
X16446253Y-12344817D02*
X16427206Y-12335293D01*
X16427206Y-12335293D02*
X16417682Y-12316246D01*
X16417682Y-12316246D02*
X16417682Y-12306722D01*
X16417682Y-12306722D02*
X16427206Y-12287674D01*
X16427206Y-12287674D02*
X16446253Y-12278150D01*
X16446253Y-12278150D02*
X16474825Y-12278150D01*
X16474825Y-12278150D02*
X16493872Y-12287674D01*
X16570063Y-12487674D02*
X16579587Y-12478150D01*
X16579587Y-12478150D02*
X16598634Y-12449579D01*
X16598634Y-12449579D02*
X16608158Y-12430531D01*
X16608158Y-12430531D02*
X16617682Y-12401960D01*
X16617682Y-12401960D02*
X16627206Y-12354341D01*
X16627206Y-12354341D02*
X16627206Y-12316246D01*
X16627206Y-12316246D02*
X16617682Y-12268627D01*
X16617682Y-12268627D02*
X16608158Y-12240055D01*
X16608158Y-12240055D02*
X16598634Y-12221008D01*
X16598634Y-12221008D02*
X16579587Y-12192436D01*
X16579587Y-12192436D02*
X16570063Y-12182912D01*
M02*
