M48
; DRILL file {KiCad 8.0.4} date 2024-07-30T01:54:59-0700
; FORMAT={-:-/ absolute / inch / decimal}
; #@! TF.CreationDate,2024-07-30T01:54:59-07:00
; #@! TF.GenerationSoftware,Kicad,Pcbnew,8.0.4
; #@! TF.FileFunction,NonPlated,1,2,NPTH
FMAT,2
INCH
; #@! TA.AperFunction,NonPlated,NPTH,ComponentDrill
T1C0.0236
; #@! TA.AperFunction,NonPlated,NPTH,ComponentDrill
T2C0.0689
; #@! TA.AperFunction,NonPlated,NPTH,ComponentDrill
T3C0.1201
; #@! TA.AperFunction,NonPlated,NPTH,ComponentDrill
T4C0.1260
; #@! TA.AperFunction,NonPlated,NPTH,ComponentDrill
T5C0.1575
%
G90
G05
T1
X2.8933Y-1.0156
X3.1209Y-1.0156
T2
X2.1622Y-2.8343
X2.5622Y-2.8343
X3.4465Y-2.4717
X3.8161Y-2.6247
X4.1394Y-2.7587
X4.4264Y-2.0658
X4.509Y-2.9117
X4.7721Y-3.1912
X4.796Y-2.2188
X5.1416Y-3.3443
T3
X2.2122Y-2.7343
X2.4622Y-2.6343
X3.531Y-2.3984
X3.8002Y-2.4017
X4.2239Y-2.6854
X4.4931Y-2.6887
X4.5109Y-1.9925
X4.7801Y-1.9958
X4.8565Y-3.1179
X5.1258Y-3.1212
T4
X1.9291Y-1.1614
X1.9685Y-3.5433
X3.0709Y-2.5197
X4.7441Y-1.378
X5.0394Y-4.498
T5
X2.3622Y-2.8343
X3.6313Y-2.5482
X4.3242Y-2.8352
X4.6112Y-2.1423
X4.9568Y-3.2677
M30
