%TF.GenerationSoftware,KiCad,Pcbnew,8.0.4*%
%TF.CreationDate,2024-07-30T01:54:57-07:00*%
%TF.ProjectId,3board_a,33626f61-7264-45f6-912e-6b696361645f,rev?*%
%TF.SameCoordinates,Original*%
%TF.FileFunction,Paste,Top*%
%TF.FilePolarity,Positive*%
%FSLAX46Y46*%
G04 Gerber Fmt 4.6, Leading zero omitted, Abs format (unit mm)*
G04 Created by KiCad (PCBNEW 8.0.4) date 2024-07-30 01:54:57*
%MOMM*%
%LPD*%
G01*
G04 APERTURE LIST*
G04 Aperture macros list*
%AMRoundRect*
0 Rectangle with rounded corners*
0 $1 Rounding radius*
0 $2 $3 $4 $5 $6 $7 $8 $9 X,Y pos of 4 corners*
0 Add a 4 corners polygon primitive as box body*
4,1,4,$2,$3,$4,$5,$6,$7,$8,$9,$2,$3,0*
0 Add four circle primitives for the rounded corners*
1,1,$1+$1,$2,$3*
1,1,$1+$1,$4,$5*
1,1,$1+$1,$6,$7*
1,1,$1+$1,$8,$9*
0 Add four rect primitives between the rounded corners*
20,1,$1+$1,$2,$3,$4,$5,0*
20,1,$1+$1,$4,$5,$6,$7,0*
20,1,$1+$1,$6,$7,$8,$9,0*
20,1,$1+$1,$8,$9,$2,$3,0*%
G04 Aperture macros list end*
%ADD10RoundRect,0.140000X0.170000X-0.140000X0.170000X0.140000X-0.170000X0.140000X-0.170000X-0.140000X0*%
%ADD11RoundRect,0.135000X0.135000X0.185000X-0.135000X0.185000X-0.135000X-0.185000X0.135000X-0.185000X0*%
%ADD12RoundRect,0.140000X-0.170000X0.140000X-0.170000X-0.140000X0.170000X-0.140000X0.170000X0.140000X0*%
%ADD13RoundRect,0.140000X0.140000X0.170000X-0.140000X0.170000X-0.140000X-0.170000X0.140000X-0.170000X0*%
%ADD14RoundRect,0.135000X-0.135000X-0.185000X0.135000X-0.185000X0.135000X0.185000X-0.135000X0.185000X0*%
%ADD15RoundRect,0.243750X0.456250X-0.243750X0.456250X0.243750X-0.456250X0.243750X-0.456250X-0.243750X0*%
%ADD16RoundRect,0.160000X-0.160000X0.197500X-0.160000X-0.197500X0.160000X-0.197500X0.160000X0.197500X0*%
%ADD17RoundRect,0.140000X-0.140000X-0.170000X0.140000X-0.170000X0.140000X0.170000X-0.140000X0.170000X0*%
%ADD18RoundRect,0.150000X0.150000X0.420000X-0.150000X0.420000X-0.150000X-0.420000X0.150000X-0.420000X0*%
%ADD19RoundRect,0.075000X0.075000X0.495000X-0.075000X0.495000X-0.075000X-0.495000X0.075000X-0.495000X0*%
%ADD20O,1.000000X2.000000*%
%ADD21O,1.000000X1.700000*%
%ADD22RoundRect,0.150000X0.650000X0.150000X-0.650000X0.150000X-0.650000X-0.150000X0.650000X-0.150000X0*%
%ADD23RoundRect,0.200000X-0.200000X-0.275000X0.200000X-0.275000X0.200000X0.275000X-0.200000X0.275000X0*%
%ADD24R,1.200000X1.400000*%
%ADD25R,1.000000X0.750000*%
%ADD26RoundRect,0.500000X0.500000X1.400000X-0.500000X1.400000X-0.500000X-1.400000X0.500000X-1.400000X0*%
%ADD27RoundRect,0.375000X0.625000X0.375000X-0.625000X0.375000X-0.625000X-0.375000X0.625000X-0.375000X0*%
%ADD28RoundRect,0.249999X0.395001X-0.395001X0.395001X0.395001X-0.395001X0.395001X-0.395001X-0.395001X0*%
%ADD29RoundRect,0.050000X0.050000X-0.387500X0.050000X0.387500X-0.050000X0.387500X-0.050000X-0.387500X0*%
%ADD30RoundRect,0.050000X0.387500X-0.050000X0.387500X0.050000X-0.387500X0.050000X-0.387500X-0.050000X0*%
%ADD31RoundRect,0.135000X-0.185000X0.135000X-0.185000X-0.135000X0.185000X-0.135000X0.185000X0.135000X0*%
G04 APERTURE END LIST*
D10*
%TO.C,C11*%
X81700000Y-31380000D03*
X81700000Y-30420000D03*
%TD*%
D11*
%TO.C,R9*%
X102510000Y-38000000D03*
X101490000Y-38000000D03*
%TD*%
D12*
%TO.C,C3*%
X98852000Y-36728000D03*
X98852000Y-37688000D03*
%TD*%
D13*
%TO.C,C7*%
X79360000Y-31930000D03*
X78400000Y-31930000D03*
%TD*%
%TO.C,C6*%
X79360000Y-32930000D03*
X78400000Y-32930000D03*
%TD*%
D14*
%TO.C,R1*%
X70490000Y-29347000D03*
X71510000Y-29347000D03*
%TD*%
D15*
%TO.C,D2*%
X105010000Y-34350000D03*
X105010000Y-32475000D03*
%TD*%
D11*
%TO.C,R4*%
X92590000Y-37856000D03*
X91570000Y-37856000D03*
%TD*%
D10*
%TO.C,C2*%
X72000000Y-35980000D03*
X72000000Y-35020000D03*
%TD*%
D16*
%TO.C,R6*%
X67571000Y-43735500D03*
X67571000Y-44930500D03*
%TD*%
D14*
%TO.C,R5*%
X63251000Y-42936000D03*
X64271000Y-42936000D03*
%TD*%
D17*
%TO.C,C14*%
X90840000Y-36840000D03*
X91800000Y-36840000D03*
%TD*%
D18*
%TO.C,J1*%
X79580000Y-26865000D03*
X78780000Y-26865000D03*
D19*
X77630000Y-26865000D03*
X76630000Y-26865000D03*
X76130000Y-26865000D03*
X75130000Y-26865000D03*
D18*
X73980000Y-26865000D03*
X73180000Y-26865000D03*
X73180000Y-26865000D03*
X73980000Y-26865000D03*
D19*
X74630000Y-26865000D03*
X75630000Y-26865000D03*
X77130000Y-26865000D03*
X78130000Y-26865000D03*
D18*
X78780000Y-26865000D03*
X79580000Y-26865000D03*
D20*
X80700000Y-26295000D03*
D21*
X80700000Y-22100000D03*
D20*
X72060000Y-26295000D03*
D21*
X72060000Y-22100000D03*
%TD*%
D22*
%TO.C,U3*%
X78410000Y-45349000D03*
X78410000Y-44079000D03*
X78410000Y-42809000D03*
X78410000Y-41539000D03*
X71210000Y-41539000D03*
X71210000Y-42809000D03*
X71210000Y-44079000D03*
X71210000Y-45349000D03*
%TD*%
D17*
%TO.C,C8*%
X90840000Y-35430000D03*
X91800000Y-35430000D03*
%TD*%
D23*
%TO.C,R7*%
X77425000Y-34250000D03*
X79075000Y-34250000D03*
%TD*%
D15*
%TO.C,D1*%
X102420000Y-34350000D03*
X102420000Y-32475000D03*
%TD*%
D24*
%TO.C,Y1*%
X96996000Y-37630000D03*
X96996000Y-35430000D03*
X95296000Y-35430000D03*
X95296000Y-37630000D03*
%TD*%
D23*
%TO.C,R8*%
X76250000Y-35800000D03*
X77900000Y-35800000D03*
%TD*%
D17*
%TO.C,C13*%
X85900000Y-42930000D03*
X86860000Y-42930000D03*
%TD*%
%TO.C,C1*%
X68520000Y-31000000D03*
X69480000Y-31000000D03*
%TD*%
D25*
%TO.C,SW1*%
X51905000Y-40055000D03*
X57905000Y-40055000D03*
X51905000Y-43805000D03*
X57905000Y-43805000D03*
%TD*%
D15*
%TO.C,D3*%
X107600000Y-34350000D03*
X107600000Y-32475000D03*
%TD*%
D14*
%TO.C,R3*%
X78620000Y-29680000D03*
X79640000Y-29680000D03*
%TD*%
D26*
%TO.C,U2*%
X62672000Y-35678000D03*
D27*
X68972000Y-37978000D03*
X68972000Y-35678000D03*
X68972000Y-33378000D03*
%TD*%
D28*
%TO.C,U1*%
X83878000Y-37678000D03*
X85478000Y-37678000D03*
X83878000Y-36078000D03*
X85478000Y-36078000D03*
D29*
X82078000Y-40315500D03*
X82478000Y-40315500D03*
X82878000Y-40315500D03*
X83278000Y-40315500D03*
X83678000Y-40315500D03*
X84078000Y-40315500D03*
X84478000Y-40315500D03*
X84878000Y-40315500D03*
X85278000Y-40315500D03*
X85678000Y-40315500D03*
X86078000Y-40315500D03*
X86478000Y-40315500D03*
X86878000Y-40315500D03*
X87278000Y-40315500D03*
D30*
X88115500Y-39478000D03*
X88115500Y-39078000D03*
X88115500Y-38678000D03*
X88115500Y-38278000D03*
X88115500Y-37878000D03*
X88115500Y-37478000D03*
X88115500Y-37078000D03*
X88115500Y-36678000D03*
X88115500Y-36278000D03*
X88115500Y-35878000D03*
X88115500Y-35478000D03*
X88115500Y-35078000D03*
X88115500Y-34678000D03*
X88115500Y-34278000D03*
D29*
X87278000Y-33440500D03*
X86878000Y-33440500D03*
X86478000Y-33440500D03*
X86078000Y-33440500D03*
X85678000Y-33440500D03*
X85278000Y-33440500D03*
X84878000Y-33440500D03*
X84478000Y-33440500D03*
X84078000Y-33440500D03*
X83678000Y-33440500D03*
X83278000Y-33440500D03*
X82878000Y-33440500D03*
X82478000Y-33440500D03*
X82078000Y-33440500D03*
D30*
X81240500Y-34278000D03*
X81240500Y-34678000D03*
X81240500Y-35078000D03*
X81240500Y-35478000D03*
X81240500Y-35878000D03*
X81240500Y-36278000D03*
X81240500Y-36678000D03*
X81240500Y-37078000D03*
X81240500Y-37478000D03*
X81240500Y-37878000D03*
X81240500Y-38278000D03*
X81240500Y-38678000D03*
X81240500Y-39078000D03*
X81240500Y-39478000D03*
%TD*%
D17*
%TO.C,C5*%
X71536000Y-47254000D03*
X72496000Y-47254000D03*
%TD*%
%TO.C,C15*%
X86520000Y-30000000D03*
X87480000Y-30000000D03*
%TD*%
D13*
%TO.C,C10*%
X77730000Y-37500000D03*
X76770000Y-37500000D03*
%TD*%
%TO.C,C9*%
X77480000Y-38500000D03*
X76520000Y-38500000D03*
%TD*%
D15*
%TO.C,D4*%
X110190000Y-34350000D03*
X110190000Y-32475000D03*
%TD*%
D31*
%TO.C,R2*%
X73822000Y-31668000D03*
X73822000Y-32688000D03*
%TD*%
D13*
%TO.C,C4*%
X96360000Y-33680000D03*
X95400000Y-33680000D03*
%TD*%
D12*
%TO.C,C12*%
X81630000Y-43200000D03*
X81630000Y-44160000D03*
%TD*%
M02*
