M48
; DRILL file {KiCad 8.0.4} date 2024-07-30T01:54:59-0700
; FORMAT={-:-/ absolute / inch / decimal}
; #@! TF.CreationDate,2024-07-30T01:54:59-07:00
; #@! TF.GenerationSoftware,Kicad,Pcbnew,8.0.4
; #@! TF.FileFunction,Plated,1,2,PTH
FMAT,2
INCH
; #@! TA.AperFunction,Plated,PTH,ComponentDrill
T1C0.0138
; #@! TA.AperFunction,Plated,PTH,ViaDrill
T2C0.0157
; #@! TA.AperFunction,Plated,PTH,ComponentDrill
T3C0.0197
; #@! TA.AperFunction,Plated,PTH,ComponentDrill
T4C0.0236
; #@! TA.AperFunction,Plated,PTH,ComponentDrill
T5C0.0276
%
G90
G05
T1
X3.2953Y-1.4104
X3.2953Y-1.4504
X3.2953Y-1.4904
X3.3353Y-1.4104
X3.3353Y-1.4504
X3.3353Y-1.4904
X3.3753Y-1.4104
X3.3753Y-1.4504
X3.3753Y-1.4904
T2
X2.1606Y-1.572
X2.1654Y-2.5197
X2.6181Y-1.4764
X2.7153Y-1.5654
X2.7903Y-1.2304
X2.8299Y-1.3358
X3.0228Y-1.6379
X3.1055Y-1.2177
X3.1744Y-1.2374
X3.2138Y-1.6508
X3.2153Y-1.7804
X3.3465Y-2.2835
X3.3858Y-1.2374
X3.4205Y-1.7295
X3.4843Y-1.1417
X3.5189Y-1.7098
X3.5303Y-1.5104
X3.6173Y-1.3555
X3.6764Y-1.3457
X3.8903Y-1.3854
X4.0945Y-2.5394
X4.2913Y-1.9094
X4.7047Y-2.9724
X5.374Y-3.6614
T3
X2.5984Y-1.2106
X2.9094Y-1.5157
T5
X3.7157Y-1.2374
X3.7945Y-1.2374
X3.8732Y-1.2374
T4
G00X2.837Y-0.8858
M15
G01X2.837Y-0.8543
M16
G05
G00X2.837Y-1.0569
M15
G01X2.837Y-1.0136
M16
G05
G00X3.1772Y-0.8858
M15
G01X3.1772Y-0.8543
M16
G05
G00X3.1772Y-1.0569
M15
G01X3.1772Y-1.0136
M16
G05
M30
