%TF.GenerationSoftware,KiCad,Pcbnew,8.0.4*%
%TF.CreationDate,2024-07-23T17:45:02-07:00*%
%TF.ProjectId,2board_a,32626f61-7264-45f6-912e-6b696361645f,rev?*%
%TF.SameCoordinates,Original*%
%TF.FileFunction,Copper,L2,Bot*%
%TF.FilePolarity,Positive*%
%FSLAX46Y46*%
G04 Gerber Fmt 4.6, Leading zero omitted, Abs format (unit mm)*
G04 Created by KiCad (PCBNEW 8.0.4) date 2024-07-23 17:45:02*
%MOMM*%
%LPD*%
G01*
G04 APERTURE LIST*
%TA.AperFunction,ComponentPad*%
%ADD10C,0.600000*%
%TD*%
%TA.AperFunction,ComponentPad*%
%ADD11C,2.500000*%
%TD*%
%TA.AperFunction,ComponentPad*%
%ADD12O,1.000000X2.000000*%
%TD*%
%TA.AperFunction,ComponentPad*%
%ADD13O,1.000000X1.800000*%
%TD*%
%TA.AperFunction,ComponentPad*%
%ADD14O,1.000000X1.700000*%
%TD*%
%TA.AperFunction,ComponentPad*%
%ADD15C,1.400000*%
%TD*%
%TA.AperFunction,ViaPad*%
%ADD16C,0.800000*%
%TD*%
%TA.AperFunction,Conductor*%
%ADD17C,0.800000*%
%TD*%
G04 APERTURE END LIST*
D10*
%TO.P,,57,GND*%
%TO.N,GND*%
X140700000Y-36840000D03*
%TD*%
%TO.P,,57,GND*%
%TO.N,GND*%
X141716000Y-37856000D03*
%TD*%
%TO.P,,57,GND*%
%TO.N,GND*%
X140700000Y-35824000D03*
%TD*%
%TO.P,,57,GND*%
%TO.N,GND*%
X142732000Y-36840000D03*
%TD*%
D11*
%TO.P,SW8_DP1,1,1*%
%TO.N,L2*%
X113190000Y-69451696D03*
%TO.P,SW8_DP1,2,2*%
%TO.N,GND*%
X119540000Y-66911696D03*
%TD*%
D10*
%TO.P,,57,GND*%
%TO.N,GND*%
X142732000Y-35824000D03*
%TD*%
D11*
%TO.P,SW20_RIGHT1,1,1*%
%TO.N,RIGHT*%
X180355978Y-79195322D03*
%TO.P,SW20_RIGHT1,2,2*%
%TO.N,GND*%
X187194629Y-79278708D03*
%TD*%
%TO.P,SW19_LEFT1,1,1*%
%TO.N,LEFT*%
X146686902Y-60919565D03*
%TO.P,SW19_LEFT1,2,2*%
%TO.N,GND*%
X153525553Y-61002951D03*
%TD*%
D12*
%TO.P,J1,S1,SHIELD*%
%TO.N,Net-(J1-SHIELD)*%
X137700000Y-26745000D03*
D13*
X137700000Y-22605000D03*
D12*
X129060000Y-26745000D03*
D14*
X129060000Y-22605000D03*
%TD*%
D10*
%TO.P,,57,GND*%
%TO.N,GND*%
X142732000Y-37856000D03*
%TD*%
%TO.P,,57,GND*%
%TO.N,GND*%
X141716000Y-35824000D03*
%TD*%
%TO.P,,57,GND*%
%TO.N,GND*%
X141716000Y-36840000D03*
%TD*%
D11*
%TO.P,SW18_DOWN1,1,1*%
%TO.N,DOWN*%
X164286807Y-68209684D03*
%TO.P,SW18_DOWN1,2,2*%
%TO.N,GND*%
X171125458Y-68293070D03*
%TD*%
D15*
%TO.P,J2,1,Pin_1*%
%TO.N,/Main/SWCLK*%
X155380000Y-31430000D03*
%TO.P,J2,2,Pin_2*%
%TO.N,GND*%
X153380000Y-31430000D03*
%TO.P,J2,3,Pin_3*%
%TO.N,/Main/SWDIO*%
X151380000Y-31430000D03*
%TD*%
D11*
%TO.P,SW17_W1,1,1*%
%TO.N,W*%
X171576926Y-50609779D03*
%TO.P,SW17_W1,2,2*%
%TO.N,GND*%
X178415577Y-50693165D03*
%TD*%
D10*
%TO.P,,57,GND*%
%TO.N,GND*%
X140700000Y-37856000D03*
%TD*%
D16*
%TO.N,GND*%
X148880000Y-34430000D03*
X155813000Y-35189000D03*
X141630000Y-28930000D03*
X135880000Y-30930000D03*
X193000000Y-30000000D03*
X111880000Y-39930000D03*
X119745000Y-29220000D03*
X133778500Y-41602500D03*
X125968000Y-39761000D03*
X128880000Y-33930000D03*
X127873000Y-31252000D03*
X146380000Y-43430000D03*
X138668000Y-45222000D03*
X146669000Y-38364000D03*
%TO.N,+3.3V*%
X143880000Y-43930000D03*
X150380000Y-34180000D03*
X119672000Y-40015000D03*
X137630000Y-31430000D03*
X141480000Y-31430000D03*
X138630000Y-41930000D03*
%TD*%
D17*
%TO.N,GND*%
X119540000Y-63210000D02*
X119750000Y-63000000D01*
X153525553Y-61002951D02*
X153525553Y-54224447D01*
X119540000Y-66911696D02*
X119540000Y-63210000D01*
X193000000Y-30000000D02*
X170000000Y-30000000D01*
X153525553Y-54224447D02*
X153750000Y-54000000D01*
X178415577Y-50693165D02*
X174522412Y-46800000D01*
X187194629Y-79278708D02*
X176208991Y-68293070D01*
X171125458Y-68293070D02*
X171125458Y-65875458D01*
X171125458Y-65875458D02*
X159250000Y-54000000D01*
X174522412Y-46800000D02*
X165200000Y-46800000D01*
X176208991Y-68293070D02*
X171125458Y-68293070D01*
%TO.N,+3.3V*%
X119672000Y-40704000D02*
X127746000Y-48778000D01*
X150380000Y-34180000D02*
X150380000Y-37430000D01*
X140630000Y-43930000D02*
X138630000Y-41930000D01*
X143880000Y-43930000D02*
X140630000Y-43930000D01*
X119672000Y-40015000D02*
X119672000Y-40704000D01*
X127746000Y-48778000D02*
X137906000Y-48778000D01*
X141980000Y-31930000D02*
X148130000Y-31930000D01*
X137906000Y-48778000D02*
X140630000Y-46054000D01*
X141480000Y-31430000D02*
X141980000Y-31930000D01*
X150380000Y-37430000D02*
X143880000Y-43930000D01*
X141480000Y-31430000D02*
X137630000Y-31430000D01*
X148130000Y-31930000D02*
X150380000Y-34180000D01*
X140630000Y-46054000D02*
X140630000Y-43930000D01*
%TD*%
%TA.AperFunction,Conductor*%
%TO.N,GND*%
G36*
X138943039Y-20019685D02*
G01*
X138988794Y-20072489D01*
X139000000Y-20124000D01*
X139000000Y-25000000D01*
X172830420Y-25000000D01*
X172897459Y-25019685D01*
X172943214Y-25072489D01*
X172953158Y-25141647D01*
X172948583Y-25161594D01*
X165147750Y-49678499D01*
X162527492Y-57913597D01*
X162488407Y-57971512D01*
X162424216Y-57999103D01*
X162409329Y-58000000D01*
X143000000Y-58000000D01*
X139036811Y-63944783D01*
X138983246Y-63989644D01*
X138933637Y-64000000D01*
X136904288Y-64000000D01*
X136837249Y-63980315D01*
X136791494Y-63927511D01*
X136781351Y-63887281D01*
X136781030Y-63887324D01*
X136780667Y-63884569D01*
X136780554Y-63884120D01*
X136780500Y-63883299D01*
X136763973Y-63757763D01*
X136750035Y-63651896D01*
X136689626Y-63426449D01*
X136600308Y-63210815D01*
X136600306Y-63210812D01*
X136600304Y-63210807D01*
X136483612Y-63008692D01*
X136483608Y-63008685D01*
X136341523Y-62823516D01*
X136341518Y-62823510D01*
X136176489Y-62658481D01*
X136176482Y-62658475D01*
X135991323Y-62516398D01*
X135991321Y-62516396D01*
X135991315Y-62516392D01*
X135991310Y-62516389D01*
X135991307Y-62516387D01*
X135789192Y-62399695D01*
X135789181Y-62399690D01*
X135573555Y-62310375D01*
X135348100Y-62249964D01*
X135116709Y-62219501D01*
X135116706Y-62219500D01*
X135116700Y-62219500D01*
X134883300Y-62219500D01*
X134883294Y-62219500D01*
X134883290Y-62219501D01*
X134651899Y-62249964D01*
X134426444Y-62310375D01*
X134210818Y-62399690D01*
X134210807Y-62399695D01*
X134008692Y-62516387D01*
X134008676Y-62516398D01*
X133823517Y-62658475D01*
X133823510Y-62658481D01*
X133658481Y-62823510D01*
X133658475Y-62823517D01*
X133516398Y-63008676D01*
X133516387Y-63008692D01*
X133399695Y-63210807D01*
X133399690Y-63210818D01*
X133310375Y-63426444D01*
X133249964Y-63651899D01*
X133219499Y-63883299D01*
X133219446Y-63884120D01*
X133219361Y-63884350D01*
X133218970Y-63887324D01*
X133218304Y-63887236D01*
X133195414Y-63949727D01*
X133139727Y-63991925D01*
X133095712Y-64000000D01*
X101124000Y-64000000D01*
X101056961Y-63980315D01*
X101011206Y-63927511D01*
X101000000Y-63876000D01*
X101000000Y-40014999D01*
X118766540Y-40014999D01*
X118770821Y-40055731D01*
X118771500Y-40068692D01*
X118771500Y-40792696D01*
X118806103Y-40966658D01*
X118806105Y-40966666D01*
X118832132Y-41029500D01*
X118873987Y-41130548D01*
X118873989Y-41130551D01*
X118884208Y-41145844D01*
X118884210Y-41145847D01*
X118884212Y-41145849D01*
X118940795Y-41230532D01*
X118972537Y-41278038D01*
X118972538Y-41278039D01*
X127046536Y-49352035D01*
X127110299Y-49415798D01*
X127171966Y-49477465D01*
X127319446Y-49576009D01*
X127319459Y-49576016D01*
X127427874Y-49620922D01*
X127483334Y-49643894D01*
X127525935Y-49652368D01*
X127657305Y-49678500D01*
X127657308Y-49678500D01*
X137994693Y-49678500D01*
X137994694Y-49678499D01*
X138168666Y-49643895D01*
X138250606Y-49609953D01*
X138332547Y-49576013D01*
X138332549Y-49576011D01*
X138332552Y-49576010D01*
X138420955Y-49516939D01*
X138420955Y-49516938D01*
X138420959Y-49516936D01*
X138480036Y-49477464D01*
X141329464Y-46628035D01*
X141428013Y-46480547D01*
X141447895Y-46432547D01*
X141495895Y-46316666D01*
X141530500Y-46142692D01*
X141530500Y-45965308D01*
X141530500Y-44954500D01*
X141550185Y-44887461D01*
X141602989Y-44841706D01*
X141654500Y-44830500D01*
X143974645Y-44830500D01*
X143974646Y-44830500D01*
X144060699Y-44812208D01*
X144062134Y-44811912D01*
X144142666Y-44795895D01*
X144142671Y-44795893D01*
X144148495Y-44794127D01*
X144148628Y-44794568D01*
X144159319Y-44791247D01*
X144159509Y-44791206D01*
X144159803Y-44791144D01*
X144234057Y-44758082D01*
X144236955Y-44756837D01*
X144306547Y-44728013D01*
X144307633Y-44727287D01*
X144326095Y-44717104D01*
X144332730Y-44714151D01*
X144393039Y-44670333D01*
X144396966Y-44667595D01*
X144454036Y-44629464D01*
X144459735Y-44623763D01*
X144474533Y-44611124D01*
X144485871Y-44602888D01*
X144531265Y-44552471D01*
X144535697Y-44547801D01*
X151079464Y-38004036D01*
X151118936Y-37944959D01*
X151178013Y-37856547D01*
X151211953Y-37774606D01*
X151245895Y-37692666D01*
X151280500Y-37518692D01*
X151280500Y-37341308D01*
X151280500Y-34233692D01*
X151281179Y-34220731D01*
X151285460Y-34180000D01*
X151281179Y-34139266D01*
X151280500Y-34126306D01*
X151280500Y-34091309D01*
X151272360Y-34050393D01*
X151270656Y-34039156D01*
X151265674Y-33991744D01*
X151255095Y-33959189D01*
X151251412Y-33945075D01*
X151245895Y-33917334D01*
X151227350Y-33872563D01*
X151223986Y-33863442D01*
X151207180Y-33811718D01*
X151207179Y-33811716D01*
X151193426Y-33787896D01*
X151186257Y-33773359D01*
X151180341Y-33759075D01*
X151178695Y-33754474D01*
X151178013Y-33753453D01*
X151147368Y-33707591D01*
X151143088Y-33700708D01*
X151112531Y-33647781D01*
X151112530Y-33647780D01*
X151098637Y-33632350D01*
X151087684Y-33618268D01*
X151079464Y-33605965D01*
X151035724Y-33562225D01*
X151031255Y-33557516D01*
X150985872Y-33507113D01*
X150985871Y-33507112D01*
X150974525Y-33498869D01*
X150959734Y-33486235D01*
X150954035Y-33480536D01*
X148903500Y-31429999D01*
X150174357Y-31429999D01*
X150174357Y-31430000D01*
X150194884Y-31651535D01*
X150194885Y-31651537D01*
X150255769Y-31865523D01*
X150255775Y-31865538D01*
X150354938Y-32064683D01*
X150354943Y-32064691D01*
X150489020Y-32242238D01*
X150653437Y-32392123D01*
X150653439Y-32392125D01*
X150842595Y-32509245D01*
X150842596Y-32509245D01*
X150842599Y-32509247D01*
X151050060Y-32589618D01*
X151268757Y-32630500D01*
X151268759Y-32630500D01*
X151491241Y-32630500D01*
X151491243Y-32630500D01*
X151709940Y-32589618D01*
X151917401Y-32509247D01*
X152034280Y-32436879D01*
X152726672Y-32436879D01*
X152726672Y-32436880D01*
X152842821Y-32508797D01*
X152842822Y-32508798D01*
X153050195Y-32589134D01*
X153268807Y-32630000D01*
X153491193Y-32630000D01*
X153709809Y-32589133D01*
X153917168Y-32508801D01*
X153917181Y-32508795D01*
X154033326Y-32436879D01*
X153380001Y-31783553D01*
X153380000Y-31783553D01*
X152726672Y-32436879D01*
X152034280Y-32436879D01*
X152106562Y-32392124D01*
X152270981Y-32242236D01*
X152405058Y-32064689D01*
X152409232Y-32056305D01*
X152432553Y-32023892D01*
X153026447Y-31430000D01*
X152980369Y-31383922D01*
X153030000Y-31383922D01*
X153030000Y-31476078D01*
X153053852Y-31565095D01*
X153099930Y-31644905D01*
X153165095Y-31710070D01*
X153244905Y-31756148D01*
X153333922Y-31780000D01*
X153426078Y-31780000D01*
X153515095Y-31756148D01*
X153594905Y-31710070D01*
X153660070Y-31644905D01*
X153706148Y-31565095D01*
X153730000Y-31476078D01*
X153730000Y-31429999D01*
X153733553Y-31429999D01*
X153733553Y-31430000D01*
X154327447Y-32023894D01*
X154350765Y-32056301D01*
X154354942Y-32064689D01*
X154489020Y-32242238D01*
X154653437Y-32392123D01*
X154653439Y-32392125D01*
X154842595Y-32509245D01*
X154842596Y-32509245D01*
X154842599Y-32509247D01*
X155050060Y-32589618D01*
X155268757Y-32630500D01*
X155268759Y-32630500D01*
X155491241Y-32630500D01*
X155491243Y-32630500D01*
X155709940Y-32589618D01*
X155917401Y-32509247D01*
X156106562Y-32392124D01*
X156270981Y-32242236D01*
X156405058Y-32064689D01*
X156504229Y-31865528D01*
X156565115Y-31651536D01*
X156585643Y-31430000D01*
X156572593Y-31289171D01*
X156565115Y-31208464D01*
X156565114Y-31208462D01*
X156563341Y-31202231D01*
X156504229Y-30994472D01*
X156504224Y-30994461D01*
X156405061Y-30795316D01*
X156405056Y-30795308D01*
X156270979Y-30617761D01*
X156106562Y-30467876D01*
X156106560Y-30467874D01*
X155917404Y-30350754D01*
X155917398Y-30350752D01*
X155709940Y-30270382D01*
X155491243Y-30229500D01*
X155268757Y-30229500D01*
X155050060Y-30270382D01*
X154918864Y-30321207D01*
X154842601Y-30350752D01*
X154842595Y-30350754D01*
X154653439Y-30467874D01*
X154653437Y-30467876D01*
X154489019Y-30617762D01*
X154489017Y-30617765D01*
X154354943Y-30795309D01*
X154354940Y-30795313D01*
X154350763Y-30803702D01*
X154327448Y-30836103D01*
X153733553Y-31429999D01*
X153730000Y-31429999D01*
X153730000Y-31383922D01*
X153706148Y-31294905D01*
X153660070Y-31215095D01*
X153594905Y-31149930D01*
X153515095Y-31103852D01*
X153426078Y-31080000D01*
X153333922Y-31080000D01*
X153244905Y-31103852D01*
X153165095Y-31149930D01*
X153099930Y-31215095D01*
X153053852Y-31294905D01*
X153030000Y-31383922D01*
X152980369Y-31383922D01*
X152432553Y-30836106D01*
X152409233Y-30803695D01*
X152405060Y-30795315D01*
X152405056Y-30795308D01*
X152270979Y-30617761D01*
X152106562Y-30467876D01*
X152106560Y-30467874D01*
X152034278Y-30423119D01*
X152726671Y-30423119D01*
X153380000Y-31076447D01*
X153380001Y-31076447D01*
X154033327Y-30423119D01*
X153917178Y-30351202D01*
X153917177Y-30351201D01*
X153709804Y-30270865D01*
X153491193Y-30230000D01*
X153268807Y-30230000D01*
X153050195Y-30270865D01*
X152842824Y-30351200D01*
X152842823Y-30351201D01*
X152726671Y-30423119D01*
X152034278Y-30423119D01*
X151917404Y-30350754D01*
X151917398Y-30350752D01*
X151709940Y-30270382D01*
X151491243Y-30229500D01*
X151268757Y-30229500D01*
X151050060Y-30270382D01*
X150918864Y-30321207D01*
X150842601Y-30350752D01*
X150842595Y-30350754D01*
X150653439Y-30467874D01*
X150653437Y-30467876D01*
X150489020Y-30617761D01*
X150354943Y-30795308D01*
X150354938Y-30795316D01*
X150255775Y-30994461D01*
X150255769Y-30994476D01*
X150194885Y-31208462D01*
X150194884Y-31208464D01*
X150174357Y-31429999D01*
X148903500Y-31429999D01*
X148704041Y-31230540D01*
X148704038Y-31230537D01*
X148642808Y-31189625D01*
X148556544Y-31131985D01*
X148556542Y-31131984D01*
X148474607Y-31098046D01*
X148474606Y-31098046D01*
X148392666Y-31064105D01*
X148392658Y-31064103D01*
X148218696Y-31029500D01*
X148218692Y-31029500D01*
X148218691Y-31029500D01*
X142404362Y-31029500D01*
X142337323Y-31009815D01*
X142316681Y-30993181D01*
X142135716Y-30812216D01*
X142131246Y-30807506D01*
X142085875Y-30757115D01*
X142085871Y-30757112D01*
X142074531Y-30748873D01*
X142059738Y-30736238D01*
X142054036Y-30730536D01*
X142053687Y-30730303D01*
X141997021Y-30692439D01*
X141993028Y-30689656D01*
X141932732Y-30645850D01*
X141932728Y-30645848D01*
X141926092Y-30642893D01*
X141907643Y-30632719D01*
X141906551Y-30631989D01*
X141906546Y-30631986D01*
X141836993Y-30603177D01*
X141834010Y-30601895D01*
X141759806Y-30568857D01*
X141759804Y-30568856D01*
X141759803Y-30568856D01*
X141759294Y-30568747D01*
X141748632Y-30565437D01*
X141748500Y-30565874D01*
X141742667Y-30564105D01*
X141662222Y-30548103D01*
X141660633Y-30547776D01*
X141574650Y-30529500D01*
X141574646Y-30529500D01*
X141568691Y-30529500D01*
X137724646Y-30529500D01*
X137535354Y-30529500D01*
X137535350Y-30529500D01*
X137449334Y-30547783D01*
X137447745Y-30548110D01*
X137367336Y-30564105D01*
X137361514Y-30565871D01*
X137361382Y-30565437D01*
X137350720Y-30568744D01*
X137350200Y-30568854D01*
X137350199Y-30568854D01*
X137275969Y-30601904D01*
X137272986Y-30603185D01*
X137203457Y-30631984D01*
X137203450Y-30631988D01*
X137202346Y-30632726D01*
X137183911Y-30642892D01*
X137177272Y-30645848D01*
X137177264Y-30645853D01*
X137116976Y-30689653D01*
X137112986Y-30692434D01*
X137055968Y-30730533D01*
X137055958Y-30730542D01*
X137050253Y-30736246D01*
X137035472Y-30748870D01*
X137024129Y-30757111D01*
X137024126Y-30757114D01*
X136978742Y-30807517D01*
X136974277Y-30812222D01*
X136930539Y-30855961D01*
X136930532Y-30855969D01*
X136922310Y-30868275D01*
X136911362Y-30882350D01*
X136897472Y-30897776D01*
X136897467Y-30897784D01*
X136866914Y-30950703D01*
X136862630Y-30957591D01*
X136831988Y-31003450D01*
X136823741Y-31023360D01*
X136816569Y-31037902D01*
X136802824Y-31061710D01*
X136802821Y-31061715D01*
X136786010Y-31113451D01*
X136782643Y-31122578D01*
X136764106Y-31167333D01*
X136758589Y-31195066D01*
X136754905Y-31209183D01*
X136744325Y-31241747D01*
X136739340Y-31289171D01*
X136737638Y-31300396D01*
X136729500Y-31341310D01*
X136729500Y-31376306D01*
X136728821Y-31389266D01*
X136724540Y-31429999D01*
X136728821Y-31470731D01*
X136729500Y-31483692D01*
X136729500Y-31518695D01*
X136737637Y-31559602D01*
X136739341Y-31570831D01*
X136744325Y-31618253D01*
X136744325Y-31618254D01*
X136754904Y-31650811D01*
X136758590Y-31664938D01*
X136764104Y-31692662D01*
X136764105Y-31692664D01*
X136782644Y-31737423D01*
X136786012Y-31746554D01*
X136802819Y-31798279D01*
X136802822Y-31798286D01*
X136816569Y-31822097D01*
X136823742Y-31836643D01*
X136831984Y-31856542D01*
X136862634Y-31902413D01*
X136866919Y-31909304D01*
X136897468Y-31962218D01*
X136897469Y-31962219D01*
X136911357Y-31977643D01*
X136922307Y-31991721D01*
X136930534Y-32004033D01*
X136974274Y-32047773D01*
X136978744Y-32052483D01*
X137024129Y-32102888D01*
X137024131Y-32102890D01*
X137035467Y-32111126D01*
X137050263Y-32123763D01*
X137055961Y-32129461D01*
X137055965Y-32129464D01*
X137112994Y-32167570D01*
X137116967Y-32170339D01*
X137177270Y-32214151D01*
X137183902Y-32217104D01*
X137202361Y-32227283D01*
X137203453Y-32228013D01*
X137273042Y-32256836D01*
X137275987Y-32258102D01*
X137350197Y-32291144D01*
X137350696Y-32291250D01*
X137361370Y-32294562D01*
X137361503Y-32294125D01*
X137367330Y-32295892D01*
X137367334Y-32295894D01*
X137447816Y-32311902D01*
X137449282Y-32312204D01*
X137535354Y-32330500D01*
X137541309Y-32330500D01*
X141055639Y-32330500D01*
X141122678Y-32350185D01*
X141143320Y-32366819D01*
X141280536Y-32504035D01*
X141405965Y-32629464D01*
X141553453Y-32728013D01*
X141601452Y-32747895D01*
X141717334Y-32795895D01*
X141891303Y-32830499D01*
X141891307Y-32830500D01*
X141891308Y-32830500D01*
X141891309Y-32830500D01*
X147705638Y-32830500D01*
X147772677Y-32850185D01*
X147793319Y-32866819D01*
X149443181Y-34516680D01*
X149476666Y-34578003D01*
X149479500Y-34604361D01*
X149479500Y-37005638D01*
X149459815Y-37072677D01*
X149443181Y-37093319D01*
X143543319Y-42993181D01*
X143481996Y-43026666D01*
X143455638Y-43029500D01*
X141054362Y-43029500D01*
X140987323Y-43009815D01*
X140966681Y-42993181D01*
X139285715Y-41312215D01*
X139281245Y-41307505D01*
X139235875Y-41257115D01*
X139235871Y-41257112D01*
X139224531Y-41248873D01*
X139209738Y-41236238D01*
X139204036Y-41230536D01*
X139204032Y-41230533D01*
X139204031Y-41230532D01*
X139147021Y-41192439D01*
X139143028Y-41189657D01*
X139119977Y-41172910D01*
X139082730Y-41145849D01*
X139076081Y-41142888D01*
X139057636Y-41132716D01*
X139057022Y-41132305D01*
X139056546Y-41131987D01*
X139020459Y-41117039D01*
X138986984Y-41103173D01*
X138984039Y-41101907D01*
X138909804Y-41068856D01*
X138909618Y-41068816D01*
X138909294Y-41068747D01*
X138898632Y-41065437D01*
X138898500Y-41065874D01*
X138892667Y-41064105D01*
X138812222Y-41048103D01*
X138810633Y-41047776D01*
X138724650Y-41029500D01*
X138724646Y-41029500D01*
X138535354Y-41029500D01*
X138449306Y-41047789D01*
X138447717Y-41048115D01*
X138367333Y-41064104D01*
X138361508Y-41065871D01*
X138361378Y-41065443D01*
X138350726Y-41068743D01*
X138350202Y-41068854D01*
X138350198Y-41068855D01*
X138275971Y-41101902D01*
X138272994Y-41103181D01*
X138203453Y-41131988D01*
X138203450Y-41131989D01*
X138202342Y-41132730D01*
X138183921Y-41142886D01*
X138177279Y-41145843D01*
X138177273Y-41145847D01*
X138116993Y-41189641D01*
X138113004Y-41192421D01*
X138055967Y-41230533D01*
X138055955Y-41230543D01*
X138050251Y-41236247D01*
X138035468Y-41248872D01*
X138024136Y-41257105D01*
X138024126Y-41257114D01*
X137978751Y-41307507D01*
X137974286Y-41312212D01*
X137930539Y-41355960D01*
X137930532Y-41355968D01*
X137922308Y-41368277D01*
X137911361Y-41382352D01*
X137897468Y-41397782D01*
X137897467Y-41397783D01*
X137866907Y-41450713D01*
X137862626Y-41457597D01*
X137831987Y-41503454D01*
X137823742Y-41523357D01*
X137816575Y-41537890D01*
X137802820Y-41561716D01*
X137802818Y-41561721D01*
X137786010Y-41613449D01*
X137782642Y-41622580D01*
X137764105Y-41667333D01*
X137764103Y-41667341D01*
X137758588Y-41695067D01*
X137754902Y-41709193D01*
X137744326Y-41741743D01*
X137744325Y-41741746D01*
X137739341Y-41789160D01*
X137737639Y-41800384D01*
X137729500Y-41841307D01*
X137729500Y-41876306D01*
X137728821Y-41889266D01*
X137724540Y-41929999D01*
X137728821Y-41970731D01*
X137729500Y-41983692D01*
X137729500Y-42018692D01*
X137737639Y-42059614D01*
X137739341Y-42070839D01*
X137744325Y-42118249D01*
X137744326Y-42118256D01*
X137754903Y-42150807D01*
X137758587Y-42164927D01*
X137764105Y-42192665D01*
X137764106Y-42192670D01*
X137782641Y-42237417D01*
X137786011Y-42246550D01*
X137802820Y-42298282D01*
X137816571Y-42322100D01*
X137823743Y-42336644D01*
X137831986Y-42356544D01*
X137831988Y-42356547D01*
X137862626Y-42402402D01*
X137866910Y-42409290D01*
X137897467Y-42462216D01*
X137911355Y-42477640D01*
X137922307Y-42491721D01*
X137930535Y-42504035D01*
X137974283Y-42547783D01*
X137978752Y-42552492D01*
X138024129Y-42602888D01*
X138035467Y-42611125D01*
X138050261Y-42623761D01*
X139693181Y-44266681D01*
X139726666Y-44328004D01*
X139729500Y-44354362D01*
X139729500Y-45629638D01*
X139709815Y-45696677D01*
X139693181Y-45717319D01*
X137569319Y-47841181D01*
X137507996Y-47874666D01*
X137481638Y-47877500D01*
X128170361Y-47877500D01*
X128103322Y-47857815D01*
X128082680Y-47841181D01*
X120608819Y-40367319D01*
X120575334Y-40305996D01*
X120572500Y-40279638D01*
X120572500Y-40068692D01*
X120573179Y-40055731D01*
X120577460Y-40015000D01*
X120573179Y-39974266D01*
X120572500Y-39961306D01*
X120572500Y-39926309D01*
X120564360Y-39885393D01*
X120562656Y-39874156D01*
X120557674Y-39826744D01*
X120547094Y-39794183D01*
X120543409Y-39780059D01*
X120537895Y-39752339D01*
X120537894Y-39752338D01*
X120537894Y-39752334D01*
X120519352Y-39707569D01*
X120515990Y-39698455D01*
X120499181Y-39646720D01*
X120499178Y-39646715D01*
X120485424Y-39622892D01*
X120478256Y-39608355D01*
X120470014Y-39588456D01*
X120470013Y-39588454D01*
X120470013Y-39588453D01*
X120439359Y-39542577D01*
X120435088Y-39535708D01*
X120404534Y-39482785D01*
X120404530Y-39482780D01*
X120390637Y-39467350D01*
X120379684Y-39453268D01*
X120371464Y-39440965D01*
X120327721Y-39397222D01*
X120323255Y-39392516D01*
X120277871Y-39342112D01*
X120277870Y-39342111D01*
X120266527Y-39333870D01*
X120251737Y-39321238D01*
X120246035Y-39315536D01*
X120189008Y-39277431D01*
X120185016Y-39274649D01*
X120124730Y-39230849D01*
X120118092Y-39227893D01*
X120099643Y-39217719D01*
X120098551Y-39216989D01*
X120098546Y-39216986D01*
X120028993Y-39188177D01*
X120026010Y-39186895D01*
X119951806Y-39153856D01*
X119951797Y-39153853D01*
X119951285Y-39153745D01*
X119940626Y-39150438D01*
X119940494Y-39150874D01*
X119934667Y-39149106D01*
X119934666Y-39149106D01*
X119934663Y-39149105D01*
X119934662Y-39149105D01*
X119854268Y-39133113D01*
X119852715Y-39132794D01*
X119766646Y-39114500D01*
X119577354Y-39114500D01*
X119577350Y-39114500D01*
X119491334Y-39132783D01*
X119489745Y-39133110D01*
X119409336Y-39149105D01*
X119403514Y-39150871D01*
X119403382Y-39150437D01*
X119392720Y-39153744D01*
X119392200Y-39153854D01*
X119392199Y-39153854D01*
X119317969Y-39186904D01*
X119314986Y-39188185D01*
X119245457Y-39216984D01*
X119245450Y-39216988D01*
X119244346Y-39217726D01*
X119225911Y-39227892D01*
X119219272Y-39230848D01*
X119219264Y-39230853D01*
X119158976Y-39274653D01*
X119154986Y-39277434D01*
X119097968Y-39315533D01*
X119097958Y-39315542D01*
X119092253Y-39321246D01*
X119077472Y-39333870D01*
X119066129Y-39342111D01*
X119066126Y-39342114D01*
X119020742Y-39392517D01*
X119016277Y-39397222D01*
X118972539Y-39440961D01*
X118972532Y-39440969D01*
X118964310Y-39453275D01*
X118953362Y-39467350D01*
X118939472Y-39482776D01*
X118939467Y-39482784D01*
X118908914Y-39535703D01*
X118904630Y-39542591D01*
X118873988Y-39588450D01*
X118865741Y-39608360D01*
X118858569Y-39622902D01*
X118844824Y-39646710D01*
X118844821Y-39646715D01*
X118828010Y-39698451D01*
X118824643Y-39707578D01*
X118806106Y-39752333D01*
X118800589Y-39780066D01*
X118796905Y-39794183D01*
X118786325Y-39826747D01*
X118781340Y-39874171D01*
X118779638Y-39885396D01*
X118771500Y-39926310D01*
X118771500Y-39961306D01*
X118770821Y-39974266D01*
X118766540Y-40014999D01*
X101000000Y-40014999D01*
X101000000Y-29383306D01*
X104219500Y-29383306D01*
X104219500Y-29616693D01*
X104219501Y-29616709D01*
X104249964Y-29848100D01*
X104310375Y-30073555D01*
X104399690Y-30289181D01*
X104399695Y-30289192D01*
X104516387Y-30491307D01*
X104516398Y-30491323D01*
X104658475Y-30676482D01*
X104658481Y-30676489D01*
X104823510Y-30841518D01*
X104823516Y-30841523D01*
X105008685Y-30983608D01*
X105008692Y-30983612D01*
X105210807Y-31100304D01*
X105210812Y-31100306D01*
X105210815Y-31100308D01*
X105426449Y-31189626D01*
X105651896Y-31250035D01*
X105883300Y-31280500D01*
X105883307Y-31280500D01*
X106116693Y-31280500D01*
X106116700Y-31280500D01*
X106348104Y-31250035D01*
X106573551Y-31189626D01*
X106789185Y-31100308D01*
X106991315Y-30983608D01*
X107176484Y-30841523D01*
X107341523Y-30676484D01*
X107483608Y-30491315D01*
X107600308Y-30289185D01*
X107689626Y-30073551D01*
X107750035Y-29848104D01*
X107780500Y-29616700D01*
X107780500Y-29383300D01*
X107750035Y-29151896D01*
X107689626Y-28926449D01*
X107600308Y-28710815D01*
X107600306Y-28710812D01*
X107600304Y-28710807D01*
X107483612Y-28508692D01*
X107483608Y-28508685D01*
X107341523Y-28323516D01*
X107341518Y-28323510D01*
X107176489Y-28158481D01*
X107176482Y-28158475D01*
X106991323Y-28016398D01*
X106991321Y-28016396D01*
X106991315Y-28016392D01*
X106991310Y-28016389D01*
X106991307Y-28016387D01*
X106789192Y-27899695D01*
X106789181Y-27899690D01*
X106573555Y-27810375D01*
X106348100Y-27749964D01*
X106116709Y-27719501D01*
X106116706Y-27719500D01*
X106116700Y-27719500D01*
X105883300Y-27719500D01*
X105883294Y-27719500D01*
X105883290Y-27719501D01*
X105651899Y-27749964D01*
X105426444Y-27810375D01*
X105210818Y-27899690D01*
X105210807Y-27899695D01*
X105008692Y-28016387D01*
X105008676Y-28016398D01*
X104823517Y-28158475D01*
X104823510Y-28158481D01*
X104658481Y-28323510D01*
X104658475Y-28323517D01*
X104516398Y-28508676D01*
X104516387Y-28508692D01*
X104399695Y-28710807D01*
X104399690Y-28710818D01*
X104310375Y-28926444D01*
X104249964Y-29151899D01*
X104219501Y-29383290D01*
X104219500Y-29383306D01*
X101000000Y-29383306D01*
X101000000Y-27343543D01*
X128059499Y-27343543D01*
X128097947Y-27536829D01*
X128097950Y-27536839D01*
X128173364Y-27718907D01*
X128173371Y-27718920D01*
X128282860Y-27882781D01*
X128282863Y-27882785D01*
X128422214Y-28022136D01*
X128422218Y-28022139D01*
X128586079Y-28131628D01*
X128586092Y-28131635D01*
X128768160Y-28207049D01*
X128768165Y-28207051D01*
X128768169Y-28207051D01*
X128768170Y-28207052D01*
X128961456Y-28245500D01*
X128961459Y-28245500D01*
X129158543Y-28245500D01*
X129288582Y-28219632D01*
X129351835Y-28207051D01*
X129533914Y-28131632D01*
X129697782Y-28022139D01*
X129837139Y-27882782D01*
X129946632Y-27718914D01*
X130022051Y-27536835D01*
X130060500Y-27343541D01*
X130060500Y-26792616D01*
X130080185Y-26725577D01*
X130132989Y-26679822D01*
X130202147Y-26669878D01*
X130246495Y-26685227D01*
X130299884Y-26716051D01*
X130428450Y-26750500D01*
X130428452Y-26750500D01*
X130561548Y-26750500D01*
X130561550Y-26750500D01*
X130690116Y-26716051D01*
X130805384Y-26649501D01*
X130899501Y-26555384D01*
X130966051Y-26440116D01*
X131000500Y-26311550D01*
X131000500Y-26178450D01*
X135759500Y-26178450D01*
X135759500Y-26311550D01*
X135793949Y-26440116D01*
X135860499Y-26555384D01*
X135954616Y-26649501D01*
X136069884Y-26716051D01*
X136198450Y-26750500D01*
X136198452Y-26750500D01*
X136331548Y-26750500D01*
X136331550Y-26750500D01*
X136460116Y-26716051D01*
X136513502Y-26685228D01*
X136581399Y-26668756D01*
X136647426Y-26691608D01*
X136690617Y-26746529D01*
X136699500Y-26792616D01*
X136699500Y-27343541D01*
X136699500Y-27343543D01*
X136699499Y-27343543D01*
X136737947Y-27536829D01*
X136737950Y-27536839D01*
X136813364Y-27718907D01*
X136813371Y-27718920D01*
X136922860Y-27882781D01*
X136922863Y-27882785D01*
X137062214Y-28022136D01*
X137062218Y-28022139D01*
X137226079Y-28131628D01*
X137226092Y-28131635D01*
X137408160Y-28207049D01*
X137408165Y-28207051D01*
X137408169Y-28207051D01*
X137408170Y-28207052D01*
X137601456Y-28245500D01*
X137601459Y-28245500D01*
X137798543Y-28245500D01*
X137928582Y-28219632D01*
X137991835Y-28207051D01*
X138173914Y-28131632D01*
X138337782Y-28022139D01*
X138477139Y-27882782D01*
X138586632Y-27718914D01*
X138662051Y-27536835D01*
X138700500Y-27343541D01*
X138700500Y-26146459D01*
X138700500Y-26146456D01*
X138662052Y-25953170D01*
X138662051Y-25953169D01*
X138662051Y-25953165D01*
X138637322Y-25893464D01*
X138586635Y-25771092D01*
X138586628Y-25771079D01*
X138477139Y-25607218D01*
X138477136Y-25607214D01*
X138337785Y-25467863D01*
X138337781Y-25467860D01*
X138173920Y-25358371D01*
X138173907Y-25358364D01*
X137991839Y-25282950D01*
X137991829Y-25282947D01*
X137798543Y-25244500D01*
X137798541Y-25244500D01*
X137601459Y-25244500D01*
X137601457Y-25244500D01*
X137408170Y-25282947D01*
X137408160Y-25282950D01*
X137226092Y-25358364D01*
X137226079Y-25358371D01*
X137062218Y-25467860D01*
X137062214Y-25467863D01*
X136922863Y-25607214D01*
X136922860Y-25607218D01*
X136813371Y-25771079D01*
X136813366Y-25771089D01*
X136794351Y-25816996D01*
X136750510Y-25871399D01*
X136684215Y-25893464D01*
X136616516Y-25876184D01*
X136592109Y-25857224D01*
X136575386Y-25840501D01*
X136575384Y-25840499D01*
X136460116Y-25773949D01*
X136331550Y-25739500D01*
X136198450Y-25739500D01*
X136069884Y-25773949D01*
X136069881Y-25773950D01*
X135954619Y-25840497D01*
X135954613Y-25840501D01*
X135860501Y-25934613D01*
X135860497Y-25934619D01*
X135793950Y-26049881D01*
X135793949Y-26049884D01*
X135759500Y-26178450D01*
X131000500Y-26178450D01*
X130966051Y-26049884D01*
X130899501Y-25934616D01*
X130805384Y-25840499D01*
X130690116Y-25773949D01*
X130561550Y-25739500D01*
X130428450Y-25739500D01*
X130299884Y-25773949D01*
X130299881Y-25773950D01*
X130184619Y-25840497D01*
X130184612Y-25840502D01*
X130167888Y-25857226D01*
X130106564Y-25890710D01*
X130036873Y-25885724D01*
X129980940Y-25843851D01*
X129965648Y-25816996D01*
X129946632Y-25771086D01*
X129946628Y-25771079D01*
X129837139Y-25607218D01*
X129837136Y-25607214D01*
X129697785Y-25467863D01*
X129697781Y-25467860D01*
X129533920Y-25358371D01*
X129533907Y-25358364D01*
X129351839Y-25282950D01*
X129351829Y-25282947D01*
X129158543Y-25244500D01*
X129158541Y-25244500D01*
X128961459Y-25244500D01*
X128961457Y-25244500D01*
X128768170Y-25282947D01*
X128768160Y-25282950D01*
X128586092Y-25358364D01*
X128586079Y-25358371D01*
X128422218Y-25467860D01*
X128422214Y-25467863D01*
X128282863Y-25607214D01*
X128282860Y-25607218D01*
X128173371Y-25771079D01*
X128173364Y-25771092D01*
X128097950Y-25953160D01*
X128097947Y-25953170D01*
X128059500Y-26146456D01*
X128059500Y-26146459D01*
X128059500Y-27343541D01*
X128059500Y-27343543D01*
X128059499Y-27343543D01*
X101000000Y-27343543D01*
X101000000Y-25124000D01*
X101019685Y-25056961D01*
X101072489Y-25011206D01*
X101124000Y-25000000D01*
X127500000Y-25000000D01*
X127500000Y-23053543D01*
X128059499Y-23053543D01*
X128097947Y-23246829D01*
X128097950Y-23246839D01*
X128173364Y-23428907D01*
X128173371Y-23428920D01*
X128282860Y-23592781D01*
X128282863Y-23592785D01*
X128422214Y-23732136D01*
X128422218Y-23732139D01*
X128586079Y-23841628D01*
X128586092Y-23841635D01*
X128768160Y-23917049D01*
X128768165Y-23917051D01*
X128768169Y-23917051D01*
X128768170Y-23917052D01*
X128961456Y-23955500D01*
X128961459Y-23955500D01*
X129158543Y-23955500D01*
X129288582Y-23929632D01*
X129351835Y-23917051D01*
X129533914Y-23841632D01*
X129697782Y-23732139D01*
X129837139Y-23592782D01*
X129946632Y-23428914D01*
X130022051Y-23246835D01*
X130050554Y-23103543D01*
X136699499Y-23103543D01*
X136737947Y-23296829D01*
X136737950Y-23296839D01*
X136813364Y-23478907D01*
X136813371Y-23478920D01*
X136922860Y-23642781D01*
X136922863Y-23642785D01*
X137062214Y-23782136D01*
X137062218Y-23782139D01*
X137226079Y-23891628D01*
X137226092Y-23891635D01*
X137380278Y-23955500D01*
X137408165Y-23967051D01*
X137408169Y-23967051D01*
X137408170Y-23967052D01*
X137601456Y-24005500D01*
X137601459Y-24005500D01*
X137798543Y-24005500D01*
X137928582Y-23979632D01*
X137991835Y-23967051D01*
X138173914Y-23891632D01*
X138337782Y-23782139D01*
X138477139Y-23642782D01*
X138586632Y-23478914D01*
X138662051Y-23296835D01*
X138700500Y-23103541D01*
X138700500Y-22106459D01*
X138700500Y-22106456D01*
X138662052Y-21913170D01*
X138662051Y-21913169D01*
X138662051Y-21913165D01*
X138607340Y-21781079D01*
X138586635Y-21731092D01*
X138586628Y-21731079D01*
X138477139Y-21567218D01*
X138477136Y-21567214D01*
X138337785Y-21427863D01*
X138337781Y-21427860D01*
X138173920Y-21318371D01*
X138173907Y-21318364D01*
X137991839Y-21242950D01*
X137991829Y-21242947D01*
X137798543Y-21204500D01*
X137798541Y-21204500D01*
X137601459Y-21204500D01*
X137601457Y-21204500D01*
X137408170Y-21242947D01*
X137408160Y-21242950D01*
X137226092Y-21318364D01*
X137226079Y-21318371D01*
X137062218Y-21427860D01*
X137062214Y-21427863D01*
X136922863Y-21567214D01*
X136922860Y-21567218D01*
X136813371Y-21731079D01*
X136813364Y-21731092D01*
X136737950Y-21913160D01*
X136737947Y-21913170D01*
X136699500Y-22106456D01*
X136699500Y-22106459D01*
X136699500Y-23103541D01*
X136699500Y-23103543D01*
X136699499Y-23103543D01*
X130050554Y-23103543D01*
X130060500Y-23053543D01*
X130060500Y-22156456D01*
X130022052Y-21963170D01*
X130022051Y-21963169D01*
X130022051Y-21963165D01*
X130001343Y-21913170D01*
X129946635Y-21781092D01*
X129946628Y-21781079D01*
X129837139Y-21617218D01*
X129837136Y-21617214D01*
X129697785Y-21477863D01*
X129697781Y-21477860D01*
X129533920Y-21368371D01*
X129533907Y-21368364D01*
X129351839Y-21292950D01*
X129351829Y-21292947D01*
X129158543Y-21254500D01*
X129158541Y-21254500D01*
X128961459Y-21254500D01*
X128961457Y-21254500D01*
X128768170Y-21292947D01*
X128768160Y-21292950D01*
X128586092Y-21368364D01*
X128586079Y-21368371D01*
X128422218Y-21477860D01*
X128422214Y-21477863D01*
X128282863Y-21617214D01*
X128282860Y-21617218D01*
X128173371Y-21781079D01*
X128173364Y-21781092D01*
X128097950Y-21963160D01*
X128097947Y-21963170D01*
X128059500Y-22156456D01*
X128059500Y-22156459D01*
X128059500Y-23053541D01*
X128059500Y-23053543D01*
X128059499Y-23053543D01*
X127500000Y-23053543D01*
X127500000Y-20124000D01*
X127519685Y-20056961D01*
X127572489Y-20011206D01*
X127624000Y-20000000D01*
X138876000Y-20000000D01*
X138943039Y-20019685D01*
G37*
%TD.AperFunction*%
%TD*%
M02*
