%TF.GenerationSoftware,KiCad,Pcbnew,8.0.4*%
%TF.CreationDate,2024-07-23T17:45:02-07:00*%
%TF.ProjectId,2board_a,32626f61-7264-45f6-912e-6b696361645f,rev?*%
%TF.SameCoordinates,Original*%
%TF.FileFunction,Soldermask,Top*%
%TF.FilePolarity,Negative*%
%FSLAX46Y46*%
G04 Gerber Fmt 4.6, Leading zero omitted, Abs format (unit mm)*
G04 Created by KiCad (PCBNEW 8.0.4) date 2024-07-23 17:45:02*
%MOMM*%
%LPD*%
G01*
G04 APERTURE LIST*
G04 Aperture macros list*
%AMRoundRect*
0 Rectangle with rounded corners*
0 $1 Rounding radius*
0 $2 $3 $4 $5 $6 $7 $8 $9 X,Y pos of 4 corners*
0 Add a 4 corners polygon primitive as box body*
4,1,4,$2,$3,$4,$5,$6,$7,$8,$9,$2,$3,0*
0 Add four circle primitives for the rounded corners*
1,1,$1+$1,$2,$3*
1,1,$1+$1,$4,$5*
1,1,$1+$1,$6,$7*
1,1,$1+$1,$8,$9*
0 Add four rect primitives between the rounded corners*
20,1,$1+$1,$2,$3,$4,$5,0*
20,1,$1+$1,$4,$5,$6,$7,0*
20,1,$1+$1,$6,$7,$8,$9,0*
20,1,$1+$1,$8,$9,$2,$3,0*%
%AMFreePoly0*
4,1,19,0.500000,-0.750000,0.000000,-0.750000,0.000000,-0.744911,-0.071157,-0.744911,-0.207708,-0.704816,-0.327430,-0.627875,-0.420627,-0.520320,-0.479746,-0.390866,-0.500000,-0.250000,-0.500000,0.250000,-0.479746,0.390866,-0.420627,0.520320,-0.327430,0.627875,-0.207708,0.704816,-0.071157,0.744911,0.000000,0.744911,0.000000,0.750000,0.500000,0.750000,0.500000,-0.750000,0.500000,-0.750000,
$1*%
%AMFreePoly1*
4,1,19,0.000000,0.744911,0.071157,0.744911,0.207708,0.704816,0.327430,0.627875,0.420627,0.520320,0.479746,0.390866,0.500000,0.250000,0.500000,-0.250000,0.479746,-0.390866,0.420627,-0.520320,0.327430,-0.627875,0.207708,-0.704816,0.071157,-0.744911,0.000000,-0.744911,0.000000,-0.750000,-0.500000,-0.750000,-0.500000,0.750000,0.000000,0.750000,0.000000,0.744911,0.000000,0.744911,
$1*%
G04 Aperture macros list end*
%ADD10FreePoly0,0.000000*%
%ADD11FreePoly1,0.000000*%
%ADD12C,3.200000*%
%ADD13RoundRect,0.140000X-0.170000X0.140000X-0.170000X-0.140000X0.170000X-0.140000X0.170000X0.140000X0*%
%ADD14R,1.200000X1.400000*%
%ADD15R,1.700000X1.000000*%
%ADD16RoundRect,0.135000X-0.185000X0.135000X-0.185000X-0.135000X0.185000X-0.135000X0.185000X0.135000X0*%
%ADD17RoundRect,0.140000X-0.140000X-0.170000X0.140000X-0.170000X0.140000X0.170000X-0.140000X0.170000X0*%
%ADD18RoundRect,0.150000X0.650000X0.150000X-0.650000X0.150000X-0.650000X-0.150000X0.650000X-0.150000X0*%
%ADD19RoundRect,0.140000X0.140000X0.170000X-0.140000X0.170000X-0.140000X-0.170000X0.140000X-0.170000X0*%
%ADD20RoundRect,0.140000X0.170000X-0.140000X0.170000X0.140000X-0.170000X0.140000X-0.170000X-0.140000X0*%
%ADD21C,1.750000*%
%ADD22C,4.000000*%
%ADD23C,2.500000*%
%ADD24RoundRect,0.135000X-0.135000X-0.185000X0.135000X-0.185000X0.135000X0.185000X-0.135000X0.185000X0*%
%ADD25C,0.650000*%
%ADD26RoundRect,0.150000X0.150000X0.420000X-0.150000X0.420000X-0.150000X-0.420000X0.150000X-0.420000X0*%
%ADD27RoundRect,0.075000X0.075000X0.495000X-0.075000X0.495000X-0.075000X-0.495000X0.075000X-0.495000X0*%
%ADD28O,1.000000X2.000000*%
%ADD29O,1.000000X1.800000*%
%ADD30O,1.000000X1.700000*%
%ADD31RoundRect,0.135000X0.135000X0.185000X-0.135000X0.185000X-0.135000X-0.185000X0.135000X-0.185000X0*%
%ADD32RoundRect,0.200000X-0.200000X-0.275000X0.200000X-0.275000X0.200000X0.275000X-0.200000X0.275000X0*%
%ADD33RoundRect,0.160000X-0.160000X0.197500X-0.160000X-0.197500X0.160000X-0.197500X0.160000X0.197500X0*%
%ADD34RoundRect,0.050000X0.050000X-0.387500X0.050000X0.387500X-0.050000X0.387500X-0.050000X-0.387500X0*%
%ADD35RoundRect,0.050000X0.387500X-0.050000X0.387500X0.050000X-0.387500X0.050000X-0.387500X-0.050000X0*%
%ADD36R,3.200000X3.200000*%
%ADD37RoundRect,0.375000X0.625000X0.375000X-0.625000X0.375000X-0.625000X-0.375000X0.625000X-0.375000X0*%
%ADD38RoundRect,0.500000X0.500000X1.400000X-0.500000X1.400000X-0.500000X-1.400000X0.500000X-1.400000X0*%
%ADD39C,1.400000*%
G04 APERTURE END LIST*
D10*
%TO.C,JP11*%
X195420000Y-99930000D03*
D11*
X196720000Y-99930000D03*
%TD*%
D12*
%TO.C,H7*%
X177000000Y-34600000D03*
%TD*%
D13*
%TO.C,C3*%
X155852000Y-36728000D03*
X155852000Y-37688000D03*
%TD*%
D10*
%TO.C,JP14*%
X195420000Y-110580000D03*
D11*
X196720000Y-110580000D03*
%TD*%
D14*
%TO.C,Y1*%
X153996000Y-37630000D03*
X153996000Y-35430000D03*
X152296000Y-35430000D03*
X152296000Y-37630000D03*
%TD*%
D15*
%TO.C,SW1*%
X108755000Y-40030000D03*
X115055000Y-40030000D03*
X108755000Y-43830000D03*
X115055000Y-43830000D03*
%TD*%
D13*
%TO.C,C12*%
X138630000Y-43200000D03*
X138630000Y-44160000D03*
%TD*%
D16*
%TO.C,R2*%
X130822000Y-31668000D03*
X130822000Y-32688000D03*
%TD*%
D17*
%TO.C,C2*%
X125020000Y-31000000D03*
X125980000Y-31000000D03*
%TD*%
%TO.C,C8*%
X147840000Y-35430000D03*
X148800000Y-35430000D03*
%TD*%
D10*
%TO.C,JP2*%
X195420000Y-32500000D03*
D11*
X196720000Y-32500000D03*
%TD*%
D18*
%TO.C,U3*%
X135410000Y-45349000D03*
X135410000Y-44079000D03*
X135410000Y-42809000D03*
X135410000Y-41539000D03*
X128210000Y-41539000D03*
X128210000Y-42809000D03*
X128210000Y-44079000D03*
X128210000Y-45349000D03*
%TD*%
D10*
%TO.C,JP12*%
X195420000Y-103480000D03*
D11*
X196720000Y-103480000D03*
%TD*%
D19*
%TO.C,C10*%
X135478750Y-37430000D03*
X134518750Y-37430000D03*
%TD*%
D20*
%TO.C,C11*%
X128880000Y-35910000D03*
X128880000Y-34950000D03*
%TD*%
D10*
%TO.C,JP3*%
X195420000Y-35000000D03*
D11*
X196720000Y-35000000D03*
%TD*%
D21*
%TO.C,SW8_DP1*%
X111920000Y-71991696D03*
D22*
X117000000Y-71991696D03*
D21*
X122080000Y-71991696D03*
D23*
X113190000Y-69451696D03*
X119540000Y-66911696D03*
%TD*%
D12*
%TO.C,H8*%
X185500000Y-107500000D03*
%TD*%
D19*
%TO.C,C7*%
X136360000Y-31930000D03*
X135400000Y-31930000D03*
%TD*%
D21*
%TO.C,SW20_RIGHT1*%
X178210635Y-81055968D03*
D22*
X182903943Y-83000000D03*
D21*
X187597251Y-84944032D03*
D23*
X180355978Y-79195322D03*
X187194629Y-79278708D03*
%TD*%
D24*
%TO.C,R5*%
X120251000Y-42936000D03*
X121271000Y-42936000D03*
%TD*%
D17*
%TO.C,C14*%
X147840000Y-36840000D03*
X148800000Y-36840000D03*
%TD*%
D10*
%TO.C,JP8*%
X195420000Y-47550000D03*
D11*
X196720000Y-47550000D03*
%TD*%
D24*
%TO.C,R1*%
X127490000Y-29347000D03*
X128510000Y-29347000D03*
%TD*%
D21*
%TO.C,SW19_LEFT1*%
X144541559Y-62780211D03*
D22*
X149234867Y-64724243D03*
D21*
X153928175Y-66668275D03*
D23*
X146686902Y-60919565D03*
X153525553Y-61002951D03*
%TD*%
D25*
%TO.C,J1*%
X130495000Y-26245000D03*
D26*
X136580000Y-27315000D03*
X135780000Y-27315000D03*
D27*
X134630000Y-27315000D03*
X133630000Y-27315000D03*
X133130000Y-27315000D03*
X132130000Y-27315000D03*
D26*
X130980000Y-27315000D03*
X130180000Y-27315000D03*
X130180000Y-27315000D03*
X130980000Y-27315000D03*
D27*
X131630000Y-27315000D03*
X132630000Y-27315000D03*
X134130000Y-27315000D03*
X135130000Y-27315000D03*
D26*
X135780000Y-27315000D03*
X136580000Y-27315000D03*
D28*
X137700000Y-26745000D03*
D29*
X137700000Y-22605000D03*
D28*
X129060000Y-26745000D03*
D30*
X129060000Y-22605000D03*
%TD*%
D12*
%TO.C,H11*%
X135000000Y-64000000D03*
%TD*%
%TO.C,H2*%
X105000000Y-108000000D03*
%TD*%
D31*
%TO.C,R4*%
X149590000Y-37856000D03*
X148570000Y-37856000D03*
%TD*%
D32*
%TO.C,R7*%
X134055000Y-34430000D03*
X135705000Y-34430000D03*
%TD*%
D10*
%TO.C,JP10*%
X195420000Y-96380000D03*
D11*
X196720000Y-96380000D03*
%TD*%
D21*
%TO.C,SW18_DOWN1*%
X162141464Y-70070330D03*
D22*
X166834772Y-72014362D03*
D21*
X171528080Y-73958394D03*
D23*
X164286807Y-68209684D03*
X171125458Y-68293070D03*
%TD*%
D33*
%TO.C,R6*%
X124571000Y-43735500D03*
X124571000Y-44930500D03*
%TD*%
D10*
%TO.C,JP4*%
X195420000Y-37550000D03*
D11*
X196720000Y-37550000D03*
%TD*%
D32*
%TO.C,R8*%
X134055000Y-35930000D03*
X135705000Y-35930000D03*
%TD*%
D19*
%TO.C,C6*%
X136360000Y-32930000D03*
X135400000Y-32930000D03*
%TD*%
D34*
%TO.C,U1*%
X139078000Y-40315500D03*
X139478000Y-40315500D03*
X139878000Y-40315500D03*
X140278000Y-40315500D03*
X140678000Y-40315500D03*
X141078000Y-40315500D03*
X141478000Y-40315500D03*
X141878000Y-40315500D03*
X142278000Y-40315500D03*
X142678000Y-40315500D03*
X143078000Y-40315500D03*
X143478000Y-40315500D03*
X143878000Y-40315500D03*
X144278000Y-40315500D03*
D35*
X145115500Y-39478000D03*
X145115500Y-39078000D03*
X145115500Y-38678000D03*
X145115500Y-38278000D03*
X145115500Y-37878000D03*
X145115500Y-37478000D03*
X145115500Y-37078000D03*
X145115500Y-36678000D03*
X145115500Y-36278000D03*
X145115500Y-35878000D03*
X145115500Y-35478000D03*
X145115500Y-35078000D03*
X145115500Y-34678000D03*
X145115500Y-34278000D03*
D34*
X144278000Y-33440500D03*
X143878000Y-33440500D03*
X143478000Y-33440500D03*
X143078000Y-33440500D03*
X142678000Y-33440500D03*
X142278000Y-33440500D03*
X141878000Y-33440500D03*
X141478000Y-33440500D03*
X141078000Y-33440500D03*
X140678000Y-33440500D03*
X140278000Y-33440500D03*
X139878000Y-33440500D03*
X139478000Y-33440500D03*
X139078000Y-33440500D03*
D35*
X138240500Y-34278000D03*
X138240500Y-34678000D03*
X138240500Y-35078000D03*
X138240500Y-35478000D03*
X138240500Y-35878000D03*
X138240500Y-36278000D03*
X138240500Y-36678000D03*
X138240500Y-37078000D03*
X138240500Y-37478000D03*
X138240500Y-37878000D03*
X138240500Y-38278000D03*
X138240500Y-38678000D03*
X138240500Y-39078000D03*
X138240500Y-39478000D03*
D36*
X141678000Y-36878000D03*
%TD*%
D20*
%TO.C,C18*%
X118500000Y-31480000D03*
X118500000Y-30520000D03*
%TD*%
D37*
%TO.C,U2*%
X125972000Y-37978000D03*
X125972000Y-35678000D03*
D38*
X119672000Y-35678000D03*
D37*
X125972000Y-33378000D03*
%TD*%
D10*
%TO.C,JP6*%
X195420000Y-42550000D03*
D11*
X196720000Y-42550000D03*
%TD*%
D39*
%TO.C,J2*%
X155380000Y-31430000D03*
X153380000Y-31430000D03*
X151380000Y-31430000D03*
%TD*%
D17*
%TO.C,C1*%
X125040000Y-30000000D03*
X126000000Y-30000000D03*
%TD*%
D10*
%TO.C,JP1*%
X195420000Y-30000000D03*
D11*
X196720000Y-30000000D03*
%TD*%
D19*
%TO.C,C9*%
X134978750Y-38430000D03*
X134018750Y-38430000D03*
%TD*%
D21*
%TO.C,SW17_W1*%
X169431583Y-52470425D03*
D22*
X174124891Y-54414457D03*
D21*
X178818199Y-56358489D03*
D23*
X171576926Y-50609779D03*
X178415577Y-50693165D03*
%TD*%
D17*
%TO.C,C5*%
X128536000Y-47254000D03*
X129496000Y-47254000D03*
%TD*%
D19*
%TO.C,C4*%
X153360000Y-33680000D03*
X152400000Y-33680000D03*
%TD*%
D10*
%TO.C,JP9*%
X195420000Y-50050000D03*
D11*
X196720000Y-50050000D03*
%TD*%
D20*
%TO.C,C16*%
X140380000Y-31410000D03*
X140380000Y-30450000D03*
%TD*%
D10*
%TO.C,JP5*%
X195420000Y-40050000D03*
D11*
X196720000Y-40050000D03*
%TD*%
D20*
%TO.C,C15*%
X142630000Y-31390000D03*
X142630000Y-30430000D03*
%TD*%
D10*
%TO.C,JP7*%
X195420000Y-45050000D03*
D11*
X196720000Y-45050000D03*
%TD*%
D10*
%TO.C,JP13*%
X195420000Y-107030000D03*
D11*
X196720000Y-107030000D03*
%TD*%
D24*
%TO.C,R3*%
X135620000Y-29680000D03*
X136640000Y-29680000D03*
%TD*%
D17*
%TO.C,C13*%
X142900000Y-42930000D03*
X143860000Y-42930000D03*
%TD*%
D12*
%TO.C,H1*%
X106000000Y-29500000D03*
%TD*%
D20*
%TO.C,C17*%
X119745000Y-31478000D03*
X119745000Y-30518000D03*
%TD*%
M02*
