M48
; DRILL file {KiCad 8.0.4} date 2024-07-23T18:00:41-0700
; FORMAT={-:-/ absolute / inch / decimal}
; #@! TF.CreationDate,2024-07-23T18:00:41-07:00
; #@! TF.GenerationSoftware,Kicad,Pcbnew,8.0.4
; #@! TF.FileFunction,Plated,1,2,PTH
FMAT,2
INCH
; #@! TA.AperFunction,Plated,PTH,ComponentDrill
T1C0.0138
; #@! TA.AperFunction,Plated,PTH,ViaDrill
T2C0.0157
; #@! TA.AperFunction,Plated,PTH,ComponentDrill
T3C0.0236
; #@! TA.AperFunction,Plated,PTH,ComponentDrill
T4C0.0276
; #@! TA.AperFunction,Plated,PTH,ComponentDrill
T5C0.0591
%
G90
G05
T1
X5.5394Y-1.4104
X5.5394Y-1.4504
X5.5394Y-1.4904
X5.5794Y-1.4104
X5.5794Y-1.4504
X5.5794Y-1.4904
X5.6194Y-1.4104
X5.6194Y-1.4504
X5.6194Y-1.4904
T2
X4.4047Y-1.572
X4.7115Y-1.5754
X4.7144Y-1.1504
X4.9594Y-1.5654
X5.0344Y-1.2304
X5.074Y-1.3358
X5.2669Y-1.6379
X5.3496Y-1.2177
X5.4185Y-1.2374
X5.4579Y-1.6508
X5.4594Y-1.7804
X5.5701Y-1.2374
X5.576Y-1.139
X5.6646Y-1.7295
X5.763Y-1.7098
X5.7744Y-1.5104
X5.8614Y-1.3555
X5.9205Y-1.3457
X6.1344Y-1.3854
X7.5984Y-1.1811
T4
X5.9598Y-1.2374
X6.0386Y-1.2374
X6.1173Y-1.2374
T5
X4.4563Y-2.7343
X4.7063Y-2.6343
X5.7751Y-2.3984
X6.0443Y-2.4017
X6.468Y-2.6854
X6.7372Y-2.6887
X6.755Y-1.9925
X7.0242Y-1.9958
X7.1006Y-3.1179
X7.3699Y-3.1212
T3
G00X5.0811Y-0.9057
M15
G01X5.0811Y-0.8742
M16
G05
G00X5.0811Y-1.0746
M15
G01X5.0811Y-1.0313
M16
G05
G00X5.4213Y-0.9057
M15
G01X5.4213Y-0.8742
M16
G05
G00X5.4213Y-1.0746
M15
G01X5.4213Y-1.0313
M16
G05
M30
