%TF.GenerationSoftware,KiCad,Pcbnew,8.0.4*%
%TF.CreationDate,2024-07-23T18:00:42-07:00*%
%TF.ProjectId,2board_a,32626f61-7264-45f6-912e-6b696361645f,rev?*%
%TF.SameCoordinates,Original*%
%TF.FileFunction,Drillmap*%
%TF.FilePolarity,Positive*%
%FSLAX45Y45*%
G04 Gerber Fmt 4.5, Leading zero omitted, Abs format (unit mm)*
G04 Created by KiCad (PCBNEW 8.0.4) date 2024-07-23 18:00:42*
%MOMM*%
%LPD*%
G01*
G04 APERTURE LIST*
%ADD10C,0.100000*%
%ADD11C,0.200000*%
%ADD12C,0.150000*%
G04 APERTURE END LIST*
D10*
X12750000Y-2000000D02*
X13900000Y-2000000D01*
X12750000Y-2500000D02*
X12750000Y-2000000D01*
X10100000Y-2500000D02*
X12750000Y-2500000D01*
X19600000Y-2500000D02*
X19600000Y-11200000D01*
X13900000Y-2500000D02*
X19600000Y-2500000D01*
X19600000Y-11200000D02*
X10100000Y-11200000D01*
X13900000Y-2000000D02*
X13900000Y-2500000D01*
X10100000Y-11200000D02*
X10100000Y-2500000D01*
D11*
D10*
X14052500Y-3564900D02*
X14087500Y-3599900D01*
X14087500Y-3564900D02*
X14052500Y-3599900D01*
X14052500Y-3666500D02*
X14087500Y-3701500D01*
X14087500Y-3666500D02*
X14052500Y-3701500D01*
X14052500Y-3768100D02*
X14087500Y-3803100D01*
X14087500Y-3768100D02*
X14052500Y-3803100D01*
X14154100Y-3564900D02*
X14189100Y-3599900D01*
X14189100Y-3564900D02*
X14154100Y-3599900D01*
X14154100Y-3666500D02*
X14189100Y-3701500D01*
X14189100Y-3666500D02*
X14154100Y-3701500D01*
X14154100Y-3768100D02*
X14189100Y-3803100D01*
X14189100Y-3768100D02*
X14154100Y-3803100D01*
X14255700Y-3564900D02*
X14290700Y-3599900D01*
X14290700Y-3564900D02*
X14255700Y-3599900D01*
X14255700Y-3666500D02*
X14290700Y-3701500D01*
X14290700Y-3666500D02*
X14255700Y-3701500D01*
X14255700Y-3768100D02*
X14290700Y-3803100D01*
X14290700Y-3768100D02*
X14255700Y-3803100D01*
X11208000Y-3993000D02*
G75*
G02*
X11168000Y-3993000I-20000J0D01*
G01*
X11168000Y-3993000D02*
G75*
G02*
X11208000Y-3993000I20000J0D01*
G01*
X11987200Y-4001500D02*
G75*
G02*
X11947200Y-4001500I-20000J0D01*
G01*
X11947200Y-4001500D02*
G75*
G02*
X11987200Y-4001500I20000J0D01*
G01*
X11994500Y-2922000D02*
G75*
G02*
X11954500Y-2922000I-20000J0D01*
G01*
X11954500Y-2922000D02*
G75*
G02*
X11994500Y-2922000I20000J0D01*
G01*
X12616800Y-3976100D02*
G75*
G02*
X12576800Y-3976100I-20000J0D01*
G01*
X12576800Y-3976100D02*
G75*
G02*
X12616800Y-3976100I20000J0D01*
G01*
X12807300Y-3125200D02*
G75*
G02*
X12767300Y-3125200I-20000J0D01*
G01*
X12767300Y-3125200D02*
G75*
G02*
X12807300Y-3125200I20000J0D01*
G01*
X12908000Y-3393000D02*
G75*
G02*
X12868000Y-3393000I-20000J0D01*
G01*
X12868000Y-3393000D02*
G75*
G02*
X12908000Y-3393000I20000J0D01*
G01*
X13397850Y-4160250D02*
G75*
G02*
X13357850Y-4160250I-20000J0D01*
G01*
X13357850Y-4160250D02*
G75*
G02*
X13397850Y-4160250I20000J0D01*
G01*
X13608000Y-3093000D02*
G75*
G02*
X13568000Y-3093000I-20000J0D01*
G01*
X13568000Y-3093000D02*
G75*
G02*
X13608000Y-3093000I20000J0D01*
G01*
X13783000Y-3143000D02*
G75*
G02*
X13743000Y-3143000I-20000J0D01*
G01*
X13743000Y-3143000D02*
G75*
G02*
X13783000Y-3143000I20000J0D01*
G01*
X13883000Y-4193000D02*
G75*
G02*
X13843000Y-4193000I-20000J0D01*
G01*
X13843000Y-4193000D02*
G75*
G02*
X13883000Y-4193000I20000J0D01*
G01*
X13886800Y-4522200D02*
G75*
G02*
X13846800Y-4522200I-20000J0D01*
G01*
X13846800Y-4522200D02*
G75*
G02*
X13886800Y-4522200I20000J0D01*
G01*
X14168000Y-3143000D02*
G75*
G02*
X14128000Y-3143000I-20000J0D01*
G01*
X14128000Y-3143000D02*
G75*
G02*
X14168000Y-3143000I20000J0D01*
G01*
X14183000Y-2893000D02*
G75*
G02*
X14143000Y-2893000I-20000J0D01*
G01*
X14143000Y-2893000D02*
G75*
G02*
X14183000Y-2893000I20000J0D01*
G01*
X14408000Y-4393000D02*
G75*
G02*
X14368000Y-4393000I-20000J0D01*
G01*
X14368000Y-4393000D02*
G75*
G02*
X14408000Y-4393000I20000J0D01*
G01*
X14658000Y-4343000D02*
G75*
G02*
X14618000Y-4343000I-20000J0D01*
G01*
X14618000Y-4343000D02*
G75*
G02*
X14658000Y-4343000I20000J0D01*
G01*
X14686900Y-3836400D02*
G75*
G02*
X14646900Y-3836400I-20000J0D01*
G01*
X14646900Y-3836400D02*
G75*
G02*
X14686900Y-3836400I20000J0D01*
G01*
X14908000Y-3443000D02*
G75*
G02*
X14868000Y-3443000I-20000J0D01*
G01*
X14868000Y-3443000D02*
G75*
G02*
X14908000Y-3443000I20000J0D01*
G01*
X15058000Y-3418000D02*
G75*
G02*
X15018000Y-3418000I-20000J0D01*
G01*
X15018000Y-3418000D02*
G75*
G02*
X15058000Y-3418000I20000J0D01*
G01*
X15601300Y-3518900D02*
G75*
G02*
X15561300Y-3518900I-20000J0D01*
G01*
X15561300Y-3518900D02*
G75*
G02*
X15601300Y-3518900I20000J0D01*
G01*
X19320000Y-3000000D02*
G75*
G02*
X19280000Y-3000000I-20000J0D01*
G01*
X19280000Y-3000000D02*
G75*
G02*
X19320000Y-3000000I20000J0D01*
G01*
X12906000Y-2230500D02*
X12906000Y-2290500D01*
X12876000Y-2260500D02*
X12936000Y-2260500D01*
X12936000Y-2300500D02*
X12936000Y-2220500D01*
X12876000Y-2220500D02*
G75*
G02*
X12936000Y-2220500I30000J0D01*
G01*
X12876000Y-2220500D02*
X12876000Y-2300500D01*
X12876000Y-2300500D02*
G75*
G03*
X12936000Y-2300500I30000J0D01*
G01*
X12906000Y-2644500D02*
X12906000Y-2704500D01*
X12876000Y-2674500D02*
X12936000Y-2674500D01*
X12936000Y-2729500D02*
X12936000Y-2619500D01*
X12876000Y-2619500D02*
G75*
G02*
X12936000Y-2619500I30000J0D01*
G01*
X12876000Y-2619500D02*
X12876000Y-2729500D01*
X12876000Y-2729500D02*
G75*
G03*
X12936000Y-2729500I30000J0D01*
G01*
X13770000Y-2230500D02*
X13770000Y-2290500D01*
X13740000Y-2260500D02*
X13800000Y-2260500D01*
X13800000Y-2300500D02*
X13800000Y-2220500D01*
X13740000Y-2220500D02*
G75*
G02*
X13800000Y-2220500I30000J0D01*
G01*
X13740000Y-2220500D02*
X13740000Y-2300500D01*
X13740000Y-2300500D02*
G75*
G03*
X13800000Y-2300500I30000J0D01*
G01*
X13770000Y-2644500D02*
X13770000Y-2704500D01*
X13740000Y-2674500D02*
X13800000Y-2674500D01*
X13800000Y-2729500D02*
X13800000Y-2619500D01*
X13740000Y-2619500D02*
G75*
G02*
X13800000Y-2619500I30000J0D01*
G01*
X13740000Y-2619500D02*
X13740000Y-2729500D01*
X13740000Y-2729500D02*
G75*
G03*
X13800000Y-2729500I30000J0D01*
G01*
X15162749Y-3167749D02*
X15162749Y-3118251D01*
X15113251Y-3118251D01*
X15113251Y-3167749D01*
X15162749Y-3167749D01*
X15362749Y-3167749D02*
X15362749Y-3118251D01*
X15313251Y-3118251D01*
X15313251Y-3167749D01*
X15362749Y-3167749D01*
X15562749Y-3167749D02*
X15562749Y-3118251D01*
X15513251Y-3118251D01*
X15513251Y-3167749D01*
X15562749Y-3167749D01*
D12*
X11319000Y-7020170D02*
X11394000Y-6945170D01*
X11319000Y-6870170D01*
X11244000Y-6945170D01*
X11319000Y-7020170D01*
X11954000Y-6766170D02*
X12029000Y-6691170D01*
X11954000Y-6616170D01*
X11879000Y-6691170D01*
X11954000Y-6766170D01*
X14668690Y-6166956D02*
X14743690Y-6091956D01*
X14668690Y-6016956D01*
X14593690Y-6091956D01*
X14668690Y-6166956D01*
X15352555Y-6175295D02*
X15427555Y-6100295D01*
X15352555Y-6025295D01*
X15277555Y-6100295D01*
X15352555Y-6175295D01*
X16428681Y-6895968D02*
X16503681Y-6820968D01*
X16428681Y-6745968D01*
X16353681Y-6820968D01*
X16428681Y-6895968D01*
X17112546Y-6904307D02*
X17187546Y-6829307D01*
X17112546Y-6754307D01*
X17037546Y-6829307D01*
X17112546Y-6904307D01*
X17157693Y-5135978D02*
X17232693Y-5060978D01*
X17157693Y-4985978D01*
X17082693Y-5060978D01*
X17157693Y-5135978D01*
X17841558Y-5144317D02*
X17916558Y-5069317D01*
X17841558Y-4994317D01*
X17766558Y-5069317D01*
X17841558Y-5144317D01*
X18035598Y-7994532D02*
X18110598Y-7919532D01*
X18035598Y-7844532D01*
X17960598Y-7919532D01*
X18035598Y-7994532D01*
X18719463Y-8002871D02*
X18794463Y-7927871D01*
X18719463Y-7852871D01*
X18644463Y-7927871D01*
X18719463Y-8002871D01*
D11*
X10355777Y-11516484D02*
X10355777Y-11316484D01*
X10355777Y-11316484D02*
X10403396Y-11316484D01*
X10403396Y-11316484D02*
X10431967Y-11326008D01*
X10431967Y-11326008D02*
X10451015Y-11345055D01*
X10451015Y-11345055D02*
X10460539Y-11364103D01*
X10460539Y-11364103D02*
X10470063Y-11402198D01*
X10470063Y-11402198D02*
X10470063Y-11430769D01*
X10470063Y-11430769D02*
X10460539Y-11468865D01*
X10460539Y-11468865D02*
X10451015Y-11487912D01*
X10451015Y-11487912D02*
X10431967Y-11506960D01*
X10431967Y-11506960D02*
X10403396Y-11516484D01*
X10403396Y-11516484D02*
X10355777Y-11516484D01*
X10555777Y-11516484D02*
X10555777Y-11383150D01*
X10555777Y-11421246D02*
X10565301Y-11402198D01*
X10565301Y-11402198D02*
X10574824Y-11392674D01*
X10574824Y-11392674D02*
X10593872Y-11383150D01*
X10593872Y-11383150D02*
X10612920Y-11383150D01*
X10679586Y-11516484D02*
X10679586Y-11383150D01*
X10679586Y-11316484D02*
X10670063Y-11326008D01*
X10670063Y-11326008D02*
X10679586Y-11335531D01*
X10679586Y-11335531D02*
X10689110Y-11326008D01*
X10689110Y-11326008D02*
X10679586Y-11316484D01*
X10679586Y-11316484D02*
X10679586Y-11335531D01*
X10803396Y-11516484D02*
X10784348Y-11506960D01*
X10784348Y-11506960D02*
X10774824Y-11487912D01*
X10774824Y-11487912D02*
X10774824Y-11316484D01*
X10908158Y-11516484D02*
X10889110Y-11506960D01*
X10889110Y-11506960D02*
X10879586Y-11487912D01*
X10879586Y-11487912D02*
X10879586Y-11316484D01*
X11136729Y-11516484D02*
X11136729Y-11316484D01*
X11136729Y-11316484D02*
X11203396Y-11459341D01*
X11203396Y-11459341D02*
X11270062Y-11316484D01*
X11270062Y-11316484D02*
X11270062Y-11516484D01*
X11451015Y-11516484D02*
X11451015Y-11411722D01*
X11451015Y-11411722D02*
X11441491Y-11392674D01*
X11441491Y-11392674D02*
X11422443Y-11383150D01*
X11422443Y-11383150D02*
X11384348Y-11383150D01*
X11384348Y-11383150D02*
X11365301Y-11392674D01*
X11451015Y-11506960D02*
X11431967Y-11516484D01*
X11431967Y-11516484D02*
X11384348Y-11516484D01*
X11384348Y-11516484D02*
X11365301Y-11506960D01*
X11365301Y-11506960D02*
X11355777Y-11487912D01*
X11355777Y-11487912D02*
X11355777Y-11468865D01*
X11355777Y-11468865D02*
X11365301Y-11449817D01*
X11365301Y-11449817D02*
X11384348Y-11440293D01*
X11384348Y-11440293D02*
X11431967Y-11440293D01*
X11431967Y-11440293D02*
X11451015Y-11430769D01*
X11546253Y-11383150D02*
X11546253Y-11583150D01*
X11546253Y-11392674D02*
X11565301Y-11383150D01*
X11565301Y-11383150D02*
X11603396Y-11383150D01*
X11603396Y-11383150D02*
X11622443Y-11392674D01*
X11622443Y-11392674D02*
X11631967Y-11402198D01*
X11631967Y-11402198D02*
X11641491Y-11421246D01*
X11641491Y-11421246D02*
X11641491Y-11478388D01*
X11641491Y-11478388D02*
X11631967Y-11497436D01*
X11631967Y-11497436D02*
X11622443Y-11506960D01*
X11622443Y-11506960D02*
X11603396Y-11516484D01*
X11603396Y-11516484D02*
X11565301Y-11516484D01*
X11565301Y-11516484D02*
X11546253Y-11506960D01*
X11727205Y-11497436D02*
X11736729Y-11506960D01*
X11736729Y-11506960D02*
X11727205Y-11516484D01*
X11727205Y-11516484D02*
X11717682Y-11506960D01*
X11717682Y-11506960D02*
X11727205Y-11497436D01*
X11727205Y-11497436D02*
X11727205Y-11516484D01*
X11727205Y-11392674D02*
X11736729Y-11402198D01*
X11736729Y-11402198D02*
X11727205Y-11411722D01*
X11727205Y-11411722D02*
X11717682Y-11402198D01*
X11717682Y-11402198D02*
X11727205Y-11392674D01*
X11727205Y-11392674D02*
X11727205Y-11411722D01*
D10*
X10060000Y-11827500D02*
X10095000Y-11862500D01*
X10095000Y-11827500D02*
X10060000Y-11862500D01*
D11*
X10393872Y-11736484D02*
X10412920Y-11736484D01*
X10412920Y-11736484D02*
X10431967Y-11746008D01*
X10431967Y-11746008D02*
X10441491Y-11755531D01*
X10441491Y-11755531D02*
X10451015Y-11774579D01*
X10451015Y-11774579D02*
X10460539Y-11812674D01*
X10460539Y-11812674D02*
X10460539Y-11860293D01*
X10460539Y-11860293D02*
X10451015Y-11898388D01*
X10451015Y-11898388D02*
X10441491Y-11917436D01*
X10441491Y-11917436D02*
X10431967Y-11926960D01*
X10431967Y-11926960D02*
X10412920Y-11936484D01*
X10412920Y-11936484D02*
X10393872Y-11936484D01*
X10393872Y-11936484D02*
X10374824Y-11926960D01*
X10374824Y-11926960D02*
X10365301Y-11917436D01*
X10365301Y-11917436D02*
X10355777Y-11898388D01*
X10355777Y-11898388D02*
X10346253Y-11860293D01*
X10346253Y-11860293D02*
X10346253Y-11812674D01*
X10346253Y-11812674D02*
X10355777Y-11774579D01*
X10355777Y-11774579D02*
X10365301Y-11755531D01*
X10365301Y-11755531D02*
X10374824Y-11746008D01*
X10374824Y-11746008D02*
X10393872Y-11736484D01*
X10546253Y-11917436D02*
X10555777Y-11926960D01*
X10555777Y-11926960D02*
X10546253Y-11936484D01*
X10546253Y-11936484D02*
X10536729Y-11926960D01*
X10536729Y-11926960D02*
X10546253Y-11917436D01*
X10546253Y-11917436D02*
X10546253Y-11936484D01*
X10622444Y-11736484D02*
X10746253Y-11736484D01*
X10746253Y-11736484D02*
X10679586Y-11812674D01*
X10679586Y-11812674D02*
X10708158Y-11812674D01*
X10708158Y-11812674D02*
X10727205Y-11822198D01*
X10727205Y-11822198D02*
X10736729Y-11831722D01*
X10736729Y-11831722D02*
X10746253Y-11850769D01*
X10746253Y-11850769D02*
X10746253Y-11898388D01*
X10746253Y-11898388D02*
X10736729Y-11917436D01*
X10736729Y-11917436D02*
X10727205Y-11926960D01*
X10727205Y-11926960D02*
X10708158Y-11936484D01*
X10708158Y-11936484D02*
X10651015Y-11936484D01*
X10651015Y-11936484D02*
X10631967Y-11926960D01*
X10631967Y-11926960D02*
X10622444Y-11917436D01*
X10927205Y-11736484D02*
X10831967Y-11736484D01*
X10831967Y-11736484D02*
X10822444Y-11831722D01*
X10822444Y-11831722D02*
X10831967Y-11822198D01*
X10831967Y-11822198D02*
X10851015Y-11812674D01*
X10851015Y-11812674D02*
X10898634Y-11812674D01*
X10898634Y-11812674D02*
X10917682Y-11822198D01*
X10917682Y-11822198D02*
X10927205Y-11831722D01*
X10927205Y-11831722D02*
X10936729Y-11850769D01*
X10936729Y-11850769D02*
X10936729Y-11898388D01*
X10936729Y-11898388D02*
X10927205Y-11917436D01*
X10927205Y-11917436D02*
X10917682Y-11926960D01*
X10917682Y-11926960D02*
X10898634Y-11936484D01*
X10898634Y-11936484D02*
X10851015Y-11936484D01*
X10851015Y-11936484D02*
X10831967Y-11926960D01*
X10831967Y-11926960D02*
X10822444Y-11917436D01*
X11060539Y-11736484D02*
X11079586Y-11736484D01*
X11079586Y-11736484D02*
X11098634Y-11746008D01*
X11098634Y-11746008D02*
X11108158Y-11755531D01*
X11108158Y-11755531D02*
X11117682Y-11774579D01*
X11117682Y-11774579D02*
X11127205Y-11812674D01*
X11127205Y-11812674D02*
X11127205Y-11860293D01*
X11127205Y-11860293D02*
X11117682Y-11898388D01*
X11117682Y-11898388D02*
X11108158Y-11917436D01*
X11108158Y-11917436D02*
X11098634Y-11926960D01*
X11098634Y-11926960D02*
X11079586Y-11936484D01*
X11079586Y-11936484D02*
X11060539Y-11936484D01*
X11060539Y-11936484D02*
X11041491Y-11926960D01*
X11041491Y-11926960D02*
X11031967Y-11917436D01*
X11031967Y-11917436D02*
X11022444Y-11898388D01*
X11022444Y-11898388D02*
X11012920Y-11860293D01*
X11012920Y-11860293D02*
X11012920Y-11812674D01*
X11012920Y-11812674D02*
X11022444Y-11774579D01*
X11022444Y-11774579D02*
X11031967Y-11755531D01*
X11031967Y-11755531D02*
X11041491Y-11746008D01*
X11041491Y-11746008D02*
X11060539Y-11736484D01*
X11212920Y-11936484D02*
X11212920Y-11803150D01*
X11212920Y-11822198D02*
X11222443Y-11812674D01*
X11222443Y-11812674D02*
X11241491Y-11803150D01*
X11241491Y-11803150D02*
X11270063Y-11803150D01*
X11270063Y-11803150D02*
X11289110Y-11812674D01*
X11289110Y-11812674D02*
X11298634Y-11831722D01*
X11298634Y-11831722D02*
X11298634Y-11936484D01*
X11298634Y-11831722D02*
X11308158Y-11812674D01*
X11308158Y-11812674D02*
X11327205Y-11803150D01*
X11327205Y-11803150D02*
X11355777Y-11803150D01*
X11355777Y-11803150D02*
X11374824Y-11812674D01*
X11374824Y-11812674D02*
X11384348Y-11831722D01*
X11384348Y-11831722D02*
X11384348Y-11936484D01*
X11479586Y-11936484D02*
X11479586Y-11803150D01*
X11479586Y-11822198D02*
X11489110Y-11812674D01*
X11489110Y-11812674D02*
X11508158Y-11803150D01*
X11508158Y-11803150D02*
X11536729Y-11803150D01*
X11536729Y-11803150D02*
X11555777Y-11812674D01*
X11555777Y-11812674D02*
X11565301Y-11831722D01*
X11565301Y-11831722D02*
X11565301Y-11936484D01*
X11565301Y-11831722D02*
X11574824Y-11812674D01*
X11574824Y-11812674D02*
X11593872Y-11803150D01*
X11593872Y-11803150D02*
X11622443Y-11803150D01*
X11622443Y-11803150D02*
X11641491Y-11812674D01*
X11641491Y-11812674D02*
X11651015Y-11831722D01*
X11651015Y-11831722D02*
X11651015Y-11936484D01*
X12041491Y-11726960D02*
X11870063Y-11984103D01*
X12298634Y-11736484D02*
X12317682Y-11736484D01*
X12317682Y-11736484D02*
X12336729Y-11746008D01*
X12336729Y-11746008D02*
X12346253Y-11755531D01*
X12346253Y-11755531D02*
X12355777Y-11774579D01*
X12355777Y-11774579D02*
X12365301Y-11812674D01*
X12365301Y-11812674D02*
X12365301Y-11860293D01*
X12365301Y-11860293D02*
X12355777Y-11898388D01*
X12355777Y-11898388D02*
X12346253Y-11917436D01*
X12346253Y-11917436D02*
X12336729Y-11926960D01*
X12336729Y-11926960D02*
X12317682Y-11936484D01*
X12317682Y-11936484D02*
X12298634Y-11936484D01*
X12298634Y-11936484D02*
X12279586Y-11926960D01*
X12279586Y-11926960D02*
X12270063Y-11917436D01*
X12270063Y-11917436D02*
X12260539Y-11898388D01*
X12260539Y-11898388D02*
X12251015Y-11860293D01*
X12251015Y-11860293D02*
X12251015Y-11812674D01*
X12251015Y-11812674D02*
X12260539Y-11774579D01*
X12260539Y-11774579D02*
X12270063Y-11755531D01*
X12270063Y-11755531D02*
X12279586Y-11746008D01*
X12279586Y-11746008D02*
X12298634Y-11736484D01*
X12451015Y-11917436D02*
X12460539Y-11926960D01*
X12460539Y-11926960D02*
X12451015Y-11936484D01*
X12451015Y-11936484D02*
X12441491Y-11926960D01*
X12441491Y-11926960D02*
X12451015Y-11917436D01*
X12451015Y-11917436D02*
X12451015Y-11936484D01*
X12584348Y-11736484D02*
X12603396Y-11736484D01*
X12603396Y-11736484D02*
X12622444Y-11746008D01*
X12622444Y-11746008D02*
X12631967Y-11755531D01*
X12631967Y-11755531D02*
X12641491Y-11774579D01*
X12641491Y-11774579D02*
X12651015Y-11812674D01*
X12651015Y-11812674D02*
X12651015Y-11860293D01*
X12651015Y-11860293D02*
X12641491Y-11898388D01*
X12641491Y-11898388D02*
X12631967Y-11917436D01*
X12631967Y-11917436D02*
X12622444Y-11926960D01*
X12622444Y-11926960D02*
X12603396Y-11936484D01*
X12603396Y-11936484D02*
X12584348Y-11936484D01*
X12584348Y-11936484D02*
X12565301Y-11926960D01*
X12565301Y-11926960D02*
X12555777Y-11917436D01*
X12555777Y-11917436D02*
X12546253Y-11898388D01*
X12546253Y-11898388D02*
X12536729Y-11860293D01*
X12536729Y-11860293D02*
X12536729Y-11812674D01*
X12536729Y-11812674D02*
X12546253Y-11774579D01*
X12546253Y-11774579D02*
X12555777Y-11755531D01*
X12555777Y-11755531D02*
X12565301Y-11746008D01*
X12565301Y-11746008D02*
X12584348Y-11736484D01*
X12841491Y-11936484D02*
X12727206Y-11936484D01*
X12784348Y-11936484D02*
X12784348Y-11736484D01*
X12784348Y-11736484D02*
X12765301Y-11765055D01*
X12765301Y-11765055D02*
X12746253Y-11784103D01*
X12746253Y-11784103D02*
X12727206Y-11793627D01*
X12908158Y-11736484D02*
X13031967Y-11736484D01*
X13031967Y-11736484D02*
X12965301Y-11812674D01*
X12965301Y-11812674D02*
X12993872Y-11812674D01*
X12993872Y-11812674D02*
X13012920Y-11822198D01*
X13012920Y-11822198D02*
X13022444Y-11831722D01*
X13022444Y-11831722D02*
X13031967Y-11850769D01*
X13031967Y-11850769D02*
X13031967Y-11898388D01*
X13031967Y-11898388D02*
X13022444Y-11917436D01*
X13022444Y-11917436D02*
X13012920Y-11926960D01*
X13012920Y-11926960D02*
X12993872Y-11936484D01*
X12993872Y-11936484D02*
X12936729Y-11936484D01*
X12936729Y-11936484D02*
X12917682Y-11926960D01*
X12917682Y-11926960D02*
X12908158Y-11917436D01*
X13146253Y-11822198D02*
X13127206Y-11812674D01*
X13127206Y-11812674D02*
X13117682Y-11803150D01*
X13117682Y-11803150D02*
X13108158Y-11784103D01*
X13108158Y-11784103D02*
X13108158Y-11774579D01*
X13108158Y-11774579D02*
X13117682Y-11755531D01*
X13117682Y-11755531D02*
X13127206Y-11746008D01*
X13127206Y-11746008D02*
X13146253Y-11736484D01*
X13146253Y-11736484D02*
X13184348Y-11736484D01*
X13184348Y-11736484D02*
X13203396Y-11746008D01*
X13203396Y-11746008D02*
X13212920Y-11755531D01*
X13212920Y-11755531D02*
X13222444Y-11774579D01*
X13222444Y-11774579D02*
X13222444Y-11784103D01*
X13222444Y-11784103D02*
X13212920Y-11803150D01*
X13212920Y-11803150D02*
X13203396Y-11812674D01*
X13203396Y-11812674D02*
X13184348Y-11822198D01*
X13184348Y-11822198D02*
X13146253Y-11822198D01*
X13146253Y-11822198D02*
X13127206Y-11831722D01*
X13127206Y-11831722D02*
X13117682Y-11841246D01*
X13117682Y-11841246D02*
X13108158Y-11860293D01*
X13108158Y-11860293D02*
X13108158Y-11898388D01*
X13108158Y-11898388D02*
X13117682Y-11917436D01*
X13117682Y-11917436D02*
X13127206Y-11926960D01*
X13127206Y-11926960D02*
X13146253Y-11936484D01*
X13146253Y-11936484D02*
X13184348Y-11936484D01*
X13184348Y-11936484D02*
X13203396Y-11926960D01*
X13203396Y-11926960D02*
X13212920Y-11917436D01*
X13212920Y-11917436D02*
X13222444Y-11898388D01*
X13222444Y-11898388D02*
X13222444Y-11860293D01*
X13222444Y-11860293D02*
X13212920Y-11841246D01*
X13212920Y-11841246D02*
X13203396Y-11831722D01*
X13203396Y-11831722D02*
X13184348Y-11822198D01*
X13298634Y-11736484D02*
X13298634Y-11774579D01*
X13374825Y-11736484D02*
X13374825Y-11774579D01*
X13670063Y-12012674D02*
X13660539Y-12003150D01*
X13660539Y-12003150D02*
X13641491Y-11974579D01*
X13641491Y-11974579D02*
X13631968Y-11955531D01*
X13631968Y-11955531D02*
X13622444Y-11926960D01*
X13622444Y-11926960D02*
X13612920Y-11879341D01*
X13612920Y-11879341D02*
X13612920Y-11841246D01*
X13612920Y-11841246D02*
X13622444Y-11793627D01*
X13622444Y-11793627D02*
X13631968Y-11765055D01*
X13631968Y-11765055D02*
X13641491Y-11746008D01*
X13641491Y-11746008D02*
X13660539Y-11717436D01*
X13660539Y-11717436D02*
X13670063Y-11707912D01*
X13755777Y-11936484D02*
X13793872Y-11936484D01*
X13793872Y-11936484D02*
X13812920Y-11926960D01*
X13812920Y-11926960D02*
X13822444Y-11917436D01*
X13822444Y-11917436D02*
X13841491Y-11888865D01*
X13841491Y-11888865D02*
X13851015Y-11850769D01*
X13851015Y-11850769D02*
X13851015Y-11774579D01*
X13851015Y-11774579D02*
X13841491Y-11755531D01*
X13841491Y-11755531D02*
X13831968Y-11746008D01*
X13831968Y-11746008D02*
X13812920Y-11736484D01*
X13812920Y-11736484D02*
X13774825Y-11736484D01*
X13774825Y-11736484D02*
X13755777Y-11746008D01*
X13755777Y-11746008D02*
X13746253Y-11755531D01*
X13746253Y-11755531D02*
X13736729Y-11774579D01*
X13736729Y-11774579D02*
X13736729Y-11822198D01*
X13736729Y-11822198D02*
X13746253Y-11841246D01*
X13746253Y-11841246D02*
X13755777Y-11850769D01*
X13755777Y-11850769D02*
X13774825Y-11860293D01*
X13774825Y-11860293D02*
X13812920Y-11860293D01*
X13812920Y-11860293D02*
X13831968Y-11850769D01*
X13831968Y-11850769D02*
X13841491Y-11841246D01*
X13841491Y-11841246D02*
X13851015Y-11822198D01*
X14089110Y-11936484D02*
X14089110Y-11736484D01*
X14174825Y-11936484D02*
X14174825Y-11831722D01*
X14174825Y-11831722D02*
X14165301Y-11812674D01*
X14165301Y-11812674D02*
X14146253Y-11803150D01*
X14146253Y-11803150D02*
X14117682Y-11803150D01*
X14117682Y-11803150D02*
X14098634Y-11812674D01*
X14098634Y-11812674D02*
X14089110Y-11822198D01*
X14298634Y-11936484D02*
X14279587Y-11926960D01*
X14279587Y-11926960D02*
X14270063Y-11917436D01*
X14270063Y-11917436D02*
X14260539Y-11898388D01*
X14260539Y-11898388D02*
X14260539Y-11841246D01*
X14260539Y-11841246D02*
X14270063Y-11822198D01*
X14270063Y-11822198D02*
X14279587Y-11812674D01*
X14279587Y-11812674D02*
X14298634Y-11803150D01*
X14298634Y-11803150D02*
X14327206Y-11803150D01*
X14327206Y-11803150D02*
X14346253Y-11812674D01*
X14346253Y-11812674D02*
X14355777Y-11822198D01*
X14355777Y-11822198D02*
X14365301Y-11841246D01*
X14365301Y-11841246D02*
X14365301Y-11898388D01*
X14365301Y-11898388D02*
X14355777Y-11917436D01*
X14355777Y-11917436D02*
X14346253Y-11926960D01*
X14346253Y-11926960D02*
X14327206Y-11936484D01*
X14327206Y-11936484D02*
X14298634Y-11936484D01*
X14479587Y-11936484D02*
X14460539Y-11926960D01*
X14460539Y-11926960D02*
X14451015Y-11907912D01*
X14451015Y-11907912D02*
X14451015Y-11736484D01*
X14631968Y-11926960D02*
X14612920Y-11936484D01*
X14612920Y-11936484D02*
X14574825Y-11936484D01*
X14574825Y-11936484D02*
X14555777Y-11926960D01*
X14555777Y-11926960D02*
X14546253Y-11907912D01*
X14546253Y-11907912D02*
X14546253Y-11831722D01*
X14546253Y-11831722D02*
X14555777Y-11812674D01*
X14555777Y-11812674D02*
X14574825Y-11803150D01*
X14574825Y-11803150D02*
X14612920Y-11803150D01*
X14612920Y-11803150D02*
X14631968Y-11812674D01*
X14631968Y-11812674D02*
X14641491Y-11831722D01*
X14641491Y-11831722D02*
X14641491Y-11850769D01*
X14641491Y-11850769D02*
X14546253Y-11869817D01*
X14717682Y-11926960D02*
X14736730Y-11936484D01*
X14736730Y-11936484D02*
X14774825Y-11936484D01*
X14774825Y-11936484D02*
X14793872Y-11926960D01*
X14793872Y-11926960D02*
X14803396Y-11907912D01*
X14803396Y-11907912D02*
X14803396Y-11898388D01*
X14803396Y-11898388D02*
X14793872Y-11879341D01*
X14793872Y-11879341D02*
X14774825Y-11869817D01*
X14774825Y-11869817D02*
X14746253Y-11869817D01*
X14746253Y-11869817D02*
X14727206Y-11860293D01*
X14727206Y-11860293D02*
X14717682Y-11841246D01*
X14717682Y-11841246D02*
X14717682Y-11831722D01*
X14717682Y-11831722D02*
X14727206Y-11812674D01*
X14727206Y-11812674D02*
X14746253Y-11803150D01*
X14746253Y-11803150D02*
X14774825Y-11803150D01*
X14774825Y-11803150D02*
X14793872Y-11812674D01*
X14870063Y-12012674D02*
X14879587Y-12003150D01*
X14879587Y-12003150D02*
X14898634Y-11974579D01*
X14898634Y-11974579D02*
X14908158Y-11955531D01*
X14908158Y-11955531D02*
X14917682Y-11926960D01*
X14917682Y-11926960D02*
X14927206Y-11879341D01*
X14927206Y-11879341D02*
X14927206Y-11841246D01*
X14927206Y-11841246D02*
X14917682Y-11793627D01*
X14917682Y-11793627D02*
X14908158Y-11765055D01*
X14908158Y-11765055D02*
X14898634Y-11746008D01*
X14898634Y-11746008D02*
X14879587Y-11717436D01*
X14879587Y-11717436D02*
X14870063Y-11707912D01*
D10*
X10095000Y-12109000D02*
G75*
G02*
X10055000Y-12109000I-20000J0D01*
G01*
X10055000Y-12109000D02*
G75*
G02*
X10095000Y-12109000I20000J0D01*
G01*
D11*
X10393872Y-12000484D02*
X10412920Y-12000484D01*
X10412920Y-12000484D02*
X10431967Y-12010008D01*
X10431967Y-12010008D02*
X10441491Y-12019531D01*
X10441491Y-12019531D02*
X10451015Y-12038579D01*
X10451015Y-12038579D02*
X10460539Y-12076674D01*
X10460539Y-12076674D02*
X10460539Y-12124293D01*
X10460539Y-12124293D02*
X10451015Y-12162388D01*
X10451015Y-12162388D02*
X10441491Y-12181436D01*
X10441491Y-12181436D02*
X10431967Y-12190960D01*
X10431967Y-12190960D02*
X10412920Y-12200484D01*
X10412920Y-12200484D02*
X10393872Y-12200484D01*
X10393872Y-12200484D02*
X10374824Y-12190960D01*
X10374824Y-12190960D02*
X10365301Y-12181436D01*
X10365301Y-12181436D02*
X10355777Y-12162388D01*
X10355777Y-12162388D02*
X10346253Y-12124293D01*
X10346253Y-12124293D02*
X10346253Y-12076674D01*
X10346253Y-12076674D02*
X10355777Y-12038579D01*
X10355777Y-12038579D02*
X10365301Y-12019531D01*
X10365301Y-12019531D02*
X10374824Y-12010008D01*
X10374824Y-12010008D02*
X10393872Y-12000484D01*
X10546253Y-12181436D02*
X10555777Y-12190960D01*
X10555777Y-12190960D02*
X10546253Y-12200484D01*
X10546253Y-12200484D02*
X10536729Y-12190960D01*
X10536729Y-12190960D02*
X10546253Y-12181436D01*
X10546253Y-12181436D02*
X10546253Y-12200484D01*
X10727205Y-12067150D02*
X10727205Y-12200484D01*
X10679586Y-11990960D02*
X10631967Y-12133817D01*
X10631967Y-12133817D02*
X10755777Y-12133817D01*
X10870063Y-12000484D02*
X10889110Y-12000484D01*
X10889110Y-12000484D02*
X10908158Y-12010008D01*
X10908158Y-12010008D02*
X10917682Y-12019531D01*
X10917682Y-12019531D02*
X10927205Y-12038579D01*
X10927205Y-12038579D02*
X10936729Y-12076674D01*
X10936729Y-12076674D02*
X10936729Y-12124293D01*
X10936729Y-12124293D02*
X10927205Y-12162388D01*
X10927205Y-12162388D02*
X10917682Y-12181436D01*
X10917682Y-12181436D02*
X10908158Y-12190960D01*
X10908158Y-12190960D02*
X10889110Y-12200484D01*
X10889110Y-12200484D02*
X10870063Y-12200484D01*
X10870063Y-12200484D02*
X10851015Y-12190960D01*
X10851015Y-12190960D02*
X10841491Y-12181436D01*
X10841491Y-12181436D02*
X10831967Y-12162388D01*
X10831967Y-12162388D02*
X10822444Y-12124293D01*
X10822444Y-12124293D02*
X10822444Y-12076674D01*
X10822444Y-12076674D02*
X10831967Y-12038579D01*
X10831967Y-12038579D02*
X10841491Y-12019531D01*
X10841491Y-12019531D02*
X10851015Y-12010008D01*
X10851015Y-12010008D02*
X10870063Y-12000484D01*
X11060539Y-12000484D02*
X11079586Y-12000484D01*
X11079586Y-12000484D02*
X11098634Y-12010008D01*
X11098634Y-12010008D02*
X11108158Y-12019531D01*
X11108158Y-12019531D02*
X11117682Y-12038579D01*
X11117682Y-12038579D02*
X11127205Y-12076674D01*
X11127205Y-12076674D02*
X11127205Y-12124293D01*
X11127205Y-12124293D02*
X11117682Y-12162388D01*
X11117682Y-12162388D02*
X11108158Y-12181436D01*
X11108158Y-12181436D02*
X11098634Y-12190960D01*
X11098634Y-12190960D02*
X11079586Y-12200484D01*
X11079586Y-12200484D02*
X11060539Y-12200484D01*
X11060539Y-12200484D02*
X11041491Y-12190960D01*
X11041491Y-12190960D02*
X11031967Y-12181436D01*
X11031967Y-12181436D02*
X11022444Y-12162388D01*
X11022444Y-12162388D02*
X11012920Y-12124293D01*
X11012920Y-12124293D02*
X11012920Y-12076674D01*
X11012920Y-12076674D02*
X11022444Y-12038579D01*
X11022444Y-12038579D02*
X11031967Y-12019531D01*
X11031967Y-12019531D02*
X11041491Y-12010008D01*
X11041491Y-12010008D02*
X11060539Y-12000484D01*
X11212920Y-12200484D02*
X11212920Y-12067150D01*
X11212920Y-12086198D02*
X11222443Y-12076674D01*
X11222443Y-12076674D02*
X11241491Y-12067150D01*
X11241491Y-12067150D02*
X11270063Y-12067150D01*
X11270063Y-12067150D02*
X11289110Y-12076674D01*
X11289110Y-12076674D02*
X11298634Y-12095722D01*
X11298634Y-12095722D02*
X11298634Y-12200484D01*
X11298634Y-12095722D02*
X11308158Y-12076674D01*
X11308158Y-12076674D02*
X11327205Y-12067150D01*
X11327205Y-12067150D02*
X11355777Y-12067150D01*
X11355777Y-12067150D02*
X11374824Y-12076674D01*
X11374824Y-12076674D02*
X11384348Y-12095722D01*
X11384348Y-12095722D02*
X11384348Y-12200484D01*
X11479586Y-12200484D02*
X11479586Y-12067150D01*
X11479586Y-12086198D02*
X11489110Y-12076674D01*
X11489110Y-12076674D02*
X11508158Y-12067150D01*
X11508158Y-12067150D02*
X11536729Y-12067150D01*
X11536729Y-12067150D02*
X11555777Y-12076674D01*
X11555777Y-12076674D02*
X11565301Y-12095722D01*
X11565301Y-12095722D02*
X11565301Y-12200484D01*
X11565301Y-12095722D02*
X11574824Y-12076674D01*
X11574824Y-12076674D02*
X11593872Y-12067150D01*
X11593872Y-12067150D02*
X11622443Y-12067150D01*
X11622443Y-12067150D02*
X11641491Y-12076674D01*
X11641491Y-12076674D02*
X11651015Y-12095722D01*
X11651015Y-12095722D02*
X11651015Y-12200484D01*
X12041491Y-11990960D02*
X11870063Y-12248103D01*
X12298634Y-12000484D02*
X12317682Y-12000484D01*
X12317682Y-12000484D02*
X12336729Y-12010008D01*
X12336729Y-12010008D02*
X12346253Y-12019531D01*
X12346253Y-12019531D02*
X12355777Y-12038579D01*
X12355777Y-12038579D02*
X12365301Y-12076674D01*
X12365301Y-12076674D02*
X12365301Y-12124293D01*
X12365301Y-12124293D02*
X12355777Y-12162388D01*
X12355777Y-12162388D02*
X12346253Y-12181436D01*
X12346253Y-12181436D02*
X12336729Y-12190960D01*
X12336729Y-12190960D02*
X12317682Y-12200484D01*
X12317682Y-12200484D02*
X12298634Y-12200484D01*
X12298634Y-12200484D02*
X12279586Y-12190960D01*
X12279586Y-12190960D02*
X12270063Y-12181436D01*
X12270063Y-12181436D02*
X12260539Y-12162388D01*
X12260539Y-12162388D02*
X12251015Y-12124293D01*
X12251015Y-12124293D02*
X12251015Y-12076674D01*
X12251015Y-12076674D02*
X12260539Y-12038579D01*
X12260539Y-12038579D02*
X12270063Y-12019531D01*
X12270063Y-12019531D02*
X12279586Y-12010008D01*
X12279586Y-12010008D02*
X12298634Y-12000484D01*
X12451015Y-12181436D02*
X12460539Y-12190960D01*
X12460539Y-12190960D02*
X12451015Y-12200484D01*
X12451015Y-12200484D02*
X12441491Y-12190960D01*
X12441491Y-12190960D02*
X12451015Y-12181436D01*
X12451015Y-12181436D02*
X12451015Y-12200484D01*
X12584348Y-12000484D02*
X12603396Y-12000484D01*
X12603396Y-12000484D02*
X12622444Y-12010008D01*
X12622444Y-12010008D02*
X12631967Y-12019531D01*
X12631967Y-12019531D02*
X12641491Y-12038579D01*
X12641491Y-12038579D02*
X12651015Y-12076674D01*
X12651015Y-12076674D02*
X12651015Y-12124293D01*
X12651015Y-12124293D02*
X12641491Y-12162388D01*
X12641491Y-12162388D02*
X12631967Y-12181436D01*
X12631967Y-12181436D02*
X12622444Y-12190960D01*
X12622444Y-12190960D02*
X12603396Y-12200484D01*
X12603396Y-12200484D02*
X12584348Y-12200484D01*
X12584348Y-12200484D02*
X12565301Y-12190960D01*
X12565301Y-12190960D02*
X12555777Y-12181436D01*
X12555777Y-12181436D02*
X12546253Y-12162388D01*
X12546253Y-12162388D02*
X12536729Y-12124293D01*
X12536729Y-12124293D02*
X12536729Y-12076674D01*
X12536729Y-12076674D02*
X12546253Y-12038579D01*
X12546253Y-12038579D02*
X12555777Y-12019531D01*
X12555777Y-12019531D02*
X12565301Y-12010008D01*
X12565301Y-12010008D02*
X12584348Y-12000484D01*
X12841491Y-12200484D02*
X12727206Y-12200484D01*
X12784348Y-12200484D02*
X12784348Y-12000484D01*
X12784348Y-12000484D02*
X12765301Y-12029055D01*
X12765301Y-12029055D02*
X12746253Y-12048103D01*
X12746253Y-12048103D02*
X12727206Y-12057627D01*
X13022444Y-12000484D02*
X12927206Y-12000484D01*
X12927206Y-12000484D02*
X12917682Y-12095722D01*
X12917682Y-12095722D02*
X12927206Y-12086198D01*
X12927206Y-12086198D02*
X12946253Y-12076674D01*
X12946253Y-12076674D02*
X12993872Y-12076674D01*
X12993872Y-12076674D02*
X13012920Y-12086198D01*
X13012920Y-12086198D02*
X13022444Y-12095722D01*
X13022444Y-12095722D02*
X13031967Y-12114769D01*
X13031967Y-12114769D02*
X13031967Y-12162388D01*
X13031967Y-12162388D02*
X13022444Y-12181436D01*
X13022444Y-12181436D02*
X13012920Y-12190960D01*
X13012920Y-12190960D02*
X12993872Y-12200484D01*
X12993872Y-12200484D02*
X12946253Y-12200484D01*
X12946253Y-12200484D02*
X12927206Y-12190960D01*
X12927206Y-12190960D02*
X12917682Y-12181436D01*
X13098634Y-12000484D02*
X13231967Y-12000484D01*
X13231967Y-12000484D02*
X13146253Y-12200484D01*
X13298634Y-12000484D02*
X13298634Y-12038579D01*
X13374825Y-12000484D02*
X13374825Y-12038579D01*
X13670063Y-12276674D02*
X13660539Y-12267150D01*
X13660539Y-12267150D02*
X13641491Y-12238579D01*
X13641491Y-12238579D02*
X13631968Y-12219531D01*
X13631968Y-12219531D02*
X13622444Y-12190960D01*
X13622444Y-12190960D02*
X13612920Y-12143341D01*
X13612920Y-12143341D02*
X13612920Y-12105246D01*
X13612920Y-12105246D02*
X13622444Y-12057627D01*
X13622444Y-12057627D02*
X13631968Y-12029055D01*
X13631968Y-12029055D02*
X13641491Y-12010008D01*
X13641491Y-12010008D02*
X13660539Y-11981436D01*
X13660539Y-11981436D02*
X13670063Y-11971912D01*
X13736729Y-12019531D02*
X13746253Y-12010008D01*
X13746253Y-12010008D02*
X13765301Y-12000484D01*
X13765301Y-12000484D02*
X13812920Y-12000484D01*
X13812920Y-12000484D02*
X13831968Y-12010008D01*
X13831968Y-12010008D02*
X13841491Y-12019531D01*
X13841491Y-12019531D02*
X13851015Y-12038579D01*
X13851015Y-12038579D02*
X13851015Y-12057627D01*
X13851015Y-12057627D02*
X13841491Y-12086198D01*
X13841491Y-12086198D02*
X13727206Y-12200484D01*
X13727206Y-12200484D02*
X13851015Y-12200484D01*
X13974825Y-12000484D02*
X13993872Y-12000484D01*
X13993872Y-12000484D02*
X14012920Y-12010008D01*
X14012920Y-12010008D02*
X14022444Y-12019531D01*
X14022444Y-12019531D02*
X14031968Y-12038579D01*
X14031968Y-12038579D02*
X14041491Y-12076674D01*
X14041491Y-12076674D02*
X14041491Y-12124293D01*
X14041491Y-12124293D02*
X14031968Y-12162388D01*
X14031968Y-12162388D02*
X14022444Y-12181436D01*
X14022444Y-12181436D02*
X14012920Y-12190960D01*
X14012920Y-12190960D02*
X13993872Y-12200484D01*
X13993872Y-12200484D02*
X13974825Y-12200484D01*
X13974825Y-12200484D02*
X13955777Y-12190960D01*
X13955777Y-12190960D02*
X13946253Y-12181436D01*
X13946253Y-12181436D02*
X13936729Y-12162388D01*
X13936729Y-12162388D02*
X13927206Y-12124293D01*
X13927206Y-12124293D02*
X13927206Y-12076674D01*
X13927206Y-12076674D02*
X13936729Y-12038579D01*
X13936729Y-12038579D02*
X13946253Y-12019531D01*
X13946253Y-12019531D02*
X13955777Y-12010008D01*
X13955777Y-12010008D02*
X13974825Y-12000484D01*
X14279587Y-12200484D02*
X14279587Y-12000484D01*
X14365301Y-12200484D02*
X14365301Y-12095722D01*
X14365301Y-12095722D02*
X14355777Y-12076674D01*
X14355777Y-12076674D02*
X14336730Y-12067150D01*
X14336730Y-12067150D02*
X14308158Y-12067150D01*
X14308158Y-12067150D02*
X14289110Y-12076674D01*
X14289110Y-12076674D02*
X14279587Y-12086198D01*
X14489110Y-12200484D02*
X14470063Y-12190960D01*
X14470063Y-12190960D02*
X14460539Y-12181436D01*
X14460539Y-12181436D02*
X14451015Y-12162388D01*
X14451015Y-12162388D02*
X14451015Y-12105246D01*
X14451015Y-12105246D02*
X14460539Y-12086198D01*
X14460539Y-12086198D02*
X14470063Y-12076674D01*
X14470063Y-12076674D02*
X14489110Y-12067150D01*
X14489110Y-12067150D02*
X14517682Y-12067150D01*
X14517682Y-12067150D02*
X14536730Y-12076674D01*
X14536730Y-12076674D02*
X14546253Y-12086198D01*
X14546253Y-12086198D02*
X14555777Y-12105246D01*
X14555777Y-12105246D02*
X14555777Y-12162388D01*
X14555777Y-12162388D02*
X14546253Y-12181436D01*
X14546253Y-12181436D02*
X14536730Y-12190960D01*
X14536730Y-12190960D02*
X14517682Y-12200484D01*
X14517682Y-12200484D02*
X14489110Y-12200484D01*
X14670063Y-12200484D02*
X14651015Y-12190960D01*
X14651015Y-12190960D02*
X14641491Y-12171912D01*
X14641491Y-12171912D02*
X14641491Y-12000484D01*
X14822444Y-12190960D02*
X14803396Y-12200484D01*
X14803396Y-12200484D02*
X14765301Y-12200484D01*
X14765301Y-12200484D02*
X14746253Y-12190960D01*
X14746253Y-12190960D02*
X14736730Y-12171912D01*
X14736730Y-12171912D02*
X14736730Y-12095722D01*
X14736730Y-12095722D02*
X14746253Y-12076674D01*
X14746253Y-12076674D02*
X14765301Y-12067150D01*
X14765301Y-12067150D02*
X14803396Y-12067150D01*
X14803396Y-12067150D02*
X14822444Y-12076674D01*
X14822444Y-12076674D02*
X14831968Y-12095722D01*
X14831968Y-12095722D02*
X14831968Y-12114769D01*
X14831968Y-12114769D02*
X14736730Y-12133817D01*
X14908158Y-12190960D02*
X14927206Y-12200484D01*
X14927206Y-12200484D02*
X14965301Y-12200484D01*
X14965301Y-12200484D02*
X14984349Y-12190960D01*
X14984349Y-12190960D02*
X14993872Y-12171912D01*
X14993872Y-12171912D02*
X14993872Y-12162388D01*
X14993872Y-12162388D02*
X14984349Y-12143341D01*
X14984349Y-12143341D02*
X14965301Y-12133817D01*
X14965301Y-12133817D02*
X14936730Y-12133817D01*
X14936730Y-12133817D02*
X14917682Y-12124293D01*
X14917682Y-12124293D02*
X14908158Y-12105246D01*
X14908158Y-12105246D02*
X14908158Y-12095722D01*
X14908158Y-12095722D02*
X14917682Y-12076674D01*
X14917682Y-12076674D02*
X14936730Y-12067150D01*
X14936730Y-12067150D02*
X14965301Y-12067150D01*
X14965301Y-12067150D02*
X14984349Y-12076674D01*
X15060539Y-12276674D02*
X15070063Y-12267150D01*
X15070063Y-12267150D02*
X15089111Y-12238579D01*
X15089111Y-12238579D02*
X15098634Y-12219531D01*
X15098634Y-12219531D02*
X15108158Y-12190960D01*
X15108158Y-12190960D02*
X15117682Y-12143341D01*
X15117682Y-12143341D02*
X15117682Y-12105246D01*
X15117682Y-12105246D02*
X15108158Y-12057627D01*
X15108158Y-12057627D02*
X15098634Y-12029055D01*
X15098634Y-12029055D02*
X15089111Y-12010008D01*
X15089111Y-12010008D02*
X15070063Y-11981436D01*
X15070063Y-11981436D02*
X15060539Y-11971912D01*
D10*
X10065000Y-12343000D02*
X10065000Y-12403000D01*
X10035000Y-12373000D02*
X10095000Y-12373000D01*
D11*
X10393872Y-12264484D02*
X10412920Y-12264484D01*
X10412920Y-12264484D02*
X10431967Y-12274008D01*
X10431967Y-12274008D02*
X10441491Y-12283531D01*
X10441491Y-12283531D02*
X10451015Y-12302579D01*
X10451015Y-12302579D02*
X10460539Y-12340674D01*
X10460539Y-12340674D02*
X10460539Y-12388293D01*
X10460539Y-12388293D02*
X10451015Y-12426388D01*
X10451015Y-12426388D02*
X10441491Y-12445436D01*
X10441491Y-12445436D02*
X10431967Y-12454960D01*
X10431967Y-12454960D02*
X10412920Y-12464484D01*
X10412920Y-12464484D02*
X10393872Y-12464484D01*
X10393872Y-12464484D02*
X10374824Y-12454960D01*
X10374824Y-12454960D02*
X10365301Y-12445436D01*
X10365301Y-12445436D02*
X10355777Y-12426388D01*
X10355777Y-12426388D02*
X10346253Y-12388293D01*
X10346253Y-12388293D02*
X10346253Y-12340674D01*
X10346253Y-12340674D02*
X10355777Y-12302579D01*
X10355777Y-12302579D02*
X10365301Y-12283531D01*
X10365301Y-12283531D02*
X10374824Y-12274008D01*
X10374824Y-12274008D02*
X10393872Y-12264484D01*
X10546253Y-12445436D02*
X10555777Y-12454960D01*
X10555777Y-12454960D02*
X10546253Y-12464484D01*
X10546253Y-12464484D02*
X10536729Y-12454960D01*
X10536729Y-12454960D02*
X10546253Y-12445436D01*
X10546253Y-12445436D02*
X10546253Y-12464484D01*
X10727205Y-12264484D02*
X10689110Y-12264484D01*
X10689110Y-12264484D02*
X10670063Y-12274008D01*
X10670063Y-12274008D02*
X10660539Y-12283531D01*
X10660539Y-12283531D02*
X10641491Y-12312103D01*
X10641491Y-12312103D02*
X10631967Y-12350198D01*
X10631967Y-12350198D02*
X10631967Y-12426388D01*
X10631967Y-12426388D02*
X10641491Y-12445436D01*
X10641491Y-12445436D02*
X10651015Y-12454960D01*
X10651015Y-12454960D02*
X10670063Y-12464484D01*
X10670063Y-12464484D02*
X10708158Y-12464484D01*
X10708158Y-12464484D02*
X10727205Y-12454960D01*
X10727205Y-12454960D02*
X10736729Y-12445436D01*
X10736729Y-12445436D02*
X10746253Y-12426388D01*
X10746253Y-12426388D02*
X10746253Y-12378769D01*
X10746253Y-12378769D02*
X10736729Y-12359722D01*
X10736729Y-12359722D02*
X10727205Y-12350198D01*
X10727205Y-12350198D02*
X10708158Y-12340674D01*
X10708158Y-12340674D02*
X10670063Y-12340674D01*
X10670063Y-12340674D02*
X10651015Y-12350198D01*
X10651015Y-12350198D02*
X10641491Y-12359722D01*
X10641491Y-12359722D02*
X10631967Y-12378769D01*
X10870063Y-12264484D02*
X10889110Y-12264484D01*
X10889110Y-12264484D02*
X10908158Y-12274008D01*
X10908158Y-12274008D02*
X10917682Y-12283531D01*
X10917682Y-12283531D02*
X10927205Y-12302579D01*
X10927205Y-12302579D02*
X10936729Y-12340674D01*
X10936729Y-12340674D02*
X10936729Y-12388293D01*
X10936729Y-12388293D02*
X10927205Y-12426388D01*
X10927205Y-12426388D02*
X10917682Y-12445436D01*
X10917682Y-12445436D02*
X10908158Y-12454960D01*
X10908158Y-12454960D02*
X10889110Y-12464484D01*
X10889110Y-12464484D02*
X10870063Y-12464484D01*
X10870063Y-12464484D02*
X10851015Y-12454960D01*
X10851015Y-12454960D02*
X10841491Y-12445436D01*
X10841491Y-12445436D02*
X10831967Y-12426388D01*
X10831967Y-12426388D02*
X10822444Y-12388293D01*
X10822444Y-12388293D02*
X10822444Y-12340674D01*
X10822444Y-12340674D02*
X10831967Y-12302579D01*
X10831967Y-12302579D02*
X10841491Y-12283531D01*
X10841491Y-12283531D02*
X10851015Y-12274008D01*
X10851015Y-12274008D02*
X10870063Y-12264484D01*
X11060539Y-12264484D02*
X11079586Y-12264484D01*
X11079586Y-12264484D02*
X11098634Y-12274008D01*
X11098634Y-12274008D02*
X11108158Y-12283531D01*
X11108158Y-12283531D02*
X11117682Y-12302579D01*
X11117682Y-12302579D02*
X11127205Y-12340674D01*
X11127205Y-12340674D02*
X11127205Y-12388293D01*
X11127205Y-12388293D02*
X11117682Y-12426388D01*
X11117682Y-12426388D02*
X11108158Y-12445436D01*
X11108158Y-12445436D02*
X11098634Y-12454960D01*
X11098634Y-12454960D02*
X11079586Y-12464484D01*
X11079586Y-12464484D02*
X11060539Y-12464484D01*
X11060539Y-12464484D02*
X11041491Y-12454960D01*
X11041491Y-12454960D02*
X11031967Y-12445436D01*
X11031967Y-12445436D02*
X11022444Y-12426388D01*
X11022444Y-12426388D02*
X11012920Y-12388293D01*
X11012920Y-12388293D02*
X11012920Y-12340674D01*
X11012920Y-12340674D02*
X11022444Y-12302579D01*
X11022444Y-12302579D02*
X11031967Y-12283531D01*
X11031967Y-12283531D02*
X11041491Y-12274008D01*
X11041491Y-12274008D02*
X11060539Y-12264484D01*
X11212920Y-12464484D02*
X11212920Y-12331150D01*
X11212920Y-12350198D02*
X11222443Y-12340674D01*
X11222443Y-12340674D02*
X11241491Y-12331150D01*
X11241491Y-12331150D02*
X11270063Y-12331150D01*
X11270063Y-12331150D02*
X11289110Y-12340674D01*
X11289110Y-12340674D02*
X11298634Y-12359722D01*
X11298634Y-12359722D02*
X11298634Y-12464484D01*
X11298634Y-12359722D02*
X11308158Y-12340674D01*
X11308158Y-12340674D02*
X11327205Y-12331150D01*
X11327205Y-12331150D02*
X11355777Y-12331150D01*
X11355777Y-12331150D02*
X11374824Y-12340674D01*
X11374824Y-12340674D02*
X11384348Y-12359722D01*
X11384348Y-12359722D02*
X11384348Y-12464484D01*
X11479586Y-12464484D02*
X11479586Y-12331150D01*
X11479586Y-12350198D02*
X11489110Y-12340674D01*
X11489110Y-12340674D02*
X11508158Y-12331150D01*
X11508158Y-12331150D02*
X11536729Y-12331150D01*
X11536729Y-12331150D02*
X11555777Y-12340674D01*
X11555777Y-12340674D02*
X11565301Y-12359722D01*
X11565301Y-12359722D02*
X11565301Y-12464484D01*
X11565301Y-12359722D02*
X11574824Y-12340674D01*
X11574824Y-12340674D02*
X11593872Y-12331150D01*
X11593872Y-12331150D02*
X11622443Y-12331150D01*
X11622443Y-12331150D02*
X11641491Y-12340674D01*
X11641491Y-12340674D02*
X11651015Y-12359722D01*
X11651015Y-12359722D02*
X11651015Y-12464484D01*
X12041491Y-12254960D02*
X11870063Y-12512103D01*
X12298634Y-12264484D02*
X12317682Y-12264484D01*
X12317682Y-12264484D02*
X12336729Y-12274008D01*
X12336729Y-12274008D02*
X12346253Y-12283531D01*
X12346253Y-12283531D02*
X12355777Y-12302579D01*
X12355777Y-12302579D02*
X12365301Y-12340674D01*
X12365301Y-12340674D02*
X12365301Y-12388293D01*
X12365301Y-12388293D02*
X12355777Y-12426388D01*
X12355777Y-12426388D02*
X12346253Y-12445436D01*
X12346253Y-12445436D02*
X12336729Y-12454960D01*
X12336729Y-12454960D02*
X12317682Y-12464484D01*
X12317682Y-12464484D02*
X12298634Y-12464484D01*
X12298634Y-12464484D02*
X12279586Y-12454960D01*
X12279586Y-12454960D02*
X12270063Y-12445436D01*
X12270063Y-12445436D02*
X12260539Y-12426388D01*
X12260539Y-12426388D02*
X12251015Y-12388293D01*
X12251015Y-12388293D02*
X12251015Y-12340674D01*
X12251015Y-12340674D02*
X12260539Y-12302579D01*
X12260539Y-12302579D02*
X12270063Y-12283531D01*
X12270063Y-12283531D02*
X12279586Y-12274008D01*
X12279586Y-12274008D02*
X12298634Y-12264484D01*
X12451015Y-12445436D02*
X12460539Y-12454960D01*
X12460539Y-12454960D02*
X12451015Y-12464484D01*
X12451015Y-12464484D02*
X12441491Y-12454960D01*
X12441491Y-12454960D02*
X12451015Y-12445436D01*
X12451015Y-12445436D02*
X12451015Y-12464484D01*
X12584348Y-12264484D02*
X12603396Y-12264484D01*
X12603396Y-12264484D02*
X12622444Y-12274008D01*
X12622444Y-12274008D02*
X12631967Y-12283531D01*
X12631967Y-12283531D02*
X12641491Y-12302579D01*
X12641491Y-12302579D02*
X12651015Y-12340674D01*
X12651015Y-12340674D02*
X12651015Y-12388293D01*
X12651015Y-12388293D02*
X12641491Y-12426388D01*
X12641491Y-12426388D02*
X12631967Y-12445436D01*
X12631967Y-12445436D02*
X12622444Y-12454960D01*
X12622444Y-12454960D02*
X12603396Y-12464484D01*
X12603396Y-12464484D02*
X12584348Y-12464484D01*
X12584348Y-12464484D02*
X12565301Y-12454960D01*
X12565301Y-12454960D02*
X12555777Y-12445436D01*
X12555777Y-12445436D02*
X12546253Y-12426388D01*
X12546253Y-12426388D02*
X12536729Y-12388293D01*
X12536729Y-12388293D02*
X12536729Y-12340674D01*
X12536729Y-12340674D02*
X12546253Y-12302579D01*
X12546253Y-12302579D02*
X12555777Y-12283531D01*
X12555777Y-12283531D02*
X12565301Y-12274008D01*
X12565301Y-12274008D02*
X12584348Y-12264484D01*
X12727206Y-12283531D02*
X12736729Y-12274008D01*
X12736729Y-12274008D02*
X12755777Y-12264484D01*
X12755777Y-12264484D02*
X12803396Y-12264484D01*
X12803396Y-12264484D02*
X12822444Y-12274008D01*
X12822444Y-12274008D02*
X12831967Y-12283531D01*
X12831967Y-12283531D02*
X12841491Y-12302579D01*
X12841491Y-12302579D02*
X12841491Y-12321627D01*
X12841491Y-12321627D02*
X12831967Y-12350198D01*
X12831967Y-12350198D02*
X12717682Y-12464484D01*
X12717682Y-12464484D02*
X12841491Y-12464484D01*
X12908158Y-12264484D02*
X13031967Y-12264484D01*
X13031967Y-12264484D02*
X12965301Y-12340674D01*
X12965301Y-12340674D02*
X12993872Y-12340674D01*
X12993872Y-12340674D02*
X13012920Y-12350198D01*
X13012920Y-12350198D02*
X13022444Y-12359722D01*
X13022444Y-12359722D02*
X13031967Y-12378769D01*
X13031967Y-12378769D02*
X13031967Y-12426388D01*
X13031967Y-12426388D02*
X13022444Y-12445436D01*
X13022444Y-12445436D02*
X13012920Y-12454960D01*
X13012920Y-12454960D02*
X12993872Y-12464484D01*
X12993872Y-12464484D02*
X12936729Y-12464484D01*
X12936729Y-12464484D02*
X12917682Y-12454960D01*
X12917682Y-12454960D02*
X12908158Y-12445436D01*
X13203396Y-12264484D02*
X13165301Y-12264484D01*
X13165301Y-12264484D02*
X13146253Y-12274008D01*
X13146253Y-12274008D02*
X13136729Y-12283531D01*
X13136729Y-12283531D02*
X13117682Y-12312103D01*
X13117682Y-12312103D02*
X13108158Y-12350198D01*
X13108158Y-12350198D02*
X13108158Y-12426388D01*
X13108158Y-12426388D02*
X13117682Y-12445436D01*
X13117682Y-12445436D02*
X13127206Y-12454960D01*
X13127206Y-12454960D02*
X13146253Y-12464484D01*
X13146253Y-12464484D02*
X13184348Y-12464484D01*
X13184348Y-12464484D02*
X13203396Y-12454960D01*
X13203396Y-12454960D02*
X13212920Y-12445436D01*
X13212920Y-12445436D02*
X13222444Y-12426388D01*
X13222444Y-12426388D02*
X13222444Y-12378769D01*
X13222444Y-12378769D02*
X13212920Y-12359722D01*
X13212920Y-12359722D02*
X13203396Y-12350198D01*
X13203396Y-12350198D02*
X13184348Y-12340674D01*
X13184348Y-12340674D02*
X13146253Y-12340674D01*
X13146253Y-12340674D02*
X13127206Y-12350198D01*
X13127206Y-12350198D02*
X13117682Y-12359722D01*
X13117682Y-12359722D02*
X13108158Y-12378769D01*
X13298634Y-12264484D02*
X13298634Y-12302579D01*
X13374825Y-12264484D02*
X13374825Y-12302579D01*
X13670063Y-12540674D02*
X13660539Y-12531150D01*
X13660539Y-12531150D02*
X13641491Y-12502579D01*
X13641491Y-12502579D02*
X13631968Y-12483531D01*
X13631968Y-12483531D02*
X13622444Y-12454960D01*
X13622444Y-12454960D02*
X13612920Y-12407341D01*
X13612920Y-12407341D02*
X13612920Y-12369246D01*
X13612920Y-12369246D02*
X13622444Y-12321627D01*
X13622444Y-12321627D02*
X13631968Y-12293055D01*
X13631968Y-12293055D02*
X13641491Y-12274008D01*
X13641491Y-12274008D02*
X13660539Y-12245436D01*
X13660539Y-12245436D02*
X13670063Y-12235912D01*
X13784348Y-12264484D02*
X13803396Y-12264484D01*
X13803396Y-12264484D02*
X13822444Y-12274008D01*
X13822444Y-12274008D02*
X13831968Y-12283531D01*
X13831968Y-12283531D02*
X13841491Y-12302579D01*
X13841491Y-12302579D02*
X13851015Y-12340674D01*
X13851015Y-12340674D02*
X13851015Y-12388293D01*
X13851015Y-12388293D02*
X13841491Y-12426388D01*
X13841491Y-12426388D02*
X13831968Y-12445436D01*
X13831968Y-12445436D02*
X13822444Y-12454960D01*
X13822444Y-12454960D02*
X13803396Y-12464484D01*
X13803396Y-12464484D02*
X13784348Y-12464484D01*
X13784348Y-12464484D02*
X13765301Y-12454960D01*
X13765301Y-12454960D02*
X13755777Y-12445436D01*
X13755777Y-12445436D02*
X13746253Y-12426388D01*
X13746253Y-12426388D02*
X13736729Y-12388293D01*
X13736729Y-12388293D02*
X13736729Y-12340674D01*
X13736729Y-12340674D02*
X13746253Y-12302579D01*
X13746253Y-12302579D02*
X13755777Y-12283531D01*
X13755777Y-12283531D02*
X13765301Y-12274008D01*
X13765301Y-12274008D02*
X13784348Y-12264484D01*
X14089110Y-12464484D02*
X14089110Y-12264484D01*
X14174825Y-12464484D02*
X14174825Y-12359722D01*
X14174825Y-12359722D02*
X14165301Y-12340674D01*
X14165301Y-12340674D02*
X14146253Y-12331150D01*
X14146253Y-12331150D02*
X14117682Y-12331150D01*
X14117682Y-12331150D02*
X14098634Y-12340674D01*
X14098634Y-12340674D02*
X14089110Y-12350198D01*
X14298634Y-12464484D02*
X14279587Y-12454960D01*
X14279587Y-12454960D02*
X14270063Y-12445436D01*
X14270063Y-12445436D02*
X14260539Y-12426388D01*
X14260539Y-12426388D02*
X14260539Y-12369246D01*
X14260539Y-12369246D02*
X14270063Y-12350198D01*
X14270063Y-12350198D02*
X14279587Y-12340674D01*
X14279587Y-12340674D02*
X14298634Y-12331150D01*
X14298634Y-12331150D02*
X14327206Y-12331150D01*
X14327206Y-12331150D02*
X14346253Y-12340674D01*
X14346253Y-12340674D02*
X14355777Y-12350198D01*
X14355777Y-12350198D02*
X14365301Y-12369246D01*
X14365301Y-12369246D02*
X14365301Y-12426388D01*
X14365301Y-12426388D02*
X14355777Y-12445436D01*
X14355777Y-12445436D02*
X14346253Y-12454960D01*
X14346253Y-12454960D02*
X14327206Y-12464484D01*
X14327206Y-12464484D02*
X14298634Y-12464484D01*
X14479587Y-12464484D02*
X14460539Y-12454960D01*
X14460539Y-12454960D02*
X14451015Y-12435912D01*
X14451015Y-12435912D02*
X14451015Y-12264484D01*
X14631968Y-12454960D02*
X14612920Y-12464484D01*
X14612920Y-12464484D02*
X14574825Y-12464484D01*
X14574825Y-12464484D02*
X14555777Y-12454960D01*
X14555777Y-12454960D02*
X14546253Y-12435912D01*
X14546253Y-12435912D02*
X14546253Y-12359722D01*
X14546253Y-12359722D02*
X14555777Y-12340674D01*
X14555777Y-12340674D02*
X14574825Y-12331150D01*
X14574825Y-12331150D02*
X14612920Y-12331150D01*
X14612920Y-12331150D02*
X14631968Y-12340674D01*
X14631968Y-12340674D02*
X14641491Y-12359722D01*
X14641491Y-12359722D02*
X14641491Y-12378769D01*
X14641491Y-12378769D02*
X14546253Y-12397817D01*
X14717682Y-12454960D02*
X14736730Y-12464484D01*
X14736730Y-12464484D02*
X14774825Y-12464484D01*
X14774825Y-12464484D02*
X14793872Y-12454960D01*
X14793872Y-12454960D02*
X14803396Y-12435912D01*
X14803396Y-12435912D02*
X14803396Y-12426388D01*
X14803396Y-12426388D02*
X14793872Y-12407341D01*
X14793872Y-12407341D02*
X14774825Y-12397817D01*
X14774825Y-12397817D02*
X14746253Y-12397817D01*
X14746253Y-12397817D02*
X14727206Y-12388293D01*
X14727206Y-12388293D02*
X14717682Y-12369246D01*
X14717682Y-12369246D02*
X14717682Y-12359722D01*
X14717682Y-12359722D02*
X14727206Y-12340674D01*
X14727206Y-12340674D02*
X14746253Y-12331150D01*
X14746253Y-12331150D02*
X14774825Y-12331150D01*
X14774825Y-12331150D02*
X14793872Y-12340674D01*
X15041492Y-12388293D02*
X15193873Y-12388293D01*
X15117682Y-12464484D02*
X15117682Y-12312103D01*
X15527206Y-12331150D02*
X15527206Y-12464484D01*
X15479587Y-12254960D02*
X15431968Y-12397817D01*
X15431968Y-12397817D02*
X15555777Y-12397817D01*
X15774825Y-12454960D02*
X15793873Y-12464484D01*
X15793873Y-12464484D02*
X15831968Y-12464484D01*
X15831968Y-12464484D02*
X15851015Y-12454960D01*
X15851015Y-12454960D02*
X15860539Y-12435912D01*
X15860539Y-12435912D02*
X15860539Y-12426388D01*
X15860539Y-12426388D02*
X15851015Y-12407341D01*
X15851015Y-12407341D02*
X15831968Y-12397817D01*
X15831968Y-12397817D02*
X15803396Y-12397817D01*
X15803396Y-12397817D02*
X15784349Y-12388293D01*
X15784349Y-12388293D02*
X15774825Y-12369246D01*
X15774825Y-12369246D02*
X15774825Y-12359722D01*
X15774825Y-12359722D02*
X15784349Y-12340674D01*
X15784349Y-12340674D02*
X15803396Y-12331150D01*
X15803396Y-12331150D02*
X15831968Y-12331150D01*
X15831968Y-12331150D02*
X15851015Y-12340674D01*
X15974825Y-12464484D02*
X15955777Y-12454960D01*
X15955777Y-12454960D02*
X15946254Y-12435912D01*
X15946254Y-12435912D02*
X15946254Y-12264484D01*
X16079587Y-12464484D02*
X16060539Y-12454960D01*
X16060539Y-12454960D02*
X16051015Y-12445436D01*
X16051015Y-12445436D02*
X16041492Y-12426388D01*
X16041492Y-12426388D02*
X16041492Y-12369246D01*
X16041492Y-12369246D02*
X16051015Y-12350198D01*
X16051015Y-12350198D02*
X16060539Y-12340674D01*
X16060539Y-12340674D02*
X16079587Y-12331150D01*
X16079587Y-12331150D02*
X16108158Y-12331150D01*
X16108158Y-12331150D02*
X16127206Y-12340674D01*
X16127206Y-12340674D02*
X16136730Y-12350198D01*
X16136730Y-12350198D02*
X16146254Y-12369246D01*
X16146254Y-12369246D02*
X16146254Y-12426388D01*
X16146254Y-12426388D02*
X16136730Y-12445436D01*
X16136730Y-12445436D02*
X16127206Y-12454960D01*
X16127206Y-12454960D02*
X16108158Y-12464484D01*
X16108158Y-12464484D02*
X16079587Y-12464484D01*
X16203396Y-12331150D02*
X16279587Y-12331150D01*
X16231968Y-12264484D02*
X16231968Y-12435912D01*
X16231968Y-12435912D02*
X16241492Y-12454960D01*
X16241492Y-12454960D02*
X16260539Y-12464484D01*
X16260539Y-12464484D02*
X16279587Y-12464484D01*
X16336730Y-12454960D02*
X16355777Y-12464484D01*
X16355777Y-12464484D02*
X16393873Y-12464484D01*
X16393873Y-12464484D02*
X16412920Y-12454960D01*
X16412920Y-12454960D02*
X16422444Y-12435912D01*
X16422444Y-12435912D02*
X16422444Y-12426388D01*
X16422444Y-12426388D02*
X16412920Y-12407341D01*
X16412920Y-12407341D02*
X16393873Y-12397817D01*
X16393873Y-12397817D02*
X16365301Y-12397817D01*
X16365301Y-12397817D02*
X16346254Y-12388293D01*
X16346254Y-12388293D02*
X16336730Y-12369246D01*
X16336730Y-12369246D02*
X16336730Y-12359722D01*
X16336730Y-12359722D02*
X16346254Y-12340674D01*
X16346254Y-12340674D02*
X16365301Y-12331150D01*
X16365301Y-12331150D02*
X16393873Y-12331150D01*
X16393873Y-12331150D02*
X16412920Y-12340674D01*
X16489111Y-12540674D02*
X16498635Y-12531150D01*
X16498635Y-12531150D02*
X16517682Y-12502579D01*
X16517682Y-12502579D02*
X16527206Y-12483531D01*
X16527206Y-12483531D02*
X16536730Y-12454960D01*
X16536730Y-12454960D02*
X16546254Y-12407341D01*
X16546254Y-12407341D02*
X16546254Y-12369246D01*
X16546254Y-12369246D02*
X16536730Y-12321627D01*
X16536730Y-12321627D02*
X16527206Y-12293055D01*
X16527206Y-12293055D02*
X16517682Y-12274008D01*
X16517682Y-12274008D02*
X16498635Y-12245436D01*
X16498635Y-12245436D02*
X16489111Y-12235912D01*
D10*
X10084749Y-12661749D02*
X10084749Y-12612251D01*
X10035251Y-12612251D01*
X10035251Y-12661749D01*
X10084749Y-12661749D01*
D11*
X10393872Y-12528484D02*
X10412920Y-12528484D01*
X10412920Y-12528484D02*
X10431967Y-12538008D01*
X10431967Y-12538008D02*
X10441491Y-12547531D01*
X10441491Y-12547531D02*
X10451015Y-12566579D01*
X10451015Y-12566579D02*
X10460539Y-12604674D01*
X10460539Y-12604674D02*
X10460539Y-12652293D01*
X10460539Y-12652293D02*
X10451015Y-12690388D01*
X10451015Y-12690388D02*
X10441491Y-12709436D01*
X10441491Y-12709436D02*
X10431967Y-12718960D01*
X10431967Y-12718960D02*
X10412920Y-12728484D01*
X10412920Y-12728484D02*
X10393872Y-12728484D01*
X10393872Y-12728484D02*
X10374824Y-12718960D01*
X10374824Y-12718960D02*
X10365301Y-12709436D01*
X10365301Y-12709436D02*
X10355777Y-12690388D01*
X10355777Y-12690388D02*
X10346253Y-12652293D01*
X10346253Y-12652293D02*
X10346253Y-12604674D01*
X10346253Y-12604674D02*
X10355777Y-12566579D01*
X10355777Y-12566579D02*
X10365301Y-12547531D01*
X10365301Y-12547531D02*
X10374824Y-12538008D01*
X10374824Y-12538008D02*
X10393872Y-12528484D01*
X10546253Y-12709436D02*
X10555777Y-12718960D01*
X10555777Y-12718960D02*
X10546253Y-12728484D01*
X10546253Y-12728484D02*
X10536729Y-12718960D01*
X10536729Y-12718960D02*
X10546253Y-12709436D01*
X10546253Y-12709436D02*
X10546253Y-12728484D01*
X10622444Y-12528484D02*
X10755777Y-12528484D01*
X10755777Y-12528484D02*
X10670063Y-12728484D01*
X10870063Y-12528484D02*
X10889110Y-12528484D01*
X10889110Y-12528484D02*
X10908158Y-12538008D01*
X10908158Y-12538008D02*
X10917682Y-12547531D01*
X10917682Y-12547531D02*
X10927205Y-12566579D01*
X10927205Y-12566579D02*
X10936729Y-12604674D01*
X10936729Y-12604674D02*
X10936729Y-12652293D01*
X10936729Y-12652293D02*
X10927205Y-12690388D01*
X10927205Y-12690388D02*
X10917682Y-12709436D01*
X10917682Y-12709436D02*
X10908158Y-12718960D01*
X10908158Y-12718960D02*
X10889110Y-12728484D01*
X10889110Y-12728484D02*
X10870063Y-12728484D01*
X10870063Y-12728484D02*
X10851015Y-12718960D01*
X10851015Y-12718960D02*
X10841491Y-12709436D01*
X10841491Y-12709436D02*
X10831967Y-12690388D01*
X10831967Y-12690388D02*
X10822444Y-12652293D01*
X10822444Y-12652293D02*
X10822444Y-12604674D01*
X10822444Y-12604674D02*
X10831967Y-12566579D01*
X10831967Y-12566579D02*
X10841491Y-12547531D01*
X10841491Y-12547531D02*
X10851015Y-12538008D01*
X10851015Y-12538008D02*
X10870063Y-12528484D01*
X11060539Y-12528484D02*
X11079586Y-12528484D01*
X11079586Y-12528484D02*
X11098634Y-12538008D01*
X11098634Y-12538008D02*
X11108158Y-12547531D01*
X11108158Y-12547531D02*
X11117682Y-12566579D01*
X11117682Y-12566579D02*
X11127205Y-12604674D01*
X11127205Y-12604674D02*
X11127205Y-12652293D01*
X11127205Y-12652293D02*
X11117682Y-12690388D01*
X11117682Y-12690388D02*
X11108158Y-12709436D01*
X11108158Y-12709436D02*
X11098634Y-12718960D01*
X11098634Y-12718960D02*
X11079586Y-12728484D01*
X11079586Y-12728484D02*
X11060539Y-12728484D01*
X11060539Y-12728484D02*
X11041491Y-12718960D01*
X11041491Y-12718960D02*
X11031967Y-12709436D01*
X11031967Y-12709436D02*
X11022444Y-12690388D01*
X11022444Y-12690388D02*
X11012920Y-12652293D01*
X11012920Y-12652293D02*
X11012920Y-12604674D01*
X11012920Y-12604674D02*
X11022444Y-12566579D01*
X11022444Y-12566579D02*
X11031967Y-12547531D01*
X11031967Y-12547531D02*
X11041491Y-12538008D01*
X11041491Y-12538008D02*
X11060539Y-12528484D01*
X11212920Y-12728484D02*
X11212920Y-12595150D01*
X11212920Y-12614198D02*
X11222443Y-12604674D01*
X11222443Y-12604674D02*
X11241491Y-12595150D01*
X11241491Y-12595150D02*
X11270063Y-12595150D01*
X11270063Y-12595150D02*
X11289110Y-12604674D01*
X11289110Y-12604674D02*
X11298634Y-12623722D01*
X11298634Y-12623722D02*
X11298634Y-12728484D01*
X11298634Y-12623722D02*
X11308158Y-12604674D01*
X11308158Y-12604674D02*
X11327205Y-12595150D01*
X11327205Y-12595150D02*
X11355777Y-12595150D01*
X11355777Y-12595150D02*
X11374824Y-12604674D01*
X11374824Y-12604674D02*
X11384348Y-12623722D01*
X11384348Y-12623722D02*
X11384348Y-12728484D01*
X11479586Y-12728484D02*
X11479586Y-12595150D01*
X11479586Y-12614198D02*
X11489110Y-12604674D01*
X11489110Y-12604674D02*
X11508158Y-12595150D01*
X11508158Y-12595150D02*
X11536729Y-12595150D01*
X11536729Y-12595150D02*
X11555777Y-12604674D01*
X11555777Y-12604674D02*
X11565301Y-12623722D01*
X11565301Y-12623722D02*
X11565301Y-12728484D01*
X11565301Y-12623722D02*
X11574824Y-12604674D01*
X11574824Y-12604674D02*
X11593872Y-12595150D01*
X11593872Y-12595150D02*
X11622443Y-12595150D01*
X11622443Y-12595150D02*
X11641491Y-12604674D01*
X11641491Y-12604674D02*
X11651015Y-12623722D01*
X11651015Y-12623722D02*
X11651015Y-12728484D01*
X12041491Y-12518960D02*
X11870063Y-12776103D01*
X12298634Y-12528484D02*
X12317682Y-12528484D01*
X12317682Y-12528484D02*
X12336729Y-12538008D01*
X12336729Y-12538008D02*
X12346253Y-12547531D01*
X12346253Y-12547531D02*
X12355777Y-12566579D01*
X12355777Y-12566579D02*
X12365301Y-12604674D01*
X12365301Y-12604674D02*
X12365301Y-12652293D01*
X12365301Y-12652293D02*
X12355777Y-12690388D01*
X12355777Y-12690388D02*
X12346253Y-12709436D01*
X12346253Y-12709436D02*
X12336729Y-12718960D01*
X12336729Y-12718960D02*
X12317682Y-12728484D01*
X12317682Y-12728484D02*
X12298634Y-12728484D01*
X12298634Y-12728484D02*
X12279586Y-12718960D01*
X12279586Y-12718960D02*
X12270063Y-12709436D01*
X12270063Y-12709436D02*
X12260539Y-12690388D01*
X12260539Y-12690388D02*
X12251015Y-12652293D01*
X12251015Y-12652293D02*
X12251015Y-12604674D01*
X12251015Y-12604674D02*
X12260539Y-12566579D01*
X12260539Y-12566579D02*
X12270063Y-12547531D01*
X12270063Y-12547531D02*
X12279586Y-12538008D01*
X12279586Y-12538008D02*
X12298634Y-12528484D01*
X12451015Y-12709436D02*
X12460539Y-12718960D01*
X12460539Y-12718960D02*
X12451015Y-12728484D01*
X12451015Y-12728484D02*
X12441491Y-12718960D01*
X12441491Y-12718960D02*
X12451015Y-12709436D01*
X12451015Y-12709436D02*
X12451015Y-12728484D01*
X12584348Y-12528484D02*
X12603396Y-12528484D01*
X12603396Y-12528484D02*
X12622444Y-12538008D01*
X12622444Y-12538008D02*
X12631967Y-12547531D01*
X12631967Y-12547531D02*
X12641491Y-12566579D01*
X12641491Y-12566579D02*
X12651015Y-12604674D01*
X12651015Y-12604674D02*
X12651015Y-12652293D01*
X12651015Y-12652293D02*
X12641491Y-12690388D01*
X12641491Y-12690388D02*
X12631967Y-12709436D01*
X12631967Y-12709436D02*
X12622444Y-12718960D01*
X12622444Y-12718960D02*
X12603396Y-12728484D01*
X12603396Y-12728484D02*
X12584348Y-12728484D01*
X12584348Y-12728484D02*
X12565301Y-12718960D01*
X12565301Y-12718960D02*
X12555777Y-12709436D01*
X12555777Y-12709436D02*
X12546253Y-12690388D01*
X12546253Y-12690388D02*
X12536729Y-12652293D01*
X12536729Y-12652293D02*
X12536729Y-12604674D01*
X12536729Y-12604674D02*
X12546253Y-12566579D01*
X12546253Y-12566579D02*
X12555777Y-12547531D01*
X12555777Y-12547531D02*
X12565301Y-12538008D01*
X12565301Y-12538008D02*
X12584348Y-12528484D01*
X12727206Y-12547531D02*
X12736729Y-12538008D01*
X12736729Y-12538008D02*
X12755777Y-12528484D01*
X12755777Y-12528484D02*
X12803396Y-12528484D01*
X12803396Y-12528484D02*
X12822444Y-12538008D01*
X12822444Y-12538008D02*
X12831967Y-12547531D01*
X12831967Y-12547531D02*
X12841491Y-12566579D01*
X12841491Y-12566579D02*
X12841491Y-12585627D01*
X12841491Y-12585627D02*
X12831967Y-12614198D01*
X12831967Y-12614198D02*
X12717682Y-12728484D01*
X12717682Y-12728484D02*
X12841491Y-12728484D01*
X12908158Y-12528484D02*
X13041491Y-12528484D01*
X13041491Y-12528484D02*
X12955777Y-12728484D01*
X13203396Y-12528484D02*
X13165301Y-12528484D01*
X13165301Y-12528484D02*
X13146253Y-12538008D01*
X13146253Y-12538008D02*
X13136729Y-12547531D01*
X13136729Y-12547531D02*
X13117682Y-12576103D01*
X13117682Y-12576103D02*
X13108158Y-12614198D01*
X13108158Y-12614198D02*
X13108158Y-12690388D01*
X13108158Y-12690388D02*
X13117682Y-12709436D01*
X13117682Y-12709436D02*
X13127206Y-12718960D01*
X13127206Y-12718960D02*
X13146253Y-12728484D01*
X13146253Y-12728484D02*
X13184348Y-12728484D01*
X13184348Y-12728484D02*
X13203396Y-12718960D01*
X13203396Y-12718960D02*
X13212920Y-12709436D01*
X13212920Y-12709436D02*
X13222444Y-12690388D01*
X13222444Y-12690388D02*
X13222444Y-12642769D01*
X13222444Y-12642769D02*
X13212920Y-12623722D01*
X13212920Y-12623722D02*
X13203396Y-12614198D01*
X13203396Y-12614198D02*
X13184348Y-12604674D01*
X13184348Y-12604674D02*
X13146253Y-12604674D01*
X13146253Y-12604674D02*
X13127206Y-12614198D01*
X13127206Y-12614198D02*
X13117682Y-12623722D01*
X13117682Y-12623722D02*
X13108158Y-12642769D01*
X13298634Y-12528484D02*
X13298634Y-12566579D01*
X13374825Y-12528484D02*
X13374825Y-12566579D01*
X13670063Y-12804674D02*
X13660539Y-12795150D01*
X13660539Y-12795150D02*
X13641491Y-12766579D01*
X13641491Y-12766579D02*
X13631968Y-12747531D01*
X13631968Y-12747531D02*
X13622444Y-12718960D01*
X13622444Y-12718960D02*
X13612920Y-12671341D01*
X13612920Y-12671341D02*
X13612920Y-12633246D01*
X13612920Y-12633246D02*
X13622444Y-12585627D01*
X13622444Y-12585627D02*
X13631968Y-12557055D01*
X13631968Y-12557055D02*
X13641491Y-12538008D01*
X13641491Y-12538008D02*
X13660539Y-12509436D01*
X13660539Y-12509436D02*
X13670063Y-12499912D01*
X13727206Y-12528484D02*
X13851015Y-12528484D01*
X13851015Y-12528484D02*
X13784348Y-12604674D01*
X13784348Y-12604674D02*
X13812920Y-12604674D01*
X13812920Y-12604674D02*
X13831968Y-12614198D01*
X13831968Y-12614198D02*
X13841491Y-12623722D01*
X13841491Y-12623722D02*
X13851015Y-12642769D01*
X13851015Y-12642769D02*
X13851015Y-12690388D01*
X13851015Y-12690388D02*
X13841491Y-12709436D01*
X13841491Y-12709436D02*
X13831968Y-12718960D01*
X13831968Y-12718960D02*
X13812920Y-12728484D01*
X13812920Y-12728484D02*
X13755777Y-12728484D01*
X13755777Y-12728484D02*
X13736729Y-12718960D01*
X13736729Y-12718960D02*
X13727206Y-12709436D01*
X14089110Y-12728484D02*
X14089110Y-12528484D01*
X14174825Y-12728484D02*
X14174825Y-12623722D01*
X14174825Y-12623722D02*
X14165301Y-12604674D01*
X14165301Y-12604674D02*
X14146253Y-12595150D01*
X14146253Y-12595150D02*
X14117682Y-12595150D01*
X14117682Y-12595150D02*
X14098634Y-12604674D01*
X14098634Y-12604674D02*
X14089110Y-12614198D01*
X14298634Y-12728484D02*
X14279587Y-12718960D01*
X14279587Y-12718960D02*
X14270063Y-12709436D01*
X14270063Y-12709436D02*
X14260539Y-12690388D01*
X14260539Y-12690388D02*
X14260539Y-12633246D01*
X14260539Y-12633246D02*
X14270063Y-12614198D01*
X14270063Y-12614198D02*
X14279587Y-12604674D01*
X14279587Y-12604674D02*
X14298634Y-12595150D01*
X14298634Y-12595150D02*
X14327206Y-12595150D01*
X14327206Y-12595150D02*
X14346253Y-12604674D01*
X14346253Y-12604674D02*
X14355777Y-12614198D01*
X14355777Y-12614198D02*
X14365301Y-12633246D01*
X14365301Y-12633246D02*
X14365301Y-12690388D01*
X14365301Y-12690388D02*
X14355777Y-12709436D01*
X14355777Y-12709436D02*
X14346253Y-12718960D01*
X14346253Y-12718960D02*
X14327206Y-12728484D01*
X14327206Y-12728484D02*
X14298634Y-12728484D01*
X14479587Y-12728484D02*
X14460539Y-12718960D01*
X14460539Y-12718960D02*
X14451015Y-12699912D01*
X14451015Y-12699912D02*
X14451015Y-12528484D01*
X14631968Y-12718960D02*
X14612920Y-12728484D01*
X14612920Y-12728484D02*
X14574825Y-12728484D01*
X14574825Y-12728484D02*
X14555777Y-12718960D01*
X14555777Y-12718960D02*
X14546253Y-12699912D01*
X14546253Y-12699912D02*
X14546253Y-12623722D01*
X14546253Y-12623722D02*
X14555777Y-12604674D01*
X14555777Y-12604674D02*
X14574825Y-12595150D01*
X14574825Y-12595150D02*
X14612920Y-12595150D01*
X14612920Y-12595150D02*
X14631968Y-12604674D01*
X14631968Y-12604674D02*
X14641491Y-12623722D01*
X14641491Y-12623722D02*
X14641491Y-12642769D01*
X14641491Y-12642769D02*
X14546253Y-12661817D01*
X14717682Y-12718960D02*
X14736730Y-12728484D01*
X14736730Y-12728484D02*
X14774825Y-12728484D01*
X14774825Y-12728484D02*
X14793872Y-12718960D01*
X14793872Y-12718960D02*
X14803396Y-12699912D01*
X14803396Y-12699912D02*
X14803396Y-12690388D01*
X14803396Y-12690388D02*
X14793872Y-12671341D01*
X14793872Y-12671341D02*
X14774825Y-12661817D01*
X14774825Y-12661817D02*
X14746253Y-12661817D01*
X14746253Y-12661817D02*
X14727206Y-12652293D01*
X14727206Y-12652293D02*
X14717682Y-12633246D01*
X14717682Y-12633246D02*
X14717682Y-12623722D01*
X14717682Y-12623722D02*
X14727206Y-12604674D01*
X14727206Y-12604674D02*
X14746253Y-12595150D01*
X14746253Y-12595150D02*
X14774825Y-12595150D01*
X14774825Y-12595150D02*
X14793872Y-12604674D01*
X14870063Y-12804674D02*
X14879587Y-12795150D01*
X14879587Y-12795150D02*
X14898634Y-12766579D01*
X14898634Y-12766579D02*
X14908158Y-12747531D01*
X14908158Y-12747531D02*
X14917682Y-12718960D01*
X14917682Y-12718960D02*
X14927206Y-12671341D01*
X14927206Y-12671341D02*
X14927206Y-12633246D01*
X14927206Y-12633246D02*
X14917682Y-12585627D01*
X14917682Y-12585627D02*
X14908158Y-12557055D01*
X14908158Y-12557055D02*
X14898634Y-12538008D01*
X14898634Y-12538008D02*
X14879587Y-12509436D01*
X14879587Y-12509436D02*
X14870063Y-12499912D01*
D12*
X10020000Y-12976000D02*
X10095000Y-12901000D01*
X10020000Y-12826000D01*
X9945000Y-12901000D01*
X10020000Y-12976000D01*
D11*
X10460539Y-12992484D02*
X10346253Y-12992484D01*
X10403396Y-12992484D02*
X10403396Y-12792484D01*
X10403396Y-12792484D02*
X10384348Y-12821055D01*
X10384348Y-12821055D02*
X10365301Y-12840103D01*
X10365301Y-12840103D02*
X10346253Y-12849627D01*
X10546253Y-12973436D02*
X10555777Y-12982960D01*
X10555777Y-12982960D02*
X10546253Y-12992484D01*
X10546253Y-12992484D02*
X10536729Y-12982960D01*
X10536729Y-12982960D02*
X10546253Y-12973436D01*
X10546253Y-12973436D02*
X10546253Y-12992484D01*
X10736729Y-12792484D02*
X10641491Y-12792484D01*
X10641491Y-12792484D02*
X10631967Y-12887722D01*
X10631967Y-12887722D02*
X10641491Y-12878198D01*
X10641491Y-12878198D02*
X10660539Y-12868674D01*
X10660539Y-12868674D02*
X10708158Y-12868674D01*
X10708158Y-12868674D02*
X10727205Y-12878198D01*
X10727205Y-12878198D02*
X10736729Y-12887722D01*
X10736729Y-12887722D02*
X10746253Y-12906769D01*
X10746253Y-12906769D02*
X10746253Y-12954388D01*
X10746253Y-12954388D02*
X10736729Y-12973436D01*
X10736729Y-12973436D02*
X10727205Y-12982960D01*
X10727205Y-12982960D02*
X10708158Y-12992484D01*
X10708158Y-12992484D02*
X10660539Y-12992484D01*
X10660539Y-12992484D02*
X10641491Y-12982960D01*
X10641491Y-12982960D02*
X10631967Y-12973436D01*
X10870063Y-12792484D02*
X10889110Y-12792484D01*
X10889110Y-12792484D02*
X10908158Y-12802008D01*
X10908158Y-12802008D02*
X10917682Y-12811531D01*
X10917682Y-12811531D02*
X10927205Y-12830579D01*
X10927205Y-12830579D02*
X10936729Y-12868674D01*
X10936729Y-12868674D02*
X10936729Y-12916293D01*
X10936729Y-12916293D02*
X10927205Y-12954388D01*
X10927205Y-12954388D02*
X10917682Y-12973436D01*
X10917682Y-12973436D02*
X10908158Y-12982960D01*
X10908158Y-12982960D02*
X10889110Y-12992484D01*
X10889110Y-12992484D02*
X10870063Y-12992484D01*
X10870063Y-12992484D02*
X10851015Y-12982960D01*
X10851015Y-12982960D02*
X10841491Y-12973436D01*
X10841491Y-12973436D02*
X10831967Y-12954388D01*
X10831967Y-12954388D02*
X10822444Y-12916293D01*
X10822444Y-12916293D02*
X10822444Y-12868674D01*
X10822444Y-12868674D02*
X10831967Y-12830579D01*
X10831967Y-12830579D02*
X10841491Y-12811531D01*
X10841491Y-12811531D02*
X10851015Y-12802008D01*
X10851015Y-12802008D02*
X10870063Y-12792484D01*
X11060539Y-12792484D02*
X11079586Y-12792484D01*
X11079586Y-12792484D02*
X11098634Y-12802008D01*
X11098634Y-12802008D02*
X11108158Y-12811531D01*
X11108158Y-12811531D02*
X11117682Y-12830579D01*
X11117682Y-12830579D02*
X11127205Y-12868674D01*
X11127205Y-12868674D02*
X11127205Y-12916293D01*
X11127205Y-12916293D02*
X11117682Y-12954388D01*
X11117682Y-12954388D02*
X11108158Y-12973436D01*
X11108158Y-12973436D02*
X11098634Y-12982960D01*
X11098634Y-12982960D02*
X11079586Y-12992484D01*
X11079586Y-12992484D02*
X11060539Y-12992484D01*
X11060539Y-12992484D02*
X11041491Y-12982960D01*
X11041491Y-12982960D02*
X11031967Y-12973436D01*
X11031967Y-12973436D02*
X11022444Y-12954388D01*
X11022444Y-12954388D02*
X11012920Y-12916293D01*
X11012920Y-12916293D02*
X11012920Y-12868674D01*
X11012920Y-12868674D02*
X11022444Y-12830579D01*
X11022444Y-12830579D02*
X11031967Y-12811531D01*
X11031967Y-12811531D02*
X11041491Y-12802008D01*
X11041491Y-12802008D02*
X11060539Y-12792484D01*
X11212920Y-12992484D02*
X11212920Y-12859150D01*
X11212920Y-12878198D02*
X11222443Y-12868674D01*
X11222443Y-12868674D02*
X11241491Y-12859150D01*
X11241491Y-12859150D02*
X11270063Y-12859150D01*
X11270063Y-12859150D02*
X11289110Y-12868674D01*
X11289110Y-12868674D02*
X11298634Y-12887722D01*
X11298634Y-12887722D02*
X11298634Y-12992484D01*
X11298634Y-12887722D02*
X11308158Y-12868674D01*
X11308158Y-12868674D02*
X11327205Y-12859150D01*
X11327205Y-12859150D02*
X11355777Y-12859150D01*
X11355777Y-12859150D02*
X11374824Y-12868674D01*
X11374824Y-12868674D02*
X11384348Y-12887722D01*
X11384348Y-12887722D02*
X11384348Y-12992484D01*
X11479586Y-12992484D02*
X11479586Y-12859150D01*
X11479586Y-12878198D02*
X11489110Y-12868674D01*
X11489110Y-12868674D02*
X11508158Y-12859150D01*
X11508158Y-12859150D02*
X11536729Y-12859150D01*
X11536729Y-12859150D02*
X11555777Y-12868674D01*
X11555777Y-12868674D02*
X11565301Y-12887722D01*
X11565301Y-12887722D02*
X11565301Y-12992484D01*
X11565301Y-12887722D02*
X11574824Y-12868674D01*
X11574824Y-12868674D02*
X11593872Y-12859150D01*
X11593872Y-12859150D02*
X11622443Y-12859150D01*
X11622443Y-12859150D02*
X11641491Y-12868674D01*
X11641491Y-12868674D02*
X11651015Y-12887722D01*
X11651015Y-12887722D02*
X11651015Y-12992484D01*
X12041491Y-12782960D02*
X11870063Y-13040103D01*
X12298634Y-12792484D02*
X12317682Y-12792484D01*
X12317682Y-12792484D02*
X12336729Y-12802008D01*
X12336729Y-12802008D02*
X12346253Y-12811531D01*
X12346253Y-12811531D02*
X12355777Y-12830579D01*
X12355777Y-12830579D02*
X12365301Y-12868674D01*
X12365301Y-12868674D02*
X12365301Y-12916293D01*
X12365301Y-12916293D02*
X12355777Y-12954388D01*
X12355777Y-12954388D02*
X12346253Y-12973436D01*
X12346253Y-12973436D02*
X12336729Y-12982960D01*
X12336729Y-12982960D02*
X12317682Y-12992484D01*
X12317682Y-12992484D02*
X12298634Y-12992484D01*
X12298634Y-12992484D02*
X12279586Y-12982960D01*
X12279586Y-12982960D02*
X12270063Y-12973436D01*
X12270063Y-12973436D02*
X12260539Y-12954388D01*
X12260539Y-12954388D02*
X12251015Y-12916293D01*
X12251015Y-12916293D02*
X12251015Y-12868674D01*
X12251015Y-12868674D02*
X12260539Y-12830579D01*
X12260539Y-12830579D02*
X12270063Y-12811531D01*
X12270063Y-12811531D02*
X12279586Y-12802008D01*
X12279586Y-12802008D02*
X12298634Y-12792484D01*
X12451015Y-12973436D02*
X12460539Y-12982960D01*
X12460539Y-12982960D02*
X12451015Y-12992484D01*
X12451015Y-12992484D02*
X12441491Y-12982960D01*
X12441491Y-12982960D02*
X12451015Y-12973436D01*
X12451015Y-12973436D02*
X12451015Y-12992484D01*
X12584348Y-12792484D02*
X12603396Y-12792484D01*
X12603396Y-12792484D02*
X12622444Y-12802008D01*
X12622444Y-12802008D02*
X12631967Y-12811531D01*
X12631967Y-12811531D02*
X12641491Y-12830579D01*
X12641491Y-12830579D02*
X12651015Y-12868674D01*
X12651015Y-12868674D02*
X12651015Y-12916293D01*
X12651015Y-12916293D02*
X12641491Y-12954388D01*
X12641491Y-12954388D02*
X12631967Y-12973436D01*
X12631967Y-12973436D02*
X12622444Y-12982960D01*
X12622444Y-12982960D02*
X12603396Y-12992484D01*
X12603396Y-12992484D02*
X12584348Y-12992484D01*
X12584348Y-12992484D02*
X12565301Y-12982960D01*
X12565301Y-12982960D02*
X12555777Y-12973436D01*
X12555777Y-12973436D02*
X12546253Y-12954388D01*
X12546253Y-12954388D02*
X12536729Y-12916293D01*
X12536729Y-12916293D02*
X12536729Y-12868674D01*
X12536729Y-12868674D02*
X12546253Y-12830579D01*
X12546253Y-12830579D02*
X12555777Y-12811531D01*
X12555777Y-12811531D02*
X12565301Y-12802008D01*
X12565301Y-12802008D02*
X12584348Y-12792484D01*
X12831967Y-12792484D02*
X12736729Y-12792484D01*
X12736729Y-12792484D02*
X12727206Y-12887722D01*
X12727206Y-12887722D02*
X12736729Y-12878198D01*
X12736729Y-12878198D02*
X12755777Y-12868674D01*
X12755777Y-12868674D02*
X12803396Y-12868674D01*
X12803396Y-12868674D02*
X12822444Y-12878198D01*
X12822444Y-12878198D02*
X12831967Y-12887722D01*
X12831967Y-12887722D02*
X12841491Y-12906769D01*
X12841491Y-12906769D02*
X12841491Y-12954388D01*
X12841491Y-12954388D02*
X12831967Y-12973436D01*
X12831967Y-12973436D02*
X12822444Y-12982960D01*
X12822444Y-12982960D02*
X12803396Y-12992484D01*
X12803396Y-12992484D02*
X12755777Y-12992484D01*
X12755777Y-12992484D02*
X12736729Y-12982960D01*
X12736729Y-12982960D02*
X12727206Y-12973436D01*
X12936729Y-12992484D02*
X12974825Y-12992484D01*
X12974825Y-12992484D02*
X12993872Y-12982960D01*
X12993872Y-12982960D02*
X13003396Y-12973436D01*
X13003396Y-12973436D02*
X13022444Y-12944865D01*
X13022444Y-12944865D02*
X13031967Y-12906769D01*
X13031967Y-12906769D02*
X13031967Y-12830579D01*
X13031967Y-12830579D02*
X13022444Y-12811531D01*
X13022444Y-12811531D02*
X13012920Y-12802008D01*
X13012920Y-12802008D02*
X12993872Y-12792484D01*
X12993872Y-12792484D02*
X12955777Y-12792484D01*
X12955777Y-12792484D02*
X12936729Y-12802008D01*
X12936729Y-12802008D02*
X12927206Y-12811531D01*
X12927206Y-12811531D02*
X12917682Y-12830579D01*
X12917682Y-12830579D02*
X12917682Y-12878198D01*
X12917682Y-12878198D02*
X12927206Y-12897246D01*
X12927206Y-12897246D02*
X12936729Y-12906769D01*
X12936729Y-12906769D02*
X12955777Y-12916293D01*
X12955777Y-12916293D02*
X12993872Y-12916293D01*
X12993872Y-12916293D02*
X13012920Y-12906769D01*
X13012920Y-12906769D02*
X13022444Y-12897246D01*
X13022444Y-12897246D02*
X13031967Y-12878198D01*
X13222444Y-12992484D02*
X13108158Y-12992484D01*
X13165301Y-12992484D02*
X13165301Y-12792484D01*
X13165301Y-12792484D02*
X13146253Y-12821055D01*
X13146253Y-12821055D02*
X13127206Y-12840103D01*
X13127206Y-12840103D02*
X13108158Y-12849627D01*
X13298634Y-12792484D02*
X13298634Y-12830579D01*
X13374825Y-12792484D02*
X13374825Y-12830579D01*
X13670063Y-13068674D02*
X13660539Y-13059150D01*
X13660539Y-13059150D02*
X13641491Y-13030579D01*
X13641491Y-13030579D02*
X13631968Y-13011531D01*
X13631968Y-13011531D02*
X13622444Y-12982960D01*
X13622444Y-12982960D02*
X13612920Y-12935341D01*
X13612920Y-12935341D02*
X13612920Y-12897246D01*
X13612920Y-12897246D02*
X13622444Y-12849627D01*
X13622444Y-12849627D02*
X13631968Y-12821055D01*
X13631968Y-12821055D02*
X13641491Y-12802008D01*
X13641491Y-12802008D02*
X13660539Y-12773436D01*
X13660539Y-12773436D02*
X13670063Y-12763912D01*
X13851015Y-12992484D02*
X13736729Y-12992484D01*
X13793872Y-12992484D02*
X13793872Y-12792484D01*
X13793872Y-12792484D02*
X13774825Y-12821055D01*
X13774825Y-12821055D02*
X13755777Y-12840103D01*
X13755777Y-12840103D02*
X13736729Y-12849627D01*
X13974825Y-12792484D02*
X13993872Y-12792484D01*
X13993872Y-12792484D02*
X14012920Y-12802008D01*
X14012920Y-12802008D02*
X14022444Y-12811531D01*
X14022444Y-12811531D02*
X14031968Y-12830579D01*
X14031968Y-12830579D02*
X14041491Y-12868674D01*
X14041491Y-12868674D02*
X14041491Y-12916293D01*
X14041491Y-12916293D02*
X14031968Y-12954388D01*
X14031968Y-12954388D02*
X14022444Y-12973436D01*
X14022444Y-12973436D02*
X14012920Y-12982960D01*
X14012920Y-12982960D02*
X13993872Y-12992484D01*
X13993872Y-12992484D02*
X13974825Y-12992484D01*
X13974825Y-12992484D02*
X13955777Y-12982960D01*
X13955777Y-12982960D02*
X13946253Y-12973436D01*
X13946253Y-12973436D02*
X13936729Y-12954388D01*
X13936729Y-12954388D02*
X13927206Y-12916293D01*
X13927206Y-12916293D02*
X13927206Y-12868674D01*
X13927206Y-12868674D02*
X13936729Y-12830579D01*
X13936729Y-12830579D02*
X13946253Y-12811531D01*
X13946253Y-12811531D02*
X13955777Y-12802008D01*
X13955777Y-12802008D02*
X13974825Y-12792484D01*
X14279587Y-12992484D02*
X14279587Y-12792484D01*
X14365301Y-12992484D02*
X14365301Y-12887722D01*
X14365301Y-12887722D02*
X14355777Y-12868674D01*
X14355777Y-12868674D02*
X14336730Y-12859150D01*
X14336730Y-12859150D02*
X14308158Y-12859150D01*
X14308158Y-12859150D02*
X14289110Y-12868674D01*
X14289110Y-12868674D02*
X14279587Y-12878198D01*
X14489110Y-12992484D02*
X14470063Y-12982960D01*
X14470063Y-12982960D02*
X14460539Y-12973436D01*
X14460539Y-12973436D02*
X14451015Y-12954388D01*
X14451015Y-12954388D02*
X14451015Y-12897246D01*
X14451015Y-12897246D02*
X14460539Y-12878198D01*
X14460539Y-12878198D02*
X14470063Y-12868674D01*
X14470063Y-12868674D02*
X14489110Y-12859150D01*
X14489110Y-12859150D02*
X14517682Y-12859150D01*
X14517682Y-12859150D02*
X14536730Y-12868674D01*
X14536730Y-12868674D02*
X14546253Y-12878198D01*
X14546253Y-12878198D02*
X14555777Y-12897246D01*
X14555777Y-12897246D02*
X14555777Y-12954388D01*
X14555777Y-12954388D02*
X14546253Y-12973436D01*
X14546253Y-12973436D02*
X14536730Y-12982960D01*
X14536730Y-12982960D02*
X14517682Y-12992484D01*
X14517682Y-12992484D02*
X14489110Y-12992484D01*
X14670063Y-12992484D02*
X14651015Y-12982960D01*
X14651015Y-12982960D02*
X14641491Y-12963912D01*
X14641491Y-12963912D02*
X14641491Y-12792484D01*
X14822444Y-12982960D02*
X14803396Y-12992484D01*
X14803396Y-12992484D02*
X14765301Y-12992484D01*
X14765301Y-12992484D02*
X14746253Y-12982960D01*
X14746253Y-12982960D02*
X14736730Y-12963912D01*
X14736730Y-12963912D02*
X14736730Y-12887722D01*
X14736730Y-12887722D02*
X14746253Y-12868674D01*
X14746253Y-12868674D02*
X14765301Y-12859150D01*
X14765301Y-12859150D02*
X14803396Y-12859150D01*
X14803396Y-12859150D02*
X14822444Y-12868674D01*
X14822444Y-12868674D02*
X14831968Y-12887722D01*
X14831968Y-12887722D02*
X14831968Y-12906769D01*
X14831968Y-12906769D02*
X14736730Y-12925817D01*
X14908158Y-12982960D02*
X14927206Y-12992484D01*
X14927206Y-12992484D02*
X14965301Y-12992484D01*
X14965301Y-12992484D02*
X14984349Y-12982960D01*
X14984349Y-12982960D02*
X14993872Y-12963912D01*
X14993872Y-12963912D02*
X14993872Y-12954388D01*
X14993872Y-12954388D02*
X14984349Y-12935341D01*
X14984349Y-12935341D02*
X14965301Y-12925817D01*
X14965301Y-12925817D02*
X14936730Y-12925817D01*
X14936730Y-12925817D02*
X14917682Y-12916293D01*
X14917682Y-12916293D02*
X14908158Y-12897246D01*
X14908158Y-12897246D02*
X14908158Y-12887722D01*
X14908158Y-12887722D02*
X14917682Y-12868674D01*
X14917682Y-12868674D02*
X14936730Y-12859150D01*
X14936730Y-12859150D02*
X14965301Y-12859150D01*
X14965301Y-12859150D02*
X14984349Y-12868674D01*
X15060539Y-13068674D02*
X15070063Y-13059150D01*
X15070063Y-13059150D02*
X15089111Y-13030579D01*
X15089111Y-13030579D02*
X15098634Y-13011531D01*
X15098634Y-13011531D02*
X15108158Y-12982960D01*
X15108158Y-12982960D02*
X15117682Y-12935341D01*
X15117682Y-12935341D02*
X15117682Y-12897246D01*
X15117682Y-12897246D02*
X15108158Y-12849627D01*
X15108158Y-12849627D02*
X15098634Y-12821055D01*
X15098634Y-12821055D02*
X15089111Y-12802008D01*
X15089111Y-12802008D02*
X15070063Y-12773436D01*
X15070063Y-12773436D02*
X15060539Y-12763912D01*
M02*
