%TF.GenerationSoftware,KiCad,Pcbnew,8.0.4*%
%TF.CreationDate,2024-07-24T01:11:58-07:00*%
%TF.ProjectId,panel_1,70616e65-6c5f-4312-9e6b-696361645f70,rev?*%
%TF.SameCoordinates,Original*%
%TF.FileFunction,Copper,L1,Top*%
%TF.FilePolarity,Positive*%
%FSLAX46Y46*%
G04 Gerber Fmt 4.6, Leading zero omitted, Abs format (unit mm)*
G04 Created by KiCad (PCBNEW 8.0.4) date 2024-07-24 01:11:58*
%MOMM*%
%LPD*%
G01*
G04 APERTURE LIST*
G04 Aperture macros list*
%AMRoundRect*
0 Rectangle with rounded corners*
0 $1 Rounding radius*
0 $2 $3 $4 $5 $6 $7 $8 $9 X,Y pos of 4 corners*
0 Add a 4 corners polygon primitive as box body*
4,1,4,$2,$3,$4,$5,$6,$7,$8,$9,$2,$3,0*
0 Add four circle primitives for the rounded corners*
1,1,$1+$1,$2,$3*
1,1,$1+$1,$4,$5*
1,1,$1+$1,$6,$7*
1,1,$1+$1,$8,$9*
0 Add four rect primitives between the rounded corners*
20,1,$1+$1,$2,$3,$4,$5,0*
20,1,$1+$1,$4,$5,$6,$7,0*
20,1,$1+$1,$6,$7,$8,$9,0*
20,1,$1+$1,$8,$9,$2,$3,0*%
%AMFreePoly0*
4,1,19,0.500000,-0.750000,0.000000,-0.750000,0.000000,-0.744911,-0.071157,-0.744911,-0.207708,-0.704816,-0.327430,-0.627875,-0.420627,-0.520320,-0.479746,-0.390866,-0.500000,-0.250000,-0.500000,0.250000,-0.479746,0.390866,-0.420627,0.520320,-0.327430,0.627875,-0.207708,0.704816,-0.071157,0.744911,0.000000,0.744911,0.000000,0.750000,0.500000,0.750000,0.500000,-0.750000,0.500000,-0.750000,
$1*%
%AMFreePoly1*
4,1,19,0.000000,0.744911,0.071157,0.744911,0.207708,0.704816,0.327430,0.627875,0.420627,0.520320,0.479746,0.390866,0.500000,0.250000,0.500000,-0.250000,0.479746,-0.390866,0.420627,-0.520320,0.327430,-0.627875,0.207708,-0.704816,0.071157,-0.744911,0.000000,-0.744911,0.000000,-0.750000,-0.500000,-0.750000,-0.500000,0.750000,0.000000,0.750000,0.000000,0.744911,0.000000,0.744911,
$1*%
G04 Aperture macros list end*
%TA.AperFunction,SMDPad,CuDef*%
%ADD10RoundRect,0.140000X0.140000X0.170000X-0.140000X0.170000X-0.140000X-0.170000X0.140000X-0.170000X0*%
%TD*%
%TA.AperFunction,SMDPad,CuDef*%
%ADD11FreePoly0,0.000000*%
%TD*%
%TA.AperFunction,ComponentPad*%
%ADD12C,0.600000*%
%TD*%
%TA.AperFunction,SMDPad,CuDef*%
%ADD13RoundRect,0.140000X-0.140000X-0.170000X0.140000X-0.170000X0.140000X0.170000X-0.140000X0.170000X0*%
%TD*%
%TA.AperFunction,ComponentPad*%
%ADD14C,1.400000*%
%TD*%
%TA.AperFunction,SMDPad,CuDef*%
%ADD15RoundRect,0.135000X-0.135000X-0.185000X0.135000X-0.185000X0.135000X0.185000X-0.135000X0.185000X0*%
%TD*%
%TA.AperFunction,SMDPad,CuDef*%
%ADD16RoundRect,0.140000X0.170000X-0.140000X0.170000X0.140000X-0.170000X0.140000X-0.170000X-0.140000X0*%
%TD*%
%TA.AperFunction,SMDPad,CuDef*%
%ADD17FreePoly0,90.000000*%
%TD*%
%TA.AperFunction,SMDPad,CuDef*%
%ADD18RoundRect,0.375000X0.625000X0.375000X-0.625000X0.375000X-0.625000X-0.375000X0.625000X-0.375000X0*%
%TD*%
%TA.AperFunction,SMDPad,CuDef*%
%ADD19RoundRect,0.500000X0.500000X1.400000X-0.500000X1.400000X-0.500000X-1.400000X0.500000X-1.400000X0*%
%TD*%
%TA.AperFunction,SMDPad,CuDef*%
%ADD20RoundRect,0.150000X0.150000X0.420000X-0.150000X0.420000X-0.150000X-0.420000X0.150000X-0.420000X0*%
%TD*%
%TA.AperFunction,SMDPad,CuDef*%
%ADD21RoundRect,0.075000X0.075000X0.495000X-0.075000X0.495000X-0.075000X-0.495000X0.075000X-0.495000X0*%
%TD*%
%TA.AperFunction,ComponentPad*%
%ADD22O,1.000000X2.000000*%
%TD*%
%TA.AperFunction,ComponentPad*%
%ADD23O,1.000000X1.800000*%
%TD*%
%TA.AperFunction,ComponentPad*%
%ADD24O,1.000000X1.700000*%
%TD*%
%TA.AperFunction,SMDPad,CuDef*%
%ADD25R,1.000000X0.750000*%
%TD*%
%TA.AperFunction,ComponentPad*%
%ADD26C,2.500000*%
%TD*%
%TA.AperFunction,SMDPad,CuDef*%
%ADD27RoundRect,0.135000X-0.185000X0.135000X-0.185000X-0.135000X0.185000X-0.135000X0.185000X0.135000X0*%
%TD*%
%TA.AperFunction,SMDPad,CuDef*%
%ADD28R,1.200000X1.400000*%
%TD*%
%TA.AperFunction,SMDPad,CuDef*%
%ADD29FreePoly1,90.000000*%
%TD*%
%TA.AperFunction,SMDPad,CuDef*%
%ADD30RoundRect,0.150000X0.650000X0.150000X-0.650000X0.150000X-0.650000X-0.150000X0.650000X-0.150000X0*%
%TD*%
%TA.AperFunction,SMDPad,CuDef*%
%ADD31RoundRect,0.140000X-0.170000X0.140000X-0.170000X-0.140000X0.170000X-0.140000X0.170000X0.140000X0*%
%TD*%
%TA.AperFunction,SMDPad,CuDef*%
%ADD32RoundRect,0.050000X0.050000X-0.387500X0.050000X0.387500X-0.050000X0.387500X-0.050000X-0.387500X0*%
%TD*%
%TA.AperFunction,SMDPad,CuDef*%
%ADD33RoundRect,0.050000X0.387500X-0.050000X0.387500X0.050000X-0.387500X0.050000X-0.387500X-0.050000X0*%
%TD*%
%TA.AperFunction,HeatsinkPad*%
%ADD34R,3.200000X3.200000*%
%TD*%
%TA.AperFunction,SMDPad,CuDef*%
%ADD35RoundRect,0.160000X-0.160000X0.197500X-0.160000X-0.197500X0.160000X-0.197500X0.160000X0.197500X0*%
%TD*%
%TA.AperFunction,SMDPad,CuDef*%
%ADD36RoundRect,0.135000X0.135000X0.185000X-0.135000X0.185000X-0.135000X-0.185000X0.135000X-0.185000X0*%
%TD*%
%TA.AperFunction,ViaPad*%
%ADD37C,0.800000*%
%TD*%
%TA.AperFunction,Conductor*%
%ADD38C,0.200000*%
%TD*%
%TA.AperFunction,Conductor*%
%ADD39C,0.800000*%
%TD*%
%TA.AperFunction,Conductor*%
%ADD40C,0.150000*%
%TD*%
%TA.AperFunction,Conductor*%
%ADD41C,0.300000*%
%TD*%
G04 APERTURE END LIST*
D10*
%TO.P,C10,1*%
%TO.N,+3.3V*%
X156180000Y-41900000D03*
%TO.P,C10,2*%
%TO.N,GND*%
X155220000Y-41900000D03*
%TD*%
D11*
%TO.P,JP10,1,A*%
%TO.N,/Main/B3*%
X215620000Y-107900000D03*
%TD*%
D12*
%TO.P,,57,GND*%
%TO.N,GND*%
X161916000Y-40724000D03*
%TD*%
D13*
%TO.P,C14,1*%
%TO.N,+3.3V*%
X168040000Y-41740000D03*
%TO.P,C14,2*%
%TO.N,GND*%
X169000000Y-41740000D03*
%TD*%
D14*
%TO.P,J2,1,Pin_1*%
%TO.N,/Main/SWCLK*%
X175580000Y-36330000D03*
%TO.P,J2,2,Pin_2*%
%TO.N,GND*%
X173580000Y-36330000D03*
%TO.P,J2,3,Pin_3*%
%TO.N,/Main/SWDIO*%
X171580000Y-36330000D03*
%TD*%
D10*
%TO.P,C4,1*%
%TO.N,GND*%
X173560000Y-38580000D03*
%TO.P,C4,2*%
%TO.N,Net-(C4-Pad2)*%
X172600000Y-38580000D03*
%TD*%
D12*
%TO.P,,57,GND*%
%TO.N,GND*%
X162932000Y-41740000D03*
%TD*%
D15*
%TO.P,R5,1*%
%TO.N,Net-(R5-Pad1)*%
X140451000Y-47836000D03*
%TO.P,R5,2*%
%TO.N,/Main/QSPI_SS*%
X141471000Y-47836000D03*
%TD*%
D16*
%TO.P,C18,1*%
%TO.N,+3.3V*%
X138700000Y-36380000D03*
%TO.P,C18,2*%
%TO.N,GND*%
X138700000Y-35420000D03*
%TD*%
D12*
%TO.P,,57,GND*%
%TO.N,GND*%
X161916000Y-42756000D03*
%TD*%
D17*
%TO.P,JP17,1,A*%
%TO.N,Net-(JP10-B)*%
X129500000Y-95100000D03*
%TD*%
D18*
%TO.P,U2,1,GND*%
%TO.N,GND*%
X146172000Y-42878000D03*
%TO.P,U2,2,VO*%
%TO.N,+3.3V*%
X146172000Y-40578000D03*
D19*
X139872000Y-40578000D03*
D18*
%TO.P,U2,3,VI*%
%TO.N,VBUS*%
X146172000Y-38278000D03*
%TD*%
D16*
%TO.P,C16,1*%
%TO.N,+3.3V*%
X160580000Y-36310000D03*
%TO.P,C16,2*%
%TO.N,GND*%
X160580000Y-35350000D03*
%TD*%
D20*
%TO.P,J1,A1,GND*%
%TO.N,GND*%
X156780000Y-32215000D03*
%TO.P,J1,A4,VBUS*%
%TO.N,VBUS*%
X155980000Y-32215000D03*
D21*
%TO.P,J1,A5,CC1*%
%TO.N,Net-(J1-CC1)*%
X154830000Y-32215000D03*
%TO.P,J1,A6,D+*%
%TO.N,/Main/D+*%
X153830000Y-32215000D03*
%TO.P,J1,A7,D-*%
%TO.N,/Main/D-*%
X153330000Y-32215000D03*
%TO.P,J1,A8,SBU1*%
%TO.N,unconnected-(J1-SBU1-PadA8)*%
X152330000Y-32215000D03*
D20*
%TO.P,J1,A9,VBUS*%
%TO.N,VBUS*%
X151180000Y-32215000D03*
%TO.P,J1,A12,GND*%
%TO.N,GND*%
X150380000Y-32215000D03*
%TO.P,J1,B1,GND*%
X150380000Y-32215000D03*
%TO.P,J1,B4,VBUS*%
%TO.N,VBUS*%
X151180000Y-32215000D03*
D21*
%TO.P,J1,B5,CC2*%
%TO.N,Net-(J1-CC2)*%
X151830000Y-32215000D03*
%TO.P,J1,B6,D+*%
%TO.N,/Main/D+*%
X152830000Y-32215000D03*
%TO.P,J1,B7,D-*%
%TO.N,/Main/D-*%
X154330000Y-32215000D03*
%TO.P,J1,B8,SBU2*%
%TO.N,unconnected-(J1-SBU2-PadB8)*%
X155330000Y-32215000D03*
D20*
%TO.P,J1,B9,VBUS*%
%TO.N,VBUS*%
X155980000Y-32215000D03*
%TO.P,J1,B12,GND*%
%TO.N,GND*%
X156780000Y-32215000D03*
D22*
%TO.P,J1,S1,SHIELD*%
%TO.N,Net-(J1-SHIELD)*%
X157900000Y-31645000D03*
D23*
X157900000Y-27505000D03*
D22*
X149260000Y-31645000D03*
D24*
X149260000Y-27505000D03*
%TD*%
D15*
%TO.P,R3,1*%
%TO.N,Net-(J1-CC1)*%
X155820000Y-34580000D03*
%TO.P,R3,2*%
%TO.N,GND*%
X156840000Y-34580000D03*
%TD*%
D11*
%TO.P,JP9,1,A*%
%TO.N,/Main/L3*%
X215620000Y-54950000D03*
%TD*%
D12*
%TO.P,,57,GND*%
%TO.N,GND*%
X162932000Y-40724000D03*
%TD*%
%TO.P,,57,GND*%
%TO.N,GND*%
X162932000Y-42756000D03*
%TD*%
D25*
%TO.P,SW1,1,1*%
%TO.N,GND*%
X129105000Y-44955000D03*
X135105000Y-44955000D03*
%TO.P,SW1,2,2*%
%TO.N,Net-(R5-Pad1)*%
X129105000Y-48705000D03*
X135105000Y-48705000D03*
%TD*%
D26*
%TO.P,SW18_DOWN1,1,1*%
%TO.N,DOWN*%
X184486807Y-73109684D03*
%TO.P,SW18_DOWN1,2,2*%
%TO.N,GND*%
X191325458Y-73193070D03*
%TD*%
D11*
%TO.P,JP16,1,A*%
%TO.N,GND*%
X215640000Y-119900000D03*
%TD*%
%TO.P,JP3,1,A*%
%TO.N,/Main/S1*%
X215620000Y-35650000D03*
%TD*%
%TO.P,JP1,1,A*%
%TO.N,GND*%
X215620000Y-52150000D03*
%TD*%
D27*
%TO.P,R2,1*%
%TO.N,Net-(J1-CC2)*%
X151022000Y-36568000D03*
%TO.P,R2,2*%
%TO.N,GND*%
X151022000Y-37588000D03*
%TD*%
D11*
%TO.P,JP14,1,A*%
%TO.N,/Main/SPACE*%
X215640000Y-122900000D03*
%TD*%
%TO.P,JP2,1,A*%
%TO.N,/Main/S2*%
X215620000Y-32900000D03*
%TD*%
D13*
%TO.P,C8,1*%
%TO.N,+1V1*%
X168040000Y-40330000D03*
%TO.P,C8,2*%
%TO.N,GND*%
X169000000Y-40330000D03*
%TD*%
D10*
%TO.P,C9,1*%
%TO.N,+1V1*%
X155680000Y-42900000D03*
%TO.P,C9,2*%
%TO.N,GND*%
X154720000Y-42900000D03*
%TD*%
D11*
%TO.P,JP12,1,A*%
%TO.N,/Main/B2*%
X215620000Y-113900000D03*
%TD*%
D26*
%TO.P,SW20_RIGHT1,1,1*%
%TO.N,RIGHT*%
X200555978Y-84095322D03*
%TO.P,SW20_RIGHT1,2,2*%
%TO.N,GND*%
X207394629Y-84178708D03*
%TD*%
D13*
%TO.P,C2,1*%
%TO.N,VBUS*%
X145220000Y-35900000D03*
%TO.P,C2,2*%
%TO.N,GND*%
X146180000Y-35900000D03*
%TD*%
D10*
%TO.P,C6,1*%
%TO.N,+1V1*%
X156560000Y-37830000D03*
%TO.P,C6,2*%
%TO.N,GND*%
X155600000Y-37830000D03*
%TD*%
D26*
%TO.P,SW8_DP1,1,1*%
%TO.N,L2*%
X133390000Y-74351696D03*
%TO.P,SW8_DP1,2,2*%
%TO.N,GND*%
X139740000Y-71811696D03*
%TD*%
D11*
%TO.P,JP6,1,A*%
%TO.N,/Main/L1*%
X215620000Y-43900000D03*
%TD*%
D13*
%TO.P,C13,1*%
%TO.N,+3.3V*%
X163100000Y-47830000D03*
%TO.P,C13,2*%
%TO.N,GND*%
X164060000Y-47830000D03*
%TD*%
D28*
%TO.P,Y1,1,1*%
%TO.N,/Main/XIN*%
X174196000Y-42530000D03*
%TO.P,Y1,2,2*%
%TO.N,GND*%
X174196000Y-40330000D03*
%TO.P,Y1,3,3*%
%TO.N,Net-(C4-Pad2)*%
X172496000Y-40330000D03*
%TO.P,Y1,4,4*%
%TO.N,GND*%
X172496000Y-42530000D03*
%TD*%
D29*
%TO.P,JP10,2,B*%
%TO.N,Net-(JP10-B)*%
X129500000Y-114680000D03*
%TD*%
%TO.P,JP16,2,B*%
%TO.N,GND*%
X141500000Y-114660000D03*
%TD*%
D26*
%TO.P,SW19_LEFT1,1,1*%
%TO.N,LEFT*%
X166886902Y-65819565D03*
%TO.P,SW19_LEFT1,2,2*%
%TO.N,GND*%
X173725553Y-65902951D03*
%TD*%
D13*
%TO.P,C5,1*%
%TO.N,+3.3V*%
X148736000Y-52154000D03*
%TO.P,C5,2*%
%TO.N,GND*%
X149696000Y-52154000D03*
%TD*%
D17*
%TO.P,JP20,1,A*%
%TO.N,Net-(JP13-B)*%
X138500000Y-95100000D03*
%TD*%
%TO.P,JP19,1,A*%
%TO.N,Net-(JP12-B)*%
X135500000Y-95100000D03*
%TD*%
D26*
%TO.P,SW16_SPACE1,1,1*%
%TO.N,/Buttons/SPACE*%
X159970000Y-107770000D03*
%TO.P,SW16_SPACE1,2,2*%
%TO.N,GND*%
X157430000Y-101420000D03*
%TD*%
D29*
%TO.P,JP11,2,B*%
%TO.N,Net-(JP11-B)*%
X132500000Y-114680000D03*
%TD*%
D15*
%TO.P,R1,1*%
%TO.N,Net-(J1-SHIELD)*%
X147690000Y-34247000D03*
%TO.P,R1,2*%
%TO.N,GND*%
X148710000Y-34247000D03*
%TD*%
D16*
%TO.P,C17,1*%
%TO.N,+3.3V*%
X139945000Y-36378000D03*
%TO.P,C17,2*%
%TO.N,GND*%
X139945000Y-35418000D03*
%TD*%
D12*
%TO.P,,57,GND*%
%TO.N,GND*%
X160900000Y-42756000D03*
%TD*%
D11*
%TO.P,JP4,1,A*%
%TO.N,/Main/A1*%
X215620000Y-38400000D03*
%TD*%
D12*
%TO.P,,57,GND*%
%TO.N,GND*%
X160900000Y-41740000D03*
%TD*%
D16*
%TO.P,C11,1*%
%TO.N,+3.3V*%
X149080000Y-40810000D03*
%TO.P,C11,2*%
%TO.N,GND*%
X149080000Y-39850000D03*
%TD*%
D29*
%TO.P,JP13,2,B*%
%TO.N,Net-(JP13-B)*%
X138500000Y-114680000D03*
%TD*%
D11*
%TO.P,JP5,1,A*%
%TO.N,/Main/A2*%
X215620000Y-41150000D03*
%TD*%
D30*
%TO.P,U3,1,~{CS}*%
%TO.N,/Main/QSPI_SS*%
X155610000Y-50249000D03*
%TO.P,U3,2,DO(IO1)*%
%TO.N,/Main/QSPI_SD1*%
X155610000Y-48979000D03*
%TO.P,U3,3,IO2*%
%TO.N,/Main/QSPI_SD2*%
X155610000Y-47709000D03*
%TO.P,U3,4,GND*%
%TO.N,GND*%
X155610000Y-46439000D03*
%TO.P,U3,5,DI(IO0)*%
%TO.N,/Main/QSPI_SD0*%
X148410000Y-46439000D03*
%TO.P,U3,6,CLK*%
%TO.N,/Main/QSPI_SCLK*%
X148410000Y-47709000D03*
%TO.P,U3,7,IO3*%
%TO.N,/Main/QSPI_SD3*%
X148410000Y-48979000D03*
%TO.P,U3,8,VCC*%
%TO.N,+3.3V*%
X148410000Y-50249000D03*
%TD*%
D31*
%TO.P,C12,1*%
%TO.N,+3.3V*%
X158830000Y-48100000D03*
%TO.P,C12,2*%
%TO.N,GND*%
X158830000Y-49060000D03*
%TD*%
D15*
%TO.P,R8,1*%
%TO.N,/Main/D+*%
X155190000Y-40400000D03*
%TO.P,R8,2*%
%TO.N,Net-(U1-USB_DP)*%
X156210000Y-40400000D03*
%TD*%
D32*
%TO.P,U1,1,IOVDD*%
%TO.N,+3.3V*%
X159278000Y-45215500D03*
%TO.P,U1,2,GPIO0*%
%TO.N,unconnected-(U1-GPIO0-Pad2)*%
X159678000Y-45215500D03*
%TO.P,U1,3,GPIO1*%
%TO.N,L2*%
X160078000Y-45215500D03*
%TO.P,U1,4,GPIO2*%
%TO.N,/Main/SPACE*%
X160478000Y-45215500D03*
%TO.P,U1,5,GPIO3*%
%TO.N,LEFT*%
X160878000Y-45215500D03*
%TO.P,U1,6,GPIO4*%
%TO.N,DOWN*%
X161278000Y-45215500D03*
%TO.P,U1,7,GPIO5*%
%TO.N,RIGHT*%
X161678000Y-45215500D03*
%TO.P,U1,8,GPIO6*%
%TO.N,W*%
X162078000Y-45215500D03*
%TO.P,U1,9,GPIO7*%
%TO.N,/Main/B1*%
X162478000Y-45215500D03*
%TO.P,U1,10,IOVDD*%
%TO.N,+3.3V*%
X162878000Y-45215500D03*
%TO.P,U1,11,GPIO8*%
%TO.N,/Main/B2*%
X163278000Y-45215500D03*
%TO.P,U1,12,GPIO9*%
%TO.N,/Main/R2*%
X163678000Y-45215500D03*
%TO.P,U1,13,GPIO10*%
%TO.N,/Main/B3*%
X164078000Y-45215500D03*
%TO.P,U1,14,GPIO11*%
%TO.N,/Main/L3*%
X164478000Y-45215500D03*
D33*
%TO.P,U1,15,GPIO12*%
%TO.N,/Main/B4*%
X165315500Y-44378000D03*
%TO.P,U1,16,GPIO13*%
%TO.N,/Main/R1*%
X165315500Y-43978000D03*
%TO.P,U1,17,GPIO14*%
%TO.N,/Main/L1*%
X165315500Y-43578000D03*
%TO.P,U1,18,GPIO15*%
%TO.N,unconnected-(U1-GPIO15-Pad18)*%
X165315500Y-43178000D03*
%TO.P,U1,19,TESTEN*%
%TO.N,GND*%
X165315500Y-42778000D03*
%TO.P,U1,20,XIN*%
%TO.N,/Main/XIN*%
X165315500Y-42378000D03*
%TO.P,U1,21,XOUT*%
%TO.N,/Main/XOUT*%
X165315500Y-41978000D03*
%TO.P,U1,22,IOVDD*%
%TO.N,+3.3V*%
X165315500Y-41578000D03*
%TO.P,U1,23,DVDD*%
%TO.N,+1V1*%
X165315500Y-41178000D03*
%TO.P,U1,24,SWCLK*%
%TO.N,/Main/SWCLK*%
X165315500Y-40778000D03*
%TO.P,U1,25,SWD*%
%TO.N,/Main/SWDIO*%
X165315500Y-40378000D03*
%TO.P,U1,26,RUN*%
%TO.N,+3.3V*%
X165315500Y-39978000D03*
%TO.P,U1,27,GPIO16*%
%TO.N,/Main/A2*%
X165315500Y-39578000D03*
%TO.P,U1,28,GPIO17*%
%TO.N,/Main/A1*%
X165315500Y-39178000D03*
D32*
%TO.P,U1,29,GPIO18*%
%TO.N,/Main/S1*%
X164478000Y-38340500D03*
%TO.P,U1,30,GPIO19*%
%TO.N,/Main/S2*%
X164078000Y-38340500D03*
%TO.P,U1,31,GPIO20*%
%TO.N,unconnected-(U1-GPIO20-Pad31)*%
X163678000Y-38340500D03*
%TO.P,U1,32,GPIO21*%
%TO.N,unconnected-(U1-GPIO21-Pad32)*%
X163278000Y-38340500D03*
%TO.P,U1,33,IOVDD*%
%TO.N,+3.3V*%
X162878000Y-38340500D03*
%TO.P,U1,34,GPIO22*%
%TO.N,unconnected-(U1-GPIO22-Pad34)*%
X162478000Y-38340500D03*
%TO.P,U1,35,GPIO23*%
%TO.N,unconnected-(U1-GPIO23-Pad35)*%
X162078000Y-38340500D03*
%TO.P,U1,36,GPIO24*%
%TO.N,unconnected-(U1-GPIO24-Pad36)*%
X161678000Y-38340500D03*
%TO.P,U1,37,GPIO25*%
%TO.N,unconnected-(U1-GPIO25-Pad37)*%
X161278000Y-38340500D03*
%TO.P,U1,38,GPIO26_ADC0*%
%TO.N,unconnected-(U1-GPIO26_ADC0-Pad38)*%
X160878000Y-38340500D03*
%TO.P,U1,39,GPIO27_ADC1*%
%TO.N,unconnected-(U1-GPIO27_ADC1-Pad39)*%
X160478000Y-38340500D03*
%TO.P,U1,40,GPIO28_ADC2*%
%TO.N,unconnected-(U1-GPIO28_ADC2-Pad40)*%
X160078000Y-38340500D03*
%TO.P,U1,41,GPIO29_ADC3*%
%TO.N,unconnected-(U1-GPIO29_ADC3-Pad41)*%
X159678000Y-38340500D03*
%TO.P,U1,42,IOVDD*%
%TO.N,+3.3V*%
X159278000Y-38340500D03*
D33*
%TO.P,U1,43,ADC_AVDD*%
X158440500Y-39178000D03*
%TO.P,U1,44,VREG_IN*%
X158440500Y-39578000D03*
%TO.P,U1,45,VREG_VOUT*%
%TO.N,+1V1*%
X158440500Y-39978000D03*
%TO.P,U1,46,USB_DM*%
%TO.N,Net-(U1-USB_DM)*%
X158440500Y-40378000D03*
%TO.P,U1,47,USB_DP*%
%TO.N,Net-(U1-USB_DP)*%
X158440500Y-40778000D03*
%TO.P,U1,48,USB_VDD*%
%TO.N,+3.3V*%
X158440500Y-41178000D03*
%TO.P,U1,49,IOVDD*%
X158440500Y-41578000D03*
%TO.P,U1,50,DVDD*%
%TO.N,+1V1*%
X158440500Y-41978000D03*
%TO.P,U1,51,QSPI_SD3*%
%TO.N,/Main/QSPI_SD3*%
X158440500Y-42378000D03*
%TO.P,U1,52,QSPI_SCLK*%
%TO.N,/Main/QSPI_SCLK*%
X158440500Y-42778000D03*
%TO.P,U1,53,QSPI_SD0*%
%TO.N,/Main/QSPI_SD0*%
X158440500Y-43178000D03*
%TO.P,U1,54,QSPI_SD2*%
%TO.N,/Main/QSPI_SD2*%
X158440500Y-43578000D03*
%TO.P,U1,55,QSPI_SD1*%
%TO.N,/Main/QSPI_SD1*%
X158440500Y-43978000D03*
%TO.P,U1,56,QSPI_SS*%
%TO.N,/Main/QSPI_SS*%
X158440500Y-44378000D03*
D34*
%TO.P,U1,57,GND*%
%TO.N,GND*%
X161878000Y-41778000D03*
%TD*%
D16*
%TO.P,C15,1*%
%TO.N,+3.3V*%
X162830000Y-36290000D03*
%TO.P,C15,2*%
%TO.N,GND*%
X162830000Y-35330000D03*
%TD*%
D11*
%TO.P,JP8,1,A*%
%TO.N,/Main/B4*%
X215620000Y-49400000D03*
%TD*%
D35*
%TO.P,R6,1*%
%TO.N,+3.3V*%
X144771000Y-48635500D03*
%TO.P,R6,2*%
%TO.N,/Main/QSPI_SS*%
X144771000Y-49830500D03*
%TD*%
D17*
%TO.P,JP18,1,A*%
%TO.N,Net-(JP11-B)*%
X132500000Y-95100000D03*
%TD*%
D11*
%TO.P,JP11,1,A*%
%TO.N,/Main/R2*%
X215620000Y-110900000D03*
%TD*%
D15*
%TO.P,R7,1*%
%TO.N,/Main/D-*%
X155190000Y-39400000D03*
%TO.P,R7,2*%
%TO.N,Net-(U1-USB_DM)*%
X156210000Y-39400000D03*
%TD*%
D11*
%TO.P,JP13,1,A*%
%TO.N,/Main/B1*%
X215620000Y-116900000D03*
%TD*%
D36*
%TO.P,R4,1*%
%TO.N,Net-(C4-Pad2)*%
X169790000Y-42756000D03*
%TO.P,R4,2*%
%TO.N,/Main/XOUT*%
X168770000Y-42756000D03*
%TD*%
D12*
%TO.P,,57,GND*%
%TO.N,GND*%
X160900000Y-40724000D03*
%TD*%
%TO.P,,57,GND*%
%TO.N,GND*%
X161916000Y-41740000D03*
%TD*%
D10*
%TO.P,C7,1*%
%TO.N,+3.3V*%
X156560000Y-36830000D03*
%TO.P,C7,2*%
%TO.N,GND*%
X155600000Y-36830000D03*
%TD*%
D11*
%TO.P,JP7,1,A*%
%TO.N,/Main/R1*%
X215620000Y-46650000D03*
%TD*%
D29*
%TO.P,JP12,2,B*%
%TO.N,Net-(JP12-B)*%
X135500000Y-114680000D03*
%TD*%
%TO.P,JP14,2,B*%
%TO.N,/Buttons/SPACE*%
X144500000Y-114660000D03*
%TD*%
D13*
%TO.P,C1,1*%
%TO.N,VBUS*%
X145240000Y-34900000D03*
%TO.P,C1,2*%
%TO.N,GND*%
X146200000Y-34900000D03*
%TD*%
D26*
%TO.P,SW17_W1,1,1*%
%TO.N,W*%
X191776926Y-55509779D03*
%TO.P,SW17_W1,2,2*%
%TO.N,GND*%
X198615577Y-55593165D03*
%TD*%
D31*
%TO.P,C3,1*%
%TO.N,GND*%
X176052000Y-41628000D03*
%TO.P,C3,2*%
%TO.N,/Main/XIN*%
X176052000Y-42588000D03*
%TD*%
D37*
%TO.N,GND*%
X148073000Y-36152000D03*
X158868000Y-50122000D03*
X146168000Y-44661000D03*
X169080000Y-39330000D03*
X132080000Y-44830000D03*
X139945000Y-34120000D03*
X153978500Y-46502500D03*
X166869000Y-43264000D03*
X156080000Y-35830000D03*
X176013000Y-40089000D03*
X166580000Y-48330000D03*
X161830000Y-33830000D03*
X213200000Y-118400000D03*
X213450000Y-53400000D03*
X149080000Y-38830000D03*
%TO.N,+3.3V*%
X157830000Y-36330000D03*
X161680000Y-36330000D03*
X164080000Y-48830000D03*
X158830000Y-46830000D03*
X170580000Y-39080000D03*
X139872000Y-44915000D03*
%TD*%
D38*
%TO.N,VBUS*%
X145220000Y-37326000D02*
X146172000Y-38278000D01*
X146502000Y-37948000D02*
X146172000Y-38278000D01*
X154764999Y-30430000D02*
X152512590Y-30430000D01*
X155980000Y-31645001D02*
X154764999Y-30430000D01*
X147372000Y-38278000D02*
X151180000Y-34470000D01*
X155980000Y-32215000D02*
X155980000Y-31645001D01*
X145220000Y-35900000D02*
X145220000Y-37326000D01*
X145240000Y-35880000D02*
X145220000Y-35900000D01*
X145240000Y-34900000D02*
X145240000Y-35880000D01*
X146172000Y-38278000D02*
X147372000Y-38278000D01*
X151180000Y-31762590D02*
X151180000Y-32215000D01*
X151180000Y-34470000D02*
X151180000Y-32300000D01*
X152512590Y-30430000D02*
X151180000Y-31762590D01*
%TO.N,GND*%
X149080000Y-38830000D02*
X149080000Y-39850000D01*
X169000000Y-39410000D02*
X169080000Y-39330000D01*
X155600000Y-36310000D02*
X156080000Y-35830000D01*
X172496000Y-42530000D02*
X172496000Y-42430000D01*
X146180000Y-35900000D02*
X147821000Y-35900000D01*
X155220000Y-41900000D02*
X147150000Y-41900000D01*
X176013000Y-40089000D02*
X174437000Y-40089000D01*
D39*
X141500000Y-114330000D02*
X154410000Y-101420000D01*
D38*
X161830000Y-33830000D02*
X160580000Y-35080000D01*
X154720000Y-42900000D02*
X146194000Y-42900000D01*
X160580000Y-35080000D02*
X160580000Y-35350000D01*
X156780000Y-34270000D02*
X156840000Y-34330000D01*
X176052000Y-41628000D02*
X176052000Y-40128000D01*
X165315500Y-42778000D02*
X166383000Y-42778000D01*
D39*
X161840000Y-41740000D02*
X161878000Y-41778000D01*
D38*
X147150000Y-41900000D02*
X146172000Y-42878000D01*
X156840000Y-35070000D02*
X156080000Y-35830000D01*
X162830000Y-35330000D02*
X162830000Y-34830000D01*
X169000000Y-40330000D02*
X169000000Y-39410000D01*
X153978500Y-46502500D02*
X154042000Y-46439000D01*
X154042000Y-46439000D02*
X155610000Y-46439000D01*
X146194000Y-42900000D02*
X146172000Y-42878000D01*
X171580000Y-38460025D02*
X171207975Y-38088000D01*
D39*
X154410000Y-101420000D02*
X157430000Y-101420000D01*
D38*
X155600000Y-36830000D02*
X155600000Y-36310000D01*
D39*
X214700000Y-119900000D02*
X213200000Y-118400000D01*
D38*
X153978500Y-46502500D02*
X149696000Y-50785000D01*
X171580000Y-39439999D02*
X171580000Y-38460025D01*
X172496000Y-42430000D02*
X174196000Y-40730000D01*
X169000000Y-41740000D02*
X169279999Y-41740000D01*
X162830000Y-34830000D02*
X161830000Y-33830000D01*
X158868000Y-50122000D02*
X158868000Y-49098000D01*
X139943000Y-35420000D02*
X139945000Y-35418000D01*
X172496000Y-42530000D02*
X172496000Y-42630000D01*
X149696000Y-50785000D02*
X149696000Y-52154000D01*
X138700000Y-35420000D02*
X139943000Y-35420000D01*
D39*
X214700000Y-52150000D02*
X215620000Y-52150000D01*
D38*
X174196000Y-40730000D02*
X174196000Y-40330000D01*
X147821000Y-35900000D02*
X148073000Y-36152000D01*
D39*
X161916000Y-41740000D02*
X161840000Y-41740000D01*
D40*
X131955000Y-44955000D02*
X132080000Y-44830000D01*
D38*
X148710000Y-34247000D02*
X148710000Y-35515000D01*
X171207975Y-38088000D02*
X170322000Y-38088000D01*
X155600000Y-37830000D02*
X155600000Y-36830000D01*
X148710000Y-35515000D02*
X148073000Y-36152000D01*
X174437000Y-40089000D02*
X174196000Y-40330000D01*
X148073000Y-36152000D02*
X150380000Y-33845000D01*
X150322000Y-37588000D02*
X151022000Y-37588000D01*
D39*
X141500000Y-114730000D02*
X141500000Y-114330000D01*
D40*
X132205000Y-44955000D02*
X135105000Y-44955000D01*
D38*
X156840000Y-34580000D02*
X156840000Y-35070000D01*
X174504000Y-38580000D02*
X173560000Y-38580000D01*
X150380000Y-33845000D02*
X150380000Y-32300000D01*
X146200000Y-34900000D02*
X146200000Y-35880000D01*
X139945000Y-34120000D02*
X139945000Y-35418000D01*
X158868000Y-49098000D02*
X158830000Y-49060000D01*
D39*
X215570000Y-119900000D02*
X214700000Y-119900000D01*
D38*
X170322000Y-38088000D02*
X169080000Y-39330000D01*
X149080000Y-38830000D02*
X150322000Y-37588000D01*
X146168000Y-42882000D02*
X146172000Y-42878000D01*
X164060000Y-47830000D02*
X166080000Y-47830000D01*
X166080000Y-47830000D02*
X166580000Y-48330000D01*
X146200000Y-35880000D02*
X146180000Y-35900000D01*
X140105000Y-35578000D02*
X139945000Y-35418000D01*
X166383000Y-42778000D02*
X166869000Y-43264000D01*
X156780000Y-32300000D02*
X156780000Y-34270000D01*
X169279999Y-41740000D02*
X171580000Y-39439999D01*
D39*
X161916000Y-41816000D02*
X161916000Y-41740000D01*
D40*
X129105000Y-44955000D02*
X131955000Y-44955000D01*
X132080000Y-44830000D02*
X132205000Y-44955000D01*
D38*
X176013000Y-40089000D02*
X174504000Y-38580000D01*
X146168000Y-44661000D02*
X146168000Y-42882000D01*
D39*
X213450000Y-53400000D02*
X214700000Y-52150000D01*
D38*
X176052000Y-40128000D02*
X176013000Y-40089000D01*
%TO.N,+3.3V*%
X158830000Y-47868000D02*
X159062000Y-48100000D01*
X163100000Y-47830000D02*
X163100000Y-47148000D01*
X146530000Y-40578000D02*
X146172000Y-40578000D01*
X159278000Y-37806640D02*
X159278000Y-38340500D01*
X148410000Y-50249000D02*
X148736000Y-50575000D01*
X156180000Y-41880000D02*
X155450000Y-41150000D01*
X138700000Y-36380000D02*
X139943000Y-36380000D01*
X169186134Y-41080000D02*
X168700000Y-41080000D01*
X157600000Y-41178000D02*
X157200000Y-41578000D01*
X144771000Y-48635500D02*
X146384500Y-50249000D01*
X139943000Y-36380000D02*
X139945000Y-36378000D01*
X162878000Y-36338000D02*
X162878000Y-38340500D01*
X139872000Y-40578000D02*
X139872000Y-36451000D01*
X161720000Y-36290000D02*
X162830000Y-36290000D01*
X164080000Y-48810000D02*
X163100000Y-47830000D01*
X139872000Y-41478000D02*
X139872000Y-40578000D01*
X157830000Y-36330000D02*
X157060000Y-36330000D01*
X156180000Y-41900000D02*
X156180000Y-41880000D01*
X149420000Y-41150000D02*
X149080000Y-40810000D01*
D41*
X146404000Y-40810000D02*
X146172000Y-40578000D01*
D39*
X139872000Y-40578000D02*
X146172000Y-40578000D01*
D38*
X158440500Y-39578000D02*
X158440500Y-38710500D01*
X162878000Y-46926000D02*
X162878000Y-45215500D01*
X161680000Y-36330000D02*
X161720000Y-36290000D01*
X139872000Y-44915000D02*
X139872000Y-40578000D01*
X158440500Y-39578000D02*
X158440500Y-39178000D01*
X164111640Y-39308000D02*
X164781640Y-39978000D01*
X158440500Y-41178000D02*
X157600000Y-41178000D01*
X155450000Y-41150000D02*
X149420000Y-41150000D01*
X158830000Y-46830000D02*
X158830000Y-47868000D01*
X170580000Y-39686134D02*
X169186134Y-41080000D01*
X144771000Y-46377000D02*
X139872000Y-41478000D01*
D41*
X149080000Y-40810000D02*
X146404000Y-40810000D01*
D38*
X161680000Y-36330000D02*
X160560000Y-36330000D01*
X156502000Y-41578000D02*
X156180000Y-41900000D01*
X146290000Y-40696000D02*
X146172000Y-40578000D01*
X162878000Y-38340500D02*
X162878000Y-38874360D01*
X164080000Y-48830000D02*
X164080000Y-48810000D01*
X139872000Y-36451000D02*
X139945000Y-36378000D01*
X160560000Y-36524640D02*
X159278000Y-37806640D01*
X158440500Y-38710500D02*
X156560000Y-36830000D01*
X158440500Y-41578000D02*
X157200000Y-41578000D01*
X158830000Y-46830000D02*
X158830000Y-45663500D01*
X168700000Y-41080000D02*
X168040000Y-41740000D01*
X157060000Y-36330000D02*
X156560000Y-36830000D01*
X164781640Y-39978000D02*
X165315500Y-39978000D01*
X148736000Y-50575000D02*
X148736000Y-52154000D01*
X160560000Y-36330000D02*
X160560000Y-36524640D01*
X157200000Y-41578000D02*
X156502000Y-41578000D01*
X139764000Y-40470000D02*
X139872000Y-40578000D01*
X168040000Y-41740000D02*
X167878000Y-41578000D01*
X163100000Y-47148000D02*
X162878000Y-46926000D01*
X146384500Y-50249000D02*
X148410000Y-50249000D01*
X144771000Y-48635500D02*
X144771000Y-46377000D01*
X167878000Y-41578000D02*
X165315500Y-41578000D01*
X163311640Y-39308000D02*
X164111640Y-39308000D01*
X158830000Y-45663500D02*
X159278000Y-45215500D01*
X170580000Y-39080000D02*
X170580000Y-39686134D01*
X162878000Y-38874360D02*
X163311640Y-39308000D01*
X162830000Y-36290000D02*
X162878000Y-36338000D01*
D40*
%TO.N,Net-(C4-Pad2)*%
X172600000Y-40226000D02*
X172496000Y-40330000D01*
X170070000Y-42756000D02*
X169790000Y-42756000D01*
X172600000Y-38830000D02*
X172600000Y-40226000D01*
X172496000Y-40330000D02*
X170070000Y-42756000D01*
D38*
%TO.N,Net-(J1-SHIELD)*%
X149260000Y-30930000D02*
X149260000Y-31180000D01*
X157900000Y-31180000D02*
X157900000Y-30930000D01*
X149260000Y-27730000D02*
X150860000Y-29330000D01*
X157900000Y-27000000D02*
X157900000Y-27730000D01*
X149260000Y-27000000D02*
X149260000Y-27730000D01*
X157900000Y-27730000D02*
X156300000Y-29330000D01*
X147690000Y-33165000D02*
X149260000Y-31595000D01*
X150860000Y-29330000D02*
X149260000Y-30930000D01*
X147690000Y-34247000D02*
X147690000Y-33165000D01*
X157900000Y-30930000D02*
X156300000Y-29330000D01*
X156300000Y-29330000D02*
X150860000Y-29330000D01*
%TO.N,Net-(J1-CC2)*%
X151830000Y-35760000D02*
X151830000Y-32300000D01*
X151022000Y-36568000D02*
X151830000Y-35760000D01*
D40*
%TO.N,Net-(J1-CC1)*%
X155820000Y-34580000D02*
X155820000Y-34070000D01*
X155820000Y-34070000D02*
X154830000Y-33080000D01*
X154830000Y-33080000D02*
X154830000Y-32300000D01*
D38*
%TO.N,+1V1*%
X158974360Y-39978000D02*
X159178000Y-40181640D01*
X159360000Y-39978000D02*
X159630000Y-39708000D01*
X158440500Y-41978000D02*
X157038134Y-41978000D01*
X164659640Y-41178000D02*
X165315500Y-41178000D01*
X167192000Y-41178000D02*
X168040000Y-40330000D01*
X165315500Y-41178000D02*
X167192000Y-41178000D01*
X158440500Y-39978000D02*
X157906640Y-39978000D01*
X164202000Y-40720360D02*
X164659640Y-41178000D01*
X157038134Y-41978000D02*
X156116134Y-42900000D01*
X156116134Y-42900000D02*
X155680000Y-42900000D01*
X157906640Y-39978000D02*
X156560000Y-38631360D01*
X159178000Y-41774360D02*
X158974360Y-41978000D01*
X164202000Y-40028000D02*
X164202000Y-40720360D01*
X158440500Y-39978000D02*
X158974360Y-39978000D01*
X159178000Y-40181640D02*
X159178000Y-41774360D01*
X158440500Y-39978000D02*
X159360000Y-39978000D01*
X156560000Y-38631360D02*
X156560000Y-37830000D01*
X158974360Y-41978000D02*
X158440500Y-41978000D01*
X163882000Y-39708000D02*
X164202000Y-40028000D01*
X159630000Y-39708000D02*
X163882000Y-39708000D01*
D40*
%TO.N,Net-(R5-Pad1)*%
X140445000Y-47830000D02*
X140451000Y-47836000D01*
X139582000Y-48705000D02*
X140451000Y-47836000D01*
X135105000Y-48705000D02*
X129105000Y-48705000D01*
X135105000Y-48705000D02*
X139582000Y-48705000D01*
D38*
%TO.N,Net-(U1-USB_DM)*%
X157188000Y-40378000D02*
X156210000Y-39400000D01*
X158440500Y-40378000D02*
X157188000Y-40378000D01*
%TO.N,Net-(U1-USB_DP)*%
X158440500Y-40778000D02*
X156588000Y-40778000D01*
X156588000Y-40778000D02*
X156210000Y-40400000D01*
D40*
%TO.N,/Main/XIN*%
X168539026Y-43780000D02*
X167137026Y-42378000D01*
X167137026Y-42378000D02*
X165315500Y-42378000D01*
X174380000Y-42530000D02*
X174438000Y-42588000D01*
X174438000Y-42588000D02*
X176052000Y-42588000D01*
X172946000Y-43780000D02*
X168539026Y-43780000D01*
X174196000Y-42530000D02*
X174380000Y-42530000D01*
X174196000Y-42530000D02*
X172946000Y-43780000D01*
%TO.N,/Main/XOUT*%
X168010000Y-42756000D02*
X167232000Y-41978000D01*
X168770000Y-42756000D02*
X168010000Y-42756000D01*
X167232000Y-41978000D02*
X165315500Y-41978000D01*
%TO.N,/Main/QSPI_SS*%
X156409999Y-50249000D02*
X157852000Y-48806999D01*
X155610000Y-50249000D02*
X156409999Y-50249000D01*
X157852000Y-44966500D02*
X158440500Y-44378000D01*
X144771000Y-49830500D02*
X147679500Y-52739000D01*
X153120000Y-52739000D02*
X155610000Y-50249000D01*
X147679500Y-52739000D02*
X153120000Y-52739000D01*
X142776500Y-47836000D02*
X144771000Y-49830500D01*
X141471000Y-47836000D02*
X142776500Y-47836000D01*
X157852000Y-48806999D02*
X157852000Y-44966500D01*
D39*
%TO.N,/Main/D-*%
X155190000Y-39400000D02*
X154194470Y-38404470D01*
D38*
X154194470Y-33681880D02*
X153330000Y-32817410D01*
X154330000Y-31780000D02*
X154330000Y-33681880D01*
X153330000Y-32681880D02*
X153330000Y-31780000D01*
D39*
X154194470Y-38404470D02*
X154194470Y-33681880D01*
D38*
X153330000Y-32817410D02*
X153330000Y-32215000D01*
X154330000Y-33681880D02*
X154194470Y-33681880D01*
%TO.N,/Main/D+*%
X153152590Y-30830000D02*
X152830000Y-31152590D01*
X153830000Y-31780000D02*
X153830000Y-31152590D01*
X153507410Y-30830000D02*
X153152590Y-30830000D01*
X153830000Y-31152590D02*
X153507410Y-30830000D01*
D39*
X155190000Y-40400000D02*
X155190000Y-40410000D01*
X155190000Y-40410000D02*
X155150000Y-40450000D01*
X152830000Y-38540000D02*
X152830000Y-33580000D01*
X155150000Y-40450000D02*
X154740000Y-40450000D01*
D38*
X152830000Y-31152590D02*
X152830000Y-33580000D01*
D39*
X154740000Y-40450000D02*
X152830000Y-38540000D01*
D40*
%TO.N,/Main/SWCLK*%
X174197000Y-37713000D02*
X169697000Y-37713000D01*
X166632000Y-40778000D02*
X165315500Y-40778000D01*
X175580000Y-36330000D02*
X174197000Y-37713000D01*
X169697000Y-37713000D02*
X166632000Y-40778000D01*
%TO.N,/Main/SWDIO*%
X165315500Y-40378000D02*
X166537026Y-40378000D01*
X166537026Y-40378000D02*
X170585026Y-36330000D01*
X170585026Y-36330000D02*
X171580000Y-36330000D01*
%TO.N,/Main/QSPI_SD3*%
X157236016Y-42378000D02*
X155018016Y-44596000D01*
X148265000Y-44596000D02*
X146985000Y-45876000D01*
X148200000Y-48979000D02*
X148410000Y-48979000D01*
X146985000Y-45876000D02*
X146985000Y-47764000D01*
X155018016Y-44596000D02*
X148265000Y-44596000D01*
X158440500Y-42378000D02*
X157236016Y-42378000D01*
X146985000Y-47764000D02*
X148200000Y-48979000D01*
%TO.N,/Main/QSPI_SCLK*%
X157443042Y-42778000D02*
X155275042Y-44946000D01*
X158440500Y-42778000D02*
X157443042Y-42778000D01*
X155275042Y-44946000D02*
X148423000Y-44946000D01*
X147335000Y-46034000D02*
X147335000Y-47433999D01*
X148423000Y-44946000D02*
X147335000Y-46034000D01*
X147610001Y-47709000D02*
X148410000Y-47709000D01*
X147335000Y-47433999D02*
X147610001Y-47709000D01*
%TO.N,/Main/QSPI_SD0*%
X148410000Y-46439000D02*
X149553000Y-45296000D01*
X157538016Y-43178000D02*
X158440500Y-43178000D01*
X155420016Y-45296000D02*
X157538016Y-43178000D01*
X149553000Y-45296000D02*
X155420016Y-45296000D01*
%TO.N,/Main/QSPI_SD2*%
X156830000Y-44482000D02*
X157734000Y-43578000D01*
X155610000Y-47709000D02*
X156409999Y-47709000D01*
X156409999Y-47709000D02*
X156830000Y-47288999D01*
X156830000Y-47288999D02*
X156830000Y-44482000D01*
X157734000Y-43578000D02*
X158440500Y-43578000D01*
%TO.N,/Main/QSPI_SD1*%
X156409999Y-48979000D02*
X157344000Y-48044999D01*
X157344000Y-48044999D02*
X157344000Y-44462974D01*
X157344000Y-44462974D02*
X157828974Y-43978000D01*
X157828974Y-43978000D02*
X158440500Y-43978000D01*
X155610000Y-48979000D02*
X156409999Y-48979000D01*
%TO.N,/Main/S2*%
X164078000Y-36832000D02*
X168080000Y-32830000D01*
X164078000Y-38340500D02*
X164078000Y-36832000D01*
X215520000Y-32830000D02*
X215590000Y-32900000D01*
X168080000Y-32830000D02*
X215520000Y-32830000D01*
%TO.N,/Main/S1*%
X203130000Y-33580000D02*
X205200000Y-35650000D01*
X169238500Y-33580000D02*
X203130000Y-33580000D01*
X205200000Y-35650000D02*
X215590000Y-35650000D01*
X164478000Y-38340500D02*
X169238500Y-33580000D01*
%TO.N,/Main/A1*%
X170213500Y-34280000D02*
X202517500Y-34280000D01*
X202517500Y-34280000D02*
X206637500Y-38400000D01*
X206637500Y-38400000D02*
X215590000Y-38400000D01*
X165315500Y-39178000D02*
X170213500Y-34280000D01*
%TO.N,/Main/A2*%
X201851263Y-34830000D02*
X208171263Y-41150000D01*
X165315500Y-39578000D02*
X165814006Y-39578000D01*
X170562006Y-34830000D02*
X201851263Y-34830000D01*
X208171263Y-41150000D02*
X215590000Y-41150000D01*
X165814006Y-39578000D02*
X170562006Y-34830000D01*
%TO.N,/Main/L1*%
X215620000Y-43900000D02*
X215390000Y-44130000D01*
X166592000Y-44130000D02*
X166040000Y-43578000D01*
X166040000Y-43578000D02*
X165315500Y-43578000D01*
X215390000Y-44130000D02*
X166592000Y-44130000D01*
%TO.N,/Main/R1*%
X215620000Y-46650000D02*
X204950000Y-46650000D01*
X204950000Y-46650000D02*
X202780000Y-44480000D01*
X202780000Y-44480000D02*
X166316006Y-44480000D01*
X165814006Y-43978000D02*
X165315500Y-43978000D01*
X166316006Y-44480000D02*
X165814006Y-43978000D01*
%TO.N,/Main/B4*%
X215620000Y-49400000D02*
X205650000Y-49400000D01*
X201080000Y-44830000D02*
X165767500Y-44830000D01*
X165767500Y-44830000D02*
X165315500Y-44378000D01*
X205650000Y-49400000D02*
X201080000Y-44830000D01*
%TO.N,/Main/L3*%
X199515500Y-45215500D02*
X164478000Y-45215500D01*
X215620000Y-54950000D02*
X209250000Y-54950000D01*
X209250000Y-54950000D02*
X199515500Y-45215500D01*
%TO.N,/Main/B3*%
X164078000Y-45714006D02*
X164078000Y-45215500D01*
X198630000Y-46330000D02*
X164693994Y-46330000D01*
X164693994Y-46330000D02*
X164078000Y-45714006D01*
X215620000Y-107900000D02*
X214700000Y-106980000D01*
X214700000Y-106980000D02*
X214700000Y-62400000D01*
X214700000Y-62400000D02*
X198630000Y-46330000D01*
%TO.N,/Main/R2*%
X197330000Y-46680000D02*
X164286997Y-46680000D01*
X215550000Y-110900000D02*
X213700000Y-109050000D01*
X164286997Y-46680000D02*
X163678000Y-46071003D01*
X163678000Y-46071003D02*
X163678000Y-45215500D01*
X213700000Y-63050000D02*
X197330000Y-46680000D01*
X213700000Y-109050000D02*
X213700000Y-63050000D01*
%TO.N,/Main/B2*%
X215550000Y-113900000D02*
X215200000Y-113900000D01*
X215200000Y-113900000D02*
X212700000Y-111400000D01*
X163780000Y-47030000D02*
X163278000Y-46528000D01*
X195930000Y-47030000D02*
X163780000Y-47030000D01*
X212700000Y-111400000D02*
X212700000Y-63800000D01*
X163278000Y-46528000D02*
X163278000Y-45215500D01*
X212700000Y-63800000D02*
X195930000Y-47030000D01*
%TO.N,/Main/B1*%
X215300000Y-116900000D02*
X211200000Y-112800000D01*
X197200000Y-49900000D02*
X163650000Y-49900000D01*
X211200000Y-112800000D02*
X211200000Y-63900000D01*
X215550000Y-116900000D02*
X215300000Y-116900000D01*
X163650000Y-49900000D02*
X162478000Y-48728000D01*
X162478000Y-48728000D02*
X162478000Y-45215500D01*
X211200000Y-63900000D02*
X197200000Y-49900000D01*
%TO.N,/Main/SPACE*%
X160478000Y-66678000D02*
X160478000Y-45215500D01*
X215320000Y-122900000D02*
X210200000Y-117780000D01*
X210200000Y-117780000D02*
X210200000Y-106400000D01*
X210200000Y-106400000D02*
X182700000Y-78900000D01*
X172700000Y-78900000D02*
X160478000Y-66678000D01*
X215570000Y-122900000D02*
X215320000Y-122900000D01*
X182700000Y-78900000D02*
X172700000Y-78900000D01*
%TO.N,DOWN*%
X169328000Y-54528000D02*
X163896750Y-54528000D01*
X161278000Y-51909250D02*
X161278000Y-45215500D01*
X163896750Y-54528000D02*
X161278000Y-51909250D01*
X184486807Y-69686807D02*
X169328000Y-54528000D01*
X184486807Y-73109684D02*
X184486807Y-69686807D01*
%TO.N,RIGHT*%
X200555978Y-84095322D02*
X200555978Y-78755978D01*
X163080000Y-52830000D02*
X161678000Y-51428000D01*
X174630000Y-52830000D02*
X163080000Y-52830000D01*
X200555978Y-78755978D02*
X174630000Y-52830000D01*
X161678000Y-51428000D02*
X161678000Y-45215500D01*
%TO.N,LEFT*%
X160878000Y-59810663D02*
X166886902Y-65819565D01*
X160878000Y-45215500D02*
X160878000Y-59810663D01*
%TO.N,L2*%
X159240000Y-53170000D02*
X160078000Y-52332000D01*
X160078000Y-52332000D02*
X160078000Y-45215500D01*
X154571696Y-53170000D02*
X159240000Y-53170000D01*
X133390000Y-74351696D02*
X154571696Y-53170000D01*
%TO.N,W*%
X187597147Y-51330000D02*
X163698750Y-51330000D01*
X163698750Y-51330000D02*
X162078000Y-49709250D01*
X162078000Y-49709250D02*
X162078000Y-45215500D01*
X191776926Y-55509779D02*
X187597147Y-51330000D01*
%TO.N,/Buttons/SPACE*%
X144750000Y-114730000D02*
X144500000Y-114730000D01*
X159970000Y-107770000D02*
X151710000Y-107770000D01*
X151710000Y-107770000D02*
X144750000Y-114730000D01*
%TO.N,Net-(JP10-B)*%
X129500000Y-95100000D02*
X129500000Y-114750000D01*
%TO.N,Net-(JP11-B)*%
X132500000Y-114750000D02*
X132500000Y-95100000D01*
%TO.N,Net-(JP12-B)*%
X135500000Y-95100000D02*
X135500000Y-114750000D01*
%TO.N,Net-(JP13-B)*%
X138500000Y-114750000D02*
X138500000Y-95100000D01*
%TD*%
%TA.AperFunction,Conductor*%
%TO.N,GND*%
G36*
X149438755Y-38978571D02*
G01*
X149445073Y-38984918D01*
X149445053Y-38993870D01*
X149183000Y-39622800D01*
X149176655Y-39629119D01*
X149172200Y-39630000D01*
X148987800Y-39630000D01*
X148979527Y-39626573D01*
X148977000Y-39622800D01*
X148714945Y-38993868D01*
X148714927Y-38984915D01*
X148721242Y-38978572D01*
X149075500Y-38830875D01*
X149084449Y-38830855D01*
X149438755Y-38978571D01*
G37*
%TD.AperFunction*%
%TD*%
%TA.AperFunction,Conductor*%
%TO.N,GND*%
G36*
X148069022Y-35755706D02*
G01*
X148073004Y-35763727D01*
X148073031Y-35764494D01*
X148073987Y-36147124D01*
X148070581Y-36155405D01*
X148070546Y-36155441D01*
X147798569Y-36426460D01*
X147790289Y-36429872D01*
X147782022Y-36426431D01*
X147781900Y-36426306D01*
X147372838Y-36003401D01*
X147369548Y-35995267D01*
X147369548Y-35810928D01*
X147372975Y-35802655D01*
X147380449Y-35799256D01*
X148060536Y-35752850D01*
X148069022Y-35755706D01*
G37*
%TD.AperFunction*%
%TD*%
%TA.AperFunction,Conductor*%
%TO.N,GND*%
G36*
X175864428Y-39730244D02*
G01*
X176012123Y-40084498D01*
X176012144Y-40093452D01*
X176012123Y-40093502D01*
X175864428Y-40447755D01*
X175858081Y-40454073D01*
X175849129Y-40454053D01*
X175220200Y-40191999D01*
X175213881Y-40185654D01*
X175213000Y-40181199D01*
X175213000Y-39996800D01*
X175216427Y-39988527D01*
X175220200Y-39986000D01*
X175849131Y-39723945D01*
X175858084Y-39723927D01*
X175864428Y-39730244D01*
G37*
%TD.AperFunction*%
%TD*%
%TA.AperFunction,Conductor*%
%TO.N,GND*%
G36*
X161826195Y-33827436D02*
G01*
X161832542Y-33833754D01*
X161832563Y-33833804D01*
X161978621Y-34188734D01*
X161978600Y-34197688D01*
X161972256Y-34204005D01*
X161342237Y-34463426D01*
X161333282Y-34463407D01*
X161329509Y-34460880D01*
X161199119Y-34330490D01*
X161195692Y-34322217D01*
X161196572Y-34317766D01*
X161455994Y-33687742D01*
X161462313Y-33681398D01*
X161471264Y-33681378D01*
X161826195Y-33827436D01*
G37*
%TD.AperFunction*%
%TD*%
%TA.AperFunction,Conductor*%
%TO.N,GND*%
G36*
X176370459Y-40237031D02*
G01*
X176372267Y-40237785D01*
X176378585Y-40244132D01*
X176378771Y-40252554D01*
X176154788Y-40873512D01*
X176148757Y-40880131D01*
X176143782Y-40881242D01*
X175959344Y-40881242D01*
X175951071Y-40877815D01*
X175948807Y-40874628D01*
X175648820Y-40253202D01*
X175648310Y-40244262D01*
X175654271Y-40237579D01*
X175654848Y-40237320D01*
X176008500Y-40089875D01*
X176017449Y-40089855D01*
X176370459Y-40237031D01*
G37*
%TD.AperFunction*%
%TD*%
%TA.AperFunction,Conductor*%
%TO.N,GND*%
G36*
X169437483Y-39478041D02*
G01*
X169443801Y-39484388D01*
X169443780Y-39493342D01*
X169443216Y-39494509D01*
X169103341Y-40108056D01*
X169096334Y-40113633D01*
X169093106Y-40114087D01*
X168908702Y-40114087D01*
X168900429Y-40110660D01*
X168897497Y-40105753D01*
X168713483Y-39493177D01*
X168714384Y-39484268D01*
X168720183Y-39479013D01*
X169075500Y-39330875D01*
X169084449Y-39330855D01*
X169437483Y-39478041D01*
G37*
%TD.AperFunction*%
%TD*%
%TA.AperFunction,Conductor*%
%TO.N,GND*%
G36*
X154757785Y-46336373D02*
G01*
X154764593Y-46342189D01*
X154765869Y-46347501D01*
X154765869Y-46531928D01*
X154762442Y-46540201D01*
X154759608Y-46542287D01*
X154142891Y-46866109D01*
X154133973Y-46866921D01*
X154127093Y-46861189D01*
X154126653Y-46860252D01*
X153979375Y-46506999D01*
X153979355Y-46498050D01*
X154127421Y-46142905D01*
X154133767Y-46136589D01*
X154141833Y-46136281D01*
X154757785Y-46336373D01*
G37*
%TD.AperFunction*%
%TD*%
%TA.AperFunction,Conductor*%
%TO.N,GND*%
G36*
X153974695Y-46499936D02*
G01*
X153981042Y-46506254D01*
X153981063Y-46506304D01*
X154127121Y-46861234D01*
X154127100Y-46870188D01*
X154120756Y-46876505D01*
X153490737Y-47135926D01*
X153481782Y-47135907D01*
X153478009Y-47133380D01*
X153347619Y-47002990D01*
X153344192Y-46994717D01*
X153345072Y-46990266D01*
X153604494Y-46360242D01*
X153610813Y-46353898D01*
X153619764Y-46353878D01*
X153974695Y-46499936D01*
G37*
%TD.AperFunction*%
%TD*%
%TA.AperFunction,Conductor*%
%TO.N,GND*%
G36*
X162197688Y-33681399D02*
G01*
X162204005Y-33687743D01*
X162463426Y-34317762D01*
X162463407Y-34326717D01*
X162460880Y-34330490D01*
X162330490Y-34460880D01*
X162322217Y-34464307D01*
X162317762Y-34463426D01*
X161687743Y-34204005D01*
X161681398Y-34197686D01*
X161681378Y-34188735D01*
X161827437Y-33833802D01*
X161833753Y-33827457D01*
X162188735Y-33681378D01*
X162197688Y-33681399D01*
G37*
%TD.AperFunction*%
%TD*%
%TA.AperFunction,Conductor*%
%TO.N,GND*%
G36*
X148569717Y-35518592D02*
G01*
X148573490Y-35521119D01*
X148703880Y-35651509D01*
X148707307Y-35659782D01*
X148706426Y-35664237D01*
X148447005Y-36294256D01*
X148440686Y-36300601D01*
X148431734Y-36300621D01*
X148076804Y-36154563D01*
X148070457Y-36148245D01*
X148070436Y-36148195D01*
X147924378Y-35793265D01*
X147924399Y-35784311D01*
X147930742Y-35777994D01*
X148560764Y-35518573D01*
X148569717Y-35518592D01*
G37*
%TD.AperFunction*%
%TD*%
%TA.AperFunction,Conductor*%
%TO.N,GND*%
G36*
X148569717Y-35518592D02*
G01*
X148573490Y-35521119D01*
X148703880Y-35651509D01*
X148707307Y-35659782D01*
X148706426Y-35664237D01*
X148447005Y-36294256D01*
X148440686Y-36300601D01*
X148431734Y-36300621D01*
X148076804Y-36154563D01*
X148070457Y-36148245D01*
X148070436Y-36148195D01*
X147924378Y-35793265D01*
X147924399Y-35784311D01*
X147930742Y-35777994D01*
X148560764Y-35518573D01*
X148569717Y-35518592D01*
G37*
%TD.AperFunction*%
%TD*%
%TA.AperFunction,Conductor*%
%TO.N,GND*%
G36*
X140303755Y-34268571D02*
G01*
X140310073Y-34274918D01*
X140310053Y-34283870D01*
X140048000Y-34912800D01*
X140041655Y-34919119D01*
X140037200Y-34920000D01*
X139852800Y-34920000D01*
X139844527Y-34916573D01*
X139842000Y-34912800D01*
X139579945Y-34283868D01*
X139579927Y-34274915D01*
X139586242Y-34268572D01*
X139940500Y-34120875D01*
X139949449Y-34120855D01*
X140303755Y-34268571D01*
G37*
%TD.AperFunction*%
%TD*%
%TA.AperFunction,Conductor*%
%TO.N,GND*%
G36*
X169576717Y-38696592D02*
G01*
X169580490Y-38699119D01*
X169710880Y-38829509D01*
X169714307Y-38837782D01*
X169713426Y-38842237D01*
X169454005Y-39472256D01*
X169447686Y-39478601D01*
X169438734Y-39478621D01*
X169083804Y-39332563D01*
X169077457Y-39326245D01*
X169077436Y-39326195D01*
X168931378Y-38971265D01*
X168931399Y-38962311D01*
X168937742Y-38955994D01*
X169567764Y-38696573D01*
X169576717Y-38696592D01*
G37*
%TD.AperFunction*%
%TD*%
%TA.AperFunction,Conductor*%
%TO.N,GND*%
G36*
X149576717Y-38196592D02*
G01*
X149580490Y-38199119D01*
X149710880Y-38329509D01*
X149714307Y-38337782D01*
X149713426Y-38342237D01*
X149454005Y-38972256D01*
X149447686Y-38978601D01*
X149438734Y-38978621D01*
X149083804Y-38832563D01*
X149077457Y-38826245D01*
X149077436Y-38826195D01*
X148931378Y-38471265D01*
X148931399Y-38462311D01*
X148937742Y-38455994D01*
X149567764Y-38196573D01*
X149576717Y-38196592D01*
G37*
%TD.AperFunction*%
%TD*%
%TA.AperFunction,Conductor*%
%TO.N,GND*%
G36*
X166002258Y-47734680D02*
G01*
X166720831Y-47956666D01*
X166727723Y-47962381D01*
X166728556Y-47971297D01*
X166728197Y-47972296D01*
X166582853Y-48325496D01*
X166576535Y-48331843D01*
X166576500Y-48331858D01*
X166221347Y-48478570D01*
X166212392Y-48478561D01*
X166206066Y-48472223D01*
X165987957Y-47932107D01*
X165987106Y-47927726D01*
X165987106Y-47745860D01*
X165990533Y-47737587D01*
X165998806Y-47734160D01*
X166002258Y-47734680D01*
G37*
%TD.AperFunction*%
%TD*%
%TA.AperFunction,Conductor*%
%TO.N,GND*%
G36*
X175525233Y-39455572D02*
G01*
X176093944Y-39689747D01*
X176155256Y-39714994D01*
X176161601Y-39721313D01*
X176161621Y-39730265D01*
X176015563Y-40085195D01*
X176009245Y-40091542D01*
X176009195Y-40091563D01*
X175654265Y-40237621D01*
X175645311Y-40237600D01*
X175638994Y-40231256D01*
X175578851Y-40085195D01*
X175379573Y-39601235D01*
X175379592Y-39592282D01*
X175382116Y-39588512D01*
X175512510Y-39458118D01*
X175520782Y-39454692D01*
X175525233Y-39455572D01*
G37*
%TD.AperFunction*%
%TD*%
%TA.AperFunction,Conductor*%
%TO.N,GND*%
G36*
X146268473Y-43864427D02*
G01*
X146271000Y-43868200D01*
X146533053Y-44497129D01*
X146533072Y-44506084D01*
X146526755Y-44512428D01*
X146172502Y-44660123D01*
X146163548Y-44660144D01*
X146163498Y-44660123D01*
X145809244Y-44512428D01*
X145802926Y-44506081D01*
X145802945Y-44497131D01*
X146065000Y-43868199D01*
X146071345Y-43861881D01*
X146075800Y-43861000D01*
X146260200Y-43861000D01*
X146268473Y-43864427D01*
G37*
%TD.AperFunction*%
%TD*%
%TA.AperFunction,Conductor*%
%TO.N,+3.3V*%
G36*
X162464301Y-36187218D02*
G01*
X162470927Y-36193239D01*
X162472044Y-36198228D01*
X162472044Y-36382667D01*
X162468617Y-36390940D01*
X162465445Y-36393196D01*
X161844210Y-36694156D01*
X161835271Y-36694679D01*
X161828580Y-36688728D01*
X161828317Y-36688145D01*
X161680875Y-36334499D01*
X161680855Y-36325550D01*
X161828791Y-35970717D01*
X161835137Y-35964401D01*
X161843545Y-35964210D01*
X162464301Y-36187218D01*
G37*
%TD.AperFunction*%
%TD*%
%TA.AperFunction,Conductor*%
%TO.N,+3.3V*%
G36*
X139972473Y-44118427D02*
G01*
X139975000Y-44122200D01*
X140237053Y-44751129D01*
X140237072Y-44760084D01*
X140230755Y-44766428D01*
X139876502Y-44914123D01*
X139867548Y-44914144D01*
X139867498Y-44914123D01*
X139513244Y-44766428D01*
X139506926Y-44760081D01*
X139506945Y-44751131D01*
X139769000Y-44122199D01*
X139775345Y-44115881D01*
X139779800Y-44115000D01*
X139964200Y-44115000D01*
X139972473Y-44118427D01*
G37*
%TD.AperFunction*%
%TD*%
%TA.AperFunction,Conductor*%
%TO.N,+3.3V*%
G36*
X159188755Y-46978571D02*
G01*
X159195073Y-46984918D01*
X159195053Y-46993870D01*
X158933000Y-47622800D01*
X158926655Y-47629119D01*
X158922200Y-47630000D01*
X158737800Y-47630000D01*
X158729527Y-47626573D01*
X158727000Y-47622800D01*
X158464945Y-46993868D01*
X158464927Y-46984915D01*
X158471242Y-46978572D01*
X158825500Y-46830875D01*
X158834449Y-46830855D01*
X159188755Y-46978571D01*
G37*
%TD.AperFunction*%
%TD*%
%TA.AperFunction,Conductor*%
%TO.N,+3.3V*%
G36*
X161531428Y-35971244D02*
G01*
X161679123Y-36325498D01*
X161679144Y-36334452D01*
X161679123Y-36334502D01*
X161531428Y-36688755D01*
X161525081Y-36695073D01*
X161516129Y-36695053D01*
X160887200Y-36432999D01*
X160880881Y-36426654D01*
X160880000Y-36422199D01*
X160880000Y-36237800D01*
X160883427Y-36229527D01*
X160887200Y-36227000D01*
X161516131Y-35964945D01*
X161525084Y-35964927D01*
X161531428Y-35971244D01*
G37*
%TD.AperFunction*%
%TD*%
%TA.AperFunction,Conductor*%
%TO.N,+3.3V*%
G36*
X158930473Y-46033427D02*
G01*
X158933000Y-46037200D01*
X159195053Y-46666129D01*
X159195072Y-46675084D01*
X159188755Y-46681428D01*
X158834502Y-46829123D01*
X158825548Y-46829144D01*
X158825498Y-46829123D01*
X158471244Y-46681428D01*
X158464926Y-46675081D01*
X158464945Y-46666131D01*
X158727000Y-46037199D01*
X158733345Y-46030881D01*
X158737800Y-46030000D01*
X158922200Y-46030000D01*
X158930473Y-46033427D01*
G37*
%TD.AperFunction*%
%TD*%
%TA.AperFunction,Conductor*%
%TO.N,+3.3V*%
G36*
X170936502Y-39227632D02*
G01*
X170942820Y-39233979D01*
X170942799Y-39242933D01*
X170941767Y-39244873D01*
X170521524Y-39881954D01*
X170514108Y-39886973D01*
X170505315Y-39885279D01*
X170503484Y-39883785D01*
X170374246Y-39754547D01*
X170371348Y-39749753D01*
X170214122Y-39244873D01*
X170213621Y-39243262D01*
X170214433Y-39234345D01*
X170220302Y-39228979D01*
X170576211Y-39081159D01*
X170585163Y-39081151D01*
X170936502Y-39227632D01*
G37*
%TD.AperFunction*%
%TD*%
M02*
