%TF.GenerationSoftware,KiCad,Pcbnew,8.0.4*%
%TF.CreationDate,2024-07-24T01:12:08-07:00*%
%TF.ProjectId,panel_1,70616e65-6c5f-4312-9e6b-696361645f70,rev?*%
%TF.SameCoordinates,Original*%
%TF.FileFunction,Drillmap*%
%TF.FilePolarity,Positive*%
%FSLAX45Y45*%
G04 Gerber Fmt 4.5, Leading zero omitted, Abs format (unit mm)*
G04 Created by KiCad (PCBNEW 8.0.4) date 2024-07-24 01:12:08*
%MOMM*%
%LPD*%
G01*
G04 APERTURE LIST*
%ADD10C,0.050000*%
%ADD11C,0.200000*%
%ADD12C,0.100000*%
%ADD13C,0.150000*%
G04 APERTURE END LIST*
D10*
X12625000Y-10600000D02*
G75*
G02*
X12775000Y-10600000I75000J0D01*
G01*
X17240000Y-8340000D02*
G75*
G02*
X17240000Y-8160000I0J90000D01*
G01*
X15130000Y-9035000D02*
X15130000Y-9295000D01*
X15300000Y-12440000D02*
X17375000Y-12440000D01*
X17545000Y-12440000D02*
X21620000Y-12440000D01*
X12625000Y-10900000D02*
X12625000Y-10600000D01*
X14770000Y-2990000D02*
X12120000Y-2990000D01*
X15300000Y-12260000D02*
X15300000Y-12440000D01*
X15140000Y-12260000D02*
X15140000Y-12440000D01*
X12775000Y-10600000D02*
X12775000Y-10900000D01*
X17545000Y-10385000D02*
G75*
G02*
X17375000Y-10385000I-85000J0D01*
G01*
X15140000Y-12440000D02*
X12120000Y-12440000D01*
X12775000Y-9550000D02*
X12775000Y-9455000D01*
X17545000Y-11885000D02*
X17545000Y-10785000D01*
X16840000Y-8160000D02*
G75*
G02*
X16840000Y-8340000I0J-90000D01*
G01*
X21620000Y-2990000D02*
X15920000Y-2990000D01*
X14445000Y-9455000D02*
G75*
G02*
X14445000Y-9295000I0J80000D01*
G01*
X12775000Y-11525000D02*
X14720000Y-11525000D01*
X15280000Y-8160000D02*
X15130000Y-8310000D01*
X12625000Y-9550000D02*
X12625000Y-9380000D01*
X17545000Y-8360000D02*
X17345000Y-8160000D01*
X17545000Y-12285000D02*
X17545000Y-12440000D01*
X15300000Y-11860000D02*
G75*
G02*
X15140000Y-11860000I-80000J0D01*
G01*
X15860000Y-8340000D02*
G75*
G02*
X15860000Y-8160000I0J90000D01*
G01*
X15300000Y-11525000D02*
X15300000Y-11860000D01*
X17545000Y-10385000D02*
X17545000Y-9375000D01*
X15460000Y-8160000D02*
G75*
G02*
X15460000Y-8340000I0J-90000D01*
G01*
X17375000Y-8340000D02*
X17375000Y-8975000D01*
X16840000Y-8160000D02*
X15860000Y-8160000D01*
X14720000Y-11675000D02*
X12625000Y-11675000D01*
X17375000Y-12440000D02*
X17375000Y-12285000D01*
X12775000Y-9550000D02*
G75*
G02*
X12625000Y-9550000I-75000J0D01*
G01*
X14720000Y-11525000D02*
G75*
G02*
X14720000Y-11675000I0J-75000D01*
G01*
X17375000Y-8340000D02*
X17240000Y-8340000D01*
X15300000Y-9455000D02*
X15130000Y-9455000D01*
X12625000Y-9950000D02*
G75*
G02*
X12775000Y-9950000I75000J0D01*
G01*
X17375000Y-10385000D02*
X17375000Y-9375000D01*
X12120000Y-2990000D02*
X12120000Y-12440000D01*
X14730000Y-9295000D02*
G75*
G02*
X14730000Y-9455000I0J-80000D01*
G01*
X15460000Y-8160000D02*
X15280000Y-8160000D01*
X21620000Y-12440000D02*
X21620000Y-2990000D01*
X12775000Y-11300000D02*
X12775000Y-11525000D01*
X15140000Y-11675000D02*
X15120000Y-11675000D01*
X15300000Y-8635000D02*
X15300000Y-8340000D01*
X12775000Y-9950000D02*
X12775000Y-10200000D01*
X15130000Y-8635000D02*
X15130000Y-8310000D01*
X12625000Y-11300000D02*
G75*
G02*
X12775000Y-11300000I75000J0D01*
G01*
X15300000Y-8340000D02*
X15460000Y-8340000D01*
X15140000Y-12260000D02*
G75*
G02*
X15300000Y-12260000I80000J0D01*
G01*
X12775000Y-10200000D02*
G75*
G02*
X12625000Y-10200000I-75000J0D01*
G01*
X15920000Y-2990000D02*
X15920000Y-2490000D01*
X17345000Y-8160000D02*
X17240000Y-8160000D01*
X16840000Y-8340000D02*
X15860000Y-8340000D01*
X15120000Y-11525000D02*
X15300000Y-11525000D01*
X17545000Y-8975000D02*
G75*
G02*
X17375000Y-8975000I-85000J0D01*
G01*
X12625000Y-9380000D02*
X12710000Y-9295000D01*
X17375000Y-10785000D02*
G75*
G02*
X17545000Y-10785000I85000J0D01*
G01*
X17545000Y-8975000D02*
X17545000Y-8360000D01*
X14770000Y-2490000D02*
X14770000Y-2990000D01*
X12625000Y-11300000D02*
X12625000Y-11675000D01*
X15130000Y-9035000D02*
G75*
G02*
X15300000Y-9035000I85000J0D01*
G01*
X12775000Y-10900000D02*
G75*
G02*
X12625000Y-10900000I-75000J0D01*
G01*
X17545000Y-11885000D02*
G75*
G02*
X17375000Y-11885000I-85000J0D01*
G01*
X14730000Y-9455000D02*
X14445000Y-9455000D01*
X12625000Y-10200000D02*
X12625000Y-9950000D01*
X15130000Y-9455000D02*
G75*
G02*
X15130000Y-9295000I0J80000D01*
G01*
X14045000Y-9295000D02*
G75*
G02*
X14045000Y-9455000I0J-80000D01*
G01*
X15300000Y-8635000D02*
G75*
G02*
X15130000Y-8635000I-85000J0D01*
G01*
X17375000Y-11885000D02*
X17375000Y-10785000D01*
X17375000Y-9375000D02*
G75*
G02*
X17545000Y-9375000I85000J0D01*
G01*
X14445000Y-9295000D02*
X14730000Y-9295000D01*
X14045000Y-9295000D02*
X12710000Y-9295000D01*
X15920000Y-2490000D02*
X14770000Y-2490000D01*
X15120000Y-11675000D02*
G75*
G02*
X15120000Y-11525000I0J75000D01*
G01*
X17375000Y-12285000D02*
G75*
G02*
X17545000Y-12285000I85000J0D01*
G01*
X14045000Y-9455000D02*
X12775000Y-9455000D01*
X15140000Y-11860000D02*
X15140000Y-11675000D01*
X15300000Y-9035000D02*
X15300000Y-9455000D01*
D11*
D12*
X16072500Y-4054900D02*
X16107500Y-4089900D01*
X16107500Y-4054900D02*
X16072500Y-4089900D01*
X16072500Y-4156500D02*
X16107500Y-4191500D01*
X16107500Y-4156500D02*
X16072500Y-4191500D01*
X16072500Y-4258100D02*
X16107500Y-4293100D01*
X16107500Y-4258100D02*
X16072500Y-4293100D01*
X16174100Y-4054900D02*
X16209100Y-4089900D01*
X16209100Y-4054900D02*
X16174100Y-4089900D01*
X16174100Y-4156500D02*
X16209100Y-4191500D01*
X16209100Y-4156500D02*
X16174100Y-4191500D01*
X16174100Y-4258100D02*
X16209100Y-4293100D01*
X16209100Y-4258100D02*
X16174100Y-4293100D01*
X16275700Y-4054900D02*
X16310700Y-4089900D01*
X16310700Y-4054900D02*
X16275700Y-4089900D01*
X16275700Y-4156500D02*
X16310700Y-4191500D01*
X16310700Y-4156500D02*
X16275700Y-4191500D01*
X16275700Y-4258100D02*
X16310700Y-4293100D01*
X16310700Y-4258100D02*
X16275700Y-4293100D01*
X13228000Y-4483000D02*
G75*
G02*
X13188000Y-4483000I-20000J0D01*
G01*
X13188000Y-4483000D02*
G75*
G02*
X13228000Y-4483000I20000J0D01*
G01*
X14007200Y-4491500D02*
G75*
G02*
X13967200Y-4491500I-20000J0D01*
G01*
X13967200Y-4491500D02*
G75*
G02*
X14007200Y-4491500I20000J0D01*
G01*
X14014500Y-3412000D02*
G75*
G02*
X13974500Y-3412000I-20000J0D01*
G01*
X13974500Y-3412000D02*
G75*
G02*
X14014500Y-3412000I20000J0D01*
G01*
X14636800Y-4466100D02*
G75*
G02*
X14596800Y-4466100I-20000J0D01*
G01*
X14596800Y-4466100D02*
G75*
G02*
X14636800Y-4466100I20000J0D01*
G01*
X14827300Y-3615200D02*
G75*
G02*
X14787300Y-3615200I-20000J0D01*
G01*
X14787300Y-3615200D02*
G75*
G02*
X14827300Y-3615200I20000J0D01*
G01*
X14928000Y-3883000D02*
G75*
G02*
X14888000Y-3883000I-20000J0D01*
G01*
X14888000Y-3883000D02*
G75*
G02*
X14928000Y-3883000I20000J0D01*
G01*
X15417850Y-4650250D02*
G75*
G02*
X15377850Y-4650250I-20000J0D01*
G01*
X15377850Y-4650250D02*
G75*
G02*
X15417850Y-4650250I20000J0D01*
G01*
X15628000Y-3583000D02*
G75*
G02*
X15588000Y-3583000I-20000J0D01*
G01*
X15588000Y-3583000D02*
G75*
G02*
X15628000Y-3583000I20000J0D01*
G01*
X15803000Y-3633000D02*
G75*
G02*
X15763000Y-3633000I-20000J0D01*
G01*
X15763000Y-3633000D02*
G75*
G02*
X15803000Y-3633000I20000J0D01*
G01*
X15903000Y-4683000D02*
G75*
G02*
X15863000Y-4683000I-20000J0D01*
G01*
X15863000Y-4683000D02*
G75*
G02*
X15903000Y-4683000I20000J0D01*
G01*
X15906800Y-5012200D02*
G75*
G02*
X15866800Y-5012200I-20000J0D01*
G01*
X15866800Y-5012200D02*
G75*
G02*
X15906800Y-5012200I20000J0D01*
G01*
X16188000Y-3633000D02*
G75*
G02*
X16148000Y-3633000I-20000J0D01*
G01*
X16148000Y-3633000D02*
G75*
G02*
X16188000Y-3633000I20000J0D01*
G01*
X16203000Y-3383000D02*
G75*
G02*
X16163000Y-3383000I-20000J0D01*
G01*
X16163000Y-3383000D02*
G75*
G02*
X16203000Y-3383000I20000J0D01*
G01*
X16428000Y-4883000D02*
G75*
G02*
X16388000Y-4883000I-20000J0D01*
G01*
X16388000Y-4883000D02*
G75*
G02*
X16428000Y-4883000I20000J0D01*
G01*
X16678000Y-4833000D02*
G75*
G02*
X16638000Y-4833000I-20000J0D01*
G01*
X16638000Y-4833000D02*
G75*
G02*
X16678000Y-4833000I20000J0D01*
G01*
X16706900Y-4326400D02*
G75*
G02*
X16666900Y-4326400I-20000J0D01*
G01*
X16666900Y-4326400D02*
G75*
G02*
X16706900Y-4326400I20000J0D01*
G01*
X16928000Y-3933000D02*
G75*
G02*
X16888000Y-3933000I-20000J0D01*
G01*
X16888000Y-3933000D02*
G75*
G02*
X16928000Y-3933000I20000J0D01*
G01*
X17078000Y-3908000D02*
G75*
G02*
X17038000Y-3908000I-20000J0D01*
G01*
X17038000Y-3908000D02*
G75*
G02*
X17078000Y-3908000I20000J0D01*
G01*
X17621300Y-4008900D02*
G75*
G02*
X17581300Y-4008900I-20000J0D01*
G01*
X17581300Y-4008900D02*
G75*
G02*
X17621300Y-4008900I20000J0D01*
G01*
X21340000Y-11840000D02*
G75*
G02*
X21300000Y-11840000I-20000J0D01*
G01*
X21300000Y-11840000D02*
G75*
G02*
X21340000Y-11840000I20000J0D01*
G01*
X21365000Y-5340000D02*
G75*
G02*
X21325000Y-5340000I-20000J0D01*
G01*
X21325000Y-5340000D02*
G75*
G02*
X21365000Y-5340000I20000J0D01*
G01*
X14926000Y-2720500D02*
X14926000Y-2780500D01*
X14896000Y-2750500D02*
X14956000Y-2750500D01*
X14956000Y-2790500D02*
X14956000Y-2710500D01*
X14896000Y-2710500D02*
G75*
G02*
X14956000Y-2710500I30000J0D01*
G01*
X14896000Y-2710500D02*
X14896000Y-2790500D01*
X14896000Y-2790500D02*
G75*
G03*
X14956000Y-2790500I30000J0D01*
G01*
X14926000Y-3134500D02*
X14926000Y-3194500D01*
X14896000Y-3164500D02*
X14956000Y-3164500D01*
X14956000Y-3219500D02*
X14956000Y-3109500D01*
X14896000Y-3109500D02*
G75*
G02*
X14956000Y-3109500I30000J0D01*
G01*
X14896000Y-3109500D02*
X14896000Y-3219500D01*
X14896000Y-3219500D02*
G75*
G03*
X14956000Y-3219500I30000J0D01*
G01*
X15790000Y-2720500D02*
X15790000Y-2780500D01*
X15760000Y-2750500D02*
X15820000Y-2750500D01*
X15820000Y-2790500D02*
X15820000Y-2710500D01*
X15760000Y-2710500D02*
G75*
G02*
X15820000Y-2710500I30000J0D01*
G01*
X15760000Y-2710500D02*
X15760000Y-2790500D01*
X15760000Y-2790500D02*
G75*
G03*
X15820000Y-2790500I30000J0D01*
G01*
X15790000Y-3134500D02*
X15790000Y-3194500D01*
X15760000Y-3164500D02*
X15820000Y-3164500D01*
X15820000Y-3219500D02*
X15820000Y-3109500D01*
X15760000Y-3109500D02*
G75*
G02*
X15820000Y-3109500I30000J0D01*
G01*
X15760000Y-3109500D02*
X15760000Y-3219500D01*
X15760000Y-3219500D02*
G75*
G03*
X15820000Y-3219500I30000J0D01*
G01*
X17182749Y-3657749D02*
X17182749Y-3608251D01*
X17133251Y-3608251D01*
X17133251Y-3657749D01*
X17182749Y-3657749D01*
X17382749Y-3657749D02*
X17382749Y-3608251D01*
X17333251Y-3608251D01*
X17333251Y-3657749D01*
X17382749Y-3657749D01*
X17582749Y-3657749D02*
X17582749Y-3608251D01*
X17533251Y-3608251D01*
X17533251Y-3657749D01*
X17582749Y-3657749D01*
D13*
X13339000Y-7510170D02*
X13414000Y-7435170D01*
X13339000Y-7360170D01*
X13264000Y-7435170D01*
X13339000Y-7510170D01*
X13974000Y-7256170D02*
X14049000Y-7181170D01*
X13974000Y-7106170D01*
X13899000Y-7181170D01*
X13974000Y-7256170D01*
X15743000Y-10217000D02*
X15818000Y-10142000D01*
X15743000Y-10067000D01*
X15668000Y-10142000D01*
X15743000Y-10217000D01*
X15997000Y-10852000D02*
X16072000Y-10777000D01*
X15997000Y-10702000D01*
X15922000Y-10777000D01*
X15997000Y-10852000D01*
X16688690Y-6656956D02*
X16763690Y-6581956D01*
X16688690Y-6506956D01*
X16613690Y-6581956D01*
X16688690Y-6656956D01*
X17372555Y-6665295D02*
X17447555Y-6590295D01*
X17372555Y-6515295D01*
X17297555Y-6590295D01*
X17372555Y-6665295D01*
X18448681Y-7385968D02*
X18523681Y-7310968D01*
X18448681Y-7235968D01*
X18373681Y-7310968D01*
X18448681Y-7385968D01*
X19132546Y-7394307D02*
X19207546Y-7319307D01*
X19132546Y-7244307D01*
X19057546Y-7319307D01*
X19132546Y-7394307D01*
X19177693Y-5625978D02*
X19252693Y-5550978D01*
X19177693Y-5475978D01*
X19102693Y-5550978D01*
X19177693Y-5625978D01*
X19861558Y-5634316D02*
X19936558Y-5559317D01*
X19861558Y-5484317D01*
X19786558Y-5559317D01*
X19861558Y-5634316D01*
X20055598Y-8484532D02*
X20130598Y-8409532D01*
X20055598Y-8334532D01*
X19980598Y-8409532D01*
X20055598Y-8484532D01*
X20739463Y-8492871D02*
X20814463Y-8417871D01*
X20739463Y-8342871D01*
X20664463Y-8417871D01*
X20739463Y-8492871D01*
D11*
X12378277Y-12753984D02*
X12378277Y-12553984D01*
X12378277Y-12553984D02*
X12425896Y-12553984D01*
X12425896Y-12553984D02*
X12454467Y-12563508D01*
X12454467Y-12563508D02*
X12473515Y-12582555D01*
X12473515Y-12582555D02*
X12483039Y-12601603D01*
X12483039Y-12601603D02*
X12492562Y-12639698D01*
X12492562Y-12639698D02*
X12492562Y-12668269D01*
X12492562Y-12668269D02*
X12483039Y-12706365D01*
X12483039Y-12706365D02*
X12473515Y-12725412D01*
X12473515Y-12725412D02*
X12454467Y-12744460D01*
X12454467Y-12744460D02*
X12425896Y-12753984D01*
X12425896Y-12753984D02*
X12378277Y-12753984D01*
X12578277Y-12753984D02*
X12578277Y-12620650D01*
X12578277Y-12658746D02*
X12587801Y-12639698D01*
X12587801Y-12639698D02*
X12597324Y-12630174D01*
X12597324Y-12630174D02*
X12616372Y-12620650D01*
X12616372Y-12620650D02*
X12635420Y-12620650D01*
X12702086Y-12753984D02*
X12702086Y-12620650D01*
X12702086Y-12553984D02*
X12692562Y-12563508D01*
X12692562Y-12563508D02*
X12702086Y-12573031D01*
X12702086Y-12573031D02*
X12711610Y-12563508D01*
X12711610Y-12563508D02*
X12702086Y-12553984D01*
X12702086Y-12553984D02*
X12702086Y-12573031D01*
X12825896Y-12753984D02*
X12806848Y-12744460D01*
X12806848Y-12744460D02*
X12797324Y-12725412D01*
X12797324Y-12725412D02*
X12797324Y-12553984D01*
X12930658Y-12753984D02*
X12911610Y-12744460D01*
X12911610Y-12744460D02*
X12902086Y-12725412D01*
X12902086Y-12725412D02*
X12902086Y-12553984D01*
X13159229Y-12753984D02*
X13159229Y-12553984D01*
X13159229Y-12553984D02*
X13225896Y-12696841D01*
X13225896Y-12696841D02*
X13292562Y-12553984D01*
X13292562Y-12553984D02*
X13292562Y-12753984D01*
X13473515Y-12753984D02*
X13473515Y-12649222D01*
X13473515Y-12649222D02*
X13463991Y-12630174D01*
X13463991Y-12630174D02*
X13444943Y-12620650D01*
X13444943Y-12620650D02*
X13406848Y-12620650D01*
X13406848Y-12620650D02*
X13387801Y-12630174D01*
X13473515Y-12744460D02*
X13454467Y-12753984D01*
X13454467Y-12753984D02*
X13406848Y-12753984D01*
X13406848Y-12753984D02*
X13387801Y-12744460D01*
X13387801Y-12744460D02*
X13378277Y-12725412D01*
X13378277Y-12725412D02*
X13378277Y-12706365D01*
X13378277Y-12706365D02*
X13387801Y-12687317D01*
X13387801Y-12687317D02*
X13406848Y-12677793D01*
X13406848Y-12677793D02*
X13454467Y-12677793D01*
X13454467Y-12677793D02*
X13473515Y-12668269D01*
X13568753Y-12620650D02*
X13568753Y-12820650D01*
X13568753Y-12630174D02*
X13587801Y-12620650D01*
X13587801Y-12620650D02*
X13625896Y-12620650D01*
X13625896Y-12620650D02*
X13644943Y-12630174D01*
X13644943Y-12630174D02*
X13654467Y-12639698D01*
X13654467Y-12639698D02*
X13663991Y-12658746D01*
X13663991Y-12658746D02*
X13663991Y-12715888D01*
X13663991Y-12715888D02*
X13654467Y-12734936D01*
X13654467Y-12734936D02*
X13644943Y-12744460D01*
X13644943Y-12744460D02*
X13625896Y-12753984D01*
X13625896Y-12753984D02*
X13587801Y-12753984D01*
X13587801Y-12753984D02*
X13568753Y-12744460D01*
X13749705Y-12734936D02*
X13759229Y-12744460D01*
X13759229Y-12744460D02*
X13749705Y-12753984D01*
X13749705Y-12753984D02*
X13740182Y-12744460D01*
X13740182Y-12744460D02*
X13749705Y-12734936D01*
X13749705Y-12734936D02*
X13749705Y-12753984D01*
X13749705Y-12630174D02*
X13759229Y-12639698D01*
X13759229Y-12639698D02*
X13749705Y-12649222D01*
X13749705Y-12649222D02*
X13740182Y-12639698D01*
X13740182Y-12639698D02*
X13749705Y-12630174D01*
X13749705Y-12630174D02*
X13749705Y-12649222D01*
D12*
X12082500Y-13065000D02*
X12117500Y-13100000D01*
X12117500Y-13065000D02*
X12082500Y-13100000D01*
D11*
X12416372Y-12973984D02*
X12435420Y-12973984D01*
X12435420Y-12973984D02*
X12454467Y-12983508D01*
X12454467Y-12983508D02*
X12463991Y-12993031D01*
X12463991Y-12993031D02*
X12473515Y-13012079D01*
X12473515Y-13012079D02*
X12483039Y-13050174D01*
X12483039Y-13050174D02*
X12483039Y-13097793D01*
X12483039Y-13097793D02*
X12473515Y-13135888D01*
X12473515Y-13135888D02*
X12463991Y-13154936D01*
X12463991Y-13154936D02*
X12454467Y-13164460D01*
X12454467Y-13164460D02*
X12435420Y-13173984D01*
X12435420Y-13173984D02*
X12416372Y-13173984D01*
X12416372Y-13173984D02*
X12397324Y-13164460D01*
X12397324Y-13164460D02*
X12387801Y-13154936D01*
X12387801Y-13154936D02*
X12378277Y-13135888D01*
X12378277Y-13135888D02*
X12368753Y-13097793D01*
X12368753Y-13097793D02*
X12368753Y-13050174D01*
X12368753Y-13050174D02*
X12378277Y-13012079D01*
X12378277Y-13012079D02*
X12387801Y-12993031D01*
X12387801Y-12993031D02*
X12397324Y-12983508D01*
X12397324Y-12983508D02*
X12416372Y-12973984D01*
X12568753Y-13154936D02*
X12578277Y-13164460D01*
X12578277Y-13164460D02*
X12568753Y-13173984D01*
X12568753Y-13173984D02*
X12559229Y-13164460D01*
X12559229Y-13164460D02*
X12568753Y-13154936D01*
X12568753Y-13154936D02*
X12568753Y-13173984D01*
X12644943Y-12973984D02*
X12768753Y-12973984D01*
X12768753Y-12973984D02*
X12702086Y-13050174D01*
X12702086Y-13050174D02*
X12730658Y-13050174D01*
X12730658Y-13050174D02*
X12749705Y-13059698D01*
X12749705Y-13059698D02*
X12759229Y-13069222D01*
X12759229Y-13069222D02*
X12768753Y-13088269D01*
X12768753Y-13088269D02*
X12768753Y-13135888D01*
X12768753Y-13135888D02*
X12759229Y-13154936D01*
X12759229Y-13154936D02*
X12749705Y-13164460D01*
X12749705Y-13164460D02*
X12730658Y-13173984D01*
X12730658Y-13173984D02*
X12673515Y-13173984D01*
X12673515Y-13173984D02*
X12654467Y-13164460D01*
X12654467Y-13164460D02*
X12644943Y-13154936D01*
X12949705Y-12973984D02*
X12854467Y-12973984D01*
X12854467Y-12973984D02*
X12844943Y-13069222D01*
X12844943Y-13069222D02*
X12854467Y-13059698D01*
X12854467Y-13059698D02*
X12873515Y-13050174D01*
X12873515Y-13050174D02*
X12921134Y-13050174D01*
X12921134Y-13050174D02*
X12940182Y-13059698D01*
X12940182Y-13059698D02*
X12949705Y-13069222D01*
X12949705Y-13069222D02*
X12959229Y-13088269D01*
X12959229Y-13088269D02*
X12959229Y-13135888D01*
X12959229Y-13135888D02*
X12949705Y-13154936D01*
X12949705Y-13154936D02*
X12940182Y-13164460D01*
X12940182Y-13164460D02*
X12921134Y-13173984D01*
X12921134Y-13173984D02*
X12873515Y-13173984D01*
X12873515Y-13173984D02*
X12854467Y-13164460D01*
X12854467Y-13164460D02*
X12844943Y-13154936D01*
X13083039Y-12973984D02*
X13102086Y-12973984D01*
X13102086Y-12973984D02*
X13121134Y-12983508D01*
X13121134Y-12983508D02*
X13130658Y-12993031D01*
X13130658Y-12993031D02*
X13140182Y-13012079D01*
X13140182Y-13012079D02*
X13149705Y-13050174D01*
X13149705Y-13050174D02*
X13149705Y-13097793D01*
X13149705Y-13097793D02*
X13140182Y-13135888D01*
X13140182Y-13135888D02*
X13130658Y-13154936D01*
X13130658Y-13154936D02*
X13121134Y-13164460D01*
X13121134Y-13164460D02*
X13102086Y-13173984D01*
X13102086Y-13173984D02*
X13083039Y-13173984D01*
X13083039Y-13173984D02*
X13063991Y-13164460D01*
X13063991Y-13164460D02*
X13054467Y-13154936D01*
X13054467Y-13154936D02*
X13044943Y-13135888D01*
X13044943Y-13135888D02*
X13035420Y-13097793D01*
X13035420Y-13097793D02*
X13035420Y-13050174D01*
X13035420Y-13050174D02*
X13044943Y-13012079D01*
X13044943Y-13012079D02*
X13054467Y-12993031D01*
X13054467Y-12993031D02*
X13063991Y-12983508D01*
X13063991Y-12983508D02*
X13083039Y-12973984D01*
X13235420Y-13173984D02*
X13235420Y-13040650D01*
X13235420Y-13059698D02*
X13244943Y-13050174D01*
X13244943Y-13050174D02*
X13263991Y-13040650D01*
X13263991Y-13040650D02*
X13292563Y-13040650D01*
X13292563Y-13040650D02*
X13311610Y-13050174D01*
X13311610Y-13050174D02*
X13321134Y-13069222D01*
X13321134Y-13069222D02*
X13321134Y-13173984D01*
X13321134Y-13069222D02*
X13330658Y-13050174D01*
X13330658Y-13050174D02*
X13349705Y-13040650D01*
X13349705Y-13040650D02*
X13378277Y-13040650D01*
X13378277Y-13040650D02*
X13397324Y-13050174D01*
X13397324Y-13050174D02*
X13406848Y-13069222D01*
X13406848Y-13069222D02*
X13406848Y-13173984D01*
X13502086Y-13173984D02*
X13502086Y-13040650D01*
X13502086Y-13059698D02*
X13511610Y-13050174D01*
X13511610Y-13050174D02*
X13530658Y-13040650D01*
X13530658Y-13040650D02*
X13559229Y-13040650D01*
X13559229Y-13040650D02*
X13578277Y-13050174D01*
X13578277Y-13050174D02*
X13587801Y-13069222D01*
X13587801Y-13069222D02*
X13587801Y-13173984D01*
X13587801Y-13069222D02*
X13597324Y-13050174D01*
X13597324Y-13050174D02*
X13616372Y-13040650D01*
X13616372Y-13040650D02*
X13644943Y-13040650D01*
X13644943Y-13040650D02*
X13663991Y-13050174D01*
X13663991Y-13050174D02*
X13673515Y-13069222D01*
X13673515Y-13069222D02*
X13673515Y-13173984D01*
X14063991Y-12964460D02*
X13892563Y-13221603D01*
X14321134Y-12973984D02*
X14340182Y-12973984D01*
X14340182Y-12973984D02*
X14359229Y-12983508D01*
X14359229Y-12983508D02*
X14368753Y-12993031D01*
X14368753Y-12993031D02*
X14378277Y-13012079D01*
X14378277Y-13012079D02*
X14387801Y-13050174D01*
X14387801Y-13050174D02*
X14387801Y-13097793D01*
X14387801Y-13097793D02*
X14378277Y-13135888D01*
X14378277Y-13135888D02*
X14368753Y-13154936D01*
X14368753Y-13154936D02*
X14359229Y-13164460D01*
X14359229Y-13164460D02*
X14340182Y-13173984D01*
X14340182Y-13173984D02*
X14321134Y-13173984D01*
X14321134Y-13173984D02*
X14302086Y-13164460D01*
X14302086Y-13164460D02*
X14292563Y-13154936D01*
X14292563Y-13154936D02*
X14283039Y-13135888D01*
X14283039Y-13135888D02*
X14273515Y-13097793D01*
X14273515Y-13097793D02*
X14273515Y-13050174D01*
X14273515Y-13050174D02*
X14283039Y-13012079D01*
X14283039Y-13012079D02*
X14292563Y-12993031D01*
X14292563Y-12993031D02*
X14302086Y-12983508D01*
X14302086Y-12983508D02*
X14321134Y-12973984D01*
X14473515Y-13154936D02*
X14483039Y-13164460D01*
X14483039Y-13164460D02*
X14473515Y-13173984D01*
X14473515Y-13173984D02*
X14463991Y-13164460D01*
X14463991Y-13164460D02*
X14473515Y-13154936D01*
X14473515Y-13154936D02*
X14473515Y-13173984D01*
X14606848Y-12973984D02*
X14625896Y-12973984D01*
X14625896Y-12973984D02*
X14644944Y-12983508D01*
X14644944Y-12983508D02*
X14654467Y-12993031D01*
X14654467Y-12993031D02*
X14663991Y-13012079D01*
X14663991Y-13012079D02*
X14673515Y-13050174D01*
X14673515Y-13050174D02*
X14673515Y-13097793D01*
X14673515Y-13097793D02*
X14663991Y-13135888D01*
X14663991Y-13135888D02*
X14654467Y-13154936D01*
X14654467Y-13154936D02*
X14644944Y-13164460D01*
X14644944Y-13164460D02*
X14625896Y-13173984D01*
X14625896Y-13173984D02*
X14606848Y-13173984D01*
X14606848Y-13173984D02*
X14587801Y-13164460D01*
X14587801Y-13164460D02*
X14578277Y-13154936D01*
X14578277Y-13154936D02*
X14568753Y-13135888D01*
X14568753Y-13135888D02*
X14559229Y-13097793D01*
X14559229Y-13097793D02*
X14559229Y-13050174D01*
X14559229Y-13050174D02*
X14568753Y-13012079D01*
X14568753Y-13012079D02*
X14578277Y-12993031D01*
X14578277Y-12993031D02*
X14587801Y-12983508D01*
X14587801Y-12983508D02*
X14606848Y-12973984D01*
X14863991Y-13173984D02*
X14749706Y-13173984D01*
X14806848Y-13173984D02*
X14806848Y-12973984D01*
X14806848Y-12973984D02*
X14787801Y-13002555D01*
X14787801Y-13002555D02*
X14768753Y-13021603D01*
X14768753Y-13021603D02*
X14749706Y-13031127D01*
X14930658Y-12973984D02*
X15054467Y-12973984D01*
X15054467Y-12973984D02*
X14987801Y-13050174D01*
X14987801Y-13050174D02*
X15016372Y-13050174D01*
X15016372Y-13050174D02*
X15035420Y-13059698D01*
X15035420Y-13059698D02*
X15044944Y-13069222D01*
X15044944Y-13069222D02*
X15054467Y-13088269D01*
X15054467Y-13088269D02*
X15054467Y-13135888D01*
X15054467Y-13135888D02*
X15044944Y-13154936D01*
X15044944Y-13154936D02*
X15035420Y-13164460D01*
X15035420Y-13164460D02*
X15016372Y-13173984D01*
X15016372Y-13173984D02*
X14959229Y-13173984D01*
X14959229Y-13173984D02*
X14940182Y-13164460D01*
X14940182Y-13164460D02*
X14930658Y-13154936D01*
X15168753Y-13059698D02*
X15149706Y-13050174D01*
X15149706Y-13050174D02*
X15140182Y-13040650D01*
X15140182Y-13040650D02*
X15130658Y-13021603D01*
X15130658Y-13021603D02*
X15130658Y-13012079D01*
X15130658Y-13012079D02*
X15140182Y-12993031D01*
X15140182Y-12993031D02*
X15149706Y-12983508D01*
X15149706Y-12983508D02*
X15168753Y-12973984D01*
X15168753Y-12973984D02*
X15206848Y-12973984D01*
X15206848Y-12973984D02*
X15225896Y-12983508D01*
X15225896Y-12983508D02*
X15235420Y-12993031D01*
X15235420Y-12993031D02*
X15244944Y-13012079D01*
X15244944Y-13012079D02*
X15244944Y-13021603D01*
X15244944Y-13021603D02*
X15235420Y-13040650D01*
X15235420Y-13040650D02*
X15225896Y-13050174D01*
X15225896Y-13050174D02*
X15206848Y-13059698D01*
X15206848Y-13059698D02*
X15168753Y-13059698D01*
X15168753Y-13059698D02*
X15149706Y-13069222D01*
X15149706Y-13069222D02*
X15140182Y-13078746D01*
X15140182Y-13078746D02*
X15130658Y-13097793D01*
X15130658Y-13097793D02*
X15130658Y-13135888D01*
X15130658Y-13135888D02*
X15140182Y-13154936D01*
X15140182Y-13154936D02*
X15149706Y-13164460D01*
X15149706Y-13164460D02*
X15168753Y-13173984D01*
X15168753Y-13173984D02*
X15206848Y-13173984D01*
X15206848Y-13173984D02*
X15225896Y-13164460D01*
X15225896Y-13164460D02*
X15235420Y-13154936D01*
X15235420Y-13154936D02*
X15244944Y-13135888D01*
X15244944Y-13135888D02*
X15244944Y-13097793D01*
X15244944Y-13097793D02*
X15235420Y-13078746D01*
X15235420Y-13078746D02*
X15225896Y-13069222D01*
X15225896Y-13069222D02*
X15206848Y-13059698D01*
X15321134Y-12973984D02*
X15321134Y-13012079D01*
X15397325Y-12973984D02*
X15397325Y-13012079D01*
X15692563Y-13250174D02*
X15683039Y-13240650D01*
X15683039Y-13240650D02*
X15663991Y-13212079D01*
X15663991Y-13212079D02*
X15654468Y-13193031D01*
X15654468Y-13193031D02*
X15644944Y-13164460D01*
X15644944Y-13164460D02*
X15635420Y-13116841D01*
X15635420Y-13116841D02*
X15635420Y-13078746D01*
X15635420Y-13078746D02*
X15644944Y-13031127D01*
X15644944Y-13031127D02*
X15654468Y-13002555D01*
X15654468Y-13002555D02*
X15663991Y-12983508D01*
X15663991Y-12983508D02*
X15683039Y-12954936D01*
X15683039Y-12954936D02*
X15692563Y-12945412D01*
X15778277Y-13173984D02*
X15816372Y-13173984D01*
X15816372Y-13173984D02*
X15835420Y-13164460D01*
X15835420Y-13164460D02*
X15844944Y-13154936D01*
X15844944Y-13154936D02*
X15863991Y-13126365D01*
X15863991Y-13126365D02*
X15873515Y-13088269D01*
X15873515Y-13088269D02*
X15873515Y-13012079D01*
X15873515Y-13012079D02*
X15863991Y-12993031D01*
X15863991Y-12993031D02*
X15854468Y-12983508D01*
X15854468Y-12983508D02*
X15835420Y-12973984D01*
X15835420Y-12973984D02*
X15797325Y-12973984D01*
X15797325Y-12973984D02*
X15778277Y-12983508D01*
X15778277Y-12983508D02*
X15768753Y-12993031D01*
X15768753Y-12993031D02*
X15759229Y-13012079D01*
X15759229Y-13012079D02*
X15759229Y-13059698D01*
X15759229Y-13059698D02*
X15768753Y-13078746D01*
X15768753Y-13078746D02*
X15778277Y-13088269D01*
X15778277Y-13088269D02*
X15797325Y-13097793D01*
X15797325Y-13097793D02*
X15835420Y-13097793D01*
X15835420Y-13097793D02*
X15854468Y-13088269D01*
X15854468Y-13088269D02*
X15863991Y-13078746D01*
X15863991Y-13078746D02*
X15873515Y-13059698D01*
X16111610Y-13173984D02*
X16111610Y-12973984D01*
X16197325Y-13173984D02*
X16197325Y-13069222D01*
X16197325Y-13069222D02*
X16187801Y-13050174D01*
X16187801Y-13050174D02*
X16168753Y-13040650D01*
X16168753Y-13040650D02*
X16140182Y-13040650D01*
X16140182Y-13040650D02*
X16121134Y-13050174D01*
X16121134Y-13050174D02*
X16111610Y-13059698D01*
X16321134Y-13173984D02*
X16302087Y-13164460D01*
X16302087Y-13164460D02*
X16292563Y-13154936D01*
X16292563Y-13154936D02*
X16283039Y-13135888D01*
X16283039Y-13135888D02*
X16283039Y-13078746D01*
X16283039Y-13078746D02*
X16292563Y-13059698D01*
X16292563Y-13059698D02*
X16302087Y-13050174D01*
X16302087Y-13050174D02*
X16321134Y-13040650D01*
X16321134Y-13040650D02*
X16349706Y-13040650D01*
X16349706Y-13040650D02*
X16368753Y-13050174D01*
X16368753Y-13050174D02*
X16378277Y-13059698D01*
X16378277Y-13059698D02*
X16387801Y-13078746D01*
X16387801Y-13078746D02*
X16387801Y-13135888D01*
X16387801Y-13135888D02*
X16378277Y-13154936D01*
X16378277Y-13154936D02*
X16368753Y-13164460D01*
X16368753Y-13164460D02*
X16349706Y-13173984D01*
X16349706Y-13173984D02*
X16321134Y-13173984D01*
X16502087Y-13173984D02*
X16483039Y-13164460D01*
X16483039Y-13164460D02*
X16473515Y-13145412D01*
X16473515Y-13145412D02*
X16473515Y-12973984D01*
X16654468Y-13164460D02*
X16635420Y-13173984D01*
X16635420Y-13173984D02*
X16597325Y-13173984D01*
X16597325Y-13173984D02*
X16578277Y-13164460D01*
X16578277Y-13164460D02*
X16568753Y-13145412D01*
X16568753Y-13145412D02*
X16568753Y-13069222D01*
X16568753Y-13069222D02*
X16578277Y-13050174D01*
X16578277Y-13050174D02*
X16597325Y-13040650D01*
X16597325Y-13040650D02*
X16635420Y-13040650D01*
X16635420Y-13040650D02*
X16654468Y-13050174D01*
X16654468Y-13050174D02*
X16663991Y-13069222D01*
X16663991Y-13069222D02*
X16663991Y-13088269D01*
X16663991Y-13088269D02*
X16568753Y-13107317D01*
X16740182Y-13164460D02*
X16759230Y-13173984D01*
X16759230Y-13173984D02*
X16797325Y-13173984D01*
X16797325Y-13173984D02*
X16816373Y-13164460D01*
X16816373Y-13164460D02*
X16825896Y-13145412D01*
X16825896Y-13145412D02*
X16825896Y-13135888D01*
X16825896Y-13135888D02*
X16816373Y-13116841D01*
X16816373Y-13116841D02*
X16797325Y-13107317D01*
X16797325Y-13107317D02*
X16768753Y-13107317D01*
X16768753Y-13107317D02*
X16749706Y-13097793D01*
X16749706Y-13097793D02*
X16740182Y-13078746D01*
X16740182Y-13078746D02*
X16740182Y-13069222D01*
X16740182Y-13069222D02*
X16749706Y-13050174D01*
X16749706Y-13050174D02*
X16768753Y-13040650D01*
X16768753Y-13040650D02*
X16797325Y-13040650D01*
X16797325Y-13040650D02*
X16816373Y-13050174D01*
X16892563Y-13250174D02*
X16902087Y-13240650D01*
X16902087Y-13240650D02*
X16921134Y-13212079D01*
X16921134Y-13212079D02*
X16930658Y-13193031D01*
X16930658Y-13193031D02*
X16940182Y-13164460D01*
X16940182Y-13164460D02*
X16949706Y-13116841D01*
X16949706Y-13116841D02*
X16949706Y-13078746D01*
X16949706Y-13078746D02*
X16940182Y-13031127D01*
X16940182Y-13031127D02*
X16930658Y-13002555D01*
X16930658Y-13002555D02*
X16921134Y-12983508D01*
X16921134Y-12983508D02*
X16902087Y-12954936D01*
X16902087Y-12954936D02*
X16892563Y-12945412D01*
D12*
X12117500Y-13346500D02*
G75*
G02*
X12077500Y-13346500I-20000J0D01*
G01*
X12077500Y-13346500D02*
G75*
G02*
X12117500Y-13346500I20000J0D01*
G01*
D11*
X12416372Y-13237984D02*
X12435420Y-13237984D01*
X12435420Y-13237984D02*
X12454467Y-13247508D01*
X12454467Y-13247508D02*
X12463991Y-13257031D01*
X12463991Y-13257031D02*
X12473515Y-13276079D01*
X12473515Y-13276079D02*
X12483039Y-13314174D01*
X12483039Y-13314174D02*
X12483039Y-13361793D01*
X12483039Y-13361793D02*
X12473515Y-13399888D01*
X12473515Y-13399888D02*
X12463991Y-13418936D01*
X12463991Y-13418936D02*
X12454467Y-13428460D01*
X12454467Y-13428460D02*
X12435420Y-13437984D01*
X12435420Y-13437984D02*
X12416372Y-13437984D01*
X12416372Y-13437984D02*
X12397324Y-13428460D01*
X12397324Y-13428460D02*
X12387801Y-13418936D01*
X12387801Y-13418936D02*
X12378277Y-13399888D01*
X12378277Y-13399888D02*
X12368753Y-13361793D01*
X12368753Y-13361793D02*
X12368753Y-13314174D01*
X12368753Y-13314174D02*
X12378277Y-13276079D01*
X12378277Y-13276079D02*
X12387801Y-13257031D01*
X12387801Y-13257031D02*
X12397324Y-13247508D01*
X12397324Y-13247508D02*
X12416372Y-13237984D01*
X12568753Y-13418936D02*
X12578277Y-13428460D01*
X12578277Y-13428460D02*
X12568753Y-13437984D01*
X12568753Y-13437984D02*
X12559229Y-13428460D01*
X12559229Y-13428460D02*
X12568753Y-13418936D01*
X12568753Y-13418936D02*
X12568753Y-13437984D01*
X12749705Y-13304650D02*
X12749705Y-13437984D01*
X12702086Y-13228460D02*
X12654467Y-13371317D01*
X12654467Y-13371317D02*
X12778277Y-13371317D01*
X12892562Y-13237984D02*
X12911610Y-13237984D01*
X12911610Y-13237984D02*
X12930658Y-13247508D01*
X12930658Y-13247508D02*
X12940182Y-13257031D01*
X12940182Y-13257031D02*
X12949705Y-13276079D01*
X12949705Y-13276079D02*
X12959229Y-13314174D01*
X12959229Y-13314174D02*
X12959229Y-13361793D01*
X12959229Y-13361793D02*
X12949705Y-13399888D01*
X12949705Y-13399888D02*
X12940182Y-13418936D01*
X12940182Y-13418936D02*
X12930658Y-13428460D01*
X12930658Y-13428460D02*
X12911610Y-13437984D01*
X12911610Y-13437984D02*
X12892562Y-13437984D01*
X12892562Y-13437984D02*
X12873515Y-13428460D01*
X12873515Y-13428460D02*
X12863991Y-13418936D01*
X12863991Y-13418936D02*
X12854467Y-13399888D01*
X12854467Y-13399888D02*
X12844943Y-13361793D01*
X12844943Y-13361793D02*
X12844943Y-13314174D01*
X12844943Y-13314174D02*
X12854467Y-13276079D01*
X12854467Y-13276079D02*
X12863991Y-13257031D01*
X12863991Y-13257031D02*
X12873515Y-13247508D01*
X12873515Y-13247508D02*
X12892562Y-13237984D01*
X13083039Y-13237984D02*
X13102086Y-13237984D01*
X13102086Y-13237984D02*
X13121134Y-13247508D01*
X13121134Y-13247508D02*
X13130658Y-13257031D01*
X13130658Y-13257031D02*
X13140182Y-13276079D01*
X13140182Y-13276079D02*
X13149705Y-13314174D01*
X13149705Y-13314174D02*
X13149705Y-13361793D01*
X13149705Y-13361793D02*
X13140182Y-13399888D01*
X13140182Y-13399888D02*
X13130658Y-13418936D01*
X13130658Y-13418936D02*
X13121134Y-13428460D01*
X13121134Y-13428460D02*
X13102086Y-13437984D01*
X13102086Y-13437984D02*
X13083039Y-13437984D01*
X13083039Y-13437984D02*
X13063991Y-13428460D01*
X13063991Y-13428460D02*
X13054467Y-13418936D01*
X13054467Y-13418936D02*
X13044943Y-13399888D01*
X13044943Y-13399888D02*
X13035420Y-13361793D01*
X13035420Y-13361793D02*
X13035420Y-13314174D01*
X13035420Y-13314174D02*
X13044943Y-13276079D01*
X13044943Y-13276079D02*
X13054467Y-13257031D01*
X13054467Y-13257031D02*
X13063991Y-13247508D01*
X13063991Y-13247508D02*
X13083039Y-13237984D01*
X13235420Y-13437984D02*
X13235420Y-13304650D01*
X13235420Y-13323698D02*
X13244943Y-13314174D01*
X13244943Y-13314174D02*
X13263991Y-13304650D01*
X13263991Y-13304650D02*
X13292563Y-13304650D01*
X13292563Y-13304650D02*
X13311610Y-13314174D01*
X13311610Y-13314174D02*
X13321134Y-13333222D01*
X13321134Y-13333222D02*
X13321134Y-13437984D01*
X13321134Y-13333222D02*
X13330658Y-13314174D01*
X13330658Y-13314174D02*
X13349705Y-13304650D01*
X13349705Y-13304650D02*
X13378277Y-13304650D01*
X13378277Y-13304650D02*
X13397324Y-13314174D01*
X13397324Y-13314174D02*
X13406848Y-13333222D01*
X13406848Y-13333222D02*
X13406848Y-13437984D01*
X13502086Y-13437984D02*
X13502086Y-13304650D01*
X13502086Y-13323698D02*
X13511610Y-13314174D01*
X13511610Y-13314174D02*
X13530658Y-13304650D01*
X13530658Y-13304650D02*
X13559229Y-13304650D01*
X13559229Y-13304650D02*
X13578277Y-13314174D01*
X13578277Y-13314174D02*
X13587801Y-13333222D01*
X13587801Y-13333222D02*
X13587801Y-13437984D01*
X13587801Y-13333222D02*
X13597324Y-13314174D01*
X13597324Y-13314174D02*
X13616372Y-13304650D01*
X13616372Y-13304650D02*
X13644943Y-13304650D01*
X13644943Y-13304650D02*
X13663991Y-13314174D01*
X13663991Y-13314174D02*
X13673515Y-13333222D01*
X13673515Y-13333222D02*
X13673515Y-13437984D01*
X14063991Y-13228460D02*
X13892563Y-13485603D01*
X14321134Y-13237984D02*
X14340182Y-13237984D01*
X14340182Y-13237984D02*
X14359229Y-13247508D01*
X14359229Y-13247508D02*
X14368753Y-13257031D01*
X14368753Y-13257031D02*
X14378277Y-13276079D01*
X14378277Y-13276079D02*
X14387801Y-13314174D01*
X14387801Y-13314174D02*
X14387801Y-13361793D01*
X14387801Y-13361793D02*
X14378277Y-13399888D01*
X14378277Y-13399888D02*
X14368753Y-13418936D01*
X14368753Y-13418936D02*
X14359229Y-13428460D01*
X14359229Y-13428460D02*
X14340182Y-13437984D01*
X14340182Y-13437984D02*
X14321134Y-13437984D01*
X14321134Y-13437984D02*
X14302086Y-13428460D01*
X14302086Y-13428460D02*
X14292563Y-13418936D01*
X14292563Y-13418936D02*
X14283039Y-13399888D01*
X14283039Y-13399888D02*
X14273515Y-13361793D01*
X14273515Y-13361793D02*
X14273515Y-13314174D01*
X14273515Y-13314174D02*
X14283039Y-13276079D01*
X14283039Y-13276079D02*
X14292563Y-13257031D01*
X14292563Y-13257031D02*
X14302086Y-13247508D01*
X14302086Y-13247508D02*
X14321134Y-13237984D01*
X14473515Y-13418936D02*
X14483039Y-13428460D01*
X14483039Y-13428460D02*
X14473515Y-13437984D01*
X14473515Y-13437984D02*
X14463991Y-13428460D01*
X14463991Y-13428460D02*
X14473515Y-13418936D01*
X14473515Y-13418936D02*
X14473515Y-13437984D01*
X14606848Y-13237984D02*
X14625896Y-13237984D01*
X14625896Y-13237984D02*
X14644944Y-13247508D01*
X14644944Y-13247508D02*
X14654467Y-13257031D01*
X14654467Y-13257031D02*
X14663991Y-13276079D01*
X14663991Y-13276079D02*
X14673515Y-13314174D01*
X14673515Y-13314174D02*
X14673515Y-13361793D01*
X14673515Y-13361793D02*
X14663991Y-13399888D01*
X14663991Y-13399888D02*
X14654467Y-13418936D01*
X14654467Y-13418936D02*
X14644944Y-13428460D01*
X14644944Y-13428460D02*
X14625896Y-13437984D01*
X14625896Y-13437984D02*
X14606848Y-13437984D01*
X14606848Y-13437984D02*
X14587801Y-13428460D01*
X14587801Y-13428460D02*
X14578277Y-13418936D01*
X14578277Y-13418936D02*
X14568753Y-13399888D01*
X14568753Y-13399888D02*
X14559229Y-13361793D01*
X14559229Y-13361793D02*
X14559229Y-13314174D01*
X14559229Y-13314174D02*
X14568753Y-13276079D01*
X14568753Y-13276079D02*
X14578277Y-13257031D01*
X14578277Y-13257031D02*
X14587801Y-13247508D01*
X14587801Y-13247508D02*
X14606848Y-13237984D01*
X14863991Y-13437984D02*
X14749706Y-13437984D01*
X14806848Y-13437984D02*
X14806848Y-13237984D01*
X14806848Y-13237984D02*
X14787801Y-13266555D01*
X14787801Y-13266555D02*
X14768753Y-13285603D01*
X14768753Y-13285603D02*
X14749706Y-13295127D01*
X15044944Y-13237984D02*
X14949706Y-13237984D01*
X14949706Y-13237984D02*
X14940182Y-13333222D01*
X14940182Y-13333222D02*
X14949706Y-13323698D01*
X14949706Y-13323698D02*
X14968753Y-13314174D01*
X14968753Y-13314174D02*
X15016372Y-13314174D01*
X15016372Y-13314174D02*
X15035420Y-13323698D01*
X15035420Y-13323698D02*
X15044944Y-13333222D01*
X15044944Y-13333222D02*
X15054467Y-13352269D01*
X15054467Y-13352269D02*
X15054467Y-13399888D01*
X15054467Y-13399888D02*
X15044944Y-13418936D01*
X15044944Y-13418936D02*
X15035420Y-13428460D01*
X15035420Y-13428460D02*
X15016372Y-13437984D01*
X15016372Y-13437984D02*
X14968753Y-13437984D01*
X14968753Y-13437984D02*
X14949706Y-13428460D01*
X14949706Y-13428460D02*
X14940182Y-13418936D01*
X15121134Y-13237984D02*
X15254467Y-13237984D01*
X15254467Y-13237984D02*
X15168753Y-13437984D01*
X15321134Y-13237984D02*
X15321134Y-13276079D01*
X15397325Y-13237984D02*
X15397325Y-13276079D01*
X15692563Y-13514174D02*
X15683039Y-13504650D01*
X15683039Y-13504650D02*
X15663991Y-13476079D01*
X15663991Y-13476079D02*
X15654468Y-13457031D01*
X15654468Y-13457031D02*
X15644944Y-13428460D01*
X15644944Y-13428460D02*
X15635420Y-13380841D01*
X15635420Y-13380841D02*
X15635420Y-13342746D01*
X15635420Y-13342746D02*
X15644944Y-13295127D01*
X15644944Y-13295127D02*
X15654468Y-13266555D01*
X15654468Y-13266555D02*
X15663991Y-13247508D01*
X15663991Y-13247508D02*
X15683039Y-13218936D01*
X15683039Y-13218936D02*
X15692563Y-13209412D01*
X15759229Y-13257031D02*
X15768753Y-13247508D01*
X15768753Y-13247508D02*
X15787801Y-13237984D01*
X15787801Y-13237984D02*
X15835420Y-13237984D01*
X15835420Y-13237984D02*
X15854468Y-13247508D01*
X15854468Y-13247508D02*
X15863991Y-13257031D01*
X15863991Y-13257031D02*
X15873515Y-13276079D01*
X15873515Y-13276079D02*
X15873515Y-13295127D01*
X15873515Y-13295127D02*
X15863991Y-13323698D01*
X15863991Y-13323698D02*
X15749706Y-13437984D01*
X15749706Y-13437984D02*
X15873515Y-13437984D01*
X16063991Y-13437984D02*
X15949706Y-13437984D01*
X16006848Y-13437984D02*
X16006848Y-13237984D01*
X16006848Y-13237984D02*
X15987801Y-13266555D01*
X15987801Y-13266555D02*
X15968753Y-13285603D01*
X15968753Y-13285603D02*
X15949706Y-13295127D01*
X16302087Y-13437984D02*
X16302087Y-13237984D01*
X16387801Y-13437984D02*
X16387801Y-13333222D01*
X16387801Y-13333222D02*
X16378277Y-13314174D01*
X16378277Y-13314174D02*
X16359230Y-13304650D01*
X16359230Y-13304650D02*
X16330658Y-13304650D01*
X16330658Y-13304650D02*
X16311610Y-13314174D01*
X16311610Y-13314174D02*
X16302087Y-13323698D01*
X16511610Y-13437984D02*
X16492563Y-13428460D01*
X16492563Y-13428460D02*
X16483039Y-13418936D01*
X16483039Y-13418936D02*
X16473515Y-13399888D01*
X16473515Y-13399888D02*
X16473515Y-13342746D01*
X16473515Y-13342746D02*
X16483039Y-13323698D01*
X16483039Y-13323698D02*
X16492563Y-13314174D01*
X16492563Y-13314174D02*
X16511610Y-13304650D01*
X16511610Y-13304650D02*
X16540182Y-13304650D01*
X16540182Y-13304650D02*
X16559230Y-13314174D01*
X16559230Y-13314174D02*
X16568753Y-13323698D01*
X16568753Y-13323698D02*
X16578277Y-13342746D01*
X16578277Y-13342746D02*
X16578277Y-13399888D01*
X16578277Y-13399888D02*
X16568753Y-13418936D01*
X16568753Y-13418936D02*
X16559230Y-13428460D01*
X16559230Y-13428460D02*
X16540182Y-13437984D01*
X16540182Y-13437984D02*
X16511610Y-13437984D01*
X16692563Y-13437984D02*
X16673515Y-13428460D01*
X16673515Y-13428460D02*
X16663991Y-13409412D01*
X16663991Y-13409412D02*
X16663991Y-13237984D01*
X16844944Y-13428460D02*
X16825896Y-13437984D01*
X16825896Y-13437984D02*
X16787801Y-13437984D01*
X16787801Y-13437984D02*
X16768753Y-13428460D01*
X16768753Y-13428460D02*
X16759230Y-13409412D01*
X16759230Y-13409412D02*
X16759230Y-13333222D01*
X16759230Y-13333222D02*
X16768753Y-13314174D01*
X16768753Y-13314174D02*
X16787801Y-13304650D01*
X16787801Y-13304650D02*
X16825896Y-13304650D01*
X16825896Y-13304650D02*
X16844944Y-13314174D01*
X16844944Y-13314174D02*
X16854468Y-13333222D01*
X16854468Y-13333222D02*
X16854468Y-13352269D01*
X16854468Y-13352269D02*
X16759230Y-13371317D01*
X16930658Y-13428460D02*
X16949706Y-13437984D01*
X16949706Y-13437984D02*
X16987801Y-13437984D01*
X16987801Y-13437984D02*
X17006849Y-13428460D01*
X17006849Y-13428460D02*
X17016373Y-13409412D01*
X17016373Y-13409412D02*
X17016373Y-13399888D01*
X17016373Y-13399888D02*
X17006849Y-13380841D01*
X17006849Y-13380841D02*
X16987801Y-13371317D01*
X16987801Y-13371317D02*
X16959230Y-13371317D01*
X16959230Y-13371317D02*
X16940182Y-13361793D01*
X16940182Y-13361793D02*
X16930658Y-13342746D01*
X16930658Y-13342746D02*
X16930658Y-13333222D01*
X16930658Y-13333222D02*
X16940182Y-13314174D01*
X16940182Y-13314174D02*
X16959230Y-13304650D01*
X16959230Y-13304650D02*
X16987801Y-13304650D01*
X16987801Y-13304650D02*
X17006849Y-13314174D01*
X17083039Y-13514174D02*
X17092563Y-13504650D01*
X17092563Y-13504650D02*
X17111611Y-13476079D01*
X17111611Y-13476079D02*
X17121134Y-13457031D01*
X17121134Y-13457031D02*
X17130658Y-13428460D01*
X17130658Y-13428460D02*
X17140182Y-13380841D01*
X17140182Y-13380841D02*
X17140182Y-13342746D01*
X17140182Y-13342746D02*
X17130658Y-13295127D01*
X17130658Y-13295127D02*
X17121134Y-13266555D01*
X17121134Y-13266555D02*
X17111611Y-13247508D01*
X17111611Y-13247508D02*
X17092563Y-13218936D01*
X17092563Y-13218936D02*
X17083039Y-13209412D01*
D12*
X12087500Y-13580500D02*
X12087500Y-13640500D01*
X12057500Y-13610500D02*
X12117500Y-13610500D01*
D11*
X12416372Y-13501984D02*
X12435420Y-13501984D01*
X12435420Y-13501984D02*
X12454467Y-13511508D01*
X12454467Y-13511508D02*
X12463991Y-13521031D01*
X12463991Y-13521031D02*
X12473515Y-13540079D01*
X12473515Y-13540079D02*
X12483039Y-13578174D01*
X12483039Y-13578174D02*
X12483039Y-13625793D01*
X12483039Y-13625793D02*
X12473515Y-13663888D01*
X12473515Y-13663888D02*
X12463991Y-13682936D01*
X12463991Y-13682936D02*
X12454467Y-13692460D01*
X12454467Y-13692460D02*
X12435420Y-13701984D01*
X12435420Y-13701984D02*
X12416372Y-13701984D01*
X12416372Y-13701984D02*
X12397324Y-13692460D01*
X12397324Y-13692460D02*
X12387801Y-13682936D01*
X12387801Y-13682936D02*
X12378277Y-13663888D01*
X12378277Y-13663888D02*
X12368753Y-13625793D01*
X12368753Y-13625793D02*
X12368753Y-13578174D01*
X12368753Y-13578174D02*
X12378277Y-13540079D01*
X12378277Y-13540079D02*
X12387801Y-13521031D01*
X12387801Y-13521031D02*
X12397324Y-13511508D01*
X12397324Y-13511508D02*
X12416372Y-13501984D01*
X12568753Y-13682936D02*
X12578277Y-13692460D01*
X12578277Y-13692460D02*
X12568753Y-13701984D01*
X12568753Y-13701984D02*
X12559229Y-13692460D01*
X12559229Y-13692460D02*
X12568753Y-13682936D01*
X12568753Y-13682936D02*
X12568753Y-13701984D01*
X12749705Y-13501984D02*
X12711610Y-13501984D01*
X12711610Y-13501984D02*
X12692562Y-13511508D01*
X12692562Y-13511508D02*
X12683039Y-13521031D01*
X12683039Y-13521031D02*
X12663991Y-13549603D01*
X12663991Y-13549603D02*
X12654467Y-13587698D01*
X12654467Y-13587698D02*
X12654467Y-13663888D01*
X12654467Y-13663888D02*
X12663991Y-13682936D01*
X12663991Y-13682936D02*
X12673515Y-13692460D01*
X12673515Y-13692460D02*
X12692562Y-13701984D01*
X12692562Y-13701984D02*
X12730658Y-13701984D01*
X12730658Y-13701984D02*
X12749705Y-13692460D01*
X12749705Y-13692460D02*
X12759229Y-13682936D01*
X12759229Y-13682936D02*
X12768753Y-13663888D01*
X12768753Y-13663888D02*
X12768753Y-13616269D01*
X12768753Y-13616269D02*
X12759229Y-13597222D01*
X12759229Y-13597222D02*
X12749705Y-13587698D01*
X12749705Y-13587698D02*
X12730658Y-13578174D01*
X12730658Y-13578174D02*
X12692562Y-13578174D01*
X12692562Y-13578174D02*
X12673515Y-13587698D01*
X12673515Y-13587698D02*
X12663991Y-13597222D01*
X12663991Y-13597222D02*
X12654467Y-13616269D01*
X12892562Y-13501984D02*
X12911610Y-13501984D01*
X12911610Y-13501984D02*
X12930658Y-13511508D01*
X12930658Y-13511508D02*
X12940182Y-13521031D01*
X12940182Y-13521031D02*
X12949705Y-13540079D01*
X12949705Y-13540079D02*
X12959229Y-13578174D01*
X12959229Y-13578174D02*
X12959229Y-13625793D01*
X12959229Y-13625793D02*
X12949705Y-13663888D01*
X12949705Y-13663888D02*
X12940182Y-13682936D01*
X12940182Y-13682936D02*
X12930658Y-13692460D01*
X12930658Y-13692460D02*
X12911610Y-13701984D01*
X12911610Y-13701984D02*
X12892562Y-13701984D01*
X12892562Y-13701984D02*
X12873515Y-13692460D01*
X12873515Y-13692460D02*
X12863991Y-13682936D01*
X12863991Y-13682936D02*
X12854467Y-13663888D01*
X12854467Y-13663888D02*
X12844943Y-13625793D01*
X12844943Y-13625793D02*
X12844943Y-13578174D01*
X12844943Y-13578174D02*
X12854467Y-13540079D01*
X12854467Y-13540079D02*
X12863991Y-13521031D01*
X12863991Y-13521031D02*
X12873515Y-13511508D01*
X12873515Y-13511508D02*
X12892562Y-13501984D01*
X13083039Y-13501984D02*
X13102086Y-13501984D01*
X13102086Y-13501984D02*
X13121134Y-13511508D01*
X13121134Y-13511508D02*
X13130658Y-13521031D01*
X13130658Y-13521031D02*
X13140182Y-13540079D01*
X13140182Y-13540079D02*
X13149705Y-13578174D01*
X13149705Y-13578174D02*
X13149705Y-13625793D01*
X13149705Y-13625793D02*
X13140182Y-13663888D01*
X13140182Y-13663888D02*
X13130658Y-13682936D01*
X13130658Y-13682936D02*
X13121134Y-13692460D01*
X13121134Y-13692460D02*
X13102086Y-13701984D01*
X13102086Y-13701984D02*
X13083039Y-13701984D01*
X13083039Y-13701984D02*
X13063991Y-13692460D01*
X13063991Y-13692460D02*
X13054467Y-13682936D01*
X13054467Y-13682936D02*
X13044943Y-13663888D01*
X13044943Y-13663888D02*
X13035420Y-13625793D01*
X13035420Y-13625793D02*
X13035420Y-13578174D01*
X13035420Y-13578174D02*
X13044943Y-13540079D01*
X13044943Y-13540079D02*
X13054467Y-13521031D01*
X13054467Y-13521031D02*
X13063991Y-13511508D01*
X13063991Y-13511508D02*
X13083039Y-13501984D01*
X13235420Y-13701984D02*
X13235420Y-13568650D01*
X13235420Y-13587698D02*
X13244943Y-13578174D01*
X13244943Y-13578174D02*
X13263991Y-13568650D01*
X13263991Y-13568650D02*
X13292563Y-13568650D01*
X13292563Y-13568650D02*
X13311610Y-13578174D01*
X13311610Y-13578174D02*
X13321134Y-13597222D01*
X13321134Y-13597222D02*
X13321134Y-13701984D01*
X13321134Y-13597222D02*
X13330658Y-13578174D01*
X13330658Y-13578174D02*
X13349705Y-13568650D01*
X13349705Y-13568650D02*
X13378277Y-13568650D01*
X13378277Y-13568650D02*
X13397324Y-13578174D01*
X13397324Y-13578174D02*
X13406848Y-13597222D01*
X13406848Y-13597222D02*
X13406848Y-13701984D01*
X13502086Y-13701984D02*
X13502086Y-13568650D01*
X13502086Y-13587698D02*
X13511610Y-13578174D01*
X13511610Y-13578174D02*
X13530658Y-13568650D01*
X13530658Y-13568650D02*
X13559229Y-13568650D01*
X13559229Y-13568650D02*
X13578277Y-13578174D01*
X13578277Y-13578174D02*
X13587801Y-13597222D01*
X13587801Y-13597222D02*
X13587801Y-13701984D01*
X13587801Y-13597222D02*
X13597324Y-13578174D01*
X13597324Y-13578174D02*
X13616372Y-13568650D01*
X13616372Y-13568650D02*
X13644943Y-13568650D01*
X13644943Y-13568650D02*
X13663991Y-13578174D01*
X13663991Y-13578174D02*
X13673515Y-13597222D01*
X13673515Y-13597222D02*
X13673515Y-13701984D01*
X14063991Y-13492460D02*
X13892563Y-13749603D01*
X14321134Y-13501984D02*
X14340182Y-13501984D01*
X14340182Y-13501984D02*
X14359229Y-13511508D01*
X14359229Y-13511508D02*
X14368753Y-13521031D01*
X14368753Y-13521031D02*
X14378277Y-13540079D01*
X14378277Y-13540079D02*
X14387801Y-13578174D01*
X14387801Y-13578174D02*
X14387801Y-13625793D01*
X14387801Y-13625793D02*
X14378277Y-13663888D01*
X14378277Y-13663888D02*
X14368753Y-13682936D01*
X14368753Y-13682936D02*
X14359229Y-13692460D01*
X14359229Y-13692460D02*
X14340182Y-13701984D01*
X14340182Y-13701984D02*
X14321134Y-13701984D01*
X14321134Y-13701984D02*
X14302086Y-13692460D01*
X14302086Y-13692460D02*
X14292563Y-13682936D01*
X14292563Y-13682936D02*
X14283039Y-13663888D01*
X14283039Y-13663888D02*
X14273515Y-13625793D01*
X14273515Y-13625793D02*
X14273515Y-13578174D01*
X14273515Y-13578174D02*
X14283039Y-13540079D01*
X14283039Y-13540079D02*
X14292563Y-13521031D01*
X14292563Y-13521031D02*
X14302086Y-13511508D01*
X14302086Y-13511508D02*
X14321134Y-13501984D01*
X14473515Y-13682936D02*
X14483039Y-13692460D01*
X14483039Y-13692460D02*
X14473515Y-13701984D01*
X14473515Y-13701984D02*
X14463991Y-13692460D01*
X14463991Y-13692460D02*
X14473515Y-13682936D01*
X14473515Y-13682936D02*
X14473515Y-13701984D01*
X14606848Y-13501984D02*
X14625896Y-13501984D01*
X14625896Y-13501984D02*
X14644944Y-13511508D01*
X14644944Y-13511508D02*
X14654467Y-13521031D01*
X14654467Y-13521031D02*
X14663991Y-13540079D01*
X14663991Y-13540079D02*
X14673515Y-13578174D01*
X14673515Y-13578174D02*
X14673515Y-13625793D01*
X14673515Y-13625793D02*
X14663991Y-13663888D01*
X14663991Y-13663888D02*
X14654467Y-13682936D01*
X14654467Y-13682936D02*
X14644944Y-13692460D01*
X14644944Y-13692460D02*
X14625896Y-13701984D01*
X14625896Y-13701984D02*
X14606848Y-13701984D01*
X14606848Y-13701984D02*
X14587801Y-13692460D01*
X14587801Y-13692460D02*
X14578277Y-13682936D01*
X14578277Y-13682936D02*
X14568753Y-13663888D01*
X14568753Y-13663888D02*
X14559229Y-13625793D01*
X14559229Y-13625793D02*
X14559229Y-13578174D01*
X14559229Y-13578174D02*
X14568753Y-13540079D01*
X14568753Y-13540079D02*
X14578277Y-13521031D01*
X14578277Y-13521031D02*
X14587801Y-13511508D01*
X14587801Y-13511508D02*
X14606848Y-13501984D01*
X14749706Y-13521031D02*
X14759229Y-13511508D01*
X14759229Y-13511508D02*
X14778277Y-13501984D01*
X14778277Y-13501984D02*
X14825896Y-13501984D01*
X14825896Y-13501984D02*
X14844944Y-13511508D01*
X14844944Y-13511508D02*
X14854467Y-13521031D01*
X14854467Y-13521031D02*
X14863991Y-13540079D01*
X14863991Y-13540079D02*
X14863991Y-13559127D01*
X14863991Y-13559127D02*
X14854467Y-13587698D01*
X14854467Y-13587698D02*
X14740182Y-13701984D01*
X14740182Y-13701984D02*
X14863991Y-13701984D01*
X14930658Y-13501984D02*
X15054467Y-13501984D01*
X15054467Y-13501984D02*
X14987801Y-13578174D01*
X14987801Y-13578174D02*
X15016372Y-13578174D01*
X15016372Y-13578174D02*
X15035420Y-13587698D01*
X15035420Y-13587698D02*
X15044944Y-13597222D01*
X15044944Y-13597222D02*
X15054467Y-13616269D01*
X15054467Y-13616269D02*
X15054467Y-13663888D01*
X15054467Y-13663888D02*
X15044944Y-13682936D01*
X15044944Y-13682936D02*
X15035420Y-13692460D01*
X15035420Y-13692460D02*
X15016372Y-13701984D01*
X15016372Y-13701984D02*
X14959229Y-13701984D01*
X14959229Y-13701984D02*
X14940182Y-13692460D01*
X14940182Y-13692460D02*
X14930658Y-13682936D01*
X15225896Y-13501984D02*
X15187801Y-13501984D01*
X15187801Y-13501984D02*
X15168753Y-13511508D01*
X15168753Y-13511508D02*
X15159229Y-13521031D01*
X15159229Y-13521031D02*
X15140182Y-13549603D01*
X15140182Y-13549603D02*
X15130658Y-13587698D01*
X15130658Y-13587698D02*
X15130658Y-13663888D01*
X15130658Y-13663888D02*
X15140182Y-13682936D01*
X15140182Y-13682936D02*
X15149706Y-13692460D01*
X15149706Y-13692460D02*
X15168753Y-13701984D01*
X15168753Y-13701984D02*
X15206848Y-13701984D01*
X15206848Y-13701984D02*
X15225896Y-13692460D01*
X15225896Y-13692460D02*
X15235420Y-13682936D01*
X15235420Y-13682936D02*
X15244944Y-13663888D01*
X15244944Y-13663888D02*
X15244944Y-13616269D01*
X15244944Y-13616269D02*
X15235420Y-13597222D01*
X15235420Y-13597222D02*
X15225896Y-13587698D01*
X15225896Y-13587698D02*
X15206848Y-13578174D01*
X15206848Y-13578174D02*
X15168753Y-13578174D01*
X15168753Y-13578174D02*
X15149706Y-13587698D01*
X15149706Y-13587698D02*
X15140182Y-13597222D01*
X15140182Y-13597222D02*
X15130658Y-13616269D01*
X15321134Y-13501984D02*
X15321134Y-13540079D01*
X15397325Y-13501984D02*
X15397325Y-13540079D01*
X15692563Y-13778174D02*
X15683039Y-13768650D01*
X15683039Y-13768650D02*
X15663991Y-13740079D01*
X15663991Y-13740079D02*
X15654468Y-13721031D01*
X15654468Y-13721031D02*
X15644944Y-13692460D01*
X15644944Y-13692460D02*
X15635420Y-13644841D01*
X15635420Y-13644841D02*
X15635420Y-13606746D01*
X15635420Y-13606746D02*
X15644944Y-13559127D01*
X15644944Y-13559127D02*
X15654468Y-13530555D01*
X15654468Y-13530555D02*
X15663991Y-13511508D01*
X15663991Y-13511508D02*
X15683039Y-13482936D01*
X15683039Y-13482936D02*
X15692563Y-13473412D01*
X15806848Y-13501984D02*
X15825896Y-13501984D01*
X15825896Y-13501984D02*
X15844944Y-13511508D01*
X15844944Y-13511508D02*
X15854468Y-13521031D01*
X15854468Y-13521031D02*
X15863991Y-13540079D01*
X15863991Y-13540079D02*
X15873515Y-13578174D01*
X15873515Y-13578174D02*
X15873515Y-13625793D01*
X15873515Y-13625793D02*
X15863991Y-13663888D01*
X15863991Y-13663888D02*
X15854468Y-13682936D01*
X15854468Y-13682936D02*
X15844944Y-13692460D01*
X15844944Y-13692460D02*
X15825896Y-13701984D01*
X15825896Y-13701984D02*
X15806848Y-13701984D01*
X15806848Y-13701984D02*
X15787801Y-13692460D01*
X15787801Y-13692460D02*
X15778277Y-13682936D01*
X15778277Y-13682936D02*
X15768753Y-13663888D01*
X15768753Y-13663888D02*
X15759229Y-13625793D01*
X15759229Y-13625793D02*
X15759229Y-13578174D01*
X15759229Y-13578174D02*
X15768753Y-13540079D01*
X15768753Y-13540079D02*
X15778277Y-13521031D01*
X15778277Y-13521031D02*
X15787801Y-13511508D01*
X15787801Y-13511508D02*
X15806848Y-13501984D01*
X16111610Y-13701984D02*
X16111610Y-13501984D01*
X16197325Y-13701984D02*
X16197325Y-13597222D01*
X16197325Y-13597222D02*
X16187801Y-13578174D01*
X16187801Y-13578174D02*
X16168753Y-13568650D01*
X16168753Y-13568650D02*
X16140182Y-13568650D01*
X16140182Y-13568650D02*
X16121134Y-13578174D01*
X16121134Y-13578174D02*
X16111610Y-13587698D01*
X16321134Y-13701984D02*
X16302087Y-13692460D01*
X16302087Y-13692460D02*
X16292563Y-13682936D01*
X16292563Y-13682936D02*
X16283039Y-13663888D01*
X16283039Y-13663888D02*
X16283039Y-13606746D01*
X16283039Y-13606746D02*
X16292563Y-13587698D01*
X16292563Y-13587698D02*
X16302087Y-13578174D01*
X16302087Y-13578174D02*
X16321134Y-13568650D01*
X16321134Y-13568650D02*
X16349706Y-13568650D01*
X16349706Y-13568650D02*
X16368753Y-13578174D01*
X16368753Y-13578174D02*
X16378277Y-13587698D01*
X16378277Y-13587698D02*
X16387801Y-13606746D01*
X16387801Y-13606746D02*
X16387801Y-13663888D01*
X16387801Y-13663888D02*
X16378277Y-13682936D01*
X16378277Y-13682936D02*
X16368753Y-13692460D01*
X16368753Y-13692460D02*
X16349706Y-13701984D01*
X16349706Y-13701984D02*
X16321134Y-13701984D01*
X16502087Y-13701984D02*
X16483039Y-13692460D01*
X16483039Y-13692460D02*
X16473515Y-13673412D01*
X16473515Y-13673412D02*
X16473515Y-13501984D01*
X16654468Y-13692460D02*
X16635420Y-13701984D01*
X16635420Y-13701984D02*
X16597325Y-13701984D01*
X16597325Y-13701984D02*
X16578277Y-13692460D01*
X16578277Y-13692460D02*
X16568753Y-13673412D01*
X16568753Y-13673412D02*
X16568753Y-13597222D01*
X16568753Y-13597222D02*
X16578277Y-13578174D01*
X16578277Y-13578174D02*
X16597325Y-13568650D01*
X16597325Y-13568650D02*
X16635420Y-13568650D01*
X16635420Y-13568650D02*
X16654468Y-13578174D01*
X16654468Y-13578174D02*
X16663991Y-13597222D01*
X16663991Y-13597222D02*
X16663991Y-13616269D01*
X16663991Y-13616269D02*
X16568753Y-13635317D01*
X16740182Y-13692460D02*
X16759230Y-13701984D01*
X16759230Y-13701984D02*
X16797325Y-13701984D01*
X16797325Y-13701984D02*
X16816373Y-13692460D01*
X16816373Y-13692460D02*
X16825896Y-13673412D01*
X16825896Y-13673412D02*
X16825896Y-13663888D01*
X16825896Y-13663888D02*
X16816373Y-13644841D01*
X16816373Y-13644841D02*
X16797325Y-13635317D01*
X16797325Y-13635317D02*
X16768753Y-13635317D01*
X16768753Y-13635317D02*
X16749706Y-13625793D01*
X16749706Y-13625793D02*
X16740182Y-13606746D01*
X16740182Y-13606746D02*
X16740182Y-13597222D01*
X16740182Y-13597222D02*
X16749706Y-13578174D01*
X16749706Y-13578174D02*
X16768753Y-13568650D01*
X16768753Y-13568650D02*
X16797325Y-13568650D01*
X16797325Y-13568650D02*
X16816373Y-13578174D01*
X17063992Y-13625793D02*
X17216373Y-13625793D01*
X17140182Y-13701984D02*
X17140182Y-13549603D01*
X17549706Y-13568650D02*
X17549706Y-13701984D01*
X17502087Y-13492460D02*
X17454468Y-13635317D01*
X17454468Y-13635317D02*
X17578277Y-13635317D01*
X17797325Y-13692460D02*
X17816373Y-13701984D01*
X17816373Y-13701984D02*
X17854468Y-13701984D01*
X17854468Y-13701984D02*
X17873516Y-13692460D01*
X17873516Y-13692460D02*
X17883039Y-13673412D01*
X17883039Y-13673412D02*
X17883039Y-13663888D01*
X17883039Y-13663888D02*
X17873516Y-13644841D01*
X17873516Y-13644841D02*
X17854468Y-13635317D01*
X17854468Y-13635317D02*
X17825896Y-13635317D01*
X17825896Y-13635317D02*
X17806849Y-13625793D01*
X17806849Y-13625793D02*
X17797325Y-13606746D01*
X17797325Y-13606746D02*
X17797325Y-13597222D01*
X17797325Y-13597222D02*
X17806849Y-13578174D01*
X17806849Y-13578174D02*
X17825896Y-13568650D01*
X17825896Y-13568650D02*
X17854468Y-13568650D01*
X17854468Y-13568650D02*
X17873516Y-13578174D01*
X17997325Y-13701984D02*
X17978277Y-13692460D01*
X17978277Y-13692460D02*
X17968754Y-13673412D01*
X17968754Y-13673412D02*
X17968754Y-13501984D01*
X18102087Y-13701984D02*
X18083039Y-13692460D01*
X18083039Y-13692460D02*
X18073516Y-13682936D01*
X18073516Y-13682936D02*
X18063992Y-13663888D01*
X18063992Y-13663888D02*
X18063992Y-13606746D01*
X18063992Y-13606746D02*
X18073516Y-13587698D01*
X18073516Y-13587698D02*
X18083039Y-13578174D01*
X18083039Y-13578174D02*
X18102087Y-13568650D01*
X18102087Y-13568650D02*
X18130658Y-13568650D01*
X18130658Y-13568650D02*
X18149706Y-13578174D01*
X18149706Y-13578174D02*
X18159230Y-13587698D01*
X18159230Y-13587698D02*
X18168754Y-13606746D01*
X18168754Y-13606746D02*
X18168754Y-13663888D01*
X18168754Y-13663888D02*
X18159230Y-13682936D01*
X18159230Y-13682936D02*
X18149706Y-13692460D01*
X18149706Y-13692460D02*
X18130658Y-13701984D01*
X18130658Y-13701984D02*
X18102087Y-13701984D01*
X18225897Y-13568650D02*
X18302087Y-13568650D01*
X18254468Y-13501984D02*
X18254468Y-13673412D01*
X18254468Y-13673412D02*
X18263992Y-13692460D01*
X18263992Y-13692460D02*
X18283039Y-13701984D01*
X18283039Y-13701984D02*
X18302087Y-13701984D01*
X18359230Y-13692460D02*
X18378277Y-13701984D01*
X18378277Y-13701984D02*
X18416373Y-13701984D01*
X18416373Y-13701984D02*
X18435420Y-13692460D01*
X18435420Y-13692460D02*
X18444944Y-13673412D01*
X18444944Y-13673412D02*
X18444944Y-13663888D01*
X18444944Y-13663888D02*
X18435420Y-13644841D01*
X18435420Y-13644841D02*
X18416373Y-13635317D01*
X18416373Y-13635317D02*
X18387801Y-13635317D01*
X18387801Y-13635317D02*
X18368754Y-13625793D01*
X18368754Y-13625793D02*
X18359230Y-13606746D01*
X18359230Y-13606746D02*
X18359230Y-13597222D01*
X18359230Y-13597222D02*
X18368754Y-13578174D01*
X18368754Y-13578174D02*
X18387801Y-13568650D01*
X18387801Y-13568650D02*
X18416373Y-13568650D01*
X18416373Y-13568650D02*
X18435420Y-13578174D01*
X18511611Y-13778174D02*
X18521135Y-13768650D01*
X18521135Y-13768650D02*
X18540182Y-13740079D01*
X18540182Y-13740079D02*
X18549706Y-13721031D01*
X18549706Y-13721031D02*
X18559230Y-13692460D01*
X18559230Y-13692460D02*
X18568754Y-13644841D01*
X18568754Y-13644841D02*
X18568754Y-13606746D01*
X18568754Y-13606746D02*
X18559230Y-13559127D01*
X18559230Y-13559127D02*
X18549706Y-13530555D01*
X18549706Y-13530555D02*
X18540182Y-13511508D01*
X18540182Y-13511508D02*
X18521135Y-13482936D01*
X18521135Y-13482936D02*
X18511611Y-13473412D01*
D12*
X12107249Y-13899249D02*
X12107249Y-13849751D01*
X12057751Y-13849751D01*
X12057751Y-13899249D01*
X12107249Y-13899249D01*
D11*
X12416372Y-13765984D02*
X12435420Y-13765984D01*
X12435420Y-13765984D02*
X12454467Y-13775508D01*
X12454467Y-13775508D02*
X12463991Y-13785031D01*
X12463991Y-13785031D02*
X12473515Y-13804079D01*
X12473515Y-13804079D02*
X12483039Y-13842174D01*
X12483039Y-13842174D02*
X12483039Y-13889793D01*
X12483039Y-13889793D02*
X12473515Y-13927888D01*
X12473515Y-13927888D02*
X12463991Y-13946936D01*
X12463991Y-13946936D02*
X12454467Y-13956460D01*
X12454467Y-13956460D02*
X12435420Y-13965984D01*
X12435420Y-13965984D02*
X12416372Y-13965984D01*
X12416372Y-13965984D02*
X12397324Y-13956460D01*
X12397324Y-13956460D02*
X12387801Y-13946936D01*
X12387801Y-13946936D02*
X12378277Y-13927888D01*
X12378277Y-13927888D02*
X12368753Y-13889793D01*
X12368753Y-13889793D02*
X12368753Y-13842174D01*
X12368753Y-13842174D02*
X12378277Y-13804079D01*
X12378277Y-13804079D02*
X12387801Y-13785031D01*
X12387801Y-13785031D02*
X12397324Y-13775508D01*
X12397324Y-13775508D02*
X12416372Y-13765984D01*
X12568753Y-13946936D02*
X12578277Y-13956460D01*
X12578277Y-13956460D02*
X12568753Y-13965984D01*
X12568753Y-13965984D02*
X12559229Y-13956460D01*
X12559229Y-13956460D02*
X12568753Y-13946936D01*
X12568753Y-13946936D02*
X12568753Y-13965984D01*
X12644943Y-13765984D02*
X12778277Y-13765984D01*
X12778277Y-13765984D02*
X12692562Y-13965984D01*
X12892562Y-13765984D02*
X12911610Y-13765984D01*
X12911610Y-13765984D02*
X12930658Y-13775508D01*
X12930658Y-13775508D02*
X12940182Y-13785031D01*
X12940182Y-13785031D02*
X12949705Y-13804079D01*
X12949705Y-13804079D02*
X12959229Y-13842174D01*
X12959229Y-13842174D02*
X12959229Y-13889793D01*
X12959229Y-13889793D02*
X12949705Y-13927888D01*
X12949705Y-13927888D02*
X12940182Y-13946936D01*
X12940182Y-13946936D02*
X12930658Y-13956460D01*
X12930658Y-13956460D02*
X12911610Y-13965984D01*
X12911610Y-13965984D02*
X12892562Y-13965984D01*
X12892562Y-13965984D02*
X12873515Y-13956460D01*
X12873515Y-13956460D02*
X12863991Y-13946936D01*
X12863991Y-13946936D02*
X12854467Y-13927888D01*
X12854467Y-13927888D02*
X12844943Y-13889793D01*
X12844943Y-13889793D02*
X12844943Y-13842174D01*
X12844943Y-13842174D02*
X12854467Y-13804079D01*
X12854467Y-13804079D02*
X12863991Y-13785031D01*
X12863991Y-13785031D02*
X12873515Y-13775508D01*
X12873515Y-13775508D02*
X12892562Y-13765984D01*
X13083039Y-13765984D02*
X13102086Y-13765984D01*
X13102086Y-13765984D02*
X13121134Y-13775508D01*
X13121134Y-13775508D02*
X13130658Y-13785031D01*
X13130658Y-13785031D02*
X13140182Y-13804079D01*
X13140182Y-13804079D02*
X13149705Y-13842174D01*
X13149705Y-13842174D02*
X13149705Y-13889793D01*
X13149705Y-13889793D02*
X13140182Y-13927888D01*
X13140182Y-13927888D02*
X13130658Y-13946936D01*
X13130658Y-13946936D02*
X13121134Y-13956460D01*
X13121134Y-13956460D02*
X13102086Y-13965984D01*
X13102086Y-13965984D02*
X13083039Y-13965984D01*
X13083039Y-13965984D02*
X13063991Y-13956460D01*
X13063991Y-13956460D02*
X13054467Y-13946936D01*
X13054467Y-13946936D02*
X13044943Y-13927888D01*
X13044943Y-13927888D02*
X13035420Y-13889793D01*
X13035420Y-13889793D02*
X13035420Y-13842174D01*
X13035420Y-13842174D02*
X13044943Y-13804079D01*
X13044943Y-13804079D02*
X13054467Y-13785031D01*
X13054467Y-13785031D02*
X13063991Y-13775508D01*
X13063991Y-13775508D02*
X13083039Y-13765984D01*
X13235420Y-13965984D02*
X13235420Y-13832650D01*
X13235420Y-13851698D02*
X13244943Y-13842174D01*
X13244943Y-13842174D02*
X13263991Y-13832650D01*
X13263991Y-13832650D02*
X13292563Y-13832650D01*
X13292563Y-13832650D02*
X13311610Y-13842174D01*
X13311610Y-13842174D02*
X13321134Y-13861222D01*
X13321134Y-13861222D02*
X13321134Y-13965984D01*
X13321134Y-13861222D02*
X13330658Y-13842174D01*
X13330658Y-13842174D02*
X13349705Y-13832650D01*
X13349705Y-13832650D02*
X13378277Y-13832650D01*
X13378277Y-13832650D02*
X13397324Y-13842174D01*
X13397324Y-13842174D02*
X13406848Y-13861222D01*
X13406848Y-13861222D02*
X13406848Y-13965984D01*
X13502086Y-13965984D02*
X13502086Y-13832650D01*
X13502086Y-13851698D02*
X13511610Y-13842174D01*
X13511610Y-13842174D02*
X13530658Y-13832650D01*
X13530658Y-13832650D02*
X13559229Y-13832650D01*
X13559229Y-13832650D02*
X13578277Y-13842174D01*
X13578277Y-13842174D02*
X13587801Y-13861222D01*
X13587801Y-13861222D02*
X13587801Y-13965984D01*
X13587801Y-13861222D02*
X13597324Y-13842174D01*
X13597324Y-13842174D02*
X13616372Y-13832650D01*
X13616372Y-13832650D02*
X13644943Y-13832650D01*
X13644943Y-13832650D02*
X13663991Y-13842174D01*
X13663991Y-13842174D02*
X13673515Y-13861222D01*
X13673515Y-13861222D02*
X13673515Y-13965984D01*
X14063991Y-13756460D02*
X13892563Y-14013603D01*
X14321134Y-13765984D02*
X14340182Y-13765984D01*
X14340182Y-13765984D02*
X14359229Y-13775508D01*
X14359229Y-13775508D02*
X14368753Y-13785031D01*
X14368753Y-13785031D02*
X14378277Y-13804079D01*
X14378277Y-13804079D02*
X14387801Y-13842174D01*
X14387801Y-13842174D02*
X14387801Y-13889793D01*
X14387801Y-13889793D02*
X14378277Y-13927888D01*
X14378277Y-13927888D02*
X14368753Y-13946936D01*
X14368753Y-13946936D02*
X14359229Y-13956460D01*
X14359229Y-13956460D02*
X14340182Y-13965984D01*
X14340182Y-13965984D02*
X14321134Y-13965984D01*
X14321134Y-13965984D02*
X14302086Y-13956460D01*
X14302086Y-13956460D02*
X14292563Y-13946936D01*
X14292563Y-13946936D02*
X14283039Y-13927888D01*
X14283039Y-13927888D02*
X14273515Y-13889793D01*
X14273515Y-13889793D02*
X14273515Y-13842174D01*
X14273515Y-13842174D02*
X14283039Y-13804079D01*
X14283039Y-13804079D02*
X14292563Y-13785031D01*
X14292563Y-13785031D02*
X14302086Y-13775508D01*
X14302086Y-13775508D02*
X14321134Y-13765984D01*
X14473515Y-13946936D02*
X14483039Y-13956460D01*
X14483039Y-13956460D02*
X14473515Y-13965984D01*
X14473515Y-13965984D02*
X14463991Y-13956460D01*
X14463991Y-13956460D02*
X14473515Y-13946936D01*
X14473515Y-13946936D02*
X14473515Y-13965984D01*
X14606848Y-13765984D02*
X14625896Y-13765984D01*
X14625896Y-13765984D02*
X14644944Y-13775508D01*
X14644944Y-13775508D02*
X14654467Y-13785031D01*
X14654467Y-13785031D02*
X14663991Y-13804079D01*
X14663991Y-13804079D02*
X14673515Y-13842174D01*
X14673515Y-13842174D02*
X14673515Y-13889793D01*
X14673515Y-13889793D02*
X14663991Y-13927888D01*
X14663991Y-13927888D02*
X14654467Y-13946936D01*
X14654467Y-13946936D02*
X14644944Y-13956460D01*
X14644944Y-13956460D02*
X14625896Y-13965984D01*
X14625896Y-13965984D02*
X14606848Y-13965984D01*
X14606848Y-13965984D02*
X14587801Y-13956460D01*
X14587801Y-13956460D02*
X14578277Y-13946936D01*
X14578277Y-13946936D02*
X14568753Y-13927888D01*
X14568753Y-13927888D02*
X14559229Y-13889793D01*
X14559229Y-13889793D02*
X14559229Y-13842174D01*
X14559229Y-13842174D02*
X14568753Y-13804079D01*
X14568753Y-13804079D02*
X14578277Y-13785031D01*
X14578277Y-13785031D02*
X14587801Y-13775508D01*
X14587801Y-13775508D02*
X14606848Y-13765984D01*
X14749706Y-13785031D02*
X14759229Y-13775508D01*
X14759229Y-13775508D02*
X14778277Y-13765984D01*
X14778277Y-13765984D02*
X14825896Y-13765984D01*
X14825896Y-13765984D02*
X14844944Y-13775508D01*
X14844944Y-13775508D02*
X14854467Y-13785031D01*
X14854467Y-13785031D02*
X14863991Y-13804079D01*
X14863991Y-13804079D02*
X14863991Y-13823127D01*
X14863991Y-13823127D02*
X14854467Y-13851698D01*
X14854467Y-13851698D02*
X14740182Y-13965984D01*
X14740182Y-13965984D02*
X14863991Y-13965984D01*
X14930658Y-13765984D02*
X15063991Y-13765984D01*
X15063991Y-13765984D02*
X14978277Y-13965984D01*
X15225896Y-13765984D02*
X15187801Y-13765984D01*
X15187801Y-13765984D02*
X15168753Y-13775508D01*
X15168753Y-13775508D02*
X15159229Y-13785031D01*
X15159229Y-13785031D02*
X15140182Y-13813603D01*
X15140182Y-13813603D02*
X15130658Y-13851698D01*
X15130658Y-13851698D02*
X15130658Y-13927888D01*
X15130658Y-13927888D02*
X15140182Y-13946936D01*
X15140182Y-13946936D02*
X15149706Y-13956460D01*
X15149706Y-13956460D02*
X15168753Y-13965984D01*
X15168753Y-13965984D02*
X15206848Y-13965984D01*
X15206848Y-13965984D02*
X15225896Y-13956460D01*
X15225896Y-13956460D02*
X15235420Y-13946936D01*
X15235420Y-13946936D02*
X15244944Y-13927888D01*
X15244944Y-13927888D02*
X15244944Y-13880269D01*
X15244944Y-13880269D02*
X15235420Y-13861222D01*
X15235420Y-13861222D02*
X15225896Y-13851698D01*
X15225896Y-13851698D02*
X15206848Y-13842174D01*
X15206848Y-13842174D02*
X15168753Y-13842174D01*
X15168753Y-13842174D02*
X15149706Y-13851698D01*
X15149706Y-13851698D02*
X15140182Y-13861222D01*
X15140182Y-13861222D02*
X15130658Y-13880269D01*
X15321134Y-13765984D02*
X15321134Y-13804079D01*
X15397325Y-13765984D02*
X15397325Y-13804079D01*
X15692563Y-14042174D02*
X15683039Y-14032650D01*
X15683039Y-14032650D02*
X15663991Y-14004079D01*
X15663991Y-14004079D02*
X15654468Y-13985031D01*
X15654468Y-13985031D02*
X15644944Y-13956460D01*
X15644944Y-13956460D02*
X15635420Y-13908841D01*
X15635420Y-13908841D02*
X15635420Y-13870746D01*
X15635420Y-13870746D02*
X15644944Y-13823127D01*
X15644944Y-13823127D02*
X15654468Y-13794555D01*
X15654468Y-13794555D02*
X15663991Y-13775508D01*
X15663991Y-13775508D02*
X15683039Y-13746936D01*
X15683039Y-13746936D02*
X15692563Y-13737412D01*
X15749706Y-13765984D02*
X15873515Y-13765984D01*
X15873515Y-13765984D02*
X15806848Y-13842174D01*
X15806848Y-13842174D02*
X15835420Y-13842174D01*
X15835420Y-13842174D02*
X15854468Y-13851698D01*
X15854468Y-13851698D02*
X15863991Y-13861222D01*
X15863991Y-13861222D02*
X15873515Y-13880269D01*
X15873515Y-13880269D02*
X15873515Y-13927888D01*
X15873515Y-13927888D02*
X15863991Y-13946936D01*
X15863991Y-13946936D02*
X15854468Y-13956460D01*
X15854468Y-13956460D02*
X15835420Y-13965984D01*
X15835420Y-13965984D02*
X15778277Y-13965984D01*
X15778277Y-13965984D02*
X15759229Y-13956460D01*
X15759229Y-13956460D02*
X15749706Y-13946936D01*
X16111610Y-13965984D02*
X16111610Y-13765984D01*
X16197325Y-13965984D02*
X16197325Y-13861222D01*
X16197325Y-13861222D02*
X16187801Y-13842174D01*
X16187801Y-13842174D02*
X16168753Y-13832650D01*
X16168753Y-13832650D02*
X16140182Y-13832650D01*
X16140182Y-13832650D02*
X16121134Y-13842174D01*
X16121134Y-13842174D02*
X16111610Y-13851698D01*
X16321134Y-13965984D02*
X16302087Y-13956460D01*
X16302087Y-13956460D02*
X16292563Y-13946936D01*
X16292563Y-13946936D02*
X16283039Y-13927888D01*
X16283039Y-13927888D02*
X16283039Y-13870746D01*
X16283039Y-13870746D02*
X16292563Y-13851698D01*
X16292563Y-13851698D02*
X16302087Y-13842174D01*
X16302087Y-13842174D02*
X16321134Y-13832650D01*
X16321134Y-13832650D02*
X16349706Y-13832650D01*
X16349706Y-13832650D02*
X16368753Y-13842174D01*
X16368753Y-13842174D02*
X16378277Y-13851698D01*
X16378277Y-13851698D02*
X16387801Y-13870746D01*
X16387801Y-13870746D02*
X16387801Y-13927888D01*
X16387801Y-13927888D02*
X16378277Y-13946936D01*
X16378277Y-13946936D02*
X16368753Y-13956460D01*
X16368753Y-13956460D02*
X16349706Y-13965984D01*
X16349706Y-13965984D02*
X16321134Y-13965984D01*
X16502087Y-13965984D02*
X16483039Y-13956460D01*
X16483039Y-13956460D02*
X16473515Y-13937412D01*
X16473515Y-13937412D02*
X16473515Y-13765984D01*
X16654468Y-13956460D02*
X16635420Y-13965984D01*
X16635420Y-13965984D02*
X16597325Y-13965984D01*
X16597325Y-13965984D02*
X16578277Y-13956460D01*
X16578277Y-13956460D02*
X16568753Y-13937412D01*
X16568753Y-13937412D02*
X16568753Y-13861222D01*
X16568753Y-13861222D02*
X16578277Y-13842174D01*
X16578277Y-13842174D02*
X16597325Y-13832650D01*
X16597325Y-13832650D02*
X16635420Y-13832650D01*
X16635420Y-13832650D02*
X16654468Y-13842174D01*
X16654468Y-13842174D02*
X16663991Y-13861222D01*
X16663991Y-13861222D02*
X16663991Y-13880269D01*
X16663991Y-13880269D02*
X16568753Y-13899317D01*
X16740182Y-13956460D02*
X16759230Y-13965984D01*
X16759230Y-13965984D02*
X16797325Y-13965984D01*
X16797325Y-13965984D02*
X16816373Y-13956460D01*
X16816373Y-13956460D02*
X16825896Y-13937412D01*
X16825896Y-13937412D02*
X16825896Y-13927888D01*
X16825896Y-13927888D02*
X16816373Y-13908841D01*
X16816373Y-13908841D02*
X16797325Y-13899317D01*
X16797325Y-13899317D02*
X16768753Y-13899317D01*
X16768753Y-13899317D02*
X16749706Y-13889793D01*
X16749706Y-13889793D02*
X16740182Y-13870746D01*
X16740182Y-13870746D02*
X16740182Y-13861222D01*
X16740182Y-13861222D02*
X16749706Y-13842174D01*
X16749706Y-13842174D02*
X16768753Y-13832650D01*
X16768753Y-13832650D02*
X16797325Y-13832650D01*
X16797325Y-13832650D02*
X16816373Y-13842174D01*
X16892563Y-14042174D02*
X16902087Y-14032650D01*
X16902087Y-14032650D02*
X16921134Y-14004079D01*
X16921134Y-14004079D02*
X16930658Y-13985031D01*
X16930658Y-13985031D02*
X16940182Y-13956460D01*
X16940182Y-13956460D02*
X16949706Y-13908841D01*
X16949706Y-13908841D02*
X16949706Y-13870746D01*
X16949706Y-13870746D02*
X16940182Y-13823127D01*
X16940182Y-13823127D02*
X16930658Y-13794555D01*
X16930658Y-13794555D02*
X16921134Y-13775508D01*
X16921134Y-13775508D02*
X16902087Y-13746936D01*
X16902087Y-13746936D02*
X16892563Y-13737412D01*
D13*
X12042500Y-14213500D02*
X12117500Y-14138500D01*
X12042500Y-14063500D01*
X11967500Y-14138500D01*
X12042500Y-14213500D01*
D11*
X12483039Y-14229984D02*
X12368753Y-14229984D01*
X12425896Y-14229984D02*
X12425896Y-14029984D01*
X12425896Y-14029984D02*
X12406848Y-14058555D01*
X12406848Y-14058555D02*
X12387801Y-14077603D01*
X12387801Y-14077603D02*
X12368753Y-14087127D01*
X12568753Y-14210936D02*
X12578277Y-14220460D01*
X12578277Y-14220460D02*
X12568753Y-14229984D01*
X12568753Y-14229984D02*
X12559229Y-14220460D01*
X12559229Y-14220460D02*
X12568753Y-14210936D01*
X12568753Y-14210936D02*
X12568753Y-14229984D01*
X12759229Y-14029984D02*
X12663991Y-14029984D01*
X12663991Y-14029984D02*
X12654467Y-14125222D01*
X12654467Y-14125222D02*
X12663991Y-14115698D01*
X12663991Y-14115698D02*
X12683039Y-14106174D01*
X12683039Y-14106174D02*
X12730658Y-14106174D01*
X12730658Y-14106174D02*
X12749705Y-14115698D01*
X12749705Y-14115698D02*
X12759229Y-14125222D01*
X12759229Y-14125222D02*
X12768753Y-14144269D01*
X12768753Y-14144269D02*
X12768753Y-14191888D01*
X12768753Y-14191888D02*
X12759229Y-14210936D01*
X12759229Y-14210936D02*
X12749705Y-14220460D01*
X12749705Y-14220460D02*
X12730658Y-14229984D01*
X12730658Y-14229984D02*
X12683039Y-14229984D01*
X12683039Y-14229984D02*
X12663991Y-14220460D01*
X12663991Y-14220460D02*
X12654467Y-14210936D01*
X12892562Y-14029984D02*
X12911610Y-14029984D01*
X12911610Y-14029984D02*
X12930658Y-14039508D01*
X12930658Y-14039508D02*
X12940182Y-14049031D01*
X12940182Y-14049031D02*
X12949705Y-14068079D01*
X12949705Y-14068079D02*
X12959229Y-14106174D01*
X12959229Y-14106174D02*
X12959229Y-14153793D01*
X12959229Y-14153793D02*
X12949705Y-14191888D01*
X12949705Y-14191888D02*
X12940182Y-14210936D01*
X12940182Y-14210936D02*
X12930658Y-14220460D01*
X12930658Y-14220460D02*
X12911610Y-14229984D01*
X12911610Y-14229984D02*
X12892562Y-14229984D01*
X12892562Y-14229984D02*
X12873515Y-14220460D01*
X12873515Y-14220460D02*
X12863991Y-14210936D01*
X12863991Y-14210936D02*
X12854467Y-14191888D01*
X12854467Y-14191888D02*
X12844943Y-14153793D01*
X12844943Y-14153793D02*
X12844943Y-14106174D01*
X12844943Y-14106174D02*
X12854467Y-14068079D01*
X12854467Y-14068079D02*
X12863991Y-14049031D01*
X12863991Y-14049031D02*
X12873515Y-14039508D01*
X12873515Y-14039508D02*
X12892562Y-14029984D01*
X13083039Y-14029984D02*
X13102086Y-14029984D01*
X13102086Y-14029984D02*
X13121134Y-14039508D01*
X13121134Y-14039508D02*
X13130658Y-14049031D01*
X13130658Y-14049031D02*
X13140182Y-14068079D01*
X13140182Y-14068079D02*
X13149705Y-14106174D01*
X13149705Y-14106174D02*
X13149705Y-14153793D01*
X13149705Y-14153793D02*
X13140182Y-14191888D01*
X13140182Y-14191888D02*
X13130658Y-14210936D01*
X13130658Y-14210936D02*
X13121134Y-14220460D01*
X13121134Y-14220460D02*
X13102086Y-14229984D01*
X13102086Y-14229984D02*
X13083039Y-14229984D01*
X13083039Y-14229984D02*
X13063991Y-14220460D01*
X13063991Y-14220460D02*
X13054467Y-14210936D01*
X13054467Y-14210936D02*
X13044943Y-14191888D01*
X13044943Y-14191888D02*
X13035420Y-14153793D01*
X13035420Y-14153793D02*
X13035420Y-14106174D01*
X13035420Y-14106174D02*
X13044943Y-14068079D01*
X13044943Y-14068079D02*
X13054467Y-14049031D01*
X13054467Y-14049031D02*
X13063991Y-14039508D01*
X13063991Y-14039508D02*
X13083039Y-14029984D01*
X13235420Y-14229984D02*
X13235420Y-14096650D01*
X13235420Y-14115698D02*
X13244943Y-14106174D01*
X13244943Y-14106174D02*
X13263991Y-14096650D01*
X13263991Y-14096650D02*
X13292563Y-14096650D01*
X13292563Y-14096650D02*
X13311610Y-14106174D01*
X13311610Y-14106174D02*
X13321134Y-14125222D01*
X13321134Y-14125222D02*
X13321134Y-14229984D01*
X13321134Y-14125222D02*
X13330658Y-14106174D01*
X13330658Y-14106174D02*
X13349705Y-14096650D01*
X13349705Y-14096650D02*
X13378277Y-14096650D01*
X13378277Y-14096650D02*
X13397324Y-14106174D01*
X13397324Y-14106174D02*
X13406848Y-14125222D01*
X13406848Y-14125222D02*
X13406848Y-14229984D01*
X13502086Y-14229984D02*
X13502086Y-14096650D01*
X13502086Y-14115698D02*
X13511610Y-14106174D01*
X13511610Y-14106174D02*
X13530658Y-14096650D01*
X13530658Y-14096650D02*
X13559229Y-14096650D01*
X13559229Y-14096650D02*
X13578277Y-14106174D01*
X13578277Y-14106174D02*
X13587801Y-14125222D01*
X13587801Y-14125222D02*
X13587801Y-14229984D01*
X13587801Y-14125222D02*
X13597324Y-14106174D01*
X13597324Y-14106174D02*
X13616372Y-14096650D01*
X13616372Y-14096650D02*
X13644943Y-14096650D01*
X13644943Y-14096650D02*
X13663991Y-14106174D01*
X13663991Y-14106174D02*
X13673515Y-14125222D01*
X13673515Y-14125222D02*
X13673515Y-14229984D01*
X14063991Y-14020460D02*
X13892563Y-14277603D01*
X14321134Y-14029984D02*
X14340182Y-14029984D01*
X14340182Y-14029984D02*
X14359229Y-14039508D01*
X14359229Y-14039508D02*
X14368753Y-14049031D01*
X14368753Y-14049031D02*
X14378277Y-14068079D01*
X14378277Y-14068079D02*
X14387801Y-14106174D01*
X14387801Y-14106174D02*
X14387801Y-14153793D01*
X14387801Y-14153793D02*
X14378277Y-14191888D01*
X14378277Y-14191888D02*
X14368753Y-14210936D01*
X14368753Y-14210936D02*
X14359229Y-14220460D01*
X14359229Y-14220460D02*
X14340182Y-14229984D01*
X14340182Y-14229984D02*
X14321134Y-14229984D01*
X14321134Y-14229984D02*
X14302086Y-14220460D01*
X14302086Y-14220460D02*
X14292563Y-14210936D01*
X14292563Y-14210936D02*
X14283039Y-14191888D01*
X14283039Y-14191888D02*
X14273515Y-14153793D01*
X14273515Y-14153793D02*
X14273515Y-14106174D01*
X14273515Y-14106174D02*
X14283039Y-14068079D01*
X14283039Y-14068079D02*
X14292563Y-14049031D01*
X14292563Y-14049031D02*
X14302086Y-14039508D01*
X14302086Y-14039508D02*
X14321134Y-14029984D01*
X14473515Y-14210936D02*
X14483039Y-14220460D01*
X14483039Y-14220460D02*
X14473515Y-14229984D01*
X14473515Y-14229984D02*
X14463991Y-14220460D01*
X14463991Y-14220460D02*
X14473515Y-14210936D01*
X14473515Y-14210936D02*
X14473515Y-14229984D01*
X14606848Y-14029984D02*
X14625896Y-14029984D01*
X14625896Y-14029984D02*
X14644944Y-14039508D01*
X14644944Y-14039508D02*
X14654467Y-14049031D01*
X14654467Y-14049031D02*
X14663991Y-14068079D01*
X14663991Y-14068079D02*
X14673515Y-14106174D01*
X14673515Y-14106174D02*
X14673515Y-14153793D01*
X14673515Y-14153793D02*
X14663991Y-14191888D01*
X14663991Y-14191888D02*
X14654467Y-14210936D01*
X14654467Y-14210936D02*
X14644944Y-14220460D01*
X14644944Y-14220460D02*
X14625896Y-14229984D01*
X14625896Y-14229984D02*
X14606848Y-14229984D01*
X14606848Y-14229984D02*
X14587801Y-14220460D01*
X14587801Y-14220460D02*
X14578277Y-14210936D01*
X14578277Y-14210936D02*
X14568753Y-14191888D01*
X14568753Y-14191888D02*
X14559229Y-14153793D01*
X14559229Y-14153793D02*
X14559229Y-14106174D01*
X14559229Y-14106174D02*
X14568753Y-14068079D01*
X14568753Y-14068079D02*
X14578277Y-14049031D01*
X14578277Y-14049031D02*
X14587801Y-14039508D01*
X14587801Y-14039508D02*
X14606848Y-14029984D01*
X14854467Y-14029984D02*
X14759229Y-14029984D01*
X14759229Y-14029984D02*
X14749706Y-14125222D01*
X14749706Y-14125222D02*
X14759229Y-14115698D01*
X14759229Y-14115698D02*
X14778277Y-14106174D01*
X14778277Y-14106174D02*
X14825896Y-14106174D01*
X14825896Y-14106174D02*
X14844944Y-14115698D01*
X14844944Y-14115698D02*
X14854467Y-14125222D01*
X14854467Y-14125222D02*
X14863991Y-14144269D01*
X14863991Y-14144269D02*
X14863991Y-14191888D01*
X14863991Y-14191888D02*
X14854467Y-14210936D01*
X14854467Y-14210936D02*
X14844944Y-14220460D01*
X14844944Y-14220460D02*
X14825896Y-14229984D01*
X14825896Y-14229984D02*
X14778277Y-14229984D01*
X14778277Y-14229984D02*
X14759229Y-14220460D01*
X14759229Y-14220460D02*
X14749706Y-14210936D01*
X14959229Y-14229984D02*
X14997325Y-14229984D01*
X14997325Y-14229984D02*
X15016372Y-14220460D01*
X15016372Y-14220460D02*
X15025896Y-14210936D01*
X15025896Y-14210936D02*
X15044944Y-14182365D01*
X15044944Y-14182365D02*
X15054467Y-14144269D01*
X15054467Y-14144269D02*
X15054467Y-14068079D01*
X15054467Y-14068079D02*
X15044944Y-14049031D01*
X15044944Y-14049031D02*
X15035420Y-14039508D01*
X15035420Y-14039508D02*
X15016372Y-14029984D01*
X15016372Y-14029984D02*
X14978277Y-14029984D01*
X14978277Y-14029984D02*
X14959229Y-14039508D01*
X14959229Y-14039508D02*
X14949706Y-14049031D01*
X14949706Y-14049031D02*
X14940182Y-14068079D01*
X14940182Y-14068079D02*
X14940182Y-14115698D01*
X14940182Y-14115698D02*
X14949706Y-14134746D01*
X14949706Y-14134746D02*
X14959229Y-14144269D01*
X14959229Y-14144269D02*
X14978277Y-14153793D01*
X14978277Y-14153793D02*
X15016372Y-14153793D01*
X15016372Y-14153793D02*
X15035420Y-14144269D01*
X15035420Y-14144269D02*
X15044944Y-14134746D01*
X15044944Y-14134746D02*
X15054467Y-14115698D01*
X15244944Y-14229984D02*
X15130658Y-14229984D01*
X15187801Y-14229984D02*
X15187801Y-14029984D01*
X15187801Y-14029984D02*
X15168753Y-14058555D01*
X15168753Y-14058555D02*
X15149706Y-14077603D01*
X15149706Y-14077603D02*
X15130658Y-14087127D01*
X15321134Y-14029984D02*
X15321134Y-14068079D01*
X15397325Y-14029984D02*
X15397325Y-14068079D01*
X15692563Y-14306174D02*
X15683039Y-14296650D01*
X15683039Y-14296650D02*
X15663991Y-14268079D01*
X15663991Y-14268079D02*
X15654468Y-14249031D01*
X15654468Y-14249031D02*
X15644944Y-14220460D01*
X15644944Y-14220460D02*
X15635420Y-14172841D01*
X15635420Y-14172841D02*
X15635420Y-14134746D01*
X15635420Y-14134746D02*
X15644944Y-14087127D01*
X15644944Y-14087127D02*
X15654468Y-14058555D01*
X15654468Y-14058555D02*
X15663991Y-14039508D01*
X15663991Y-14039508D02*
X15683039Y-14010936D01*
X15683039Y-14010936D02*
X15692563Y-14001412D01*
X15873515Y-14229984D02*
X15759229Y-14229984D01*
X15816372Y-14229984D02*
X15816372Y-14029984D01*
X15816372Y-14029984D02*
X15797325Y-14058555D01*
X15797325Y-14058555D02*
X15778277Y-14077603D01*
X15778277Y-14077603D02*
X15759229Y-14087127D01*
X15949706Y-14049031D02*
X15959229Y-14039508D01*
X15959229Y-14039508D02*
X15978277Y-14029984D01*
X15978277Y-14029984D02*
X16025896Y-14029984D01*
X16025896Y-14029984D02*
X16044944Y-14039508D01*
X16044944Y-14039508D02*
X16054468Y-14049031D01*
X16054468Y-14049031D02*
X16063991Y-14068079D01*
X16063991Y-14068079D02*
X16063991Y-14087127D01*
X16063991Y-14087127D02*
X16054468Y-14115698D01*
X16054468Y-14115698D02*
X15940182Y-14229984D01*
X15940182Y-14229984D02*
X16063991Y-14229984D01*
X16302087Y-14229984D02*
X16302087Y-14029984D01*
X16387801Y-14229984D02*
X16387801Y-14125222D01*
X16387801Y-14125222D02*
X16378277Y-14106174D01*
X16378277Y-14106174D02*
X16359230Y-14096650D01*
X16359230Y-14096650D02*
X16330658Y-14096650D01*
X16330658Y-14096650D02*
X16311610Y-14106174D01*
X16311610Y-14106174D02*
X16302087Y-14115698D01*
X16511610Y-14229984D02*
X16492563Y-14220460D01*
X16492563Y-14220460D02*
X16483039Y-14210936D01*
X16483039Y-14210936D02*
X16473515Y-14191888D01*
X16473515Y-14191888D02*
X16473515Y-14134746D01*
X16473515Y-14134746D02*
X16483039Y-14115698D01*
X16483039Y-14115698D02*
X16492563Y-14106174D01*
X16492563Y-14106174D02*
X16511610Y-14096650D01*
X16511610Y-14096650D02*
X16540182Y-14096650D01*
X16540182Y-14096650D02*
X16559230Y-14106174D01*
X16559230Y-14106174D02*
X16568753Y-14115698D01*
X16568753Y-14115698D02*
X16578277Y-14134746D01*
X16578277Y-14134746D02*
X16578277Y-14191888D01*
X16578277Y-14191888D02*
X16568753Y-14210936D01*
X16568753Y-14210936D02*
X16559230Y-14220460D01*
X16559230Y-14220460D02*
X16540182Y-14229984D01*
X16540182Y-14229984D02*
X16511610Y-14229984D01*
X16692563Y-14229984D02*
X16673515Y-14220460D01*
X16673515Y-14220460D02*
X16663991Y-14201412D01*
X16663991Y-14201412D02*
X16663991Y-14029984D01*
X16844944Y-14220460D02*
X16825896Y-14229984D01*
X16825896Y-14229984D02*
X16787801Y-14229984D01*
X16787801Y-14229984D02*
X16768753Y-14220460D01*
X16768753Y-14220460D02*
X16759230Y-14201412D01*
X16759230Y-14201412D02*
X16759230Y-14125222D01*
X16759230Y-14125222D02*
X16768753Y-14106174D01*
X16768753Y-14106174D02*
X16787801Y-14096650D01*
X16787801Y-14096650D02*
X16825896Y-14096650D01*
X16825896Y-14096650D02*
X16844944Y-14106174D01*
X16844944Y-14106174D02*
X16854468Y-14125222D01*
X16854468Y-14125222D02*
X16854468Y-14144269D01*
X16854468Y-14144269D02*
X16759230Y-14163317D01*
X16930658Y-14220460D02*
X16949706Y-14229984D01*
X16949706Y-14229984D02*
X16987801Y-14229984D01*
X16987801Y-14229984D02*
X17006849Y-14220460D01*
X17006849Y-14220460D02*
X17016373Y-14201412D01*
X17016373Y-14201412D02*
X17016373Y-14191888D01*
X17016373Y-14191888D02*
X17006849Y-14172841D01*
X17006849Y-14172841D02*
X16987801Y-14163317D01*
X16987801Y-14163317D02*
X16959230Y-14163317D01*
X16959230Y-14163317D02*
X16940182Y-14153793D01*
X16940182Y-14153793D02*
X16930658Y-14134746D01*
X16930658Y-14134746D02*
X16930658Y-14125222D01*
X16930658Y-14125222D02*
X16940182Y-14106174D01*
X16940182Y-14106174D02*
X16959230Y-14096650D01*
X16959230Y-14096650D02*
X16987801Y-14096650D01*
X16987801Y-14096650D02*
X17006849Y-14106174D01*
X17083039Y-14306174D02*
X17092563Y-14296650D01*
X17092563Y-14296650D02*
X17111611Y-14268079D01*
X17111611Y-14268079D02*
X17121134Y-14249031D01*
X17121134Y-14249031D02*
X17130658Y-14220460D01*
X17130658Y-14220460D02*
X17140182Y-14172841D01*
X17140182Y-14172841D02*
X17140182Y-14134746D01*
X17140182Y-14134746D02*
X17130658Y-14087127D01*
X17130658Y-14087127D02*
X17121134Y-14058555D01*
X17121134Y-14058555D02*
X17111611Y-14039508D01*
X17111611Y-14039508D02*
X17092563Y-14010936D01*
X17092563Y-14010936D02*
X17083039Y-14001412D01*
M02*
