M48
; DRILL file {KiCad 8.0.4} date 2024-07-24T16:44:53-0700
; FORMAT={-:-/ absolute / inch / decimal}
; #@! TF.CreationDate,2024-07-24T16:44:53-07:00
; #@! TF.GenerationSoftware,Kicad,Pcbnew,8.0.4
; #@! TF.FileFunction,Plated,1,2,PTH
FMAT,2
INCH
; #@! TA.AperFunction,Plated,PTH,ComponentDrill
T1C0.0138
; #@! TA.AperFunction,Plated,PTH,ViaDrill
T2C0.0157
; #@! TA.AperFunction,Plated,PTH,ComponentDrill
T3C0.0197
; #@! TA.AperFunction,Plated,PTH,ComponentDrill
T4C0.0236
; #@! TA.AperFunction,Plated,PTH,ComponentDrill
T5C0.0276
; #@! TA.AperFunction,Plated,PTH,ComponentDrill
T6C0.0591
%
G90
G05
T1
X3.2953Y-1.4104
X3.2953Y-1.4504
X3.2953Y-1.4904
X3.3353Y-1.4104
X3.3353Y-1.4504
X3.3353Y-1.4904
X3.3753Y-1.4104
X3.3753Y-1.4504
X3.3753Y-1.4904
T2
X2.1606Y-1.572
X2.4674Y-1.5754
X2.4703Y-1.1504
X2.7153Y-1.5654
X2.7903Y-1.2304
X2.8299Y-1.3358
X3.0228Y-1.6379
X3.1055Y-1.2177
X3.1744Y-1.2374
X3.2138Y-1.6508
X3.2153Y-1.7804
X3.3858Y-1.2374
X3.4205Y-1.7295
X3.4843Y-1.1417
X3.5189Y-1.7098
X3.5303Y-1.5104
X3.6173Y-1.3555
X3.6764Y-1.3457
X3.8903Y-1.3854
X5.3543Y-4.4685
X5.3642Y-1.9094
T3
X2.3543Y-1.4016
X2.9094Y-1.5157
T5
X3.7157Y-1.2374
X3.7945Y-1.2374
X3.8732Y-1.2374
T6
X2.2122Y-2.7343
X2.4622Y-2.6343
X3.1587Y-3.8
X3.2587Y-4.05
X3.531Y-2.3984
X3.8002Y-2.4017
X4.2239Y-2.6854
X4.4931Y-2.6887
X4.5109Y-1.9925
X4.7801Y-1.9958
X4.8565Y-3.1179
X5.1258Y-3.1212
T4
G00X2.837Y-0.9057
M15
G01X2.837Y-0.8742
M16
G05
G00X2.837Y-1.0746
M15
G01X2.837Y-1.0313
M16
G05
G00X3.1772Y-0.9057
M15
G01X3.1772Y-0.8742
M16
G05
G00X3.1772Y-1.0746
M15
G01X3.1772Y-1.0313
M16
G05
M30
