%TF.GenerationSoftware,KiCad,Pcbnew,8.0.4*%
%TF.CreationDate,2024-07-24T01:12:08-07:00*%
%TF.ProjectId,panel_1,70616e65-6c5f-4312-9e6b-696361645f70,rev?*%
%TF.SameCoordinates,Original*%
%TF.FileFunction,Drillmap*%
%TF.FilePolarity,Positive*%
%FSLAX45Y45*%
G04 Gerber Fmt 4.5, Leading zero omitted, Abs format (unit mm)*
G04 Created by KiCad (PCBNEW 8.0.4) date 2024-07-24 01:12:08*
%MOMM*%
%LPD*%
G01*
G04 APERTURE LIST*
%ADD10C,0.050000*%
%ADD11C,0.200000*%
%ADD12C,0.100000*%
%ADD13C,0.175000*%
%ADD14C,0.304800*%
%ADD15C,0.320000*%
%ADD16C,0.398780*%
%ADD17C,0.400000*%
G04 APERTURE END LIST*
D10*
X12625000Y-10600000D02*
G75*
G02*
X12775000Y-10600000I75000J0D01*
G01*
X17240000Y-8340000D02*
G75*
G02*
X17240000Y-8160000I0J90000D01*
G01*
X15130000Y-9035000D02*
X15130000Y-9295000D01*
X15300000Y-12440000D02*
X17375000Y-12440000D01*
X17545000Y-12440000D02*
X21620000Y-12440000D01*
X12625000Y-10900000D02*
X12625000Y-10600000D01*
X14770000Y-2990000D02*
X12120000Y-2990000D01*
X15300000Y-12260000D02*
X15300000Y-12440000D01*
X15140000Y-12260000D02*
X15140000Y-12440000D01*
X12775000Y-10600000D02*
X12775000Y-10900000D01*
X17545000Y-10385000D02*
G75*
G02*
X17375000Y-10385000I-85000J0D01*
G01*
X15140000Y-12440000D02*
X12120000Y-12440000D01*
X12775000Y-9550000D02*
X12775000Y-9455000D01*
X17545000Y-11885000D02*
X17545000Y-10785000D01*
X16840000Y-8160000D02*
G75*
G02*
X16840000Y-8340000I0J-90000D01*
G01*
X21620000Y-2990000D02*
X15920000Y-2990000D01*
X14445000Y-9455000D02*
G75*
G02*
X14445000Y-9295000I0J80000D01*
G01*
X12775000Y-11525000D02*
X14720000Y-11525000D01*
X15280000Y-8160000D02*
X15130000Y-8310000D01*
X12625000Y-9550000D02*
X12625000Y-9380000D01*
X17545000Y-8360000D02*
X17345000Y-8160000D01*
X17545000Y-12285000D02*
X17545000Y-12440000D01*
X15300000Y-11860000D02*
G75*
G02*
X15140000Y-11860000I-80000J0D01*
G01*
X15860000Y-8340000D02*
G75*
G02*
X15860000Y-8160000I0J90000D01*
G01*
X15300000Y-11525000D02*
X15300000Y-11860000D01*
X17545000Y-10385000D02*
X17545000Y-9375000D01*
X15460000Y-8160000D02*
G75*
G02*
X15460000Y-8340000I0J-90000D01*
G01*
X17375000Y-8340000D02*
X17375000Y-8975000D01*
X16840000Y-8160000D02*
X15860000Y-8160000D01*
X14720000Y-11675000D02*
X12625000Y-11675000D01*
X17375000Y-12440000D02*
X17375000Y-12285000D01*
X12775000Y-9550000D02*
G75*
G02*
X12625000Y-9550000I-75000J0D01*
G01*
X14720000Y-11525000D02*
G75*
G02*
X14720000Y-11675000I0J-75000D01*
G01*
X17375000Y-8340000D02*
X17240000Y-8340000D01*
X15300000Y-9455000D02*
X15130000Y-9455000D01*
X12625000Y-9950000D02*
G75*
G02*
X12775000Y-9950000I75000J0D01*
G01*
X17375000Y-10385000D02*
X17375000Y-9375000D01*
X12120000Y-2990000D02*
X12120000Y-12440000D01*
X14730000Y-9295000D02*
G75*
G02*
X14730000Y-9455000I0J-80000D01*
G01*
X15460000Y-8160000D02*
X15280000Y-8160000D01*
X21620000Y-12440000D02*
X21620000Y-2990000D01*
X12775000Y-11300000D02*
X12775000Y-11525000D01*
X15140000Y-11675000D02*
X15120000Y-11675000D01*
X15300000Y-8635000D02*
X15300000Y-8340000D01*
X12775000Y-9950000D02*
X12775000Y-10200000D01*
X15130000Y-8635000D02*
X15130000Y-8310000D01*
X12625000Y-11300000D02*
G75*
G02*
X12775000Y-11300000I75000J0D01*
G01*
X15300000Y-8340000D02*
X15460000Y-8340000D01*
X15140000Y-12260000D02*
G75*
G02*
X15300000Y-12260000I80000J0D01*
G01*
X12775000Y-10200000D02*
G75*
G02*
X12625000Y-10200000I-75000J0D01*
G01*
X15920000Y-2990000D02*
X15920000Y-2490000D01*
X17345000Y-8160000D02*
X17240000Y-8160000D01*
X16840000Y-8340000D02*
X15860000Y-8340000D01*
X15120000Y-11525000D02*
X15300000Y-11525000D01*
X17545000Y-8975000D02*
G75*
G02*
X17375000Y-8975000I-85000J0D01*
G01*
X12625000Y-9380000D02*
X12710000Y-9295000D01*
X17375000Y-10785000D02*
G75*
G02*
X17545000Y-10785000I85000J0D01*
G01*
X17545000Y-8975000D02*
X17545000Y-8360000D01*
X14770000Y-2490000D02*
X14770000Y-2990000D01*
X12625000Y-11300000D02*
X12625000Y-11675000D01*
X15130000Y-9035000D02*
G75*
G02*
X15300000Y-9035000I85000J0D01*
G01*
X12775000Y-10900000D02*
G75*
G02*
X12625000Y-10900000I-75000J0D01*
G01*
X17545000Y-11885000D02*
G75*
G02*
X17375000Y-11885000I-85000J0D01*
G01*
X14730000Y-9455000D02*
X14445000Y-9455000D01*
X12625000Y-10200000D02*
X12625000Y-9950000D01*
X15130000Y-9455000D02*
G75*
G02*
X15130000Y-9295000I0J80000D01*
G01*
X14045000Y-9295000D02*
G75*
G02*
X14045000Y-9455000I0J-80000D01*
G01*
X15300000Y-8635000D02*
G75*
G02*
X15130000Y-8635000I-85000J0D01*
G01*
X17375000Y-11885000D02*
X17375000Y-10785000D01*
X17375000Y-9375000D02*
G75*
G02*
X17545000Y-9375000I85000J0D01*
G01*
X14445000Y-9295000D02*
X14730000Y-9295000D01*
X14045000Y-9295000D02*
X12710000Y-9295000D01*
X15920000Y-2490000D02*
X14770000Y-2490000D01*
X15120000Y-11675000D02*
G75*
G02*
X15120000Y-11525000I0J75000D01*
G01*
X17375000Y-12285000D02*
G75*
G02*
X17545000Y-12285000I85000J0D01*
G01*
X14045000Y-9455000D02*
X12775000Y-9455000D01*
X15140000Y-11860000D02*
X15140000Y-11675000D01*
X15300000Y-9035000D02*
X15300000Y-9455000D01*
D11*
D12*
X12600000Y-9650000D02*
X12650000Y-9700000D01*
X12650000Y-9650000D02*
X12600000Y-9700000D01*
X12600000Y-9725000D02*
X12650000Y-9775000D01*
X12650000Y-9725000D02*
X12600000Y-9775000D01*
X12600000Y-9800000D02*
X12650000Y-9850000D01*
X12650000Y-9800000D02*
X12600000Y-9850000D01*
X12600000Y-10300000D02*
X12650000Y-10350000D01*
X12650000Y-10300000D02*
X12600000Y-10350000D01*
X12600000Y-10375000D02*
X12650000Y-10425000D01*
X12650000Y-10375000D02*
X12600000Y-10425000D01*
X12600000Y-10450000D02*
X12650000Y-10500000D01*
X12650000Y-10450000D02*
X12600000Y-10500000D01*
X12600000Y-11000000D02*
X12650000Y-11050000D01*
X12650000Y-11000000D02*
X12600000Y-11050000D01*
X12600000Y-11075000D02*
X12650000Y-11125000D01*
X12650000Y-11075000D02*
X12600000Y-11125000D01*
X12600000Y-11150000D02*
X12650000Y-11200000D01*
X12650000Y-11150000D02*
X12600000Y-11200000D01*
X12750000Y-9650000D02*
X12800000Y-9700000D01*
X12800000Y-9650000D02*
X12750000Y-9700000D01*
X12750000Y-9725000D02*
X12800000Y-9775000D01*
X12800000Y-9725000D02*
X12750000Y-9775000D01*
X12750000Y-9800000D02*
X12800000Y-9850000D01*
X12800000Y-9800000D02*
X12750000Y-9850000D01*
X12750000Y-10300000D02*
X12800000Y-10350000D01*
X12800000Y-10300000D02*
X12750000Y-10350000D01*
X12750000Y-10375000D02*
X12800000Y-10425000D01*
X12800000Y-10375000D02*
X12750000Y-10425000D01*
X12750000Y-10450000D02*
X12800000Y-10500000D01*
X12800000Y-10450000D02*
X12750000Y-10500000D01*
X12750000Y-11000000D02*
X12800000Y-11050000D01*
X12800000Y-11000000D02*
X12750000Y-11050000D01*
X12750000Y-11075000D02*
X12800000Y-11125000D01*
X12800000Y-11075000D02*
X12750000Y-11125000D01*
X12750000Y-11150000D02*
X12800000Y-11200000D01*
X12800000Y-11150000D02*
X12750000Y-11200000D01*
X14145000Y-9275000D02*
X14195000Y-9325000D01*
X14195000Y-9275000D02*
X14145000Y-9325000D01*
X14145000Y-9425000D02*
X14195000Y-9475000D01*
X14195000Y-9425000D02*
X14145000Y-9475000D01*
X14220000Y-9275000D02*
X14270000Y-9325000D01*
X14270000Y-9275000D02*
X14220000Y-9325000D01*
X14220000Y-9425000D02*
X14270000Y-9475000D01*
X14270000Y-9425000D02*
X14220000Y-9475000D01*
X14295000Y-9275000D02*
X14345000Y-9325000D01*
X14345000Y-9275000D02*
X14295000Y-9325000D01*
X14295000Y-9425000D02*
X14345000Y-9475000D01*
X14345000Y-9425000D02*
X14295000Y-9475000D01*
X14820000Y-11500000D02*
X14870000Y-11550000D01*
X14870000Y-11500000D02*
X14820000Y-11550000D01*
X14820000Y-11650000D02*
X14870000Y-11700000D01*
X14870000Y-11650000D02*
X14820000Y-11700000D01*
X14830000Y-9275000D02*
X14880000Y-9325000D01*
X14880000Y-9275000D02*
X14830000Y-9325000D01*
X14830000Y-9425000D02*
X14880000Y-9475000D01*
X14880000Y-9425000D02*
X14830000Y-9475000D01*
X14895000Y-11500000D02*
X14945000Y-11550000D01*
X14945000Y-11500000D02*
X14895000Y-11550000D01*
X14895000Y-11650000D02*
X14945000Y-11700000D01*
X14945000Y-11650000D02*
X14895000Y-11700000D01*
X14905000Y-9275000D02*
X14955000Y-9325000D01*
X14955000Y-9275000D02*
X14905000Y-9325000D01*
X14905000Y-9425000D02*
X14955000Y-9475000D01*
X14955000Y-9425000D02*
X14905000Y-9475000D01*
X14970000Y-11500000D02*
X15020000Y-11550000D01*
X15020000Y-11500000D02*
X14970000Y-11550000D01*
X14970000Y-11650000D02*
X15020000Y-11700000D01*
X15020000Y-11650000D02*
X14970000Y-11700000D01*
X14980000Y-9275000D02*
X15030000Y-9325000D01*
X15030000Y-9275000D02*
X14980000Y-9325000D01*
X14980000Y-9425000D02*
X15030000Y-9475000D01*
X15030000Y-9425000D02*
X14980000Y-9475000D01*
X15115000Y-8735000D02*
X15165000Y-8785000D01*
X15165000Y-8735000D02*
X15115000Y-8785000D01*
X15115000Y-8810000D02*
X15165000Y-8860000D01*
X15165000Y-8810000D02*
X15115000Y-8860000D01*
X15115000Y-8885000D02*
X15165000Y-8935000D01*
X15165000Y-8885000D02*
X15115000Y-8935000D01*
X15120000Y-11960000D02*
X15170000Y-12010000D01*
X15170000Y-11960000D02*
X15120000Y-12010000D01*
X15120000Y-12035000D02*
X15170000Y-12085000D01*
X15170000Y-12035000D02*
X15120000Y-12085000D01*
X15120000Y-12110000D02*
X15170000Y-12160000D01*
X15170000Y-12110000D02*
X15120000Y-12160000D01*
X15265000Y-8735000D02*
X15315000Y-8785000D01*
X15315000Y-8735000D02*
X15265000Y-8785000D01*
X15265000Y-8810000D02*
X15315000Y-8860000D01*
X15315000Y-8810000D02*
X15265000Y-8860000D01*
X15265000Y-8885000D02*
X15315000Y-8935000D01*
X15315000Y-8885000D02*
X15265000Y-8935000D01*
X15270000Y-11960000D02*
X15320000Y-12010000D01*
X15320000Y-11960000D02*
X15270000Y-12010000D01*
X15270000Y-12035000D02*
X15320000Y-12085000D01*
X15320000Y-12035000D02*
X15270000Y-12085000D01*
X15270000Y-12110000D02*
X15320000Y-12160000D01*
X15320000Y-12110000D02*
X15270000Y-12160000D01*
X15560000Y-8150000D02*
X15610000Y-8200000D01*
X15610000Y-8150000D02*
X15560000Y-8200000D01*
X15560000Y-8300000D02*
X15610000Y-8350000D01*
X15610000Y-8300000D02*
X15560000Y-8350000D01*
X15635000Y-8150000D02*
X15685000Y-8200000D01*
X15685000Y-8150000D02*
X15635000Y-8200000D01*
X15635000Y-8300000D02*
X15685000Y-8350000D01*
X15685000Y-8300000D02*
X15635000Y-8350000D01*
X15710000Y-8150000D02*
X15760000Y-8200000D01*
X15760000Y-8150000D02*
X15710000Y-8200000D01*
X15710000Y-8300000D02*
X15760000Y-8350000D01*
X15760000Y-8300000D02*
X15710000Y-8350000D01*
X16940000Y-8150000D02*
X16990000Y-8200000D01*
X16990000Y-8150000D02*
X16940000Y-8200000D01*
X16940000Y-8300000D02*
X16990000Y-8350000D01*
X16990000Y-8300000D02*
X16940000Y-8350000D01*
X17015000Y-8150000D02*
X17065000Y-8200000D01*
X17065000Y-8150000D02*
X17015000Y-8200000D01*
X17015000Y-8300000D02*
X17065000Y-8350000D01*
X17065000Y-8300000D02*
X17015000Y-8350000D01*
X17090000Y-8150000D02*
X17140000Y-8200000D01*
X17140000Y-8150000D02*
X17090000Y-8200000D01*
X17090000Y-8300000D02*
X17140000Y-8350000D01*
X17140000Y-8300000D02*
X17090000Y-8350000D01*
X17360000Y-9075000D02*
X17410000Y-9125000D01*
X17410000Y-9075000D02*
X17360000Y-9125000D01*
X17360000Y-9150000D02*
X17410000Y-9200000D01*
X17410000Y-9150000D02*
X17360000Y-9200000D01*
X17360000Y-9225000D02*
X17410000Y-9275000D01*
X17410000Y-9225000D02*
X17360000Y-9275000D01*
X17360000Y-10485000D02*
X17410000Y-10535000D01*
X17410000Y-10485000D02*
X17360000Y-10535000D01*
X17360000Y-10560000D02*
X17410000Y-10610000D01*
X17410000Y-10560000D02*
X17360000Y-10610000D01*
X17360000Y-10635000D02*
X17410000Y-10685000D01*
X17410000Y-10635000D02*
X17360000Y-10685000D01*
X17360000Y-11985000D02*
X17410000Y-12035000D01*
X17410000Y-11985000D02*
X17360000Y-12035000D01*
X17360000Y-12060000D02*
X17410000Y-12110000D01*
X17410000Y-12060000D02*
X17360000Y-12110000D01*
X17360000Y-12135000D02*
X17410000Y-12185000D01*
X17410000Y-12135000D02*
X17360000Y-12185000D01*
X17510000Y-9075000D02*
X17560000Y-9125000D01*
X17560000Y-9075000D02*
X17510000Y-9125000D01*
X17510000Y-9150000D02*
X17560000Y-9200000D01*
X17560000Y-9150000D02*
X17510000Y-9200000D01*
X17510000Y-9225000D02*
X17560000Y-9275000D01*
X17560000Y-9225000D02*
X17510000Y-9275000D01*
X17510000Y-10485000D02*
X17560000Y-10535000D01*
X17560000Y-10485000D02*
X17510000Y-10535000D01*
X17510000Y-10560000D02*
X17560000Y-10610000D01*
X17560000Y-10560000D02*
X17510000Y-10610000D01*
X17510000Y-10635000D02*
X17560000Y-10685000D01*
X17560000Y-10635000D02*
X17510000Y-10685000D01*
X17510000Y-11985000D02*
X17560000Y-12035000D01*
X17560000Y-11985000D02*
X17510000Y-12035000D01*
X17510000Y-12060000D02*
X17560000Y-12110000D01*
X17560000Y-12060000D02*
X17510000Y-12110000D01*
X17510000Y-12135000D02*
X17560000Y-12185000D01*
X17560000Y-12135000D02*
X17510000Y-12185000D01*
X15102000Y-3114500D02*
G75*
G02*
X15037000Y-3114500I-32500J0D01*
G01*
X15037000Y-3114500D02*
G75*
G02*
X15102000Y-3114500I32500J0D01*
G01*
X15679000Y-3114500D02*
G75*
G02*
X15614000Y-3114500I-32500J0D01*
G01*
X15614000Y-3114500D02*
G75*
G02*
X15679000Y-3114500I32500J0D01*
G01*
D13*
X13212000Y-7601670D02*
X13212000Y-7776670D01*
X13124500Y-7689170D02*
X13299500Y-7689170D01*
X14228000Y-7601670D02*
X14228000Y-7776670D01*
X14140500Y-7689170D02*
X14315500Y-7689170D01*
X16251000Y-9800500D02*
X16251000Y-9975500D01*
X16163500Y-9888000D02*
X16338500Y-9888000D01*
X16251000Y-10816500D02*
X16251000Y-10991500D01*
X16163500Y-10904000D02*
X16338500Y-10904000D01*
X16474156Y-6680521D02*
X16474156Y-6855521D01*
X16386656Y-6768021D02*
X16561656Y-6768021D01*
X17412818Y-7069327D02*
X17412818Y-7244327D01*
X17325318Y-7156827D02*
X17500318Y-7156827D01*
X18234146Y-7409533D02*
X18234146Y-7584533D01*
X18146646Y-7497033D02*
X18321646Y-7497033D01*
X18963158Y-5649542D02*
X18963158Y-5824542D01*
X18875658Y-5737042D02*
X19050658Y-5737042D01*
X19172808Y-7798339D02*
X19172808Y-7973339D01*
X19085308Y-7885839D02*
X19260308Y-7885839D01*
X19841064Y-8508097D02*
X19841064Y-8683097D01*
X19753564Y-8595597D02*
X19928564Y-8595597D01*
X19901820Y-6038349D02*
X19901820Y-6213349D01*
X19814320Y-6125849D02*
X19989320Y-6125849D01*
X20779725Y-8896903D02*
X20779725Y-9071903D01*
X20692225Y-8984403D02*
X20867225Y-8984403D01*
D14*
X15660264Y-9309964D02*
X15660264Y-9094436D01*
X15444736Y-9094436D01*
X15444736Y-9309964D01*
X15660264Y-9309964D01*
X15660264Y-11697564D02*
X15660264Y-11482036D01*
X15444736Y-11482036D01*
X15444736Y-11697564D01*
X15660264Y-11697564D01*
D15*
X12620000Y-3600000D02*
X12780000Y-3440000D01*
X12620000Y-3280000D01*
X12460000Y-3440000D01*
X12620000Y-3600000D01*
X12620000Y-9000000D02*
X12780000Y-8840000D01*
X12620000Y-8680000D01*
X12460000Y-8840000D01*
X12620000Y-9000000D01*
X14400000Y-10600000D02*
X14560000Y-10440000D01*
X14400000Y-10280000D01*
X14240000Y-10440000D01*
X14400000Y-10600000D01*
X15520000Y-7050000D02*
X15680000Y-6890000D01*
X15520000Y-6730000D01*
X15360000Y-6890000D01*
X15520000Y-7050000D01*
X19770000Y-4150000D02*
X19930000Y-3990000D01*
X19770000Y-3830000D01*
X19610000Y-3990000D01*
X19770000Y-4150000D01*
X20470000Y-11600000D02*
X20630000Y-11440000D01*
X20470000Y-11280000D01*
X20310000Y-11440000D01*
X20470000Y-11600000D01*
D16*
X16874110Y-9002810D02*
X17272890Y-9401590D01*
X17272890Y-9002810D02*
X16874110Y-9401590D01*
X17272890Y-9202200D02*
G75*
G02*
X16874110Y-9202200I-199390J0D01*
G01*
X16874110Y-9202200D02*
G75*
G02*
X17272890Y-9202200I199390J0D01*
G01*
X16874110Y-11390410D02*
X17272890Y-11789190D01*
X17272890Y-11390410D02*
X16874110Y-11789190D01*
X17272890Y-11589800D02*
G75*
G02*
X16874110Y-11589800I-199390J0D01*
G01*
X16874110Y-11589800D02*
G75*
G02*
X17272890Y-11589800I199390J0D01*
G01*
D17*
X13520000Y-7489170D02*
X13920000Y-7889170D01*
X13920000Y-7489170D02*
X13520000Y-7889170D01*
X13720000Y-7489170D02*
X13720000Y-7889170D01*
X13520000Y-7689170D02*
X13920000Y-7689170D01*
X16051000Y-10196000D02*
X16451000Y-10596000D01*
X16451000Y-10196000D02*
X16051000Y-10596000D01*
X16251000Y-10196000D02*
X16251000Y-10596000D01*
X16051000Y-10396000D02*
X16451000Y-10396000D01*
X16743487Y-6762424D02*
X17143487Y-7162424D01*
X17143487Y-6762424D02*
X16743487Y-7162424D01*
X16943487Y-6762424D02*
X16943487Y-7162424D01*
X16743487Y-6962424D02*
X17143487Y-6962424D01*
X18503477Y-7491436D02*
X18903477Y-7891436D01*
X18903477Y-7491436D02*
X18503477Y-7891436D01*
X18703477Y-7491436D02*
X18703477Y-7891436D01*
X18503477Y-7691436D02*
X18903477Y-7691436D01*
X19232489Y-5731446D02*
X19632489Y-6131446D01*
X19632489Y-5731446D02*
X19232489Y-6131446D01*
X19432489Y-5731446D02*
X19432489Y-6131446D01*
X19232489Y-5931446D02*
X19632489Y-5931446D01*
X20110394Y-8590000D02*
X20510394Y-8990000D01*
X20510394Y-8590000D02*
X20110394Y-8990000D01*
X20310394Y-8590000D02*
X20310394Y-8990000D01*
X20110394Y-8790000D02*
X20510394Y-8790000D01*
D11*
X12378277Y-12753984D02*
X12378277Y-12553984D01*
X12378277Y-12553984D02*
X12425896Y-12553984D01*
X12425896Y-12553984D02*
X12454467Y-12563508D01*
X12454467Y-12563508D02*
X12473515Y-12582555D01*
X12473515Y-12582555D02*
X12483039Y-12601603D01*
X12483039Y-12601603D02*
X12492562Y-12639698D01*
X12492562Y-12639698D02*
X12492562Y-12668269D01*
X12492562Y-12668269D02*
X12483039Y-12706365D01*
X12483039Y-12706365D02*
X12473515Y-12725412D01*
X12473515Y-12725412D02*
X12454467Y-12744460D01*
X12454467Y-12744460D02*
X12425896Y-12753984D01*
X12425896Y-12753984D02*
X12378277Y-12753984D01*
X12578277Y-12753984D02*
X12578277Y-12620650D01*
X12578277Y-12658746D02*
X12587801Y-12639698D01*
X12587801Y-12639698D02*
X12597324Y-12630174D01*
X12597324Y-12630174D02*
X12616372Y-12620650D01*
X12616372Y-12620650D02*
X12635420Y-12620650D01*
X12702086Y-12753984D02*
X12702086Y-12620650D01*
X12702086Y-12553984D02*
X12692562Y-12563508D01*
X12692562Y-12563508D02*
X12702086Y-12573031D01*
X12702086Y-12573031D02*
X12711610Y-12563508D01*
X12711610Y-12563508D02*
X12702086Y-12553984D01*
X12702086Y-12553984D02*
X12702086Y-12573031D01*
X12825896Y-12753984D02*
X12806848Y-12744460D01*
X12806848Y-12744460D02*
X12797324Y-12725412D01*
X12797324Y-12725412D02*
X12797324Y-12553984D01*
X12930658Y-12753984D02*
X12911610Y-12744460D01*
X12911610Y-12744460D02*
X12902086Y-12725412D01*
X12902086Y-12725412D02*
X12902086Y-12553984D01*
X13159229Y-12753984D02*
X13159229Y-12553984D01*
X13159229Y-12553984D02*
X13225896Y-12696841D01*
X13225896Y-12696841D02*
X13292562Y-12553984D01*
X13292562Y-12553984D02*
X13292562Y-12753984D01*
X13473515Y-12753984D02*
X13473515Y-12649222D01*
X13473515Y-12649222D02*
X13463991Y-12630174D01*
X13463991Y-12630174D02*
X13444943Y-12620650D01*
X13444943Y-12620650D02*
X13406848Y-12620650D01*
X13406848Y-12620650D02*
X13387801Y-12630174D01*
X13473515Y-12744460D02*
X13454467Y-12753984D01*
X13454467Y-12753984D02*
X13406848Y-12753984D01*
X13406848Y-12753984D02*
X13387801Y-12744460D01*
X13387801Y-12744460D02*
X13378277Y-12725412D01*
X13378277Y-12725412D02*
X13378277Y-12706365D01*
X13378277Y-12706365D02*
X13387801Y-12687317D01*
X13387801Y-12687317D02*
X13406848Y-12677793D01*
X13406848Y-12677793D02*
X13454467Y-12677793D01*
X13454467Y-12677793D02*
X13473515Y-12668269D01*
X13568753Y-12620650D02*
X13568753Y-12820650D01*
X13568753Y-12630174D02*
X13587801Y-12620650D01*
X13587801Y-12620650D02*
X13625896Y-12620650D01*
X13625896Y-12620650D02*
X13644943Y-12630174D01*
X13644943Y-12630174D02*
X13654467Y-12639698D01*
X13654467Y-12639698D02*
X13663991Y-12658746D01*
X13663991Y-12658746D02*
X13663991Y-12715888D01*
X13663991Y-12715888D02*
X13654467Y-12734936D01*
X13654467Y-12734936D02*
X13644943Y-12744460D01*
X13644943Y-12744460D02*
X13625896Y-12753984D01*
X13625896Y-12753984D02*
X13587801Y-12753984D01*
X13587801Y-12753984D02*
X13568753Y-12744460D01*
X13749705Y-12734936D02*
X13759229Y-12744460D01*
X13759229Y-12744460D02*
X13749705Y-12753984D01*
X13749705Y-12753984D02*
X13740182Y-12744460D01*
X13740182Y-12744460D02*
X13749705Y-12734936D01*
X13749705Y-12734936D02*
X13749705Y-12753984D01*
X13749705Y-12630174D02*
X13759229Y-12639698D01*
X13759229Y-12639698D02*
X13749705Y-12649222D01*
X13749705Y-12649222D02*
X13740182Y-12639698D01*
X13740182Y-12639698D02*
X13749705Y-12630174D01*
X13749705Y-12630174D02*
X13749705Y-12649222D01*
D12*
X12067500Y-13057500D02*
X12117500Y-13107500D01*
X12117500Y-13057500D02*
X12067500Y-13107500D01*
D11*
X12416372Y-12973984D02*
X12435420Y-12973984D01*
X12435420Y-12973984D02*
X12454467Y-12983508D01*
X12454467Y-12983508D02*
X12463991Y-12993031D01*
X12463991Y-12993031D02*
X12473515Y-13012079D01*
X12473515Y-13012079D02*
X12483039Y-13050174D01*
X12483039Y-13050174D02*
X12483039Y-13097793D01*
X12483039Y-13097793D02*
X12473515Y-13135888D01*
X12473515Y-13135888D02*
X12463991Y-13154936D01*
X12463991Y-13154936D02*
X12454467Y-13164460D01*
X12454467Y-13164460D02*
X12435420Y-13173984D01*
X12435420Y-13173984D02*
X12416372Y-13173984D01*
X12416372Y-13173984D02*
X12397324Y-13164460D01*
X12397324Y-13164460D02*
X12387801Y-13154936D01*
X12387801Y-13154936D02*
X12378277Y-13135888D01*
X12378277Y-13135888D02*
X12368753Y-13097793D01*
X12368753Y-13097793D02*
X12368753Y-13050174D01*
X12368753Y-13050174D02*
X12378277Y-13012079D01*
X12378277Y-13012079D02*
X12387801Y-12993031D01*
X12387801Y-12993031D02*
X12397324Y-12983508D01*
X12397324Y-12983508D02*
X12416372Y-12973984D01*
X12568753Y-13154936D02*
X12578277Y-13164460D01*
X12578277Y-13164460D02*
X12568753Y-13173984D01*
X12568753Y-13173984D02*
X12559229Y-13164460D01*
X12559229Y-13164460D02*
X12568753Y-13154936D01*
X12568753Y-13154936D02*
X12568753Y-13173984D01*
X12759229Y-12973984D02*
X12663991Y-12973984D01*
X12663991Y-12973984D02*
X12654467Y-13069222D01*
X12654467Y-13069222D02*
X12663991Y-13059698D01*
X12663991Y-13059698D02*
X12683039Y-13050174D01*
X12683039Y-13050174D02*
X12730658Y-13050174D01*
X12730658Y-13050174D02*
X12749705Y-13059698D01*
X12749705Y-13059698D02*
X12759229Y-13069222D01*
X12759229Y-13069222D02*
X12768753Y-13088269D01*
X12768753Y-13088269D02*
X12768753Y-13135888D01*
X12768753Y-13135888D02*
X12759229Y-13154936D01*
X12759229Y-13154936D02*
X12749705Y-13164460D01*
X12749705Y-13164460D02*
X12730658Y-13173984D01*
X12730658Y-13173984D02*
X12683039Y-13173984D01*
X12683039Y-13173984D02*
X12663991Y-13164460D01*
X12663991Y-13164460D02*
X12654467Y-13154936D01*
X12892562Y-12973984D02*
X12911610Y-12973984D01*
X12911610Y-12973984D02*
X12930658Y-12983508D01*
X12930658Y-12983508D02*
X12940182Y-12993031D01*
X12940182Y-12993031D02*
X12949705Y-13012079D01*
X12949705Y-13012079D02*
X12959229Y-13050174D01*
X12959229Y-13050174D02*
X12959229Y-13097793D01*
X12959229Y-13097793D02*
X12949705Y-13135888D01*
X12949705Y-13135888D02*
X12940182Y-13154936D01*
X12940182Y-13154936D02*
X12930658Y-13164460D01*
X12930658Y-13164460D02*
X12911610Y-13173984D01*
X12911610Y-13173984D02*
X12892562Y-13173984D01*
X12892562Y-13173984D02*
X12873515Y-13164460D01*
X12873515Y-13164460D02*
X12863991Y-13154936D01*
X12863991Y-13154936D02*
X12854467Y-13135888D01*
X12854467Y-13135888D02*
X12844943Y-13097793D01*
X12844943Y-13097793D02*
X12844943Y-13050174D01*
X12844943Y-13050174D02*
X12854467Y-13012079D01*
X12854467Y-13012079D02*
X12863991Y-12993031D01*
X12863991Y-12993031D02*
X12873515Y-12983508D01*
X12873515Y-12983508D02*
X12892562Y-12973984D01*
X13083039Y-12973984D02*
X13102086Y-12973984D01*
X13102086Y-12973984D02*
X13121134Y-12983508D01*
X13121134Y-12983508D02*
X13130658Y-12993031D01*
X13130658Y-12993031D02*
X13140182Y-13012079D01*
X13140182Y-13012079D02*
X13149705Y-13050174D01*
X13149705Y-13050174D02*
X13149705Y-13097793D01*
X13149705Y-13097793D02*
X13140182Y-13135888D01*
X13140182Y-13135888D02*
X13130658Y-13154936D01*
X13130658Y-13154936D02*
X13121134Y-13164460D01*
X13121134Y-13164460D02*
X13102086Y-13173984D01*
X13102086Y-13173984D02*
X13083039Y-13173984D01*
X13083039Y-13173984D02*
X13063991Y-13164460D01*
X13063991Y-13164460D02*
X13054467Y-13154936D01*
X13054467Y-13154936D02*
X13044943Y-13135888D01*
X13044943Y-13135888D02*
X13035420Y-13097793D01*
X13035420Y-13097793D02*
X13035420Y-13050174D01*
X13035420Y-13050174D02*
X13044943Y-13012079D01*
X13044943Y-13012079D02*
X13054467Y-12993031D01*
X13054467Y-12993031D02*
X13063991Y-12983508D01*
X13063991Y-12983508D02*
X13083039Y-12973984D01*
X13235420Y-13173984D02*
X13235420Y-13040650D01*
X13235420Y-13059698D02*
X13244943Y-13050174D01*
X13244943Y-13050174D02*
X13263991Y-13040650D01*
X13263991Y-13040650D02*
X13292563Y-13040650D01*
X13292563Y-13040650D02*
X13311610Y-13050174D01*
X13311610Y-13050174D02*
X13321134Y-13069222D01*
X13321134Y-13069222D02*
X13321134Y-13173984D01*
X13321134Y-13069222D02*
X13330658Y-13050174D01*
X13330658Y-13050174D02*
X13349705Y-13040650D01*
X13349705Y-13040650D02*
X13378277Y-13040650D01*
X13378277Y-13040650D02*
X13397324Y-13050174D01*
X13397324Y-13050174D02*
X13406848Y-13069222D01*
X13406848Y-13069222D02*
X13406848Y-13173984D01*
X13502086Y-13173984D02*
X13502086Y-13040650D01*
X13502086Y-13059698D02*
X13511610Y-13050174D01*
X13511610Y-13050174D02*
X13530658Y-13040650D01*
X13530658Y-13040650D02*
X13559229Y-13040650D01*
X13559229Y-13040650D02*
X13578277Y-13050174D01*
X13578277Y-13050174D02*
X13587801Y-13069222D01*
X13587801Y-13069222D02*
X13587801Y-13173984D01*
X13587801Y-13069222D02*
X13597324Y-13050174D01*
X13597324Y-13050174D02*
X13616372Y-13040650D01*
X13616372Y-13040650D02*
X13644943Y-13040650D01*
X13644943Y-13040650D02*
X13663991Y-13050174D01*
X13663991Y-13050174D02*
X13673515Y-13069222D01*
X13673515Y-13069222D02*
X13673515Y-13173984D01*
X14063991Y-12964460D02*
X13892563Y-13221603D01*
X14321134Y-12973984D02*
X14340182Y-12973984D01*
X14340182Y-12973984D02*
X14359229Y-12983508D01*
X14359229Y-12983508D02*
X14368753Y-12993031D01*
X14368753Y-12993031D02*
X14378277Y-13012079D01*
X14378277Y-13012079D02*
X14387801Y-13050174D01*
X14387801Y-13050174D02*
X14387801Y-13097793D01*
X14387801Y-13097793D02*
X14378277Y-13135888D01*
X14378277Y-13135888D02*
X14368753Y-13154936D01*
X14368753Y-13154936D02*
X14359229Y-13164460D01*
X14359229Y-13164460D02*
X14340182Y-13173984D01*
X14340182Y-13173984D02*
X14321134Y-13173984D01*
X14321134Y-13173984D02*
X14302086Y-13164460D01*
X14302086Y-13164460D02*
X14292563Y-13154936D01*
X14292563Y-13154936D02*
X14283039Y-13135888D01*
X14283039Y-13135888D02*
X14273515Y-13097793D01*
X14273515Y-13097793D02*
X14273515Y-13050174D01*
X14273515Y-13050174D02*
X14283039Y-13012079D01*
X14283039Y-13012079D02*
X14292563Y-12993031D01*
X14292563Y-12993031D02*
X14302086Y-12983508D01*
X14302086Y-12983508D02*
X14321134Y-12973984D01*
X14473515Y-13154936D02*
X14483039Y-13164460D01*
X14483039Y-13164460D02*
X14473515Y-13173984D01*
X14473515Y-13173984D02*
X14463991Y-13164460D01*
X14463991Y-13164460D02*
X14473515Y-13154936D01*
X14473515Y-13154936D02*
X14473515Y-13173984D01*
X14606848Y-12973984D02*
X14625896Y-12973984D01*
X14625896Y-12973984D02*
X14644944Y-12983508D01*
X14644944Y-12983508D02*
X14654467Y-12993031D01*
X14654467Y-12993031D02*
X14663991Y-13012079D01*
X14663991Y-13012079D02*
X14673515Y-13050174D01*
X14673515Y-13050174D02*
X14673515Y-13097793D01*
X14673515Y-13097793D02*
X14663991Y-13135888D01*
X14663991Y-13135888D02*
X14654467Y-13154936D01*
X14654467Y-13154936D02*
X14644944Y-13164460D01*
X14644944Y-13164460D02*
X14625896Y-13173984D01*
X14625896Y-13173984D02*
X14606848Y-13173984D01*
X14606848Y-13173984D02*
X14587801Y-13164460D01*
X14587801Y-13164460D02*
X14578277Y-13154936D01*
X14578277Y-13154936D02*
X14568753Y-13135888D01*
X14568753Y-13135888D02*
X14559229Y-13097793D01*
X14559229Y-13097793D02*
X14559229Y-13050174D01*
X14559229Y-13050174D02*
X14568753Y-13012079D01*
X14568753Y-13012079D02*
X14578277Y-12993031D01*
X14578277Y-12993031D02*
X14587801Y-12983508D01*
X14587801Y-12983508D02*
X14606848Y-12973984D01*
X14863991Y-13173984D02*
X14749706Y-13173984D01*
X14806848Y-13173984D02*
X14806848Y-12973984D01*
X14806848Y-12973984D02*
X14787801Y-13002555D01*
X14787801Y-13002555D02*
X14768753Y-13021603D01*
X14768753Y-13021603D02*
X14749706Y-13031127D01*
X14959229Y-13173984D02*
X14997325Y-13173984D01*
X14997325Y-13173984D02*
X15016372Y-13164460D01*
X15016372Y-13164460D02*
X15025896Y-13154936D01*
X15025896Y-13154936D02*
X15044944Y-13126365D01*
X15044944Y-13126365D02*
X15054467Y-13088269D01*
X15054467Y-13088269D02*
X15054467Y-13012079D01*
X15054467Y-13012079D02*
X15044944Y-12993031D01*
X15044944Y-12993031D02*
X15035420Y-12983508D01*
X15035420Y-12983508D02*
X15016372Y-12973984D01*
X15016372Y-12973984D02*
X14978277Y-12973984D01*
X14978277Y-12973984D02*
X14959229Y-12983508D01*
X14959229Y-12983508D02*
X14949706Y-12993031D01*
X14949706Y-12993031D02*
X14940182Y-13012079D01*
X14940182Y-13012079D02*
X14940182Y-13059698D01*
X14940182Y-13059698D02*
X14949706Y-13078746D01*
X14949706Y-13078746D02*
X14959229Y-13088269D01*
X14959229Y-13088269D02*
X14978277Y-13097793D01*
X14978277Y-13097793D02*
X15016372Y-13097793D01*
X15016372Y-13097793D02*
X15035420Y-13088269D01*
X15035420Y-13088269D02*
X15044944Y-13078746D01*
X15044944Y-13078746D02*
X15054467Y-13059698D01*
X15121134Y-12973984D02*
X15254467Y-12973984D01*
X15254467Y-12973984D02*
X15168753Y-13173984D01*
X15321134Y-12973984D02*
X15321134Y-13012079D01*
X15397325Y-12973984D02*
X15397325Y-13012079D01*
X15692563Y-13250174D02*
X15683039Y-13240650D01*
X15683039Y-13240650D02*
X15663991Y-13212079D01*
X15663991Y-13212079D02*
X15654468Y-13193031D01*
X15654468Y-13193031D02*
X15644944Y-13164460D01*
X15644944Y-13164460D02*
X15635420Y-13116841D01*
X15635420Y-13116841D02*
X15635420Y-13078746D01*
X15635420Y-13078746D02*
X15644944Y-13031127D01*
X15644944Y-13031127D02*
X15654468Y-13002555D01*
X15654468Y-13002555D02*
X15663991Y-12983508D01*
X15663991Y-12983508D02*
X15683039Y-12954936D01*
X15683039Y-12954936D02*
X15692563Y-12945412D01*
X15749706Y-12973984D02*
X15883039Y-12973984D01*
X15883039Y-12973984D02*
X15797325Y-13173984D01*
X15987801Y-13059698D02*
X15968753Y-13050174D01*
X15968753Y-13050174D02*
X15959229Y-13040650D01*
X15959229Y-13040650D02*
X15949706Y-13021603D01*
X15949706Y-13021603D02*
X15949706Y-13012079D01*
X15949706Y-13012079D02*
X15959229Y-12993031D01*
X15959229Y-12993031D02*
X15968753Y-12983508D01*
X15968753Y-12983508D02*
X15987801Y-12973984D01*
X15987801Y-12973984D02*
X16025896Y-12973984D01*
X16025896Y-12973984D02*
X16044944Y-12983508D01*
X16044944Y-12983508D02*
X16054468Y-12993031D01*
X16054468Y-12993031D02*
X16063991Y-13012079D01*
X16063991Y-13012079D02*
X16063991Y-13021603D01*
X16063991Y-13021603D02*
X16054468Y-13040650D01*
X16054468Y-13040650D02*
X16044944Y-13050174D01*
X16044944Y-13050174D02*
X16025896Y-13059698D01*
X16025896Y-13059698D02*
X15987801Y-13059698D01*
X15987801Y-13059698D02*
X15968753Y-13069222D01*
X15968753Y-13069222D02*
X15959229Y-13078746D01*
X15959229Y-13078746D02*
X15949706Y-13097793D01*
X15949706Y-13097793D02*
X15949706Y-13135888D01*
X15949706Y-13135888D02*
X15959229Y-13154936D01*
X15959229Y-13154936D02*
X15968753Y-13164460D01*
X15968753Y-13164460D02*
X15987801Y-13173984D01*
X15987801Y-13173984D02*
X16025896Y-13173984D01*
X16025896Y-13173984D02*
X16044944Y-13164460D01*
X16044944Y-13164460D02*
X16054468Y-13154936D01*
X16054468Y-13154936D02*
X16063991Y-13135888D01*
X16063991Y-13135888D02*
X16063991Y-13097793D01*
X16063991Y-13097793D02*
X16054468Y-13078746D01*
X16054468Y-13078746D02*
X16044944Y-13069222D01*
X16044944Y-13069222D02*
X16025896Y-13059698D01*
X16302087Y-13173984D02*
X16302087Y-12973984D01*
X16387801Y-13173984D02*
X16387801Y-13069222D01*
X16387801Y-13069222D02*
X16378277Y-13050174D01*
X16378277Y-13050174D02*
X16359230Y-13040650D01*
X16359230Y-13040650D02*
X16330658Y-13040650D01*
X16330658Y-13040650D02*
X16311610Y-13050174D01*
X16311610Y-13050174D02*
X16302087Y-13059698D01*
X16511610Y-13173984D02*
X16492563Y-13164460D01*
X16492563Y-13164460D02*
X16483039Y-13154936D01*
X16483039Y-13154936D02*
X16473515Y-13135888D01*
X16473515Y-13135888D02*
X16473515Y-13078746D01*
X16473515Y-13078746D02*
X16483039Y-13059698D01*
X16483039Y-13059698D02*
X16492563Y-13050174D01*
X16492563Y-13050174D02*
X16511610Y-13040650D01*
X16511610Y-13040650D02*
X16540182Y-13040650D01*
X16540182Y-13040650D02*
X16559230Y-13050174D01*
X16559230Y-13050174D02*
X16568753Y-13059698D01*
X16568753Y-13059698D02*
X16578277Y-13078746D01*
X16578277Y-13078746D02*
X16578277Y-13135888D01*
X16578277Y-13135888D02*
X16568753Y-13154936D01*
X16568753Y-13154936D02*
X16559230Y-13164460D01*
X16559230Y-13164460D02*
X16540182Y-13173984D01*
X16540182Y-13173984D02*
X16511610Y-13173984D01*
X16692563Y-13173984D02*
X16673515Y-13164460D01*
X16673515Y-13164460D02*
X16663991Y-13145412D01*
X16663991Y-13145412D02*
X16663991Y-12973984D01*
X16844944Y-13164460D02*
X16825896Y-13173984D01*
X16825896Y-13173984D02*
X16787801Y-13173984D01*
X16787801Y-13173984D02*
X16768753Y-13164460D01*
X16768753Y-13164460D02*
X16759230Y-13145412D01*
X16759230Y-13145412D02*
X16759230Y-13069222D01*
X16759230Y-13069222D02*
X16768753Y-13050174D01*
X16768753Y-13050174D02*
X16787801Y-13040650D01*
X16787801Y-13040650D02*
X16825896Y-13040650D01*
X16825896Y-13040650D02*
X16844944Y-13050174D01*
X16844944Y-13050174D02*
X16854468Y-13069222D01*
X16854468Y-13069222D02*
X16854468Y-13088269D01*
X16854468Y-13088269D02*
X16759230Y-13107317D01*
X16930658Y-13164460D02*
X16949706Y-13173984D01*
X16949706Y-13173984D02*
X16987801Y-13173984D01*
X16987801Y-13173984D02*
X17006849Y-13164460D01*
X17006849Y-13164460D02*
X17016373Y-13145412D01*
X17016373Y-13145412D02*
X17016373Y-13135888D01*
X17016373Y-13135888D02*
X17006849Y-13116841D01*
X17006849Y-13116841D02*
X16987801Y-13107317D01*
X16987801Y-13107317D02*
X16959230Y-13107317D01*
X16959230Y-13107317D02*
X16940182Y-13097793D01*
X16940182Y-13097793D02*
X16930658Y-13078746D01*
X16930658Y-13078746D02*
X16930658Y-13069222D01*
X16930658Y-13069222D02*
X16940182Y-13050174D01*
X16940182Y-13050174D02*
X16959230Y-13040650D01*
X16959230Y-13040650D02*
X16987801Y-13040650D01*
X16987801Y-13040650D02*
X17006849Y-13050174D01*
X17083039Y-13250174D02*
X17092563Y-13240650D01*
X17092563Y-13240650D02*
X17111611Y-13212079D01*
X17111611Y-13212079D02*
X17121134Y-13193031D01*
X17121134Y-13193031D02*
X17130658Y-13164460D01*
X17130658Y-13164460D02*
X17140182Y-13116841D01*
X17140182Y-13116841D02*
X17140182Y-13078746D01*
X17140182Y-13078746D02*
X17130658Y-13031127D01*
X17130658Y-13031127D02*
X17121134Y-13002555D01*
X17121134Y-13002555D02*
X17111611Y-12983508D01*
X17111611Y-12983508D02*
X17092563Y-12954936D01*
X17092563Y-12954936D02*
X17083039Y-12945412D01*
X17444944Y-13250174D02*
X17435420Y-13240650D01*
X17435420Y-13240650D02*
X17416373Y-13212079D01*
X17416373Y-13212079D02*
X17406849Y-13193031D01*
X17406849Y-13193031D02*
X17397325Y-13164460D01*
X17397325Y-13164460D02*
X17387801Y-13116841D01*
X17387801Y-13116841D02*
X17387801Y-13078746D01*
X17387801Y-13078746D02*
X17397325Y-13031127D01*
X17397325Y-13031127D02*
X17406849Y-13002555D01*
X17406849Y-13002555D02*
X17416373Y-12983508D01*
X17416373Y-12983508D02*
X17435420Y-12954936D01*
X17435420Y-12954936D02*
X17444944Y-12945412D01*
X17521134Y-13040650D02*
X17521134Y-13173984D01*
X17521134Y-13059698D02*
X17530658Y-13050174D01*
X17530658Y-13050174D02*
X17549706Y-13040650D01*
X17549706Y-13040650D02*
X17578277Y-13040650D01*
X17578277Y-13040650D02*
X17597325Y-13050174D01*
X17597325Y-13050174D02*
X17606849Y-13069222D01*
X17606849Y-13069222D02*
X17606849Y-13173984D01*
X17730658Y-13173984D02*
X17711611Y-13164460D01*
X17711611Y-13164460D02*
X17702087Y-13154936D01*
X17702087Y-13154936D02*
X17692563Y-13135888D01*
X17692563Y-13135888D02*
X17692563Y-13078746D01*
X17692563Y-13078746D02*
X17702087Y-13059698D01*
X17702087Y-13059698D02*
X17711611Y-13050174D01*
X17711611Y-13050174D02*
X17730658Y-13040650D01*
X17730658Y-13040650D02*
X17759230Y-13040650D01*
X17759230Y-13040650D02*
X17778277Y-13050174D01*
X17778277Y-13050174D02*
X17787801Y-13059698D01*
X17787801Y-13059698D02*
X17797325Y-13078746D01*
X17797325Y-13078746D02*
X17797325Y-13135888D01*
X17797325Y-13135888D02*
X17787801Y-13154936D01*
X17787801Y-13154936D02*
X17778277Y-13164460D01*
X17778277Y-13164460D02*
X17759230Y-13173984D01*
X17759230Y-13173984D02*
X17730658Y-13173984D01*
X17854468Y-13040650D02*
X17930658Y-13040650D01*
X17883039Y-12973984D02*
X17883039Y-13145412D01*
X17883039Y-13145412D02*
X17892563Y-13164460D01*
X17892563Y-13164460D02*
X17911611Y-13173984D01*
X17911611Y-13173984D02*
X17930658Y-13173984D01*
X18149706Y-13040650D02*
X18149706Y-13240650D01*
X18149706Y-13050174D02*
X18168754Y-13040650D01*
X18168754Y-13040650D02*
X18206849Y-13040650D01*
X18206849Y-13040650D02*
X18225896Y-13050174D01*
X18225896Y-13050174D02*
X18235420Y-13059698D01*
X18235420Y-13059698D02*
X18244944Y-13078746D01*
X18244944Y-13078746D02*
X18244944Y-13135888D01*
X18244944Y-13135888D02*
X18235420Y-13154936D01*
X18235420Y-13154936D02*
X18225896Y-13164460D01*
X18225896Y-13164460D02*
X18206849Y-13173984D01*
X18206849Y-13173984D02*
X18168754Y-13173984D01*
X18168754Y-13173984D02*
X18149706Y-13164460D01*
X18359230Y-13173984D02*
X18340182Y-13164460D01*
X18340182Y-13164460D02*
X18330658Y-13145412D01*
X18330658Y-13145412D02*
X18330658Y-12973984D01*
X18521135Y-13173984D02*
X18521135Y-13069222D01*
X18521135Y-13069222D02*
X18511611Y-13050174D01*
X18511611Y-13050174D02*
X18492563Y-13040650D01*
X18492563Y-13040650D02*
X18454468Y-13040650D01*
X18454468Y-13040650D02*
X18435420Y-13050174D01*
X18521135Y-13164460D02*
X18502087Y-13173984D01*
X18502087Y-13173984D02*
X18454468Y-13173984D01*
X18454468Y-13173984D02*
X18435420Y-13164460D01*
X18435420Y-13164460D02*
X18425896Y-13145412D01*
X18425896Y-13145412D02*
X18425896Y-13126365D01*
X18425896Y-13126365D02*
X18435420Y-13107317D01*
X18435420Y-13107317D02*
X18454468Y-13097793D01*
X18454468Y-13097793D02*
X18502087Y-13097793D01*
X18502087Y-13097793D02*
X18521135Y-13088269D01*
X18587801Y-13040650D02*
X18663992Y-13040650D01*
X18616373Y-12973984D02*
X18616373Y-13145412D01*
X18616373Y-13145412D02*
X18625896Y-13164460D01*
X18625896Y-13164460D02*
X18644944Y-13173984D01*
X18644944Y-13173984D02*
X18663992Y-13173984D01*
X18806849Y-13164460D02*
X18787801Y-13173984D01*
X18787801Y-13173984D02*
X18749706Y-13173984D01*
X18749706Y-13173984D02*
X18730658Y-13164460D01*
X18730658Y-13164460D02*
X18721135Y-13145412D01*
X18721135Y-13145412D02*
X18721135Y-13069222D01*
X18721135Y-13069222D02*
X18730658Y-13050174D01*
X18730658Y-13050174D02*
X18749706Y-13040650D01*
X18749706Y-13040650D02*
X18787801Y-13040650D01*
X18787801Y-13040650D02*
X18806849Y-13050174D01*
X18806849Y-13050174D02*
X18816373Y-13069222D01*
X18816373Y-13069222D02*
X18816373Y-13088269D01*
X18816373Y-13088269D02*
X18721135Y-13107317D01*
X18987801Y-13173984D02*
X18987801Y-12973984D01*
X18987801Y-13164460D02*
X18968754Y-13173984D01*
X18968754Y-13173984D02*
X18930658Y-13173984D01*
X18930658Y-13173984D02*
X18911611Y-13164460D01*
X18911611Y-13164460D02*
X18902087Y-13154936D01*
X18902087Y-13154936D02*
X18892563Y-13135888D01*
X18892563Y-13135888D02*
X18892563Y-13078746D01*
X18892563Y-13078746D02*
X18902087Y-13059698D01*
X18902087Y-13059698D02*
X18911611Y-13050174D01*
X18911611Y-13050174D02*
X18930658Y-13040650D01*
X18930658Y-13040650D02*
X18968754Y-13040650D01*
X18968754Y-13040650D02*
X18987801Y-13050174D01*
X19063992Y-13250174D02*
X19073516Y-13240650D01*
X19073516Y-13240650D02*
X19092563Y-13212079D01*
X19092563Y-13212079D02*
X19102087Y-13193031D01*
X19102087Y-13193031D02*
X19111611Y-13164460D01*
X19111611Y-13164460D02*
X19121135Y-13116841D01*
X19121135Y-13116841D02*
X19121135Y-13078746D01*
X19121135Y-13078746D02*
X19111611Y-13031127D01*
X19111611Y-13031127D02*
X19102087Y-13002555D01*
X19102087Y-13002555D02*
X19092563Y-12983508D01*
X19092563Y-12983508D02*
X19073516Y-12954936D01*
X19073516Y-12954936D02*
X19063992Y-12945412D01*
D12*
X12117500Y-13346500D02*
G75*
G02*
X12052500Y-13346500I-32500J0D01*
G01*
X12052500Y-13346500D02*
G75*
G02*
X12117500Y-13346500I32500J0D01*
G01*
D11*
X12416372Y-13237984D02*
X12435420Y-13237984D01*
X12435420Y-13237984D02*
X12454467Y-13247508D01*
X12454467Y-13247508D02*
X12463991Y-13257031D01*
X12463991Y-13257031D02*
X12473515Y-13276079D01*
X12473515Y-13276079D02*
X12483039Y-13314174D01*
X12483039Y-13314174D02*
X12483039Y-13361793D01*
X12483039Y-13361793D02*
X12473515Y-13399888D01*
X12473515Y-13399888D02*
X12463991Y-13418936D01*
X12463991Y-13418936D02*
X12454467Y-13428460D01*
X12454467Y-13428460D02*
X12435420Y-13437984D01*
X12435420Y-13437984D02*
X12416372Y-13437984D01*
X12416372Y-13437984D02*
X12397324Y-13428460D01*
X12397324Y-13428460D02*
X12387801Y-13418936D01*
X12387801Y-13418936D02*
X12378277Y-13399888D01*
X12378277Y-13399888D02*
X12368753Y-13361793D01*
X12368753Y-13361793D02*
X12368753Y-13314174D01*
X12368753Y-13314174D02*
X12378277Y-13276079D01*
X12378277Y-13276079D02*
X12387801Y-13257031D01*
X12387801Y-13257031D02*
X12397324Y-13247508D01*
X12397324Y-13247508D02*
X12416372Y-13237984D01*
X12568753Y-13418936D02*
X12578277Y-13428460D01*
X12578277Y-13428460D02*
X12568753Y-13437984D01*
X12568753Y-13437984D02*
X12559229Y-13428460D01*
X12559229Y-13428460D02*
X12568753Y-13418936D01*
X12568753Y-13418936D02*
X12568753Y-13437984D01*
X12749705Y-13237984D02*
X12711610Y-13237984D01*
X12711610Y-13237984D02*
X12692562Y-13247508D01*
X12692562Y-13247508D02*
X12683039Y-13257031D01*
X12683039Y-13257031D02*
X12663991Y-13285603D01*
X12663991Y-13285603D02*
X12654467Y-13323698D01*
X12654467Y-13323698D02*
X12654467Y-13399888D01*
X12654467Y-13399888D02*
X12663991Y-13418936D01*
X12663991Y-13418936D02*
X12673515Y-13428460D01*
X12673515Y-13428460D02*
X12692562Y-13437984D01*
X12692562Y-13437984D02*
X12730658Y-13437984D01*
X12730658Y-13437984D02*
X12749705Y-13428460D01*
X12749705Y-13428460D02*
X12759229Y-13418936D01*
X12759229Y-13418936D02*
X12768753Y-13399888D01*
X12768753Y-13399888D02*
X12768753Y-13352269D01*
X12768753Y-13352269D02*
X12759229Y-13333222D01*
X12759229Y-13333222D02*
X12749705Y-13323698D01*
X12749705Y-13323698D02*
X12730658Y-13314174D01*
X12730658Y-13314174D02*
X12692562Y-13314174D01*
X12692562Y-13314174D02*
X12673515Y-13323698D01*
X12673515Y-13323698D02*
X12663991Y-13333222D01*
X12663991Y-13333222D02*
X12654467Y-13352269D01*
X12949705Y-13237984D02*
X12854467Y-13237984D01*
X12854467Y-13237984D02*
X12844943Y-13333222D01*
X12844943Y-13333222D02*
X12854467Y-13323698D01*
X12854467Y-13323698D02*
X12873515Y-13314174D01*
X12873515Y-13314174D02*
X12921134Y-13314174D01*
X12921134Y-13314174D02*
X12940182Y-13323698D01*
X12940182Y-13323698D02*
X12949705Y-13333222D01*
X12949705Y-13333222D02*
X12959229Y-13352269D01*
X12959229Y-13352269D02*
X12959229Y-13399888D01*
X12959229Y-13399888D02*
X12949705Y-13418936D01*
X12949705Y-13418936D02*
X12940182Y-13428460D01*
X12940182Y-13428460D02*
X12921134Y-13437984D01*
X12921134Y-13437984D02*
X12873515Y-13437984D01*
X12873515Y-13437984D02*
X12854467Y-13428460D01*
X12854467Y-13428460D02*
X12844943Y-13418936D01*
X13083039Y-13237984D02*
X13102086Y-13237984D01*
X13102086Y-13237984D02*
X13121134Y-13247508D01*
X13121134Y-13247508D02*
X13130658Y-13257031D01*
X13130658Y-13257031D02*
X13140182Y-13276079D01*
X13140182Y-13276079D02*
X13149705Y-13314174D01*
X13149705Y-13314174D02*
X13149705Y-13361793D01*
X13149705Y-13361793D02*
X13140182Y-13399888D01*
X13140182Y-13399888D02*
X13130658Y-13418936D01*
X13130658Y-13418936D02*
X13121134Y-13428460D01*
X13121134Y-13428460D02*
X13102086Y-13437984D01*
X13102086Y-13437984D02*
X13083039Y-13437984D01*
X13083039Y-13437984D02*
X13063991Y-13428460D01*
X13063991Y-13428460D02*
X13054467Y-13418936D01*
X13054467Y-13418936D02*
X13044943Y-13399888D01*
X13044943Y-13399888D02*
X13035420Y-13361793D01*
X13035420Y-13361793D02*
X13035420Y-13314174D01*
X13035420Y-13314174D02*
X13044943Y-13276079D01*
X13044943Y-13276079D02*
X13054467Y-13257031D01*
X13054467Y-13257031D02*
X13063991Y-13247508D01*
X13063991Y-13247508D02*
X13083039Y-13237984D01*
X13235420Y-13437984D02*
X13235420Y-13304650D01*
X13235420Y-13323698D02*
X13244943Y-13314174D01*
X13244943Y-13314174D02*
X13263991Y-13304650D01*
X13263991Y-13304650D02*
X13292563Y-13304650D01*
X13292563Y-13304650D02*
X13311610Y-13314174D01*
X13311610Y-13314174D02*
X13321134Y-13333222D01*
X13321134Y-13333222D02*
X13321134Y-13437984D01*
X13321134Y-13333222D02*
X13330658Y-13314174D01*
X13330658Y-13314174D02*
X13349705Y-13304650D01*
X13349705Y-13304650D02*
X13378277Y-13304650D01*
X13378277Y-13304650D02*
X13397324Y-13314174D01*
X13397324Y-13314174D02*
X13406848Y-13333222D01*
X13406848Y-13333222D02*
X13406848Y-13437984D01*
X13502086Y-13437984D02*
X13502086Y-13304650D01*
X13502086Y-13323698D02*
X13511610Y-13314174D01*
X13511610Y-13314174D02*
X13530658Y-13304650D01*
X13530658Y-13304650D02*
X13559229Y-13304650D01*
X13559229Y-13304650D02*
X13578277Y-13314174D01*
X13578277Y-13314174D02*
X13587801Y-13333222D01*
X13587801Y-13333222D02*
X13587801Y-13437984D01*
X13587801Y-13333222D02*
X13597324Y-13314174D01*
X13597324Y-13314174D02*
X13616372Y-13304650D01*
X13616372Y-13304650D02*
X13644943Y-13304650D01*
X13644943Y-13304650D02*
X13663991Y-13314174D01*
X13663991Y-13314174D02*
X13673515Y-13333222D01*
X13673515Y-13333222D02*
X13673515Y-13437984D01*
X14063991Y-13228460D02*
X13892563Y-13485603D01*
X14321134Y-13237984D02*
X14340182Y-13237984D01*
X14340182Y-13237984D02*
X14359229Y-13247508D01*
X14359229Y-13247508D02*
X14368753Y-13257031D01*
X14368753Y-13257031D02*
X14378277Y-13276079D01*
X14378277Y-13276079D02*
X14387801Y-13314174D01*
X14387801Y-13314174D02*
X14387801Y-13361793D01*
X14387801Y-13361793D02*
X14378277Y-13399888D01*
X14378277Y-13399888D02*
X14368753Y-13418936D01*
X14368753Y-13418936D02*
X14359229Y-13428460D01*
X14359229Y-13428460D02*
X14340182Y-13437984D01*
X14340182Y-13437984D02*
X14321134Y-13437984D01*
X14321134Y-13437984D02*
X14302086Y-13428460D01*
X14302086Y-13428460D02*
X14292563Y-13418936D01*
X14292563Y-13418936D02*
X14283039Y-13399888D01*
X14283039Y-13399888D02*
X14273515Y-13361793D01*
X14273515Y-13361793D02*
X14273515Y-13314174D01*
X14273515Y-13314174D02*
X14283039Y-13276079D01*
X14283039Y-13276079D02*
X14292563Y-13257031D01*
X14292563Y-13257031D02*
X14302086Y-13247508D01*
X14302086Y-13247508D02*
X14321134Y-13237984D01*
X14473515Y-13418936D02*
X14483039Y-13428460D01*
X14483039Y-13428460D02*
X14473515Y-13437984D01*
X14473515Y-13437984D02*
X14463991Y-13428460D01*
X14463991Y-13428460D02*
X14473515Y-13418936D01*
X14473515Y-13418936D02*
X14473515Y-13437984D01*
X14606848Y-13237984D02*
X14625896Y-13237984D01*
X14625896Y-13237984D02*
X14644944Y-13247508D01*
X14644944Y-13247508D02*
X14654467Y-13257031D01*
X14654467Y-13257031D02*
X14663991Y-13276079D01*
X14663991Y-13276079D02*
X14673515Y-13314174D01*
X14673515Y-13314174D02*
X14673515Y-13361793D01*
X14673515Y-13361793D02*
X14663991Y-13399888D01*
X14663991Y-13399888D02*
X14654467Y-13418936D01*
X14654467Y-13418936D02*
X14644944Y-13428460D01*
X14644944Y-13428460D02*
X14625896Y-13437984D01*
X14625896Y-13437984D02*
X14606848Y-13437984D01*
X14606848Y-13437984D02*
X14587801Y-13428460D01*
X14587801Y-13428460D02*
X14578277Y-13418936D01*
X14578277Y-13418936D02*
X14568753Y-13399888D01*
X14568753Y-13399888D02*
X14559229Y-13361793D01*
X14559229Y-13361793D02*
X14559229Y-13314174D01*
X14559229Y-13314174D02*
X14568753Y-13276079D01*
X14568753Y-13276079D02*
X14578277Y-13257031D01*
X14578277Y-13257031D02*
X14587801Y-13247508D01*
X14587801Y-13247508D02*
X14606848Y-13237984D01*
X14749706Y-13257031D02*
X14759229Y-13247508D01*
X14759229Y-13247508D02*
X14778277Y-13237984D01*
X14778277Y-13237984D02*
X14825896Y-13237984D01*
X14825896Y-13237984D02*
X14844944Y-13247508D01*
X14844944Y-13247508D02*
X14854467Y-13257031D01*
X14854467Y-13257031D02*
X14863991Y-13276079D01*
X14863991Y-13276079D02*
X14863991Y-13295127D01*
X14863991Y-13295127D02*
X14854467Y-13323698D01*
X14854467Y-13323698D02*
X14740182Y-13437984D01*
X14740182Y-13437984D02*
X14863991Y-13437984D01*
X15044944Y-13237984D02*
X14949706Y-13237984D01*
X14949706Y-13237984D02*
X14940182Y-13333222D01*
X14940182Y-13333222D02*
X14949706Y-13323698D01*
X14949706Y-13323698D02*
X14968753Y-13314174D01*
X14968753Y-13314174D02*
X15016372Y-13314174D01*
X15016372Y-13314174D02*
X15035420Y-13323698D01*
X15035420Y-13323698D02*
X15044944Y-13333222D01*
X15044944Y-13333222D02*
X15054467Y-13352269D01*
X15054467Y-13352269D02*
X15054467Y-13399888D01*
X15054467Y-13399888D02*
X15044944Y-13418936D01*
X15044944Y-13418936D02*
X15035420Y-13428460D01*
X15035420Y-13428460D02*
X15016372Y-13437984D01*
X15016372Y-13437984D02*
X14968753Y-13437984D01*
X14968753Y-13437984D02*
X14949706Y-13428460D01*
X14949706Y-13428460D02*
X14940182Y-13418936D01*
X15225896Y-13237984D02*
X15187801Y-13237984D01*
X15187801Y-13237984D02*
X15168753Y-13247508D01*
X15168753Y-13247508D02*
X15159229Y-13257031D01*
X15159229Y-13257031D02*
X15140182Y-13285603D01*
X15140182Y-13285603D02*
X15130658Y-13323698D01*
X15130658Y-13323698D02*
X15130658Y-13399888D01*
X15130658Y-13399888D02*
X15140182Y-13418936D01*
X15140182Y-13418936D02*
X15149706Y-13428460D01*
X15149706Y-13428460D02*
X15168753Y-13437984D01*
X15168753Y-13437984D02*
X15206848Y-13437984D01*
X15206848Y-13437984D02*
X15225896Y-13428460D01*
X15225896Y-13428460D02*
X15235420Y-13418936D01*
X15235420Y-13418936D02*
X15244944Y-13399888D01*
X15244944Y-13399888D02*
X15244944Y-13352269D01*
X15244944Y-13352269D02*
X15235420Y-13333222D01*
X15235420Y-13333222D02*
X15225896Y-13323698D01*
X15225896Y-13323698D02*
X15206848Y-13314174D01*
X15206848Y-13314174D02*
X15168753Y-13314174D01*
X15168753Y-13314174D02*
X15149706Y-13323698D01*
X15149706Y-13323698D02*
X15140182Y-13333222D01*
X15140182Y-13333222D02*
X15130658Y-13352269D01*
X15321134Y-13237984D02*
X15321134Y-13276079D01*
X15397325Y-13237984D02*
X15397325Y-13276079D01*
X15692563Y-13514174D02*
X15683039Y-13504650D01*
X15683039Y-13504650D02*
X15663991Y-13476079D01*
X15663991Y-13476079D02*
X15654468Y-13457031D01*
X15654468Y-13457031D02*
X15644944Y-13428460D01*
X15644944Y-13428460D02*
X15635420Y-13380841D01*
X15635420Y-13380841D02*
X15635420Y-13342746D01*
X15635420Y-13342746D02*
X15644944Y-13295127D01*
X15644944Y-13295127D02*
X15654468Y-13266555D01*
X15654468Y-13266555D02*
X15663991Y-13247508D01*
X15663991Y-13247508D02*
X15683039Y-13218936D01*
X15683039Y-13218936D02*
X15692563Y-13209412D01*
X15759229Y-13257031D02*
X15768753Y-13247508D01*
X15768753Y-13247508D02*
X15787801Y-13237984D01*
X15787801Y-13237984D02*
X15835420Y-13237984D01*
X15835420Y-13237984D02*
X15854468Y-13247508D01*
X15854468Y-13247508D02*
X15863991Y-13257031D01*
X15863991Y-13257031D02*
X15873515Y-13276079D01*
X15873515Y-13276079D02*
X15873515Y-13295127D01*
X15873515Y-13295127D02*
X15863991Y-13323698D01*
X15863991Y-13323698D02*
X15749706Y-13437984D01*
X15749706Y-13437984D02*
X15873515Y-13437984D01*
X16111610Y-13437984D02*
X16111610Y-13237984D01*
X16197325Y-13437984D02*
X16197325Y-13333222D01*
X16197325Y-13333222D02*
X16187801Y-13314174D01*
X16187801Y-13314174D02*
X16168753Y-13304650D01*
X16168753Y-13304650D02*
X16140182Y-13304650D01*
X16140182Y-13304650D02*
X16121134Y-13314174D01*
X16121134Y-13314174D02*
X16111610Y-13323698D01*
X16321134Y-13437984D02*
X16302087Y-13428460D01*
X16302087Y-13428460D02*
X16292563Y-13418936D01*
X16292563Y-13418936D02*
X16283039Y-13399888D01*
X16283039Y-13399888D02*
X16283039Y-13342746D01*
X16283039Y-13342746D02*
X16292563Y-13323698D01*
X16292563Y-13323698D02*
X16302087Y-13314174D01*
X16302087Y-13314174D02*
X16321134Y-13304650D01*
X16321134Y-13304650D02*
X16349706Y-13304650D01*
X16349706Y-13304650D02*
X16368753Y-13314174D01*
X16368753Y-13314174D02*
X16378277Y-13323698D01*
X16378277Y-13323698D02*
X16387801Y-13342746D01*
X16387801Y-13342746D02*
X16387801Y-13399888D01*
X16387801Y-13399888D02*
X16378277Y-13418936D01*
X16378277Y-13418936D02*
X16368753Y-13428460D01*
X16368753Y-13428460D02*
X16349706Y-13437984D01*
X16349706Y-13437984D02*
X16321134Y-13437984D01*
X16502087Y-13437984D02*
X16483039Y-13428460D01*
X16483039Y-13428460D02*
X16473515Y-13409412D01*
X16473515Y-13409412D02*
X16473515Y-13237984D01*
X16654468Y-13428460D02*
X16635420Y-13437984D01*
X16635420Y-13437984D02*
X16597325Y-13437984D01*
X16597325Y-13437984D02*
X16578277Y-13428460D01*
X16578277Y-13428460D02*
X16568753Y-13409412D01*
X16568753Y-13409412D02*
X16568753Y-13333222D01*
X16568753Y-13333222D02*
X16578277Y-13314174D01*
X16578277Y-13314174D02*
X16597325Y-13304650D01*
X16597325Y-13304650D02*
X16635420Y-13304650D01*
X16635420Y-13304650D02*
X16654468Y-13314174D01*
X16654468Y-13314174D02*
X16663991Y-13333222D01*
X16663991Y-13333222D02*
X16663991Y-13352269D01*
X16663991Y-13352269D02*
X16568753Y-13371317D01*
X16740182Y-13428460D02*
X16759230Y-13437984D01*
X16759230Y-13437984D02*
X16797325Y-13437984D01*
X16797325Y-13437984D02*
X16816373Y-13428460D01*
X16816373Y-13428460D02*
X16825896Y-13409412D01*
X16825896Y-13409412D02*
X16825896Y-13399888D01*
X16825896Y-13399888D02*
X16816373Y-13380841D01*
X16816373Y-13380841D02*
X16797325Y-13371317D01*
X16797325Y-13371317D02*
X16768753Y-13371317D01*
X16768753Y-13371317D02*
X16749706Y-13361793D01*
X16749706Y-13361793D02*
X16740182Y-13342746D01*
X16740182Y-13342746D02*
X16740182Y-13333222D01*
X16740182Y-13333222D02*
X16749706Y-13314174D01*
X16749706Y-13314174D02*
X16768753Y-13304650D01*
X16768753Y-13304650D02*
X16797325Y-13304650D01*
X16797325Y-13304650D02*
X16816373Y-13314174D01*
X16892563Y-13514174D02*
X16902087Y-13504650D01*
X16902087Y-13504650D02*
X16921134Y-13476079D01*
X16921134Y-13476079D02*
X16930658Y-13457031D01*
X16930658Y-13457031D02*
X16940182Y-13428460D01*
X16940182Y-13428460D02*
X16949706Y-13380841D01*
X16949706Y-13380841D02*
X16949706Y-13342746D01*
X16949706Y-13342746D02*
X16940182Y-13295127D01*
X16940182Y-13295127D02*
X16930658Y-13266555D01*
X16930658Y-13266555D02*
X16921134Y-13247508D01*
X16921134Y-13247508D02*
X16902087Y-13218936D01*
X16902087Y-13218936D02*
X16892563Y-13209412D01*
X17254468Y-13514174D02*
X17244944Y-13504650D01*
X17244944Y-13504650D02*
X17225896Y-13476079D01*
X17225896Y-13476079D02*
X17216373Y-13457031D01*
X17216373Y-13457031D02*
X17206849Y-13428460D01*
X17206849Y-13428460D02*
X17197325Y-13380841D01*
X17197325Y-13380841D02*
X17197325Y-13342746D01*
X17197325Y-13342746D02*
X17206849Y-13295127D01*
X17206849Y-13295127D02*
X17216373Y-13266555D01*
X17216373Y-13266555D02*
X17225896Y-13247508D01*
X17225896Y-13247508D02*
X17244944Y-13218936D01*
X17244944Y-13218936D02*
X17254468Y-13209412D01*
X17330658Y-13304650D02*
X17330658Y-13437984D01*
X17330658Y-13323698D02*
X17340182Y-13314174D01*
X17340182Y-13314174D02*
X17359230Y-13304650D01*
X17359230Y-13304650D02*
X17387801Y-13304650D01*
X17387801Y-13304650D02*
X17406849Y-13314174D01*
X17406849Y-13314174D02*
X17416373Y-13333222D01*
X17416373Y-13333222D02*
X17416373Y-13437984D01*
X17540182Y-13437984D02*
X17521134Y-13428460D01*
X17521134Y-13428460D02*
X17511611Y-13418936D01*
X17511611Y-13418936D02*
X17502087Y-13399888D01*
X17502087Y-13399888D02*
X17502087Y-13342746D01*
X17502087Y-13342746D02*
X17511611Y-13323698D01*
X17511611Y-13323698D02*
X17521134Y-13314174D01*
X17521134Y-13314174D02*
X17540182Y-13304650D01*
X17540182Y-13304650D02*
X17568754Y-13304650D01*
X17568754Y-13304650D02*
X17587801Y-13314174D01*
X17587801Y-13314174D02*
X17597325Y-13323698D01*
X17597325Y-13323698D02*
X17606849Y-13342746D01*
X17606849Y-13342746D02*
X17606849Y-13399888D01*
X17606849Y-13399888D02*
X17597325Y-13418936D01*
X17597325Y-13418936D02*
X17587801Y-13428460D01*
X17587801Y-13428460D02*
X17568754Y-13437984D01*
X17568754Y-13437984D02*
X17540182Y-13437984D01*
X17663992Y-13304650D02*
X17740182Y-13304650D01*
X17692563Y-13237984D02*
X17692563Y-13409412D01*
X17692563Y-13409412D02*
X17702087Y-13428460D01*
X17702087Y-13428460D02*
X17721134Y-13437984D01*
X17721134Y-13437984D02*
X17740182Y-13437984D01*
X17959230Y-13304650D02*
X17959230Y-13504650D01*
X17959230Y-13314174D02*
X17978277Y-13304650D01*
X17978277Y-13304650D02*
X18016373Y-13304650D01*
X18016373Y-13304650D02*
X18035420Y-13314174D01*
X18035420Y-13314174D02*
X18044944Y-13323698D01*
X18044944Y-13323698D02*
X18054468Y-13342746D01*
X18054468Y-13342746D02*
X18054468Y-13399888D01*
X18054468Y-13399888D02*
X18044944Y-13418936D01*
X18044944Y-13418936D02*
X18035420Y-13428460D01*
X18035420Y-13428460D02*
X18016373Y-13437984D01*
X18016373Y-13437984D02*
X17978277Y-13437984D01*
X17978277Y-13437984D02*
X17959230Y-13428460D01*
X18168754Y-13437984D02*
X18149706Y-13428460D01*
X18149706Y-13428460D02*
X18140182Y-13409412D01*
X18140182Y-13409412D02*
X18140182Y-13237984D01*
X18330658Y-13437984D02*
X18330658Y-13333222D01*
X18330658Y-13333222D02*
X18321135Y-13314174D01*
X18321135Y-13314174D02*
X18302087Y-13304650D01*
X18302087Y-13304650D02*
X18263992Y-13304650D01*
X18263992Y-13304650D02*
X18244944Y-13314174D01*
X18330658Y-13428460D02*
X18311611Y-13437984D01*
X18311611Y-13437984D02*
X18263992Y-13437984D01*
X18263992Y-13437984D02*
X18244944Y-13428460D01*
X18244944Y-13428460D02*
X18235420Y-13409412D01*
X18235420Y-13409412D02*
X18235420Y-13390365D01*
X18235420Y-13390365D02*
X18244944Y-13371317D01*
X18244944Y-13371317D02*
X18263992Y-13361793D01*
X18263992Y-13361793D02*
X18311611Y-13361793D01*
X18311611Y-13361793D02*
X18330658Y-13352269D01*
X18397325Y-13304650D02*
X18473515Y-13304650D01*
X18425896Y-13237984D02*
X18425896Y-13409412D01*
X18425896Y-13409412D02*
X18435420Y-13428460D01*
X18435420Y-13428460D02*
X18454468Y-13437984D01*
X18454468Y-13437984D02*
X18473515Y-13437984D01*
X18616373Y-13428460D02*
X18597325Y-13437984D01*
X18597325Y-13437984D02*
X18559230Y-13437984D01*
X18559230Y-13437984D02*
X18540182Y-13428460D01*
X18540182Y-13428460D02*
X18530658Y-13409412D01*
X18530658Y-13409412D02*
X18530658Y-13333222D01*
X18530658Y-13333222D02*
X18540182Y-13314174D01*
X18540182Y-13314174D02*
X18559230Y-13304650D01*
X18559230Y-13304650D02*
X18597325Y-13304650D01*
X18597325Y-13304650D02*
X18616373Y-13314174D01*
X18616373Y-13314174D02*
X18625896Y-13333222D01*
X18625896Y-13333222D02*
X18625896Y-13352269D01*
X18625896Y-13352269D02*
X18530658Y-13371317D01*
X18797325Y-13437984D02*
X18797325Y-13237984D01*
X18797325Y-13428460D02*
X18778277Y-13437984D01*
X18778277Y-13437984D02*
X18740182Y-13437984D01*
X18740182Y-13437984D02*
X18721135Y-13428460D01*
X18721135Y-13428460D02*
X18711611Y-13418936D01*
X18711611Y-13418936D02*
X18702087Y-13399888D01*
X18702087Y-13399888D02*
X18702087Y-13342746D01*
X18702087Y-13342746D02*
X18711611Y-13323698D01*
X18711611Y-13323698D02*
X18721135Y-13314174D01*
X18721135Y-13314174D02*
X18740182Y-13304650D01*
X18740182Y-13304650D02*
X18778277Y-13304650D01*
X18778277Y-13304650D02*
X18797325Y-13314174D01*
X18873516Y-13514174D02*
X18883039Y-13504650D01*
X18883039Y-13504650D02*
X18902087Y-13476079D01*
X18902087Y-13476079D02*
X18911611Y-13457031D01*
X18911611Y-13457031D02*
X18921135Y-13428460D01*
X18921135Y-13428460D02*
X18930658Y-13380841D01*
X18930658Y-13380841D02*
X18930658Y-13342746D01*
X18930658Y-13342746D02*
X18921135Y-13295127D01*
X18921135Y-13295127D02*
X18911611Y-13266555D01*
X18911611Y-13266555D02*
X18902087Y-13247508D01*
X18902087Y-13247508D02*
X18883039Y-13218936D01*
X18883039Y-13218936D02*
X18873516Y-13209412D01*
D13*
X12030000Y-13523000D02*
X12030000Y-13698000D01*
X11942500Y-13610500D02*
X12117500Y-13610500D01*
D11*
X12483039Y-13701984D02*
X12368753Y-13701984D01*
X12425896Y-13701984D02*
X12425896Y-13501984D01*
X12425896Y-13501984D02*
X12406848Y-13530555D01*
X12406848Y-13530555D02*
X12387801Y-13549603D01*
X12387801Y-13549603D02*
X12368753Y-13559127D01*
X12568753Y-13682936D02*
X12578277Y-13692460D01*
X12578277Y-13692460D02*
X12568753Y-13701984D01*
X12568753Y-13701984D02*
X12559229Y-13692460D01*
X12559229Y-13692460D02*
X12568753Y-13682936D01*
X12568753Y-13682936D02*
X12568753Y-13701984D01*
X12644943Y-13501984D02*
X12778277Y-13501984D01*
X12778277Y-13501984D02*
X12692562Y-13701984D01*
X12949705Y-13501984D02*
X12854467Y-13501984D01*
X12854467Y-13501984D02*
X12844943Y-13597222D01*
X12844943Y-13597222D02*
X12854467Y-13587698D01*
X12854467Y-13587698D02*
X12873515Y-13578174D01*
X12873515Y-13578174D02*
X12921134Y-13578174D01*
X12921134Y-13578174D02*
X12940182Y-13587698D01*
X12940182Y-13587698D02*
X12949705Y-13597222D01*
X12949705Y-13597222D02*
X12959229Y-13616269D01*
X12959229Y-13616269D02*
X12959229Y-13663888D01*
X12959229Y-13663888D02*
X12949705Y-13682936D01*
X12949705Y-13682936D02*
X12940182Y-13692460D01*
X12940182Y-13692460D02*
X12921134Y-13701984D01*
X12921134Y-13701984D02*
X12873515Y-13701984D01*
X12873515Y-13701984D02*
X12854467Y-13692460D01*
X12854467Y-13692460D02*
X12844943Y-13682936D01*
X13083039Y-13501984D02*
X13102086Y-13501984D01*
X13102086Y-13501984D02*
X13121134Y-13511508D01*
X13121134Y-13511508D02*
X13130658Y-13521031D01*
X13130658Y-13521031D02*
X13140182Y-13540079D01*
X13140182Y-13540079D02*
X13149705Y-13578174D01*
X13149705Y-13578174D02*
X13149705Y-13625793D01*
X13149705Y-13625793D02*
X13140182Y-13663888D01*
X13140182Y-13663888D02*
X13130658Y-13682936D01*
X13130658Y-13682936D02*
X13121134Y-13692460D01*
X13121134Y-13692460D02*
X13102086Y-13701984D01*
X13102086Y-13701984D02*
X13083039Y-13701984D01*
X13083039Y-13701984D02*
X13063991Y-13692460D01*
X13063991Y-13692460D02*
X13054467Y-13682936D01*
X13054467Y-13682936D02*
X13044943Y-13663888D01*
X13044943Y-13663888D02*
X13035420Y-13625793D01*
X13035420Y-13625793D02*
X13035420Y-13578174D01*
X13035420Y-13578174D02*
X13044943Y-13540079D01*
X13044943Y-13540079D02*
X13054467Y-13521031D01*
X13054467Y-13521031D02*
X13063991Y-13511508D01*
X13063991Y-13511508D02*
X13083039Y-13501984D01*
X13235420Y-13701984D02*
X13235420Y-13568650D01*
X13235420Y-13587698D02*
X13244943Y-13578174D01*
X13244943Y-13578174D02*
X13263991Y-13568650D01*
X13263991Y-13568650D02*
X13292563Y-13568650D01*
X13292563Y-13568650D02*
X13311610Y-13578174D01*
X13311610Y-13578174D02*
X13321134Y-13597222D01*
X13321134Y-13597222D02*
X13321134Y-13701984D01*
X13321134Y-13597222D02*
X13330658Y-13578174D01*
X13330658Y-13578174D02*
X13349705Y-13568650D01*
X13349705Y-13568650D02*
X13378277Y-13568650D01*
X13378277Y-13568650D02*
X13397324Y-13578174D01*
X13397324Y-13578174D02*
X13406848Y-13597222D01*
X13406848Y-13597222D02*
X13406848Y-13701984D01*
X13502086Y-13701984D02*
X13502086Y-13568650D01*
X13502086Y-13587698D02*
X13511610Y-13578174D01*
X13511610Y-13578174D02*
X13530658Y-13568650D01*
X13530658Y-13568650D02*
X13559229Y-13568650D01*
X13559229Y-13568650D02*
X13578277Y-13578174D01*
X13578277Y-13578174D02*
X13587801Y-13597222D01*
X13587801Y-13597222D02*
X13587801Y-13701984D01*
X13587801Y-13597222D02*
X13597324Y-13578174D01*
X13597324Y-13578174D02*
X13616372Y-13568650D01*
X13616372Y-13568650D02*
X13644943Y-13568650D01*
X13644943Y-13568650D02*
X13663991Y-13578174D01*
X13663991Y-13578174D02*
X13673515Y-13597222D01*
X13673515Y-13597222D02*
X13673515Y-13701984D01*
X14063991Y-13492460D02*
X13892563Y-13749603D01*
X14321134Y-13501984D02*
X14340182Y-13501984D01*
X14340182Y-13501984D02*
X14359229Y-13511508D01*
X14359229Y-13511508D02*
X14368753Y-13521031D01*
X14368753Y-13521031D02*
X14378277Y-13540079D01*
X14378277Y-13540079D02*
X14387801Y-13578174D01*
X14387801Y-13578174D02*
X14387801Y-13625793D01*
X14387801Y-13625793D02*
X14378277Y-13663888D01*
X14378277Y-13663888D02*
X14368753Y-13682936D01*
X14368753Y-13682936D02*
X14359229Y-13692460D01*
X14359229Y-13692460D02*
X14340182Y-13701984D01*
X14340182Y-13701984D02*
X14321134Y-13701984D01*
X14321134Y-13701984D02*
X14302086Y-13692460D01*
X14302086Y-13692460D02*
X14292563Y-13682936D01*
X14292563Y-13682936D02*
X14283039Y-13663888D01*
X14283039Y-13663888D02*
X14273515Y-13625793D01*
X14273515Y-13625793D02*
X14273515Y-13578174D01*
X14273515Y-13578174D02*
X14283039Y-13540079D01*
X14283039Y-13540079D02*
X14292563Y-13521031D01*
X14292563Y-13521031D02*
X14302086Y-13511508D01*
X14302086Y-13511508D02*
X14321134Y-13501984D01*
X14473515Y-13682936D02*
X14483039Y-13692460D01*
X14483039Y-13692460D02*
X14473515Y-13701984D01*
X14473515Y-13701984D02*
X14463991Y-13692460D01*
X14463991Y-13692460D02*
X14473515Y-13682936D01*
X14473515Y-13682936D02*
X14473515Y-13701984D01*
X14606848Y-13501984D02*
X14625896Y-13501984D01*
X14625896Y-13501984D02*
X14644944Y-13511508D01*
X14644944Y-13511508D02*
X14654467Y-13521031D01*
X14654467Y-13521031D02*
X14663991Y-13540079D01*
X14663991Y-13540079D02*
X14673515Y-13578174D01*
X14673515Y-13578174D02*
X14673515Y-13625793D01*
X14673515Y-13625793D02*
X14663991Y-13663888D01*
X14663991Y-13663888D02*
X14654467Y-13682936D01*
X14654467Y-13682936D02*
X14644944Y-13692460D01*
X14644944Y-13692460D02*
X14625896Y-13701984D01*
X14625896Y-13701984D02*
X14606848Y-13701984D01*
X14606848Y-13701984D02*
X14587801Y-13692460D01*
X14587801Y-13692460D02*
X14578277Y-13682936D01*
X14578277Y-13682936D02*
X14568753Y-13663888D01*
X14568753Y-13663888D02*
X14559229Y-13625793D01*
X14559229Y-13625793D02*
X14559229Y-13578174D01*
X14559229Y-13578174D02*
X14568753Y-13540079D01*
X14568753Y-13540079D02*
X14578277Y-13521031D01*
X14578277Y-13521031D02*
X14587801Y-13511508D01*
X14587801Y-13511508D02*
X14606848Y-13501984D01*
X14844944Y-13501984D02*
X14806848Y-13501984D01*
X14806848Y-13501984D02*
X14787801Y-13511508D01*
X14787801Y-13511508D02*
X14778277Y-13521031D01*
X14778277Y-13521031D02*
X14759229Y-13549603D01*
X14759229Y-13549603D02*
X14749706Y-13587698D01*
X14749706Y-13587698D02*
X14749706Y-13663888D01*
X14749706Y-13663888D02*
X14759229Y-13682936D01*
X14759229Y-13682936D02*
X14768753Y-13692460D01*
X14768753Y-13692460D02*
X14787801Y-13701984D01*
X14787801Y-13701984D02*
X14825896Y-13701984D01*
X14825896Y-13701984D02*
X14844944Y-13692460D01*
X14844944Y-13692460D02*
X14854467Y-13682936D01*
X14854467Y-13682936D02*
X14863991Y-13663888D01*
X14863991Y-13663888D02*
X14863991Y-13616269D01*
X14863991Y-13616269D02*
X14854467Y-13597222D01*
X14854467Y-13597222D02*
X14844944Y-13587698D01*
X14844944Y-13587698D02*
X14825896Y-13578174D01*
X14825896Y-13578174D02*
X14787801Y-13578174D01*
X14787801Y-13578174D02*
X14768753Y-13587698D01*
X14768753Y-13587698D02*
X14759229Y-13597222D01*
X14759229Y-13597222D02*
X14749706Y-13616269D01*
X14978277Y-13587698D02*
X14959229Y-13578174D01*
X14959229Y-13578174D02*
X14949706Y-13568650D01*
X14949706Y-13568650D02*
X14940182Y-13549603D01*
X14940182Y-13549603D02*
X14940182Y-13540079D01*
X14940182Y-13540079D02*
X14949706Y-13521031D01*
X14949706Y-13521031D02*
X14959229Y-13511508D01*
X14959229Y-13511508D02*
X14978277Y-13501984D01*
X14978277Y-13501984D02*
X15016372Y-13501984D01*
X15016372Y-13501984D02*
X15035420Y-13511508D01*
X15035420Y-13511508D02*
X15044944Y-13521031D01*
X15044944Y-13521031D02*
X15054467Y-13540079D01*
X15054467Y-13540079D02*
X15054467Y-13549603D01*
X15054467Y-13549603D02*
X15044944Y-13568650D01*
X15044944Y-13568650D02*
X15035420Y-13578174D01*
X15035420Y-13578174D02*
X15016372Y-13587698D01*
X15016372Y-13587698D02*
X14978277Y-13587698D01*
X14978277Y-13587698D02*
X14959229Y-13597222D01*
X14959229Y-13597222D02*
X14949706Y-13606746D01*
X14949706Y-13606746D02*
X14940182Y-13625793D01*
X14940182Y-13625793D02*
X14940182Y-13663888D01*
X14940182Y-13663888D02*
X14949706Y-13682936D01*
X14949706Y-13682936D02*
X14959229Y-13692460D01*
X14959229Y-13692460D02*
X14978277Y-13701984D01*
X14978277Y-13701984D02*
X15016372Y-13701984D01*
X15016372Y-13701984D02*
X15035420Y-13692460D01*
X15035420Y-13692460D02*
X15044944Y-13682936D01*
X15044944Y-13682936D02*
X15054467Y-13663888D01*
X15054467Y-13663888D02*
X15054467Y-13625793D01*
X15054467Y-13625793D02*
X15044944Y-13606746D01*
X15044944Y-13606746D02*
X15035420Y-13597222D01*
X15035420Y-13597222D02*
X15016372Y-13587698D01*
X15149706Y-13701984D02*
X15187801Y-13701984D01*
X15187801Y-13701984D02*
X15206848Y-13692460D01*
X15206848Y-13692460D02*
X15216372Y-13682936D01*
X15216372Y-13682936D02*
X15235420Y-13654365D01*
X15235420Y-13654365D02*
X15244944Y-13616269D01*
X15244944Y-13616269D02*
X15244944Y-13540079D01*
X15244944Y-13540079D02*
X15235420Y-13521031D01*
X15235420Y-13521031D02*
X15225896Y-13511508D01*
X15225896Y-13511508D02*
X15206848Y-13501984D01*
X15206848Y-13501984D02*
X15168753Y-13501984D01*
X15168753Y-13501984D02*
X15149706Y-13511508D01*
X15149706Y-13511508D02*
X15140182Y-13521031D01*
X15140182Y-13521031D02*
X15130658Y-13540079D01*
X15130658Y-13540079D02*
X15130658Y-13587698D01*
X15130658Y-13587698D02*
X15140182Y-13606746D01*
X15140182Y-13606746D02*
X15149706Y-13616269D01*
X15149706Y-13616269D02*
X15168753Y-13625793D01*
X15168753Y-13625793D02*
X15206848Y-13625793D01*
X15206848Y-13625793D02*
X15225896Y-13616269D01*
X15225896Y-13616269D02*
X15235420Y-13606746D01*
X15235420Y-13606746D02*
X15244944Y-13587698D01*
X15321134Y-13501984D02*
X15321134Y-13540079D01*
X15397325Y-13501984D02*
X15397325Y-13540079D01*
X15692563Y-13778174D02*
X15683039Y-13768650D01*
X15683039Y-13768650D02*
X15663991Y-13740079D01*
X15663991Y-13740079D02*
X15654468Y-13721031D01*
X15654468Y-13721031D02*
X15644944Y-13692460D01*
X15644944Y-13692460D02*
X15635420Y-13644841D01*
X15635420Y-13644841D02*
X15635420Y-13606746D01*
X15635420Y-13606746D02*
X15644944Y-13559127D01*
X15644944Y-13559127D02*
X15654468Y-13530555D01*
X15654468Y-13530555D02*
X15663991Y-13511508D01*
X15663991Y-13511508D02*
X15683039Y-13482936D01*
X15683039Y-13482936D02*
X15692563Y-13473412D01*
X15873515Y-13701984D02*
X15759229Y-13701984D01*
X15816372Y-13701984D02*
X15816372Y-13501984D01*
X15816372Y-13501984D02*
X15797325Y-13530555D01*
X15797325Y-13530555D02*
X15778277Y-13549603D01*
X15778277Y-13549603D02*
X15759229Y-13559127D01*
X15949706Y-13521031D02*
X15959229Y-13511508D01*
X15959229Y-13511508D02*
X15978277Y-13501984D01*
X15978277Y-13501984D02*
X16025896Y-13501984D01*
X16025896Y-13501984D02*
X16044944Y-13511508D01*
X16044944Y-13511508D02*
X16054468Y-13521031D01*
X16054468Y-13521031D02*
X16063991Y-13540079D01*
X16063991Y-13540079D02*
X16063991Y-13559127D01*
X16063991Y-13559127D02*
X16054468Y-13587698D01*
X16054468Y-13587698D02*
X15940182Y-13701984D01*
X15940182Y-13701984D02*
X16063991Y-13701984D01*
X16302087Y-13701984D02*
X16302087Y-13501984D01*
X16387801Y-13701984D02*
X16387801Y-13597222D01*
X16387801Y-13597222D02*
X16378277Y-13578174D01*
X16378277Y-13578174D02*
X16359230Y-13568650D01*
X16359230Y-13568650D02*
X16330658Y-13568650D01*
X16330658Y-13568650D02*
X16311610Y-13578174D01*
X16311610Y-13578174D02*
X16302087Y-13587698D01*
X16511610Y-13701984D02*
X16492563Y-13692460D01*
X16492563Y-13692460D02*
X16483039Y-13682936D01*
X16483039Y-13682936D02*
X16473515Y-13663888D01*
X16473515Y-13663888D02*
X16473515Y-13606746D01*
X16473515Y-13606746D02*
X16483039Y-13587698D01*
X16483039Y-13587698D02*
X16492563Y-13578174D01*
X16492563Y-13578174D02*
X16511610Y-13568650D01*
X16511610Y-13568650D02*
X16540182Y-13568650D01*
X16540182Y-13568650D02*
X16559230Y-13578174D01*
X16559230Y-13578174D02*
X16568753Y-13587698D01*
X16568753Y-13587698D02*
X16578277Y-13606746D01*
X16578277Y-13606746D02*
X16578277Y-13663888D01*
X16578277Y-13663888D02*
X16568753Y-13682936D01*
X16568753Y-13682936D02*
X16559230Y-13692460D01*
X16559230Y-13692460D02*
X16540182Y-13701984D01*
X16540182Y-13701984D02*
X16511610Y-13701984D01*
X16692563Y-13701984D02*
X16673515Y-13692460D01*
X16673515Y-13692460D02*
X16663991Y-13673412D01*
X16663991Y-13673412D02*
X16663991Y-13501984D01*
X16844944Y-13692460D02*
X16825896Y-13701984D01*
X16825896Y-13701984D02*
X16787801Y-13701984D01*
X16787801Y-13701984D02*
X16768753Y-13692460D01*
X16768753Y-13692460D02*
X16759230Y-13673412D01*
X16759230Y-13673412D02*
X16759230Y-13597222D01*
X16759230Y-13597222D02*
X16768753Y-13578174D01*
X16768753Y-13578174D02*
X16787801Y-13568650D01*
X16787801Y-13568650D02*
X16825896Y-13568650D01*
X16825896Y-13568650D02*
X16844944Y-13578174D01*
X16844944Y-13578174D02*
X16854468Y-13597222D01*
X16854468Y-13597222D02*
X16854468Y-13616269D01*
X16854468Y-13616269D02*
X16759230Y-13635317D01*
X16930658Y-13692460D02*
X16949706Y-13701984D01*
X16949706Y-13701984D02*
X16987801Y-13701984D01*
X16987801Y-13701984D02*
X17006849Y-13692460D01*
X17006849Y-13692460D02*
X17016373Y-13673412D01*
X17016373Y-13673412D02*
X17016373Y-13663888D01*
X17016373Y-13663888D02*
X17006849Y-13644841D01*
X17006849Y-13644841D02*
X16987801Y-13635317D01*
X16987801Y-13635317D02*
X16959230Y-13635317D01*
X16959230Y-13635317D02*
X16940182Y-13625793D01*
X16940182Y-13625793D02*
X16930658Y-13606746D01*
X16930658Y-13606746D02*
X16930658Y-13597222D01*
X16930658Y-13597222D02*
X16940182Y-13578174D01*
X16940182Y-13578174D02*
X16959230Y-13568650D01*
X16959230Y-13568650D02*
X16987801Y-13568650D01*
X16987801Y-13568650D02*
X17006849Y-13578174D01*
X17083039Y-13778174D02*
X17092563Y-13768650D01*
X17092563Y-13768650D02*
X17111611Y-13740079D01*
X17111611Y-13740079D02*
X17121134Y-13721031D01*
X17121134Y-13721031D02*
X17130658Y-13692460D01*
X17130658Y-13692460D02*
X17140182Y-13644841D01*
X17140182Y-13644841D02*
X17140182Y-13606746D01*
X17140182Y-13606746D02*
X17130658Y-13559127D01*
X17130658Y-13559127D02*
X17121134Y-13530555D01*
X17121134Y-13530555D02*
X17111611Y-13511508D01*
X17111611Y-13511508D02*
X17092563Y-13482936D01*
X17092563Y-13482936D02*
X17083039Y-13473412D01*
X17444944Y-13778174D02*
X17435420Y-13768650D01*
X17435420Y-13768650D02*
X17416373Y-13740079D01*
X17416373Y-13740079D02*
X17406849Y-13721031D01*
X17406849Y-13721031D02*
X17397325Y-13692460D01*
X17397325Y-13692460D02*
X17387801Y-13644841D01*
X17387801Y-13644841D02*
X17387801Y-13606746D01*
X17387801Y-13606746D02*
X17397325Y-13559127D01*
X17397325Y-13559127D02*
X17406849Y-13530555D01*
X17406849Y-13530555D02*
X17416373Y-13511508D01*
X17416373Y-13511508D02*
X17435420Y-13482936D01*
X17435420Y-13482936D02*
X17444944Y-13473412D01*
X17521134Y-13568650D02*
X17521134Y-13701984D01*
X17521134Y-13587698D02*
X17530658Y-13578174D01*
X17530658Y-13578174D02*
X17549706Y-13568650D01*
X17549706Y-13568650D02*
X17578277Y-13568650D01*
X17578277Y-13568650D02*
X17597325Y-13578174D01*
X17597325Y-13578174D02*
X17606849Y-13597222D01*
X17606849Y-13597222D02*
X17606849Y-13701984D01*
X17730658Y-13701984D02*
X17711611Y-13692460D01*
X17711611Y-13692460D02*
X17702087Y-13682936D01*
X17702087Y-13682936D02*
X17692563Y-13663888D01*
X17692563Y-13663888D02*
X17692563Y-13606746D01*
X17692563Y-13606746D02*
X17702087Y-13587698D01*
X17702087Y-13587698D02*
X17711611Y-13578174D01*
X17711611Y-13578174D02*
X17730658Y-13568650D01*
X17730658Y-13568650D02*
X17759230Y-13568650D01*
X17759230Y-13568650D02*
X17778277Y-13578174D01*
X17778277Y-13578174D02*
X17787801Y-13587698D01*
X17787801Y-13587698D02*
X17797325Y-13606746D01*
X17797325Y-13606746D02*
X17797325Y-13663888D01*
X17797325Y-13663888D02*
X17787801Y-13682936D01*
X17787801Y-13682936D02*
X17778277Y-13692460D01*
X17778277Y-13692460D02*
X17759230Y-13701984D01*
X17759230Y-13701984D02*
X17730658Y-13701984D01*
X17854468Y-13568650D02*
X17930658Y-13568650D01*
X17883039Y-13501984D02*
X17883039Y-13673412D01*
X17883039Y-13673412D02*
X17892563Y-13692460D01*
X17892563Y-13692460D02*
X17911611Y-13701984D01*
X17911611Y-13701984D02*
X17930658Y-13701984D01*
X18149706Y-13568650D02*
X18149706Y-13768650D01*
X18149706Y-13578174D02*
X18168754Y-13568650D01*
X18168754Y-13568650D02*
X18206849Y-13568650D01*
X18206849Y-13568650D02*
X18225896Y-13578174D01*
X18225896Y-13578174D02*
X18235420Y-13587698D01*
X18235420Y-13587698D02*
X18244944Y-13606746D01*
X18244944Y-13606746D02*
X18244944Y-13663888D01*
X18244944Y-13663888D02*
X18235420Y-13682936D01*
X18235420Y-13682936D02*
X18225896Y-13692460D01*
X18225896Y-13692460D02*
X18206849Y-13701984D01*
X18206849Y-13701984D02*
X18168754Y-13701984D01*
X18168754Y-13701984D02*
X18149706Y-13692460D01*
X18359230Y-13701984D02*
X18340182Y-13692460D01*
X18340182Y-13692460D02*
X18330658Y-13673412D01*
X18330658Y-13673412D02*
X18330658Y-13501984D01*
X18521135Y-13701984D02*
X18521135Y-13597222D01*
X18521135Y-13597222D02*
X18511611Y-13578174D01*
X18511611Y-13578174D02*
X18492563Y-13568650D01*
X18492563Y-13568650D02*
X18454468Y-13568650D01*
X18454468Y-13568650D02*
X18435420Y-13578174D01*
X18521135Y-13692460D02*
X18502087Y-13701984D01*
X18502087Y-13701984D02*
X18454468Y-13701984D01*
X18454468Y-13701984D02*
X18435420Y-13692460D01*
X18435420Y-13692460D02*
X18425896Y-13673412D01*
X18425896Y-13673412D02*
X18425896Y-13654365D01*
X18425896Y-13654365D02*
X18435420Y-13635317D01*
X18435420Y-13635317D02*
X18454468Y-13625793D01*
X18454468Y-13625793D02*
X18502087Y-13625793D01*
X18502087Y-13625793D02*
X18521135Y-13616269D01*
X18587801Y-13568650D02*
X18663992Y-13568650D01*
X18616373Y-13501984D02*
X18616373Y-13673412D01*
X18616373Y-13673412D02*
X18625896Y-13692460D01*
X18625896Y-13692460D02*
X18644944Y-13701984D01*
X18644944Y-13701984D02*
X18663992Y-13701984D01*
X18806849Y-13692460D02*
X18787801Y-13701984D01*
X18787801Y-13701984D02*
X18749706Y-13701984D01*
X18749706Y-13701984D02*
X18730658Y-13692460D01*
X18730658Y-13692460D02*
X18721135Y-13673412D01*
X18721135Y-13673412D02*
X18721135Y-13597222D01*
X18721135Y-13597222D02*
X18730658Y-13578174D01*
X18730658Y-13578174D02*
X18749706Y-13568650D01*
X18749706Y-13568650D02*
X18787801Y-13568650D01*
X18787801Y-13568650D02*
X18806849Y-13578174D01*
X18806849Y-13578174D02*
X18816373Y-13597222D01*
X18816373Y-13597222D02*
X18816373Y-13616269D01*
X18816373Y-13616269D02*
X18721135Y-13635317D01*
X18987801Y-13701984D02*
X18987801Y-13501984D01*
X18987801Y-13692460D02*
X18968754Y-13701984D01*
X18968754Y-13701984D02*
X18930658Y-13701984D01*
X18930658Y-13701984D02*
X18911611Y-13692460D01*
X18911611Y-13692460D02*
X18902087Y-13682936D01*
X18902087Y-13682936D02*
X18892563Y-13663888D01*
X18892563Y-13663888D02*
X18892563Y-13606746D01*
X18892563Y-13606746D02*
X18902087Y-13587698D01*
X18902087Y-13587698D02*
X18911611Y-13578174D01*
X18911611Y-13578174D02*
X18930658Y-13568650D01*
X18930658Y-13568650D02*
X18968754Y-13568650D01*
X18968754Y-13568650D02*
X18987801Y-13578174D01*
X19063992Y-13778174D02*
X19073516Y-13768650D01*
X19073516Y-13768650D02*
X19092563Y-13740079D01*
X19092563Y-13740079D02*
X19102087Y-13721031D01*
X19102087Y-13721031D02*
X19111611Y-13692460D01*
X19111611Y-13692460D02*
X19121135Y-13644841D01*
X19121135Y-13644841D02*
X19121135Y-13606746D01*
X19121135Y-13606746D02*
X19111611Y-13559127D01*
X19111611Y-13559127D02*
X19102087Y-13530555D01*
X19102087Y-13530555D02*
X19092563Y-13511508D01*
X19092563Y-13511508D02*
X19073516Y-13482936D01*
X19073516Y-13482936D02*
X19063992Y-13473412D01*
X12088211Y-13976211D02*
X12088211Y-13834789D01*
X11946789Y-13834789D01*
X11946789Y-13976211D01*
X12088211Y-13976211D01*
X12359229Y-13796984D02*
X12483039Y-13796984D01*
X12483039Y-13796984D02*
X12416372Y-13873174D01*
X12416372Y-13873174D02*
X12444943Y-13873174D01*
X12444943Y-13873174D02*
X12463991Y-13882698D01*
X12463991Y-13882698D02*
X12473515Y-13892222D01*
X12473515Y-13892222D02*
X12483039Y-13911269D01*
X12483039Y-13911269D02*
X12483039Y-13958888D01*
X12483039Y-13958888D02*
X12473515Y-13977936D01*
X12473515Y-13977936D02*
X12463991Y-13987460D01*
X12463991Y-13987460D02*
X12444943Y-13996984D01*
X12444943Y-13996984D02*
X12387801Y-13996984D01*
X12387801Y-13996984D02*
X12368753Y-13987460D01*
X12368753Y-13987460D02*
X12359229Y-13977936D01*
X12568753Y-13977936D02*
X12578277Y-13987460D01*
X12578277Y-13987460D02*
X12568753Y-13996984D01*
X12568753Y-13996984D02*
X12559229Y-13987460D01*
X12559229Y-13987460D02*
X12568753Y-13977936D01*
X12568753Y-13977936D02*
X12568753Y-13996984D01*
X12702086Y-13796984D02*
X12721134Y-13796984D01*
X12721134Y-13796984D02*
X12740182Y-13806508D01*
X12740182Y-13806508D02*
X12749705Y-13816031D01*
X12749705Y-13816031D02*
X12759229Y-13835079D01*
X12759229Y-13835079D02*
X12768753Y-13873174D01*
X12768753Y-13873174D02*
X12768753Y-13920793D01*
X12768753Y-13920793D02*
X12759229Y-13958888D01*
X12759229Y-13958888D02*
X12749705Y-13977936D01*
X12749705Y-13977936D02*
X12740182Y-13987460D01*
X12740182Y-13987460D02*
X12721134Y-13996984D01*
X12721134Y-13996984D02*
X12702086Y-13996984D01*
X12702086Y-13996984D02*
X12683039Y-13987460D01*
X12683039Y-13987460D02*
X12673515Y-13977936D01*
X12673515Y-13977936D02*
X12663991Y-13958888D01*
X12663991Y-13958888D02*
X12654467Y-13920793D01*
X12654467Y-13920793D02*
X12654467Y-13873174D01*
X12654467Y-13873174D02*
X12663991Y-13835079D01*
X12663991Y-13835079D02*
X12673515Y-13816031D01*
X12673515Y-13816031D02*
X12683039Y-13806508D01*
X12683039Y-13806508D02*
X12702086Y-13796984D01*
X12940182Y-13863650D02*
X12940182Y-13996984D01*
X12892562Y-13787460D02*
X12844943Y-13930317D01*
X12844943Y-13930317D02*
X12968753Y-13930317D01*
X13073515Y-13882698D02*
X13054467Y-13873174D01*
X13054467Y-13873174D02*
X13044943Y-13863650D01*
X13044943Y-13863650D02*
X13035420Y-13844603D01*
X13035420Y-13844603D02*
X13035420Y-13835079D01*
X13035420Y-13835079D02*
X13044943Y-13816031D01*
X13044943Y-13816031D02*
X13054467Y-13806508D01*
X13054467Y-13806508D02*
X13073515Y-13796984D01*
X13073515Y-13796984D02*
X13111610Y-13796984D01*
X13111610Y-13796984D02*
X13130658Y-13806508D01*
X13130658Y-13806508D02*
X13140182Y-13816031D01*
X13140182Y-13816031D02*
X13149705Y-13835079D01*
X13149705Y-13835079D02*
X13149705Y-13844603D01*
X13149705Y-13844603D02*
X13140182Y-13863650D01*
X13140182Y-13863650D02*
X13130658Y-13873174D01*
X13130658Y-13873174D02*
X13111610Y-13882698D01*
X13111610Y-13882698D02*
X13073515Y-13882698D01*
X13073515Y-13882698D02*
X13054467Y-13892222D01*
X13054467Y-13892222D02*
X13044943Y-13901746D01*
X13044943Y-13901746D02*
X13035420Y-13920793D01*
X13035420Y-13920793D02*
X13035420Y-13958888D01*
X13035420Y-13958888D02*
X13044943Y-13977936D01*
X13044943Y-13977936D02*
X13054467Y-13987460D01*
X13054467Y-13987460D02*
X13073515Y-13996984D01*
X13073515Y-13996984D02*
X13111610Y-13996984D01*
X13111610Y-13996984D02*
X13130658Y-13987460D01*
X13130658Y-13987460D02*
X13140182Y-13977936D01*
X13140182Y-13977936D02*
X13149705Y-13958888D01*
X13149705Y-13958888D02*
X13149705Y-13920793D01*
X13149705Y-13920793D02*
X13140182Y-13901746D01*
X13140182Y-13901746D02*
X13130658Y-13892222D01*
X13130658Y-13892222D02*
X13111610Y-13882698D01*
X13235420Y-13996984D02*
X13235420Y-13863650D01*
X13235420Y-13882698D02*
X13244943Y-13873174D01*
X13244943Y-13873174D02*
X13263991Y-13863650D01*
X13263991Y-13863650D02*
X13292563Y-13863650D01*
X13292563Y-13863650D02*
X13311610Y-13873174D01*
X13311610Y-13873174D02*
X13321134Y-13892222D01*
X13321134Y-13892222D02*
X13321134Y-13996984D01*
X13321134Y-13892222D02*
X13330658Y-13873174D01*
X13330658Y-13873174D02*
X13349705Y-13863650D01*
X13349705Y-13863650D02*
X13378277Y-13863650D01*
X13378277Y-13863650D02*
X13397324Y-13873174D01*
X13397324Y-13873174D02*
X13406848Y-13892222D01*
X13406848Y-13892222D02*
X13406848Y-13996984D01*
X13502086Y-13996984D02*
X13502086Y-13863650D01*
X13502086Y-13882698D02*
X13511610Y-13873174D01*
X13511610Y-13873174D02*
X13530658Y-13863650D01*
X13530658Y-13863650D02*
X13559229Y-13863650D01*
X13559229Y-13863650D02*
X13578277Y-13873174D01*
X13578277Y-13873174D02*
X13587801Y-13892222D01*
X13587801Y-13892222D02*
X13587801Y-13996984D01*
X13587801Y-13892222D02*
X13597324Y-13873174D01*
X13597324Y-13873174D02*
X13616372Y-13863650D01*
X13616372Y-13863650D02*
X13644943Y-13863650D01*
X13644943Y-13863650D02*
X13663991Y-13873174D01*
X13663991Y-13873174D02*
X13673515Y-13892222D01*
X13673515Y-13892222D02*
X13673515Y-13996984D01*
X14063991Y-13787460D02*
X13892563Y-14044603D01*
X14321134Y-13796984D02*
X14340182Y-13796984D01*
X14340182Y-13796984D02*
X14359229Y-13806508D01*
X14359229Y-13806508D02*
X14368753Y-13816031D01*
X14368753Y-13816031D02*
X14378277Y-13835079D01*
X14378277Y-13835079D02*
X14387801Y-13873174D01*
X14387801Y-13873174D02*
X14387801Y-13920793D01*
X14387801Y-13920793D02*
X14378277Y-13958888D01*
X14378277Y-13958888D02*
X14368753Y-13977936D01*
X14368753Y-13977936D02*
X14359229Y-13987460D01*
X14359229Y-13987460D02*
X14340182Y-13996984D01*
X14340182Y-13996984D02*
X14321134Y-13996984D01*
X14321134Y-13996984D02*
X14302086Y-13987460D01*
X14302086Y-13987460D02*
X14292563Y-13977936D01*
X14292563Y-13977936D02*
X14283039Y-13958888D01*
X14283039Y-13958888D02*
X14273515Y-13920793D01*
X14273515Y-13920793D02*
X14273515Y-13873174D01*
X14273515Y-13873174D02*
X14283039Y-13835079D01*
X14283039Y-13835079D02*
X14292563Y-13816031D01*
X14292563Y-13816031D02*
X14302086Y-13806508D01*
X14302086Y-13806508D02*
X14321134Y-13796984D01*
X14473515Y-13977936D02*
X14483039Y-13987460D01*
X14483039Y-13987460D02*
X14473515Y-13996984D01*
X14473515Y-13996984D02*
X14463991Y-13987460D01*
X14463991Y-13987460D02*
X14473515Y-13977936D01*
X14473515Y-13977936D02*
X14473515Y-13996984D01*
X14673515Y-13996984D02*
X14559229Y-13996984D01*
X14616372Y-13996984D02*
X14616372Y-13796984D01*
X14616372Y-13796984D02*
X14597325Y-13825555D01*
X14597325Y-13825555D02*
X14578277Y-13844603D01*
X14578277Y-13844603D02*
X14559229Y-13854127D01*
X14749706Y-13816031D02*
X14759229Y-13806508D01*
X14759229Y-13806508D02*
X14778277Y-13796984D01*
X14778277Y-13796984D02*
X14825896Y-13796984D01*
X14825896Y-13796984D02*
X14844944Y-13806508D01*
X14844944Y-13806508D02*
X14854467Y-13816031D01*
X14854467Y-13816031D02*
X14863991Y-13835079D01*
X14863991Y-13835079D02*
X14863991Y-13854127D01*
X14863991Y-13854127D02*
X14854467Y-13882698D01*
X14854467Y-13882698D02*
X14740182Y-13996984D01*
X14740182Y-13996984D02*
X14863991Y-13996984D01*
X14987801Y-13796984D02*
X15006848Y-13796984D01*
X15006848Y-13796984D02*
X15025896Y-13806508D01*
X15025896Y-13806508D02*
X15035420Y-13816031D01*
X15035420Y-13816031D02*
X15044944Y-13835079D01*
X15044944Y-13835079D02*
X15054467Y-13873174D01*
X15054467Y-13873174D02*
X15054467Y-13920793D01*
X15054467Y-13920793D02*
X15044944Y-13958888D01*
X15044944Y-13958888D02*
X15035420Y-13977936D01*
X15035420Y-13977936D02*
X15025896Y-13987460D01*
X15025896Y-13987460D02*
X15006848Y-13996984D01*
X15006848Y-13996984D02*
X14987801Y-13996984D01*
X14987801Y-13996984D02*
X14968753Y-13987460D01*
X14968753Y-13987460D02*
X14959229Y-13977936D01*
X14959229Y-13977936D02*
X14949706Y-13958888D01*
X14949706Y-13958888D02*
X14940182Y-13920793D01*
X14940182Y-13920793D02*
X14940182Y-13873174D01*
X14940182Y-13873174D02*
X14949706Y-13835079D01*
X14949706Y-13835079D02*
X14959229Y-13816031D01*
X14959229Y-13816031D02*
X14968753Y-13806508D01*
X14968753Y-13806508D02*
X14987801Y-13796984D01*
X15178277Y-13796984D02*
X15197325Y-13796984D01*
X15197325Y-13796984D02*
X15216372Y-13806508D01*
X15216372Y-13806508D02*
X15225896Y-13816031D01*
X15225896Y-13816031D02*
X15235420Y-13835079D01*
X15235420Y-13835079D02*
X15244944Y-13873174D01*
X15244944Y-13873174D02*
X15244944Y-13920793D01*
X15244944Y-13920793D02*
X15235420Y-13958888D01*
X15235420Y-13958888D02*
X15225896Y-13977936D01*
X15225896Y-13977936D02*
X15216372Y-13987460D01*
X15216372Y-13987460D02*
X15197325Y-13996984D01*
X15197325Y-13996984D02*
X15178277Y-13996984D01*
X15178277Y-13996984D02*
X15159229Y-13987460D01*
X15159229Y-13987460D02*
X15149706Y-13977936D01*
X15149706Y-13977936D02*
X15140182Y-13958888D01*
X15140182Y-13958888D02*
X15130658Y-13920793D01*
X15130658Y-13920793D02*
X15130658Y-13873174D01*
X15130658Y-13873174D02*
X15140182Y-13835079D01*
X15140182Y-13835079D02*
X15149706Y-13816031D01*
X15149706Y-13816031D02*
X15159229Y-13806508D01*
X15159229Y-13806508D02*
X15178277Y-13796984D01*
X15321134Y-13796984D02*
X15321134Y-13835079D01*
X15397325Y-13796984D02*
X15397325Y-13835079D01*
X15692563Y-14073174D02*
X15683039Y-14063650D01*
X15683039Y-14063650D02*
X15663991Y-14035079D01*
X15663991Y-14035079D02*
X15654468Y-14016031D01*
X15654468Y-14016031D02*
X15644944Y-13987460D01*
X15644944Y-13987460D02*
X15635420Y-13939841D01*
X15635420Y-13939841D02*
X15635420Y-13901746D01*
X15635420Y-13901746D02*
X15644944Y-13854127D01*
X15644944Y-13854127D02*
X15654468Y-13825555D01*
X15654468Y-13825555D02*
X15663991Y-13806508D01*
X15663991Y-13806508D02*
X15683039Y-13777936D01*
X15683039Y-13777936D02*
X15692563Y-13768412D01*
X15759229Y-13816031D02*
X15768753Y-13806508D01*
X15768753Y-13806508D02*
X15787801Y-13796984D01*
X15787801Y-13796984D02*
X15835420Y-13796984D01*
X15835420Y-13796984D02*
X15854468Y-13806508D01*
X15854468Y-13806508D02*
X15863991Y-13816031D01*
X15863991Y-13816031D02*
X15873515Y-13835079D01*
X15873515Y-13835079D02*
X15873515Y-13854127D01*
X15873515Y-13854127D02*
X15863991Y-13882698D01*
X15863991Y-13882698D02*
X15749706Y-13996984D01*
X15749706Y-13996984D02*
X15873515Y-13996984D01*
X16111610Y-13996984D02*
X16111610Y-13796984D01*
X16197325Y-13996984D02*
X16197325Y-13892222D01*
X16197325Y-13892222D02*
X16187801Y-13873174D01*
X16187801Y-13873174D02*
X16168753Y-13863650D01*
X16168753Y-13863650D02*
X16140182Y-13863650D01*
X16140182Y-13863650D02*
X16121134Y-13873174D01*
X16121134Y-13873174D02*
X16111610Y-13882698D01*
X16321134Y-13996984D02*
X16302087Y-13987460D01*
X16302087Y-13987460D02*
X16292563Y-13977936D01*
X16292563Y-13977936D02*
X16283039Y-13958888D01*
X16283039Y-13958888D02*
X16283039Y-13901746D01*
X16283039Y-13901746D02*
X16292563Y-13882698D01*
X16292563Y-13882698D02*
X16302087Y-13873174D01*
X16302087Y-13873174D02*
X16321134Y-13863650D01*
X16321134Y-13863650D02*
X16349706Y-13863650D01*
X16349706Y-13863650D02*
X16368753Y-13873174D01*
X16368753Y-13873174D02*
X16378277Y-13882698D01*
X16378277Y-13882698D02*
X16387801Y-13901746D01*
X16387801Y-13901746D02*
X16387801Y-13958888D01*
X16387801Y-13958888D02*
X16378277Y-13977936D01*
X16378277Y-13977936D02*
X16368753Y-13987460D01*
X16368753Y-13987460D02*
X16349706Y-13996984D01*
X16349706Y-13996984D02*
X16321134Y-13996984D01*
X16502087Y-13996984D02*
X16483039Y-13987460D01*
X16483039Y-13987460D02*
X16473515Y-13968412D01*
X16473515Y-13968412D02*
X16473515Y-13796984D01*
X16654468Y-13987460D02*
X16635420Y-13996984D01*
X16635420Y-13996984D02*
X16597325Y-13996984D01*
X16597325Y-13996984D02*
X16578277Y-13987460D01*
X16578277Y-13987460D02*
X16568753Y-13968412D01*
X16568753Y-13968412D02*
X16568753Y-13892222D01*
X16568753Y-13892222D02*
X16578277Y-13873174D01*
X16578277Y-13873174D02*
X16597325Y-13863650D01*
X16597325Y-13863650D02*
X16635420Y-13863650D01*
X16635420Y-13863650D02*
X16654468Y-13873174D01*
X16654468Y-13873174D02*
X16663991Y-13892222D01*
X16663991Y-13892222D02*
X16663991Y-13911269D01*
X16663991Y-13911269D02*
X16568753Y-13930317D01*
X16740182Y-13987460D02*
X16759230Y-13996984D01*
X16759230Y-13996984D02*
X16797325Y-13996984D01*
X16797325Y-13996984D02*
X16816373Y-13987460D01*
X16816373Y-13987460D02*
X16825896Y-13968412D01*
X16825896Y-13968412D02*
X16825896Y-13958888D01*
X16825896Y-13958888D02*
X16816373Y-13939841D01*
X16816373Y-13939841D02*
X16797325Y-13930317D01*
X16797325Y-13930317D02*
X16768753Y-13930317D01*
X16768753Y-13930317D02*
X16749706Y-13920793D01*
X16749706Y-13920793D02*
X16740182Y-13901746D01*
X16740182Y-13901746D02*
X16740182Y-13892222D01*
X16740182Y-13892222D02*
X16749706Y-13873174D01*
X16749706Y-13873174D02*
X16768753Y-13863650D01*
X16768753Y-13863650D02*
X16797325Y-13863650D01*
X16797325Y-13863650D02*
X16816373Y-13873174D01*
X16892563Y-14073174D02*
X16902087Y-14063650D01*
X16902087Y-14063650D02*
X16921134Y-14035079D01*
X16921134Y-14035079D02*
X16930658Y-14016031D01*
X16930658Y-14016031D02*
X16940182Y-13987460D01*
X16940182Y-13987460D02*
X16949706Y-13939841D01*
X16949706Y-13939841D02*
X16949706Y-13901746D01*
X16949706Y-13901746D02*
X16940182Y-13854127D01*
X16940182Y-13854127D02*
X16930658Y-13825555D01*
X16930658Y-13825555D02*
X16921134Y-13806508D01*
X16921134Y-13806508D02*
X16902087Y-13777936D01*
X16902087Y-13777936D02*
X16892563Y-13768412D01*
X17254468Y-14073174D02*
X17244944Y-14063650D01*
X17244944Y-14063650D02*
X17225896Y-14035079D01*
X17225896Y-14035079D02*
X17216373Y-14016031D01*
X17216373Y-14016031D02*
X17206849Y-13987460D01*
X17206849Y-13987460D02*
X17197325Y-13939841D01*
X17197325Y-13939841D02*
X17197325Y-13901746D01*
X17197325Y-13901746D02*
X17206849Y-13854127D01*
X17206849Y-13854127D02*
X17216373Y-13825555D01*
X17216373Y-13825555D02*
X17225896Y-13806508D01*
X17225896Y-13806508D02*
X17244944Y-13777936D01*
X17244944Y-13777936D02*
X17254468Y-13768412D01*
X17330658Y-13863650D02*
X17330658Y-13996984D01*
X17330658Y-13882698D02*
X17340182Y-13873174D01*
X17340182Y-13873174D02*
X17359230Y-13863650D01*
X17359230Y-13863650D02*
X17387801Y-13863650D01*
X17387801Y-13863650D02*
X17406849Y-13873174D01*
X17406849Y-13873174D02*
X17416373Y-13892222D01*
X17416373Y-13892222D02*
X17416373Y-13996984D01*
X17540182Y-13996984D02*
X17521134Y-13987460D01*
X17521134Y-13987460D02*
X17511611Y-13977936D01*
X17511611Y-13977936D02*
X17502087Y-13958888D01*
X17502087Y-13958888D02*
X17502087Y-13901746D01*
X17502087Y-13901746D02*
X17511611Y-13882698D01*
X17511611Y-13882698D02*
X17521134Y-13873174D01*
X17521134Y-13873174D02*
X17540182Y-13863650D01*
X17540182Y-13863650D02*
X17568754Y-13863650D01*
X17568754Y-13863650D02*
X17587801Y-13873174D01*
X17587801Y-13873174D02*
X17597325Y-13882698D01*
X17597325Y-13882698D02*
X17606849Y-13901746D01*
X17606849Y-13901746D02*
X17606849Y-13958888D01*
X17606849Y-13958888D02*
X17597325Y-13977936D01*
X17597325Y-13977936D02*
X17587801Y-13987460D01*
X17587801Y-13987460D02*
X17568754Y-13996984D01*
X17568754Y-13996984D02*
X17540182Y-13996984D01*
X17663992Y-13863650D02*
X17740182Y-13863650D01*
X17692563Y-13796984D02*
X17692563Y-13968412D01*
X17692563Y-13968412D02*
X17702087Y-13987460D01*
X17702087Y-13987460D02*
X17721134Y-13996984D01*
X17721134Y-13996984D02*
X17740182Y-13996984D01*
X17959230Y-13863650D02*
X17959230Y-14063650D01*
X17959230Y-13873174D02*
X17978277Y-13863650D01*
X17978277Y-13863650D02*
X18016373Y-13863650D01*
X18016373Y-13863650D02*
X18035420Y-13873174D01*
X18035420Y-13873174D02*
X18044944Y-13882698D01*
X18044944Y-13882698D02*
X18054468Y-13901746D01*
X18054468Y-13901746D02*
X18054468Y-13958888D01*
X18054468Y-13958888D02*
X18044944Y-13977936D01*
X18044944Y-13977936D02*
X18035420Y-13987460D01*
X18035420Y-13987460D02*
X18016373Y-13996984D01*
X18016373Y-13996984D02*
X17978277Y-13996984D01*
X17978277Y-13996984D02*
X17959230Y-13987460D01*
X18168754Y-13996984D02*
X18149706Y-13987460D01*
X18149706Y-13987460D02*
X18140182Y-13968412D01*
X18140182Y-13968412D02*
X18140182Y-13796984D01*
X18330658Y-13996984D02*
X18330658Y-13892222D01*
X18330658Y-13892222D02*
X18321135Y-13873174D01*
X18321135Y-13873174D02*
X18302087Y-13863650D01*
X18302087Y-13863650D02*
X18263992Y-13863650D01*
X18263992Y-13863650D02*
X18244944Y-13873174D01*
X18330658Y-13987460D02*
X18311611Y-13996984D01*
X18311611Y-13996984D02*
X18263992Y-13996984D01*
X18263992Y-13996984D02*
X18244944Y-13987460D01*
X18244944Y-13987460D02*
X18235420Y-13968412D01*
X18235420Y-13968412D02*
X18235420Y-13949365D01*
X18235420Y-13949365D02*
X18244944Y-13930317D01*
X18244944Y-13930317D02*
X18263992Y-13920793D01*
X18263992Y-13920793D02*
X18311611Y-13920793D01*
X18311611Y-13920793D02*
X18330658Y-13911269D01*
X18397325Y-13863650D02*
X18473515Y-13863650D01*
X18425896Y-13796984D02*
X18425896Y-13968412D01*
X18425896Y-13968412D02*
X18435420Y-13987460D01*
X18435420Y-13987460D02*
X18454468Y-13996984D01*
X18454468Y-13996984D02*
X18473515Y-13996984D01*
X18616373Y-13987460D02*
X18597325Y-13996984D01*
X18597325Y-13996984D02*
X18559230Y-13996984D01*
X18559230Y-13996984D02*
X18540182Y-13987460D01*
X18540182Y-13987460D02*
X18530658Y-13968412D01*
X18530658Y-13968412D02*
X18530658Y-13892222D01*
X18530658Y-13892222D02*
X18540182Y-13873174D01*
X18540182Y-13873174D02*
X18559230Y-13863650D01*
X18559230Y-13863650D02*
X18597325Y-13863650D01*
X18597325Y-13863650D02*
X18616373Y-13873174D01*
X18616373Y-13873174D02*
X18625896Y-13892222D01*
X18625896Y-13892222D02*
X18625896Y-13911269D01*
X18625896Y-13911269D02*
X18530658Y-13930317D01*
X18797325Y-13996984D02*
X18797325Y-13796984D01*
X18797325Y-13987460D02*
X18778277Y-13996984D01*
X18778277Y-13996984D02*
X18740182Y-13996984D01*
X18740182Y-13996984D02*
X18721135Y-13987460D01*
X18721135Y-13987460D02*
X18711611Y-13977936D01*
X18711611Y-13977936D02*
X18702087Y-13958888D01*
X18702087Y-13958888D02*
X18702087Y-13901746D01*
X18702087Y-13901746D02*
X18711611Y-13882698D01*
X18711611Y-13882698D02*
X18721135Y-13873174D01*
X18721135Y-13873174D02*
X18740182Y-13863650D01*
X18740182Y-13863650D02*
X18778277Y-13863650D01*
X18778277Y-13863650D02*
X18797325Y-13873174D01*
X18873516Y-14073174D02*
X18883039Y-14063650D01*
X18883039Y-14063650D02*
X18902087Y-14035079D01*
X18902087Y-14035079D02*
X18911611Y-14016031D01*
X18911611Y-14016031D02*
X18921135Y-13987460D01*
X18921135Y-13987460D02*
X18930658Y-13939841D01*
X18930658Y-13939841D02*
X18930658Y-13901746D01*
X18930658Y-13901746D02*
X18921135Y-13854127D01*
X18921135Y-13854127D02*
X18911611Y-13825555D01*
X18911611Y-13825555D02*
X18902087Y-13806508D01*
X18902087Y-13806508D02*
X18883039Y-13777936D01*
X18883039Y-13777936D02*
X18873516Y-13768412D01*
X12017500Y-14325500D02*
X12117500Y-14225500D01*
X12017500Y-14125500D01*
X11917500Y-14225500D01*
X12017500Y-14325500D01*
X12359229Y-14116984D02*
X12483039Y-14116984D01*
X12483039Y-14116984D02*
X12416372Y-14193174D01*
X12416372Y-14193174D02*
X12444943Y-14193174D01*
X12444943Y-14193174D02*
X12463991Y-14202698D01*
X12463991Y-14202698D02*
X12473515Y-14212222D01*
X12473515Y-14212222D02*
X12483039Y-14231269D01*
X12483039Y-14231269D02*
X12483039Y-14278888D01*
X12483039Y-14278888D02*
X12473515Y-14297936D01*
X12473515Y-14297936D02*
X12463991Y-14307460D01*
X12463991Y-14307460D02*
X12444943Y-14316984D01*
X12444943Y-14316984D02*
X12387801Y-14316984D01*
X12387801Y-14316984D02*
X12368753Y-14307460D01*
X12368753Y-14307460D02*
X12359229Y-14297936D01*
X12568753Y-14297936D02*
X12578277Y-14307460D01*
X12578277Y-14307460D02*
X12568753Y-14316984D01*
X12568753Y-14316984D02*
X12559229Y-14307460D01*
X12559229Y-14307460D02*
X12568753Y-14297936D01*
X12568753Y-14297936D02*
X12568753Y-14316984D01*
X12654467Y-14136031D02*
X12663991Y-14126508D01*
X12663991Y-14126508D02*
X12683039Y-14116984D01*
X12683039Y-14116984D02*
X12730658Y-14116984D01*
X12730658Y-14116984D02*
X12749705Y-14126508D01*
X12749705Y-14126508D02*
X12759229Y-14136031D01*
X12759229Y-14136031D02*
X12768753Y-14155079D01*
X12768753Y-14155079D02*
X12768753Y-14174127D01*
X12768753Y-14174127D02*
X12759229Y-14202698D01*
X12759229Y-14202698D02*
X12644943Y-14316984D01*
X12644943Y-14316984D02*
X12768753Y-14316984D01*
X12892562Y-14116984D02*
X12911610Y-14116984D01*
X12911610Y-14116984D02*
X12930658Y-14126508D01*
X12930658Y-14126508D02*
X12940182Y-14136031D01*
X12940182Y-14136031D02*
X12949705Y-14155079D01*
X12949705Y-14155079D02*
X12959229Y-14193174D01*
X12959229Y-14193174D02*
X12959229Y-14240793D01*
X12959229Y-14240793D02*
X12949705Y-14278888D01*
X12949705Y-14278888D02*
X12940182Y-14297936D01*
X12940182Y-14297936D02*
X12930658Y-14307460D01*
X12930658Y-14307460D02*
X12911610Y-14316984D01*
X12911610Y-14316984D02*
X12892562Y-14316984D01*
X12892562Y-14316984D02*
X12873515Y-14307460D01*
X12873515Y-14307460D02*
X12863991Y-14297936D01*
X12863991Y-14297936D02*
X12854467Y-14278888D01*
X12854467Y-14278888D02*
X12844943Y-14240793D01*
X12844943Y-14240793D02*
X12844943Y-14193174D01*
X12844943Y-14193174D02*
X12854467Y-14155079D01*
X12854467Y-14155079D02*
X12863991Y-14136031D01*
X12863991Y-14136031D02*
X12873515Y-14126508D01*
X12873515Y-14126508D02*
X12892562Y-14116984D01*
X13083039Y-14116984D02*
X13102086Y-14116984D01*
X13102086Y-14116984D02*
X13121134Y-14126508D01*
X13121134Y-14126508D02*
X13130658Y-14136031D01*
X13130658Y-14136031D02*
X13140182Y-14155079D01*
X13140182Y-14155079D02*
X13149705Y-14193174D01*
X13149705Y-14193174D02*
X13149705Y-14240793D01*
X13149705Y-14240793D02*
X13140182Y-14278888D01*
X13140182Y-14278888D02*
X13130658Y-14297936D01*
X13130658Y-14297936D02*
X13121134Y-14307460D01*
X13121134Y-14307460D02*
X13102086Y-14316984D01*
X13102086Y-14316984D02*
X13083039Y-14316984D01*
X13083039Y-14316984D02*
X13063991Y-14307460D01*
X13063991Y-14307460D02*
X13054467Y-14297936D01*
X13054467Y-14297936D02*
X13044943Y-14278888D01*
X13044943Y-14278888D02*
X13035420Y-14240793D01*
X13035420Y-14240793D02*
X13035420Y-14193174D01*
X13035420Y-14193174D02*
X13044943Y-14155079D01*
X13044943Y-14155079D02*
X13054467Y-14136031D01*
X13054467Y-14136031D02*
X13063991Y-14126508D01*
X13063991Y-14126508D02*
X13083039Y-14116984D01*
X13235420Y-14316984D02*
X13235420Y-14183650D01*
X13235420Y-14202698D02*
X13244943Y-14193174D01*
X13244943Y-14193174D02*
X13263991Y-14183650D01*
X13263991Y-14183650D02*
X13292563Y-14183650D01*
X13292563Y-14183650D02*
X13311610Y-14193174D01*
X13311610Y-14193174D02*
X13321134Y-14212222D01*
X13321134Y-14212222D02*
X13321134Y-14316984D01*
X13321134Y-14212222D02*
X13330658Y-14193174D01*
X13330658Y-14193174D02*
X13349705Y-14183650D01*
X13349705Y-14183650D02*
X13378277Y-14183650D01*
X13378277Y-14183650D02*
X13397324Y-14193174D01*
X13397324Y-14193174D02*
X13406848Y-14212222D01*
X13406848Y-14212222D02*
X13406848Y-14316984D01*
X13502086Y-14316984D02*
X13502086Y-14183650D01*
X13502086Y-14202698D02*
X13511610Y-14193174D01*
X13511610Y-14193174D02*
X13530658Y-14183650D01*
X13530658Y-14183650D02*
X13559229Y-14183650D01*
X13559229Y-14183650D02*
X13578277Y-14193174D01*
X13578277Y-14193174D02*
X13587801Y-14212222D01*
X13587801Y-14212222D02*
X13587801Y-14316984D01*
X13587801Y-14212222D02*
X13597324Y-14193174D01*
X13597324Y-14193174D02*
X13616372Y-14183650D01*
X13616372Y-14183650D02*
X13644943Y-14183650D01*
X13644943Y-14183650D02*
X13663991Y-14193174D01*
X13663991Y-14193174D02*
X13673515Y-14212222D01*
X13673515Y-14212222D02*
X13673515Y-14316984D01*
X14063991Y-14107460D02*
X13892563Y-14364603D01*
X14321134Y-14116984D02*
X14340182Y-14116984D01*
X14340182Y-14116984D02*
X14359229Y-14126508D01*
X14359229Y-14126508D02*
X14368753Y-14136031D01*
X14368753Y-14136031D02*
X14378277Y-14155079D01*
X14378277Y-14155079D02*
X14387801Y-14193174D01*
X14387801Y-14193174D02*
X14387801Y-14240793D01*
X14387801Y-14240793D02*
X14378277Y-14278888D01*
X14378277Y-14278888D02*
X14368753Y-14297936D01*
X14368753Y-14297936D02*
X14359229Y-14307460D01*
X14359229Y-14307460D02*
X14340182Y-14316984D01*
X14340182Y-14316984D02*
X14321134Y-14316984D01*
X14321134Y-14316984D02*
X14302086Y-14307460D01*
X14302086Y-14307460D02*
X14292563Y-14297936D01*
X14292563Y-14297936D02*
X14283039Y-14278888D01*
X14283039Y-14278888D02*
X14273515Y-14240793D01*
X14273515Y-14240793D02*
X14273515Y-14193174D01*
X14273515Y-14193174D02*
X14283039Y-14155079D01*
X14283039Y-14155079D02*
X14292563Y-14136031D01*
X14292563Y-14136031D02*
X14302086Y-14126508D01*
X14302086Y-14126508D02*
X14321134Y-14116984D01*
X14473515Y-14297936D02*
X14483039Y-14307460D01*
X14483039Y-14307460D02*
X14473515Y-14316984D01*
X14473515Y-14316984D02*
X14463991Y-14307460D01*
X14463991Y-14307460D02*
X14473515Y-14297936D01*
X14473515Y-14297936D02*
X14473515Y-14316984D01*
X14673515Y-14316984D02*
X14559229Y-14316984D01*
X14616372Y-14316984D02*
X14616372Y-14116984D01*
X14616372Y-14116984D02*
X14597325Y-14145555D01*
X14597325Y-14145555D02*
X14578277Y-14164603D01*
X14578277Y-14164603D02*
X14559229Y-14174127D01*
X14749706Y-14136031D02*
X14759229Y-14126508D01*
X14759229Y-14126508D02*
X14778277Y-14116984D01*
X14778277Y-14116984D02*
X14825896Y-14116984D01*
X14825896Y-14116984D02*
X14844944Y-14126508D01*
X14844944Y-14126508D02*
X14854467Y-14136031D01*
X14854467Y-14136031D02*
X14863991Y-14155079D01*
X14863991Y-14155079D02*
X14863991Y-14174127D01*
X14863991Y-14174127D02*
X14854467Y-14202698D01*
X14854467Y-14202698D02*
X14740182Y-14316984D01*
X14740182Y-14316984D02*
X14863991Y-14316984D01*
X15035420Y-14116984D02*
X14997325Y-14116984D01*
X14997325Y-14116984D02*
X14978277Y-14126508D01*
X14978277Y-14126508D02*
X14968753Y-14136031D01*
X14968753Y-14136031D02*
X14949706Y-14164603D01*
X14949706Y-14164603D02*
X14940182Y-14202698D01*
X14940182Y-14202698D02*
X14940182Y-14278888D01*
X14940182Y-14278888D02*
X14949706Y-14297936D01*
X14949706Y-14297936D02*
X14959229Y-14307460D01*
X14959229Y-14307460D02*
X14978277Y-14316984D01*
X14978277Y-14316984D02*
X15016372Y-14316984D01*
X15016372Y-14316984D02*
X15035420Y-14307460D01*
X15035420Y-14307460D02*
X15044944Y-14297936D01*
X15044944Y-14297936D02*
X15054467Y-14278888D01*
X15054467Y-14278888D02*
X15054467Y-14231269D01*
X15054467Y-14231269D02*
X15044944Y-14212222D01*
X15044944Y-14212222D02*
X15035420Y-14202698D01*
X15035420Y-14202698D02*
X15016372Y-14193174D01*
X15016372Y-14193174D02*
X14978277Y-14193174D01*
X14978277Y-14193174D02*
X14959229Y-14202698D01*
X14959229Y-14202698D02*
X14949706Y-14212222D01*
X14949706Y-14212222D02*
X14940182Y-14231269D01*
X15178277Y-14116984D02*
X15197325Y-14116984D01*
X15197325Y-14116984D02*
X15216372Y-14126508D01*
X15216372Y-14126508D02*
X15225896Y-14136031D01*
X15225896Y-14136031D02*
X15235420Y-14155079D01*
X15235420Y-14155079D02*
X15244944Y-14193174D01*
X15244944Y-14193174D02*
X15244944Y-14240793D01*
X15244944Y-14240793D02*
X15235420Y-14278888D01*
X15235420Y-14278888D02*
X15225896Y-14297936D01*
X15225896Y-14297936D02*
X15216372Y-14307460D01*
X15216372Y-14307460D02*
X15197325Y-14316984D01*
X15197325Y-14316984D02*
X15178277Y-14316984D01*
X15178277Y-14316984D02*
X15159229Y-14307460D01*
X15159229Y-14307460D02*
X15149706Y-14297936D01*
X15149706Y-14297936D02*
X15140182Y-14278888D01*
X15140182Y-14278888D02*
X15130658Y-14240793D01*
X15130658Y-14240793D02*
X15130658Y-14193174D01*
X15130658Y-14193174D02*
X15140182Y-14155079D01*
X15140182Y-14155079D02*
X15149706Y-14136031D01*
X15149706Y-14136031D02*
X15159229Y-14126508D01*
X15159229Y-14126508D02*
X15178277Y-14116984D01*
X15321134Y-14116984D02*
X15321134Y-14155079D01*
X15397325Y-14116984D02*
X15397325Y-14155079D01*
X15692563Y-14393174D02*
X15683039Y-14383650D01*
X15683039Y-14383650D02*
X15663991Y-14355079D01*
X15663991Y-14355079D02*
X15654468Y-14336031D01*
X15654468Y-14336031D02*
X15644944Y-14307460D01*
X15644944Y-14307460D02*
X15635420Y-14259841D01*
X15635420Y-14259841D02*
X15635420Y-14221746D01*
X15635420Y-14221746D02*
X15644944Y-14174127D01*
X15644944Y-14174127D02*
X15654468Y-14145555D01*
X15654468Y-14145555D02*
X15663991Y-14126508D01*
X15663991Y-14126508D02*
X15683039Y-14097936D01*
X15683039Y-14097936D02*
X15692563Y-14088412D01*
X15854468Y-14116984D02*
X15816372Y-14116984D01*
X15816372Y-14116984D02*
X15797325Y-14126508D01*
X15797325Y-14126508D02*
X15787801Y-14136031D01*
X15787801Y-14136031D02*
X15768753Y-14164603D01*
X15768753Y-14164603D02*
X15759229Y-14202698D01*
X15759229Y-14202698D02*
X15759229Y-14278888D01*
X15759229Y-14278888D02*
X15768753Y-14297936D01*
X15768753Y-14297936D02*
X15778277Y-14307460D01*
X15778277Y-14307460D02*
X15797325Y-14316984D01*
X15797325Y-14316984D02*
X15835420Y-14316984D01*
X15835420Y-14316984D02*
X15854468Y-14307460D01*
X15854468Y-14307460D02*
X15863991Y-14297936D01*
X15863991Y-14297936D02*
X15873515Y-14278888D01*
X15873515Y-14278888D02*
X15873515Y-14231269D01*
X15873515Y-14231269D02*
X15863991Y-14212222D01*
X15863991Y-14212222D02*
X15854468Y-14202698D01*
X15854468Y-14202698D02*
X15835420Y-14193174D01*
X15835420Y-14193174D02*
X15797325Y-14193174D01*
X15797325Y-14193174D02*
X15778277Y-14202698D01*
X15778277Y-14202698D02*
X15768753Y-14212222D01*
X15768753Y-14212222D02*
X15759229Y-14231269D01*
X16111610Y-14316984D02*
X16111610Y-14116984D01*
X16197325Y-14316984D02*
X16197325Y-14212222D01*
X16197325Y-14212222D02*
X16187801Y-14193174D01*
X16187801Y-14193174D02*
X16168753Y-14183650D01*
X16168753Y-14183650D02*
X16140182Y-14183650D01*
X16140182Y-14183650D02*
X16121134Y-14193174D01*
X16121134Y-14193174D02*
X16111610Y-14202698D01*
X16321134Y-14316984D02*
X16302087Y-14307460D01*
X16302087Y-14307460D02*
X16292563Y-14297936D01*
X16292563Y-14297936D02*
X16283039Y-14278888D01*
X16283039Y-14278888D02*
X16283039Y-14221746D01*
X16283039Y-14221746D02*
X16292563Y-14202698D01*
X16292563Y-14202698D02*
X16302087Y-14193174D01*
X16302087Y-14193174D02*
X16321134Y-14183650D01*
X16321134Y-14183650D02*
X16349706Y-14183650D01*
X16349706Y-14183650D02*
X16368753Y-14193174D01*
X16368753Y-14193174D02*
X16378277Y-14202698D01*
X16378277Y-14202698D02*
X16387801Y-14221746D01*
X16387801Y-14221746D02*
X16387801Y-14278888D01*
X16387801Y-14278888D02*
X16378277Y-14297936D01*
X16378277Y-14297936D02*
X16368753Y-14307460D01*
X16368753Y-14307460D02*
X16349706Y-14316984D01*
X16349706Y-14316984D02*
X16321134Y-14316984D01*
X16502087Y-14316984D02*
X16483039Y-14307460D01*
X16483039Y-14307460D02*
X16473515Y-14288412D01*
X16473515Y-14288412D02*
X16473515Y-14116984D01*
X16654468Y-14307460D02*
X16635420Y-14316984D01*
X16635420Y-14316984D02*
X16597325Y-14316984D01*
X16597325Y-14316984D02*
X16578277Y-14307460D01*
X16578277Y-14307460D02*
X16568753Y-14288412D01*
X16568753Y-14288412D02*
X16568753Y-14212222D01*
X16568753Y-14212222D02*
X16578277Y-14193174D01*
X16578277Y-14193174D02*
X16597325Y-14183650D01*
X16597325Y-14183650D02*
X16635420Y-14183650D01*
X16635420Y-14183650D02*
X16654468Y-14193174D01*
X16654468Y-14193174D02*
X16663991Y-14212222D01*
X16663991Y-14212222D02*
X16663991Y-14231269D01*
X16663991Y-14231269D02*
X16568753Y-14250317D01*
X16740182Y-14307460D02*
X16759230Y-14316984D01*
X16759230Y-14316984D02*
X16797325Y-14316984D01*
X16797325Y-14316984D02*
X16816373Y-14307460D01*
X16816373Y-14307460D02*
X16825896Y-14288412D01*
X16825896Y-14288412D02*
X16825896Y-14278888D01*
X16825896Y-14278888D02*
X16816373Y-14259841D01*
X16816373Y-14259841D02*
X16797325Y-14250317D01*
X16797325Y-14250317D02*
X16768753Y-14250317D01*
X16768753Y-14250317D02*
X16749706Y-14240793D01*
X16749706Y-14240793D02*
X16740182Y-14221746D01*
X16740182Y-14221746D02*
X16740182Y-14212222D01*
X16740182Y-14212222D02*
X16749706Y-14193174D01*
X16749706Y-14193174D02*
X16768753Y-14183650D01*
X16768753Y-14183650D02*
X16797325Y-14183650D01*
X16797325Y-14183650D02*
X16816373Y-14193174D01*
X16892563Y-14393174D02*
X16902087Y-14383650D01*
X16902087Y-14383650D02*
X16921134Y-14355079D01*
X16921134Y-14355079D02*
X16930658Y-14336031D01*
X16930658Y-14336031D02*
X16940182Y-14307460D01*
X16940182Y-14307460D02*
X16949706Y-14259841D01*
X16949706Y-14259841D02*
X16949706Y-14221746D01*
X16949706Y-14221746D02*
X16940182Y-14174127D01*
X16940182Y-14174127D02*
X16930658Y-14145555D01*
X16930658Y-14145555D02*
X16921134Y-14126508D01*
X16921134Y-14126508D02*
X16902087Y-14097936D01*
X16902087Y-14097936D02*
X16892563Y-14088412D01*
X17254468Y-14393174D02*
X17244944Y-14383650D01*
X17244944Y-14383650D02*
X17225896Y-14355079D01*
X17225896Y-14355079D02*
X17216373Y-14336031D01*
X17216373Y-14336031D02*
X17206849Y-14307460D01*
X17206849Y-14307460D02*
X17197325Y-14259841D01*
X17197325Y-14259841D02*
X17197325Y-14221746D01*
X17197325Y-14221746D02*
X17206849Y-14174127D01*
X17206849Y-14174127D02*
X17216373Y-14145555D01*
X17216373Y-14145555D02*
X17225896Y-14126508D01*
X17225896Y-14126508D02*
X17244944Y-14097936D01*
X17244944Y-14097936D02*
X17254468Y-14088412D01*
X17330658Y-14183650D02*
X17330658Y-14316984D01*
X17330658Y-14202698D02*
X17340182Y-14193174D01*
X17340182Y-14193174D02*
X17359230Y-14183650D01*
X17359230Y-14183650D02*
X17387801Y-14183650D01*
X17387801Y-14183650D02*
X17406849Y-14193174D01*
X17406849Y-14193174D02*
X17416373Y-14212222D01*
X17416373Y-14212222D02*
X17416373Y-14316984D01*
X17540182Y-14316984D02*
X17521134Y-14307460D01*
X17521134Y-14307460D02*
X17511611Y-14297936D01*
X17511611Y-14297936D02*
X17502087Y-14278888D01*
X17502087Y-14278888D02*
X17502087Y-14221746D01*
X17502087Y-14221746D02*
X17511611Y-14202698D01*
X17511611Y-14202698D02*
X17521134Y-14193174D01*
X17521134Y-14193174D02*
X17540182Y-14183650D01*
X17540182Y-14183650D02*
X17568754Y-14183650D01*
X17568754Y-14183650D02*
X17587801Y-14193174D01*
X17587801Y-14193174D02*
X17597325Y-14202698D01*
X17597325Y-14202698D02*
X17606849Y-14221746D01*
X17606849Y-14221746D02*
X17606849Y-14278888D01*
X17606849Y-14278888D02*
X17597325Y-14297936D01*
X17597325Y-14297936D02*
X17587801Y-14307460D01*
X17587801Y-14307460D02*
X17568754Y-14316984D01*
X17568754Y-14316984D02*
X17540182Y-14316984D01*
X17663992Y-14183650D02*
X17740182Y-14183650D01*
X17692563Y-14116984D02*
X17692563Y-14288412D01*
X17692563Y-14288412D02*
X17702087Y-14307460D01*
X17702087Y-14307460D02*
X17721134Y-14316984D01*
X17721134Y-14316984D02*
X17740182Y-14316984D01*
X17959230Y-14183650D02*
X17959230Y-14383650D01*
X17959230Y-14193174D02*
X17978277Y-14183650D01*
X17978277Y-14183650D02*
X18016373Y-14183650D01*
X18016373Y-14183650D02*
X18035420Y-14193174D01*
X18035420Y-14193174D02*
X18044944Y-14202698D01*
X18044944Y-14202698D02*
X18054468Y-14221746D01*
X18054468Y-14221746D02*
X18054468Y-14278888D01*
X18054468Y-14278888D02*
X18044944Y-14297936D01*
X18044944Y-14297936D02*
X18035420Y-14307460D01*
X18035420Y-14307460D02*
X18016373Y-14316984D01*
X18016373Y-14316984D02*
X17978277Y-14316984D01*
X17978277Y-14316984D02*
X17959230Y-14307460D01*
X18168754Y-14316984D02*
X18149706Y-14307460D01*
X18149706Y-14307460D02*
X18140182Y-14288412D01*
X18140182Y-14288412D02*
X18140182Y-14116984D01*
X18330658Y-14316984D02*
X18330658Y-14212222D01*
X18330658Y-14212222D02*
X18321135Y-14193174D01*
X18321135Y-14193174D02*
X18302087Y-14183650D01*
X18302087Y-14183650D02*
X18263992Y-14183650D01*
X18263992Y-14183650D02*
X18244944Y-14193174D01*
X18330658Y-14307460D02*
X18311611Y-14316984D01*
X18311611Y-14316984D02*
X18263992Y-14316984D01*
X18263992Y-14316984D02*
X18244944Y-14307460D01*
X18244944Y-14307460D02*
X18235420Y-14288412D01*
X18235420Y-14288412D02*
X18235420Y-14269365D01*
X18235420Y-14269365D02*
X18244944Y-14250317D01*
X18244944Y-14250317D02*
X18263992Y-14240793D01*
X18263992Y-14240793D02*
X18311611Y-14240793D01*
X18311611Y-14240793D02*
X18330658Y-14231269D01*
X18397325Y-14183650D02*
X18473515Y-14183650D01*
X18425896Y-14116984D02*
X18425896Y-14288412D01*
X18425896Y-14288412D02*
X18435420Y-14307460D01*
X18435420Y-14307460D02*
X18454468Y-14316984D01*
X18454468Y-14316984D02*
X18473515Y-14316984D01*
X18616373Y-14307460D02*
X18597325Y-14316984D01*
X18597325Y-14316984D02*
X18559230Y-14316984D01*
X18559230Y-14316984D02*
X18540182Y-14307460D01*
X18540182Y-14307460D02*
X18530658Y-14288412D01*
X18530658Y-14288412D02*
X18530658Y-14212222D01*
X18530658Y-14212222D02*
X18540182Y-14193174D01*
X18540182Y-14193174D02*
X18559230Y-14183650D01*
X18559230Y-14183650D02*
X18597325Y-14183650D01*
X18597325Y-14183650D02*
X18616373Y-14193174D01*
X18616373Y-14193174D02*
X18625896Y-14212222D01*
X18625896Y-14212222D02*
X18625896Y-14231269D01*
X18625896Y-14231269D02*
X18530658Y-14250317D01*
X18797325Y-14316984D02*
X18797325Y-14116984D01*
X18797325Y-14307460D02*
X18778277Y-14316984D01*
X18778277Y-14316984D02*
X18740182Y-14316984D01*
X18740182Y-14316984D02*
X18721135Y-14307460D01*
X18721135Y-14307460D02*
X18711611Y-14297936D01*
X18711611Y-14297936D02*
X18702087Y-14278888D01*
X18702087Y-14278888D02*
X18702087Y-14221746D01*
X18702087Y-14221746D02*
X18711611Y-14202698D01*
X18711611Y-14202698D02*
X18721135Y-14193174D01*
X18721135Y-14193174D02*
X18740182Y-14183650D01*
X18740182Y-14183650D02*
X18778277Y-14183650D01*
X18778277Y-14183650D02*
X18797325Y-14193174D01*
X18873516Y-14393174D02*
X18883039Y-14383650D01*
X18883039Y-14383650D02*
X18902087Y-14355079D01*
X18902087Y-14355079D02*
X18911611Y-14336031D01*
X18911611Y-14336031D02*
X18921135Y-14307460D01*
X18921135Y-14307460D02*
X18930658Y-14259841D01*
X18930658Y-14259841D02*
X18930658Y-14221746D01*
X18930658Y-14221746D02*
X18921135Y-14174127D01*
X18921135Y-14174127D02*
X18911611Y-14145555D01*
X18911611Y-14145555D02*
X18902087Y-14126508D01*
X18902087Y-14126508D02*
X18883039Y-14097936D01*
X18883039Y-14097936D02*
X18873516Y-14088412D01*
X11917500Y-14445500D02*
X12117500Y-14645500D01*
X12117500Y-14445500D02*
X11917500Y-14645500D01*
X12117500Y-14545500D02*
G75*
G02*
X11917500Y-14545500I-100000J0D01*
G01*
X11917500Y-14545500D02*
G75*
G02*
X12117500Y-14545500I100000J0D01*
G01*
X12359229Y-14436984D02*
X12483039Y-14436984D01*
X12483039Y-14436984D02*
X12416372Y-14513174D01*
X12416372Y-14513174D02*
X12444943Y-14513174D01*
X12444943Y-14513174D02*
X12463991Y-14522698D01*
X12463991Y-14522698D02*
X12473515Y-14532222D01*
X12473515Y-14532222D02*
X12483039Y-14551269D01*
X12483039Y-14551269D02*
X12483039Y-14598888D01*
X12483039Y-14598888D02*
X12473515Y-14617936D01*
X12473515Y-14617936D02*
X12463991Y-14627460D01*
X12463991Y-14627460D02*
X12444943Y-14636984D01*
X12444943Y-14636984D02*
X12387801Y-14636984D01*
X12387801Y-14636984D02*
X12368753Y-14627460D01*
X12368753Y-14627460D02*
X12359229Y-14617936D01*
X12568753Y-14617936D02*
X12578277Y-14627460D01*
X12578277Y-14627460D02*
X12568753Y-14636984D01*
X12568753Y-14636984D02*
X12559229Y-14627460D01*
X12559229Y-14627460D02*
X12568753Y-14617936D01*
X12568753Y-14617936D02*
X12568753Y-14636984D01*
X12673515Y-14636984D02*
X12711610Y-14636984D01*
X12711610Y-14636984D02*
X12730658Y-14627460D01*
X12730658Y-14627460D02*
X12740182Y-14617936D01*
X12740182Y-14617936D02*
X12759229Y-14589365D01*
X12759229Y-14589365D02*
X12768753Y-14551269D01*
X12768753Y-14551269D02*
X12768753Y-14475079D01*
X12768753Y-14475079D02*
X12759229Y-14456031D01*
X12759229Y-14456031D02*
X12749705Y-14446508D01*
X12749705Y-14446508D02*
X12730658Y-14436984D01*
X12730658Y-14436984D02*
X12692562Y-14436984D01*
X12692562Y-14436984D02*
X12673515Y-14446508D01*
X12673515Y-14446508D02*
X12663991Y-14456031D01*
X12663991Y-14456031D02*
X12654467Y-14475079D01*
X12654467Y-14475079D02*
X12654467Y-14522698D01*
X12654467Y-14522698D02*
X12663991Y-14541746D01*
X12663991Y-14541746D02*
X12673515Y-14551269D01*
X12673515Y-14551269D02*
X12692562Y-14560793D01*
X12692562Y-14560793D02*
X12730658Y-14560793D01*
X12730658Y-14560793D02*
X12749705Y-14551269D01*
X12749705Y-14551269D02*
X12759229Y-14541746D01*
X12759229Y-14541746D02*
X12768753Y-14522698D01*
X12883039Y-14522698D02*
X12863991Y-14513174D01*
X12863991Y-14513174D02*
X12854467Y-14503650D01*
X12854467Y-14503650D02*
X12844943Y-14484603D01*
X12844943Y-14484603D02*
X12844943Y-14475079D01*
X12844943Y-14475079D02*
X12854467Y-14456031D01*
X12854467Y-14456031D02*
X12863991Y-14446508D01*
X12863991Y-14446508D02*
X12883039Y-14436984D01*
X12883039Y-14436984D02*
X12921134Y-14436984D01*
X12921134Y-14436984D02*
X12940182Y-14446508D01*
X12940182Y-14446508D02*
X12949705Y-14456031D01*
X12949705Y-14456031D02*
X12959229Y-14475079D01*
X12959229Y-14475079D02*
X12959229Y-14484603D01*
X12959229Y-14484603D02*
X12949705Y-14503650D01*
X12949705Y-14503650D02*
X12940182Y-14513174D01*
X12940182Y-14513174D02*
X12921134Y-14522698D01*
X12921134Y-14522698D02*
X12883039Y-14522698D01*
X12883039Y-14522698D02*
X12863991Y-14532222D01*
X12863991Y-14532222D02*
X12854467Y-14541746D01*
X12854467Y-14541746D02*
X12844943Y-14560793D01*
X12844943Y-14560793D02*
X12844943Y-14598888D01*
X12844943Y-14598888D02*
X12854467Y-14617936D01*
X12854467Y-14617936D02*
X12863991Y-14627460D01*
X12863991Y-14627460D02*
X12883039Y-14636984D01*
X12883039Y-14636984D02*
X12921134Y-14636984D01*
X12921134Y-14636984D02*
X12940182Y-14627460D01*
X12940182Y-14627460D02*
X12949705Y-14617936D01*
X12949705Y-14617936D02*
X12959229Y-14598888D01*
X12959229Y-14598888D02*
X12959229Y-14560793D01*
X12959229Y-14560793D02*
X12949705Y-14541746D01*
X12949705Y-14541746D02*
X12940182Y-14532222D01*
X12940182Y-14532222D02*
X12921134Y-14522698D01*
X13073515Y-14522698D02*
X13054467Y-14513174D01*
X13054467Y-14513174D02*
X13044943Y-14503650D01*
X13044943Y-14503650D02*
X13035420Y-14484603D01*
X13035420Y-14484603D02*
X13035420Y-14475079D01*
X13035420Y-14475079D02*
X13044943Y-14456031D01*
X13044943Y-14456031D02*
X13054467Y-14446508D01*
X13054467Y-14446508D02*
X13073515Y-14436984D01*
X13073515Y-14436984D02*
X13111610Y-14436984D01*
X13111610Y-14436984D02*
X13130658Y-14446508D01*
X13130658Y-14446508D02*
X13140182Y-14456031D01*
X13140182Y-14456031D02*
X13149705Y-14475079D01*
X13149705Y-14475079D02*
X13149705Y-14484603D01*
X13149705Y-14484603D02*
X13140182Y-14503650D01*
X13140182Y-14503650D02*
X13130658Y-14513174D01*
X13130658Y-14513174D02*
X13111610Y-14522698D01*
X13111610Y-14522698D02*
X13073515Y-14522698D01*
X13073515Y-14522698D02*
X13054467Y-14532222D01*
X13054467Y-14532222D02*
X13044943Y-14541746D01*
X13044943Y-14541746D02*
X13035420Y-14560793D01*
X13035420Y-14560793D02*
X13035420Y-14598888D01*
X13035420Y-14598888D02*
X13044943Y-14617936D01*
X13044943Y-14617936D02*
X13054467Y-14627460D01*
X13054467Y-14627460D02*
X13073515Y-14636984D01*
X13073515Y-14636984D02*
X13111610Y-14636984D01*
X13111610Y-14636984D02*
X13130658Y-14627460D01*
X13130658Y-14627460D02*
X13140182Y-14617936D01*
X13140182Y-14617936D02*
X13149705Y-14598888D01*
X13149705Y-14598888D02*
X13149705Y-14560793D01*
X13149705Y-14560793D02*
X13140182Y-14541746D01*
X13140182Y-14541746D02*
X13130658Y-14532222D01*
X13130658Y-14532222D02*
X13111610Y-14522698D01*
X13235420Y-14636984D02*
X13235420Y-14503650D01*
X13235420Y-14522698D02*
X13244943Y-14513174D01*
X13244943Y-14513174D02*
X13263991Y-14503650D01*
X13263991Y-14503650D02*
X13292563Y-14503650D01*
X13292563Y-14503650D02*
X13311610Y-14513174D01*
X13311610Y-14513174D02*
X13321134Y-14532222D01*
X13321134Y-14532222D02*
X13321134Y-14636984D01*
X13321134Y-14532222D02*
X13330658Y-14513174D01*
X13330658Y-14513174D02*
X13349705Y-14503650D01*
X13349705Y-14503650D02*
X13378277Y-14503650D01*
X13378277Y-14503650D02*
X13397324Y-14513174D01*
X13397324Y-14513174D02*
X13406848Y-14532222D01*
X13406848Y-14532222D02*
X13406848Y-14636984D01*
X13502086Y-14636984D02*
X13502086Y-14503650D01*
X13502086Y-14522698D02*
X13511610Y-14513174D01*
X13511610Y-14513174D02*
X13530658Y-14503650D01*
X13530658Y-14503650D02*
X13559229Y-14503650D01*
X13559229Y-14503650D02*
X13578277Y-14513174D01*
X13578277Y-14513174D02*
X13587801Y-14532222D01*
X13587801Y-14532222D02*
X13587801Y-14636984D01*
X13587801Y-14532222D02*
X13597324Y-14513174D01*
X13597324Y-14513174D02*
X13616372Y-14503650D01*
X13616372Y-14503650D02*
X13644943Y-14503650D01*
X13644943Y-14503650D02*
X13663991Y-14513174D01*
X13663991Y-14513174D02*
X13673515Y-14532222D01*
X13673515Y-14532222D02*
X13673515Y-14636984D01*
X14063991Y-14427460D02*
X13892563Y-14684603D01*
X14321134Y-14436984D02*
X14340182Y-14436984D01*
X14340182Y-14436984D02*
X14359229Y-14446508D01*
X14359229Y-14446508D02*
X14368753Y-14456031D01*
X14368753Y-14456031D02*
X14378277Y-14475079D01*
X14378277Y-14475079D02*
X14387801Y-14513174D01*
X14387801Y-14513174D02*
X14387801Y-14560793D01*
X14387801Y-14560793D02*
X14378277Y-14598888D01*
X14378277Y-14598888D02*
X14368753Y-14617936D01*
X14368753Y-14617936D02*
X14359229Y-14627460D01*
X14359229Y-14627460D02*
X14340182Y-14636984D01*
X14340182Y-14636984D02*
X14321134Y-14636984D01*
X14321134Y-14636984D02*
X14302086Y-14627460D01*
X14302086Y-14627460D02*
X14292563Y-14617936D01*
X14292563Y-14617936D02*
X14283039Y-14598888D01*
X14283039Y-14598888D02*
X14273515Y-14560793D01*
X14273515Y-14560793D02*
X14273515Y-14513174D01*
X14273515Y-14513174D02*
X14283039Y-14475079D01*
X14283039Y-14475079D02*
X14292563Y-14456031D01*
X14292563Y-14456031D02*
X14302086Y-14446508D01*
X14302086Y-14446508D02*
X14321134Y-14436984D01*
X14473515Y-14617936D02*
X14483039Y-14627460D01*
X14483039Y-14627460D02*
X14473515Y-14636984D01*
X14473515Y-14636984D02*
X14463991Y-14627460D01*
X14463991Y-14627460D02*
X14473515Y-14617936D01*
X14473515Y-14617936D02*
X14473515Y-14636984D01*
X14673515Y-14636984D02*
X14559229Y-14636984D01*
X14616372Y-14636984D02*
X14616372Y-14436984D01*
X14616372Y-14436984D02*
X14597325Y-14465555D01*
X14597325Y-14465555D02*
X14578277Y-14484603D01*
X14578277Y-14484603D02*
X14559229Y-14494127D01*
X14854467Y-14436984D02*
X14759229Y-14436984D01*
X14759229Y-14436984D02*
X14749706Y-14532222D01*
X14749706Y-14532222D02*
X14759229Y-14522698D01*
X14759229Y-14522698D02*
X14778277Y-14513174D01*
X14778277Y-14513174D02*
X14825896Y-14513174D01*
X14825896Y-14513174D02*
X14844944Y-14522698D01*
X14844944Y-14522698D02*
X14854467Y-14532222D01*
X14854467Y-14532222D02*
X14863991Y-14551269D01*
X14863991Y-14551269D02*
X14863991Y-14598888D01*
X14863991Y-14598888D02*
X14854467Y-14617936D01*
X14854467Y-14617936D02*
X14844944Y-14627460D01*
X14844944Y-14627460D02*
X14825896Y-14636984D01*
X14825896Y-14636984D02*
X14778277Y-14636984D01*
X14778277Y-14636984D02*
X14759229Y-14627460D01*
X14759229Y-14627460D02*
X14749706Y-14617936D01*
X14930658Y-14436984D02*
X15063991Y-14436984D01*
X15063991Y-14436984D02*
X14978277Y-14636984D01*
X15178277Y-14436984D02*
X15197325Y-14436984D01*
X15197325Y-14436984D02*
X15216372Y-14446508D01*
X15216372Y-14446508D02*
X15225896Y-14456031D01*
X15225896Y-14456031D02*
X15235420Y-14475079D01*
X15235420Y-14475079D02*
X15244944Y-14513174D01*
X15244944Y-14513174D02*
X15244944Y-14560793D01*
X15244944Y-14560793D02*
X15235420Y-14598888D01*
X15235420Y-14598888D02*
X15225896Y-14617936D01*
X15225896Y-14617936D02*
X15216372Y-14627460D01*
X15216372Y-14627460D02*
X15197325Y-14636984D01*
X15197325Y-14636984D02*
X15178277Y-14636984D01*
X15178277Y-14636984D02*
X15159229Y-14627460D01*
X15159229Y-14627460D02*
X15149706Y-14617936D01*
X15149706Y-14617936D02*
X15140182Y-14598888D01*
X15140182Y-14598888D02*
X15130658Y-14560793D01*
X15130658Y-14560793D02*
X15130658Y-14513174D01*
X15130658Y-14513174D02*
X15140182Y-14475079D01*
X15140182Y-14475079D02*
X15149706Y-14456031D01*
X15149706Y-14456031D02*
X15159229Y-14446508D01*
X15159229Y-14446508D02*
X15178277Y-14436984D01*
X15321134Y-14436984D02*
X15321134Y-14475079D01*
X15397325Y-14436984D02*
X15397325Y-14475079D01*
X15692563Y-14713174D02*
X15683039Y-14703650D01*
X15683039Y-14703650D02*
X15663991Y-14675079D01*
X15663991Y-14675079D02*
X15654468Y-14656031D01*
X15654468Y-14656031D02*
X15644944Y-14627460D01*
X15644944Y-14627460D02*
X15635420Y-14579841D01*
X15635420Y-14579841D02*
X15635420Y-14541746D01*
X15635420Y-14541746D02*
X15644944Y-14494127D01*
X15644944Y-14494127D02*
X15654468Y-14465555D01*
X15654468Y-14465555D02*
X15663991Y-14446508D01*
X15663991Y-14446508D02*
X15683039Y-14417936D01*
X15683039Y-14417936D02*
X15692563Y-14408412D01*
X15759229Y-14456031D02*
X15768753Y-14446508D01*
X15768753Y-14446508D02*
X15787801Y-14436984D01*
X15787801Y-14436984D02*
X15835420Y-14436984D01*
X15835420Y-14436984D02*
X15854468Y-14446508D01*
X15854468Y-14446508D02*
X15863991Y-14456031D01*
X15863991Y-14456031D02*
X15873515Y-14475079D01*
X15873515Y-14475079D02*
X15873515Y-14494127D01*
X15873515Y-14494127D02*
X15863991Y-14522698D01*
X15863991Y-14522698D02*
X15749706Y-14636984D01*
X15749706Y-14636984D02*
X15873515Y-14636984D01*
X16111610Y-14636984D02*
X16111610Y-14436984D01*
X16197325Y-14636984D02*
X16197325Y-14532222D01*
X16197325Y-14532222D02*
X16187801Y-14513174D01*
X16187801Y-14513174D02*
X16168753Y-14503650D01*
X16168753Y-14503650D02*
X16140182Y-14503650D01*
X16140182Y-14503650D02*
X16121134Y-14513174D01*
X16121134Y-14513174D02*
X16111610Y-14522698D01*
X16321134Y-14636984D02*
X16302087Y-14627460D01*
X16302087Y-14627460D02*
X16292563Y-14617936D01*
X16292563Y-14617936D02*
X16283039Y-14598888D01*
X16283039Y-14598888D02*
X16283039Y-14541746D01*
X16283039Y-14541746D02*
X16292563Y-14522698D01*
X16292563Y-14522698D02*
X16302087Y-14513174D01*
X16302087Y-14513174D02*
X16321134Y-14503650D01*
X16321134Y-14503650D02*
X16349706Y-14503650D01*
X16349706Y-14503650D02*
X16368753Y-14513174D01*
X16368753Y-14513174D02*
X16378277Y-14522698D01*
X16378277Y-14522698D02*
X16387801Y-14541746D01*
X16387801Y-14541746D02*
X16387801Y-14598888D01*
X16387801Y-14598888D02*
X16378277Y-14617936D01*
X16378277Y-14617936D02*
X16368753Y-14627460D01*
X16368753Y-14627460D02*
X16349706Y-14636984D01*
X16349706Y-14636984D02*
X16321134Y-14636984D01*
X16502087Y-14636984D02*
X16483039Y-14627460D01*
X16483039Y-14627460D02*
X16473515Y-14608412D01*
X16473515Y-14608412D02*
X16473515Y-14436984D01*
X16654468Y-14627460D02*
X16635420Y-14636984D01*
X16635420Y-14636984D02*
X16597325Y-14636984D01*
X16597325Y-14636984D02*
X16578277Y-14627460D01*
X16578277Y-14627460D02*
X16568753Y-14608412D01*
X16568753Y-14608412D02*
X16568753Y-14532222D01*
X16568753Y-14532222D02*
X16578277Y-14513174D01*
X16578277Y-14513174D02*
X16597325Y-14503650D01*
X16597325Y-14503650D02*
X16635420Y-14503650D01*
X16635420Y-14503650D02*
X16654468Y-14513174D01*
X16654468Y-14513174D02*
X16663991Y-14532222D01*
X16663991Y-14532222D02*
X16663991Y-14551269D01*
X16663991Y-14551269D02*
X16568753Y-14570317D01*
X16740182Y-14627460D02*
X16759230Y-14636984D01*
X16759230Y-14636984D02*
X16797325Y-14636984D01*
X16797325Y-14636984D02*
X16816373Y-14627460D01*
X16816373Y-14627460D02*
X16825896Y-14608412D01*
X16825896Y-14608412D02*
X16825896Y-14598888D01*
X16825896Y-14598888D02*
X16816373Y-14579841D01*
X16816373Y-14579841D02*
X16797325Y-14570317D01*
X16797325Y-14570317D02*
X16768753Y-14570317D01*
X16768753Y-14570317D02*
X16749706Y-14560793D01*
X16749706Y-14560793D02*
X16740182Y-14541746D01*
X16740182Y-14541746D02*
X16740182Y-14532222D01*
X16740182Y-14532222D02*
X16749706Y-14513174D01*
X16749706Y-14513174D02*
X16768753Y-14503650D01*
X16768753Y-14503650D02*
X16797325Y-14503650D01*
X16797325Y-14503650D02*
X16816373Y-14513174D01*
X16892563Y-14713174D02*
X16902087Y-14703650D01*
X16902087Y-14703650D02*
X16921134Y-14675079D01*
X16921134Y-14675079D02*
X16930658Y-14656031D01*
X16930658Y-14656031D02*
X16940182Y-14627460D01*
X16940182Y-14627460D02*
X16949706Y-14579841D01*
X16949706Y-14579841D02*
X16949706Y-14541746D01*
X16949706Y-14541746D02*
X16940182Y-14494127D01*
X16940182Y-14494127D02*
X16930658Y-14465555D01*
X16930658Y-14465555D02*
X16921134Y-14446508D01*
X16921134Y-14446508D02*
X16902087Y-14417936D01*
X16902087Y-14417936D02*
X16892563Y-14408412D01*
X17254468Y-14713174D02*
X17244944Y-14703650D01*
X17244944Y-14703650D02*
X17225896Y-14675079D01*
X17225896Y-14675079D02*
X17216373Y-14656031D01*
X17216373Y-14656031D02*
X17206849Y-14627460D01*
X17206849Y-14627460D02*
X17197325Y-14579841D01*
X17197325Y-14579841D02*
X17197325Y-14541746D01*
X17197325Y-14541746D02*
X17206849Y-14494127D01*
X17206849Y-14494127D02*
X17216373Y-14465555D01*
X17216373Y-14465555D02*
X17225896Y-14446508D01*
X17225896Y-14446508D02*
X17244944Y-14417936D01*
X17244944Y-14417936D02*
X17254468Y-14408412D01*
X17330658Y-14503650D02*
X17330658Y-14636984D01*
X17330658Y-14522698D02*
X17340182Y-14513174D01*
X17340182Y-14513174D02*
X17359230Y-14503650D01*
X17359230Y-14503650D02*
X17387801Y-14503650D01*
X17387801Y-14503650D02*
X17406849Y-14513174D01*
X17406849Y-14513174D02*
X17416373Y-14532222D01*
X17416373Y-14532222D02*
X17416373Y-14636984D01*
X17540182Y-14636984D02*
X17521134Y-14627460D01*
X17521134Y-14627460D02*
X17511611Y-14617936D01*
X17511611Y-14617936D02*
X17502087Y-14598888D01*
X17502087Y-14598888D02*
X17502087Y-14541746D01*
X17502087Y-14541746D02*
X17511611Y-14522698D01*
X17511611Y-14522698D02*
X17521134Y-14513174D01*
X17521134Y-14513174D02*
X17540182Y-14503650D01*
X17540182Y-14503650D02*
X17568754Y-14503650D01*
X17568754Y-14503650D02*
X17587801Y-14513174D01*
X17587801Y-14513174D02*
X17597325Y-14522698D01*
X17597325Y-14522698D02*
X17606849Y-14541746D01*
X17606849Y-14541746D02*
X17606849Y-14598888D01*
X17606849Y-14598888D02*
X17597325Y-14617936D01*
X17597325Y-14617936D02*
X17587801Y-14627460D01*
X17587801Y-14627460D02*
X17568754Y-14636984D01*
X17568754Y-14636984D02*
X17540182Y-14636984D01*
X17663992Y-14503650D02*
X17740182Y-14503650D01*
X17692563Y-14436984D02*
X17692563Y-14608412D01*
X17692563Y-14608412D02*
X17702087Y-14627460D01*
X17702087Y-14627460D02*
X17721134Y-14636984D01*
X17721134Y-14636984D02*
X17740182Y-14636984D01*
X17959230Y-14503650D02*
X17959230Y-14703650D01*
X17959230Y-14513174D02*
X17978277Y-14503650D01*
X17978277Y-14503650D02*
X18016373Y-14503650D01*
X18016373Y-14503650D02*
X18035420Y-14513174D01*
X18035420Y-14513174D02*
X18044944Y-14522698D01*
X18044944Y-14522698D02*
X18054468Y-14541746D01*
X18054468Y-14541746D02*
X18054468Y-14598888D01*
X18054468Y-14598888D02*
X18044944Y-14617936D01*
X18044944Y-14617936D02*
X18035420Y-14627460D01*
X18035420Y-14627460D02*
X18016373Y-14636984D01*
X18016373Y-14636984D02*
X17978277Y-14636984D01*
X17978277Y-14636984D02*
X17959230Y-14627460D01*
X18168754Y-14636984D02*
X18149706Y-14627460D01*
X18149706Y-14627460D02*
X18140182Y-14608412D01*
X18140182Y-14608412D02*
X18140182Y-14436984D01*
X18330658Y-14636984D02*
X18330658Y-14532222D01*
X18330658Y-14532222D02*
X18321135Y-14513174D01*
X18321135Y-14513174D02*
X18302087Y-14503650D01*
X18302087Y-14503650D02*
X18263992Y-14503650D01*
X18263992Y-14503650D02*
X18244944Y-14513174D01*
X18330658Y-14627460D02*
X18311611Y-14636984D01*
X18311611Y-14636984D02*
X18263992Y-14636984D01*
X18263992Y-14636984D02*
X18244944Y-14627460D01*
X18244944Y-14627460D02*
X18235420Y-14608412D01*
X18235420Y-14608412D02*
X18235420Y-14589365D01*
X18235420Y-14589365D02*
X18244944Y-14570317D01*
X18244944Y-14570317D02*
X18263992Y-14560793D01*
X18263992Y-14560793D02*
X18311611Y-14560793D01*
X18311611Y-14560793D02*
X18330658Y-14551269D01*
X18397325Y-14503650D02*
X18473515Y-14503650D01*
X18425896Y-14436984D02*
X18425896Y-14608412D01*
X18425896Y-14608412D02*
X18435420Y-14627460D01*
X18435420Y-14627460D02*
X18454468Y-14636984D01*
X18454468Y-14636984D02*
X18473515Y-14636984D01*
X18616373Y-14627460D02*
X18597325Y-14636984D01*
X18597325Y-14636984D02*
X18559230Y-14636984D01*
X18559230Y-14636984D02*
X18540182Y-14627460D01*
X18540182Y-14627460D02*
X18530658Y-14608412D01*
X18530658Y-14608412D02*
X18530658Y-14532222D01*
X18530658Y-14532222D02*
X18540182Y-14513174D01*
X18540182Y-14513174D02*
X18559230Y-14503650D01*
X18559230Y-14503650D02*
X18597325Y-14503650D01*
X18597325Y-14503650D02*
X18616373Y-14513174D01*
X18616373Y-14513174D02*
X18625896Y-14532222D01*
X18625896Y-14532222D02*
X18625896Y-14551269D01*
X18625896Y-14551269D02*
X18530658Y-14570317D01*
X18797325Y-14636984D02*
X18797325Y-14436984D01*
X18797325Y-14627460D02*
X18778277Y-14636984D01*
X18778277Y-14636984D02*
X18740182Y-14636984D01*
X18740182Y-14636984D02*
X18721135Y-14627460D01*
X18721135Y-14627460D02*
X18711611Y-14617936D01*
X18711611Y-14617936D02*
X18702087Y-14598888D01*
X18702087Y-14598888D02*
X18702087Y-14541746D01*
X18702087Y-14541746D02*
X18711611Y-14522698D01*
X18711611Y-14522698D02*
X18721135Y-14513174D01*
X18721135Y-14513174D02*
X18740182Y-14503650D01*
X18740182Y-14503650D02*
X18778277Y-14503650D01*
X18778277Y-14503650D02*
X18797325Y-14513174D01*
X18873516Y-14713174D02*
X18883039Y-14703650D01*
X18883039Y-14703650D02*
X18902087Y-14675079D01*
X18902087Y-14675079D02*
X18911611Y-14656031D01*
X18911611Y-14656031D02*
X18921135Y-14627460D01*
X18921135Y-14627460D02*
X18930658Y-14579841D01*
X18930658Y-14579841D02*
X18930658Y-14541746D01*
X18930658Y-14541746D02*
X18921135Y-14494127D01*
X18921135Y-14494127D02*
X18911611Y-14465555D01*
X18911611Y-14465555D02*
X18902087Y-14446508D01*
X18902087Y-14446508D02*
X18883039Y-14417936D01*
X18883039Y-14417936D02*
X18873516Y-14408412D01*
X11917500Y-14765500D02*
X12117500Y-14965500D01*
X12117500Y-14765500D02*
X11917500Y-14965500D01*
X12017500Y-14765500D02*
X12017500Y-14965500D01*
X11917500Y-14865500D02*
X12117500Y-14865500D01*
X12463991Y-14823650D02*
X12463991Y-14956984D01*
X12416372Y-14747460D02*
X12368753Y-14890317D01*
X12368753Y-14890317D02*
X12492562Y-14890317D01*
X12568753Y-14937936D02*
X12578277Y-14947460D01*
X12578277Y-14947460D02*
X12568753Y-14956984D01*
X12568753Y-14956984D02*
X12559229Y-14947460D01*
X12559229Y-14947460D02*
X12568753Y-14937936D01*
X12568753Y-14937936D02*
X12568753Y-14956984D01*
X12702086Y-14756984D02*
X12721134Y-14756984D01*
X12721134Y-14756984D02*
X12740182Y-14766508D01*
X12740182Y-14766508D02*
X12749705Y-14776031D01*
X12749705Y-14776031D02*
X12759229Y-14795079D01*
X12759229Y-14795079D02*
X12768753Y-14833174D01*
X12768753Y-14833174D02*
X12768753Y-14880793D01*
X12768753Y-14880793D02*
X12759229Y-14918888D01*
X12759229Y-14918888D02*
X12749705Y-14937936D01*
X12749705Y-14937936D02*
X12740182Y-14947460D01*
X12740182Y-14947460D02*
X12721134Y-14956984D01*
X12721134Y-14956984D02*
X12702086Y-14956984D01*
X12702086Y-14956984D02*
X12683039Y-14947460D01*
X12683039Y-14947460D02*
X12673515Y-14937936D01*
X12673515Y-14937936D02*
X12663991Y-14918888D01*
X12663991Y-14918888D02*
X12654467Y-14880793D01*
X12654467Y-14880793D02*
X12654467Y-14833174D01*
X12654467Y-14833174D02*
X12663991Y-14795079D01*
X12663991Y-14795079D02*
X12673515Y-14776031D01*
X12673515Y-14776031D02*
X12683039Y-14766508D01*
X12683039Y-14766508D02*
X12702086Y-14756984D01*
X12892562Y-14756984D02*
X12911610Y-14756984D01*
X12911610Y-14756984D02*
X12930658Y-14766508D01*
X12930658Y-14766508D02*
X12940182Y-14776031D01*
X12940182Y-14776031D02*
X12949705Y-14795079D01*
X12949705Y-14795079D02*
X12959229Y-14833174D01*
X12959229Y-14833174D02*
X12959229Y-14880793D01*
X12959229Y-14880793D02*
X12949705Y-14918888D01*
X12949705Y-14918888D02*
X12940182Y-14937936D01*
X12940182Y-14937936D02*
X12930658Y-14947460D01*
X12930658Y-14947460D02*
X12911610Y-14956984D01*
X12911610Y-14956984D02*
X12892562Y-14956984D01*
X12892562Y-14956984D02*
X12873515Y-14947460D01*
X12873515Y-14947460D02*
X12863991Y-14937936D01*
X12863991Y-14937936D02*
X12854467Y-14918888D01*
X12854467Y-14918888D02*
X12844943Y-14880793D01*
X12844943Y-14880793D02*
X12844943Y-14833174D01*
X12844943Y-14833174D02*
X12854467Y-14795079D01*
X12854467Y-14795079D02*
X12863991Y-14776031D01*
X12863991Y-14776031D02*
X12873515Y-14766508D01*
X12873515Y-14766508D02*
X12892562Y-14756984D01*
X13083039Y-14756984D02*
X13102086Y-14756984D01*
X13102086Y-14756984D02*
X13121134Y-14766508D01*
X13121134Y-14766508D02*
X13130658Y-14776031D01*
X13130658Y-14776031D02*
X13140182Y-14795079D01*
X13140182Y-14795079D02*
X13149705Y-14833174D01*
X13149705Y-14833174D02*
X13149705Y-14880793D01*
X13149705Y-14880793D02*
X13140182Y-14918888D01*
X13140182Y-14918888D02*
X13130658Y-14937936D01*
X13130658Y-14937936D02*
X13121134Y-14947460D01*
X13121134Y-14947460D02*
X13102086Y-14956984D01*
X13102086Y-14956984D02*
X13083039Y-14956984D01*
X13083039Y-14956984D02*
X13063991Y-14947460D01*
X13063991Y-14947460D02*
X13054467Y-14937936D01*
X13054467Y-14937936D02*
X13044943Y-14918888D01*
X13044943Y-14918888D02*
X13035420Y-14880793D01*
X13035420Y-14880793D02*
X13035420Y-14833174D01*
X13035420Y-14833174D02*
X13044943Y-14795079D01*
X13044943Y-14795079D02*
X13054467Y-14776031D01*
X13054467Y-14776031D02*
X13063991Y-14766508D01*
X13063991Y-14766508D02*
X13083039Y-14756984D01*
X13235420Y-14956984D02*
X13235420Y-14823650D01*
X13235420Y-14842698D02*
X13244943Y-14833174D01*
X13244943Y-14833174D02*
X13263991Y-14823650D01*
X13263991Y-14823650D02*
X13292563Y-14823650D01*
X13292563Y-14823650D02*
X13311610Y-14833174D01*
X13311610Y-14833174D02*
X13321134Y-14852222D01*
X13321134Y-14852222D02*
X13321134Y-14956984D01*
X13321134Y-14852222D02*
X13330658Y-14833174D01*
X13330658Y-14833174D02*
X13349705Y-14823650D01*
X13349705Y-14823650D02*
X13378277Y-14823650D01*
X13378277Y-14823650D02*
X13397324Y-14833174D01*
X13397324Y-14833174D02*
X13406848Y-14852222D01*
X13406848Y-14852222D02*
X13406848Y-14956984D01*
X13502086Y-14956984D02*
X13502086Y-14823650D01*
X13502086Y-14842698D02*
X13511610Y-14833174D01*
X13511610Y-14833174D02*
X13530658Y-14823650D01*
X13530658Y-14823650D02*
X13559229Y-14823650D01*
X13559229Y-14823650D02*
X13578277Y-14833174D01*
X13578277Y-14833174D02*
X13587801Y-14852222D01*
X13587801Y-14852222D02*
X13587801Y-14956984D01*
X13587801Y-14852222D02*
X13597324Y-14833174D01*
X13597324Y-14833174D02*
X13616372Y-14823650D01*
X13616372Y-14823650D02*
X13644943Y-14823650D01*
X13644943Y-14823650D02*
X13663991Y-14833174D01*
X13663991Y-14833174D02*
X13673515Y-14852222D01*
X13673515Y-14852222D02*
X13673515Y-14956984D01*
X14063991Y-14747460D02*
X13892563Y-15004603D01*
X14321134Y-14756984D02*
X14340182Y-14756984D01*
X14340182Y-14756984D02*
X14359229Y-14766508D01*
X14359229Y-14766508D02*
X14368753Y-14776031D01*
X14368753Y-14776031D02*
X14378277Y-14795079D01*
X14378277Y-14795079D02*
X14387801Y-14833174D01*
X14387801Y-14833174D02*
X14387801Y-14880793D01*
X14387801Y-14880793D02*
X14378277Y-14918888D01*
X14378277Y-14918888D02*
X14368753Y-14937936D01*
X14368753Y-14937936D02*
X14359229Y-14947460D01*
X14359229Y-14947460D02*
X14340182Y-14956984D01*
X14340182Y-14956984D02*
X14321134Y-14956984D01*
X14321134Y-14956984D02*
X14302086Y-14947460D01*
X14302086Y-14947460D02*
X14292563Y-14937936D01*
X14292563Y-14937936D02*
X14283039Y-14918888D01*
X14283039Y-14918888D02*
X14273515Y-14880793D01*
X14273515Y-14880793D02*
X14273515Y-14833174D01*
X14273515Y-14833174D02*
X14283039Y-14795079D01*
X14283039Y-14795079D02*
X14292563Y-14776031D01*
X14292563Y-14776031D02*
X14302086Y-14766508D01*
X14302086Y-14766508D02*
X14321134Y-14756984D01*
X14473515Y-14937936D02*
X14483039Y-14947460D01*
X14483039Y-14947460D02*
X14473515Y-14956984D01*
X14473515Y-14956984D02*
X14463991Y-14947460D01*
X14463991Y-14947460D02*
X14473515Y-14937936D01*
X14473515Y-14937936D02*
X14473515Y-14956984D01*
X14673515Y-14956984D02*
X14559229Y-14956984D01*
X14616372Y-14956984D02*
X14616372Y-14756984D01*
X14616372Y-14756984D02*
X14597325Y-14785555D01*
X14597325Y-14785555D02*
X14578277Y-14804603D01*
X14578277Y-14804603D02*
X14559229Y-14814127D01*
X14854467Y-14756984D02*
X14759229Y-14756984D01*
X14759229Y-14756984D02*
X14749706Y-14852222D01*
X14749706Y-14852222D02*
X14759229Y-14842698D01*
X14759229Y-14842698D02*
X14778277Y-14833174D01*
X14778277Y-14833174D02*
X14825896Y-14833174D01*
X14825896Y-14833174D02*
X14844944Y-14842698D01*
X14844944Y-14842698D02*
X14854467Y-14852222D01*
X14854467Y-14852222D02*
X14863991Y-14871269D01*
X14863991Y-14871269D02*
X14863991Y-14918888D01*
X14863991Y-14918888D02*
X14854467Y-14937936D01*
X14854467Y-14937936D02*
X14844944Y-14947460D01*
X14844944Y-14947460D02*
X14825896Y-14956984D01*
X14825896Y-14956984D02*
X14778277Y-14956984D01*
X14778277Y-14956984D02*
X14759229Y-14947460D01*
X14759229Y-14947460D02*
X14749706Y-14937936D01*
X14930658Y-14756984D02*
X15063991Y-14756984D01*
X15063991Y-14756984D02*
X14978277Y-14956984D01*
X15235420Y-14756984D02*
X15140182Y-14756984D01*
X15140182Y-14756984D02*
X15130658Y-14852222D01*
X15130658Y-14852222D02*
X15140182Y-14842698D01*
X15140182Y-14842698D02*
X15159229Y-14833174D01*
X15159229Y-14833174D02*
X15206848Y-14833174D01*
X15206848Y-14833174D02*
X15225896Y-14842698D01*
X15225896Y-14842698D02*
X15235420Y-14852222D01*
X15235420Y-14852222D02*
X15244944Y-14871269D01*
X15244944Y-14871269D02*
X15244944Y-14918888D01*
X15244944Y-14918888D02*
X15235420Y-14937936D01*
X15235420Y-14937936D02*
X15225896Y-14947460D01*
X15225896Y-14947460D02*
X15206848Y-14956984D01*
X15206848Y-14956984D02*
X15159229Y-14956984D01*
X15159229Y-14956984D02*
X15140182Y-14947460D01*
X15140182Y-14947460D02*
X15130658Y-14937936D01*
X15321134Y-14756984D02*
X15321134Y-14795079D01*
X15397325Y-14756984D02*
X15397325Y-14795079D01*
X15692563Y-15033174D02*
X15683039Y-15023650D01*
X15683039Y-15023650D02*
X15663991Y-14995079D01*
X15663991Y-14995079D02*
X15654468Y-14976031D01*
X15654468Y-14976031D02*
X15644944Y-14947460D01*
X15644944Y-14947460D02*
X15635420Y-14899841D01*
X15635420Y-14899841D02*
X15635420Y-14861746D01*
X15635420Y-14861746D02*
X15644944Y-14814127D01*
X15644944Y-14814127D02*
X15654468Y-14785555D01*
X15654468Y-14785555D02*
X15663991Y-14766508D01*
X15663991Y-14766508D02*
X15683039Y-14737936D01*
X15683039Y-14737936D02*
X15692563Y-14728412D01*
X15854468Y-14756984D02*
X15816372Y-14756984D01*
X15816372Y-14756984D02*
X15797325Y-14766508D01*
X15797325Y-14766508D02*
X15787801Y-14776031D01*
X15787801Y-14776031D02*
X15768753Y-14804603D01*
X15768753Y-14804603D02*
X15759229Y-14842698D01*
X15759229Y-14842698D02*
X15759229Y-14918888D01*
X15759229Y-14918888D02*
X15768753Y-14937936D01*
X15768753Y-14937936D02*
X15778277Y-14947460D01*
X15778277Y-14947460D02*
X15797325Y-14956984D01*
X15797325Y-14956984D02*
X15835420Y-14956984D01*
X15835420Y-14956984D02*
X15854468Y-14947460D01*
X15854468Y-14947460D02*
X15863991Y-14937936D01*
X15863991Y-14937936D02*
X15873515Y-14918888D01*
X15873515Y-14918888D02*
X15873515Y-14871269D01*
X15873515Y-14871269D02*
X15863991Y-14852222D01*
X15863991Y-14852222D02*
X15854468Y-14842698D01*
X15854468Y-14842698D02*
X15835420Y-14833174D01*
X15835420Y-14833174D02*
X15797325Y-14833174D01*
X15797325Y-14833174D02*
X15778277Y-14842698D01*
X15778277Y-14842698D02*
X15768753Y-14852222D01*
X15768753Y-14852222D02*
X15759229Y-14871269D01*
X16111610Y-14956984D02*
X16111610Y-14756984D01*
X16197325Y-14956984D02*
X16197325Y-14852222D01*
X16197325Y-14852222D02*
X16187801Y-14833174D01*
X16187801Y-14833174D02*
X16168753Y-14823650D01*
X16168753Y-14823650D02*
X16140182Y-14823650D01*
X16140182Y-14823650D02*
X16121134Y-14833174D01*
X16121134Y-14833174D02*
X16111610Y-14842698D01*
X16321134Y-14956984D02*
X16302087Y-14947460D01*
X16302087Y-14947460D02*
X16292563Y-14937936D01*
X16292563Y-14937936D02*
X16283039Y-14918888D01*
X16283039Y-14918888D02*
X16283039Y-14861746D01*
X16283039Y-14861746D02*
X16292563Y-14842698D01*
X16292563Y-14842698D02*
X16302087Y-14833174D01*
X16302087Y-14833174D02*
X16321134Y-14823650D01*
X16321134Y-14823650D02*
X16349706Y-14823650D01*
X16349706Y-14823650D02*
X16368753Y-14833174D01*
X16368753Y-14833174D02*
X16378277Y-14842698D01*
X16378277Y-14842698D02*
X16387801Y-14861746D01*
X16387801Y-14861746D02*
X16387801Y-14918888D01*
X16387801Y-14918888D02*
X16378277Y-14937936D01*
X16378277Y-14937936D02*
X16368753Y-14947460D01*
X16368753Y-14947460D02*
X16349706Y-14956984D01*
X16349706Y-14956984D02*
X16321134Y-14956984D01*
X16502087Y-14956984D02*
X16483039Y-14947460D01*
X16483039Y-14947460D02*
X16473515Y-14928412D01*
X16473515Y-14928412D02*
X16473515Y-14756984D01*
X16654468Y-14947460D02*
X16635420Y-14956984D01*
X16635420Y-14956984D02*
X16597325Y-14956984D01*
X16597325Y-14956984D02*
X16578277Y-14947460D01*
X16578277Y-14947460D02*
X16568753Y-14928412D01*
X16568753Y-14928412D02*
X16568753Y-14852222D01*
X16568753Y-14852222D02*
X16578277Y-14833174D01*
X16578277Y-14833174D02*
X16597325Y-14823650D01*
X16597325Y-14823650D02*
X16635420Y-14823650D01*
X16635420Y-14823650D02*
X16654468Y-14833174D01*
X16654468Y-14833174D02*
X16663991Y-14852222D01*
X16663991Y-14852222D02*
X16663991Y-14871269D01*
X16663991Y-14871269D02*
X16568753Y-14890317D01*
X16740182Y-14947460D02*
X16759230Y-14956984D01*
X16759230Y-14956984D02*
X16797325Y-14956984D01*
X16797325Y-14956984D02*
X16816373Y-14947460D01*
X16816373Y-14947460D02*
X16825896Y-14928412D01*
X16825896Y-14928412D02*
X16825896Y-14918888D01*
X16825896Y-14918888D02*
X16816373Y-14899841D01*
X16816373Y-14899841D02*
X16797325Y-14890317D01*
X16797325Y-14890317D02*
X16768753Y-14890317D01*
X16768753Y-14890317D02*
X16749706Y-14880793D01*
X16749706Y-14880793D02*
X16740182Y-14861746D01*
X16740182Y-14861746D02*
X16740182Y-14852222D01*
X16740182Y-14852222D02*
X16749706Y-14833174D01*
X16749706Y-14833174D02*
X16768753Y-14823650D01*
X16768753Y-14823650D02*
X16797325Y-14823650D01*
X16797325Y-14823650D02*
X16816373Y-14833174D01*
X16892563Y-15033174D02*
X16902087Y-15023650D01*
X16902087Y-15023650D02*
X16921134Y-14995079D01*
X16921134Y-14995079D02*
X16930658Y-14976031D01*
X16930658Y-14976031D02*
X16940182Y-14947460D01*
X16940182Y-14947460D02*
X16949706Y-14899841D01*
X16949706Y-14899841D02*
X16949706Y-14861746D01*
X16949706Y-14861746D02*
X16940182Y-14814127D01*
X16940182Y-14814127D02*
X16930658Y-14785555D01*
X16930658Y-14785555D02*
X16921134Y-14766508D01*
X16921134Y-14766508D02*
X16902087Y-14737936D01*
X16902087Y-14737936D02*
X16892563Y-14728412D01*
X17254468Y-15033174D02*
X17244944Y-15023650D01*
X17244944Y-15023650D02*
X17225896Y-14995079D01*
X17225896Y-14995079D02*
X17216373Y-14976031D01*
X17216373Y-14976031D02*
X17206849Y-14947460D01*
X17206849Y-14947460D02*
X17197325Y-14899841D01*
X17197325Y-14899841D02*
X17197325Y-14861746D01*
X17197325Y-14861746D02*
X17206849Y-14814127D01*
X17206849Y-14814127D02*
X17216373Y-14785555D01*
X17216373Y-14785555D02*
X17225896Y-14766508D01*
X17225896Y-14766508D02*
X17244944Y-14737936D01*
X17244944Y-14737936D02*
X17254468Y-14728412D01*
X17330658Y-14823650D02*
X17330658Y-14956984D01*
X17330658Y-14842698D02*
X17340182Y-14833174D01*
X17340182Y-14833174D02*
X17359230Y-14823650D01*
X17359230Y-14823650D02*
X17387801Y-14823650D01*
X17387801Y-14823650D02*
X17406849Y-14833174D01*
X17406849Y-14833174D02*
X17416373Y-14852222D01*
X17416373Y-14852222D02*
X17416373Y-14956984D01*
X17540182Y-14956984D02*
X17521134Y-14947460D01*
X17521134Y-14947460D02*
X17511611Y-14937936D01*
X17511611Y-14937936D02*
X17502087Y-14918888D01*
X17502087Y-14918888D02*
X17502087Y-14861746D01*
X17502087Y-14861746D02*
X17511611Y-14842698D01*
X17511611Y-14842698D02*
X17521134Y-14833174D01*
X17521134Y-14833174D02*
X17540182Y-14823650D01*
X17540182Y-14823650D02*
X17568754Y-14823650D01*
X17568754Y-14823650D02*
X17587801Y-14833174D01*
X17587801Y-14833174D02*
X17597325Y-14842698D01*
X17597325Y-14842698D02*
X17606849Y-14861746D01*
X17606849Y-14861746D02*
X17606849Y-14918888D01*
X17606849Y-14918888D02*
X17597325Y-14937936D01*
X17597325Y-14937936D02*
X17587801Y-14947460D01*
X17587801Y-14947460D02*
X17568754Y-14956984D01*
X17568754Y-14956984D02*
X17540182Y-14956984D01*
X17663992Y-14823650D02*
X17740182Y-14823650D01*
X17692563Y-14756984D02*
X17692563Y-14928412D01*
X17692563Y-14928412D02*
X17702087Y-14947460D01*
X17702087Y-14947460D02*
X17721134Y-14956984D01*
X17721134Y-14956984D02*
X17740182Y-14956984D01*
X17959230Y-14823650D02*
X17959230Y-15023650D01*
X17959230Y-14833174D02*
X17978277Y-14823650D01*
X17978277Y-14823650D02*
X18016373Y-14823650D01*
X18016373Y-14823650D02*
X18035420Y-14833174D01*
X18035420Y-14833174D02*
X18044944Y-14842698D01*
X18044944Y-14842698D02*
X18054468Y-14861746D01*
X18054468Y-14861746D02*
X18054468Y-14918888D01*
X18054468Y-14918888D02*
X18044944Y-14937936D01*
X18044944Y-14937936D02*
X18035420Y-14947460D01*
X18035420Y-14947460D02*
X18016373Y-14956984D01*
X18016373Y-14956984D02*
X17978277Y-14956984D01*
X17978277Y-14956984D02*
X17959230Y-14947460D01*
X18168754Y-14956984D02*
X18149706Y-14947460D01*
X18149706Y-14947460D02*
X18140182Y-14928412D01*
X18140182Y-14928412D02*
X18140182Y-14756984D01*
X18330658Y-14956984D02*
X18330658Y-14852222D01*
X18330658Y-14852222D02*
X18321135Y-14833174D01*
X18321135Y-14833174D02*
X18302087Y-14823650D01*
X18302087Y-14823650D02*
X18263992Y-14823650D01*
X18263992Y-14823650D02*
X18244944Y-14833174D01*
X18330658Y-14947460D02*
X18311611Y-14956984D01*
X18311611Y-14956984D02*
X18263992Y-14956984D01*
X18263992Y-14956984D02*
X18244944Y-14947460D01*
X18244944Y-14947460D02*
X18235420Y-14928412D01*
X18235420Y-14928412D02*
X18235420Y-14909365D01*
X18235420Y-14909365D02*
X18244944Y-14890317D01*
X18244944Y-14890317D02*
X18263992Y-14880793D01*
X18263992Y-14880793D02*
X18311611Y-14880793D01*
X18311611Y-14880793D02*
X18330658Y-14871269D01*
X18397325Y-14823650D02*
X18473515Y-14823650D01*
X18425896Y-14756984D02*
X18425896Y-14928412D01*
X18425896Y-14928412D02*
X18435420Y-14947460D01*
X18435420Y-14947460D02*
X18454468Y-14956984D01*
X18454468Y-14956984D02*
X18473515Y-14956984D01*
X18616373Y-14947460D02*
X18597325Y-14956984D01*
X18597325Y-14956984D02*
X18559230Y-14956984D01*
X18559230Y-14956984D02*
X18540182Y-14947460D01*
X18540182Y-14947460D02*
X18530658Y-14928412D01*
X18530658Y-14928412D02*
X18530658Y-14852222D01*
X18530658Y-14852222D02*
X18540182Y-14833174D01*
X18540182Y-14833174D02*
X18559230Y-14823650D01*
X18559230Y-14823650D02*
X18597325Y-14823650D01*
X18597325Y-14823650D02*
X18616373Y-14833174D01*
X18616373Y-14833174D02*
X18625896Y-14852222D01*
X18625896Y-14852222D02*
X18625896Y-14871269D01*
X18625896Y-14871269D02*
X18530658Y-14890317D01*
X18797325Y-14956984D02*
X18797325Y-14756984D01*
X18797325Y-14947460D02*
X18778277Y-14956984D01*
X18778277Y-14956984D02*
X18740182Y-14956984D01*
X18740182Y-14956984D02*
X18721135Y-14947460D01*
X18721135Y-14947460D02*
X18711611Y-14937936D01*
X18711611Y-14937936D02*
X18702087Y-14918888D01*
X18702087Y-14918888D02*
X18702087Y-14861746D01*
X18702087Y-14861746D02*
X18711611Y-14842698D01*
X18711611Y-14842698D02*
X18721135Y-14833174D01*
X18721135Y-14833174D02*
X18740182Y-14823650D01*
X18740182Y-14823650D02*
X18778277Y-14823650D01*
X18778277Y-14823650D02*
X18797325Y-14833174D01*
X18873516Y-15033174D02*
X18883039Y-15023650D01*
X18883039Y-15023650D02*
X18902087Y-14995079D01*
X18902087Y-14995079D02*
X18911611Y-14976031D01*
X18911611Y-14976031D02*
X18921135Y-14947460D01*
X18921135Y-14947460D02*
X18930658Y-14899841D01*
X18930658Y-14899841D02*
X18930658Y-14861746D01*
X18930658Y-14861746D02*
X18921135Y-14814127D01*
X18921135Y-14814127D02*
X18911611Y-14785555D01*
X18911611Y-14785555D02*
X18902087Y-14766508D01*
X18902087Y-14766508D02*
X18883039Y-14737936D01*
X18883039Y-14737936D02*
X18873516Y-14728412D01*
M02*
