%TF.GenerationSoftware,KiCad,Pcbnew,8.0.4*%
%TF.CreationDate,2024-07-24T01:11:58-07:00*%
%TF.ProjectId,panel_1,70616e65-6c5f-4312-9e6b-696361645f70,rev?*%
%TF.SameCoordinates,Original*%
%TF.FileFunction,Soldermask,Top*%
%TF.FilePolarity,Negative*%
%FSLAX46Y46*%
G04 Gerber Fmt 4.6, Leading zero omitted, Abs format (unit mm)*
G04 Created by KiCad (PCBNEW 8.0.4) date 2024-07-24 01:11:58*
%MOMM*%
%LPD*%
G01*
G04 APERTURE LIST*
G04 Aperture macros list*
%AMRoundRect*
0 Rectangle with rounded corners*
0 $1 Rounding radius*
0 $2 $3 $4 $5 $6 $7 $8 $9 X,Y pos of 4 corners*
0 Add a 4 corners polygon primitive as box body*
4,1,4,$2,$3,$4,$5,$6,$7,$8,$9,$2,$3,0*
0 Add four circle primitives for the rounded corners*
1,1,$1+$1,$2,$3*
1,1,$1+$1,$4,$5*
1,1,$1+$1,$6,$7*
1,1,$1+$1,$8,$9*
0 Add four rect primitives between the rounded corners*
20,1,$1+$1,$2,$3,$4,$5,0*
20,1,$1+$1,$4,$5,$6,$7,0*
20,1,$1+$1,$6,$7,$8,$9,0*
20,1,$1+$1,$8,$9,$2,$3,0*%
%AMFreePoly0*
4,1,19,0.500000,-0.750000,0.000000,-0.750000,0.000000,-0.744911,-0.071157,-0.744911,-0.207708,-0.704816,-0.327430,-0.627875,-0.420627,-0.520320,-0.479746,-0.390866,-0.500000,-0.250000,-0.500000,0.250000,-0.479746,0.390866,-0.420627,0.520320,-0.327430,0.627875,-0.207708,0.704816,-0.071157,0.744911,0.000000,0.744911,0.000000,0.750000,0.500000,0.750000,0.500000,-0.750000,0.500000,-0.750000,
$1*%
%AMFreePoly1*
4,1,19,0.000000,0.744911,0.071157,0.744911,0.207708,0.704816,0.327430,0.627875,0.420627,0.520320,0.479746,0.390866,0.500000,0.250000,0.500000,-0.250000,0.479746,-0.390866,0.420627,-0.520320,0.327430,-0.627875,0.207708,-0.704816,0.071157,-0.744911,0.000000,-0.744911,0.000000,-0.750000,-0.500000,-0.750000,-0.500000,0.750000,0.000000,0.750000,0.000000,0.744911,0.000000,0.744911,
$1*%
G04 Aperture macros list end*
%ADD10RoundRect,0.140000X0.140000X0.170000X-0.140000X0.170000X-0.140000X-0.170000X0.140000X-0.170000X0*%
%ADD11FreePoly0,0.000000*%
%ADD12C,3.200000*%
%ADD13RoundRect,0.140000X-0.140000X-0.170000X0.140000X-0.170000X0.140000X0.170000X-0.140000X0.170000X0*%
%ADD14C,1.400000*%
%ADD15RoundRect,0.135000X-0.135000X-0.185000X0.135000X-0.185000X0.135000X0.185000X-0.135000X0.185000X0*%
%ADD16C,0.500000*%
%ADD17RoundRect,0.140000X0.170000X-0.140000X0.170000X0.140000X-0.170000X0.140000X-0.170000X-0.140000X0*%
%ADD18FreePoly0,90.000000*%
%ADD19C,3.048000*%
%ADD20C,3.987800*%
%ADD21RoundRect,0.375000X0.625000X0.375000X-0.625000X0.375000X-0.625000X-0.375000X0.625000X-0.375000X0*%
%ADD22RoundRect,0.500000X0.500000X1.400000X-0.500000X1.400000X-0.500000X-1.400000X0.500000X-1.400000X0*%
%ADD23C,0.650000*%
%ADD24RoundRect,0.150000X0.150000X0.420000X-0.150000X0.420000X-0.150000X-0.420000X0.150000X-0.420000X0*%
%ADD25RoundRect,0.075000X0.075000X0.495000X-0.075000X0.495000X-0.075000X-0.495000X0.075000X-0.495000X0*%
%ADD26O,1.000000X2.000000*%
%ADD27O,1.000000X1.800000*%
%ADD28O,1.000000X1.700000*%
%ADD29R,1.000000X0.750000*%
%ADD30C,1.750000*%
%ADD31C,4.000000*%
%ADD32C,2.500000*%
%ADD33RoundRect,0.135000X-0.185000X0.135000X-0.185000X-0.135000X0.185000X-0.135000X0.185000X0.135000X0*%
%ADD34R,1.200000X1.400000*%
%ADD35FreePoly1,90.000000*%
%ADD36RoundRect,0.150000X0.650000X0.150000X-0.650000X0.150000X-0.650000X-0.150000X0.650000X-0.150000X0*%
%ADD37RoundRect,0.140000X-0.170000X0.140000X-0.170000X-0.140000X0.170000X-0.140000X0.170000X0.140000X0*%
%ADD38RoundRect,0.050000X0.050000X-0.387500X0.050000X0.387500X-0.050000X0.387500X-0.050000X-0.387500X0*%
%ADD39RoundRect,0.050000X0.387500X-0.050000X0.387500X0.050000X-0.387500X0.050000X-0.387500X-0.050000X0*%
%ADD40R,3.200000X3.200000*%
%ADD41RoundRect,0.160000X-0.160000X0.197500X-0.160000X-0.197500X0.160000X-0.197500X0.160000X0.197500X0*%
%ADD42RoundRect,0.135000X0.135000X0.185000X-0.135000X0.185000X-0.135000X-0.185000X0.135000X-0.185000X0*%
G04 APERTURE END LIST*
D10*
%TO.C,C10*%
X156180000Y-41900000D03*
X155220000Y-41900000D03*
%TD*%
D11*
%TO.C,JP10*%
X215620000Y-107900000D03*
%TD*%
D12*
%TO.C,H2*%
X126200000Y-88400000D03*
%TD*%
D13*
%TO.C,C14*%
X168040000Y-41740000D03*
X169000000Y-41740000D03*
%TD*%
D14*
%TO.C,J2*%
X175580000Y-36330000D03*
X173580000Y-36330000D03*
X171580000Y-36330000D03*
%TD*%
D10*
%TO.C,C4*%
X173560000Y-38580000D03*
X172600000Y-38580000D03*
%TD*%
D15*
%TO.C,R5*%
X140451000Y-47836000D03*
X141471000Y-47836000D03*
%TD*%
D16*
%TO.C,mouse-bite-2mm-slot*%
X151400000Y-89100000D03*
X152900000Y-89100000D03*
X151400000Y-88350000D03*
X152900000Y-88350000D03*
X151400000Y-87600000D03*
X152900000Y-87600000D03*
%TD*%
D17*
%TO.C,C18*%
X138700000Y-36380000D03*
X138700000Y-35420000D03*
%TD*%
D16*
%TO.C,mouse-bite-2mm-slot*%
X171150000Y-83250000D03*
X171150000Y-81750000D03*
X170400000Y-83250000D03*
X170400000Y-81750000D03*
X169650000Y-83250000D03*
X169650000Y-81750000D03*
%TD*%
D18*
%TO.C,JP17*%
X129500000Y-95100000D03*
%TD*%
D19*
%TO.C,S1*%
X155525000Y-115898000D03*
D20*
X170735000Y-115898000D03*
D19*
X155525000Y-92022000D03*
D20*
X170735000Y-92022000D03*
%TD*%
D21*
%TO.C,U2*%
X146172000Y-42878000D03*
X146172000Y-40578000D03*
D22*
X139872000Y-40578000D03*
D21*
X146172000Y-38278000D03*
%TD*%
D17*
%TO.C,C16*%
X160580000Y-36310000D03*
X160580000Y-35350000D03*
%TD*%
D16*
%TO.C,mouse-bite-2mm-slot*%
X126250000Y-98250000D03*
X127750000Y-98250000D03*
X126250000Y-97500000D03*
X127750000Y-97500000D03*
X126250000Y-96750000D03*
X127750000Y-96750000D03*
%TD*%
D12*
%TO.C,H13*%
X144000000Y-104400000D03*
%TD*%
D23*
%TO.C,J1*%
X150695000Y-31145000D03*
D24*
X156780000Y-32215000D03*
X155980000Y-32215000D03*
D25*
X154830000Y-32215000D03*
X153830000Y-32215000D03*
X153330000Y-32215000D03*
X152330000Y-32215000D03*
D24*
X151180000Y-32215000D03*
X150380000Y-32215000D03*
X150380000Y-32215000D03*
X151180000Y-32215000D03*
D25*
X151830000Y-32215000D03*
X152830000Y-32215000D03*
X154330000Y-32215000D03*
X155330000Y-32215000D03*
D24*
X155980000Y-32215000D03*
X156780000Y-32215000D03*
D26*
X157900000Y-31645000D03*
D27*
X157900000Y-27505000D03*
D26*
X149260000Y-31645000D03*
D28*
X149260000Y-27505000D03*
%TD*%
D15*
%TO.C,R3*%
X155820000Y-34580000D03*
X156840000Y-34580000D03*
%TD*%
D11*
%TO.C,JP9*%
X215620000Y-54950000D03*
%TD*%
D29*
%TO.C,SW1*%
X129105000Y-44955000D03*
X135105000Y-44955000D03*
X129105000Y-48705000D03*
X135105000Y-48705000D03*
%TD*%
D30*
%TO.C,SW18_DOWN1*%
X182341464Y-74970330D03*
D31*
X187034772Y-76914362D03*
D30*
X191728080Y-78858394D03*
D32*
X184486807Y-73109684D03*
X191325458Y-73193070D03*
%TD*%
D11*
%TO.C,JP16*%
X215640000Y-119900000D03*
%TD*%
D16*
%TO.C,mouse-bite-2mm-slot*%
X143200000Y-94500000D03*
X143200000Y-93000000D03*
X142450000Y-94500000D03*
X142450000Y-93000000D03*
X141700000Y-94500000D03*
X141700000Y-93000000D03*
%TD*%
%TO.C,mouse-bite-2mm-slot*%
X173850000Y-121600000D03*
X175350000Y-121600000D03*
X173850000Y-120850000D03*
X175350000Y-120850000D03*
X173850000Y-120100000D03*
X175350000Y-120100000D03*
%TD*%
D11*
%TO.C,JP3*%
X215620000Y-35650000D03*
%TD*%
D12*
%TO.C,H5*%
X155200000Y-68900000D03*
%TD*%
D11*
%TO.C,JP1*%
X215620000Y-52150000D03*
%TD*%
D33*
%TO.C,R2*%
X151022000Y-36568000D03*
X151022000Y-37588000D03*
%TD*%
D11*
%TO.C,JP14*%
X215640000Y-122900000D03*
%TD*%
%TO.C,JP2*%
X215620000Y-32900000D03*
%TD*%
D13*
%TO.C,C8*%
X168040000Y-40330000D03*
X169000000Y-40330000D03*
%TD*%
D10*
%TO.C,C9*%
X155680000Y-42900000D03*
X154720000Y-42900000D03*
%TD*%
D11*
%TO.C,JP12*%
X215620000Y-113900000D03*
%TD*%
D16*
%TO.C,mouse-bite-2mm-slot*%
X126250000Y-104750000D03*
X127750000Y-104750000D03*
X126250000Y-104000000D03*
X127750000Y-104000000D03*
X126250000Y-103250000D03*
X127750000Y-103250000D03*
%TD*%
D30*
%TO.C,SW20_RIGHT1*%
X198410635Y-85955968D03*
D31*
X203103943Y-87900000D03*
D30*
X207797251Y-89844032D03*
D32*
X200555978Y-84095322D03*
X207394629Y-84178708D03*
%TD*%
D16*
%TO.C,mouse-bite-2mm-slot*%
X173850000Y-106600000D03*
X175350000Y-106600000D03*
X173850000Y-105850000D03*
X175350000Y-105850000D03*
X173850000Y-105100000D03*
X175350000Y-105100000D03*
%TD*%
D13*
%TO.C,C2*%
X145220000Y-35900000D03*
X146180000Y-35900000D03*
%TD*%
D10*
%TO.C,C6*%
X156560000Y-37830000D03*
X155600000Y-37830000D03*
%TD*%
D30*
%TO.C,SW8_DP1*%
X132120000Y-76891696D03*
D31*
X137200000Y-76891696D03*
D30*
X142280000Y-76891696D03*
D32*
X133390000Y-74351696D03*
X139740000Y-71811696D03*
%TD*%
D11*
%TO.C,JP6*%
X215620000Y-43900000D03*
%TD*%
D13*
%TO.C,C13*%
X163100000Y-47830000D03*
X164060000Y-47830000D03*
%TD*%
D34*
%TO.C,Y1*%
X174196000Y-42530000D03*
X174196000Y-40330000D03*
X172496000Y-40330000D03*
X172496000Y-42530000D03*
%TD*%
D35*
%TO.C,JP10*%
X129500000Y-114680000D03*
%TD*%
%TO.C,JP16*%
X141500000Y-114660000D03*
%TD*%
D30*
%TO.C,SW19_LEFT1*%
X164741559Y-67680211D03*
D31*
X169434867Y-69624243D03*
D30*
X174128175Y-71568275D03*
D32*
X166886902Y-65819565D03*
X173725553Y-65902951D03*
%TD*%
D13*
%TO.C,C5*%
X148736000Y-52154000D03*
X149696000Y-52154000D03*
%TD*%
D18*
%TO.C,JP20*%
X138500000Y-95100000D03*
%TD*%
D16*
%TO.C,mouse-bite-2mm-slot*%
X150050000Y-94500000D03*
X150050000Y-93000000D03*
X149300000Y-94500000D03*
X149300000Y-93000000D03*
X148550000Y-94500000D03*
X148550000Y-93000000D03*
%TD*%
D18*
%TO.C,JP19*%
X135500000Y-95100000D03*
%TD*%
D16*
%TO.C,mouse-bite-2mm-slot*%
X149950000Y-116750000D03*
X149950000Y-115250000D03*
X149200000Y-116750000D03*
X149200000Y-115250000D03*
X148450000Y-116750000D03*
X148450000Y-115250000D03*
%TD*%
D30*
%TO.C,SW16_SPACE1*%
X162510000Y-109040000D03*
D31*
X162510000Y-103960000D03*
D30*
X162510000Y-98880000D03*
D32*
X159970000Y-107770000D03*
X157430000Y-101420000D03*
%TD*%
D35*
%TO.C,JP11*%
X132500000Y-114680000D03*
%TD*%
D15*
%TO.C,R1*%
X147690000Y-34247000D03*
X148710000Y-34247000D03*
%TD*%
D17*
%TO.C,C17*%
X139945000Y-36378000D03*
X139945000Y-35418000D03*
%TD*%
D11*
%TO.C,JP4*%
X215620000Y-38400000D03*
%TD*%
D16*
%TO.C,mouse-bite-2mm-slot*%
X173850000Y-92500000D03*
X175350000Y-92500000D03*
X173850000Y-91750000D03*
X175350000Y-91750000D03*
X173850000Y-91000000D03*
X175350000Y-91000000D03*
%TD*%
D17*
%TO.C,C11*%
X149080000Y-40810000D03*
X149080000Y-39850000D03*
%TD*%
D35*
%TO.C,JP13*%
X138500000Y-114680000D03*
%TD*%
D11*
%TO.C,JP5*%
X215620000Y-41150000D03*
%TD*%
D36*
%TO.C,U3*%
X155610000Y-50249000D03*
X155610000Y-48979000D03*
X155610000Y-47709000D03*
X155610000Y-46439000D03*
X148410000Y-46439000D03*
X148410000Y-47709000D03*
X148410000Y-48979000D03*
X148410000Y-50249000D03*
%TD*%
D37*
%TO.C,C12*%
X158830000Y-48100000D03*
X158830000Y-49060000D03*
%TD*%
D15*
%TO.C,R8*%
X155190000Y-40400000D03*
X156210000Y-40400000D03*
%TD*%
D12*
%TO.C,H3*%
X197700000Y-39900000D03*
%TD*%
D38*
%TO.C,U1*%
X159278000Y-45215500D03*
X159678000Y-45215500D03*
X160078000Y-45215500D03*
X160478000Y-45215500D03*
X160878000Y-45215500D03*
X161278000Y-45215500D03*
X161678000Y-45215500D03*
X162078000Y-45215500D03*
X162478000Y-45215500D03*
X162878000Y-45215500D03*
X163278000Y-45215500D03*
X163678000Y-45215500D03*
X164078000Y-45215500D03*
X164478000Y-45215500D03*
D39*
X165315500Y-44378000D03*
X165315500Y-43978000D03*
X165315500Y-43578000D03*
X165315500Y-43178000D03*
X165315500Y-42778000D03*
X165315500Y-42378000D03*
X165315500Y-41978000D03*
X165315500Y-41578000D03*
X165315500Y-41178000D03*
X165315500Y-40778000D03*
X165315500Y-40378000D03*
X165315500Y-39978000D03*
X165315500Y-39578000D03*
X165315500Y-39178000D03*
D38*
X164478000Y-38340500D03*
X164078000Y-38340500D03*
X163678000Y-38340500D03*
X163278000Y-38340500D03*
X162878000Y-38340500D03*
X162478000Y-38340500D03*
X162078000Y-38340500D03*
X161678000Y-38340500D03*
X161278000Y-38340500D03*
X160878000Y-38340500D03*
X160478000Y-38340500D03*
X160078000Y-38340500D03*
X159678000Y-38340500D03*
X159278000Y-38340500D03*
D39*
X158440500Y-39178000D03*
X158440500Y-39578000D03*
X158440500Y-39978000D03*
X158440500Y-40378000D03*
X158440500Y-40778000D03*
X158440500Y-41178000D03*
X158440500Y-41578000D03*
X158440500Y-41978000D03*
X158440500Y-42378000D03*
X158440500Y-42778000D03*
X158440500Y-43178000D03*
X158440500Y-43578000D03*
X158440500Y-43978000D03*
X158440500Y-44378000D03*
D40*
X161878000Y-41778000D03*
%TD*%
D17*
%TO.C,C15*%
X162830000Y-36290000D03*
X162830000Y-35330000D03*
%TD*%
D11*
%TO.C,JP8*%
X215620000Y-49400000D03*
%TD*%
D41*
%TO.C,R6*%
X144771000Y-48635500D03*
X144771000Y-49830500D03*
%TD*%
D18*
%TO.C,JP18*%
X132500000Y-95100000D03*
%TD*%
D16*
%TO.C,mouse-bite-2mm-slot*%
X157350000Y-83250000D03*
X157350000Y-81750000D03*
X156600000Y-83250000D03*
X156600000Y-81750000D03*
X155850000Y-83250000D03*
X155850000Y-81750000D03*
%TD*%
D11*
%TO.C,JP11*%
X215620000Y-110900000D03*
%TD*%
D15*
%TO.C,R7*%
X155190000Y-39400000D03*
X156210000Y-39400000D03*
%TD*%
D11*
%TO.C,JP13*%
X215620000Y-116900000D03*
%TD*%
D12*
%TO.C,H1*%
X126200000Y-34400000D03*
%TD*%
D42*
%TO.C,R4*%
X169790000Y-42756000D03*
X168770000Y-42756000D03*
%TD*%
D10*
%TO.C,C7*%
X156560000Y-36830000D03*
X155600000Y-36830000D03*
%TD*%
D16*
%TO.C,mouse-bite-2mm-slot*%
X151450000Y-121350000D03*
X152950000Y-121350000D03*
X151450000Y-120600000D03*
X152950000Y-120600000D03*
X151450000Y-119850000D03*
X152950000Y-119850000D03*
%TD*%
D11*
%TO.C,JP7*%
X215620000Y-46650000D03*
%TD*%
D35*
%TO.C,JP12*%
X135500000Y-114680000D03*
%TD*%
%TO.C,JP14*%
X144500000Y-114660000D03*
%TD*%
D13*
%TO.C,C1*%
X145240000Y-34900000D03*
X146200000Y-34900000D03*
%TD*%
D30*
%TO.C,SW17_W1*%
X189631583Y-57370425D03*
D31*
X194324891Y-59314457D03*
D30*
X199018199Y-61258489D03*
D32*
X191776926Y-55509779D03*
X198615577Y-55593165D03*
%TD*%
D16*
%TO.C,mouse-bite-2mm-slot*%
X126250000Y-111750000D03*
X127750000Y-111750000D03*
X126250000Y-111000000D03*
X127750000Y-111000000D03*
X126250000Y-110250000D03*
X127750000Y-110250000D03*
%TD*%
D12*
%TO.C,H4*%
X204700000Y-114400000D03*
%TD*%
D37*
%TO.C,C3*%
X176052000Y-41628000D03*
X176052000Y-42588000D03*
%TD*%
M02*
