M48
; DRILL file {KiCad 8.0.4} date 2024-07-24T01:12:07-0700
; FORMAT={-:-/ absolute / inch / decimal}
; #@! TF.CreationDate,2024-07-24T01:12:07-07:00
; #@! TF.GenerationSoftware,Kicad,Pcbnew,8.0.4
; #@! TF.FileFunction,Plated,1,2,PTH
FMAT,2
INCH
; #@! TA.AperFunction,Plated,PTH,ComponentDrill
T1C0.0138
; #@! TA.AperFunction,Plated,PTH,ViaDrill
T2C0.0157
; #@! TA.AperFunction,Plated,PTH,ComponentDrill
T3C0.0236
; #@! TA.AperFunction,Plated,PTH,ComponentDrill
T4C0.0276
; #@! TA.AperFunction,Plated,PTH,ComponentDrill
T5C0.0591
%
G90
G05
T1
X6.3346Y-1.6033
X6.3346Y-1.6433
X6.3346Y-1.6833
X6.3746Y-1.6033
X6.3746Y-1.6433
X6.3746Y-1.6833
X6.4146Y-1.6033
X6.4146Y-1.6433
X6.4146Y-1.6833
T2
X5.2Y-1.765
X5.5068Y-1.7683
X5.5096Y-1.3433
X5.7546Y-1.7583
X5.8296Y-1.4233
X5.8693Y-1.5287
X6.0621Y-1.8308
X6.1449Y-1.4106
X6.2138Y-1.4303
X6.2531Y-1.8437
X6.2546Y-1.9733
X6.3654Y-1.4303
X6.3713Y-1.3319
X6.4598Y-1.9224
X6.5583Y-1.9028
X6.5696Y-1.7033
X6.6567Y-1.5484
X6.7157Y-1.5386
X6.9296Y-1.5783
X8.3937Y-4.6614
X8.4035Y-2.1024
T4
X6.7551Y-1.4303
X6.8339Y-1.4303
X6.9126Y-1.4303
T5
X5.2516Y-2.9272
X5.5016Y-2.8272
X6.198Y-3.9929
X6.298Y-4.2429
X6.5704Y-2.5913
X6.8396Y-2.5946
X7.2633Y-2.8783
X7.5325Y-2.8816
X7.5503Y-2.1854
X7.8195Y-2.1887
X7.8959Y-3.3108
X8.1651Y-3.3141
T3
G00X5.8764Y-1.0986
M15
G01X5.8764Y-1.0671
M16
G05
G00X5.8764Y-1.2675
M15
G01X5.8764Y-1.2242
M16
G05
G00X6.2165Y-1.0986
M15
G01X6.2165Y-1.0671
M16
G05
G00X6.2165Y-1.2675
M15
G01X6.2165Y-1.2242
M16
G05
M30
