%TF.GenerationSoftware,KiCad,Pcbnew,8.0.4*%
%TF.CreationDate,2024-07-24T01:11:58-07:00*%
%TF.ProjectId,panel_1,70616e65-6c5f-4312-9e6b-696361645f70,rev?*%
%TF.SameCoordinates,Original*%
%TF.FileFunction,Legend,Top*%
%TF.FilePolarity,Positive*%
%FSLAX46Y46*%
G04 Gerber Fmt 4.6, Leading zero omitted, Abs format (unit mm)*
G04 Created by KiCad (PCBNEW 8.0.4) date 2024-07-24 01:11:58*
%MOMM*%
%LPD*%
G01*
G04 APERTURE LIST*
%ADD10C,0.150000*%
%ADD11C,0.120000*%
%ADD12C,0.100000*%
G04 APERTURE END LIST*
D10*
X138024819Y-99509523D02*
X138739104Y-99509523D01*
X138739104Y-99509523D02*
X138881961Y-99557142D01*
X138881961Y-99557142D02*
X138977200Y-99652380D01*
X138977200Y-99652380D02*
X139024819Y-99795237D01*
X139024819Y-99795237D02*
X139024819Y-99890475D01*
X139024819Y-99033332D02*
X138024819Y-99033332D01*
X138024819Y-99033332D02*
X138024819Y-98652380D01*
X138024819Y-98652380D02*
X138072438Y-98557142D01*
X138072438Y-98557142D02*
X138120057Y-98509523D01*
X138120057Y-98509523D02*
X138215295Y-98461904D01*
X138215295Y-98461904D02*
X138358152Y-98461904D01*
X138358152Y-98461904D02*
X138453390Y-98509523D01*
X138453390Y-98509523D02*
X138501009Y-98557142D01*
X138501009Y-98557142D02*
X138548628Y-98652380D01*
X138548628Y-98652380D02*
X138548628Y-99033332D01*
X138120057Y-98080951D02*
X138072438Y-98033332D01*
X138072438Y-98033332D02*
X138024819Y-97938094D01*
X138024819Y-97938094D02*
X138024819Y-97699999D01*
X138024819Y-97699999D02*
X138072438Y-97604761D01*
X138072438Y-97604761D02*
X138120057Y-97557142D01*
X138120057Y-97557142D02*
X138215295Y-97509523D01*
X138215295Y-97509523D02*
X138310533Y-97509523D01*
X138310533Y-97509523D02*
X138453390Y-97557142D01*
X138453390Y-97557142D02*
X139024819Y-98128570D01*
X139024819Y-98128570D02*
X139024819Y-97509523D01*
X138024819Y-96890475D02*
X138024819Y-96795237D01*
X138024819Y-96795237D02*
X138072438Y-96699999D01*
X138072438Y-96699999D02*
X138120057Y-96652380D01*
X138120057Y-96652380D02*
X138215295Y-96604761D01*
X138215295Y-96604761D02*
X138405771Y-96557142D01*
X138405771Y-96557142D02*
X138643866Y-96557142D01*
X138643866Y-96557142D02*
X138834342Y-96604761D01*
X138834342Y-96604761D02*
X138929580Y-96652380D01*
X138929580Y-96652380D02*
X138977200Y-96699999D01*
X138977200Y-96699999D02*
X139024819Y-96795237D01*
X139024819Y-96795237D02*
X139024819Y-96890475D01*
X139024819Y-96890475D02*
X138977200Y-96985713D01*
X138977200Y-96985713D02*
X138929580Y-97033332D01*
X138929580Y-97033332D02*
X138834342Y-97080951D01*
X138834342Y-97080951D02*
X138643866Y-97128570D01*
X138643866Y-97128570D02*
X138405771Y-97128570D01*
X138405771Y-97128570D02*
X138215295Y-97080951D01*
X138215295Y-97080951D02*
X138120057Y-97033332D01*
X138120057Y-97033332D02*
X138072438Y-96985713D01*
X138072438Y-96985713D02*
X138024819Y-96890475D01*
X135024819Y-99509523D02*
X135739104Y-99509523D01*
X135739104Y-99509523D02*
X135881961Y-99557142D01*
X135881961Y-99557142D02*
X135977200Y-99652380D01*
X135977200Y-99652380D02*
X136024819Y-99795237D01*
X136024819Y-99795237D02*
X136024819Y-99890475D01*
X136024819Y-99033332D02*
X135024819Y-99033332D01*
X135024819Y-99033332D02*
X135024819Y-98652380D01*
X135024819Y-98652380D02*
X135072438Y-98557142D01*
X135072438Y-98557142D02*
X135120057Y-98509523D01*
X135120057Y-98509523D02*
X135215295Y-98461904D01*
X135215295Y-98461904D02*
X135358152Y-98461904D01*
X135358152Y-98461904D02*
X135453390Y-98509523D01*
X135453390Y-98509523D02*
X135501009Y-98557142D01*
X135501009Y-98557142D02*
X135548628Y-98652380D01*
X135548628Y-98652380D02*
X135548628Y-99033332D01*
X136024819Y-97509523D02*
X136024819Y-98080951D01*
X136024819Y-97795237D02*
X135024819Y-97795237D01*
X135024819Y-97795237D02*
X135167676Y-97890475D01*
X135167676Y-97890475D02*
X135262914Y-97985713D01*
X135262914Y-97985713D02*
X135310533Y-98080951D01*
X136024819Y-97033332D02*
X136024819Y-96842856D01*
X136024819Y-96842856D02*
X135977200Y-96747618D01*
X135977200Y-96747618D02*
X135929580Y-96699999D01*
X135929580Y-96699999D02*
X135786723Y-96604761D01*
X135786723Y-96604761D02*
X135596247Y-96557142D01*
X135596247Y-96557142D02*
X135215295Y-96557142D01*
X135215295Y-96557142D02*
X135120057Y-96604761D01*
X135120057Y-96604761D02*
X135072438Y-96652380D01*
X135072438Y-96652380D02*
X135024819Y-96747618D01*
X135024819Y-96747618D02*
X135024819Y-96938094D01*
X135024819Y-96938094D02*
X135072438Y-97033332D01*
X135072438Y-97033332D02*
X135120057Y-97080951D01*
X135120057Y-97080951D02*
X135215295Y-97128570D01*
X135215295Y-97128570D02*
X135453390Y-97128570D01*
X135453390Y-97128570D02*
X135548628Y-97080951D01*
X135548628Y-97080951D02*
X135596247Y-97033332D01*
X135596247Y-97033332D02*
X135643866Y-96938094D01*
X135643866Y-96938094D02*
X135643866Y-96747618D01*
X135643866Y-96747618D02*
X135596247Y-96652380D01*
X135596247Y-96652380D02*
X135548628Y-96604761D01*
X135548628Y-96604761D02*
X135453390Y-96557142D01*
X129024819Y-99509523D02*
X129739104Y-99509523D01*
X129739104Y-99509523D02*
X129881961Y-99557142D01*
X129881961Y-99557142D02*
X129977200Y-99652380D01*
X129977200Y-99652380D02*
X130024819Y-99795237D01*
X130024819Y-99795237D02*
X130024819Y-99890475D01*
X130024819Y-99033332D02*
X129024819Y-99033332D01*
X129024819Y-99033332D02*
X129024819Y-98652380D01*
X129024819Y-98652380D02*
X129072438Y-98557142D01*
X129072438Y-98557142D02*
X129120057Y-98509523D01*
X129120057Y-98509523D02*
X129215295Y-98461904D01*
X129215295Y-98461904D02*
X129358152Y-98461904D01*
X129358152Y-98461904D02*
X129453390Y-98509523D01*
X129453390Y-98509523D02*
X129501009Y-98557142D01*
X129501009Y-98557142D02*
X129548628Y-98652380D01*
X129548628Y-98652380D02*
X129548628Y-99033332D01*
X130024819Y-97509523D02*
X130024819Y-98080951D01*
X130024819Y-97795237D02*
X129024819Y-97795237D01*
X129024819Y-97795237D02*
X129167676Y-97890475D01*
X129167676Y-97890475D02*
X129262914Y-97985713D01*
X129262914Y-97985713D02*
X129310533Y-98080951D01*
X129024819Y-97176189D02*
X129024819Y-96509523D01*
X129024819Y-96509523D02*
X130024819Y-96938094D01*
X132024819Y-99509523D02*
X132739104Y-99509523D01*
X132739104Y-99509523D02*
X132881961Y-99557142D01*
X132881961Y-99557142D02*
X132977200Y-99652380D01*
X132977200Y-99652380D02*
X133024819Y-99795237D01*
X133024819Y-99795237D02*
X133024819Y-99890475D01*
X133024819Y-99033332D02*
X132024819Y-99033332D01*
X132024819Y-99033332D02*
X132024819Y-98652380D01*
X132024819Y-98652380D02*
X132072438Y-98557142D01*
X132072438Y-98557142D02*
X132120057Y-98509523D01*
X132120057Y-98509523D02*
X132215295Y-98461904D01*
X132215295Y-98461904D02*
X132358152Y-98461904D01*
X132358152Y-98461904D02*
X132453390Y-98509523D01*
X132453390Y-98509523D02*
X132501009Y-98557142D01*
X132501009Y-98557142D02*
X132548628Y-98652380D01*
X132548628Y-98652380D02*
X132548628Y-99033332D01*
X133024819Y-97509523D02*
X133024819Y-98080951D01*
X133024819Y-97795237D02*
X132024819Y-97795237D01*
X132024819Y-97795237D02*
X132167676Y-97890475D01*
X132167676Y-97890475D02*
X132262914Y-97985713D01*
X132262914Y-97985713D02*
X132310533Y-98080951D01*
X132453390Y-96938094D02*
X132405771Y-97033332D01*
X132405771Y-97033332D02*
X132358152Y-97080951D01*
X132358152Y-97080951D02*
X132262914Y-97128570D01*
X132262914Y-97128570D02*
X132215295Y-97128570D01*
X132215295Y-97128570D02*
X132120057Y-97080951D01*
X132120057Y-97080951D02*
X132072438Y-97033332D01*
X132072438Y-97033332D02*
X132024819Y-96938094D01*
X132024819Y-96938094D02*
X132024819Y-96747618D01*
X132024819Y-96747618D02*
X132072438Y-96652380D01*
X132072438Y-96652380D02*
X132120057Y-96604761D01*
X132120057Y-96604761D02*
X132215295Y-96557142D01*
X132215295Y-96557142D02*
X132262914Y-96557142D01*
X132262914Y-96557142D02*
X132358152Y-96604761D01*
X132358152Y-96604761D02*
X132405771Y-96652380D01*
X132405771Y-96652380D02*
X132453390Y-96747618D01*
X132453390Y-96747618D02*
X132453390Y-96938094D01*
X132453390Y-96938094D02*
X132501009Y-97033332D01*
X132501009Y-97033332D02*
X132548628Y-97080951D01*
X132548628Y-97080951D02*
X132643866Y-97128570D01*
X132643866Y-97128570D02*
X132834342Y-97128570D01*
X132834342Y-97128570D02*
X132929580Y-97080951D01*
X132929580Y-97080951D02*
X132977200Y-97033332D01*
X132977200Y-97033332D02*
X133024819Y-96938094D01*
X133024819Y-96938094D02*
X133024819Y-96747618D01*
X133024819Y-96747618D02*
X132977200Y-96652380D01*
X132977200Y-96652380D02*
X132929580Y-96604761D01*
X132929580Y-96604761D02*
X132834342Y-96557142D01*
X132834342Y-96557142D02*
X132643866Y-96557142D01*
X132643866Y-96557142D02*
X132548628Y-96604761D01*
X132548628Y-96604761D02*
X132501009Y-96652380D01*
X132501009Y-96652380D02*
X132453390Y-96747618D01*
X152557142Y-42184104D02*
X152509523Y-42222200D01*
X152509523Y-42222200D02*
X152366666Y-42260295D01*
X152366666Y-42260295D02*
X152271428Y-42260295D01*
X152271428Y-42260295D02*
X152128571Y-42222200D01*
X152128571Y-42222200D02*
X152033333Y-42146009D01*
X152033333Y-42146009D02*
X151985714Y-42069819D01*
X151985714Y-42069819D02*
X151938095Y-41917438D01*
X151938095Y-41917438D02*
X151938095Y-41803152D01*
X151938095Y-41803152D02*
X151985714Y-41650771D01*
X151985714Y-41650771D02*
X152033333Y-41574580D01*
X152033333Y-41574580D02*
X152128571Y-41498390D01*
X152128571Y-41498390D02*
X152271428Y-41460295D01*
X152271428Y-41460295D02*
X152366666Y-41460295D01*
X152366666Y-41460295D02*
X152509523Y-41498390D01*
X152509523Y-41498390D02*
X152557142Y-41536485D01*
X153509523Y-42260295D02*
X152938095Y-42260295D01*
X153223809Y-42260295D02*
X153223809Y-41460295D01*
X153223809Y-41460295D02*
X153128571Y-41574580D01*
X153128571Y-41574580D02*
X153033333Y-41650771D01*
X153033333Y-41650771D02*
X152938095Y-41688866D01*
X154128571Y-41460295D02*
X154223809Y-41460295D01*
X154223809Y-41460295D02*
X154319047Y-41498390D01*
X154319047Y-41498390D02*
X154366666Y-41536485D01*
X154366666Y-41536485D02*
X154414285Y-41612676D01*
X154414285Y-41612676D02*
X154461904Y-41765057D01*
X154461904Y-41765057D02*
X154461904Y-41955533D01*
X154461904Y-41955533D02*
X154414285Y-42107914D01*
X154414285Y-42107914D02*
X154366666Y-42184104D01*
X154366666Y-42184104D02*
X154319047Y-42222200D01*
X154319047Y-42222200D02*
X154223809Y-42260295D01*
X154223809Y-42260295D02*
X154128571Y-42260295D01*
X154128571Y-42260295D02*
X154033333Y-42222200D01*
X154033333Y-42222200D02*
X153985714Y-42184104D01*
X153985714Y-42184104D02*
X153938095Y-42107914D01*
X153938095Y-42107914D02*
X153890476Y-41955533D01*
X153890476Y-41955533D02*
X153890476Y-41765057D01*
X153890476Y-41765057D02*
X153938095Y-41612676D01*
X153938095Y-41612676D02*
X153985714Y-41536485D01*
X153985714Y-41536485D02*
X154033333Y-41498390D01*
X154033333Y-41498390D02*
X154128571Y-41460295D01*
X211310476Y-107314819D02*
X211310476Y-108029104D01*
X211310476Y-108029104D02*
X211262857Y-108171961D01*
X211262857Y-108171961D02*
X211167619Y-108267200D01*
X211167619Y-108267200D02*
X211024762Y-108314819D01*
X211024762Y-108314819D02*
X210929524Y-108314819D01*
X211786667Y-108314819D02*
X211786667Y-107314819D01*
X211786667Y-107314819D02*
X212167619Y-107314819D01*
X212167619Y-107314819D02*
X212262857Y-107362438D01*
X212262857Y-107362438D02*
X212310476Y-107410057D01*
X212310476Y-107410057D02*
X212358095Y-107505295D01*
X212358095Y-107505295D02*
X212358095Y-107648152D01*
X212358095Y-107648152D02*
X212310476Y-107743390D01*
X212310476Y-107743390D02*
X212262857Y-107791009D01*
X212262857Y-107791009D02*
X212167619Y-107838628D01*
X212167619Y-107838628D02*
X211786667Y-107838628D01*
X213310476Y-108314819D02*
X212739048Y-108314819D01*
X213024762Y-108314819D02*
X213024762Y-107314819D01*
X213024762Y-107314819D02*
X212929524Y-107457676D01*
X212929524Y-107457676D02*
X212834286Y-107552914D01*
X212834286Y-107552914D02*
X212739048Y-107600533D01*
X213929524Y-107314819D02*
X214024762Y-107314819D01*
X214024762Y-107314819D02*
X214120000Y-107362438D01*
X214120000Y-107362438D02*
X214167619Y-107410057D01*
X214167619Y-107410057D02*
X214215238Y-107505295D01*
X214215238Y-107505295D02*
X214262857Y-107695771D01*
X214262857Y-107695771D02*
X214262857Y-107933866D01*
X214262857Y-107933866D02*
X214215238Y-108124342D01*
X214215238Y-108124342D02*
X214167619Y-108219580D01*
X214167619Y-108219580D02*
X214120000Y-108267200D01*
X214120000Y-108267200D02*
X214024762Y-108314819D01*
X214024762Y-108314819D02*
X213929524Y-108314819D01*
X213929524Y-108314819D02*
X213834286Y-108267200D01*
X213834286Y-108267200D02*
X213786667Y-108219580D01*
X213786667Y-108219580D02*
X213739048Y-108124342D01*
X213739048Y-108124342D02*
X213691429Y-107933866D01*
X213691429Y-107933866D02*
X213691429Y-107695771D01*
X213691429Y-107695771D02*
X213739048Y-107505295D01*
X213739048Y-107505295D02*
X213786667Y-107410057D01*
X213786667Y-107410057D02*
X213834286Y-107362438D01*
X213834286Y-107362438D02*
X213929524Y-107314819D01*
X125438095Y-84654819D02*
X125438095Y-83654819D01*
X125438095Y-84131009D02*
X126009523Y-84131009D01*
X126009523Y-84654819D02*
X126009523Y-83654819D01*
X126438095Y-83750057D02*
X126485714Y-83702438D01*
X126485714Y-83702438D02*
X126580952Y-83654819D01*
X126580952Y-83654819D02*
X126819047Y-83654819D01*
X126819047Y-83654819D02*
X126914285Y-83702438D01*
X126914285Y-83702438D02*
X126961904Y-83750057D01*
X126961904Y-83750057D02*
X127009523Y-83845295D01*
X127009523Y-83845295D02*
X127009523Y-83940533D01*
X127009523Y-83940533D02*
X126961904Y-84083390D01*
X126961904Y-84083390D02*
X126390476Y-84654819D01*
X126390476Y-84654819D02*
X127009523Y-84654819D01*
X170194285Y-41866104D02*
X170165713Y-41904200D01*
X170165713Y-41904200D02*
X170079999Y-41942295D01*
X170079999Y-41942295D02*
X170022856Y-41942295D01*
X170022856Y-41942295D02*
X169937142Y-41904200D01*
X169937142Y-41904200D02*
X169879999Y-41828009D01*
X169879999Y-41828009D02*
X169851428Y-41751819D01*
X169851428Y-41751819D02*
X169822856Y-41599438D01*
X169822856Y-41599438D02*
X169822856Y-41485152D01*
X169822856Y-41485152D02*
X169851428Y-41332771D01*
X169851428Y-41332771D02*
X169879999Y-41256580D01*
X169879999Y-41256580D02*
X169937142Y-41180390D01*
X169937142Y-41180390D02*
X170022856Y-41142295D01*
X170022856Y-41142295D02*
X170079999Y-41142295D01*
X170079999Y-41142295D02*
X170165713Y-41180390D01*
X170165713Y-41180390D02*
X170194285Y-41218485D01*
X170765713Y-41942295D02*
X170422856Y-41942295D01*
X170594285Y-41942295D02*
X170594285Y-41142295D01*
X170594285Y-41142295D02*
X170537142Y-41256580D01*
X170537142Y-41256580D02*
X170479999Y-41332771D01*
X170479999Y-41332771D02*
X170422856Y-41370866D01*
X171280000Y-41408961D02*
X171280000Y-41942295D01*
X171137142Y-41104200D02*
X170994285Y-41675628D01*
X170994285Y-41675628D02*
X171365714Y-41675628D01*
X173446666Y-34084819D02*
X173446666Y-34799104D01*
X173446666Y-34799104D02*
X173399047Y-34941961D01*
X173399047Y-34941961D02*
X173303809Y-35037200D01*
X173303809Y-35037200D02*
X173160952Y-35084819D01*
X173160952Y-35084819D02*
X173065714Y-35084819D01*
X173875238Y-34180057D02*
X173922857Y-34132438D01*
X173922857Y-34132438D02*
X174018095Y-34084819D01*
X174018095Y-34084819D02*
X174256190Y-34084819D01*
X174256190Y-34084819D02*
X174351428Y-34132438D01*
X174351428Y-34132438D02*
X174399047Y-34180057D01*
X174399047Y-34180057D02*
X174446666Y-34275295D01*
X174446666Y-34275295D02*
X174446666Y-34370533D01*
X174446666Y-34370533D02*
X174399047Y-34513390D01*
X174399047Y-34513390D02*
X173827619Y-35084819D01*
X173827619Y-35084819D02*
X174446666Y-35084819D01*
X174913333Y-38939580D02*
X174865714Y-38987200D01*
X174865714Y-38987200D02*
X174722857Y-39034819D01*
X174722857Y-39034819D02*
X174627619Y-39034819D01*
X174627619Y-39034819D02*
X174484762Y-38987200D01*
X174484762Y-38987200D02*
X174389524Y-38891961D01*
X174389524Y-38891961D02*
X174341905Y-38796723D01*
X174341905Y-38796723D02*
X174294286Y-38606247D01*
X174294286Y-38606247D02*
X174294286Y-38463390D01*
X174294286Y-38463390D02*
X174341905Y-38272914D01*
X174341905Y-38272914D02*
X174389524Y-38177676D01*
X174389524Y-38177676D02*
X174484762Y-38082438D01*
X174484762Y-38082438D02*
X174627619Y-38034819D01*
X174627619Y-38034819D02*
X174722857Y-38034819D01*
X174722857Y-38034819D02*
X174865714Y-38082438D01*
X174865714Y-38082438D02*
X174913333Y-38130057D01*
X175770476Y-38368152D02*
X175770476Y-39034819D01*
X175532381Y-37987200D02*
X175294286Y-38701485D01*
X175294286Y-38701485D02*
X175913333Y-38701485D01*
X140794333Y-47274819D02*
X140461000Y-46798628D01*
X140222905Y-47274819D02*
X140222905Y-46274819D01*
X140222905Y-46274819D02*
X140603857Y-46274819D01*
X140603857Y-46274819D02*
X140699095Y-46322438D01*
X140699095Y-46322438D02*
X140746714Y-46370057D01*
X140746714Y-46370057D02*
X140794333Y-46465295D01*
X140794333Y-46465295D02*
X140794333Y-46608152D01*
X140794333Y-46608152D02*
X140746714Y-46703390D01*
X140746714Y-46703390D02*
X140699095Y-46751009D01*
X140699095Y-46751009D02*
X140603857Y-46798628D01*
X140603857Y-46798628D02*
X140222905Y-46798628D01*
X141699095Y-46274819D02*
X141222905Y-46274819D01*
X141222905Y-46274819D02*
X141175286Y-46751009D01*
X141175286Y-46751009D02*
X141222905Y-46703390D01*
X141222905Y-46703390D02*
X141318143Y-46655771D01*
X141318143Y-46655771D02*
X141556238Y-46655771D01*
X141556238Y-46655771D02*
X141651476Y-46703390D01*
X141651476Y-46703390D02*
X141699095Y-46751009D01*
X141699095Y-46751009D02*
X141746714Y-46846247D01*
X141746714Y-46846247D02*
X141746714Y-47084342D01*
X141746714Y-47084342D02*
X141699095Y-47179580D01*
X141699095Y-47179580D02*
X141651476Y-47227200D01*
X141651476Y-47227200D02*
X141556238Y-47274819D01*
X141556238Y-47274819D02*
X141318143Y-47274819D01*
X141318143Y-47274819D02*
X141222905Y-47227200D01*
X141222905Y-47227200D02*
X141175286Y-47179580D01*
X137899580Y-36542857D02*
X137947200Y-36590476D01*
X137947200Y-36590476D02*
X137994819Y-36733333D01*
X137994819Y-36733333D02*
X137994819Y-36828571D01*
X137994819Y-36828571D02*
X137947200Y-36971428D01*
X137947200Y-36971428D02*
X137851961Y-37066666D01*
X137851961Y-37066666D02*
X137756723Y-37114285D01*
X137756723Y-37114285D02*
X137566247Y-37161904D01*
X137566247Y-37161904D02*
X137423390Y-37161904D01*
X137423390Y-37161904D02*
X137232914Y-37114285D01*
X137232914Y-37114285D02*
X137137676Y-37066666D01*
X137137676Y-37066666D02*
X137042438Y-36971428D01*
X137042438Y-36971428D02*
X136994819Y-36828571D01*
X136994819Y-36828571D02*
X136994819Y-36733333D01*
X136994819Y-36733333D02*
X137042438Y-36590476D01*
X137042438Y-36590476D02*
X137090057Y-36542857D01*
X137994819Y-35590476D02*
X137994819Y-36161904D01*
X137994819Y-35876190D02*
X136994819Y-35876190D01*
X136994819Y-35876190D02*
X137137676Y-35971428D01*
X137137676Y-35971428D02*
X137232914Y-36066666D01*
X137232914Y-36066666D02*
X137280533Y-36161904D01*
X137423390Y-35019047D02*
X137375771Y-35114285D01*
X137375771Y-35114285D02*
X137328152Y-35161904D01*
X137328152Y-35161904D02*
X137232914Y-35209523D01*
X137232914Y-35209523D02*
X137185295Y-35209523D01*
X137185295Y-35209523D02*
X137090057Y-35161904D01*
X137090057Y-35161904D02*
X137042438Y-35114285D01*
X137042438Y-35114285D02*
X136994819Y-35019047D01*
X136994819Y-35019047D02*
X136994819Y-34828571D01*
X136994819Y-34828571D02*
X137042438Y-34733333D01*
X137042438Y-34733333D02*
X137090057Y-34685714D01*
X137090057Y-34685714D02*
X137185295Y-34638095D01*
X137185295Y-34638095D02*
X137232914Y-34638095D01*
X137232914Y-34638095D02*
X137328152Y-34685714D01*
X137328152Y-34685714D02*
X137375771Y-34733333D01*
X137375771Y-34733333D02*
X137423390Y-34828571D01*
X137423390Y-34828571D02*
X137423390Y-35019047D01*
X137423390Y-35019047D02*
X137471009Y-35114285D01*
X137471009Y-35114285D02*
X137518628Y-35161904D01*
X137518628Y-35161904D02*
X137613866Y-35209523D01*
X137613866Y-35209523D02*
X137804342Y-35209523D01*
X137804342Y-35209523D02*
X137899580Y-35161904D01*
X137899580Y-35161904D02*
X137947200Y-35114285D01*
X137947200Y-35114285D02*
X137994819Y-35019047D01*
X137994819Y-35019047D02*
X137994819Y-34828571D01*
X137994819Y-34828571D02*
X137947200Y-34733333D01*
X137947200Y-34733333D02*
X137899580Y-34685714D01*
X137899580Y-34685714D02*
X137804342Y-34638095D01*
X137804342Y-34638095D02*
X137613866Y-34638095D01*
X137613866Y-34638095D02*
X137518628Y-34685714D01*
X137518628Y-34685714D02*
X137471009Y-34733333D01*
X137471009Y-34733333D02*
X137423390Y-34828571D01*
X155907200Y-89161904D02*
X155954819Y-89019047D01*
X155954819Y-89019047D02*
X155954819Y-88780952D01*
X155954819Y-88780952D02*
X155907200Y-88685714D01*
X155907200Y-88685714D02*
X155859580Y-88638095D01*
X155859580Y-88638095D02*
X155764342Y-88590476D01*
X155764342Y-88590476D02*
X155669104Y-88590476D01*
X155669104Y-88590476D02*
X155573866Y-88638095D01*
X155573866Y-88638095D02*
X155526247Y-88685714D01*
X155526247Y-88685714D02*
X155478628Y-88780952D01*
X155478628Y-88780952D02*
X155431009Y-88971428D01*
X155431009Y-88971428D02*
X155383390Y-89066666D01*
X155383390Y-89066666D02*
X155335771Y-89114285D01*
X155335771Y-89114285D02*
X155240533Y-89161904D01*
X155240533Y-89161904D02*
X155145295Y-89161904D01*
X155145295Y-89161904D02*
X155050057Y-89114285D01*
X155050057Y-89114285D02*
X155002438Y-89066666D01*
X155002438Y-89066666D02*
X154954819Y-88971428D01*
X154954819Y-88971428D02*
X154954819Y-88733333D01*
X154954819Y-88733333D02*
X155002438Y-88590476D01*
X155954819Y-87638095D02*
X155954819Y-88209523D01*
X155954819Y-87923809D02*
X154954819Y-87923809D01*
X154954819Y-87923809D02*
X155097676Y-88019047D01*
X155097676Y-88019047D02*
X155192914Y-88114285D01*
X155192914Y-88114285D02*
X155240533Y-88209523D01*
X142260095Y-44532819D02*
X142260095Y-45342342D01*
X142260095Y-45342342D02*
X142307714Y-45437580D01*
X142307714Y-45437580D02*
X142355333Y-45485200D01*
X142355333Y-45485200D02*
X142450571Y-45532819D01*
X142450571Y-45532819D02*
X142641047Y-45532819D01*
X142641047Y-45532819D02*
X142736285Y-45485200D01*
X142736285Y-45485200D02*
X142783904Y-45437580D01*
X142783904Y-45437580D02*
X142831523Y-45342342D01*
X142831523Y-45342342D02*
X142831523Y-44532819D01*
X143260095Y-44628057D02*
X143307714Y-44580438D01*
X143307714Y-44580438D02*
X143402952Y-44532819D01*
X143402952Y-44532819D02*
X143641047Y-44532819D01*
X143641047Y-44532819D02*
X143736285Y-44580438D01*
X143736285Y-44580438D02*
X143783904Y-44628057D01*
X143783904Y-44628057D02*
X143831523Y-44723295D01*
X143831523Y-44723295D02*
X143831523Y-44818533D01*
X143831523Y-44818533D02*
X143783904Y-44961390D01*
X143783904Y-44961390D02*
X143212476Y-45532819D01*
X143212476Y-45532819D02*
X143831523Y-45532819D01*
X160939580Y-33972857D02*
X160987200Y-34020476D01*
X160987200Y-34020476D02*
X161034819Y-34163333D01*
X161034819Y-34163333D02*
X161034819Y-34258571D01*
X161034819Y-34258571D02*
X160987200Y-34401428D01*
X160987200Y-34401428D02*
X160891961Y-34496666D01*
X160891961Y-34496666D02*
X160796723Y-34544285D01*
X160796723Y-34544285D02*
X160606247Y-34591904D01*
X160606247Y-34591904D02*
X160463390Y-34591904D01*
X160463390Y-34591904D02*
X160272914Y-34544285D01*
X160272914Y-34544285D02*
X160177676Y-34496666D01*
X160177676Y-34496666D02*
X160082438Y-34401428D01*
X160082438Y-34401428D02*
X160034819Y-34258571D01*
X160034819Y-34258571D02*
X160034819Y-34163333D01*
X160034819Y-34163333D02*
X160082438Y-34020476D01*
X160082438Y-34020476D02*
X160130057Y-33972857D01*
X161034819Y-33020476D02*
X161034819Y-33591904D01*
X161034819Y-33306190D02*
X160034819Y-33306190D01*
X160034819Y-33306190D02*
X160177676Y-33401428D01*
X160177676Y-33401428D02*
X160272914Y-33496666D01*
X160272914Y-33496666D02*
X160320533Y-33591904D01*
X160034819Y-32163333D02*
X160034819Y-32353809D01*
X160034819Y-32353809D02*
X160082438Y-32449047D01*
X160082438Y-32449047D02*
X160130057Y-32496666D01*
X160130057Y-32496666D02*
X160272914Y-32591904D01*
X160272914Y-32591904D02*
X160463390Y-32639523D01*
X160463390Y-32639523D02*
X160844342Y-32639523D01*
X160844342Y-32639523D02*
X160939580Y-32591904D01*
X160939580Y-32591904D02*
X160987200Y-32544285D01*
X160987200Y-32544285D02*
X161034819Y-32449047D01*
X161034819Y-32449047D02*
X161034819Y-32258571D01*
X161034819Y-32258571D02*
X160987200Y-32163333D01*
X160987200Y-32163333D02*
X160939580Y-32115714D01*
X160939580Y-32115714D02*
X160844342Y-32068095D01*
X160844342Y-32068095D02*
X160606247Y-32068095D01*
X160606247Y-32068095D02*
X160511009Y-32115714D01*
X160511009Y-32115714D02*
X160463390Y-32163333D01*
X160463390Y-32163333D02*
X160415771Y-32258571D01*
X160415771Y-32258571D02*
X160415771Y-32449047D01*
X160415771Y-32449047D02*
X160463390Y-32544285D01*
X160463390Y-32544285D02*
X160511009Y-32591904D01*
X160511009Y-32591904D02*
X160606247Y-32639523D01*
X140254819Y-105638094D02*
X139254819Y-105638094D01*
X139731009Y-105638094D02*
X139731009Y-105066666D01*
X140254819Y-105066666D02*
X139254819Y-105066666D01*
X140254819Y-104066666D02*
X140254819Y-104638094D01*
X140254819Y-104352380D02*
X139254819Y-104352380D01*
X139254819Y-104352380D02*
X139397676Y-104447618D01*
X139397676Y-104447618D02*
X139492914Y-104542856D01*
X139492914Y-104542856D02*
X139540533Y-104638094D01*
X139254819Y-103733332D02*
X139254819Y-103114285D01*
X139254819Y-103114285D02*
X139635771Y-103447618D01*
X139635771Y-103447618D02*
X139635771Y-103304761D01*
X139635771Y-103304761D02*
X139683390Y-103209523D01*
X139683390Y-103209523D02*
X139731009Y-103161904D01*
X139731009Y-103161904D02*
X139826247Y-103114285D01*
X139826247Y-103114285D02*
X140064342Y-103114285D01*
X140064342Y-103114285D02*
X140159580Y-103161904D01*
X140159580Y-103161904D02*
X140207200Y-103209523D01*
X140207200Y-103209523D02*
X140254819Y-103304761D01*
X140254819Y-103304761D02*
X140254819Y-103590475D01*
X140254819Y-103590475D02*
X140207200Y-103685713D01*
X140207200Y-103685713D02*
X140159580Y-103733332D01*
X153913333Y-34625180D02*
X153913333Y-33910895D01*
X153913333Y-33910895D02*
X153960952Y-33768038D01*
X153960952Y-33768038D02*
X154056190Y-33672800D01*
X154056190Y-33672800D02*
X154199047Y-33625180D01*
X154199047Y-33625180D02*
X154294285Y-33625180D01*
X152913333Y-33625180D02*
X153484761Y-33625180D01*
X153199047Y-33625180D02*
X153199047Y-34625180D01*
X153199047Y-34625180D02*
X153294285Y-34482323D01*
X153294285Y-34482323D02*
X153389523Y-34387085D01*
X153389523Y-34387085D02*
X153484761Y-34339466D01*
X158163333Y-35034819D02*
X157830000Y-34558628D01*
X157591905Y-35034819D02*
X157591905Y-34034819D01*
X157591905Y-34034819D02*
X157972857Y-34034819D01*
X157972857Y-34034819D02*
X158068095Y-34082438D01*
X158068095Y-34082438D02*
X158115714Y-34130057D01*
X158115714Y-34130057D02*
X158163333Y-34225295D01*
X158163333Y-34225295D02*
X158163333Y-34368152D01*
X158163333Y-34368152D02*
X158115714Y-34463390D01*
X158115714Y-34463390D02*
X158068095Y-34511009D01*
X158068095Y-34511009D02*
X157972857Y-34558628D01*
X157972857Y-34558628D02*
X157591905Y-34558628D01*
X158496667Y-34034819D02*
X159115714Y-34034819D01*
X159115714Y-34034819D02*
X158782381Y-34415771D01*
X158782381Y-34415771D02*
X158925238Y-34415771D01*
X158925238Y-34415771D02*
X159020476Y-34463390D01*
X159020476Y-34463390D02*
X159068095Y-34511009D01*
X159068095Y-34511009D02*
X159115714Y-34606247D01*
X159115714Y-34606247D02*
X159115714Y-34844342D01*
X159115714Y-34844342D02*
X159068095Y-34939580D01*
X159068095Y-34939580D02*
X159020476Y-34987200D01*
X159020476Y-34987200D02*
X158925238Y-35034819D01*
X158925238Y-35034819D02*
X158639524Y-35034819D01*
X158639524Y-35034819D02*
X158544286Y-34987200D01*
X158544286Y-34987200D02*
X158496667Y-34939580D01*
X212406666Y-54374819D02*
X212406666Y-55089104D01*
X212406666Y-55089104D02*
X212359047Y-55231961D01*
X212359047Y-55231961D02*
X212263809Y-55327200D01*
X212263809Y-55327200D02*
X212120952Y-55374819D01*
X212120952Y-55374819D02*
X212025714Y-55374819D01*
X212882857Y-55374819D02*
X212882857Y-54374819D01*
X212882857Y-54374819D02*
X213263809Y-54374819D01*
X213263809Y-54374819D02*
X213359047Y-54422438D01*
X213359047Y-54422438D02*
X213406666Y-54470057D01*
X213406666Y-54470057D02*
X213454285Y-54565295D01*
X213454285Y-54565295D02*
X213454285Y-54708152D01*
X213454285Y-54708152D02*
X213406666Y-54803390D01*
X213406666Y-54803390D02*
X213359047Y-54851009D01*
X213359047Y-54851009D02*
X213263809Y-54898628D01*
X213263809Y-54898628D02*
X212882857Y-54898628D01*
X213930476Y-55374819D02*
X214120952Y-55374819D01*
X214120952Y-55374819D02*
X214216190Y-55327200D01*
X214216190Y-55327200D02*
X214263809Y-55279580D01*
X214263809Y-55279580D02*
X214359047Y-55136723D01*
X214359047Y-55136723D02*
X214406666Y-54946247D01*
X214406666Y-54946247D02*
X214406666Y-54565295D01*
X214406666Y-54565295D02*
X214359047Y-54470057D01*
X214359047Y-54470057D02*
X214311428Y-54422438D01*
X214311428Y-54422438D02*
X214216190Y-54374819D01*
X214216190Y-54374819D02*
X214025714Y-54374819D01*
X214025714Y-54374819D02*
X213930476Y-54422438D01*
X213930476Y-54422438D02*
X213882857Y-54470057D01*
X213882857Y-54470057D02*
X213835238Y-54565295D01*
X213835238Y-54565295D02*
X213835238Y-54803390D01*
X213835238Y-54803390D02*
X213882857Y-54898628D01*
X213882857Y-54898628D02*
X213930476Y-54946247D01*
X213930476Y-54946247D02*
X214025714Y-54993866D01*
X214025714Y-54993866D02*
X214216190Y-54993866D01*
X214216190Y-54993866D02*
X214311428Y-54946247D01*
X214311428Y-54946247D02*
X214359047Y-54898628D01*
X214359047Y-54898628D02*
X214406666Y-54803390D01*
X130771667Y-43487200D02*
X130914524Y-43534819D01*
X130914524Y-43534819D02*
X131152619Y-43534819D01*
X131152619Y-43534819D02*
X131247857Y-43487200D01*
X131247857Y-43487200D02*
X131295476Y-43439580D01*
X131295476Y-43439580D02*
X131343095Y-43344342D01*
X131343095Y-43344342D02*
X131343095Y-43249104D01*
X131343095Y-43249104D02*
X131295476Y-43153866D01*
X131295476Y-43153866D02*
X131247857Y-43106247D01*
X131247857Y-43106247D02*
X131152619Y-43058628D01*
X131152619Y-43058628D02*
X130962143Y-43011009D01*
X130962143Y-43011009D02*
X130866905Y-42963390D01*
X130866905Y-42963390D02*
X130819286Y-42915771D01*
X130819286Y-42915771D02*
X130771667Y-42820533D01*
X130771667Y-42820533D02*
X130771667Y-42725295D01*
X130771667Y-42725295D02*
X130819286Y-42630057D01*
X130819286Y-42630057D02*
X130866905Y-42582438D01*
X130866905Y-42582438D02*
X130962143Y-42534819D01*
X130962143Y-42534819D02*
X131200238Y-42534819D01*
X131200238Y-42534819D02*
X131343095Y-42582438D01*
X131676429Y-42534819D02*
X131914524Y-43534819D01*
X131914524Y-43534819D02*
X132105000Y-42820533D01*
X132105000Y-42820533D02*
X132295476Y-43534819D01*
X132295476Y-43534819D02*
X132533572Y-42534819D01*
X133438333Y-43534819D02*
X132866905Y-43534819D01*
X133152619Y-43534819D02*
X133152619Y-42534819D01*
X133152619Y-42534819D02*
X133057381Y-42677676D01*
X133057381Y-42677676D02*
X132962143Y-42772914D01*
X132962143Y-42772914D02*
X132866905Y-42820533D01*
X185518987Y-68068116D02*
X185632747Y-68166779D01*
X185632747Y-68166779D02*
X185852718Y-68257894D01*
X185852718Y-68257894D02*
X185958929Y-68250346D01*
X185958929Y-68250346D02*
X186021147Y-68224575D01*
X186021147Y-68224575D02*
X186101587Y-68154809D01*
X186101587Y-68154809D02*
X186138033Y-68066821D01*
X186138033Y-68066821D02*
X186130485Y-67960609D01*
X186130485Y-67960609D02*
X186104714Y-67898392D01*
X186104714Y-67898392D02*
X186034948Y-67817952D01*
X186034948Y-67817952D02*
X185877194Y-67701065D01*
X185877194Y-67701065D02*
X185807429Y-67620625D01*
X185807429Y-67620625D02*
X185781657Y-67558408D01*
X185781657Y-67558408D02*
X185774109Y-67452196D01*
X185774109Y-67452196D02*
X185810555Y-67364208D01*
X185810555Y-67364208D02*
X185890995Y-67294442D01*
X185890995Y-67294442D02*
X185953213Y-67268671D01*
X185953213Y-67268671D02*
X186059424Y-67261123D01*
X186059424Y-67261123D02*
X186279396Y-67352238D01*
X186279396Y-67352238D02*
X186393155Y-67450901D01*
X186719338Y-67534468D02*
X186556626Y-68549463D01*
X186556626Y-68549463D02*
X187005948Y-67962441D01*
X187005948Y-67962441D02*
X186908580Y-68695247D01*
X186908580Y-68695247D02*
X187511235Y-67862482D01*
X187964442Y-69132599D02*
X187436511Y-68913923D01*
X187700477Y-69023261D02*
X188083160Y-68099382D01*
X188083160Y-68099382D02*
X187940503Y-68194918D01*
X187940503Y-68194918D02*
X187816068Y-68246461D01*
X187816068Y-68246461D02*
X187709857Y-68254009D01*
X188711050Y-68823344D02*
X188641284Y-68742904D01*
X188641284Y-68742904D02*
X188615513Y-68680687D01*
X188615513Y-68680687D02*
X188607965Y-68574475D01*
X188607965Y-68574475D02*
X188626188Y-68530481D01*
X188626188Y-68530481D02*
X188706628Y-68460715D01*
X188706628Y-68460715D02*
X188768846Y-68434944D01*
X188768846Y-68434944D02*
X188875057Y-68427396D01*
X188875057Y-68427396D02*
X189051034Y-68500288D01*
X189051034Y-68500288D02*
X189120800Y-68580728D01*
X189120800Y-68580728D02*
X189146571Y-68642946D01*
X189146571Y-68642946D02*
X189154119Y-68749157D01*
X189154119Y-68749157D02*
X189135896Y-68793151D01*
X189135896Y-68793151D02*
X189055456Y-68862917D01*
X189055456Y-68862917D02*
X188993238Y-68888688D01*
X188993238Y-68888688D02*
X188887027Y-68896236D01*
X188887027Y-68896236D02*
X188711050Y-68823344D01*
X188711050Y-68823344D02*
X188604838Y-68830893D01*
X188604838Y-68830893D02*
X188542621Y-68856664D01*
X188542621Y-68856664D02*
X188462181Y-68926429D01*
X188462181Y-68926429D02*
X188389289Y-69102406D01*
X188389289Y-69102406D02*
X188396837Y-69208618D01*
X188396837Y-69208618D02*
X188422608Y-69270835D01*
X188422608Y-69270835D02*
X188492374Y-69351276D01*
X188492374Y-69351276D02*
X188668351Y-69424168D01*
X188668351Y-69424168D02*
X188774562Y-69416619D01*
X188774562Y-69416619D02*
X188836780Y-69390848D01*
X188836780Y-69390848D02*
X188917220Y-69321083D01*
X188917220Y-69321083D02*
X188990112Y-69145106D01*
X188990112Y-69145106D02*
X188982564Y-69038894D01*
X188982564Y-69038894D02*
X188956792Y-68976677D01*
X188956792Y-68976677D02*
X188887027Y-68896236D01*
X188983859Y-69657940D02*
X189687767Y-69949509D01*
X189944185Y-69952635D02*
X190326868Y-69028756D01*
X190326868Y-69028756D02*
X190546839Y-69119871D01*
X190546839Y-69119871D02*
X190660599Y-69218534D01*
X190660599Y-69218534D02*
X190712142Y-69342969D01*
X190712142Y-69342969D02*
X190719690Y-69449180D01*
X190719690Y-69449180D02*
X190690792Y-69643380D01*
X190690792Y-69643380D02*
X190636123Y-69775363D01*
X190636123Y-69775363D02*
X190519237Y-69933117D01*
X190519237Y-69933117D02*
X190438796Y-70002883D01*
X190438796Y-70002883D02*
X190314362Y-70054425D01*
X190314362Y-70054425D02*
X190164156Y-70043750D01*
X190164156Y-70043750D02*
X189944185Y-69952635D01*
X191426725Y-69484331D02*
X191602702Y-69557223D01*
X191602702Y-69557223D02*
X191672467Y-69637664D01*
X191672467Y-69637664D02*
X191724010Y-69762098D01*
X191724010Y-69762098D02*
X191695112Y-69956298D01*
X191695112Y-69956298D02*
X191567551Y-70264258D01*
X191567551Y-70264258D02*
X191450664Y-70422012D01*
X191450664Y-70422012D02*
X191326230Y-70473555D01*
X191326230Y-70473555D02*
X191220018Y-70481103D01*
X191220018Y-70481103D02*
X191044041Y-70408211D01*
X191044041Y-70408211D02*
X190974276Y-70327771D01*
X190974276Y-70327771D02*
X190922733Y-70203336D01*
X190922733Y-70203336D02*
X190951631Y-70009136D01*
X190951631Y-70009136D02*
X191079192Y-69701176D01*
X191079192Y-69701176D02*
X191196078Y-69543422D01*
X191196078Y-69543422D02*
X191320513Y-69491879D01*
X191320513Y-69491879D02*
X191426725Y-69484331D01*
X192130633Y-69775900D02*
X191967921Y-70790894D01*
X191967921Y-70790894D02*
X192417243Y-70203872D01*
X192417243Y-70203872D02*
X192319875Y-70936678D01*
X192319875Y-70936678D02*
X192922530Y-70103914D01*
X192891800Y-71173578D02*
X193274483Y-70249698D01*
X193274483Y-70249698D02*
X193419731Y-71392254D01*
X193419731Y-71392254D02*
X193802415Y-70468374D01*
X194343611Y-71774937D02*
X193815680Y-71556261D01*
X194079645Y-71665599D02*
X194462329Y-70741720D01*
X194462329Y-70741720D02*
X194319671Y-70837256D01*
X194319671Y-70837256D02*
X194195236Y-70888799D01*
X194195236Y-70888799D02*
X194089025Y-70896347D01*
X211330476Y-119314819D02*
X211330476Y-120029104D01*
X211330476Y-120029104D02*
X211282857Y-120171961D01*
X211282857Y-120171961D02*
X211187619Y-120267200D01*
X211187619Y-120267200D02*
X211044762Y-120314819D01*
X211044762Y-120314819D02*
X210949524Y-120314819D01*
X211806667Y-120314819D02*
X211806667Y-119314819D01*
X211806667Y-119314819D02*
X212187619Y-119314819D01*
X212187619Y-119314819D02*
X212282857Y-119362438D01*
X212282857Y-119362438D02*
X212330476Y-119410057D01*
X212330476Y-119410057D02*
X212378095Y-119505295D01*
X212378095Y-119505295D02*
X212378095Y-119648152D01*
X212378095Y-119648152D02*
X212330476Y-119743390D01*
X212330476Y-119743390D02*
X212282857Y-119791009D01*
X212282857Y-119791009D02*
X212187619Y-119838628D01*
X212187619Y-119838628D02*
X211806667Y-119838628D01*
X213330476Y-120314819D02*
X212759048Y-120314819D01*
X213044762Y-120314819D02*
X213044762Y-119314819D01*
X213044762Y-119314819D02*
X212949524Y-119457676D01*
X212949524Y-119457676D02*
X212854286Y-119552914D01*
X212854286Y-119552914D02*
X212759048Y-119600533D01*
X214187619Y-119314819D02*
X213997143Y-119314819D01*
X213997143Y-119314819D02*
X213901905Y-119362438D01*
X213901905Y-119362438D02*
X213854286Y-119410057D01*
X213854286Y-119410057D02*
X213759048Y-119552914D01*
X213759048Y-119552914D02*
X213711429Y-119743390D01*
X213711429Y-119743390D02*
X213711429Y-120124342D01*
X213711429Y-120124342D02*
X213759048Y-120219580D01*
X213759048Y-120219580D02*
X213806667Y-120267200D01*
X213806667Y-120267200D02*
X213901905Y-120314819D01*
X213901905Y-120314819D02*
X214092381Y-120314819D01*
X214092381Y-120314819D02*
X214187619Y-120267200D01*
X214187619Y-120267200D02*
X214235238Y-120219580D01*
X214235238Y-120219580D02*
X214282857Y-120124342D01*
X214282857Y-120124342D02*
X214282857Y-119886247D01*
X214282857Y-119886247D02*
X214235238Y-119791009D01*
X214235238Y-119791009D02*
X214187619Y-119743390D01*
X214187619Y-119743390D02*
X214092381Y-119695771D01*
X214092381Y-119695771D02*
X213901905Y-119695771D01*
X213901905Y-119695771D02*
X213806667Y-119743390D01*
X213806667Y-119743390D02*
X213759048Y-119791009D01*
X213759048Y-119791009D02*
X213711429Y-119886247D01*
X212406666Y-35074819D02*
X212406666Y-35789104D01*
X212406666Y-35789104D02*
X212359047Y-35931961D01*
X212359047Y-35931961D02*
X212263809Y-36027200D01*
X212263809Y-36027200D02*
X212120952Y-36074819D01*
X212120952Y-36074819D02*
X212025714Y-36074819D01*
X212882857Y-36074819D02*
X212882857Y-35074819D01*
X212882857Y-35074819D02*
X213263809Y-35074819D01*
X213263809Y-35074819D02*
X213359047Y-35122438D01*
X213359047Y-35122438D02*
X213406666Y-35170057D01*
X213406666Y-35170057D02*
X213454285Y-35265295D01*
X213454285Y-35265295D02*
X213454285Y-35408152D01*
X213454285Y-35408152D02*
X213406666Y-35503390D01*
X213406666Y-35503390D02*
X213359047Y-35551009D01*
X213359047Y-35551009D02*
X213263809Y-35598628D01*
X213263809Y-35598628D02*
X212882857Y-35598628D01*
X213787619Y-35074819D02*
X214406666Y-35074819D01*
X214406666Y-35074819D02*
X214073333Y-35455771D01*
X214073333Y-35455771D02*
X214216190Y-35455771D01*
X214216190Y-35455771D02*
X214311428Y-35503390D01*
X214311428Y-35503390D02*
X214359047Y-35551009D01*
X214359047Y-35551009D02*
X214406666Y-35646247D01*
X214406666Y-35646247D02*
X214406666Y-35884342D01*
X214406666Y-35884342D02*
X214359047Y-35979580D01*
X214359047Y-35979580D02*
X214311428Y-36027200D01*
X214311428Y-36027200D02*
X214216190Y-36074819D01*
X214216190Y-36074819D02*
X213930476Y-36074819D01*
X213930476Y-36074819D02*
X213835238Y-36027200D01*
X213835238Y-36027200D02*
X213787619Y-35979580D01*
X154438095Y-65154819D02*
X154438095Y-64154819D01*
X154438095Y-64631009D02*
X155009523Y-64631009D01*
X155009523Y-65154819D02*
X155009523Y-64154819D01*
X155961904Y-64154819D02*
X155485714Y-64154819D01*
X155485714Y-64154819D02*
X155438095Y-64631009D01*
X155438095Y-64631009D02*
X155485714Y-64583390D01*
X155485714Y-64583390D02*
X155580952Y-64535771D01*
X155580952Y-64535771D02*
X155819047Y-64535771D01*
X155819047Y-64535771D02*
X155914285Y-64583390D01*
X155914285Y-64583390D02*
X155961904Y-64631009D01*
X155961904Y-64631009D02*
X156009523Y-64726247D01*
X156009523Y-64726247D02*
X156009523Y-64964342D01*
X156009523Y-64964342D02*
X155961904Y-65059580D01*
X155961904Y-65059580D02*
X155914285Y-65107200D01*
X155914285Y-65107200D02*
X155819047Y-65154819D01*
X155819047Y-65154819D02*
X155580952Y-65154819D01*
X155580952Y-65154819D02*
X155485714Y-65107200D01*
X155485714Y-65107200D02*
X155438095Y-65059580D01*
X212406666Y-51574819D02*
X212406666Y-52289104D01*
X212406666Y-52289104D02*
X212359047Y-52431961D01*
X212359047Y-52431961D02*
X212263809Y-52527200D01*
X212263809Y-52527200D02*
X212120952Y-52574819D01*
X212120952Y-52574819D02*
X212025714Y-52574819D01*
X212882857Y-52574819D02*
X212882857Y-51574819D01*
X212882857Y-51574819D02*
X213263809Y-51574819D01*
X213263809Y-51574819D02*
X213359047Y-51622438D01*
X213359047Y-51622438D02*
X213406666Y-51670057D01*
X213406666Y-51670057D02*
X213454285Y-51765295D01*
X213454285Y-51765295D02*
X213454285Y-51908152D01*
X213454285Y-51908152D02*
X213406666Y-52003390D01*
X213406666Y-52003390D02*
X213359047Y-52051009D01*
X213359047Y-52051009D02*
X213263809Y-52098628D01*
X213263809Y-52098628D02*
X212882857Y-52098628D01*
X214406666Y-52574819D02*
X213835238Y-52574819D01*
X214120952Y-52574819D02*
X214120952Y-51574819D01*
X214120952Y-51574819D02*
X214025714Y-51717676D01*
X214025714Y-51717676D02*
X213930476Y-51812914D01*
X213930476Y-51812914D02*
X213835238Y-51860533D01*
X149976819Y-37244666D02*
X149500628Y-37577999D01*
X149976819Y-37816094D02*
X148976819Y-37816094D01*
X148976819Y-37816094D02*
X148976819Y-37435142D01*
X148976819Y-37435142D02*
X149024438Y-37339904D01*
X149024438Y-37339904D02*
X149072057Y-37292285D01*
X149072057Y-37292285D02*
X149167295Y-37244666D01*
X149167295Y-37244666D02*
X149310152Y-37244666D01*
X149310152Y-37244666D02*
X149405390Y-37292285D01*
X149405390Y-37292285D02*
X149453009Y-37339904D01*
X149453009Y-37339904D02*
X149500628Y-37435142D01*
X149500628Y-37435142D02*
X149500628Y-37816094D01*
X149072057Y-36863713D02*
X149024438Y-36816094D01*
X149024438Y-36816094D02*
X148976819Y-36720856D01*
X148976819Y-36720856D02*
X148976819Y-36482761D01*
X148976819Y-36482761D02*
X149024438Y-36387523D01*
X149024438Y-36387523D02*
X149072057Y-36339904D01*
X149072057Y-36339904D02*
X149167295Y-36292285D01*
X149167295Y-36292285D02*
X149262533Y-36292285D01*
X149262533Y-36292285D02*
X149405390Y-36339904D01*
X149405390Y-36339904D02*
X149976819Y-36911332D01*
X149976819Y-36911332D02*
X149976819Y-36292285D01*
X211330476Y-122314819D02*
X211330476Y-123029104D01*
X211330476Y-123029104D02*
X211282857Y-123171961D01*
X211282857Y-123171961D02*
X211187619Y-123267200D01*
X211187619Y-123267200D02*
X211044762Y-123314819D01*
X211044762Y-123314819D02*
X210949524Y-123314819D01*
X211806667Y-123314819D02*
X211806667Y-122314819D01*
X211806667Y-122314819D02*
X212187619Y-122314819D01*
X212187619Y-122314819D02*
X212282857Y-122362438D01*
X212282857Y-122362438D02*
X212330476Y-122410057D01*
X212330476Y-122410057D02*
X212378095Y-122505295D01*
X212378095Y-122505295D02*
X212378095Y-122648152D01*
X212378095Y-122648152D02*
X212330476Y-122743390D01*
X212330476Y-122743390D02*
X212282857Y-122791009D01*
X212282857Y-122791009D02*
X212187619Y-122838628D01*
X212187619Y-122838628D02*
X211806667Y-122838628D01*
X213330476Y-123314819D02*
X212759048Y-123314819D01*
X213044762Y-123314819D02*
X213044762Y-122314819D01*
X213044762Y-122314819D02*
X212949524Y-122457676D01*
X212949524Y-122457676D02*
X212854286Y-122552914D01*
X212854286Y-122552914D02*
X212759048Y-122600533D01*
X214187619Y-122648152D02*
X214187619Y-123314819D01*
X213949524Y-122267200D02*
X213711429Y-122981485D01*
X213711429Y-122981485D02*
X214330476Y-122981485D01*
X212406666Y-32324819D02*
X212406666Y-33039104D01*
X212406666Y-33039104D02*
X212359047Y-33181961D01*
X212359047Y-33181961D02*
X212263809Y-33277200D01*
X212263809Y-33277200D02*
X212120952Y-33324819D01*
X212120952Y-33324819D02*
X212025714Y-33324819D01*
X212882857Y-33324819D02*
X212882857Y-32324819D01*
X212882857Y-32324819D02*
X213263809Y-32324819D01*
X213263809Y-32324819D02*
X213359047Y-32372438D01*
X213359047Y-32372438D02*
X213406666Y-32420057D01*
X213406666Y-32420057D02*
X213454285Y-32515295D01*
X213454285Y-32515295D02*
X213454285Y-32658152D01*
X213454285Y-32658152D02*
X213406666Y-32753390D01*
X213406666Y-32753390D02*
X213359047Y-32801009D01*
X213359047Y-32801009D02*
X213263809Y-32848628D01*
X213263809Y-32848628D02*
X212882857Y-32848628D01*
X213835238Y-32420057D02*
X213882857Y-32372438D01*
X213882857Y-32372438D02*
X213978095Y-32324819D01*
X213978095Y-32324819D02*
X214216190Y-32324819D01*
X214216190Y-32324819D02*
X214311428Y-32372438D01*
X214311428Y-32372438D02*
X214359047Y-32420057D01*
X214359047Y-32420057D02*
X214406666Y-32515295D01*
X214406666Y-32515295D02*
X214406666Y-32610533D01*
X214406666Y-32610533D02*
X214359047Y-32753390D01*
X214359047Y-32753390D02*
X213787619Y-33324819D01*
X213787619Y-33324819D02*
X214406666Y-33324819D01*
X170353333Y-40616104D02*
X170305714Y-40654200D01*
X170305714Y-40654200D02*
X170162857Y-40692295D01*
X170162857Y-40692295D02*
X170067619Y-40692295D01*
X170067619Y-40692295D02*
X169924762Y-40654200D01*
X169924762Y-40654200D02*
X169829524Y-40578009D01*
X169829524Y-40578009D02*
X169781905Y-40501819D01*
X169781905Y-40501819D02*
X169734286Y-40349438D01*
X169734286Y-40349438D02*
X169734286Y-40235152D01*
X169734286Y-40235152D02*
X169781905Y-40082771D01*
X169781905Y-40082771D02*
X169829524Y-40006580D01*
X169829524Y-40006580D02*
X169924762Y-39930390D01*
X169924762Y-39930390D02*
X170067619Y-39892295D01*
X170067619Y-39892295D02*
X170162857Y-39892295D01*
X170162857Y-39892295D02*
X170305714Y-39930390D01*
X170305714Y-39930390D02*
X170353333Y-39968485D01*
X170924762Y-40235152D02*
X170829524Y-40197057D01*
X170829524Y-40197057D02*
X170781905Y-40158961D01*
X170781905Y-40158961D02*
X170734286Y-40082771D01*
X170734286Y-40082771D02*
X170734286Y-40044676D01*
X170734286Y-40044676D02*
X170781905Y-39968485D01*
X170781905Y-39968485D02*
X170829524Y-39930390D01*
X170829524Y-39930390D02*
X170924762Y-39892295D01*
X170924762Y-39892295D02*
X171115238Y-39892295D01*
X171115238Y-39892295D02*
X171210476Y-39930390D01*
X171210476Y-39930390D02*
X171258095Y-39968485D01*
X171258095Y-39968485D02*
X171305714Y-40044676D01*
X171305714Y-40044676D02*
X171305714Y-40082771D01*
X171305714Y-40082771D02*
X171258095Y-40158961D01*
X171258095Y-40158961D02*
X171210476Y-40197057D01*
X171210476Y-40197057D02*
X171115238Y-40235152D01*
X171115238Y-40235152D02*
X170924762Y-40235152D01*
X170924762Y-40235152D02*
X170829524Y-40273247D01*
X170829524Y-40273247D02*
X170781905Y-40311342D01*
X170781905Y-40311342D02*
X170734286Y-40387533D01*
X170734286Y-40387533D02*
X170734286Y-40539914D01*
X170734286Y-40539914D02*
X170781905Y-40616104D01*
X170781905Y-40616104D02*
X170829524Y-40654200D01*
X170829524Y-40654200D02*
X170924762Y-40692295D01*
X170924762Y-40692295D02*
X171115238Y-40692295D01*
X171115238Y-40692295D02*
X171210476Y-40654200D01*
X171210476Y-40654200D02*
X171258095Y-40616104D01*
X171258095Y-40616104D02*
X171305714Y-40539914D01*
X171305714Y-40539914D02*
X171305714Y-40387533D01*
X171305714Y-40387533D02*
X171258095Y-40311342D01*
X171258095Y-40311342D02*
X171210476Y-40273247D01*
X171210476Y-40273247D02*
X171115238Y-40235152D01*
X153033333Y-43252104D02*
X152985714Y-43290200D01*
X152985714Y-43290200D02*
X152842857Y-43328295D01*
X152842857Y-43328295D02*
X152747619Y-43328295D01*
X152747619Y-43328295D02*
X152604762Y-43290200D01*
X152604762Y-43290200D02*
X152509524Y-43214009D01*
X152509524Y-43214009D02*
X152461905Y-43137819D01*
X152461905Y-43137819D02*
X152414286Y-42985438D01*
X152414286Y-42985438D02*
X152414286Y-42871152D01*
X152414286Y-42871152D02*
X152461905Y-42718771D01*
X152461905Y-42718771D02*
X152509524Y-42642580D01*
X152509524Y-42642580D02*
X152604762Y-42566390D01*
X152604762Y-42566390D02*
X152747619Y-42528295D01*
X152747619Y-42528295D02*
X152842857Y-42528295D01*
X152842857Y-42528295D02*
X152985714Y-42566390D01*
X152985714Y-42566390D02*
X153033333Y-42604485D01*
X153509524Y-43328295D02*
X153700000Y-43328295D01*
X153700000Y-43328295D02*
X153795238Y-43290200D01*
X153795238Y-43290200D02*
X153842857Y-43252104D01*
X153842857Y-43252104D02*
X153938095Y-43137819D01*
X153938095Y-43137819D02*
X153985714Y-42985438D01*
X153985714Y-42985438D02*
X153985714Y-42680676D01*
X153985714Y-42680676D02*
X153938095Y-42604485D01*
X153938095Y-42604485D02*
X153890476Y-42566390D01*
X153890476Y-42566390D02*
X153795238Y-42528295D01*
X153795238Y-42528295D02*
X153604762Y-42528295D01*
X153604762Y-42528295D02*
X153509524Y-42566390D01*
X153509524Y-42566390D02*
X153461905Y-42604485D01*
X153461905Y-42604485D02*
X153414286Y-42680676D01*
X153414286Y-42680676D02*
X153414286Y-42871152D01*
X153414286Y-42871152D02*
X153461905Y-42947342D01*
X153461905Y-42947342D02*
X153509524Y-42985438D01*
X153509524Y-42985438D02*
X153604762Y-43023533D01*
X153604762Y-43023533D02*
X153795238Y-43023533D01*
X153795238Y-43023533D02*
X153890476Y-42985438D01*
X153890476Y-42985438D02*
X153938095Y-42947342D01*
X153938095Y-42947342D02*
X153985714Y-42871152D01*
X211310476Y-113314819D02*
X211310476Y-114029104D01*
X211310476Y-114029104D02*
X211262857Y-114171961D01*
X211262857Y-114171961D02*
X211167619Y-114267200D01*
X211167619Y-114267200D02*
X211024762Y-114314819D01*
X211024762Y-114314819D02*
X210929524Y-114314819D01*
X211786667Y-114314819D02*
X211786667Y-113314819D01*
X211786667Y-113314819D02*
X212167619Y-113314819D01*
X212167619Y-113314819D02*
X212262857Y-113362438D01*
X212262857Y-113362438D02*
X212310476Y-113410057D01*
X212310476Y-113410057D02*
X212358095Y-113505295D01*
X212358095Y-113505295D02*
X212358095Y-113648152D01*
X212358095Y-113648152D02*
X212310476Y-113743390D01*
X212310476Y-113743390D02*
X212262857Y-113791009D01*
X212262857Y-113791009D02*
X212167619Y-113838628D01*
X212167619Y-113838628D02*
X211786667Y-113838628D01*
X213310476Y-114314819D02*
X212739048Y-114314819D01*
X213024762Y-114314819D02*
X213024762Y-113314819D01*
X213024762Y-113314819D02*
X212929524Y-113457676D01*
X212929524Y-113457676D02*
X212834286Y-113552914D01*
X212834286Y-113552914D02*
X212739048Y-113600533D01*
X213691429Y-113410057D02*
X213739048Y-113362438D01*
X213739048Y-113362438D02*
X213834286Y-113314819D01*
X213834286Y-113314819D02*
X214072381Y-113314819D01*
X214072381Y-113314819D02*
X214167619Y-113362438D01*
X214167619Y-113362438D02*
X214215238Y-113410057D01*
X214215238Y-113410057D02*
X214262857Y-113505295D01*
X214262857Y-113505295D02*
X214262857Y-113600533D01*
X214262857Y-113600533D02*
X214215238Y-113743390D01*
X214215238Y-113743390D02*
X213643810Y-114314819D01*
X213643810Y-114314819D02*
X214262857Y-114314819D01*
X201566160Y-79044642D02*
X201679920Y-79143305D01*
X201679920Y-79143305D02*
X201899891Y-79234421D01*
X201899891Y-79234421D02*
X202006103Y-79226872D01*
X202006103Y-79226872D02*
X202068320Y-79201101D01*
X202068320Y-79201101D02*
X202148760Y-79131336D01*
X202148760Y-79131336D02*
X202185206Y-79043347D01*
X202185206Y-79043347D02*
X202177658Y-78937136D01*
X202177658Y-78937136D02*
X202151887Y-78874918D01*
X202151887Y-78874918D02*
X202082121Y-78794478D01*
X202082121Y-78794478D02*
X201924367Y-78677592D01*
X201924367Y-78677592D02*
X201854602Y-78597151D01*
X201854602Y-78597151D02*
X201828831Y-78534934D01*
X201828831Y-78534934D02*
X201821282Y-78428722D01*
X201821282Y-78428722D02*
X201857729Y-78340734D01*
X201857729Y-78340734D02*
X201938169Y-78270968D01*
X201938169Y-78270968D02*
X202000386Y-78245197D01*
X202000386Y-78245197D02*
X202106598Y-78237649D01*
X202106598Y-78237649D02*
X202326569Y-78328764D01*
X202326569Y-78328764D02*
X202440329Y-78427427D01*
X202766512Y-78510994D02*
X202603800Y-79525989D01*
X202603800Y-79525989D02*
X203053122Y-78938967D01*
X203053122Y-78938967D02*
X202955754Y-79671773D01*
X202955754Y-79671773D02*
X203558408Y-78839009D01*
X203829922Y-79054558D02*
X203892139Y-79028787D01*
X203892139Y-79028787D02*
X203998351Y-79021239D01*
X203998351Y-79021239D02*
X204218322Y-79112354D01*
X204218322Y-79112354D02*
X204288088Y-79192794D01*
X204288088Y-79192794D02*
X204313859Y-79255012D01*
X204313859Y-79255012D02*
X204321407Y-79361223D01*
X204321407Y-79361223D02*
X204284961Y-79449212D01*
X204284961Y-79449212D02*
X204186298Y-79562971D01*
X204186298Y-79562971D02*
X203439690Y-79872226D01*
X203439690Y-79872226D02*
X204011616Y-80109126D01*
X204966225Y-79422145D02*
X205054213Y-79458591D01*
X205054213Y-79458591D02*
X205123979Y-79539032D01*
X205123979Y-79539032D02*
X205149750Y-79601249D01*
X205149750Y-79601249D02*
X205157298Y-79707460D01*
X205157298Y-79707460D02*
X205128400Y-79901661D01*
X205128400Y-79901661D02*
X205037285Y-80121632D01*
X205037285Y-80121632D02*
X204920399Y-80279386D01*
X204920399Y-80279386D02*
X204839959Y-80349151D01*
X204839959Y-80349151D02*
X204777741Y-80374923D01*
X204777741Y-80374923D02*
X204671530Y-80382471D01*
X204671530Y-80382471D02*
X204583541Y-80346025D01*
X204583541Y-80346025D02*
X204513776Y-80265585D01*
X204513776Y-80265585D02*
X204488005Y-80203367D01*
X204488005Y-80203367D02*
X204480456Y-80097156D01*
X204480456Y-80097156D02*
X204509354Y-79902956D01*
X204509354Y-79902956D02*
X204600469Y-79682984D01*
X204600469Y-79682984D02*
X204717356Y-79525230D01*
X204717356Y-79525230D02*
X204797796Y-79455465D01*
X204797796Y-79455465D02*
X204860013Y-79429694D01*
X204860013Y-79429694D02*
X204966225Y-79422145D01*
X205031032Y-80634467D02*
X205734940Y-80926035D01*
X206519289Y-81147838D02*
X206393560Y-80580334D01*
X205991358Y-80929162D02*
X206374041Y-80005282D01*
X206374041Y-80005282D02*
X206725996Y-80151066D01*
X206725996Y-80151066D02*
X206795761Y-80231507D01*
X206795761Y-80231507D02*
X206821532Y-80293724D01*
X206821532Y-80293724D02*
X206829081Y-80399935D01*
X206829081Y-80399935D02*
X206774411Y-80531918D01*
X206774411Y-80531918D02*
X206693971Y-80601684D01*
X206693971Y-80601684D02*
X206631754Y-80627455D01*
X206631754Y-80627455D02*
X206525542Y-80635003D01*
X206525542Y-80635003D02*
X206173588Y-80489219D01*
X206915238Y-81311845D02*
X207297921Y-80387966D01*
X208203577Y-80814643D02*
X208133812Y-80734203D01*
X208133812Y-80734203D02*
X208001829Y-80679534D01*
X208001829Y-80679534D02*
X207851623Y-80668859D01*
X207851623Y-80668859D02*
X207727188Y-80720401D01*
X207727188Y-80720401D02*
X207646748Y-80790167D01*
X207646748Y-80790167D02*
X207529862Y-80947921D01*
X207529862Y-80947921D02*
X207475193Y-81079904D01*
X207475193Y-81079904D02*
X207446295Y-81274104D01*
X207446295Y-81274104D02*
X207453843Y-81380315D01*
X207453843Y-81380315D02*
X207505386Y-81504750D01*
X207505386Y-81504750D02*
X207619145Y-81603413D01*
X207619145Y-81603413D02*
X207707134Y-81639859D01*
X207707134Y-81639859D02*
X207857340Y-81650534D01*
X207857340Y-81650534D02*
X207919557Y-81624763D01*
X207919557Y-81624763D02*
X208047118Y-81316803D01*
X208047118Y-81316803D02*
X207871141Y-81243911D01*
X208279059Y-81876758D02*
X208661743Y-80952879D01*
X208479512Y-81392822D02*
X209007444Y-81611498D01*
X208806990Y-82095435D02*
X209189674Y-81171555D01*
X209497634Y-81299116D02*
X210025565Y-81517793D01*
X209378916Y-82332334D02*
X209761599Y-81408454D01*
X210434778Y-82769687D02*
X209906847Y-82551010D01*
X210170813Y-82660348D02*
X210553496Y-81736469D01*
X210553496Y-81736469D02*
X210410839Y-81832006D01*
X210410839Y-81832006D02*
X210286404Y-81883548D01*
X210286404Y-81883548D02*
X210180192Y-81891096D01*
X143628333Y-36259580D02*
X143580714Y-36307200D01*
X143580714Y-36307200D02*
X143437857Y-36354819D01*
X143437857Y-36354819D02*
X143342619Y-36354819D01*
X143342619Y-36354819D02*
X143199762Y-36307200D01*
X143199762Y-36307200D02*
X143104524Y-36211961D01*
X143104524Y-36211961D02*
X143056905Y-36116723D01*
X143056905Y-36116723D02*
X143009286Y-35926247D01*
X143009286Y-35926247D02*
X143009286Y-35783390D01*
X143009286Y-35783390D02*
X143056905Y-35592914D01*
X143056905Y-35592914D02*
X143104524Y-35497676D01*
X143104524Y-35497676D02*
X143199762Y-35402438D01*
X143199762Y-35402438D02*
X143342619Y-35354819D01*
X143342619Y-35354819D02*
X143437857Y-35354819D01*
X143437857Y-35354819D02*
X143580714Y-35402438D01*
X143580714Y-35402438D02*
X143628333Y-35450057D01*
X144009286Y-35450057D02*
X144056905Y-35402438D01*
X144056905Y-35402438D02*
X144152143Y-35354819D01*
X144152143Y-35354819D02*
X144390238Y-35354819D01*
X144390238Y-35354819D02*
X144485476Y-35402438D01*
X144485476Y-35402438D02*
X144533095Y-35450057D01*
X144533095Y-35450057D02*
X144580714Y-35545295D01*
X144580714Y-35545295D02*
X144580714Y-35640533D01*
X144580714Y-35640533D02*
X144533095Y-35783390D01*
X144533095Y-35783390D02*
X143961667Y-36354819D01*
X143961667Y-36354819D02*
X144580714Y-36354819D01*
X153933333Y-38116104D02*
X153885714Y-38154200D01*
X153885714Y-38154200D02*
X153742857Y-38192295D01*
X153742857Y-38192295D02*
X153647619Y-38192295D01*
X153647619Y-38192295D02*
X153504762Y-38154200D01*
X153504762Y-38154200D02*
X153409524Y-38078009D01*
X153409524Y-38078009D02*
X153361905Y-38001819D01*
X153361905Y-38001819D02*
X153314286Y-37849438D01*
X153314286Y-37849438D02*
X153314286Y-37735152D01*
X153314286Y-37735152D02*
X153361905Y-37582771D01*
X153361905Y-37582771D02*
X153409524Y-37506580D01*
X153409524Y-37506580D02*
X153504762Y-37430390D01*
X153504762Y-37430390D02*
X153647619Y-37392295D01*
X153647619Y-37392295D02*
X153742857Y-37392295D01*
X153742857Y-37392295D02*
X153885714Y-37430390D01*
X153885714Y-37430390D02*
X153933333Y-37468485D01*
X154790476Y-37392295D02*
X154600000Y-37392295D01*
X154600000Y-37392295D02*
X154504762Y-37430390D01*
X154504762Y-37430390D02*
X154457143Y-37468485D01*
X154457143Y-37468485D02*
X154361905Y-37582771D01*
X154361905Y-37582771D02*
X154314286Y-37735152D01*
X154314286Y-37735152D02*
X154314286Y-38039914D01*
X154314286Y-38039914D02*
X154361905Y-38116104D01*
X154361905Y-38116104D02*
X154409524Y-38154200D01*
X154409524Y-38154200D02*
X154504762Y-38192295D01*
X154504762Y-38192295D02*
X154695238Y-38192295D01*
X154695238Y-38192295D02*
X154790476Y-38154200D01*
X154790476Y-38154200D02*
X154838095Y-38116104D01*
X154838095Y-38116104D02*
X154885714Y-38039914D01*
X154885714Y-38039914D02*
X154885714Y-37849438D01*
X154885714Y-37849438D02*
X154838095Y-37773247D01*
X154838095Y-37773247D02*
X154790476Y-37735152D01*
X154790476Y-37735152D02*
X154695238Y-37697057D01*
X154695238Y-37697057D02*
X154504762Y-37697057D01*
X154504762Y-37697057D02*
X154409524Y-37735152D01*
X154409524Y-37735152D02*
X154361905Y-37773247D01*
X154361905Y-37773247D02*
X154314286Y-37849438D01*
X134009524Y-69298896D02*
X134152381Y-69346515D01*
X134152381Y-69346515D02*
X134390476Y-69346515D01*
X134390476Y-69346515D02*
X134485714Y-69298896D01*
X134485714Y-69298896D02*
X134533333Y-69251276D01*
X134533333Y-69251276D02*
X134580952Y-69156038D01*
X134580952Y-69156038D02*
X134580952Y-69060800D01*
X134580952Y-69060800D02*
X134533333Y-68965562D01*
X134533333Y-68965562D02*
X134485714Y-68917943D01*
X134485714Y-68917943D02*
X134390476Y-68870324D01*
X134390476Y-68870324D02*
X134200000Y-68822705D01*
X134200000Y-68822705D02*
X134104762Y-68775086D01*
X134104762Y-68775086D02*
X134057143Y-68727467D01*
X134057143Y-68727467D02*
X134009524Y-68632229D01*
X134009524Y-68632229D02*
X134009524Y-68536991D01*
X134009524Y-68536991D02*
X134057143Y-68441753D01*
X134057143Y-68441753D02*
X134104762Y-68394134D01*
X134104762Y-68394134D02*
X134200000Y-68346515D01*
X134200000Y-68346515D02*
X134438095Y-68346515D01*
X134438095Y-68346515D02*
X134580952Y-68394134D01*
X134914286Y-68346515D02*
X135152381Y-69346515D01*
X135152381Y-69346515D02*
X135342857Y-68632229D01*
X135342857Y-68632229D02*
X135533333Y-69346515D01*
X135533333Y-69346515D02*
X135771429Y-68346515D01*
X136295238Y-68775086D02*
X136200000Y-68727467D01*
X136200000Y-68727467D02*
X136152381Y-68679848D01*
X136152381Y-68679848D02*
X136104762Y-68584610D01*
X136104762Y-68584610D02*
X136104762Y-68536991D01*
X136104762Y-68536991D02*
X136152381Y-68441753D01*
X136152381Y-68441753D02*
X136200000Y-68394134D01*
X136200000Y-68394134D02*
X136295238Y-68346515D01*
X136295238Y-68346515D02*
X136485714Y-68346515D01*
X136485714Y-68346515D02*
X136580952Y-68394134D01*
X136580952Y-68394134D02*
X136628571Y-68441753D01*
X136628571Y-68441753D02*
X136676190Y-68536991D01*
X136676190Y-68536991D02*
X136676190Y-68584610D01*
X136676190Y-68584610D02*
X136628571Y-68679848D01*
X136628571Y-68679848D02*
X136580952Y-68727467D01*
X136580952Y-68727467D02*
X136485714Y-68775086D01*
X136485714Y-68775086D02*
X136295238Y-68775086D01*
X136295238Y-68775086D02*
X136200000Y-68822705D01*
X136200000Y-68822705D02*
X136152381Y-68870324D01*
X136152381Y-68870324D02*
X136104762Y-68965562D01*
X136104762Y-68965562D02*
X136104762Y-69156038D01*
X136104762Y-69156038D02*
X136152381Y-69251276D01*
X136152381Y-69251276D02*
X136200000Y-69298896D01*
X136200000Y-69298896D02*
X136295238Y-69346515D01*
X136295238Y-69346515D02*
X136485714Y-69346515D01*
X136485714Y-69346515D02*
X136580952Y-69298896D01*
X136580952Y-69298896D02*
X136628571Y-69251276D01*
X136628571Y-69251276D02*
X136676190Y-69156038D01*
X136676190Y-69156038D02*
X136676190Y-68965562D01*
X136676190Y-68965562D02*
X136628571Y-68870324D01*
X136628571Y-68870324D02*
X136580952Y-68822705D01*
X136580952Y-68822705D02*
X136485714Y-68775086D01*
X136866667Y-69441753D02*
X137628571Y-69441753D01*
X137866667Y-69346515D02*
X137866667Y-68346515D01*
X137866667Y-68346515D02*
X138104762Y-68346515D01*
X138104762Y-68346515D02*
X138247619Y-68394134D01*
X138247619Y-68394134D02*
X138342857Y-68489372D01*
X138342857Y-68489372D02*
X138390476Y-68584610D01*
X138390476Y-68584610D02*
X138438095Y-68775086D01*
X138438095Y-68775086D02*
X138438095Y-68917943D01*
X138438095Y-68917943D02*
X138390476Y-69108419D01*
X138390476Y-69108419D02*
X138342857Y-69203657D01*
X138342857Y-69203657D02*
X138247619Y-69298896D01*
X138247619Y-69298896D02*
X138104762Y-69346515D01*
X138104762Y-69346515D02*
X137866667Y-69346515D01*
X138866667Y-69346515D02*
X138866667Y-68346515D01*
X138866667Y-68346515D02*
X139247619Y-68346515D01*
X139247619Y-68346515D02*
X139342857Y-68394134D01*
X139342857Y-68394134D02*
X139390476Y-68441753D01*
X139390476Y-68441753D02*
X139438095Y-68536991D01*
X139438095Y-68536991D02*
X139438095Y-68679848D01*
X139438095Y-68679848D02*
X139390476Y-68775086D01*
X139390476Y-68775086D02*
X139342857Y-68822705D01*
X139342857Y-68822705D02*
X139247619Y-68870324D01*
X139247619Y-68870324D02*
X138866667Y-68870324D01*
X140390476Y-69346515D02*
X139819048Y-69346515D01*
X140104762Y-69346515D02*
X140104762Y-68346515D01*
X140104762Y-68346515D02*
X140009524Y-68489372D01*
X140009524Y-68489372D02*
X139914286Y-68584610D01*
X139914286Y-68584610D02*
X139819048Y-68632229D01*
X212406666Y-43324819D02*
X212406666Y-44039104D01*
X212406666Y-44039104D02*
X212359047Y-44181961D01*
X212359047Y-44181961D02*
X212263809Y-44277200D01*
X212263809Y-44277200D02*
X212120952Y-44324819D01*
X212120952Y-44324819D02*
X212025714Y-44324819D01*
X212882857Y-44324819D02*
X212882857Y-43324819D01*
X212882857Y-43324819D02*
X213263809Y-43324819D01*
X213263809Y-43324819D02*
X213359047Y-43372438D01*
X213359047Y-43372438D02*
X213406666Y-43420057D01*
X213406666Y-43420057D02*
X213454285Y-43515295D01*
X213454285Y-43515295D02*
X213454285Y-43658152D01*
X213454285Y-43658152D02*
X213406666Y-43753390D01*
X213406666Y-43753390D02*
X213359047Y-43801009D01*
X213359047Y-43801009D02*
X213263809Y-43848628D01*
X213263809Y-43848628D02*
X212882857Y-43848628D01*
X214311428Y-43324819D02*
X214120952Y-43324819D01*
X214120952Y-43324819D02*
X214025714Y-43372438D01*
X214025714Y-43372438D02*
X213978095Y-43420057D01*
X213978095Y-43420057D02*
X213882857Y-43562914D01*
X213882857Y-43562914D02*
X213835238Y-43753390D01*
X213835238Y-43753390D02*
X213835238Y-44134342D01*
X213835238Y-44134342D02*
X213882857Y-44229580D01*
X213882857Y-44229580D02*
X213930476Y-44277200D01*
X213930476Y-44277200D02*
X214025714Y-44324819D01*
X214025714Y-44324819D02*
X214216190Y-44324819D01*
X214216190Y-44324819D02*
X214311428Y-44277200D01*
X214311428Y-44277200D02*
X214359047Y-44229580D01*
X214359047Y-44229580D02*
X214406666Y-44134342D01*
X214406666Y-44134342D02*
X214406666Y-43896247D01*
X214406666Y-43896247D02*
X214359047Y-43801009D01*
X214359047Y-43801009D02*
X214311428Y-43753390D01*
X214311428Y-43753390D02*
X214216190Y-43705771D01*
X214216190Y-43705771D02*
X214025714Y-43705771D01*
X214025714Y-43705771D02*
X213930476Y-43753390D01*
X213930476Y-43753390D02*
X213882857Y-43801009D01*
X213882857Y-43801009D02*
X213835238Y-43896247D01*
X162937142Y-49231580D02*
X162889523Y-49279200D01*
X162889523Y-49279200D02*
X162746666Y-49326819D01*
X162746666Y-49326819D02*
X162651428Y-49326819D01*
X162651428Y-49326819D02*
X162508571Y-49279200D01*
X162508571Y-49279200D02*
X162413333Y-49183961D01*
X162413333Y-49183961D02*
X162365714Y-49088723D01*
X162365714Y-49088723D02*
X162318095Y-48898247D01*
X162318095Y-48898247D02*
X162318095Y-48755390D01*
X162318095Y-48755390D02*
X162365714Y-48564914D01*
X162365714Y-48564914D02*
X162413333Y-48469676D01*
X162413333Y-48469676D02*
X162508571Y-48374438D01*
X162508571Y-48374438D02*
X162651428Y-48326819D01*
X162651428Y-48326819D02*
X162746666Y-48326819D01*
X162746666Y-48326819D02*
X162889523Y-48374438D01*
X162889523Y-48374438D02*
X162937142Y-48422057D01*
X163889523Y-49326819D02*
X163318095Y-49326819D01*
X163603809Y-49326819D02*
X163603809Y-48326819D01*
X163603809Y-48326819D02*
X163508571Y-48469676D01*
X163508571Y-48469676D02*
X163413333Y-48564914D01*
X163413333Y-48564914D02*
X163318095Y-48612533D01*
X164222857Y-48326819D02*
X164841904Y-48326819D01*
X164841904Y-48326819D02*
X164508571Y-48707771D01*
X164508571Y-48707771D02*
X164651428Y-48707771D01*
X164651428Y-48707771D02*
X164746666Y-48755390D01*
X164746666Y-48755390D02*
X164794285Y-48803009D01*
X164794285Y-48803009D02*
X164841904Y-48898247D01*
X164841904Y-48898247D02*
X164841904Y-49136342D01*
X164841904Y-49136342D02*
X164794285Y-49231580D01*
X164794285Y-49231580D02*
X164746666Y-49279200D01*
X164746666Y-49279200D02*
X164651428Y-49326819D01*
X164651428Y-49326819D02*
X164365714Y-49326819D01*
X164365714Y-49326819D02*
X164270476Y-49279200D01*
X164270476Y-49279200D02*
X164222857Y-49231580D01*
X173035809Y-44372628D02*
X173035809Y-44848819D01*
X172702476Y-43848819D02*
X173035809Y-44372628D01*
X173035809Y-44372628D02*
X173369142Y-43848819D01*
X174226285Y-44848819D02*
X173654857Y-44848819D01*
X173940571Y-44848819D02*
X173940571Y-43848819D01*
X173940571Y-43848819D02*
X173845333Y-43991676D01*
X173845333Y-43991676D02*
X173750095Y-44086914D01*
X173750095Y-44086914D02*
X173654857Y-44134533D01*
X168337026Y-60951115D02*
X168450786Y-61049779D01*
X168450786Y-61049779D02*
X168670757Y-61140894D01*
X168670757Y-61140894D02*
X168776969Y-61133345D01*
X168776969Y-61133345D02*
X168839186Y-61107574D01*
X168839186Y-61107574D02*
X168919627Y-61037809D01*
X168919627Y-61037809D02*
X168956073Y-60949820D01*
X168956073Y-60949820D02*
X168948524Y-60843609D01*
X168948524Y-60843609D02*
X168922753Y-60781391D01*
X168922753Y-60781391D02*
X168852988Y-60700951D01*
X168852988Y-60700951D02*
X168695234Y-60584065D01*
X168695234Y-60584065D02*
X168625468Y-60503624D01*
X168625468Y-60503624D02*
X168599697Y-60441407D01*
X168599697Y-60441407D02*
X168592149Y-60335196D01*
X168592149Y-60335196D02*
X168628595Y-60247207D01*
X168628595Y-60247207D02*
X168709035Y-60177441D01*
X168709035Y-60177441D02*
X168771252Y-60151670D01*
X168771252Y-60151670D02*
X168877464Y-60144122D01*
X168877464Y-60144122D02*
X169097435Y-60235237D01*
X169097435Y-60235237D02*
X169211195Y-60333900D01*
X169537378Y-60417467D02*
X169374666Y-61432462D01*
X169374666Y-61432462D02*
X169823988Y-60845440D01*
X169823988Y-60845440D02*
X169726620Y-61578246D01*
X169726620Y-61578246D02*
X170329275Y-60745482D01*
X170782482Y-62015599D02*
X170254551Y-61796922D01*
X170518516Y-61906260D02*
X170901200Y-60982381D01*
X170901200Y-60982381D02*
X170758542Y-61077918D01*
X170758542Y-61077918D02*
X170634108Y-61129460D01*
X170634108Y-61129460D02*
X170527896Y-61137008D01*
X171222425Y-62197829D02*
X171398402Y-62270721D01*
X171398402Y-62270721D02*
X171504613Y-62263173D01*
X171504613Y-62263173D02*
X171566831Y-62237401D01*
X171566831Y-62237401D02*
X171709488Y-62141865D01*
X171709488Y-62141865D02*
X171826375Y-61984111D01*
X171826375Y-61984111D02*
X171972159Y-61632157D01*
X171972159Y-61632157D02*
X171964610Y-61525945D01*
X171964610Y-61525945D02*
X171938839Y-61463728D01*
X171938839Y-61463728D02*
X171869074Y-61383287D01*
X171869074Y-61383287D02*
X171693097Y-61310395D01*
X171693097Y-61310395D02*
X171586885Y-61317944D01*
X171586885Y-61317944D02*
X171524668Y-61343715D01*
X171524668Y-61343715D02*
X171444228Y-61413480D01*
X171444228Y-61413480D02*
X171353112Y-61633452D01*
X171353112Y-61633452D02*
X171360661Y-61739663D01*
X171360661Y-61739663D02*
X171386432Y-61801880D01*
X171386432Y-61801880D02*
X171456197Y-61882321D01*
X171456197Y-61882321D02*
X171632174Y-61955213D01*
X171632174Y-61955213D02*
X171738386Y-61947665D01*
X171738386Y-61947665D02*
X171800603Y-61921893D01*
X171800603Y-61921893D02*
X171881044Y-61852128D01*
X171801898Y-62540940D02*
X172505807Y-62832508D01*
X173202167Y-63017865D02*
X172762224Y-62835635D01*
X172762224Y-62835635D02*
X173144908Y-61911755D01*
X173710580Y-62661489D02*
X174018540Y-62789050D01*
X173950069Y-63327656D02*
X173510127Y-63145426D01*
X173510127Y-63145426D02*
X173892810Y-62221547D01*
X173892810Y-62221547D02*
X174332753Y-62403777D01*
X174854431Y-63135288D02*
X174546471Y-63007727D01*
X174346018Y-63491663D02*
X174728701Y-62567784D01*
X174728701Y-62567784D02*
X175168644Y-62750014D01*
X175388615Y-62841129D02*
X175916547Y-63059806D01*
X175269898Y-63874347D02*
X175652581Y-62950467D01*
X176325760Y-64311700D02*
X175797829Y-64093023D01*
X176061795Y-64202361D02*
X176444478Y-63278482D01*
X176444478Y-63278482D02*
X176301820Y-63374019D01*
X176301820Y-63374019D02*
X176177386Y-63425561D01*
X176177386Y-63425561D02*
X176071174Y-63433109D01*
X149049333Y-53783580D02*
X149001714Y-53831200D01*
X149001714Y-53831200D02*
X148858857Y-53878819D01*
X148858857Y-53878819D02*
X148763619Y-53878819D01*
X148763619Y-53878819D02*
X148620762Y-53831200D01*
X148620762Y-53831200D02*
X148525524Y-53735961D01*
X148525524Y-53735961D02*
X148477905Y-53640723D01*
X148477905Y-53640723D02*
X148430286Y-53450247D01*
X148430286Y-53450247D02*
X148430286Y-53307390D01*
X148430286Y-53307390D02*
X148477905Y-53116914D01*
X148477905Y-53116914D02*
X148525524Y-53021676D01*
X148525524Y-53021676D02*
X148620762Y-52926438D01*
X148620762Y-52926438D02*
X148763619Y-52878819D01*
X148763619Y-52878819D02*
X148858857Y-52878819D01*
X148858857Y-52878819D02*
X149001714Y-52926438D01*
X149001714Y-52926438D02*
X149049333Y-52974057D01*
X149954095Y-52878819D02*
X149477905Y-52878819D01*
X149477905Y-52878819D02*
X149430286Y-53355009D01*
X149430286Y-53355009D02*
X149477905Y-53307390D01*
X149477905Y-53307390D02*
X149573143Y-53259771D01*
X149573143Y-53259771D02*
X149811238Y-53259771D01*
X149811238Y-53259771D02*
X149906476Y-53307390D01*
X149906476Y-53307390D02*
X149954095Y-53355009D01*
X149954095Y-53355009D02*
X150001714Y-53450247D01*
X150001714Y-53450247D02*
X150001714Y-53688342D01*
X150001714Y-53688342D02*
X149954095Y-53783580D01*
X149954095Y-53783580D02*
X149906476Y-53831200D01*
X149906476Y-53831200D02*
X149811238Y-53878819D01*
X149811238Y-53878819D02*
X149573143Y-53878819D01*
X149573143Y-53878819D02*
X149477905Y-53831200D01*
X149477905Y-53831200D02*
X149430286Y-53783580D01*
X154917200Y-108983809D02*
X154964819Y-108840952D01*
X154964819Y-108840952D02*
X154964819Y-108602857D01*
X154964819Y-108602857D02*
X154917200Y-108507619D01*
X154917200Y-108507619D02*
X154869580Y-108460000D01*
X154869580Y-108460000D02*
X154774342Y-108412381D01*
X154774342Y-108412381D02*
X154679104Y-108412381D01*
X154679104Y-108412381D02*
X154583866Y-108460000D01*
X154583866Y-108460000D02*
X154536247Y-108507619D01*
X154536247Y-108507619D02*
X154488628Y-108602857D01*
X154488628Y-108602857D02*
X154441009Y-108793333D01*
X154441009Y-108793333D02*
X154393390Y-108888571D01*
X154393390Y-108888571D02*
X154345771Y-108936190D01*
X154345771Y-108936190D02*
X154250533Y-108983809D01*
X154250533Y-108983809D02*
X154155295Y-108983809D01*
X154155295Y-108983809D02*
X154060057Y-108936190D01*
X154060057Y-108936190D02*
X154012438Y-108888571D01*
X154012438Y-108888571D02*
X153964819Y-108793333D01*
X153964819Y-108793333D02*
X153964819Y-108555238D01*
X153964819Y-108555238D02*
X154012438Y-108412381D01*
X153964819Y-108079047D02*
X154964819Y-107840952D01*
X154964819Y-107840952D02*
X154250533Y-107650476D01*
X154250533Y-107650476D02*
X154964819Y-107460000D01*
X154964819Y-107460000D02*
X153964819Y-107221905D01*
X154964819Y-106317143D02*
X154964819Y-106888571D01*
X154964819Y-106602857D02*
X153964819Y-106602857D01*
X153964819Y-106602857D02*
X154107676Y-106698095D01*
X154107676Y-106698095D02*
X154202914Y-106793333D01*
X154202914Y-106793333D02*
X154250533Y-106888571D01*
X153964819Y-105460000D02*
X153964819Y-105650476D01*
X153964819Y-105650476D02*
X154012438Y-105745714D01*
X154012438Y-105745714D02*
X154060057Y-105793333D01*
X154060057Y-105793333D02*
X154202914Y-105888571D01*
X154202914Y-105888571D02*
X154393390Y-105936190D01*
X154393390Y-105936190D02*
X154774342Y-105936190D01*
X154774342Y-105936190D02*
X154869580Y-105888571D01*
X154869580Y-105888571D02*
X154917200Y-105840952D01*
X154917200Y-105840952D02*
X154964819Y-105745714D01*
X154964819Y-105745714D02*
X154964819Y-105555238D01*
X154964819Y-105555238D02*
X154917200Y-105460000D01*
X154917200Y-105460000D02*
X154869580Y-105412381D01*
X154869580Y-105412381D02*
X154774342Y-105364762D01*
X154774342Y-105364762D02*
X154536247Y-105364762D01*
X154536247Y-105364762D02*
X154441009Y-105412381D01*
X154441009Y-105412381D02*
X154393390Y-105460000D01*
X154393390Y-105460000D02*
X154345771Y-105555238D01*
X154345771Y-105555238D02*
X154345771Y-105745714D01*
X154345771Y-105745714D02*
X154393390Y-105840952D01*
X154393390Y-105840952D02*
X154441009Y-105888571D01*
X154441009Y-105888571D02*
X154536247Y-105936190D01*
X155060057Y-105174286D02*
X155060057Y-104412381D01*
X154917200Y-104221904D02*
X154964819Y-104079047D01*
X154964819Y-104079047D02*
X154964819Y-103840952D01*
X154964819Y-103840952D02*
X154917200Y-103745714D01*
X154917200Y-103745714D02*
X154869580Y-103698095D01*
X154869580Y-103698095D02*
X154774342Y-103650476D01*
X154774342Y-103650476D02*
X154679104Y-103650476D01*
X154679104Y-103650476D02*
X154583866Y-103698095D01*
X154583866Y-103698095D02*
X154536247Y-103745714D01*
X154536247Y-103745714D02*
X154488628Y-103840952D01*
X154488628Y-103840952D02*
X154441009Y-104031428D01*
X154441009Y-104031428D02*
X154393390Y-104126666D01*
X154393390Y-104126666D02*
X154345771Y-104174285D01*
X154345771Y-104174285D02*
X154250533Y-104221904D01*
X154250533Y-104221904D02*
X154155295Y-104221904D01*
X154155295Y-104221904D02*
X154060057Y-104174285D01*
X154060057Y-104174285D02*
X154012438Y-104126666D01*
X154012438Y-104126666D02*
X153964819Y-104031428D01*
X153964819Y-104031428D02*
X153964819Y-103793333D01*
X153964819Y-103793333D02*
X154012438Y-103650476D01*
X154964819Y-103221904D02*
X153964819Y-103221904D01*
X153964819Y-103221904D02*
X153964819Y-102840952D01*
X153964819Y-102840952D02*
X154012438Y-102745714D01*
X154012438Y-102745714D02*
X154060057Y-102698095D01*
X154060057Y-102698095D02*
X154155295Y-102650476D01*
X154155295Y-102650476D02*
X154298152Y-102650476D01*
X154298152Y-102650476D02*
X154393390Y-102698095D01*
X154393390Y-102698095D02*
X154441009Y-102745714D01*
X154441009Y-102745714D02*
X154488628Y-102840952D01*
X154488628Y-102840952D02*
X154488628Y-103221904D01*
X154679104Y-102269523D02*
X154679104Y-101793333D01*
X154964819Y-102364761D02*
X153964819Y-102031428D01*
X153964819Y-102031428D02*
X154964819Y-101698095D01*
X154869580Y-100793333D02*
X154917200Y-100840952D01*
X154917200Y-100840952D02*
X154964819Y-100983809D01*
X154964819Y-100983809D02*
X154964819Y-101079047D01*
X154964819Y-101079047D02*
X154917200Y-101221904D01*
X154917200Y-101221904D02*
X154821961Y-101317142D01*
X154821961Y-101317142D02*
X154726723Y-101364761D01*
X154726723Y-101364761D02*
X154536247Y-101412380D01*
X154536247Y-101412380D02*
X154393390Y-101412380D01*
X154393390Y-101412380D02*
X154202914Y-101364761D01*
X154202914Y-101364761D02*
X154107676Y-101317142D01*
X154107676Y-101317142D02*
X154012438Y-101221904D01*
X154012438Y-101221904D02*
X153964819Y-101079047D01*
X153964819Y-101079047D02*
X153964819Y-100983809D01*
X153964819Y-100983809D02*
X154012438Y-100840952D01*
X154012438Y-100840952D02*
X154060057Y-100793333D01*
X154441009Y-100364761D02*
X154441009Y-100031428D01*
X154964819Y-99888571D02*
X154964819Y-100364761D01*
X154964819Y-100364761D02*
X153964819Y-100364761D01*
X153964819Y-100364761D02*
X153964819Y-99888571D01*
X154964819Y-98936190D02*
X154964819Y-99507618D01*
X154964819Y-99221904D02*
X153964819Y-99221904D01*
X153964819Y-99221904D02*
X154107676Y-99317142D01*
X154107676Y-99317142D02*
X154202914Y-99412380D01*
X154202914Y-99412380D02*
X154250533Y-99507618D01*
X150033333Y-34854819D02*
X149700000Y-34378628D01*
X149461905Y-34854819D02*
X149461905Y-33854819D01*
X149461905Y-33854819D02*
X149842857Y-33854819D01*
X149842857Y-33854819D02*
X149938095Y-33902438D01*
X149938095Y-33902438D02*
X149985714Y-33950057D01*
X149985714Y-33950057D02*
X150033333Y-34045295D01*
X150033333Y-34045295D02*
X150033333Y-34188152D01*
X150033333Y-34188152D02*
X149985714Y-34283390D01*
X149985714Y-34283390D02*
X149938095Y-34331009D01*
X149938095Y-34331009D02*
X149842857Y-34378628D01*
X149842857Y-34378628D02*
X149461905Y-34378628D01*
X150985714Y-34854819D02*
X150414286Y-34854819D01*
X150700000Y-34854819D02*
X150700000Y-33854819D01*
X150700000Y-33854819D02*
X150604762Y-33997676D01*
X150604762Y-33997676D02*
X150509524Y-34092914D01*
X150509524Y-34092914D02*
X150414286Y-34140533D01*
X141559580Y-36042857D02*
X141607200Y-36090476D01*
X141607200Y-36090476D02*
X141654819Y-36233333D01*
X141654819Y-36233333D02*
X141654819Y-36328571D01*
X141654819Y-36328571D02*
X141607200Y-36471428D01*
X141607200Y-36471428D02*
X141511961Y-36566666D01*
X141511961Y-36566666D02*
X141416723Y-36614285D01*
X141416723Y-36614285D02*
X141226247Y-36661904D01*
X141226247Y-36661904D02*
X141083390Y-36661904D01*
X141083390Y-36661904D02*
X140892914Y-36614285D01*
X140892914Y-36614285D02*
X140797676Y-36566666D01*
X140797676Y-36566666D02*
X140702438Y-36471428D01*
X140702438Y-36471428D02*
X140654819Y-36328571D01*
X140654819Y-36328571D02*
X140654819Y-36233333D01*
X140654819Y-36233333D02*
X140702438Y-36090476D01*
X140702438Y-36090476D02*
X140750057Y-36042857D01*
X141654819Y-35090476D02*
X141654819Y-35661904D01*
X141654819Y-35376190D02*
X140654819Y-35376190D01*
X140654819Y-35376190D02*
X140797676Y-35471428D01*
X140797676Y-35471428D02*
X140892914Y-35566666D01*
X140892914Y-35566666D02*
X140940533Y-35661904D01*
X140654819Y-34757142D02*
X140654819Y-34090476D01*
X140654819Y-34090476D02*
X141654819Y-34519047D01*
X212406666Y-37824819D02*
X212406666Y-38539104D01*
X212406666Y-38539104D02*
X212359047Y-38681961D01*
X212359047Y-38681961D02*
X212263809Y-38777200D01*
X212263809Y-38777200D02*
X212120952Y-38824819D01*
X212120952Y-38824819D02*
X212025714Y-38824819D01*
X212882857Y-38824819D02*
X212882857Y-37824819D01*
X212882857Y-37824819D02*
X213263809Y-37824819D01*
X213263809Y-37824819D02*
X213359047Y-37872438D01*
X213359047Y-37872438D02*
X213406666Y-37920057D01*
X213406666Y-37920057D02*
X213454285Y-38015295D01*
X213454285Y-38015295D02*
X213454285Y-38158152D01*
X213454285Y-38158152D02*
X213406666Y-38253390D01*
X213406666Y-38253390D02*
X213359047Y-38301009D01*
X213359047Y-38301009D02*
X213263809Y-38348628D01*
X213263809Y-38348628D02*
X212882857Y-38348628D01*
X214311428Y-38158152D02*
X214311428Y-38824819D01*
X214073333Y-37777200D02*
X213835238Y-38491485D01*
X213835238Y-38491485D02*
X214454285Y-38491485D01*
X149439580Y-43472857D02*
X149487200Y-43520476D01*
X149487200Y-43520476D02*
X149534819Y-43663333D01*
X149534819Y-43663333D02*
X149534819Y-43758571D01*
X149534819Y-43758571D02*
X149487200Y-43901428D01*
X149487200Y-43901428D02*
X149391961Y-43996666D01*
X149391961Y-43996666D02*
X149296723Y-44044285D01*
X149296723Y-44044285D02*
X149106247Y-44091904D01*
X149106247Y-44091904D02*
X148963390Y-44091904D01*
X148963390Y-44091904D02*
X148772914Y-44044285D01*
X148772914Y-44044285D02*
X148677676Y-43996666D01*
X148677676Y-43996666D02*
X148582438Y-43901428D01*
X148582438Y-43901428D02*
X148534819Y-43758571D01*
X148534819Y-43758571D02*
X148534819Y-43663333D01*
X148534819Y-43663333D02*
X148582438Y-43520476D01*
X148582438Y-43520476D02*
X148630057Y-43472857D01*
X149534819Y-42520476D02*
X149534819Y-43091904D01*
X149534819Y-42806190D02*
X148534819Y-42806190D01*
X148534819Y-42806190D02*
X148677676Y-42901428D01*
X148677676Y-42901428D02*
X148772914Y-42996666D01*
X148772914Y-42996666D02*
X148820533Y-43091904D01*
X149534819Y-41568095D02*
X149534819Y-42139523D01*
X149534819Y-41853809D02*
X148534819Y-41853809D01*
X148534819Y-41853809D02*
X148677676Y-41949047D01*
X148677676Y-41949047D02*
X148772914Y-42044285D01*
X148772914Y-42044285D02*
X148820533Y-42139523D01*
X212406666Y-40574819D02*
X212406666Y-41289104D01*
X212406666Y-41289104D02*
X212359047Y-41431961D01*
X212359047Y-41431961D02*
X212263809Y-41527200D01*
X212263809Y-41527200D02*
X212120952Y-41574819D01*
X212120952Y-41574819D02*
X212025714Y-41574819D01*
X212882857Y-41574819D02*
X212882857Y-40574819D01*
X212882857Y-40574819D02*
X213263809Y-40574819D01*
X213263809Y-40574819D02*
X213359047Y-40622438D01*
X213359047Y-40622438D02*
X213406666Y-40670057D01*
X213406666Y-40670057D02*
X213454285Y-40765295D01*
X213454285Y-40765295D02*
X213454285Y-40908152D01*
X213454285Y-40908152D02*
X213406666Y-41003390D01*
X213406666Y-41003390D02*
X213359047Y-41051009D01*
X213359047Y-41051009D02*
X213263809Y-41098628D01*
X213263809Y-41098628D02*
X212882857Y-41098628D01*
X214359047Y-40574819D02*
X213882857Y-40574819D01*
X213882857Y-40574819D02*
X213835238Y-41051009D01*
X213835238Y-41051009D02*
X213882857Y-41003390D01*
X213882857Y-41003390D02*
X213978095Y-40955771D01*
X213978095Y-40955771D02*
X214216190Y-40955771D01*
X214216190Y-40955771D02*
X214311428Y-41003390D01*
X214311428Y-41003390D02*
X214359047Y-41051009D01*
X214359047Y-41051009D02*
X214406666Y-41146247D01*
X214406666Y-41146247D02*
X214406666Y-41384342D01*
X214406666Y-41384342D02*
X214359047Y-41479580D01*
X214359047Y-41479580D02*
X214311428Y-41527200D01*
X214311428Y-41527200D02*
X214216190Y-41574819D01*
X214216190Y-41574819D02*
X213978095Y-41574819D01*
X213978095Y-41574819D02*
X213882857Y-41527200D01*
X213882857Y-41527200D02*
X213835238Y-41479580D01*
X151248095Y-51358819D02*
X151248095Y-52168342D01*
X151248095Y-52168342D02*
X151295714Y-52263580D01*
X151295714Y-52263580D02*
X151343333Y-52311200D01*
X151343333Y-52311200D02*
X151438571Y-52358819D01*
X151438571Y-52358819D02*
X151629047Y-52358819D01*
X151629047Y-52358819D02*
X151724285Y-52311200D01*
X151724285Y-52311200D02*
X151771904Y-52263580D01*
X151771904Y-52263580D02*
X151819523Y-52168342D01*
X151819523Y-52168342D02*
X151819523Y-51358819D01*
X152200476Y-51358819D02*
X152819523Y-51358819D01*
X152819523Y-51358819D02*
X152486190Y-51739771D01*
X152486190Y-51739771D02*
X152629047Y-51739771D01*
X152629047Y-51739771D02*
X152724285Y-51787390D01*
X152724285Y-51787390D02*
X152771904Y-51835009D01*
X152771904Y-51835009D02*
X152819523Y-51930247D01*
X152819523Y-51930247D02*
X152819523Y-52168342D01*
X152819523Y-52168342D02*
X152771904Y-52263580D01*
X152771904Y-52263580D02*
X152724285Y-52311200D01*
X152724285Y-52311200D02*
X152629047Y-52358819D01*
X152629047Y-52358819D02*
X152343333Y-52358819D01*
X152343333Y-52358819D02*
X152248095Y-52311200D01*
X152248095Y-52311200D02*
X152200476Y-52263580D01*
X160349580Y-49222857D02*
X160397200Y-49270476D01*
X160397200Y-49270476D02*
X160444819Y-49413333D01*
X160444819Y-49413333D02*
X160444819Y-49508571D01*
X160444819Y-49508571D02*
X160397200Y-49651428D01*
X160397200Y-49651428D02*
X160301961Y-49746666D01*
X160301961Y-49746666D02*
X160206723Y-49794285D01*
X160206723Y-49794285D02*
X160016247Y-49841904D01*
X160016247Y-49841904D02*
X159873390Y-49841904D01*
X159873390Y-49841904D02*
X159682914Y-49794285D01*
X159682914Y-49794285D02*
X159587676Y-49746666D01*
X159587676Y-49746666D02*
X159492438Y-49651428D01*
X159492438Y-49651428D02*
X159444819Y-49508571D01*
X159444819Y-49508571D02*
X159444819Y-49413333D01*
X159444819Y-49413333D02*
X159492438Y-49270476D01*
X159492438Y-49270476D02*
X159540057Y-49222857D01*
X160444819Y-48270476D02*
X160444819Y-48841904D01*
X160444819Y-48556190D02*
X159444819Y-48556190D01*
X159444819Y-48556190D02*
X159587676Y-48651428D01*
X159587676Y-48651428D02*
X159682914Y-48746666D01*
X159682914Y-48746666D02*
X159730533Y-48841904D01*
X159540057Y-47889523D02*
X159492438Y-47841904D01*
X159492438Y-47841904D02*
X159444819Y-47746666D01*
X159444819Y-47746666D02*
X159444819Y-47508571D01*
X159444819Y-47508571D02*
X159492438Y-47413333D01*
X159492438Y-47413333D02*
X159540057Y-47365714D01*
X159540057Y-47365714D02*
X159635295Y-47318095D01*
X159635295Y-47318095D02*
X159730533Y-47318095D01*
X159730533Y-47318095D02*
X159873390Y-47365714D01*
X159873390Y-47365714D02*
X160444819Y-47937142D01*
X160444819Y-47937142D02*
X160444819Y-47318095D01*
X153653333Y-40832295D02*
X153320000Y-40451342D01*
X153081905Y-40832295D02*
X153081905Y-40032295D01*
X153081905Y-40032295D02*
X153462857Y-40032295D01*
X153462857Y-40032295D02*
X153558095Y-40070390D01*
X153558095Y-40070390D02*
X153605714Y-40108485D01*
X153605714Y-40108485D02*
X153653333Y-40184676D01*
X153653333Y-40184676D02*
X153653333Y-40298961D01*
X153653333Y-40298961D02*
X153605714Y-40375152D01*
X153605714Y-40375152D02*
X153558095Y-40413247D01*
X153558095Y-40413247D02*
X153462857Y-40451342D01*
X153462857Y-40451342D02*
X153081905Y-40451342D01*
X154224762Y-40375152D02*
X154129524Y-40337057D01*
X154129524Y-40337057D02*
X154081905Y-40298961D01*
X154081905Y-40298961D02*
X154034286Y-40222771D01*
X154034286Y-40222771D02*
X154034286Y-40184676D01*
X154034286Y-40184676D02*
X154081905Y-40108485D01*
X154081905Y-40108485D02*
X154129524Y-40070390D01*
X154129524Y-40070390D02*
X154224762Y-40032295D01*
X154224762Y-40032295D02*
X154415238Y-40032295D01*
X154415238Y-40032295D02*
X154510476Y-40070390D01*
X154510476Y-40070390D02*
X154558095Y-40108485D01*
X154558095Y-40108485D02*
X154605714Y-40184676D01*
X154605714Y-40184676D02*
X154605714Y-40222771D01*
X154605714Y-40222771D02*
X154558095Y-40298961D01*
X154558095Y-40298961D02*
X154510476Y-40337057D01*
X154510476Y-40337057D02*
X154415238Y-40375152D01*
X154415238Y-40375152D02*
X154224762Y-40375152D01*
X154224762Y-40375152D02*
X154129524Y-40413247D01*
X154129524Y-40413247D02*
X154081905Y-40451342D01*
X154081905Y-40451342D02*
X154034286Y-40527533D01*
X154034286Y-40527533D02*
X154034286Y-40679914D01*
X154034286Y-40679914D02*
X154081905Y-40756104D01*
X154081905Y-40756104D02*
X154129524Y-40794200D01*
X154129524Y-40794200D02*
X154224762Y-40832295D01*
X154224762Y-40832295D02*
X154415238Y-40832295D01*
X154415238Y-40832295D02*
X154510476Y-40794200D01*
X154510476Y-40794200D02*
X154558095Y-40756104D01*
X154558095Y-40756104D02*
X154605714Y-40679914D01*
X154605714Y-40679914D02*
X154605714Y-40527533D01*
X154605714Y-40527533D02*
X154558095Y-40451342D01*
X154558095Y-40451342D02*
X154510476Y-40413247D01*
X154510476Y-40413247D02*
X154415238Y-40375152D01*
X201438095Y-40354819D02*
X201438095Y-39354819D01*
X201438095Y-39831009D02*
X202009523Y-39831009D01*
X202009523Y-40354819D02*
X202009523Y-39354819D01*
X202390476Y-39354819D02*
X203009523Y-39354819D01*
X203009523Y-39354819D02*
X202676190Y-39735771D01*
X202676190Y-39735771D02*
X202819047Y-39735771D01*
X202819047Y-39735771D02*
X202914285Y-39783390D01*
X202914285Y-39783390D02*
X202961904Y-39831009D01*
X202961904Y-39831009D02*
X203009523Y-39926247D01*
X203009523Y-39926247D02*
X203009523Y-40164342D01*
X203009523Y-40164342D02*
X202961904Y-40259580D01*
X202961904Y-40259580D02*
X202914285Y-40307200D01*
X202914285Y-40307200D02*
X202819047Y-40354819D01*
X202819047Y-40354819D02*
X202533333Y-40354819D01*
X202533333Y-40354819D02*
X202438095Y-40307200D01*
X202438095Y-40307200D02*
X202390476Y-40259580D01*
X165472095Y-36114819D02*
X165472095Y-36924342D01*
X165472095Y-36924342D02*
X165519714Y-37019580D01*
X165519714Y-37019580D02*
X165567333Y-37067200D01*
X165567333Y-37067200D02*
X165662571Y-37114819D01*
X165662571Y-37114819D02*
X165853047Y-37114819D01*
X165853047Y-37114819D02*
X165948285Y-37067200D01*
X165948285Y-37067200D02*
X165995904Y-37019580D01*
X165995904Y-37019580D02*
X166043523Y-36924342D01*
X166043523Y-36924342D02*
X166043523Y-36114819D01*
X167043523Y-37114819D02*
X166472095Y-37114819D01*
X166757809Y-37114819D02*
X166757809Y-36114819D01*
X166757809Y-36114819D02*
X166662571Y-36257676D01*
X166662571Y-36257676D02*
X166567333Y-36352914D01*
X166567333Y-36352914D02*
X166472095Y-36400533D01*
X164439580Y-36452857D02*
X164487200Y-36500476D01*
X164487200Y-36500476D02*
X164534819Y-36643333D01*
X164534819Y-36643333D02*
X164534819Y-36738571D01*
X164534819Y-36738571D02*
X164487200Y-36881428D01*
X164487200Y-36881428D02*
X164391961Y-36976666D01*
X164391961Y-36976666D02*
X164296723Y-37024285D01*
X164296723Y-37024285D02*
X164106247Y-37071904D01*
X164106247Y-37071904D02*
X163963390Y-37071904D01*
X163963390Y-37071904D02*
X163772914Y-37024285D01*
X163772914Y-37024285D02*
X163677676Y-36976666D01*
X163677676Y-36976666D02*
X163582438Y-36881428D01*
X163582438Y-36881428D02*
X163534819Y-36738571D01*
X163534819Y-36738571D02*
X163534819Y-36643333D01*
X163534819Y-36643333D02*
X163582438Y-36500476D01*
X163582438Y-36500476D02*
X163630057Y-36452857D01*
X164534819Y-35500476D02*
X164534819Y-36071904D01*
X164534819Y-35786190D02*
X163534819Y-35786190D01*
X163534819Y-35786190D02*
X163677676Y-35881428D01*
X163677676Y-35881428D02*
X163772914Y-35976666D01*
X163772914Y-35976666D02*
X163820533Y-36071904D01*
X163534819Y-34595714D02*
X163534819Y-35071904D01*
X163534819Y-35071904D02*
X164011009Y-35119523D01*
X164011009Y-35119523D02*
X163963390Y-35071904D01*
X163963390Y-35071904D02*
X163915771Y-34976666D01*
X163915771Y-34976666D02*
X163915771Y-34738571D01*
X163915771Y-34738571D02*
X163963390Y-34643333D01*
X163963390Y-34643333D02*
X164011009Y-34595714D01*
X164011009Y-34595714D02*
X164106247Y-34548095D01*
X164106247Y-34548095D02*
X164344342Y-34548095D01*
X164344342Y-34548095D02*
X164439580Y-34595714D01*
X164439580Y-34595714D02*
X164487200Y-34643333D01*
X164487200Y-34643333D02*
X164534819Y-34738571D01*
X164534819Y-34738571D02*
X164534819Y-34976666D01*
X164534819Y-34976666D02*
X164487200Y-35071904D01*
X164487200Y-35071904D02*
X164439580Y-35119523D01*
X212406666Y-48824819D02*
X212406666Y-49539104D01*
X212406666Y-49539104D02*
X212359047Y-49681961D01*
X212359047Y-49681961D02*
X212263809Y-49777200D01*
X212263809Y-49777200D02*
X212120952Y-49824819D01*
X212120952Y-49824819D02*
X212025714Y-49824819D01*
X212882857Y-49824819D02*
X212882857Y-48824819D01*
X212882857Y-48824819D02*
X213263809Y-48824819D01*
X213263809Y-48824819D02*
X213359047Y-48872438D01*
X213359047Y-48872438D02*
X213406666Y-48920057D01*
X213406666Y-48920057D02*
X213454285Y-49015295D01*
X213454285Y-49015295D02*
X213454285Y-49158152D01*
X213454285Y-49158152D02*
X213406666Y-49253390D01*
X213406666Y-49253390D02*
X213359047Y-49301009D01*
X213359047Y-49301009D02*
X213263809Y-49348628D01*
X213263809Y-49348628D02*
X212882857Y-49348628D01*
X214025714Y-49253390D02*
X213930476Y-49205771D01*
X213930476Y-49205771D02*
X213882857Y-49158152D01*
X213882857Y-49158152D02*
X213835238Y-49062914D01*
X213835238Y-49062914D02*
X213835238Y-49015295D01*
X213835238Y-49015295D02*
X213882857Y-48920057D01*
X213882857Y-48920057D02*
X213930476Y-48872438D01*
X213930476Y-48872438D02*
X214025714Y-48824819D01*
X214025714Y-48824819D02*
X214216190Y-48824819D01*
X214216190Y-48824819D02*
X214311428Y-48872438D01*
X214311428Y-48872438D02*
X214359047Y-48920057D01*
X214359047Y-48920057D02*
X214406666Y-49015295D01*
X214406666Y-49015295D02*
X214406666Y-49062914D01*
X214406666Y-49062914D02*
X214359047Y-49158152D01*
X214359047Y-49158152D02*
X214311428Y-49205771D01*
X214311428Y-49205771D02*
X214216190Y-49253390D01*
X214216190Y-49253390D02*
X214025714Y-49253390D01*
X214025714Y-49253390D02*
X213930476Y-49301009D01*
X213930476Y-49301009D02*
X213882857Y-49348628D01*
X213882857Y-49348628D02*
X213835238Y-49443866D01*
X213835238Y-49443866D02*
X213835238Y-49634342D01*
X213835238Y-49634342D02*
X213882857Y-49729580D01*
X213882857Y-49729580D02*
X213930476Y-49777200D01*
X213930476Y-49777200D02*
X214025714Y-49824819D01*
X214025714Y-49824819D02*
X214216190Y-49824819D01*
X214216190Y-49824819D02*
X214311428Y-49777200D01*
X214311428Y-49777200D02*
X214359047Y-49729580D01*
X214359047Y-49729580D02*
X214406666Y-49634342D01*
X214406666Y-49634342D02*
X214406666Y-49443866D01*
X214406666Y-49443866D02*
X214359047Y-49348628D01*
X214359047Y-49348628D02*
X214311428Y-49301009D01*
X214311428Y-49301009D02*
X214216190Y-49253390D01*
X143701819Y-49399666D02*
X143225628Y-49732999D01*
X143701819Y-49971094D02*
X142701819Y-49971094D01*
X142701819Y-49971094D02*
X142701819Y-49590142D01*
X142701819Y-49590142D02*
X142749438Y-49494904D01*
X142749438Y-49494904D02*
X142797057Y-49447285D01*
X142797057Y-49447285D02*
X142892295Y-49399666D01*
X142892295Y-49399666D02*
X143035152Y-49399666D01*
X143035152Y-49399666D02*
X143130390Y-49447285D01*
X143130390Y-49447285D02*
X143178009Y-49494904D01*
X143178009Y-49494904D02*
X143225628Y-49590142D01*
X143225628Y-49590142D02*
X143225628Y-49971094D01*
X142701819Y-48542523D02*
X142701819Y-48732999D01*
X142701819Y-48732999D02*
X142749438Y-48828237D01*
X142749438Y-48828237D02*
X142797057Y-48875856D01*
X142797057Y-48875856D02*
X142939914Y-48971094D01*
X142939914Y-48971094D02*
X143130390Y-49018713D01*
X143130390Y-49018713D02*
X143511342Y-49018713D01*
X143511342Y-49018713D02*
X143606580Y-48971094D01*
X143606580Y-48971094D02*
X143654200Y-48923475D01*
X143654200Y-48923475D02*
X143701819Y-48828237D01*
X143701819Y-48828237D02*
X143701819Y-48637761D01*
X143701819Y-48637761D02*
X143654200Y-48542523D01*
X143654200Y-48542523D02*
X143606580Y-48494904D01*
X143606580Y-48494904D02*
X143511342Y-48447285D01*
X143511342Y-48447285D02*
X143273247Y-48447285D01*
X143273247Y-48447285D02*
X143178009Y-48494904D01*
X143178009Y-48494904D02*
X143130390Y-48542523D01*
X143130390Y-48542523D02*
X143082771Y-48637761D01*
X143082771Y-48637761D02*
X143082771Y-48828237D01*
X143082771Y-48828237D02*
X143130390Y-48923475D01*
X143130390Y-48923475D02*
X143178009Y-48971094D01*
X143178009Y-48971094D02*
X143273247Y-49018713D01*
X211310476Y-110314819D02*
X211310476Y-111029104D01*
X211310476Y-111029104D02*
X211262857Y-111171961D01*
X211262857Y-111171961D02*
X211167619Y-111267200D01*
X211167619Y-111267200D02*
X211024762Y-111314819D01*
X211024762Y-111314819D02*
X210929524Y-111314819D01*
X211786667Y-111314819D02*
X211786667Y-110314819D01*
X211786667Y-110314819D02*
X212167619Y-110314819D01*
X212167619Y-110314819D02*
X212262857Y-110362438D01*
X212262857Y-110362438D02*
X212310476Y-110410057D01*
X212310476Y-110410057D02*
X212358095Y-110505295D01*
X212358095Y-110505295D02*
X212358095Y-110648152D01*
X212358095Y-110648152D02*
X212310476Y-110743390D01*
X212310476Y-110743390D02*
X212262857Y-110791009D01*
X212262857Y-110791009D02*
X212167619Y-110838628D01*
X212167619Y-110838628D02*
X211786667Y-110838628D01*
X213310476Y-111314819D02*
X212739048Y-111314819D01*
X213024762Y-111314819D02*
X213024762Y-110314819D01*
X213024762Y-110314819D02*
X212929524Y-110457676D01*
X212929524Y-110457676D02*
X212834286Y-110552914D01*
X212834286Y-110552914D02*
X212739048Y-110600533D01*
X214262857Y-111314819D02*
X213691429Y-111314819D01*
X213977143Y-111314819D02*
X213977143Y-110314819D01*
X213977143Y-110314819D02*
X213881905Y-110457676D01*
X213881905Y-110457676D02*
X213786667Y-110552914D01*
X213786667Y-110552914D02*
X213691429Y-110600533D01*
X153653333Y-39832295D02*
X153320000Y-39451342D01*
X153081905Y-39832295D02*
X153081905Y-39032295D01*
X153081905Y-39032295D02*
X153462857Y-39032295D01*
X153462857Y-39032295D02*
X153558095Y-39070390D01*
X153558095Y-39070390D02*
X153605714Y-39108485D01*
X153605714Y-39108485D02*
X153653333Y-39184676D01*
X153653333Y-39184676D02*
X153653333Y-39298961D01*
X153653333Y-39298961D02*
X153605714Y-39375152D01*
X153605714Y-39375152D02*
X153558095Y-39413247D01*
X153558095Y-39413247D02*
X153462857Y-39451342D01*
X153462857Y-39451342D02*
X153081905Y-39451342D01*
X153986667Y-39032295D02*
X154653333Y-39032295D01*
X154653333Y-39032295D02*
X154224762Y-39832295D01*
X211310476Y-116314819D02*
X211310476Y-117029104D01*
X211310476Y-117029104D02*
X211262857Y-117171961D01*
X211262857Y-117171961D02*
X211167619Y-117267200D01*
X211167619Y-117267200D02*
X211024762Y-117314819D01*
X211024762Y-117314819D02*
X210929524Y-117314819D01*
X211786667Y-117314819D02*
X211786667Y-116314819D01*
X211786667Y-116314819D02*
X212167619Y-116314819D01*
X212167619Y-116314819D02*
X212262857Y-116362438D01*
X212262857Y-116362438D02*
X212310476Y-116410057D01*
X212310476Y-116410057D02*
X212358095Y-116505295D01*
X212358095Y-116505295D02*
X212358095Y-116648152D01*
X212358095Y-116648152D02*
X212310476Y-116743390D01*
X212310476Y-116743390D02*
X212262857Y-116791009D01*
X212262857Y-116791009D02*
X212167619Y-116838628D01*
X212167619Y-116838628D02*
X211786667Y-116838628D01*
X213310476Y-117314819D02*
X212739048Y-117314819D01*
X213024762Y-117314819D02*
X213024762Y-116314819D01*
X213024762Y-116314819D02*
X212929524Y-116457676D01*
X212929524Y-116457676D02*
X212834286Y-116552914D01*
X212834286Y-116552914D02*
X212739048Y-116600533D01*
X213643810Y-116314819D02*
X214262857Y-116314819D01*
X214262857Y-116314819D02*
X213929524Y-116695771D01*
X213929524Y-116695771D02*
X214072381Y-116695771D01*
X214072381Y-116695771D02*
X214167619Y-116743390D01*
X214167619Y-116743390D02*
X214215238Y-116791009D01*
X214215238Y-116791009D02*
X214262857Y-116886247D01*
X214262857Y-116886247D02*
X214262857Y-117124342D01*
X214262857Y-117124342D02*
X214215238Y-117219580D01*
X214215238Y-117219580D02*
X214167619Y-117267200D01*
X214167619Y-117267200D02*
X214072381Y-117314819D01*
X214072381Y-117314819D02*
X213786667Y-117314819D01*
X213786667Y-117314819D02*
X213691429Y-117267200D01*
X213691429Y-117267200D02*
X213643810Y-117219580D01*
X125438095Y-39854819D02*
X125438095Y-38854819D01*
X125438095Y-39331009D02*
X126009523Y-39331009D01*
X126009523Y-39854819D02*
X126009523Y-38854819D01*
X127009523Y-39854819D02*
X126438095Y-39854819D01*
X126723809Y-39854819D02*
X126723809Y-38854819D01*
X126723809Y-38854819D02*
X126628571Y-38997676D01*
X126628571Y-38997676D02*
X126533333Y-39092914D01*
X126533333Y-39092914D02*
X126438095Y-39140533D01*
X169113333Y-44353819D02*
X168780000Y-43877628D01*
X168541905Y-44353819D02*
X168541905Y-43353819D01*
X168541905Y-43353819D02*
X168922857Y-43353819D01*
X168922857Y-43353819D02*
X169018095Y-43401438D01*
X169018095Y-43401438D02*
X169065714Y-43449057D01*
X169065714Y-43449057D02*
X169113333Y-43544295D01*
X169113333Y-43544295D02*
X169113333Y-43687152D01*
X169113333Y-43687152D02*
X169065714Y-43782390D01*
X169065714Y-43782390D02*
X169018095Y-43830009D01*
X169018095Y-43830009D02*
X168922857Y-43877628D01*
X168922857Y-43877628D02*
X168541905Y-43877628D01*
X169970476Y-43687152D02*
X169970476Y-44353819D01*
X169732381Y-43306200D02*
X169494286Y-44020485D01*
X169494286Y-44020485D02*
X170113333Y-44020485D01*
X153913333Y-37116104D02*
X153865714Y-37154200D01*
X153865714Y-37154200D02*
X153722857Y-37192295D01*
X153722857Y-37192295D02*
X153627619Y-37192295D01*
X153627619Y-37192295D02*
X153484762Y-37154200D01*
X153484762Y-37154200D02*
X153389524Y-37078009D01*
X153389524Y-37078009D02*
X153341905Y-37001819D01*
X153341905Y-37001819D02*
X153294286Y-36849438D01*
X153294286Y-36849438D02*
X153294286Y-36735152D01*
X153294286Y-36735152D02*
X153341905Y-36582771D01*
X153341905Y-36582771D02*
X153389524Y-36506580D01*
X153389524Y-36506580D02*
X153484762Y-36430390D01*
X153484762Y-36430390D02*
X153627619Y-36392295D01*
X153627619Y-36392295D02*
X153722857Y-36392295D01*
X153722857Y-36392295D02*
X153865714Y-36430390D01*
X153865714Y-36430390D02*
X153913333Y-36468485D01*
X154246667Y-36392295D02*
X154913333Y-36392295D01*
X154913333Y-36392295D02*
X154484762Y-37192295D01*
X212406666Y-46074819D02*
X212406666Y-46789104D01*
X212406666Y-46789104D02*
X212359047Y-46931961D01*
X212359047Y-46931961D02*
X212263809Y-47027200D01*
X212263809Y-47027200D02*
X212120952Y-47074819D01*
X212120952Y-47074819D02*
X212025714Y-47074819D01*
X212882857Y-47074819D02*
X212882857Y-46074819D01*
X212882857Y-46074819D02*
X213263809Y-46074819D01*
X213263809Y-46074819D02*
X213359047Y-46122438D01*
X213359047Y-46122438D02*
X213406666Y-46170057D01*
X213406666Y-46170057D02*
X213454285Y-46265295D01*
X213454285Y-46265295D02*
X213454285Y-46408152D01*
X213454285Y-46408152D02*
X213406666Y-46503390D01*
X213406666Y-46503390D02*
X213359047Y-46551009D01*
X213359047Y-46551009D02*
X213263809Y-46598628D01*
X213263809Y-46598628D02*
X212882857Y-46598628D01*
X213787619Y-46074819D02*
X214454285Y-46074819D01*
X214454285Y-46074819D02*
X214025714Y-47074819D01*
X145553333Y-34099580D02*
X145505714Y-34147200D01*
X145505714Y-34147200D02*
X145362857Y-34194819D01*
X145362857Y-34194819D02*
X145267619Y-34194819D01*
X145267619Y-34194819D02*
X145124762Y-34147200D01*
X145124762Y-34147200D02*
X145029524Y-34051961D01*
X145029524Y-34051961D02*
X144981905Y-33956723D01*
X144981905Y-33956723D02*
X144934286Y-33766247D01*
X144934286Y-33766247D02*
X144934286Y-33623390D01*
X144934286Y-33623390D02*
X144981905Y-33432914D01*
X144981905Y-33432914D02*
X145029524Y-33337676D01*
X145029524Y-33337676D02*
X145124762Y-33242438D01*
X145124762Y-33242438D02*
X145267619Y-33194819D01*
X145267619Y-33194819D02*
X145362857Y-33194819D01*
X145362857Y-33194819D02*
X145505714Y-33242438D01*
X145505714Y-33242438D02*
X145553333Y-33290057D01*
X146505714Y-34194819D02*
X145934286Y-34194819D01*
X146220000Y-34194819D02*
X146220000Y-33194819D01*
X146220000Y-33194819D02*
X146124762Y-33337676D01*
X146124762Y-33337676D02*
X146029524Y-33432914D01*
X146029524Y-33432914D02*
X145934286Y-33480533D01*
X194238919Y-51060459D02*
X194352679Y-51159122D01*
X194352679Y-51159122D02*
X194572650Y-51250237D01*
X194572650Y-51250237D02*
X194678862Y-51242689D01*
X194678862Y-51242689D02*
X194741079Y-51216918D01*
X194741079Y-51216918D02*
X194821520Y-51147152D01*
X194821520Y-51147152D02*
X194857966Y-51059164D01*
X194857966Y-51059164D02*
X194850417Y-50952952D01*
X194850417Y-50952952D02*
X194824646Y-50890735D01*
X194824646Y-50890735D02*
X194754881Y-50810295D01*
X194754881Y-50810295D02*
X194597127Y-50693408D01*
X194597127Y-50693408D02*
X194527361Y-50612968D01*
X194527361Y-50612968D02*
X194501590Y-50550751D01*
X194501590Y-50550751D02*
X194494042Y-50444539D01*
X194494042Y-50444539D02*
X194530488Y-50356551D01*
X194530488Y-50356551D02*
X194610928Y-50286785D01*
X194610928Y-50286785D02*
X194673145Y-50261014D01*
X194673145Y-50261014D02*
X194779357Y-50253466D01*
X194779357Y-50253466D02*
X194999328Y-50344581D01*
X194999328Y-50344581D02*
X195113088Y-50443244D01*
X195439271Y-50526811D02*
X195276559Y-51541806D01*
X195276559Y-51541806D02*
X195725881Y-50954784D01*
X195725881Y-50954784D02*
X195628513Y-51687590D01*
X195628513Y-51687590D02*
X196231167Y-50854826D01*
X196684375Y-52124942D02*
X196156444Y-51906266D01*
X196420409Y-52015604D02*
X196803093Y-51091725D01*
X196803093Y-51091725D02*
X196660435Y-51187261D01*
X196660435Y-51187261D02*
X196536001Y-51238804D01*
X196536001Y-51238804D02*
X196429789Y-51246352D01*
X197375018Y-51328624D02*
X197990938Y-51583746D01*
X197990938Y-51583746D02*
X197212306Y-52343619D01*
X197703791Y-52650283D02*
X198407700Y-52941852D01*
X198958812Y-51984653D02*
X198796100Y-52999648D01*
X198796100Y-52999648D02*
X199245422Y-52412626D01*
X199245422Y-52412626D02*
X199148054Y-53145432D01*
X199148054Y-53145432D02*
X199750709Y-52312667D01*
X200203916Y-53582784D02*
X199675985Y-53364108D01*
X199939951Y-53473446D02*
X200322634Y-52549566D01*
X200322634Y-52549566D02*
X200179976Y-52645103D01*
X200179976Y-52645103D02*
X200055542Y-52696646D01*
X200055542Y-52696646D02*
X199949330Y-52704194D01*
X203938095Y-110654819D02*
X203938095Y-109654819D01*
X203938095Y-110131009D02*
X204509523Y-110131009D01*
X204509523Y-110654819D02*
X204509523Y-109654819D01*
X205414285Y-109988152D02*
X205414285Y-110654819D01*
X205176190Y-109607200D02*
X204938095Y-110321485D01*
X204938095Y-110321485D02*
X205557142Y-110321485D01*
X177681580Y-42274666D02*
X177729200Y-42322285D01*
X177729200Y-42322285D02*
X177776819Y-42465142D01*
X177776819Y-42465142D02*
X177776819Y-42560380D01*
X177776819Y-42560380D02*
X177729200Y-42703237D01*
X177729200Y-42703237D02*
X177633961Y-42798475D01*
X177633961Y-42798475D02*
X177538723Y-42846094D01*
X177538723Y-42846094D02*
X177348247Y-42893713D01*
X177348247Y-42893713D02*
X177205390Y-42893713D01*
X177205390Y-42893713D02*
X177014914Y-42846094D01*
X177014914Y-42846094D02*
X176919676Y-42798475D01*
X176919676Y-42798475D02*
X176824438Y-42703237D01*
X176824438Y-42703237D02*
X176776819Y-42560380D01*
X176776819Y-42560380D02*
X176776819Y-42465142D01*
X176776819Y-42465142D02*
X176824438Y-42322285D01*
X176824438Y-42322285D02*
X176872057Y-42274666D01*
X176776819Y-41941332D02*
X176776819Y-41322285D01*
X176776819Y-41322285D02*
X177157771Y-41655618D01*
X177157771Y-41655618D02*
X177157771Y-41512761D01*
X177157771Y-41512761D02*
X177205390Y-41417523D01*
X177205390Y-41417523D02*
X177253009Y-41369904D01*
X177253009Y-41369904D02*
X177348247Y-41322285D01*
X177348247Y-41322285D02*
X177586342Y-41322285D01*
X177586342Y-41322285D02*
X177681580Y-41369904D01*
X177681580Y-41369904D02*
X177729200Y-41417523D01*
X177729200Y-41417523D02*
X177776819Y-41512761D01*
X177776819Y-41512761D02*
X177776819Y-41798475D01*
X177776819Y-41798475D02*
X177729200Y-41893713D01*
X177729200Y-41893713D02*
X177681580Y-41941332D01*
D11*
%TO.C,C10*%
X155807836Y-41540000D02*
X155592164Y-41540000D01*
X155807836Y-42260000D02*
X155592164Y-42260000D01*
%TO.C,JP10*%
X214870000Y-108200000D02*
X214870000Y-107600000D01*
D12*
X215570000Y-108900000D02*
X216170000Y-108900000D01*
X216170000Y-106900000D02*
X215570000Y-106900000D01*
X216170000Y-108900000D02*
X216170000Y-106900000D01*
D11*
X214870000Y-107600000D02*
G75*
G02*
X215570000Y-106900000I699999J1D01*
G01*
X215570000Y-108900000D02*
G75*
G02*
X214870000Y-108200000I-1J699999D01*
G01*
%TO.C,C14*%
X168412164Y-41380000D02*
X168627836Y-41380000D01*
X168412164Y-42100000D02*
X168627836Y-42100000D01*
%TO.C,J2*%
X170680000Y-35430000D02*
X170680000Y-37230000D01*
X170680000Y-35430000D02*
X176480000Y-35430000D01*
X176480000Y-37230000D02*
X170680000Y-37230000D01*
X176480000Y-37230000D02*
X176480000Y-35430000D01*
%TO.C,C4*%
X173187836Y-38220000D02*
X172972164Y-38220000D01*
X173187836Y-38940000D02*
X172972164Y-38940000D01*
%TO.C,R5*%
X140807359Y-47456000D02*
X141114641Y-47456000D01*
X140807359Y-48216000D02*
X141114641Y-48216000D01*
D12*
%TO.C,mouse-bite-2mm-slot*%
X151150000Y-90350000D02*
G75*
G02*
X153150000Y-90350000I1000000J0D01*
G01*
X153150000Y-86350000D02*
G75*
G02*
X151150000Y-86350000I-1000000J0D01*
G01*
D11*
%TO.C,C18*%
X138340000Y-36007836D02*
X138340000Y-35792164D01*
X139060000Y-36007836D02*
X139060000Y-35792164D01*
D12*
%TO.C,mouse-bite-2mm-slot*%
X168400000Y-81500000D02*
G75*
G02*
X168400000Y-83500000I0J-1000000D01*
G01*
X172400000Y-83500000D02*
G75*
G02*
X172400000Y-81500000I0J1000000D01*
G01*
%TO.C,JP17*%
X128500000Y-94550000D02*
X128500000Y-95150000D01*
D11*
X129800000Y-95850000D02*
X129200000Y-95850000D01*
D12*
X130500000Y-94550000D02*
X128500000Y-94550000D01*
X130500000Y-95150000D02*
X130500000Y-94550000D01*
D11*
X129200000Y-95850000D02*
G75*
G02*
X128500000Y-95150000I-1J699999D01*
G01*
X130500000Y-95150000D02*
G75*
G02*
X129800000Y-95850000I-699999J-1D01*
G01*
%TO.C,U2*%
X141112000Y-37168000D02*
X141112000Y-38428000D01*
X141112000Y-43988000D02*
X141112000Y-42728000D01*
X144872000Y-37168000D02*
X141112000Y-37168000D01*
X144872000Y-43988000D02*
X141112000Y-43988000D01*
X146392000Y-44218000D02*
X145912000Y-44218000D01*
X146152000Y-43888000D01*
X146392000Y-44218000D01*
G36*
X146392000Y-44218000D02*
G01*
X145912000Y-44218000D01*
X146152000Y-43888000D01*
X146392000Y-44218000D01*
G37*
%TO.C,C16*%
X160220000Y-35937836D02*
X160220000Y-35722164D01*
X160940000Y-35937836D02*
X160940000Y-35722164D01*
D12*
%TO.C,mouse-bite-2mm-slot*%
X126000000Y-99500000D02*
G75*
G02*
X128000000Y-99500000I1000000J0D01*
G01*
X128000000Y-95500000D02*
G75*
G02*
X126000000Y-95500000I-1000000J0D01*
G01*
D11*
%TO.C,J1*%
X148910000Y-28730000D02*
X148910000Y-30430000D01*
X158250000Y-28730000D02*
X158250000Y-30430000D01*
%TO.C,R3*%
X156176359Y-34200000D02*
X156483641Y-34200000D01*
X156176359Y-34960000D02*
X156483641Y-34960000D01*
%TO.C,JP9*%
X214870000Y-55250000D02*
X214870000Y-54650000D01*
D12*
X215570000Y-55950000D02*
X216170000Y-55950000D01*
X216170000Y-53950000D02*
X215570000Y-53950000D01*
X216170000Y-55950000D02*
X216170000Y-53950000D01*
D11*
X214870000Y-54650000D02*
G75*
G02*
X215570000Y-53950000I699999J1D01*
G01*
X215570000Y-55950000D02*
G75*
G02*
X214870000Y-55250000I-1J699999D01*
G01*
%TO.C,SW1*%
X129355000Y-45830000D02*
X129355000Y-47830000D01*
X130405000Y-44530000D02*
X130855000Y-44080000D01*
X130405000Y-49130000D02*
X130855000Y-49580000D01*
X130855000Y-44080000D02*
X133355000Y-44080000D01*
X130855000Y-49580000D02*
X133355000Y-49580000D01*
X133805000Y-44530000D02*
X133355000Y-44080000D01*
X133805000Y-49130000D02*
X133355000Y-49580000D01*
X134855000Y-45830000D02*
X134855000Y-47830000D01*
%TO.C,SW18_DOWN1*%
X177758175Y-80756854D02*
X190877264Y-86190959D01*
X183192280Y-67637765D02*
X177758175Y-80756854D01*
X190877264Y-86190959D02*
X196311369Y-73071870D01*
X196311369Y-73071870D02*
X183192280Y-67637765D01*
%TO.C,JP16*%
X214890000Y-120200000D02*
X214890000Y-119600000D01*
D12*
X215590000Y-120900000D02*
X216190000Y-120900000D01*
X216190000Y-118900000D02*
X215590000Y-118900000D01*
X216190000Y-120900000D02*
X216190000Y-118900000D01*
D11*
X214890000Y-119600000D02*
G75*
G02*
X215590000Y-118900000I699999J1D01*
G01*
X215590000Y-120900000D02*
G75*
G02*
X214890000Y-120200000I-1J699999D01*
G01*
D12*
%TO.C,mouse-bite-2mm-slot*%
X140450000Y-92750000D02*
G75*
G02*
X140450000Y-94750000I0J-1000000D01*
G01*
X144450000Y-94750000D02*
G75*
G02*
X144450000Y-92750000I0J1000000D01*
G01*
X173600000Y-122850000D02*
G75*
G02*
X175600000Y-122850000I1000000J0D01*
G01*
X175600000Y-118850000D02*
G75*
G02*
X173600000Y-118850000I-1000000J0D01*
G01*
D11*
%TO.C,JP3*%
X214870000Y-35950000D02*
X214870000Y-35350000D01*
D12*
X215570000Y-36650000D02*
X216170000Y-36650000D01*
X216170000Y-34650000D02*
X215570000Y-34650000D01*
X216170000Y-36650000D02*
X216170000Y-34650000D01*
D11*
X214870000Y-35350000D02*
G75*
G02*
X215570000Y-34650000I699999J1D01*
G01*
X215570000Y-36650000D02*
G75*
G02*
X214870000Y-35950000I-1J699999D01*
G01*
%TO.C,JP1*%
X214870000Y-52450000D02*
X214870000Y-51850000D01*
D12*
X215570000Y-53150000D02*
X216170000Y-53150000D01*
X216170000Y-51150000D02*
X215570000Y-51150000D01*
X216170000Y-53150000D02*
X216170000Y-51150000D01*
D11*
X214870000Y-51850000D02*
G75*
G02*
X215570000Y-51150000I699999J1D01*
G01*
X215570000Y-53150000D02*
G75*
G02*
X214870000Y-52450000I-1J699999D01*
G01*
%TO.C,R2*%
X150642000Y-36924359D02*
X150642000Y-37231641D01*
X151402000Y-36924359D02*
X151402000Y-37231641D01*
%TO.C,JP14*%
X214890000Y-123200000D02*
X214890000Y-122600000D01*
D12*
X215590000Y-123900000D02*
X216190000Y-123900000D01*
X216190000Y-121900000D02*
X215590000Y-121900000D01*
X216190000Y-123900000D02*
X216190000Y-121900000D01*
D11*
X214890000Y-122600000D02*
G75*
G02*
X215590000Y-121900000I699999J1D01*
G01*
X215590000Y-123900000D02*
G75*
G02*
X214890000Y-123200000I-1J699999D01*
G01*
%TO.C,JP2*%
X214870000Y-33200000D02*
X214870000Y-32600000D01*
D12*
X215570000Y-33900000D02*
X216170000Y-33900000D01*
X216170000Y-31900000D02*
X215570000Y-31900000D01*
X216170000Y-33900000D02*
X216170000Y-31900000D01*
D11*
X214870000Y-32600000D02*
G75*
G02*
X215570000Y-31900000I699999J1D01*
G01*
X215570000Y-33900000D02*
G75*
G02*
X214870000Y-33200000I-1J699999D01*
G01*
%TO.C,C8*%
X168412164Y-39970000D02*
X168627836Y-39970000D01*
X168412164Y-40690000D02*
X168627836Y-40690000D01*
%TO.C,C9*%
X155307836Y-42540000D02*
X155092164Y-42540000D01*
X155307836Y-43260000D02*
X155092164Y-43260000D01*
%TO.C,JP12*%
X214870000Y-114200000D02*
X214870000Y-113600000D01*
D12*
X215570000Y-114900000D02*
X216170000Y-114900000D01*
X216170000Y-112900000D02*
X215570000Y-112900000D01*
X216170000Y-114900000D02*
X216170000Y-112900000D01*
D11*
X214870000Y-113600000D02*
G75*
G02*
X215570000Y-112900000I699999J1D01*
G01*
X215570000Y-114900000D02*
G75*
G02*
X214870000Y-114200000I-1J699999D01*
G01*
D12*
%TO.C,mouse-bite-2mm-slot*%
X126000000Y-106000000D02*
G75*
G02*
X128000000Y-106000000I1000000J0D01*
G01*
X128000000Y-102000000D02*
G75*
G02*
X126000000Y-102000000I-1000000J0D01*
G01*
D11*
%TO.C,SW20_RIGHT1*%
X193827346Y-91742492D02*
X206946435Y-97176597D01*
X199261451Y-78623403D02*
X193827346Y-91742492D01*
X206946435Y-97176597D02*
X212380540Y-84057508D01*
X212380540Y-84057508D02*
X199261451Y-78623403D01*
D12*
%TO.C,mouse-bite-2mm-slot*%
X173600000Y-107850000D02*
G75*
G02*
X175600000Y-107850000I1000000J0D01*
G01*
X175600000Y-103850000D02*
G75*
G02*
X173600000Y-103850000I-1000000J0D01*
G01*
D11*
%TO.C,C2*%
X145592164Y-35540000D02*
X145807836Y-35540000D01*
X145592164Y-36260000D02*
X145807836Y-36260000D01*
%TO.C,C6*%
X156187836Y-37470000D02*
X155972164Y-37470000D01*
X156187836Y-38190000D02*
X155972164Y-38190000D01*
%TO.C,SW8_DP1*%
X130100000Y-69791696D02*
X130100000Y-83991696D01*
X130100000Y-83991696D02*
X144300000Y-83991696D01*
X144300000Y-69791696D02*
X130100000Y-69791696D01*
X144300000Y-83991696D02*
X144300000Y-69791696D01*
%TO.C,JP6*%
X214870000Y-44200000D02*
X214870000Y-43600000D01*
D12*
X215570000Y-44900000D02*
X216170000Y-44900000D01*
X216170000Y-42900000D02*
X215570000Y-42900000D01*
X216170000Y-44900000D02*
X216170000Y-42900000D01*
D11*
X214870000Y-43600000D02*
G75*
G02*
X215570000Y-42900000I699999J1D01*
G01*
X215570000Y-44900000D02*
G75*
G02*
X214870000Y-44200000I-1J699999D01*
G01*
%TO.C,C13*%
X163472164Y-47470000D02*
X163687836Y-47470000D01*
X163472164Y-48190000D02*
X163687836Y-48190000D01*
%TO.C,Y1*%
X171696000Y-43430000D02*
X174996000Y-43430000D01*
X174996000Y-43430000D02*
X174996000Y-39430000D01*
%TO.C,JP10*%
X128500000Y-115230000D02*
X128500000Y-114630000D01*
X129200000Y-113930000D02*
X129800000Y-113930000D01*
X130500000Y-114630000D02*
X130500000Y-115230000D01*
X130500000Y-115230000D02*
X128500000Y-115230000D01*
X128500000Y-114630000D02*
G75*
G02*
X129200000Y-113930000I700000J0D01*
G01*
X129800000Y-113930000D02*
G75*
G02*
X130500000Y-114630000I0J-700000D01*
G01*
%TO.C,JP16*%
X140500000Y-115210000D02*
X140500000Y-114610000D01*
X141200000Y-113910000D02*
X141800000Y-113910000D01*
X142500000Y-114610000D02*
X142500000Y-115210000D01*
X142500000Y-115210000D02*
X140500000Y-115210000D01*
X140500000Y-114610000D02*
G75*
G02*
X141200000Y-113910000I700000J0D01*
G01*
X141800000Y-113910000D02*
G75*
G02*
X142500000Y-114610000I0J-700000D01*
G01*
%TO.C,SW19_LEFT1*%
X160158270Y-73466735D02*
X173277359Y-78900840D01*
X165592375Y-60347646D02*
X160158270Y-73466735D01*
X173277359Y-78900840D02*
X178711464Y-65781751D01*
X178711464Y-65781751D02*
X165592375Y-60347646D01*
%TO.C,C5*%
X149108164Y-51794000D02*
X149323836Y-51794000D01*
X149108164Y-52514000D02*
X149323836Y-52514000D01*
D12*
%TO.C,JP20*%
X137500000Y-94550000D02*
X137500000Y-95150000D01*
D11*
X138800000Y-95850000D02*
X138200000Y-95850000D01*
D12*
X139500000Y-94550000D02*
X137500000Y-94550000D01*
X139500000Y-95150000D02*
X139500000Y-94550000D01*
D11*
X138200000Y-95850000D02*
G75*
G02*
X137500000Y-95150000I-1J699999D01*
G01*
X139500000Y-95150000D02*
G75*
G02*
X138800000Y-95850000I-699999J-1D01*
G01*
D12*
%TO.C,mouse-bite-2mm-slot*%
X147300000Y-92750000D02*
G75*
G02*
X147300000Y-94750000I0J-1000000D01*
G01*
X151300000Y-94750000D02*
G75*
G02*
X151300000Y-92750000I0J1000000D01*
G01*
%TO.C,JP19*%
X134500000Y-94550000D02*
X134500000Y-95150000D01*
D11*
X135800000Y-95850000D02*
X135200000Y-95850000D01*
D12*
X136500000Y-94550000D02*
X134500000Y-94550000D01*
X136500000Y-95150000D02*
X136500000Y-94550000D01*
D11*
X135200000Y-95850000D02*
G75*
G02*
X134500000Y-95150000I-1J699999D01*
G01*
X136500000Y-95150000D02*
G75*
G02*
X135800000Y-95850000I-699999J-1D01*
G01*
D12*
%TO.C,mouse-bite-2mm-slot*%
X147200000Y-115000000D02*
G75*
G02*
X147200000Y-117000000I0J-1000000D01*
G01*
X151200000Y-117000000D02*
G75*
G02*
X151200000Y-115000000I0J1000000D01*
G01*
D11*
%TO.C,SW16_SPACE1*%
X155410000Y-96860000D02*
X155410000Y-111060000D01*
X155410000Y-111060000D02*
X169610000Y-111060000D01*
X169610000Y-96860000D02*
X155410000Y-96860000D01*
X169610000Y-111060000D02*
X169610000Y-96860000D01*
%TO.C,JP11*%
X131500000Y-115230000D02*
X131500000Y-114630000D01*
X132200000Y-113930000D02*
X132800000Y-113930000D01*
X133500000Y-114630000D02*
X133500000Y-115230000D01*
X133500000Y-115230000D02*
X131500000Y-115230000D01*
X131500000Y-114630000D02*
G75*
G02*
X132200000Y-113930000I700000J0D01*
G01*
X132800000Y-113930000D02*
G75*
G02*
X133500000Y-114630000I0J-700000D01*
G01*
%TO.C,R1*%
X148046359Y-33867000D02*
X148353641Y-33867000D01*
X148046359Y-34627000D02*
X148353641Y-34627000D01*
%TO.C,C17*%
X139585000Y-36005836D02*
X139585000Y-35790164D01*
X140305000Y-36005836D02*
X140305000Y-35790164D01*
%TO.C,JP4*%
X214870000Y-38700000D02*
X214870000Y-38100000D01*
D12*
X215570000Y-39400000D02*
X216170000Y-39400000D01*
X216170000Y-37400000D02*
X215570000Y-37400000D01*
X216170000Y-39400000D02*
X216170000Y-37400000D01*
D11*
X214870000Y-38100000D02*
G75*
G02*
X215570000Y-37400000I699999J1D01*
G01*
X215570000Y-39400000D02*
G75*
G02*
X214870000Y-38700000I-1J699999D01*
G01*
D12*
%TO.C,mouse-bite-2mm-slot*%
X173600000Y-93750000D02*
G75*
G02*
X175600000Y-93750000I1000000J0D01*
G01*
X175600000Y-89750000D02*
G75*
G02*
X173600000Y-89750000I-1000000J0D01*
G01*
D11*
%TO.C,C11*%
X148720000Y-40437836D02*
X148720000Y-40222164D01*
X149440000Y-40437836D02*
X149440000Y-40222164D01*
%TO.C,JP13*%
X137500000Y-115230000D02*
X137500000Y-114630000D01*
X138200000Y-113930000D02*
X138800000Y-113930000D01*
X139500000Y-114630000D02*
X139500000Y-115230000D01*
X139500000Y-115230000D02*
X137500000Y-115230000D01*
X137500000Y-114630000D02*
G75*
G02*
X138200000Y-113930000I700000J0D01*
G01*
X138800000Y-113930000D02*
G75*
G02*
X139500000Y-114630000I0J-700000D01*
G01*
%TO.C,JP5*%
X214870000Y-41450000D02*
X214870000Y-40850000D01*
D12*
X215570000Y-42150000D02*
X216170000Y-42150000D01*
X216170000Y-40150000D02*
X215570000Y-40150000D01*
X216170000Y-42150000D02*
X216170000Y-40150000D01*
D11*
X214870000Y-40850000D02*
G75*
G02*
X215570000Y-40150000I699999J1D01*
G01*
X215570000Y-42150000D02*
G75*
G02*
X214870000Y-41450000I-1J699999D01*
G01*
%TO.C,U3*%
X149285000Y-45619000D02*
X149285000Y-45879000D01*
X149285000Y-51069000D02*
X149285000Y-50809000D01*
X152010000Y-45619000D02*
X149285000Y-45619000D01*
X152010000Y-45619000D02*
X154735000Y-45619000D01*
X152010000Y-51069000D02*
X149285000Y-51069000D01*
X152010000Y-51069000D02*
X154735000Y-51069000D01*
X154735000Y-45619000D02*
X154735000Y-45879000D01*
X154735000Y-51069000D02*
X154735000Y-50809000D01*
X155757500Y-51139000D02*
X155277500Y-51139000D01*
X155517500Y-50809000D01*
X155757500Y-51139000D01*
G36*
X155757500Y-51139000D02*
G01*
X155277500Y-51139000D01*
X155517500Y-50809000D01*
X155757500Y-51139000D01*
G37*
%TO.C,C12*%
X158470000Y-48472164D02*
X158470000Y-48687836D01*
X159190000Y-48472164D02*
X159190000Y-48687836D01*
%TO.C,R8*%
X155546359Y-40020000D02*
X155853641Y-40020000D01*
X155546359Y-40780000D02*
X155853641Y-40780000D01*
%TO.C,U1*%
X158268000Y-38168000D02*
X158918000Y-38168000D01*
X158268000Y-38818000D02*
X158268000Y-38168000D01*
X158268000Y-44738000D02*
X158268000Y-45088000D01*
X158918000Y-45388000D02*
X158508000Y-45388000D01*
X165488000Y-38168000D02*
X164838000Y-38168000D01*
X165488000Y-38818000D02*
X165488000Y-38168000D01*
X165488000Y-44738000D02*
X165488000Y-45388000D01*
X165488000Y-45388000D02*
X164838000Y-45388000D01*
X158268000Y-45388000D02*
X157938000Y-45628000D01*
X157938000Y-45148000D01*
X158268000Y-45388000D01*
G36*
X158268000Y-45388000D02*
G01*
X157938000Y-45628000D01*
X157938000Y-45148000D01*
X158268000Y-45388000D01*
G37*
%TO.C,C15*%
X162470000Y-35917836D02*
X162470000Y-35702164D01*
X163190000Y-35917836D02*
X163190000Y-35702164D01*
%TO.C,JP8*%
X214870000Y-49700000D02*
X214870000Y-49100000D01*
D12*
X215570000Y-50400000D02*
X216170000Y-50400000D01*
X216170000Y-48400000D02*
X215570000Y-48400000D01*
X216170000Y-50400000D02*
X216170000Y-48400000D01*
D11*
X214870000Y-49100000D02*
G75*
G02*
X215570000Y-48400000I699999J1D01*
G01*
X215570000Y-50400000D02*
G75*
G02*
X214870000Y-49700000I-1J699999D01*
G01*
%TO.C,R6*%
X144391000Y-49065379D02*
X144391000Y-49400621D01*
X145151000Y-49065379D02*
X145151000Y-49400621D01*
D12*
%TO.C,JP18*%
X131500000Y-94550000D02*
X131500000Y-95150000D01*
D11*
X132800000Y-95850000D02*
X132200000Y-95850000D01*
D12*
X133500000Y-94550000D02*
X131500000Y-94550000D01*
X133500000Y-95150000D02*
X133500000Y-94550000D01*
D11*
X132200000Y-95850000D02*
G75*
G02*
X131500000Y-95150000I-1J699999D01*
G01*
X133500000Y-95150000D02*
G75*
G02*
X132800000Y-95850000I-699999J-1D01*
G01*
D12*
%TO.C,mouse-bite-2mm-slot*%
X154600000Y-81500000D02*
G75*
G02*
X154600000Y-83500000I0J-1000000D01*
G01*
X158600000Y-83500000D02*
G75*
G02*
X158600000Y-81500000I0J1000000D01*
G01*
D11*
%TO.C,JP11*%
X214870000Y-111200000D02*
X214870000Y-110600000D01*
D12*
X215570000Y-111900000D02*
X216170000Y-111900000D01*
X216170000Y-109900000D02*
X215570000Y-109900000D01*
X216170000Y-111900000D02*
X216170000Y-109900000D01*
D11*
X214870000Y-110600000D02*
G75*
G02*
X215570000Y-109900000I699999J1D01*
G01*
X215570000Y-111900000D02*
G75*
G02*
X214870000Y-111200000I-1J699999D01*
G01*
%TO.C,R7*%
X155546359Y-39020000D02*
X155853641Y-39020000D01*
X155546359Y-39780000D02*
X155853641Y-39780000D01*
%TO.C,JP13*%
X214870000Y-117200000D02*
X214870000Y-116600000D01*
D12*
X215570000Y-117900000D02*
X216170000Y-117900000D01*
X216170000Y-115900000D02*
X215570000Y-115900000D01*
X216170000Y-117900000D02*
X216170000Y-115900000D01*
D11*
X214870000Y-116600000D02*
G75*
G02*
X215570000Y-115900000I699999J1D01*
G01*
X215570000Y-117900000D02*
G75*
G02*
X214870000Y-117200000I-1J699999D01*
G01*
%TO.C,R4*%
X169433641Y-42376000D02*
X169126359Y-42376000D01*
X169433641Y-43136000D02*
X169126359Y-43136000D01*
%TO.C,C7*%
X156187836Y-36470000D02*
X155972164Y-36470000D01*
X156187836Y-37190000D02*
X155972164Y-37190000D01*
D12*
%TO.C,mouse-bite-2mm-slot*%
X151200000Y-122600000D02*
G75*
G02*
X153200000Y-122600000I1000000J0D01*
G01*
X153200000Y-118600000D02*
G75*
G02*
X151200000Y-118600000I-1000000J0D01*
G01*
D11*
%TO.C,JP7*%
X214870000Y-46950000D02*
X214870000Y-46350000D01*
D12*
X215570000Y-47650000D02*
X216170000Y-47650000D01*
X216170000Y-45650000D02*
X215570000Y-45650000D01*
X216170000Y-47650000D02*
X216170000Y-45650000D01*
D11*
X214870000Y-46350000D02*
G75*
G02*
X215570000Y-45650000I699999J1D01*
G01*
X215570000Y-47650000D02*
G75*
G02*
X214870000Y-46950000I-1J699999D01*
G01*
%TO.C,JP12*%
X134500000Y-115230000D02*
X134500000Y-114630000D01*
X135200000Y-113930000D02*
X135800000Y-113930000D01*
X136500000Y-114630000D02*
X136500000Y-115230000D01*
X136500000Y-115230000D02*
X134500000Y-115230000D01*
X134500000Y-114630000D02*
G75*
G02*
X135200000Y-113930000I700000J0D01*
G01*
X135800000Y-113930000D02*
G75*
G02*
X136500000Y-114630000I0J-700000D01*
G01*
%TO.C,JP14*%
X143500000Y-115210000D02*
X143500000Y-114610000D01*
X144200000Y-113910000D02*
X144800000Y-113910000D01*
X145500000Y-114610000D02*
X145500000Y-115210000D01*
X145500000Y-115210000D02*
X143500000Y-115210000D01*
X143500000Y-114610000D02*
G75*
G02*
X144200000Y-113910000I700000J0D01*
G01*
X144800000Y-113910000D02*
G75*
G02*
X145500000Y-114610000I0J-700000D01*
G01*
%TO.C,C1*%
X145612164Y-34540000D02*
X145827836Y-34540000D01*
X145612164Y-35260000D02*
X145827836Y-35260000D01*
%TO.C,SW17_W1*%
X185048294Y-63156949D02*
X198167383Y-68591054D01*
X190482399Y-50037860D02*
X185048294Y-63156949D01*
X198167383Y-68591054D02*
X203601488Y-55471965D01*
X203601488Y-55471965D02*
X190482399Y-50037860D01*
D12*
%TO.C,mouse-bite-2mm-slot*%
X126000000Y-113000000D02*
G75*
G02*
X128000000Y-113000000I1000000J0D01*
G01*
X128000000Y-109000000D02*
G75*
G02*
X126000000Y-109000000I-1000000J0D01*
G01*
D11*
%TO.C,C3*%
X175692000Y-42000164D02*
X175692000Y-42215836D01*
X176412000Y-42000164D02*
X176412000Y-42215836D01*
%TD*%
M02*
