%TF.GenerationSoftware,KiCad,Pcbnew,8.0.4*%
%TF.CreationDate,2024-07-24T16:44:51-07:00*%
%TF.ProjectId,panel_1,70616e65-6c5f-4312-9e6b-696361645f70,rev?*%
%TF.SameCoordinates,Original*%
%TF.FileFunction,Soldermask,Bot*%
%TF.FilePolarity,Negative*%
%FSLAX46Y46*%
G04 Gerber Fmt 4.6, Leading zero omitted, Abs format (unit mm)*
G04 Created by KiCad (PCBNEW 8.0.4) date 2024-07-24 16:44:51*
%MOMM*%
%LPD*%
G01*
G04 APERTURE LIST*
%ADD10C,3.200000*%
%ADD11C,0.500000*%
%ADD12C,1.750000*%
%ADD13C,4.000000*%
%ADD14C,2.500000*%
%ADD15C,3.048000*%
%ADD16C,3.987800*%
%ADD17R,1.000000X1.000000*%
%ADD18C,1.400000*%
%ADD19C,0.650000*%
%ADD20O,1.000000X2.000000*%
%ADD21O,1.000000X1.800000*%
%ADD22O,1.000000X1.700000*%
G04 APERTURE END LIST*
D10*
%TO.C,H4*%
X127500000Y-109500000D03*
%TD*%
%TO.C,H5*%
X78000000Y-64000000D03*
%TD*%
D11*
%TO.C,mouse-bite-2mm-slot*%
X74200000Y-84200000D03*
X75700000Y-84200000D03*
X74200000Y-83450000D03*
X75700000Y-83450000D03*
X74200000Y-82700000D03*
X75700000Y-82700000D03*
%TD*%
%TO.C,mouse-bite-2mm-slot*%
X93950000Y-78350000D03*
X93950000Y-76850000D03*
X93200000Y-78350000D03*
X93200000Y-76850000D03*
X92450000Y-78350000D03*
X92450000Y-76850000D03*
%TD*%
D12*
%TO.C,SW8_DP1*%
X54920000Y-71991696D03*
D13*
X60000000Y-71991696D03*
D12*
X65080000Y-71991696D03*
D14*
X56190000Y-69451696D03*
X62540000Y-66911696D03*
%TD*%
D15*
%TO.C,S1*%
X78325000Y-110998000D03*
D16*
X93535000Y-110998000D03*
D15*
X78325000Y-87122000D03*
D16*
X93535000Y-87122000D03*
%TD*%
D10*
%TO.C,H1*%
X49000000Y-29500000D03*
%TD*%
D11*
%TO.C,mouse-bite-2mm-slot*%
X49050000Y-93350000D03*
X50550000Y-93350000D03*
X49050000Y-92600000D03*
X50550000Y-92600000D03*
X49050000Y-91850000D03*
X50550000Y-91850000D03*
%TD*%
D10*
%TO.C,H13*%
X66800000Y-99500000D03*
%TD*%
%TO.C,H3*%
X120500000Y-35000000D03*
%TD*%
D12*
%TO.C,SW19_LEFT1*%
X87541559Y-62780211D03*
D13*
X92234867Y-64724243D03*
D12*
X96928175Y-66668275D03*
D14*
X89686902Y-60919565D03*
X96525553Y-61002951D03*
%TD*%
D11*
%TO.C,mouse-bite-2mm-slot*%
X66000000Y-89600000D03*
X66000000Y-88100000D03*
X65250000Y-89600000D03*
X65250000Y-88100000D03*
X64500000Y-89600000D03*
X64500000Y-88100000D03*
%TD*%
%TO.C,mouse-bite-2mm-slot*%
X96650000Y-116700000D03*
X98150000Y-116700000D03*
X96650000Y-115950000D03*
X98150000Y-115950000D03*
X96650000Y-115200000D03*
X98150000Y-115200000D03*
%TD*%
D17*
%TO.C,TP1*%
X59800000Y-35600000D03*
%TD*%
D10*
%TO.C,H2*%
X49000000Y-83500000D03*
%TD*%
D11*
%TO.C,mouse-bite-2mm-slot*%
X49050000Y-99850000D03*
X50550000Y-99850000D03*
X49050000Y-99100000D03*
X50550000Y-99100000D03*
X49050000Y-98350000D03*
X50550000Y-98350000D03*
%TD*%
D12*
%TO.C,SW20_RIGHT1*%
X121210635Y-81055968D03*
D13*
X125903943Y-83000000D03*
D12*
X130597251Y-84944032D03*
D14*
X123355978Y-79195322D03*
X130194629Y-79278708D03*
%TD*%
D11*
%TO.C,mouse-bite-2mm-slot*%
X96650000Y-101700000D03*
X98150000Y-101700000D03*
X96650000Y-100950000D03*
X98150000Y-100950000D03*
X96650000Y-100200000D03*
X98150000Y-100200000D03*
%TD*%
%TO.C,mouse-bite-2mm-slot*%
X72850000Y-89600000D03*
X72850000Y-88100000D03*
X72100000Y-89600000D03*
X72100000Y-88100000D03*
X71350000Y-89600000D03*
X71350000Y-88100000D03*
%TD*%
%TO.C,mouse-bite-2mm-slot*%
X72750000Y-111850000D03*
X72750000Y-110350000D03*
X72000000Y-111850000D03*
X72000000Y-110350000D03*
X71250000Y-111850000D03*
X71250000Y-110350000D03*
%TD*%
D12*
%TO.C,SW16_SPACE1*%
X85310000Y-104140000D03*
D13*
X85310000Y-99060000D03*
D12*
X85310000Y-93980000D03*
D14*
X82770000Y-102870000D03*
X80230000Y-96520000D03*
%TD*%
D18*
%TO.C,J2*%
X98380000Y-31430000D03*
X96380000Y-31430000D03*
X94380000Y-31430000D03*
%TD*%
D11*
%TO.C,mouse-bite-2mm-slot*%
X96650000Y-87600000D03*
X98150000Y-87600000D03*
X96650000Y-86850000D03*
X98150000Y-86850000D03*
X96650000Y-86100000D03*
X98150000Y-86100000D03*
%TD*%
D12*
%TO.C,SW17_W1*%
X112431583Y-52470425D03*
D13*
X117124891Y-54414457D03*
D12*
X121818199Y-56358489D03*
D14*
X114576926Y-50609779D03*
X121415577Y-50693165D03*
%TD*%
D11*
%TO.C,mouse-bite-2mm-slot*%
X80150000Y-78350000D03*
X80150000Y-76850000D03*
X79400000Y-78350000D03*
X79400000Y-76850000D03*
X78650000Y-78350000D03*
X78650000Y-76850000D03*
%TD*%
D19*
%TO.C,J1*%
X79265000Y-26245000D03*
X73495000Y-26245000D03*
D20*
X80700000Y-26745000D03*
D21*
X80700000Y-22605000D03*
D20*
X72060000Y-26745000D03*
D22*
X72060000Y-22605000D03*
%TD*%
D17*
%TO.C,TP2*%
X73900000Y-38500000D03*
%TD*%
D11*
%TO.C,mouse-bite-2mm-slot*%
X74250000Y-116450000D03*
X75750000Y-116450000D03*
X74250000Y-115700000D03*
X75750000Y-115700000D03*
X74250000Y-114950000D03*
X75750000Y-114950000D03*
%TD*%
D12*
%TO.C,SW18_DOWN1*%
X105141464Y-70070330D03*
D13*
X109834772Y-72014362D03*
D12*
X114528080Y-73958394D03*
D14*
X107286807Y-68209684D03*
X114125458Y-68293070D03*
%TD*%
D11*
%TO.C,mouse-bite-2mm-slot*%
X49050000Y-106850000D03*
X50550000Y-106850000D03*
X49050000Y-106100000D03*
X50550000Y-106100000D03*
X49050000Y-105350000D03*
X50550000Y-105350000D03*
%TD*%
M02*
