%TF.GenerationSoftware,KiCad,Pcbnew,8.0.4*%
%TF.CreationDate,2024-07-24T01:11:58-07:00*%
%TF.ProjectId,panel_1,70616e65-6c5f-4312-9e6b-696361645f70,rev?*%
%TF.SameCoordinates,Original*%
%TF.FileFunction,Copper,L2,Bot*%
%TF.FilePolarity,Positive*%
%FSLAX46Y46*%
G04 Gerber Fmt 4.6, Leading zero omitted, Abs format (unit mm)*
G04 Created by KiCad (PCBNEW 8.0.4) date 2024-07-24 01:11:58*
%MOMM*%
%LPD*%
G01*
G04 APERTURE LIST*
%TA.AperFunction,ComponentPad*%
%ADD10C,0.600000*%
%TD*%
%TA.AperFunction,ComponentPad*%
%ADD11C,1.400000*%
%TD*%
%TA.AperFunction,ComponentPad*%
%ADD12O,1.000000X2.000000*%
%TD*%
%TA.AperFunction,ComponentPad*%
%ADD13O,1.000000X1.800000*%
%TD*%
%TA.AperFunction,ComponentPad*%
%ADD14O,1.000000X1.700000*%
%TD*%
%TA.AperFunction,ComponentPad*%
%ADD15C,2.500000*%
%TD*%
%TA.AperFunction,ViaPad*%
%ADD16C,0.800000*%
%TD*%
%TA.AperFunction,Conductor*%
%ADD17C,0.800000*%
%TD*%
G04 APERTURE END LIST*
D10*
%TO.P,,57,GND*%
%TO.N,GND*%
X161916000Y-40724000D03*
%TD*%
D11*
%TO.P,J2,1,Pin_1*%
%TO.N,/Main/SWCLK*%
X175580000Y-36330000D03*
%TO.P,J2,2,Pin_2*%
%TO.N,GND*%
X173580000Y-36330000D03*
%TO.P,J2,3,Pin_3*%
%TO.N,/Main/SWDIO*%
X171580000Y-36330000D03*
%TD*%
D10*
%TO.P,,57,GND*%
%TO.N,GND*%
X162932000Y-41740000D03*
%TD*%
%TO.P,,57,GND*%
%TO.N,GND*%
X161916000Y-42756000D03*
%TD*%
D12*
%TO.P,J1,S1,SHIELD*%
%TO.N,Net-(J1-SHIELD)*%
X157900000Y-31645000D03*
D13*
X157900000Y-27505000D03*
D12*
X149260000Y-31645000D03*
D14*
X149260000Y-27505000D03*
%TD*%
D10*
%TO.P,,57,GND*%
%TO.N,GND*%
X162932000Y-40724000D03*
%TD*%
%TO.P,,57,GND*%
%TO.N,GND*%
X162932000Y-42756000D03*
%TD*%
D15*
%TO.P,SW18_DOWN1,1,1*%
%TO.N,DOWN*%
X184486807Y-73109684D03*
%TO.P,SW18_DOWN1,2,2*%
%TO.N,GND*%
X191325458Y-73193070D03*
%TD*%
%TO.P,SW20_RIGHT1,1,1*%
%TO.N,RIGHT*%
X200555978Y-84095322D03*
%TO.P,SW20_RIGHT1,2,2*%
%TO.N,GND*%
X207394629Y-84178708D03*
%TD*%
%TO.P,SW8_DP1,1,1*%
%TO.N,L2*%
X133390000Y-74351696D03*
%TO.P,SW8_DP1,2,2*%
%TO.N,GND*%
X139740000Y-71811696D03*
%TD*%
%TO.P,SW19_LEFT1,1,1*%
%TO.N,LEFT*%
X166886902Y-65819565D03*
%TO.P,SW19_LEFT1,2,2*%
%TO.N,GND*%
X173725553Y-65902951D03*
%TD*%
%TO.P,SW16_SPACE1,1,1*%
%TO.N,/Buttons/SPACE*%
X159970000Y-107770000D03*
%TO.P,SW16_SPACE1,2,2*%
%TO.N,GND*%
X157430000Y-101420000D03*
%TD*%
D10*
%TO.P,,57,GND*%
%TO.N,GND*%
X160900000Y-42756000D03*
%TD*%
%TO.P,,57,GND*%
%TO.N,GND*%
X160900000Y-41740000D03*
%TD*%
%TO.P,,57,GND*%
%TO.N,GND*%
X160900000Y-40724000D03*
%TD*%
%TO.P,,57,GND*%
%TO.N,GND*%
X161916000Y-41740000D03*
%TD*%
D15*
%TO.P,SW17_W1,1,1*%
%TO.N,W*%
X191776926Y-55509779D03*
%TO.P,SW17_W1,2,2*%
%TO.N,GND*%
X198615577Y-55593165D03*
%TD*%
D16*
%TO.N,GND*%
X148073000Y-36152000D03*
X158868000Y-50122000D03*
X146168000Y-44661000D03*
X169080000Y-39330000D03*
X132080000Y-44830000D03*
X139945000Y-34120000D03*
X153978500Y-46502500D03*
X166869000Y-43264000D03*
X156080000Y-35830000D03*
X176013000Y-40089000D03*
X166580000Y-48330000D03*
X161830000Y-33830000D03*
X213200000Y-118400000D03*
X213450000Y-53400000D03*
X149080000Y-38830000D03*
%TO.N,+3.3V*%
X157830000Y-36330000D03*
X161680000Y-36330000D03*
X164080000Y-48830000D03*
X158830000Y-46830000D03*
X170580000Y-39080000D03*
X139872000Y-44915000D03*
%TD*%
D17*
%TO.N,GND*%
X207394629Y-84178708D02*
X196408991Y-73193070D01*
X173725553Y-65902951D02*
X173725553Y-59124447D01*
X173725553Y-59124447D02*
X173950000Y-58900000D01*
X191325458Y-70775458D02*
X179450000Y-58900000D01*
X208756835Y-55593165D02*
X198615577Y-55593165D01*
X213200000Y-89984079D02*
X207394629Y-84178708D01*
X213450000Y-53400000D02*
X210950000Y-53400000D01*
X194722412Y-51700000D02*
X185400000Y-51700000D01*
X139740000Y-71811696D02*
X139740000Y-68110000D01*
X191325458Y-73193070D02*
X191325458Y-70775458D01*
X139740000Y-68110000D02*
X139950000Y-67900000D01*
X198615577Y-55593165D02*
X194722412Y-51700000D01*
X196408991Y-73193070D02*
X191325458Y-73193070D01*
X213200000Y-118400000D02*
X213200000Y-89984079D01*
X210950000Y-53400000D02*
X208756835Y-55593165D01*
%TO.N,+3.3V*%
X160830000Y-50954000D02*
X160830000Y-48830000D01*
X139872000Y-44915000D02*
X139872000Y-45604000D01*
X147946000Y-53678000D02*
X158106000Y-53678000D01*
X164080000Y-48830000D02*
X160830000Y-48830000D01*
X162180000Y-36830000D02*
X168330000Y-36830000D01*
X170580000Y-39080000D02*
X170580000Y-42330000D01*
X139872000Y-45604000D02*
X147946000Y-53678000D01*
X160830000Y-48830000D02*
X158830000Y-46830000D01*
X170580000Y-42330000D02*
X164080000Y-48830000D01*
X158106000Y-53678000D02*
X160830000Y-50954000D01*
X168330000Y-36830000D02*
X170580000Y-39080000D01*
X161680000Y-36330000D02*
X157830000Y-36330000D01*
X161680000Y-36330000D02*
X162180000Y-36830000D01*
%TD*%
%TA.AperFunction,Conductor*%
%TO.N,GND*%
G36*
X158642539Y-25420185D02*
G01*
X158688294Y-25472989D01*
X158699500Y-25524500D01*
X158699500Y-26203929D01*
X158679815Y-26270968D01*
X158627011Y-26316723D01*
X158557853Y-26326667D01*
X158506609Y-26307031D01*
X158373920Y-26218371D01*
X158373907Y-26218364D01*
X158191839Y-26142950D01*
X158191829Y-26142947D01*
X157998543Y-26104500D01*
X157998541Y-26104500D01*
X157801459Y-26104500D01*
X157801457Y-26104500D01*
X157608170Y-26142947D01*
X157608160Y-26142950D01*
X157426092Y-26218364D01*
X157426079Y-26218371D01*
X157262218Y-26327860D01*
X157262214Y-26327863D01*
X157122863Y-26467214D01*
X157122860Y-26467218D01*
X157013371Y-26631079D01*
X157013364Y-26631092D01*
X156937950Y-26813160D01*
X156937947Y-26813170D01*
X156899500Y-27006456D01*
X156899500Y-27006459D01*
X156899500Y-28003541D01*
X156899500Y-28003543D01*
X156899499Y-28003543D01*
X156937947Y-28196829D01*
X156937950Y-28196839D01*
X157013364Y-28378907D01*
X157013371Y-28378920D01*
X157122860Y-28542781D01*
X157122863Y-28542785D01*
X157262214Y-28682136D01*
X157262218Y-28682139D01*
X157426079Y-28791628D01*
X157426092Y-28791635D01*
X157580278Y-28855500D01*
X157608165Y-28867051D01*
X157608169Y-28867051D01*
X157608170Y-28867052D01*
X157801456Y-28905500D01*
X157801459Y-28905500D01*
X157998543Y-28905500D01*
X158128582Y-28879632D01*
X158191835Y-28867051D01*
X158373914Y-28791632D01*
X158506609Y-28702967D01*
X158573286Y-28682090D01*
X158640666Y-28700574D01*
X158687357Y-28752553D01*
X158699500Y-28806070D01*
X158699500Y-29965891D01*
X158733608Y-30093187D01*
X158763234Y-30144500D01*
X158799500Y-30207314D01*
X158892686Y-30300500D01*
X159006814Y-30366392D01*
X159134108Y-30400500D01*
X159134110Y-30400500D01*
X192871170Y-30400500D01*
X192938209Y-30420185D01*
X192983964Y-30472989D01*
X192993908Y-30542147D01*
X192989333Y-30562094D01*
X185347750Y-54578499D01*
X182727492Y-62813597D01*
X182688407Y-62871512D01*
X182624216Y-62899103D01*
X182609329Y-62900000D01*
X163200000Y-62900000D01*
X159236811Y-68844783D01*
X159183246Y-68889644D01*
X159133637Y-68900000D01*
X157174500Y-68900000D01*
X157107461Y-68880315D01*
X157061706Y-68827511D01*
X157051954Y-68782685D01*
X157050766Y-68782763D01*
X157050500Y-68778717D01*
X157050500Y-68778712D01*
X157018838Y-68538211D01*
X156956054Y-68303900D01*
X156863224Y-68079788D01*
X156741936Y-67869711D01*
X156594265Y-67677262D01*
X156594260Y-67677256D01*
X156422743Y-67505739D01*
X156422736Y-67505733D01*
X156230293Y-67358067D01*
X156230292Y-67358066D01*
X156230289Y-67358064D01*
X156020212Y-67236776D01*
X156020205Y-67236773D01*
X155796104Y-67143947D01*
X155678944Y-67112554D01*
X155561789Y-67081162D01*
X155561788Y-67081161D01*
X155561785Y-67081161D01*
X155321289Y-67049500D01*
X155321288Y-67049500D01*
X155078712Y-67049500D01*
X155078711Y-67049500D01*
X154838214Y-67081161D01*
X154603895Y-67143947D01*
X154379794Y-67236773D01*
X154379785Y-67236777D01*
X154169706Y-67358067D01*
X153977263Y-67505733D01*
X153977256Y-67505739D01*
X153805739Y-67677256D01*
X153805733Y-67677263D01*
X153658067Y-67869706D01*
X153536777Y-68079785D01*
X153536773Y-68079794D01*
X153443947Y-68303895D01*
X153381161Y-68538214D01*
X153349499Y-68778717D01*
X153349234Y-68782763D01*
X153347546Y-68782652D01*
X153329815Y-68843039D01*
X153277011Y-68888794D01*
X153225500Y-68900000D01*
X121824500Y-68900000D01*
X121757461Y-68880315D01*
X121711706Y-68827511D01*
X121700500Y-68776000D01*
X121700500Y-44914999D01*
X138966540Y-44914999D01*
X138970821Y-44955731D01*
X138971500Y-44968692D01*
X138971500Y-45692696D01*
X139006103Y-45866658D01*
X139006105Y-45866666D01*
X139032132Y-45929500D01*
X139073987Y-46030548D01*
X139073989Y-46030551D01*
X139084208Y-46045844D01*
X139084210Y-46045847D01*
X139084212Y-46045849D01*
X139140795Y-46130532D01*
X139172537Y-46178038D01*
X139172538Y-46178039D01*
X147246536Y-54252035D01*
X147310299Y-54315798D01*
X147371966Y-54377465D01*
X147519446Y-54476009D01*
X147519459Y-54476016D01*
X147627874Y-54520922D01*
X147683334Y-54543894D01*
X147725935Y-54552368D01*
X147857305Y-54578500D01*
X147857308Y-54578500D01*
X158194693Y-54578500D01*
X158194694Y-54578499D01*
X158368666Y-54543895D01*
X158450606Y-54509953D01*
X158532547Y-54476013D01*
X158532549Y-54476011D01*
X158532552Y-54476010D01*
X158620955Y-54416939D01*
X158620955Y-54416938D01*
X158620959Y-54416936D01*
X158680036Y-54377464D01*
X161529464Y-51528035D01*
X161628013Y-51380547D01*
X161647895Y-51332547D01*
X161695895Y-51216666D01*
X161730500Y-51042692D01*
X161730500Y-50865308D01*
X161730500Y-49854500D01*
X161750185Y-49787461D01*
X161802989Y-49741706D01*
X161854500Y-49730500D01*
X164174645Y-49730500D01*
X164174646Y-49730500D01*
X164260699Y-49712208D01*
X164262134Y-49711912D01*
X164342666Y-49695895D01*
X164342671Y-49695893D01*
X164348495Y-49694127D01*
X164348628Y-49694568D01*
X164359319Y-49691247D01*
X164359509Y-49691206D01*
X164359803Y-49691144D01*
X164434057Y-49658082D01*
X164436955Y-49656837D01*
X164506547Y-49628013D01*
X164507633Y-49627287D01*
X164526095Y-49617104D01*
X164532730Y-49614151D01*
X164593039Y-49570333D01*
X164596966Y-49567595D01*
X164654036Y-49529464D01*
X164659735Y-49523763D01*
X164674533Y-49511124D01*
X164685871Y-49502888D01*
X164731265Y-49452471D01*
X164735697Y-49447801D01*
X171279464Y-42904036D01*
X171318936Y-42844959D01*
X171378013Y-42756547D01*
X171411953Y-42674606D01*
X171445895Y-42592666D01*
X171480500Y-42418692D01*
X171480500Y-42241308D01*
X171480500Y-39133692D01*
X171481179Y-39120731D01*
X171485460Y-39080000D01*
X171481179Y-39039266D01*
X171480500Y-39026306D01*
X171480500Y-38991309D01*
X171472360Y-38950393D01*
X171470656Y-38939156D01*
X171465674Y-38891744D01*
X171455095Y-38859189D01*
X171451412Y-38845075D01*
X171445895Y-38817334D01*
X171427350Y-38772563D01*
X171423986Y-38763442D01*
X171407180Y-38711718D01*
X171407179Y-38711716D01*
X171393426Y-38687896D01*
X171386257Y-38673359D01*
X171380341Y-38659075D01*
X171378695Y-38654474D01*
X171378013Y-38653453D01*
X171347368Y-38607591D01*
X171343088Y-38600708D01*
X171312531Y-38547781D01*
X171312530Y-38547780D01*
X171298637Y-38532350D01*
X171287684Y-38518268D01*
X171279464Y-38505965D01*
X171235724Y-38462225D01*
X171231255Y-38457516D01*
X171185872Y-38407113D01*
X171185871Y-38407112D01*
X171174525Y-38398869D01*
X171159734Y-38386235D01*
X171154035Y-38380536D01*
X169103499Y-36329999D01*
X170374357Y-36329999D01*
X170374357Y-36330000D01*
X170394884Y-36551535D01*
X170394885Y-36551537D01*
X170455769Y-36765523D01*
X170455775Y-36765538D01*
X170554938Y-36964683D01*
X170554943Y-36964691D01*
X170689020Y-37142238D01*
X170853437Y-37292123D01*
X170853439Y-37292125D01*
X171042595Y-37409245D01*
X171042596Y-37409245D01*
X171042599Y-37409247D01*
X171250060Y-37489618D01*
X171468757Y-37530500D01*
X171468759Y-37530500D01*
X171691241Y-37530500D01*
X171691243Y-37530500D01*
X171909940Y-37489618D01*
X172117401Y-37409247D01*
X172234280Y-37336879D01*
X172926672Y-37336879D01*
X172926672Y-37336880D01*
X173042821Y-37408797D01*
X173042822Y-37408798D01*
X173250195Y-37489134D01*
X173468807Y-37530000D01*
X173691193Y-37530000D01*
X173909809Y-37489133D01*
X174117168Y-37408801D01*
X174117181Y-37408795D01*
X174233326Y-37336879D01*
X173580001Y-36683553D01*
X173580000Y-36683553D01*
X172926672Y-37336879D01*
X172234280Y-37336879D01*
X172306562Y-37292124D01*
X172470981Y-37142236D01*
X172605058Y-36964689D01*
X172609232Y-36956305D01*
X172632553Y-36923892D01*
X173226447Y-36330000D01*
X173180369Y-36283922D01*
X173230000Y-36283922D01*
X173230000Y-36376078D01*
X173253852Y-36465095D01*
X173299930Y-36544905D01*
X173365095Y-36610070D01*
X173444905Y-36656148D01*
X173533922Y-36680000D01*
X173626078Y-36680000D01*
X173715095Y-36656148D01*
X173794905Y-36610070D01*
X173860070Y-36544905D01*
X173906148Y-36465095D01*
X173930000Y-36376078D01*
X173930000Y-36329999D01*
X173933553Y-36329999D01*
X173933553Y-36330000D01*
X174527447Y-36923894D01*
X174550765Y-36956301D01*
X174554942Y-36964689D01*
X174689020Y-37142238D01*
X174853437Y-37292123D01*
X174853439Y-37292125D01*
X175042595Y-37409245D01*
X175042596Y-37409245D01*
X175042599Y-37409247D01*
X175250060Y-37489618D01*
X175468757Y-37530500D01*
X175468759Y-37530500D01*
X175691241Y-37530500D01*
X175691243Y-37530500D01*
X175909940Y-37489618D01*
X176117401Y-37409247D01*
X176306562Y-37292124D01*
X176470981Y-37142236D01*
X176605058Y-36964689D01*
X176704229Y-36765528D01*
X176765115Y-36551536D01*
X176785643Y-36330000D01*
X176775342Y-36218838D01*
X176765115Y-36108464D01*
X176765114Y-36108462D01*
X176763341Y-36102231D01*
X176704229Y-35894472D01*
X176704224Y-35894461D01*
X176605061Y-35695316D01*
X176605056Y-35695308D01*
X176470979Y-35517761D01*
X176306562Y-35367876D01*
X176306560Y-35367874D01*
X176117404Y-35250754D01*
X176117398Y-35250752D01*
X175909940Y-35170382D01*
X175691243Y-35129500D01*
X175468757Y-35129500D01*
X175250060Y-35170382D01*
X175121452Y-35220205D01*
X175042601Y-35250752D01*
X175042595Y-35250754D01*
X174853439Y-35367874D01*
X174853437Y-35367876D01*
X174689019Y-35517762D01*
X174689017Y-35517765D01*
X174554943Y-35695309D01*
X174554940Y-35695313D01*
X174550763Y-35703702D01*
X174527448Y-35736103D01*
X173933553Y-36329999D01*
X173930000Y-36329999D01*
X173930000Y-36283922D01*
X173906148Y-36194905D01*
X173860070Y-36115095D01*
X173794905Y-36049930D01*
X173715095Y-36003852D01*
X173626078Y-35980000D01*
X173533922Y-35980000D01*
X173444905Y-36003852D01*
X173365095Y-36049930D01*
X173299930Y-36115095D01*
X173253852Y-36194905D01*
X173230000Y-36283922D01*
X173180369Y-36283922D01*
X172632553Y-35736106D01*
X172609233Y-35703695D01*
X172605060Y-35695315D01*
X172605056Y-35695308D01*
X172470979Y-35517761D01*
X172306562Y-35367876D01*
X172306560Y-35367874D01*
X172234278Y-35323119D01*
X172926671Y-35323119D01*
X173580000Y-35976447D01*
X173580001Y-35976447D01*
X174233327Y-35323119D01*
X174117178Y-35251202D01*
X174117177Y-35251201D01*
X173909804Y-35170865D01*
X173691193Y-35130000D01*
X173468807Y-35130000D01*
X173250195Y-35170865D01*
X173042824Y-35251200D01*
X173042823Y-35251201D01*
X172926671Y-35323119D01*
X172234278Y-35323119D01*
X172117404Y-35250754D01*
X172117398Y-35250752D01*
X171909940Y-35170382D01*
X171691243Y-35129500D01*
X171468757Y-35129500D01*
X171250060Y-35170382D01*
X171121452Y-35220205D01*
X171042601Y-35250752D01*
X171042595Y-35250754D01*
X170853439Y-35367874D01*
X170853437Y-35367876D01*
X170689020Y-35517761D01*
X170554943Y-35695308D01*
X170554938Y-35695316D01*
X170455775Y-35894461D01*
X170455769Y-35894476D01*
X170394885Y-36108462D01*
X170394884Y-36108464D01*
X170374357Y-36329999D01*
X169103499Y-36329999D01*
X168904035Y-36130535D01*
X168904030Y-36130531D01*
X168844961Y-36091064D01*
X168844960Y-36091063D01*
X168756544Y-36031985D01*
X168756542Y-36031984D01*
X168674607Y-35998046D01*
X168674606Y-35998046D01*
X168592666Y-35964105D01*
X168592658Y-35964103D01*
X168418696Y-35929500D01*
X168418692Y-35929500D01*
X168418691Y-35929500D01*
X162604362Y-35929500D01*
X162537323Y-35909815D01*
X162516681Y-35893181D01*
X162335716Y-35712216D01*
X162331246Y-35707506D01*
X162285875Y-35657115D01*
X162285871Y-35657112D01*
X162274531Y-35648873D01*
X162259738Y-35636238D01*
X162254036Y-35630536D01*
X162242373Y-35622743D01*
X162197021Y-35592439D01*
X162193028Y-35589656D01*
X162132732Y-35545850D01*
X162132728Y-35545848D01*
X162126092Y-35542893D01*
X162107643Y-35532719D01*
X162106551Y-35531989D01*
X162106546Y-35531986D01*
X162036993Y-35503177D01*
X162034010Y-35501895D01*
X161959806Y-35468857D01*
X161959804Y-35468856D01*
X161959803Y-35468856D01*
X161959294Y-35468747D01*
X161948632Y-35465437D01*
X161948500Y-35465874D01*
X161942667Y-35464105D01*
X161862222Y-35448103D01*
X161860633Y-35447776D01*
X161774650Y-35429500D01*
X161774646Y-35429500D01*
X161768691Y-35429500D01*
X157924646Y-35429500D01*
X157735354Y-35429500D01*
X157735350Y-35429500D01*
X157649334Y-35447783D01*
X157647745Y-35448110D01*
X157567336Y-35464105D01*
X157561514Y-35465871D01*
X157561382Y-35465437D01*
X157550720Y-35468744D01*
X157550200Y-35468854D01*
X157550199Y-35468854D01*
X157475969Y-35501904D01*
X157472986Y-35503185D01*
X157403457Y-35531984D01*
X157403450Y-35531988D01*
X157402346Y-35532726D01*
X157383911Y-35542892D01*
X157377272Y-35545848D01*
X157377264Y-35545853D01*
X157316976Y-35589653D01*
X157312986Y-35592434D01*
X157255968Y-35630533D01*
X157255958Y-35630542D01*
X157250253Y-35636246D01*
X157235472Y-35648870D01*
X157224129Y-35657111D01*
X157224126Y-35657114D01*
X157178742Y-35707517D01*
X157174277Y-35712222D01*
X157130539Y-35755961D01*
X157130532Y-35755969D01*
X157122310Y-35768275D01*
X157111362Y-35782350D01*
X157097472Y-35797776D01*
X157097467Y-35797784D01*
X157066914Y-35850703D01*
X157062630Y-35857591D01*
X157031988Y-35903450D01*
X157023741Y-35923360D01*
X157016569Y-35937902D01*
X157002824Y-35961710D01*
X157002821Y-35961715D01*
X156986010Y-36013451D01*
X156982643Y-36022578D01*
X156964106Y-36067333D01*
X156958589Y-36095066D01*
X156954905Y-36109183D01*
X156944325Y-36141747D01*
X156939340Y-36189171D01*
X156937638Y-36200396D01*
X156929500Y-36241310D01*
X156929500Y-36276306D01*
X156928821Y-36289266D01*
X156924540Y-36329999D01*
X156928821Y-36370731D01*
X156929500Y-36383692D01*
X156929500Y-36418695D01*
X156937637Y-36459602D01*
X156939341Y-36470831D01*
X156944325Y-36518253D01*
X156944325Y-36518254D01*
X156954904Y-36550811D01*
X156958590Y-36564938D01*
X156964104Y-36592662D01*
X156964105Y-36592664D01*
X156982644Y-36637423D01*
X156986012Y-36646554D01*
X157002819Y-36698279D01*
X157002822Y-36698286D01*
X157016569Y-36722097D01*
X157023742Y-36736643D01*
X157031984Y-36756542D01*
X157062634Y-36802413D01*
X157066919Y-36809304D01*
X157097468Y-36862218D01*
X157097469Y-36862219D01*
X157111357Y-36877643D01*
X157122307Y-36891721D01*
X157130534Y-36904033D01*
X157174274Y-36947773D01*
X157178744Y-36952483D01*
X157224129Y-37002888D01*
X157224131Y-37002890D01*
X157235467Y-37011126D01*
X157250263Y-37023763D01*
X157255961Y-37029461D01*
X157255965Y-37029464D01*
X157312994Y-37067570D01*
X157316967Y-37070339D01*
X157377270Y-37114151D01*
X157383902Y-37117104D01*
X157402361Y-37127283D01*
X157403453Y-37128013D01*
X157473042Y-37156836D01*
X157475987Y-37158102D01*
X157550197Y-37191144D01*
X157550696Y-37191250D01*
X157561370Y-37194562D01*
X157561503Y-37194125D01*
X157567330Y-37195892D01*
X157567334Y-37195894D01*
X157647816Y-37211902D01*
X157649282Y-37212204D01*
X157735354Y-37230500D01*
X157741309Y-37230500D01*
X161255639Y-37230500D01*
X161322678Y-37250185D01*
X161343320Y-37266819D01*
X161480536Y-37404035D01*
X161605965Y-37529464D01*
X161753453Y-37628013D01*
X161801452Y-37647895D01*
X161917334Y-37695895D01*
X162091303Y-37730499D01*
X162091307Y-37730500D01*
X162091308Y-37730500D01*
X162091309Y-37730500D01*
X167905638Y-37730500D01*
X167972677Y-37750185D01*
X167993319Y-37766819D01*
X169643181Y-39416680D01*
X169676666Y-39478003D01*
X169679500Y-39504361D01*
X169679500Y-41905638D01*
X169659815Y-41972677D01*
X169643181Y-41993319D01*
X163743319Y-47893181D01*
X163681996Y-47926666D01*
X163655638Y-47929500D01*
X161254362Y-47929500D01*
X161187323Y-47909815D01*
X161166681Y-47893181D01*
X159485715Y-46212215D01*
X159481245Y-46207505D01*
X159435875Y-46157115D01*
X159435871Y-46157112D01*
X159424531Y-46148873D01*
X159409738Y-46136238D01*
X159404036Y-46130536D01*
X159404032Y-46130533D01*
X159404031Y-46130532D01*
X159347021Y-46092439D01*
X159343028Y-46089657D01*
X159319977Y-46072910D01*
X159282730Y-46045849D01*
X159276081Y-46042888D01*
X159257636Y-46032716D01*
X159257022Y-46032305D01*
X159256546Y-46031987D01*
X159220459Y-46017039D01*
X159186984Y-46003173D01*
X159184039Y-46001907D01*
X159109804Y-45968856D01*
X159109618Y-45968816D01*
X159109294Y-45968747D01*
X159098632Y-45965437D01*
X159098500Y-45965874D01*
X159092667Y-45964105D01*
X159012222Y-45948103D01*
X159010633Y-45947776D01*
X158924650Y-45929500D01*
X158924646Y-45929500D01*
X158735354Y-45929500D01*
X158649306Y-45947789D01*
X158647717Y-45948115D01*
X158567333Y-45964104D01*
X158561508Y-45965871D01*
X158561378Y-45965443D01*
X158550726Y-45968743D01*
X158550202Y-45968854D01*
X158550198Y-45968855D01*
X158475971Y-46001902D01*
X158472994Y-46003181D01*
X158403453Y-46031988D01*
X158403450Y-46031989D01*
X158402342Y-46032730D01*
X158383921Y-46042886D01*
X158377279Y-46045843D01*
X158377273Y-46045847D01*
X158316993Y-46089641D01*
X158313004Y-46092421D01*
X158255967Y-46130533D01*
X158255955Y-46130543D01*
X158250251Y-46136247D01*
X158235468Y-46148872D01*
X158224136Y-46157105D01*
X158224126Y-46157114D01*
X158178751Y-46207507D01*
X158174286Y-46212212D01*
X158130539Y-46255960D01*
X158130532Y-46255968D01*
X158122308Y-46268277D01*
X158111361Y-46282352D01*
X158097468Y-46297782D01*
X158097467Y-46297783D01*
X158066907Y-46350713D01*
X158062626Y-46357597D01*
X158031987Y-46403454D01*
X158023742Y-46423357D01*
X158016575Y-46437890D01*
X158002820Y-46461716D01*
X158002818Y-46461721D01*
X157986010Y-46513449D01*
X157982642Y-46522580D01*
X157964105Y-46567333D01*
X157964103Y-46567341D01*
X157958588Y-46595067D01*
X157954902Y-46609193D01*
X157944326Y-46641743D01*
X157944325Y-46641746D01*
X157939341Y-46689160D01*
X157937639Y-46700384D01*
X157929500Y-46741307D01*
X157929500Y-46776306D01*
X157928821Y-46789266D01*
X157924540Y-46829999D01*
X157928821Y-46870731D01*
X157929500Y-46883692D01*
X157929500Y-46918692D01*
X157937639Y-46959614D01*
X157939341Y-46970839D01*
X157944325Y-47018249D01*
X157944326Y-47018256D01*
X157954903Y-47050807D01*
X157958587Y-47064927D01*
X157964105Y-47092665D01*
X157964106Y-47092670D01*
X157982641Y-47137417D01*
X157986011Y-47146550D01*
X158002820Y-47198282D01*
X158016571Y-47222100D01*
X158023743Y-47236644D01*
X158031986Y-47256544D01*
X158031988Y-47256547D01*
X158062626Y-47302402D01*
X158066910Y-47309290D01*
X158097467Y-47362216D01*
X158111355Y-47377640D01*
X158122307Y-47391721D01*
X158130535Y-47404035D01*
X158174283Y-47447783D01*
X158178752Y-47452492D01*
X158224129Y-47502888D01*
X158235467Y-47511125D01*
X158250261Y-47523761D01*
X159893181Y-49166681D01*
X159926666Y-49228004D01*
X159929500Y-49254362D01*
X159929500Y-50529638D01*
X159909815Y-50596677D01*
X159893181Y-50617319D01*
X157769319Y-52741181D01*
X157707996Y-52774666D01*
X157681638Y-52777500D01*
X148370361Y-52777500D01*
X148303322Y-52757815D01*
X148282680Y-52741181D01*
X140808819Y-45267319D01*
X140775334Y-45205996D01*
X140772500Y-45179638D01*
X140772500Y-44968692D01*
X140773179Y-44955731D01*
X140777460Y-44915000D01*
X140773179Y-44874266D01*
X140772500Y-44861306D01*
X140772500Y-44826309D01*
X140764360Y-44785393D01*
X140762656Y-44774156D01*
X140757674Y-44726744D01*
X140747094Y-44694183D01*
X140743409Y-44680059D01*
X140737895Y-44652339D01*
X140737894Y-44652338D01*
X140737894Y-44652334D01*
X140719352Y-44607569D01*
X140715990Y-44598455D01*
X140699181Y-44546720D01*
X140699178Y-44546715D01*
X140685424Y-44522892D01*
X140678256Y-44508355D01*
X140670014Y-44488456D01*
X140670013Y-44488454D01*
X140670013Y-44488453D01*
X140639359Y-44442577D01*
X140635088Y-44435708D01*
X140604534Y-44382785D01*
X140604530Y-44382780D01*
X140590637Y-44367350D01*
X140579684Y-44353268D01*
X140571464Y-44340965D01*
X140527721Y-44297222D01*
X140523255Y-44292516D01*
X140477871Y-44242112D01*
X140477870Y-44242111D01*
X140466527Y-44233870D01*
X140451737Y-44221238D01*
X140446035Y-44215536D01*
X140389008Y-44177431D01*
X140385016Y-44174649D01*
X140324730Y-44130849D01*
X140318092Y-44127893D01*
X140299643Y-44117719D01*
X140298551Y-44116989D01*
X140298546Y-44116986D01*
X140228993Y-44088177D01*
X140226010Y-44086895D01*
X140151806Y-44053856D01*
X140151797Y-44053853D01*
X140151285Y-44053745D01*
X140140626Y-44050438D01*
X140140494Y-44050874D01*
X140134667Y-44049106D01*
X140134666Y-44049106D01*
X140134663Y-44049105D01*
X140134662Y-44049105D01*
X140054268Y-44033113D01*
X140052715Y-44032794D01*
X139966646Y-44014500D01*
X139777354Y-44014500D01*
X139777350Y-44014500D01*
X139691334Y-44032783D01*
X139689745Y-44033110D01*
X139609336Y-44049105D01*
X139603514Y-44050871D01*
X139603382Y-44050437D01*
X139592720Y-44053744D01*
X139592200Y-44053854D01*
X139592199Y-44053854D01*
X139517969Y-44086904D01*
X139514986Y-44088185D01*
X139445457Y-44116984D01*
X139445450Y-44116988D01*
X139444346Y-44117726D01*
X139425911Y-44127892D01*
X139419272Y-44130848D01*
X139419264Y-44130853D01*
X139358976Y-44174653D01*
X139354986Y-44177434D01*
X139297968Y-44215533D01*
X139297958Y-44215542D01*
X139292253Y-44221246D01*
X139277472Y-44233870D01*
X139266129Y-44242111D01*
X139266126Y-44242114D01*
X139220742Y-44292517D01*
X139216277Y-44297222D01*
X139172539Y-44340961D01*
X139172532Y-44340969D01*
X139164310Y-44353275D01*
X139153362Y-44367350D01*
X139139472Y-44382776D01*
X139139467Y-44382784D01*
X139108914Y-44435703D01*
X139104630Y-44442591D01*
X139073988Y-44488450D01*
X139065741Y-44508360D01*
X139058569Y-44522902D01*
X139044824Y-44546710D01*
X139044821Y-44546715D01*
X139028010Y-44598451D01*
X139024643Y-44607578D01*
X139006106Y-44652333D01*
X139000589Y-44680066D01*
X138996905Y-44694183D01*
X138986325Y-44726747D01*
X138981340Y-44774171D01*
X138979638Y-44785396D01*
X138971500Y-44826310D01*
X138971500Y-44861306D01*
X138970821Y-44874266D01*
X138966540Y-44914999D01*
X121700500Y-44914999D01*
X121700500Y-34278711D01*
X124349500Y-34278711D01*
X124349500Y-34521288D01*
X124381161Y-34761785D01*
X124443947Y-34996104D01*
X124536773Y-35220205D01*
X124536777Y-35220214D01*
X124554668Y-35251202D01*
X124658064Y-35430289D01*
X124658066Y-35430292D01*
X124658067Y-35430293D01*
X124805733Y-35622736D01*
X124805739Y-35622743D01*
X124977256Y-35794260D01*
X124977263Y-35794266D01*
X125055396Y-35854219D01*
X125169711Y-35941936D01*
X125379788Y-36063224D01*
X125603900Y-36156054D01*
X125838211Y-36218838D01*
X126008898Y-36241309D01*
X126078711Y-36250500D01*
X126078712Y-36250500D01*
X126321289Y-36250500D01*
X126391094Y-36241310D01*
X126561789Y-36218838D01*
X126796100Y-36156054D01*
X127020212Y-36063224D01*
X127230289Y-35941936D01*
X127422738Y-35794265D01*
X127594265Y-35622738D01*
X127741936Y-35430289D01*
X127863224Y-35220212D01*
X127956054Y-34996100D01*
X128018838Y-34761789D01*
X128050500Y-34521288D01*
X128050500Y-34278712D01*
X128018838Y-34038211D01*
X127956054Y-33803900D01*
X127863224Y-33579788D01*
X127741936Y-33369711D01*
X127594265Y-33177262D01*
X127594260Y-33177256D01*
X127422743Y-33005739D01*
X127422736Y-33005733D01*
X127230293Y-32858067D01*
X127230292Y-32858066D01*
X127230289Y-32858064D01*
X127020212Y-32736776D01*
X127020205Y-32736773D01*
X126796104Y-32643947D01*
X126561785Y-32581161D01*
X126321289Y-32549500D01*
X126321288Y-32549500D01*
X126078712Y-32549500D01*
X126078711Y-32549500D01*
X125838214Y-32581161D01*
X125603895Y-32643947D01*
X125379794Y-32736773D01*
X125379785Y-32736777D01*
X125169706Y-32858067D01*
X124977263Y-33005733D01*
X124977256Y-33005739D01*
X124805739Y-33177256D01*
X124805733Y-33177263D01*
X124658067Y-33369706D01*
X124536777Y-33579785D01*
X124536773Y-33579794D01*
X124443947Y-33803895D01*
X124381161Y-34038214D01*
X124349500Y-34278711D01*
X121700500Y-34278711D01*
X121700500Y-32243543D01*
X148259499Y-32243543D01*
X148297947Y-32436829D01*
X148297950Y-32436839D01*
X148373364Y-32618907D01*
X148373371Y-32618920D01*
X148482860Y-32782781D01*
X148482863Y-32782785D01*
X148622214Y-32922136D01*
X148622218Y-32922139D01*
X148786079Y-33031628D01*
X148786092Y-33031635D01*
X148968160Y-33107049D01*
X148968165Y-33107051D01*
X148968169Y-33107051D01*
X148968170Y-33107052D01*
X149161456Y-33145500D01*
X149161459Y-33145500D01*
X149358543Y-33145500D01*
X149488582Y-33119632D01*
X149551835Y-33107051D01*
X149733914Y-33031632D01*
X149897782Y-32922139D01*
X150037139Y-32782782D01*
X150146632Y-32618914D01*
X150222051Y-32436835D01*
X150260500Y-32243541D01*
X150260500Y-31773446D01*
X150280185Y-31706407D01*
X150332989Y-31660652D01*
X150402147Y-31650708D01*
X150446502Y-31666060D01*
X150472862Y-31681280D01*
X150472864Y-31681280D01*
X150472865Y-31681281D01*
X150619234Y-31720500D01*
X150619236Y-31720500D01*
X150770764Y-31720500D01*
X150770766Y-31720500D01*
X150917135Y-31681281D01*
X151048365Y-31605515D01*
X151155515Y-31498365D01*
X151231281Y-31367135D01*
X151270500Y-31220766D01*
X151270500Y-31069234D01*
X155889500Y-31069234D01*
X155889500Y-31220765D01*
X155928719Y-31367136D01*
X155966602Y-31432750D01*
X156004485Y-31498365D01*
X156111635Y-31605515D01*
X156242865Y-31681281D01*
X156389234Y-31720500D01*
X156389236Y-31720500D01*
X156540764Y-31720500D01*
X156540766Y-31720500D01*
X156687135Y-31681281D01*
X156713498Y-31666059D01*
X156781398Y-31649586D01*
X156847425Y-31672437D01*
X156890617Y-31727358D01*
X156899500Y-31773446D01*
X156899500Y-32243541D01*
X156899500Y-32243543D01*
X156899499Y-32243543D01*
X156937947Y-32436829D01*
X156937950Y-32436839D01*
X157013364Y-32618907D01*
X157013371Y-32618920D01*
X157122860Y-32782781D01*
X157122863Y-32782785D01*
X157262214Y-32922136D01*
X157262218Y-32922139D01*
X157426079Y-33031628D01*
X157426092Y-33031635D01*
X157608160Y-33107049D01*
X157608165Y-33107051D01*
X157608169Y-33107051D01*
X157608170Y-33107052D01*
X157801456Y-33145500D01*
X157801459Y-33145500D01*
X157998543Y-33145500D01*
X158128582Y-33119632D01*
X158191835Y-33107051D01*
X158373914Y-33031632D01*
X158537782Y-32922139D01*
X158677139Y-32782782D01*
X158786632Y-32618914D01*
X158862051Y-32436835D01*
X158900500Y-32243541D01*
X158900500Y-31046459D01*
X158900500Y-31046456D01*
X158862052Y-30853170D01*
X158862051Y-30853169D01*
X158862051Y-30853165D01*
X158836565Y-30791635D01*
X158786635Y-30671092D01*
X158786628Y-30671079D01*
X158677139Y-30507218D01*
X158677136Y-30507214D01*
X158537785Y-30367863D01*
X158537781Y-30367860D01*
X158373920Y-30258371D01*
X158373907Y-30258364D01*
X158191839Y-30182950D01*
X158191829Y-30182947D01*
X157998543Y-30144500D01*
X157998541Y-30144500D01*
X157801459Y-30144500D01*
X157801457Y-30144500D01*
X157608170Y-30182947D01*
X157608160Y-30182950D01*
X157426092Y-30258364D01*
X157426079Y-30258371D01*
X157262218Y-30367860D01*
X157262214Y-30367863D01*
X157122863Y-30507214D01*
X157122860Y-30507218D01*
X157013836Y-30670383D01*
X156960223Y-30715188D01*
X156890898Y-30723895D01*
X156827871Y-30693740D01*
X156823053Y-30689173D01*
X156818367Y-30684487D01*
X156818365Y-30684485D01*
X156752750Y-30646602D01*
X156687136Y-30608719D01*
X156613950Y-30589109D01*
X156540766Y-30569500D01*
X156389234Y-30569500D01*
X156242863Y-30608719D01*
X156111635Y-30684485D01*
X156111632Y-30684487D01*
X156004487Y-30791632D01*
X156004485Y-30791635D01*
X155928719Y-30922863D01*
X155889500Y-31069234D01*
X151270500Y-31069234D01*
X151231281Y-30922865D01*
X151155515Y-30791635D01*
X151048365Y-30684485D01*
X150982750Y-30646602D01*
X150917136Y-30608719D01*
X150843950Y-30589109D01*
X150770766Y-30569500D01*
X150619234Y-30569500D01*
X150472863Y-30608719D01*
X150341635Y-30684485D01*
X150341629Y-30684489D01*
X150336941Y-30689178D01*
X150275616Y-30722660D01*
X150205925Y-30717673D01*
X150149993Y-30675799D01*
X150146183Y-30670415D01*
X150037139Y-30507218D01*
X150037137Y-30507215D01*
X149897785Y-30367863D01*
X149897781Y-30367860D01*
X149733920Y-30258371D01*
X149733907Y-30258364D01*
X149551839Y-30182950D01*
X149551829Y-30182947D01*
X149358543Y-30144500D01*
X149358541Y-30144500D01*
X149161459Y-30144500D01*
X149161457Y-30144500D01*
X148968170Y-30182947D01*
X148968160Y-30182950D01*
X148786092Y-30258364D01*
X148786079Y-30258371D01*
X148622218Y-30367860D01*
X148622214Y-30367863D01*
X148482863Y-30507214D01*
X148482860Y-30507218D01*
X148373371Y-30671079D01*
X148373364Y-30671092D01*
X148297950Y-30853160D01*
X148297947Y-30853170D01*
X148259500Y-31046456D01*
X148259500Y-31046459D01*
X148259500Y-32243541D01*
X148259500Y-32243543D01*
X148259499Y-32243543D01*
X121700500Y-32243543D01*
X121700500Y-30524500D01*
X121720185Y-30457461D01*
X121772989Y-30411706D01*
X121824500Y-30400500D01*
X147765890Y-30400500D01*
X147765892Y-30400500D01*
X147893186Y-30366392D01*
X148007314Y-30300500D01*
X148100500Y-30207314D01*
X148166392Y-30093186D01*
X148200500Y-29965892D01*
X148200500Y-28478972D01*
X148220185Y-28411933D01*
X148272989Y-28366178D01*
X148342147Y-28356234D01*
X148405703Y-28385259D01*
X148427602Y-28410082D01*
X148482857Y-28492777D01*
X148482863Y-28492785D01*
X148622214Y-28632136D01*
X148622218Y-28632139D01*
X148786079Y-28741628D01*
X148786092Y-28741635D01*
X148941654Y-28806070D01*
X148968165Y-28817051D01*
X148968169Y-28817051D01*
X148968170Y-28817052D01*
X149161456Y-28855500D01*
X149161459Y-28855500D01*
X149358543Y-28855500D01*
X149488582Y-28829632D01*
X149551835Y-28817051D01*
X149733914Y-28741632D01*
X149897782Y-28632139D01*
X150037139Y-28492782D01*
X150146632Y-28328914D01*
X150222051Y-28146835D01*
X150250554Y-28003543D01*
X150260500Y-27953543D01*
X150260500Y-27056456D01*
X150222052Y-26863170D01*
X150222051Y-26863169D01*
X150222051Y-26863165D01*
X150201343Y-26813170D01*
X150146635Y-26681092D01*
X150146628Y-26681079D01*
X150037139Y-26517218D01*
X150037136Y-26517214D01*
X149897785Y-26377863D01*
X149897781Y-26377860D01*
X149733920Y-26268371D01*
X149733907Y-26268364D01*
X149551839Y-26192950D01*
X149551829Y-26192947D01*
X149358543Y-26154500D01*
X149358541Y-26154500D01*
X149161459Y-26154500D01*
X149161457Y-26154500D01*
X148968170Y-26192947D01*
X148968160Y-26192950D01*
X148786092Y-26268364D01*
X148786079Y-26268371D01*
X148622218Y-26377860D01*
X148622214Y-26377863D01*
X148482863Y-26517214D01*
X148482860Y-26517218D01*
X148427602Y-26599918D01*
X148373990Y-26644723D01*
X148304665Y-26653430D01*
X148241637Y-26623275D01*
X148204918Y-26563832D01*
X148200500Y-26531027D01*
X148200500Y-25524500D01*
X148220185Y-25457461D01*
X148272989Y-25411706D01*
X148324500Y-25400500D01*
X158575500Y-25400500D01*
X158642539Y-25420185D01*
G37*
%TD.AperFunction*%
%TD*%
M02*
