%TF.GenerationSoftware,KiCad,Pcbnew,8.0.4*%
%TF.CreationDate,2024-07-24T01:11:58-07:00*%
%TF.ProjectId,panel_1,70616e65-6c5f-4312-9e6b-696361645f70,rev?*%
%TF.SameCoordinates,Original*%
%TF.FileFunction,Soldermask,Bot*%
%TF.FilePolarity,Negative*%
%FSLAX46Y46*%
G04 Gerber Fmt 4.6, Leading zero omitted, Abs format (unit mm)*
G04 Created by KiCad (PCBNEW 8.0.4) date 2024-07-24 01:11:58*
%MOMM*%
%LPD*%
G01*
G04 APERTURE LIST*
%ADD10C,3.200000*%
%ADD11C,1.400000*%
%ADD12C,0.500000*%
%ADD13C,3.048000*%
%ADD14C,3.987800*%
%ADD15C,0.650000*%
%ADD16O,1.000000X2.000000*%
%ADD17O,1.000000X1.800000*%
%ADD18O,1.000000X1.700000*%
%ADD19C,1.750000*%
%ADD20C,4.000000*%
%ADD21C,2.500000*%
G04 APERTURE END LIST*
D10*
%TO.C,H2*%
X126200000Y-88400000D03*
%TD*%
D11*
%TO.C,J2*%
X175580000Y-36330000D03*
X173580000Y-36330000D03*
X171580000Y-36330000D03*
%TD*%
D12*
%TO.C,mouse-bite-2mm-slot*%
X151400000Y-89100000D03*
X152900000Y-89100000D03*
X151400000Y-88350000D03*
X152900000Y-88350000D03*
X151400000Y-87600000D03*
X152900000Y-87600000D03*
%TD*%
%TO.C,mouse-bite-2mm-slot*%
X171150000Y-83250000D03*
X171150000Y-81750000D03*
X170400000Y-83250000D03*
X170400000Y-81750000D03*
X169650000Y-83250000D03*
X169650000Y-81750000D03*
%TD*%
D13*
%TO.C,S1*%
X155525000Y-115898000D03*
D14*
X170735000Y-115898000D03*
D13*
X155525000Y-92022000D03*
D14*
X170735000Y-92022000D03*
%TD*%
D12*
%TO.C,mouse-bite-2mm-slot*%
X126250000Y-98250000D03*
X127750000Y-98250000D03*
X126250000Y-97500000D03*
X127750000Y-97500000D03*
X126250000Y-96750000D03*
X127750000Y-96750000D03*
%TD*%
D10*
%TO.C,H13*%
X144000000Y-104400000D03*
%TD*%
D15*
%TO.C,J1*%
X156465000Y-31145000D03*
X150695000Y-31145000D03*
D16*
X157900000Y-31645000D03*
D17*
X157900000Y-27505000D03*
D16*
X149260000Y-31645000D03*
D18*
X149260000Y-27505000D03*
%TD*%
D19*
%TO.C,SW18_DOWN1*%
X182341464Y-74970330D03*
D20*
X187034772Y-76914362D03*
D19*
X191728080Y-78858394D03*
D21*
X184486807Y-73109684D03*
X191325458Y-73193070D03*
%TD*%
D12*
%TO.C,mouse-bite-2mm-slot*%
X143200000Y-94500000D03*
X143200000Y-93000000D03*
X142450000Y-94500000D03*
X142450000Y-93000000D03*
X141700000Y-94500000D03*
X141700000Y-93000000D03*
%TD*%
%TO.C,mouse-bite-2mm-slot*%
X173850000Y-121600000D03*
X175350000Y-121600000D03*
X173850000Y-120850000D03*
X175350000Y-120850000D03*
X173850000Y-120100000D03*
X175350000Y-120100000D03*
%TD*%
D10*
%TO.C,H5*%
X155200000Y-68900000D03*
%TD*%
D12*
%TO.C,mouse-bite-2mm-slot*%
X126250000Y-104750000D03*
X127750000Y-104750000D03*
X126250000Y-104000000D03*
X127750000Y-104000000D03*
X126250000Y-103250000D03*
X127750000Y-103250000D03*
%TD*%
D19*
%TO.C,SW20_RIGHT1*%
X198410635Y-85955968D03*
D20*
X203103943Y-87900000D03*
D19*
X207797251Y-89844032D03*
D21*
X200555978Y-84095322D03*
X207394629Y-84178708D03*
%TD*%
D12*
%TO.C,mouse-bite-2mm-slot*%
X173850000Y-106600000D03*
X175350000Y-106600000D03*
X173850000Y-105850000D03*
X175350000Y-105850000D03*
X173850000Y-105100000D03*
X175350000Y-105100000D03*
%TD*%
D19*
%TO.C,SW8_DP1*%
X132120000Y-76891696D03*
D20*
X137200000Y-76891696D03*
D19*
X142280000Y-76891696D03*
D21*
X133390000Y-74351696D03*
X139740000Y-71811696D03*
%TD*%
D19*
%TO.C,SW19_LEFT1*%
X164741559Y-67680211D03*
D20*
X169434867Y-69624243D03*
D19*
X174128175Y-71568275D03*
D21*
X166886902Y-65819565D03*
X173725553Y-65902951D03*
%TD*%
D12*
%TO.C,mouse-bite-2mm-slot*%
X150050000Y-94500000D03*
X150050000Y-93000000D03*
X149300000Y-94500000D03*
X149300000Y-93000000D03*
X148550000Y-94500000D03*
X148550000Y-93000000D03*
%TD*%
%TO.C,mouse-bite-2mm-slot*%
X149950000Y-116750000D03*
X149950000Y-115250000D03*
X149200000Y-116750000D03*
X149200000Y-115250000D03*
X148450000Y-116750000D03*
X148450000Y-115250000D03*
%TD*%
D19*
%TO.C,SW16_SPACE1*%
X162510000Y-109040000D03*
D20*
X162510000Y-103960000D03*
D19*
X162510000Y-98880000D03*
D21*
X159970000Y-107770000D03*
X157430000Y-101420000D03*
%TD*%
D12*
%TO.C,mouse-bite-2mm-slot*%
X173850000Y-92500000D03*
X175350000Y-92500000D03*
X173850000Y-91750000D03*
X175350000Y-91750000D03*
X173850000Y-91000000D03*
X175350000Y-91000000D03*
%TD*%
D10*
%TO.C,H3*%
X197700000Y-39900000D03*
%TD*%
D12*
%TO.C,mouse-bite-2mm-slot*%
X157350000Y-83250000D03*
X157350000Y-81750000D03*
X156600000Y-83250000D03*
X156600000Y-81750000D03*
X155850000Y-83250000D03*
X155850000Y-81750000D03*
%TD*%
D10*
%TO.C,H1*%
X126200000Y-34400000D03*
%TD*%
D12*
%TO.C,mouse-bite-2mm-slot*%
X151450000Y-121350000D03*
X152950000Y-121350000D03*
X151450000Y-120600000D03*
X152950000Y-120600000D03*
X151450000Y-119850000D03*
X152950000Y-119850000D03*
%TD*%
D19*
%TO.C,SW17_W1*%
X189631583Y-57370425D03*
D20*
X194324891Y-59314457D03*
D19*
X199018199Y-61258489D03*
D21*
X191776926Y-55509779D03*
X198615577Y-55593165D03*
%TD*%
D12*
%TO.C,mouse-bite-2mm-slot*%
X126250000Y-111750000D03*
X127750000Y-111750000D03*
X126250000Y-111000000D03*
X127750000Y-111000000D03*
X126250000Y-110250000D03*
X127750000Y-110250000D03*
%TD*%
D10*
%TO.C,H4*%
X204700000Y-114400000D03*
%TD*%
M02*
