%TF.GenerationSoftware,KiCad,Pcbnew,8.0.4*%
%TF.CreationDate,2024-07-24T01:11:58-07:00*%
%TF.ProjectId,panel_1,70616e65-6c5f-4312-9e6b-696361645f70,rev?*%
%TF.SameCoordinates,Original*%
%TF.FileFunction,Profile,NP*%
%FSLAX46Y46*%
G04 Gerber Fmt 4.6, Leading zero omitted, Abs format (unit mm)*
G04 Created by KiCad (PCBNEW 8.0.4) date 2024-07-24 01:11:58*
%MOMM*%
%LPD*%
G01*
G04 APERTURE LIST*
%TA.AperFunction,Profile*%
%ADD10C,0.050000*%
%TD*%
G04 APERTURE END LIST*
D10*
X126250000Y-106000000D02*
G75*
G02*
X127750000Y-106000000I750000J0D01*
G01*
X172400000Y-83400000D02*
G75*
G02*
X172400000Y-81600000I0J900000D01*
G01*
X151300000Y-90350000D02*
X151300000Y-92950000D01*
X153000000Y-124400000D02*
X173750000Y-124400000D01*
X175450000Y-124400000D02*
X216200000Y-124400000D01*
X126250000Y-109000000D02*
X126250000Y-106000000D01*
X147700000Y-29900000D02*
X121200000Y-29900000D01*
X153000000Y-122600000D02*
X153000000Y-124400000D01*
X151400000Y-122600000D02*
X151400000Y-124400000D01*
X127750000Y-106000000D02*
X127750000Y-109000000D01*
X175450000Y-103850000D02*
G75*
G02*
X173750000Y-103850000I-850000J0D01*
G01*
X151400000Y-124400000D02*
X121200000Y-124400000D01*
X127750000Y-95500000D02*
X127750000Y-94550000D01*
X175450000Y-118850000D02*
X175450000Y-107850000D01*
X168400000Y-81600000D02*
G75*
G02*
X168400000Y-83400000I0J-900000D01*
G01*
X216200000Y-29900000D02*
X159200000Y-29900000D01*
X144450000Y-94550000D02*
G75*
G02*
X144450000Y-92950000I0J800000D01*
G01*
X127750000Y-115250000D02*
X147200000Y-115250000D01*
X152800000Y-81600000D02*
X151300000Y-83100000D01*
X126250000Y-95500000D02*
X126250000Y-93800000D01*
X175450000Y-83600000D02*
X173450000Y-81600000D01*
X175450000Y-122850000D02*
X175450000Y-124400000D01*
X153000000Y-118600000D02*
G75*
G02*
X151400000Y-118600000I-800000J0D01*
G01*
X158600000Y-83400000D02*
G75*
G02*
X158600000Y-81600000I0J900000D01*
G01*
X153000000Y-115250000D02*
X153000000Y-118600000D01*
X175450000Y-103850000D02*
X175450000Y-93750000D01*
X154600000Y-81600000D02*
G75*
G02*
X154600000Y-83400000I0J-900000D01*
G01*
X173750000Y-83400000D02*
X173750000Y-89750000D01*
X168400000Y-81600000D02*
X158600000Y-81600000D01*
X147200000Y-116750000D02*
X126250000Y-116750000D01*
X173750000Y-124400000D02*
X173750000Y-122850000D01*
X127750000Y-95500000D02*
G75*
G02*
X126250000Y-95500000I-750000J0D01*
G01*
X147200000Y-115250000D02*
G75*
G02*
X147200000Y-116750000I0J-750000D01*
G01*
X173750000Y-83400000D02*
X172400000Y-83400000D01*
X153000000Y-94550000D02*
X151300000Y-94550000D01*
X126250000Y-99500000D02*
G75*
G02*
X127750000Y-99500000I750000J0D01*
G01*
X173750000Y-103850000D02*
X173750000Y-93750000D01*
X121200000Y-29900000D02*
X121200000Y-124400000D01*
X147300000Y-92950000D02*
G75*
G02*
X147300000Y-94550000I0J-800000D01*
G01*
X154600000Y-81600000D02*
X152800000Y-81600000D01*
X216200000Y-124400000D02*
X216200000Y-29900000D01*
X127750000Y-113000000D02*
X127750000Y-115250000D01*
X151400000Y-116750000D02*
X151200000Y-116750000D01*
X153000000Y-86350000D02*
X153000000Y-83400000D01*
X127750000Y-99500000D02*
X127750000Y-102000000D01*
X151300000Y-86350000D02*
X151300000Y-83100000D01*
X126250000Y-113000000D02*
G75*
G02*
X127750000Y-113000000I750000J0D01*
G01*
X153000000Y-83400000D02*
X154600000Y-83400000D01*
X151400000Y-122600000D02*
G75*
G02*
X153000000Y-122600000I800000J0D01*
G01*
X127750000Y-102000000D02*
G75*
G02*
X126250000Y-102000000I-750000J0D01*
G01*
X159200000Y-29900000D02*
X159200000Y-24900000D01*
X173450000Y-81600000D02*
X172400000Y-81600000D01*
X168400000Y-83400000D02*
X158600000Y-83400000D01*
X151200000Y-115250000D02*
X153000000Y-115250000D01*
X175450000Y-89750000D02*
G75*
G02*
X173750000Y-89750000I-850000J0D01*
G01*
X126250000Y-93800000D02*
X127100000Y-92950000D01*
X173750000Y-107850000D02*
G75*
G02*
X175450000Y-107850000I850000J0D01*
G01*
X175450000Y-89750000D02*
X175450000Y-83600000D01*
X147700000Y-24900000D02*
X147700000Y-29900000D01*
X126250000Y-113000000D02*
X126250000Y-116750000D01*
X151300000Y-90350000D02*
G75*
G02*
X153000000Y-90350000I850000J0D01*
G01*
X127750000Y-109000000D02*
G75*
G02*
X126250000Y-109000000I-750000J0D01*
G01*
X175450000Y-118850000D02*
G75*
G02*
X173750000Y-118850000I-850000J0D01*
G01*
X147300000Y-94550000D02*
X144450000Y-94550000D01*
X126250000Y-102000000D02*
X126250000Y-99500000D01*
X151300000Y-94550000D02*
G75*
G02*
X151300000Y-92950000I0J800000D01*
G01*
X140450000Y-92950000D02*
G75*
G02*
X140450000Y-94550000I0J-800000D01*
G01*
X153000000Y-86350000D02*
G75*
G02*
X151300000Y-86350000I-850000J0D01*
G01*
X173750000Y-118850000D02*
X173750000Y-107850000D01*
X173750000Y-93750000D02*
G75*
G02*
X175450000Y-93750000I850000J0D01*
G01*
X144450000Y-92950000D02*
X147300000Y-92950000D01*
X140450000Y-92950000D02*
X127100000Y-92950000D01*
X159200000Y-24900000D02*
X147700000Y-24900000D01*
X151200000Y-116750000D02*
G75*
G02*
X151200000Y-115250000I0J750000D01*
G01*
X173750000Y-122850000D02*
G75*
G02*
X175450000Y-122850000I850000J0D01*
G01*
X140450000Y-94550000D02*
X127750000Y-94550000D01*
X151400000Y-118600000D02*
X151400000Y-116750000D01*
X153000000Y-90350000D02*
X153000000Y-94550000D01*
M02*
