M48
; DRILL file {KiCad 8.0.4} date 2024-07-24T01:12:07-0700
; FORMAT={-:-/ absolute / inch / decimal}
; #@! TF.CreationDate,2024-07-24T01:12:07-07:00
; #@! TF.GenerationSoftware,Kicad,Pcbnew,8.0.4
; #@! TF.FileFunction,NonPlated,1,2,NPTH
FMAT,2
INCH
; #@! TA.AperFunction,NonPlated,NPTH,ComponentDrill
T1C0.0197
; #@! TA.AperFunction,NonPlated,NPTH,ComponentDrill
T2C0.0256
; #@! TA.AperFunction,NonPlated,NPTH,ComponentDrill
T3C0.0689
; #@! TA.AperFunction,NonPlated,NPTH,ComponentDrill
T4C0.1200
; #@! TA.AperFunction,NonPlated,NPTH,ComponentDrill
T5C0.1260
; #@! TA.AperFunction,NonPlated,NPTH,ComponentDrill
T6C0.1570
; #@! TA.AperFunction,NonPlated,NPTH,ComponentDrill
T7C0.1575
%
G90
G05
T1
X4.9705Y-3.8091
X4.9705Y-3.8386
X4.9705Y-3.8681
X4.9705Y-4.065
X4.9705Y-4.0945
X4.9705Y-4.124
X4.9705Y-4.3406
X4.9705Y-4.3701
X4.9705Y-4.3996
X5.0295Y-3.8091
X5.0295Y-3.8386
X5.0295Y-3.8681
X5.0295Y-4.065
X5.0295Y-4.0945
X5.0295Y-4.124
X5.0295Y-4.3406
X5.0295Y-4.3701
X5.0295Y-4.3996
X5.5787Y-3.6614
X5.5787Y-3.7205
X5.6083Y-3.6614
X5.6083Y-3.7205
X5.6378Y-3.6614
X5.6378Y-3.7205
X5.8445Y-4.5374
X5.8445Y-4.5965
X5.8484Y-3.6614
X5.8484Y-3.7205
X5.874Y-4.5374
X5.874Y-4.5965
X5.878Y-3.6614
X5.878Y-3.7205
X5.9035Y-4.5374
X5.9035Y-4.5965
X5.9075Y-3.6614
X5.9075Y-3.7205
X5.9606Y-3.4488
X5.9606Y-3.4783
X5.9606Y-3.5079
X5.9626Y-4.7185
X5.9626Y-4.748
X5.9626Y-4.7776
X6.0197Y-3.4488
X6.0197Y-3.4783
X6.0197Y-3.5079
X6.0217Y-4.7185
X6.0217Y-4.748
X6.0217Y-4.7776
X6.1358Y-3.2185
X6.1358Y-3.2776
X6.1654Y-3.2185
X6.1654Y-3.2776
X6.1949Y-3.2185
X6.1949Y-3.2776
X6.6791Y-3.2185
X6.6791Y-3.2776
X6.7087Y-3.2185
X6.7087Y-3.2776
X6.7382Y-3.2185
X6.7382Y-3.2776
X6.8445Y-3.5827
X6.8445Y-3.6122
X6.8445Y-3.6417
X6.8445Y-4.1378
X6.8445Y-4.1673
X6.8445Y-4.1969
X6.8445Y-4.7283
X6.8445Y-4.7579
X6.8445Y-4.7874
X6.9035Y-3.5827
X6.9035Y-3.6122
X6.9035Y-3.6417
X6.9035Y-4.1378
X6.9035Y-4.1673
X6.9035Y-4.1969
X6.9035Y-4.7283
X6.9035Y-4.7579
X6.9035Y-4.7874
T2
X5.9329Y-1.2262
X6.16Y-1.2262
T3
X5.2016Y-3.0272
X5.6016Y-3.0272
X6.398Y-3.8929
X6.398Y-4.2929
X6.4859Y-2.6646
X6.8554Y-2.8176
X7.1788Y-2.9516
X7.4658Y-2.2587
X7.5483Y-3.1047
X7.8114Y-3.3841
X7.8354Y-2.4118
X8.181Y-3.5372
T4
X6.123Y-3.6229
X6.123Y-4.5629
T5
X4.9685Y-1.3543
X4.9685Y-3.4803
X5.6693Y-4.1102
X6.1102Y-2.7126
X7.7835Y-1.5709
X8.0591Y-4.5039
T6
X6.7219Y-3.6229
X6.7219Y-4.5629
T7
X5.4016Y-3.0272
X6.398Y-4.0929
X6.6707Y-2.7411
X7.3636Y-3.0281
X7.6506Y-2.3352
X7.9962Y-3.4606
M30
