%TF.GenerationSoftware,KiCad,Pcbnew,8.0.4*%
%TF.CreationDate,2024-07-22T23:57:25-07:00*%
%TF.ProjectId,leverless_controlller,6c657665-726c-4657-9373-5f636f6e7472,rev?*%
%TF.SameCoordinates,Original*%
%TF.FileFunction,Legend,Top*%
%TF.FilePolarity,Positive*%
%FSLAX46Y46*%
G04 Gerber Fmt 4.6, Leading zero omitted, Abs format (unit mm)*
G04 Created by KiCad (PCBNEW 8.0.4) date 2024-07-22 23:57:25*
%MOMM*%
%LPD*%
G01*
G04 APERTURE LIST*
%ADD10C,0.150000*%
%ADD11C,0.120000*%
G04 APERTURE END LIST*
D10*
X66769333Y-31611580D02*
X66721714Y-31659200D01*
X66721714Y-31659200D02*
X66578857Y-31706819D01*
X66578857Y-31706819D02*
X66483619Y-31706819D01*
X66483619Y-31706819D02*
X66340762Y-31659200D01*
X66340762Y-31659200D02*
X66245524Y-31563961D01*
X66245524Y-31563961D02*
X66197905Y-31468723D01*
X66197905Y-31468723D02*
X66150286Y-31278247D01*
X66150286Y-31278247D02*
X66150286Y-31135390D01*
X66150286Y-31135390D02*
X66197905Y-30944914D01*
X66197905Y-30944914D02*
X66245524Y-30849676D01*
X66245524Y-30849676D02*
X66340762Y-30754438D01*
X66340762Y-30754438D02*
X66483619Y-30706819D01*
X66483619Y-30706819D02*
X66578857Y-30706819D01*
X66578857Y-30706819D02*
X66721714Y-30754438D01*
X66721714Y-30754438D02*
X66769333Y-30802057D01*
X67721714Y-31706819D02*
X67150286Y-31706819D01*
X67436000Y-31706819D02*
X67436000Y-30706819D01*
X67436000Y-30706819D02*
X67340762Y-30849676D01*
X67340762Y-30849676D02*
X67245524Y-30944914D01*
X67245524Y-30944914D02*
X67150286Y-30992533D01*
X225689657Y-82407200D02*
X225832514Y-82454819D01*
X225832514Y-82454819D02*
X226070609Y-82454819D01*
X226070609Y-82454819D02*
X226165847Y-82407200D01*
X226165847Y-82407200D02*
X226213466Y-82359580D01*
X226213466Y-82359580D02*
X226261085Y-82264342D01*
X226261085Y-82264342D02*
X226261085Y-82169104D01*
X226261085Y-82169104D02*
X226213466Y-82073866D01*
X226213466Y-82073866D02*
X226165847Y-82026247D01*
X226165847Y-82026247D02*
X226070609Y-81978628D01*
X226070609Y-81978628D02*
X225880133Y-81931009D01*
X225880133Y-81931009D02*
X225784895Y-81883390D01*
X225784895Y-81883390D02*
X225737276Y-81835771D01*
X225737276Y-81835771D02*
X225689657Y-81740533D01*
X225689657Y-81740533D02*
X225689657Y-81645295D01*
X225689657Y-81645295D02*
X225737276Y-81550057D01*
X225737276Y-81550057D02*
X225784895Y-81502438D01*
X225784895Y-81502438D02*
X225880133Y-81454819D01*
X225880133Y-81454819D02*
X226118228Y-81454819D01*
X226118228Y-81454819D02*
X226261085Y-81502438D01*
X226594419Y-81454819D02*
X226832514Y-82454819D01*
X226832514Y-82454819D02*
X227022990Y-81740533D01*
X227022990Y-81740533D02*
X227213466Y-82454819D01*
X227213466Y-82454819D02*
X227451562Y-81454819D01*
X227880133Y-82454819D02*
X228070609Y-82454819D01*
X228070609Y-82454819D02*
X228165847Y-82407200D01*
X228165847Y-82407200D02*
X228213466Y-82359580D01*
X228213466Y-82359580D02*
X228308704Y-82216723D01*
X228308704Y-82216723D02*
X228356323Y-82026247D01*
X228356323Y-82026247D02*
X228356323Y-81645295D01*
X228356323Y-81645295D02*
X228308704Y-81550057D01*
X228308704Y-81550057D02*
X228261085Y-81502438D01*
X228261085Y-81502438D02*
X228165847Y-81454819D01*
X228165847Y-81454819D02*
X227975371Y-81454819D01*
X227975371Y-81454819D02*
X227880133Y-81502438D01*
X227880133Y-81502438D02*
X227832514Y-81550057D01*
X227832514Y-81550057D02*
X227784895Y-81645295D01*
X227784895Y-81645295D02*
X227784895Y-81883390D01*
X227784895Y-81883390D02*
X227832514Y-81978628D01*
X227832514Y-81978628D02*
X227880133Y-82026247D01*
X227880133Y-82026247D02*
X227975371Y-82073866D01*
X227975371Y-82073866D02*
X228165847Y-82073866D01*
X228165847Y-82073866D02*
X228261085Y-82026247D01*
X228261085Y-82026247D02*
X228308704Y-81978628D01*
X228308704Y-81978628D02*
X228356323Y-81883390D01*
X228546800Y-82550057D02*
X229308704Y-82550057D01*
X229546800Y-82454819D02*
X229546800Y-81454819D01*
X229546800Y-81931009D02*
X230118228Y-81931009D01*
X230118228Y-82454819D02*
X230118228Y-81454819D01*
X230594419Y-82454819D02*
X230594419Y-81454819D01*
X231165847Y-82454819D02*
X230737276Y-81883390D01*
X231165847Y-81454819D02*
X230594419Y-82026247D01*
X232118228Y-82454819D02*
X231546800Y-82454819D01*
X231832514Y-82454819D02*
X231832514Y-81454819D01*
X231832514Y-81454819D02*
X231737276Y-81597676D01*
X231737276Y-81597676D02*
X231642038Y-81692914D01*
X231642038Y-81692914D02*
X231546800Y-81740533D01*
X95835809Y-39472628D02*
X95835809Y-39948819D01*
X95502476Y-38948819D02*
X95835809Y-39472628D01*
X95835809Y-39472628D02*
X96169142Y-38948819D01*
X97026285Y-39948819D02*
X96454857Y-39948819D01*
X96740571Y-39948819D02*
X96740571Y-38948819D01*
X96740571Y-38948819D02*
X96645333Y-39091676D01*
X96645333Y-39091676D02*
X96550095Y-39186914D01*
X96550095Y-39186914D02*
X96454857Y-39234533D01*
X75332083Y-38782104D02*
X75284464Y-38820200D01*
X75284464Y-38820200D02*
X75141607Y-38858295D01*
X75141607Y-38858295D02*
X75046369Y-38858295D01*
X75046369Y-38858295D02*
X74903512Y-38820200D01*
X74903512Y-38820200D02*
X74808274Y-38744009D01*
X74808274Y-38744009D02*
X74760655Y-38667819D01*
X74760655Y-38667819D02*
X74713036Y-38515438D01*
X74713036Y-38515438D02*
X74713036Y-38401152D01*
X74713036Y-38401152D02*
X74760655Y-38248771D01*
X74760655Y-38248771D02*
X74808274Y-38172580D01*
X74808274Y-38172580D02*
X74903512Y-38096390D01*
X74903512Y-38096390D02*
X75046369Y-38058295D01*
X75046369Y-38058295D02*
X75141607Y-38058295D01*
X75141607Y-38058295D02*
X75284464Y-38096390D01*
X75284464Y-38096390D02*
X75332083Y-38134485D01*
X75808274Y-38858295D02*
X75998750Y-38858295D01*
X75998750Y-38858295D02*
X76093988Y-38820200D01*
X76093988Y-38820200D02*
X76141607Y-38782104D01*
X76141607Y-38782104D02*
X76236845Y-38667819D01*
X76236845Y-38667819D02*
X76284464Y-38515438D01*
X76284464Y-38515438D02*
X76284464Y-38210676D01*
X76284464Y-38210676D02*
X76236845Y-38134485D01*
X76236845Y-38134485D02*
X76189226Y-38096390D01*
X76189226Y-38096390D02*
X76093988Y-38058295D01*
X76093988Y-38058295D02*
X75903512Y-38058295D01*
X75903512Y-38058295D02*
X75808274Y-38096390D01*
X75808274Y-38096390D02*
X75760655Y-38134485D01*
X75760655Y-38134485D02*
X75713036Y-38210676D01*
X75713036Y-38210676D02*
X75713036Y-38401152D01*
X75713036Y-38401152D02*
X75760655Y-38477342D01*
X75760655Y-38477342D02*
X75808274Y-38515438D01*
X75808274Y-38515438D02*
X75903512Y-38553533D01*
X75903512Y-38553533D02*
X76093988Y-38553533D01*
X76093988Y-38553533D02*
X76189226Y-38515438D01*
X76189226Y-38515438D02*
X76236845Y-38477342D01*
X76236845Y-38477342D02*
X76284464Y-38401152D01*
X76713333Y-32216104D02*
X76665714Y-32254200D01*
X76665714Y-32254200D02*
X76522857Y-32292295D01*
X76522857Y-32292295D02*
X76427619Y-32292295D01*
X76427619Y-32292295D02*
X76284762Y-32254200D01*
X76284762Y-32254200D02*
X76189524Y-32178009D01*
X76189524Y-32178009D02*
X76141905Y-32101819D01*
X76141905Y-32101819D02*
X76094286Y-31949438D01*
X76094286Y-31949438D02*
X76094286Y-31835152D01*
X76094286Y-31835152D02*
X76141905Y-31682771D01*
X76141905Y-31682771D02*
X76189524Y-31606580D01*
X76189524Y-31606580D02*
X76284762Y-31530390D01*
X76284762Y-31530390D02*
X76427619Y-31492295D01*
X76427619Y-31492295D02*
X76522857Y-31492295D01*
X76522857Y-31492295D02*
X76665714Y-31530390D01*
X76665714Y-31530390D02*
X76713333Y-31568485D01*
X77046667Y-31492295D02*
X77713333Y-31492295D01*
X77713333Y-31492295D02*
X77284762Y-32292295D01*
X193407200Y-39833333D02*
X193454819Y-39690476D01*
X193454819Y-39690476D02*
X193454819Y-39452381D01*
X193454819Y-39452381D02*
X193407200Y-39357143D01*
X193407200Y-39357143D02*
X193359580Y-39309524D01*
X193359580Y-39309524D02*
X193264342Y-39261905D01*
X193264342Y-39261905D02*
X193169104Y-39261905D01*
X193169104Y-39261905D02*
X193073866Y-39309524D01*
X193073866Y-39309524D02*
X193026247Y-39357143D01*
X193026247Y-39357143D02*
X192978628Y-39452381D01*
X192978628Y-39452381D02*
X192931009Y-39642857D01*
X192931009Y-39642857D02*
X192883390Y-39738095D01*
X192883390Y-39738095D02*
X192835771Y-39785714D01*
X192835771Y-39785714D02*
X192740533Y-39833333D01*
X192740533Y-39833333D02*
X192645295Y-39833333D01*
X192645295Y-39833333D02*
X192550057Y-39785714D01*
X192550057Y-39785714D02*
X192502438Y-39738095D01*
X192502438Y-39738095D02*
X192454819Y-39642857D01*
X192454819Y-39642857D02*
X192454819Y-39404762D01*
X192454819Y-39404762D02*
X192502438Y-39261905D01*
X192454819Y-38928571D02*
X193454819Y-38690476D01*
X193454819Y-38690476D02*
X192740533Y-38500000D01*
X192740533Y-38500000D02*
X193454819Y-38309524D01*
X193454819Y-38309524D02*
X192454819Y-38071429D01*
X193454819Y-37166667D02*
X193454819Y-37738095D01*
X193454819Y-37452381D02*
X192454819Y-37452381D01*
X192454819Y-37452381D02*
X192597676Y-37547619D01*
X192597676Y-37547619D02*
X192692914Y-37642857D01*
X192692914Y-37642857D02*
X192740533Y-37738095D01*
X193454819Y-36214286D02*
X193454819Y-36785714D01*
X193454819Y-36500000D02*
X192454819Y-36500000D01*
X192454819Y-36500000D02*
X192597676Y-36595238D01*
X192597676Y-36595238D02*
X192692914Y-36690476D01*
X192692914Y-36690476D02*
X192740533Y-36785714D01*
X193550057Y-36023810D02*
X193550057Y-35261905D01*
X193407200Y-35071428D02*
X193454819Y-34928571D01*
X193454819Y-34928571D02*
X193454819Y-34690476D01*
X193454819Y-34690476D02*
X193407200Y-34595238D01*
X193407200Y-34595238D02*
X193359580Y-34547619D01*
X193359580Y-34547619D02*
X193264342Y-34500000D01*
X193264342Y-34500000D02*
X193169104Y-34500000D01*
X193169104Y-34500000D02*
X193073866Y-34547619D01*
X193073866Y-34547619D02*
X193026247Y-34595238D01*
X193026247Y-34595238D02*
X192978628Y-34690476D01*
X192978628Y-34690476D02*
X192931009Y-34880952D01*
X192931009Y-34880952D02*
X192883390Y-34976190D01*
X192883390Y-34976190D02*
X192835771Y-35023809D01*
X192835771Y-35023809D02*
X192740533Y-35071428D01*
X192740533Y-35071428D02*
X192645295Y-35071428D01*
X192645295Y-35071428D02*
X192550057Y-35023809D01*
X192550057Y-35023809D02*
X192502438Y-34976190D01*
X192502438Y-34976190D02*
X192454819Y-34880952D01*
X192454819Y-34880952D02*
X192454819Y-34642857D01*
X192454819Y-34642857D02*
X192502438Y-34500000D01*
X192454819Y-34214285D02*
X192454819Y-33642857D01*
X193454819Y-33928571D02*
X192454819Y-33928571D01*
X193169104Y-33357142D02*
X193169104Y-32880952D01*
X193454819Y-33452380D02*
X192454819Y-33119047D01*
X192454819Y-33119047D02*
X193454819Y-32785714D01*
X193454819Y-31880952D02*
X192978628Y-32214285D01*
X193454819Y-32452380D02*
X192454819Y-32452380D01*
X192454819Y-32452380D02*
X192454819Y-32071428D01*
X192454819Y-32071428D02*
X192502438Y-31976190D01*
X192502438Y-31976190D02*
X192550057Y-31928571D01*
X192550057Y-31928571D02*
X192645295Y-31880952D01*
X192645295Y-31880952D02*
X192788152Y-31880952D01*
X192788152Y-31880952D02*
X192883390Y-31928571D01*
X192883390Y-31928571D02*
X192931009Y-31976190D01*
X192931009Y-31976190D02*
X192978628Y-32071428D01*
X192978628Y-32071428D02*
X192978628Y-32452380D01*
X192454819Y-31595237D02*
X192454819Y-31023809D01*
X193454819Y-31309523D02*
X192454819Y-31309523D01*
X193454819Y-30166666D02*
X193454819Y-30738094D01*
X193454819Y-30452380D02*
X192454819Y-30452380D01*
X192454819Y-30452380D02*
X192597676Y-30547618D01*
X192597676Y-30547618D02*
X192692914Y-30642856D01*
X192692914Y-30642856D02*
X192740533Y-30738094D01*
X93153333Y-35716104D02*
X93105714Y-35754200D01*
X93105714Y-35754200D02*
X92962857Y-35792295D01*
X92962857Y-35792295D02*
X92867619Y-35792295D01*
X92867619Y-35792295D02*
X92724762Y-35754200D01*
X92724762Y-35754200D02*
X92629524Y-35678009D01*
X92629524Y-35678009D02*
X92581905Y-35601819D01*
X92581905Y-35601819D02*
X92534286Y-35449438D01*
X92534286Y-35449438D02*
X92534286Y-35335152D01*
X92534286Y-35335152D02*
X92581905Y-35182771D01*
X92581905Y-35182771D02*
X92629524Y-35106580D01*
X92629524Y-35106580D02*
X92724762Y-35030390D01*
X92724762Y-35030390D02*
X92867619Y-34992295D01*
X92867619Y-34992295D02*
X92962857Y-34992295D01*
X92962857Y-34992295D02*
X93105714Y-35030390D01*
X93105714Y-35030390D02*
X93153333Y-35068485D01*
X93724762Y-35335152D02*
X93629524Y-35297057D01*
X93629524Y-35297057D02*
X93581905Y-35258961D01*
X93581905Y-35258961D02*
X93534286Y-35182771D01*
X93534286Y-35182771D02*
X93534286Y-35144676D01*
X93534286Y-35144676D02*
X93581905Y-35068485D01*
X93581905Y-35068485D02*
X93629524Y-35030390D01*
X93629524Y-35030390D02*
X93724762Y-34992295D01*
X93724762Y-34992295D02*
X93915238Y-34992295D01*
X93915238Y-34992295D02*
X94010476Y-35030390D01*
X94010476Y-35030390D02*
X94058095Y-35068485D01*
X94058095Y-35068485D02*
X94105714Y-35144676D01*
X94105714Y-35144676D02*
X94105714Y-35182771D01*
X94105714Y-35182771D02*
X94058095Y-35258961D01*
X94058095Y-35258961D02*
X94010476Y-35297057D01*
X94010476Y-35297057D02*
X93915238Y-35335152D01*
X93915238Y-35335152D02*
X93724762Y-35335152D01*
X93724762Y-35335152D02*
X93629524Y-35373247D01*
X93629524Y-35373247D02*
X93581905Y-35411342D01*
X93581905Y-35411342D02*
X93534286Y-35487533D01*
X93534286Y-35487533D02*
X93534286Y-35639914D01*
X93534286Y-35639914D02*
X93581905Y-35716104D01*
X93581905Y-35716104D02*
X93629524Y-35754200D01*
X93629524Y-35754200D02*
X93724762Y-35792295D01*
X93724762Y-35792295D02*
X93915238Y-35792295D01*
X93915238Y-35792295D02*
X94010476Y-35754200D01*
X94010476Y-35754200D02*
X94058095Y-35716104D01*
X94058095Y-35716104D02*
X94105714Y-35639914D01*
X94105714Y-35639914D02*
X94105714Y-35487533D01*
X94105714Y-35487533D02*
X94058095Y-35411342D01*
X94058095Y-35411342D02*
X94010476Y-35373247D01*
X94010476Y-35373247D02*
X93915238Y-35335152D01*
X53571667Y-38587200D02*
X53714524Y-38634819D01*
X53714524Y-38634819D02*
X53952619Y-38634819D01*
X53952619Y-38634819D02*
X54047857Y-38587200D01*
X54047857Y-38587200D02*
X54095476Y-38539580D01*
X54095476Y-38539580D02*
X54143095Y-38444342D01*
X54143095Y-38444342D02*
X54143095Y-38349104D01*
X54143095Y-38349104D02*
X54095476Y-38253866D01*
X54095476Y-38253866D02*
X54047857Y-38206247D01*
X54047857Y-38206247D02*
X53952619Y-38158628D01*
X53952619Y-38158628D02*
X53762143Y-38111009D01*
X53762143Y-38111009D02*
X53666905Y-38063390D01*
X53666905Y-38063390D02*
X53619286Y-38015771D01*
X53619286Y-38015771D02*
X53571667Y-37920533D01*
X53571667Y-37920533D02*
X53571667Y-37825295D01*
X53571667Y-37825295D02*
X53619286Y-37730057D01*
X53619286Y-37730057D02*
X53666905Y-37682438D01*
X53666905Y-37682438D02*
X53762143Y-37634819D01*
X53762143Y-37634819D02*
X54000238Y-37634819D01*
X54000238Y-37634819D02*
X54143095Y-37682438D01*
X54476429Y-37634819D02*
X54714524Y-38634819D01*
X54714524Y-38634819D02*
X54905000Y-37920533D01*
X54905000Y-37920533D02*
X55095476Y-38634819D01*
X55095476Y-38634819D02*
X55333572Y-37634819D01*
X56238333Y-38634819D02*
X55666905Y-38634819D01*
X55952619Y-38634819D02*
X55952619Y-37634819D01*
X55952619Y-37634819D02*
X55857381Y-37777676D01*
X55857381Y-37777676D02*
X55762143Y-37872914D01*
X55762143Y-37872914D02*
X55666905Y-37920533D01*
X246738095Y-46254819D02*
X246738095Y-45254819D01*
X246738095Y-45731009D02*
X247309523Y-45731009D01*
X247309523Y-46254819D02*
X247309523Y-45254819D01*
X248214285Y-45254819D02*
X248023809Y-45254819D01*
X248023809Y-45254819D02*
X247928571Y-45302438D01*
X247928571Y-45302438D02*
X247880952Y-45350057D01*
X247880952Y-45350057D02*
X247785714Y-45492914D01*
X247785714Y-45492914D02*
X247738095Y-45683390D01*
X247738095Y-45683390D02*
X247738095Y-46064342D01*
X247738095Y-46064342D02*
X247785714Y-46159580D01*
X247785714Y-46159580D02*
X247833333Y-46207200D01*
X247833333Y-46207200D02*
X247928571Y-46254819D01*
X247928571Y-46254819D02*
X248119047Y-46254819D01*
X248119047Y-46254819D02*
X248214285Y-46207200D01*
X248214285Y-46207200D02*
X248261904Y-46159580D01*
X248261904Y-46159580D02*
X248309523Y-46064342D01*
X248309523Y-46064342D02*
X248309523Y-45826247D01*
X248309523Y-45826247D02*
X248261904Y-45731009D01*
X248261904Y-45731009D02*
X248214285Y-45683390D01*
X248214285Y-45683390D02*
X248119047Y-45635771D01*
X248119047Y-45635771D02*
X247928571Y-45635771D01*
X247928571Y-45635771D02*
X247833333Y-45683390D01*
X247833333Y-45683390D02*
X247785714Y-45731009D01*
X247785714Y-45731009D02*
X247738095Y-45826247D01*
X91913333Y-39453819D02*
X91580000Y-38977628D01*
X91341905Y-39453819D02*
X91341905Y-38453819D01*
X91341905Y-38453819D02*
X91722857Y-38453819D01*
X91722857Y-38453819D02*
X91818095Y-38501438D01*
X91818095Y-38501438D02*
X91865714Y-38549057D01*
X91865714Y-38549057D02*
X91913333Y-38644295D01*
X91913333Y-38644295D02*
X91913333Y-38787152D01*
X91913333Y-38787152D02*
X91865714Y-38882390D01*
X91865714Y-38882390D02*
X91818095Y-38930009D01*
X91818095Y-38930009D02*
X91722857Y-38977628D01*
X91722857Y-38977628D02*
X91341905Y-38977628D01*
X92770476Y-38787152D02*
X92770476Y-39453819D01*
X92532381Y-38406200D02*
X92294286Y-39120485D01*
X92294286Y-39120485D02*
X92913333Y-39120485D01*
X87239580Y-31552857D02*
X87287200Y-31600476D01*
X87287200Y-31600476D02*
X87334819Y-31743333D01*
X87334819Y-31743333D02*
X87334819Y-31838571D01*
X87334819Y-31838571D02*
X87287200Y-31981428D01*
X87287200Y-31981428D02*
X87191961Y-32076666D01*
X87191961Y-32076666D02*
X87096723Y-32124285D01*
X87096723Y-32124285D02*
X86906247Y-32171904D01*
X86906247Y-32171904D02*
X86763390Y-32171904D01*
X86763390Y-32171904D02*
X86572914Y-32124285D01*
X86572914Y-32124285D02*
X86477676Y-32076666D01*
X86477676Y-32076666D02*
X86382438Y-31981428D01*
X86382438Y-31981428D02*
X86334819Y-31838571D01*
X86334819Y-31838571D02*
X86334819Y-31743333D01*
X86334819Y-31743333D02*
X86382438Y-31600476D01*
X86382438Y-31600476D02*
X86430057Y-31552857D01*
X87334819Y-30600476D02*
X87334819Y-31171904D01*
X87334819Y-30886190D02*
X86334819Y-30886190D01*
X86334819Y-30886190D02*
X86477676Y-30981428D01*
X86477676Y-30981428D02*
X86572914Y-31076666D01*
X86572914Y-31076666D02*
X86620533Y-31171904D01*
X86334819Y-29695714D02*
X86334819Y-30171904D01*
X86334819Y-30171904D02*
X86811009Y-30219523D01*
X86811009Y-30219523D02*
X86763390Y-30171904D01*
X86763390Y-30171904D02*
X86715771Y-30076666D01*
X86715771Y-30076666D02*
X86715771Y-29838571D01*
X86715771Y-29838571D02*
X86763390Y-29743333D01*
X86763390Y-29743333D02*
X86811009Y-29695714D01*
X86811009Y-29695714D02*
X86906247Y-29648095D01*
X86906247Y-29648095D02*
X87144342Y-29648095D01*
X87144342Y-29648095D02*
X87239580Y-29695714D01*
X87239580Y-29695714D02*
X87287200Y-29743333D01*
X87287200Y-29743333D02*
X87334819Y-29838571D01*
X87334819Y-29838571D02*
X87334819Y-30076666D01*
X87334819Y-30076666D02*
X87287200Y-30171904D01*
X87287200Y-30171904D02*
X87239580Y-30219523D01*
X63594333Y-42374819D02*
X63261000Y-41898628D01*
X63022905Y-42374819D02*
X63022905Y-41374819D01*
X63022905Y-41374819D02*
X63403857Y-41374819D01*
X63403857Y-41374819D02*
X63499095Y-41422438D01*
X63499095Y-41422438D02*
X63546714Y-41470057D01*
X63546714Y-41470057D02*
X63594333Y-41565295D01*
X63594333Y-41565295D02*
X63594333Y-41708152D01*
X63594333Y-41708152D02*
X63546714Y-41803390D01*
X63546714Y-41803390D02*
X63499095Y-41851009D01*
X63499095Y-41851009D02*
X63403857Y-41898628D01*
X63403857Y-41898628D02*
X63022905Y-41898628D01*
X64499095Y-41374819D02*
X64022905Y-41374819D01*
X64022905Y-41374819D02*
X63975286Y-41851009D01*
X63975286Y-41851009D02*
X64022905Y-41803390D01*
X64022905Y-41803390D02*
X64118143Y-41755771D01*
X64118143Y-41755771D02*
X64356238Y-41755771D01*
X64356238Y-41755771D02*
X64451476Y-41803390D01*
X64451476Y-41803390D02*
X64499095Y-41851009D01*
X64499095Y-41851009D02*
X64546714Y-41946247D01*
X64546714Y-41946247D02*
X64546714Y-42184342D01*
X64546714Y-42184342D02*
X64499095Y-42279580D01*
X64499095Y-42279580D02*
X64451476Y-42327200D01*
X64451476Y-42327200D02*
X64356238Y-42374819D01*
X64356238Y-42374819D02*
X64118143Y-42374819D01*
X64118143Y-42374819D02*
X64022905Y-42327200D01*
X64022905Y-42327200D02*
X63975286Y-42279580D01*
X72776819Y-32344666D02*
X72300628Y-32677999D01*
X72776819Y-32916094D02*
X71776819Y-32916094D01*
X71776819Y-32916094D02*
X71776819Y-32535142D01*
X71776819Y-32535142D02*
X71824438Y-32439904D01*
X71824438Y-32439904D02*
X71872057Y-32392285D01*
X71872057Y-32392285D02*
X71967295Y-32344666D01*
X71967295Y-32344666D02*
X72110152Y-32344666D01*
X72110152Y-32344666D02*
X72205390Y-32392285D01*
X72205390Y-32392285D02*
X72253009Y-32439904D01*
X72253009Y-32439904D02*
X72300628Y-32535142D01*
X72300628Y-32535142D02*
X72300628Y-32916094D01*
X71872057Y-31963713D02*
X71824438Y-31916094D01*
X71824438Y-31916094D02*
X71776819Y-31820856D01*
X71776819Y-31820856D02*
X71776819Y-31582761D01*
X71776819Y-31582761D02*
X71824438Y-31487523D01*
X71824438Y-31487523D02*
X71872057Y-31439904D01*
X71872057Y-31439904D02*
X71967295Y-31392285D01*
X71967295Y-31392285D02*
X72062533Y-31392285D01*
X72062533Y-31392285D02*
X72205390Y-31439904D01*
X72205390Y-31439904D02*
X72776819Y-32011332D01*
X72776819Y-32011332D02*
X72776819Y-31392285D01*
X124366160Y-74144642D02*
X124479920Y-74243305D01*
X124479920Y-74243305D02*
X124699891Y-74334421D01*
X124699891Y-74334421D02*
X124806103Y-74326872D01*
X124806103Y-74326872D02*
X124868320Y-74301101D01*
X124868320Y-74301101D02*
X124948760Y-74231336D01*
X124948760Y-74231336D02*
X124985206Y-74143347D01*
X124985206Y-74143347D02*
X124977658Y-74037136D01*
X124977658Y-74037136D02*
X124951887Y-73974918D01*
X124951887Y-73974918D02*
X124882121Y-73894478D01*
X124882121Y-73894478D02*
X124724367Y-73777592D01*
X124724367Y-73777592D02*
X124654602Y-73697151D01*
X124654602Y-73697151D02*
X124628831Y-73634934D01*
X124628831Y-73634934D02*
X124621282Y-73528722D01*
X124621282Y-73528722D02*
X124657729Y-73440734D01*
X124657729Y-73440734D02*
X124738169Y-73370968D01*
X124738169Y-73370968D02*
X124800386Y-73345197D01*
X124800386Y-73345197D02*
X124906598Y-73337649D01*
X124906598Y-73337649D02*
X125126569Y-73428764D01*
X125126569Y-73428764D02*
X125240329Y-73527427D01*
X125566512Y-73610994D02*
X125403800Y-74625989D01*
X125403800Y-74625989D02*
X125853122Y-74038967D01*
X125853122Y-74038967D02*
X125755754Y-74771773D01*
X125755754Y-74771773D02*
X126358408Y-73939009D01*
X126629922Y-74154558D02*
X126692139Y-74128787D01*
X126692139Y-74128787D02*
X126798351Y-74121239D01*
X126798351Y-74121239D02*
X127018322Y-74212354D01*
X127018322Y-74212354D02*
X127088088Y-74292794D01*
X127088088Y-74292794D02*
X127113859Y-74355012D01*
X127113859Y-74355012D02*
X127121407Y-74461223D01*
X127121407Y-74461223D02*
X127084961Y-74549212D01*
X127084961Y-74549212D02*
X126986298Y-74662971D01*
X126986298Y-74662971D02*
X126239690Y-74972226D01*
X126239690Y-74972226D02*
X126811616Y-75209126D01*
X127766225Y-74522145D02*
X127854213Y-74558591D01*
X127854213Y-74558591D02*
X127923979Y-74639032D01*
X127923979Y-74639032D02*
X127949750Y-74701249D01*
X127949750Y-74701249D02*
X127957298Y-74807460D01*
X127957298Y-74807460D02*
X127928400Y-75001661D01*
X127928400Y-75001661D02*
X127837285Y-75221632D01*
X127837285Y-75221632D02*
X127720399Y-75379386D01*
X127720399Y-75379386D02*
X127639959Y-75449151D01*
X127639959Y-75449151D02*
X127577741Y-75474923D01*
X127577741Y-75474923D02*
X127471530Y-75482471D01*
X127471530Y-75482471D02*
X127383541Y-75446025D01*
X127383541Y-75446025D02*
X127313776Y-75365585D01*
X127313776Y-75365585D02*
X127288005Y-75303367D01*
X127288005Y-75303367D02*
X127280456Y-75197156D01*
X127280456Y-75197156D02*
X127309354Y-75002956D01*
X127309354Y-75002956D02*
X127400469Y-74782984D01*
X127400469Y-74782984D02*
X127517356Y-74625230D01*
X127517356Y-74625230D02*
X127597796Y-74555465D01*
X127597796Y-74555465D02*
X127660013Y-74529694D01*
X127660013Y-74529694D02*
X127766225Y-74522145D01*
X127831032Y-75734467D02*
X128534940Y-76026035D01*
X129319289Y-76247838D02*
X129193560Y-75680334D01*
X128791358Y-76029162D02*
X129174041Y-75105282D01*
X129174041Y-75105282D02*
X129525996Y-75251066D01*
X129525996Y-75251066D02*
X129595761Y-75331507D01*
X129595761Y-75331507D02*
X129621532Y-75393724D01*
X129621532Y-75393724D02*
X129629081Y-75499935D01*
X129629081Y-75499935D02*
X129574411Y-75631918D01*
X129574411Y-75631918D02*
X129493971Y-75701684D01*
X129493971Y-75701684D02*
X129431754Y-75727455D01*
X129431754Y-75727455D02*
X129325542Y-75735003D01*
X129325542Y-75735003D02*
X128973588Y-75589219D01*
X129715238Y-76411845D02*
X130097921Y-75487966D01*
X131003577Y-75914643D02*
X130933812Y-75834203D01*
X130933812Y-75834203D02*
X130801829Y-75779534D01*
X130801829Y-75779534D02*
X130651623Y-75768859D01*
X130651623Y-75768859D02*
X130527188Y-75820401D01*
X130527188Y-75820401D02*
X130446748Y-75890167D01*
X130446748Y-75890167D02*
X130329862Y-76047921D01*
X130329862Y-76047921D02*
X130275193Y-76179904D01*
X130275193Y-76179904D02*
X130246295Y-76374104D01*
X130246295Y-76374104D02*
X130253843Y-76480315D01*
X130253843Y-76480315D02*
X130305386Y-76604750D01*
X130305386Y-76604750D02*
X130419145Y-76703413D01*
X130419145Y-76703413D02*
X130507134Y-76739859D01*
X130507134Y-76739859D02*
X130657340Y-76750534D01*
X130657340Y-76750534D02*
X130719557Y-76724763D01*
X130719557Y-76724763D02*
X130847118Y-76416803D01*
X130847118Y-76416803D02*
X130671141Y-76343911D01*
X131079059Y-76976758D02*
X131461743Y-76052879D01*
X131279512Y-76492822D02*
X131807444Y-76711498D01*
X131606990Y-77195435D02*
X131989674Y-76271555D01*
X132297634Y-76399116D02*
X132825565Y-76617793D01*
X132178916Y-77432334D02*
X132561599Y-76508454D01*
X133234778Y-77869687D02*
X132706847Y-77651010D01*
X132970813Y-77760348D02*
X133353496Y-76836469D01*
X133353496Y-76836469D02*
X133210839Y-76932006D01*
X133210839Y-76932006D02*
X133086404Y-76983548D01*
X133086404Y-76983548D02*
X132980192Y-76991096D01*
X108318987Y-63168116D02*
X108432747Y-63266779D01*
X108432747Y-63266779D02*
X108652718Y-63357894D01*
X108652718Y-63357894D02*
X108758929Y-63350346D01*
X108758929Y-63350346D02*
X108821147Y-63324575D01*
X108821147Y-63324575D02*
X108901587Y-63254809D01*
X108901587Y-63254809D02*
X108938033Y-63166821D01*
X108938033Y-63166821D02*
X108930485Y-63060609D01*
X108930485Y-63060609D02*
X108904714Y-62998392D01*
X108904714Y-62998392D02*
X108834948Y-62917952D01*
X108834948Y-62917952D02*
X108677194Y-62801065D01*
X108677194Y-62801065D02*
X108607429Y-62720625D01*
X108607429Y-62720625D02*
X108581657Y-62658408D01*
X108581657Y-62658408D02*
X108574109Y-62552196D01*
X108574109Y-62552196D02*
X108610555Y-62464208D01*
X108610555Y-62464208D02*
X108690995Y-62394442D01*
X108690995Y-62394442D02*
X108753213Y-62368671D01*
X108753213Y-62368671D02*
X108859424Y-62361123D01*
X108859424Y-62361123D02*
X109079396Y-62452238D01*
X109079396Y-62452238D02*
X109193155Y-62550901D01*
X109519338Y-62634468D02*
X109356626Y-63649463D01*
X109356626Y-63649463D02*
X109805948Y-63062441D01*
X109805948Y-63062441D02*
X109708580Y-63795247D01*
X109708580Y-63795247D02*
X110311235Y-62962482D01*
X110764442Y-64232599D02*
X110236511Y-64013923D01*
X110500477Y-64123261D02*
X110883160Y-63199382D01*
X110883160Y-63199382D02*
X110740503Y-63294918D01*
X110740503Y-63294918D02*
X110616068Y-63346461D01*
X110616068Y-63346461D02*
X110509857Y-63354009D01*
X111511050Y-63923344D02*
X111441284Y-63842904D01*
X111441284Y-63842904D02*
X111415513Y-63780687D01*
X111415513Y-63780687D02*
X111407965Y-63674475D01*
X111407965Y-63674475D02*
X111426188Y-63630481D01*
X111426188Y-63630481D02*
X111506628Y-63560715D01*
X111506628Y-63560715D02*
X111568846Y-63534944D01*
X111568846Y-63534944D02*
X111675057Y-63527396D01*
X111675057Y-63527396D02*
X111851034Y-63600288D01*
X111851034Y-63600288D02*
X111920800Y-63680728D01*
X111920800Y-63680728D02*
X111946571Y-63742946D01*
X111946571Y-63742946D02*
X111954119Y-63849157D01*
X111954119Y-63849157D02*
X111935896Y-63893151D01*
X111935896Y-63893151D02*
X111855456Y-63962917D01*
X111855456Y-63962917D02*
X111793238Y-63988688D01*
X111793238Y-63988688D02*
X111687027Y-63996236D01*
X111687027Y-63996236D02*
X111511050Y-63923344D01*
X111511050Y-63923344D02*
X111404838Y-63930893D01*
X111404838Y-63930893D02*
X111342621Y-63956664D01*
X111342621Y-63956664D02*
X111262181Y-64026429D01*
X111262181Y-64026429D02*
X111189289Y-64202406D01*
X111189289Y-64202406D02*
X111196837Y-64308618D01*
X111196837Y-64308618D02*
X111222608Y-64370835D01*
X111222608Y-64370835D02*
X111292374Y-64451276D01*
X111292374Y-64451276D02*
X111468351Y-64524168D01*
X111468351Y-64524168D02*
X111574562Y-64516619D01*
X111574562Y-64516619D02*
X111636780Y-64490848D01*
X111636780Y-64490848D02*
X111717220Y-64421083D01*
X111717220Y-64421083D02*
X111790112Y-64245106D01*
X111790112Y-64245106D02*
X111782564Y-64138894D01*
X111782564Y-64138894D02*
X111756792Y-64076677D01*
X111756792Y-64076677D02*
X111687027Y-63996236D01*
X111783859Y-64757940D02*
X112487767Y-65049509D01*
X112744185Y-65052635D02*
X113126868Y-64128756D01*
X113126868Y-64128756D02*
X113346839Y-64219871D01*
X113346839Y-64219871D02*
X113460599Y-64318534D01*
X113460599Y-64318534D02*
X113512142Y-64442969D01*
X113512142Y-64442969D02*
X113519690Y-64549180D01*
X113519690Y-64549180D02*
X113490792Y-64743380D01*
X113490792Y-64743380D02*
X113436123Y-64875363D01*
X113436123Y-64875363D02*
X113319237Y-65033117D01*
X113319237Y-65033117D02*
X113238796Y-65102883D01*
X113238796Y-65102883D02*
X113114362Y-65154425D01*
X113114362Y-65154425D02*
X112964156Y-65143750D01*
X112964156Y-65143750D02*
X112744185Y-65052635D01*
X114226725Y-64584331D02*
X114402702Y-64657223D01*
X114402702Y-64657223D02*
X114472467Y-64737664D01*
X114472467Y-64737664D02*
X114524010Y-64862098D01*
X114524010Y-64862098D02*
X114495112Y-65056298D01*
X114495112Y-65056298D02*
X114367551Y-65364258D01*
X114367551Y-65364258D02*
X114250664Y-65522012D01*
X114250664Y-65522012D02*
X114126230Y-65573555D01*
X114126230Y-65573555D02*
X114020018Y-65581103D01*
X114020018Y-65581103D02*
X113844041Y-65508211D01*
X113844041Y-65508211D02*
X113774276Y-65427771D01*
X113774276Y-65427771D02*
X113722733Y-65303336D01*
X113722733Y-65303336D02*
X113751631Y-65109136D01*
X113751631Y-65109136D02*
X113879192Y-64801176D01*
X113879192Y-64801176D02*
X113996078Y-64643422D01*
X113996078Y-64643422D02*
X114120513Y-64591879D01*
X114120513Y-64591879D02*
X114226725Y-64584331D01*
X114930633Y-64875900D02*
X114767921Y-65890894D01*
X114767921Y-65890894D02*
X115217243Y-65303872D01*
X115217243Y-65303872D02*
X115119875Y-66036678D01*
X115119875Y-66036678D02*
X115722530Y-65203914D01*
X115691800Y-66273578D02*
X116074483Y-65349698D01*
X116074483Y-65349698D02*
X116219731Y-66492254D01*
X116219731Y-66492254D02*
X116602415Y-65568374D01*
X117143611Y-66874937D02*
X116615680Y-66656261D01*
X116879645Y-66765599D02*
X117262329Y-65841720D01*
X117262329Y-65841720D02*
X117119671Y-65937256D01*
X117119671Y-65937256D02*
X116995236Y-65988799D01*
X116995236Y-65988799D02*
X116889025Y-65996347D01*
X181238095Y-141254819D02*
X181238095Y-140254819D01*
X181238095Y-140731009D02*
X181809523Y-140731009D01*
X181809523Y-141254819D02*
X181809523Y-140254819D01*
X182714285Y-140588152D02*
X182714285Y-141254819D01*
X182476190Y-140207200D02*
X182238095Y-140921485D01*
X182238095Y-140921485D02*
X182857142Y-140921485D01*
X65060095Y-39632819D02*
X65060095Y-40442342D01*
X65060095Y-40442342D02*
X65107714Y-40537580D01*
X65107714Y-40537580D02*
X65155333Y-40585200D01*
X65155333Y-40585200D02*
X65250571Y-40632819D01*
X65250571Y-40632819D02*
X65441047Y-40632819D01*
X65441047Y-40632819D02*
X65536285Y-40585200D01*
X65536285Y-40585200D02*
X65583904Y-40537580D01*
X65583904Y-40537580D02*
X65631523Y-40442342D01*
X65631523Y-40442342D02*
X65631523Y-39632819D01*
X66060095Y-39728057D02*
X66107714Y-39680438D01*
X66107714Y-39680438D02*
X66202952Y-39632819D01*
X66202952Y-39632819D02*
X66441047Y-39632819D01*
X66441047Y-39632819D02*
X66536285Y-39680438D01*
X66536285Y-39680438D02*
X66583904Y-39728057D01*
X66583904Y-39728057D02*
X66631523Y-39823295D01*
X66631523Y-39823295D02*
X66631523Y-39918533D01*
X66631523Y-39918533D02*
X66583904Y-40061390D01*
X66583904Y-40061390D02*
X66012476Y-40632819D01*
X66012476Y-40632819D02*
X66631523Y-40632819D01*
X96246666Y-29184819D02*
X96246666Y-29899104D01*
X96246666Y-29899104D02*
X96199047Y-30041961D01*
X96199047Y-30041961D02*
X96103809Y-30137200D01*
X96103809Y-30137200D02*
X95960952Y-30184819D01*
X95960952Y-30184819D02*
X95865714Y-30184819D01*
X96675238Y-29280057D02*
X96722857Y-29232438D01*
X96722857Y-29232438D02*
X96818095Y-29184819D01*
X96818095Y-29184819D02*
X97056190Y-29184819D01*
X97056190Y-29184819D02*
X97151428Y-29232438D01*
X97151428Y-29232438D02*
X97199047Y-29280057D01*
X97199047Y-29280057D02*
X97246666Y-29375295D01*
X97246666Y-29375295D02*
X97246666Y-29470533D01*
X97246666Y-29470533D02*
X97199047Y-29613390D01*
X97199047Y-29613390D02*
X96627619Y-30184819D01*
X96627619Y-30184819D02*
X97246666Y-30184819D01*
X117038919Y-46160459D02*
X117152679Y-46259122D01*
X117152679Y-46259122D02*
X117372650Y-46350237D01*
X117372650Y-46350237D02*
X117478862Y-46342689D01*
X117478862Y-46342689D02*
X117541079Y-46316918D01*
X117541079Y-46316918D02*
X117621520Y-46247152D01*
X117621520Y-46247152D02*
X117657966Y-46159164D01*
X117657966Y-46159164D02*
X117650417Y-46052952D01*
X117650417Y-46052952D02*
X117624646Y-45990735D01*
X117624646Y-45990735D02*
X117554881Y-45910295D01*
X117554881Y-45910295D02*
X117397127Y-45793408D01*
X117397127Y-45793408D02*
X117327361Y-45712968D01*
X117327361Y-45712968D02*
X117301590Y-45650751D01*
X117301590Y-45650751D02*
X117294042Y-45544539D01*
X117294042Y-45544539D02*
X117330488Y-45456551D01*
X117330488Y-45456551D02*
X117410928Y-45386785D01*
X117410928Y-45386785D02*
X117473145Y-45361014D01*
X117473145Y-45361014D02*
X117579357Y-45353466D01*
X117579357Y-45353466D02*
X117799328Y-45444581D01*
X117799328Y-45444581D02*
X117913088Y-45543244D01*
X118239271Y-45626811D02*
X118076559Y-46641806D01*
X118076559Y-46641806D02*
X118525881Y-46054784D01*
X118525881Y-46054784D02*
X118428513Y-46787590D01*
X118428513Y-46787590D02*
X119031167Y-45954826D01*
X119484375Y-47224942D02*
X118956444Y-47006266D01*
X119220409Y-47115604D02*
X119603093Y-46191725D01*
X119603093Y-46191725D02*
X119460435Y-46287261D01*
X119460435Y-46287261D02*
X119336001Y-46338804D01*
X119336001Y-46338804D02*
X119229789Y-46346352D01*
X120175018Y-46428624D02*
X120790938Y-46683746D01*
X120790938Y-46683746D02*
X120012306Y-47443619D01*
X120503791Y-47750283D02*
X121207700Y-48041852D01*
X121758812Y-47084653D02*
X121596100Y-48099648D01*
X121596100Y-48099648D02*
X122045422Y-47512626D01*
X122045422Y-47512626D02*
X121948054Y-48245432D01*
X121948054Y-48245432D02*
X122550709Y-47412667D01*
X123003916Y-48682784D02*
X122475985Y-48464108D01*
X122739951Y-48573446D02*
X123122634Y-47649566D01*
X123122634Y-47649566D02*
X122979976Y-47745103D01*
X122979976Y-47745103D02*
X122855542Y-47796646D01*
X122855542Y-47796646D02*
X122749330Y-47804194D01*
X83739580Y-29072857D02*
X83787200Y-29120476D01*
X83787200Y-29120476D02*
X83834819Y-29263333D01*
X83834819Y-29263333D02*
X83834819Y-29358571D01*
X83834819Y-29358571D02*
X83787200Y-29501428D01*
X83787200Y-29501428D02*
X83691961Y-29596666D01*
X83691961Y-29596666D02*
X83596723Y-29644285D01*
X83596723Y-29644285D02*
X83406247Y-29691904D01*
X83406247Y-29691904D02*
X83263390Y-29691904D01*
X83263390Y-29691904D02*
X83072914Y-29644285D01*
X83072914Y-29644285D02*
X82977676Y-29596666D01*
X82977676Y-29596666D02*
X82882438Y-29501428D01*
X82882438Y-29501428D02*
X82834819Y-29358571D01*
X82834819Y-29358571D02*
X82834819Y-29263333D01*
X82834819Y-29263333D02*
X82882438Y-29120476D01*
X82882438Y-29120476D02*
X82930057Y-29072857D01*
X83834819Y-28120476D02*
X83834819Y-28691904D01*
X83834819Y-28406190D02*
X82834819Y-28406190D01*
X82834819Y-28406190D02*
X82977676Y-28501428D01*
X82977676Y-28501428D02*
X83072914Y-28596666D01*
X83072914Y-28596666D02*
X83120533Y-28691904D01*
X82834819Y-27263333D02*
X82834819Y-27453809D01*
X82834819Y-27453809D02*
X82882438Y-27549047D01*
X82882438Y-27549047D02*
X82930057Y-27596666D01*
X82930057Y-27596666D02*
X83072914Y-27691904D01*
X83072914Y-27691904D02*
X83263390Y-27739523D01*
X83263390Y-27739523D02*
X83644342Y-27739523D01*
X83644342Y-27739523D02*
X83739580Y-27691904D01*
X83739580Y-27691904D02*
X83787200Y-27644285D01*
X83787200Y-27644285D02*
X83834819Y-27549047D01*
X83834819Y-27549047D02*
X83834819Y-27358571D01*
X83834819Y-27358571D02*
X83787200Y-27263333D01*
X83787200Y-27263333D02*
X83739580Y-27215714D01*
X83739580Y-27215714D02*
X83644342Y-27168095D01*
X83644342Y-27168095D02*
X83406247Y-27168095D01*
X83406247Y-27168095D02*
X83311009Y-27215714D01*
X83311009Y-27215714D02*
X83263390Y-27263333D01*
X83263390Y-27263333D02*
X83215771Y-27358571D01*
X83215771Y-27358571D02*
X83215771Y-27549047D01*
X83215771Y-27549047D02*
X83263390Y-27644285D01*
X83263390Y-27644285D02*
X83311009Y-27691904D01*
X83311009Y-27691904D02*
X83406247Y-27739523D01*
X196642038Y-82407200D02*
X196784895Y-82454819D01*
X196784895Y-82454819D02*
X197022990Y-82454819D01*
X197022990Y-82454819D02*
X197118228Y-82407200D01*
X197118228Y-82407200D02*
X197165847Y-82359580D01*
X197165847Y-82359580D02*
X197213466Y-82264342D01*
X197213466Y-82264342D02*
X197213466Y-82169104D01*
X197213466Y-82169104D02*
X197165847Y-82073866D01*
X197165847Y-82073866D02*
X197118228Y-82026247D01*
X197118228Y-82026247D02*
X197022990Y-81978628D01*
X197022990Y-81978628D02*
X196832514Y-81931009D01*
X196832514Y-81931009D02*
X196737276Y-81883390D01*
X196737276Y-81883390D02*
X196689657Y-81835771D01*
X196689657Y-81835771D02*
X196642038Y-81740533D01*
X196642038Y-81740533D02*
X196642038Y-81645295D01*
X196642038Y-81645295D02*
X196689657Y-81550057D01*
X196689657Y-81550057D02*
X196737276Y-81502438D01*
X196737276Y-81502438D02*
X196832514Y-81454819D01*
X196832514Y-81454819D02*
X197070609Y-81454819D01*
X197070609Y-81454819D02*
X197213466Y-81502438D01*
X197546800Y-81454819D02*
X197784895Y-82454819D01*
X197784895Y-82454819D02*
X197975371Y-81740533D01*
X197975371Y-81740533D02*
X198165847Y-82454819D01*
X198165847Y-82454819D02*
X198403943Y-81454819D01*
X198689657Y-81454819D02*
X199308704Y-81454819D01*
X199308704Y-81454819D02*
X198975371Y-81835771D01*
X198975371Y-81835771D02*
X199118228Y-81835771D01*
X199118228Y-81835771D02*
X199213466Y-81883390D01*
X199213466Y-81883390D02*
X199261085Y-81931009D01*
X199261085Y-81931009D02*
X199308704Y-82026247D01*
X199308704Y-82026247D02*
X199308704Y-82264342D01*
X199308704Y-82264342D02*
X199261085Y-82359580D01*
X199261085Y-82359580D02*
X199213466Y-82407200D01*
X199213466Y-82407200D02*
X199118228Y-82454819D01*
X199118228Y-82454819D02*
X198832514Y-82454819D01*
X198832514Y-82454819D02*
X198737276Y-82407200D01*
X198737276Y-82407200D02*
X198689657Y-82359580D01*
X199499181Y-82550057D02*
X200261085Y-82550057D01*
X200499181Y-82454819D02*
X200499181Y-81454819D01*
X200499181Y-81454819D02*
X200832514Y-82169104D01*
X200832514Y-82169104D02*
X201165847Y-81454819D01*
X201165847Y-81454819D02*
X201165847Y-82454819D01*
X201642038Y-82454819D02*
X201642038Y-81454819D01*
X202213466Y-82454819D02*
X201784895Y-81883390D01*
X202213466Y-81454819D02*
X201642038Y-82026247D01*
X203165847Y-82454819D02*
X202594419Y-82454819D01*
X202880133Y-82454819D02*
X202880133Y-81454819D01*
X202880133Y-81454819D02*
X202784895Y-81597676D01*
X202784895Y-81597676D02*
X202689657Y-81692914D01*
X202689657Y-81692914D02*
X202594419Y-81740533D01*
X49538095Y-35654819D02*
X49538095Y-34654819D01*
X49538095Y-35131009D02*
X50109523Y-35131009D01*
X50109523Y-35654819D02*
X50109523Y-34654819D01*
X51109523Y-35654819D02*
X50538095Y-35654819D01*
X50823809Y-35654819D02*
X50823809Y-34654819D01*
X50823809Y-34654819D02*
X50728571Y-34797676D01*
X50728571Y-34797676D02*
X50633333Y-34892914D01*
X50633333Y-34892914D02*
X50538095Y-34940533D01*
X74855892Y-37714104D02*
X74808273Y-37752200D01*
X74808273Y-37752200D02*
X74665416Y-37790295D01*
X74665416Y-37790295D02*
X74570178Y-37790295D01*
X74570178Y-37790295D02*
X74427321Y-37752200D01*
X74427321Y-37752200D02*
X74332083Y-37676009D01*
X74332083Y-37676009D02*
X74284464Y-37599819D01*
X74284464Y-37599819D02*
X74236845Y-37447438D01*
X74236845Y-37447438D02*
X74236845Y-37333152D01*
X74236845Y-37333152D02*
X74284464Y-37180771D01*
X74284464Y-37180771D02*
X74332083Y-37104580D01*
X74332083Y-37104580D02*
X74427321Y-37028390D01*
X74427321Y-37028390D02*
X74570178Y-36990295D01*
X74570178Y-36990295D02*
X74665416Y-36990295D01*
X74665416Y-36990295D02*
X74808273Y-37028390D01*
X74808273Y-37028390D02*
X74855892Y-37066485D01*
X75808273Y-37790295D02*
X75236845Y-37790295D01*
X75522559Y-37790295D02*
X75522559Y-36990295D01*
X75522559Y-36990295D02*
X75427321Y-37104580D01*
X75427321Y-37104580D02*
X75332083Y-37180771D01*
X75332083Y-37180771D02*
X75236845Y-37218866D01*
X76427321Y-36990295D02*
X76522559Y-36990295D01*
X76522559Y-36990295D02*
X76617797Y-37028390D01*
X76617797Y-37028390D02*
X76665416Y-37066485D01*
X76665416Y-37066485D02*
X76713035Y-37142676D01*
X76713035Y-37142676D02*
X76760654Y-37295057D01*
X76760654Y-37295057D02*
X76760654Y-37485533D01*
X76760654Y-37485533D02*
X76713035Y-37637914D01*
X76713035Y-37637914D02*
X76665416Y-37714104D01*
X76665416Y-37714104D02*
X76617797Y-37752200D01*
X76617797Y-37752200D02*
X76522559Y-37790295D01*
X76522559Y-37790295D02*
X76427321Y-37790295D01*
X76427321Y-37790295D02*
X76332083Y-37752200D01*
X76332083Y-37752200D02*
X76284464Y-37714104D01*
X76284464Y-37714104D02*
X76236845Y-37637914D01*
X76236845Y-37637914D02*
X76189226Y-37485533D01*
X76189226Y-37485533D02*
X76189226Y-37295057D01*
X76189226Y-37295057D02*
X76236845Y-37142676D01*
X76236845Y-37142676D02*
X76284464Y-37066485D01*
X76284464Y-37066485D02*
X76332083Y-37028390D01*
X76332083Y-37028390D02*
X76427321Y-36990295D01*
X64239580Y-31164666D02*
X64287200Y-31212285D01*
X64287200Y-31212285D02*
X64334819Y-31355142D01*
X64334819Y-31355142D02*
X64334819Y-31450380D01*
X64334819Y-31450380D02*
X64287200Y-31593237D01*
X64287200Y-31593237D02*
X64191961Y-31688475D01*
X64191961Y-31688475D02*
X64096723Y-31736094D01*
X64096723Y-31736094D02*
X63906247Y-31783713D01*
X63906247Y-31783713D02*
X63763390Y-31783713D01*
X63763390Y-31783713D02*
X63572914Y-31736094D01*
X63572914Y-31736094D02*
X63477676Y-31688475D01*
X63477676Y-31688475D02*
X63382438Y-31593237D01*
X63382438Y-31593237D02*
X63334819Y-31450380D01*
X63334819Y-31450380D02*
X63334819Y-31355142D01*
X63334819Y-31355142D02*
X63382438Y-31212285D01*
X63382438Y-31212285D02*
X63430057Y-31164666D01*
X63430057Y-30783713D02*
X63382438Y-30736094D01*
X63382438Y-30736094D02*
X63334819Y-30640856D01*
X63334819Y-30640856D02*
X63334819Y-30402761D01*
X63334819Y-30402761D02*
X63382438Y-30307523D01*
X63382438Y-30307523D02*
X63430057Y-30259904D01*
X63430057Y-30259904D02*
X63525295Y-30212285D01*
X63525295Y-30212285D02*
X63620533Y-30212285D01*
X63620533Y-30212285D02*
X63763390Y-30259904D01*
X63763390Y-30259904D02*
X64334819Y-30831332D01*
X64334819Y-30831332D02*
X64334819Y-30212285D01*
X76733333Y-33216104D02*
X76685714Y-33254200D01*
X76685714Y-33254200D02*
X76542857Y-33292295D01*
X76542857Y-33292295D02*
X76447619Y-33292295D01*
X76447619Y-33292295D02*
X76304762Y-33254200D01*
X76304762Y-33254200D02*
X76209524Y-33178009D01*
X76209524Y-33178009D02*
X76161905Y-33101819D01*
X76161905Y-33101819D02*
X76114286Y-32949438D01*
X76114286Y-32949438D02*
X76114286Y-32835152D01*
X76114286Y-32835152D02*
X76161905Y-32682771D01*
X76161905Y-32682771D02*
X76209524Y-32606580D01*
X76209524Y-32606580D02*
X76304762Y-32530390D01*
X76304762Y-32530390D02*
X76447619Y-32492295D01*
X76447619Y-32492295D02*
X76542857Y-32492295D01*
X76542857Y-32492295D02*
X76685714Y-32530390D01*
X76685714Y-32530390D02*
X76733333Y-32568485D01*
X77590476Y-32492295D02*
X77400000Y-32492295D01*
X77400000Y-32492295D02*
X77304762Y-32530390D01*
X77304762Y-32530390D02*
X77257143Y-32568485D01*
X77257143Y-32568485D02*
X77161905Y-32682771D01*
X77161905Y-32682771D02*
X77114286Y-32835152D01*
X77114286Y-32835152D02*
X77114286Y-33139914D01*
X77114286Y-33139914D02*
X77161905Y-33216104D01*
X77161905Y-33216104D02*
X77209524Y-33254200D01*
X77209524Y-33254200D02*
X77304762Y-33292295D01*
X77304762Y-33292295D02*
X77495238Y-33292295D01*
X77495238Y-33292295D02*
X77590476Y-33254200D01*
X77590476Y-33254200D02*
X77638095Y-33216104D01*
X77638095Y-33216104D02*
X77685714Y-33139914D01*
X77685714Y-33139914D02*
X77685714Y-32949438D01*
X77685714Y-32949438D02*
X77638095Y-32873247D01*
X77638095Y-32873247D02*
X77590476Y-32835152D01*
X77590476Y-32835152D02*
X77495238Y-32797057D01*
X77495238Y-32797057D02*
X77304762Y-32797057D01*
X77304762Y-32797057D02*
X77209524Y-32835152D01*
X77209524Y-32835152D02*
X77161905Y-32873247D01*
X77161905Y-32873247D02*
X77114286Y-32949438D01*
X83149580Y-44322857D02*
X83197200Y-44370476D01*
X83197200Y-44370476D02*
X83244819Y-44513333D01*
X83244819Y-44513333D02*
X83244819Y-44608571D01*
X83244819Y-44608571D02*
X83197200Y-44751428D01*
X83197200Y-44751428D02*
X83101961Y-44846666D01*
X83101961Y-44846666D02*
X83006723Y-44894285D01*
X83006723Y-44894285D02*
X82816247Y-44941904D01*
X82816247Y-44941904D02*
X82673390Y-44941904D01*
X82673390Y-44941904D02*
X82482914Y-44894285D01*
X82482914Y-44894285D02*
X82387676Y-44846666D01*
X82387676Y-44846666D02*
X82292438Y-44751428D01*
X82292438Y-44751428D02*
X82244819Y-44608571D01*
X82244819Y-44608571D02*
X82244819Y-44513333D01*
X82244819Y-44513333D02*
X82292438Y-44370476D01*
X82292438Y-44370476D02*
X82340057Y-44322857D01*
X83244819Y-43370476D02*
X83244819Y-43941904D01*
X83244819Y-43656190D02*
X82244819Y-43656190D01*
X82244819Y-43656190D02*
X82387676Y-43751428D01*
X82387676Y-43751428D02*
X82482914Y-43846666D01*
X82482914Y-43846666D02*
X82530533Y-43941904D01*
X82340057Y-42989523D02*
X82292438Y-42941904D01*
X82292438Y-42941904D02*
X82244819Y-42846666D01*
X82244819Y-42846666D02*
X82244819Y-42608571D01*
X82244819Y-42608571D02*
X82292438Y-42513333D01*
X82292438Y-42513333D02*
X82340057Y-42465714D01*
X82340057Y-42465714D02*
X82435295Y-42418095D01*
X82435295Y-42418095D02*
X82530533Y-42418095D01*
X82530533Y-42418095D02*
X82673390Y-42465714D01*
X82673390Y-42465714D02*
X83244819Y-43037142D01*
X83244819Y-43037142D02*
X83244819Y-42418095D01*
X48738095Y-88754819D02*
X48738095Y-87754819D01*
X48738095Y-88231009D02*
X49309523Y-88231009D01*
X49309523Y-88754819D02*
X49309523Y-87754819D01*
X49738095Y-87850057D02*
X49785714Y-87802438D01*
X49785714Y-87802438D02*
X49880952Y-87754819D01*
X49880952Y-87754819D02*
X50119047Y-87754819D01*
X50119047Y-87754819D02*
X50214285Y-87802438D01*
X50214285Y-87802438D02*
X50261904Y-87850057D01*
X50261904Y-87850057D02*
X50309523Y-87945295D01*
X50309523Y-87945295D02*
X50309523Y-88040533D01*
X50309523Y-88040533D02*
X50261904Y-88183390D01*
X50261904Y-88183390D02*
X49690476Y-88754819D01*
X49690476Y-88754819D02*
X50309523Y-88754819D01*
X171808705Y-96407200D02*
X171951562Y-96454819D01*
X171951562Y-96454819D02*
X172189657Y-96454819D01*
X172189657Y-96454819D02*
X172284895Y-96407200D01*
X172284895Y-96407200D02*
X172332514Y-96359580D01*
X172332514Y-96359580D02*
X172380133Y-96264342D01*
X172380133Y-96264342D02*
X172380133Y-96169104D01*
X172380133Y-96169104D02*
X172332514Y-96073866D01*
X172332514Y-96073866D02*
X172284895Y-96026247D01*
X172284895Y-96026247D02*
X172189657Y-95978628D01*
X172189657Y-95978628D02*
X171999181Y-95931009D01*
X171999181Y-95931009D02*
X171903943Y-95883390D01*
X171903943Y-95883390D02*
X171856324Y-95835771D01*
X171856324Y-95835771D02*
X171808705Y-95740533D01*
X171808705Y-95740533D02*
X171808705Y-95645295D01*
X171808705Y-95645295D02*
X171856324Y-95550057D01*
X171856324Y-95550057D02*
X171903943Y-95502438D01*
X171903943Y-95502438D02*
X171999181Y-95454819D01*
X171999181Y-95454819D02*
X172237276Y-95454819D01*
X172237276Y-95454819D02*
X172380133Y-95502438D01*
X172713467Y-95454819D02*
X172951562Y-96454819D01*
X172951562Y-96454819D02*
X173142038Y-95740533D01*
X173142038Y-95740533D02*
X173332514Y-96454819D01*
X173332514Y-96454819D02*
X173570610Y-95454819D01*
X173903943Y-95550057D02*
X173951562Y-95502438D01*
X173951562Y-95502438D02*
X174046800Y-95454819D01*
X174046800Y-95454819D02*
X174284895Y-95454819D01*
X174284895Y-95454819D02*
X174380133Y-95502438D01*
X174380133Y-95502438D02*
X174427752Y-95550057D01*
X174427752Y-95550057D02*
X174475371Y-95645295D01*
X174475371Y-95645295D02*
X174475371Y-95740533D01*
X174475371Y-95740533D02*
X174427752Y-95883390D01*
X174427752Y-95883390D02*
X173856324Y-96454819D01*
X173856324Y-96454819D02*
X174475371Y-96454819D01*
X174665848Y-96550057D02*
X175427752Y-96550057D01*
X176142038Y-96454819D02*
X175665848Y-96454819D01*
X175665848Y-96454819D02*
X175665848Y-95454819D01*
X176475372Y-96454819D02*
X176475372Y-95454819D01*
X177046800Y-96454819D02*
X176618229Y-95883390D01*
X177046800Y-95454819D02*
X176475372Y-96026247D01*
X177999181Y-96454819D02*
X177427753Y-96454819D01*
X177713467Y-96454819D02*
X177713467Y-95454819D01*
X177713467Y-95454819D02*
X177618229Y-95597676D01*
X177618229Y-95597676D02*
X177522991Y-95692914D01*
X177522991Y-95692914D02*
X177427753Y-95740533D01*
X56809524Y-64398896D02*
X56952381Y-64446515D01*
X56952381Y-64446515D02*
X57190476Y-64446515D01*
X57190476Y-64446515D02*
X57285714Y-64398896D01*
X57285714Y-64398896D02*
X57333333Y-64351276D01*
X57333333Y-64351276D02*
X57380952Y-64256038D01*
X57380952Y-64256038D02*
X57380952Y-64160800D01*
X57380952Y-64160800D02*
X57333333Y-64065562D01*
X57333333Y-64065562D02*
X57285714Y-64017943D01*
X57285714Y-64017943D02*
X57190476Y-63970324D01*
X57190476Y-63970324D02*
X57000000Y-63922705D01*
X57000000Y-63922705D02*
X56904762Y-63875086D01*
X56904762Y-63875086D02*
X56857143Y-63827467D01*
X56857143Y-63827467D02*
X56809524Y-63732229D01*
X56809524Y-63732229D02*
X56809524Y-63636991D01*
X56809524Y-63636991D02*
X56857143Y-63541753D01*
X56857143Y-63541753D02*
X56904762Y-63494134D01*
X56904762Y-63494134D02*
X57000000Y-63446515D01*
X57000000Y-63446515D02*
X57238095Y-63446515D01*
X57238095Y-63446515D02*
X57380952Y-63494134D01*
X57714286Y-63446515D02*
X57952381Y-64446515D01*
X57952381Y-64446515D02*
X58142857Y-63732229D01*
X58142857Y-63732229D02*
X58333333Y-64446515D01*
X58333333Y-64446515D02*
X58571429Y-63446515D01*
X59095238Y-63875086D02*
X59000000Y-63827467D01*
X59000000Y-63827467D02*
X58952381Y-63779848D01*
X58952381Y-63779848D02*
X58904762Y-63684610D01*
X58904762Y-63684610D02*
X58904762Y-63636991D01*
X58904762Y-63636991D02*
X58952381Y-63541753D01*
X58952381Y-63541753D02*
X59000000Y-63494134D01*
X59000000Y-63494134D02*
X59095238Y-63446515D01*
X59095238Y-63446515D02*
X59285714Y-63446515D01*
X59285714Y-63446515D02*
X59380952Y-63494134D01*
X59380952Y-63494134D02*
X59428571Y-63541753D01*
X59428571Y-63541753D02*
X59476190Y-63636991D01*
X59476190Y-63636991D02*
X59476190Y-63684610D01*
X59476190Y-63684610D02*
X59428571Y-63779848D01*
X59428571Y-63779848D02*
X59380952Y-63827467D01*
X59380952Y-63827467D02*
X59285714Y-63875086D01*
X59285714Y-63875086D02*
X59095238Y-63875086D01*
X59095238Y-63875086D02*
X59000000Y-63922705D01*
X59000000Y-63922705D02*
X58952381Y-63970324D01*
X58952381Y-63970324D02*
X58904762Y-64065562D01*
X58904762Y-64065562D02*
X58904762Y-64256038D01*
X58904762Y-64256038D02*
X58952381Y-64351276D01*
X58952381Y-64351276D02*
X59000000Y-64398896D01*
X59000000Y-64398896D02*
X59095238Y-64446515D01*
X59095238Y-64446515D02*
X59285714Y-64446515D01*
X59285714Y-64446515D02*
X59380952Y-64398896D01*
X59380952Y-64398896D02*
X59428571Y-64351276D01*
X59428571Y-64351276D02*
X59476190Y-64256038D01*
X59476190Y-64256038D02*
X59476190Y-64065562D01*
X59476190Y-64065562D02*
X59428571Y-63970324D01*
X59428571Y-63970324D02*
X59380952Y-63922705D01*
X59380952Y-63922705D02*
X59285714Y-63875086D01*
X59666667Y-64541753D02*
X60428571Y-64541753D01*
X60666667Y-64446515D02*
X60666667Y-63446515D01*
X60666667Y-63446515D02*
X60904762Y-63446515D01*
X60904762Y-63446515D02*
X61047619Y-63494134D01*
X61047619Y-63494134D02*
X61142857Y-63589372D01*
X61142857Y-63589372D02*
X61190476Y-63684610D01*
X61190476Y-63684610D02*
X61238095Y-63875086D01*
X61238095Y-63875086D02*
X61238095Y-64017943D01*
X61238095Y-64017943D02*
X61190476Y-64208419D01*
X61190476Y-64208419D02*
X61142857Y-64303657D01*
X61142857Y-64303657D02*
X61047619Y-64398896D01*
X61047619Y-64398896D02*
X60904762Y-64446515D01*
X60904762Y-64446515D02*
X60666667Y-64446515D01*
X61666667Y-64446515D02*
X61666667Y-63446515D01*
X61666667Y-63446515D02*
X62047619Y-63446515D01*
X62047619Y-63446515D02*
X62142857Y-63494134D01*
X62142857Y-63494134D02*
X62190476Y-63541753D01*
X62190476Y-63541753D02*
X62238095Y-63636991D01*
X62238095Y-63636991D02*
X62238095Y-63779848D01*
X62238095Y-63779848D02*
X62190476Y-63875086D01*
X62190476Y-63875086D02*
X62142857Y-63922705D01*
X62142857Y-63922705D02*
X62047619Y-63970324D01*
X62047619Y-63970324D02*
X61666667Y-63970324D01*
X63190476Y-64446515D02*
X62619048Y-64446515D01*
X62904762Y-64446515D02*
X62904762Y-63446515D01*
X62904762Y-63446515D02*
X62809524Y-63589372D01*
X62809524Y-63589372D02*
X62714286Y-63684610D01*
X62714286Y-63684610D02*
X62619048Y-63732229D01*
X144713333Y-52737200D02*
X144856190Y-52784819D01*
X144856190Y-52784819D02*
X145094285Y-52784819D01*
X145094285Y-52784819D02*
X145189523Y-52737200D01*
X145189523Y-52737200D02*
X145237142Y-52689580D01*
X145237142Y-52689580D02*
X145284761Y-52594342D01*
X145284761Y-52594342D02*
X145284761Y-52499104D01*
X145284761Y-52499104D02*
X145237142Y-52403866D01*
X145237142Y-52403866D02*
X145189523Y-52356247D01*
X145189523Y-52356247D02*
X145094285Y-52308628D01*
X145094285Y-52308628D02*
X144903809Y-52261009D01*
X144903809Y-52261009D02*
X144808571Y-52213390D01*
X144808571Y-52213390D02*
X144760952Y-52165771D01*
X144760952Y-52165771D02*
X144713333Y-52070533D01*
X144713333Y-52070533D02*
X144713333Y-51975295D01*
X144713333Y-51975295D02*
X144760952Y-51880057D01*
X144760952Y-51880057D02*
X144808571Y-51832438D01*
X144808571Y-51832438D02*
X144903809Y-51784819D01*
X144903809Y-51784819D02*
X145141904Y-51784819D01*
X145141904Y-51784819D02*
X145284761Y-51832438D01*
X145618095Y-51784819D02*
X145856190Y-52784819D01*
X145856190Y-52784819D02*
X146046666Y-52070533D01*
X146046666Y-52070533D02*
X146237142Y-52784819D01*
X146237142Y-52784819D02*
X146475238Y-51784819D01*
X147379999Y-52784819D02*
X146808571Y-52784819D01*
X147094285Y-52784819D02*
X147094285Y-51784819D01*
X147094285Y-51784819D02*
X146999047Y-51927676D01*
X146999047Y-51927676D02*
X146903809Y-52022914D01*
X146903809Y-52022914D02*
X146808571Y-52070533D01*
X147760952Y-51880057D02*
X147808571Y-51832438D01*
X147808571Y-51832438D02*
X147903809Y-51784819D01*
X147903809Y-51784819D02*
X148141904Y-51784819D01*
X148141904Y-51784819D02*
X148237142Y-51832438D01*
X148237142Y-51832438D02*
X148284761Y-51880057D01*
X148284761Y-51880057D02*
X148332380Y-51975295D01*
X148332380Y-51975295D02*
X148332380Y-52070533D01*
X148332380Y-52070533D02*
X148284761Y-52213390D01*
X148284761Y-52213390D02*
X147713333Y-52784819D01*
X147713333Y-52784819D02*
X148332380Y-52784819D01*
X148522857Y-52880057D02*
X149284761Y-52880057D01*
X149380000Y-51784819D02*
X149951428Y-51784819D01*
X149665714Y-52784819D02*
X149665714Y-51784819D01*
X150284762Y-52784819D02*
X150284762Y-51784819D01*
X150284762Y-52261009D02*
X150856190Y-52261009D01*
X150856190Y-52784819D02*
X150856190Y-51784819D01*
X151903809Y-52784819D02*
X151570476Y-52308628D01*
X151332381Y-52784819D02*
X151332381Y-51784819D01*
X151332381Y-51784819D02*
X151713333Y-51784819D01*
X151713333Y-51784819D02*
X151808571Y-51832438D01*
X151808571Y-51832438D02*
X151856190Y-51880057D01*
X151856190Y-51880057D02*
X151903809Y-51975295D01*
X151903809Y-51975295D02*
X151903809Y-52118152D01*
X151903809Y-52118152D02*
X151856190Y-52213390D01*
X151856190Y-52213390D02*
X151808571Y-52261009D01*
X151808571Y-52261009D02*
X151713333Y-52308628D01*
X151713333Y-52308628D02*
X151332381Y-52308628D01*
X152522857Y-51784819D02*
X152713333Y-51784819D01*
X152713333Y-51784819D02*
X152808571Y-51832438D01*
X152808571Y-51832438D02*
X152903809Y-51927676D01*
X152903809Y-51927676D02*
X152951428Y-52118152D01*
X152951428Y-52118152D02*
X152951428Y-52451485D01*
X152951428Y-52451485D02*
X152903809Y-52641961D01*
X152903809Y-52641961D02*
X152808571Y-52737200D01*
X152808571Y-52737200D02*
X152713333Y-52784819D01*
X152713333Y-52784819D02*
X152522857Y-52784819D01*
X152522857Y-52784819D02*
X152427619Y-52737200D01*
X152427619Y-52737200D02*
X152332381Y-52641961D01*
X152332381Y-52641961D02*
X152284762Y-52451485D01*
X152284762Y-52451485D02*
X152284762Y-52118152D01*
X152284762Y-52118152D02*
X152332381Y-51927676D01*
X152332381Y-51927676D02*
X152427619Y-51832438D01*
X152427619Y-51832438D02*
X152522857Y-51784819D01*
X153284762Y-51784819D02*
X153522857Y-52784819D01*
X153522857Y-52784819D02*
X153713333Y-52070533D01*
X153713333Y-52070533D02*
X153903809Y-52784819D01*
X153903809Y-52784819D02*
X154141905Y-51784819D01*
X155046666Y-52784819D02*
X154475238Y-52784819D01*
X154760952Y-52784819D02*
X154760952Y-51784819D01*
X154760952Y-51784819D02*
X154665714Y-51927676D01*
X154665714Y-51927676D02*
X154570476Y-52022914D01*
X154570476Y-52022914D02*
X154475238Y-52070533D01*
X100481580Y-37374666D02*
X100529200Y-37422285D01*
X100529200Y-37422285D02*
X100576819Y-37565142D01*
X100576819Y-37565142D02*
X100576819Y-37660380D01*
X100576819Y-37660380D02*
X100529200Y-37803237D01*
X100529200Y-37803237D02*
X100433961Y-37898475D01*
X100433961Y-37898475D02*
X100338723Y-37946094D01*
X100338723Y-37946094D02*
X100148247Y-37993713D01*
X100148247Y-37993713D02*
X100005390Y-37993713D01*
X100005390Y-37993713D02*
X99814914Y-37946094D01*
X99814914Y-37946094D02*
X99719676Y-37898475D01*
X99719676Y-37898475D02*
X99624438Y-37803237D01*
X99624438Y-37803237D02*
X99576819Y-37660380D01*
X99576819Y-37660380D02*
X99576819Y-37565142D01*
X99576819Y-37565142D02*
X99624438Y-37422285D01*
X99624438Y-37422285D02*
X99672057Y-37374666D01*
X99576819Y-37041332D02*
X99576819Y-36422285D01*
X99576819Y-36422285D02*
X99957771Y-36755618D01*
X99957771Y-36755618D02*
X99957771Y-36612761D01*
X99957771Y-36612761D02*
X100005390Y-36517523D01*
X100005390Y-36517523D02*
X100053009Y-36469904D01*
X100053009Y-36469904D02*
X100148247Y-36422285D01*
X100148247Y-36422285D02*
X100386342Y-36422285D01*
X100386342Y-36422285D02*
X100481580Y-36469904D01*
X100481580Y-36469904D02*
X100529200Y-36517523D01*
X100529200Y-36517523D02*
X100576819Y-36612761D01*
X100576819Y-36612761D02*
X100576819Y-36898475D01*
X100576819Y-36898475D02*
X100529200Y-36993713D01*
X100529200Y-36993713D02*
X100481580Y-37041332D01*
X75213333Y-34884819D02*
X74880000Y-34408628D01*
X74641905Y-34884819D02*
X74641905Y-33884819D01*
X74641905Y-33884819D02*
X75022857Y-33884819D01*
X75022857Y-33884819D02*
X75118095Y-33932438D01*
X75118095Y-33932438D02*
X75165714Y-33980057D01*
X75165714Y-33980057D02*
X75213333Y-34075295D01*
X75213333Y-34075295D02*
X75213333Y-34218152D01*
X75213333Y-34218152D02*
X75165714Y-34313390D01*
X75165714Y-34313390D02*
X75118095Y-34361009D01*
X75118095Y-34361009D02*
X75022857Y-34408628D01*
X75022857Y-34408628D02*
X74641905Y-34408628D01*
X75546667Y-33884819D02*
X76213333Y-33884819D01*
X76213333Y-33884819D02*
X75784762Y-34884819D01*
X152238095Y-34954819D02*
X152238095Y-33954819D01*
X152238095Y-34431009D02*
X152809523Y-34431009D01*
X152809523Y-34954819D02*
X152809523Y-33954819D01*
X153190476Y-33954819D02*
X153809523Y-33954819D01*
X153809523Y-33954819D02*
X153476190Y-34335771D01*
X153476190Y-34335771D02*
X153619047Y-34335771D01*
X153619047Y-34335771D02*
X153714285Y-34383390D01*
X153714285Y-34383390D02*
X153761904Y-34431009D01*
X153761904Y-34431009D02*
X153809523Y-34526247D01*
X153809523Y-34526247D02*
X153809523Y-34764342D01*
X153809523Y-34764342D02*
X153761904Y-34859580D01*
X153761904Y-34859580D02*
X153714285Y-34907200D01*
X153714285Y-34907200D02*
X153619047Y-34954819D01*
X153619047Y-34954819D02*
X153333333Y-34954819D01*
X153333333Y-34954819D02*
X153238095Y-34907200D01*
X153238095Y-34907200D02*
X153190476Y-34859580D01*
X66501819Y-44499666D02*
X66025628Y-44832999D01*
X66501819Y-45071094D02*
X65501819Y-45071094D01*
X65501819Y-45071094D02*
X65501819Y-44690142D01*
X65501819Y-44690142D02*
X65549438Y-44594904D01*
X65549438Y-44594904D02*
X65597057Y-44547285D01*
X65597057Y-44547285D02*
X65692295Y-44499666D01*
X65692295Y-44499666D02*
X65835152Y-44499666D01*
X65835152Y-44499666D02*
X65930390Y-44547285D01*
X65930390Y-44547285D02*
X65978009Y-44594904D01*
X65978009Y-44594904D02*
X66025628Y-44690142D01*
X66025628Y-44690142D02*
X66025628Y-45071094D01*
X65501819Y-43642523D02*
X65501819Y-43832999D01*
X65501819Y-43832999D02*
X65549438Y-43928237D01*
X65549438Y-43928237D02*
X65597057Y-43975856D01*
X65597057Y-43975856D02*
X65739914Y-44071094D01*
X65739914Y-44071094D02*
X65930390Y-44118713D01*
X65930390Y-44118713D02*
X66311342Y-44118713D01*
X66311342Y-44118713D02*
X66406580Y-44071094D01*
X66406580Y-44071094D02*
X66454200Y-44023475D01*
X66454200Y-44023475D02*
X66501819Y-43928237D01*
X66501819Y-43928237D02*
X66501819Y-43737761D01*
X66501819Y-43737761D02*
X66454200Y-43642523D01*
X66454200Y-43642523D02*
X66406580Y-43594904D01*
X66406580Y-43594904D02*
X66311342Y-43547285D01*
X66311342Y-43547285D02*
X66073247Y-43547285D01*
X66073247Y-43547285D02*
X65978009Y-43594904D01*
X65978009Y-43594904D02*
X65930390Y-43642523D01*
X65930390Y-43642523D02*
X65882771Y-43737761D01*
X65882771Y-43737761D02*
X65882771Y-43928237D01*
X65882771Y-43928237D02*
X65930390Y-44023475D01*
X65930390Y-44023475D02*
X65978009Y-44071094D01*
X65978009Y-44071094D02*
X66073247Y-44118713D01*
X71849333Y-48883580D02*
X71801714Y-48931200D01*
X71801714Y-48931200D02*
X71658857Y-48978819D01*
X71658857Y-48978819D02*
X71563619Y-48978819D01*
X71563619Y-48978819D02*
X71420762Y-48931200D01*
X71420762Y-48931200D02*
X71325524Y-48835961D01*
X71325524Y-48835961D02*
X71277905Y-48740723D01*
X71277905Y-48740723D02*
X71230286Y-48550247D01*
X71230286Y-48550247D02*
X71230286Y-48407390D01*
X71230286Y-48407390D02*
X71277905Y-48216914D01*
X71277905Y-48216914D02*
X71325524Y-48121676D01*
X71325524Y-48121676D02*
X71420762Y-48026438D01*
X71420762Y-48026438D02*
X71563619Y-47978819D01*
X71563619Y-47978819D02*
X71658857Y-47978819D01*
X71658857Y-47978819D02*
X71801714Y-48026438D01*
X71801714Y-48026438D02*
X71849333Y-48074057D01*
X72754095Y-47978819D02*
X72277905Y-47978819D01*
X72277905Y-47978819D02*
X72230286Y-48455009D01*
X72230286Y-48455009D02*
X72277905Y-48407390D01*
X72277905Y-48407390D02*
X72373143Y-48359771D01*
X72373143Y-48359771D02*
X72611238Y-48359771D01*
X72611238Y-48359771D02*
X72706476Y-48407390D01*
X72706476Y-48407390D02*
X72754095Y-48455009D01*
X72754095Y-48455009D02*
X72801714Y-48550247D01*
X72801714Y-48550247D02*
X72801714Y-48788342D01*
X72801714Y-48788342D02*
X72754095Y-48883580D01*
X72754095Y-48883580D02*
X72706476Y-48931200D01*
X72706476Y-48931200D02*
X72611238Y-48978819D01*
X72611238Y-48978819D02*
X72373143Y-48978819D01*
X72373143Y-48978819D02*
X72277905Y-48931200D01*
X72277905Y-48931200D02*
X72230286Y-48883580D01*
X115238095Y-140754819D02*
X115238095Y-139754819D01*
X115238095Y-140231009D02*
X115809523Y-140231009D01*
X115809523Y-140754819D02*
X115809523Y-139754819D01*
X116428571Y-140183390D02*
X116333333Y-140135771D01*
X116333333Y-140135771D02*
X116285714Y-140088152D01*
X116285714Y-140088152D02*
X116238095Y-139992914D01*
X116238095Y-139992914D02*
X116238095Y-139945295D01*
X116238095Y-139945295D02*
X116285714Y-139850057D01*
X116285714Y-139850057D02*
X116333333Y-139802438D01*
X116333333Y-139802438D02*
X116428571Y-139754819D01*
X116428571Y-139754819D02*
X116619047Y-139754819D01*
X116619047Y-139754819D02*
X116714285Y-139802438D01*
X116714285Y-139802438D02*
X116761904Y-139850057D01*
X116761904Y-139850057D02*
X116809523Y-139945295D01*
X116809523Y-139945295D02*
X116809523Y-139992914D01*
X116809523Y-139992914D02*
X116761904Y-140088152D01*
X116761904Y-140088152D02*
X116714285Y-140135771D01*
X116714285Y-140135771D02*
X116619047Y-140183390D01*
X116619047Y-140183390D02*
X116428571Y-140183390D01*
X116428571Y-140183390D02*
X116333333Y-140231009D01*
X116333333Y-140231009D02*
X116285714Y-140278628D01*
X116285714Y-140278628D02*
X116238095Y-140373866D01*
X116238095Y-140373866D02*
X116238095Y-140564342D01*
X116238095Y-140564342D02*
X116285714Y-140659580D01*
X116285714Y-140659580D02*
X116333333Y-140707200D01*
X116333333Y-140707200D02*
X116428571Y-140754819D01*
X116428571Y-140754819D02*
X116619047Y-140754819D01*
X116619047Y-140754819D02*
X116714285Y-140707200D01*
X116714285Y-140707200D02*
X116761904Y-140659580D01*
X116761904Y-140659580D02*
X116809523Y-140564342D01*
X116809523Y-140564342D02*
X116809523Y-140373866D01*
X116809523Y-140373866D02*
X116761904Y-140278628D01*
X116761904Y-140278628D02*
X116714285Y-140231009D01*
X116714285Y-140231009D02*
X116619047Y-140183390D01*
X85737142Y-44331580D02*
X85689523Y-44379200D01*
X85689523Y-44379200D02*
X85546666Y-44426819D01*
X85546666Y-44426819D02*
X85451428Y-44426819D01*
X85451428Y-44426819D02*
X85308571Y-44379200D01*
X85308571Y-44379200D02*
X85213333Y-44283961D01*
X85213333Y-44283961D02*
X85165714Y-44188723D01*
X85165714Y-44188723D02*
X85118095Y-43998247D01*
X85118095Y-43998247D02*
X85118095Y-43855390D01*
X85118095Y-43855390D02*
X85165714Y-43664914D01*
X85165714Y-43664914D02*
X85213333Y-43569676D01*
X85213333Y-43569676D02*
X85308571Y-43474438D01*
X85308571Y-43474438D02*
X85451428Y-43426819D01*
X85451428Y-43426819D02*
X85546666Y-43426819D01*
X85546666Y-43426819D02*
X85689523Y-43474438D01*
X85689523Y-43474438D02*
X85737142Y-43522057D01*
X86689523Y-44426819D02*
X86118095Y-44426819D01*
X86403809Y-44426819D02*
X86403809Y-43426819D01*
X86403809Y-43426819D02*
X86308571Y-43569676D01*
X86308571Y-43569676D02*
X86213333Y-43664914D01*
X86213333Y-43664914D02*
X86118095Y-43712533D01*
X87022857Y-43426819D02*
X87641904Y-43426819D01*
X87641904Y-43426819D02*
X87308571Y-43807771D01*
X87308571Y-43807771D02*
X87451428Y-43807771D01*
X87451428Y-43807771D02*
X87546666Y-43855390D01*
X87546666Y-43855390D02*
X87594285Y-43903009D01*
X87594285Y-43903009D02*
X87641904Y-43998247D01*
X87641904Y-43998247D02*
X87641904Y-44236342D01*
X87641904Y-44236342D02*
X87594285Y-44331580D01*
X87594285Y-44331580D02*
X87546666Y-44379200D01*
X87546666Y-44379200D02*
X87451428Y-44426819D01*
X87451428Y-44426819D02*
X87165714Y-44426819D01*
X87165714Y-44426819D02*
X87070476Y-44379200D01*
X87070476Y-44379200D02*
X87022857Y-44331580D01*
X88272095Y-31214819D02*
X88272095Y-32024342D01*
X88272095Y-32024342D02*
X88319714Y-32119580D01*
X88319714Y-32119580D02*
X88367333Y-32167200D01*
X88367333Y-32167200D02*
X88462571Y-32214819D01*
X88462571Y-32214819D02*
X88653047Y-32214819D01*
X88653047Y-32214819D02*
X88748285Y-32167200D01*
X88748285Y-32167200D02*
X88795904Y-32119580D01*
X88795904Y-32119580D02*
X88843523Y-32024342D01*
X88843523Y-32024342D02*
X88843523Y-31214819D01*
X89843523Y-32214819D02*
X89272095Y-32214819D01*
X89557809Y-32214819D02*
X89557809Y-31214819D01*
X89557809Y-31214819D02*
X89462571Y-31357676D01*
X89462571Y-31357676D02*
X89367333Y-31452914D01*
X89367333Y-31452914D02*
X89272095Y-31500533D01*
X76713333Y-29725180D02*
X76713333Y-29010895D01*
X76713333Y-29010895D02*
X76760952Y-28868038D01*
X76760952Y-28868038D02*
X76856190Y-28772800D01*
X76856190Y-28772800D02*
X76999047Y-28725180D01*
X76999047Y-28725180D02*
X77094285Y-28725180D01*
X75713333Y-28725180D02*
X76284761Y-28725180D01*
X75999047Y-28725180D02*
X75999047Y-29725180D01*
X75999047Y-29725180D02*
X76094285Y-29582323D01*
X76094285Y-29582323D02*
X76189523Y-29487085D01*
X76189523Y-29487085D02*
X76284761Y-29439466D01*
X92994285Y-36966104D02*
X92965713Y-37004200D01*
X92965713Y-37004200D02*
X92879999Y-37042295D01*
X92879999Y-37042295D02*
X92822856Y-37042295D01*
X92822856Y-37042295D02*
X92737142Y-37004200D01*
X92737142Y-37004200D02*
X92679999Y-36928009D01*
X92679999Y-36928009D02*
X92651428Y-36851819D01*
X92651428Y-36851819D02*
X92622856Y-36699438D01*
X92622856Y-36699438D02*
X92622856Y-36585152D01*
X92622856Y-36585152D02*
X92651428Y-36432771D01*
X92651428Y-36432771D02*
X92679999Y-36356580D01*
X92679999Y-36356580D02*
X92737142Y-36280390D01*
X92737142Y-36280390D02*
X92822856Y-36242295D01*
X92822856Y-36242295D02*
X92879999Y-36242295D01*
X92879999Y-36242295D02*
X92965713Y-36280390D01*
X92965713Y-36280390D02*
X92994285Y-36318485D01*
X93565713Y-37042295D02*
X93222856Y-37042295D01*
X93394285Y-37042295D02*
X93394285Y-36242295D01*
X93394285Y-36242295D02*
X93337142Y-36356580D01*
X93337142Y-36356580D02*
X93279999Y-36432771D01*
X93279999Y-36432771D02*
X93222856Y-36470866D01*
X94080000Y-36508961D02*
X94080000Y-37042295D01*
X93937142Y-36204200D02*
X93794285Y-36775628D01*
X93794285Y-36775628D02*
X94165714Y-36775628D01*
X196642038Y-53407200D02*
X196784895Y-53454819D01*
X196784895Y-53454819D02*
X197022990Y-53454819D01*
X197022990Y-53454819D02*
X197118228Y-53407200D01*
X197118228Y-53407200D02*
X197165847Y-53359580D01*
X197165847Y-53359580D02*
X197213466Y-53264342D01*
X197213466Y-53264342D02*
X197213466Y-53169104D01*
X197213466Y-53169104D02*
X197165847Y-53073866D01*
X197165847Y-53073866D02*
X197118228Y-53026247D01*
X197118228Y-53026247D02*
X197022990Y-52978628D01*
X197022990Y-52978628D02*
X196832514Y-52931009D01*
X196832514Y-52931009D02*
X196737276Y-52883390D01*
X196737276Y-52883390D02*
X196689657Y-52835771D01*
X196689657Y-52835771D02*
X196642038Y-52740533D01*
X196642038Y-52740533D02*
X196642038Y-52645295D01*
X196642038Y-52645295D02*
X196689657Y-52550057D01*
X196689657Y-52550057D02*
X196737276Y-52502438D01*
X196737276Y-52502438D02*
X196832514Y-52454819D01*
X196832514Y-52454819D02*
X197070609Y-52454819D01*
X197070609Y-52454819D02*
X197213466Y-52502438D01*
X197546800Y-52454819D02*
X197784895Y-53454819D01*
X197784895Y-53454819D02*
X197975371Y-52740533D01*
X197975371Y-52740533D02*
X198165847Y-53454819D01*
X198165847Y-53454819D02*
X198403943Y-52454819D01*
X199261085Y-52454819D02*
X198784895Y-52454819D01*
X198784895Y-52454819D02*
X198737276Y-52931009D01*
X198737276Y-52931009D02*
X198784895Y-52883390D01*
X198784895Y-52883390D02*
X198880133Y-52835771D01*
X198880133Y-52835771D02*
X199118228Y-52835771D01*
X199118228Y-52835771D02*
X199213466Y-52883390D01*
X199213466Y-52883390D02*
X199261085Y-52931009D01*
X199261085Y-52931009D02*
X199308704Y-53026247D01*
X199308704Y-53026247D02*
X199308704Y-53264342D01*
X199308704Y-53264342D02*
X199261085Y-53359580D01*
X199261085Y-53359580D02*
X199213466Y-53407200D01*
X199213466Y-53407200D02*
X199118228Y-53454819D01*
X199118228Y-53454819D02*
X198880133Y-53454819D01*
X198880133Y-53454819D02*
X198784895Y-53407200D01*
X198784895Y-53407200D02*
X198737276Y-53359580D01*
X199499181Y-53550057D02*
X200261085Y-53550057D01*
X200499181Y-53454819D02*
X200499181Y-52454819D01*
X200499181Y-52454819D02*
X200832514Y-53169104D01*
X200832514Y-53169104D02*
X201165847Y-52454819D01*
X201165847Y-52454819D02*
X201165847Y-53454819D01*
X201642038Y-53454819D02*
X201642038Y-52454819D01*
X201642038Y-52454819D02*
X202022990Y-52454819D01*
X202022990Y-52454819D02*
X202118228Y-52502438D01*
X202118228Y-52502438D02*
X202165847Y-52550057D01*
X202165847Y-52550057D02*
X202213466Y-52645295D01*
X202213466Y-52645295D02*
X202213466Y-52788152D01*
X202213466Y-52788152D02*
X202165847Y-52883390D01*
X202165847Y-52883390D02*
X202118228Y-52931009D01*
X202118228Y-52931009D02*
X202022990Y-52978628D01*
X202022990Y-52978628D02*
X201642038Y-52978628D01*
X203165847Y-53454819D02*
X202594419Y-53454819D01*
X202880133Y-53454819D02*
X202880133Y-52454819D01*
X202880133Y-52454819D02*
X202784895Y-52597676D01*
X202784895Y-52597676D02*
X202689657Y-52692914D01*
X202689657Y-52692914D02*
X202594419Y-52740533D01*
X172155686Y-38407761D02*
X172298543Y-38455380D01*
X172298543Y-38455380D02*
X172536638Y-38455380D01*
X172536638Y-38455380D02*
X172631876Y-38407761D01*
X172631876Y-38407761D02*
X172679495Y-38360141D01*
X172679495Y-38360141D02*
X172727114Y-38264903D01*
X172727114Y-38264903D02*
X172727114Y-38169665D01*
X172727114Y-38169665D02*
X172679495Y-38074427D01*
X172679495Y-38074427D02*
X172631876Y-38026808D01*
X172631876Y-38026808D02*
X172536638Y-37979189D01*
X172536638Y-37979189D02*
X172346162Y-37931570D01*
X172346162Y-37931570D02*
X172250924Y-37883951D01*
X172250924Y-37883951D02*
X172203305Y-37836332D01*
X172203305Y-37836332D02*
X172155686Y-37741094D01*
X172155686Y-37741094D02*
X172155686Y-37645856D01*
X172155686Y-37645856D02*
X172203305Y-37550618D01*
X172203305Y-37550618D02*
X172250924Y-37502999D01*
X172250924Y-37502999D02*
X172346162Y-37455380D01*
X172346162Y-37455380D02*
X172584257Y-37455380D01*
X172584257Y-37455380D02*
X172727114Y-37502999D01*
X173060448Y-37455380D02*
X173298543Y-38455380D01*
X173298543Y-38455380D02*
X173489019Y-37741094D01*
X173489019Y-37741094D02*
X173679495Y-38455380D01*
X173679495Y-38455380D02*
X173917591Y-37455380D01*
X174727114Y-37455380D02*
X174536638Y-37455380D01*
X174536638Y-37455380D02*
X174441400Y-37502999D01*
X174441400Y-37502999D02*
X174393781Y-37550618D01*
X174393781Y-37550618D02*
X174298543Y-37693475D01*
X174298543Y-37693475D02*
X174250924Y-37883951D01*
X174250924Y-37883951D02*
X174250924Y-38264903D01*
X174250924Y-38264903D02*
X174298543Y-38360141D01*
X174298543Y-38360141D02*
X174346162Y-38407761D01*
X174346162Y-38407761D02*
X174441400Y-38455380D01*
X174441400Y-38455380D02*
X174631876Y-38455380D01*
X174631876Y-38455380D02*
X174727114Y-38407761D01*
X174727114Y-38407761D02*
X174774733Y-38360141D01*
X174774733Y-38360141D02*
X174822352Y-38264903D01*
X174822352Y-38264903D02*
X174822352Y-38026808D01*
X174822352Y-38026808D02*
X174774733Y-37931570D01*
X174774733Y-37931570D02*
X174727114Y-37883951D01*
X174727114Y-37883951D02*
X174631876Y-37836332D01*
X174631876Y-37836332D02*
X174441400Y-37836332D01*
X174441400Y-37836332D02*
X174346162Y-37883951D01*
X174346162Y-37883951D02*
X174298543Y-37931570D01*
X174298543Y-37931570D02*
X174250924Y-38026808D01*
X175012829Y-38550618D02*
X175774733Y-38550618D01*
X176012829Y-38455380D02*
X176012829Y-37455380D01*
X176012829Y-37455380D02*
X176250924Y-37455380D01*
X176250924Y-37455380D02*
X176393781Y-37502999D01*
X176393781Y-37502999D02*
X176489019Y-37598237D01*
X176489019Y-37598237D02*
X176536638Y-37693475D01*
X176536638Y-37693475D02*
X176584257Y-37883951D01*
X176584257Y-37883951D02*
X176584257Y-38026808D01*
X176584257Y-38026808D02*
X176536638Y-38217284D01*
X176536638Y-38217284D02*
X176489019Y-38312522D01*
X176489019Y-38312522D02*
X176393781Y-38407761D01*
X176393781Y-38407761D02*
X176250924Y-38455380D01*
X176250924Y-38455380D02*
X176012829Y-38455380D01*
X177012829Y-38455380D02*
X177012829Y-37455380D01*
X178012828Y-38455380D02*
X177441400Y-38455380D01*
X177727114Y-38455380D02*
X177727114Y-37455380D01*
X177727114Y-37455380D02*
X177631876Y-37598237D01*
X177631876Y-37598237D02*
X177536638Y-37693475D01*
X177536638Y-37693475D02*
X177441400Y-37741094D01*
X134407351Y-136747780D02*
X134454970Y-136604923D01*
X134454970Y-136604923D02*
X134454970Y-136366828D01*
X134454970Y-136366828D02*
X134407351Y-136271590D01*
X134407351Y-136271590D02*
X134359731Y-136223971D01*
X134359731Y-136223971D02*
X134264493Y-136176352D01*
X134264493Y-136176352D02*
X134169255Y-136176352D01*
X134169255Y-136176352D02*
X134074017Y-136223971D01*
X134074017Y-136223971D02*
X134026398Y-136271590D01*
X134026398Y-136271590D02*
X133978779Y-136366828D01*
X133978779Y-136366828D02*
X133931160Y-136557304D01*
X133931160Y-136557304D02*
X133883541Y-136652542D01*
X133883541Y-136652542D02*
X133835922Y-136700161D01*
X133835922Y-136700161D02*
X133740684Y-136747780D01*
X133740684Y-136747780D02*
X133645446Y-136747780D01*
X133645446Y-136747780D02*
X133550208Y-136700161D01*
X133550208Y-136700161D02*
X133502589Y-136652542D01*
X133502589Y-136652542D02*
X133454970Y-136557304D01*
X133454970Y-136557304D02*
X133454970Y-136319209D01*
X133454970Y-136319209D02*
X133502589Y-136176352D01*
X134454970Y-135223971D02*
X134454970Y-135795399D01*
X134454970Y-135509685D02*
X133454970Y-135509685D01*
X133454970Y-135509685D02*
X133597827Y-135604923D01*
X133597827Y-135604923D02*
X133693065Y-135700161D01*
X133693065Y-135700161D02*
X133740684Y-135795399D01*
X80963333Y-30134819D02*
X80630000Y-29658628D01*
X80391905Y-30134819D02*
X80391905Y-29134819D01*
X80391905Y-29134819D02*
X80772857Y-29134819D01*
X80772857Y-29134819D02*
X80868095Y-29182438D01*
X80868095Y-29182438D02*
X80915714Y-29230057D01*
X80915714Y-29230057D02*
X80963333Y-29325295D01*
X80963333Y-29325295D02*
X80963333Y-29468152D01*
X80963333Y-29468152D02*
X80915714Y-29563390D01*
X80915714Y-29563390D02*
X80868095Y-29611009D01*
X80868095Y-29611009D02*
X80772857Y-29658628D01*
X80772857Y-29658628D02*
X80391905Y-29658628D01*
X81296667Y-29134819D02*
X81915714Y-29134819D01*
X81915714Y-29134819D02*
X81582381Y-29515771D01*
X81582381Y-29515771D02*
X81725238Y-29515771D01*
X81725238Y-29515771D02*
X81820476Y-29563390D01*
X81820476Y-29563390D02*
X81868095Y-29611009D01*
X81868095Y-29611009D02*
X81915714Y-29706247D01*
X81915714Y-29706247D02*
X81915714Y-29944342D01*
X81915714Y-29944342D02*
X81868095Y-30039580D01*
X81868095Y-30039580D02*
X81820476Y-30087200D01*
X81820476Y-30087200D02*
X81725238Y-30134819D01*
X81725238Y-30134819D02*
X81439524Y-30134819D01*
X81439524Y-30134819D02*
X81344286Y-30087200D01*
X81344286Y-30087200D02*
X81296667Y-30039580D01*
X91137026Y-56051115D02*
X91250786Y-56149779D01*
X91250786Y-56149779D02*
X91470757Y-56240894D01*
X91470757Y-56240894D02*
X91576969Y-56233345D01*
X91576969Y-56233345D02*
X91639186Y-56207574D01*
X91639186Y-56207574D02*
X91719627Y-56137809D01*
X91719627Y-56137809D02*
X91756073Y-56049820D01*
X91756073Y-56049820D02*
X91748524Y-55943609D01*
X91748524Y-55943609D02*
X91722753Y-55881391D01*
X91722753Y-55881391D02*
X91652988Y-55800951D01*
X91652988Y-55800951D02*
X91495234Y-55684065D01*
X91495234Y-55684065D02*
X91425468Y-55603624D01*
X91425468Y-55603624D02*
X91399697Y-55541407D01*
X91399697Y-55541407D02*
X91392149Y-55435196D01*
X91392149Y-55435196D02*
X91428595Y-55347207D01*
X91428595Y-55347207D02*
X91509035Y-55277441D01*
X91509035Y-55277441D02*
X91571252Y-55251670D01*
X91571252Y-55251670D02*
X91677464Y-55244122D01*
X91677464Y-55244122D02*
X91897435Y-55335237D01*
X91897435Y-55335237D02*
X92011195Y-55433900D01*
X92337378Y-55517467D02*
X92174666Y-56532462D01*
X92174666Y-56532462D02*
X92623988Y-55945440D01*
X92623988Y-55945440D02*
X92526620Y-56678246D01*
X92526620Y-56678246D02*
X93129275Y-55845482D01*
X93582482Y-57115599D02*
X93054551Y-56896922D01*
X93318516Y-57006260D02*
X93701200Y-56082381D01*
X93701200Y-56082381D02*
X93558542Y-56177918D01*
X93558542Y-56177918D02*
X93434108Y-56229460D01*
X93434108Y-56229460D02*
X93327896Y-56237008D01*
X94022425Y-57297829D02*
X94198402Y-57370721D01*
X94198402Y-57370721D02*
X94304613Y-57363173D01*
X94304613Y-57363173D02*
X94366831Y-57337401D01*
X94366831Y-57337401D02*
X94509488Y-57241865D01*
X94509488Y-57241865D02*
X94626375Y-57084111D01*
X94626375Y-57084111D02*
X94772159Y-56732157D01*
X94772159Y-56732157D02*
X94764610Y-56625945D01*
X94764610Y-56625945D02*
X94738839Y-56563728D01*
X94738839Y-56563728D02*
X94669074Y-56483287D01*
X94669074Y-56483287D02*
X94493097Y-56410395D01*
X94493097Y-56410395D02*
X94386885Y-56417944D01*
X94386885Y-56417944D02*
X94324668Y-56443715D01*
X94324668Y-56443715D02*
X94244228Y-56513480D01*
X94244228Y-56513480D02*
X94153112Y-56733452D01*
X94153112Y-56733452D02*
X94160661Y-56839663D01*
X94160661Y-56839663D02*
X94186432Y-56901880D01*
X94186432Y-56901880D02*
X94256197Y-56982321D01*
X94256197Y-56982321D02*
X94432174Y-57055213D01*
X94432174Y-57055213D02*
X94538386Y-57047665D01*
X94538386Y-57047665D02*
X94600603Y-57021893D01*
X94600603Y-57021893D02*
X94681044Y-56952128D01*
X94601898Y-57640940D02*
X95305807Y-57932508D01*
X96002167Y-58117865D02*
X95562224Y-57935635D01*
X95562224Y-57935635D02*
X95944908Y-57011755D01*
X96510580Y-57761489D02*
X96818540Y-57889050D01*
X96750069Y-58427656D02*
X96310127Y-58245426D01*
X96310127Y-58245426D02*
X96692810Y-57321547D01*
X96692810Y-57321547D02*
X97132753Y-57503777D01*
X97654431Y-58235288D02*
X97346471Y-58107727D01*
X97146018Y-58591663D02*
X97528701Y-57667784D01*
X97528701Y-57667784D02*
X97968644Y-57850014D01*
X98188615Y-57941129D02*
X98716547Y-58159806D01*
X98069898Y-58974347D02*
X98452581Y-58050467D01*
X99125760Y-59411700D02*
X98597829Y-59193023D01*
X98861795Y-59302361D02*
X99244478Y-58378482D01*
X99244478Y-58378482D02*
X99101820Y-58474019D01*
X99101820Y-58474019D02*
X98977386Y-58525561D01*
X98977386Y-58525561D02*
X98871174Y-58533109D01*
X75213333Y-36384819D02*
X74880000Y-35908628D01*
X74641905Y-36384819D02*
X74641905Y-35384819D01*
X74641905Y-35384819D02*
X75022857Y-35384819D01*
X75022857Y-35384819D02*
X75118095Y-35432438D01*
X75118095Y-35432438D02*
X75165714Y-35480057D01*
X75165714Y-35480057D02*
X75213333Y-35575295D01*
X75213333Y-35575295D02*
X75213333Y-35718152D01*
X75213333Y-35718152D02*
X75165714Y-35813390D01*
X75165714Y-35813390D02*
X75118095Y-35861009D01*
X75118095Y-35861009D02*
X75022857Y-35908628D01*
X75022857Y-35908628D02*
X74641905Y-35908628D01*
X75784762Y-35813390D02*
X75689524Y-35765771D01*
X75689524Y-35765771D02*
X75641905Y-35718152D01*
X75641905Y-35718152D02*
X75594286Y-35622914D01*
X75594286Y-35622914D02*
X75594286Y-35575295D01*
X75594286Y-35575295D02*
X75641905Y-35480057D01*
X75641905Y-35480057D02*
X75689524Y-35432438D01*
X75689524Y-35432438D02*
X75784762Y-35384819D01*
X75784762Y-35384819D02*
X75975238Y-35384819D01*
X75975238Y-35384819D02*
X76070476Y-35432438D01*
X76070476Y-35432438D02*
X76118095Y-35480057D01*
X76118095Y-35480057D02*
X76165714Y-35575295D01*
X76165714Y-35575295D02*
X76165714Y-35622914D01*
X76165714Y-35622914D02*
X76118095Y-35718152D01*
X76118095Y-35718152D02*
X76070476Y-35765771D01*
X76070476Y-35765771D02*
X75975238Y-35813390D01*
X75975238Y-35813390D02*
X75784762Y-35813390D01*
X75784762Y-35813390D02*
X75689524Y-35861009D01*
X75689524Y-35861009D02*
X75641905Y-35908628D01*
X75641905Y-35908628D02*
X75594286Y-36003866D01*
X75594286Y-36003866D02*
X75594286Y-36194342D01*
X75594286Y-36194342D02*
X75641905Y-36289580D01*
X75641905Y-36289580D02*
X75689524Y-36337200D01*
X75689524Y-36337200D02*
X75784762Y-36384819D01*
X75784762Y-36384819D02*
X75975238Y-36384819D01*
X75975238Y-36384819D02*
X76070476Y-36337200D01*
X76070476Y-36337200D02*
X76118095Y-36289580D01*
X76118095Y-36289580D02*
X76165714Y-36194342D01*
X76165714Y-36194342D02*
X76165714Y-36003866D01*
X76165714Y-36003866D02*
X76118095Y-35908628D01*
X76118095Y-35908628D02*
X76070476Y-35861009D01*
X76070476Y-35861009D02*
X75975238Y-35813390D01*
X171808705Y-67407200D02*
X171951562Y-67454819D01*
X171951562Y-67454819D02*
X172189657Y-67454819D01*
X172189657Y-67454819D02*
X172284895Y-67407200D01*
X172284895Y-67407200D02*
X172332514Y-67359580D01*
X172332514Y-67359580D02*
X172380133Y-67264342D01*
X172380133Y-67264342D02*
X172380133Y-67169104D01*
X172380133Y-67169104D02*
X172332514Y-67073866D01*
X172332514Y-67073866D02*
X172284895Y-67026247D01*
X172284895Y-67026247D02*
X172189657Y-66978628D01*
X172189657Y-66978628D02*
X171999181Y-66931009D01*
X171999181Y-66931009D02*
X171903943Y-66883390D01*
X171903943Y-66883390D02*
X171856324Y-66835771D01*
X171856324Y-66835771D02*
X171808705Y-66740533D01*
X171808705Y-66740533D02*
X171808705Y-66645295D01*
X171808705Y-66645295D02*
X171856324Y-66550057D01*
X171856324Y-66550057D02*
X171903943Y-66502438D01*
X171903943Y-66502438D02*
X171999181Y-66454819D01*
X171999181Y-66454819D02*
X172237276Y-66454819D01*
X172237276Y-66454819D02*
X172380133Y-66502438D01*
X172713467Y-66454819D02*
X172951562Y-67454819D01*
X172951562Y-67454819D02*
X173142038Y-66740533D01*
X173142038Y-66740533D02*
X173332514Y-67454819D01*
X173332514Y-67454819D02*
X173570610Y-66454819D01*
X174380133Y-66788152D02*
X174380133Y-67454819D01*
X174142038Y-66407200D02*
X173903943Y-67121485D01*
X173903943Y-67121485D02*
X174522990Y-67121485D01*
X174665848Y-67550057D02*
X175427752Y-67550057D01*
X176142038Y-67454819D02*
X175665848Y-67454819D01*
X175665848Y-67454819D02*
X175665848Y-66454819D01*
X176475372Y-67454819D02*
X176475372Y-66454819D01*
X176475372Y-66454819D02*
X176856324Y-66454819D01*
X176856324Y-66454819D02*
X176951562Y-66502438D01*
X176951562Y-66502438D02*
X176999181Y-66550057D01*
X176999181Y-66550057D02*
X177046800Y-66645295D01*
X177046800Y-66645295D02*
X177046800Y-66788152D01*
X177046800Y-66788152D02*
X176999181Y-66883390D01*
X176999181Y-66883390D02*
X176951562Y-66931009D01*
X176951562Y-66931009D02*
X176856324Y-66978628D01*
X176856324Y-66978628D02*
X176475372Y-66978628D01*
X177999181Y-67454819D02*
X177427753Y-67454819D01*
X177713467Y-67454819D02*
X177713467Y-66454819D01*
X177713467Y-66454819D02*
X177618229Y-66597676D01*
X177618229Y-66597676D02*
X177522991Y-66692914D01*
X177522991Y-66692914D02*
X177427753Y-66740533D01*
X74048095Y-46458819D02*
X74048095Y-47268342D01*
X74048095Y-47268342D02*
X74095714Y-47363580D01*
X74095714Y-47363580D02*
X74143333Y-47411200D01*
X74143333Y-47411200D02*
X74238571Y-47458819D01*
X74238571Y-47458819D02*
X74429047Y-47458819D01*
X74429047Y-47458819D02*
X74524285Y-47411200D01*
X74524285Y-47411200D02*
X74571904Y-47363580D01*
X74571904Y-47363580D02*
X74619523Y-47268342D01*
X74619523Y-47268342D02*
X74619523Y-46458819D01*
X75000476Y-46458819D02*
X75619523Y-46458819D01*
X75619523Y-46458819D02*
X75286190Y-46839771D01*
X75286190Y-46839771D02*
X75429047Y-46839771D01*
X75429047Y-46839771D02*
X75524285Y-46887390D01*
X75524285Y-46887390D02*
X75571904Y-46935009D01*
X75571904Y-46935009D02*
X75619523Y-47030247D01*
X75619523Y-47030247D02*
X75619523Y-47268342D01*
X75619523Y-47268342D02*
X75571904Y-47363580D01*
X75571904Y-47363580D02*
X75524285Y-47411200D01*
X75524285Y-47411200D02*
X75429047Y-47458819D01*
X75429047Y-47458819D02*
X75143333Y-47458819D01*
X75143333Y-47458819D02*
X75048095Y-47411200D01*
X75048095Y-47411200D02*
X75000476Y-47363580D01*
X225689657Y-53407200D02*
X225832514Y-53454819D01*
X225832514Y-53454819D02*
X226070609Y-53454819D01*
X226070609Y-53454819D02*
X226165847Y-53407200D01*
X226165847Y-53407200D02*
X226213466Y-53359580D01*
X226213466Y-53359580D02*
X226261085Y-53264342D01*
X226261085Y-53264342D02*
X226261085Y-53169104D01*
X226261085Y-53169104D02*
X226213466Y-53073866D01*
X226213466Y-53073866D02*
X226165847Y-53026247D01*
X226165847Y-53026247D02*
X226070609Y-52978628D01*
X226070609Y-52978628D02*
X225880133Y-52931009D01*
X225880133Y-52931009D02*
X225784895Y-52883390D01*
X225784895Y-52883390D02*
X225737276Y-52835771D01*
X225737276Y-52835771D02*
X225689657Y-52740533D01*
X225689657Y-52740533D02*
X225689657Y-52645295D01*
X225689657Y-52645295D02*
X225737276Y-52550057D01*
X225737276Y-52550057D02*
X225784895Y-52502438D01*
X225784895Y-52502438D02*
X225880133Y-52454819D01*
X225880133Y-52454819D02*
X226118228Y-52454819D01*
X226118228Y-52454819D02*
X226261085Y-52502438D01*
X226594419Y-52454819D02*
X226832514Y-53454819D01*
X226832514Y-53454819D02*
X227022990Y-52740533D01*
X227022990Y-52740533D02*
X227213466Y-53454819D01*
X227213466Y-53454819D02*
X227451562Y-52454819D01*
X227737276Y-52454819D02*
X228403942Y-52454819D01*
X228403942Y-52454819D02*
X227975371Y-53454819D01*
X228546800Y-53550057D02*
X229308704Y-53550057D01*
X229546800Y-53454819D02*
X229546800Y-52454819D01*
X229546800Y-52931009D02*
X230118228Y-52931009D01*
X230118228Y-53454819D02*
X230118228Y-52454819D01*
X230594419Y-53454819D02*
X230594419Y-52454819D01*
X230594419Y-52454819D02*
X230975371Y-52454819D01*
X230975371Y-52454819D02*
X231070609Y-52502438D01*
X231070609Y-52502438D02*
X231118228Y-52550057D01*
X231118228Y-52550057D02*
X231165847Y-52645295D01*
X231165847Y-52645295D02*
X231165847Y-52788152D01*
X231165847Y-52788152D02*
X231118228Y-52883390D01*
X231118228Y-52883390D02*
X231070609Y-52931009D01*
X231070609Y-52931009D02*
X230975371Y-52978628D01*
X230975371Y-52978628D02*
X230594419Y-52978628D01*
X232118228Y-53454819D02*
X231546800Y-53454819D01*
X231832514Y-53454819D02*
X231832514Y-52454819D01*
X231832514Y-52454819D02*
X231737276Y-52597676D01*
X231737276Y-52597676D02*
X231642038Y-52692914D01*
X231642038Y-52692914D02*
X231546800Y-52740533D01*
X248738095Y-104254819D02*
X248738095Y-103254819D01*
X248738095Y-103731009D02*
X249309523Y-103731009D01*
X249309523Y-104254819D02*
X249309523Y-103254819D01*
X250261904Y-103254819D02*
X249785714Y-103254819D01*
X249785714Y-103254819D02*
X249738095Y-103731009D01*
X249738095Y-103731009D02*
X249785714Y-103683390D01*
X249785714Y-103683390D02*
X249880952Y-103635771D01*
X249880952Y-103635771D02*
X250119047Y-103635771D01*
X250119047Y-103635771D02*
X250214285Y-103683390D01*
X250214285Y-103683390D02*
X250261904Y-103731009D01*
X250261904Y-103731009D02*
X250309523Y-103826247D01*
X250309523Y-103826247D02*
X250309523Y-104064342D01*
X250309523Y-104064342D02*
X250261904Y-104159580D01*
X250261904Y-104159580D02*
X250214285Y-104207200D01*
X250214285Y-104207200D02*
X250119047Y-104254819D01*
X250119047Y-104254819D02*
X249880952Y-104254819D01*
X249880952Y-104254819D02*
X249785714Y-104207200D01*
X249785714Y-104207200D02*
X249738095Y-104159580D01*
X145380284Y-128393076D02*
X145523141Y-128440695D01*
X145523141Y-128440695D02*
X145761236Y-128440695D01*
X145761236Y-128440695D02*
X145856474Y-128393076D01*
X145856474Y-128393076D02*
X145904093Y-128345456D01*
X145904093Y-128345456D02*
X145951712Y-128250218D01*
X145951712Y-128250218D02*
X145951712Y-128154980D01*
X145951712Y-128154980D02*
X145904093Y-128059742D01*
X145904093Y-128059742D02*
X145856474Y-128012123D01*
X145856474Y-128012123D02*
X145761236Y-127964504D01*
X145761236Y-127964504D02*
X145570760Y-127916885D01*
X145570760Y-127916885D02*
X145475522Y-127869266D01*
X145475522Y-127869266D02*
X145427903Y-127821647D01*
X145427903Y-127821647D02*
X145380284Y-127726409D01*
X145380284Y-127726409D02*
X145380284Y-127631171D01*
X145380284Y-127631171D02*
X145427903Y-127535933D01*
X145427903Y-127535933D02*
X145475522Y-127488314D01*
X145475522Y-127488314D02*
X145570760Y-127440695D01*
X145570760Y-127440695D02*
X145808855Y-127440695D01*
X145808855Y-127440695D02*
X145951712Y-127488314D01*
X146285046Y-127440695D02*
X146523141Y-128440695D01*
X146523141Y-128440695D02*
X146713617Y-127726409D01*
X146713617Y-127726409D02*
X146904093Y-128440695D01*
X146904093Y-128440695D02*
X147142189Y-127440695D01*
X148046950Y-128440695D02*
X147475522Y-128440695D01*
X147761236Y-128440695D02*
X147761236Y-127440695D01*
X147761236Y-127440695D02*
X147665998Y-127583552D01*
X147665998Y-127583552D02*
X147570760Y-127678790D01*
X147570760Y-127678790D02*
X147475522Y-127726409D01*
X148904093Y-127440695D02*
X148713617Y-127440695D01*
X148713617Y-127440695D02*
X148618379Y-127488314D01*
X148618379Y-127488314D02*
X148570760Y-127535933D01*
X148570760Y-127535933D02*
X148475522Y-127678790D01*
X148475522Y-127678790D02*
X148427903Y-127869266D01*
X148427903Y-127869266D02*
X148427903Y-128250218D01*
X148427903Y-128250218D02*
X148475522Y-128345456D01*
X148475522Y-128345456D02*
X148523141Y-128393076D01*
X148523141Y-128393076D02*
X148618379Y-128440695D01*
X148618379Y-128440695D02*
X148808855Y-128440695D01*
X148808855Y-128440695D02*
X148904093Y-128393076D01*
X148904093Y-128393076D02*
X148951712Y-128345456D01*
X148951712Y-128345456D02*
X148999331Y-128250218D01*
X148999331Y-128250218D02*
X148999331Y-128012123D01*
X148999331Y-128012123D02*
X148951712Y-127916885D01*
X148951712Y-127916885D02*
X148904093Y-127869266D01*
X148904093Y-127869266D02*
X148808855Y-127821647D01*
X148808855Y-127821647D02*
X148618379Y-127821647D01*
X148618379Y-127821647D02*
X148523141Y-127869266D01*
X148523141Y-127869266D02*
X148475522Y-127916885D01*
X148475522Y-127916885D02*
X148427903Y-128012123D01*
X149189808Y-128535933D02*
X149951712Y-128535933D01*
X150142189Y-128393076D02*
X150285046Y-128440695D01*
X150285046Y-128440695D02*
X150523141Y-128440695D01*
X150523141Y-128440695D02*
X150618379Y-128393076D01*
X150618379Y-128393076D02*
X150665998Y-128345456D01*
X150665998Y-128345456D02*
X150713617Y-128250218D01*
X150713617Y-128250218D02*
X150713617Y-128154980D01*
X150713617Y-128154980D02*
X150665998Y-128059742D01*
X150665998Y-128059742D02*
X150618379Y-128012123D01*
X150618379Y-128012123D02*
X150523141Y-127964504D01*
X150523141Y-127964504D02*
X150332665Y-127916885D01*
X150332665Y-127916885D02*
X150237427Y-127869266D01*
X150237427Y-127869266D02*
X150189808Y-127821647D01*
X150189808Y-127821647D02*
X150142189Y-127726409D01*
X150142189Y-127726409D02*
X150142189Y-127631171D01*
X150142189Y-127631171D02*
X150189808Y-127535933D01*
X150189808Y-127535933D02*
X150237427Y-127488314D01*
X150237427Y-127488314D02*
X150332665Y-127440695D01*
X150332665Y-127440695D02*
X150570760Y-127440695D01*
X150570760Y-127440695D02*
X150713617Y-127488314D01*
X151142189Y-128440695D02*
X151142189Y-127440695D01*
X151142189Y-127440695D02*
X151523141Y-127440695D01*
X151523141Y-127440695D02*
X151618379Y-127488314D01*
X151618379Y-127488314D02*
X151665998Y-127535933D01*
X151665998Y-127535933D02*
X151713617Y-127631171D01*
X151713617Y-127631171D02*
X151713617Y-127774028D01*
X151713617Y-127774028D02*
X151665998Y-127869266D01*
X151665998Y-127869266D02*
X151618379Y-127916885D01*
X151618379Y-127916885D02*
X151523141Y-127964504D01*
X151523141Y-127964504D02*
X151142189Y-127964504D01*
X152094570Y-128154980D02*
X152570760Y-128154980D01*
X151999332Y-128440695D02*
X152332665Y-127440695D01*
X152332665Y-127440695D02*
X152665998Y-128440695D01*
X153570760Y-128345456D02*
X153523141Y-128393076D01*
X153523141Y-128393076D02*
X153380284Y-128440695D01*
X153380284Y-128440695D02*
X153285046Y-128440695D01*
X153285046Y-128440695D02*
X153142189Y-128393076D01*
X153142189Y-128393076D02*
X153046951Y-128297837D01*
X153046951Y-128297837D02*
X152999332Y-128202599D01*
X152999332Y-128202599D02*
X152951713Y-128012123D01*
X152951713Y-128012123D02*
X152951713Y-127869266D01*
X152951713Y-127869266D02*
X152999332Y-127678790D01*
X152999332Y-127678790D02*
X153046951Y-127583552D01*
X153046951Y-127583552D02*
X153142189Y-127488314D01*
X153142189Y-127488314D02*
X153285046Y-127440695D01*
X153285046Y-127440695D02*
X153380284Y-127440695D01*
X153380284Y-127440695D02*
X153523141Y-127488314D01*
X153523141Y-127488314D02*
X153570760Y-127535933D01*
X153999332Y-127916885D02*
X154332665Y-127916885D01*
X154475522Y-128440695D02*
X153999332Y-128440695D01*
X153999332Y-128440695D02*
X153999332Y-127440695D01*
X153999332Y-127440695D02*
X154475522Y-127440695D01*
X155427903Y-128440695D02*
X154856475Y-128440695D01*
X155142189Y-128440695D02*
X155142189Y-127440695D01*
X155142189Y-127440695D02*
X155046951Y-127583552D01*
X155046951Y-127583552D02*
X154951713Y-127678790D01*
X154951713Y-127678790D02*
X154856475Y-127726409D01*
X147738095Y-79754819D02*
X147738095Y-78754819D01*
X147738095Y-79231009D02*
X148309523Y-79231009D01*
X148309523Y-79754819D02*
X148309523Y-78754819D01*
X148690476Y-78754819D02*
X149357142Y-78754819D01*
X149357142Y-78754819D02*
X148928571Y-79754819D01*
X208407200Y-40047618D02*
X208454819Y-39904761D01*
X208454819Y-39904761D02*
X208454819Y-39666666D01*
X208454819Y-39666666D02*
X208407200Y-39571428D01*
X208407200Y-39571428D02*
X208359580Y-39523809D01*
X208359580Y-39523809D02*
X208264342Y-39476190D01*
X208264342Y-39476190D02*
X208169104Y-39476190D01*
X208169104Y-39476190D02*
X208073866Y-39523809D01*
X208073866Y-39523809D02*
X208026247Y-39571428D01*
X208026247Y-39571428D02*
X207978628Y-39666666D01*
X207978628Y-39666666D02*
X207931009Y-39857142D01*
X207931009Y-39857142D02*
X207883390Y-39952380D01*
X207883390Y-39952380D02*
X207835771Y-39999999D01*
X207835771Y-39999999D02*
X207740533Y-40047618D01*
X207740533Y-40047618D02*
X207645295Y-40047618D01*
X207645295Y-40047618D02*
X207550057Y-39999999D01*
X207550057Y-39999999D02*
X207502438Y-39952380D01*
X207502438Y-39952380D02*
X207454819Y-39857142D01*
X207454819Y-39857142D02*
X207454819Y-39619047D01*
X207454819Y-39619047D02*
X207502438Y-39476190D01*
X207454819Y-39142856D02*
X208454819Y-38904761D01*
X208454819Y-38904761D02*
X207740533Y-38714285D01*
X207740533Y-38714285D02*
X208454819Y-38523809D01*
X208454819Y-38523809D02*
X207454819Y-38285714D01*
X208454819Y-37380952D02*
X208454819Y-37952380D01*
X208454819Y-37666666D02*
X207454819Y-37666666D01*
X207454819Y-37666666D02*
X207597676Y-37761904D01*
X207597676Y-37761904D02*
X207692914Y-37857142D01*
X207692914Y-37857142D02*
X207740533Y-37952380D01*
X207454819Y-36761904D02*
X207454819Y-36666666D01*
X207454819Y-36666666D02*
X207502438Y-36571428D01*
X207502438Y-36571428D02*
X207550057Y-36523809D01*
X207550057Y-36523809D02*
X207645295Y-36476190D01*
X207645295Y-36476190D02*
X207835771Y-36428571D01*
X207835771Y-36428571D02*
X208073866Y-36428571D01*
X208073866Y-36428571D02*
X208264342Y-36476190D01*
X208264342Y-36476190D02*
X208359580Y-36523809D01*
X208359580Y-36523809D02*
X208407200Y-36571428D01*
X208407200Y-36571428D02*
X208454819Y-36666666D01*
X208454819Y-36666666D02*
X208454819Y-36761904D01*
X208454819Y-36761904D02*
X208407200Y-36857142D01*
X208407200Y-36857142D02*
X208359580Y-36904761D01*
X208359580Y-36904761D02*
X208264342Y-36952380D01*
X208264342Y-36952380D02*
X208073866Y-36999999D01*
X208073866Y-36999999D02*
X207835771Y-36999999D01*
X207835771Y-36999999D02*
X207645295Y-36952380D01*
X207645295Y-36952380D02*
X207550057Y-36904761D01*
X207550057Y-36904761D02*
X207502438Y-36857142D01*
X207502438Y-36857142D02*
X207454819Y-36761904D01*
X208550057Y-36238095D02*
X208550057Y-35476190D01*
X208407200Y-35285713D02*
X208454819Y-35142856D01*
X208454819Y-35142856D02*
X208454819Y-34904761D01*
X208454819Y-34904761D02*
X208407200Y-34809523D01*
X208407200Y-34809523D02*
X208359580Y-34761904D01*
X208359580Y-34761904D02*
X208264342Y-34714285D01*
X208264342Y-34714285D02*
X208169104Y-34714285D01*
X208169104Y-34714285D02*
X208073866Y-34761904D01*
X208073866Y-34761904D02*
X208026247Y-34809523D01*
X208026247Y-34809523D02*
X207978628Y-34904761D01*
X207978628Y-34904761D02*
X207931009Y-35095237D01*
X207931009Y-35095237D02*
X207883390Y-35190475D01*
X207883390Y-35190475D02*
X207835771Y-35238094D01*
X207835771Y-35238094D02*
X207740533Y-35285713D01*
X207740533Y-35285713D02*
X207645295Y-35285713D01*
X207645295Y-35285713D02*
X207550057Y-35238094D01*
X207550057Y-35238094D02*
X207502438Y-35190475D01*
X207502438Y-35190475D02*
X207454819Y-35095237D01*
X207454819Y-35095237D02*
X207454819Y-34857142D01*
X207454819Y-34857142D02*
X207502438Y-34714285D01*
X208454819Y-34285713D02*
X207454819Y-34285713D01*
X207931009Y-34285713D02*
X207931009Y-33714285D01*
X208454819Y-33714285D02*
X207454819Y-33714285D01*
X208169104Y-33285713D02*
X208169104Y-32809523D01*
X208454819Y-33380951D02*
X207454819Y-33047618D01*
X207454819Y-33047618D02*
X208454819Y-32714285D01*
X208454819Y-31809523D02*
X207978628Y-32142856D01*
X208454819Y-32380951D02*
X207454819Y-32380951D01*
X207454819Y-32380951D02*
X207454819Y-31999999D01*
X207454819Y-31999999D02*
X207502438Y-31904761D01*
X207502438Y-31904761D02*
X207550057Y-31857142D01*
X207550057Y-31857142D02*
X207645295Y-31809523D01*
X207645295Y-31809523D02*
X207788152Y-31809523D01*
X207788152Y-31809523D02*
X207883390Y-31857142D01*
X207883390Y-31857142D02*
X207931009Y-31904761D01*
X207931009Y-31904761D02*
X207978628Y-31999999D01*
X207978628Y-31999999D02*
X207978628Y-32380951D01*
X207931009Y-31380951D02*
X207931009Y-31047618D01*
X208454819Y-30904761D02*
X208454819Y-31380951D01*
X208454819Y-31380951D02*
X207454819Y-31380951D01*
X207454819Y-31380951D02*
X207454819Y-30904761D01*
X208454819Y-29952380D02*
X208454819Y-30523808D01*
X208454819Y-30238094D02*
X207454819Y-30238094D01*
X207454819Y-30238094D02*
X207597676Y-30333332D01*
X207597676Y-30333332D02*
X207692914Y-30428570D01*
X207692914Y-30428570D02*
X207740533Y-30523808D01*
X72239580Y-38572857D02*
X72287200Y-38620476D01*
X72287200Y-38620476D02*
X72334819Y-38763333D01*
X72334819Y-38763333D02*
X72334819Y-38858571D01*
X72334819Y-38858571D02*
X72287200Y-39001428D01*
X72287200Y-39001428D02*
X72191961Y-39096666D01*
X72191961Y-39096666D02*
X72096723Y-39144285D01*
X72096723Y-39144285D02*
X71906247Y-39191904D01*
X71906247Y-39191904D02*
X71763390Y-39191904D01*
X71763390Y-39191904D02*
X71572914Y-39144285D01*
X71572914Y-39144285D02*
X71477676Y-39096666D01*
X71477676Y-39096666D02*
X71382438Y-39001428D01*
X71382438Y-39001428D02*
X71334819Y-38858571D01*
X71334819Y-38858571D02*
X71334819Y-38763333D01*
X71334819Y-38763333D02*
X71382438Y-38620476D01*
X71382438Y-38620476D02*
X71430057Y-38572857D01*
X72334819Y-37620476D02*
X72334819Y-38191904D01*
X72334819Y-37906190D02*
X71334819Y-37906190D01*
X71334819Y-37906190D02*
X71477676Y-38001428D01*
X71477676Y-38001428D02*
X71572914Y-38096666D01*
X71572914Y-38096666D02*
X71620533Y-38191904D01*
X72334819Y-36668095D02*
X72334819Y-37239523D01*
X72334819Y-36953809D02*
X71334819Y-36953809D01*
X71334819Y-36953809D02*
X71477676Y-37049047D01*
X71477676Y-37049047D02*
X71572914Y-37144285D01*
X71572914Y-37144285D02*
X71620533Y-37239523D01*
X97713333Y-34039580D02*
X97665714Y-34087200D01*
X97665714Y-34087200D02*
X97522857Y-34134819D01*
X97522857Y-34134819D02*
X97427619Y-34134819D01*
X97427619Y-34134819D02*
X97284762Y-34087200D01*
X97284762Y-34087200D02*
X97189524Y-33991961D01*
X97189524Y-33991961D02*
X97141905Y-33896723D01*
X97141905Y-33896723D02*
X97094286Y-33706247D01*
X97094286Y-33706247D02*
X97094286Y-33563390D01*
X97094286Y-33563390D02*
X97141905Y-33372914D01*
X97141905Y-33372914D02*
X97189524Y-33277676D01*
X97189524Y-33277676D02*
X97284762Y-33182438D01*
X97284762Y-33182438D02*
X97427619Y-33134819D01*
X97427619Y-33134819D02*
X97522857Y-33134819D01*
X97522857Y-33134819D02*
X97665714Y-33182438D01*
X97665714Y-33182438D02*
X97713333Y-33230057D01*
X98570476Y-33468152D02*
X98570476Y-34134819D01*
X98332381Y-33087200D02*
X98094286Y-33801485D01*
X98094286Y-33801485D02*
X98713333Y-33801485D01*
X238407200Y-41547618D02*
X238454819Y-41404761D01*
X238454819Y-41404761D02*
X238454819Y-41166666D01*
X238454819Y-41166666D02*
X238407200Y-41071428D01*
X238407200Y-41071428D02*
X238359580Y-41023809D01*
X238359580Y-41023809D02*
X238264342Y-40976190D01*
X238264342Y-40976190D02*
X238169104Y-40976190D01*
X238169104Y-40976190D02*
X238073866Y-41023809D01*
X238073866Y-41023809D02*
X238026247Y-41071428D01*
X238026247Y-41071428D02*
X237978628Y-41166666D01*
X237978628Y-41166666D02*
X237931009Y-41357142D01*
X237931009Y-41357142D02*
X237883390Y-41452380D01*
X237883390Y-41452380D02*
X237835771Y-41499999D01*
X237835771Y-41499999D02*
X237740533Y-41547618D01*
X237740533Y-41547618D02*
X237645295Y-41547618D01*
X237645295Y-41547618D02*
X237550057Y-41499999D01*
X237550057Y-41499999D02*
X237502438Y-41452380D01*
X237502438Y-41452380D02*
X237454819Y-41357142D01*
X237454819Y-41357142D02*
X237454819Y-41119047D01*
X237454819Y-41119047D02*
X237502438Y-40976190D01*
X237454819Y-40642856D02*
X238454819Y-40404761D01*
X238454819Y-40404761D02*
X237740533Y-40214285D01*
X237740533Y-40214285D02*
X238454819Y-40023809D01*
X238454819Y-40023809D02*
X237454819Y-39785714D01*
X238454819Y-38880952D02*
X238454819Y-39452380D01*
X238454819Y-39166666D02*
X237454819Y-39166666D01*
X237454819Y-39166666D02*
X237597676Y-39261904D01*
X237597676Y-39261904D02*
X237692914Y-39357142D01*
X237692914Y-39357142D02*
X237740533Y-39452380D01*
X237454819Y-37976190D02*
X237454819Y-38452380D01*
X237454819Y-38452380D02*
X237931009Y-38499999D01*
X237931009Y-38499999D02*
X237883390Y-38452380D01*
X237883390Y-38452380D02*
X237835771Y-38357142D01*
X237835771Y-38357142D02*
X237835771Y-38119047D01*
X237835771Y-38119047D02*
X237883390Y-38023809D01*
X237883390Y-38023809D02*
X237931009Y-37976190D01*
X237931009Y-37976190D02*
X238026247Y-37928571D01*
X238026247Y-37928571D02*
X238264342Y-37928571D01*
X238264342Y-37928571D02*
X238359580Y-37976190D01*
X238359580Y-37976190D02*
X238407200Y-38023809D01*
X238407200Y-38023809D02*
X238454819Y-38119047D01*
X238454819Y-38119047D02*
X238454819Y-38357142D01*
X238454819Y-38357142D02*
X238407200Y-38452380D01*
X238407200Y-38452380D02*
X238359580Y-38499999D01*
X238550057Y-37738095D02*
X238550057Y-36976190D01*
X237454819Y-36880951D02*
X237454819Y-36309523D01*
X238454819Y-36595237D02*
X237454819Y-36595237D01*
X237454819Y-35785713D02*
X237454819Y-35595237D01*
X237454819Y-35595237D02*
X237502438Y-35499999D01*
X237502438Y-35499999D02*
X237597676Y-35404761D01*
X237597676Y-35404761D02*
X237788152Y-35357142D01*
X237788152Y-35357142D02*
X238121485Y-35357142D01*
X238121485Y-35357142D02*
X238311961Y-35404761D01*
X238311961Y-35404761D02*
X238407200Y-35499999D01*
X238407200Y-35499999D02*
X238454819Y-35595237D01*
X238454819Y-35595237D02*
X238454819Y-35785713D01*
X238454819Y-35785713D02*
X238407200Y-35880951D01*
X238407200Y-35880951D02*
X238311961Y-35976189D01*
X238311961Y-35976189D02*
X238121485Y-36023808D01*
X238121485Y-36023808D02*
X237788152Y-36023808D01*
X237788152Y-36023808D02*
X237597676Y-35976189D01*
X237597676Y-35976189D02*
X237502438Y-35880951D01*
X237502438Y-35880951D02*
X237454819Y-35785713D01*
X237454819Y-34928570D02*
X238264342Y-34928570D01*
X238264342Y-34928570D02*
X238359580Y-34880951D01*
X238359580Y-34880951D02*
X238407200Y-34833332D01*
X238407200Y-34833332D02*
X238454819Y-34738094D01*
X238454819Y-34738094D02*
X238454819Y-34547618D01*
X238454819Y-34547618D02*
X238407200Y-34452380D01*
X238407200Y-34452380D02*
X238359580Y-34404761D01*
X238359580Y-34404761D02*
X238264342Y-34357142D01*
X238264342Y-34357142D02*
X237454819Y-34357142D01*
X238359580Y-33309523D02*
X238407200Y-33357142D01*
X238407200Y-33357142D02*
X238454819Y-33499999D01*
X238454819Y-33499999D02*
X238454819Y-33595237D01*
X238454819Y-33595237D02*
X238407200Y-33738094D01*
X238407200Y-33738094D02*
X238311961Y-33833332D01*
X238311961Y-33833332D02*
X238216723Y-33880951D01*
X238216723Y-33880951D02*
X238026247Y-33928570D01*
X238026247Y-33928570D02*
X237883390Y-33928570D01*
X237883390Y-33928570D02*
X237692914Y-33880951D01*
X237692914Y-33880951D02*
X237597676Y-33833332D01*
X237597676Y-33833332D02*
X237502438Y-33738094D01*
X237502438Y-33738094D02*
X237454819Y-33595237D01*
X237454819Y-33595237D02*
X237454819Y-33499999D01*
X237454819Y-33499999D02*
X237502438Y-33357142D01*
X237502438Y-33357142D02*
X237550057Y-33309523D01*
X238454819Y-32880951D02*
X237454819Y-32880951D01*
X237931009Y-32880951D02*
X237931009Y-32309523D01*
X238454819Y-32309523D02*
X237454819Y-32309523D01*
X238454819Y-31833332D02*
X237454819Y-31833332D01*
X237454819Y-31833332D02*
X237454819Y-31452380D01*
X237454819Y-31452380D02*
X237502438Y-31357142D01*
X237502438Y-31357142D02*
X237550057Y-31309523D01*
X237550057Y-31309523D02*
X237645295Y-31261904D01*
X237645295Y-31261904D02*
X237788152Y-31261904D01*
X237788152Y-31261904D02*
X237883390Y-31309523D01*
X237883390Y-31309523D02*
X237931009Y-31357142D01*
X237931009Y-31357142D02*
X237978628Y-31452380D01*
X237978628Y-31452380D02*
X237978628Y-31833332D01*
X238169104Y-30880951D02*
X238169104Y-30404761D01*
X238454819Y-30976189D02*
X237454819Y-30642856D01*
X237454819Y-30642856D02*
X238454819Y-30309523D01*
X238454819Y-29976189D02*
X237454819Y-29976189D01*
X237454819Y-29976189D02*
X237454819Y-29738094D01*
X237454819Y-29738094D02*
X237502438Y-29595237D01*
X237502438Y-29595237D02*
X237597676Y-29499999D01*
X237597676Y-29499999D02*
X237692914Y-29452380D01*
X237692914Y-29452380D02*
X237883390Y-29404761D01*
X237883390Y-29404761D02*
X238026247Y-29404761D01*
X238026247Y-29404761D02*
X238216723Y-29452380D01*
X238216723Y-29452380D02*
X238311961Y-29499999D01*
X238311961Y-29499999D02*
X238407200Y-29595237D01*
X238407200Y-29595237D02*
X238454819Y-29738094D01*
X238454819Y-29738094D02*
X238454819Y-29976189D01*
X238454819Y-28452380D02*
X238454819Y-29023808D01*
X238454819Y-28738094D02*
X237454819Y-28738094D01*
X237454819Y-28738094D02*
X237597676Y-28833332D01*
X237597676Y-28833332D02*
X237692914Y-28928570D01*
X237692914Y-28928570D02*
X237740533Y-29023808D01*
X69041819Y-29513666D02*
X68565628Y-29846999D01*
X69041819Y-30085094D02*
X68041819Y-30085094D01*
X68041819Y-30085094D02*
X68041819Y-29704142D01*
X68041819Y-29704142D02*
X68089438Y-29608904D01*
X68089438Y-29608904D02*
X68137057Y-29561285D01*
X68137057Y-29561285D02*
X68232295Y-29513666D01*
X68232295Y-29513666D02*
X68375152Y-29513666D01*
X68375152Y-29513666D02*
X68470390Y-29561285D01*
X68470390Y-29561285D02*
X68518009Y-29608904D01*
X68518009Y-29608904D02*
X68565628Y-29704142D01*
X68565628Y-29704142D02*
X68565628Y-30085094D01*
X69041819Y-28561285D02*
X69041819Y-29132713D01*
X69041819Y-28846999D02*
X68041819Y-28846999D01*
X68041819Y-28846999D02*
X68184676Y-28942237D01*
X68184676Y-28942237D02*
X68279914Y-29037475D01*
X68279914Y-29037475D02*
X68327533Y-29132713D01*
X223407200Y-38642856D02*
X223454819Y-38499999D01*
X223454819Y-38499999D02*
X223454819Y-38261904D01*
X223454819Y-38261904D02*
X223407200Y-38166666D01*
X223407200Y-38166666D02*
X223359580Y-38119047D01*
X223359580Y-38119047D02*
X223264342Y-38071428D01*
X223264342Y-38071428D02*
X223169104Y-38071428D01*
X223169104Y-38071428D02*
X223073866Y-38119047D01*
X223073866Y-38119047D02*
X223026247Y-38166666D01*
X223026247Y-38166666D02*
X222978628Y-38261904D01*
X222978628Y-38261904D02*
X222931009Y-38452380D01*
X222931009Y-38452380D02*
X222883390Y-38547618D01*
X222883390Y-38547618D02*
X222835771Y-38595237D01*
X222835771Y-38595237D02*
X222740533Y-38642856D01*
X222740533Y-38642856D02*
X222645295Y-38642856D01*
X222645295Y-38642856D02*
X222550057Y-38595237D01*
X222550057Y-38595237D02*
X222502438Y-38547618D01*
X222502438Y-38547618D02*
X222454819Y-38452380D01*
X222454819Y-38452380D02*
X222454819Y-38214285D01*
X222454819Y-38214285D02*
X222502438Y-38071428D01*
X222454819Y-37738094D02*
X223454819Y-37499999D01*
X223454819Y-37499999D02*
X222740533Y-37309523D01*
X222740533Y-37309523D02*
X223454819Y-37119047D01*
X223454819Y-37119047D02*
X222454819Y-36880952D01*
X223454819Y-35976190D02*
X223454819Y-36547618D01*
X223454819Y-36261904D02*
X222454819Y-36261904D01*
X222454819Y-36261904D02*
X222597676Y-36357142D01*
X222597676Y-36357142D02*
X222692914Y-36452380D01*
X222692914Y-36452380D02*
X222740533Y-36547618D01*
X222788152Y-35119047D02*
X223454819Y-35119047D01*
X222407200Y-35357142D02*
X223121485Y-35595237D01*
X223121485Y-35595237D02*
X223121485Y-34976190D01*
X223550057Y-34833333D02*
X223550057Y-34071428D01*
X223454819Y-33833332D02*
X222454819Y-33833332D01*
X222454819Y-33833332D02*
X222454819Y-33452380D01*
X222454819Y-33452380D02*
X222502438Y-33357142D01*
X222502438Y-33357142D02*
X222550057Y-33309523D01*
X222550057Y-33309523D02*
X222645295Y-33261904D01*
X222645295Y-33261904D02*
X222788152Y-33261904D01*
X222788152Y-33261904D02*
X222883390Y-33309523D01*
X222883390Y-33309523D02*
X222931009Y-33357142D01*
X222931009Y-33357142D02*
X222978628Y-33452380D01*
X222978628Y-33452380D02*
X222978628Y-33833332D01*
X223407200Y-32880951D02*
X223454819Y-32738094D01*
X223454819Y-32738094D02*
X223454819Y-32499999D01*
X223454819Y-32499999D02*
X223407200Y-32404761D01*
X223407200Y-32404761D02*
X223359580Y-32357142D01*
X223359580Y-32357142D02*
X223264342Y-32309523D01*
X223264342Y-32309523D02*
X223169104Y-32309523D01*
X223169104Y-32309523D02*
X223073866Y-32357142D01*
X223073866Y-32357142D02*
X223026247Y-32404761D01*
X223026247Y-32404761D02*
X222978628Y-32499999D01*
X222978628Y-32499999D02*
X222931009Y-32690475D01*
X222931009Y-32690475D02*
X222883390Y-32785713D01*
X222883390Y-32785713D02*
X222835771Y-32833332D01*
X222835771Y-32833332D02*
X222740533Y-32880951D01*
X222740533Y-32880951D02*
X222645295Y-32880951D01*
X222645295Y-32880951D02*
X222550057Y-32833332D01*
X222550057Y-32833332D02*
X222502438Y-32785713D01*
X222502438Y-32785713D02*
X222454819Y-32690475D01*
X222454819Y-32690475D02*
X222454819Y-32452380D01*
X222454819Y-32452380D02*
X222502438Y-32309523D01*
X223454819Y-31357142D02*
X223454819Y-31928570D01*
X223454819Y-31642856D02*
X222454819Y-31642856D01*
X222454819Y-31642856D02*
X222597676Y-31738094D01*
X222597676Y-31738094D02*
X222692914Y-31833332D01*
X222692914Y-31833332D02*
X222740533Y-31928570D01*
D11*
%TO.C,C1*%
X68733164Y-30892000D02*
X68948836Y-30892000D01*
X68733164Y-31612000D02*
X68948836Y-31612000D01*
%TO.C,SW9_HK1*%
X221803943Y-82900000D02*
X221803943Y-97100000D01*
X221803943Y-97100000D02*
X236003943Y-97100000D01*
X236003943Y-82900000D02*
X221803943Y-82900000D01*
X236003943Y-97100000D02*
X236003943Y-82900000D01*
%TO.C,Y1*%
X94496000Y-38530000D02*
X97796000Y-38530000D01*
X97796000Y-38530000D02*
X97796000Y-34530000D01*
%TO.C,C9*%
X77606586Y-38070000D02*
X77390914Y-38070000D01*
X77606586Y-38790000D02*
X77390914Y-38790000D01*
%TO.C,C7*%
X78987836Y-31570000D02*
X78772164Y-31570000D01*
X78987836Y-32290000D02*
X78772164Y-32290000D01*
%TO.C,SW11_START1*%
X193890000Y-28890000D02*
X196400000Y-28890000D01*
X193890000Y-41110000D02*
X193890000Y-28890000D01*
X193890000Y-41110000D02*
X196400000Y-41110000D01*
X198700000Y-28890000D02*
X201300000Y-28890000D01*
X198700000Y-41110000D02*
X201300000Y-41110000D01*
X203600000Y-28890000D02*
X206110000Y-28890000D01*
X203600000Y-41110000D02*
X206110000Y-41110000D01*
X206110000Y-28890000D02*
X206110000Y-41110000D01*
%TO.C,C8*%
X91212164Y-35070000D02*
X91427836Y-35070000D01*
X91212164Y-35790000D02*
X91427836Y-35790000D01*
%TO.C,SW1*%
X52155000Y-40930000D02*
X52155000Y-42930000D01*
X53205000Y-39630000D02*
X53655000Y-39180000D01*
X53205000Y-44230000D02*
X53655000Y-44680000D01*
X53655000Y-39180000D02*
X56155000Y-39180000D01*
X53655000Y-44680000D02*
X56155000Y-44680000D01*
X56605000Y-39630000D02*
X56155000Y-39180000D01*
X56605000Y-44230000D02*
X56155000Y-44680000D01*
X57655000Y-40930000D02*
X57655000Y-42930000D01*
%TO.C,R4*%
X92233641Y-37476000D02*
X91926359Y-37476000D01*
X92233641Y-38236000D02*
X91926359Y-38236000D01*
%TO.C,C15*%
X85270000Y-31017836D02*
X85270000Y-30802164D01*
X85990000Y-31017836D02*
X85990000Y-30802164D01*
%TO.C,R5*%
X63607359Y-42556000D02*
X63914641Y-42556000D01*
X63607359Y-43316000D02*
X63914641Y-43316000D01*
%TO.C,R2*%
X73442000Y-32024359D02*
X73442000Y-32331641D01*
X74202000Y-32024359D02*
X74202000Y-32331641D01*
%TO.C,SW20_RIGHT1*%
X116627346Y-86842492D02*
X129746435Y-92276597D01*
X122061451Y-73723403D02*
X116627346Y-86842492D01*
X129746435Y-92276597D02*
X135180540Y-79157508D01*
X135180540Y-79157508D02*
X122061451Y-73723403D01*
%TO.C,SW18_DOWN1*%
X100558175Y-75856854D02*
X113677264Y-81290959D01*
X105992280Y-62737765D02*
X100558175Y-75856854D01*
X113677264Y-81290959D02*
X119111369Y-68171870D01*
X119111369Y-68171870D02*
X105992280Y-62737765D01*
%TO.C,U2*%
X63912000Y-32268000D02*
X63912000Y-33528000D01*
X63912000Y-39088000D02*
X63912000Y-37828000D01*
X67672000Y-32268000D02*
X63912000Y-32268000D01*
X67672000Y-39088000D02*
X63912000Y-39088000D01*
X69192000Y-39318000D02*
X68712000Y-39318000D01*
X68952000Y-38988000D01*
X69192000Y-39318000D01*
G36*
X69192000Y-39318000D02*
G01*
X68712000Y-39318000D01*
X68952000Y-38988000D01*
X69192000Y-39318000D01*
G37*
%TO.C,J2*%
X93480000Y-30530000D02*
X93480000Y-32330000D01*
X93480000Y-30530000D02*
X99280000Y-30530000D01*
X99280000Y-32330000D02*
X93480000Y-32330000D01*
X99280000Y-32330000D02*
X99280000Y-30530000D01*
%TO.C,SW17_W1*%
X107848294Y-58256949D02*
X120967383Y-63691054D01*
X113282399Y-45137860D02*
X107848294Y-58256949D01*
X120967383Y-63691054D02*
X126401488Y-50571965D01*
X126401488Y-50571965D02*
X113282399Y-45137860D01*
%TO.C,C16*%
X83020000Y-31037836D02*
X83020000Y-30822164D01*
X83740000Y-31037836D02*
X83740000Y-30822164D01*
%TO.C,SW3_MK1*%
X192803943Y-82900000D02*
X192803943Y-97100000D01*
X192803943Y-97100000D02*
X207003943Y-97100000D01*
X207003943Y-82900000D02*
X192803943Y-82900000D01*
X207003943Y-97100000D02*
X207003943Y-82900000D01*
%TO.C,C10*%
X78106586Y-37070000D02*
X77890914Y-37070000D01*
X78106586Y-37790000D02*
X77890914Y-37790000D01*
%TO.C,C2*%
X62385000Y-31105836D02*
X62385000Y-30890164D01*
X63105000Y-31105836D02*
X63105000Y-30890164D01*
%TO.C,C6*%
X78987836Y-32570000D02*
X78772164Y-32570000D01*
X78987836Y-33290000D02*
X78772164Y-33290000D01*
%TO.C,C12*%
X81270000Y-43572164D02*
X81270000Y-43787836D01*
X81990000Y-43572164D02*
X81990000Y-43787836D01*
%TO.C,SW2_LK1*%
X167803943Y-96900000D02*
X167803943Y-111100000D01*
X167803943Y-111100000D02*
X182003943Y-111100000D01*
X182003943Y-96900000D02*
X167803943Y-96900000D01*
X182003943Y-111100000D02*
X182003943Y-96900000D01*
%TO.C,SW8_DP1*%
X52900000Y-64891696D02*
X52900000Y-79091696D01*
X52900000Y-79091696D02*
X67100000Y-79091696D01*
X67100000Y-64891696D02*
X52900000Y-64891696D01*
X67100000Y-79091696D02*
X67100000Y-64891696D01*
%TO.C,SW12_THROW1*%
X156980000Y-67430000D02*
X156980000Y-53230000D01*
X156980000Y-53230000D02*
X142780000Y-53230000D01*
X142780000Y-67430000D02*
X156980000Y-67430000D01*
X142780000Y-53230000D02*
X142780000Y-67430000D01*
%TO.C,C3*%
X98492000Y-37100164D02*
X98492000Y-37315836D01*
X99212000Y-37100164D02*
X99212000Y-37315836D01*
%TO.C,R7*%
X77642742Y-33907500D02*
X78117258Y-33907500D01*
X77642742Y-34952500D02*
X78117258Y-34952500D01*
%TO.C,R6*%
X67191000Y-44165379D02*
X67191000Y-44500621D01*
X67951000Y-44165379D02*
X67951000Y-44500621D01*
%TO.C,C5*%
X71908164Y-46894000D02*
X72123836Y-46894000D01*
X71908164Y-47614000D02*
X72123836Y-47614000D01*
%TO.C,C13*%
X86272164Y-42570000D02*
X86487836Y-42570000D01*
X86272164Y-43290000D02*
X86487836Y-43290000D01*
%TO.C,U1*%
X81068000Y-33268000D02*
X81718000Y-33268000D01*
X81068000Y-33918000D02*
X81068000Y-33268000D01*
X81068000Y-39838000D02*
X81068000Y-40188000D01*
X81718000Y-40488000D02*
X81308000Y-40488000D01*
X88288000Y-33268000D02*
X87638000Y-33268000D01*
X88288000Y-33918000D02*
X88288000Y-33268000D01*
X88288000Y-39838000D02*
X88288000Y-40488000D01*
X88288000Y-40488000D02*
X87638000Y-40488000D01*
X81068000Y-40488000D02*
X80738000Y-40728000D01*
X80738000Y-40248000D01*
X81068000Y-40488000D01*
G36*
X81068000Y-40488000D02*
G01*
X80738000Y-40728000D01*
X80738000Y-40248000D01*
X81068000Y-40488000D01*
G37*
%TO.C,J1*%
X71710000Y-23330000D02*
X71710000Y-25030000D01*
X81050000Y-23330000D02*
X81050000Y-25030000D01*
%TO.C,C14*%
X91212164Y-36480000D02*
X91427836Y-36480000D01*
X91212164Y-37200000D02*
X91427836Y-37200000D01*
%TO.C,SW5_MP1*%
X192803943Y-53900000D02*
X192803943Y-68100000D01*
X192803943Y-68100000D02*
X207003943Y-68100000D01*
X207003943Y-53900000D02*
X192803943Y-53900000D01*
X207003943Y-68100000D02*
X207003943Y-53900000D01*
%TO.C,SW6_DI1*%
X167984257Y-38900561D02*
X167984257Y-53100561D01*
X167984257Y-53100561D02*
X182184257Y-53100561D01*
X182184257Y-38900561D02*
X167984257Y-38900561D01*
X182184257Y-53100561D02*
X182184257Y-38900561D01*
%TO.C,R3*%
X78976359Y-29300000D02*
X79283641Y-29300000D01*
X78976359Y-30060000D02*
X79283641Y-30060000D01*
%TO.C,SW19_LEFT1*%
X82958270Y-68566735D02*
X96077359Y-74000840D01*
X88392375Y-55447646D02*
X82958270Y-68566735D01*
X96077359Y-74000840D02*
X101511464Y-60881751D01*
X101511464Y-60881751D02*
X88392375Y-55447646D01*
%TO.C,R8*%
X77642742Y-35407500D02*
X78117258Y-35407500D01*
X77642742Y-36452500D02*
X78117258Y-36452500D01*
%TO.C,SW4_LP1*%
X167803943Y-67900000D02*
X167803943Y-82100000D01*
X167803943Y-82100000D02*
X182003943Y-82100000D01*
X182003943Y-67900000D02*
X167803943Y-67900000D01*
X182003943Y-82100000D02*
X182003943Y-67900000D01*
%TO.C,U3*%
X72085000Y-40719000D02*
X72085000Y-40979000D01*
X72085000Y-46169000D02*
X72085000Y-45909000D01*
X74810000Y-40719000D02*
X72085000Y-40719000D01*
X74810000Y-40719000D02*
X77535000Y-40719000D01*
X74810000Y-46169000D02*
X72085000Y-46169000D01*
X74810000Y-46169000D02*
X77535000Y-46169000D01*
X77535000Y-40719000D02*
X77535000Y-40979000D01*
X77535000Y-46169000D02*
X77535000Y-45909000D01*
X78557500Y-46239000D02*
X78077500Y-46239000D01*
X78317500Y-45909000D01*
X78557500Y-46239000D01*
G36*
X78557500Y-46239000D02*
G01*
X78077500Y-46239000D01*
X78317500Y-45909000D01*
X78557500Y-46239000D01*
G37*
%TO.C,SW7_HP1*%
X221803943Y-53900000D02*
X221803943Y-68100000D01*
X221803943Y-68100000D02*
X236003943Y-68100000D01*
X236003943Y-53900000D02*
X221803943Y-53900000D01*
X236003943Y-68100000D02*
X236003943Y-53900000D01*
%TO.C,SW16_SPACE1*%
X143304094Y-128885876D02*
X143304094Y-143085876D01*
X143304094Y-143085876D02*
X157504094Y-143085876D01*
X157504094Y-128885876D02*
X143304094Y-128885876D01*
X157504094Y-143085876D02*
X157504094Y-128885876D01*
%TO.C,SW10_SHARE1*%
X208890000Y-28890000D02*
X211400000Y-28890000D01*
X208890000Y-41110000D02*
X208890000Y-28890000D01*
X208890000Y-41110000D02*
X211400000Y-41110000D01*
X213700000Y-28890000D02*
X216300000Y-28890000D01*
X213700000Y-41110000D02*
X216300000Y-41110000D01*
X218600000Y-28890000D02*
X221110000Y-28890000D01*
X218600000Y-41110000D02*
X221110000Y-41110000D01*
X221110000Y-28890000D02*
X221110000Y-41110000D01*
%TO.C,C11*%
X71520000Y-35537836D02*
X71520000Y-35322164D01*
X72240000Y-35537836D02*
X72240000Y-35322164D01*
%TO.C,C4*%
X95987836Y-33320000D02*
X95772164Y-33320000D01*
X95987836Y-34040000D02*
X95772164Y-34040000D01*
%TO.C,SW15_TOUCHPAD1*%
X238890000Y-28890000D02*
X241400000Y-28890000D01*
X238890000Y-41110000D02*
X238890000Y-28890000D01*
X238890000Y-41110000D02*
X241400000Y-41110000D01*
X243700000Y-28890000D02*
X246300000Y-28890000D01*
X243700000Y-41110000D02*
X246300000Y-41110000D01*
X248600000Y-28890000D02*
X251110000Y-28890000D01*
X248600000Y-41110000D02*
X251110000Y-41110000D01*
X251110000Y-28890000D02*
X251110000Y-41110000D01*
%TO.C,R1*%
X69477000Y-29193359D02*
X69477000Y-29500641D01*
X70237000Y-29193359D02*
X70237000Y-29500641D01*
%TO.C,SW14_PS1*%
X223890000Y-28890000D02*
X226400000Y-28890000D01*
X223890000Y-41110000D02*
X223890000Y-28890000D01*
X223890000Y-41110000D02*
X226400000Y-41110000D01*
X228700000Y-28890000D02*
X231300000Y-28890000D01*
X228700000Y-41110000D02*
X231300000Y-41110000D01*
X233600000Y-28890000D02*
X236110000Y-28890000D01*
X233600000Y-41110000D02*
X236110000Y-41110000D01*
X236110000Y-28890000D02*
X236110000Y-41110000D01*
%TD*%
M02*
