%TF.GenerationSoftware,KiCad,Pcbnew,8.0.4*%
%TF.CreationDate,2024-07-22T23:57:25-07:00*%
%TF.ProjectId,leverless_controlller,6c657665-726c-4657-9373-5f636f6e7472,rev?*%
%TF.SameCoordinates,Original*%
%TF.FileFunction,Copper,L1,Top*%
%TF.FilePolarity,Positive*%
%FSLAX46Y46*%
G04 Gerber Fmt 4.6, Leading zero omitted, Abs format (unit mm)*
G04 Created by KiCad (PCBNEW 8.0.4) date 2024-07-22 23:57:25*
%MOMM*%
%LPD*%
G01*
G04 APERTURE LIST*
G04 Aperture macros list*
%AMRoundRect*
0 Rectangle with rounded corners*
0 $1 Rounding radius*
0 $2 $3 $4 $5 $6 $7 $8 $9 X,Y pos of 4 corners*
0 Add a 4 corners polygon primitive as box body*
4,1,4,$2,$3,$4,$5,$6,$7,$8,$9,$2,$3,0*
0 Add four circle primitives for the rounded corners*
1,1,$1+$1,$2,$3*
1,1,$1+$1,$4,$5*
1,1,$1+$1,$6,$7*
1,1,$1+$1,$8,$9*
0 Add four rect primitives between the rounded corners*
20,1,$1+$1,$2,$3,$4,$5,0*
20,1,$1+$1,$4,$5,$6,$7,0*
20,1,$1+$1,$6,$7,$8,$9,0*
20,1,$1+$1,$8,$9,$2,$3,0*%
G04 Aperture macros list end*
%TA.AperFunction,SMDPad,CuDef*%
%ADD10RoundRect,0.140000X-0.140000X-0.170000X0.140000X-0.170000X0.140000X0.170000X-0.140000X0.170000X0*%
%TD*%
%TA.AperFunction,ComponentPad*%
%ADD11C,2.500000*%
%TD*%
%TA.AperFunction,ComponentPad*%
%ADD12C,0.600000*%
%TD*%
%TA.AperFunction,SMDPad,CuDef*%
%ADD13R,1.200000X1.400000*%
%TD*%
%TA.AperFunction,SMDPad,CuDef*%
%ADD14RoundRect,0.140000X0.140000X0.170000X-0.140000X0.170000X-0.140000X-0.170000X0.140000X-0.170000X0*%
%TD*%
%TA.AperFunction,ComponentPad*%
%ADD15O,1.700000X2.900000*%
%TD*%
%TA.AperFunction,SMDPad,CuDef*%
%ADD16R,1.700000X1.000000*%
%TD*%
%TA.AperFunction,SMDPad,CuDef*%
%ADD17RoundRect,0.135000X0.135000X0.185000X-0.135000X0.185000X-0.135000X-0.185000X0.135000X-0.185000X0*%
%TD*%
%TA.AperFunction,SMDPad,CuDef*%
%ADD18RoundRect,0.140000X0.170000X-0.140000X0.170000X0.140000X-0.170000X0.140000X-0.170000X-0.140000X0*%
%TD*%
%TA.AperFunction,SMDPad,CuDef*%
%ADD19RoundRect,0.135000X-0.135000X-0.185000X0.135000X-0.185000X0.135000X0.185000X-0.135000X0.185000X0*%
%TD*%
%TA.AperFunction,SMDPad,CuDef*%
%ADD20RoundRect,0.135000X-0.185000X0.135000X-0.185000X-0.135000X0.185000X-0.135000X0.185000X0.135000X0*%
%TD*%
%TA.AperFunction,SMDPad,CuDef*%
%ADD21RoundRect,0.375000X0.625000X0.375000X-0.625000X0.375000X-0.625000X-0.375000X0.625000X-0.375000X0*%
%TD*%
%TA.AperFunction,SMDPad,CuDef*%
%ADD22RoundRect,0.500000X0.500000X1.400000X-0.500000X1.400000X-0.500000X-1.400000X0.500000X-1.400000X0*%
%TD*%
%TA.AperFunction,ComponentPad*%
%ADD23C,1.400000*%
%TD*%
%TA.AperFunction,SMDPad,CuDef*%
%ADD24RoundRect,0.140000X-0.170000X0.140000X-0.170000X-0.140000X0.170000X-0.140000X0.170000X0.140000X0*%
%TD*%
%TA.AperFunction,SMDPad,CuDef*%
%ADD25RoundRect,0.200000X-0.200000X-0.275000X0.200000X-0.275000X0.200000X0.275000X-0.200000X0.275000X0*%
%TD*%
%TA.AperFunction,SMDPad,CuDef*%
%ADD26RoundRect,0.160000X-0.160000X0.197500X-0.160000X-0.197500X0.160000X-0.197500X0.160000X0.197500X0*%
%TD*%
%TA.AperFunction,SMDPad,CuDef*%
%ADD27RoundRect,0.050000X0.050000X-0.387500X0.050000X0.387500X-0.050000X0.387500X-0.050000X-0.387500X0*%
%TD*%
%TA.AperFunction,SMDPad,CuDef*%
%ADD28RoundRect,0.050000X0.387500X-0.050000X0.387500X0.050000X-0.387500X0.050000X-0.387500X-0.050000X0*%
%TD*%
%TA.AperFunction,HeatsinkPad*%
%ADD29R,3.200000X3.200000*%
%TD*%
%TA.AperFunction,SMDPad,CuDef*%
%ADD30RoundRect,0.150000X0.150000X0.420000X-0.150000X0.420000X-0.150000X-0.420000X0.150000X-0.420000X0*%
%TD*%
%TA.AperFunction,SMDPad,CuDef*%
%ADD31RoundRect,0.075000X0.075000X0.495000X-0.075000X0.495000X-0.075000X-0.495000X0.075000X-0.495000X0*%
%TD*%
%TA.AperFunction,ComponentPad*%
%ADD32O,1.000000X2.000000*%
%TD*%
%TA.AperFunction,ComponentPad*%
%ADD33O,1.000000X1.700000*%
%TD*%
%TA.AperFunction,SMDPad,CuDef*%
%ADD34RoundRect,0.150000X0.650000X0.150000X-0.650000X0.150000X-0.650000X-0.150000X0.650000X-0.150000X0*%
%TD*%
%TA.AperFunction,ViaPad*%
%ADD35C,0.800000*%
%TD*%
%TA.AperFunction,Conductor*%
%ADD36C,0.150000*%
%TD*%
%TA.AperFunction,Conductor*%
%ADD37C,0.200000*%
%TD*%
%TA.AperFunction,Conductor*%
%ADD38C,0.800000*%
%TD*%
%TA.AperFunction,Conductor*%
%ADD39C,0.300000*%
%TD*%
G04 APERTURE END LIST*
D10*
%TO.P,C1,1*%
%TO.N,VBUS*%
X68361000Y-31252000D03*
%TO.P,C1,2*%
%TO.N,GND*%
X69321000Y-31252000D03*
%TD*%
D11*
%TO.P,SW9_HK1,1,1*%
%TO.N,R2*%
X225093943Y-87460000D03*
%TO.P,SW9_HK1,2,2*%
%TO.N,GND*%
X231443943Y-84920000D03*
%TD*%
D12*
%TO.P,,57,GND*%
%TO.N,GND*%
X83700000Y-36840000D03*
%TD*%
D13*
%TO.P,Y1,1,1*%
%TO.N,/Main/XIN*%
X96996000Y-37630000D03*
%TO.P,Y1,2,2*%
%TO.N,GND*%
X96996000Y-35430000D03*
%TO.P,Y1,3,3*%
%TO.N,Net-(C4-Pad2)*%
X95296000Y-35430000D03*
%TO.P,Y1,4,4*%
%TO.N,GND*%
X95296000Y-37630000D03*
%TD*%
D14*
%TO.P,C9,1*%
%TO.N,+1V1*%
X77978750Y-38430000D03*
%TO.P,C9,2*%
%TO.N,GND*%
X77018750Y-38430000D03*
%TD*%
D12*
%TO.P,,57,GND*%
%TO.N,GND*%
X85732000Y-36840000D03*
%TD*%
D14*
%TO.P,C7,1*%
%TO.N,+3.3V*%
X79360000Y-31930000D03*
%TO.P,C7,2*%
%TO.N,GND*%
X78400000Y-31930000D03*
%TD*%
D15*
%TO.P,SW11_START1,1,1*%
%TO.N,S2*%
X197500000Y-41250000D03*
X197500000Y-28750000D03*
%TO.P,SW11_START1,2,2*%
%TO.N,GND*%
X202500000Y-41250000D03*
X202500000Y-28750000D03*
%TD*%
D10*
%TO.P,C8,1*%
%TO.N,+1V1*%
X90840000Y-35430000D03*
%TO.P,C8,2*%
%TO.N,GND*%
X91800000Y-35430000D03*
%TD*%
D16*
%TO.P,SW1,1,1*%
%TO.N,GND*%
X51755000Y-40030000D03*
X58055000Y-40030000D03*
%TO.P,SW1,2,2*%
%TO.N,Net-(R5-Pad1)*%
X51755000Y-43830000D03*
X58055000Y-43830000D03*
%TD*%
D12*
%TO.P,,57,GND*%
%TO.N,GND*%
X85732000Y-35824000D03*
%TD*%
%TO.P,,57,GND*%
%TO.N,GND*%
X85732000Y-37856000D03*
%TD*%
D17*
%TO.P,R4,1*%
%TO.N,Net-(C4-Pad2)*%
X92590000Y-37856000D03*
%TO.P,R4,2*%
%TO.N,/Main/XOUT*%
X91570000Y-37856000D03*
%TD*%
D18*
%TO.P,C15,1*%
%TO.N,+3.3V*%
X85630000Y-31390000D03*
%TO.P,C15,2*%
%TO.N,GND*%
X85630000Y-30430000D03*
%TD*%
D19*
%TO.P,R5,1*%
%TO.N,Net-(R5-Pad1)*%
X63251000Y-42936000D03*
%TO.P,R5,2*%
%TO.N,/Main/QSPI_SS*%
X64271000Y-42936000D03*
%TD*%
D20*
%TO.P,R2,1*%
%TO.N,Net-(J1-CC2)*%
X73822000Y-31668000D03*
%TO.P,R2,2*%
%TO.N,GND*%
X73822000Y-32688000D03*
%TD*%
D11*
%TO.P,SW20_RIGHT1,1,1*%
%TO.N,RIGHT*%
X123355978Y-79195322D03*
%TO.P,SW20_RIGHT1,2,2*%
%TO.N,GND*%
X130194629Y-79278708D03*
%TD*%
%TO.P,SW18_DOWN1,1,1*%
%TO.N,DOWN*%
X107286807Y-68209684D03*
%TO.P,SW18_DOWN1,2,2*%
%TO.N,GND*%
X114125458Y-68293070D03*
%TD*%
D21*
%TO.P,U2,1,GND*%
%TO.N,GND*%
X68972000Y-37978000D03*
%TO.P,U2,2,VO*%
%TO.N,+3.3V*%
X68972000Y-35678000D03*
D22*
X62672000Y-35678000D03*
D21*
%TO.P,U2,3,VI*%
%TO.N,VBUS*%
X68972000Y-33378000D03*
%TD*%
D23*
%TO.P,J2,1,Pin_1*%
%TO.N,/Main/SWCLK*%
X98380000Y-31430000D03*
%TO.P,J2,2,Pin_2*%
%TO.N,GND*%
X96380000Y-31430000D03*
%TO.P,J2,3,Pin_3*%
%TO.N,/Main/SWDIO*%
X94380000Y-31430000D03*
%TD*%
D11*
%TO.P,SW17_W1,1,1*%
%TO.N,W*%
X114576926Y-50609779D03*
%TO.P,SW17_W1,2,2*%
%TO.N,GND*%
X121415577Y-50693165D03*
%TD*%
D18*
%TO.P,C16,1*%
%TO.N,+3.3V*%
X83380000Y-31410000D03*
%TO.P,C16,2*%
%TO.N,GND*%
X83380000Y-30450000D03*
%TD*%
D11*
%TO.P,SW3_MK1,1,1*%
%TO.N,B2*%
X196093943Y-87460000D03*
%TO.P,SW3_MK1,2,2*%
%TO.N,GND*%
X202443943Y-84920000D03*
%TD*%
D14*
%TO.P,C10,1*%
%TO.N,+3.3V*%
X78478750Y-37430000D03*
%TO.P,C10,2*%
%TO.N,GND*%
X77518750Y-37430000D03*
%TD*%
D18*
%TO.P,C2,1*%
%TO.N,+3.3V*%
X62745000Y-31478000D03*
%TO.P,C2,2*%
%TO.N,GND*%
X62745000Y-30518000D03*
%TD*%
D14*
%TO.P,C6,1*%
%TO.N,+1V1*%
X79360000Y-32930000D03*
%TO.P,C6,2*%
%TO.N,GND*%
X78400000Y-32930000D03*
%TD*%
D24*
%TO.P,C12,1*%
%TO.N,+3.3V*%
X81630000Y-43200000D03*
%TO.P,C12,2*%
%TO.N,GND*%
X81630000Y-44160000D03*
%TD*%
D11*
%TO.P,SW2_LK1,1,1*%
%TO.N,B1*%
X171093943Y-101460000D03*
%TO.P,SW2_LK1,2,2*%
%TO.N,GND*%
X177443943Y-98920000D03*
%TD*%
%TO.P,SW8_DP1,1,1*%
%TO.N,L2*%
X56190000Y-69451696D03*
%TO.P,SW8_DP1,2,2*%
%TO.N,GND*%
X62540000Y-66911696D03*
%TD*%
%TO.P,SW12_THROW1,2,2*%
%TO.N,GND*%
X152420000Y-55250000D03*
%TO.P,SW12_THROW1,1,1*%
%TO.N,L3*%
X146070000Y-57790000D03*
%TD*%
D24*
%TO.P,C3,1*%
%TO.N,GND*%
X98852000Y-36728000D03*
%TO.P,C3,2*%
%TO.N,/Main/XIN*%
X98852000Y-37688000D03*
%TD*%
D12*
%TO.P,,57,GND*%
%TO.N,GND*%
X84716000Y-37856000D03*
%TD*%
D25*
%TO.P,R7,1*%
%TO.N,/Main/D-*%
X77055000Y-34430000D03*
%TO.P,R7,2*%
%TO.N,Net-(U1-USB_DM)*%
X78705000Y-34430000D03*
%TD*%
D12*
%TO.P,,57,GND*%
%TO.N,GND*%
X84716000Y-35824000D03*
%TD*%
D26*
%TO.P,R6,1*%
%TO.N,+3.3V*%
X67571000Y-43735500D03*
%TO.P,R6,2*%
%TO.N,/Main/QSPI_SS*%
X67571000Y-44930500D03*
%TD*%
D12*
%TO.P,,57,GND*%
%TO.N,GND*%
X84716000Y-36840000D03*
%TD*%
D10*
%TO.P,C5,1*%
%TO.N,+3.3V*%
X71536000Y-47254000D03*
%TO.P,C5,2*%
%TO.N,GND*%
X72496000Y-47254000D03*
%TD*%
%TO.P,C13,1*%
%TO.N,+3.3V*%
X85900000Y-42930000D03*
%TO.P,C13,2*%
%TO.N,GND*%
X86860000Y-42930000D03*
%TD*%
D27*
%TO.P,U1,1,IOVDD*%
%TO.N,+3.3V*%
X82078000Y-40315500D03*
%TO.P,U1,2,GPIO0*%
%TO.N,unconnected-(U1-GPIO0-Pad2)*%
X82478000Y-40315500D03*
%TO.P,U1,3,GPIO1*%
%TO.N,L2*%
X82878000Y-40315500D03*
%TO.P,U1,4,GPIO2*%
%TO.N,LEFT*%
X83278000Y-40315500D03*
%TO.P,U1,5,GPIO3*%
%TO.N,DOWN*%
X83678000Y-40315500D03*
%TO.P,U1,6,GPIO4*%
%TO.N,RIGHT*%
X84078000Y-40315500D03*
%TO.P,U1,7,GPIO5*%
%TO.N,SPACE*%
X84478000Y-40315500D03*
%TO.P,U1,8,GPIO6*%
%TO.N,W*%
X84878000Y-40315500D03*
%TO.P,U1,9,GPIO7*%
%TO.N,B1*%
X85278000Y-40315500D03*
%TO.P,U1,10,IOVDD*%
%TO.N,+3.3V*%
X85678000Y-40315500D03*
%TO.P,U1,11,GPIO8*%
%TO.N,B2*%
X86078000Y-40315500D03*
%TO.P,U1,12,GPIO9*%
%TO.N,R2*%
X86478000Y-40315500D03*
%TO.P,U1,13,GPIO10*%
%TO.N,B3*%
X86878000Y-40315500D03*
%TO.P,U1,14,GPIO11*%
%TO.N,L3*%
X87278000Y-40315500D03*
D28*
%TO.P,U1,15,GPIO12*%
%TO.N,B4*%
X88115500Y-39478000D03*
%TO.P,U1,16,GPIO13*%
%TO.N,R1*%
X88115500Y-39078000D03*
%TO.P,U1,17,GPIO14*%
%TO.N,L1*%
X88115500Y-38678000D03*
%TO.P,U1,18,GPIO15*%
%TO.N,unconnected-(U1-GPIO15-Pad18)*%
X88115500Y-38278000D03*
%TO.P,U1,19,TESTEN*%
%TO.N,GND*%
X88115500Y-37878000D03*
%TO.P,U1,20,XIN*%
%TO.N,/Main/XIN*%
X88115500Y-37478000D03*
%TO.P,U1,21,XOUT*%
%TO.N,/Main/XOUT*%
X88115500Y-37078000D03*
%TO.P,U1,22,IOVDD*%
%TO.N,+3.3V*%
X88115500Y-36678000D03*
%TO.P,U1,23,DVDD*%
%TO.N,+1V1*%
X88115500Y-36278000D03*
%TO.P,U1,24,SWCLK*%
%TO.N,/Main/SWCLK*%
X88115500Y-35878000D03*
%TO.P,U1,25,SWD*%
%TO.N,/Main/SWDIO*%
X88115500Y-35478000D03*
%TO.P,U1,26,RUN*%
%TO.N,+3.3V*%
X88115500Y-35078000D03*
%TO.P,U1,27,GPIO16*%
%TO.N,A1*%
X88115500Y-34678000D03*
%TO.P,U1,28,GPIO17*%
%TO.N,A2*%
X88115500Y-34278000D03*
D27*
%TO.P,U1,29,GPIO18*%
%TO.N,S1*%
X87278000Y-33440500D03*
%TO.P,U1,30,GPIO19*%
%TO.N,S2*%
X86878000Y-33440500D03*
%TO.P,U1,31,GPIO20*%
%TO.N,unconnected-(U1-GPIO20-Pad31)*%
X86478000Y-33440500D03*
%TO.P,U1,32,GPIO21*%
%TO.N,unconnected-(U1-GPIO21-Pad32)*%
X86078000Y-33440500D03*
%TO.P,U1,33,IOVDD*%
%TO.N,+3.3V*%
X85678000Y-33440500D03*
%TO.P,U1,34,GPIO22*%
%TO.N,unconnected-(U1-GPIO22-Pad34)*%
X85278000Y-33440500D03*
%TO.P,U1,35,GPIO23*%
%TO.N,unconnected-(U1-GPIO23-Pad35)*%
X84878000Y-33440500D03*
%TO.P,U1,36,GPIO24*%
%TO.N,unconnected-(U1-GPIO24-Pad36)*%
X84478000Y-33440500D03*
%TO.P,U1,37,GPIO25*%
%TO.N,unconnected-(U1-GPIO25-Pad37)*%
X84078000Y-33440500D03*
%TO.P,U1,38,GPIO26_ADC0*%
%TO.N,unconnected-(U1-GPIO26_ADC0-Pad38)*%
X83678000Y-33440500D03*
%TO.P,U1,39,GPIO27_ADC1*%
%TO.N,unconnected-(U1-GPIO27_ADC1-Pad39)*%
X83278000Y-33440500D03*
%TO.P,U1,40,GPIO28_ADC2*%
%TO.N,unconnected-(U1-GPIO28_ADC2-Pad40)*%
X82878000Y-33440500D03*
%TO.P,U1,41,GPIO29_ADC3*%
%TO.N,unconnected-(U1-GPIO29_ADC3-Pad41)*%
X82478000Y-33440500D03*
%TO.P,U1,42,IOVDD*%
%TO.N,+3.3V*%
X82078000Y-33440500D03*
D28*
%TO.P,U1,43,ADC_AVDD*%
X81240500Y-34278000D03*
%TO.P,U1,44,VREG_IN*%
X81240500Y-34678000D03*
%TO.P,U1,45,VREG_VOUT*%
%TO.N,+1V1*%
X81240500Y-35078000D03*
%TO.P,U1,46,USB_DM*%
%TO.N,Net-(U1-USB_DM)*%
X81240500Y-35478000D03*
%TO.P,U1,47,USB_DP*%
%TO.N,Net-(U1-USB_DP)*%
X81240500Y-35878000D03*
%TO.P,U1,48,USB_VDD*%
%TO.N,+3.3V*%
X81240500Y-36278000D03*
%TO.P,U1,49,IOVDD*%
X81240500Y-36678000D03*
%TO.P,U1,50,DVDD*%
%TO.N,+1V1*%
X81240500Y-37078000D03*
%TO.P,U1,51,QSPI_SD3*%
%TO.N,/Main/QSPI_SD3*%
X81240500Y-37478000D03*
%TO.P,U1,52,QSPI_SCLK*%
%TO.N,/Main/QSPI_SCLK*%
X81240500Y-37878000D03*
%TO.P,U1,53,QSPI_SD0*%
%TO.N,/Main/QSPI_SD0*%
X81240500Y-38278000D03*
%TO.P,U1,54,QSPI_SD2*%
%TO.N,/Main/QSPI_SD2*%
X81240500Y-38678000D03*
%TO.P,U1,55,QSPI_SD1*%
%TO.N,/Main/QSPI_SD1*%
X81240500Y-39078000D03*
%TO.P,U1,56,QSPI_SS*%
%TO.N,/Main/QSPI_SS*%
X81240500Y-39478000D03*
D29*
%TO.P,U1,57,GND*%
%TO.N,GND*%
X84678000Y-36878000D03*
%TD*%
D30*
%TO.P,J1,A1,GND*%
%TO.N,GND*%
X79580000Y-26865000D03*
%TO.P,J1,A4,VBUS*%
%TO.N,VBUS*%
X78780000Y-26865000D03*
D31*
%TO.P,J1,A5,CC1*%
%TO.N,Net-(J1-CC1)*%
X77630000Y-26865000D03*
%TO.P,J1,A6,D+*%
%TO.N,/Main/D+*%
X76630000Y-26865000D03*
%TO.P,J1,A7,D-*%
%TO.N,/Main/D-*%
X76130000Y-26865000D03*
%TO.P,J1,A8,SBU1*%
%TO.N,unconnected-(J1-SBU1-PadA8)*%
X75130000Y-26865000D03*
D30*
%TO.P,J1,A9,VBUS*%
%TO.N,VBUS*%
X73980000Y-26865000D03*
%TO.P,J1,A12,GND*%
%TO.N,GND*%
X73180000Y-26865000D03*
%TO.P,J1,B1,GND*%
X73180000Y-26865000D03*
%TO.P,J1,B4,VBUS*%
%TO.N,VBUS*%
X73980000Y-26865000D03*
D31*
%TO.P,J1,B5,CC2*%
%TO.N,Net-(J1-CC2)*%
X74630000Y-26865000D03*
%TO.P,J1,B6,D+*%
%TO.N,/Main/D+*%
X75630000Y-26865000D03*
%TO.P,J1,B7,D-*%
%TO.N,/Main/D-*%
X77130000Y-26865000D03*
%TO.P,J1,B8,SBU2*%
%TO.N,unconnected-(J1-SBU2-PadB8)*%
X78130000Y-26865000D03*
D30*
%TO.P,J1,B9,VBUS*%
%TO.N,VBUS*%
X78780000Y-26865000D03*
%TO.P,J1,B12,GND*%
%TO.N,GND*%
X79580000Y-26865000D03*
D32*
%TO.P,J1,S1,SHIELD*%
%TO.N,Net-(J1-SHIELD)*%
X80700000Y-26295000D03*
D33*
X80700000Y-22100000D03*
D32*
X72060000Y-26295000D03*
D33*
X72060000Y-22100000D03*
%TD*%
D10*
%TO.P,C14,1*%
%TO.N,+3.3V*%
X90840000Y-36840000D03*
%TO.P,C14,2*%
%TO.N,GND*%
X91800000Y-36840000D03*
%TD*%
D11*
%TO.P,SW5_MP1,1,1*%
%TO.N,B4*%
X196093943Y-58460000D03*
%TO.P,SW5_MP1,2,2*%
%TO.N,GND*%
X202443943Y-55920000D03*
%TD*%
%TO.P,SW6_DI1,1,1*%
%TO.N,L1*%
X171274257Y-43460561D03*
%TO.P,SW6_DI1,2,2*%
%TO.N,GND*%
X177624257Y-40920561D03*
%TD*%
D19*
%TO.P,R3,1*%
%TO.N,Net-(J1-CC1)*%
X78620000Y-29680000D03*
%TO.P,R3,2*%
%TO.N,GND*%
X79640000Y-29680000D03*
%TD*%
D11*
%TO.P,SW19_LEFT1,1,1*%
%TO.N,LEFT*%
X89686902Y-60919565D03*
%TO.P,SW19_LEFT1,2,2*%
%TO.N,GND*%
X96525553Y-61002951D03*
%TD*%
D25*
%TO.P,R8,1*%
%TO.N,/Main/D+*%
X77055000Y-35930000D03*
%TO.P,R8,2*%
%TO.N,Net-(U1-USB_DP)*%
X78705000Y-35930000D03*
%TD*%
D11*
%TO.P,SW4_LP1,1,1*%
%TO.N,B3*%
X171093943Y-72460000D03*
%TO.P,SW4_LP1,2,2*%
%TO.N,GND*%
X177443943Y-69920000D03*
%TD*%
D34*
%TO.P,U3,1,~{CS}*%
%TO.N,/Main/QSPI_SS*%
X78410000Y-45349000D03*
%TO.P,U3,2,DO(IO1)*%
%TO.N,/Main/QSPI_SD1*%
X78410000Y-44079000D03*
%TO.P,U3,3,IO2*%
%TO.N,/Main/QSPI_SD2*%
X78410000Y-42809000D03*
%TO.P,U3,4,GND*%
%TO.N,GND*%
X78410000Y-41539000D03*
%TO.P,U3,5,DI(IO0)*%
%TO.N,/Main/QSPI_SD0*%
X71210000Y-41539000D03*
%TO.P,U3,6,CLK*%
%TO.N,/Main/QSPI_SCLK*%
X71210000Y-42809000D03*
%TO.P,U3,7,IO3*%
%TO.N,/Main/QSPI_SD3*%
X71210000Y-44079000D03*
%TO.P,U3,8,VCC*%
%TO.N,+3.3V*%
X71210000Y-45349000D03*
%TD*%
D11*
%TO.P,SW7_HP1,1,1*%
%TO.N,R1*%
X225093943Y-58460000D03*
%TO.P,SW7_HP1,2,2*%
%TO.N,GND*%
X231443943Y-55920000D03*
%TD*%
%TO.P,SW16_SPACE1,1,1*%
%TO.N,SPACE*%
X146594094Y-133445876D03*
%TO.P,SW16_SPACE1,2,2*%
%TO.N,GND*%
X152944094Y-130905876D03*
%TD*%
D15*
%TO.P,SW10_SHARE1,1,1*%
%TO.N,S1*%
X212500000Y-41250000D03*
X212500000Y-28750000D03*
%TO.P,SW10_SHARE1,2,2*%
%TO.N,GND*%
X217500000Y-41250000D03*
X217500000Y-28750000D03*
%TD*%
D12*
%TO.P,,57,GND*%
%TO.N,GND*%
X83700000Y-37856000D03*
%TD*%
D18*
%TO.P,C11,1*%
%TO.N,+3.3V*%
X71880000Y-35910000D03*
%TO.P,C11,2*%
%TO.N,GND*%
X71880000Y-34950000D03*
%TD*%
D12*
%TO.P,,57,GND*%
%TO.N,GND*%
X83700000Y-35824000D03*
%TD*%
D14*
%TO.P,C4,1*%
%TO.N,GND*%
X96360000Y-33680000D03*
%TO.P,C4,2*%
%TO.N,Net-(C4-Pad2)*%
X95400000Y-33680000D03*
%TD*%
D15*
%TO.P,SW15_TOUCHPAD1,1,1*%
%TO.N,A2*%
X242500000Y-41250000D03*
X242500000Y-28750000D03*
%TO.P,SW15_TOUCHPAD1,2,2*%
%TO.N,GND*%
X247500000Y-41250000D03*
X247500000Y-28750000D03*
%TD*%
D20*
%TO.P,R1,1*%
%TO.N,Net-(J1-SHIELD)*%
X69857000Y-28837000D03*
%TO.P,R1,2*%
%TO.N,GND*%
X69857000Y-29857000D03*
%TD*%
D15*
%TO.P,SW14_PS1,1,1*%
%TO.N,A1*%
X227500000Y-41250000D03*
X227500000Y-28750000D03*
%TO.P,SW14_PS1,2,2*%
%TO.N,GND*%
X232500000Y-41250000D03*
X232500000Y-28750000D03*
%TD*%
D35*
%TO.N,GND*%
X89380000Y-43430000D03*
X84630000Y-28930000D03*
X76778500Y-41602500D03*
X71880000Y-33930000D03*
X81668000Y-45222000D03*
X70873000Y-31252000D03*
X89669000Y-38364000D03*
X91880000Y-34430000D03*
X62745000Y-29220000D03*
X54880000Y-39930000D03*
X78880000Y-30930000D03*
X68968000Y-39761000D03*
X98813000Y-35189000D03*
%TO.N,+3.3V*%
X62672000Y-40015000D03*
X84480000Y-31430000D03*
X81630000Y-41930000D03*
X93380000Y-34180000D03*
X80630000Y-31430000D03*
X86880000Y-43930000D03*
%TD*%
D36*
%TO.N,S1*%
X92038500Y-28680000D02*
X87278000Y-33440500D01*
X127750000Y-30500000D02*
X125930000Y-28680000D01*
X210750000Y-30500000D02*
X127750000Y-30500000D01*
X125930000Y-28680000D02*
X92038500Y-28680000D01*
X212500000Y-28750000D02*
X210750000Y-30500000D01*
%TO.N,A2*%
X133750000Y-39000000D02*
X240250000Y-39000000D01*
X124130000Y-29380000D02*
X133750000Y-39000000D01*
X240250000Y-39000000D02*
X242500000Y-41250000D01*
X93013500Y-29380000D02*
X124130000Y-29380000D01*
X88115500Y-34278000D02*
X93013500Y-29380000D01*
%TO.N,S2*%
X86878000Y-31932000D02*
X86878000Y-33440500D01*
X90810000Y-28000000D02*
X86878000Y-31932000D01*
X196750000Y-28000000D02*
X90810000Y-28000000D01*
X197500000Y-28750000D02*
X196750000Y-28000000D01*
%TO.N,A1*%
X131645561Y-39395561D02*
X131625000Y-39375000D01*
X227500000Y-41250000D02*
X225645561Y-39395561D01*
X225645561Y-39395561D02*
X131645561Y-39395561D01*
X131625000Y-39375000D02*
X122180000Y-29930000D01*
%TO.N,L1*%
X88840000Y-38678000D02*
X88115500Y-38678000D01*
X89392000Y-39230000D02*
X88840000Y-38678000D01*
X125230000Y-39230000D02*
X89392000Y-39230000D01*
X129460561Y-43460561D02*
X125230000Y-39230000D01*
X171274257Y-43460561D02*
X129460561Y-43460561D01*
%TO.N,R1*%
X88614006Y-39078000D02*
X88115500Y-39078000D01*
X128300000Y-45000000D02*
X122880000Y-39580000D01*
X152500000Y-45000000D02*
X128300000Y-45000000D01*
X160500000Y-53000000D02*
X152500000Y-45000000D01*
X208000000Y-53000000D02*
X160500000Y-53000000D01*
X122880000Y-39580000D02*
X89116006Y-39580000D01*
X89116006Y-39580000D02*
X88614006Y-39078000D01*
X225093943Y-58460000D02*
X213460000Y-58460000D01*
X213460000Y-58460000D02*
X208000000Y-53000000D01*
%TO.N,B4*%
X88567500Y-39930000D02*
X88115500Y-39478000D01*
X130900000Y-49000000D02*
X121830000Y-39930000D01*
X154000000Y-49000000D02*
X130900000Y-49000000D01*
X163460000Y-58460000D02*
X154000000Y-49000000D01*
X121830000Y-39930000D02*
X88567500Y-39930000D01*
X196093943Y-58460000D02*
X163460000Y-58460000D01*
%TO.N,B3*%
X151160000Y-72460000D02*
X171093943Y-72460000D01*
X120130000Y-41430000D02*
X151160000Y-72460000D01*
%TO.N,L3*%
X138090000Y-57790000D02*
X120615500Y-40315500D01*
X146070000Y-57790000D02*
X138090000Y-57790000D01*
%TO.N,B1*%
X171093943Y-96093943D02*
X171093943Y-101460000D01*
X86158672Y-44605000D02*
X119605000Y-44605000D01*
X85278000Y-43724328D02*
X86158672Y-44605000D01*
X85278000Y-40315500D02*
X85278000Y-43724328D01*
X119605000Y-44605000D02*
X171093943Y-96093943D01*
%TO.N,B3*%
X120000000Y-41430000D02*
X87493994Y-41430000D01*
X120130000Y-41430000D02*
X120000000Y-41430000D01*
%TO.N,R2*%
X219633943Y-82000000D02*
X225093943Y-87460000D01*
X119480000Y-41780000D02*
X159700000Y-82000000D01*
X87086997Y-41780000D02*
X119480000Y-41780000D01*
X86478000Y-41171003D02*
X87086997Y-41780000D01*
X86478000Y-40315500D02*
X86478000Y-41171003D01*
X159700000Y-82000000D02*
X219633943Y-82000000D01*
%TO.N,B2*%
X118630000Y-42130000D02*
X163960000Y-87460000D01*
X163960000Y-87460000D02*
X196093943Y-87460000D01*
X86580000Y-42130000D02*
X118630000Y-42130000D01*
X86078000Y-41628000D02*
X86580000Y-42130000D01*
X86078000Y-40315500D02*
X86078000Y-41628000D01*
%TO.N,W*%
X84878000Y-43819302D02*
X86248477Y-45189779D01*
X109156926Y-45189779D02*
X114576926Y-50609779D01*
X84878000Y-40315500D02*
X84878000Y-43819302D01*
X86248477Y-45189779D02*
X109156926Y-45189779D01*
%TO.N,SPACE*%
X99039779Y-45539779D02*
X146594094Y-93094094D01*
X86103503Y-45539779D02*
X99039779Y-45539779D01*
X146594094Y-93094094D02*
X146594094Y-133445876D01*
X84478000Y-43914276D02*
X86103503Y-45539779D01*
X84478000Y-40315500D02*
X84478000Y-43914276D01*
%TO.N,RIGHT*%
X123355978Y-71680978D02*
X123355978Y-79195322D01*
X104600000Y-60700000D02*
X112375000Y-60700000D01*
X90330000Y-46430000D02*
X104600000Y-60700000D01*
X86498750Y-46430000D02*
X90330000Y-46430000D01*
X84078000Y-44009250D02*
X86498750Y-46430000D01*
X84078000Y-40315500D02*
X84078000Y-44009250D01*
X112375000Y-60700000D02*
X123355978Y-71680978D01*
%TO.N,DOWN*%
X89935025Y-47930000D02*
X107286807Y-65281782D01*
X83678000Y-45728000D02*
X85880000Y-47930000D01*
X85880000Y-47930000D02*
X89935025Y-47930000D01*
X83678000Y-40315500D02*
X83678000Y-45728000D01*
X107286807Y-65281782D02*
X107286807Y-68209684D01*
%TO.N,LEFT*%
X83278000Y-54510663D02*
X83278000Y-40315500D01*
X89686902Y-60919565D02*
X83278000Y-54510663D01*
D37*
%TO.N,VBUS*%
X68361000Y-32767000D02*
X68972000Y-33378000D01*
X68361000Y-31252000D02*
X68361000Y-32767000D01*
X78362410Y-25985000D02*
X78353750Y-25985000D01*
X73980000Y-26398750D02*
X73980000Y-26860000D01*
X69302000Y-33048000D02*
X68972000Y-33378000D01*
X70172000Y-33378000D02*
X73980000Y-29570000D01*
X78780000Y-26402590D02*
X78362410Y-25985000D01*
X78780000Y-26860000D02*
X78780000Y-26402590D01*
X68972000Y-33378000D02*
X70172000Y-33378000D01*
X78353750Y-25985000D02*
X77898750Y-25530000D01*
X73980000Y-29570000D02*
X73980000Y-27400000D01*
X77898750Y-25530000D02*
X74848750Y-25530000D01*
X74848750Y-25530000D02*
X73980000Y-26398750D01*
%TO.N,GND*%
X78400000Y-31930000D02*
X78400000Y-31410000D01*
X79580000Y-27400000D02*
X79580000Y-29370000D01*
X91800000Y-36840000D02*
X92079999Y-36840000D01*
X81668000Y-44198000D02*
X81630000Y-44160000D01*
X95296000Y-37630000D02*
X95296000Y-37530000D01*
X84630000Y-28930000D02*
X83380000Y-30180000D01*
X68968000Y-39761000D02*
X68968000Y-37982000D01*
X86860000Y-42930000D02*
X88880000Y-42930000D01*
X95296000Y-37530000D02*
X96996000Y-35830000D01*
X70873000Y-30873000D02*
X69857000Y-29857000D01*
X91800000Y-34510000D02*
X91880000Y-34430000D01*
X95296000Y-37630000D02*
X95296000Y-37730000D01*
X71880000Y-33930000D02*
X71880000Y-34950000D01*
X69020000Y-37930000D02*
X68972000Y-37978000D01*
X98852000Y-35228000D02*
X98813000Y-35189000D01*
X68968000Y-37982000D02*
X68972000Y-37978000D01*
X88115500Y-37878000D02*
X89183000Y-37878000D01*
X79640000Y-29680000D02*
X79640000Y-30170000D01*
X94007975Y-33188000D02*
X93122000Y-33188000D01*
X76778500Y-41602500D02*
X76842000Y-41539000D01*
X85630000Y-30430000D02*
X85630000Y-29930000D01*
D36*
X54880000Y-39930000D02*
X55005000Y-40055000D01*
D37*
X91800000Y-35430000D02*
X91800000Y-34510000D01*
X97304000Y-33680000D02*
X96360000Y-33680000D01*
X89183000Y-37878000D02*
X89669000Y-38364000D01*
X78400000Y-31410000D02*
X78880000Y-30930000D01*
X75880000Y-37430000D02*
X75380000Y-37930000D01*
X62905000Y-30678000D02*
X62745000Y-30518000D01*
D38*
X84640000Y-36840000D02*
X84678000Y-36878000D01*
D37*
X79640000Y-30170000D02*
X78880000Y-30930000D01*
X92079999Y-36840000D02*
X94380000Y-34539999D01*
X77518750Y-37430000D02*
X75880000Y-37430000D01*
X70873000Y-31252000D02*
X70873000Y-30873000D01*
X78400000Y-32930000D02*
X78400000Y-31930000D01*
X71880000Y-33930000D02*
X73122000Y-32688000D01*
X62745000Y-29220000D02*
X62745000Y-30518000D01*
X97237000Y-35189000D02*
X96996000Y-35430000D01*
D36*
X54755000Y-40055000D02*
X54880000Y-39930000D01*
D37*
X75880000Y-38430000D02*
X75380000Y-37930000D01*
X98852000Y-36728000D02*
X98852000Y-35228000D01*
X75380000Y-37930000D02*
X69020000Y-37930000D01*
X88880000Y-42930000D02*
X89380000Y-43430000D01*
X77018750Y-38430000D02*
X75880000Y-38430000D01*
X96996000Y-35830000D02*
X96996000Y-35430000D01*
X81668000Y-45222000D02*
X81668000Y-44198000D01*
X94380000Y-33560025D02*
X94007975Y-33188000D01*
X83380000Y-30180000D02*
X83380000Y-30450000D01*
D36*
X51905000Y-40055000D02*
X54755000Y-40055000D01*
D37*
X73180000Y-28945000D02*
X73180000Y-27400000D01*
X70873000Y-31252000D02*
X69321000Y-31252000D01*
X98813000Y-35189000D02*
X97237000Y-35189000D01*
X94380000Y-34539999D02*
X94380000Y-33560025D01*
D36*
X55005000Y-40055000D02*
X57905000Y-40055000D01*
D37*
X76778500Y-41602500D02*
X72496000Y-45885000D01*
X93122000Y-33188000D02*
X91880000Y-34430000D01*
X70873000Y-31252000D02*
X73180000Y-28945000D01*
D38*
X84716000Y-36840000D02*
X84640000Y-36840000D01*
D37*
X85630000Y-29930000D02*
X84630000Y-28930000D01*
X72496000Y-45885000D02*
X72496000Y-47254000D01*
X76842000Y-41539000D02*
X78410000Y-41539000D01*
X98813000Y-35189000D02*
X97304000Y-33680000D01*
X79580000Y-29370000D02*
X79640000Y-29430000D01*
X73122000Y-32688000D02*
X73822000Y-32688000D01*
D38*
X84716000Y-36916000D02*
X84716000Y-36840000D01*
D37*
%TO.N,+3.3V*%
X81630000Y-42968000D02*
X81862000Y-43200000D01*
X84520000Y-31390000D02*
X85630000Y-31390000D01*
X87581640Y-35078000D02*
X88115500Y-35078000D01*
X91500000Y-36180000D02*
X90840000Y-36840000D01*
D38*
X62672000Y-35678000D02*
X68972000Y-35678000D01*
D37*
X69090000Y-35796000D02*
X68972000Y-35678000D01*
X62672000Y-40015000D02*
X62672000Y-35678000D01*
X86911640Y-34408000D02*
X87581640Y-35078000D01*
X62564000Y-35570000D02*
X62672000Y-35678000D01*
X82078000Y-32906640D02*
X82078000Y-33440500D01*
X84480000Y-31430000D02*
X84520000Y-31390000D01*
X90840000Y-36840000D02*
X90678000Y-36678000D01*
X80630000Y-31430000D02*
X79860000Y-31430000D01*
X93380000Y-34786134D02*
X91986134Y-36180000D01*
X67571000Y-43735500D02*
X69184500Y-45349000D01*
X77868750Y-36820000D02*
X72790000Y-36820000D01*
X81240500Y-36278000D02*
X80140000Y-36278000D01*
X83360000Y-31430000D02*
X83360000Y-31624640D01*
X81630000Y-41930000D02*
X81630000Y-42968000D01*
X81240500Y-34678000D02*
X81240500Y-34278000D01*
X69184500Y-45349000D02*
X71210000Y-45349000D01*
X67571000Y-43735500D02*
X67571000Y-41477000D01*
X85678000Y-33440500D02*
X85678000Y-33974360D01*
D39*
X69204000Y-35910000D02*
X68972000Y-35678000D01*
D37*
X80140000Y-36278000D02*
X79740000Y-36678000D01*
X78988000Y-37430000D02*
X79740000Y-36678000D01*
X69330000Y-35678000D02*
X68972000Y-35678000D01*
X71536000Y-45675000D02*
X71536000Y-47254000D01*
X71210000Y-45349000D02*
X71536000Y-45675000D01*
X93380000Y-34180000D02*
X93380000Y-34786134D01*
X79740000Y-36678000D02*
X81240500Y-36678000D01*
X81240500Y-34678000D02*
X81240500Y-33810500D01*
X79860000Y-31430000D02*
X79360000Y-31930000D01*
X81630000Y-41930000D02*
X81630000Y-40763500D01*
X85678000Y-31438000D02*
X85678000Y-33440500D01*
X62672000Y-35678000D02*
X62672000Y-31551000D01*
X86111640Y-34408000D02*
X86911640Y-34408000D01*
X72790000Y-36820000D02*
X71880000Y-35910000D01*
X62672000Y-31551000D02*
X62745000Y-31478000D01*
X86880000Y-43910000D02*
X85900000Y-42930000D01*
X67571000Y-41477000D02*
X62672000Y-36578000D01*
X86880000Y-43930000D02*
X86880000Y-43910000D01*
X83360000Y-31624640D02*
X82078000Y-32906640D01*
X85678000Y-42026000D02*
X85678000Y-40315500D01*
X78478750Y-37430000D02*
X77868750Y-36820000D01*
X91986134Y-36180000D02*
X91500000Y-36180000D01*
X85678000Y-33974360D02*
X86111640Y-34408000D01*
X85630000Y-31390000D02*
X85678000Y-31438000D01*
X78988000Y-37430000D02*
X78478750Y-37430000D01*
D39*
X71880000Y-35910000D02*
X69204000Y-35910000D01*
D37*
X81240500Y-33810500D02*
X79360000Y-31930000D01*
X85900000Y-42930000D02*
X85900000Y-42248000D01*
X62672000Y-36578000D02*
X62672000Y-35678000D01*
X81630000Y-40763500D02*
X82078000Y-40315500D01*
X90678000Y-36678000D02*
X88115500Y-36678000D01*
X85900000Y-42248000D02*
X85678000Y-42026000D01*
X84480000Y-31430000D02*
X83360000Y-31430000D01*
D36*
%TO.N,Net-(C4-Pad2)*%
X92870000Y-37856000D02*
X92590000Y-37856000D01*
X95296000Y-35430000D02*
X92870000Y-37856000D01*
X95400000Y-35326000D02*
X95296000Y-35430000D01*
X95400000Y-33930000D02*
X95400000Y-35326000D01*
D37*
%TO.N,Net-(J1-SHIELD)*%
X80700000Y-26280000D02*
X80700000Y-26030000D01*
X72060000Y-22830000D02*
X73660000Y-24430000D01*
X72060000Y-22100000D02*
X72060000Y-22830000D01*
X79100000Y-24430000D02*
X73660000Y-24430000D01*
X72060000Y-26030000D02*
X72060000Y-26280000D01*
X69857000Y-28837000D02*
X69918000Y-28837000D01*
X80700000Y-22100000D02*
X80700000Y-22830000D01*
X69918000Y-28837000D02*
X72060000Y-26695000D01*
X80700000Y-22830000D02*
X79100000Y-24430000D01*
X80700000Y-26030000D02*
X79100000Y-24430000D01*
X73660000Y-24430000D02*
X72060000Y-26030000D01*
%TO.N,Net-(J1-CC2)*%
X73822000Y-31668000D02*
X74630000Y-30860000D01*
X74630000Y-30860000D02*
X74630000Y-27400000D01*
D36*
%TO.N,Net-(J1-CC1)*%
X78620000Y-29680000D02*
X78620000Y-29170000D01*
X78620000Y-29170000D02*
X77630000Y-28180000D01*
X77630000Y-28180000D02*
X77630000Y-27400000D01*
D37*
%TO.N,+1V1*%
X81774360Y-37078000D02*
X81240500Y-37078000D01*
X81978000Y-36874360D02*
X81774360Y-37078000D01*
X79360000Y-33731360D02*
X79360000Y-32930000D01*
X81774360Y-35078000D02*
X81978000Y-35281640D01*
X79905686Y-37078000D02*
X81240500Y-37078000D01*
X81240500Y-35078000D02*
X81774360Y-35078000D01*
X81978000Y-35281640D02*
X81978000Y-36874360D01*
X87459640Y-36278000D02*
X88115500Y-36278000D01*
X87002000Y-35820360D02*
X87459640Y-36278000D01*
X86682000Y-34808000D02*
X87002000Y-35128000D01*
X78553686Y-38430000D02*
X77978750Y-38430000D01*
X89992000Y-36278000D02*
X90840000Y-35430000D01*
X78553686Y-38430000D02*
X79905686Y-37078000D01*
X81240500Y-35078000D02*
X80706640Y-35078000D01*
X82430000Y-34808000D02*
X86682000Y-34808000D01*
X80706640Y-35078000D02*
X79360000Y-33731360D01*
X82160000Y-35078000D02*
X82430000Y-34808000D01*
X88115500Y-36278000D02*
X89992000Y-36278000D01*
X81240500Y-35078000D02*
X82160000Y-35078000D01*
X87002000Y-35128000D02*
X87002000Y-35820360D01*
D36*
%TO.N,Net-(R5-Pad1)*%
X63245000Y-42930000D02*
X63251000Y-42936000D01*
X57905000Y-43805000D02*
X51905000Y-43805000D01*
X57905000Y-43805000D02*
X62382000Y-43805000D01*
X62382000Y-43805000D02*
X63251000Y-42936000D01*
D37*
%TO.N,Net-(U1-USB_DM)*%
X79840500Y-35478000D02*
X78792500Y-34430000D01*
X78792500Y-34430000D02*
X78705000Y-34430000D01*
X81240500Y-35478000D02*
X79840500Y-35478000D01*
%TO.N,Net-(U1-USB_DP)*%
X81240500Y-35878000D02*
X78757000Y-35878000D01*
X78757000Y-35878000D02*
X78705000Y-35930000D01*
D36*
%TO.N,/Main/XIN*%
X97180000Y-37630000D02*
X97238000Y-37688000D01*
X89937026Y-37478000D02*
X88115500Y-37478000D01*
X96996000Y-37630000D02*
X96021000Y-38605000D01*
X91064026Y-38605000D02*
X89937026Y-37478000D01*
X97238000Y-37688000D02*
X98852000Y-37688000D01*
X96021000Y-38605000D02*
X91064026Y-38605000D01*
X96996000Y-37630000D02*
X97180000Y-37630000D01*
%TO.N,/Main/XOUT*%
X90810000Y-37856000D02*
X90032000Y-37078000D01*
X90032000Y-37078000D02*
X88115500Y-37078000D01*
X91570000Y-37856000D02*
X90810000Y-37856000D01*
%TO.N,/Main/QSPI_SS*%
X64271000Y-42936000D02*
X65576500Y-42936000D01*
X65576500Y-42936000D02*
X67571000Y-44930500D01*
X70479500Y-47839000D02*
X75920000Y-47839000D01*
X78410000Y-45349000D02*
X79209999Y-45349000D01*
X80652000Y-40066500D02*
X81240500Y-39478000D01*
X80652000Y-43906999D02*
X80652000Y-40066500D01*
X79209999Y-45349000D02*
X80652000Y-43906999D01*
X67571000Y-44930500D02*
X70479500Y-47839000D01*
X75920000Y-47839000D02*
X78410000Y-45349000D01*
D37*
%TO.N,/Main/D-*%
X77130000Y-26880000D02*
X77130000Y-28078120D01*
X76778120Y-28430000D02*
X76130000Y-27781880D01*
X76130000Y-27781880D02*
X76130000Y-26880000D01*
X77130000Y-28078120D02*
X76778120Y-28430000D01*
D38*
X77130000Y-28781880D02*
X76778120Y-28430000D01*
X77055000Y-34430000D02*
X77130000Y-34355000D01*
X77130000Y-34355000D02*
X77130000Y-28781880D01*
D37*
%TO.N,/Main/D+*%
X76630000Y-26252590D02*
X76307410Y-25930000D01*
X75952590Y-25930000D02*
X75630000Y-26252590D01*
D38*
X75630000Y-34680000D02*
X75630000Y-28680000D01*
D37*
X75630000Y-26252590D02*
X75630000Y-28680000D01*
D38*
X76880000Y-35930000D02*
X75630000Y-34680000D01*
D37*
X76307410Y-25930000D02*
X75952590Y-25930000D01*
D38*
X77055000Y-35930000D02*
X76880000Y-35930000D01*
D37*
X76630000Y-26880000D02*
X76630000Y-26252590D01*
D36*
%TO.N,A1*%
X88614006Y-34678000D02*
X93362006Y-29930000D01*
X88115500Y-34678000D02*
X88614006Y-34678000D01*
X93362006Y-29930000D02*
X122180000Y-29930000D01*
%TO.N,B3*%
X86878000Y-40814006D02*
X86878000Y-40315500D01*
X87493994Y-41430000D02*
X86878000Y-40814006D01*
%TO.N,L2*%
X82040000Y-48270000D02*
X82878000Y-47432000D01*
X77371696Y-48270000D02*
X82040000Y-48270000D01*
X56190000Y-69451696D02*
X77371696Y-48270000D01*
X82878000Y-47432000D02*
X82878000Y-40315500D01*
%TO.N,/Main/SWCLK*%
X92497000Y-32813000D02*
X89432000Y-35878000D01*
X96997000Y-32813000D02*
X92497000Y-32813000D01*
X89432000Y-35878000D02*
X88115500Y-35878000D01*
X98380000Y-31430000D02*
X96997000Y-32813000D01*
%TO.N,/Main/SWDIO*%
X88115500Y-35478000D02*
X89337026Y-35478000D01*
X93385026Y-31430000D02*
X94380000Y-31430000D01*
X89337026Y-35478000D02*
X93385026Y-31430000D01*
%TO.N,L3*%
X87278000Y-40315500D02*
X120615500Y-40315500D01*
%TO.N,/Main/QSPI_SD3*%
X77818016Y-39696000D02*
X71065000Y-39696000D01*
X81240500Y-37478000D02*
X80036016Y-37478000D01*
X69785000Y-40976000D02*
X69785000Y-42864000D01*
X69785000Y-42864000D02*
X71000000Y-44079000D01*
X71000000Y-44079000D02*
X71210000Y-44079000D01*
X71065000Y-39696000D02*
X69785000Y-40976000D01*
X80036016Y-37478000D02*
X77818016Y-39696000D01*
%TO.N,/Main/QSPI_SCLK*%
X78075042Y-40046000D02*
X71223000Y-40046000D01*
X70410001Y-42809000D02*
X71210000Y-42809000D01*
X80243042Y-37878000D02*
X78075042Y-40046000D01*
X70135000Y-41134000D02*
X70135000Y-42533999D01*
X71223000Y-40046000D02*
X70135000Y-41134000D01*
X70135000Y-42533999D02*
X70410001Y-42809000D01*
X81240500Y-37878000D02*
X80243042Y-37878000D01*
%TO.N,/Main/QSPI_SD0*%
X80338016Y-38278000D02*
X81240500Y-38278000D01*
X78220016Y-40396000D02*
X80338016Y-38278000D01*
X71210000Y-41539000D02*
X72353000Y-40396000D01*
X72353000Y-40396000D02*
X78220016Y-40396000D01*
%TO.N,/Main/QSPI_SD2*%
X78410000Y-42809000D02*
X79209999Y-42809000D01*
X80534000Y-38678000D02*
X81240500Y-38678000D01*
X79209999Y-42809000D02*
X79630000Y-42388999D01*
X79630000Y-42388999D02*
X79630000Y-39582000D01*
X79630000Y-39582000D02*
X80534000Y-38678000D01*
%TO.N,/Main/QSPI_SD1*%
X80144000Y-39562974D02*
X80628974Y-39078000D01*
X79209999Y-44079000D02*
X80144000Y-43144999D01*
X78410000Y-44079000D02*
X79209999Y-44079000D01*
X80628974Y-39078000D02*
X81240500Y-39078000D01*
X80144000Y-43144999D02*
X80144000Y-39562974D01*
D37*
%TO.N,L1*%
X170811845Y-43460561D02*
X171274257Y-43460561D01*
%TD*%
%TA.AperFunction,Conductor*%
%TO.N,GND*%
G36*
X70724428Y-30893244D02*
G01*
X70872123Y-31247498D01*
X70872144Y-31256452D01*
X70872123Y-31256502D01*
X70724428Y-31610755D01*
X70718081Y-31617073D01*
X70709129Y-31617053D01*
X70080200Y-31354999D01*
X70073881Y-31348654D01*
X70073000Y-31344199D01*
X70073000Y-31159800D01*
X70076427Y-31151527D01*
X70080200Y-31149000D01*
X70709131Y-30886945D01*
X70718084Y-30886927D01*
X70724428Y-30893244D01*
G37*
%TD.AperFunction*%
%TD*%
%TA.AperFunction,Conductor*%
%TO.N,GND*%
G36*
X92376717Y-33796592D02*
G01*
X92380490Y-33799119D01*
X92510880Y-33929509D01*
X92514307Y-33937782D01*
X92513426Y-33942237D01*
X92254005Y-34572256D01*
X92247686Y-34578601D01*
X92238734Y-34578621D01*
X91883804Y-34432563D01*
X91877457Y-34426245D01*
X91877436Y-34426195D01*
X91731378Y-34071265D01*
X91731399Y-34062311D01*
X91737742Y-34055994D01*
X92367764Y-33796573D01*
X92376717Y-33796592D01*
G37*
%TD.AperFunction*%
%TD*%
%TA.AperFunction,Conductor*%
%TO.N,GND*%
G36*
X84626195Y-28927436D02*
G01*
X84632542Y-28933754D01*
X84632563Y-28933804D01*
X84778621Y-29288734D01*
X84778600Y-29297688D01*
X84772256Y-29304005D01*
X84142237Y-29563426D01*
X84133282Y-29563407D01*
X84129509Y-29560880D01*
X83999119Y-29430490D01*
X83995692Y-29422217D01*
X83996572Y-29417766D01*
X84255994Y-28787742D01*
X84262313Y-28781398D01*
X84271264Y-28781378D01*
X84626195Y-28927436D01*
G37*
%TD.AperFunction*%
%TD*%
%TA.AperFunction,Conductor*%
%TO.N,GND*%
G36*
X88802258Y-42834680D02*
G01*
X89520831Y-43056666D01*
X89527723Y-43062381D01*
X89528556Y-43071297D01*
X89528197Y-43072296D01*
X89382853Y-43425496D01*
X89376535Y-43431843D01*
X89376500Y-43431858D01*
X89021347Y-43578570D01*
X89012392Y-43578561D01*
X89006066Y-43572223D01*
X88787957Y-43032107D01*
X88787106Y-43027726D01*
X88787106Y-42845860D01*
X88790533Y-42837587D01*
X88798806Y-42834160D01*
X88802258Y-42834680D01*
G37*
%TD.AperFunction*%
%TD*%
%TA.AperFunction,Conductor*%
%TO.N,GND*%
G36*
X63103755Y-29368571D02*
G01*
X63110073Y-29374918D01*
X63110053Y-29383870D01*
X62848000Y-30012800D01*
X62841655Y-30019119D01*
X62837200Y-30020000D01*
X62652800Y-30020000D01*
X62644527Y-30016573D01*
X62642000Y-30012800D01*
X62379945Y-29383868D01*
X62379927Y-29374915D01*
X62386242Y-29368572D01*
X62740500Y-29220875D01*
X62749449Y-29220855D01*
X63103755Y-29368571D01*
G37*
%TD.AperFunction*%
%TD*%
%TA.AperFunction,Conductor*%
%TO.N,+3.3V*%
G36*
X81730473Y-41133427D02*
G01*
X81733000Y-41137200D01*
X81995053Y-41766129D01*
X81995072Y-41775084D01*
X81988755Y-41781428D01*
X81634502Y-41929123D01*
X81625548Y-41929144D01*
X81625498Y-41929123D01*
X81271244Y-41781428D01*
X81264926Y-41775081D01*
X81264945Y-41766131D01*
X81527000Y-41137199D01*
X81533345Y-41130881D01*
X81537800Y-41130000D01*
X81722200Y-41130000D01*
X81730473Y-41133427D01*
G37*
%TD.AperFunction*%
%TD*%
%TA.AperFunction,Conductor*%
%TO.N,+3.3V*%
G36*
X81988755Y-42078571D02*
G01*
X81995073Y-42084918D01*
X81995053Y-42093870D01*
X81733000Y-42722800D01*
X81726655Y-42729119D01*
X81722200Y-42730000D01*
X81537800Y-42730000D01*
X81529527Y-42726573D01*
X81527000Y-42722800D01*
X81264945Y-42093868D01*
X81264927Y-42084915D01*
X81271242Y-42078572D01*
X81625500Y-41930875D01*
X81634449Y-41930855D01*
X81988755Y-42078571D01*
G37*
%TD.AperFunction*%
%TD*%
%TA.AperFunction,Conductor*%
%TO.N,GND*%
G36*
X99170459Y-35337031D02*
G01*
X99172267Y-35337785D01*
X99178585Y-35344132D01*
X99178771Y-35352554D01*
X98954788Y-35973512D01*
X98948757Y-35980131D01*
X98943782Y-35981242D01*
X98759344Y-35981242D01*
X98751071Y-35977815D01*
X98748807Y-35974628D01*
X98448820Y-35353202D01*
X98448310Y-35344262D01*
X98454271Y-35337579D01*
X98454848Y-35337320D01*
X98808500Y-35189875D01*
X98817449Y-35189855D01*
X99170459Y-35337031D01*
G37*
%TD.AperFunction*%
%TD*%
%TA.AperFunction,Conductor*%
%TO.N,GND*%
G36*
X84997688Y-28781399D02*
G01*
X85004005Y-28787743D01*
X85263426Y-29417762D01*
X85263407Y-29426717D01*
X85260880Y-29430490D01*
X85130490Y-29560880D01*
X85122217Y-29564307D01*
X85117762Y-29563426D01*
X84487743Y-29304005D01*
X84481398Y-29297686D01*
X84481378Y-29288735D01*
X84627437Y-28933802D01*
X84633753Y-28927457D01*
X84988735Y-28781378D01*
X84997688Y-28781399D01*
G37*
%TD.AperFunction*%
%TD*%
%TA.AperFunction,Conductor*%
%TO.N,GND*%
G36*
X76774695Y-41599936D02*
G01*
X76781042Y-41606254D01*
X76781063Y-41606304D01*
X76927121Y-41961234D01*
X76927100Y-41970188D01*
X76920756Y-41976505D01*
X76290737Y-42235926D01*
X76281782Y-42235907D01*
X76278009Y-42233380D01*
X76147619Y-42102990D01*
X76144192Y-42094717D01*
X76145072Y-42090266D01*
X76404494Y-41460242D01*
X76410813Y-41453898D01*
X76419764Y-41453878D01*
X76774695Y-41599936D01*
G37*
%TD.AperFunction*%
%TD*%
%TA.AperFunction,Conductor*%
%TO.N,+3.3V*%
G36*
X93736502Y-34327632D02*
G01*
X93742820Y-34333979D01*
X93742799Y-34342933D01*
X93741767Y-34344873D01*
X93321524Y-34981954D01*
X93314108Y-34986973D01*
X93305315Y-34985279D01*
X93303484Y-34983785D01*
X93174246Y-34854547D01*
X93171348Y-34849753D01*
X93014122Y-34344873D01*
X93013621Y-34343262D01*
X93014433Y-34334345D01*
X93020302Y-34328979D01*
X93376211Y-34181159D01*
X93385163Y-34181151D01*
X93736502Y-34327632D01*
G37*
%TD.AperFunction*%
%TD*%
%TA.AperFunction,Conductor*%
%TO.N,GND*%
G36*
X98664428Y-34830244D02*
G01*
X98812123Y-35184498D01*
X98812144Y-35193452D01*
X98812123Y-35193502D01*
X98664428Y-35547755D01*
X98658081Y-35554073D01*
X98649129Y-35554053D01*
X98020200Y-35291999D01*
X98013881Y-35285654D01*
X98013000Y-35281199D01*
X98013000Y-35096800D01*
X98016427Y-35088527D01*
X98020200Y-35086000D01*
X98649131Y-34823945D01*
X98658084Y-34823927D01*
X98664428Y-34830244D01*
G37*
%TD.AperFunction*%
%TD*%
%TA.AperFunction,Conductor*%
%TO.N,GND*%
G36*
X72376717Y-33296592D02*
G01*
X72380490Y-33299119D01*
X72510880Y-33429509D01*
X72514307Y-33437782D01*
X72513426Y-33442237D01*
X72254005Y-34072256D01*
X72247686Y-34078601D01*
X72238734Y-34078621D01*
X71883804Y-33932563D01*
X71877457Y-33926245D01*
X71877436Y-33926195D01*
X71731378Y-33571265D01*
X71731399Y-33562311D01*
X71737742Y-33555994D01*
X72367764Y-33296573D01*
X72376717Y-33296592D01*
G37*
%TD.AperFunction*%
%TD*%
%TA.AperFunction,Conductor*%
%TO.N,GND*%
G36*
X69068473Y-38964427D02*
G01*
X69071000Y-38968200D01*
X69333053Y-39597129D01*
X69333072Y-39606084D01*
X69326755Y-39612428D01*
X68972502Y-39760123D01*
X68963548Y-39760144D01*
X68963498Y-39760123D01*
X68609244Y-39612428D01*
X68602926Y-39606081D01*
X68602945Y-39597131D01*
X68865000Y-38968199D01*
X68871345Y-38961881D01*
X68875800Y-38961000D01*
X69060200Y-38961000D01*
X69068473Y-38964427D01*
G37*
%TD.AperFunction*%
%TD*%
%TA.AperFunction,Conductor*%
%TO.N,GND*%
G36*
X70651606Y-30509456D02*
G01*
X71146811Y-30960923D01*
X71150616Y-30969028D01*
X71147574Y-30977451D01*
X71147222Y-30977820D01*
X70877146Y-31249250D01*
X70868881Y-31252698D01*
X70868831Y-31252698D01*
X70485247Y-31252021D01*
X70476980Y-31248580D01*
X70473568Y-31240300D01*
X70473580Y-31239789D01*
X70501716Y-30647868D01*
X70505129Y-30640153D01*
X70635453Y-30509829D01*
X70643725Y-30506403D01*
X70651606Y-30509456D01*
G37*
%TD.AperFunction*%
%TD*%
%TA.AperFunction,Conductor*%
%TO.N,GND*%
G36*
X77557785Y-41436373D02*
G01*
X77564593Y-41442189D01*
X77565869Y-41447501D01*
X77565869Y-41631928D01*
X77562442Y-41640201D01*
X77559608Y-41642287D01*
X76942891Y-41966109D01*
X76933973Y-41966921D01*
X76927093Y-41961189D01*
X76926653Y-41960252D01*
X76779375Y-41606999D01*
X76779355Y-41598050D01*
X76927421Y-41242905D01*
X76933767Y-41236589D01*
X76941833Y-41236281D01*
X77557785Y-41436373D01*
G37*
%TD.AperFunction*%
%TD*%
%TA.AperFunction,Conductor*%
%TO.N,GND*%
G36*
X98325233Y-34555572D02*
G01*
X98893944Y-34789747D01*
X98955256Y-34814994D01*
X98961601Y-34821313D01*
X98961621Y-34830265D01*
X98815563Y-35185195D01*
X98809245Y-35191542D01*
X98809195Y-35191563D01*
X98454265Y-35337621D01*
X98445311Y-35337600D01*
X98438994Y-35331256D01*
X98378851Y-35185195D01*
X98179573Y-34701235D01*
X98179592Y-34692282D01*
X98182116Y-34688512D01*
X98312510Y-34558118D01*
X98320782Y-34554692D01*
X98325233Y-34555572D01*
G37*
%TD.AperFunction*%
%TD*%
%TA.AperFunction,Conductor*%
%TO.N,+3.3V*%
G36*
X62772473Y-39218427D02*
G01*
X62775000Y-39222200D01*
X63037053Y-39851129D01*
X63037072Y-39860084D01*
X63030755Y-39866428D01*
X62676502Y-40014123D01*
X62667548Y-40014144D01*
X62667498Y-40014123D01*
X62313244Y-39866428D01*
X62306926Y-39860081D01*
X62306945Y-39851131D01*
X62569000Y-39222199D01*
X62575345Y-39215881D01*
X62579800Y-39215000D01*
X62764200Y-39215000D01*
X62772473Y-39218427D01*
G37*
%TD.AperFunction*%
%TD*%
%TA.AperFunction,Conductor*%
%TO.N,GND*%
G36*
X71369717Y-30618592D02*
G01*
X71373490Y-30621119D01*
X71503880Y-30751509D01*
X71507307Y-30759782D01*
X71506426Y-30764237D01*
X71247005Y-31394256D01*
X71240686Y-31400601D01*
X71231734Y-31400621D01*
X70876804Y-31254563D01*
X70870457Y-31248245D01*
X70870436Y-31248195D01*
X70724378Y-30893265D01*
X70724399Y-30884311D01*
X70730742Y-30877994D01*
X71360764Y-30618573D01*
X71369717Y-30618592D01*
G37*
%TD.AperFunction*%
%TD*%
%TA.AperFunction,Conductor*%
%TO.N,+3.3V*%
G36*
X85264301Y-31287218D02*
G01*
X85270927Y-31293239D01*
X85272044Y-31298228D01*
X85272044Y-31482667D01*
X85268617Y-31490940D01*
X85265445Y-31493196D01*
X84644210Y-31794156D01*
X84635271Y-31794679D01*
X84628580Y-31788728D01*
X84628317Y-31788145D01*
X84480875Y-31434499D01*
X84480855Y-31425550D01*
X84628791Y-31070717D01*
X84635137Y-31064401D01*
X84643545Y-31064210D01*
X85264301Y-31287218D01*
G37*
%TD.AperFunction*%
%TD*%
M02*
