M48
; DRILL file {KiCad 8.0.4} date 2024-07-22T23:57:30-0700
; FORMAT={-:-/ absolute / inch / decimal}
; #@! TF.CreationDate,2024-07-22T23:57:30-07:00
; #@! TF.GenerationSoftware,Kicad,Pcbnew,8.0.4
; #@! TF.FileFunction,Plated,1,2,PTH
FMAT,2
INCH
; #@! TA.AperFunction,Plated,PTH,ComponentDrill
T1C0.0138
; #@! TA.AperFunction,Plated,PTH,ViaDrill
T2C0.0157
; #@! TA.AperFunction,Plated,PTH,ComponentDrill
T3C0.0236
; #@! TA.AperFunction,Plated,PTH,ComponentDrill
T4C0.0276
; #@! TA.AperFunction,Plated,PTH,ComponentDrill
T5C0.0472
; #@! TA.AperFunction,Plated,PTH,ComponentDrill
T6C0.0591
%
G90
G05
T1
X3.2953Y-1.4104
X3.2953Y-1.4504
X3.2953Y-1.4904
X3.3353Y-1.4104
X3.3353Y-1.4504
X3.3353Y-1.4904
X3.3753Y-1.4104
X3.3753Y-1.4504
X3.3753Y-1.4904
T2
X2.1606Y-1.572
X2.4674Y-1.5754
X2.4703Y-1.1504
X2.7153Y-1.5654
X2.7903Y-1.2304
X2.8299Y-1.3358
X3.0228Y-1.6379
X3.1055Y-1.2177
X3.1744Y-1.2374
X3.2138Y-1.6508
X3.2153Y-1.7804
X3.326Y-1.2374
X3.3319Y-1.139
X3.4205Y-1.7295
X3.5189Y-1.7098
X3.5303Y-1.5104
X3.6173Y-1.3555
X3.6764Y-1.3457
X3.8903Y-1.3854
T4
X3.7157Y-1.2374
X3.7945Y-1.2374
X3.8732Y-1.2374
T5
X7.7756Y-1.1319
X7.7756Y-1.624
X7.9724Y-1.1319
X7.9724Y-1.624
X8.3661Y-1.1319
X8.3661Y-1.624
X8.563Y-1.1319
X8.563Y-1.624
X8.9567Y-1.1319
X8.9567Y-1.624
X9.1535Y-1.1319
X9.1535Y-1.624
X9.5472Y-1.1319
X9.5472Y-1.624
X9.7441Y-1.1319
X9.7441Y-1.624
T6
X2.2122Y-2.7343
X2.4622Y-2.6343
X3.531Y-2.3984
X3.8002Y-2.4017
X4.2239Y-2.6854
X4.4931Y-2.6887
X4.5109Y-1.9925
X4.7801Y-1.9958
X4.8565Y-3.1179
X5.1258Y-3.1212
X5.7508Y-2.2752
X5.7714Y-5.2538
X6.0008Y-2.1752
X6.0214Y-5.1538
X6.736Y-2.8528
X6.736Y-3.9945
X6.7431Y-1.711
X6.986Y-2.7528
X6.986Y-3.8945
X6.9931Y-1.611
X7.7202Y-2.3016
X7.7202Y-3.4433
X7.9702Y-2.2016
X7.9702Y-3.3433
X8.862Y-2.3016
X8.862Y-3.4433
X9.112Y-2.2016
X9.112Y-3.3433
T3
G00X2.837Y-0.8858
M15
G01X2.837Y-0.8543
M16
G05
G00X2.837Y-1.0569
M15
G01X2.837Y-1.0136
M16
G05
G00X3.1772Y-0.8858
M15
G01X3.1772Y-0.8543
M16
G05
G00X3.1772Y-1.0569
M15
G01X3.1772Y-1.0136
M16
G05
M30
