M48
; DRILL file {KiCad 8.0.4} date 2024-07-22T23:57:30-0700
; FORMAT={-:-/ absolute / inch / decimal}
; #@! TF.CreationDate,2024-07-22T23:57:30-07:00
; #@! TF.GenerationSoftware,Kicad,Pcbnew,8.0.4
; #@! TF.FileFunction,NonPlated,1,2,NPTH
FMAT,2
INCH
; #@! TA.AperFunction,NonPlated,NPTH,ComponentDrill
T1C0.0236
; #@! TA.AperFunction,NonPlated,NPTH,ComponentDrill
T2C0.0689
; #@! TA.AperFunction,NonPlated,NPTH,ComponentDrill
T3C0.0709
; #@! TA.AperFunction,NonPlated,NPTH,ComponentDrill
T4C0.1200
; #@! TA.AperFunction,NonPlated,NPTH,ComponentDrill
T5C0.1260
; #@! TA.AperFunction,NonPlated,NPTH,ComponentDrill
T6C0.1570
; #@! TA.AperFunction,NonPlated,NPTH,ComponentDrill
T7C0.1575
%
G90
G05
T1
X2.8933Y-1.0156
X3.1209Y-1.0156
T2
X2.1622Y-2.8343
X2.5622Y-2.8343
X3.4465Y-2.4717
X3.8161Y-2.6247
X4.1394Y-2.7587
X4.4264Y-2.0658
X4.509Y-2.9117
X4.7721Y-3.1912
X4.796Y-2.2188
X5.1416Y-3.3443
X5.7008Y-2.3752
X5.7214Y-5.3538
X6.1008Y-2.3752
X6.1214Y-5.3538
X6.686Y-2.9528
X6.686Y-4.0945
X6.6931Y-1.811
X7.086Y-2.9528
X7.086Y-4.0945
X7.0931Y-1.811
X7.6702Y-2.4016
X7.6702Y-3.5433
X8.0702Y-2.4016
X8.0702Y-3.5433
X8.812Y-2.4016
X8.812Y-3.5433
X9.212Y-2.4016
X9.212Y-3.5433
T3
X7.6969Y-1.378
X8.0512Y-1.378
X8.2874Y-1.378
X8.6417Y-1.378
X8.878Y-1.378
X9.2323Y-1.378
X9.4685Y-1.378
X9.8228Y-1.378
T4
X5.4514Y-5.0788
X6.3914Y-5.0788
T5
X1.9488Y-3.6417
X1.9803Y-1.189
X4.5669Y-5.689
X5.8465Y-1.3583
X5.8465Y-3.2874
X7.1654Y-5.7087
X9.7441Y-1.9685
X9.8228Y-4.252
T6
X5.4514Y-5.6776
X6.3914Y-5.6776
T7
X2.3622Y-2.8343
X3.6313Y-2.5482
X4.3242Y-2.8352
X4.6112Y-2.1423
X4.9568Y-3.2677
X5.9008Y-2.3752
X5.9214Y-5.3538
X6.886Y-2.9528
X6.886Y-4.0945
X6.8931Y-1.811
X7.8702Y-2.4016
X7.8702Y-3.5433
X9.012Y-2.4016
X9.012Y-3.5433
M30
