%TF.GenerationSoftware,KiCad,Pcbnew,8.0.4*%
%TF.CreationDate,2024-07-22T23:57:25-07:00*%
%TF.ProjectId,leverless_controlller,6c657665-726c-4657-9373-5f636f6e7472,rev?*%
%TF.SameCoordinates,Original*%
%TF.FileFunction,Soldermask,Top*%
%TF.FilePolarity,Negative*%
%FSLAX46Y46*%
G04 Gerber Fmt 4.6, Leading zero omitted, Abs format (unit mm)*
G04 Created by KiCad (PCBNEW 8.0.4) date 2024-07-22 23:57:25*
%MOMM*%
%LPD*%
G01*
G04 APERTURE LIST*
G04 Aperture macros list*
%AMRoundRect*
0 Rectangle with rounded corners*
0 $1 Rounding radius*
0 $2 $3 $4 $5 $6 $7 $8 $9 X,Y pos of 4 corners*
0 Add a 4 corners polygon primitive as box body*
4,1,4,$2,$3,$4,$5,$6,$7,$8,$9,$2,$3,0*
0 Add four circle primitives for the rounded corners*
1,1,$1+$1,$2,$3*
1,1,$1+$1,$4,$5*
1,1,$1+$1,$6,$7*
1,1,$1+$1,$8,$9*
0 Add four rect primitives between the rounded corners*
20,1,$1+$1,$2,$3,$4,$5,0*
20,1,$1+$1,$4,$5,$6,$7,0*
20,1,$1+$1,$6,$7,$8,$9,0*
20,1,$1+$1,$8,$9,$2,$3,0*%
G04 Aperture macros list end*
%ADD10RoundRect,0.140000X-0.140000X-0.170000X0.140000X-0.170000X0.140000X0.170000X-0.140000X0.170000X0*%
%ADD11C,1.750000*%
%ADD12C,4.000000*%
%ADD13C,2.500000*%
%ADD14R,1.200000X1.400000*%
%ADD15RoundRect,0.140000X0.140000X0.170000X-0.140000X0.170000X-0.140000X-0.170000X0.140000X-0.170000X0*%
%ADD16C,1.800000*%
%ADD17O,1.700000X2.900000*%
%ADD18R,1.700000X1.000000*%
%ADD19C,3.200000*%
%ADD20RoundRect,0.135000X0.135000X0.185000X-0.135000X0.185000X-0.135000X-0.185000X0.135000X-0.185000X0*%
%ADD21RoundRect,0.140000X0.170000X-0.140000X0.170000X0.140000X-0.170000X0.140000X-0.170000X-0.140000X0*%
%ADD22RoundRect,0.135000X-0.135000X-0.185000X0.135000X-0.185000X0.135000X0.185000X-0.135000X0.185000X0*%
%ADD23RoundRect,0.135000X-0.185000X0.135000X-0.185000X-0.135000X0.185000X-0.135000X0.185000X0.135000X0*%
%ADD24RoundRect,0.375000X0.625000X0.375000X-0.625000X0.375000X-0.625000X-0.375000X0.625000X-0.375000X0*%
%ADD25RoundRect,0.500000X0.500000X1.400000X-0.500000X1.400000X-0.500000X-1.400000X0.500000X-1.400000X0*%
%ADD26C,1.400000*%
%ADD27RoundRect,0.140000X-0.170000X0.140000X-0.170000X-0.140000X0.170000X-0.140000X0.170000X0.140000X0*%
%ADD28RoundRect,0.200000X-0.200000X-0.275000X0.200000X-0.275000X0.200000X0.275000X-0.200000X0.275000X0*%
%ADD29RoundRect,0.160000X-0.160000X0.197500X-0.160000X-0.197500X0.160000X-0.197500X0.160000X0.197500X0*%
%ADD30RoundRect,0.050000X0.050000X-0.387500X0.050000X0.387500X-0.050000X0.387500X-0.050000X-0.387500X0*%
%ADD31RoundRect,0.050000X0.387500X-0.050000X0.387500X0.050000X-0.387500X0.050000X-0.387500X-0.050000X0*%
%ADD32R,3.200000X3.200000*%
%ADD33C,0.600000*%
%ADD34RoundRect,0.150000X0.150000X0.420000X-0.150000X0.420000X-0.150000X-0.420000X0.150000X-0.420000X0*%
%ADD35RoundRect,0.075000X0.075000X0.495000X-0.075000X0.495000X-0.075000X-0.495000X0.075000X-0.495000X0*%
%ADD36O,1.000000X2.000000*%
%ADD37O,1.000000X1.700000*%
%ADD38C,3.987800*%
%ADD39C,3.048000*%
%ADD40RoundRect,0.150000X0.650000X0.150000X-0.650000X0.150000X-0.650000X-0.150000X0.650000X-0.150000X0*%
G04 APERTURE END LIST*
D10*
%TO.C,C1*%
X68361000Y-31252000D03*
X69321000Y-31252000D03*
%TD*%
D11*
%TO.C,SW9_HK1*%
X223823943Y-90000000D03*
D12*
X228903943Y-90000000D03*
D11*
X233983943Y-90000000D03*
D13*
X225093943Y-87460000D03*
X231443943Y-84920000D03*
%TD*%
D14*
%TO.C,Y1*%
X96996000Y-37630000D03*
X96996000Y-35430000D03*
X95296000Y-35430000D03*
X95296000Y-37630000D03*
%TD*%
D15*
%TO.C,C9*%
X77978750Y-38430000D03*
X77018750Y-38430000D03*
%TD*%
%TO.C,C7*%
X79360000Y-31930000D03*
X78400000Y-31930000D03*
%TD*%
D16*
%TO.C,SW11_START1*%
X195500000Y-35000000D03*
X204500000Y-35000000D03*
D17*
X197500000Y-41250000D03*
X197500000Y-28750000D03*
X202500000Y-41250000D03*
X202500000Y-28750000D03*
%TD*%
D10*
%TO.C,C8*%
X90840000Y-35430000D03*
X91800000Y-35430000D03*
%TD*%
D18*
%TO.C,SW1*%
X51755000Y-40030000D03*
X58055000Y-40030000D03*
X51755000Y-43830000D03*
X58055000Y-43830000D03*
%TD*%
D19*
%TO.C,H6*%
X247500000Y-50000000D03*
%TD*%
D20*
%TO.C,R4*%
X92590000Y-37856000D03*
X91570000Y-37856000D03*
%TD*%
D21*
%TO.C,C15*%
X85630000Y-31390000D03*
X85630000Y-30430000D03*
%TD*%
D22*
%TO.C,R5*%
X63251000Y-42936000D03*
X64271000Y-42936000D03*
%TD*%
D23*
%TO.C,R2*%
X73822000Y-31668000D03*
X73822000Y-32688000D03*
%TD*%
D11*
%TO.C,SW20_RIGHT1*%
X121210635Y-81055968D03*
D12*
X125903943Y-83000000D03*
D11*
X130597251Y-84944032D03*
D13*
X123355978Y-79195322D03*
X130194629Y-79278708D03*
%TD*%
D11*
%TO.C,SW18_DOWN1*%
X105141464Y-70070330D03*
D12*
X109834772Y-72014362D03*
D11*
X114528080Y-73958394D03*
D13*
X107286807Y-68209684D03*
X114125458Y-68293070D03*
%TD*%
D19*
%TO.C,H4*%
X182000000Y-145000000D03*
%TD*%
D24*
%TO.C,U2*%
X68972000Y-37978000D03*
X68972000Y-35678000D03*
D25*
X62672000Y-35678000D03*
D24*
X68972000Y-33378000D03*
%TD*%
D26*
%TO.C,J2*%
X98380000Y-31430000D03*
X96380000Y-31430000D03*
X94380000Y-31430000D03*
%TD*%
D11*
%TO.C,SW17_W1*%
X112431583Y-52470425D03*
D12*
X117124891Y-54414457D03*
D11*
X121818199Y-56358489D03*
D13*
X114576926Y-50609779D03*
X121415577Y-50693165D03*
%TD*%
D21*
%TO.C,C16*%
X83380000Y-31410000D03*
X83380000Y-30450000D03*
%TD*%
D11*
%TO.C,SW3_MK1*%
X194823943Y-90000000D03*
D12*
X199903943Y-90000000D03*
D11*
X204983943Y-90000000D03*
D13*
X196093943Y-87460000D03*
X202443943Y-84920000D03*
%TD*%
D19*
%TO.C,H1*%
X50300000Y-30200000D03*
%TD*%
D15*
%TO.C,C10*%
X78478750Y-37430000D03*
X77518750Y-37430000D03*
%TD*%
D21*
%TO.C,C2*%
X62745000Y-31478000D03*
X62745000Y-30518000D03*
%TD*%
D15*
%TO.C,C6*%
X79360000Y-32930000D03*
X78400000Y-32930000D03*
%TD*%
D27*
%TO.C,C12*%
X81630000Y-43200000D03*
X81630000Y-44160000D03*
%TD*%
D19*
%TO.C,H2*%
X49500000Y-92500000D03*
%TD*%
D11*
%TO.C,SW2_LK1*%
X169823943Y-104000000D03*
D12*
X174903943Y-104000000D03*
D11*
X179983943Y-104000000D03*
D13*
X171093943Y-101460000D03*
X177443943Y-98920000D03*
%TD*%
D11*
%TO.C,SW8_DP1*%
X54920000Y-71991696D03*
D12*
X60000000Y-71991696D03*
D11*
X65080000Y-71991696D03*
D13*
X56190000Y-69451696D03*
X62540000Y-66911696D03*
%TD*%
%TO.C,SW12_THROW1*%
X152420000Y-55250000D03*
X146070000Y-57790000D03*
D11*
X154960000Y-60330000D03*
D12*
X149880000Y-60330000D03*
D11*
X144800000Y-60330000D03*
%TD*%
D27*
%TO.C,C3*%
X98852000Y-36728000D03*
X98852000Y-37688000D03*
%TD*%
D28*
%TO.C,R7*%
X77055000Y-34430000D03*
X78705000Y-34430000D03*
%TD*%
D19*
%TO.C,H3*%
X148500000Y-34500000D03*
%TD*%
D29*
%TO.C,R6*%
X67571000Y-43735500D03*
X67571000Y-44930500D03*
%TD*%
D10*
%TO.C,C5*%
X71536000Y-47254000D03*
X72496000Y-47254000D03*
%TD*%
D19*
%TO.C,H8*%
X116000000Y-144500000D03*
%TD*%
D10*
%TO.C,C13*%
X85900000Y-42930000D03*
X86860000Y-42930000D03*
%TD*%
D30*
%TO.C,U1*%
X82078000Y-40315500D03*
X82478000Y-40315500D03*
X82878000Y-40315500D03*
X83278000Y-40315500D03*
X83678000Y-40315500D03*
X84078000Y-40315500D03*
X84478000Y-40315500D03*
X84878000Y-40315500D03*
X85278000Y-40315500D03*
X85678000Y-40315500D03*
X86078000Y-40315500D03*
X86478000Y-40315500D03*
X86878000Y-40315500D03*
X87278000Y-40315500D03*
D31*
X88115500Y-39478000D03*
X88115500Y-39078000D03*
X88115500Y-38678000D03*
X88115500Y-38278000D03*
X88115500Y-37878000D03*
X88115500Y-37478000D03*
X88115500Y-37078000D03*
X88115500Y-36678000D03*
X88115500Y-36278000D03*
X88115500Y-35878000D03*
X88115500Y-35478000D03*
X88115500Y-35078000D03*
X88115500Y-34678000D03*
X88115500Y-34278000D03*
D30*
X87278000Y-33440500D03*
X86878000Y-33440500D03*
X86478000Y-33440500D03*
X86078000Y-33440500D03*
X85678000Y-33440500D03*
X85278000Y-33440500D03*
X84878000Y-33440500D03*
X84478000Y-33440500D03*
X84078000Y-33440500D03*
X83678000Y-33440500D03*
X83278000Y-33440500D03*
X82878000Y-33440500D03*
X82478000Y-33440500D03*
X82078000Y-33440500D03*
D31*
X81240500Y-34278000D03*
X81240500Y-34678000D03*
X81240500Y-35078000D03*
X81240500Y-35478000D03*
X81240500Y-35878000D03*
X81240500Y-36278000D03*
X81240500Y-36678000D03*
X81240500Y-37078000D03*
X81240500Y-37478000D03*
X81240500Y-37878000D03*
X81240500Y-38278000D03*
X81240500Y-38678000D03*
X81240500Y-39078000D03*
X81240500Y-39478000D03*
D32*
X84678000Y-36878000D03*
%TD*%
D33*
%TO.C,J1*%
X79270000Y-25795000D03*
X73490000Y-25795000D03*
D34*
X79580000Y-26865000D03*
X78780000Y-26865000D03*
D35*
X77630000Y-26865000D03*
X76630000Y-26865000D03*
X76130000Y-26865000D03*
X75130000Y-26865000D03*
D34*
X73980000Y-26865000D03*
X73180000Y-26865000D03*
X73180000Y-26865000D03*
X73980000Y-26865000D03*
D35*
X74630000Y-26865000D03*
X75630000Y-26865000D03*
X77130000Y-26865000D03*
X78130000Y-26865000D03*
D34*
X78780000Y-26865000D03*
X79580000Y-26865000D03*
D36*
X80700000Y-26295000D03*
D37*
X80700000Y-22100000D03*
D36*
X72060000Y-26295000D03*
D37*
X72060000Y-22100000D03*
%TD*%
D10*
%TO.C,C14*%
X90840000Y-36840000D03*
X91800000Y-36840000D03*
%TD*%
D11*
%TO.C,SW5_MP1*%
X194823943Y-61000000D03*
D12*
X199903943Y-61000000D03*
D11*
X204983943Y-61000000D03*
D13*
X196093943Y-58460000D03*
X202443943Y-55920000D03*
%TD*%
D11*
%TO.C,SW6_DI1*%
X170004257Y-46000561D03*
D12*
X175084257Y-46000561D03*
D11*
X180164257Y-46000561D03*
D13*
X171274257Y-43460561D03*
X177624257Y-40920561D03*
%TD*%
D38*
%TO.C,S1*%
X162342094Y-144210876D03*
D39*
X162342094Y-129000876D03*
D38*
X138466094Y-144210876D03*
D39*
X138466094Y-129000876D03*
%TD*%
D22*
%TO.C,R3*%
X78620000Y-29680000D03*
X79640000Y-29680000D03*
%TD*%
D11*
%TO.C,SW19_LEFT1*%
X87541559Y-62780211D03*
D12*
X92234867Y-64724243D03*
D11*
X96928175Y-66668275D03*
D13*
X89686902Y-60919565D03*
X96525553Y-61002951D03*
%TD*%
D28*
%TO.C,R8*%
X77055000Y-35930000D03*
X78705000Y-35930000D03*
%TD*%
D11*
%TO.C,SW4_LP1*%
X169823943Y-75000000D03*
D12*
X174903943Y-75000000D03*
D11*
X179983943Y-75000000D03*
D13*
X171093943Y-72460000D03*
X177443943Y-69920000D03*
%TD*%
D40*
%TO.C,U3*%
X78410000Y-45349000D03*
X78410000Y-44079000D03*
X78410000Y-42809000D03*
X78410000Y-41539000D03*
X71210000Y-41539000D03*
X71210000Y-42809000D03*
X71210000Y-44079000D03*
X71210000Y-45349000D03*
%TD*%
D11*
%TO.C,SW7_HP1*%
X223823943Y-61000000D03*
D12*
X228903943Y-61000000D03*
D11*
X233983943Y-61000000D03*
D13*
X225093943Y-58460000D03*
X231443943Y-55920000D03*
%TD*%
D19*
%TO.C,H5*%
X249500000Y-108000000D03*
%TD*%
D11*
%TO.C,SW16_SPACE1*%
X145324094Y-135985876D03*
D12*
X150404094Y-135985876D03*
D11*
X155484094Y-135985876D03*
D13*
X146594094Y-133445876D03*
X152944094Y-130905876D03*
%TD*%
D19*
%TO.C,H7*%
X148500000Y-83500000D03*
%TD*%
D16*
%TO.C,SW10_SHARE1*%
X210500000Y-35000000D03*
X219500000Y-35000000D03*
D17*
X212500000Y-41250000D03*
X212500000Y-28750000D03*
X217500000Y-41250000D03*
X217500000Y-28750000D03*
%TD*%
D21*
%TO.C,C11*%
X71880000Y-35910000D03*
X71880000Y-34950000D03*
%TD*%
D15*
%TO.C,C4*%
X96360000Y-33680000D03*
X95400000Y-33680000D03*
%TD*%
D16*
%TO.C,SW15_TOUCHPAD1*%
X240500000Y-35000000D03*
X249500000Y-35000000D03*
D17*
X242500000Y-41250000D03*
X242500000Y-28750000D03*
X247500000Y-41250000D03*
X247500000Y-28750000D03*
%TD*%
D23*
%TO.C,R1*%
X69857000Y-28837000D03*
X69857000Y-29857000D03*
%TD*%
D16*
%TO.C,SW14_PS1*%
X225500000Y-35000000D03*
X234500000Y-35000000D03*
D17*
X227500000Y-41250000D03*
X227500000Y-28750000D03*
X232500000Y-41250000D03*
X232500000Y-28750000D03*
%TD*%
M02*
