%TF.GenerationSoftware,KiCad,Pcbnew,8.0.4*%
%TF.CreationDate,2024-07-22T23:57:25-07:00*%
%TF.ProjectId,leverless_controlller,6c657665-726c-4657-9373-5f636f6e7472,rev?*%
%TF.SameCoordinates,Original*%
%TF.FileFunction,Soldermask,Bot*%
%TF.FilePolarity,Negative*%
%FSLAX46Y46*%
G04 Gerber Fmt 4.6, Leading zero omitted, Abs format (unit mm)*
G04 Created by KiCad (PCBNEW 8.0.4) date 2024-07-22 23:57:25*
%MOMM*%
%LPD*%
G01*
G04 APERTURE LIST*
%ADD10C,1.750000*%
%ADD11C,4.000000*%
%ADD12C,2.500000*%
%ADD13C,1.800000*%
%ADD14O,1.700000X2.900000*%
%ADD15C,3.200000*%
%ADD16C,1.400000*%
%ADD17C,0.600000*%
%ADD18O,1.000000X2.000000*%
%ADD19O,1.000000X1.700000*%
%ADD20C,3.987800*%
%ADD21C,3.048000*%
G04 APERTURE END LIST*
D10*
%TO.C,SW9_HK1*%
X223823943Y-90000000D03*
D11*
X228903943Y-90000000D03*
D10*
X233983943Y-90000000D03*
D12*
X225093943Y-87460000D03*
X231443943Y-84920000D03*
%TD*%
D13*
%TO.C,SW11_START1*%
X195500000Y-35000000D03*
X204500000Y-35000000D03*
D14*
X197500000Y-41250000D03*
X197500000Y-28750000D03*
X202500000Y-41250000D03*
X202500000Y-28750000D03*
%TD*%
D15*
%TO.C,H6*%
X247500000Y-50000000D03*
%TD*%
D10*
%TO.C,SW20_RIGHT1*%
X121210635Y-81055968D03*
D11*
X125903943Y-83000000D03*
D10*
X130597251Y-84944032D03*
D12*
X123355978Y-79195322D03*
X130194629Y-79278708D03*
%TD*%
D10*
%TO.C,SW18_DOWN1*%
X105141464Y-70070330D03*
D11*
X109834772Y-72014362D03*
D10*
X114528080Y-73958394D03*
D12*
X107286807Y-68209684D03*
X114125458Y-68293070D03*
%TD*%
D15*
%TO.C,H4*%
X182000000Y-145000000D03*
%TD*%
D16*
%TO.C,J2*%
X98380000Y-31430000D03*
X96380000Y-31430000D03*
X94380000Y-31430000D03*
%TD*%
D10*
%TO.C,SW17_W1*%
X112431583Y-52470425D03*
D11*
X117124891Y-54414457D03*
D10*
X121818199Y-56358489D03*
D12*
X114576926Y-50609779D03*
X121415577Y-50693165D03*
%TD*%
D10*
%TO.C,SW3_MK1*%
X194823943Y-90000000D03*
D11*
X199903943Y-90000000D03*
D10*
X204983943Y-90000000D03*
D12*
X196093943Y-87460000D03*
X202443943Y-84920000D03*
%TD*%
D15*
%TO.C,H1*%
X50300000Y-30200000D03*
%TD*%
%TO.C,H2*%
X49500000Y-92500000D03*
%TD*%
D10*
%TO.C,SW2_LK1*%
X169823943Y-104000000D03*
D11*
X174903943Y-104000000D03*
D10*
X179983943Y-104000000D03*
D12*
X171093943Y-101460000D03*
X177443943Y-98920000D03*
%TD*%
D10*
%TO.C,SW8_DP1*%
X54920000Y-71991696D03*
D11*
X60000000Y-71991696D03*
D10*
X65080000Y-71991696D03*
D12*
X56190000Y-69451696D03*
X62540000Y-66911696D03*
%TD*%
%TO.C,SW12_THROW1*%
X152420000Y-55250000D03*
X146070000Y-57790000D03*
D10*
X154960000Y-60330000D03*
D11*
X149880000Y-60330000D03*
D10*
X144800000Y-60330000D03*
%TD*%
D15*
%TO.C,H3*%
X148500000Y-34500000D03*
%TD*%
%TO.C,H8*%
X116000000Y-144500000D03*
%TD*%
D17*
%TO.C,J1*%
X79270000Y-25795000D03*
X73490000Y-25795000D03*
D18*
X80700000Y-26295000D03*
D19*
X80700000Y-22100000D03*
D18*
X72060000Y-26295000D03*
D19*
X72060000Y-22100000D03*
%TD*%
D10*
%TO.C,SW5_MP1*%
X194823943Y-61000000D03*
D11*
X199903943Y-61000000D03*
D10*
X204983943Y-61000000D03*
D12*
X196093943Y-58460000D03*
X202443943Y-55920000D03*
%TD*%
D10*
%TO.C,SW6_DI1*%
X170004257Y-46000561D03*
D11*
X175084257Y-46000561D03*
D10*
X180164257Y-46000561D03*
D12*
X171274257Y-43460561D03*
X177624257Y-40920561D03*
%TD*%
D20*
%TO.C,S1*%
X162342094Y-144210876D03*
D21*
X162342094Y-129000876D03*
D20*
X138466094Y-144210876D03*
D21*
X138466094Y-129000876D03*
%TD*%
D10*
%TO.C,SW19_LEFT1*%
X87541559Y-62780211D03*
D11*
X92234867Y-64724243D03*
D10*
X96928175Y-66668275D03*
D12*
X89686902Y-60919565D03*
X96525553Y-61002951D03*
%TD*%
D10*
%TO.C,SW4_LP1*%
X169823943Y-75000000D03*
D11*
X174903943Y-75000000D03*
D10*
X179983943Y-75000000D03*
D12*
X171093943Y-72460000D03*
X177443943Y-69920000D03*
%TD*%
D10*
%TO.C,SW7_HP1*%
X223823943Y-61000000D03*
D11*
X228903943Y-61000000D03*
D10*
X233983943Y-61000000D03*
D12*
X225093943Y-58460000D03*
X231443943Y-55920000D03*
%TD*%
D15*
%TO.C,H5*%
X249500000Y-108000000D03*
%TD*%
D10*
%TO.C,SW16_SPACE1*%
X145324094Y-135985876D03*
D11*
X150404094Y-135985876D03*
D10*
X155484094Y-135985876D03*
D12*
X146594094Y-133445876D03*
X152944094Y-130905876D03*
%TD*%
D15*
%TO.C,H7*%
X148500000Y-83500000D03*
%TD*%
D13*
%TO.C,SW10_SHARE1*%
X210500000Y-35000000D03*
X219500000Y-35000000D03*
D14*
X212500000Y-41250000D03*
X212500000Y-28750000D03*
X217500000Y-41250000D03*
X217500000Y-28750000D03*
%TD*%
D13*
%TO.C,SW15_TOUCHPAD1*%
X240500000Y-35000000D03*
X249500000Y-35000000D03*
D14*
X242500000Y-41250000D03*
X242500000Y-28750000D03*
X247500000Y-41250000D03*
X247500000Y-28750000D03*
%TD*%
D13*
%TO.C,SW14_PS1*%
X225500000Y-35000000D03*
X234500000Y-35000000D03*
D14*
X227500000Y-41250000D03*
X227500000Y-28750000D03*
X232500000Y-41250000D03*
X232500000Y-28750000D03*
%TD*%
M02*
